<svg width="16" height="16" viewBox="0 0 16 16" fill="none" xmlns="http://www.w3.org/2000/svg">
<path d="M2.44922 2.01272C2.45511 2.01558 2.48482 2.06583 2.51465 2.07815C2.53535 2.08667 2.5996 2.07141 2.62598 2.08889C2.65179 2.10635 2.59896 2.1254 2.62989 2.15432C2.66138 2.18308 2.7335 2.17088 2.74219 2.22854C2.76173 2.36303 2.74059 2.53987 2.71192 2.67385C2.70286 2.71488 2.66448 2.69459 2.65625 2.72268C2.6408 2.77937 2.66002 2.83268 2.64161 2.8887C2.63534 2.90716 2.57314 2.88444 2.56739 2.90335C2.5396 3.00987 2.55528 3.11089 2.542 3.21878C2.47596 3.75104 2.45252 4.27473 2.42383 4.8135C2.41443 4.99113 2.35689 5.20717 2.38184 5.39065C2.38476 5.4117 2.43816 5.3999 2.44434 5.40335C2.51408 5.46727 2.40253 5.44657 2.3877 5.48831C2.32932 5.65382 2.32441 5.83784 2.34571 5.9971C2.35494 6.06491 2.46484 5.99725 2.40332 6.06546C2.39917 6.07019 2.34051 6.05295 2.33399 6.07132C2.31991 6.1135 2.33083 6.1939 2.32618 6.22659C2.31694 6.28947 2.31708 6.29985 2.31641 6.3594C2.31499 6.44081 2.2856 6.53767 2.29883 6.62503C2.30183 6.64357 2.36131 6.61952 2.37207 6.64846C2.3823 6.67825 2.37747 6.75765 2.36329 6.78421C2.34897 6.81051 2.30185 6.79906 2.29102 6.80374C2.20025 6.84211 2.32407 6.93247 2.32911 6.94534C2.38247 7.15901 2.31043 7.34245 2.31055 7.543C2.31086 7.69535 2.3353 7.85896 2.33204 8.00393C2.32788 8.17643 2.29522 8.32267 2.30079 8.49026C2.30131 8.50791 2.37178 8.48756 2.37305 8.50882C2.38128 8.73846 2.37289 8.96669 2.3252 9.19534C2.32036 9.21823 2.25881 9.18934 2.25 9.21194C2.19896 9.35229 2.07623 9.57487 2.34668 9.65823C2.33614 9.75319 2.32491 9.86822 2.27051 9.95315C2.23542 10.008 2.16839 9.95513 2.19727 10.0225C2.20435 10.0371 2.26245 10.0184 2.26758 10.041C2.28911 10.1368 2.2703 10.2413 2.30079 10.336C2.30715 10.3553 2.36056 10.35 2.37012 10.3555C2.44718 10.4015 2.31887 10.4785 2.30957 10.4951C2.24045 10.622 2.2683 10.7148 2.26661 10.833C2.26631 10.8604 2.33672 10.8281 2.33887 10.8545C2.34908 10.9915 2.34317 11.1335 2.31153 11.2676C2.30426 11.2973 2.24408 11.2702 2.23731 11.2842C2.2092 11.347 2.32303 11.3609 2.29883 11.4209C2.29377 11.4336 2.2423 11.4275 2.23633 11.4297C2.14666 11.466 2.27357 11.4975 2.27637 11.5069C2.31424 11.6247 2.18242 11.7005 2.20118 11.8145C2.20492 11.8269 2.26844 11.7976 2.27149 11.835C2.28966 12.0906 2.27139 12.3613 2.21875 12.6143C2.21066 12.6536 2.16137 12.6255 2.15528 12.628C2.06111 12.6679 2.18531 12.6941 2.19239 12.7071C2.22698 12.8083 2.12049 12.9029 2.27246 12.9717C2.23723 13.258 2.2604 13.5435 2.24121 13.8282C2.24475 13.8293 2.24842 13.8299 2.25196 13.8311C2.25736 13.8327 2.24801 13.8956 2.25879 13.8985C2.38852 13.9337 2.3634 13.8362 2.44922 13.7168C2.47086 13.6868 2.53715 13.8313 2.54297 13.8418C2.56381 13.8806 2.5423 13.9725 2.54883 13.9815C2.60763 14.0407 2.59842 13.7316 2.67774 13.7315C2.68004 13.7327 2.67015 13.7893 2.67676 13.7949C2.69726 13.8121 2.71724 13.7904 2.73731 13.8096C2.78357 13.8549 2.8006 14.0046 2.8711 13.918C2.88005 13.9066 2.86668 13.731 2.9375 13.7393C2.96591 13.7427 3.09099 13.7397 3.12598 13.751C3.16009 13.7624 3.13685 13.8176 3.13868 13.8213C3.23285 13.896 3.19808 13.9267 3.24512 14.0371C3.29228 14.1472 3.27871 13.8854 3.29786 13.8555C3.31706 13.8264 3.38598 13.8875 3.40332 13.9092C3.42013 13.9304 3.39984 13.9661 3.41407 13.9785C3.51408 14.0578 3.45838 13.8486 3.49121 13.8067C3.56896 13.7079 3.63 13.9028 3.70118 13.9219C3.72004 13.9266 3.70461 13.8831 3.72168 13.8789C3.78946 13.8631 3.83026 13.9234 3.90723 13.8682C3.91986 13.8591 3.98301 13.7414 4.02344 13.8272C4.02917 13.8396 4.01305 13.8886 4.042 13.8994C4.08525 13.9157 4.16263 13.9263 4.20899 13.9102C4.24324 13.8982 4.20428 13.8184 4.24707 13.8428C4.26622 13.8539 4.23099 13.9009 4.26661 13.918C4.30248 13.9349 4.39479 13.9323 4.42969 13.9307C4.46433 13.9289 4.44543 13.8684 4.44825 13.8643C4.46554 13.8409 4.5322 13.8115 4.53809 13.8116C4.83608 13.8042 5.11123 13.9069 5.40137 13.8731C5.42306 13.87 5.40971 13.81 5.41211 13.8057C5.49007 13.7789 5.42894 13.9489 5.4834 14.0059C5.47553 13.8759 5.50759 13.899 5.5625 13.8848C5.58856 13.8775 5.57475 13.8274 5.57715 13.8223C5.61628 13.7467 5.64337 13.8451 5.65039 13.8653C5.67637 13.9393 5.70499 13.8518 5.72266 13.9014C5.74013 13.9507 5.69937 14.0234 5.75196 14.0225C5.76657 13.9759 5.72774 13.8548 5.76758 13.835C5.91839 13.7605 6.1999 13.8553 6.32129 13.8653C6.44217 13.8751 6.48143 13.8671 6.55176 13.8838C6.67919 13.9142 6.63279 13.8235 6.71192 13.7823C6.79089 13.7414 6.75255 13.9623 6.76368 14.0108C6.77487 14.0585 6.78783 14.0099 6.80176 14.0362C6.8152 14.0623 6.78585 14.0947 6.81836 14.1045C6.85132 14.1136 6.9395 14.0292 6.95118 13.9795C6.97566 13.8738 6.93602 13.7628 7.02247 13.8018C7.02704 13.805 7.0114 13.8623 7.03028 13.8682C7.18143 13.9131 7.3383 13.9164 7.48926 13.9561C7.51003 13.9616 7.49183 14.0263 7.50391 14.0303C7.62951 14.0716 7.58452 13.9623 7.65332 13.8408C7.63788 14.0024 7.6762 14.1014 7.77149 14.1026C7.82892 14.1032 7.8193 14.0323 7.85645 13.9824C7.86772 13.9678 7.90868 14.0156 7.91602 13.9824C7.94004 13.874 7.90194 13.7528 8 13.8008C8.00432 13.8031 7.99093 13.8626 8.00586 13.8662C8.10215 13.8896 8.11374 13.7766 8.21778 13.7627C8.29946 13.7519 8.44496 13.8207 8.53809 13.8321C8.53613 14.0138 8.62442 13.9728 8.66016 13.8477C8.72039 13.8528 8.78551 13.8452 8.84375 13.8623C8.86372 13.8682 8.85122 13.9205 8.85352 13.9268C8.89217 14.0155 8.91853 13.8957 8.93164 13.8897C9.07302 13.8432 9.18832 13.9351 9.32325 13.8448C9.32804 13.8396 9.33629 13.7161 9.37207 13.8076C9.37399 13.8144 9.33037 13.8716 9.39356 13.876C9.45709 13.8807 9.57618 13.9478 9.66407 13.8897C9.68537 13.8756 9.73993 13.7729 9.78321 13.8526C9.78896 13.8634 9.78282 13.8997 9.79102 13.9199C9.8179 13.9841 9.8327 13.857 9.86426 13.9649C9.89587 14.0733 9.96103 14.1547 10.0498 14.0801C10.0526 14.0779 10.0746 13.9769 10.1025 13.9785C10.1471 13.9813 10.2104 14.0026 10.2568 14.002C10.2784 14.0013 10.2655 13.9412 10.2686 13.9375C10.4184 13.9023 10.5251 13.9581 10.6856 13.9824C10.715 13.987 10.8004 13.901 10.8574 13.9688C10.9199 14.0431 10.8555 14.3514 10.999 14.2783C11.0571 14.2489 11.131 13.8577 11.2354 14.0606C11.4375 14.0104 11.6244 14.1136 11.8272 14.042C11.8363 14.0388 11.8653 13.9293 11.8867 13.9307C11.9186 13.9331 11.9363 13.984 11.959 13.9873C12.0542 14.0027 12.1416 13.9591 12.2334 13.9658C12.2678 13.9686 12.256 14.0211 12.2969 14.0244C12.3384 14.0273 12.3666 13.9579 12.4229 13.9912C12.4654 14.0168 12.508 14.1592 12.5645 14.1758C12.5666 14.0356 12.6059 14.038 12.6748 14.001C12.6872 13.9928 12.6735 13.9453 12.6797 13.9395C12.7051 13.9145 12.7288 13.9547 12.7529 13.9278C12.7587 13.9213 12.7591 13.8744 12.7637 13.8653C12.8046 13.7948 12.8721 13.902 12.8838 13.9209C12.9282 13.9921 12.9493 13.93 12.9834 13.958C13.017 13.986 12.9665 14.0211 13.0059 14.0381C13.0882 14.0733 13.1947 14.0652 13.2783 14.0674C13.3105 14.0675 13.2894 14.0068 13.293 14.003C13.3619 13.9868 13.4324 14.0547 13.4707 13.9278C13.5184 14.2557 13.5122 13.8963 13.6104 13.961C13.6181 13.9663 13.6285 14.1227 13.5986 14.1455C13.5688 14.1682 13.5238 14.1198 13.4824 14.1553C13.4726 14.1637 13.4159 14.3096 13.4082 14.3184C13.3485 14.3864 13.3401 14.1544 13.3369 14.1416C13.3009 14.0038 13.2319 14.161 13.2139 14.1719C13.1313 14.2215 13.0613 14.1892 12.9922 14.2246C12.9471 14.2475 12.9425 14.3984 12.9072 14.3946C12.7892 14.3791 12.7479 14.1673 12.6367 14.3516C12.6129 14.391 12.6362 14.5567 12.5508 14.4258C12.5442 14.4151 12.4815 14.2992 12.4453 14.3741C12.4408 14.3838 12.4406 14.4325 12.4346 14.4366C12.3941 14.4624 12.3665 14.424 12.3223 14.4424C12.2781 14.4609 12.2252 14.488 12.1748 14.4717C12.1443 14.4619 12.1044 14.3718 12.0898 14.3496C12.0487 14.2863 12.005 14.39 11.9795 14.3135C11.9537 14.2359 12.004 14.1176 11.9365 14.0674C11.934 14.1935 11.9279 14.3234 11.9238 14.4502C11.7761 14.4458 11.6307 14.4047 11.4824 14.4102C11.4641 14.411 11.4823 14.4784 11.4629 14.4815C11.3798 14.4922 11.3069 14.4439 11.2207 14.4629C11.154 14.478 11.0805 14.5502 11.0107 14.5684C10.9681 14.4241 10.8634 14.4732 10.7881 14.46C10.7622 14.4551 10.7637 14.4169 10.7451 14.4043C10.6746 14.358 10.7074 14.484 10.6885 14.5049C10.6053 14.5904 10.5978 14.3034 10.5 14.3096C10.4948 14.3099 10.4309 14.4623 10.4219 14.4727C10.3663 14.5351 10.4126 14.4197 10.3779 14.4082C10.3143 14.3875 10.2699 14.3505 10.1953 14.3955C10.1735 14.4093 10.1212 14.5047 10.0791 14.4307C10.0736 14.4208 10.0767 14.3702 10.0723 14.3672C9.99145 14.3177 9.98947 14.477 9.94336 14.5313C9.89709 14.5854 9.8251 14.4752 9.81055 14.4434C9.7731 14.3624 9.83796 14.4068 9.8418 14.4004C9.86597 14.3045 9.81423 14.3206 9.77442 14.3125C9.76865 14.1559 9.71323 14.1652 9.7334 14.3047C9.73575 14.3199 9.76643 14.3054 9.77442 14.3125C9.73945 14.4662 9.67797 14.4855 9.61036 14.3418C9.57902 14.2746 9.60865 14.197 9.5127 14.2256C9.46914 14.2386 9.48555 14.3454 9.44727 14.375C9.35931 14.4421 9.24499 14.3416 9.1543 14.3574C9.12139 14.3632 9.15336 14.4228 9.13086 14.4287C9.07133 14.4446 9.01877 14.4005 8.95899 14.4229C8.95359 14.425 8.96631 14.4857 8.94825 14.4873C8.80698 14.4945 8.6836 14.4553 8.53614 14.4541C8.46496 14.4536 8.3376 14.4872 8.26368 14.4805C8.13566 14.469 7.97753 14.3796 7.86817 14.4014C7.79709 14.4155 7.81276 14.4775 7.78223 14.5196C7.72323 14.6009 7.61854 14.4543 7.6045 14.4317C7.60589 14.4305 7.66507 14.416 7.63282 14.3848C7.61434 14.3208 7.60559 14.4255 7.6045 14.4317C7.59369 14.4172 7.47241 14.4033 7.44825 14.4151C7.43526 14.422 7.44242 14.4802 7.43555 14.4824C7.27171 14.5348 7.10758 14.5498 6.94141 14.5225C6.93848 14.5213 6.94243 14.4561 6.93555 14.4541C6.83941 14.4252 6.77758 14.5052 6.69825 14.5528C6.61909 14.6 6.55569 14.5839 6.50879 14.4717C6.44898 14.4854 6.36379 14.4354 6.31446 14.4053C6.26501 14.3751 6.25728 14.5034 6.25293 14.5059C6.1175 14.5862 6.03904 14.5134 5.89844 14.502C5.83151 14.4964 5.69845 14.5144 5.62598 14.5283C5.56876 14.5395 5.5342 14.5102 5.48145 14.5293C5.47458 14.5327 5.48166 14.5887 5.4795 14.5908C5.42066 14.6587 5.44869 14.5199 5.43653 14.4951C5.39245 14.405 5.36546 14.357 5.29004 14.3994C5.27271 14.4091 5.22217 14.607 5.19043 14.6201C5.1492 14.635 5.16427 14.5637 5.1211 14.5811C5.11757 14.5836 5.11804 14.6269 5.0918 14.625C4.96824 14.6166 4.8335 14.5904 4.70508 14.5948C4.6876 14.5952 4.7094 14.6646 4.68457 14.667C4.56554 14.6753 4.43433 14.6735 4.31836 14.6407C4.29022 14.6321 4.30794 14.5829 4.30176 14.5684C4.26405 14.481 4.21077 14.6058 4.20118 14.6104C3.98884 14.672 3.82579 14.5561 3.60938 14.6114C3.59645 14.6167 3.50699 14.751 3.4668 14.6348C3.46404 14.627 3.42403 14.5062 3.38868 14.5879C3.38648 14.5931 3.41131 14.6555 3.36817 14.6494C3.32464 14.6431 3.25417 14.6844 3.19434 14.6162C3.17537 14.5946 3.13067 14.4746 3.07422 14.5703C3.07025 14.5778 2.98328 14.7932 2.95215 14.6446C2.94711 14.62 2.95208 14.4612 2.88477 14.542C2.87189 14.5577 2.89528 14.5932 2.86133 14.6153C2.80933 14.6491 2.74066 14.6073 2.67676 14.6778C2.66548 14.6906 2.61807 14.7972 2.58008 14.7158C2.57426 14.7029 2.58536 14.6506 2.56543 14.6446C2.46983 14.6162 2.36953 14.6518 2.27246 14.6153C2.23809 14.6024 2.25554 14.5171 2.21973 14.4942C2.18388 14.4713 2.11173 14.4493 2.07422 14.4883C2.03715 14.5277 2.07756 14.663 2.02149 14.6739C2.01432 14.6752 2.00717 14.6766 2 14.6778C1.61733 14.6538 1.29835 14.3827 1.32227 14C1.28348 13.763 1.35879 13.5278 1.37012 13.291C1.3716 13.2553 1.32319 13.2847 1.32227 13.2315C1.3186 13.0348 1.27353 12.6959 1.37696 12.5254C1.45984 12.3888 1.52292 12.5605 1.55664 12.4561C1.57248 12.4057 1.41416 12.3511 1.40918 12.3389C1.35866 12.2201 1.42873 12.1373 1.40723 12.0303C1.4024 12.0088 1.34006 12.0296 1.33594 12.0117C1.32483 11.9476 1.35285 11.8797 1.34766 11.8184C1.34517 11.7909 1.29619 11.7957 1.29981 11.7705C1.30829 11.7099 1.32909 11.6558 1.375 11.5967C1.38047 11.5924 1.44015 11.6273 1.44239 11.583C1.44595 11.5105 1.49107 11.4204 1.44434 11.3369C1.42998 11.3123 1.31844 11.311 1.39551 11.2578C1.41166 11.2467 1.54584 11.2613 1.42969 11.1992C1.40919 11.188 1.25497 11.0841 1.35547 11.0332C1.38249 11.0196 1.49185 10.9848 1.47461 10.9551C1.47059 10.9516 1.41143 10.9674 1.40528 10.9434C1.38569 10.8565 1.39274 10.7651 1.37403 10.6758C1.36888 10.6519 1.30647 10.687 1.30079 10.6514C1.28508 10.5536 1.30086 10.4316 1.32032 10.336C1.32762 10.3007 1.37916 10.3249 1.38477 10.3223C1.4753 10.2813 1.35405 10.2569 1.34571 10.2432C1.30275 10.1581 1.35989 10.0931 1.34473 10.0147C1.34072 9.99332 1.28403 10.0076 1.27735 10.0039C1.22619 9.95919 1.33115 9.99221 1.34278 9.96389C1.37568 9.88457 1.37079 9.79607 1.36329 9.71585C1.36016 9.6868 1.29307 9.71945 1.29102 9.69339C1.27929 9.53685 1.28571 9.3735 1.32325 9.22073C1.33078 9.19264 1.38232 9.20986 1.39454 9.20413C1.47807 9.16293 1.36497 9.10306 1.35352 9.08889C1.30382 9.02553 1.35045 9.00032 1.3418 8.94436C1.29881 8.6712 1.3287 8.33406 1.34766 8.0762C1.37208 7.73999 1.42213 7.47884 1.40918 7.15823C1.40843 7.13785 1.33944 7.15822 1.33789 7.14065C1.32111 6.91404 1.3482 6.69095 1.32813 6.46389C1.3266 6.44525 1.26054 6.47136 1.25586 6.44143C1.24586 6.38008 1.24943 6.30224 1.27051 6.24026C1.28103 6.21092 1.33633 6.25037 1.34571 6.22073C1.36693 6.14992 1.37184 6.07375 1.36133 6.001C1.35668 5.96999 1.28887 6.01593 1.28809 5.97561C1.28138 5.70119 1.26998 5.43164 1.35743 5.15432C1.36343 5.13532 1.50058 5.11851 1.47461 5.07815C1.43647 5.07511 1.39135 5.0746 1.35059 5.07327C1.32869 4.67364 1.37643 4.27774 1.38379 3.87698C1.38311 3.86081 1.31133 3.88898 1.31153 3.85647C1.31257 3.66725 1.29296 3.48363 1.36524 3.29007C1.37232 3.27084 1.49985 3.28031 1.48047 3.22366C1.4768 3.21282 1.46012 3.12868 1.43262 3.10647C1.42844 3.10349 1.36835 3.11893 1.36622 3.09182C1.35713 2.93205 1.37069 2.76401 1.40723 2.60452C1.41351 2.5791 1.4776 2.60621 1.48243 2.58792C1.51608 2.45795 1.46764 2.31658 1.52539 2.19241C1.56432 2.10923 1.67486 2.13993 1.78321 2.09573C1.79811 2.08872 1.801 2.03791 1.86329 2.03518C2.02172 2.02835 2.19538 2.05319 2.36426 2.043C2.40059 2.04084 2.36187 1.97233 2.44922 2.01272ZM11.6309 14.2354C11.5711 14.137 11.5302 14.282 11.5723 14.3584C11.6145 14.4348 11.6491 14.2654 11.6309 14.2354ZM12.8682 14.085C12.8463 14.042 12.7835 14.0911 12.8106 14.1446C12.8323 14.1875 12.8948 14.1384 12.8682 14.085ZM3.70313 14.0313C3.70205 14.028 3.67529 14.0252 3.67579 14.044C3.67759 14.1048 3.71514 14.0875 3.70313 14.0313ZM13.835 13.836C13.8651 13.8415 13.7694 13.9196 13.8076 13.9434C13.8787 13.9865 13.9265 13.8218 13.999 13.9102C14.0105 13.9279 13.9262 14.0775 13.915 14.0811L13.8604 14.0655C13.741 14.0076 13.6876 13.81 13.835 13.836ZM6.02637 13.9991C6.0069 14.0698 6.08099 14.0749 6.06543 14.001C6.06365 13.9981 6.02724 13.9961 6.02637 13.9991ZM2.06348 13.8867C2.02512 13.9882 2.15191 14.0103 2.15918 13.9326L2.11133 13.8848C2.0887 13.8831 2.06492 13.8837 2.06348 13.8867ZM1.81641 2.26175C1.7454 2.24224 1.73959 2.31648 1.81348 2.30081C1.81646 2.30018 1.81936 2.26263 1.81641 2.26175Z" fill="#555961"/>
<path d="M13.4974 13.9864C13.4908 13.9887 13.4134 13.9812 13.39 13.9844C13.3473 13.9903 13.5115 13.994 13.4232 14C13.4058 14.001 13.2587 13.9942 13.2523 13.9932L13.3001 13.9844C13.3777 13.9774 13.5196 13.9758 13.4974 13.9864ZM13.848 12.0069C13.8687 12.0076 13.9329 12.0064 13.9593 12.0078C13.9851 12.0093 13.9323 12.0103 13.9632 12.0127C13.9949 12.0151 14.0669 12.0148 14.0755 12.0196C14.0949 12.0308 14.0739 12.0445 14.0452 12.0557C14.036 12.059 13.9982 12.0583 13.9896 12.0606C13.9742 12.0653 13.9931 12.0696 13.9749 12.0743C13.9688 12.0758 13.9082 12.0738 13.9007 12.0752C13.873 12.0841 13.8884 12.0926 13.8753 12.1016C13.8094 12.1459 13.7858 12.1896 13.7571 12.2344C13.7478 12.2492 13.6906 12.267 13.7152 12.2823C13.7181 12.284 13.7713 12.283 13.7777 12.2832C13.8474 12.2886 13.7358 12.2876 13.721 12.291C13.6628 12.3048 13.6578 12.3198 13.679 12.333C13.6882 12.3387 13.7978 12.3332 13.7366 12.3389C13.7325 12.3393 13.6741 12.3374 13.6673 12.3389C13.6534 12.3424 13.6637 12.3498 13.6595 12.3526C13.6502 12.3578 13.6504 12.3584 13.6497 12.3633C13.6483 12.3701 13.619 12.3785 13.6321 12.3858C13.6351 12.3873 13.6942 12.3854 13.7054 12.3877C13.7156 12.3902 13.7108 12.3963 13.6966 12.3985C13.6823 12.4007 13.6351 12.4 13.6243 12.4004C13.535 12.4036 13.6544 12.4109 13.6624 12.4121C13.7158 12.4299 13.6438 12.4452 13.6439 12.4619C13.6442 12.4745 13.6681 12.488 13.6654 12.5C13.6612 12.5144 13.6285 12.5271 13.6341 12.541C13.6379 12.5423 13.7047 12.5403 13.7064 12.542C13.7146 12.5612 13.7063 12.5806 13.6585 12.5996C13.6523 12.6014 13.5924 12.5988 13.5833 12.6006C13.5323 12.6123 13.4096 12.6308 13.68 12.6377C13.6694 12.6457 13.6583 12.656 13.6038 12.6631C13.5687 12.6676 13.5018 12.6634 13.5306 12.669C13.539 12.6701 13.5951 12.6682 13.6009 12.67C13.6226 12.6779 13.6035 12.6865 13.6341 12.6944C13.6405 12.696 13.6939 12.6959 13.7034 12.6963C13.7801 12.7002 13.6522 12.7067 13.6429 12.708C13.5739 12.7186 13.6016 12.7265 13.5999 12.7364C13.6061 12.7381 13.6701 12.7362 13.6722 12.7383C13.6823 12.7497 13.6764 12.7613 13.6448 12.7725C13.6371 12.7749 13.5782 12.7724 13.5706 12.7735C13.5425 12.7787 13.6569 12.7802 13.6321 12.7852C13.6267 12.7862 13.5764 12.786 13.5696 12.7862C13.48 12.7892 13.6069 12.7912 13.6097 12.792C13.6479 12.8019 13.5157 12.8079 13.5345 12.8174C13.54 12.8183 13.6002 12.8165 13.6048 12.8194C13.623 12.8407 13.6047 12.8637 13.5521 12.8848C13.543 12.8879 13.4946 12.8856 13.4886 12.8858C13.3946 12.8891 13.5187 12.8915 13.5257 12.8926C13.5603 12.901 13.4538 12.9084 13.6058 12.9141C13.5531 12.9498 13.6381 12.9861 13.5023 13.0215C13.5007 13.022 13.44 13.0207 13.4349 13.0215C13.3996 13.0323 13.4971 13.03 13.6165 13.0371C13.6464 13.0389 13.5021 13.0445 13.4915 13.045C13.4528 13.0467 13.3605 13.0454 13.3519 13.0459C13.2926 13.0508 13.6018 13.0501 13.6019 13.0567C13.6014 13.0569 13.5441 13.0561 13.5384 13.0567C13.5211 13.0584 13.5432 13.0599 13.5237 13.0616C13.4783 13.0654 13.329 13.0664 13.4154 13.0723C13.4267 13.073 13.6023 13.0723 13.5941 13.0782C13.5908 13.0806 13.5936 13.0909 13.5823 13.0938C13.5709 13.0967 13.5145 13.0946 13.512 13.0948C13.4374 13.1026 13.4065 13.0996 13.2962 13.1035C13.186 13.1075 13.4485 13.1068 13.4779 13.1084C13.5068 13.11 13.4457 13.1158 13.4241 13.1172C13.4029 13.1186 13.3672 13.117 13.3548 13.1182C13.2755 13.1265 13.485 13.1213 13.5267 13.1241C13.6253 13.1305 13.4311 13.1357 13.4114 13.1416C13.4064 13.1432 13.4487 13.1423 13.4544 13.1436C13.4702 13.1492 13.4101 13.1528 13.4652 13.1592C13.4742 13.1603 13.5916 13.1656 13.5062 13.169C13.4938 13.1695 13.4448 13.1675 13.4339 13.17C13.4176 13.1736 13.407 13.1807 13.4232 13.1846C13.4352 13.1875 13.5153 13.1839 13.4905 13.1875C13.4794 13.1891 13.4323 13.1855 13.4154 13.1885C13.3988 13.1915 13.4011 13.1992 13.4027 13.2022C13.4043 13.2051 13.465 13.2039 13.4691 13.2041C13.4924 13.2056 13.5219 13.2115 13.5218 13.2119C13.5278 13.2366 13.4271 13.2593 13.4603 13.2832C13.4627 13.2851 13.5223 13.284 13.5277 13.2842C13.5545 13.2907 13.3844 13.2855 13.3275 13.2901C13.4574 13.2894 13.4343 13.2923 13.4486 13.2969C13.4564 13.299 13.506 13.2977 13.5111 13.2979C13.5869 13.3011 13.4882 13.3032 13.4681 13.3037C13.3941 13.3059 13.4816 13.3091 13.432 13.3106C13.3836 13.312 13.3125 13.3085 13.3109 13.3125C13.3575 13.3138 13.4786 13.3112 13.4984 13.3145C13.5727 13.327 13.4784 13.3502 13.4681 13.3604C13.4582 13.3705 13.4662 13.3731 13.4495 13.3789C13.4191 13.3896 13.5098 13.386 13.5511 13.3926C13.5903 13.3991 13.3707 13.3966 13.3226 13.3975C13.2749 13.3984 13.3234 13.3993 13.2972 13.4004C13.271 13.4015 13.2386 13.3987 13.2288 13.4014C13.2199 13.4042 13.3042 13.4122 13.3538 13.4131C13.4595 13.4152 13.5705 13.4118 13.5316 13.419C13.5291 13.4194 13.4722 13.4175 13.4652 13.419C13.4202 13.4316 13.417 13.4445 13.3773 13.4571C13.3709 13.4587 13.307 13.458 13.303 13.459C13.2619 13.4695 13.3711 13.465 13.4925 13.4707C13.3308 13.4694 13.2317 13.4735 13.2308 13.4815C13.2337 13.4859 13.3024 13.4853 13.3509 13.4883C13.3652 13.4893 13.3178 13.4926 13.3509 13.4932C13.4592 13.4952 13.5801 13.4919 13.5325 13.5C13.5303 13.5004 13.473 13.4989 13.4671 13.5C13.4435 13.5081 13.5569 13.5099 13.5706 13.5186C13.5806 13.5254 13.5132 13.5372 13.5013 13.545C13.5001 13.545 13.4986 13.545 13.4974 13.545C13.5677 13.5483 13.5756 13.5521 13.4866 13.5547H13.4857C13.4807 13.5597 13.4879 13.5655 13.471 13.5703C13.4651 13.572 13.4128 13.5711 13.4066 13.5713C13.3184 13.5745 13.4361 13.5771 13.4437 13.5782C13.4902 13.5899 13.3982 13.5991 13.4886 13.6104C13.4952 13.6108 13.6166 13.6113 13.5257 13.6143C13.5192 13.6145 13.4618 13.611 13.4573 13.6162C13.4521 13.6216 13.3858 13.6314 13.4437 13.6387C13.4577 13.6405 13.5601 13.6449 13.4808 13.6485C13.47 13.6489 13.4336 13.6488 13.4134 13.6494C13.3492 13.6517 13.4761 13.6527 13.3685 13.6553C13.26 13.6579 13.1784 13.6635 13.2532 13.6709C13.2579 13.6712 13.3502 13.6727 13.3548 13.6748C13.3522 13.6786 13.3307 13.6846 13.3314 13.6885C13.3327 13.6902 13.3907 13.6893 13.3958 13.6895C13.431 13.702 13.3752 13.7103 13.3509 13.7237C13.3468 13.7261 13.4319 13.7336 13.3646 13.7383C13.2904 13.7435 12.982 13.7381 13.055 13.75C13.0844 13.7549 13.4756 13.7609 13.2728 13.7696C13.323 13.7864 13.2196 13.8025 13.2913 13.8194C13.2945 13.8201 13.4041 13.8225 13.4027 13.8243C13.3999 13.8268 13.3516 13.8283 13.346 13.8301C13.3309 13.8379 13.3728 13.845 13.3675 13.8526C13.365 13.8555 13.3119 13.855 13.3089 13.8584C13.3106 13.8617 13.374 13.8637 13.3421 13.8682C13.3165 13.8717 13.1741 13.8762 13.1575 13.8809C13.2977 13.8811 13.2953 13.8839 13.3323 13.8897C13.3408 13.8907 13.3881 13.8892 13.3939 13.8897C13.4189 13.8918 13.3788 13.8945 13.4056 13.8965C13.4121 13.897 13.4591 13.8971 13.4681 13.8975C13.5386 13.9009 13.4312 13.9063 13.4124 13.9073C13.3413 13.911 13.4033 13.9122 13.3753 13.9151C13.3473 13.9179 13.3122 13.9137 13.2952 13.917C13.2608 13.9238 13.2677 13.9326 13.2659 13.9395C13.2654 13.9423 13.329 13.941 13.3304 13.9414C13.3464 13.9472 13.2789 13.9529 13.4056 13.9561C13.0777 13.9601 13.4367 13.9596 13.3724 13.9678C13.3671 13.9685 13.2107 13.9693 13.1878 13.9668C13.1658 13.9643 13.2135 13.9605 13.178 13.9571C13.1668 13.9562 13.0237 13.9518 13.015 13.9512C12.947 13.9462 13.179 13.9446 13.1917 13.9444C13.3295 13.9414 13.1723 13.9361 13.1614 13.9346C13.1118 13.9277 13.1442 13.9218 13.1087 13.916C13.086 13.9125 12.9483 13.9118 12.9388 13.9092C12.9559 13.8995 13.1652 13.896 12.9818 13.8868C12.942 13.8848 12.7768 13.886 12.9075 13.8789C12.9188 13.8784 13.034 13.8732 12.9593 13.8701C12.9495 13.8698 12.9009 13.8697 12.8968 13.8692C12.8714 13.8658 12.9093 13.8641 12.8909 13.8604C12.8724 13.8567 12.8452 13.8519 12.8616 13.8477C12.873 13.8452 12.9617 13.8421 12.9837 13.8409C13.0474 13.8374 12.9433 13.8342 13.0198 13.8321C13.0975 13.8299 13.2158 13.8338 13.2659 13.8282C13.1398 13.8279 13.0099 13.8275 12.8831 13.8272C12.8876 13.8148 12.9287 13.8024 12.9232 13.7901C12.9212 13.7886 12.8545 13.7897 12.8519 13.7881C12.8422 13.7813 12.8889 13.7757 12.8704 13.7686C12.8553 13.763 12.783 13.7568 12.765 13.751C12.9082 13.7475 12.8612 13.7387 12.8734 13.7325C12.8779 13.7303 12.9161 13.7301 12.929 13.7285C12.9754 13.7227 12.8489 13.7253 12.8284 13.7237C12.7428 13.7167 13.0309 13.7162 13.0237 13.708C13.0153 13.7074 12.8721 13.703 12.8607 13.7022C12.7986 13.6976 12.9125 13.7011 12.9251 13.6983C12.9459 13.693 12.9829 13.6889 12.9378 13.6826C12.9244 13.6808 12.8286 13.6764 12.9027 13.6729C12.9122 13.6724 12.962 13.6732 12.9661 13.6729C13.0157 13.6661 12.8562 13.666 12.8021 13.6621C12.748 13.6583 12.8581 13.6526 12.89 13.6514C12.9711 13.6483 12.9264 13.653 12.9329 13.6534C13.029 13.6554 13.0127 13.6508 13.0208 13.6475C12.8671 13.6446 12.8479 13.6395 12.9915 13.6338C13.0587 13.6312 13.1364 13.634 13.1077 13.626C13.0931 13.6225 12.988 13.6242 12.9583 13.6211C12.8919 13.6139 12.9893 13.6042 12.9759 13.5967C12.9701 13.594 12.9106 13.5966 12.9046 13.5948C12.8888 13.5898 12.9329 13.5851 12.9105 13.5801C12.9084 13.5797 12.8509 13.5805 12.846 13.5791C12.8389 13.5674 12.8776 13.5571 12.8792 13.545C12.8797 13.539 12.846 13.5277 12.8529 13.5215C12.866 13.5109 12.9534 13.4983 12.932 13.4893C12.918 13.4833 12.8559 13.484 12.8138 13.4815C12.7329 13.4766 12.8791 13.468 12.9017 13.4668C12.9161 13.4659 12.9298 13.4562 12.9183 13.4541C12.9118 13.453 12.8535 13.4537 12.8509 13.4532C12.7986 13.4395 12.7838 13.426 12.8109 13.4121C12.812 13.4119 12.8733 13.4117 12.8792 13.4112C12.9083 13.4031 12.8282 13.3983 12.7806 13.3916C12.7336 13.3851 12.7498 13.3799 12.8616 13.376C12.848 13.371 12.898 13.3635 12.928 13.3594C12.9565 13.3553 12.83 13.3549 12.8275 13.3545C12.7476 13.3433 12.8194 13.3368 12.8314 13.3252C12.837 13.3197 12.8189 13.3078 12.805 13.3018C12.7938 13.297 12.8231 13.2945 12.804 13.2901C12.8003 13.2895 12.7447 13.2903 12.7425 13.2901C12.6748 13.2852 12.8133 13.2872 12.8382 13.2862C12.9284 13.2825 12.9763 13.2807 12.9339 13.2744C12.9232 13.273 12.7284 13.2683 12.7132 13.2657C12.6984 13.2622 12.7696 13.2634 12.7523 13.2598C12.7507 13.2595 12.7085 13.2599 12.7083 13.2578C12.7167 13.2476 12.7425 13.2362 12.7386 13.2256C12.7382 13.2242 12.6715 13.2255 12.6663 13.2237C12.658 13.2138 12.6602 13.203 12.6927 13.1934C12.701 13.191 12.7503 13.1919 12.765 13.1914C12.8512 13.1883 12.7306 13.1845 12.723 13.1836C12.6614 13.1659 12.7771 13.1518 12.722 13.1338C12.7188 13.1328 12.5816 13.1255 12.6986 13.1221C12.7064 13.1219 12.8269 13.1192 12.7454 13.1162C12.7404 13.1161 12.6799 13.1177 12.6839 13.1143C12.6902 13.1107 12.649 13.1046 12.7171 13.0996C12.7386 13.0981 12.8588 13.0946 12.763 13.0899C12.7563 13.0896 12.5399 13.0817 12.6888 13.0791C12.7133 13.0787 12.8713 13.0798 12.7913 13.0743C12.7757 13.0732 12.7401 13.0751 12.7181 13.0723C12.6841 13.068 12.7261 13.062 12.6556 13.0567C12.6426 13.0557 12.5362 13.052 12.6175 13.0489C12.6305 13.0484 12.6829 13.0486 12.6888 13.0469C12.7171 13.039 12.682 13.0306 12.7181 13.0225C12.7309 13.0196 12.8157 13.0215 12.8392 13.0186C12.8621 13.0156 12.8841 13.009 12.845 13.0059C12.8057 13.0028 12.6714 13.0066 12.6595 13.002C12.6125 12.9818 12.6909 12.9616 12.7034 12.9414C12.7052 12.9384 12.6565 12.94 12.6556 12.9356C12.6513 12.9191 12.6077 12.8911 12.7103 12.877C12.793 12.8657 12.8563 12.8798 12.89 12.8711C12.903 12.867 12.7474 12.8624 12.7425 12.8614C12.6921 12.8515 12.7618 12.8449 12.7405 12.836C12.7362 12.8342 12.6753 12.8354 12.6693 12.834C12.6582 12.8287 12.686 12.8235 12.681 12.8184C12.6786 12.8162 12.6334 12.8163 12.6331 12.8145C12.6416 12.8094 12.6624 12.8048 12.7083 12.7998C12.7124 12.7994 12.772 12.8024 12.7757 12.7989C12.7792 12.7928 12.8244 12.7853 12.7777 12.7784C12.7633 12.7763 12.6521 12.7759 12.7288 12.7715C12.745 12.7706 12.8792 12.7718 12.763 12.7666C12.7418 12.7657 12.5886 12.7572 12.6888 12.753C12.7158 12.7518 12.8245 12.7486 12.8079 12.7461C12.8052 12.7458 12.7445 12.7472 12.7386 12.7451C12.7196 12.738 12.7258 12.7301 12.7073 12.7227C12.7022 12.7207 12.64 12.7237 12.6341 12.7207C12.6184 12.7126 12.6342 12.7023 12.6536 12.6944C12.6616 12.6915 12.7125 12.6936 12.7181 12.6934C12.8087 12.69 12.6871 12.6877 12.679 12.6866C12.636 12.6795 12.6934 12.6745 12.678 12.668C12.672 12.6664 12.6172 12.6673 12.6107 12.667C12.5599 12.6633 12.6632 12.6664 12.6761 12.6641C12.709 12.6575 12.7041 12.6493 12.6966 12.6426C12.69 12.6405 12.626 12.6428 12.6243 12.6407C12.6129 12.6277 12.6193 12.6142 12.6566 12.6016C12.6637 12.5992 12.7152 12.6011 12.7279 12.6006C12.8116 12.5972 12.6977 12.592 12.6868 12.5909C12.6379 12.5857 12.682 12.5836 12.6751 12.5791C12.632 12.5564 12.662 12.5274 12.681 12.5059C12.7054 12.4779 12.7554 12.4564 12.7425 12.4297C12.7378 12.4283 12.6775 12.4299 12.6712 12.4287C12.6545 12.4099 12.6811 12.3909 12.6614 12.3721C12.66 12.3706 12.5965 12.3724 12.5892 12.3701C12.5791 12.365 12.5827 12.3587 12.6038 12.3535C12.615 12.3512 12.6693 12.354 12.679 12.3516C12.7003 12.3457 12.7052 12.3391 12.6946 12.333C12.6887 12.3306 12.6222 12.3344 12.6214 12.3311C12.6147 12.3083 12.6037 12.2857 12.6907 12.2627C12.6968 12.2611 12.8343 12.2602 12.8079 12.2569C12.7698 12.2566 12.7247 12.256 12.6839 12.2559C12.6625 12.2227 12.7098 12.1896 12.7171 12.1563C12.7134 12.1551 12.6446 12.157 12.6448 12.1543C12.6455 12.1387 12.6268 12.1235 12.6986 12.1075C12.7088 12.1059 12.8329 12.1063 12.8138 12.1016C12.8097 12.1005 12.7928 12.0937 12.7659 12.0918C12.7617 12.0916 12.7013 12.0931 12.6995 12.0909C12.6908 12.0777 12.7046 12.064 12.7405 12.0508C12.7466 12.0487 12.8109 12.0504 12.8157 12.0489C12.849 12.038 12.8011 12.026 12.8587 12.0157C12.8977 12.0087 13.0083 12.0115 13.1165 12.0078C13.1314 12.0073 13.1344 12.0032 13.1966 12.003C13.355 12.0024 13.5287 12.0048 13.6976 12.0039C13.7339 12.0038 13.6952 11.9976 13.7825 12.001C13.7884 12.0012 13.8181 12.0058 13.848 12.0069ZM13.1888 13.9004C13.1459 13.9022 13.195 13.9075 13.2484 13.9053C13.2913 13.9035 13.2422 13.8982 13.1888 13.9004ZM13.3343 13.336C13.2635 13.3343 13.2584 13.3402 13.3323 13.3389C13.3351 13.3386 13.3371 13.336 13.3343 13.336ZM13.2894 13.1397C13.2285 13.1398 13.2458 13.1426 13.3021 13.1416C13.3053 13.1415 13.3079 13.1396 13.2894 13.1397ZM13.4466 13.0049C13.3305 13.0013 13.3185 13.0159 13.4407 13.0127C13.447 13.0124 13.4524 13.0051 13.4466 13.0049ZM13.1497 12.0215C13.0786 12.0199 13.0729 12.0267 13.1468 12.0254C13.1498 12.0254 13.1527 12.0216 13.1497 12.0215Z" fill="#555961"/>
<path d="M10.6335 13.9742C10.711 13.9626 10.853 13.9596 10.8307 13.9771C10.824 13.981 10.7468 13.9679 10.7233 13.9732C10.6805 13.9831 10.8449 13.9895 10.7565 13.9996C10.7388 14.0013 10.5847 13.9891 10.5856 13.9879L10.6335 13.9742ZM11.1813 10.6773C11.202 10.6785 11.2663 10.6769 11.2926 10.6793C11.3184 10.6817 11.2656 10.6841 11.2965 10.6881C11.3282 10.692 11.4003 10.6908 11.4089 10.6988C11.4281 10.7175 11.4072 10.7418 11.3786 10.7604C11.3691 10.7658 11.3315 10.7635 11.3229 10.7672C11.3075 10.775 11.3261 10.7819 11.3083 10.7896C11.302 10.7922 11.2404 10.79 11.234 10.7926C11.2064 10.8073 11.2215 10.8207 11.2087 10.8355C11.1427 10.9094 11.1191 10.9825 11.0905 11.0572C11.0811 11.0819 11.0238 11.1118 11.0485 11.1373C11.0514 11.1402 11.1047 11.1388 11.111 11.1393C11.1807 11.1481 11.0692 11.1452 11.0544 11.151C10.9962 11.1739 10.9913 11.1992 11.0124 11.2213C11.0216 11.2307 11.131 11.2216 11.07 11.2311C11.0658 11.2317 11.0071 11.2295 11.0006 11.232C10.9868 11.2378 10.9969 11.2488 10.9928 11.2535C10.9836 11.2623 10.9837 11.2638 10.9831 11.2721C10.9816 11.2834 10.9523 11.297 10.9655 11.3092C10.9685 11.3117 11.0273 11.3082 11.0387 11.3121C11.049 11.3162 11.0441 11.327 11.0299 11.3307C11.0157 11.3343 10.9685 11.3329 10.9577 11.3336C10.8685 11.3388 10.9872 11.351 10.9958 11.3531C11.0489 11.3827 10.9776 11.4084 10.9772 11.4361C10.9775 11.4573 11.002 11.4805 10.9987 11.5006C10.9945 11.5245 10.9619 11.5447 10.9674 11.568C10.968 11.5704 11.0389 11.5679 11.0397 11.5709C11.0478 11.6027 11.0394 11.634 10.9919 11.6656C10.987 11.6688 10.9252 11.6654 10.9167 11.6686C10.8656 11.688 10.7429 11.7185 11.0133 11.7301C11.0028 11.7433 10.9917 11.7593 10.9372 11.7711C10.902 11.7787 10.8351 11.7715 10.8639 11.7809C10.8722 11.7827 10.9292 11.7807 10.9342 11.7838C10.9557 11.7971 10.9369 11.8117 10.9674 11.8248C10.9746 11.8274 11.0273 11.826 11.0368 11.8268C11.1135 11.8331 10.9855 11.844 10.9762 11.8463C10.9076 11.8638 10.9346 11.8769 10.9333 11.8932C10.9329 11.8969 11 11.8929 11.0055 11.8961C11.0158 11.9151 11.0098 11.9351 10.9782 11.9537C10.9708 11.9578 10.9118 11.9539 10.904 11.9557C10.8758 11.9644 10.9903 11.9668 10.9655 11.9752C10.96 11.9769 10.9098 11.9759 10.903 11.9762C10.8133 11.9812 10.9402 11.9856 10.943 11.9869C10.9811 12.0033 10.8491 12.014 10.8678 12.0299C10.874 12.0313 10.9356 12.0277 10.9381 12.0328C10.9562 12.0683 10.938 12.1061 10.8854 12.1412C10.8762 12.1463 10.8279 12.1428 10.8219 12.1432C10.7279 12.1487 10.8521 12.1521 10.859 12.1539C10.8936 12.168 10.7872 12.1805 10.9391 12.19C10.8864 12.2496 10.9716 12.3097 10.8356 12.3688C10.8341 12.3695 10.7738 12.3674 10.7682 12.3688C10.7329 12.3868 10.8304 12.3842 10.9499 12.3961C10.9794 12.3991 10.8354 12.408 10.8249 12.4088C10.7861 12.4117 10.6938 12.4088 10.6852 12.4098C10.626 12.4179 10.9346 12.4164 10.9352 12.4273C10.9347 12.4277 10.8774 12.4264 10.8717 12.4273C10.8545 12.4302 10.8766 12.4333 10.8571 12.4361C10.8116 12.4425 10.6622 12.4449 10.7487 12.4547C10.76 12.4559 10.9357 12.4536 10.9274 12.4635C10.9241 12.4676 10.927 12.485 10.9157 12.4898C10.904 12.4946 10.8478 12.4915 10.8454 12.4918C10.7708 12.5048 10.7398 12.4999 10.6296 12.5064C10.5193 12.513 10.7819 12.5106 10.8112 12.5133C10.8402 12.516 10.7791 12.5255 10.7575 12.5279C10.7362 12.5303 10.7006 12.5279 10.6881 12.5299C10.6089 12.5438 10.8183 12.536 10.86 12.5406C10.9587 12.5514 10.7639 12.56 10.7448 12.5699C10.7487 12.5715 10.7835 12.5708 10.7878 12.5729C10.8036 12.5823 10.7434 12.5876 10.7985 12.5982C10.8076 12.6 10.9249 12.6083 10.8395 12.6139C10.8271 12.6147 10.7781 12.6128 10.7672 12.6168C10.751 12.6228 10.7404 12.6338 10.7565 12.6402C10.7685 12.645 10.8484 12.6392 10.8239 12.6451C10.8128 12.6478 10.7656 12.643 10.7487 12.648C10.7321 12.653 10.7344 12.6656 10.736 12.6705C10.7377 12.6753 10.7983 12.673 10.8024 12.6734C10.8258 12.6758 10.8552 12.6853 10.8551 12.6861C10.8618 12.7273 10.7605 12.7652 10.7936 12.8053C10.7961 12.8083 10.8557 12.8069 10.861 12.8072C10.8878 12.8181 10.7178 12.8094 10.6608 12.817C10.7907 12.8159 10.7676 12.8201 10.7819 12.8277C10.7892 12.8313 10.8393 12.8294 10.8444 12.8297C10.9203 12.8351 10.8216 12.8395 10.8014 12.8404C10.7274 12.844 10.8149 12.8477 10.7653 12.8502C10.7167 12.8526 10.6453 12.8472 10.6442 12.8541C10.6908 12.8561 10.812 12.8515 10.8317 12.857C10.9056 12.8778 10.8125 12.9162 10.8014 12.9332C10.7915 12.95 10.7997 12.9556 10.7829 12.9654C10.7525 12.9831 10.8432 12.9769 10.8844 12.9879C10.9234 12.9987 10.704 12.9932 10.6559 12.9947C10.6082 12.9963 10.6567 12.9987 10.6305 13.0006C10.6044 13.0025 10.572 12.998 10.5622 13.0025C10.5537 13.0072 10.6376 13.0195 10.6872 13.0211C10.7928 13.0245 10.9038 13.0189 10.8649 13.0309C10.8626 13.0315 10.8054 13.0293 10.7985 13.0318C10.7536 13.0528 10.7503 13.0743 10.7106 13.0953C10.7047 13.0981 10.6411 13.0957 10.6364 13.0973C10.5949 13.1147 10.7043 13.1092 10.8258 13.1188C10.6641 13.1166 10.5651 13.1221 10.5641 13.1354C10.566 13.1429 10.6353 13.142 10.6842 13.1471C10.6985 13.1487 10.6512 13.1539 10.6842 13.1549C10.7925 13.1582 10.9135 13.153 10.8659 13.1666C10.8636 13.1672 10.8052 13.1656 10.8005 13.1676C10.7769 13.181 10.8901 13.1824 10.904 13.1969C10.9148 13.2082 10.8459 13.2289 10.8346 13.2418C10.8334 13.2418 10.8319 13.2418 10.8307 13.2418C10.901 13.2473 10.9089 13.254 10.82 13.2584H10.819C10.8142 13.2667 10.8212 13.2758 10.8044 13.2838C10.7985 13.2866 10.7463 13.2844 10.7399 13.2848C10.6515 13.2901 10.7701 13.2947 10.777 13.2965C10.8235 13.3161 10.7316 13.3315 10.8219 13.3502C10.8282 13.3509 10.9501 13.3521 10.859 13.357C10.8526 13.3573 10.7954 13.3512 10.7907 13.36C10.7862 13.3688 10.7186 13.3858 10.777 13.398C10.7911 13.401 10.8935 13.4086 10.8141 13.4146C10.8033 13.4154 10.767 13.4145 10.7467 13.4156C10.6826 13.4194 10.8095 13.421 10.7018 13.4254C10.5933 13.4298 10.5117 13.4394 10.5866 13.4518C10.5918 13.4522 10.6897 13.4548 10.6881 13.4586C10.6854 13.4648 10.6641 13.4736 10.6647 13.4801C10.6651 13.4831 10.724 13.4817 10.7292 13.482C10.7644 13.5029 10.7086 13.5173 10.6842 13.5396C10.6808 13.5438 10.7649 13.5552 10.6979 13.5631C10.6237 13.5718 10.315 13.5636 10.3883 13.5836C10.4178 13.5917 10.809 13.6013 10.6061 13.6158C10.6563 13.6439 10.5533 13.6697 10.6247 13.6979C10.6279 13.6991 10.7375 13.7037 10.736 13.7066C10.7333 13.7109 10.6849 13.7134 10.6794 13.7164C10.6641 13.7296 10.7071 13.7418 10.7008 13.7545C10.6984 13.7593 10.646 13.7577 10.6422 13.7633C10.6394 13.769 10.7085 13.7731 10.6755 13.7809C10.6499 13.7868 10.5075 13.7926 10.4909 13.8004C10.6311 13.8007 10.6287 13.8064 10.6657 13.816C10.6742 13.8177 10.7214 13.8161 10.7272 13.817C10.752 13.8205 10.7122 13.8234 10.7389 13.8268C10.7454 13.8276 10.7925 13.8281 10.8014 13.8287C10.8719 13.8344 10.7645 13.8437 10.7458 13.8453C10.6747 13.8515 10.7367 13.8543 10.7087 13.859C10.6807 13.8636 10.6455 13.8564 10.6286 13.8619C10.5936 13.8733 10.6015 13.8884 10.5993 13.9C10.6025 13.904 10.6624 13.9013 10.6637 13.902C10.6798 13.9115 10.6122 13.9211 10.7389 13.9264C10.411 13.933 10.77 13.9323 10.7057 13.9459C10.7004 13.947 10.544 13.9481 10.5212 13.9439C10.4993 13.9398 10.5468 13.934 10.5114 13.9283C10.5004 13.9268 10.3571 13.9186 10.3483 13.9176C10.2805 13.9093 10.5123 13.9083 10.5251 13.9078C10.6628 13.9028 10.5057 13.8937 10.4948 13.8912C10.445 13.8797 10.4776 13.8696 10.4421 13.86C10.4182 13.8537 10.2675 13.8532 10.2721 13.8482C10.2888 13.832 10.4988 13.8256 10.3151 13.8102C10.2753 13.8069 10.1102 13.8103 10.2409 13.7984C10.2522 13.7975 10.3673 13.7888 10.2926 13.7838C10.2828 13.7832 10.2342 13.7837 10.2301 13.7828C10.2045 13.7772 10.2427 13.7733 10.2243 13.7672C10.2058 13.761 10.1785 13.7537 10.195 13.7467C10.2056 13.7425 10.2949 13.737 10.3171 13.735C10.3807 13.7292 10.2766 13.7229 10.3532 13.7193C10.4308 13.7158 10.5491 13.7229 10.5993 13.7135C10.4732 13.7131 10.3433 13.7121 10.2165 13.7115C10.2209 13.691 10.2621 13.6706 10.2565 13.65C10.2539 13.6476 10.1878 13.6498 10.1852 13.6471C10.1755 13.6357 10.2225 13.6257 10.2038 13.6139C10.1886 13.6046 10.1164 13.5943 10.0983 13.5846C10.2411 13.5787 10.1949 13.5647 10.2067 13.5543C10.2112 13.5507 10.2495 13.55 10.2624 13.5475C10.3088 13.5376 10.1822 13.5423 10.1618 13.5396C10.0761 13.5281 10.3642 13.5269 10.3571 13.5133C10.3483 13.5121 10.2049 13.5038 10.194 13.5025C10.1318 13.4948 10.2464 13.5014 10.2585 13.4967C10.2792 13.4878 10.3162 13.4817 10.2712 13.4713C10.2577 13.4683 10.1621 13.4615 10.236 13.4557C10.2456 13.4549 10.2952 13.4553 10.2995 13.4547C10.3491 13.4434 10.1895 13.4426 10.1354 13.4361C10.0814 13.4297 10.1914 13.4206 10.2233 13.4186C10.3045 13.4133 10.2596 13.422 10.2663 13.4225C10.3623 13.4258 10.346 13.4182 10.3542 13.4127C10.5108 13.4119 10.5014 13.404 10.362 13.4068C10.3468 13.4072 10.3612 13.4116 10.3542 13.4127C10.2005 13.4078 10.1812 13.3996 10.3249 13.3902C10.3921 13.3859 10.4697 13.3899 10.4411 13.3766C10.4265 13.3708 10.3213 13.373 10.2917 13.3678C10.2247 13.3556 10.3246 13.3393 10.3092 13.3268C10.3035 13.3222 10.2439 13.327 10.238 13.3238C10.2222 13.3156 10.2665 13.3077 10.2438 13.2994C10.2412 13.2987 10.184 13.3006 10.1794 13.2984C10.1722 13.2788 10.2115 13.2613 10.2126 13.2408C10.2126 13.2309 10.1794 13.2129 10.1862 13.2027C10.199 13.185 10.2869 13.1631 10.2653 13.148C10.251 13.1383 10.1891 13.1406 10.1471 13.1363C10.0662 13.1281 10.2124 13.1139 10.235 13.1119C10.2495 13.1104 10.263 13.0939 10.2516 13.0904C10.2452 13.0886 10.1873 13.0894 10.1842 13.0885C10.1318 13.0657 10.1168 13.0422 10.1442 13.0191C10.1454 13.0188 10.2064 13.02 10.2126 13.0191C10.2417 13.0058 10.1615 12.997 10.1139 12.9859C10.0669 12.975 10.0831 12.9661 10.195 12.9596C10.1814 12.9513 10.2313 12.9391 10.2614 12.9322C10.2898 12.9255 10.1633 12.925 10.1608 12.9244C10.0804 12.9056 10.1534 12.8942 10.1647 12.8746C10.1702 12.8653 10.1523 12.8466 10.1383 12.8365C10.1271 12.8286 10.1565 12.8243 10.1374 12.817C10.1343 12.816 10.078 12.8173 10.0758 12.817C10.008 12.8088 10.1467 12.8118 10.1715 12.8102C10.2617 12.804 10.3097 12.8011 10.2672 12.7906C10.2573 12.7882 10.061 12.7804 10.0465 12.776C10.0318 12.7703 10.1023 12.7731 10.0856 12.7672C10.0842 12.7667 10.0397 12.766 10.0417 12.7623C10.0502 12.7452 10.0763 12.7264 10.0719 12.7086C10.0702 12.7063 10.0014 12.7092 9.99967 12.7057C9.99149 12.6892 9.99347 12.6709 10.026 12.6549C10.0343 12.6509 10.0836 12.6538 10.0983 12.6529C10.1845 12.6478 10.0642 12.6407 10.0563 12.6393C9.99485 12.6098 10.1098 12.5872 10.0553 12.5572C10.0521 12.5556 9.91489 12.5423 10.0319 12.5367C10.0397 12.5363 10.1603 12.5309 10.0788 12.526C10.0736 12.5257 10.0109 12.5291 10.0172 12.523C10.0235 12.517 9.98242 12.5079 10.0505 12.4996C10.0719 12.497 10.1922 12.4899 10.0964 12.482C10.0889 12.4815 9.87355 12.4698 10.0221 12.4654C10.0467 12.4647 10.2046 12.4659 10.1247 12.4566C10.109 12.4549 10.0735 12.4574 10.0514 12.4527C10.0175 12.4455 10.0594 12.4362 9.98893 12.4273C9.97591 12.4258 9.86958 12.4189 9.95084 12.4137C9.96386 12.4129 10.0161 12.4145 10.0221 12.4117C10.0504 12.3985 10.0151 12.3842 10.0514 12.3707C10.0642 12.366 10.1491 12.3687 10.1725 12.3639C10.1954 12.3589 10.2174 12.3486 10.1784 12.3434C10.139 12.3383 10.005 12.3441 9.99284 12.3365C9.94561 12.3026 10.0249 12.2688 10.0368 12.235C10.0385 12.2299 9.98985 12.2336 9.98893 12.2262C9.98491 12.1988 9.94065 12.1521 10.0436 12.1285C10.1263 12.1097 10.1896 12.1332 10.2233 12.1188C10.237 12.1118 10.0808 12.1038 10.0758 12.1021C10.0257 12.0857 10.0946 12.0749 10.0739 12.0602C10.0696 12.0572 10.009 12.0594 10.0026 12.0572C9.99148 12.0483 10.0196 12.0384 10.0143 12.0299C10.0102 12.0265 9.96683 12.027 9.96647 12.024C9.97495 12.0156 9.99579 12.0078 10.0417 11.9996C10.0458 11.9989 10.1064 12.0038 10.109 11.9977C10.1125 11.9876 10.1578 11.9751 10.111 11.9635C10.0966 11.9601 9.98548 11.9601 10.0622 11.9527C10.0783 11.9512 10.2125 11.9526 10.0964 11.9439C10.0751 11.9423 9.92195 11.9285 10.0221 11.9215C10.0491 11.9196 10.1574 11.9149 10.1413 11.9107C10.1385 11.9102 10.0778 11.9122 10.0719 11.9088C10.0527 11.8968 10.059 11.884 10.0407 11.8717C10.0355 11.8684 9.97313 11.8727 9.96744 11.8678C9.95193 11.8542 9.96761 11.838 9.98698 11.8248C9.99427 11.8199 10.0458 11.8232 10.0514 11.8229C10.1422 11.8171 10.0202 11.813 10.0124 11.8111C9.96937 11.7993 10.0267 11.7908 10.0114 11.7799C10.0059 11.7771 9.95048 11.7784 9.94401 11.7779C9.89325 11.7718 9.99646 11.7768 10.0094 11.773C10.0424 11.762 10.0374 11.749 10.0299 11.7379C10.0235 11.7344 9.95939 11.7385 9.95768 11.735C9.94602 11.7133 9.95247 11.6907 9.98991 11.6695C9.99702 11.6656 10.0485 11.6683 10.0612 11.6676C10.145 11.6618 10.0311 11.6529 10.0202 11.651C9.97113 11.6423 10.0157 11.639 10.0085 11.6314C9.96541 11.5935 9.99534 11.5462 10.0143 11.5104C10.0387 11.4638 10.0885 11.4278 10.0758 11.3834C10.0751 11.3807 10.0101 11.3825 10.0046 11.3805C9.9878 11.3491 10.0145 11.3182 9.99479 11.2867C9.9933 11.2842 9.93003 11.2875 9.92252 11.2838C9.91246 11.2753 9.91606 11.2641 9.93717 11.2555C9.9484 11.2516 10.0029 11.2566 10.0124 11.2525C10.0336 11.2427 10.0386 11.2324 10.028 11.2223C10.0232 11.218 9.95553 11.224 9.95475 11.2184C9.94804 11.1804 9.93717 11.1434 10.0241 11.1051C10.0301 11.1024 10.1676 11.1 10.1413 11.0943C10.1031 11.0939 10.058 11.0935 10.0172 11.0934C9.9955 11.0379 10.0431 10.9829 10.0505 10.9273C10.0507 10.925 9.97799 10.929 9.97819 10.9244C9.97922 10.8981 9.95959 10.8722 10.0319 10.8453C10.0426 10.8428 10.1662 10.8443 10.1471 10.8365C10.1432 10.8348 10.1264 10.823 10.0993 10.8199C10.0951 10.8195 10.0346 10.8218 10.0329 10.818C10.0241 10.7959 10.0377 10.7726 10.0739 10.7506C10.0799 10.747 10.1443 10.7512 10.1491 10.7486C10.1828 10.7306 10.1343 10.7102 10.1921 10.693C10.2311 10.6815 10.3416 10.6864 10.4499 10.6803C10.4647 10.6793 10.4677 10.6719 10.5299 10.6715C10.6884 10.6705 10.862 10.6739 11.0309 10.6725C11.0673 10.6722 11.0285 10.6629 11.1159 10.6686C11.1218 10.669 11.1515 10.6756 11.1813 10.6773ZM10.5221 13.8346C10.4792 13.8376 10.5283 13.8461 10.5817 13.8424C10.6247 13.8394 10.5756 13.8308 10.5221 13.8346ZM10.3083 13.6627C10.232 13.6686 10.4013 13.673 10.4313 13.6705C10.5301 13.6622 10.3847 13.6568 10.3083 13.6627ZM10.6676 12.8922C10.5969 12.8895 10.5918 12.9002 10.6657 12.898C10.6685 12.8975 10.6705 12.8923 10.6676 12.8922ZM10.6227 12.566C10.5619 12.5663 10.5792 12.5716 10.6354 12.5699C10.6387 12.5697 10.6413 12.5659 10.6227 12.566ZM10.7799 12.3424C10.6638 12.3363 10.6519 12.3603 10.7741 12.3551C10.7804 12.3547 10.7857 12.3428 10.7799 12.3424ZM10.4831 10.7027C10.412 10.7 10.4062 10.7108 10.4801 10.7086C10.4831 10.7085 10.486 10.7029 10.4831 10.7027Z" fill="#555961"/>
<path d="M7.93458 13.9694C7.99252 13.9429 8.19001 13.9308 8.16407 13.9635C8.15729 13.9697 8.08009 13.9491 8.05665 13.9576C8.0142 13.9734 8.17812 13.9836 8.08985 13.9996C8.07253 14.0022 7.92439 13.9838 7.91895 13.9811L7.93458 13.9694ZM8.51466 8.68421C8.53537 8.6861 8.59961 8.68228 8.62598 8.68616C8.65187 8.69004 8.59895 8.69438 8.62989 8.70081C8.66145 8.70712 8.73329 8.70472 8.74219 8.71741C8.76173 8.7473 8.7406 8.78627 8.71192 8.81605C8.70286 8.82521 8.66435 8.82145 8.65626 8.82776C8.64087 8.84031 8.65961 8.85151 8.64161 8.8639C8.63535 8.868 8.57315 8.8636 8.56739 8.8678C8.53972 8.89137 8.55497 8.91328 8.542 8.93714C8.47601 9.05532 8.45249 9.17201 8.42383 9.29163C8.41443 9.33111 8.35685 9.37976 8.38184 9.42054C8.38628 9.42489 8.43794 9.42177 8.44434 9.42249C8.51409 9.4367 8.40253 9.43275 8.3877 9.44202C8.32948 9.47878 8.32442 9.51994 8.34571 9.5553C8.35615 9.56987 8.46402 9.55497 8.40333 9.56995C8.39921 9.571 8.34125 9.567 8.33399 9.57093C8.31992 9.5803 8.3308 9.59881 8.32618 9.60609C8.31692 9.62009 8.31708 9.62214 8.31641 9.63538C8.315 9.65335 8.28627 9.67467 8.29883 9.69398C8.30182 9.69809 8.36111 9.69348 8.37208 9.69984C8.3823 9.70645 8.37747 9.72421 8.36329 9.73011C8.34879 9.73588 8.3018 9.73298 8.29102 9.73401C8.20185 9.74241 8.3205 9.76192 8.32911 9.76526C8.38235 9.81263 8.31079 9.85364 8.31055 9.89808C8.31086 9.93188 8.33521 9.96844 8.33204 10.0006C8.32791 10.039 8.29518 10.0717 8.30079 10.109C8.30269 10.1127 8.37173 10.1083 8.37305 10.1129C8.38128 10.1639 8.37288 10.2145 8.3252 10.2653C8.32037 10.2703 8.25904 10.2642 8.25001 10.2692C8.19896 10.3004 8.07624 10.3503 8.34669 10.3688C8.33618 10.3898 8.32475 10.4154 8.27051 10.4342C8.23537 10.4463 8.16846 10.4349 8.19727 10.4498C8.20591 10.4528 8.26254 10.4488 8.26758 10.4537C8.2891 10.475 8.27022 10.4981 8.30079 10.5192C8.30745 10.5234 8.36059 10.5219 8.37012 10.5231C8.44691 10.5333 8.31887 10.5506 8.30958 10.5543C8.24054 10.5825 8.26829 10.6033 8.26661 10.6295C8.26619 10.6356 8.33672 10.6285 8.33887 10.6344C8.34908 10.6648 8.34317 10.6964 8.31153 10.7262C8.30384 10.7327 8.24409 10.727 8.23731 10.7301C8.20915 10.7441 8.32363 10.747 8.29883 10.7604C8.29329 10.7631 8.24299 10.7619 8.23633 10.7623C8.14696 10.7704 8.27276 10.7768 8.27637 10.7789C8.3147 10.8052 8.1824 10.8219 8.20118 10.8473C8.20571 10.8499 8.26832 10.844 8.27149 10.8522C8.28966 10.909 8.27137 10.9688 8.21876 11.025C8.21066 11.0338 8.16137 11.0274 8.15528 11.028C8.06026 11.0369 8.18759 11.0437 8.19239 11.0465C8.22679 11.069 8.12059 11.0898 8.27247 11.1051C8.21986 11.2003 8.30471 11.2949 8.16895 11.3893C8.16737 11.3905 8.10444 11.3888 8.10157 11.3912C8.06653 11.42 8.16386 11.4142 8.28321 11.4332C8.31293 11.4381 8.16877 11.4524 8.15821 11.4537C8.11935 11.4584 8.02681 11.4542 8.01856 11.4557C7.95932 11.4688 8.26846 11.4664 8.26856 11.484C8.26805 11.4846 8.21074 11.4825 8.20508 11.484C8.18795 11.4886 8.2099 11.4932 8.19044 11.4977C8.14489 11.5079 7.99564 11.5114 8.08204 11.527C8.09339 11.529 8.26903 11.5259 8.26075 11.5416C8.25736 11.5481 8.26035 11.5759 8.24903 11.5836C8.23739 11.5913 8.18116 11.586 8.17872 11.5866C8.10415 11.6074 8.07313 11.5996 7.9629 11.61C7.85268 11.6205 8.1152 11.6174 8.14454 11.6217C8.17352 11.626 8.11244 11.6413 8.09083 11.6451C8.06952 11.6489 8.03384 11.6448 8.02149 11.6481C7.94221 11.6703 8.15164 11.6574 8.19337 11.6647C8.29212 11.682 8.09723 11.6957 8.07813 11.7116C8.07391 11.7156 8.11503 11.7122 8.1211 11.7155C8.13693 11.7305 8.07663 11.7403 8.13184 11.7575C8.14092 11.7603 8.2583 11.7739 8.17286 11.7828C8.16047 11.7841 8.11153 11.7803 8.10059 11.7867C8.08435 11.7963 8.07399 11.8135 8.08985 11.8239C8.10185 11.8315 8.18187 11.8231 8.15723 11.8326C8.14613 11.8369 8.09899 11.8295 8.08204 11.8375C8.0655 11.8456 8.06774 11.866 8.06934 11.8737C8.07364 11.8807 8.13176 11.877 8.13575 11.8776C8.15886 11.8814 8.18789 11.8955 8.18848 11.8971C8.1959 11.9633 8.09308 12.025 8.12696 12.0895C8.13095 12.0941 8.18905 12.091 8.19434 12.0914C8.22117 12.1088 8.05113 12.095 7.99415 12.1071C8.12409 12.1053 8.10099 12.1124 8.11524 12.1246C8.12232 12.1305 8.1726 12.128 8.17774 12.1285C8.25346 12.1372 8.15493 12.1426 8.13477 12.1442C8.06073 12.1499 8.14826 12.1568 8.09864 12.1608C8.05001 12.1646 7.97851 12.1556 7.97755 12.1666C8.02411 12.1699 8.14511 12.1617 8.16505 12.1705C8.23942 12.204 8.14498 12.2665 8.13477 12.2936C8.12487 12.3205 8.13303 12.3297 8.11622 12.3453C8.08657 12.3734 8.17661 12.363 8.21778 12.3805C8.25705 12.3979 8.03734 12.3897 7.98926 12.3922C7.94158 12.3947 7.99009 12.3969 7.96387 12.4C7.93772 12.403 7.90532 12.3967 7.89551 12.4039C7.8864 12.4113 7.9708 12.4307 8.02051 12.4332C8.12619 12.4387 8.23722 12.4306 8.19825 12.4498C8.19497 12.4508 8.139 12.4469 8.13184 12.4508C8.08692 12.4844 8.08368 12.5198 8.04395 12.5534C8.03696 12.5577 7.97371 12.5536 7.96973 12.5563C7.92823 12.5842 8.03765 12.5742 8.15919 12.5895C7.99761 12.5861 7.89862 12.5947 7.89747 12.6159C7.89684 12.6286 7.96778 12.6262 8.01758 12.6344C8.03213 12.6369 7.98446 12.6464 8.01758 12.6481C8.1259 12.6534 8.24688 12.6449 8.19923 12.6666C8.19697 12.6676 8.13947 12.6646 8.1338 12.6676C8.11022 12.6891 8.22355 12.6923 8.23731 12.7155C8.2473 12.7337 8.17919 12.7662 8.16798 12.7867C8.16645 12.7867 8.16458 12.7868 8.16309 12.7867C8.23429 12.7956 8.24266 12.806 8.15333 12.8131H8.15235C8.14724 12.8265 8.15474 12.8412 8.1377 12.8541C8.13184 12.8586 8.07959 12.8556 8.07325 12.8561C7.98524 12.8646 8.10243 12.8707 8.11036 12.8737C8.15686 12.9051 8.0649 12.9306 8.15528 12.9606C8.16154 12.9616 8.28348 12.9634 8.19239 12.9713C8.18592 12.9718 8.12847 12.9621 8.12403 12.9762C8.11952 12.9903 8.0519 13.0172 8.11036 13.0367C8.12443 13.0415 8.22685 13.0535 8.14747 13.0631C8.13666 13.0644 8.10033 13.0623 8.08008 13.0641C8.01592 13.0701 8.14279 13.0737 8.03516 13.0807C7.92666 13.0877 7.84507 13.1029 7.91993 13.1227C7.9253 13.1234 8.01925 13.1275 8.02149 13.1334C8.01885 13.1433 7.99739 13.1582 7.99805 13.1686C8.00021 13.173 8.0572 13.17 8.06251 13.1705C8.09771 13.2038 8.04193 13.2276 8.01758 13.2633C8.01301 13.2699 8.09872 13.2887 8.03126 13.3014C7.95718 13.3153 7.64934 13.3008 7.72169 13.3326C7.75109 13.3455 8.1423 13.3622 7.93946 13.3854C7.98971 13.4303 7.88636 13.4722 7.95801 13.5172C7.96113 13.5192 8.06667 13.5252 8.06934 13.5299C8.06695 13.5369 8.0169 13.5415 8.0127 13.5465C7.99741 13.5676 8.04038 13.5868 8.03419 13.6071C8.03172 13.6148 7.97854 13.6125 7.97559 13.6217C7.97318 13.6309 8.04147 13.6367 8.0088 13.6491C7.9832 13.6585 7.84079 13.6687 7.82423 13.6813C7.96442 13.6818 7.96202 13.6904 7.99903 13.7057C8.00764 13.7084 8.05476 13.7053 8.06055 13.7067C8.08547 13.7123 8.04536 13.7179 8.07227 13.7233C8.07876 13.7246 8.12577 13.7242 8.13477 13.7252C8.20528 13.7343 8.09786 13.749 8.07911 13.7516C8.00791 13.7615 8.07004 13.7665 8.042 13.7741C8.01399 13.7815 7.9789 13.7701 7.96192 13.7789C7.92682 13.7972 7.9348 13.8209 7.93262 13.8395C7.93204 13.8469 7.99568 13.8423 7.99708 13.8434C8.01251 13.8586 7.94602 13.874 8.07227 13.8825C7.74423 13.8931 8.10378 13.8919 8.03907 13.9137C8.03374 13.9154 7.87735 13.9174 7.8545 13.9108C7.83248 13.9041 7.88018 13.8936 7.84473 13.8844C7.83286 13.882 7.69036 13.8705 7.68165 13.8688C7.61359 13.8555 7.84565 13.8529 7.85841 13.8522C7.99614 13.8442 7.83899 13.8288 7.82813 13.8248C7.77873 13.8065 7.81085 13.7913 7.7754 13.776C7.75236 13.7663 7.60928 13.7647 7.60548 13.7575C7.62089 13.7312 7.83274 13.7216 7.64844 13.6969C7.60868 13.6917 7.44355 13.6973 7.57423 13.6784C7.58506 13.6769 7.70082 13.663 7.62598 13.6549C7.61631 13.6539 7.56755 13.6533 7.56348 13.652C7.53803 13.643 7.57583 13.6373 7.55762 13.6276C7.53911 13.6177 7.51187 13.6056 7.52833 13.5944C7.53903 13.5876 7.62827 13.579 7.6504 13.5758C7.71407 13.5667 7.61002 13.5571 7.68653 13.5514C7.76415 13.5457 7.88247 13.5566 7.93262 13.5416C7.80653 13.5411 7.67662 13.5396 7.54981 13.5387C7.55425 13.5058 7.59542 13.4731 7.58985 13.4401C7.58668 13.4364 7.52133 13.4404 7.51856 13.4362C7.50783 13.4177 7.55582 13.4016 7.53712 13.3825C7.52196 13.3676 7.44973 13.3511 7.43165 13.3356C7.57466 13.3262 7.52804 13.3035 7.54005 13.2867C7.54455 13.2809 7.58274 13.281 7.59571 13.277C7.64206 13.2613 7.51582 13.2685 7.49512 13.2643C7.40962 13.2458 7.69665 13.244 7.69044 13.2223C7.683 13.2206 7.53845 13.2068 7.52735 13.2047C7.46507 13.1924 7.57985 13.2026 7.5918 13.195C7.61255 13.1808 7.64933 13.1715 7.6045 13.1549C7.59116 13.1501 7.49526 13.1379 7.56934 13.1285C7.57889 13.1273 7.62828 13.1285 7.63282 13.1276C7.68245 13.1096 7.52289 13.1085 7.46876 13.0983C7.41468 13.088 7.52482 13.0722 7.55665 13.069C7.63777 13.0606 7.59309 13.075 7.59962 13.0758C7.69513 13.0812 7.6797 13.07 7.68751 13.0612C7.84415 13.0599 7.83476 13.0469 7.69532 13.0514C7.68009 13.0519 7.69466 13.0594 7.68751 13.0612C7.5338 13.0534 7.51458 13.0391 7.65821 13.0241C7.72542 13.0171 7.80306 13.0239 7.77442 13.0026C7.7599 12.9932 7.65453 12.9963 7.62501 12.9879C7.55829 12.9685 7.65703 12.9436 7.64258 12.9235C7.63683 12.9162 7.57726 12.9226 7.5713 12.9176C7.55615 12.9044 7.5997 12.8928 7.57716 12.8795C7.57484 12.8784 7.51715 12.8811 7.5127 12.8776C7.50553 12.8462 7.54477 12.8185 7.54591 12.7858C7.54641 12.7699 7.51268 12.7416 7.51954 12.7252C7.53115 12.6968 7.62046 12.6616 7.59864 12.6373C7.58456 12.6216 7.52254 12.6246 7.48048 12.6178C7.39964 12.6047 7.54575 12.5819 7.56837 12.5787C7.5705 12.58 7.58523 12.5915 7.61524 12.5846C7.679 12.5805 7.57499 12.579 7.56837 12.5787C7.58276 12.5764 7.59622 12.5502 7.58497 12.5446C7.57859 12.5417 7.52126 12.5431 7.51758 12.5416C7.46517 12.5052 7.45016 12.4682 7.47755 12.4313C7.47869 12.4307 7.53989 12.4316 7.54591 12.4303C7.57504 12.4089 7.49486 12.3952 7.44727 12.3776C7.40019 12.36 7.41638 12.346 7.52833 12.3356C7.51424 12.3223 7.56458 12.3026 7.59473 12.2916C7.62304 12.2808 7.49665 12.2799 7.49415 12.2789C7.41379 12.2489 7.48643 12.231 7.49805 12.1998C7.50364 12.1851 7.4856 12.1555 7.47169 12.1393C7.46045 12.1266 7.48982 12.1188 7.47071 12.1071C7.46758 12.1055 7.41136 12.1066 7.40919 12.1061C7.34175 12.0931 7.47986 12.1 7.50489 12.0973C7.59505 12.0875 7.64301 12.0809 7.60059 12.0641C7.58873 12.0602 7.39578 12.0496 7.37989 12.0426C7.36508 12.0335 7.43606 12.0365 7.41895 12.027C7.41753 12.0262 7.37306 12.0261 7.37501 12.0201C7.38351 11.9927 7.4097 11.9627 7.40528 11.9342C7.40428 11.9304 7.33479 11.9349 7.33301 11.9293C7.32484 11.903 7.32678 11.8739 7.35938 11.8483C7.36768 11.8419 7.41704 11.8457 7.43165 11.8444C7.51763 11.8361 7.39797 11.8253 7.38966 11.8229C7.32812 11.7757 7.44363 11.7391 7.38868 11.691C7.38544 11.6884 7.24819 11.6678 7.36524 11.6588C7.37306 11.6582 7.49358 11.6501 7.41212 11.6422C7.40698 11.6417 7.34488 11.6468 7.35059 11.6373C7.3569 11.6277 7.31562 11.6116 7.3838 11.5983C7.40542 11.5941 7.52546 11.5845 7.42969 11.5719C7.42259 11.5711 7.20675 11.5515 7.35548 11.5446C7.38004 11.5434 7.53809 11.5448 7.45801 11.5299C7.44237 11.5271 7.40683 11.5324 7.38477 11.525C7.35081 11.5135 7.39276 11.4982 7.32227 11.484C7.3095 11.4815 7.20281 11.471 7.28419 11.4625C7.29715 11.4612 7.34958 11.4631 7.35548 11.4586C7.38354 11.4375 7.3489 11.4156 7.38477 11.3942C7.39754 11.3866 7.48238 11.3902 7.50587 11.3825C7.52874 11.3745 7.55075 11.3586 7.51173 11.3502C7.4726 11.342 7.33872 11.3506 7.32618 11.3385C7.27888 11.2842 7.35844 11.2296 7.37012 11.1754C7.37022 11.168 7.3235 11.1742 7.32227 11.1627C7.31865 11.119 7.27347 11.0434 7.37696 11.0055C7.45968 10.9754 7.52296 11.0131 7.55665 10.9899C7.56964 10.9788 7.41581 10.9673 7.40919 10.9645C7.3588 10.9382 7.42788 10.9198 7.40723 10.8961C7.40284 10.8913 7.34093 10.8951 7.33594 10.8912C7.32482 10.877 7.3529 10.8619 7.34766 10.8483C7.34424 10.8424 7.29607 10.8431 7.29981 10.8375C7.30833 10.8241 7.32926 10.8125 7.37501 10.7994C7.37915 10.7983 7.43909 10.8061 7.44239 10.7965C7.44588 10.7804 7.49108 10.7604 7.44434 10.7418C7.43029 10.7363 7.31871 10.736 7.39551 10.7242C7.41166 10.7218 7.54584 10.7244 7.42969 10.7106C7.40838 10.7079 7.2553 10.6857 7.35548 10.6744C7.38239 10.6714 7.49095 10.6635 7.47462 10.6569C7.47186 10.656 7.41115 10.6594 7.40528 10.6539C7.38597 10.6347 7.39266 10.6141 7.37403 10.5944C7.36894 10.5891 7.30767 10.5969 7.30079 10.5895C7.28506 10.5677 7.30085 10.5404 7.32032 10.5192C7.32762 10.5113 7.37916 10.5168 7.38477 10.5162C7.47506 10.5072 7.35476 10.5017 7.34571 10.4987C7.30271 10.4797 7.36004 10.4653 7.34473 10.4479C7.34051 10.4432 7.28384 10.4458 7.27735 10.445C7.2263 10.435 7.3308 10.4424 7.34278 10.4362C7.37569 10.4185 7.37079 10.3993 7.36329 10.3815C7.36049 10.375 7.29487 10.382 7.29102 10.3766C7.27929 10.3418 7.28571 10.3051 7.32325 10.2711C7.33061 10.2649 7.382 10.2684 7.39454 10.2672C7.47832 10.258 7.36441 10.2449 7.35352 10.2418C7.30386 10.2278 7.35046 10.222 7.3418 10.2096C7.29892 10.149 7.32869 10.0745 7.34766 10.0172C7.37206 9.94256 7.42203 9.88429 7.40919 9.81312C7.40845 9.80874 7.34366 9.81245 7.3379 9.80921C7.32113 9.75895 7.34797 9.70918 7.32813 9.65882C7.32663 9.65476 7.26283 9.65996 7.25587 9.65394C7.24581 9.64029 7.2494 9.62281 7.27051 9.60901C7.28153 9.60269 7.33664 9.61079 7.34571 9.60413C7.36698 9.58836 7.37193 9.5715 7.36133 9.5553C7.35541 9.54891 7.28979 9.55895 7.28809 9.55042C7.28139 9.48944 7.27009 9.42942 7.35743 9.3678C7.36344 9.36358 7.50097 9.35922 7.47462 9.35023C7.43648 9.34955 7.39135 9.34954 7.35059 9.34925C7.32891 9.26057 7.37644 9.17256 7.3838 9.08362C7.38118 9.08042 7.31394 9.08621 7.31153 9.07972C7.31261 9.03763 7.29286 8.99582 7.36524 8.95276C7.37614 8.94877 7.49952 8.95049 7.48048 8.93812C7.47625 8.93499 7.45933 8.91758 7.43262 8.91273C7.42843 8.91206 7.36796 8.91493 7.36622 8.90882C7.35738 8.87357 7.37113 8.83659 7.40723 8.8014C7.41324 8.79568 7.47759 8.80157 7.48243 8.79749C7.51607 8.76862 7.46773 8.73719 7.5254 8.7096C7.56433 8.69112 7.67486 8.69794 7.78321 8.68812C7.79808 8.68654 7.80106 8.67505 7.86329 8.67444C8.02172 8.67293 8.19539 8.67866 8.36426 8.6764C8.4006 8.67592 8.36186 8.66058 8.44923 8.66956C8.45511 8.6702 8.48482 8.68147 8.51466 8.68421ZM7.85548 13.736C7.81255 13.7408 7.86169 13.7546 7.91505 13.7487C7.95805 13.7438 7.90894 13.73 7.85548 13.736ZM7.64161 13.4606C7.56537 13.47 7.73467 13.4773 7.76466 13.4733C7.86341 13.46 7.718 13.4512 7.64161 13.4606ZM8.00098 12.2282C7.9302 12.2238 7.9251 12.2404 7.99903 12.2369C8.00187 12.2362 8.00382 12.2283 8.00098 12.2282ZM7.95606 11.7057C7.8952 11.7061 7.91253 11.7142 7.96876 11.7116C7.97201 11.7112 7.97456 11.7056 7.95606 11.7057ZM8.11329 11.3473C7.99721 11.3375 7.98523 11.3762 8.10743 11.3678C8.11371 11.3671 8.11908 11.3479 8.11329 11.3473ZM7.81641 8.72523C7.74527 8.72086 7.73952 8.73653 7.81348 8.73304C7.81646 8.7329 7.81937 8.72542 7.81641 8.72523Z" fill="#555961"/>
<path d="M5.30012 13.9742C5.37771 13.9626 5.51961 13.9596 5.49738 13.9771C5.4907 13.981 5.41342 13.9679 5.38996 13.9732C5.34711 13.9831 5.51151 13.9895 5.42316 13.9996C5.40548 14.0013 5.25137 13.9891 5.25227 13.9879L5.30012 13.9742ZM5.84797 10.6773C5.86865 10.6785 5.93291 10.6769 5.9593 10.6793C5.98503 10.6817 5.93229 10.6841 5.9632 10.6881C5.99487 10.692 6.06692 10.6908 6.07551 10.6988C6.0948 10.7175 6.07384 10.7418 6.04523 10.7604C6.03572 10.7658 5.99811 10.7635 5.98957 10.7672C5.9742 10.775 5.9928 10.7819 5.97492 10.7896C5.96869 10.7922 5.90707 10.79 5.9007 10.7926C5.87307 10.8073 5.88818 10.8207 5.87531 10.8355C5.80935 10.9094 5.78579 10.9825 5.75715 11.0572C5.74776 11.0819 5.69046 11.1118 5.71516 11.1373C5.71807 11.1402 5.77135 11.1388 5.77766 11.1393C5.8474 11.1481 5.73584 11.1452 5.72102 11.151C5.66289 11.1739 5.65798 11.1992 5.67902 11.2213C5.68825 11.2307 5.79769 11.2216 5.73664 11.2311C5.73249 11.2317 5.67377 11.2295 5.6673 11.232C5.65349 11.2378 5.66352 11.2488 5.65949 11.2535C5.65023 11.2623 5.65039 11.2638 5.64973 11.2721C5.6483 11.2834 5.61894 11.297 5.63215 11.3092C5.63512 11.3117 5.694 11.3082 5.70539 11.3121C5.71561 11.3162 5.71079 11.327 5.6966 11.3307C5.68234 11.3343 5.63516 11.3329 5.62434 11.3336C5.53515 11.3388 5.65386 11.351 5.66242 11.3531C5.71558 11.3827 5.6443 11.4084 5.64387 11.4361C5.64418 11.4573 5.66862 11.4805 5.66535 11.5006C5.66115 11.5245 5.62856 11.5447 5.6341 11.568C5.63462 11.5704 5.70559 11.5679 5.70637 11.5709C5.71446 11.6027 5.7061 11.634 5.65852 11.6656C5.65366 11.6688 5.59188 11.6654 5.58332 11.6686C5.53226 11.688 5.40959 11.7185 5.68 11.7301C5.66944 11.7433 5.65834 11.7593 5.60383 11.7711C5.5687 11.7787 5.50175 11.7715 5.53059 11.7809C5.53888 11.7827 5.59583 11.7807 5.6009 11.7838C5.62238 11.7971 5.60354 11.8117 5.6341 11.8248C5.64122 11.8274 5.69396 11.826 5.70344 11.8268C5.78018 11.8331 5.65218 11.844 5.64289 11.8463C5.57423 11.8638 5.60129 11.8769 5.59992 11.8932C5.59951 11.8969 5.66664 11.8929 5.67219 11.8961C5.68241 11.9151 5.67649 11.9351 5.64484 11.9537C5.63749 11.9578 5.57846 11.9539 5.57062 11.9557C5.54246 11.9644 5.65694 11.9668 5.63215 11.9752C5.6267 11.9769 5.57641 11.9759 5.56965 11.9762C5.47998 11.9812 5.60688 11.9856 5.60969 11.9869C5.64779 12.0033 5.51572 12.014 5.53449 12.0299C5.54068 12.0313 5.60222 12.0277 5.6048 12.0328C5.62289 12.0683 5.60466 12.1061 5.55207 12.1412C5.54289 12.1463 5.4946 12.1428 5.48859 12.1432C5.39457 12.1487 5.51876 12.1521 5.5257 12.1539C5.56029 12.168 5.45381 12.1805 5.60578 12.19C5.55306 12.2496 5.63825 12.3097 5.50227 12.3688C5.50073 12.3695 5.4405 12.3674 5.43488 12.3688C5.3996 12.3868 5.49708 12.3842 5.61652 12.3961C5.6461 12.3991 5.50208 12.408 5.49152 12.4088C5.45271 12.4117 5.36042 12.4088 5.35187 12.4098C5.29269 12.4179 5.60126 12.4164 5.60187 12.4273C5.60136 12.4277 5.54406 12.4264 5.5384 12.4273C5.52112 12.4302 5.54324 12.4333 5.52375 12.4361C5.47824 12.4425 5.32887 12.4449 5.41535 12.4547C5.4267 12.4559 5.60235 12.4536 5.59406 12.4635C5.59072 12.4676 5.59363 12.485 5.58234 12.4898C5.57068 12.4946 5.51447 12.4915 5.51203 12.4918C5.43748 12.5048 5.40644 12.4999 5.29621 12.5064C5.18599 12.513 5.44851 12.5106 5.47785 12.5133C5.50686 12.516 5.44577 12.5255 5.42414 12.5279C5.40289 12.5303 5.36725 12.5279 5.3548 12.5299C5.27552 12.5438 5.48496 12.536 5.52668 12.5406C5.62536 12.5514 5.43054 12.56 5.41144 12.5699C5.4154 12.5715 5.45014 12.5708 5.45441 12.5729C5.47023 12.5823 5.41009 12.5876 5.46516 12.5982C5.47423 12.6 5.59157 12.6083 5.50617 12.6139C5.49377 12.6147 5.44479 12.6128 5.43391 12.6168C5.41764 12.6228 5.40704 12.6338 5.42316 12.6402C5.43516 12.645 5.51504 12.6392 5.49055 12.6451C5.47944 12.6478 5.43231 12.643 5.41535 12.648C5.39871 12.653 5.40105 12.6656 5.40266 12.6705C5.40431 12.6753 5.46497 12.673 5.46906 12.6734C5.49245 12.6758 5.52187 12.6853 5.5218 12.6861C5.52844 12.7273 5.42716 12.7652 5.46027 12.8053C5.46275 12.8083 5.52235 12.8069 5.52766 12.8072C5.55448 12.8181 5.38445 12.8094 5.32746 12.817C5.4574 12.8159 5.4343 12.8201 5.44855 12.8277C5.4559 12.8313 5.50593 12.8294 5.51105 12.8297C5.58691 12.8351 5.48825 12.8395 5.46809 12.8404C5.3941 12.844 5.48157 12.8477 5.43195 12.8502C5.38336 12.8526 5.31195 12.8472 5.31086 12.8541C5.3575 12.8561 5.47868 12.8515 5.49836 12.857C5.57227 12.8778 5.47913 12.9162 5.46809 12.9332C5.45819 12.95 5.46633 12.9556 5.44953 12.9654C5.41914 12.9831 5.50981 12.9769 5.55109 12.9879C5.5901 12.9987 5.37067 12.9932 5.32258 12.9947C5.2749 12.9963 5.3234 12.9987 5.29719 13.0006C5.27104 13.0025 5.23863 12.998 5.22883 13.0025C5.22038 13.0072 5.30429 13.0195 5.35383 13.0211C5.45947 13.0245 5.57043 13.0189 5.53156 13.0309C5.52927 13.0315 5.47206 13.0293 5.46516 13.0318C5.42024 13.0528 5.41699 13.0743 5.37727 13.0953C5.3714 13.0981 5.3078 13.0957 5.30305 13.0973C5.26154 13.1147 5.37095 13.1092 5.4925 13.1188C5.33075 13.1166 5.23174 13.1221 5.23078 13.1354C5.23265 13.1429 5.30199 13.142 5.3509 13.1471C5.36511 13.1487 5.31785 13.1539 5.3509 13.1549C5.4592 13.1582 5.58013 13.153 5.53254 13.1666C5.53026 13.1672 5.47182 13.1656 5.46711 13.1676C5.44356 13.181 5.55671 13.1824 5.57062 13.1969C5.58142 13.2082 5.51256 13.2289 5.50129 13.2418C5.5001 13.2418 5.49855 13.2418 5.49738 13.2418C5.56769 13.2473 5.57558 13.254 5.48664 13.2584H5.48566C5.48087 13.2667 5.48782 13.2758 5.47102 13.2838C5.46515 13.2866 5.41291 13.2844 5.40656 13.2848C5.31815 13.2901 5.43672 13.2947 5.44367 13.2965C5.49017 13.3161 5.39821 13.3315 5.48859 13.3502C5.49489 13.3509 5.61678 13.3521 5.5257 13.357C5.51921 13.3573 5.46201 13.3512 5.45734 13.36C5.45289 13.3688 5.38523 13.3858 5.44367 13.398C5.45774 13.401 5.56015 13.4086 5.48078 13.4146C5.46996 13.4154 5.43363 13.4145 5.4134 13.4156C5.34924 13.4194 5.47611 13.421 5.36848 13.4254C5.25998 13.4298 5.17838 13.4394 5.25324 13.4518C5.25847 13.4522 5.35638 13.4548 5.3548 13.4586C5.35204 13.4648 5.33071 13.4736 5.33137 13.4801C5.33172 13.4831 5.39069 13.4817 5.39582 13.482C5.43104 13.5029 5.37522 13.5173 5.3509 13.5396C5.34741 13.5438 5.4316 13.5552 5.36457 13.5631C5.2904 13.5718 4.98162 13.5636 5.055 13.5836C5.08441 13.5917 5.47562 13.6013 5.27277 13.6158C5.32299 13.6439 5.21999 13.6697 5.29133 13.6979C5.29451 13.6991 5.40414 13.7037 5.40266 13.7066C5.39997 13.7109 5.35153 13.7134 5.34602 13.7164C5.33071 13.7296 5.37375 13.7418 5.3675 13.7545C5.36505 13.7593 5.31269 13.7577 5.30891 13.7633C5.30601 13.769 5.3752 13.7731 5.34211 13.7809C5.31652 13.7868 5.17416 13.7926 5.15754 13.8004C5.29773 13.8007 5.29533 13.8064 5.33234 13.816C5.34088 13.8177 5.38806 13.8161 5.39387 13.817C5.41868 13.8205 5.37885 13.8234 5.40559 13.8268C5.41208 13.8276 5.45918 13.8281 5.46809 13.8287C5.53859 13.8344 5.43117 13.8437 5.41242 13.8453C5.34136 13.8515 5.40334 13.8543 5.37531 13.859C5.34731 13.8636 5.3122 13.8564 5.29523 13.8619C5.26021 13.8733 5.26813 13.8884 5.26594 13.9C5.26915 13.904 5.32903 13.9013 5.33039 13.902C5.34649 13.9115 5.27889 13.9211 5.40559 13.9264C5.07769 13.933 5.43666 13.9323 5.37238 13.9459C5.36705 13.947 5.21066 13.9481 5.18781 13.9439C5.16596 13.9398 5.21346 13.934 5.17805 13.9283C5.16708 13.9268 5.02371 13.9186 5.01496 13.9176C4.94718 13.9093 5.17897 13.9083 5.19172 13.9078C5.32948 13.9028 5.17233 13.8937 5.16144 13.8912C5.11169 13.8797 5.14422 13.8696 5.10871 13.86C5.0849 13.8537 4.93414 13.8532 4.93879 13.8482C4.95549 13.832 5.16542 13.8256 4.98176 13.8102C4.94195 13.8069 4.7769 13.8103 4.90754 13.7984C4.91885 13.7975 5.03395 13.7888 4.9593 13.7838C4.94948 13.7832 4.90086 13.7837 4.8968 13.7828C4.87114 13.7772 4.90936 13.7733 4.89094 13.7672C4.87242 13.761 4.84518 13.7537 4.86164 13.7467C4.87224 13.7425 4.96158 13.737 4.98371 13.735C5.04739 13.7292 4.94327 13.7229 5.01984 13.7193C5.09746 13.7158 5.21579 13.7229 5.26594 13.7135C5.13984 13.7131 5.00993 13.7121 4.88312 13.7115C4.88757 13.691 4.92873 13.6706 4.92316 13.65C4.92056 13.6476 4.85446 13.6498 4.85187 13.6471C4.84214 13.6357 4.88912 13.6257 4.87043 13.6139C4.85527 13.6046 4.78304 13.5943 4.76496 13.5846C4.90772 13.5787 4.86159 13.5647 4.87336 13.5543C4.87789 13.5507 4.9162 13.55 4.92902 13.5475C4.97544 13.5376 4.84884 13.5423 4.82844 13.5396C4.7428 13.5281 5.03088 13.5269 5.02375 13.5133C5.01495 13.5121 4.87153 13.5038 4.86066 13.5025C4.79842 13.4948 4.91306 13.5014 4.92512 13.4967C4.94589 13.4878 4.98287 13.4817 4.93781 13.4713C4.92436 13.4683 4.82871 13.4615 4.90266 13.4557C4.91223 13.4549 4.96186 13.4553 4.96613 13.4547C5.01577 13.4434 4.85619 13.4426 4.80207 13.4361C4.74801 13.4297 4.85809 13.4206 4.88996 13.4186C4.97117 13.4133 4.92629 13.422 4.93293 13.4225C5.02896 13.4258 5.0127 13.4182 5.02082 13.4127C5.17747 13.4119 5.16807 13.404 5.02863 13.4068C5.01343 13.4072 5.02787 13.4116 5.02082 13.4127C4.86713 13.4078 4.84789 13.3996 4.99152 13.3902C5.05874 13.3859 5.13638 13.3899 5.10773 13.3766C5.09314 13.3708 4.98801 13.373 4.95832 13.3678C4.89136 13.3556 4.99123 13.3393 4.9759 13.3268C4.97014 13.3222 4.91058 13.327 4.90461 13.3238C4.8889 13.3156 4.93311 13.3077 4.91047 13.2994C4.90789 13.2987 4.8507 13.3006 4.84602 13.2984C4.83884 13.2788 4.87812 13.2613 4.87922 13.2408C4.87924 13.2309 4.84605 13.2129 4.85285 13.2027C4.86563 13.185 4.95359 13.1631 4.93195 13.148C4.91765 13.1383 4.85574 13.1406 4.81379 13.1363C4.73282 13.1281 4.87906 13.1139 4.90168 13.1119C4.91612 13.1104 4.92966 13.0939 4.91828 13.0904C4.91187 13.0886 4.85396 13.0894 4.8509 13.0885C4.79848 13.0657 4.78347 13.0422 4.81086 13.0191C4.8121 13.0188 4.87302 13.02 4.87922 13.0191C4.90835 13.0058 4.82817 12.997 4.78059 12.9859C4.73357 12.975 4.74973 12.9661 4.86164 12.9596C4.84808 12.9513 4.898 12.9391 4.92805 12.9322C4.95648 12.9255 4.82997 12.925 4.82746 12.9244C4.74704 12.9056 4.82001 12.8942 4.83137 12.8746C4.83687 12.8653 4.81891 12.8466 4.805 12.8365C4.79376 12.8286 4.82313 12.8243 4.80402 12.817C4.80098 12.816 4.74468 12.8173 4.7425 12.817C4.67469 12.8088 4.81331 12.8118 4.8382 12.8102C4.92836 12.804 4.97632 12.8011 4.93391 12.7906C4.92395 12.7882 4.72767 12.7804 4.7132 12.776C4.69842 12.7703 4.76895 12.7731 4.75227 12.7672C4.75085 12.7667 4.70637 12.766 4.70832 12.7623C4.71689 12.7452 4.743 12.7264 4.73859 12.7086C4.73683 12.7063 4.66809 12.7092 4.66633 12.7057C4.65814 12.6892 4.66013 12.6709 4.69269 12.6549C4.70098 12.6509 4.75031 12.6538 4.76496 12.6529C4.85111 12.6478 4.73085 12.6407 4.72297 12.6393C4.6615 12.6098 4.77649 12.5872 4.72199 12.5572C4.71875 12.5556 4.58154 12.5423 4.69855 12.5367C4.70638 12.5363 4.82697 12.5309 4.74543 12.526C4.74027 12.5257 4.67758 12.5291 4.68391 12.523C4.69018 12.517 4.64908 12.5079 4.71711 12.4996C4.73859 12.497 4.85885 12.4899 4.76301 12.482C4.75556 12.4815 4.54021 12.4698 4.68879 12.4654C4.71335 12.4647 4.87124 12.4659 4.79133 12.4566C4.77566 12.4549 4.74014 12.4574 4.71809 12.4527C4.68412 12.4455 4.72607 12.4362 4.65559 12.4273C4.64257 12.4258 4.53624 12.4189 4.6175 12.4137C4.63051 12.4129 4.68276 12.4145 4.68879 12.4117C4.7171 12.3985 4.6818 12.3842 4.71809 12.3707C4.73086 12.366 4.81576 12.3687 4.83918 12.3639C4.86206 12.3589 4.88406 12.3486 4.84504 12.3434C4.8057 12.3383 4.67165 12.3441 4.65949 12.3365C4.61226 12.3026 4.69156 12.2688 4.70344 12.235C4.70518 12.2299 4.65651 12.2336 4.65559 12.2262C4.65157 12.1988 4.60731 12.1521 4.71027 12.1285C4.793 12.1097 4.85628 12.1332 4.88996 12.1188C4.90363 12.1118 4.74745 12.1038 4.7425 12.1021C4.69234 12.0857 4.76127 12.0749 4.74055 12.0602C4.73622 12.0572 4.67567 12.0594 4.66926 12.0572C4.65814 12.0483 4.68621 12.0384 4.68098 12.0299C4.6769 12.0265 4.63348 12.027 4.63312 12.024C4.6416 12.0156 4.66244 12.0078 4.70832 11.9996C4.71249 11.9989 4.77307 12.0038 4.7757 11.9977C4.7792 11.9876 4.82443 11.9751 4.77766 11.9635C4.76327 11.9601 4.65214 11.9601 4.72883 11.9527C4.74498 11.9512 4.87916 11.9526 4.76301 11.9439C4.74172 11.9423 4.5886 11.9285 4.68879 11.9215C4.71573 11.9196 4.82401 11.9149 4.80793 11.9107C4.80517 11.9102 4.74446 11.9122 4.73859 11.9088C4.7194 11.8968 4.72569 11.884 4.70734 11.8717C4.70219 11.8684 4.63979 11.8727 4.6341 11.8678C4.61859 11.8542 4.63426 11.838 4.65363 11.8248C4.66093 11.8199 4.71248 11.8232 4.71809 11.8229C4.80889 11.8171 4.68683 11.813 4.67902 11.8111C4.63603 11.7993 4.69335 11.7908 4.67805 11.7799C4.67254 11.7771 4.61714 11.7784 4.61066 11.7779C4.55991 11.7718 4.66311 11.7768 4.67609 11.773C4.70901 11.762 4.7041 11.749 4.6966 11.7379C4.6902 11.7344 4.62605 11.7385 4.62434 11.735C4.61268 11.7133 4.61913 11.6907 4.65656 11.6695C4.66368 11.6656 4.71517 11.6683 4.72785 11.6676C4.81163 11.6618 4.69772 11.6529 4.68684 11.651C4.63778 11.6423 4.68238 11.639 4.67512 11.6314C4.63207 11.5935 4.662 11.5462 4.68098 11.5104C4.70534 11.4638 4.75516 11.4278 4.7425 11.3834C4.74177 11.3807 4.6768 11.3825 4.67121 11.3805C4.65445 11.3491 4.6812 11.3182 4.66144 11.2867C4.65995 11.2842 4.59668 11.2875 4.58918 11.2838C4.57912 11.2753 4.58272 11.2641 4.60383 11.2555C4.61505 11.2516 4.66953 11.2566 4.67902 11.2525C4.70029 11.2427 4.70525 11.2324 4.69465 11.2223C4.68985 11.218 4.62219 11.224 4.62141 11.2184C4.61469 11.1804 4.60383 11.1434 4.69074 11.1051C4.69675 11.1024 4.83422 11.1 4.80793 11.0943C4.76979 11.0939 4.72466 11.0935 4.68391 11.0934C4.66216 11.0379 4.70974 10.9829 4.71711 10.9273C4.7174 10.925 4.64464 10.929 4.64484 10.9244C4.64587 10.8981 4.62625 10.8722 4.69855 10.8453C4.70925 10.8428 4.83285 10.8443 4.81379 10.8365C4.80985 10.8348 4.79306 10.823 4.76594 10.8199C4.76174 10.8195 4.70127 10.8218 4.69953 10.818C4.69072 10.7959 4.70439 10.7726 4.74055 10.7506C4.74656 10.747 4.81091 10.7512 4.81574 10.7486C4.84942 10.7306 4.80093 10.7102 4.85871 10.693C4.89774 10.6815 5.00828 10.6864 5.11652 10.6803C5.13139 10.6793 5.13438 10.6719 5.1966 10.6715C5.35503 10.6705 5.5287 10.6739 5.69758 10.6725C5.73391 10.6722 5.69517 10.6629 5.78254 10.6686C5.78842 10.669 5.81813 10.6756 5.84797 10.6773ZM5.18879 13.8346C5.14585 13.8376 5.19499 13.8461 5.24836 13.8424C5.29135 13.8394 5.24224 13.8308 5.18879 13.8346ZM4.97492 13.6627C4.89866 13.6686 5.06798 13.673 5.09797 13.6705C5.19673 13.6622 5.05131 13.6568 4.97492 13.6627ZM5.3343 12.8922C5.26353 12.8895 5.25842 12.9002 5.33234 12.898C5.33516 12.8975 5.33711 12.8923 5.3343 12.8922ZM5.28937 12.566C5.22852 12.5663 5.24584 12.5716 5.30207 12.5699C5.30534 12.5697 5.30792 12.5659 5.28937 12.566ZM5.4466 12.3424C5.3305 12.3363 5.31853 12.3603 5.44074 12.3551C5.44702 12.3547 5.45239 12.3428 5.4466 12.3424ZM5.14973 10.7027C5.07862 10.7 5.07287 10.7108 5.1468 10.7086C5.14978 10.7085 5.15268 10.7029 5.14973 10.7027Z" fill="#555961"/>
<path d="M8.2959 3.73046C8.31386 3.70211 8.34254 3.84772 8.34473 3.86034C8.35358 3.90027 8.32895 3.99073 8.33203 3.99999C8.35984 4.06303 8.39302 3.75534 8.44531 3.76269C8.44669 3.76382 8.43215 3.81899 8.43555 3.82519C8.44597 3.84433 8.46219 3.82438 8.47168 3.84569C8.49302 3.89533 8.47677 4.04426 8.53613 3.96679C8.54405 3.95542 8.56933 3.78288 8.61426 3.80077C8.63221 3.80779 8.71364 3.8246 8.73242 3.84179C8.75161 3.85924 8.72161 3.9093 8.72266 3.9121C8.76181 4.00025 8.73086 4.02398 8.72656 4.13769C8.72036 4.25107 8.79071 3.99788 8.81152 3.97362C8.83246 3.9496 8.85503 4.02197 8.85742 4.04589C8.86004 4.06957 8.83636 4.09978 8.84082 4.11425C8.86895 4.20768 8.91071 4.00026 8.94531 3.96874C9.03025 3.89605 8.99415 4.09162 9.02442 4.12694C9.03309 4.13657 9.04318 4.09205 9.05469 4.09276C9.09992 4.09662 9.09642 4.16221 9.16504 4.13573C9.17579 4.13106 9.26906 4.04832 9.25 4.13573C9.24699 4.14825 9.21379 4.18558 9.22363 4.20409C9.23868 4.23146 9.27466 4.26534 9.30762 4.26757C9.33215 4.26913 9.3546 4.18916 9.36426 4.2246C9.36833 4.24057 9.32464 4.26742 9.33399 4.29394C9.34326 4.32012 9.38962 4.3506 9.4082 4.3623C9.42629 4.37347 9.45268 4.3191 9.45703 4.31542C9.47954 4.30274 9.53217 4.30512 9.53516 4.30761C9.69374 4.42082 9.74709 4.61448 9.89258 4.72069C9.90368 4.72832 9.94108 4.68296 9.94629 4.67968C9.99895 4.69719 9.84823 4.78403 9.82813 4.84667C9.92074 4.75579 9.91732 4.78607 9.9502 4.80175C9.96623 4.80925 9.9981 4.76892 10.0029 4.76659C10.0762 4.73438 10.0135 4.81273 10.001 4.82909C9.95556 4.88963 10.0328 4.84569 10.0029 4.88573C9.97262 4.92582 9.90139 4.95534 9.92188 4.97851C9.96303 4.95506 10.0404 4.85843 10.0713 4.86425C10.1891 4.88746 10.2237 5.08122 10.2607 5.14452C10.298 5.20752 10.319 5.22118 10.332 5.26464C10.3552 5.34357 10.4092 5.26676 10.4707 5.27831C10.5323 5.29034 10.3445 5.40839 10.3105 5.44335C10.2771 5.47797 10.3202 5.45384 10.3047 5.47655C10.2891 5.49923 10.2525 5.50484 10.2568 5.52636C10.2614 5.54776 10.3609 5.53813 10.4043 5.51269C10.4962 5.45907 10.569 5.37206 10.5703 5.43554C10.5703 5.43925 10.5192 5.46775 10.5205 5.48046C10.5409 5.57909 10.5966 5.65426 10.623 5.74901C10.6264 5.76217 10.5699 5.79456 10.5713 5.80273C10.5877 5.8878 10.6553 5.7971 10.7744 5.74999C10.6447 5.84706 10.5829 5.92872 10.6201 5.97362C10.6425 5.99994 10.6922 5.94944 10.7441 5.93358C10.7598 5.92873 10.7397 5.97857 10.7676 5.95995C10.8585 5.89893 10.935 5.80252 10.9365 5.87694C10.9354 5.88097 10.8866 5.91405 10.8896 5.92284C10.91 5.98052 10.999 5.90913 11.0498 5.94335C11.0894 5.9706 11.0969 6.07795 11.1279 6.12401C10.9995 6.25226 11.0672 6.26052 11.168 6.18358C11.1896 6.21111 11.2219 6.23119 11.2354 6.26659C11.2401 6.27879 11.199 6.31314 11.1963 6.31835C11.1543 6.39969 11.2471 6.319 11.2559 6.3203C11.3476 6.33889 11.3408 6.45332 11.459 6.43066C11.4652 6.42735 11.5425 6.33368 11.5029 6.41796C11.498 6.42484 11.4461 6.4546 11.4717 6.47948C11.4973 6.50491 11.5149 6.6006 11.5908 6.58202C11.6095 6.57776 11.6918 6.50967 11.668 6.58983C11.6645 6.60093 11.6417 6.62907 11.6348 6.64843C11.6132 6.71058 11.6889 6.60815 11.6465 6.70898C11.6038 6.81022 11.5969 6.90205 11.6826 6.8662C11.6853 6.86526 11.7478 6.78492 11.7617 6.79394C11.7829 6.80922 11.8052 6.8467 11.8301 6.85937C11.842 6.86476 11.8646 6.80557 11.8672 6.80566C11.9608 6.81609 11.9919 6.89391 12.0684 6.95507C12.0828 6.96664 12.1624 6.90786 12.168 6.98339C12.1747 7.06628 12.0229 7.33782 12.1348 7.30273C12.182 7.28856 12.3552 6.93713 12.3477 7.14843C12.4817 7.14101 12.5571 7.27123 12.6992 7.23241C12.7057 7.22938 12.7473 7.12858 12.7588 7.1328C12.7757 7.13995 12.7748 7.19105 12.7871 7.19726C12.8387 7.22433 12.8989 7.19208 12.9521 7.20898C12.9722 7.2156 12.9557 7.26597 12.9805 7.27343C13.0048 7.28019 13.0315 7.21555 13.0586 7.2539C13.0787 7.28369 13.082 7.42752 13.1143 7.44921C13.1358 7.3108 13.1588 7.31622 13.2051 7.28515C13.214 7.2791 13.2123 7.23027 13.2168 7.2246C13.2352 7.20165 13.2438 7.24314 13.2617 7.21776C13.266 7.21172 13.2725 7.16582 13.2764 7.15722C13.3093 7.09024 13.3353 7.20136 13.3398 7.22069C13.3577 7.29366 13.3767 7.23345 13.3936 7.26269C13.4107 7.29247 13.3778 7.32455 13.3994 7.34374C13.4449 7.38345 13.5101 7.38115 13.5615 7.38671C13.5818 7.38807 13.5722 7.32443 13.5752 7.32323C13.6185 7.31 13.6569 7.37894 13.6846 7.25292C13.6974 7.58299 13.7108 7.22308 13.7656 7.29101C13.7697 7.30176 13.7695 7.45162 13.751 7.47362C13.732 7.4958 13.7069 7.447 13.6807 7.48144C13.6737 7.49326 13.6346 7.63141 13.6289 7.64159C13.5869 7.70847 13.5937 7.47572 13.5928 7.46288C13.5787 7.32434 13.527 7.4783 13.5146 7.48827C13.4594 7.53411 13.4185 7.49797 13.373 7.52929C13.3436 7.55014 13.3253 7.69929 13.3037 7.69335C13.2326 7.6702 13.2296 7.45607 13.1357 7.6289C13.1153 7.66572 13.1069 7.83282 13.0703 7.6953C13.0678 7.68661 13.0453 7.56263 13.0107 7.63378C13.0063 7.64367 12.9986 7.68999 12.9941 7.69335C12.9642 7.71509 12.9535 7.67431 12.9229 7.68749C12.8914 7.70078 12.8493 7.72187 12.8193 7.69921C12.8012 7.68513 12.7947 7.59243 12.79 7.56835C12.7772 7.50059 12.7269 7.59635 12.7275 7.51757C12.7289 7.43845 12.7841 7.33043 12.7559 7.27245C12.7263 7.39476 12.6941 7.51987 12.6631 7.64257C12.5731 7.61729 12.4824 7.55138 12.3896 7.52929C12.3782 7.52844 12.3704 7.59561 12.3574 7.59472C12.302 7.58913 12.2696 7.52741 12.208 7.52636C12.1603 7.52595 12.0883 7.57646 12.0371 7.57616C12.0621 7.4318 11.9805 7.45145 11.9375 7.41894C11.9229 7.40777 11.9386 7.37318 11.9326 7.35644C11.9082 7.2952 11.8767 7.41853 11.8564 7.43261C11.7689 7.48681 11.8841 7.22448 11.8262 7.20312C11.8233 7.20208 11.7161 7.32057 11.7061 7.32616C11.6441 7.36405 11.7237 7.27637 11.709 7.25487C11.6802 7.21669 11.6721 7.17113 11.6074 7.18651C11.5885 7.19129 11.5109 7.25697 11.5225 7.1787C11.524 7.1685 11.5513 7.12593 11.5508 7.12108C11.5293 7.05089 11.4456 7.18756 11.3896 7.21679C11.3339 7.24504 11.3508 7.12551 11.3604 7.09374C11.3839 7.01097 11.3958 7.07441 11.4014 7.06835C11.4663 6.99615 11.4291 6.99162 11.4121 6.97069C11.4946 6.83801 11.4605 6.82734 11.3936 6.95019C11.3871 6.96312 11.4113 6.96226 11.4121 6.97069C11.3095 7.08705 11.2606 7.07883 11.3057 6.93554C11.3272 6.86845 11.3884 6.81516 11.3223 6.80273C11.2922 6.79689 11.2371 6.89072 11.1992 6.89941C11.1126 6.91878 11.1127 6.79166 11.0576 6.76659C11.0374 6.75739 11.0163 6.81538 11.001 6.81151C10.9599 6.79835 10.9619 6.74236 10.917 6.73339C10.9121 6.73404 10.8792 6.78452 10.8691 6.77733C10.7918 6.71906 10.7595 6.63483 10.6904 6.56542C10.657 6.53211 10.574 6.49587 10.5459 6.45605C10.4957 6.38619 10.4955 6.25184 10.4336 6.21386C10.3934 6.18891 10.3531 6.23623 10.3086 6.24901C10.2219 6.27294 10.2892 6.12944 10.3018 6.10741C10.3022 6.10674 10.3384 6.12657 10.3496 6.09081C10.3927 6.03926 10.3023 6.10759 10.3018 6.10741C10.3092 6.09368 10.2706 6.02472 10.252 6.0205C10.2412 6.01916 10.1999 6.05832 10.1953 6.05663C10.0899 6.01031 10.0142 5.93877 9.97363 5.84276C9.97347 5.84066 10.0254 5.80293 10.0254 5.79784C10.0122 5.73377 9.92606 5.75323 9.85938 5.74511C9.79289 5.73707 9.7825 5.6984 9.85352 5.60741C9.82064 5.58813 9.82916 5.51775 9.83496 5.47655C9.84077 5.43531 9.73791 5.51113 9.73438 5.51073C9.62276 5.49959 9.65211 5.42057 9.61035 5.35253C9.59063 5.31995 9.52931 5.27664 9.49317 5.25683C9.46439 5.2411 9.474 5.2073 9.44141 5.19921C9.43698 5.19814 9.39692 5.23862 9.39453 5.23925C9.32422 5.26239 9.43633 5.17972 9.4502 5.15819C9.50052 5.07997 9.52468 5.03624 9.46582 5.03612C9.44946 5.03796 9.29033 5.1558 9.27149 5.15331C9.24741 5.14903 9.30274 5.10438 9.27539 5.10155C9.27309 5.10129 9.24229 5.1325 9.23438 5.12206C9.19745 5.07421 9.16605 5.01138 9.11719 4.97655C9.10962 4.97435 9.07423 5.03196 9.06445 5.02636C9.01798 4.99877 8.97555 4.96321 8.95313 4.90819C8.94773 4.8944 8.98137 4.85829 8.98731 4.84472C9.02129 4.76332 8.93358 4.85207 8.92676 4.85546C8.81923 4.8602 8.81191 4.72553 8.7041 4.73925C8.69529 4.74274 8.61385 4.85254 8.63965 4.73827C8.64169 4.73035 8.66697 4.61202 8.625 4.68456C8.6222 4.69151 8.61105 4.7507 8.59668 4.73925C8.58145 4.72734 8.54275 4.75787 8.53711 4.68554C8.53599 4.66289 8.54653 4.54118 8.49902 4.62694C8.49448 4.63262 8.41072 4.83556 8.43067 4.68749C8.4339 4.66309 8.46896 4.50875 8.42188 4.58105C8.41301 4.59532 8.41663 4.63266 8.39746 4.65136C8.36837 4.68027 8.34521 4.63346 8.30762 4.69921C8.30043 4.71159 8.26659 4.81345 8.26074 4.73144C8.25971 4.71845 8.27096 4.66613 8.2627 4.65917C8.22266 4.62627 8.17332 4.65688 8.13184 4.61815C8.1165 4.60449 8.12894 4.51976 8.11231 4.49608C8.09576 4.47242 8.05916 4.44955 8.03906 4.48827C8.01937 4.52699 8.03795 4.66259 8.01074 4.67382C8.00723 4.6752 8.00353 4.67655 8 4.67773C7.88587 4.7166 7.77925 4.64841 7.67188 4.65331C7.65638 4.65429 7.67609 4.70052 7.6543 4.70507C7.56636 4.72259 7.45272 4.80066 7.35254 4.72948C7.2674 4.67368 7.31603 4.58697 7.25879 4.57323C7.22978 4.56773 7.26967 4.7231 7.26758 4.72948C7.24337 4.79506 7.18134 4.74839 7.15039 4.78905C7.14429 4.79753 7.183 4.84997 7.17774 4.85644C7.16037 4.87841 7.12186 4.86834 7.10254 4.88671C7.09478 4.89557 7.12199 4.93506 7.11133 4.93749C7.08591 4.94384 7.05621 4.93914 7.00879 4.91698C7.00431 4.91505 6.98182 4.85612 6.96387 4.8662C6.93506 4.88206 6.87356 4.87273 6.87207 4.93358C6.87176 4.95204 6.94338 5.03844 6.875 4.99511C6.86073 4.98608 6.7779 4.87975 6.83106 4.9873C6.83939 5.00631 6.90828 5.15284 6.82324 5.09569C6.80063 5.08041 6.71286 5.01218 6.71387 5.03515C6.71772 5.0409 6.76131 5.07676 6.75684 5.08886C6.73982 5.13233 6.70329 5.16011 6.68555 5.20605C6.68157 5.2183 6.73784 5.24798 6.73047 5.26464C6.70882 5.3103 6.65515 5.34587 6.60742 5.37108C6.5898 5.38022 6.55881 5.33666 6.55371 5.33398C6.47109 5.29134 6.55427 5.38097 6.55567 5.39159C6.55897 5.45392 6.49223 5.44417 6.47656 5.4873C6.47216 5.49908 6.52285 5.53 6.52539 5.53515C6.54907 5.58571 6.48041 5.50629 6.46094 5.50976C6.40769 5.52292 6.37919 5.56572 6.35645 5.60644C6.3491 5.62132 6.41228 5.64823 6.40527 5.66112C6.35926 5.73805 6.29503 5.81004 6.20899 5.85937C6.19269 5.86861 6.15827 5.82896 6.14649 5.82421C6.06512 5.79231 6.13248 5.89177 6.13574 5.90526C6.15072 5.96571 6.10539 5.94919 6.09082 5.98144C6.02002 6.14134 5.85856 6.2903 5.73047 6.40624C5.56492 6.55631 5.40648 6.64972 5.25391 6.80566C5.24409 6.81551 5.29949 6.85719 5.29297 6.86718C5.18603 6.98582 5.04511 7.06525 4.92676 7.1748C4.91681 7.18379 4.97041 7.22655 4.95606 7.24316C4.92578 7.27713 4.87447 7.30793 4.82617 7.31444C4.80258 7.31762 4.79544 7.25453 4.77246 7.25878C4.71895 7.26847 4.67121 7.29307 4.63184 7.32909C4.6156 7.34462 4.67831 7.38452 4.6543 7.40038C4.48799 7.50728 4.31348 7.60732 4.09668 7.60253C4.08168 7.60225 4.01909 7.48073 4.00293 7.51464C4.0152 7.55081 4.03163 7.59266 4.0459 7.63085C3.79469 7.75511 3.50463 7.78884 3.24316 7.83398C3.23169 7.83599 3.26554 7.90292 3.24316 7.90722C3.10978 7.93265 2.99594 7.97143 2.85352 7.91698C2.83955 7.91161 2.83029 7.78421 2.79492 7.80761C2.78831 7.81203 2.73329 7.83522 2.72266 7.86425C2.7215 7.86953 2.73779 7.9266 2.7207 7.93066C2.61818 7.95061 2.50479 7.94564 2.39453 7.91503C2.37793 7.90993 2.39136 7.84655 2.37988 7.84179C2.29711 7.81236 2.20802 7.86311 2.12598 7.80663C2.07164 7.76843 2.08947 7.65861 2.06055 7.55077C2.05649 7.53554 2.02432 7.53277 2.02246 7.46972C2.01786 7.31124 2.03221 7.13765 2.02539 6.96874C2.02401 6.93239 1.98403 6.97168 2.00781 6.88378C2.00951 6.87791 2.03817 6.84825 2.04492 6.81835C2.04951 6.79743 2.04022 6.73339 2.04981 6.70702C2.05932 6.68121 2.07124 6.73424 2.08691 6.70312C2.10224 6.67137 2.09428 6.59926 2.125 6.58983C2.19795 6.5689 2.28652 6.58628 2.36133 6.61034C2.38406 6.61816 2.37543 6.65819 2.3916 6.66503C2.42343 6.67828 2.45034 6.65699 2.48145 6.67284C2.49149 6.67875 2.48486 6.74048 2.49512 6.74608C2.55548 6.76884 2.60511 6.74766 2.66602 6.7539C2.9584 6.78527 3.24253 6.7498 3.52051 6.68261C3.61155 6.66096 3.74105 6.66953 3.81934 6.60546C3.82832 6.59801 3.79882 6.55092 3.79883 6.54589C3.79889 6.46944 3.83717 6.57521 3.86328 6.57909C3.96989 6.59248 4.05948 6.54944 4.12305 6.48632C4.1496 6.45947 4.06163 6.38471 4.12402 6.41796C4.12834 6.42014 4.15115 6.47448 4.16309 6.47558C4.19002 6.47556 4.22121 6.44323 4.23828 6.43749C4.27139 6.42672 4.2764 6.42224 4.30371 6.40429C4.3411 6.38049 4.40083 6.37295 4.43067 6.33398C4.43685 6.32548 4.39025 6.28532 4.39649 6.26757C4.40299 6.2498 4.43992 6.22747 4.45996 6.22948C4.48002 6.23185 4.5049 6.27249 4.51367 6.27929C4.5873 6.33578 4.54735 6.20865 4.54883 6.20019C4.60275 6.08451 4.72336 6.06986 4.80371 5.98925C4.86342 5.92886 4.90909 5.84473 4.96582 5.78612C5.03384 5.7162 5.11324 5.67343 5.1709 5.59472C5.17579 5.58607 5.11512 5.55114 5.12207 5.54101C5.19954 5.43377 5.28836 5.33432 5.41016 5.25585C5.42259 5.24859 5.46047 5.29945 5.47559 5.29394C5.56748 5.25929 5.74496 5.22942 5.56445 5.02245C5.60821 4.98405 5.66229 4.93484 5.73731 4.9287C5.78581 4.92479 5.81752 4.99247 5.82129 4.94237C5.82147 4.93096 5.76952 4.90266 5.77442 4.88866C5.79581 4.82897 5.85213 4.79127 5.86817 4.72655C5.87134 4.71323 5.82913 4.68078 5.82422 4.67187C5.78567 4.59845 5.91491 4.64583 5.92871 4.64452C6.03427 4.63129 6.05405 4.57064 6.10938 4.51757C6.12223 4.50536 6.05761 4.46977 6.06836 4.45605C6.12465 4.38587 6.19948 4.32536 6.28809 4.29198C6.30794 4.28473 6.33334 4.34278 6.34473 4.34179C6.39379 4.33746 6.32893 4.24232 6.37598 4.23632C6.38582 4.23507 6.41421 4.27964 6.41895 4.28319C6.49222 4.33935 6.43193 4.22594 6.43555 4.21972C6.47735 4.14149 6.59385 4.22117 6.64551 4.16601C6.64937 4.15776 6.59908 4.11431 6.61914 4.09862C6.75475 3.99182 6.93485 3.92573 7.11035 3.92089C7.13723 3.92015 7.13611 3.97302 7.13965 3.97851C7.19423 4.06045 7.1698 3.93403 7.17676 3.92675C7.23114 3.87337 7.31736 3.96098 7.32422 3.8037C7.56064 3.79075 7.77232 3.72371 8 3.77343C8.05603 3.78581 8.11079 3.80542 8.16211 3.83495C8.16514 3.83751 8.15632 3.89722 8.16211 3.90233C8.23975 3.9422 8.22657 3.8443 8.2959 3.73046ZM2.16406 7.51464C2.15343 7.58607 2.20011 7.59107 2.18848 7.51757C2.18802 7.51465 2.16514 7.51187 2.16406 7.51464ZM12.5313 7.38866C12.5215 7.28333 12.456 7.4161 12.4609 7.49706C12.4671 7.57704 12.5344 7.42122 12.5313 7.38866ZM13.3135 7.38183C13.3061 7.33826 13.2611 7.38268 13.2715 7.43749C13.2814 7.48201 13.3235 7.43677 13.3135 7.38183ZM13.9004 7.16796C13.9185 7.17359 13.8606 7.25104 13.8828 7.27538C13.9253 7.31921 13.9551 7.15489 13.999 7.24316C14.0073 7.25937 13.9522 7.41408 13.9463 7.41308C13.85 7.39912 13.8028 7.13756 13.9004 7.16796ZM10.0459 5.08886C9.98333 5.12477 10.007 5.16315 10.0586 5.10937C10.0605 5.10709 10.0487 5.08792 10.0459 5.08886ZM8.96094 4.23241C8.93737 4.28809 8.96341 4.28118 8.98047 4.22753C8.98149 4.22431 8.96833 4.21501 8.96094 4.23241ZM8.04102 3.88671C8.0126 4.00239 8.11675 4.01685 8.09766 3.89452C8.09672 3.88806 8.04297 3.8808 8.04102 3.88671Z" fill="#555961"/>
</svg>
