<svg width="16" height="16" viewBox="0 0 16 16" fill="none" xmlns="http://www.w3.org/2000/svg">
<path d="M2.66697 7.48235C3.0018 7.5303 3.33361 7.55129 3.67381 7.5761C3.8034 7.58553 3.96084 7.64294 4.09471 7.61809C4.11017 7.61515 4.10181 7.56124 4.10447 7.55559C4.15115 7.48585 4.13552 7.59741 4.166 7.61223C4.2869 7.67069 4.42172 7.67555 4.53807 7.65422C4.58709 7.6446 4.53811 7.53511 4.58787 7.59661C4.59124 7.601 4.5785 7.65929 4.59178 7.66594C4.62254 7.68 4.68113 7.66915 4.70506 7.67375C4.7509 7.68298 4.75862 7.68286 4.80174 7.68352C4.86116 7.68494 4.93231 7.7143 4.99607 7.7011C5.00968 7.69809 4.99205 7.6382 5.01365 7.62786C5.0354 7.61763 5.09289 7.62246 5.11229 7.63665C5.13151 7.65095 5.12351 7.69809 5.12693 7.70891C5.1552 7.80015 5.2219 7.67396 5.23045 7.67083C5.26568 7.6588 5.29963 7.65281 5.33299 7.65129C5.50975 7.64708 5.65841 7.73061 5.80174 7.80852C5.88182 7.85194 5.96316 7.90317 6.03416 7.96575C6.09 8.01479 6.13951 8.07105 6.17576 8.13079C6.27287 8.29483 6.28701 8.45896 6.29979 8.63372C6.30083 8.65265 6.37177 8.62881 6.37303 8.65325C6.37322 8.65769 6.3729 8.66247 6.37303 8.66692C6.38053 8.83157 6.37207 8.99512 6.32518 9.15911C6.32019 9.17567 6.25888 9.15444 6.24998 9.17083C6.19894 9.27328 6.07634 9.43515 6.34666 9.49602C6.33611 9.56538 6.32491 9.64976 6.27049 9.71184C6.2354 9.75188 6.16837 9.71344 6.19725 9.76262C6.20448 9.77321 6.26243 9.7598 6.26756 9.77629C6.28907 9.84623 6.2702 9.92296 6.30076 9.99211C6.30788 10.0058 6.36062 10.0018 6.3701 10.0058C6.447 10.0394 6.31884 10.0952 6.30955 10.1073C6.24022 10.2001 6.26828 10.268 6.26658 10.3544C6.26627 10.3744 6.3367 10.3508 6.33885 10.37C6.34907 10.4701 6.34315 10.5738 6.3115 10.6718C6.30413 10.6931 6.24482 10.6738 6.23729 10.6835C6.20912 10.7294 6.3236 10.7401 6.29881 10.7841C6.29333 10.7931 6.24276 10.7884 6.23631 10.79C6.14766 10.8162 6.27082 10.8385 6.27635 10.8456C6.31462 10.9317 6.18282 10.9871 6.20115 11.0702C6.20352 11.0802 6.26827 11.0584 6.27147 11.0859C6.28963 11.2725 6.27137 11.4705 6.21873 11.6552C6.21037 11.6835 6.16133 11.6632 6.15525 11.665C6.06131 11.6941 6.18504 11.7131 6.19236 11.7226C6.22695 11.7965 6.12047 11.8657 6.27244 11.9159C6.23012 12.167 6.27682 12.4175 6.22654 12.6669C6.21421 12.749 6.18356 12.8279 6.1367 12.8945C6.13208 12.8976 6.07592 12.8733 6.07029 12.8808C6.00275 12.9728 6.10266 12.9818 6.1699 13.1152C6.1849 13.152 6.02721 13.133 6.01658 13.1288C5.9742 13.1221 5.90879 13.055 5.89842 13.0546C5.82563 13.0541 6.07845 13.2348 6.02244 13.2988C6.01964 13.299 5.98497 13.2539 5.97654 13.2548C5.95932 13.2566 5.95459 13.2704 5.94529 13.2792C5.94062 13.2836 5.9347 13.2864 5.92576 13.2861C5.86095 13.2842 5.75958 13.1751 5.76658 13.2782C5.76874 13.2941 5.87936 13.428 5.81346 13.4599C5.78839 13.4737 5.67458 13.5315 5.6367 13.5302C5.60026 13.5304 5.60492 13.4701 5.60154 13.4687C5.49821 13.4225 5.5211 13.3817 5.46287 13.2822C5.41176 13.1803 5.46674 13.4362 5.45408 13.4687C5.44055 13.5009 5.37176 13.4455 5.35838 13.4238C5.34404 13.4029 5.35999 13.3665 5.34861 13.3544C5.3429 13.3487 5.33729 13.3446 5.33299 13.3417C5.28033 13.3059 5.31383 13.4869 5.29197 13.5263C5.23521 13.6251 5.19062 13.4302 5.13865 13.4111C5.12488 13.4062 5.13605 13.4503 5.124 13.455C5.07442 13.4709 5.0437 13.41 4.98729 13.4657C4.97735 13.4771 4.93248 13.5908 4.9033 13.5058C4.89917 13.4933 4.91073 13.4444 4.88963 13.4335C4.85802 13.4173 4.80135 13.4067 4.76756 13.4228C4.7425 13.4348 4.77078 13.515 4.73924 13.4902C4.72621 13.4785 4.75107 13.4329 4.72557 13.4159C4.69938 13.399 4.63191 13.4007 4.60643 13.4023C4.58137 13.4043 4.5948 13.4646 4.59275 13.4687C4.58022 13.4921 4.53163 13.5215 4.52732 13.5214C4.30984 13.5287 4.1092 13.426 3.89744 13.4599C3.88091 13.4624 3.892 13.5265 3.88963 13.5282C3.83271 13.5551 3.87763 13.3841 3.83787 13.3271C3.84362 13.457 3.81937 13.4339 3.77928 13.4482C3.76058 13.4556 3.77113 13.5051 3.76951 13.5107C3.74086 13.5871 3.72094 13.4879 3.7158 13.4677C3.69685 13.3941 3.67596 13.4811 3.66307 13.4316C3.65045 13.3824 3.67942 13.31 3.64158 13.3105C3.63083 13.3569 3.65868 13.4778 3.62986 13.498C3.51975 13.5725 3.31417 13.4777 3.22557 13.4677C3.13718 13.4578 3.10813 13.466 3.05662 13.4491C2.96421 13.4192 2.99807 13.5095 2.94041 13.5507C2.8825 13.5919 2.91065 13.3699 2.90232 13.3222C2.89418 13.2748 2.8851 13.3233 2.87498 13.2978C2.86491 13.2717 2.8864 13.2395 2.86326 13.2294C2.83947 13.2196 2.77435 13.3035 2.76561 13.3534C2.74773 13.4591 2.77696 13.5701 2.71385 13.5312C2.71069 13.5274 2.72169 13.4706 2.70799 13.4648C2.6944 13.4592 2.68068 13.4545 2.66697 13.4501C2.55375 13.4193 2.44268 13.3856 2.36326 13.3095C2.35125 13.2976 2.39157 13.2457 2.38572 13.2382C2.32858 13.1606 2.3062 13.2725 2.1865 13.3388C2.29014 13.2133 2.32264 13.1176 2.28221 13.079C2.2759 13.073 2.26825 13.0715 2.25975 13.0732C2.23387 13.0781 2.19787 13.1124 2.15623 13.122C2.13892 13.1254 2.15707 13.0715 2.12791 13.0878C2.03071 13.1385 1.95165 13.2395 1.93846 13.1337C1.94175 13.1283 1.99413 13.1073 1.99022 13.0947C1.96812 13.012 1.86145 13.0549 1.8115 12.9609C1.775 12.8902 1.81109 12.7493 1.83006 12.6669C1.83109 12.6627 1.83135 12.6582 1.83201 12.6542C2.01371 12.6557 1.97272 12.5915 1.84764 12.5654C1.85277 12.5212 1.84495 12.4732 1.86229 12.4306C1.86832 12.4161 1.92073 12.4255 1.92674 12.4238C2.01494 12.3957 1.89709 12.3768 1.88963 12.3671C1.84313 12.2639 1.93509 12.1795 1.84471 12.081C1.83873 12.0775 1.71649 12.0718 1.8076 12.0458C1.81395 12.0441 1.87139 12.0763 1.87596 12.0302C1.88041 11.9839 1.94809 11.8963 1.88963 11.832C1.87555 11.8164 1.77287 11.7766 1.85252 11.745C1.86332 11.7409 1.89965 11.746 1.9199 11.7402C1.98406 11.7205 1.85722 11.7095 1.96482 11.6865C2.07325 11.6634 2.15466 11.6155 2.08006 11.5507C2.07789 11.5486 1.97763 11.5329 1.9785 11.5126C1.98114 11.48 2.00259 11.4334 2.00193 11.3993C2.00106 11.3833 1.93863 11.3934 1.93748 11.3906C1.90238 11.2812 1.9581 11.2031 1.9824 11.0859C1.98613 11.0641 1.90128 11.0023 1.96873 10.9609C2.04301 10.9152 2.35174 10.9624 2.2783 10.8573C2.24889 10.815 1.85768 10.7616 2.06053 10.6855C2.01027 10.5378 2.11368 10.4009 2.04197 10.2529C2.03882 10.2463 1.93111 10.2255 1.93065 10.2099C1.93305 10.1868 1.98322 10.1736 1.98729 10.1572C2.00264 10.0877 1.95922 10.0239 1.9658 9.95696C1.96826 9.93161 2.02101 9.93996 2.0244 9.91008C2.02729 9.87981 1.95817 9.85921 1.99119 9.81829C2.01677 9.78725 2.15902 9.75595 2.17576 9.71477C2.03557 9.7132 2.03797 9.68502 2.00096 9.63469C1.99372 9.62512 1.94566 9.63522 1.93943 9.63079C1.91436 9.61222 1.9546 9.5947 1.92772 9.57708C1.92124 9.57284 1.87432 9.57263 1.86522 9.56926C1.79471 9.53936 1.90213 9.48983 1.92088 9.48137C1.99202 9.44896 1.92995 9.43397 1.95799 9.40911C1.98598 9.38433 2.02102 9.42121 2.03807 9.3925C2.07326 9.33238 2.06516 9.25435 2.06736 9.19329C2.06714 9.16972 2.00498 9.18577 2.00291 9.18254C1.98672 9.13222 2.05439 9.0816 1.92772 9.05364C2.25577 9.0188 1.89642 9.02276 1.96092 8.9511C1.96625 8.94543 2.12264 8.93811 2.14549 8.95989C2.16766 8.98167 2.11978 9.01475 2.15525 9.04485C2.16601 9.05255 2.30959 9.09302 2.31834 9.09856C2.38643 9.1422 2.15434 9.14898 2.14158 9.15129C2.00426 9.17753 2.16039 9.22684 2.17186 9.24016C2.2216 9.3005 2.18909 9.3518 2.22459 9.40227C2.24754 9.43528 2.39918 9.43885 2.39451 9.46477C2.37881 9.55079 2.16739 9.5809 2.35154 9.66204C2.39119 9.67931 2.5565 9.66225 2.42576 9.72454C2.41512 9.72936 2.2991 9.77523 2.374 9.80168C2.38382 9.805 2.43244 9.80508 2.4365 9.8095C2.46229 9.83902 2.42392 9.85929 2.44236 9.89153C2.46084 9.92375 2.48784 9.96219 2.47166 9.99895C2.46184 10.0212 2.37204 10.0497 2.34959 10.0605C2.28593 10.0905 2.38991 10.1229 2.31346 10.1415C2.23593 10.1603 2.11761 10.1237 2.06736 10.1728C2.19346 10.1746 2.32337 10.1796 2.45018 10.1825C2.44567 10.2904 2.40462 10.3966 2.41014 10.5048C2.41095 10.5182 2.4788 10.505 2.48143 10.5195C2.49193 10.5801 2.44367 10.6333 2.46287 10.6962C2.47812 10.745 2.55028 10.7986 2.56834 10.8495C2.42405 10.8807 2.47313 10.9566 2.45994 11.0116C2.45507 11.0305 2.41695 11.0295 2.40428 11.0429C2.35778 11.0946 2.4848 11.0707 2.50486 11.0849C2.5903 11.1456 2.30242 11.1509 2.30955 11.2226C2.31751 11.2284 2.46331 11.273 2.47264 11.2792C2.5351 11.3199 2.41955 11.286 2.40818 11.3115C2.38739 11.3577 2.35052 11.3899 2.39549 11.4443C2.40899 11.4602 2.50473 11.4984 2.43064 11.5292C2.4209 11.5332 2.37054 11.5309 2.36717 11.5341C2.31753 11.5932 2.47712 11.5951 2.53123 11.6288C2.58507 11.6626 2.47511 11.7149 2.44334 11.7255C2.36194 11.753 2.40746 11.7044 2.40037 11.7021C2.30434 11.6844 2.3206 11.7228 2.31248 11.7519C2.15584 11.7561 2.16524 11.7969 2.30467 11.7822C2.31986 11.7805 2.30546 11.7578 2.31248 11.7519C2.46616 11.7774 2.4854 11.8217 2.34178 11.871C2.27461 11.8939 2.1972 11.8725 2.22557 11.9423C2.23848 11.974 2.34507 11.9625 2.37498 11.9902C2.44196 12.0543 2.342 12.1379 2.3574 12.204C2.36316 12.2281 2.42272 12.2052 2.42869 12.2216C2.44444 12.2651 2.40018 12.3039 2.42283 12.3476C2.42675 12.3511 2.48651 12.342 2.48729 12.3554C2.49437 12.4585 2.45518 12.5485 2.45408 12.6562C2.45406 12.6595 2.45385 12.6633 2.45408 12.6669C2.45758 12.6852 2.49045 12.7047 2.48826 12.7187C2.48116 12.7423 2.42564 12.8271 2.4658 12.8407C2.48103 12.8448 2.50303 12.827 2.52537 12.8075C2.53876 12.7958 2.55318 12.7835 2.56541 12.7734C2.62344 12.7182 2.54634 12.8391 2.541 12.8642C2.54096 12.8652 2.51808 12.8679 2.50779 12.8993C2.47629 12.9578 2.54109 12.8646 2.541 12.8642C2.53415 12.8778 2.558 12.9071 2.56932 12.8984C2.57497 12.8939 2.59444 12.8424 2.59764 12.8378C2.63336 12.8119 2.65025 12.7954 2.66697 12.7978C2.702 12.7987 2.7372 12.8026 2.77244 12.8105C2.77458 12.8117 2.7723 12.8778 2.77732 12.8798C2.84731 12.9084 2.89237 12.8287 2.95018 12.7812C3.00813 12.7336 3.05356 12.7498 3.08787 12.8622C3.13151 12.8481 3.19431 12.8975 3.23045 12.9277C3.26597 12.9573 3.27218 12.8344 3.27537 12.8281C3.37437 12.7474 3.43152 12.8195 3.53416 12.831C3.58303 12.8366 3.68047 12.8186 3.73338 12.8046C3.77505 12.7936 3.80039 12.8227 3.83885 12.8036C3.84344 12.7986 3.83827 12.7442 3.83982 12.7421C3.88246 12.6749 3.86259 12.8119 3.87107 12.8378C3.90326 12.928 3.92343 12.9759 3.9785 12.9335C3.9914 12.9218 4.02871 12.7244 4.05174 12.7128C4.08155 12.6985 4.0701 12.7692 4.10154 12.7519C4.10415 12.7497 4.10394 12.7073 4.12303 12.7089C4.21333 12.7174 4.31239 12.7426 4.40623 12.7382C4.41833 12.7364 4.40255 12.6677 4.42088 12.6659C4.50775 12.6576 4.60285 12.6605 4.68748 12.6933C4.70818 12.7015 4.6959 12.7497 4.70018 12.7646C4.72781 12.8523 4.76663 12.7263 4.77342 12.7226C4.92841 12.661 5.0471 12.7767 5.20506 12.7216C5.21366 12.7184 5.28002 12.5813 5.30955 12.6991C5.31087 12.7043 5.32037 12.7432 5.33299 12.7626C5.33435 12.7778 5.33727 12.7809 5.33689 12.745C5.33642 12.74 5.33411 12.6807 5.33494 12.6835C5.33462 12.6787 5.33116 12.6624 5.34666 12.7157C5.35113 12.738 5.39758 12.8471 5.3701 12.7558C5.37181 12.7513 5.34674 12.6996 5.33104 12.6669H5.32225C5.32154 12.6638 5.32092 12.6603 5.32029 12.6572C5.32353 12.6595 5.32693 12.6617 5.33006 12.664V12.663L5.32029 12.6552C5.28715 12.4861 5.35897 12.3184 5.3701 12.1493C5.37184 12.1229 5.32317 12.1443 5.32225 12.1054C5.31856 11.9618 5.27353 11.7142 5.37693 11.5898C5.45973 11.4904 5.52292 11.6152 5.55662 11.539C5.57116 11.5024 5.41507 11.463 5.40916 11.454C5.35856 11.3673 5.42871 11.3065 5.40721 11.2284C5.40222 11.2128 5.33957 11.2281 5.33592 11.2148C5.32483 11.168 5.35265 11.1188 5.34764 11.0741C5.34515 11.0541 5.29642 11.0572 5.29979 11.039C5.30827 10.9947 5.32907 10.9552 5.37498 10.912C5.37987 10.9085 5.43995 10.9346 5.44236 10.9023C5.44586 10.8493 5.49099 10.7835 5.44432 10.7226C5.43026 10.7045 5.31873 10.7037 5.39549 10.665C5.41164 10.6568 5.54582 10.6673 5.42967 10.622C5.40917 10.6138 5.25494 10.5381 5.35545 10.5009C5.38219 10.4911 5.49051 10.4659 5.47459 10.4443C5.47183 10.4413 5.41112 10.4525 5.40525 10.4345C5.38575 10.3711 5.39281 10.3043 5.374 10.2392C5.36879 10.2218 5.30644 10.2476 5.30076 10.2216C5.28512 10.1502 5.30084 10.0609 5.32029 9.99114C5.32789 9.9658 5.37916 9.98324 5.38475 9.98137C5.47522 9.95142 5.35393 9.93378 5.34568 9.92375C5.30269 9.86155 5.36002 9.8141 5.34471 9.75676C5.34054 9.74123 5.28373 9.75173 5.27732 9.74895C5.22617 9.71628 5.33113 9.74033 5.34275 9.71965C5.37557 9.66178 5.37076 9.59751 5.36326 9.53899C5.36043 9.51752 5.29306 9.54145 5.291 9.52239C5.27927 9.40812 5.2857 9.28918 5.32322 9.17766C5.33032 9.15692 5.38169 9.16983 5.39451 9.16594C5.4782 9.13581 5.3646 9.09122 5.3535 9.08098C5.30379 9.03472 5.35043 9.01636 5.34178 8.97551C5.32109 8.87955 5.31736 8.77286 5.32127 8.66692C5.3222 8.66738 5.32365 8.66588 5.32518 8.66594C5.17585 8.67427 5.02794 8.65359 4.87791 8.6718C4.8647 8.67396 4.88396 8.73934 4.86229 8.74407C4.8175 8.75412 4.7611 8.75048 4.7158 8.72942C4.69386 8.71932 4.72249 8.66392 4.70115 8.65422C4.64935 8.63295 4.59323 8.628 4.54002 8.6386C4.51774 8.64352 4.5515 8.7108 4.52244 8.71184C4.32194 8.71855 4.12447 8.73007 3.92186 8.6425C3.90806 8.63506 3.89556 8.49911 3.86619 8.52532C3.86397 8.56345 3.86423 8.60859 3.86326 8.64934C3.57154 8.67124 3.28276 8.62352 2.99022 8.61614C2.97795 8.61584 2.99879 8.68775 2.97557 8.6884C2.87214 8.6876 2.77059 8.6984 2.66697 8.67375C2.66727 8.66551 2.66649 8.65311 2.66209 8.63567C2.66041 8.62882 2.63862 8.50225 2.63279 8.52336C2.63147 8.5277 2.62383 8.54788 2.63182 8.57415C2.63359 8.57898 2.65426 8.63302 2.65428 8.63567C2.65274 8.64393 2.64881 8.63878 2.62986 8.62981C2.62412 8.62715 2.61678 8.62384 2.60838 8.62102C2.60225 8.61922 2.55396 8.57856 2.54783 8.57708C2.50559 8.57801 2.539 8.61805 2.4785 8.62688C2.4366 8.63715 2.32931 8.61202 2.21971 8.61907C2.204 8.62048 2.19959 8.64678 2.1367 8.64641C1.97811 8.64649 1.8058 8.61689 1.6367 8.61809C1.59967 8.61859 1.63769 8.6999 1.55076 8.65129C1.54453 8.64806 1.51707 8.5843 1.48924 8.56536C1.46912 8.55273 1.40369 8.5676 1.37986 8.54094C1.35705 8.51329 1.41238 8.49294 1.38865 8.44817C1.36521 8.40238 1.28921 8.4062 1.30174 8.31731C1.33035 8.10891 1.48532 7.86595 1.64549 7.73918C1.69115 7.70197 1.70088 7.74207 1.72947 7.72942C1.73183 7.72839 1.73462 7.72729 1.73729 7.72551C1.80599 7.67951 1.85333 7.61541 1.93065 7.58489C1.95589 7.57571 1.96437 7.64592 1.98924 7.63567C2.12378 7.5809 2.24116 7.51241 2.38475 7.49114C2.47922 7.47763 2.57428 7.47486 2.66697 7.48235ZM3.44041 13.3349C3.45494 13.2637 3.40169 13.2579 3.41307 13.332C3.41506 13.3347 3.43752 13.3371 3.44041 13.3349ZM5.15721 13.289C5.15581 13.2285 5.12896 13.2456 5.13768 13.3017C5.1382 13.305 5.1576 13.3079 5.15721 13.289ZM6.11131 12.7206C5.99933 12.6811 5.97338 12.8035 6.09666 12.7968C6.10403 12.795 6.11771 12.7235 6.11131 12.7206ZM5.34471 12.6865C5.35731 12.709 5.43777 12.8426 5.4033 12.7695C5.39549 12.7557 5.37432 12.7271 5.36326 12.7079C5.34876 12.6854 5.36383 12.6998 5.34764 12.6806C5.34458 12.6772 5.33984 12.6734 5.33397 12.6679C5.33684 12.6732 5.34088 12.6794 5.34471 12.6865ZM5.35154 12.6796C5.37699 12.6917 5.34738 12.6736 5.38279 12.6816C5.39564 12.6832 5.4768 12.7085 5.50096 12.7079C5.52476 12.7077 5.54971 12.6925 5.5117 12.6816C5.47782 12.6738 5.36809 12.6684 5.33494 12.6669C5.34326 12.673 5.34971 12.6785 5.35154 12.6796ZM5.29393 12.6376C5.23737 12.5908 5.30103 12.638 5.32029 12.6552V12.6572C5.30935 12.6491 5.29865 12.6412 5.29393 12.6376ZM2.23533 10.3964C2.13682 10.4401 2.28202 10.4692 2.35838 10.4384C2.43435 10.4076 2.26531 10.3831 2.23533 10.3964ZM2.08494 9.49309C2.04195 9.50902 2.09105 9.55478 2.14451 9.53508C2.18746 9.51917 2.13833 9.47358 2.08494 9.49309ZM1.91014 8.6679C1.92647 8.65881 2.07554 8.71962 2.08104 8.72844L2.06541 8.76848C2.00753 8.85558 1.80997 8.89465 1.83592 8.78704C1.84158 8.7652 1.9197 8.83485 1.94334 8.80657C1.98596 8.7548 1.82183 8.72076 1.91014 8.6679ZM5.33397 8.66204C5.33796 8.66073 5.34361 8.6629 5.34666 8.66008C5.35205 8.65551 5.35765 8.64767 5.36131 8.6386C5.37218 8.61609 5.36029 8.58284 5.33885 8.59075C5.33726 8.59451 5.33456 8.65562 5.33397 8.66204ZM2.20311 8.5302C2.26872 8.55885 2.28407 8.52883 2.2119 8.51165C2.20859 8.51239 2.20043 8.52894 2.20311 8.5302Z" fill="#555961"/>
<path d="M10.2783 4.75138C10.3129 4.74744 10.2912 4.81904 10.3252 4.81485C10.4424 4.79931 10.5536 4.7847 10.667 4.78556C10.7042 4.78616 10.7418 4.78643 10.7803 4.79142C11.2872 4.85746 11.7857 4.88089 12.2988 4.90958C12.468 4.91899 12.6739 4.97657 12.8486 4.95157C12.8685 4.94849 12.8572 4.89552 12.8603 4.88907C12.9212 4.81933 12.9016 4.93089 12.9414 4.94571C13.0677 4.99248 13.2053 5.00528 13.333 4.99747C13.3805 4.99553 13.4278 4.99532 13.4736 4.99747C13.5722 5.00469 13.4944 4.87834 13.584 4.96036C13.5886 4.96708 13.552 5.01744 13.5762 5.0297C13.6313 5.05619 13.74 5.08714 13.7793 5.11368C13.8538 5.16354 13.8666 5.17081 13.9336 5.2211C13.965 5.24597 13.9948 5.27717 14.0224 5.31095C14.0741 5.37376 14.117 5.44541 14.164 5.50821C14.1798 5.52917 14.2147 5.46809 14.2451 5.50138C14.2769 5.53471 14.3188 5.64605 14.3154 5.6879C14.3134 5.72927 14.2627 5.72645 14.2539 5.73575C14.1819 5.80652 14.322 5.90115 14.3262 5.92325C14.3327 5.94871 14.338 5.97482 14.3408 6.0004C14.3713 6.1823 14.3104 6.34326 14.3105 6.51798C14.3108 6.66307 14.3353 6.8184 14.332 6.95646C14.3279 7.12087 14.2952 7.26058 14.3008 7.42032C14.3023 7.43653 14.3723 7.41746 14.373 7.4379C14.3812 7.65651 14.3729 7.87355 14.3252 8.09122C14.3204 8.11297 14.259 8.08559 14.25 8.10685C14.1989 8.2405 14.0762 8.45227 14.3467 8.53165C14.3361 8.62216 14.325 8.73191 14.2705 8.8129C14.2354 8.86507 14.1686 8.81448 14.1973 8.87833C14.2037 8.89275 14.262 8.87456 14.2676 8.89591C14.2892 8.98712 14.2703 9.0869 14.3008 9.17716C14.3071 9.19554 14.3605 9.19148 14.3701 9.19669C14.4465 9.24047 14.3189 9.31263 14.3096 9.32853C14.2402 9.44949 14.2683 9.53811 14.2666 9.65079C14.2663 9.67682 14.3367 9.64616 14.3389 9.6713C14.3491 9.80175 14.3431 9.93712 14.3115 10.0649C14.304 10.0928 14.244 10.0671 14.2373 10.0805C14.2091 10.1404 14.3236 10.1539 14.2988 10.2113C14.2932 10.2229 14.2433 10.2163 14.2363 10.2182C14.1466 10.2527 14.2735 10.2835 14.2764 10.2924C14.3143 10.4047 14.1824 10.4768 14.2012 10.5854C14.2047 10.5974 14.2683 10.5694 14.2715 10.6049C14.2896 10.8483 14.2714 11.1061 14.2187 11.3471C14.2106 11.3845 14.1614 11.3584 14.1553 11.3608C14.0606 11.3991 14.1876 11.4237 14.1924 11.4359C14.2269 11.5323 14.1205 11.6224 14.2724 11.6879C14.2302 12.0152 14.2767 12.3413 14.2265 12.6664C14.2143 12.7737 14.1759 12.877 14.1152 12.9613C14.1115 12.9665 14.0578 12.9349 14.0498 12.9438C13.9602 13.0591 14.0611 13.0713 14.0937 13.2358C14.0982 13.2802 13.9362 13.2507 13.9228 13.2445C13.9158 13.2431 13.9084 13.2394 13.9014 13.2348C13.8814 13.2216 13.8621 13.1985 13.8467 13.1801C13.8332 13.164 13.8225 13.1512 13.8183 13.1508H13.8174C13.7395 13.1471 13.9523 13.3718 13.8633 13.4369C13.8596 13.4356 13.839 13.3842 13.8291 13.3842C13.7982 13.384 13.7884 13.4161 13.7568 13.4115C13.6822 13.4001 13.6114 13.27 13.5732 13.3764C13.5669 13.3898 13.6409 13.5537 13.5459 13.5697C13.515 13.5757 13.399 13.5951 13.333 13.5873C13.3229 13.5861 13.3144 13.5844 13.3086 13.5824C13.2754 13.5711 13.298 13.5151 13.2959 13.5121C13.2063 13.4375 13.24 13.4065 13.1953 13.2963C13.1504 13.1862 13.1628 13.4482 13.1445 13.4779C13.1262 13.5071 13.0603 13.4458 13.0439 13.4242C13.0278 13.4028 13.0475 13.3671 13.0332 13.3549C12.9379 13.2756 12.9914 13.485 12.9599 13.5268C12.886 13.6252 12.8285 13.4307 12.7607 13.4115C12.7425 13.4064 12.7571 13.4499 12.7412 13.4545C12.6765 13.4704 12.637 13.4095 12.5635 13.4652C12.5513 13.4746 12.4926 13.5915 12.4541 13.5063C12.4486 13.4939 12.4639 13.445 12.4365 13.434C12.3953 13.4177 12.3206 13.407 12.2764 13.4233C12.2441 13.4356 12.2813 13.5154 12.2402 13.4906C12.222 13.4795 12.256 13.4324 12.2217 13.4154C12.1875 13.3985 12.0996 13.4011 12.0664 13.4027C12.0338 13.4049 12.0515 13.4651 12.0488 13.4692C12.0324 13.4922 11.9708 13.5212 11.9639 13.5219C11.68 13.5293 11.4179 13.4265 11.1416 13.4604C11.12 13.4631 11.1342 13.5267 11.1308 13.5277C11.0568 13.5543 11.1153 13.3845 11.0635 13.3275C11.071 13.4574 11.0405 13.4344 10.9883 13.4486C10.9631 13.4556 10.9769 13.506 10.9746 13.5111C10.9373 13.5872 10.911 13.4884 10.9043 13.4682C10.8795 13.3941 10.8528 13.4817 10.8359 13.432C10.8192 13.3828 10.8576 13.3101 10.8076 13.3109C10.7937 13.3574 10.8304 13.4782 10.793 13.4984C10.7573 13.5169 10.7137 13.5253 10.667 13.5268C10.477 13.5359 10.2875 13.3935 10.2129 13.3266C10.1621 13.2857 10.13 13.2556 10.1045 13.2289C10.0761 13.1987 10.056 13.172 10.0381 13.1332C9.98453 13 9.9374 13.0912 9.85643 13.0199C9.77985 12.9405 10.0079 12.9114 10.0478 12.8832C10.0893 12.8583 10.04 12.8627 10.0605 12.8432C10.0825 12.8245 10.1206 12.839 10.123 12.8109C10.125 12.7862 10.0313 12.725 9.98143 12.7133C9.88572 12.696 9.78639 12.7365 9.79393 12.6664C9.79497 12.6604 9.7978 12.6533 9.80174 12.6449C9.80448 12.6404 9.86228 12.6552 9.86815 12.6371C9.91293 12.4933 9.91644 12.3442 9.95604 12.2006C9.96154 12.181 10.0252 12.1978 10.0303 12.1869C10.0718 12.067 9.96239 12.1091 9.84081 12.0434C10.0026 12.0581 10.1016 12.022 10.1025 11.9311C10.103 11.8766 10.0322 11.8863 9.98241 11.851C9.96739 11.8404 10.0156 11.8014 9.98241 11.7943C9.87408 11.7715 9.75309 11.8073 9.80077 11.7143C9.80307 11.7102 9.8626 11.7226 9.8662 11.7084C9.88967 11.6166 9.77644 11.6056 9.76268 11.5063C9.75192 11.4285 9.8206 11.2903 9.83202 11.2016C10.0137 11.2034 9.97275 11.1194 9.84764 11.0854C9.85277 11.0278 9.84496 10.9652 9.86229 10.9096C9.86867 10.8909 9.92104 10.9032 9.92674 10.9008C10.0158 10.8639 9.89502 10.839 9.88964 10.8266C9.84313 10.6919 9.9351 10.582 9.84471 10.4535C9.83785 10.4489 9.71679 10.4414 9.8076 10.4076C9.81396 10.4054 9.87152 10.4476 9.87596 10.3871C9.88051 10.3267 9.94775 10.2131 9.88964 10.1293C9.87556 10.109 9.77305 10.0572 9.85253 10.016C9.86338 10.0105 9.89971 10.016 9.91991 10.0082C9.98408 9.98262 9.85714 9.96891 9.96483 9.93888C10.0733 9.90875 10.1549 9.84578 10.0801 9.76114C10.0744 9.75788 9.9775 9.73833 9.9785 9.71232C9.98114 9.66983 10.0026 9.60922 10.0019 9.56485C10.0015 9.54368 9.93864 9.55682 9.93749 9.55314C9.90243 9.41049 9.95811 9.30856 9.98241 9.15567C9.98605 9.12728 9.90186 9.04758 9.96874 8.99357C10.0429 8.93396 10.3516 8.99471 10.2783 8.85782C10.2489 8.80255 9.85769 8.73255 10.0605 8.63321C10.0103 8.44056 10.1137 8.26195 10.042 8.06876C10.0369 8.05981 9.92918 8.03236 9.93065 8.01212C9.9335 7.98206 9.98394 7.96531 9.98729 7.94376C10.0026 7.85319 9.95914 7.77034 9.96581 7.68302C9.96828 7.64981 10.0214 7.6611 10.0244 7.62149C10.0273 7.58203 9.95824 7.5557 9.9912 7.50235C10.0167 7.46195 10.1586 7.42116 10.1758 7.36759C10.0356 7.36554 10.038 7.32776 10.001 7.26212C9.99285 7.25031 9.94528 7.26313 9.93944 7.25724C9.91466 7.23309 9.9544 7.21083 9.92772 7.1879C9.92122 7.18235 9.87405 7.18161 9.86522 7.17716C9.79471 7.13815 9.90213 7.07394 9.92089 7.0629C9.99207 7.02061 9.92995 7.00062 9.95799 6.96817C9.98599 6.93616 10.0211 6.98432 10.0381 6.94669C10.0732 6.86834 10.0652 6.76752 10.0674 6.6879C10.0679 6.6566 10.0061 6.67697 10.0029 6.67325C9.98672 6.60759 10.0546 6.54077 9.92772 6.50431C10.2562 6.4588 9.89506 6.46442 9.96092 6.37052C9.96661 6.36312 10.1227 6.35386 10.1455 6.38224C10.1682 6.41065 10.1197 6.45418 10.1553 6.49356C10.1662 6.50366 10.3096 6.55665 10.3183 6.56388C10.3859 6.62063 10.1548 6.62823 10.1416 6.63126C10.0038 6.66553 10.1609 6.73122 10.1719 6.74845C10.2216 6.82716 10.1891 6.89453 10.2246 6.96036C10.2483 7.00302 10.3992 7.00772 10.3945 7.04142C10.3786 7.15348 10.1675 7.19247 10.3515 7.29825C10.3909 7.32092 10.5567 7.29893 10.4258 7.38028C10.4148 7.38676 10.2992 7.44643 10.374 7.48087C10.384 7.48516 10.4325 7.48489 10.4365 7.49064C10.4625 7.52918 10.4241 7.55509 10.4424 7.59708C10.4609 7.63929 10.4881 7.69049 10.4717 7.73868C10.4614 7.76768 10.3717 7.80488 10.3496 7.81876C10.2859 7.85795 10.39 7.89989 10.3135 7.92423C10.2358 7.94875 10.1175 7.90093 10.0674 7.96524C10.1935 7.96763 10.3234 7.97313 10.4502 7.97696C10.4457 8.11785 10.4046 8.2565 10.4101 8.39786C10.411 8.41539 10.4788 8.39762 10.4814 8.41642C10.4922 8.4956 10.4438 8.56481 10.4629 8.64689C10.478 8.71052 10.5502 8.78054 10.5683 8.84708C10.4243 8.88766 10.4729 8.9863 10.4599 9.05802C10.4554 9.08315 10.4169 9.08214 10.4043 9.10001C10.3581 9.16712 10.4841 9.13567 10.5049 9.15372C10.5905 9.23298 10.3028 9.24007 10.3096 9.33341C10.3098 9.33835 10.4626 9.39911 10.4726 9.40763C10.5351 9.46062 10.4196 9.41645 10.4082 9.44962C10.3874 9.5101 10.3505 9.55246 10.3955 9.62345C10.4094 9.64431 10.5045 9.69373 10.4307 9.7338C10.4209 9.73909 10.3702 9.73638 10.3672 9.74064C10.3179 9.81759 10.4772 9.81965 10.5312 9.86368C10.5852 9.90775 10.4751 9.97581 10.4433 9.98966C10.3616 10.0257 10.4078 9.96201 10.4004 9.95939C10.3047 9.93642 10.3204 9.98597 10.3125 10.0238C10.1559 10.0293 10.1653 10.0831 10.3047 10.0639C10.3199 10.0617 10.3053 10.0315 10.3125 10.0238C10.4662 10.0571 10.4854 10.1157 10.3418 10.1801C10.2745 10.21 10.1969 10.1824 10.2256 10.2738C10.2391 10.3147 10.3453 10.2993 10.375 10.3354C10.4421 10.4191 10.3416 10.5283 10.3574 10.6147C10.3632 10.646 10.4227 10.6157 10.4287 10.6371C10.4445 10.6939 10.4002 10.7442 10.4228 10.8012C10.426 10.806 10.4858 10.7938 10.4873 10.8109C10.4945 10.9455 10.4552 11.063 10.4541 11.2035C10.4536 11.2714 10.4873 11.3929 10.4805 11.4633C10.4689 11.5852 10.3795 11.7352 10.4014 11.8393C10.4153 11.9072 10.4774 11.8922 10.5195 11.9213C10.6008 11.9775 10.4543 12.0769 10.4316 12.0902C10.4299 12.0865 10.4153 12.0339 10.3848 12.0639C10.3211 12.0814 10.4249 12.0892 10.4316 12.0902C10.4171 12.0998 10.4036 12.2148 10.415 12.2387C10.4215 12.2513 10.4801 12.2448 10.4824 12.2514C10.5286 12.3891 10.5457 12.5271 10.5303 12.6664C10.5282 12.6702 10.5253 12.6749 10.5224 12.6791C10.5167 12.6801 10.4558 12.6838 10.4541 12.6859C10.4286 12.7209 10.5146 12.7246 10.5625 12.7143C10.6114 12.7057 10.595 12.7094 10.5176 12.7924C10.5238 12.7935 10.5266 12.7985 10.5273 12.8061C10.5284 12.8238 10.5221 12.8584 10.5215 12.8832C10.5222 12.9192 10.5857 12.8128 10.5889 12.808C10.6488 12.7482 10.6283 12.8171 10.667 12.8315H10.668C10.7317 12.8371 10.8587 12.819 10.9277 12.8051C10.9821 12.794 11.0153 12.8232 11.0654 12.8041C11.0716 12.7996 11.0653 12.7447 11.0674 12.7426C11.1231 12.6754 11.096 12.8131 11.1074 12.8383C11.1494 12.9284 11.1754 12.9762 11.2471 12.934C11.2636 12.9243 11.3126 12.725 11.3428 12.7133C11.3819 12.6986 11.3671 12.7697 11.4082 12.7524C11.4116 12.7502 11.4114 12.7065 11.4365 12.7084C11.5542 12.7169 11.6824 12.7431 11.8047 12.7387C11.8214 12.7382 11.8002 12.6683 11.8242 12.6664C11.9374 12.6581 12.0616 12.6601 12.1719 12.6928C12.199 12.7011 12.1826 12.7505 12.1885 12.765C12.2242 12.8521 12.2747 12.7287 12.2842 12.7231C12.4864 12.6615 12.6416 12.7773 12.8476 12.7221C12.8592 12.7181 12.9449 12.582 12.9834 12.6986C12.986 12.7065 13.024 12.8269 13.0576 12.7455C13.0597 12.7404 13.0367 12.6777 13.0781 12.684C13.1196 12.6901 13.1863 12.6492 13.2432 12.7172C13.2584 12.7355 13.2909 12.8236 13.333 12.7934C13.3345 12.7877 13.3362 12.7779 13.3369 12.7631C13.3411 12.7592 13.3339 12.7024 13.3301 12.6664H13.3223C13.3215 12.6619 13.321 12.6573 13.3203 12.6527C13.3234 12.6561 13.327 12.6592 13.3301 12.6625C13.3291 12.661 13.3282 12.6593 13.3271 12.6576C13.3263 12.6557 13.3227 12.6532 13.3193 12.6488C13.2873 12.4292 13.3591 12.2111 13.3701 11.9916C13.3716 11.9575 13.3232 11.9856 13.3223 11.935C13.3186 11.7477 13.2735 11.4245 13.3769 11.2621C13.4597 11.1325 13.5229 11.2958 13.5566 11.1967C13.5726 11.1491 13.4168 11.0976 13.4092 11.0854C13.3586 10.9723 13.4286 10.8932 13.4072 10.7914C13.4028 10.7704 13.3391 10.7907 13.3359 10.7729C13.3248 10.7118 13.3528 10.6476 13.3476 10.5893C13.3451 10.5631 13.296 10.5675 13.2998 10.5434C13.3083 10.4857 13.3291 10.4346 13.375 10.3783C13.3795 10.3735 13.4397 10.4075 13.4424 10.3656C13.4459 10.2965 13.4911 10.2098 13.4443 10.1303C13.4293 10.1071 13.3186 10.1055 13.3955 10.0551C13.4118 10.0445 13.5457 10.0585 13.4297 9.99942C13.4089 9.98853 13.255 9.88965 13.3555 9.84122C13.3826 9.82826 13.4918 9.79526 13.4746 9.767C13.4705 9.76365 13.4111 9.77851 13.4053 9.75528C13.3857 9.67251 13.3928 9.58542 13.374 9.5004C13.3686 9.47802 13.3065 9.51165 13.3008 9.47794C13.285 9.38476 13.3008 9.26827 13.3203 9.17716C13.3277 9.14379 13.3792 9.1669 13.3848 9.16446C13.475 9.12552 13.3547 9.10237 13.3457 9.08927C13.3027 9.00821 13.3599 8.94618 13.3447 8.87149C13.3406 8.85088 13.2827 8.86482 13.2773 8.86075C13.2264 8.81837 13.3302 8.84985 13.3428 8.82364C13.3756 8.74816 13.3708 8.66366 13.3633 8.58732C13.3604 8.55925 13.2928 8.59004 13.291 8.56485C13.2793 8.41593 13.2857 8.26097 13.3232 8.11564C13.3305 8.08869 13.3819 8.10524 13.3945 8.10001C13.4783 8.06067 13.3644 8.00294 13.3535 7.98966C13.3039 7.92947 13.3502 7.90595 13.3418 7.85294C13.2987 7.59264 13.3287 7.27052 13.3476 7.02482C13.3721 6.7048 13.4221 6.45601 13.4092 6.15079C13.4073 6.13216 13.3394 6.15078 13.3379 6.13419C13.3346 6.09208 13.3326 6.05013 13.332 6.00821C13.3298 6.02472 13.3276 6.0413 13.3281 6.04435C13.3296 6.04511 13.3314 6.04667 13.333 6.04728C13.3245 6.04749 13.3161 6.04707 13.3076 6.04728C13.3143 6.03545 13.3252 6.01518 13.332 6.00138V6.0004C13.3335 5.99996 13.3391 5.9955 13.3291 6.00431C13.3262 6.00742 13.2982 6.03335 13.2851 6.04728C13.0649 6.05215 12.8466 6.05006 12.623 5.97599C12.605 5.96974 12.5892 5.83278 12.5508 5.8588C12.5479 5.89694 12.5481 5.94206 12.5469 5.98282C12.1661 6.00478 11.789 5.95699 11.4072 5.94962C11.3912 5.94938 11.4188 6.02209 11.3877 6.02189C11.2073 6.02082 11.0321 6.04054 10.8476 5.96817C10.8297 5.96011 10.8387 5.83394 10.7851 5.85294C10.7756 5.85647 10.694 5.87304 10.6728 5.90079C10.6703 5.90448 10.6821 5.95188 10.667 5.96427C10.6669 5.96578 10.6661 5.967 10.666 5.9672C10.6591 5.97656 10.6549 5.96113 10.6182 5.94376C10.6115 5.94055 10.5731 5.89039 10.5674 5.88907C10.5632 5.88842 10.559 5.88838 10.5557 5.88907C10.5221 5.8991 10.5385 5.93609 10.4814 5.94767C10.4379 5.96098 10.3325 5.92983 10.2217 5.93888C10.2057 5.9407 10.1995 5.97352 10.1367 5.97306C9.97813 5.97312 9.80679 5.93538 9.63768 5.93692C9.60014 5.93759 9.63754 6.04344 9.55077 5.97989C9.54432 5.97565 9.51951 5.89344 9.49315 5.86856C9.47438 5.8514 9.40711 5.8713 9.38475 5.83634C9.3633 5.80026 9.42114 5.77423 9.40233 5.71622C9.38474 5.65684 9.30498 5.66195 9.33202 5.54825C9.37882 5.35998 9.51045 5.14962 9.67577 5.00919C9.74141 4.95221 9.8112 4.90502 9.87792 4.86857C9.95124 4.82988 9.93844 4.88675 9.98924 4.86466C10.0883 4.82373 10.172 4.76543 10.2783 4.75138ZM10.5469 13.3236C10.5759 13.2574 10.5151 13.2394 10.5107 13.3139C10.5117 13.3173 10.5455 13.3266 10.5469 13.3236ZM12.7842 13.2895C12.7824 13.2286 12.7473 13.2459 12.7588 13.3022C12.76 13.3054 12.7846 13.3081 12.7842 13.2895ZM14.1103 12.7377C14.0008 12.6857 13.9646 12.8441 14.0889 12.8354C14.097 12.8335 14.1172 12.7415 14.1103 12.7377ZM13.3379 12.6889C13.3424 12.7134 13.379 12.8666 13.3711 12.7856C13.368 12.7701 13.3551 12.737 13.3506 12.7152C13.3409 12.6856 13.3615 12.7127 13.334 12.6693C13.335 12.675 13.3366 12.6815 13.3379 12.6889ZM13.3486 12.683C13.3496 12.6838 13.3507 12.6844 13.3515 12.685C13.3702 12.6949 13.3482 12.6769 13.3808 12.6859C13.3938 12.6881 13.4736 12.721 13.498 12.7201C13.5225 12.7198 13.5487 12.7001 13.5107 12.6859C13.4762 12.6756 13.3634 12.6682 13.333 12.6664C13.3406 12.6746 13.3469 12.6815 13.3486 12.683ZM13.2998 12.6303C13.2573 12.5766 13.3011 12.6253 13.3193 12.6488C13.3195 12.6502 13.3201 12.6514 13.3203 12.6527C13.3116 12.6433 13.3033 12.6342 13.2998 12.6303ZM10.2353 8.25626C10.1369 8.31317 10.282 8.35202 10.3584 8.31192C10.4347 8.27172 10.2653 8.23889 10.2353 8.25626ZM10.0849 7.07853C10.042 7.0993 10.0911 7.15878 10.1445 7.13321C10.1875 7.11243 10.1384 7.05285 10.0849 7.07853ZM9.91014 6.00138C9.92732 5.98965 10.0819 6.07282 10.081 6.08146L10.0654 6.13321C10.0075 6.24668 9.81029 6.29762 9.83592 6.15763C9.84129 6.12858 9.91965 6.21998 9.94335 6.18302C9.9865 6.11537 9.82174 6.07041 9.91014 6.00138ZM13.3037 6.05606C13.2889 6.07218 13.277 6.06795 13.2793 6.05606C13.2794 6.05552 13.2794 6.05432 13.2803 6.05314C13.2814 6.05173 13.2832 6.04931 13.2851 6.04728C13.2926 6.04711 13.3001 6.04746 13.3076 6.04728C13.3055 6.05104 13.3049 6.05461 13.3037 6.05606ZM13.3369 5.97208C13.3365 5.97385 13.3348 5.9853 13.333 5.99845C13.3353 5.99367 13.338 5.99041 13.3389 5.98868C13.3472 5.96891 13.3413 5.96188 13.3369 5.97208ZM10.2168 5.82364C10.2784 5.86035 10.3008 5.82253 10.2305 5.80021C10.2274 5.79923 10.2141 5.82192 10.2168 5.82364Z" fill="#555961"/>
<path d="M6.66016 2.02516C6.66267 2.02553 6.66512 2.02635 6.667 2.02711C6.68179 2.03941 6.65954 2.09434 6.68067 2.09938C6.80597 2.12721 6.92483 2.11138 7.05176 2.12477C7.67679 2.19078 8.29117 2.21425 8.92384 2.24293C9.04982 2.24861 9.19252 2.27205 9.33301 2.28395C9.47809 2.29162 9.61727 2.32541 9.74415 2.36891C9.78157 2.38202 9.78312 2.32216 9.792 2.32106C9.93683 2.31403 9.84877 2.39589 9.90626 2.44801C9.95975 2.49906 10.0098 2.55363 10.0557 2.6111C10.2049 2.79645 10.304 3.01806 10.3408 3.23317C10.3574 3.34557 10.4483 3.2417 10.4131 3.33375C10.4105 3.33768 10.4073 3.34226 10.4033 3.34742C10.3992 3.35297 10.3405 3.3327 10.334 3.35426C10.32 3.40358 10.3307 3.49717 10.3262 3.5359C10.3169 3.60973 10.3171 3.62258 10.3164 3.69215C10.315 3.78779 10.2856 3.90203 10.2988 4.00465C10.3018 4.02656 10.3618 3.99802 10.3721 4.03297C10.3822 4.06806 10.3774 4.15994 10.3633 4.19117C10.3491 4.22238 10.3019 4.20909 10.291 4.21461C10.2006 4.25953 10.3233 4.36496 10.3291 4.38063C10.3825 4.63158 10.3104 4.84723 10.3106 5.08278C10.3109 5.26172 10.3353 5.45352 10.332 5.62379C10.3279 5.82665 10.2952 5.99899 10.3008 6.19606C10.3023 6.21609 10.3723 6.19231 10.3731 6.21754C10.3813 6.48739 10.373 6.75549 10.3252 7.02418C10.3202 7.05068 10.2591 7.0167 10.25 7.04274C10.199 7.20758 10.0762 7.46925 10.3467 7.56715C10.3361 7.67874 10.325 7.81405 10.2705 7.91383C10.2354 7.97818 10.1684 7.91578 10.1973 7.99488C10.204 8.0124 10.2624 7.9897 10.2676 8.01637C10.2892 8.12888 10.2703 8.25172 10.3008 8.36305C10.3072 8.38572 10.3606 8.38006 10.3701 8.38649C10.4468 8.44041 10.3192 8.52983 10.3096 8.54957C10.2402 8.69876 10.2683 8.80805 10.2666 8.94703C10.2663 8.97913 10.3367 8.94142 10.3389 8.97242C10.3491 9.13329 10.3432 9.30027 10.3115 9.45778C10.304 9.49221 10.2438 9.46062 10.2373 9.47731C10.2095 9.55098 10.3236 9.56767 10.2988 9.63844C10.2931 9.6527 10.243 9.64482 10.2363 9.64723C10.1467 9.68986 10.2736 9.72708 10.2764 9.73805C10.3146 9.8767 10.1824 9.9654 10.2012 10.0994C10.2038 10.1152 10.2688 10.0798 10.2715 10.1248C10.2896 10.4247 10.2713 10.7419 10.2188 11.0388C10.2107 11.085 10.1614 11.0525 10.1553 11.0554C10.0611 11.1024 10.1857 11.133 10.1924 11.1482C10.227 11.2671 10.1205 11.378 10.2725 11.4588C10.2302 11.8627 10.2768 12.2656 10.2266 12.6668C10.2144 12.7991 10.1655 12.9262 10.0879 13.0261C10.0829 13.0321 10.0331 12.9937 10.0234 13.0047C9.90897 13.1376 10.0054 13.1546 10.001 13.3347C10.0008 13.3373 10.0012 13.3399 10.001 13.3425C9.99411 13.3938 9.81884 13.3481 9.8086 13.3406C9.76197 13.3252 9.73383 13.232 9.72169 13.2312C9.63347 13.218 9.8023 13.481 9.67774 13.5359C9.67397 13.5369 9.66799 13.4778 9.65626 13.4763C9.62069 13.4714 9.59773 13.5035 9.56251 13.4929C9.47945 13.4667 9.44372 13.3235 9.36036 13.4158C9.35233 13.4238 9.36156 13.5061 9.33301 13.5564C9.32262 13.5804 9.3062 13.5972 9.2793 13.5945C9.24592 13.5911 9.10003 13.594 9.0586 13.5828C9.01862 13.5717 9.04426 13.5176 9.04298 13.5125C8.93227 13.4377 8.97344 13.4063 8.91798 13.2957C8.86271 13.1863 8.87806 13.449 8.85548 13.4783C8.83244 13.5067 8.75132 13.4449 8.73145 13.4236C8.71232 13.4021 8.73635 13.3663 8.71876 13.3543C8.60175 13.2757 8.6676 13.4854 8.62891 13.5271C8.53771 13.6255 8.46632 13.4311 8.38282 13.4119C8.3602 13.4067 8.37855 13.4507 8.35841 13.4548C8.27867 13.4707 8.23039 13.4098 8.13966 13.4656C8.12443 13.4755 8.05122 13.5913 8.00391 13.5056C7.9978 13.4926 8.01606 13.4451 7.98243 13.4343C7.93171 13.4181 7.84072 13.4075 7.78614 13.4236C7.74594 13.4356 7.79132 13.5152 7.74122 13.491C7.71867 13.4799 7.76012 13.4327 7.71778 13.4158C7.67579 13.3989 7.56867 13.4005 7.52735 13.4021C7.48707 13.4037 7.50738 13.4628 7.50489 13.4685C7.48488 13.492 7.40636 13.5213 7.39942 13.5213C7.14676 13.5266 6.90829 13.4753 6.667 13.4588C6.55663 13.4523 6.4484 13.4287 6.3418 13.3914C6.312 13.3809 6.30368 13.4471 6.29884 13.4461C6.18271 13.416 6.34054 13.3067 6.31251 13.2244C6.25228 13.3393 6.22668 13.299 6.16016 13.2615C6.12827 13.2431 6.10945 13.2936 6.10352 13.2957C6.07613 13.3008 6.05899 13.2947 6.04981 13.2839C6.02712 13.2571 6.05213 13.2036 6.0586 13.1892C6.09232 13.1151 6.00122 13.1377 6.02833 13.0886C6.05782 13.0433 6.14367 13.0435 6.11134 12.9929C6.06147 12.9997 5.9841 13.108 5.93848 13.0681C5.8512 12.9907 5.80044 12.822 5.81837 12.6668C5.83408 12.5434 5.86022 12.424 5.86524 12.3523C5.87514 12.2101 5.86699 12.1637 5.8838 12.0808C5.91398 11.9316 5.82348 11.9862 5.78223 11.8933C5.74152 11.8006 5.96274 11.845 6.01075 11.8318C6.05843 11.8186 6.00993 11.8042 6.03614 11.7879C6.0622 11.7722 6.09461 11.8069 6.1045 11.7693C6.11432 11.7309 6.02939 11.6258 5.9795 11.6121C5.87385 11.5833 5.76288 11.6305 5.80176 11.5291C5.80408 11.5232 5.86227 11.5417 5.86817 11.5193C5.913 11.3418 5.91636 11.1575 5.95606 10.9802C5.96173 10.9561 6.02599 10.9776 6.03028 10.9636C6.07177 10.8159 5.96231 10.8687 5.84083 10.7879C6.00255 10.806 6.10159 10.7604 6.10255 10.6482C6.10287 10.5813 6.03212 10.593 5.98243 10.5496C5.96741 10.5365 6.01566 10.4879 5.98243 10.4793C5.87402 10.4511 5.75273 10.4958 5.80079 10.3806C5.80309 10.3756 5.86262 10.3913 5.86622 10.3738C5.88964 10.2606 5.77658 10.247 5.7627 10.1248C5.7519 10.0287 5.82077 9.85718 5.83204 9.74781C6.01378 9.75011 5.97282 9.64722 5.84766 9.60524C5.85277 9.53442 5.8451 9.45788 5.86231 9.38942C5.86822 9.36581 5.92107 9.38067 5.92676 9.3777C6.01594 9.33205 5.89444 9.30122 5.88966 9.2859C5.84329 9.11995 5.93508 8.98434 5.84473 8.82594C5.83706 8.82028 5.71712 8.81085 5.80762 8.7693C5.81415 8.76675 5.87155 8.81832 5.87598 8.74391C5.88069 8.66923 5.94809 8.52884 5.88966 8.42555C5.87538 8.40049 5.77342 8.33761 5.85255 8.28688C5.86339 8.28013 5.89972 8.28674 5.91993 8.27711C5.98411 8.24553 5.85703 8.22824 5.96485 8.19117C6.07335 8.15402 6.15495 8.07681 6.08009 7.97242C6.07576 7.96867 5.97742 7.94422 5.97852 7.91188C5.98116 7.85951 6.00259 7.78494 6.00196 7.73024C6.00162 7.705 5.94282 7.71952 5.93751 7.71656C5.90231 7.54053 5.95808 7.41482 5.98243 7.22633C5.98701 7.19177 5.90133 7.09213 5.96876 7.02516C6.04291 6.95166 6.35144 7.02687 6.27833 6.85817C6.24892 6.78999 5.85771 6.70334 6.06055 6.58082C6.01031 6.34329 6.11364 6.12369 6.042 5.88551C6.03882 5.8748 5.92918 5.84039 5.93067 5.8152C5.93334 5.77817 5.98354 5.75766 5.98731 5.73121C6.00268 5.6194 5.95911 5.51674 5.96583 5.40895C5.9683 5.36799 6.02147 5.38163 6.02442 5.33278C6.02685 5.28421 5.95774 5.25126 5.99122 5.18531C6.01713 5.13543 6.15925 5.08552 6.17579 5.0193C6.03559 5.01677 6.03799 4.97135 6.00098 4.89039C5.99353 4.87529 5.94592 4.89147 5.93946 4.88453C5.91431 4.85457 5.95512 4.82607 5.92774 4.79762C5.92095 4.7908 5.87365 4.79048 5.86524 4.78492C5.79475 4.73683 5.90212 4.65793 5.92091 4.6443C5.99198 4.59223 5.93036 4.56797 5.95801 4.52809C5.98605 4.48814 6.02108 4.54741 6.03809 4.50074C6.07327 4.40402 6.06519 4.27963 6.06739 4.18141C6.06789 4.14314 6.00686 4.16801 6.00294 4.16383C5.98675 4.08288 6.0544 4.0008 5.92774 3.95582C6.25613 3.89972 5.89563 3.90638 5.96094 3.79078C5.96627 3.78166 6.12266 3.77039 6.14551 3.80543C6.16762 3.84047 6.11982 3.89375 6.15528 3.94215C6.16641 3.95467 6.30962 4.01919 6.31837 4.02809C6.38701 4.09839 6.15486 4.10834 6.14161 4.11207C6.00374 4.15436 6.16102 4.23538 6.17188 4.2566C6.22156 4.35364 6.18912 4.43617 6.22462 4.51735C6.24772 4.57019 6.39843 4.57557 6.39454 4.61696C6.37912 4.75558 6.16727 4.80468 6.35157 4.93531C6.39148 4.96293 6.55637 4.93582 6.42579 5.0359C6.41431 5.04418 6.29966 5.11656 6.37403 5.15895C6.38358 5.16435 6.43245 5.16451 6.43653 5.17164C6.46278 5.21937 6.42389 5.25146 6.44239 5.30348C6.46089 5.35548 6.48805 5.41793 6.47169 5.47731C6.46184 5.51313 6.37175 5.55977 6.34962 5.57692C6.28631 5.62523 6.39006 5.67681 6.31348 5.7068C6.23587 5.73705 6.11754 5.67826 6.06739 5.75758C6.19348 5.76052 6.32339 5.76653 6.4502 5.77125C6.44576 5.94503 6.40462 6.11642 6.41016 6.29078C6.41098 6.31229 6.47817 6.29065 6.48145 6.31324C6.49222 6.41104 6.44365 6.49698 6.4629 6.5984C6.47808 6.67676 6.55016 6.76255 6.56837 6.84449C6.42418 6.8946 6.47306 7.01676 6.45997 7.10524C6.45544 7.13605 6.4171 7.13439 6.4043 7.15602C6.35783 7.23914 6.48473 7.20067 6.50489 7.2234C6.59053 7.32122 6.30245 7.32976 6.30958 7.44508C6.31497 7.45334 6.46211 7.52531 6.47266 7.5359C6.53511 7.60123 6.41965 7.54684 6.40821 7.58766C6.38746 7.66226 6.35067 7.71407 6.39551 7.80153C6.40886 7.82707 6.5047 7.88863 6.43067 7.93824C6.42116 7.94464 6.37199 7.94126 6.36719 7.94606C6.31757 8.04113 6.47711 8.0441 6.53126 8.0984C6.58531 8.15271 6.47526 8.23649 6.44337 8.25367C6.36282 8.29745 6.40616 8.22291 6.4004 8.21754C6.30441 8.18912 6.32059 8.24987 6.31251 8.29664C6.15587 8.30342 6.16529 8.36913 6.30469 8.34547C6.31993 8.34277 6.30535 8.30604 6.31251 8.29664C6.46621 8.33771 6.48544 8.40961 6.3418 8.48903C6.27456 8.52591 6.19693 8.49152 6.22559 8.60426C6.23888 8.65497 6.34531 8.63578 6.37501 8.68043C6.44211 8.78375 6.34157 8.91864 6.35743 9.02516C6.36344 9.06333 6.42277 9.02615 6.42872 9.0525C6.44454 9.12249 6.4002 9.18433 6.42286 9.25465C6.42515 9.26096 6.48653 9.24548 6.48731 9.26735C6.49448 9.4332 6.45527 9.57762 6.45411 9.75074C6.45361 9.83439 6.48722 9.98425 6.48048 10.0711C6.46897 10.2213 6.3797 10.4065 6.40137 10.5349C6.41535 10.6187 6.47742 10.6006 6.51954 10.6365C6.60079 10.7058 6.45428 10.828 6.43165 10.8445C6.42964 10.8386 6.41483 10.7752 6.38477 10.8113C6.32082 10.8329 6.42451 10.8431 6.43165 10.8445C6.41707 10.8554 6.40341 10.9989 6.41505 11.0281C6.4215 11.0436 6.48017 11.0356 6.48243 11.0437C6.53473 11.2361 6.54978 11.4287 6.52247 11.6238C6.52128 11.6272 6.45607 11.6225 6.45411 11.6306C6.42506 11.7436 6.50517 11.8157 6.55274 11.9089C6.60025 12.0021 6.584 12.0764 6.47169 12.1316C6.48575 12.2019 6.43543 12.3031 6.40528 12.3611C6.37581 12.4189 6.50335 12.4273 6.50587 12.4324C6.55204 12.5237 6.54743 12.5931 6.53321 12.6668C6.52267 12.6775 6.50776 12.6933 6.50782 12.7117C6.50739 12.7332 6.54419 12.76 6.56641 12.7615C6.56818 12.7618 6.57014 12.7618 6.5713 12.7625C6.58024 12.7681 6.57459 12.7906 6.59376 12.783C6.59772 12.7793 6.62318 12.7351 6.62598 12.7312C6.66559 12.6757 6.59585 12.7957 6.58692 12.8191C6.55672 12.9044 6.56085 12.9595 6.60645 12.9275C6.62132 12.921 6.66661 12.725 6.66407 12.7127C6.66547 12.7075 6.66642 12.7135 6.667 12.7224C6.6782 12.7383 6.68279 12.7637 6.71485 12.7527C6.719 12.7502 6.71825 12.7069 6.74903 12.7088C6.89431 12.7172 7.05314 12.7425 7.20411 12.738C7.22406 12.7369 7.19824 12.6679 7.22755 12.6658C7.36736 12.6575 7.52102 12.6603 7.65723 12.6931C7.69052 12.7015 7.6695 12.7508 7.67676 12.7654C7.72111 12.8526 7.78378 12.7267 7.79493 12.7224C8.04432 12.6608 8.23606 12.7767 8.49024 12.7214C8.50626 12.7148 8.61029 12.5832 8.65723 12.699C8.66049 12.7068 8.70746 12.8273 8.74903 12.7449C8.75161 12.7397 8.72287 12.6784 8.77344 12.6843C8.82457 12.6906 8.90728 12.6494 8.97755 12.7175C8.99988 12.7394 9.05294 12.859 9.11915 12.7634C9.12347 12.7567 9.22514 12.5399 9.26173 12.6892C9.26745 12.713 9.26221 12.8612 9.33301 12.7986C9.3335 12.7964 9.3345 12.7935 9.33497 12.7908C9.33688 12.7749 9.33337 12.7396 9.33594 12.7175C9.3354 12.6863 9.34936 12.7195 9.33106 12.6668H9.32227C9.32123 12.6593 9.32022 12.6518 9.31934 12.6443C9.32243 12.6494 9.32589 12.6547 9.32911 12.6599V12.657C9.3287 12.6538 9.32423 12.6457 9.31934 12.6365C9.28971 12.3685 9.35915 12.1026 9.37012 11.8347C9.37187 11.7922 9.3232 11.827 9.32227 11.7644C9.31864 11.5335 9.27349 11.1347 9.37696 10.9343C9.45976 10.7744 9.52294 10.9759 9.55665 10.8533C9.5724 10.7941 9.41416 10.7299 9.40919 10.7156C9.35874 10.5761 9.42873 10.4789 9.40723 10.3533C9.40239 10.3278 9.33902 10.3528 9.33594 10.3308C9.32486 10.2554 9.35288 10.1763 9.34766 10.1043C9.34517 10.0719 9.29603 10.0774 9.29981 10.0476C9.30832 9.97659 9.32919 9.91376 9.37501 9.84449C9.37919 9.83817 9.44012 9.88057 9.44239 9.82789C9.44597 9.74269 9.49106 9.63681 9.44434 9.53883C9.42989 9.50991 9.31848 9.50843 9.39551 9.44606C9.41166 9.43293 9.54584 9.44959 9.42969 9.37672C9.40859 9.36299 9.25522 9.24203 9.35548 9.18238C9.38231 9.16648 9.49187 9.12552 9.47462 9.09059C9.47083 9.08632 9.41109 9.10467 9.40528 9.07594C9.38573 8.97383 9.39284 8.86637 9.37403 8.76149C9.3685 8.73414 9.30675 8.7752 9.30079 8.73414C9.28506 8.61922 9.30084 8.47542 9.32032 8.36305C9.32763 8.32164 9.37916 8.35044 9.38477 8.34742C9.47598 8.29895 9.35289 8.26976 9.34571 8.25367C9.3029 8.15372 9.36003 8.07729 9.34473 7.98512C9.34015 7.96076 9.28432 7.97755 9.27735 7.9734C9.2263 7.92097 9.33077 7.9594 9.34278 7.92653C9.37565 7.83348 9.37077 7.72964 9.36329 7.63551C9.36045 7.60089 9.29279 7.63923 9.29102 7.60817C9.2793 7.42434 9.28572 7.23288 9.32325 7.05348C9.33069 7.0203 9.38234 7.04072 9.39454 7.03395C9.47832 6.98541 9.36441 6.91457 9.35352 6.8982C9.30388 6.82385 9.35041 6.79491 9.3418 6.72926C9.29872 6.40824 9.32869 6.01179 9.34766 5.70875C9.37208 5.31386 9.42214 5.0072 9.40919 4.63063C9.40799 4.60707 9.33944 4.63068 9.3379 4.61012C9.32113 4.34395 9.34822 4.0819 9.32813 3.8152C9.32661 3.79339 9.26106 3.82422 9.25587 3.78981C9.24582 3.71779 9.24947 3.62634 9.27051 3.55348C9.28069 3.51792 9.33663 3.56486 9.34571 3.52906C9.36179 3.46595 9.36858 3.39951 9.36622 3.33375C9.36546 3.3327 9.36392 3.33144 9.36134 3.33082C9.35938 3.33078 9.34645 3.33231 9.33204 3.33375C9.33292 3.32736 9.33389 3.31975 9.33301 3.31129C9.33012 3.31053 9.32712 3.31012 9.32423 3.30934C9.30188 3.30332 9.28189 3.16579 9.23438 3.19215C9.23081 3.23028 9.23106 3.27543 9.2295 3.31617C8.75999 3.33812 8.29506 3.29034 7.82423 3.28297C7.80487 3.28318 7.83855 3.35501 7.80079 3.35524C7.5784 3.35416 7.36224 3.37382 7.13477 3.30153C7.11219 3.29445 7.12318 3.16692 7.05665 3.18629C7.04379 3.18998 6.94491 3.20662 6.91895 3.23414C6.91543 3.23834 6.93367 3.29881 6.90137 3.30055C6.82434 3.30427 6.7458 3.30352 6.667 3.29957C6.66138 3.29405 6.65215 3.28129 6.63087 3.26832C6.62468 3.26498 6.59726 3.2088 6.59083 3.20582C6.57408 3.20168 6.56117 3.20861 6.55176 3.21852C6.53403 3.23764 6.52911 3.25735 6.48536 3.2693C6.43957 3.28554 6.33615 3.24651 6.22364 3.25758C6.20727 3.25978 6.20024 3.30105 6.1377 3.30055C5.97884 3.30071 5.80819 3.25274 5.63868 3.25465C5.6005 3.25543 5.63735 3.38695 5.55079 3.30836C5.54402 3.30309 5.52077 3.2019 5.4961 3.17164C5.47817 3.15075 5.40994 3.17532 5.38966 3.13258C5.37014 3.08811 5.43057 3.05598 5.41798 2.98512C5.40755 2.9128 5.32473 2.91804 5.37012 2.78102C5.42454 2.6271 5.52972 2.46351 5.66798 2.33473C5.81184 2.19856 5.98965 2.10341 6.14942 2.05543C6.24777 2.02734 6.21346 2.08266 6.28028 2.0691C6.4097 2.04579 6.52985 2.00779 6.66016 2.02516ZM8.41212 13.2898C8.41 13.2291 8.36704 13.2456 8.38087 13.3015C8.38171 13.3048 8.41234 13.3083 8.41212 13.2898ZM10.1084 12.7547C10.0024 12.6908 9.95389 12.8845 10.0791 12.8738C10.088 12.8729 10.1159 12.7595 10.1084 12.7547ZM9.34571 12.6853C9.35313 12.6938 9.35603 12.6931 9.35743 12.6912C9.35975 12.6878 9.35779 12.6855 9.37891 12.6912C9.39183 12.6939 9.46768 12.7328 9.49317 12.7322C9.51853 12.7322 9.54805 12.7077 9.51075 12.6902C9.47732 12.6776 9.36593 12.67 9.33399 12.6677C9.33953 12.6766 9.34431 12.6836 9.34571 12.6853ZM5.99903 12.6668C5.99761 12.6797 5.99717 12.6979 5.99903 12.699C6.04333 12.7104 6.06142 12.6838 6.05274 12.6668C6.04708 12.6549 6.02955 12.646 6.00098 12.6531C5.99998 12.6539 5.99976 12.6598 5.99903 12.6668ZM9.30762 12.6248C9.28038 12.5696 9.30454 12.6085 9.31934 12.6365C9.31963 12.6391 9.31904 12.6417 9.31934 12.6443C9.31421 12.6359 9.30979 12.6284 9.30762 12.6248ZM6.23536 6.11598C6.1369 6.18619 6.28206 6.2339 6.35841 6.18434C6.43465 6.13476 6.26535 6.09456 6.23536 6.11598ZM6.08497 4.66285C6.04194 4.6885 6.09103 4.76211 6.14454 4.73024C6.18736 4.7046 6.13832 4.63151 6.08497 4.66285ZM5.91016 3.33473C5.92771 3.32096 6.0787 3.42094 6.08106 3.43336L6.06544 3.49781C6.00742 3.63776 5.81001 3.70014 5.83594 3.52711C5.84165 3.49219 5.91959 3.60418 5.94337 3.55934C5.98653 3.4759 5.82176 3.41987 5.91016 3.33473ZM9.33204 3.33375C9.32797 3.3632 9.30934 3.37161 9.29981 3.36696C9.28906 3.36258 9.28716 3.34947 9.28907 3.33961C9.29076 3.33805 9.31266 3.3357 9.33204 3.33375ZM6.23438 3.11793C6.29133 3.16222 6.32114 3.11792 6.25196 3.09059C6.2482 3.09099 6.23194 3.11588 6.23438 3.11793Z" fill="#555961"/>
<path d="M2.75556 12.5911C2.80786 12.5715 2.87631 12.5927 2.92841 12.6214C2.94455 12.6303 2.93699 12.6688 2.94795 12.677C2.96998 12.6925 2.99062 12.6733 3.0124 12.6917C3.01959 12.6979 3.01084 12.7603 3.01826 12.7659C3.05975 12.7937 3.09928 12.7779 3.14131 12.7913C3.34803 12.8572 3.55119 12.8808 3.76045 12.9094C3.82946 12.9188 3.91374 12.9762 3.98506 12.9514C3.99321 12.9485 3.98865 12.8954 3.98994 12.8889C4.0148 12.8192 4.00691 12.9307 4.02314 12.9456C4.08752 13.004 4.15944 13.0089 4.22138 12.9876C4.24739 12.9778 4.22138 12.8688 4.24775 12.9299C4.24958 12.9341 4.24277 12.9922 4.2497 12.9993C4.26604 13.0133 4.29743 13.0026 4.31025 13.0071C4.33475 13.0164 4.33883 13.0162 4.36201 13.0169C4.39369 13.0183 4.43153 13.0477 4.46552 13.0344C4.47263 13.0313 4.46333 12.9723 4.47431 12.9612C4.4859 12.951 4.51672 12.9558 4.52705 12.97C4.53733 12.9842 4.53303 13.0314 4.53486 13.0423C4.54957 13.1315 4.58375 13.0125 4.58955 13.0042C4.67253 12.9509 4.74411 13.0226 4.82197 13.0227C4.88122 13.0224 4.94528 12.998 5.00166 13.0012C5.06873 13.0054 5.12593 13.0381 5.19111 13.0325C5.19733 13.0294 5.18971 12.961 5.19795 12.9602C5.2873 12.952 5.37655 12.9603 5.46552 13.0081C5.47362 13.0147 5.46271 13.0747 5.47138 13.0833C5.52596 13.1343 5.61279 13.257 5.64521 12.9866C5.6821 12.9971 5.72652 13.0085 5.75947 13.0628C5.78075 13.0979 5.76063 13.1649 5.78681 13.136C5.79208 13.1277 5.78497 13.0708 5.79365 13.0657C5.83095 13.044 5.87199 13.0631 5.90888 13.0325C5.91614 13.0253 5.91361 12.9726 5.91572 12.9631C5.9336 12.8862 5.96393 13.0144 5.97041 13.0237C6.01953 13.0925 6.05554 13.0652 6.10127 13.0667C6.11192 13.0671 6.09991 12.9969 6.11006 12.9944C6.16335 12.9842 6.21901 12.9901 6.27119 13.0217C6.28212 13.0299 6.27193 13.0885 6.27705 13.096C6.3015 13.1241 6.3073 13.0096 6.33076 13.0344C6.33548 13.0402 6.33289 13.0903 6.33369 13.0969C6.3478 13.1866 6.36033 13.0597 6.36396 13.0569C6.40975 13.0192 6.43881 13.1508 6.4831 13.1321C6.4884 13.1297 6.47697 13.0645 6.49189 13.0618C6.59121 13.0437 6.69633 13.0619 6.79463 13.1145C6.80959 13.123 6.79855 13.1719 6.79951 13.178C6.81511 13.2725 6.82574 13.1469 6.83076 13.1409C6.87011 13.1063 6.90656 13.2128 6.9333 13.0608C7.0999 13.1135 7.26611 13.0284 7.43134 13.1643C7.43344 13.1659 7.43008 13.2288 7.43427 13.2317C7.48464 13.2668 7.47511 13.1694 7.50849 13.0501C7.51695 13.0207 7.54236 13.1645 7.54463 13.1751C7.55273 13.2138 7.54406 13.3056 7.54658 13.3147C7.56945 13.3739 7.56651 13.0648 7.59736 13.0647C7.59819 13.0666 7.59383 13.1226 7.59638 13.1282C7.60439 13.1456 7.61198 13.1234 7.61982 13.1428C7.63782 13.1881 7.64512 13.338 7.67256 13.2512C7.67604 13.2399 7.6704 13.0642 7.69795 13.0725C7.70906 13.0759 7.7576 13.0729 7.77119 13.0842C7.78465 13.0957 7.77517 13.1518 7.77607 13.1546C7.81267 13.2292 7.79885 13.2601 7.81709 13.3704C7.83545 13.4806 7.83108 13.2181 7.83857 13.1887C7.84612 13.1599 7.87295 13.221 7.87959 13.2424C7.88614 13.2637 7.87788 13.2994 7.88349 13.3118C7.92241 13.3911 7.90094 13.1816 7.91377 13.1399C7.94397 13.0415 7.96717 13.2359 7.99482 13.2551C8.00218 13.2602 7.99651 13.2176 8.00263 13.2122C8.02897 13.1964 8.04501 13.2564 8.0749 13.2014C8.07981 13.1924 8.1041 13.0751 8.11982 13.1604C8.12205 13.1728 8.11638 13.2218 8.12763 13.2327C8.1444 13.2488 8.17406 13.2592 8.19209 13.2434C8.20543 13.2314 8.19091 13.1512 8.20771 13.176C8.21498 13.1874 8.20067 13.2343 8.21455 13.2512C8.22846 13.2681 8.26436 13.2655 8.27802 13.2639C8.29157 13.2623 8.28474 13.2016 8.28584 13.1975C8.29248 13.1747 8.31679 13.146 8.32002 13.1448C8.4359 13.1374 8.54312 13.2401 8.65595 13.2063C8.66446 13.2038 8.65908 13.1445 8.65986 13.1389C8.69018 13.1121 8.667 13.2821 8.68818 13.3391C8.68512 13.2093 8.69712 13.2322 8.71845 13.218C8.72875 13.2111 8.72337 13.1607 8.72431 13.1555C8.73954 13.0797 8.7499 13.1783 8.75263 13.1985C8.76274 13.2726 8.77408 13.185 8.78095 13.2346C8.78778 13.2839 8.77221 13.3567 8.79267 13.3557C8.79834 13.3091 8.78309 13.1881 8.79853 13.1682C8.8572 13.0937 8.96718 13.1886 9.01435 13.1985C9.061 13.2083 9.07603 13.2005 9.10322 13.2171C9.15278 13.2475 9.13495 13.1568 9.16572 13.1155C9.19627 13.0754 9.18188 13.2959 9.18623 13.344C9.19058 13.3917 9.19546 13.3432 9.20088 13.3694C9.20609 13.3955 9.19423 13.4279 9.20674 13.4378C9.21943 13.4476 9.25395 13.3627 9.25849 13.3128C9.26801 13.2071 9.25319 13.0961 9.28681 13.135C9.28856 13.1385 9.28242 13.1956 9.28974 13.2014C9.34853 13.2463 9.40973 13.2496 9.46845 13.2893C9.47595 13.2962 9.46899 13.3584 9.47334 13.3635C9.52228 13.405 9.50513 13.2956 9.53193 13.1741C9.52592 13.3357 9.54077 13.4346 9.57783 13.4358C9.60016 13.4364 9.59659 13.3655 9.61103 13.3157C9.61546 13.3014 9.63064 13.3487 9.63349 13.3157C9.64284 13.2073 9.62865 13.0862 9.6667 13.134C9.66835 13.1363 9.66327 13.1943 9.66865 13.1995C9.70619 13.2231 9.71108 13.1097 9.75166 13.096C9.78335 13.0855 9.8395 13.1536 9.87568 13.1653C9.87492 13.347 9.90963 13.306 9.92353 13.1809C9.94688 13.1859 9.97224 13.1785 9.99482 13.1956C10.0026 13.2014 9.99782 13.2538 9.99873 13.26C10.0137 13.3482 10.0239 13.2303 10.029 13.2229C10.084 13.1764 10.1289 13.2684 10.1813 13.178C10.1832 13.1715 10.1861 13.0499 10.1999 13.1409C10.2008 13.1472 10.184 13.2048 10.2087 13.2092C10.2334 13.2141 10.28 13.2813 10.3142 13.2229C10.3224 13.2088 10.3432 13.1065 10.3601 13.1858C10.3623 13.1966 10.3598 13.233 10.363 13.2532C10.3734 13.3173 10.379 13.1905 10.3913 13.2981C10.4036 13.4066 10.429 13.4881 10.4636 13.4133C10.4647 13.4112 10.4733 13.3107 10.4841 13.3118C10.5014 13.3144 10.5265 13.3359 10.5446 13.3352C10.5526 13.3337 10.5476 13.2763 10.5485 13.2708C10.6069 13.2355 10.6491 13.2914 10.7116 13.3157C10.7234 13.3182 10.7561 13.2351 10.778 13.302C10.8023 13.3761 10.777 13.6841 10.8327 13.6116C10.8553 13.5822 10.8839 13.191 10.9245 13.3938C11.0031 13.3436 11.0761 13.4468 11.155 13.3753C11.1585 13.3721 11.1701 13.2624 11.1784 13.2639C11.1904 13.2667 11.1972 13.3153 11.2058 13.3206C11.2428 13.336 11.2775 13.2923 11.3132 13.2991C11.3264 13.302 11.3218 13.3542 11.3376 13.3577C11.3537 13.3606 11.3646 13.2916 11.3864 13.3245C11.403 13.3501 11.4201 13.4925 11.4421 13.509C11.4429 13.3689 11.4573 13.3713 11.4841 13.3342C11.4891 13.3267 11.4846 13.2786 11.487 13.2727C11.4969 13.2481 11.506 13.2879 11.5153 13.261C11.5176 13.2545 11.5174 13.2075 11.5192 13.1985C11.5352 13.128 11.5616 13.2354 11.5661 13.2542C11.5834 13.3252 11.591 13.2633 11.6042 13.2913C11.6174 13.3193 11.5985 13.3543 11.614 13.3714C11.6459 13.4062 11.687 13.3985 11.7194 13.4006C11.7321 13.4006 11.7234 13.3376 11.7253 13.3362C11.7521 13.3201 11.7788 13.3877 11.7936 13.261C11.8122 13.5888 11.8102 13.2302 11.8483 13.2942C11.8514 13.2995 11.8551 13.4559 11.8435 13.4788C11.8319 13.5005 11.8145 13.4532 11.7985 13.4885C11.7944 13.4997 11.7732 13.6429 11.7702 13.6516C11.747 13.7198 11.7431 13.4876 11.7419 13.4749C11.7279 13.3371 11.7011 13.4943 11.694 13.5051C11.662 13.5546 11.6349 13.5224 11.6081 13.5579C11.5906 13.5813 11.5887 13.7325 11.5749 13.7278C11.5291 13.7119 11.5126 13.5008 11.4694 13.6848C11.4603 13.7247 11.4694 13.8897 11.4362 13.759C11.4335 13.7476 11.4092 13.6327 11.3952 13.7073C11.3934 13.7172 11.3937 13.7657 11.3913 13.7698C11.3756 13.7955 11.3645 13.7572 11.3474 13.7756C11.3302 13.7942 11.3093 13.8213 11.2897 13.8049C11.2779 13.7937 11.2632 13.7049 11.2575 13.6829C11.2415 13.6192 11.2245 13.7232 11.2145 13.6467C11.2045 13.5692 11.2241 13.4509 11.1979 13.4006C11.197 13.5267 11.1946 13.6567 11.1931 13.7835C11.1356 13.779 11.0788 13.7381 11.0212 13.7434C11.014 13.7442 11.0209 13.8117 11.0134 13.8147C10.981 13.8255 10.9522 13.7769 10.9186 13.7962C10.8927 13.8116 10.8647 13.8835 10.8376 13.9016C10.821 13.7573 10.78 13.8064 10.7507 13.7932C10.7407 13.7882 10.7412 13.7502 10.7341 13.7376C10.7065 13.6911 10.7192 13.8181 10.7116 13.8381C10.6792 13.9237 10.6766 13.6357 10.6384 13.6428C10.6352 13.6516 10.6115 13.796 10.6081 13.8059C10.5865 13.8682 10.6048 13.7535 10.5915 13.7415C10.5668 13.7207 10.5492 13.6837 10.5202 13.7288C10.5117 13.7426 10.4917 13.8378 10.4753 13.7639C10.4731 13.7542 10.4741 13.7034 10.4724 13.7005C10.4409 13.651 10.4405 13.8103 10.4226 13.8645C10.4046 13.9186 10.3765 13.8084 10.3708 13.7766C10.3561 13.6951 10.3823 13.7407 10.3835 13.7337C10.3928 13.6384 10.3726 13.6534 10.3571 13.6458C10.3549 13.4891 10.3327 13.4985 10.3405 13.638C10.3414 13.6532 10.354 13.6386 10.3571 13.6458C10.3435 13.7995 10.319 13.8187 10.2927 13.6751C10.2805 13.6079 10.2919 13.5302 10.2546 13.5589C10.2382 13.5732 10.2439 13.6789 10.2292 13.7083C10.1951 13.7751 10.1511 13.6757 10.1159 13.6907C10.1031 13.6964 10.1149 13.756 10.1061 13.762C10.0831 13.7773 10.0629 13.7339 10.0397 13.7561C10.0376 13.7582 10.0421 13.8198 10.0349 13.8206C9.98006 13.8275 9.93195 13.7885 9.8747 13.7874C9.84693 13.7872 9.79783 13.8205 9.76924 13.8137C9.71957 13.8022 9.65843 13.7134 9.61591 13.7346C9.58817 13.7486 9.59362 13.8107 9.58174 13.8528C9.55878 13.9337 9.51883 13.7875 9.51338 13.7649C9.51623 13.7623 9.5359 13.7474 9.52412 13.718C9.51696 13.6543 9.51382 13.758 9.51338 13.7649C9.5094 13.7504 9.46128 13.7365 9.45185 13.7483C9.44683 13.7553 9.44964 13.8134 9.44697 13.8157C9.38327 13.868 9.31919 13.8831 9.25459 13.8557C9.25353 13.8535 9.25505 13.7918 9.25263 13.7874C9.2152 13.7582 9.19171 13.8384 9.16084 13.886C9.13005 13.9333 9.10486 13.9171 9.08662 13.8049C9.06334 13.8184 9.03055 13.7686 9.01142 13.7385C8.99226 13.7088 8.9887 13.8366 8.98701 13.8391C8.93439 13.9192 8.90398 13.8466 8.84931 13.8352C8.82339 13.8297 8.7721 13.8477 8.74384 13.8616C8.72157 13.8728 8.70773 13.8435 8.6872 13.8626C8.68459 13.8663 8.68707 13.9219 8.68623 13.9241C8.6634 13.9916 8.67434 13.8532 8.66963 13.8284C8.65248 13.7382 8.64232 13.6903 8.61299 13.7327C8.60626 13.7423 8.58627 13.9397 8.57392 13.9534C8.55795 13.9682 8.5641 13.8977 8.54756 13.9143C8.54613 13.9157 8.54604 13.9598 8.53584 13.9583C8.48783 13.9498 8.43535 13.9237 8.38545 13.928C8.37873 13.9284 8.38672 13.9963 8.37763 14.0003C8.33139 14.0086 8.28012 14.0066 8.23506 13.9739C8.22396 13.9656 8.23063 13.9162 8.22822 13.9016C8.21358 13.8144 8.19294 13.9387 8.18916 13.9436C8.10667 14.0051 8.04369 13.8898 7.95966 13.9446C7.95509 13.9478 7.91977 14.085 7.904 13.968C7.90293 13.9602 7.88747 13.8397 7.87373 13.9212C7.87287 13.9263 7.88187 13.989 7.86494 13.9827C7.84799 13.9769 7.82069 14.0173 7.79756 13.9495C7.79017 13.9278 7.77263 13.8078 7.75068 13.9036C7.74898 13.912 7.71589 14.126 7.70381 13.9778C7.70185 13.9532 7.70353 13.7951 7.67744 13.8753C7.67245 13.8909 7.68158 13.9264 7.66865 13.9485C7.64842 13.9825 7.62125 13.9405 7.59638 14.011C7.59195 14.0242 7.57402 14.1302 7.55927 14.0491C7.55701 14.0363 7.56101 13.9842 7.55341 13.9778C7.51626 13.9495 7.47689 13.9849 7.43916 13.9485C7.42582 13.9357 7.43245 13.8505 7.41865 13.8274C7.40471 13.8045 7.37659 13.7825 7.36201 13.8215C7.34768 13.8611 7.36328 13.9962 7.3415 14.0071C7.24654 14.0542 7.15214 13.9748 7.05732 13.9631C7.04397 13.9624 7.05506 14.0097 7.03486 14.011C6.95841 14.0146 6.82581 14.0598 6.75947 13.9563C6.70681 13.8736 6.77365 13.8103 6.7331 13.7766C6.71352 13.7609 6.69193 13.9191 6.6872 13.9241C6.64103 13.9745 6.60866 13.9045 6.56709 13.926C6.55906 13.9315 6.56674 13.992 6.56025 13.9973C6.53532 14.0084 6.50888 13.9805 6.48506 13.9856C6.47444 13.9881 6.47608 14.0363 6.4665 14.0335C6.44295 14.025 6.42208 14.0041 6.39912 13.9583C6.39702 13.9541 6.4107 13.8932 6.39326 13.8909C6.36507 13.8872 6.32994 13.8423 6.29756 13.8889C6.28803 13.9036 6.28785 14.0143 6.26728 13.9378C6.26294 13.9216 6.26797 13.7874 6.24384 13.9036C6.23924 13.9249 6.19912 14.078 6.17939 13.9778C6.1741 13.9507 6.16066 13.8414 6.14912 13.8587C6.14756 13.8615 6.15383 13.9221 6.14423 13.928C6.11063 13.9473 6.07523 13.9407 6.04072 13.9592C6.03144 13.9644 6.04479 14.0268 6.03095 14.0325C5.99292 14.0481 5.94508 14.0324 5.90791 14.013C5.89479 14.0048 5.90401 13.9541 5.90302 13.9485C5.88717 13.8586 5.87811 13.9779 5.87275 13.9876C5.83962 14.0306 5.81345 13.9732 5.78291 13.9885C5.77533 13.9947 5.78046 14.0497 5.779 14.0559C5.7616 14.1071 5.77439 14.0021 5.76338 13.9905C5.73261 13.9578 5.69879 13.9625 5.66767 13.97C5.65635 13.9728 5.66849 14.0389 5.65888 14.0423C5.59811 14.054 5.53461 14.0474 5.47529 14.01C5.46421 14.0029 5.47058 13.9514 5.46845 13.9387C5.45241 13.8551 5.429 13.9686 5.42353 13.9798C5.39907 14.0291 5.38929 13.9837 5.36787 13.9915C5.26175 14.0345 5.13025 14.0046 5.02998 13.9856C4.89923 13.9612 4.79724 13.9111 4.67256 13.9241C4.66489 13.9257 4.67251 13.9938 4.66572 13.9954C4.57755 14.0122 4.4904 13.985 4.40205 14.0051C4.39533 14.008 4.40519 14.0716 4.39424 14.0774C4.37036 14.0875 4.34025 14.0839 4.31611 14.0628C4.30457 14.0525 4.31946 13.9975 4.3083 13.9876C4.2807 13.9663 4.25071 13.9613 4.22236 13.9719C4.21049 13.9769 4.22823 14.0444 4.21259 14.0452C4.10592 14.0519 4.00106 14.0633 3.89326 13.9758C3.88587 13.9698 3.87965 13.8328 3.86396 13.8587C3.86278 13.8968 3.86253 13.9419 3.86201 13.9827C3.70669 14.0046 3.55291 13.9569 3.39716 13.9495C3.39059 13.9492 3.4011 14.0219 3.38838 14.0217C3.31487 14.0208 3.24384 14.0403 3.16865 13.968C3.16117 13.961 3.16431 13.8334 3.14228 13.8528C3.13727 13.8568 3.10596 13.8737 3.09736 13.9006C3.0962 13.9048 3.10185 13.9644 3.0915 13.9671C3.02946 13.9761 2.96399 13.9624 2.90205 13.926C2.89204 13.92 2.90234 13.8557 2.89521 13.8508C2.84476 13.8174 2.7901 13.8653 2.74189 13.8079C2.70954 13.7689 2.721 13.6584 2.70381 13.5501C2.70103 13.5352 2.68143 13.5322 2.68037 13.47C2.67771 13.3116 2.68726 13.1379 2.6833 12.969C2.68246 12.9327 2.65588 12.9714 2.67158 12.884C2.67269 12.8782 2.69218 12.8485 2.69697 12.8186C2.70029 12.7979 2.69408 12.7337 2.70088 12.7073C2.70767 12.6813 2.71598 12.7343 2.72724 12.7034C2.73824 12.6717 2.73329 12.5998 2.75556 12.5911ZM11.0788 13.5686C11.0555 13.4698 11.0399 13.6153 11.0563 13.6917C11.0728 13.7678 11.0859 13.5986 11.0788 13.5686ZM2.76826 13.5169C2.76065 13.5879 2.78998 13.5937 2.78388 13.5198C2.78364 13.5168 2.7686 13.5139 2.76826 13.5169ZM11.5603 13.4182C11.5518 13.3752 11.5273 13.4243 11.5378 13.4778C11.5463 13.5207 11.5706 13.4716 11.5603 13.4182ZM7.98506 13.3772C7.98576 13.4381 8.00047 13.4207 7.9958 13.3645C7.99525 13.3612 7.98486 13.3586 7.98506 13.3772ZM11.9362 13.1692C11.9469 13.1761 11.9106 13.2532 11.9255 13.2766C11.9531 13.3193 11.9715 13.1551 11.9997 13.2434C12.0043 13.2613 11.97 13.4152 11.9665 13.4143L11.946 13.3987C11.8996 13.3408 11.8789 13.1433 11.9362 13.1692ZM8.89912 13.3323C8.89155 13.4031 8.91981 13.4082 8.91377 13.3342C8.9119 13.3315 8.89944 13.3295 8.89912 13.3323ZM7.3581 13.22C7.34101 13.3361 7.40796 13.3481 7.39326 13.2258C7.39204 13.2196 7.35918 13.2142 7.3581 13.22Z" fill="#555961"/>
</svg>
