<svg width="16" height="16" viewBox="0 0 16 16" fill="none" xmlns="http://www.w3.org/2000/svg">
<path d="M2.01953 7.25777C2.03074 7.23835 2.04451 7.2594 2.05567 7.28804C2.059 7.29724 2.05831 7.33504 2.06055 7.34371C2.06526 7.35912 2.06957 7.34021 2.07422 7.35836C2.07573 7.36452 2.07376 7.42509 2.0752 7.43258C2.08405 7.46029 2.0926 7.44487 2.10156 7.45797C2.14584 7.52389 2.18957 7.54751 2.23438 7.57613C2.24915 7.58552 2.26696 7.64273 2.28223 7.61812C2.28398 7.61521 2.28292 7.562 2.28321 7.55562C2.28853 7.48588 2.28754 7.59744 2.29102 7.61226C2.3048 7.67046 2.31975 7.67552 2.33301 7.65426C2.33866 7.64503 2.33321 7.53552 2.33887 7.59664C2.33926 7.60078 2.33736 7.65915 2.33887 7.66597C2.34234 7.67988 2.34976 7.66955 2.35254 7.67379C2.35779 7.68304 2.35832 7.68288 2.36328 7.68355C2.37006 7.68498 2.37847 7.71429 2.38574 7.70113C2.38728 7.69815 2.38534 7.63908 2.3877 7.62789C2.39018 7.61766 2.39623 7.62249 2.39844 7.63668C2.40063 7.65101 2.4 7.69813 2.40039 7.70894C2.40355 7.79832 2.41089 7.67889 2.41211 7.67086C2.42992 7.61749 2.4452 7.68952 2.46192 7.68941C2.47449 7.6891 2.48801 7.66519 2.5 7.66793C2.51439 7.67205 2.52704 7.70478 2.54102 7.69918C2.5423 7.69541 2.5403 7.62861 2.54199 7.62691C2.56114 7.61868 2.58055 7.627 2.59961 7.67476C2.60138 7.68095 2.59877 7.74091 2.60059 7.74996C2.61228 7.80101 2.63075 7.92371 2.6377 7.65328C2.64562 7.66384 2.656 7.67493 2.66309 7.72945C2.66761 7.7646 2.66335 7.83151 2.66895 7.80269C2.67006 7.79425 2.66813 7.73815 2.66992 7.73238C2.67792 7.71069 2.68643 7.72975 2.69434 7.69918C2.69595 7.69281 2.69584 7.6394 2.69629 7.62984C2.70012 7.55316 2.70662 7.6811 2.70801 7.69039C2.71857 7.75935 2.72648 7.73167 2.73633 7.73336C2.73805 7.72721 2.73619 7.66314 2.73828 7.66109C2.74968 7.65097 2.76131 7.65686 2.77246 7.68843C2.77485 7.69614 2.77235 7.75503 2.77344 7.76265C2.77868 7.79082 2.78013 7.67634 2.78516 7.70113C2.78619 7.70653 2.78596 7.75691 2.78613 7.76363C2.78916 7.8533 2.79122 7.7264 2.79199 7.72359C2.80183 7.68537 2.80788 7.81756 2.81738 7.79879C2.81829 7.79329 2.81647 7.73309 2.81934 7.72847C2.84064 7.71031 2.86368 7.72857 2.88477 7.78121C2.88786 7.79027 2.88554 7.83867 2.88574 7.84468C2.88907 7.93872 2.8915 7.81458 2.89258 7.80758C2.90101 7.77299 2.90833 7.87947 2.91406 7.7275C2.94976 7.78021 2.98608 7.69514 3.02149 7.83101C3.02193 7.83256 3.02067 7.89328 3.02149 7.8984C3.03231 7.93368 3.02995 7.8362 3.03711 7.71676C3.03892 7.68692 3.04444 7.83119 3.04492 7.84176C3.04667 7.88052 3.04535 7.97275 3.0459 7.9814C3.0508 8.04064 3.05003 7.7315 3.05664 7.7314C3.05685 7.73192 3.05609 7.78922 3.05664 7.79488C3.05836 7.81214 3.05985 7.79004 3.06153 7.80953C3.06537 7.85497 3.0664 8.00428 3.07227 7.91793C3.07301 7.90658 3.07223 7.73093 3.07813 7.73922C3.08062 7.7425 3.09086 7.73969 3.09375 7.75093C3.09665 7.7624 3.09452 7.8188 3.09473 7.82125C3.10257 7.89584 3.09961 7.92683 3.10352 8.03707C3.10745 8.14729 3.1068 7.88477 3.1084 7.85543C3.11001 7.82649 3.11575 7.88755 3.11719 7.90914C3.11859 7.93039 3.11697 7.96603 3.11817 7.97847C3.12651 8.05776 3.12128 7.84832 3.12403 7.8066C3.13049 7.70798 3.13568 7.90221 3.1416 7.92183C3.14317 7.92688 3.14227 7.88461 3.14356 7.87886C3.1492 7.86304 3.15277 7.92321 3.15918 7.86812C3.16023 7.85904 3.16558 7.74164 3.16895 7.82711C3.16942 7.83951 3.16751 7.88849 3.16992 7.89937C3.17353 7.91567 3.1807 7.92632 3.18457 7.91011C3.18743 7.8981 3.18391 7.81794 3.1875 7.84273C3.1891 7.85384 3.18547 7.90097 3.18848 7.91793C3.19145 7.9345 3.19918 7.93222 3.20215 7.93062C3.20505 7.92897 3.20387 7.86831 3.2041 7.86422C3.20555 7.84083 3.21143 7.81141 3.21192 7.81148C3.23653 7.80551 3.25922 7.90617 3.28321 7.87301C3.28503 7.87053 3.28401 7.81099 3.28418 7.80562C3.29068 7.77879 3.2855 7.94883 3.29004 8.00582C3.28939 7.87587 3.2923 7.89897 3.29688 7.88472C3.29898 7.87686 3.29765 7.82732 3.29785 7.82222C3.30112 7.7464 3.30313 7.84503 3.30371 7.86519C3.30588 7.93922 3.30908 7.85171 3.31055 7.90133C3.31199 7.94973 3.30846 8.02079 3.3125 8.02242C3.31372 7.97579 3.31113 7.85464 3.31446 7.83492C3.32699 7.7606 3.3502 7.85485 3.36035 7.86519C3.37042 7.87507 3.37305 7.86708 3.37891 7.88375C3.38953 7.91414 3.38599 7.82347 3.39258 7.78218C3.39909 7.74298 3.39653 7.96262 3.39746 8.0107C3.3984 8.05838 3.39923 8.00988 3.40039 8.03609C3.40152 8.06224 3.39866 8.09465 3.40137 8.10445C3.40412 8.11333 3.41212 8.0291 3.41309 7.97945C3.41513 7.87378 3.41174 7.76275 3.41895 7.80172C3.41935 7.80418 3.41746 7.86103 3.41895 7.86812C3.43155 7.91304 3.44445 7.91628 3.45703 7.95601C3.45871 7.96236 3.45799 8.02629 3.45899 8.03023C3.46944 8.07142 3.46497 7.9622 3.47071 7.84078C3.46942 8.00252 3.47349 8.10154 3.48145 8.1025C3.48583 8.09959 3.48527 8.0309 3.48828 7.98238C3.48923 7.96808 3.49256 8.01544 3.49317 7.98238C3.49517 7.87409 3.49187 7.75318 3.5 7.80074C3.50035 7.80299 3.49889 7.86031 3.5 7.86617C3.50805 7.88974 3.50986 7.77641 3.51856 7.76265C3.52534 7.75266 3.53719 7.82011 3.54492 7.83199C3.54476 8.01369 3.55171 7.9727 3.55469 7.84761C3.55968 7.85261 3.56549 7.84536 3.57031 7.86226C3.57198 7.86814 3.5711 7.92048 3.57129 7.92672C3.57449 8.01487 3.57703 7.89717 3.57813 7.88961C3.58991 7.8431 3.59911 7.93507 3.61035 7.84468C3.61075 7.83808 3.6113 7.71663 3.61426 7.80758C3.61444 7.8141 3.61093 7.8715 3.61621 7.87593C3.62153 7.88123 3.63138 7.94753 3.63867 7.88961C3.64045 7.87554 3.64484 7.7732 3.64844 7.8525C3.64892 7.86332 3.64874 7.89965 3.64942 7.91988C3.65166 7.98404 3.65265 7.85716 3.65528 7.9648C3.65791 8.0733 3.66349 8.1549 3.6709 8.08004C3.67117 8.07535 3.67262 7.98312 3.67481 7.97847C3.67853 7.98112 3.6846 8.00257 3.68848 8.00191C3.69021 8.00057 3.68924 7.94261 3.68946 7.93746C3.70195 7.90223 3.71025 7.95806 3.72363 7.98238C3.7261 7.98652 3.73354 7.90135 3.73828 7.96871C3.7435 8.04285 3.73804 8.35126 3.75 8.27828C3.75484 8.24887 3.76084 7.85766 3.76953 8.06051C3.78639 8.01025 3.80244 8.11366 3.81934 8.04195C3.8201 8.03877 3.82243 7.92914 3.82422 7.93062C3.82679 7.93336 3.82826 7.9817 3.83008 7.98726C3.83791 8.00243 3.84501 7.96049 3.85254 7.96578C3.85545 7.96825 3.85493 8.02142 3.8584 8.02437C3.86167 8.02269 3.86365 7.95932 3.86817 7.99117C3.87171 8.01677 3.87616 8.15917 3.88086 8.17574C3.88104 8.03554 3.88391 8.03794 3.88965 8.00093C3.89065 7.99243 3.88914 7.94522 3.88965 7.93941C3.89177 7.91441 3.89448 7.95451 3.89649 7.92769C3.89697 7.9212 3.89708 7.87413 3.89746 7.86519C3.90088 7.79468 3.90626 7.90211 3.90723 7.92086C3.91093 7.99195 3.9122 7.92993 3.91504 7.95797C3.91784 7.98598 3.91369 8.02106 3.91699 8.03804C3.92372 8.07244 3.93256 8.06554 3.93946 8.06734C3.94224 8.06792 3.94101 8.00429 3.94141 8.00289C3.94715 7.98683 3.95287 8.05437 3.95606 7.92769C3.96003 8.2556 3.9596 7.89657 3.96778 7.9609C3.96842 7.96623 3.96929 8.12261 3.9668 8.14547C3.96431 8.16747 3.96047 8.11979 3.95703 8.15523C3.95614 8.16644 3.95181 8.30958 3.95117 8.31832C3.9462 8.38628 3.9446 8.15431 3.94434 8.14156C3.94134 8.0038 3.93608 8.16098 3.93457 8.17183C3.92769 8.22146 3.92178 8.18908 3.91602 8.22457C3.91247 8.24725 3.91176 8.38498 3.90918 8.39449C3.89945 8.37738 3.89595 8.16806 3.88672 8.35152C3.88475 8.39125 3.88602 8.55643 3.87891 8.42574C3.87833 8.41443 3.87313 8.29933 3.87012 8.37398C3.86974 8.38379 3.86965 8.43242 3.86914 8.43648C3.86579 8.4619 3.86402 8.42394 3.86035 8.44234C3.85666 8.46086 3.85187 8.48809 3.84766 8.47164C3.84513 8.46027 3.84203 8.37154 3.84082 8.34957C3.83739 8.28589 3.83416 8.38999 3.83203 8.31343C3.82989 8.23582 3.83376 8.11749 3.82813 8.06734C3.82792 8.19343 3.82749 8.32335 3.82715 8.45015C3.81482 8.44571 3.80242 8.40454 3.79004 8.41011C3.78858 8.4121 3.78972 8.4788 3.78809 8.4814C3.78125 8.49111 3.77565 8.44442 3.76856 8.46285C3.76299 8.478 3.7568 8.55024 3.75098 8.56832C3.74745 8.42513 3.73869 8.47208 3.73242 8.45992C3.73024 8.4554 3.73004 8.41714 3.72852 8.40426C3.72263 8.35785 3.72523 8.4844 3.72363 8.50484C3.7167 8.59048 3.71619 8.3024 3.70801 8.30953C3.70733 8.31799 3.70292 8.46117 3.70215 8.47261C3.69754 8.53469 3.70104 8.42075 3.69824 8.40816C3.69295 8.38739 3.68884 8.35041 3.68262 8.39547C3.68081 8.40889 3.67637 8.50466 3.67285 8.43062C3.6724 8.42104 3.67321 8.37129 3.67285 8.36715C3.66611 8.31753 3.66596 8.47703 3.66211 8.53121C3.65826 8.58528 3.65259 8.47518 3.65137 8.44332C3.64824 8.36216 3.65302 8.40692 3.65332 8.40035C3.65534 8.30431 3.65078 8.32057 3.64746 8.31246C3.64455 8.46615 3.63943 8.48538 3.63379 8.34176C3.63118 8.27454 3.63397 8.1969 3.62598 8.22554C3.6225 8.24019 3.62421 8.34524 3.6211 8.37496C3.61384 8.44138 3.6042 8.34398 3.59668 8.35738C3.59394 8.36314 3.5966 8.4227 3.59473 8.42867C3.58977 8.44449 3.58506 8.40036 3.58008 8.42281C3.57964 8.42486 3.58042 8.48242 3.5791 8.48726C3.56741 8.49439 3.55711 8.45568 3.54492 8.45406C3.53898 8.45356 3.52764 8.48728 3.52149 8.48043C3.51089 8.46723 3.49826 8.37984 3.48926 8.40133C3.48332 8.4153 3.48399 8.47737 3.48145 8.51949C3.47653 8.6004 3.46797 8.45421 3.4668 8.4316C3.46589 8.41713 3.45615 8.40344 3.4541 8.415C3.453 8.42143 3.45369 8.47977 3.45313 8.48238C3.4395 8.53465 3.42593 8.54948 3.41211 8.52242C3.41188 8.52128 3.41163 8.45997 3.41113 8.45406C3.40311 8.42493 3.39822 8.50511 3.3916 8.55269C3.38502 8.59967 3.37988 8.58353 3.37598 8.47164C3.37099 8.48528 3.36348 8.43529 3.35938 8.40523C3.35531 8.37673 3.35486 8.50331 3.35449 8.50582C3.34327 8.58567 3.3368 8.51383 3.3252 8.50191C3.31965 8.49632 3.30782 8.51436 3.30176 8.52828C3.29699 8.53951 3.29444 8.51014 3.29004 8.52926C3.28948 8.53299 3.29022 8.58862 3.29004 8.59078C3.28515 8.65845 3.28714 8.52001 3.28613 8.49508C3.28246 8.40492 3.2807 8.35696 3.27442 8.39937C3.27297 8.41008 3.26827 8.60492 3.26563 8.62008C3.26219 8.63491 3.26337 8.56366 3.25977 8.58101C3.25947 8.58258 3.25987 8.62479 3.25781 8.62496C3.24759 8.61656 3.23622 8.59079 3.22559 8.59468C3.22416 8.59511 3.22549 8.66179 3.22363 8.66695C3.21375 8.67523 3.203 8.67304 3.19336 8.64058C3.19099 8.6323 3.19192 8.58296 3.19141 8.56832C3.18831 8.48208 3.18448 8.60265 3.1836 8.61031C3.16591 8.67187 3.15182 8.5562 3.13379 8.61129C3.13281 8.61452 3.12545 8.75172 3.12207 8.63472C3.12184 8.6269 3.11916 8.50637 3.11621 8.58785C3.11603 8.59292 3.11764 8.65335 3.11426 8.64937C3.11063 8.64306 3.1046 8.68429 3.09961 8.61617C3.09803 8.59469 3.09455 8.47445 3.08985 8.57027C3.08954 8.57696 3.0817 8.79335 3.0791 8.64449C3.07868 8.61993 3.0798 8.46201 3.07422 8.54195C3.07315 8.55759 3.07503 8.59313 3.07227 8.61519C3.06793 8.64916 3.06197 8.60721 3.05664 8.67769C3.0557 8.69068 3.05199 8.79706 3.04883 8.71578C3.04834 8.70279 3.04855 8.65038 3.04688 8.64449C3.03893 8.6162 3.03053 8.65129 3.02246 8.61519C3.01961 8.60242 3.02148 8.51755 3.01856 8.4941C3.01557 8.47122 3.00899 8.44922 3.00586 8.48824C3.0028 8.52762 3.00653 8.6619 3.00196 8.67379C2.98173 8.72077 2.9616 8.64234 2.94141 8.62984C2.93839 8.6281 2.93999 8.67677 2.93555 8.67769C2.9191 8.68201 2.89104 8.72557 2.87696 8.62301C2.86566 8.5403 2.87979 8.477 2.8711 8.44332C2.86693 8.43029 2.86234 8.58584 2.86133 8.59078C2.85144 8.64122 2.84484 8.57145 2.83594 8.59273C2.83415 8.59708 2.83535 8.65802 2.83399 8.66402C2.82865 8.67511 2.82347 8.64725 2.81836 8.6523C2.81616 8.6547 2.81629 8.69985 2.81446 8.70015C2.80941 8.69167 2.80473 8.67084 2.79981 8.62496C2.79936 8.62083 2.80235 8.5613 2.79883 8.55758C2.79278 8.55408 2.78528 8.50885 2.77832 8.55562C2.77627 8.56994 2.77591 8.68122 2.77149 8.60445C2.77056 8.5883 2.77177 8.45412 2.7666 8.57027C2.76562 8.59147 2.75716 8.74471 2.75293 8.64449C2.7518 8.61747 2.74857 8.50873 2.7461 8.52535C2.74576 8.52811 2.74718 8.58882 2.74512 8.59468C2.73794 8.61372 2.73003 8.60749 2.72266 8.62593C2.72067 8.63107 2.72363 8.69324 2.72071 8.69918C2.71255 8.7149 2.70231 8.69912 2.69434 8.67965C2.69151 8.67166 2.69357 8.62075 2.69336 8.61519C2.68994 8.52454 2.68767 8.64622 2.68653 8.65426C2.67943 8.69725 2.67452 8.63992 2.66797 8.65523C2.66635 8.66126 2.6673 8.71605 2.66699 8.72261C2.66329 8.77338 2.66633 8.67012 2.66406 8.65718C2.65745 8.62427 2.64927 8.62917 2.64258 8.63668C2.64051 8.64332 2.64276 8.70723 2.64063 8.70894C2.62766 8.72036 2.61421 8.71401 2.60156 8.67672C2.59919 8.6696 2.60104 8.61809 2.60059 8.60543C2.59715 8.52166 2.59198 8.63553 2.59082 8.64644C2.58563 8.69536 2.58361 8.65132 2.5791 8.65816C2.55633 8.70125 2.52736 8.67127 2.50586 8.6523C2.47786 8.62788 2.4564 8.57783 2.42969 8.59078C2.42831 8.59547 2.42984 8.65575 2.42871 8.66207C2.4099 8.6788 2.39092 8.65222 2.37207 8.67183C2.37055 8.67333 2.37235 8.73682 2.37012 8.7441C2.365 8.75416 2.35869 8.75056 2.35352 8.72945C2.3512 8.71831 2.35394 8.66398 2.35156 8.65426C2.34565 8.63298 2.33908 8.62803 2.33301 8.63863C2.3306 8.64462 2.33438 8.7111 2.33106 8.71187C2.30829 8.71859 2.28571 8.7296 2.2627 8.64254C2.26111 8.63652 2.26021 8.49902 2.25684 8.52535C2.25658 8.56348 2.25597 8.60862 2.25586 8.64937C2.22266 8.67081 2.18955 8.62351 2.15625 8.61617C2.15509 8.61986 2.15695 8.68863 2.1543 8.68843C2.13867 8.68775 2.12342 8.70643 2.10742 8.63472C2.10591 8.62452 2.10622 8.50038 2.10156 8.51949C2.10044 8.52362 2.09362 8.54047 2.0918 8.56734C2.09155 8.57154 2.09311 8.632 2.09082 8.63375C2.07764 8.64247 2.06394 8.62869 2.05078 8.59273C2.04864 8.58672 2.05036 8.52237 2.04883 8.51754C2.03802 8.48431 2.02595 8.53221 2.01563 8.47457C2.00872 8.43556 2.0115 8.32502 2.00781 8.21676C2.00722 8.20191 2.00316 8.19886 2.00293 8.13668C2.00236 7.97824 2.00476 7.80458 2.00391 7.6357C2.00373 7.59937 1.99761 7.63809 2.00098 7.55074C2.00122 7.54485 2.00581 7.51515 2.00684 7.48531C2.00755 7.46461 2.00636 7.40036 2.00781 7.37398C2.00927 7.34823 2.01029 7.40099 2.0127 7.37008C2.01507 7.33842 2.01473 7.26636 2.01953 7.25777ZM2.02149 8.18355C2.01985 8.25466 2.0267 8.26041 2.02539 8.18648C2.02534 8.1835 2.02156 8.1806 2.02149 8.18355ZM3.90528 8.08492C3.90346 8.04193 3.89815 8.09105 3.90039 8.14449C3.90221 8.18742 3.9075 8.13829 3.90528 8.08492ZM3.13965 8.0439C3.1398 8.10476 3.1426 8.08743 3.1416 8.03121C3.14147 8.02795 3.13961 8.0254 3.13965 8.0439ZM3.98438 7.94332C3.99029 7.98596 3.99397 7.82181 4 7.91011C4.00096 7.92746 3.99421 8.07459 3.99317 8.08101L3.98438 8.03316C3.97741 7.95556 3.97581 7.81367 3.98633 7.8359C3.98866 7.84252 3.98117 7.91984 3.98438 7.94332ZM3.33594 7.99898C3.33432 8.06977 3.34017 8.07486 3.33887 8.00093C3.33855 7.99813 3.33601 7.99618 3.33594 7.99898ZM3.00488 7.88668C3.00122 8.00275 3.01585 8.01474 3.0127 7.89254C3.01242 7.88627 3.00511 7.8809 3.00488 7.88668Z" fill="#555961"/>
<path d="M8.16407 3.98636C8.15745 3.98869 8.08012 3.9812 8.05665 3.98441C8.01401 3.99032 8.17816 3.994 8.08985 4.00003C8.07251 4.00099 7.92537 3.99424 7.91895 3.9932L7.9668 3.98441C8.0444 3.97744 8.18629 3.97584 8.16407 3.98636ZM8.51466 2.00687C8.53536 2.00758 8.59961 2.00639 8.62598 2.00785C8.65174 2.0093 8.59897 2.01032 8.62989 2.01273C8.66155 2.0151 8.7336 2.01476 8.74219 2.01956C8.76161 2.03077 8.74056 2.04454 8.71192 2.0557C8.70273 2.05903 8.66493 2.05834 8.65626 2.06058C8.64084 2.06529 8.65975 2.0696 8.64161 2.07425C8.63545 2.07576 8.57487 2.07379 8.56739 2.07523C8.53967 2.08408 8.55509 2.09263 8.542 2.1016C8.47608 2.14587 8.45245 2.1896 8.42383 2.23441C8.41445 2.24918 8.35724 2.26699 8.38184 2.28226C8.38476 2.28401 8.43796 2.28296 8.44434 2.28324C8.51409 2.28856 8.40253 2.28757 8.3877 2.29105C8.32951 2.30483 8.32444 2.31978 8.34571 2.33304C8.35494 2.33869 8.46445 2.33324 8.40333 2.3389C8.39919 2.33929 8.34082 2.33739 8.33399 2.3389C8.32008 2.34237 8.33042 2.34979 8.32618 2.35257C8.31692 2.35782 8.31708 2.35835 8.31641 2.36331C8.31499 2.37009 8.28568 2.3785 8.29883 2.38577C8.30182 2.38731 8.36088 2.38537 8.37208 2.38773C8.3823 2.39021 8.37747 2.39626 8.36329 2.39847C8.34895 2.40066 8.30183 2.40003 8.29102 2.40042C8.20164 2.40358 8.32108 2.41092 8.32911 2.41214C8.38247 2.42995 8.31044 2.44524 8.31055 2.46195C8.31086 2.47452 8.33478 2.48804 8.33204 2.50003C8.32791 2.51443 8.29518 2.52707 8.30079 2.54105C8.30455 2.54233 8.37135 2.54033 8.37305 2.54202C8.38129 2.56117 8.37296 2.58058 8.3252 2.59964C8.31901 2.60141 8.25905 2.5988 8.25001 2.60062C8.19896 2.61231 8.07626 2.63078 8.34669 2.63773C8.33613 2.64565 8.32503 2.65603 8.27051 2.66312C8.23536 2.66764 8.16846 2.66338 8.19727 2.66898C8.20572 2.67009 8.26181 2.66816 8.26758 2.66995C8.28927 2.67795 8.27021 2.68646 8.30079 2.69437C8.30716 2.69598 8.36056 2.69587 8.37012 2.69632C8.4468 2.70015 8.31886 2.70665 8.30958 2.70804C8.24061 2.7186 8.2683 2.72652 8.26661 2.73636C8.27275 2.73808 8.33683 2.73622 8.33887 2.73831C8.349 2.74971 8.34311 2.76134 8.31153 2.77249C8.30382 2.77488 8.24493 2.77238 8.23731 2.77347C8.20915 2.77871 8.32363 2.78016 8.29883 2.78519C8.29343 2.78622 8.24306 2.78599 8.23633 2.78617C8.14666 2.78919 8.27357 2.79125 8.27637 2.79202C8.31459 2.80186 8.1824 2.80791 8.20118 2.81742C8.20667 2.81832 8.26688 2.8165 8.27149 2.81937C8.28966 2.84067 8.2714 2.86371 8.21876 2.8848C8.2097 2.88789 8.16129 2.88557 8.15528 2.88577C8.06124 2.8891 8.18538 2.89153 8.19239 2.89261C8.22698 2.90104 8.1205 2.90837 8.27247 2.9141C8.21975 2.94979 8.30482 2.98611 8.16895 3.02152C8.16741 3.02196 8.10669 3.0207 8.10157 3.02152C8.06629 3.03234 8.16377 3.02998 8.28321 3.03714C8.31305 3.03895 8.16878 3.04447 8.15821 3.04495C8.11944 3.0467 8.02722 3.04538 8.01856 3.04593C7.95932 3.05083 8.26846 3.05006 8.26856 3.05667C8.26805 3.05688 8.21074 3.05612 8.20508 3.05667C8.18783 3.05839 8.20992 3.05988 8.19044 3.06156C8.145 3.0654 7.99568 3.06644 8.08204 3.0723C8.09339 3.07304 8.26903 3.07226 8.26075 3.07816C8.25746 3.08065 8.26028 3.09089 8.24903 3.09378C8.23757 3.09668 8.18116 3.09455 8.17872 3.09476C8.10412 3.1026 8.07314 3.09964 7.9629 3.10355C7.85268 3.10748 8.1152 3.10683 8.14454 3.10843C8.17347 3.11004 8.11241 3.11578 8.09083 3.11722C8.06958 3.11862 8.03394 3.117 8.02149 3.1182C7.94221 3.12654 8.15164 3.12131 8.19337 3.12406C8.29198 3.13052 8.09775 3.13572 8.07813 3.14163C8.07309 3.1432 8.11536 3.1423 8.1211 3.14359C8.13692 3.14923 8.07676 3.1528 8.13184 3.15921C8.14092 3.16026 8.25833 3.16561 8.17286 3.16898C8.16045 3.16946 8.11148 3.16754 8.10059 3.16995C8.08429 3.17356 8.07365 3.18073 8.08985 3.1846C8.10186 3.18746 8.18202 3.18394 8.15723 3.18753C8.14613 3.18913 8.09899 3.1855 8.08204 3.18851C8.06546 3.19148 8.06774 3.19921 8.06934 3.20218C8.071 3.20508 8.13166 3.2039 8.13575 3.20413C8.15914 3.20558 8.18856 3.21146 8.18848 3.21195C8.19446 3.23656 8.0938 3.25925 8.12696 3.28324C8.12943 3.28506 8.18897 3.28404 8.19434 3.28421C8.22117 3.29071 8.05113 3.28553 7.99415 3.29007C8.12409 3.28942 8.10099 3.29233 8.11524 3.29691C8.1231 3.29901 8.17265 3.29769 8.17774 3.29788C8.25356 3.30115 8.15494 3.30316 8.13477 3.30374C8.06075 3.30591 8.14826 3.30911 8.09864 3.31058C8.05024 3.31202 7.97918 3.30849 7.97755 3.31253C8.02418 3.31375 8.14533 3.31116 8.16505 3.31449C8.23936 3.32702 8.14511 3.35023 8.13477 3.36038C8.12489 3.37045 8.13289 3.37308 8.11622 3.37894C8.08582 3.38956 8.1765 3.38602 8.21778 3.39261C8.25699 3.39912 8.03734 3.39656 7.98926 3.39749C7.94158 3.39843 7.99009 3.39926 7.96387 3.40042C7.93772 3.40155 7.90531 3.39869 7.89551 3.4014C7.88663 3.40415 7.97087 3.41215 8.02051 3.41312C8.12619 3.41516 8.23722 3.41177 8.19825 3.41898C8.19579 3.41938 8.13893 3.41749 8.13184 3.41898C8.08692 3.43158 8.08368 3.44448 8.04395 3.45706C8.0376 3.45874 7.97367 3.45802 7.96973 3.45902C7.92854 3.46947 8.03776 3.465 8.15919 3.47074C7.99744 3.46945 7.89842 3.47352 7.89747 3.48148C7.90037 3.48587 7.96906 3.4853 8.01758 3.48831C8.03188 3.48926 7.98452 3.49259 8.01758 3.4932C8.12587 3.4952 8.24679 3.4919 8.19923 3.50003C8.19697 3.50039 8.13965 3.49892 8.1338 3.50003C8.11022 3.50808 8.22355 3.50989 8.23731 3.51859C8.2473 3.52537 8.17986 3.53722 8.16798 3.54495C8.16678 3.54495 8.16524 3.54495 8.16407 3.54495C8.23439 3.54828 8.24226 3.55207 8.15333 3.55472H8.15235C8.14736 3.55971 8.15461 3.56552 8.1377 3.57035C8.13183 3.57201 8.07949 3.57113 8.07325 3.57132C7.98509 3.57452 8.10279 3.57706 8.11036 3.57816C8.15686 3.58994 8.0649 3.59914 8.15528 3.61038C8.16188 3.61079 8.28334 3.61133 8.19239 3.61429C8.18587 3.61447 8.12847 3.61096 8.12403 3.61624C8.11874 3.62156 8.05244 3.63141 8.11036 3.6387C8.12443 3.64048 8.22676 3.64487 8.14747 3.64847C8.13665 3.64895 8.10032 3.64877 8.08008 3.64945C8.01592 3.65169 8.1428 3.65268 8.03516 3.65531C7.92666 3.65794 7.84507 3.66352 7.91993 3.67093C7.92462 3.6712 8.01684 3.67265 8.02149 3.67484C8.01885 3.67856 7.99739 3.68463 7.99805 3.68851C7.9994 3.69024 8.05735 3.68927 8.06251 3.68949C8.09773 3.70198 8.04191 3.71028 8.01758 3.72367C8.01344 3.72613 8.09862 3.73357 8.03126 3.73831C7.95712 3.74353 7.64871 3.73807 7.72169 3.75003C7.75109 3.75487 8.1423 3.76087 7.93946 3.76956C7.98972 3.78642 7.88631 3.80247 7.95801 3.81937C7.96119 3.82013 8.07083 3.82246 8.06934 3.82425C8.0666 3.82682 8.01826 3.82829 8.0127 3.83011C7.99754 3.83794 8.03948 3.84504 8.03419 3.85257C8.03172 3.85548 7.97854 3.85497 7.97559 3.85843C7.97728 3.8617 8.04065 3.86368 8.0088 3.8682C7.9832 3.87174 7.84079 3.87619 7.82423 3.88089C7.96442 3.88107 7.96202 3.88394 7.99903 3.88968C8.00753 3.89069 8.05475 3.88917 8.06055 3.88968C8.08556 3.8918 8.04546 3.89451 8.07227 3.89652C8.07877 3.897 8.12583 3.89711 8.13477 3.89749C8.20528 3.90091 8.09786 3.90629 8.07911 3.90726C8.00802 3.91096 8.07003 3.91223 8.042 3.91507C8.01399 3.91787 7.9789 3.91372 7.96192 3.91702C7.92753 3.92375 7.93443 3.93259 7.93262 3.93949C7.93204 3.94227 7.99568 3.94104 7.99708 3.94144C8.01314 3.94718 7.9456 3.9529 8.07227 3.95609C7.74437 3.96006 8.10339 3.95963 8.03907 3.96781C8.03374 3.96845 7.87735 3.96932 7.8545 3.96683C7.83249 3.96434 7.88018 3.9605 7.84473 3.95706C7.83353 3.95617 7.69039 3.95184 7.68165 3.9512C7.61369 3.94623 7.84565 3.94463 7.85841 3.94437C7.99616 3.94137 7.83899 3.93611 7.82813 3.9346C7.7785 3.92772 7.81089 3.92181 7.7754 3.91605C7.75272 3.9125 7.61499 3.91179 7.60548 3.90921C7.62259 3.89948 7.8319 3.89598 7.64844 3.88675C7.60872 3.88478 7.44353 3.88605 7.57423 3.87894C7.58554 3.87836 7.70064 3.87316 7.62598 3.87015C7.61617 3.86977 7.56755 3.86968 7.56348 3.86917C7.53807 3.86582 7.57603 3.86406 7.55762 3.86038C7.53911 3.85669 7.51188 3.8519 7.52833 3.84769C7.53969 3.84516 7.62843 3.84206 7.6504 3.84085C7.71407 3.83742 7.60998 3.83419 7.68653 3.83206C7.76415 3.82992 7.88247 3.83379 7.93262 3.82816C7.80653 3.82795 7.67662 3.82752 7.54981 3.82718C7.55425 3.81485 7.59542 3.80245 7.58985 3.79007C7.58787 3.78861 7.52116 3.78975 7.51856 3.78812C7.50886 3.78128 7.55554 3.77568 7.53712 3.76859C7.52196 3.76302 7.44973 3.75683 7.43165 3.75101C7.57484 3.74748 7.52788 3.73872 7.54005 3.73245C7.54457 3.73027 7.58283 3.73007 7.59571 3.72855C7.64212 3.72266 7.51556 3.72526 7.49512 3.72367C7.40949 3.71673 7.69757 3.71622 7.69044 3.70804C7.68197 3.70736 7.53879 3.70295 7.52735 3.70218C7.46527 3.69757 7.57922 3.70108 7.5918 3.69827C7.61258 3.69298 7.64956 3.68887 7.6045 3.68265C7.59107 3.68084 7.4953 3.6764 7.56934 3.67288C7.57893 3.67243 7.62867 3.67324 7.63282 3.67288C7.68244 3.66614 7.52293 3.66599 7.46876 3.66214C7.41469 3.65829 7.52479 3.65262 7.55665 3.6514C7.63781 3.64827 7.59304 3.65305 7.59962 3.65335C7.69565 3.65537 7.67939 3.65081 7.68751 3.64749C7.53382 3.64458 7.51458 3.63946 7.65821 3.63382C7.72542 3.63121 7.80307 3.634 7.77442 3.62601C7.75978 3.62253 7.65472 3.62424 7.62501 3.62113C7.55858 3.61387 7.65599 3.60423 7.64258 3.59671C7.63683 3.59397 7.57726 3.59663 7.5713 3.59476C7.55547 3.5898 7.59961 3.58509 7.57716 3.58011C7.5751 3.57967 7.51755 3.58045 7.5127 3.57913C7.50557 3.56744 7.54429 3.55714 7.54591 3.54495C7.54641 3.53901 7.51268 3.52767 7.51954 3.52152C7.53273 3.51092 7.62012 3.49829 7.59864 3.48929C7.58466 3.48335 7.5226 3.48403 7.48048 3.48148C7.39956 3.47656 7.54575 3.468 7.56837 3.46683C7.58283 3.46592 7.59653 3.45618 7.58497 3.45413C7.57853 3.45304 7.5202 3.45372 7.51758 3.45316C7.46532 3.43953 7.45048 3.42596 7.47755 3.41214C7.47869 3.41191 7.54 3.41166 7.54591 3.41117C7.57504 3.40314 7.49486 3.39825 7.44727 3.39163C7.40029 3.38505 7.41644 3.37991 7.52833 3.37601C7.51469 3.37102 7.56467 3.36351 7.59473 3.35941C7.62323 3.35534 7.49666 3.35489 7.49415 3.35452C7.4143 3.3433 7.48613 3.33683 7.49805 3.32523C7.50365 3.31968 7.48561 3.30785 7.47169 3.30179C7.46045 3.29702 7.48982 3.29447 7.47071 3.29007C7.46697 3.28951 7.41135 3.29025 7.40919 3.29007C7.34151 3.28518 7.47995 3.28717 7.50489 3.28617C7.59505 3.28249 7.64301 3.28073 7.60059 3.27445C7.58988 3.273 7.39504 3.2683 7.37989 3.26566C7.36506 3.26222 7.43631 3.2634 7.41895 3.2598C7.41738 3.2595 7.37517 3.25991 7.37501 3.25785C7.3834 3.24762 7.40918 3.23625 7.40528 3.22562C7.40486 3.22419 7.33818 3.22552 7.33301 3.22367C7.32474 3.21378 7.32692 3.20303 7.35938 3.19339C7.36767 3.19102 7.41701 3.19195 7.43165 3.19144C7.51788 3.18834 7.39732 3.18451 7.38966 3.18363C7.3281 3.16594 7.44376 3.15185 7.38868 3.13382C7.38544 3.13284 7.24825 3.12548 7.36524 3.1221C7.37306 3.12187 7.4936 3.11919 7.41212 3.11624C7.40705 3.11606 7.34661 3.11767 7.35059 3.11429C7.3569 3.11066 7.31568 3.10463 7.3838 3.09964C7.40527 3.09806 7.52552 3.09458 7.42969 3.08988C7.42301 3.08957 7.20662 3.08173 7.35548 3.07913C7.38004 3.07871 7.53796 3.07983 7.45801 3.07425C7.44237 3.07318 7.40683 3.07506 7.38477 3.0723C7.35081 3.06796 7.39276 3.062 7.32227 3.05667C7.30929 3.05573 7.20291 3.05202 7.28419 3.04886C7.29717 3.04837 7.34958 3.04858 7.35548 3.04691C7.38376 3.03896 7.34867 3.03056 7.38477 3.02249C7.39754 3.01964 7.48241 3.02151 7.50587 3.01859C7.52874 3.0156 7.55075 3.00902 7.51173 3.00589C7.47234 3.00283 7.33807 3.00656 7.32618 3.00199C7.2792 2.98176 7.35762 2.96163 7.37012 2.94144C7.37187 2.93842 7.3232 2.94002 7.32227 2.93558C7.31795 2.91913 7.2744 2.89107 7.37696 2.87699C7.45966 2.86569 7.52297 2.87982 7.55665 2.87113C7.56967 2.86696 7.41413 2.86237 7.40919 2.86136C7.35874 2.85147 7.42851 2.84487 7.40723 2.83597C7.40289 2.83418 7.34195 2.83538 7.33594 2.83402C7.32485 2.82868 7.35272 2.8235 7.34766 2.81839C7.34527 2.81619 7.30011 2.81632 7.29981 2.81449C7.30829 2.80944 7.32913 2.80476 7.37501 2.79984C7.37914 2.79939 7.43867 2.80238 7.44239 2.79886C7.44588 2.79281 7.49111 2.78531 7.44434 2.77835C7.43002 2.7763 7.31874 2.77594 7.39551 2.77152C7.41166 2.77059 7.54584 2.7718 7.42969 2.76663C7.4085 2.76565 7.25526 2.75719 7.35548 2.75296C7.38249 2.75183 7.49124 2.7486 7.47462 2.74613C7.47186 2.74579 7.41115 2.74721 7.40528 2.74515C7.38624 2.73797 7.39247 2.73006 7.37403 2.72269C7.36889 2.7207 7.30673 2.72367 7.30079 2.72074C7.28506 2.71258 7.30084 2.70234 7.32032 2.69437C7.32831 2.69154 7.37921 2.6936 7.38477 2.69339C7.47543 2.68997 7.35375 2.6877 7.34571 2.68656C7.30271 2.67946 7.36004 2.67455 7.34473 2.668C7.3387 2.66638 7.28391 2.66733 7.27735 2.66702C7.22658 2.66332 7.32985 2.66636 7.34278 2.6641C7.37569 2.65748 7.37079 2.6493 7.36329 2.64261C7.35664 2.64054 7.29273 2.64279 7.29102 2.64066C7.2796 2.62769 7.28596 2.61424 7.32325 2.6016C7.33037 2.59922 7.38188 2.60107 7.39454 2.60062C7.47831 2.59718 7.36443 2.59202 7.35352 2.59085C7.3046 2.58566 7.34865 2.58364 7.3418 2.57913C7.29872 2.55636 7.32869 2.52739 7.34766 2.50589C7.37209 2.47789 7.42213 2.45643 7.40919 2.42972C7.4045 2.42834 7.34422 2.42987 7.3379 2.42874C7.32116 2.40993 7.34775 2.39095 7.32813 2.3721C7.32664 2.37058 7.26315 2.37238 7.25587 2.37015C7.24581 2.36503 7.2494 2.35872 7.27051 2.35355C7.28166 2.35123 7.33599 2.35397 7.34571 2.3516C7.36698 2.34568 7.37193 2.33911 7.36133 2.33304C7.35535 2.33063 7.28886 2.33441 7.28809 2.33109C7.28137 2.30832 7.27036 2.28574 7.35743 2.26273C7.36344 2.26114 7.50094 2.26024 7.47462 2.25687C7.43648 2.25661 7.39135 2.256 7.35059 2.25589C7.32915 2.22269 7.37645 2.18958 7.3838 2.15628C7.38011 2.15512 7.31134 2.15698 7.31153 2.15433C7.31222 2.1387 7.29353 2.12345 7.36524 2.10745C7.37545 2.10594 7.49958 2.10625 7.48048 2.1016C7.47635 2.10047 7.4595 2.09365 7.43262 2.09183C7.42843 2.09158 7.36796 2.09314 7.36622 2.09085C7.3575 2.07767 7.37127 2.06397 7.40723 2.05081C7.41324 2.04867 7.47759 2.05039 7.48243 2.04886C7.51565 2.03805 7.46775 2.02598 7.5254 2.01566C7.56441 2.00875 7.67495 2.01153 7.78321 2.00785C7.79805 2.00725 7.80111 2.00319 7.86329 2.00296C8.02172 2.00239 8.19539 2.00479 8.36426 2.00394C8.40059 2.00376 8.36188 1.99764 8.44923 2.00101C8.45511 2.00125 8.48482 2.00584 8.51466 2.00687ZM7.85548 3.90042C7.81254 3.90224 7.86168 3.90753 7.91505 3.90531C7.95803 3.90349 7.90892 3.89818 7.85548 3.90042ZM8.00098 3.33597C7.9302 3.33435 7.9251 3.3402 7.99903 3.3389C8.00184 3.33858 8.00379 3.33604 8.00098 3.33597ZM7.95606 3.13968C7.8952 3.13983 7.91253 3.14264 7.96876 3.14163C7.97201 3.1415 7.97457 3.13964 7.95606 3.13968ZM8.11329 3.00492C7.99722 3.00126 7.98523 3.01588 8.10743 3.01273C8.11369 3.01245 8.11906 3.00515 8.11329 3.00492ZM7.81641 2.02152C7.7453 2.01988 7.73956 2.02673 7.81348 2.02542C7.81646 2.02537 7.81937 2.02159 7.81641 2.02152Z" fill="#555961"/>
<path d="M4.12298 3.52055C4.11678 3.52747 4.03764 3.61509 4.09271 3.56449C4.09974 3.55802 4.13438 3.52306 4.13763 3.52055C4.15815 3.50493 4.13326 3.53326 4.14837 3.52347C4.16404 3.51318 4.1866 3.49669 4.17865 3.51078C4.17359 3.51954 4.11295 3.5854 4.09759 3.60258C4.05501 3.65019 4.13111 3.57961 4.07806 3.63578C4.0248 3.69215 3.93855 3.77198 3.90716 3.81156C3.99644 3.72259 4.08877 3.63141 4.17865 3.54203C4.18455 3.55421 4.16466 3.59256 4.17767 3.59769C4.18132 3.596 4.22404 3.55015 4.22845 3.54789C4.24107 3.54538 4.21224 3.58391 4.2304 3.57621C4.24508 3.56963 4.29976 3.52377 4.31732 3.51469C4.21884 3.61837 4.25904 3.59112 4.25482 3.60453C4.25321 3.60936 4.22548 3.63646 4.21771 3.64652C4.18926 3.68359 4.27707 3.59266 4.2929 3.57914C4.35855 3.52367 4.15491 3.72759 4.16595 3.72855C4.17018 3.72518 4.27888 3.62336 4.28607 3.61722C4.33329 3.57676 4.2497 3.65531 4.2431 3.66605C4.23234 3.68455 4.20927 3.71329 4.24505 3.68656C4.25582 3.67845 4.32714 3.61396 4.27728 3.66898C4.27025 3.67664 4.23659 3.71016 4.23333 3.7139C4.20318 3.75395 4.31627 3.64094 4.35736 3.60551C4.39774 3.57078 4.32421 3.6525 4.30267 3.67582C4.24785 3.73521 4.27497 3.70013 4.27044 3.70414C4.20174 3.76991 4.21575 3.76277 4.21282 3.77055C4.32338 3.66426 4.34126 3.65437 4.24407 3.7598C4.19841 3.80934 4.14075 3.8631 4.16693 3.84867C4.17885 3.84206 4.25415 3.76456 4.27728 3.74613C4.32954 3.70458 4.26601 3.78151 4.28216 3.7764C4.28824 3.77435 4.32832 3.73042 4.33392 3.72758C4.34843 3.72032 4.32113 3.75455 4.34075 3.74222C4.34492 3.73856 4.38325 3.69873 4.38665 3.6973C4.40037 3.70086 4.38036 3.73634 4.38861 3.74613C4.39285 3.75063 4.42409 3.73486 4.42376 3.74418C4.42303 3.76047 4.37001 3.83248 4.39154 3.82426C4.40578 3.81873 4.44875 3.77405 4.4804 3.74613C4.54138 3.69233 4.44544 3.80077 4.42962 3.8184C4.41984 3.82931 4.41782 3.84675 4.42767 3.83988C4.43458 3.83443 4.47355 3.79415 4.47552 3.79301C4.52251 3.76604 4.54331 3.76644 4.53411 3.79594C4.53074 3.79961 4.4872 3.84301 4.48626 3.84476C4.47184 3.87092 4.53181 3.81784 4.57025 3.7891C4.60855 3.76048 4.60078 3.7753 4.52435 3.85746C4.53782 3.85128 4.50847 3.89171 4.49017 3.91605C4.472 3.94022 4.56102 3.85248 4.56439 3.84965C4.62974 3.80088 4.58237 3.85742 4.58294 3.87406C4.58373 3.88157 4.60502 3.87647 4.61907 3.87113C4.63011 3.867 4.6116 3.88981 4.62786 3.87992C4.6301 3.87855 4.67013 3.83739 4.67181 3.83597C4.72278 3.79215 4.62331 3.88789 4.60638 3.90629C4.5454 3.97265 4.5134 4.00863 4.54779 3.98344C4.55572 3.97763 4.70067 3.83937 4.71087 3.83305C4.72288 3.82592 4.67276 3.87388 4.68646 3.86527C4.68768 3.8645 4.71914 3.83328 4.71966 3.83597C4.72123 3.84952 4.7116 3.87617 4.72259 3.8809C4.72685 3.87836 4.76987 3.83288 4.77435 3.83109C4.7875 3.83249 4.79339 3.84182 4.77728 3.87211C4.77316 3.87971 4.73744 3.91315 4.72747 3.92387C4.66859 3.98731 4.75801 3.90475 4.76361 3.90043C4.82012 3.86986 4.74845 3.9614 4.80072 3.93558C4.80672 3.93129 4.90468 3.84433 4.82513 3.92875C4.81778 3.93656 4.73819 4.02119 4.79779 3.96586C4.80154 3.96237 4.84284 3.91761 4.84173 3.92387C4.83993 3.93099 4.87359 3.90618 4.82904 3.95805C4.81464 3.97477 4.73361 4.06221 4.80462 3.99808C4.8108 3.99243 4.96749 3.84608 4.86419 3.95316C4.84713 3.97084 4.73503 4.08193 4.79583 4.02933C4.80774 4.019 4.83189 3.99206 4.84954 3.97855C4.87617 3.95826 4.8509 3.99188 4.90423 3.94633C4.91373 3.93819 4.99258 3.86504 4.93743 3.92484C4.92877 3.93423 4.89058 3.97119 4.88763 3.9766C4.87362 4.00228 4.90457 3.98395 4.8847 4.01566C4.87688 4.02754 4.81654 4.08631 4.80267 4.10453C4.78871 4.12288 4.77771 4.14249 4.80755 4.11722C4.83771 4.09158 4.93121 3.99355 4.94232 3.9893C4.99008 3.97119 4.94887 4.04101 4.95501 4.06449C4.95599 4.06793 4.98919 4.03161 4.9931 4.03422C5.00779 4.04357 5.06053 4.03289 4.99798 4.11625C4.94788 4.183 4.89258 4.21695 4.87493 4.24711C4.86664 4.26156 4.982 4.15321 4.98626 4.15043C5.02861 4.12247 4.98503 4.17584 5.00579 4.16801C5.0103 4.1662 5.05519 4.11924 5.05853 4.1182C5.06941 4.11507 5.05411 4.13866 5.06146 4.13871C5.06621 4.13706 5.09869 4.10431 5.09759 4.10844C5.09509 4.11822 5.08407 4.13632 5.0556 4.17191C5.05271 4.1754 5.01007 4.21364 5.00872 4.21976C5.01069 4.22667 4.98422 4.26433 5.0224 4.23637C5.03467 4.22706 5.11253 4.14953 5.06146 4.20707C5.05055 4.21933 4.9553 4.31347 5.04095 4.23539C5.05524 4.22238 5.17173 4.11789 5.10345 4.19242C5.08484 4.2127 5.01051 4.29151 5.02435 4.28129C5.02655 4.27958 5.0685 4.23607 5.07415 4.23344C5.09293 4.22518 5.09381 4.23421 5.11224 4.2266C5.11734 4.22442 5.15976 4.17864 5.16595 4.1768C5.18292 4.17177 5.17874 4.19042 5.17083 4.21C5.16733 4.21767 5.13067 4.25278 5.12689 4.25687C5.06504 4.32376 5.1532 4.23767 5.15911 4.23344C5.19449 4.20845 5.15816 4.25313 5.17376 4.24711C5.17949 4.24366 5.21583 4.20565 5.22161 4.20023C5.26052 4.16679 5.18416 4.23911 5.17767 4.24906C5.15946 4.27694 5.16847 4.27876 5.17865 4.27836C5.18415 4.27605 5.22858 4.22819 5.23138 4.22855C5.2491 4.2299 5.25438 4.24456 5.23724 4.28031C5.23391 4.28715 5.19554 4.32323 5.18743 4.33207C5.13126 4.39327 5.2143 4.31712 5.22357 4.30961C5.26258 4.27833 5.23161 4.31231 5.24115 4.30961C5.28824 4.29591 5.28762 4.33903 5.28997 4.3682C5.2931 4.40597 5.27401 4.45643 5.30267 4.46683C5.30808 4.4634 5.35235 4.41705 5.35443 4.41703C5.38003 4.41902 5.37454 4.45227 5.40228 4.45219C5.40448 4.45224 5.44921 4.40469 5.45501 4.40238C5.46588 4.39902 5.4681 4.40612 5.45697 4.42484C5.45147 4.43398 5.40891 4.47118 5.40423 4.47953C5.39353 4.49891 5.39521 4.50698 5.40716 4.50394C5.41264 4.50199 5.45451 4.45542 5.4599 4.45414C5.48139 4.46616 5.50653 4.47423 5.46185 4.55277C5.45876 4.55819 5.36261 4.65683 5.38372 4.64066C5.41086 4.6139 5.44274 4.58148 5.47161 4.55277C5.51102 4.56187 5.50156 4.6197 5.52044 4.64945C5.52125 4.65067 5.56977 4.59938 5.57318 4.59965C5.58398 4.61197 5.60943 4.60908 5.57025 4.67191C5.56642 4.67808 5.47547 4.76763 5.49212 4.75785C5.49523 4.75596 5.51313 4.74976 5.53411 4.73148C5.53719 4.72877 5.57641 4.68713 5.58099 4.68558C5.59716 4.68892 5.59801 4.70866 5.58197 4.74418C5.5793 4.74997 5.53291 4.79301 5.53021 4.79789C5.51429 4.82967 5.55721 4.80455 5.52435 4.85258C5.5019 4.88519 5.4215 4.96174 5.34759 5.04105C5.33751 5.052 5.33868 5.05744 5.29486 5.1016C5.18318 5.21411 5.05824 5.33501 4.93939 5.45512C4.91387 5.48091 4.94544 5.45796 4.88079 5.51762C4.87554 5.52223 4.85222 5.53984 4.83099 5.55961C4.81553 5.57408 4.77149 5.61926 4.75189 5.63676C4.73216 5.65434 4.76876 5.61562 4.74505 5.63578C4.72095 5.65639 4.67067 5.70842 4.66107 5.71097C4.63913 5.71655 4.64324 5.69144 4.65521 5.66312C4.65893 5.65427 4.68848 5.62656 4.69232 5.61918C4.69921 5.60546 4.68303 5.61568 4.69232 5.59965C4.69563 5.59407 4.7414 5.55095 4.74407 5.54594C4.75719 5.51983 4.73942 5.52468 4.74212 5.50883C4.75629 5.42959 4.74109 5.3804 4.72845 5.32719C4.72473 5.30928 4.75127 5.25632 4.72259 5.26273C4.7185 5.26432 4.6811 5.30374 4.67767 5.30668C4.62477 5.35181 4.70425 5.27534 4.71282 5.26176C4.74409 5.21024 4.7357 5.19489 4.71087 5.20023C4.69896 5.20431 4.62796 5.28358 4.66693 5.23637C4.67163 5.23125 4.7108 5.19361 4.71478 5.18754C4.72216 5.175 4.71056 5.1772 4.71185 5.17191C4.71444 5.16183 4.71303 5.16134 4.7099 5.15726C4.70615 5.15111 4.72048 5.12506 4.70599 5.12894C4.70272 5.12993 4.66134 5.1743 4.65228 5.17972C4.64361 5.1847 4.64231 5.1764 4.65032 5.16508C4.65867 5.15352 4.69237 5.12064 4.70013 5.11234C4.76191 5.04588 4.66949 5.12797 4.66497 5.1309C4.61418 5.15557 4.65387 5.09327 4.64154 5.08109C4.63201 5.072 4.60512 5.07859 4.59857 5.06742C4.59128 5.05379 4.60487 5.02191 4.59075 5.01566C4.58879 5.01562 4.5442 5.06241 4.539 5.06547C4.51913 5.05725 4.51042 5.03803 4.53021 4.99027C4.53326 4.98463 4.57784 4.94433 4.58294 4.93656C4.61046 4.89189 4.68353 4.79148 4.48724 4.97758C4.4889 4.9643 4.48904 4.94906 4.5224 4.90531C4.54387 4.87715 4.59477 4.83237 4.57025 4.84867C4.56452 4.85258 4.52449 4.89622 4.51947 4.89847C4.49837 4.90786 4.50489 4.88753 4.47747 4.90336C4.4708 4.90782 4.43464 4.9449 4.42767 4.95121C4.37104 5.00225 4.45525 4.90914 4.46185 4.90043C4.50313 4.84362 4.47765 4.8571 4.47161 4.84867C4.46634 4.85136 4.42187 4.89856 4.41888 4.89847C4.40353 4.89723 4.39916 4.88464 4.41302 4.85453C4.41623 4.84775 4.45951 4.8076 4.46478 4.80082C4.48081 4.77711 4.39962 4.85671 4.41302 4.83597C4.41582 4.83163 4.45278 4.79551 4.45697 4.79105C4.51777 4.72584 4.42742 4.812 4.42376 4.81449C4.38944 4.83438 4.4782 4.73592 4.45794 4.74222C4.4538 4.74498 4.41263 4.78979 4.40716 4.79105C4.37869 4.78828 4.37466 4.75878 4.39642 4.70609C4.40024 4.69763 4.43624 4.66462 4.44036 4.66019C4.50513 4.59049 4.41329 4.67907 4.40911 4.68168C4.37884 4.69961 4.44826 4.6187 4.33685 4.72172C4.34764 4.65862 4.26178 4.69241 4.33197 4.57035C4.33425 4.56749 4.37666 4.52591 4.37884 4.5225C4.39585 4.48962 4.32889 4.56049 4.23919 4.63969C4.21695 4.65932 4.31196 4.55608 4.32122 4.54594C4.3472 4.51739 4.41374 4.45323 4.41986 4.44633C4.45815 4.40085 4.2402 4.62005 4.23529 4.61527C4.2355 4.61476 4.27661 4.57476 4.28021 4.57035C4.29118 4.55687 4.27453 4.57166 4.28704 4.55668C4.31623 4.52184 4.42109 4.41466 4.3554 4.47172C4.34683 4.47919 4.22301 4.60397 4.22454 4.59379C4.22503 4.58966 4.21598 4.58422 4.22161 4.57426C4.22746 4.56416 4.26832 4.52586 4.27044 4.52347C4.31749 4.46492 4.34173 4.44525 4.41693 4.3643C4.49189 4.28357 4.30738 4.46935 4.28509 4.4893C4.2634 4.50865 4.30194 4.46191 4.31634 4.44535C4.33035 4.42928 4.35727 4.4052 4.36517 4.39555C4.41511 4.33338 4.27074 4.48521 4.23919 4.51273C4.16458 4.57784 4.29839 4.43586 4.30755 4.41801C4.30988 4.41335 4.2793 4.44542 4.27532 4.4473C4.26041 4.45399 4.30033 4.40921 4.25677 4.4434C4.24957 4.44905 4.16237 4.52809 4.22064 4.46488C4.22904 4.45578 4.26439 4.42268 4.27044 4.41312C4.27929 4.39902 4.28252 4.38721 4.26849 4.39555C4.25793 4.40193 4.20319 4.4602 4.21771 4.44047C4.22432 4.43154 4.25925 4.40115 4.26947 4.38676C4.27916 4.37272 4.27278 4.36827 4.26947 4.36722C4.2662 4.36627 4.22541 4.40961 4.22161 4.41312C4.20485 4.42791 4.18111 4.44324 4.17865 4.44437C4.15536 4.43127 4.21053 4.34245 4.16888 4.34867C4.1651 4.34975 4.121 4.39502 4.12005 4.39555C4.09698 4.40918 4.22071 4.29368 4.25775 4.25004C4.16712 4.34161 4.18085 4.32379 4.1679 4.33012C4.16136 4.33343 4.12677 4.37057 4.12298 4.37406C4.0666 4.42565 4.13453 4.35361 4.14837 4.3389C4.19874 4.28538 4.13594 4.34471 4.16888 4.30961C4.20177 4.27461 4.25474 4.22652 4.25384 4.22172C4.22014 4.25362 4.13676 4.34167 4.12005 4.35355C4.0584 4.39684 4.10733 4.31284 4.10736 4.29789C4.10696 4.28349 4.0988 4.28674 4.10638 4.27055C4.1196 4.24196 4.05933 4.30756 4.02532 4.33207C3.99129 4.35641 4.15049 4.20243 4.18353 4.16801C4.21626 4.13391 4.18146 4.16688 4.19818 4.14847C4.21583 4.12913 4.241 4.10765 4.24603 4.09867C4.25098 4.08972 4.18533 4.14419 4.14935 4.17875C4.07317 4.25195 3.9972 4.33267 4.01947 4.29984C4.02113 4.29759 4.06335 4.2573 4.06634 4.25199C4.08859 4.21132 4.08074 4.19934 4.09954 4.16215C4.10277 4.15655 4.14675 4.11517 4.1513 4.10941C4.17294 4.07241 4.09877 4.15178 4.00872 4.23344C4.1219 4.12211 4.18907 4.05064 4.18646 4.04203C4.1834 4.03808 4.13409 4.08818 4.09661 4.12113C4.08532 4.13107 4.11666 4.09418 4.09271 4.11722C4.01444 4.19253 3.93071 4.28051 3.95892 4.24027C3.96114 4.23759 4.00132 4.19946 4.00482 4.19437C4.01559 4.17181 3.93499 4.25157 3.91888 4.25492C3.90628 4.25752 3.9459 4.19924 3.94818 4.18558C3.89851 4.23044 3.89124 4.23169 3.95111 4.16801H3.95208C3.95202 4.16068 3.94242 4.16137 3.95111 4.14555C3.95416 4.14006 3.99191 4.10405 3.99603 4.09965C4.05631 4.03466 3.9702 4.11731 3.96478 4.12113C3.92326 4.14537 3.98127 4.07328 3.90911 4.12894C3.9034 4.13407 3.81829 4.21822 3.87982 4.15238C3.88417 4.14774 3.92743 4.1096 3.92669 4.10258C3.92657 4.0949 3.9663 4.04046 3.91986 4.07621C3.90841 4.08504 3.83277 4.15393 3.88665 4.09476C3.894 4.08672 3.92075 4.06168 3.9345 4.04691C3.97781 4.00033 3.88717 4.08931 3.96185 4.01078C4.03659 3.93217 4.08952 3.87052 4.03118 3.91801C4.0277 3.9211 3.95779 3.98886 3.95599 3.98734C3.95513 3.98275 3.96614 3.96336 3.96282 3.96097C3.95895 3.96247 3.91845 4.0048 3.91693 4.0059C3.88285 4.02164 3.91638 3.9753 3.92376 3.94828C3.92338 3.94493 3.85944 3.99799 3.90325 3.9473C3.95193 3.89098 4.17383 3.67672 4.11322 3.71976C4.08888 3.73701 3.80825 4.01014 3.94525 3.86039C3.89734 3.88357 3.95859 3.7986 3.89544 3.83695C3.88915 3.84204 3.81366 3.91347 3.81341 3.91117C3.81435 3.90655 3.84724 3.87218 3.84954 3.86722C3.8546 3.85053 3.81812 3.87569 3.81732 3.86527C3.81707 3.86134 3.85393 3.8257 3.85443 3.82035C3.85394 3.81577 3.80344 3.86255 3.82318 3.83597C3.83857 3.81541 3.93584 3.71355 3.94525 3.6973C3.84621 3.79607 3.84572 3.79157 3.81536 3.81351C3.80957 3.81772 3.777 3.85156 3.77142 3.85648C3.75208 3.87271 3.77858 3.84349 3.75775 3.86137C3.75151 3.86695 3.72045 3.89823 3.7138 3.90433C3.66144 3.95169 3.73348 3.87143 3.74603 3.85746C3.7932 3.80488 3.74785 3.8471 3.76556 3.82523C3.7833 3.80336 3.81161 3.78206 3.82122 3.76762C3.84108 3.7377 3.82869 3.7362 3.82513 3.72953C3.82192 3.729 3.77951 3.77377 3.77825 3.77445C3.76312 3.78119 3.8066 3.73026 3.71478 3.81742C3.94442 3.58194 3.68887 3.83683 3.72943 3.78422C3.73364 3.77906 3.84205 3.66994 3.86029 3.65531C3.87825 3.64099 3.84722 3.67797 3.87493 3.65531C3.88404 3.64753 3.9854 3.55259 3.99407 3.54496C4.04657 3.4998 3.8828 3.66464 3.87396 3.67387C3.77879 3.77343 3.89448 3.66677 3.90325 3.66019C3.94325 3.63028 3.92474 3.65761 3.95404 3.63676C3.97274 3.62334 4.07272 3.52294 4.07904 3.52055C4.07535 3.53866 3.92825 3.69192 4.06536 3.5684C4.09484 3.54182 4.21022 3.42288 4.12298 3.52055ZM5.31341 5.04984C5.31147 5.05185 5.31163 5.05592 5.31341 5.05472C5.36499 5.00556 5.36481 4.99652 5.31341 5.04984ZM4.38177 4.53324C4.37742 4.53783 4.37846 4.54695 4.38275 4.54301C4.46744 4.46368 4.46571 4.44472 4.38177 4.53324ZM4.3847 4.34086C4.38261 4.34325 4.3826 4.34595 4.39544 4.33305C4.43817 4.29008 4.42368 4.30042 4.3847 4.34086ZM4.21966 4.21781C4.21765 4.21997 4.21754 4.22373 4.21966 4.22172C4.27119 4.17261 4.27108 4.16449 4.21966 4.21781ZM3.76849 3.72172C3.71871 3.7817 3.61889 3.88283 3.62689 3.85941C3.62923 3.85347 3.69068 3.80425 3.70501 3.78519C3.73091 3.75063 3.61182 3.8638 3.66986 3.79691C3.68158 3.78383 3.78892 3.68695 3.79583 3.68168L3.76849 3.72172ZM3.90814 3.70414C3.93724 3.67237 3.89843 3.70369 3.86224 3.7432C3.83359 3.77453 3.87211 3.74342 3.90814 3.70414Z" fill="#555961"/>
<path d="M12.0959 3.71383C12.0485 3.66147 12.1288 3.73351 12.1428 3.74606C12.1952 3.79312 12.1531 3.74789 12.175 3.76559C12.1969 3.78334 12.2182 3.81167 12.2326 3.82125C12.2625 3.84105 12.264 3.82871 12.2707 3.82516C12.2711 3.82187 12.2265 3.77954 12.2258 3.77829C12.2189 3.76301 12.27 3.80664 12.1828 3.71481C12.4175 3.94366 12.1644 3.69075 12.215 3.72946C12.2193 3.73275 12.3304 3.84219 12.3449 3.86032C12.3592 3.87828 12.3223 3.84725 12.3449 3.87497C12.3531 3.8845 12.4481 3.98591 12.4553 3.99411C12.5004 4.0466 12.3356 3.88283 12.3264 3.87399C12.2267 3.7787 12.3335 3.8945 12.34 3.90329C12.3699 3.9432 12.3426 3.92479 12.3635 3.95407C12.3769 3.97264 12.4735 4.07014 12.4787 4.07907C12.4584 4.07285 12.3094 3.92953 12.4318 4.06539C12.4585 4.09497 12.5773 4.21019 12.4797 4.12301C12.4733 4.11733 12.3848 4.03734 12.4357 4.09274C12.4422 4.09978 12.4772 4.13441 12.4797 4.13766C12.4952 4.15809 12.4669 4.13318 12.4768 4.1484C12.4871 4.16421 12.5032 4.18722 12.4885 4.17868C12.4787 4.17259 12.4131 4.11224 12.3967 4.09762C12.3492 4.0552 12.4206 4.13111 12.3644 4.07809C12.3081 4.02487 12.2283 3.93865 12.1887 3.90719C12.2776 3.99645 12.3688 4.08883 12.4582 4.17868C12.446 4.18458 12.4077 4.16469 12.4025 4.1777C12.4045 4.18161 12.4504 4.22433 12.4523 4.22848C12.4549 4.24112 12.4162 4.21217 12.424 4.23043C12.4306 4.24512 12.4765 4.29985 12.4855 4.31735C12.3821 4.21908 12.4088 4.2588 12.3957 4.25485C12.3909 4.25325 12.3638 4.2256 12.3537 4.21774C12.3166 4.18925 12.4078 4.27727 12.4211 4.29293C12.4766 4.35858 12.2726 4.15494 12.2717 4.16598C12.2759 4.17109 12.3734 4.27631 12.382 4.2861C12.4225 4.33332 12.3453 4.25015 12.3342 4.24313C12.3157 4.23237 12.2869 4.20921 12.3137 4.24508C12.3218 4.25585 12.3863 4.32717 12.3312 4.27731C12.3238 4.27047 12.2904 4.237 12.2863 4.23336C12.2463 4.20321 12.3593 4.3163 12.3947 4.35739C12.4293 4.39758 12.3478 4.32431 12.3244 4.3027C12.2754 4.2575 12.2905 4.26792 12.2951 4.27047C12.2298 4.20226 12.2373 4.2156 12.2297 4.21286C12.3359 4.32333 12.3458 4.3412 12.2404 4.24411C12.1909 4.19844 12.1371 4.14078 12.1516 4.16696C12.1584 4.17906 12.2357 4.25421 12.2541 4.27731C12.2956 4.3295 12.2186 4.2659 12.2238 4.28219C12.2259 4.28822 12.2682 4.32783 12.2717 4.33395C12.2794 4.34893 12.2456 4.32107 12.258 4.34079C12.262 4.34528 12.3018 4.38355 12.3029 4.38668C12.2994 4.40039 12.2639 4.38044 12.2541 4.38864C12.2494 4.39264 12.2654 4.42413 12.256 4.42379C12.24 4.42335 12.1676 4.36986 12.176 4.39157C12.1815 4.40581 12.2262 4.44878 12.2541 4.48043C12.308 4.54156 12.1977 4.4448 12.1809 4.42965C12.1699 4.42005 12.1525 4.41793 12.1594 4.4277C12.1633 4.43318 12.203 4.47161 12.2062 4.47555C12.2333 4.52263 12.2338 4.54335 12.2043 4.53414C12.2011 4.5313 12.1572 4.48724 12.1555 4.48629C12.1291 4.47166 12.1823 4.5318 12.2111 4.57028C12.2397 4.60853 12.224 4.6009 12.1418 4.52438C12.1481 4.53799 12.1086 4.50853 12.0842 4.4902C12.0598 4.47189 12.1491 4.56237 12.1506 4.56442C12.1993 4.62975 12.1428 4.5824 12.1262 4.58297C12.1185 4.58356 12.1237 4.60498 12.1291 4.61911C12.1332 4.63007 12.1103 4.61155 12.1203 4.62789C12.1216 4.63009 12.1603 4.66865 12.1633 4.67184C12.2077 4.72348 12.1112 4.6232 12.093 4.60641C12.0268 4.54563 11.9916 4.5134 12.0168 4.54782C12.0226 4.55575 12.1609 4.7007 12.1672 4.7109C12.1741 4.72271 12.1262 4.67261 12.135 4.68649C12.1357 4.6877 12.1663 4.71862 12.1643 4.71969C12.1507 4.72126 12.1241 4.71163 12.1193 4.72262C12.1222 4.72719 12.1677 4.7702 12.1691 4.77438C12.1677 4.78751 12.1583 4.79335 12.1281 4.77731C12.1205 4.77319 12.0861 4.73743 12.0754 4.7275C12.0125 4.6692 12.0961 4.75868 12.0998 4.76364C12.1303 4.8201 12.0381 4.74877 12.0637 4.80075C12.0652 4.80376 12.1573 4.90599 12.0715 4.82516C12.0641 4.81823 11.9789 4.73803 12.0344 4.79782C12.0379 4.80159 12.075 4.83687 12.0764 4.84176C12.0692 4.83996 12.094 4.87362 12.0422 4.82907C12.0256 4.81485 11.9379 4.73354 12.0021 4.80465C12.0087 4.81178 12.1537 4.96705 12.0471 4.86422C12.0294 4.84715 11.9182 4.73492 11.9709 4.79586C11.9812 4.80777 12.0082 4.83192 12.0217 4.84957C12.0419 4.87611 12.0083 4.85089 12.0539 4.90426C12.062 4.91376 12.1351 4.99248 12.0754 4.93747C12.066 4.9288 12.029 4.89061 12.0236 4.88766C11.9978 4.87351 12.0163 4.90463 11.9846 4.88473C11.9729 4.87717 11.914 4.81662 11.8957 4.8027C11.8773 4.78871 11.8577 4.7777 11.883 4.80758C11.9087 4.83781 12.0067 4.93125 12.0109 4.94235C12.0289 4.98996 11.9593 4.94908 11.9357 4.95504C11.9323 4.95602 11.9676 4.98922 11.965 4.99313C11.9561 5.00832 11.9665 5.05993 11.884 4.99801C11.8173 4.94797 11.7833 4.89267 11.7531 4.87497C11.7387 4.86667 11.847 4.98203 11.8498 4.98629C11.8777 5.02857 11.8243 4.98496 11.8322 5.00582C11.834 5.01033 11.881 5.05523 11.882 5.05856C11.8851 5.06938 11.8616 5.05415 11.8615 5.06149C11.8634 5.0664 11.8959 5.09872 11.8918 5.09762C11.882 5.09519 11.864 5.0842 11.8283 5.05563C11.825 5.053 11.7838 5.00762 11.7795 5.00875C11.7716 5.00967 11.7364 4.98496 11.7639 5.02243C11.7734 5.0349 11.8505 5.11241 11.7932 5.06149C11.7811 5.05075 11.6866 4.95513 11.7648 5.04098C11.7778 5.05527 11.8823 5.17176 11.8078 5.10348C11.7876 5.08497 11.7086 5.01041 11.7189 5.02438C11.7211 5.02698 11.7642 5.06856 11.7668 5.07418C11.775 5.09282 11.7653 5.09414 11.7726 5.11227C11.7748 5.11737 11.8216 5.15979 11.8234 5.16598C11.8284 5.18291 11.8098 5.17877 11.7902 5.17086C11.7828 5.16771 11.7475 5.13072 11.7434 5.12692C11.6763 5.06494 11.7626 5.15323 11.7668 5.15914C11.7917 5.19441 11.7471 5.1582 11.7531 5.17379C11.7568 5.17972 11.7948 5.21609 11.8 5.22164C11.8334 5.26055 11.7611 5.18419 11.7512 5.1777C11.7232 5.15941 11.7215 5.16849 11.7219 5.17868C11.7245 5.18441 11.772 5.22862 11.7717 5.23141C11.7703 5.24912 11.7556 5.25435 11.7199 5.23727C11.7131 5.23394 11.677 5.19557 11.6682 5.18747C11.6067 5.13103 11.6834 5.21465 11.6906 5.2236C11.7217 5.26241 11.6873 5.2321 11.6896 5.24118C11.7034 5.28835 11.6612 5.28765 11.632 5.29C11.5942 5.29318 11.5428 5.27401 11.5324 5.3027C11.5338 5.30628 11.5822 5.35233 11.5822 5.35446C11.5802 5.37999 11.548 5.3746 11.548 5.40231C11.548 5.40452 11.5958 5.44944 11.5978 5.45504C11.6012 5.4659 11.5941 5.46811 11.5754 5.457C11.5664 5.45168 11.5293 5.40921 11.5207 5.40426C11.5013 5.39356 11.4932 5.39524 11.4963 5.40719C11.4985 5.41287 11.545 5.45469 11.5461 5.45993C11.5341 5.48141 11.5259 5.50648 11.4475 5.46188C11.442 5.45879 11.3434 5.36265 11.3596 5.38375C11.3863 5.41087 11.4178 5.4428 11.4465 5.47164C11.4373 5.5108 11.3805 5.5017 11.3508 5.52047C11.3496 5.52128 11.4008 5.56975 11.4006 5.57321C11.3883 5.58401 11.3911 5.60938 11.3283 5.57028C11.3221 5.56645 11.2324 5.47523 11.2424 5.49215C11.2443 5.49526 11.2504 5.51313 11.2687 5.53414C11.2715 5.53723 11.3133 5.57662 11.3146 5.58102C11.3113 5.59717 11.2915 5.59799 11.256 5.582C11.2503 5.57935 11.2076 5.53345 11.2023 5.53024C11.1706 5.51433 11.1956 5.55713 11.1476 5.52438C11.115 5.50194 11.0385 5.42154 10.9592 5.34762C10.9482 5.33748 10.9428 5.33874 10.8986 5.29489C10.7861 5.18322 10.6652 5.05826 10.5451 4.93942C10.5192 4.91382 10.5423 4.94551 10.4826 4.88082C10.4781 4.87569 10.4605 4.85234 10.4406 4.83102C10.4262 4.8156 10.38 4.77152 10.3625 4.75192C10.3457 4.733 10.3845 4.76865 10.3644 4.74508C10.3439 4.72104 10.2919 4.67079 10.2893 4.6611C10.2837 4.63913 10.3087 4.64324 10.3371 4.65524C10.3459 4.65892 10.3724 4.68804 10.3801 4.69235C10.3944 4.6998 10.3842 4.68284 10.4006 4.69235C10.4062 4.69567 10.4495 4.74165 10.4543 4.74411C10.4804 4.75719 10.4754 4.73934 10.4914 4.74215C10.5704 4.75629 10.619 4.7411 10.6721 4.72848C10.6896 4.72428 10.744 4.75151 10.7375 4.72262C10.7361 4.71872 10.6967 4.68131 10.6935 4.6777C10.6483 4.62461 10.7251 4.70458 10.7385 4.71286C10.79 4.74412 10.8053 4.73573 10.8 4.7109C10.7961 4.6991 10.7166 4.62795 10.7639 4.66696C10.7693 4.67197 10.807 4.71121 10.8127 4.71481C10.8252 4.72219 10.823 4.71059 10.8283 4.71188C10.8383 4.71443 10.8389 4.71305 10.843 4.70993C10.8493 4.7064 10.8751 4.72038 10.8713 4.70602C10.8703 4.70275 10.8259 4.66137 10.8205 4.65231C10.8154 4.64357 10.8238 4.64226 10.8351 4.65036C10.8467 4.65872 10.8797 4.69253 10.8879 4.70016C10.9541 4.76169 10.8729 4.67021 10.8693 4.665C10.8446 4.61418 10.907 4.65398 10.9191 4.64157C10.9281 4.6321 10.9212 4.60549 10.9318 4.5986C10.9453 4.59099 10.9771 4.60474 10.9836 4.59079C10.9815 4.58688 10.9349 4.54244 10.9338 4.53903C10.942 4.51916 10.9622 4.51045 11.01 4.53024C11.016 4.53374 11.0562 4.57817 11.0637 4.58297C11.1083 4.61049 11.2087 4.68348 11.0226 4.48727C11.0359 4.48893 11.0512 4.48907 11.0949 4.52243C11.1231 4.54393 11.1678 4.59478 11.1516 4.57028C11.1479 4.56476 11.104 4.52454 11.1018 4.5195C11.0923 4.49834 11.1127 4.50494 11.0969 4.4775C11.0926 4.47098 11.0553 4.43469 11.049 4.4277C10.9977 4.37076 11.0916 4.45577 11.0998 4.46188C11.1566 4.50317 11.1431 4.47768 11.1516 4.47164C11.1492 4.46662 11.1007 4.42191 11.1008 4.41891C11.102 4.40349 11.1155 4.39911 11.1457 4.41305C11.1525 4.41627 11.1929 4.45983 11.1994 4.46481C11.2231 4.48087 11.1432 4.39935 11.1643 4.41305C11.1686 4.41587 11.205 4.4531 11.2092 4.457C11.274 4.51747 11.1891 4.4283 11.1857 4.42379C11.1659 4.38947 11.2643 4.47823 11.258 4.45797C11.2556 4.45415 11.2106 4.41281 11.2092 4.40719C11.2119 4.37872 11.2414 4.37469 11.2941 4.39645C11.3028 4.40052 11.3356 4.43629 11.34 4.44039C11.4096 4.50504 11.3212 4.41332 11.3185 4.40914C11.3005 4.37873 11.3815 4.44827 11.2785 4.33688C11.3414 4.34753 11.3079 4.26185 11.4299 4.332C11.4333 4.33491 11.4751 4.37753 11.4777 4.37887C11.5105 4.39581 11.4397 4.32885 11.3605 4.23922C11.3409 4.21692 11.4446 4.31238 11.4543 4.32125C11.4829 4.34733 11.5474 4.4142 11.5539 4.41989C11.5994 4.45818 11.3802 4.24023 11.385 4.23532C11.3855 4.23553 11.4255 4.27664 11.4299 4.28024C11.4432 4.29108 11.4286 4.27454 11.4435 4.28707C11.4784 4.31632 11.5854 4.42095 11.5285 4.35543C11.521 4.34686 11.3963 4.22304 11.4064 4.22457C11.4106 4.22482 11.4161 4.21596 11.426 4.22164C11.4361 4.22753 11.4749 4.26889 11.4768 4.27047C11.5353 4.31751 11.5549 4.34172 11.6359 4.41696C11.7166 4.49185 11.5312 4.3077 11.5109 4.28512C11.4915 4.2634 11.5384 4.30202 11.5549 4.31637C11.571 4.33042 11.5951 4.35738 11.6047 4.3652C11.6668 4.4151 11.5152 4.27091 11.4875 4.23922C11.4224 4.16461 11.5644 4.29842 11.5822 4.30758C11.5862 4.30936 11.5548 4.2793 11.5529 4.27536C11.5461 4.26031 11.591 4.30031 11.5568 4.2568C11.5512 4.2496 11.472 4.16231 11.5353 4.22067C11.5445 4.22913 11.5776 4.26455 11.5871 4.27047C11.6012 4.2793 11.6129 4.28248 11.6047 4.26852C11.5983 4.25794 11.5398 4.203 11.5598 4.21774C11.5687 4.22436 11.5991 4.25936 11.6135 4.2695C11.6276 4.27923 11.632 4.2728 11.633 4.2695C11.6339 4.26625 11.591 4.22581 11.5871 4.22164C11.5724 4.205 11.5572 4.18143 11.5559 4.17868C11.5691 4.15554 11.6578 4.21053 11.6516 4.16891C11.6507 4.16531 11.6042 4.12103 11.6037 4.12008C11.5916 4.09874 11.7068 4.22103 11.7502 4.25778C11.6587 4.1672 11.6764 4.1808 11.6701 4.16793C11.6668 4.1614 11.6298 4.12696 11.6262 4.12301C11.5745 4.06657 11.6466 4.13455 11.6613 4.1484C11.7148 4.19868 11.6554 4.13584 11.6906 4.16891C11.7258 4.20199 11.7742 4.2554 11.7785 4.25387C11.7466 4.22021 11.6587 4.13693 11.6467 4.12008C11.6033 4.05825 11.6878 4.10767 11.7023 4.10739C11.7167 4.10699 11.7135 4.09883 11.7297 4.10641C11.7581 4.11948 11.6914 4.05925 11.6672 4.02536C11.6429 3.99139 11.7978 4.15053 11.8322 4.18356C11.8662 4.21622 11.8332 4.18135 11.8518 4.19821C11.8711 4.21589 11.8926 4.2411 11.9016 4.24606C11.9102 4.25074 11.856 4.18529 11.8215 4.14938C11.7483 4.07317 11.6676 3.99723 11.7004 4.0195C11.7033 4.02185 11.7412 4.06251 11.7473 4.06637C11.7881 4.08879 11.8002 4.08104 11.8371 4.09957C11.8422 4.10216 11.8853 4.14712 11.8908 4.15133C11.9279 4.173 11.8476 4.09894 11.7658 4.00875C11.8779 4.12271 11.9502 4.18985 11.9582 4.18649C11.9621 4.18343 11.912 4.13411 11.8791 4.09664C11.8692 4.08535 11.9061 4.11669 11.883 4.09274C11.808 4.01475 11.7198 3.93166 11.759 3.95895C11.7608 3.96029 11.8011 4.00179 11.8059 4.00485C11.8284 4.01561 11.7487 3.93505 11.7453 3.91891C11.7427 3.90657 11.7984 3.94336 11.8137 3.94723C11.7696 3.89841 11.7689 3.89158 11.8322 3.95114V3.95211C11.8395 3.95205 11.8389 3.94245 11.8547 3.95114C11.8605 3.95457 11.8964 3.99222 11.9006 3.99606C11.9653 4.05607 11.8835 3.97083 11.8791 3.96481C11.8549 3.92329 11.9269 3.9813 11.8713 3.90914C11.8668 3.90404 11.7816 3.81795 11.8478 3.87985C11.8525 3.8842 11.8906 3.92746 11.8976 3.92672C11.9057 3.92697 11.9596 3.96609 11.924 3.91989C11.9154 3.90862 11.8461 3.83266 11.9055 3.88668C11.9135 3.89407 11.9386 3.9208 11.9533 3.93454C11.9997 3.97768 11.911 3.88724 11.9894 3.96188C12.068 4.03658 12.1297 4.08954 12.0822 4.03122C12.08 4.02861 12.0111 3.95755 12.0129 3.95602C12.0175 3.95516 12.0369 3.96617 12.0393 3.96286C12.038 3.95923 11.9963 3.91934 11.9943 3.91696C11.9786 3.88289 12.0249 3.91641 12.0519 3.92379C12.0548 3.92287 12.0025 3.85966 12.0529 3.90329C12.1094 3.95211 12.3227 4.17399 12.2795 4.11325C12.26 4.08666 11.9907 3.80885 12.1398 3.94528C12.1167 3.89737 12.2016 3.95862 12.1633 3.89547C12.1586 3.88965 12.0867 3.8137 12.0891 3.81344C12.0941 3.81484 12.1285 3.8477 12.133 3.84957C12.1497 3.85463 12.1245 3.81816 12.135 3.81735C12.1395 3.81775 12.1752 3.85483 12.1799 3.85446C12.1845 3.85397 12.1375 3.8033 12.1643 3.82321C12.1849 3.83863 12.287 3.9362 12.3029 3.94528C12.2041 3.84623 12.2086 3.8457 12.1867 3.81539C12.1824 3.80951 12.1466 3.77601 12.1428 3.77145C12.1268 3.75232 12.1567 3.77858 12.1389 3.75778C12.1335 3.75171 12.1022 3.72064 12.0959 3.71383ZM10.9455 5.31344C10.9946 5.365 11.0036 5.36478 10.9504 5.31344C10.9484 5.31148 10.9442 5.3116 10.9455 5.31344ZM11.4572 4.38278C11.5365 4.46738 11.5554 4.46565 11.467 4.3818C11.4624 4.37746 11.4533 4.37849 11.4572 4.38278ZM11.6672 4.39547C11.7101 4.43812 11.6998 4.42369 11.6594 4.38473C11.657 4.38258 11.6541 4.3825 11.6672 4.39547ZM11.7785 4.21969C11.8275 4.27114 11.8357 4.27105 11.7824 4.21969C11.7803 4.21765 11.7765 4.21756 11.7785 4.21969ZM12.257 3.86227C12.2256 3.83348 12.2567 3.8721 12.2961 3.90817C12.3279 3.93727 12.2965 3.89846 12.257 3.86227ZM12.215 3.70504C12.2493 3.73068 12.1365 3.6119 12.2033 3.66989C12.2167 3.68197 12.3139 3.7896 12.3185 3.79586L12.2785 3.76852C12.2185 3.71876 12.1174 3.61892 12.1408 3.62692C12.1471 3.6298 12.1961 3.69078 12.215 3.70504Z" fill="#555961"/>
<path d="M3.68157 12.2042C3.70079 12.2047 3.89044 12.3828 3.8593 12.3722C3.85211 12.3681 3.80384 12.3092 3.78508 12.2951C3.75032 12.269 3.86373 12.3883 3.7968 12.3302C3.78403 12.3188 3.68753 12.2119 3.68157 12.2042ZM4.74407 10.4181C4.74989 10.4208 4.79316 10.4675 4.79778 10.4699C4.82957 10.4858 4.80436 10.4428 4.85247 10.4757C4.88508 10.4982 4.96163 10.5786 5.04094 10.6525C5.05185 10.6625 5.05736 10.6614 5.10149 10.7052C5.214 10.8169 5.3349 10.9418 5.45501 11.0607C5.48069 11.0861 5.45796 11.0538 5.51751 11.1183C5.52149 11.1226 5.53918 11.1463 5.5595 11.1681C5.57356 11.1832 5.61904 11.2284 5.63665 11.2482C5.65416 11.2678 5.61589 11.2307 5.63567 11.254C5.65611 11.278 5.7083 11.3294 5.71087 11.339C5.71631 11.3608 5.69126 11.3568 5.66301 11.3449C5.65416 11.3411 5.62645 11.3116 5.61907 11.3078C5.60529 11.3008 5.61552 11.317 5.59954 11.3078C5.59398 11.3045 5.55108 11.2589 5.54583 11.256C5.51973 11.2429 5.52455 11.2606 5.50872 11.2579C5.42949 11.2438 5.38029 11.259 5.32708 11.2716C5.30915 11.2753 5.25622 11.2488 5.26262 11.2775C5.26475 11.282 5.30365 11.319 5.30657 11.3224C5.3515 11.3751 5.27538 11.296 5.26165 11.2872C5.21041 11.2561 5.19503 11.2637 5.20012 11.2882C5.20251 11.2989 5.284 11.3725 5.23626 11.3331C5.23142 11.3287 5.19372 11.2895 5.18743 11.2853C5.17489 11.2779 5.17709 11.2895 5.1718 11.2882C5.16169 11.2856 5.16123 11.287 5.15715 11.2902C5.15088 11.2938 5.12481 11.2795 5.12883 11.2941C5.12996 11.2975 5.1742 11.3387 5.17962 11.3478C5.18447 11.3564 5.17621 11.3577 5.16497 11.3497C5.15331 11.3413 5.12019 11.3063 5.11223 11.299C5.04565 11.2371 5.12909 11.332 5.13079 11.3351C5.15548 11.3859 5.0931 11.3461 5.08098 11.3585C5.07195 11.3681 5.07846 11.395 5.06731 11.4015C5.05365 11.4087 5.02179 11.3952 5.01555 11.4093C5.01609 11.4118 5.06298 11.4565 5.06536 11.4611C5.05714 11.4809 5.03792 11.4897 4.99016 11.4699C4.98474 11.4671 4.94438 11.4224 4.93645 11.4171C4.89178 11.3896 4.79132 11.3165 4.97747 11.5128C4.96419 11.5112 4.94892 11.511 4.9052 11.4777C4.87704 11.4562 4.83226 11.4053 4.84856 11.4298C4.85281 11.4358 4.89612 11.4756 4.89837 11.4806C4.90761 11.5015 4.88774 11.4946 4.90325 11.5216C4.90657 11.5273 4.94467 11.5653 4.9511 11.5724C5.00188 11.6288 4.9094 11.5452 4.90032 11.5382C4.84427 11.4975 4.85631 11.521 4.84856 11.5275C4.84658 11.5289 4.89846 11.5781 4.89837 11.5812C4.89706 11.5964 4.88441 11.6008 4.85442 11.5871C4.84766 11.5839 4.80767 11.5408 4.80071 11.5353C4.77703 11.5193 4.85638 11.6003 4.83587 11.5871C4.83154 11.5843 4.79568 11.5476 4.79094 11.5431C4.72532 11.4819 4.81297 11.5738 4.81438 11.5763C4.83418 11.6105 4.73581 11.5219 4.74212 11.5421C4.7454 11.5467 4.79043 11.5881 4.79094 11.5929C4.78817 11.6214 4.75867 11.6254 4.70598 11.6037C4.6976 11.5999 4.66456 11.5639 4.66008 11.5597C4.59028 11.4948 4.67895 11.5868 4.68157 11.591C4.69927 11.621 4.61862 11.5519 4.72161 11.6632C4.65848 11.6524 4.69232 11.7383 4.57024 11.6681C4.5679 11.6664 4.52505 11.6216 4.52239 11.6203C4.49019 11.6038 4.56059 11.6714 4.63958 11.7609C4.65901 11.7829 4.55633 11.6884 4.54583 11.6788C4.51737 11.653 4.45345 11.5867 4.44622 11.5802C4.40074 11.5419 4.61994 11.7599 4.61516 11.7648C4.61465 11.7646 4.57465 11.7235 4.57024 11.7199C4.55667 11.7088 4.57146 11.7255 4.55657 11.713C4.52171 11.6838 4.4144 11.5788 4.47161 11.6447C4.47908 11.6532 4.60386 11.7771 4.59368 11.7755C4.58956 11.775 4.58409 11.784 4.57415 11.7785C4.56414 11.7727 4.52633 11.7324 4.52337 11.7296C4.46483 11.6826 4.44508 11.6583 4.36419 11.5831C4.28337 11.5081 4.46958 11.693 4.48919 11.715C4.5087 11.7368 4.46143 11.6969 4.44524 11.6828C4.4292 11.6688 4.40513 11.6429 4.39544 11.6349C4.33326 11.585 4.48513 11.7294 4.51262 11.7609C4.57758 11.8353 4.43585 11.7018 4.4179 11.6925C4.41307 11.69 4.4453 11.7208 4.44719 11.7247C4.45361 11.7394 4.40907 11.6997 4.44329 11.7433C4.44894 11.7505 4.52807 11.8368 4.46477 11.7785C4.45519 11.7695 4.42252 11.7357 4.41301 11.7296C4.39888 11.7208 4.38698 11.7174 4.39544 11.7316C4.40183 11.7422 4.46058 11.7963 4.44036 11.7814C4.43105 11.7743 4.40075 11.7394 4.38665 11.7296C4.37247 11.7198 4.3681 11.7273 4.36712 11.7306C4.36651 11.7342 4.41001 11.7751 4.41301 11.7785C4.42854 11.7961 4.44468 11.8211 4.44426 11.8214C4.43096 11.8445 4.34235 11.7896 4.34856 11.8312C4.35027 11.8354 4.39103 11.8744 4.39544 11.879C4.40962 11.9027 4.29371 11.7795 4.24993 11.7423C4.34168 11.8331 4.32353 11.819 4.33001 11.8322C4.33332 11.8387 4.37046 11.8733 4.37395 11.8771C4.42541 11.9333 4.35349 11.8655 4.33879 11.8517C4.28494 11.801 4.34551 11.8641 4.3095 11.8302C4.27446 11.7973 4.22631 11.7452 4.22161 11.7462C4.25356 11.78 4.3418 11.8635 4.35344 11.88C4.39673 11.9417 4.31274 11.8927 4.29778 11.8927C4.28338 11.8931 4.28663 11.9013 4.27044 11.8937C4.2417 11.8804 4.30748 11.9407 4.33196 11.9747C4.35629 12.0088 4.20241 11.8497 4.1679 11.8165C4.13351 11.7835 4.16769 11.8185 4.14837 11.8009C4.12906 11.7833 4.10757 11.7591 4.09856 11.754C4.08961 11.7491 4.14408 11.8147 4.17864 11.8507C4.2518 11.9269 4.33248 12.0028 4.29973 11.9806C4.29779 11.9793 4.25721 11.9367 4.25188 11.9337C4.21117 11.9114 4.19925 11.9184 4.16204 11.8996C4.15502 11.8948 4.11316 11.8503 4.1093 11.8478C4.07229 11.8261 4.15165 11.9013 4.23333 11.9913C4.12176 11.8779 4.05033 11.8107 4.04192 11.8136C4.03796 11.8167 4.08807 11.866 4.12102 11.9035C4.13091 11.9147 4.09469 11.883 4.11712 11.9064C4.19245 11.9847 4.28042 12.0684 4.24016 12.0402C4.23514 12.0355 4.19757 11.9958 4.19426 11.9943C4.17178 11.9836 4.25146 12.0651 4.25481 12.0812C4.25702 12.0934 4.19909 12.0532 4.18547 12.0509C4.05731 11.9225 4.0815 11.9572 4.1679 12.048C4.16058 12.0481 4.16124 12.0576 4.14544 12.049C4.14007 12.046 4.10423 12.0085 4.09954 12.004C4.03409 11.9433 4.11831 12.031 4.12102 12.0353C4.14523 12.0768 4.07355 12.0182 4.12883 12.09C4.13084 12.0926 4.21927 12.1829 4.15227 12.1203C4.14763 12.1159 4.10949 12.0717 4.10247 12.0724C4.09485 12.0726 4.04032 12.0337 4.0761 12.0802C4.08519 12.0919 4.15375 12.1663 4.09465 12.1124C4.08622 12.1047 4.06135 12.0791 4.0468 12.0656C4.00007 12.0221 4.08924 12.1129 4.01067 12.0382C3.93203 11.9635 3.8704 11.9105 3.9179 11.9689C3.92175 11.9732 3.98899 12.0425 3.98723 12.0441C3.98264 12.0449 3.96325 12.0339 3.96087 12.0372C3.96297 12.0417 4.00523 12.0821 4.00579 12.0831C4.02141 12.1171 3.97516 12.0837 3.94817 12.0763C3.9449 12.0768 3.9978 12.1406 3.94719 12.0968C3.89091 12.0482 3.67646 11.8261 3.71965 11.8869C3.73717 11.9115 4.0098 12.1916 3.86028 12.0548C3.88346 12.1027 3.79849 12.0415 3.83684 12.1046C3.84244 12.1114 3.91336 12.1864 3.91106 12.1867C3.90653 12.1858 3.87224 12.153 3.86712 12.1505C3.85042 12.1455 3.87558 12.1819 3.86516 12.1828C3.8612 12.183 3.82564 12.1462 3.82024 12.1456C3.81565 12.1461 3.86305 12.1962 3.83587 12.1759C3.81505 12.1603 3.71358 12.0644 3.69719 12.0548C3.7959 12.1538 3.79147 12.1544 3.8134 12.1847C3.81789 12.1908 3.85172 12.2233 3.85637 12.2287C3.87259 12.248 3.8434 12.2205 3.86126 12.2413C3.86549 12.2463 3.89811 12.2796 3.90422 12.2863C3.95158 12.3386 3.87132 12.2666 3.85735 12.254C3.80468 12.2068 3.84699 12.2522 3.82512 12.2345C3.80326 12.2168 3.78197 12.1885 3.76751 12.1788C3.73759 12.159 3.73609 12.1714 3.72942 12.1749C3.7297 12.1788 3.77366 12.2206 3.77434 12.2218C3.78078 12.2366 3.73028 12.1936 3.81731 12.2853C3.58171 12.0555 3.83673 12.3112 3.78411 12.2706C3.77975 12.2672 3.67014 12.1583 3.6552 12.1398C3.64088 12.1218 3.67786 12.1529 3.6552 12.1251C3.64792 12.1166 3.55296 12.0152 3.54485 12.006C3.49969 11.9535 3.66453 12.1173 3.67376 12.1261C3.77321 12.2212 3.66665 12.1056 3.66008 12.0968C3.63007 12.0567 3.65752 12.0753 3.63665 12.046C3.62314 12.0271 3.51771 11.9215 3.52044 11.9201C3.53855 11.9237 3.69181 12.0718 3.56829 11.9347C3.54184 11.9054 3.42269 11.7898 3.52044 11.8771C3.52782 11.8837 3.61469 11.9621 3.56438 11.9074C3.55791 11.9003 3.52295 11.8657 3.52044 11.8624C3.50472 11.8418 3.53299 11.8666 3.52337 11.8517C3.51305 11.836 3.49648 11.8134 3.51067 11.8214C3.51944 11.8265 3.58539 11.8872 3.60247 11.9025C3.65008 11.9451 3.5795 11.869 3.63567 11.922C3.69207 11.9753 3.7719 12.0616 3.81145 12.0929C3.72246 12.0036 3.63132 11.9113 3.54192 11.8214C3.5541 11.8155 3.59245 11.8354 3.59758 11.8224C3.59648 11.8193 3.55057 11.7765 3.54778 11.7716C3.54527 11.759 3.5836 11.7876 3.5761 11.7697C3.56947 11.7549 3.52309 11.6988 3.51458 11.6818C3.61877 11.7808 3.5909 11.7409 3.60442 11.7453C3.60925 11.7469 3.63638 11.7746 3.64641 11.7824C3.68334 11.8107 3.59277 11.7232 3.57903 11.7072C3.52375 11.6417 3.72612 11.8437 3.72844 11.8341C3.72856 11.8336 3.6235 11.7215 3.61712 11.714C3.57646 11.6666 3.65541 11.7506 3.66594 11.757C3.68452 11.7678 3.71375 11.7905 3.68645 11.754C3.67805 11.743 3.61401 11.6731 3.66887 11.7228C3.6767 11.73 3.71041 11.7639 3.71379 11.7667C3.75384 11.7969 3.64083 11.6838 3.6054 11.6427C3.5705 11.6022 3.65239 11.6759 3.67571 11.6974C3.73531 11.7524 3.69961 11.7248 3.70403 11.7296C3.76992 11.7985 3.76259 11.7843 3.77044 11.7872C3.66407 11.6766 3.65417 11.6587 3.75969 11.756C3.80918 11.8016 3.86285 11.8591 3.84856 11.8331C3.84206 11.8213 3.76446 11.7459 3.74602 11.7228C3.70444 11.6705 3.78096 11.7336 3.77629 11.7179C3.77424 11.7118 3.73031 11.6717 3.72747 11.6662C3.71999 11.6514 3.75447 11.679 3.74212 11.6593C3.73891 11.6556 3.69928 11.6174 3.69719 11.6134C3.70075 11.5997 3.73621 11.6197 3.74602 11.6115C3.75073 11.6075 3.73471 11.576 3.74407 11.5763C3.76035 11.577 3.83206 11.6298 3.82415 11.6085C3.81862 11.5943 3.77394 11.5513 3.74602 11.5197C3.69207 11.4585 3.80086 11.5548 3.81829 11.5704C3.8292 11.5802 3.84664 11.5822 3.83977 11.5724C3.83458 11.5657 3.79405 11.5265 3.7929 11.5246C3.76587 11.4775 3.76631 11.4568 3.79583 11.466C3.79991 11.4698 3.84291 11.5129 3.84465 11.5138C3.87068 11.5281 3.81771 11.4682 3.78899 11.4298C3.76028 11.3914 3.77507 11.3992 3.85735 11.4757C3.85101 11.4621 3.89157 11.4916 3.91594 11.5099C3.93995 11.528 3.85349 11.4402 3.84954 11.4357C3.80077 11.3703 3.85731 11.4167 3.87395 11.4162C3.88132 11.4152 3.87634 11.395 3.87102 11.381C3.8667 11.3697 3.88959 11.3884 3.87981 11.3722C3.87844 11.37 3.83728 11.3299 3.83587 11.3283C3.79183 11.2771 3.88793 11.3769 3.90618 11.3937C3.97248 11.4546 4.00839 11.4865 3.98333 11.4523C3.97752 11.4444 3.83926 11.2994 3.83294 11.2892C3.82543 11.2767 3.87476 11.3275 3.86516 11.3126C3.86263 11.3097 3.83345 11.2811 3.83587 11.2804C3.84941 11.2788 3.87606 11.2885 3.88079 11.2775C3.87887 11.2738 3.8335 11.2308 3.83098 11.2257C3.83238 11.2126 3.84199 11.2059 3.872 11.2218C3.87951 11.2259 3.91261 11.2611 3.92376 11.2716C3.98844 11.3317 3.9015 11.2378 3.90032 11.2355C3.87037 11.1797 3.96123 11.2515 3.93547 11.1994C3.93215 11.1944 3.84397 11.0942 3.92864 11.174C3.93435 11.1793 4.02171 11.2626 3.96575 11.2023C3.96229 11.1986 3.9182 11.1568 3.92376 11.1574C3.93088 11.1592 3.90607 11.1265 3.95794 11.171C3.97482 11.1856 4.06201 11.2664 3.99797 11.1954C3.99347 11.1905 3.84542 11.0321 3.95305 11.1359C3.97076 11.153 4.08166 11.2649 4.02922 11.2042C4.01889 11.1923 3.99195 11.1682 3.97844 11.1505C3.95803 11.1238 3.99172 11.1491 3.94622 11.0958C3.93808 11.0863 3.86482 11.0074 3.92473 11.0626C3.93412 11.0713 3.97108 11.1095 3.97649 11.1124C4.00209 11.1264 3.98386 11.0955 4.01555 11.1154C4.02757 11.1234 4.08623 11.1836 4.10442 11.1974C4.12275 11.2113 4.14235 11.2223 4.11712 11.1925C4.09157 11.1624 3.99344 11.0689 3.98919 11.0578C3.97094 11.0098 4.04085 11.0512 4.06438 11.0451C4.06782 11.0441 4.03157 11.0109 4.03411 11.007C4.04356 10.9924 4.03255 10.9394 4.11614 11.0021C4.18293 11.0522 4.21682 11.1075 4.247 11.1251C4.26146 11.1334 4.1531 11.0181 4.15032 11.0138C4.12206 10.971 4.17655 11.015 4.1679 10.9933C4.1645 10.9875 4.11911 10.9448 4.11809 10.9415C4.11475 10.9304 4.13855 10.946 4.1386 10.9386C4.13758 10.9344 4.10416 10.9014 4.10833 10.9025C4.11812 10.905 4.13625 10.916 4.1718 10.9445C4.17566 10.9478 4.21365 10.9901 4.21965 10.9913C4.22656 10.9894 4.26422 11.0159 4.23626 10.9777C4.22725 10.9657 4.14929 10.8874 4.20696 10.9386C4.21948 10.9498 4.31311 11.0445 4.23528 10.9591C4.22227 10.9448 4.1178 10.8274 4.19231 10.8956C4.21188 10.9136 4.29108 10.9893 4.28118 10.9757C4.27947 10.9735 4.23596 10.9316 4.23333 10.9259C4.22495 10.9069 4.23431 10.9056 4.22649 10.8869C4.22216 10.88 4.17852 10.8402 4.17669 10.8341C4.17156 10.8171 4.19032 10.8204 4.20989 10.8283C4.21721 10.8313 4.25264 10.8694 4.25676 10.8732C4.32353 10.9349 4.23756 10.8469 4.23333 10.841C4.20821 10.8054 4.25302 10.8419 4.247 10.8263C4.24384 10.8207 4.20349 10.7814 4.20012 10.7775C4.16671 10.7386 4.239 10.8159 4.24895 10.8224C4.27678 10.8406 4.27865 10.8316 4.27825 10.8214C4.27673 10.8166 4.22808 10.7715 4.22844 10.7687C4.22973 10.7509 4.24435 10.7456 4.2802 10.7628C4.28712 10.7663 4.32314 10.8045 4.33196 10.8126C4.39335 10.869 4.31634 10.7841 4.3095 10.7755C4.27881 10.7372 4.31204 10.7683 4.3095 10.7589C4.29574 10.7118 4.33891 10.7125 4.36809 10.7101C4.40587 10.707 4.45632 10.7261 4.46672 10.6974C4.46388 10.6925 4.41721 10.648 4.41692 10.6456C4.41888 10.62 4.45206 10.6254 4.45208 10.5978C4.45213 10.5956 4.40515 10.5513 4.40227 10.5451C4.39891 10.5342 4.40601 10.532 4.42473 10.5431C4.43399 10.5488 4.47117 10.5913 4.47942 10.5958C4.49878 10.6065 4.50686 10.6048 4.50383 10.5929C4.50249 10.5879 4.45606 10.5462 4.45403 10.5402C4.46605 10.5187 4.47407 10.4935 4.55266 10.5382C4.55808 10.5413 4.65672 10.6375 4.64055 10.6163C4.61378 10.5892 4.5814 10.5574 4.55266 10.5285C4.56171 10.4887 4.61967 10.4979 4.64934 10.4787C4.64586 10.4737 4.60012 10.4308 4.59954 10.4269C4.61187 10.4161 4.60891 10.3906 4.6718 10.4298C4.67796 10.4336 4.7671 10.5241 4.75774 10.5079C4.75586 10.5048 4.7496 10.4869 4.73137 10.466C4.72868 10.4629 4.68764 10.4242 4.68547 10.4191C4.68882 10.4029 4.70852 10.402 4.74407 10.4181ZM3.70403 12.0919C3.67226 12.0628 3.70358 12.1016 3.74309 12.1378C3.7743 12.1664 3.74325 12.1279 3.70403 12.0919ZM4.2177 11.7804C4.21987 11.7823 4.22354 11.7825 4.22161 11.7804C4.17247 11.7288 4.16436 11.729 4.2177 11.7804ZM4.53313 11.6183C4.53772 11.6226 4.54684 11.6216 4.5429 11.6173C4.4635 11.5325 4.44451 11.5343 4.53313 11.6183ZM4.34075 11.6154C4.34313 11.6174 4.34572 11.6174 4.33294 11.6046C4.2899 11.5618 4.30029 11.5764 4.34075 11.6154ZM5.04973 10.6867C5.05172 10.6885 5.05561 10.6883 5.05462 10.6867C5.00544 10.6351 4.99639 10.6352 5.04973 10.6867Z" fill="#555961"/>
<path d="M8.40332 7.35167C8.50836 7.36621 8.6313 7.42937 8.7207 7.48937C8.74878 7.5081 8.72044 7.54114 8.73926 7.55577C8.77601 7.58417 8.82112 7.57843 8.85644 7.60948C8.86804 7.61995 8.83171 7.67357 8.84375 7.6837C8.91343 7.73627 8.99308 7.74606 9.06836 7.78527C9.43906 7.97844 9.81679 8.12885 10.2041 8.2882C10.3318 8.3407 10.4724 8.44854 10.6152 8.46984C10.6317 8.47224 10.6401 8.41763 10.6445 8.4132C10.7135 8.36279 10.6627 8.46291 10.6885 8.48741C10.7918 8.58351 10.9258 8.63357 11.0498 8.65245C11.1026 8.66031 11.0876 8.53981 11.1182 8.61437C11.1203 8.61945 11.0894 8.67084 11.1006 8.68175C11.1271 8.70535 11.1891 8.71529 11.2119 8.72765C11.2553 8.75189 11.264 8.75342 11.3076 8.76866C11.367 8.79002 11.4287 8.8418 11.4971 8.8507C11.5117 8.85241 11.513 8.78964 11.5381 8.78722C11.5632 8.78488 11.6196 8.8083 11.6348 8.82823C11.6498 8.84821 11.6259 8.89102 11.626 8.90245C11.6258 8.99676 11.7302 8.90311 11.7422 8.9005C11.9164 8.90227 12.029 9.01554 12.1768 9.06456C12.2888 9.10155 12.416 9.11879 12.5215 9.15734C12.6472 9.20361 12.7449 9.27092 12.8701 9.30675C12.8832 9.31039 12.8902 9.23932 12.9062 9.24327C13.0778 9.29179 13.2433 9.35482 13.3965 9.45616C13.4088 9.46436 13.3856 9.49905 13.3828 9.51964C13.4399 9.48735 13.5112 9.46682 13.5713 9.45421C13.5986 9.44917 13.6051 9.50382 13.6094 9.50792C13.6778 9.57394 13.641 9.45834 13.6465 9.44542C13.6611 9.42056 13.68 9.40852 13.7002 9.40148L13.7129 9.58702C13.722 9.5752 13.7339 9.56391 13.7432 9.54894C13.8096 9.58221 13.8911 9.62114 13.9365 9.69347C13.9657 9.74012 13.9057 9.791 13.9639 9.78038C13.9771 9.77801 13.9817 9.7174 14 9.71788C14.0301 9.71903 14.0598 9.72626 14.0889 9.73448C14.3583 9.80922 14.3684 10.1122 14.125 10.2501C14.0836 10.2732 14.0406 10.2953 14.0088 10.3321C13.9992 10.3451 14.0259 10.3902 14.0264 10.4005C14.0289 10.4852 13.9193 10.3974 13.9033 10.3946C13.8482 10.3863 13.8076 10.3948 13.7715 10.4093L13.7881 10.6349C13.7551 10.6187 13.7287 10.5902 13.6895 10.587C13.6725 10.5856 13.665 10.6427 13.6602 10.6485C13.6111 10.6861 13.6685 10.5943 13.6514 10.5763C13.646 10.5706 13.6396 10.5665 13.6338 10.5616C13.5516 10.6091 13.4631 10.648 13.3682 10.6642C13.3443 10.6681 13.336 10.6049 13.3232 10.6036C13.2671 10.6003 13.3084 10.7071 13.2559 10.7062C13.2448 10.706 13.2259 10.6578 13.2217 10.6534C13.1564 10.5858 13.1917 10.7102 13.1865 10.7159C13.1217 10.791 13.0102 10.6987 12.9395 10.755C12.931 10.7619 12.9815 10.8096 12.9561 10.8253C12.7869 10.9302 12.5916 11.0083 12.3926 11.0489C12.3617 11.0553 12.3589 11.0008 12.3545 10.9962C12.2842 10.9255 12.3231 11.049 12.3164 11.0577C12.2617 11.1237 12.148 11.0607 12.168 11.2198C11.917 11.2992 11.704 11.4517 11.4531 11.5275C11.4349 11.5463 11.4169 11.5664 11.3965 11.5841C11.3913 11.5856 11.3405 11.552 11.334 11.5577C11.2574 11.632 11.3536 11.6587 11.4307 11.7716C11.4498 11.7998 11.3009 11.7814 11.2871 11.7804C11.2449 11.7777 11.1684 11.7212 11.1592 11.7228C11.0866 11.7373 11.3663 11.8689 11.3389 11.9239C11.3375 11.9254 11.2896 11.8926 11.2822 11.8946C11.2595 11.9011 11.2725 11.9255 11.248 11.9308C11.1915 11.9426 11.0511 11.8868 11.1045 11.9747C11.1115 11.986 11.2732 12.0553 11.2412 12.1007C11.2281 12.1196 11.1882 12.2064 11.166 12.2257C11.1444 12.2443 11.1037 12.2049 11.0986 12.2032C10.9991 12.2352 10.9834 12.1965 10.8682 12.1798C10.7532 12.1633 10.9931 12.2725 11.0127 12.2989C11.0309 12.3251 10.9528 12.3455 10.9277 12.3478C10.9027 12.3499 10.8774 12.3193 10.8613 12.3243C10.7566 12.3583 10.9634 12.4127 10.9893 12.4542C11.0506 12.5522 10.8557 12.5075 10.8135 12.548C10.8022 12.559 10.847 12.5684 10.8447 12.5821C10.8352 12.6361 10.767 12.6375 10.79 12.7159C10.7943 12.7293 10.8766 12.8239 10.7861 12.8136C10.7731 12.812 10.7356 12.7799 10.7158 12.795C10.6862 12.8177 10.6491 12.8669 10.6475 12.9064C10.647 12.9353 10.7314 12.9442 10.6943 12.963C10.6778 12.9706 10.6485 12.9258 10.6211 12.9425C10.5935 12.9598 10.5634 13.025 10.5527 13.0499C10.5427 13.0744 10.6017 13.088 10.6055 13.0919C10.6205 13.1142 10.6232 13.1738 10.6211 13.1778C10.5589 13.3129 10.4607 13.4217 10.3789 13.5392C10.4887 13.6135 10.4391 13.6947 10.4629 13.8019C10.4654 13.8134 10.4698 13.8273 10.4756 13.8419L10.2041 13.8224C10.2023 13.8316 10.203 13.8427 10.2012 13.8556C10.1982 13.8771 10.2482 13.8897 10.252 13.8937C10.3059 13.9544 10.2099 13.9303 10.1885 13.9259C10.113 13.9107 10.1813 13.969 10.1309 13.9591C10.0807 13.9493 10.0291 13.8889 10.0117 13.9259C10.0482 13.9569 10.171 13.9841 10.1748 14.0206C10.177 14.0416 10.1737 14.0628 10.168 14.0841C10.0926 14.2567 9.89004 14.235 9.82129 14.0597C9.77909 13.9861 9.7706 13.8767 9.76465 13.7901L9.55176 13.7755C9.57325 13.7258 9.59273 13.6561 9.60254 13.6124C9.61234 13.5677 9.65106 13.5569 9.65234 13.5118C9.65253 13.5057 9.59983 13.485 9.59863 13.4825C9.55847 13.4116 9.6712 13.4929 9.69824 13.4962C9.7031 13.4967 9.70826 13.4967 9.71289 13.4972C9.7017 13.4215 9.63551 13.4727 9.58105 13.4308C9.53596 13.3959 9.65542 13.362 9.73242 13.338C9.69974 13.3078 9.67165 13.28 9.67187 13.2687C9.67296 13.2335 9.73199 13.2761 9.73144 13.2384C9.73059 13.2349 9.69128 13.2158 9.70215 13.1984C9.70328 13.1965 9.70392 13.1943 9.70508 13.1925C9.6004 13.2089 9.50787 13.2714 9.52344 13.1964C9.52441 13.192 9.58306 13.1849 9.58398 13.1691C9.58942 13.0438 9.55403 12.9274 9.55469 12.8038C9.55511 12.7869 9.62127 12.7798 9.62207 12.7696C9.63042 12.6643 9.5374 12.7321 9.40527 12.7198C9.56241 12.6801 9.64728 12.6204 9.625 12.5499C9.61152 12.5075 9.54656 12.537 9.49023 12.5255C9.47326 12.522 9.50892 12.4765 9.47558 12.4816C9.36666 12.4981 9.26046 12.5644 9.28222 12.4767C9.28473 12.4727 9.34399 12.4642 9.34375 12.4523C9.34229 12.374 9.231 12.4015 9.19238 12.3292C9.16211 12.2725 9.19272 12.1435 9.18066 12.0714C9.35324 12.0154 9.2924 11.9634 9.16504 11.9767C9.15508 11.9308 9.13178 11.8853 9.13379 11.837C9.13445 11.8207 9.18593 11.8134 9.19238 11.8097C9.26754 11.7529 9.14543 11.7719 9.13769 11.7638C9.05908 11.6745 9.11877 11.56 9 11.4894C8.99531 11.487 8.87404 11.5213 8.95215 11.4659C8.9576 11.4622 9.02297 11.4768 9.01172 11.4288C9.00038 11.3807 9.03517 11.271 8.95801 11.2247C8.93845 11.2136 8.83016 11.2061 8.89453 11.1495C8.90344 11.1418 8.93994 11.1347 8.95703 11.1222C9.01084 11.0823 8.88639 11.1113 8.98144 11.0538C9.07645 10.9963 9.13724 10.9227 9.04492 10.881C9.04218 10.8796 8.94225 10.8955 8.93554 10.8751C8.92712 10.8415 8.93091 10.7881 8.91894 10.754C8.91314 10.7377 8.85751 10.7672 8.85547 10.7648C8.78555 10.6657 8.81221 10.5692 8.7959 10.4435C8.79187 10.4204 8.6914 10.3853 8.74121 10.3224C8.79618 10.2529 9.10407 10.2027 9 10.1202C8.95787 10.0868 8.56862 10.1566 8.73535 10.0157C8.63805 9.8828 8.6901 9.71162 8.57226 9.58507C8.56419 9.57997 8.45692 9.5923 8.45312 9.57628C8.44809 9.55228 8.49113 9.52371 8.48926 9.50597C8.48049 9.43102 8.41744 9.38038 8.40136 9.31066C8.39523 9.28429 8.44766 9.27664 8.44043 9.24523C8.43299 9.21373 8.36089 9.21523 8.3789 9.1632C8.39271 9.12393 8.51592 9.04791 8.51855 9.00109C8.3853 9.0437 8.37814 9.0137 8.32617 8.97472C8.31568 8.96792 8.27396 8.9928 8.2666 8.99034C8.23659 8.97957 8.26865 8.94982 8.2373 8.94054C8.22962 8.93828 8.18365 8.95325 8.1748 8.95226C8.09809 8.94434 8.1833 8.86026 8.19824 8.84581C8.25465 8.79086 8.19149 8.7953 8.20898 8.76183C8.22664 8.72906 8.26773 8.75148 8.27636 8.72179C8.27029 8.71774 8.2638 8.71425 8.25781 8.71007C8.24085 8.69802 8.28051 8.64493 8.26855 8.63585C8.18357 8.572 8.06432 8.58246 7.99121 8.49718C7.94281 8.43981 8.00021 8.34302 8.00195 8.2296C8.00197 8.22311 7.99625 8.21641 7.99023 8.20714C7.94008 8.23435 7.89094 8.23409 7.88476 8.17394C7.88278 8.15396 7.94907 8.18022 7.97949 8.17003C7.97935 8.16122 7.97887 8.1509 7.98242 8.13878C7.98344 8.13533 7.98527 8.1315 7.98633 8.12804C7.95647 8.09702 7.86266 8.09382 7.91504 8.02941C7.92242 8.02164 7.97467 8.02293 8.02148 8.02648C8.06345 7.90924 8.11275 7.78821 8.14746 7.66515C8.15738 7.63009 8.0935 7.6497 8.15136 7.57628C8.15563 7.57136 8.20112 7.5563 8.21972 7.53136C8.23255 7.5139 8.24149 7.44863 8.26269 7.42784C8.28391 7.40711 8.28134 7.46286 8.3125 7.44054C8.34372 7.4178 8.35801 7.34567 8.40332 7.35167ZM9.94726 13.837C9.94467 13.8386 9.95109 13.8666 9.9541 13.8663C10.0263 13.8584 10.0135 13.8024 9.94726 13.837ZM8.75976 8.93175C8.75233 8.93909 8.65588 9.02251 8.73633 9.0255C8.74717 9.02553 8.79255 9.01064 8.79785 9.01378C8.83237 9.03534 8.80291 9.0672 8.83105 9.09386C8.85939 9.12052 8.89841 9.15126 8.89551 9.19347C8.89365 9.21902 8.81722 9.27729 8.7998 9.29503C8.75023 9.34516 8.85937 9.34482 8.79297 9.3878C8.72565 9.4313 8.60132 9.43164 8.57031 9.49718C8.69044 9.45918 8.81436 9.42199 8.93554 9.38488C8.96762 9.49514 8.96516 9.6153 9.00683 9.72277C9.01212 9.73605 9.07177 9.70126 9.0791 9.71495C9.10944 9.77272 9.08179 9.84123 9.12109 9.89855C9.15185 9.94291 9.23813 9.97398 9.27246 10.0196C9.14605 10.0967 9.21766 10.1583 9.22363 10.2179C9.2252 10.2383 9.18919 10.2492 9.18164 10.2667C9.15494 10.3334 9.26697 10.2698 9.29101 10.2775C9.39261 10.3116 9.12096 10.4077 9.15136 10.4776C9.1529 10.4814 9.31471 10.4791 9.32617 10.4825C9.39908 10.5037 9.27763 10.507 9.27539 10.5362C9.27119 10.5894 9.24769 10.6334 9.30859 10.6739C9.32728 10.6856 9.42945 10.694 9.37011 10.7482C9.3623 10.7553 9.31371 10.7692 9.31152 10.7735C9.28429 10.8488 9.43634 10.7996 9.49902 10.8165C9.56136 10.8334 9.4753 10.9202 9.44824 10.9415C9.37998 10.9952 9.40709 10.9325 9.39941 10.9327C9.30267 10.9452 9.33078 10.9781 9.33301 11.0099C9.1858 11.0637 9.20857 11.102 9.33594 11.0431C9.34915 11.0364 9.32822 11.018 9.33301 11.0099C9.48708 10.9871 9.52077 11.0262 9.40136 11.1212C9.34526 11.1658 9.26363 11.1689 9.31445 11.2306C9.33796 11.2578 9.43542 11.2117 9.47265 11.2306C9.55788 11.2741 9.49006 11.3905 9.52734 11.4523C9.54086 11.4744 9.58913 11.4323 9.60058 11.4464C9.63042 11.4853 9.60146 11.5384 9.63769 11.5753C9.64218 11.5778 9.69526 11.55 9.70117 11.5626C9.74259 11.6642 9.73551 11.7673 9.77051 11.8761C9.78751 11.9287 9.85163 12.012 9.86328 12.0685C9.88374 12.1663 9.83732 12.3103 9.88476 12.3839C9.91551 12.432 9.97012 12.4011 10.0176 12.4103C10.1089 12.4279 9.99723 12.5502 9.97851 12.5685C9.97791 12.569 9.94882 12.5287 9.92676 12.5626C9.86869 12.5975 9.97807 12.5681 9.97851 12.5685C9.97057 12.5763 9.97569 12.6231 9.98535 12.6564C10.0008 12.6631 10.0174 12.6743 10.0264 12.6759C10.1184 12.6889 10.0227 12.5944 10.0234 12.587C10.042 12.4123 10.2027 12.3515 10.2285 12.1769C10.2297 12.1673 10.138 12.0432 10.2568 12.0675C10.2648 12.0691 10.3866 12.0947 10.3252 12.0333C10.3191 12.0293 10.2584 12.019 10.2783 11.9923C10.2991 11.9649 10.2864 11.8978 10.3682 11.8868C10.3943 11.8834 10.5162 11.9052 10.4502 11.8234C10.441 11.8135 10.2844 11.6616 10.4268 11.7062C10.4505 11.7137 10.5897 11.7878 10.541 11.7052C10.5314 11.6892 10.4923 11.6888 10.4844 11.6554C10.4724 11.6043 10.5329 11.5758 10.4922 11.5001C10.4849 11.4868 10.4061 11.4051 10.4922 11.4151C10.5059 11.4172 10.548 11.4481 10.5605 11.4376C10.619 11.384 10.6222 11.2982 10.6885 11.2472C10.7119 11.2291 10.7825 11.2794 10.8154 11.2648C10.8483 11.2501 10.8927 11.2104 10.8711 11.1671C10.8492 11.1236 10.713 11.0908 10.7227 11.047C10.7239 11.0414 10.7261 11.0359 10.7275 11.0304C10.7809 10.9423 10.9349 10.7662 11.0303 10.7276C11.1772 10.6108 11.3737 10.5964 11.543 10.5245C11.5688 10.5135 11.5269 10.4804 11.5635 10.461C11.6982 10.3896 11.9127 10.2316 12.0771 10.2648C12.209 10.2915 12.1185 10.4075 12.2061 10.4015C12.2479 10.3979 12.2155 10.2373 12.2217 10.2286C12.2623 10.1703 12.3157 10.166 12.3662 10.1525C12.3309 10.1369 12.296 10.1228 12.2637 10.1085C12.0242 10.003 11.8482 9.89163 11.6084 9.8253C11.5932 9.82103 11.5857 9.8926 11.5723 9.88976C11.4002 9.85008 11.2447 9.76914 11.0713 9.73253C11.0571 9.72941 11.0557 9.79891 11.0322 9.79601C10.9839 9.79047 10.9276 9.76776 10.8887 9.73253C10.8701 9.71539 10.9177 9.6715 10.8984 9.65538C10.853 9.6178 10.7982 9.59484 10.7412 9.58702C10.717 9.58386 10.7299 9.6593 10.7002 9.6505C10.496 9.58952 10.2937 9.53406 10.1172 9.38292C10.1055 9.37164 10.136 9.23907 10.0986 9.25304C10.0844 9.28839 10.0695 9.33097 10.0557 9.36925C9.75485 9.29203 9.47891 9.15027 9.18652 9.04503C9.17418 9.04061 9.17244 9.1167 9.14844 9.10851C9.01392 9.06257 8.87787 9.03571 8.76074 8.92882L8.75976 8.93175ZM10.7129 12.4767C10.6578 12.4507 10.6604 12.4833 10.7148 12.5001C10.7182 12.5007 10.7294 12.4847 10.7129 12.4767ZM11.4131 11.4288C11.3244 11.3459 11.2534 11.4599 11.376 11.4884C11.3824 11.4893 11.4158 11.4351 11.4131 11.4288ZM8.93554 9.67296C8.99729 9.61804 8.83002 9.64524 8.80469 9.66808C8.72551 9.7434 8.87339 9.72818 8.93554 9.67296ZM8.73633 8.79308C8.7279 8.79398 8.66008 8.78905 8.63476 8.80968C8.63123 8.81292 8.62331 8.87336 8.60254 8.86827C8.59497 8.86635 8.58763 8.86355 8.58008 8.86144C8.59052 8.87558 8.61682 8.88575 8.66797 8.89171C8.68603 8.89372 8.72261 8.88297 8.75195 8.87706C8.75898 8.83919 8.76706 8.79039 8.73633 8.79308ZM8.35742 8.80577C8.32198 8.83544 8.38461 8.86609 8.42871 8.82921C8.43653 8.82267 8.43796 8.81656 8.4375 8.81066C8.423 8.80424 8.40879 8.79723 8.39453 8.79015C8.38244 8.79174 8.36908 8.79601 8.35742 8.80577ZM8.12304 8.27062C8.13436 8.26666 8.14646 8.26331 8.1582 8.25988C8.15888 8.25697 8.16157 8.25437 8.16211 8.25109C8.16258 8.24811 8.13646 8.23588 8.13476 8.23839C8.12748 8.25073 8.12438 8.26175 8.12304 8.27062Z" fill="#555961"/>
</svg>
