<svg width="16" height="16" viewBox="0 0 16 16" fill="none" xmlns="http://www.w3.org/2000/svg">
<path d="M4.66637 2.69763C4.82806 2.70065 4.99246 2.71478 5.15075 2.7406C5.18666 2.74675 5.14847 2.81097 5.17418 2.81579C5.35678 2.84949 5.55539 2.80098 5.72985 2.85876C5.84669 2.89769 5.8035 3.00822 5.86559 3.11657C5.87532 3.13152 5.94672 3.1343 5.95055 3.19665C5.96015 3.3551 5.92548 3.52874 5.93981 3.69763C5.94284 3.73398 6.03879 3.695 5.9818 3.78259C5.97779 3.78848 5.90731 3.81818 5.89 3.84802C5.8782 3.86885 5.89986 3.93302 5.87536 3.95935C5.85083 3.98533 5.82419 3.93239 5.78356 3.96325C5.74285 3.99464 5.76024 4.06685 5.67907 4.07556C5.49016 4.0951 5.24226 4.07396 5.05407 4.04528C4.99557 4.03636 5.02476 3.99774 4.98473 3.98962C4.90525 3.97419 4.83083 3.99321 4.75231 3.97497C4.72623 3.96868 4.75817 3.90591 4.73082 3.90075C4.70927 3.89675 4.68764 3.89339 4.66637 3.89099C4.59196 3.87693 4.52106 3.89624 4.44469 3.90661C4.31169 3.92474 4.18108 3.98291 4.07262 4.07263C3.90164 4.21249 3.78948 4.43191 3.77672 4.66638C3.77001 4.84018 3.76385 5.01507 3.75719 5.19079C3.74779 5.44022 3.6903 5.74366 3.7152 6.00134C3.71817 6.03143 3.77314 6.01417 3.7777 6.01989C3.84737 6.10962 3.73591 6.07947 3.72106 6.13806C3.66252 6.37075 3.65773 6.62994 3.67907 6.85388C3.68853 6.94858 3.79823 6.85377 3.73668 6.94958C3.7319 6.95579 3.67408 6.93209 3.66735 6.95739C3.6533 7.01652 3.66411 7.12907 3.65954 7.17517C3.65028 7.26367 3.65044 7.27896 3.64977 7.36267C3.64828 7.47702 3.61891 7.61308 3.63219 7.73571C3.63535 7.76171 3.69516 7.72729 3.70543 7.76892C3.71564 7.81066 3.71076 7.92084 3.69664 7.95837C3.68245 7.99569 3.63522 7.98009 3.62438 7.98669C3.53299 8.04104 3.65933 8.16945 3.66247 8.18591C3.71576 8.48609 3.6437 8.74395 3.64391 9.02575C3.64425 9.23945 3.66862 9.46791 3.66539 9.67126C3.66127 9.91386 3.62854 10.1202 3.63414 10.3558C3.6351 10.3802 3.70492 10.3517 3.70641 10.3812C3.71464 10.7039 3.70629 11.0248 3.65856 11.3461C3.65371 11.3783 3.59193 11.3373 3.58336 11.3695C3.53227 11.5667 3.40971 11.8784 3.68004 11.9955C3.66949 12.129 3.65837 12.2911 3.60387 12.4105C3.56877 12.4873 3.50177 12.4126 3.53063 12.5072C3.53713 12.5284 3.59547 12.5011 3.60094 12.5326C3.60795 12.5761 3.61114 12.6212 3.61266 12.6664C3.61569 12.741 3.62158 12.8189 3.65661 12.8832C3.66733 12.9024 3.71831 12.8848 3.72887 12.8881C3.8127 12.9124 3.71626 13.0205 3.7152 13.0443C3.70376 13.1998 3.78901 13.284 3.87438 13.3822C3.8946 13.4046 3.92312 13.3312 3.94372 13.349C3.95066 13.3554 3.95815 13.3622 3.9652 13.3685C4.06566 13.4584 4.17507 13.5384 4.28942 13.6156C4.31692 13.634 4.26696 13.6809 4.27965 13.6927C4.34004 13.7439 4.38832 13.6385 4.44469 13.6771C4.45673 13.6854 4.43848 13.7345 4.43981 13.7406C4.46459 13.8361 4.52285 13.719 4.53258 13.7152C4.58368 13.707 4.62458 13.7196 4.66637 13.7367C4.75133 13.7646 4.83059 13.8108 4.93004 13.7992C4.94827 13.796 4.9061 13.7317 4.95934 13.7289C5.3184 13.7107 5.69865 13.728 6.05407 13.7806C6.10894 13.7889 6.06915 13.839 6.07262 13.8451C6.12895 13.9395 6.16585 13.813 6.18395 13.807C6.3261 13.7724 6.45944 13.8799 6.55602 13.7279C7.15789 13.7806 7.75698 13.6954 8.35387 13.8314C8.36146 13.833 8.3485 13.8959 8.36364 13.8988C8.54555 13.9339 8.51085 13.8365 8.63122 13.7172C8.66161 13.6872 8.75389 13.8316 8.76207 13.8422C8.79152 13.881 8.76136 13.9734 8.77086 13.9818C8.85339 14.041 8.8404 13.7324 8.95153 13.7318C8.95495 13.7323 8.94121 13.787 8.94957 13.7943C8.97862 13.8121 9.00806 13.7903 9.03649 13.8099C9.10128 13.8556 9.12479 14.0046 9.22399 13.9174C9.23626 13.9047 9.21769 13.7314 9.31676 13.7396C9.35651 13.7431 9.53223 13.74 9.58141 13.7513C9.63006 13.7629 9.59647 13.8192 9.59997 13.8217C9.73217 13.8963 9.68224 13.927 9.7484 14.0375C9.81465 14.1476 9.7967 13.8857 9.8236 13.8558C9.85068 13.8266 9.94818 13.8881 9.97204 13.9095C9.99525 13.931 9.96588 13.9667 9.98668 13.9789C10.1272 14.0581 10.0489 13.8488 10.0951 13.807C10.2043 13.7082 10.2891 13.9031 10.389 13.9222C10.4161 13.9274 10.3942 13.8824 10.4183 13.8783C10.5135 13.8626 10.5708 13.9231 10.6791 13.8676C10.6968 13.8585 10.7854 13.7415 10.8422 13.8275C10.8499 13.8402 10.8271 13.8889 10.8675 13.8998C10.9282 13.9161 11.0376 13.9267 11.1029 13.9105C11.1511 13.8985 11.0959 13.8183 11.1566 13.8431C11.1835 13.8542 11.1341 13.9003 11.1839 13.9174C11.2157 13.928 11.2789 13.9315 11.3334 13.932C11.3638 13.9323 11.3914 13.9307 11.4086 13.9291C11.4547 13.9242 11.4245 13.865 11.4281 13.8607C11.4486 13.8364 11.5251 13.7961 11.5316 13.7943C11.7656 13.7481 11.9975 13.6765 12.1849 13.5179C12.2753 13.4411 12.3518 13.3442 12.3988 13.2318C12.4092 13.2054 12.3451 13.1933 12.3451 13.1888C12.3622 13.0926 12.4831 13.2352 12.5658 13.1898C12.4424 13.1484 12.4816 13.1197 12.4906 13.0482C12.4944 13.0137 12.4408 13.0157 12.4369 13.0111C12.3778 12.9448 12.4792 12.9394 12.5013 12.934C12.5814 12.9171 12.5022 12.8651 12.5541 12.8509C12.6062 12.8343 12.6711 12.9011 12.68 12.8265C12.6361 12.8018 12.5097 12.8371 12.4955 12.7855C12.4851 12.7495 12.4797 12.7091 12.4759 12.6664C12.4599 12.4501 12.5245 12.1633 12.5326 12.0248C12.5425 11.8548 12.5334 11.7995 12.5502 11.7006C12.5805 11.5216 12.4909 11.5869 12.4496 11.4759C12.4083 11.3645 12.6304 11.4187 12.6781 11.4027C12.7253 11.387 12.6763 11.3695 12.7025 11.35C12.7287 11.3306 12.761 11.3724 12.7709 11.3265C12.7801 11.2803 12.6956 11.1553 12.6459 11.139C12.5404 11.1049 12.4296 11.1612 12.4681 11.0404C12.4704 11.0334 12.5296 11.0554 12.5355 11.0287C12.5803 10.8165 12.5828 10.5961 12.6224 10.3842C12.628 10.355 12.6927 10.3806 12.6966 10.3636C12.7381 10.1869 12.6287 10.2505 12.5072 10.1537C12.6688 10.1754 12.7678 10.1215 12.7689 9.98767C12.7695 9.90718 12.6996 9.9203 12.6498 9.86853C12.6348 9.85291 12.6825 9.79606 12.6498 9.78552C12.5411 9.75141 12.4197 9.80473 12.4681 9.66638C12.4723 9.66128 12.53 9.67917 12.5336 9.65857C12.5569 9.52334 12.4429 9.50695 12.4291 9.36071C12.4183 9.24585 12.4881 9.04131 12.4994 8.91052C12.6809 8.91313 12.6393 8.78973 12.514 8.73962C12.5192 8.65474 12.5123 8.56287 12.5297 8.48083C12.5357 8.45361 12.5854 8.4706 12.5931 8.46814C12.6824 8.41354 12.5608 8.3761 12.556 8.35778C12.5096 8.15931 12.6023 7.9974 12.5121 7.80798C12.5088 7.80126 12.382 7.79021 12.474 7.73962C12.4803 7.73635 12.5378 7.79889 12.5423 7.71032C12.5468 7.62116 12.6146 7.45227 12.556 7.32849C12.5412 7.29825 12.4401 7.223 12.5199 7.16247C12.5309 7.15447 12.5672 7.1634 12.5873 7.15173C12.6513 7.11396 12.5237 7.09263 12.6322 7.04821C12.7406 7.00374 12.8212 6.91123 12.7464 6.7865C12.7389 6.7812 12.6436 6.75226 12.6449 6.71423C12.6475 6.65169 12.6689 6.56283 12.6683 6.49743C12.668 6.4661 12.605 6.48529 12.6039 6.47986C12.5688 6.26942 12.6245 6.11944 12.6488 5.89392C12.6532 5.85251 12.5678 5.73371 12.6351 5.65368C12.7093 5.56574 13.0182 5.65563 12.9447 5.45349C12.9139 5.37203 12.5245 5.26866 12.7269 5.12243C12.6994 4.96648 12.7181 4.81666 12.7289 4.66638C12.7378 4.53799 12.7225 4.40315 12.6547 4.28454C12.6478 4.27185 12.532 4.26582 12.5238 4.23962C12.5118 4.19934 12.5493 4.15794 12.5394 4.12732C12.4982 3.99863 12.395 3.91885 12.3197 3.82068C12.2901 3.78327 12.3403 3.75927 12.3011 3.71423C12.2987 3.7115 12.2961 3.70867 12.2933 3.70642C12.2508 3.6722 12.1842 3.69078 12.1468 3.62146C12.1172 3.56612 12.1446 3.41083 12.0726 3.35095C12.0005 3.47158 11.9533 3.43992 11.849 3.43591C11.8294 3.43545 11.8285 3.48618 11.8187 3.48962C11.7781 3.50009 11.7617 3.45127 11.722 3.46716C11.7125 3.47147 11.698 3.51696 11.6898 3.52282C11.6223 3.57453 11.5666 3.45313 11.5521 3.432C11.505 3.35193 11.4678 3.41025 11.4252 3.37927C11.3801 3.34836 11.4533 3.31743 11.3978 3.29724C11.3776 3.29019 11.3559 3.28443 11.3334 3.28064C11.2299 3.26251 11.1112 3.26781 11.014 3.26599C10.9674 3.26557 10.9992 3.32904 10.9925 3.33044C10.8957 3.34661 10.7973 3.27863 10.7435 3.40564C10.6765 3.07761 10.6853 3.43737 10.5472 3.37243C10.5363 3.3671 10.5219 3.21071 10.5638 3.18786C10.6057 3.16507 10.6698 3.21371 10.7279 3.1781C10.7427 3.16739 10.8207 3.02377 10.8314 3.01501C10.9153 2.94716 10.9275 3.17902 10.932 3.19177C10.9825 3.32927 11.0784 3.17253 11.1039 3.1615C11.1874 3.12571 11.262 3.13288 11.3334 3.12634C11.3656 3.12379 11.3977 3.11967 11.43 3.11169C11.5042 3.09353 11.5302 2.9448 11.5941 2.95837C11.8118 3.01349 11.7976 3.23255 12.0453 3.14001C12.0989 3.1231 12.1402 2.95285 12.2181 3.14587C12.2255 3.16133 12.2557 3.31738 12.35 3.29528C12.3623 3.29243 12.3912 3.25361 12.4027 3.2572C12.4793 3.28296 12.4937 3.34487 12.5658 3.38806C12.575 3.39368 12.5845 3.39958 12.5941 3.40564C12.66 3.44671 12.7335 3.50163 12.7728 3.57751C12.8009 3.63049 12.7659 3.74182 12.7601 3.77478C12.7442 3.86764 12.8714 3.88741 12.8216 3.96228C12.7688 4.03331 12.6307 4.01283 12.6254 4.12536C12.743 4.07992 12.8662 4.03878 12.9867 3.99841C13.0694 4.2134 13.0843 4.44379 13.0775 4.66638C13.0761 4.70263 13.0756 4.7393 13.0765 4.77575C13.0773 4.80161 13.1452 4.77538 13.1478 4.8031C13.1586 4.9199 13.1112 5.02184 13.1302 5.14294C13.1454 5.23683 13.2166 5.34067 13.2347 5.43884C13.0909 5.49877 13.1393 5.64366 13.1263 5.74939C13.1218 5.78646 13.0832 5.78455 13.0707 5.81091C13.0244 5.91004 13.1507 5.86416 13.1713 5.89099C13.2568 6.00791 12.9691 6.01792 12.9759 6.15564C12.9762 6.16294 13.1304 6.25271 13.14 6.26501C13.2018 6.3426 13.086 6.27781 13.0746 6.32653C13.0538 6.41572 13.0171 6.47789 13.0619 6.58239C13.0752 6.61295 13.1712 6.68712 13.097 6.74646C13.0864 6.75386 13.0365 6.75002 13.0336 6.75622C12.9846 6.86949 13.1436 6.87296 13.1976 6.93786C13.2516 7.00287 13.1415 7.10298 13.1097 7.12341C13.0279 7.17649 13.0748 7.08236 13.0668 7.07946C12.971 7.04556 12.9869 7.1183 12.9789 7.17419C12.8227 7.18237 12.832 7.26089 12.9711 7.23278C12.9863 7.22956 12.9717 7.18543 12.9789 7.17419C13.1325 7.22328 13.1526 7.30973 13.0091 7.40466C12.9418 7.44911 12.8632 7.40731 12.892 7.54236C12.9052 7.60333 13.013 7.58014 13.0423 7.63415C13.109 7.75766 13.0089 7.91803 13.0248 8.04528C13.0305 8.0915 13.0891 8.04689 13.0951 8.07849C13.1109 8.16203 13.0669 8.23581 13.0892 8.3197C13.0914 8.32733 13.1539 8.30914 13.1547 8.33532C13.1618 8.53384 13.1216 8.70715 13.1205 8.91443C13.1201 9.01466 13.1547 9.19364 13.1478 9.29724C13.1362 9.477 13.0459 9.69839 13.0677 9.85193C13.0818 9.95177 13.1438 9.93013 13.1859 9.97302C13.2671 10.0557 13.122 10.2019 13.099 10.222C13.0982 10.2226 13.0829 10.136 13.0511 10.182C12.9856 10.2087 13.0987 10.2211 13.099 10.222C13.0844 10.235 13.0696 10.4076 13.0814 10.4418C13.0883 10.46 13.1465 10.4497 13.1488 10.4593C13.2012 10.6896 13.2162 10.9202 13.1888 11.1537C13.1876 11.1578 13.1224 11.1518 13.1205 11.1615C13.0914 11.2966 13.1715 11.3831 13.2191 11.4945C13.2666 11.606 13.2504 11.6941 13.1381 11.7601C13.1522 11.8441 13.1028 11.965 13.0726 12.0345C13.0424 12.104 13.1697 12.1144 13.1722 12.1205C13.2527 12.3109 13.1797 12.421 13.1683 12.6185C13.1675 12.6326 13.1672 12.6488 13.1673 12.6664C13.1706 12.8037 13.1578 13.0083 13.1371 13.1283C13.1191 13.2404 13.0683 13.2948 13.0463 13.3968C13.0431 13.4107 13.1011 13.4203 13.1019 13.4252C13.1147 13.5625 13.0125 13.4524 12.9798 13.4623C12.8606 13.499 12.7996 13.5146 12.7582 13.6517C12.7502 13.6813 12.8512 13.8814 12.8148 13.9408C12.7697 14.0139 12.7385 13.9428 12.6908 14.017C12.69 14.0188 12.6918 14.0221 12.6937 14.0267C12.6992 14.0398 12.708 14.0637 12.6781 14.0902C12.4865 14.2607 12.2365 14.3868 11.9935 14.4789C11.9599 14.4913 12.027 14.5416 11.9779 14.5609C11.7796 14.6367 11.5458 14.6748 11.3334 14.6537C11.3076 14.65 11.2822 14.645 11.2572 14.64C11.2175 14.6318 11.2417 14.5838 11.2338 14.5687C11.1803 14.4805 11.1037 14.6083 11.0912 14.6107C10.7932 14.6721 10.5649 14.5565 10.2611 14.6117C10.2442 14.6154 10.1176 14.7517 10.0609 14.6342C10.057 14.6263 10.0003 14.506 9.95055 14.5883C9.94746 14.5934 9.98239 14.6551 9.92125 14.6488C9.86018 14.6426 9.76196 14.6843 9.67809 14.6166C9.65148 14.5951 9.5885 14.4748 9.50914 14.5707C9.50253 14.58 9.38072 14.7925 9.33727 14.6439C9.33036 14.6182 9.33751 14.4621 9.24352 14.5424C9.22543 14.5581 9.25796 14.5936 9.21032 14.6156C9.13727 14.6496 9.04035 14.6076 8.95055 14.6781C8.9344 14.6916 8.86796 14.797 8.81481 14.7162C8.80646 14.7035 8.82222 14.6511 8.7943 14.6449C8.66007 14.6166 8.51946 14.6511 8.38317 14.6146C8.33487 14.6018 8.35929 14.5164 8.30895 14.4935C8.25868 14.4707 8.1576 14.449 8.10485 14.4877C8.0522 14.5267 8.10928 14.6631 8.03063 14.6742C7.68745 14.7215 7.34694 14.6419 7.00426 14.6302C6.95398 14.6287 6.99566 14.6771 6.92125 14.6781C6.64511 14.6817 6.1677 14.7269 5.92809 14.6234C5.73676 14.5406 5.97802 14.4774 5.83141 14.4437C5.76097 14.4277 5.68495 14.5847 5.66735 14.5912C5.50041 14.6418 5.38401 14.5716 5.23375 14.5931C5.20272 14.5976 5.23282 14.6613 5.20641 14.6644C5.11642 14.6754 5.02191 14.6476 4.9359 14.6527C4.89728 14.6552 4.90395 14.7032 4.86852 14.6996C4.79786 14.6925 4.73349 14.6771 4.66637 14.6459C4.64623 14.6395 4.62601 14.6327 4.60582 14.6244C4.59546 14.6198 4.66877 14.5614 4.57946 14.556C4.43309 14.5462 4.26908 14.4736 4.09899 14.4681C4.04899 14.4664 4.00681 14.572 3.93297 14.4603C3.91758 14.4358 3.99699 14.3266 3.83727 14.3802C3.81085 14.3934 3.53936 14.4199 3.50914 14.2709C3.5008 14.2323 3.51329 14.1038 3.45934 14.0795C3.45137 14.0762 3.43651 14.1438 3.39489 14.1156C3.36079 14.0918 3.32787 14.0647 3.29625 14.0365C3.19264 13.944 3.1029 13.8331 3.015 13.722C2.9842 13.6827 2.97081 13.7788 2.92614 13.7172C2.80202 13.5465 2.71843 13.2896 2.69762 13.0873C2.69016 13.014 2.74982 13.0528 2.75524 13.0472C2.8285 12.9493 2.70356 12.9201 2.69176 12.891C2.66313 12.8122 2.66056 12.7371 2.66637 12.6664C2.67333 12.6103 2.68631 12.5562 2.67809 12.4965C2.67402 12.466 2.61594 12.4869 2.61071 12.4808C2.55969 12.4181 2.66452 12.4649 2.67614 12.4252C2.70901 12.3138 2.70415 12.1892 2.69664 12.0765C2.69331 12.0361 2.6265 12.0817 2.62438 12.0453C2.61265 11.8255 2.61911 11.5967 2.65661 11.3822C2.66373 11.3422 2.71525 11.3664 2.72789 11.3588C2.81167 11.3007 2.69776 11.2153 2.68688 11.1957C2.6373 11.1068 2.68381 11.0721 2.67516 10.9935C2.63212 10.6098 2.66205 10.1361 2.68102 9.7738C2.70543 9.30171 2.75545 8.93487 2.74254 8.48474C2.74179 8.45612 2.6728 8.48402 2.67125 8.45935C2.65449 8.14095 2.68162 7.82721 2.66149 7.50818C2.65952 7.48251 2.59388 7.5198 2.58922 7.4779C2.57918 7.39174 2.58281 7.28282 2.60387 7.19568C2.61402 7.15327 2.66975 7.20949 2.67907 7.16736C2.70034 7.06768 2.70529 6.96016 2.69469 6.85778C2.68968 6.81499 2.62223 6.88007 2.62145 6.82361C2.61474 6.43791 2.60323 6.05907 2.69079 5.66931C2.6968 5.64258 2.83433 5.61871 2.80797 5.56189C2.76985 5.55762 2.72469 5.55789 2.68395 5.55603C2.67233 5.25863 2.68067 4.9625 2.69176 4.66638C2.70129 4.27665 2.83088 3.89589 3.05016 3.57751C3.07019 3.54871 2.97519 3.55743 3.015 3.50036C3.08196 3.40608 3.15504 3.3171 3.23571 3.23571C3.43522 3.0338 3.68842 2.8761 3.97594 2.82361C4.01579 2.81774 4.03974 2.94159 4.13805 2.89099C4.15499 2.88036 4.3126 2.8241 4.35289 2.79138C4.3584 2.78629 4.31735 2.73266 4.3734 2.72204C4.46887 2.70495 4.56743 2.69638 4.66637 2.69763ZM10.392 14.0316C10.3909 14.0283 10.3531 14.0254 10.3539 14.0443C10.3565 14.1048 10.4086 14.0876 10.392 14.0316ZM8.08922 13.8861C8.02676 14.0025 8.26901 14.0151 8.21618 13.8929C8.21333 13.8866 8.09327 13.8803 8.08922 13.8861ZM12.6683 12.3851C12.6654 12.3864 12.6625 12.4376 12.6654 12.4388C12.7365 12.4666 12.7423 12.3634 12.6683 12.3851ZM13.0248 4.64392C13.0998 4.56419 12.9256 4.51459 12.8978 4.54821C12.8466 4.60723 12.8683 4.64864 12.9115 4.66638C12.9343 4.674 12.963 4.6748 12.9896 4.66638C13.002 4.66148 13.0143 4.65444 13.0248 4.64392ZM12.5873 3.55993C12.5782 3.55728 12.4504 3.66017 12.4496 3.66931C12.4592 3.80005 12.7236 3.62195 12.5873 3.55993ZM10.1966 3.26794C10.364 3.32595 10.4387 3.52337 10.2318 3.49743C10.1895 3.49188 10.3242 3.4137 10.2699 3.39001C10.1701 3.34686 10.1041 3.51146 10.0023 3.42321C9.98409 3.40722 10.1044 3.25492 10.1195 3.25232L10.1966 3.26794ZM11.7035 3.23571C11.6804 3.18457 11.5736 3.21428 11.6048 3.27478C11.6278 3.32215 11.7291 3.29768 11.7035 3.23571ZM5.63219 3.14978C5.65955 3.07879 5.55551 3.07298 5.5775 3.14685C5.57839 3.14983 5.63095 3.15273 5.63219 3.14978Z" fill="#555961"/>
<path d="M7.04393 1.621C7.04725 1.62553 7.04708 1.68394 7.05858 1.68838C7.0846 1.69808 7.12808 1.68197 7.14745 1.68447C7.1843 1.68982 7.19067 1.68915 7.22459 1.6874C7.25814 1.68632 7.29636 1.70049 7.33299 1.704C7.34443 1.70531 7.35615 1.70468 7.36717 1.70107C7.37567 1.69809 7.36486 1.63896 7.37791 1.62783C7.39162 1.61761 7.42819 1.62244 7.44041 1.63662C7.45254 1.65092 7.44704 1.69807 7.4492 1.70889C7.46674 1.79901 7.50827 1.67739 7.51463 1.6708C7.61302 1.6174 7.69767 1.68956 7.79002 1.68936C7.86008 1.68901 7.93528 1.66461 8.00194 1.66787C8.08126 1.67206 8.1485 1.70469 8.22557 1.69912C8.23372 1.6986 8.22441 1.62764 8.23436 1.62686C8.33995 1.61865 8.44466 1.62708 8.54979 1.67471C8.56031 1.67954 8.54729 1.74095 8.5576 1.7499C8.58892 1.77466 8.62954 1.81673 8.66698 1.82217C8.7119 1.82768 8.75307 1.79387 8.78807 1.65713C8.84207 1.6714 8.90734 1.69181 8.94432 1.75381C8.96761 1.79375 8.92737 1.85446 8.96776 1.83291C8.97678 1.82765 8.97812 1.7686 8.9912 1.76553C9.04801 1.75512 9.09954 1.78833 9.15916 1.77529C9.17145 1.77252 9.18542 1.72092 9.19139 1.71279C9.24175 1.64846 9.24267 1.78302 9.24706 1.7958C9.28882 1.886 9.34415 1.88131 9.40233 1.91299C9.41551 1.91912 9.43204 1.84954 9.44627 1.85342C9.521 1.88113 9.58974 1.93138 9.6328 2.00186C9.6421 2.01758 9.59466 2.05714 9.59666 2.06729C9.60676 2.10983 9.68286 2.02435 9.69432 2.06533C9.69534 2.07442 9.66203 2.10976 9.65819 2.11611C9.61673 2.19644 9.70742 2.11385 9.71581 2.11318C9.76973 2.12347 9.75522 2.19198 9.76073 2.23916C9.76304 2.25786 9.76887 2.27325 9.78416 2.28213C9.79093 2.28588 9.8273 2.22949 9.84374 2.24307C9.95375 2.33429 10.0298 2.47428 10.0449 2.61904C10.047 2.6413 9.99595 2.65017 9.9912 2.6542C9.91667 2.71441 10.0332 2.67128 10.043 2.67471C10.0981 2.70995 10.0171 2.79394 10.1719 2.77529C10.1974 2.96457 10.2764 3.14514 10.2265 3.33291C10.2142 3.37814 10.1936 3.42274 10.1631 3.46377C10.1613 3.46635 10.1006 3.45626 10.0957 3.46084C10.0542 3.52111 10.1524 3.51803 10.2637 3.58291C10.2914 3.60038 10.1427 3.61113 10.1318 3.61123C10.0913 3.61425 10.0022 3.58577 9.99413 3.58779C9.93107 3.60247 10.2328 3.66015 10.2246 3.704C10.2238 3.70515 10.172 3.68799 10.164 3.68936C10.1443 3.6958 10.1629 3.71117 10.1416 3.7167C10.0913 3.72946 9.94504 3.69525 10.0185 3.75283C10.0279 3.76052 10.1977 3.80484 10.1777 3.83975C10.1699 3.85346 10.149 3.91926 10.1308 3.93252C10.1132 3.94543 10.0671 3.91329 10.0635 3.91299C9.97574 3.92854 9.95438 3.8986 9.84471 3.87295C9.7361 3.84522 9.97683 3.95185 9.99901 3.97354C10.0202 3.99518 9.94938 3.99906 9.92674 3.996C9.90414 3.99328 9.87742 3.9685 9.86327 3.96865C9.77176 3.97139 9.96644 4.04956 9.9951 4.08486C10.0598 4.17104 9.87578 4.09852 9.84178 4.11514C9.83255 4.12006 9.87251 4.13785 9.87206 4.14736C9.86556 4.18505 9.8053 4.16596 9.82616 4.23037C9.8317 4.24249 9.89888 4.33933 9.8203 4.30166C9.80894 4.29589 9.77635 4.2577 9.75877 4.26162C9.73254 4.2676 9.70039 4.28882 9.69627 4.31631C9.69318 4.33685 9.76376 4.37828 9.73045 4.37686C9.7158 4.37527 9.69509 4.33061 9.67088 4.33096C9.66913 4.33099 9.66683 4.33159 9.66502 4.33193C9.64209 4.33662 9.61538 4.36423 9.60448 4.37588C9.59319 4.38815 9.63853 4.42661 9.64159 4.43154C9.65093 4.45474 9.6432 4.49992 9.64061 4.50186C9.52126 4.60988 9.34893 4.59373 9.23143 4.67959C9.22182 4.68638 9.25315 4.74337 9.25194 4.74502C9.22413 4.78424 9.18997 4.61477 9.14549 4.57119C9.19595 4.69096 9.1723 4.67555 9.15135 4.69814C9.14155 4.70938 9.16444 4.75443 9.16502 4.75967C9.17011 4.83772 9.12571 4.75032 9.1162 4.73135C9.08141 4.66454 9.09405 4.75189 9.07127 4.70693C9.04937 4.66198 9.04611 4.58712 9.02342 4.59463C9.02926 4.64139 9.08145 4.75251 9.06737 4.77725C9.00967 4.87234 8.84217 4.80421 8.78319 4.79678C8.72176 4.79141 8.70126 4.79937 8.666 4.78311C8.60753 4.75287 8.62898 4.84236 8.59276 4.88369C8.55624 4.92497 8.57359 4.70288 8.56834 4.65518C8.56321 4.60824 8.55813 4.65673 8.55174 4.63076C8.54537 4.6046 8.55883 4.5723 8.54393 4.5624C8.5289 4.55257 8.48774 4.63752 8.48241 4.6874C8.47123 4.79271 8.4895 4.90315 8.45018 4.86514C8.44789 4.86282 8.45503 4.80365 8.44627 4.79775C8.37687 4.75304 8.30466 4.75034 8.23534 4.71084C8.22592 4.70537 8.23359 4.64224 8.2285 4.63662C8.17058 4.5951 8.19091 4.70449 8.15916 4.82607C8.16627 4.66484 8.14908 4.56599 8.10545 4.56436C8.07912 4.56373 8.08328 4.63372 8.06639 4.6835C8.06127 4.69848 8.04249 4.65064 8.03905 4.6835C8.02787 4.79213 8.04531 4.91356 7.99999 4.86514C7.99845 4.86009 8.00375 4.80322 7.99706 4.79971C7.95304 4.77711 7.94725 4.89048 7.8994 4.9042C7.86171 4.91453 7.79467 4.84513 7.75194 4.83389C7.7528 4.65236 7.71269 4.69396 7.69627 4.81924C7.66847 4.8141 7.63819 4.82095 7.61131 4.80361C7.60272 4.79686 7.60823 4.74765 7.60741 4.74014C7.58955 4.65099 7.57729 4.77213 7.57127 4.77725C7.50624 4.82373 7.45267 4.73095 7.39061 4.82119C7.38841 4.82444 7.38567 4.95086 7.36913 4.85928C7.36806 4.85295 7.38788 4.7959 7.35936 4.79092C7.35219 4.78982 7.34269 4.78512 7.33299 4.7792C7.30029 4.76107 7.26151 4.73183 7.22557 4.77334C7.21431 4.78808 7.17654 4.88521 7.16307 4.80361C7.16149 4.79234 7.16866 4.75667 7.16698 4.73623C7.16216 4.67148 7.13777 4.79657 7.13768 4.6874C7.13745 4.57773 7.12708 4.49399 7.07518 4.55947C7.0737 4.56138 7.04297 4.65873 7.03026 4.6542C7.01035 4.64697 6.98739 4.61846 6.96678 4.61318C6.95685 4.61099 6.94538 4.67313 6.94334 4.67373C6.86332 4.6866 6.83079 4.61582 6.77342 4.56338C6.76362 4.55409 6.68939 4.61259 6.69627 4.53994C6.70599 4.4608 6.87595 4.20299 6.79491 4.24111C6.76416 4.26011 6.5222 4.56655 6.59667 4.37197C6.5114 4.36181 6.49824 4.26742 6.43651 4.23037C6.4235 4.22248 6.40799 4.21675 6.38866 4.21377C6.38375 4.21318 6.29413 4.27652 6.28807 4.26748C6.27965 4.25424 6.31159 4.21525 6.3076 4.20498C6.29111 4.1618 6.23254 4.15601 6.21288 4.11611C6.20552 4.10116 6.25212 4.07569 6.24413 4.0585C6.23584 4.04211 6.17078 4.06809 6.18553 4.02822C6.1969 3.99762 6.3098 3.91094 6.31444 3.88369C6.19145 3.94929 6.18543 3.93357 6.13866 3.92178C6.12966 3.91948 6.08957 3.94541 6.08202 3.94619C6.05395 3.94605 6.0853 3.91891 6.05565 3.91982C6.04849 3.91998 6.00445 3.94019 5.99608 3.94131C5.92371 3.95044 6.00864 3.87575 6.0244 3.86416C6.08244 3.81795 6.02168 3.83165 6.04198 3.80654C6.06291 3.78202 6.10335 3.79113 6.11327 3.76846C6.13375 3.72235 6.11328 3.68159 6.10643 3.64541C6.10333 3.63123 6.04384 3.65587 6.04198 3.6542C6.01905 3.62638 6.07853 3.58339 5.95116 3.58877C6.27019 3.50913 5.91662 3.57541 5.97362 3.51748C5.97836 3.51288 6.13082 3.48842 6.15624 3.49697C6.18046 3.50557 6.13568 3.53224 6.17381 3.54287C6.184 3.54592 6.32801 3.53894 6.33885 3.53897C6.41018 3.54412 6.18675 3.59848 6.17284 3.60342C6.04331 3.64992 6.19918 3.64195 6.21385 3.64443C6.27047 3.66227 6.24839 3.69739 6.291 3.71084C6.31865 3.7193 6.4588 3.66763 6.46092 3.67861C6.45972 3.71702 6.27519 3.82468 6.45799 3.77822C6.49691 3.76779 6.64025 3.68386 6.53709 3.76846C6.5286 3.77455 6.43784 3.85125 6.50877 3.82412C6.51755 3.82064 6.5574 3.79643 6.56346 3.79482C6.59242 3.79179 6.56478 3.81965 6.58788 3.82119C6.61086 3.82257 6.6421 3.81925 6.63768 3.84072C6.63483 3.85351 6.57017 3.91747 6.55565 3.93545C6.51443 3.98617 6.6049 3.93282 6.55174 3.98818C6.49886 4.04561 6.39451 4.10544 6.37499 4.16006C6.47114 4.07853 6.5706 3.99535 6.66698 3.91299C6.67885 3.92967 6.68614 3.95134 6.69432 3.97256C6.70411 3.99808 6.71563 4.02353 6.73729 4.03799C6.74227 4.04111 6.78191 3.98547 6.78807 3.98721C6.81298 3.99443 6.80128 4.04625 6.83397 4.0458C6.85956 4.04496 6.91571 3.99665 6.94042 3.99014C6.87664 4.11963 6.92966 4.09409 6.94334 4.11514C6.94839 4.12268 6.93192 4.15665 6.93163 4.1708C6.93261 4.22251 6.97556 4.10335 6.98924 4.08682C7.04442 4.01785 6.93365 4.28313 6.96971 4.29092C6.97227 4.29165 7.04499 4.15395 7.04979 4.14541C7.08536 4.09203 7.03517 4.19754 7.04198 4.21182C7.05423 4.23779 7.05964 4.27715 7.09471 4.24014C7.10582 4.22847 7.14254 4.14008 7.13866 4.21475C7.13822 4.22473 7.12613 4.27403 7.12694 4.27725C7.14376 4.33142 7.17575 4.17525 7.19725 4.12393C7.21809 4.0727 7.22122 4.18452 7.22264 4.2167C7.22446 4.29869 7.20883 4.25067 7.20702 4.25771C7.18585 4.35142 7.20572 4.33814 7.21874 4.34756C7.203 4.50333 7.22681 4.49654 7.23241 4.35732C7.23311 4.3421 7.22077 4.35501 7.21874 4.34756C7.24886 4.1963 7.26373 4.17847 7.27831 4.32314C7.28557 4.3906 7.27108 4.46826 7.30858 4.44131C7.32528 4.42881 7.3207 4.32282 7.33299 4.29189L7.33397 4.29092C7.37443 4.22419 7.42704 4.32434 7.46874 4.3085C7.48373 4.30261 7.46933 4.24445 7.47948 4.23818C7.50684 4.22223 7.53113 4.2661 7.55858 4.24404C7.56105 4.24193 7.55526 4.18059 7.56346 4.17861C7.62835 4.17145 7.68521 4.21152 7.75291 4.21279C7.78572 4.2133 7.8449 4.1786 7.87889 4.18545C7.93776 4.19695 8.01021 4.28718 8.06053 4.26553C8.09336 4.25155 8.08651 4.18949 8.10057 4.14736C8.12757 4.06633 8.17476 4.21048 8.18163 4.23428C8.18182 4.23503 8.15386 4.25039 8.16893 4.28213C8.17765 4.34725 8.18131 4.23456 8.18163 4.23428C8.18586 4.24885 8.24237 4.26342 8.25389 4.25186C8.2599 4.24548 8.25678 4.1881 8.25975 4.18447C8.3352 4.13206 8.41077 4.11705 8.48729 4.14443C8.48842 4.14855 8.48645 4.20825 8.48924 4.21279C8.53354 4.24192 8.56209 4.16175 8.59862 4.11416C8.62519 4.07956 8.64832 4.07859 8.66698 4.12393C8.67113 4.14091 8.67444 4.16462 8.6787 4.19521C8.69585 4.18092 8.72345 4.22901 8.74217 4.25771C8.76101 4.28639 8.7511 4.15875 8.75194 4.15615C8.78032 4.07261 8.80917 4.14138 8.85252 4.14346C8.87261 4.1447 8.90441 4.11719 8.91893 4.09756C8.93023 4.08196 8.94997 4.10609 8.95702 4.08291C8.95692 4.07779 8.93577 4.02749 8.93553 4.02529C8.92449 3.95727 8.969 4.08855 8.98143 4.11025C9.02686 4.18874 9.05586 4.22875 9.06053 4.18057C9.06239 4.16902 8.9886 3.98214 8.98924 3.96865C8.99151 3.95139 9.02135 4.01579 9.02342 3.996C9.02359 3.99429 9.00218 3.9554 9.00877 3.954C9.03903 3.94708 9.08245 3.94997 9.10643 3.92666C9.10842 3.92262 9.06519 3.87309 9.06639 3.86611C9.08339 3.84296 9.10672 3.82668 9.1494 3.83096C9.16017 3.83229 9.19183 3.8695 9.20311 3.87881C9.21795 3.89082 9.2261 3.89556 9.22948 3.89541C9.24027 3.8931 9.19097 3.83355 9.19041 3.83096C9.17908 3.75331 9.29588 3.7922 9.28026 3.71377C9.27856 3.70744 9.17191 3.62241 9.27831 3.67178C9.28575 3.67574 9.39604 3.72308 9.32811 3.67666C9.32373 3.6739 9.26605 3.65063 9.27635 3.64443C9.28617 3.63728 9.25664 3.60683 9.3242 3.621C9.34679 3.62653 9.46072 3.65859 9.37791 3.60928C9.36992 3.60289 9.17717 3.51303 9.31932 3.55557C9.34398 3.56294 9.49182 3.61405 9.42088 3.57119C9.40689 3.56323 9.37107 3.55847 9.35252 3.54385C9.32394 3.52237 9.36938 3.51627 9.30467 3.48525C9.29329 3.47925 9.19057 3.44701 9.27147 3.45596C9.28424 3.45719 9.33603 3.47023 9.34276 3.4667C9.37469 3.44906 9.34339 3.41992 9.38182 3.40029C9.39571 3.39305 9.48024 3.4058 9.50389 3.39736C9.52754 3.38902 9.55045 3.36746 9.5117 3.35537C9.4729 3.34395 9.33688 3.3509 9.32616 3.33779C9.32482 3.33619 9.32339 3.33449 9.32225 3.33291C9.2838 3.28203 9.35276 3.2241 9.34959 3.16299C9.34913 3.15408 9.30379 3.17244 9.29979 3.16104C9.28429 3.11612 9.21648 3.07194 9.28612 2.98721C9.34027 2.91562 9.41824 2.92442 9.4326 2.88174C9.43801 2.85921 9.29547 2.92979 9.29002 2.93057C9.23242 2.93344 9.27674 2.87695 9.24217 2.86807C9.23392 2.86819 9.18866 2.91052 9.18358 2.90908C9.16659 2.90447 9.17756 2.87434 9.16405 2.86709C9.15776 2.86405 9.12318 2.89903 9.12206 2.89248C9.12124 2.88848 9.12057 2.88404 9.12108 2.87881C9.12253 2.86387 9.13041 2.84272 9.14549 2.81045C9.14985 2.80448 9.19456 2.76814 9.18749 2.75869C9.17616 2.74338 9.18506 2.69194 9.13866 2.71475C9.12458 2.72172 9.05812 2.8116 9.09276 2.74209C9.1001 2.72752 9.18092 2.61959 9.10057 2.70498C9.08587 2.71821 8.98084 2.83653 9.0244 2.74502C9.03584 2.72086 9.08457 2.62207 9.06834 2.63272C9.06536 2.63622 9.03958 2.68801 9.03124 2.69033C9.00251 2.69659 8.98492 2.68029 8.95702 2.68838C8.94972 2.69075 8.93137 2.75083 8.92186 2.75283C8.89631 2.7583 8.87815 2.73484 8.86327 2.70986C8.85843 2.69982 8.8787 2.65281 8.87987 2.64736C8.89614 2.55806 8.85554 2.672 8.85057 2.67959C8.82058 2.71585 8.81965 2.65664 8.79784 2.66787C8.79213 2.67298 8.78512 2.72943 8.78319 2.73428C8.76473 2.78218 8.79008 2.68143 8.78612 2.66787C8.77357 2.63214 8.75018 2.6338 8.73045 2.63955C8.72399 2.64457 8.72497 2.70632 8.71971 2.71084C8.702 2.71537 8.68443 2.71611 8.66698 2.71084C8.63155 2.70578 8.59562 2.69488 8.56151 2.67666C8.54881 2.66899 8.55713 2.61804 8.55467 2.60537C8.53566 2.52159 8.50737 2.6355 8.50096 2.64639C8.47181 2.69609 8.4603 2.64945 8.43456 2.65811C8.30889 2.70112 8.15381 2.67122 8.03514 2.65225C7.88043 2.62783 7.75983 2.57777 7.61229 2.59072C7.60355 2.59332 7.61245 2.66048 7.60448 2.66201C7.5136 2.67664 7.4237 2.65868 7.33299 2.66689C7.3264 2.66811 7.31994 2.67002 7.31346 2.67275C7.3094 2.6744 7.31713 2.73891 7.31151 2.74502C7.29939 2.75552 7.28365 2.75289 7.26854 2.7333C7.26112 2.72357 7.26378 2.66632 7.25584 2.65811C7.23694 2.63897 7.21725 2.63757 7.20213 2.65127C7.19632 2.65773 7.2185 2.71969 7.21092 2.72354C7.15286 2.74259 7.11035 2.7696 7.01268 2.72158C7.00618 2.7182 6.93698 2.59906 6.93944 2.62783C6.95726 2.66154 6.97941 2.70052 6.99901 2.73623C6.95172 2.77944 6.89421 2.80241 6.83788 2.83779C6.81012 2.85523 6.78354 2.87554 6.7617 2.90029C6.75908 2.90329 6.81796 2.94015 6.81639 2.94717C6.7897 2.98155 6.78801 3.0225 6.70311 3.03213C6.69477 3.03326 6.5799 2.97708 6.59081 2.9999C6.59291 3.00487 6.59974 3.03245 6.62303 3.04775C6.62701 3.05008 6.68343 3.06929 6.6826 3.07607C6.67679 3.11519 6.65249 3.14733 6.60838 3.17959C6.60113 3.18487 6.53993 3.16488 6.53417 3.16885C6.4938 3.19943 6.53632 3.24496 6.47655 3.27627C6.43621 3.2988 6.32669 3.28434 6.21776 3.29678C6.20251 3.2988 6.19938 3.31775 6.1367 3.31826C5.97818 3.31987 5.80472 3.30479 5.63573 3.30752C5.59927 3.30817 5.63818 3.34979 5.55077 3.3251C5.54484 3.32341 5.5158 3.29199 5.48631 3.28311C5.46585 3.27696 5.40104 3.28587 5.37499 3.27334C5.34928 3.26052 5.40294 3.2494 5.37303 3.22842C5.34264 3.20728 5.26927 3.21163 5.26366 3.16982C5.25118 3.07187 5.29254 2.94713 5.34276 2.86221C5.35834 2.83548 5.39369 2.85912 5.40624 2.8417C5.43046 2.80813 5.42212 2.7682 5.45116 2.73721C5.46133 2.72756 5.5156 2.76051 5.5244 2.7499C5.57222 2.69236 5.58115 2.62613 5.62206 2.56729C5.75558 2.37669 5.90209 2.20988 6.0703 2.07022C6.15519 1.99986 6.24585 1.93665 6.34178 1.88272C6.43722 1.82846 6.57607 1.81801 6.66502 1.75381C6.67458 1.74565 6.64798 1.69977 6.64745 1.69326C6.65752 1.61369 6.68755 1.7216 6.71581 1.72647C6.82836 1.74567 6.92765 1.72289 7.01463 1.68447C7.05063 1.66747 6.99309 1.56766 7.04393 1.621ZM8.90721 4.64639C8.90294 4.57482 8.87058 4.57454 8.88963 4.64639C8.89103 4.64906 8.90664 4.64915 8.90721 4.64639ZM6.68065 4.05752C6.72184 3.99239 6.59841 4.10712 6.58202 4.13369C6.53218 4.22254 6.64095 4.12446 6.68065 4.05752ZM9.74608 4.03799C9.69502 4.00568 9.70071 4.0278 9.74999 4.05459C9.75295 4.05619 9.76205 4.04811 9.74608 4.03799ZM6.24315 3.80752C6.27905 3.78252 6.22393 3.778 6.1787 3.8085C6.14259 3.83393 6.19881 3.83956 6.24315 3.80752ZM5.91014 3.33389C5.92761 3.32908 6.08117 3.36695 6.08202 3.37002C6.07221 3.43295 5.81576 3.50854 5.83788 3.41885C5.84229 3.40343 5.9236 3.4461 5.94627 3.42568C5.98726 3.39064 5.82187 3.3715 5.91014 3.33389ZM10.1133 3.36514C9.99762 3.34222 9.98272 3.4209 10.1055 3.41006C10.1119 3.40884 10.1192 3.36666 10.1133 3.36514ZM6.18846 3.22939C6.25845 3.24301 6.26649 3.21658 6.19237 3.21475C6.18938 3.21556 6.18563 3.22879 6.18846 3.22939Z" fill="#555961"/>
<path d="M10.0361 8.16993C10.0464 8.19017 10.0053 8.16445 10.0234 8.19629C10.0301 8.20655 10.1193 8.31379 10.126 8.32325C10.1648 8.38208 9.99882 8.21945 9.98926 8.21094C9.88592 8.11961 9.98557 8.24225 9.99023 8.25294C10.0113 8.3013 9.9772 8.29025 9.99023 8.32618C9.99893 8.34994 10.1059 8.4593 10.0967 8.46192C10.0649 8.46903 9.9103 8.32753 10.0215 8.47559C10.0455 8.5075 10.1663 8.62124 10.0596 8.54297C10.0518 8.53718 9.95818 8.4646 10.0049 8.52344C10.0109 8.53097 10.046 8.56545 10.0479 8.56934C10.0594 8.59441 10.0275 8.57236 10.0332 8.59278C10.0389 8.61323 10.0492 8.64088 10.0293 8.6377C10.0166 8.63513 9.94668 8.57857 9.92871 8.56544C9.87709 8.52752 9.94311 8.60843 9.88477 8.5586C9.82568 8.50809 9.75083 8.41598 9.7041 8.39161C9.79274 8.48108 9.88279 8.57384 9.97168 8.66407C9.9438 8.68537 9.89086 8.68137 9.87012 8.70997C9.8697 8.71509 9.91938 8.75863 9.91797 8.76368C9.91146 8.78481 9.86504 8.76312 9.86426 8.79102C9.86416 8.81312 9.90219 8.87606 9.90332 8.9004C9.79461 8.80586 9.81153 8.85676 9.79004 8.86036C9.78242 8.86153 9.75518 8.8339 9.74316 8.82813C9.6986 8.80711 9.79332 8.89146 9.80469 8.90919C9.85134 8.98358 9.64629 8.78061 9.63477 8.80176C9.6341 8.80283 9.73297 8.92244 9.73828 8.93067C9.77308 8.98398 9.69841 8.89482 9.68457 8.89258C9.65931 8.88844 9.62612 8.86987 9.64551 8.91407C9.65184 8.92771 9.71012 9.00277 9.65137 8.95801C9.64357 8.95207 9.60734 8.91543 9.60449 8.91407C9.55704 8.89334 9.66856 9.00579 9.69922 9.05176C9.72976 9.09773 9.64014 9.03178 9.61523 9.01172C9.55075 8.95992 9.59521 8.98164 9.58984 8.97559C9.52618 8.90392 9.52896 8.92391 9.5166 8.92481C9.40518 8.81533 9.40215 8.8317 9.50391 8.92676C9.51492 8.93702 9.51058 8.92161 9.5166 8.92481C9.61939 9.03925 9.62335 9.06373 9.51074 8.97364C9.45787 8.93131 9.40685 8.8709 9.41113 8.90723C9.41331 8.92385 9.49248 8.99726 9.50684 9.02442C9.53929 9.08617 9.44923 9.03428 9.44531 9.06055C9.44391 9.07 9.48973 9.10576 9.49121 9.11426C9.49259 9.13554 9.45293 9.11361 9.45898 9.13965C9.46227 9.14428 9.50329 9.18147 9.50293 9.18653C9.48446 9.21515 9.43554 9.20767 9.41016 9.23145C9.39792 9.24298 9.40094 9.28844 9.38379 9.2959C9.35432 9.3091 9.26455 9.27205 9.26172 9.30567C9.25971 9.32744 9.30636 9.36845 9.33105 9.40333C9.37893 9.47086 9.25761 9.38477 9.23926 9.3711C9.23866 9.36852 9.23719 9.34899 9.21094 9.33301C9.16306 9.29125 9.23441 9.36586 9.23926 9.3711C9.22716 9.3627 9.19691 9.37344 9.20117 9.38575C9.20391 9.39281 9.24662 9.43282 9.24707 9.43555C9.25666 9.49951 9.24002 9.53742 9.19336 9.5459C9.19205 9.54556 9.1468 9.49909 9.14355 9.49805C9.10691 9.4935 9.15341 9.56055 9.17383 9.60743C9.19416 9.65418 9.17215 9.65357 9.08496 9.58204C9.08462 9.60165 9.03532 9.58043 9.00586 9.56739C8.97717 9.5549 9.06346 9.64405 9.06641 9.64844C9.10076 9.72792 9.03647 9.68997 9.00488 9.70508C8.98976 9.71226 8.98074 9.7476 8.97852 9.76954C8.97692 9.78701 8.94945 9.77173 8.9541 9.79395C8.95472 9.79695 8.99686 9.83599 8.99805 9.8379C9.03578 9.89512 8.94248 9.79295 8.92285 9.77735C8.85175 9.72095 8.81364 9.69182 8.83105 9.73438C8.83826 9.7476 8.96776 9.89386 8.9707 9.90723C8.974 9.92409 8.92592 9.87169 8.93066 9.89063C8.93105 9.89225 8.96285 9.9237 8.95703 9.92676C8.93043 9.94133 8.88935 9.94522 8.87109 9.96973C8.86881 9.9732 8.9219 10.0189 8.91895 10.0244C8.90498 10.0501 8.88137 10.0703 8.83887 10.0664C8.82796 10.0647 8.79639 10.0277 8.78516 10.0186C8.7165 9.96259 8.79859 10.0622 8.79883 10.0654C8.8065 10.1437 8.69823 10.0891 8.70117 10.1641C8.70192 10.1689 8.78279 10.2801 8.69336 10.2041C8.68736 10.199 8.5951 10.1204 8.64746 10.1846C8.65071 10.1886 8.69807 10.228 8.6875 10.2315C8.67578 10.2342 8.69295 10.2746 8.63477 10.2363C8.61608 10.224 8.52383 10.1476 8.58203 10.2246C8.5876 10.2317 8.72445 10.3968 8.61426 10.2969C8.59601 10.2803 8.48512 10.1677 8.53125 10.2363C8.54041 10.2496 8.56924 10.2709 8.5791 10.292C8.59394 10.3241 8.55294 10.3061 8.5918 10.3662C8.59876 10.3769 8.66652 10.4605 8.60254 10.4092C8.59196 10.4004 8.55723 10.3622 8.5498 10.3613C8.51407 10.3574 8.5221 10.399 8.48047 10.3897C8.46566 10.3863 8.4079 10.3227 8.38574 10.3125C8.3636 10.3023 8.33609 10.2992 8.35742 10.333C8.37906 10.3669 8.48095 10.4549 8.48047 10.4727C8.47319 10.5468 8.37607 10.5311 8.32715 10.5635C8.32013 10.5684 8.3595 10.5978 8.35156 10.6074C8.32138 10.6427 8.29674 10.7311 8.19531 10.6865C8.11409 10.6508 8.09771 10.578 8.05664 10.5713C8.03718 10.5684 8.13604 10.6853 8.14062 10.6943C8.15654 10.7497 8.09387 10.7146 8.09082 10.7471C8.09029 10.7539 8.13962 10.7964 8.13867 10.8018C8.13547 10.8198 8.10414 10.8114 8.09766 10.8252C8.09603 10.8323 8.12984 10.8647 8.12305 10.8662C8.10695 10.8702 8.08315 10.8653 8.04102 10.8428C8.03656 10.8398 8.0002 10.7911 7.99121 10.7969C7.97654 10.8064 7.93011 10.79 7.94922 10.8369C7.9559 10.8517 8.03293 10.9295 7.9707 10.8848C7.95742 10.8752 7.86473 10.7777 7.93652 10.8701C7.94967 10.8872 8.04092 11.0123 7.96191 10.9502C7.9409 10.9337 7.85729 10.862 7.86426 10.8789C7.86553 10.8815 7.91097 10.9213 7.91113 10.9297C7.91051 10.9581 7.89025 10.9689 7.88867 10.9971C7.88867 11.0049 7.93843 11.0428 7.93652 11.0527C7.9313 11.0801 7.89978 11.0896 7.87012 11.0918C7.85908 11.0925 7.82666 11.0514 7.82227 11.0479C7.75096 10.9903 7.83412 11.0815 7.83691 11.0889C7.85298 11.1332 7.80163 11.1038 7.79883 11.127C7.79812 11.1333 7.83949 11.1705 7.84473 11.1768C7.84557 11.178 7.84698 11.1796 7.84766 11.1807C7.49203 11.3872 7.02589 11.5363 6.81934 11.1807C6.78385 11.2031 6.85891 11.1376 6.8623 11.125C6.87229 11.0886 6.8546 11.0774 6.83594 11.0693C6.82892 11.067 6.78828 11.1179 6.78125 11.1172C6.74693 11.0994 6.72362 11.0675 6.72461 11.0156C6.7249 11.0058 6.76463 10.9716 6.77246 10.9619C6.8243 10.8964 6.7361 10.9651 6.72461 10.9717C6.6789 10.9963 6.70685 10.9593 6.69141 10.9561C6.61573 10.9407 6.58128 10.8629 6.55176 10.8066C6.51309 10.7334 6.50487 10.6546 6.44238 10.6104C6.43858 10.6076 6.39505 10.6568 6.38867 10.6582C6.339 10.6323 6.32063 10.5764 6.26855 10.5527C6.26439 10.5507 6.22251 10.6017 6.21387 10.6006C6.19661 10.5975 6.18603 10.5817 6.19043 10.5566C6.19258 10.5444 6.23987 10.5105 6.24121 10.499C6.24436 10.4723 6.23444 10.4558 6.21484 10.4512C6.20567 10.4508 6.16635 10.5051 6.15918 10.499C6.10877 10.4581 6.05574 10.4213 6.07129 10.3135C6.07237 10.3061 6.16666 10.2062 6.1416 10.2178C6.11418 10.2442 6.08271 10.2761 6.05371 10.3047C5.97155 10.2536 5.93856 10.1541 5.87695 10.082C5.87225 10.082 5.82744 10.1353 5.82227 10.1299C5.79146 10.0976 5.74675 10.0805 5.76562 9.99708C5.7689 9.98763 5.85917 9.9006 5.83691 9.9043C5.83277 9.90513 5.80647 9.90318 5.7832 9.91895C5.77979 9.92138 5.74107 9.96482 5.73438 9.9629C5.70133 9.94269 5.68239 9.90496 5.68164 9.85254C5.68304 9.84338 5.72927 9.80536 5.73145 9.79786C5.73367 9.75233 5.6763 9.76256 5.69629 9.70118C5.70995 9.65979 5.79306 9.58691 5.8623 9.50294C5.87207 9.49108 5.86505 9.48057 5.90918 9.43555C6.02004 9.32242 6.14696 9.20409 6.26465 9.08301C6.29002 9.05692 6.25132 9.07297 6.32031 9.01758C6.32522 9.01382 6.35394 9.00135 6.37695 8.98243C6.39302 8.96919 6.43547 8.92101 6.45703 8.90528C6.47849 8.88964 6.4441 8.93102 6.4707 8.91407C6.49774 8.89669 6.54772 8.84314 6.56348 8.84669C6.59925 8.85551 6.61409 8.89912 6.61621 8.94141C6.61692 8.9547 6.58476 8.9798 6.58398 8.99024C6.58258 9.0105 6.60524 9.006 6.60156 9.02833C6.59872 9.0368 6.55232 9.07613 6.55176 9.08301C6.54986 9.12038 6.57731 9.12603 6.58594 9.15333C6.62796 9.28875 6.69904 9.39284 6.76855 9.50294C6.79141 9.53924 6.78681 9.61598 6.83496 9.62891C6.84063 9.63038 6.87794 9.58849 6.88184 9.58594C6.94136 9.54763 6.85899 9.62321 6.85547 9.64063C6.8419 9.70913 6.86885 9.74328 6.91016 9.75489C6.92795 9.75965 6.9946 9.67136 6.96289 9.72559C6.96078 9.72926 6.91785 9.76691 6.91504 9.7754C6.91211 9.79238 6.93241 9.79889 6.93457 9.80762C6.93848 9.82442 6.9409 9.82573 6.9502 9.83594C6.96277 9.85053 6.95845 9.88742 6.98242 9.89258C6.9879 9.89315 7.02582 9.84727 7.03809 9.84473C7.05028 9.84247 7.06029 9.85957 7.05469 9.87403C7.04896 9.88834 7.01443 9.91877 7.00684 9.92774C6.94858 9.99889 7.05345 9.92507 7.05762 9.92481C7.13038 9.92299 7.11034 10.0037 7.14355 10.0371C7.16917 10.0623 7.2135 10.0731 7.23535 10.0996C7.26092 10.1312 7.26249 10.1781 7.29395 10.2022C7.29727 10.2047 7.34448 10.1512 7.34863 10.1543C7.36804 10.1686 7.38394 10.186 7.39746 10.2061C7.42178 10.2031 7.48928 10.2477 7.49414 10.2227C7.49473 10.2187 7.44344 10.1776 7.44727 10.169C7.47702 10.1135 7.53486 10.0811 7.61426 10.0762C7.6266 10.0755 7.65642 10.1153 7.66113 10.1191C7.73518 10.1797 7.6497 10.0846 7.64844 10.0791C7.64106 10.038 7.73164 10.0973 7.63574 9.97852C7.74447 9.94438 7.75574 9.81344 7.92285 9.83887C7.92583 9.8402 7.9679 9.88454 7.97168 9.88477C8.01789 9.8879 7.94505 9.82326 7.875 9.72461C7.85753 9.69992 7.97007 9.79136 7.97852 9.79786C8.00928 9.82169 8.0704 9.8899 8.07812 9.89551C8.12965 9.9275 7.91119 9.71179 7.92285 9.69727C7.92363 9.69722 7.96266 9.7393 7.96777 9.74219C7.98344 9.751 7.97114 9.73176 7.98828 9.74219C8.02802 9.76652 8.13647 9.86994 8.08691 9.79688C8.08039 9.78737 7.95423 9.66529 7.97168 9.65919C7.97883 9.65692 7.99785 9.63453 8.01172 9.63672C8.02572 9.63951 8.06096 9.6818 8.06348 9.6836C8.13203 9.72073 8.14827 9.74898 8.23438 9.81934C8.31925 9.88857 8.13225 9.70601 8.11426 9.68165C8.09678 9.65774 8.15193 9.68983 8.16992 9.70215C8.18778 9.71445 8.20957 9.74273 8.2207 9.74903C8.29344 9.78841 8.13631 9.64926 8.1123 9.61426C8.05561 9.53167 8.20316 9.65949 8.22852 9.66114C8.23425 9.66083 8.20125 9.63268 8.20117 9.62696C8.20162 9.60495 8.25069 9.64051 8.22461 9.58887C8.22029 9.58034 8.14745 9.48711 8.21484 9.54102C8.22457 9.54884 8.25701 9.586 8.26953 9.58887C8.28808 9.59299 8.30822 9.58727 8.30469 9.56836C8.30191 9.55415 8.23889 9.50427 8.26367 9.51465C8.2749 9.51992 8.30152 9.55838 8.31934 9.56446C8.3373 9.57046 8.35177 9.55286 8.35645 9.5459C8.35917 9.53795 8.31546 9.49987 8.3125 9.4961C8.29943 9.47762 8.29001 9.44796 8.29004 9.44434C8.33437 9.38956 8.45177 9.41543 8.47656 9.34376C8.47851 9.33822 8.43213 9.29639 8.43066 9.29395C8.42469 9.26199 8.53559 9.39262 8.58496 9.42383C8.4921 9.33359 8.51345 9.34414 8.5127 9.3252C8.51218 9.31586 8.47394 9.28237 8.4707 9.27833C8.42362 9.21826 8.49657 9.2822 8.5127 9.2959C8.56955 9.3441 8.51273 9.27742 8.55078 9.30958C8.58857 9.34148 8.63349 9.40007 8.6416 9.39063C8.61117 9.35528 8.51801 9.27548 8.51074 9.25489C8.4839 9.17774 8.59764 9.19765 8.625 9.18458C8.65218 9.1714 8.65311 9.15906 8.67676 9.15919C8.71892 9.1592 8.64781 9.10284 8.63184 9.06055C8.61683 9.01938 8.76622 9.18213 8.80176 9.21387C8.83703 9.24544 8.80531 9.20933 8.8252 9.22461C8.84604 9.24083 8.86455 9.269 8.87695 9.27051C8.88871 9.27125 8.84372 9.19717 8.81055 9.16016C8.73992 9.0814 8.65532 9.00932 8.69727 9.02247C8.70063 9.0244 8.73741 9.06666 8.74512 9.06836C8.80208 9.07493 8.83053 9.05079 8.88379 9.05372C8.89145 9.05466 8.93328 9.10317 8.93848 9.1045C8.98876 9.11287 8.90449 9.04261 8.83008 8.94532C8.9416 9.06195 9.01747 9.12537 9.03418 9.11036C9.04419 9.10124 8.99291 9.05311 8.96387 9.01172C8.95511 8.99925 8.99591 9.02669 8.97363 9.00196C8.90088 8.92114 8.80874 8.84156 8.85938 8.85938C8.86195 8.86059 8.90005 8.90261 8.90625 8.9043C8.93894 8.90488 8.86085 8.82318 8.86816 8.7959C8.87416 8.77464 8.94819 8.79955 8.97168 8.792C9.09955 8.92046 9.08452 8.87669 9.00195 8.78223C9.01566 8.77579 9.02195 8.7592 9.04395 8.76172C9.05205 8.76349 9.08634 8.80201 9.09082 8.80567C9.15982 8.86182 9.07972 8.77357 9.07715 8.76661C9.06784 8.71022 9.15246 8.75598 9.11133 8.66993C9.10982 8.66683 9.02152 8.57652 9.09277 8.63575C9.09866 8.64147 9.13109 8.68698 9.14453 8.67969C9.15877 8.67269 9.22577 8.7003 9.19922 8.64454C9.19281 8.63102 9.12952 8.54923 9.19336 8.59864C9.20202 8.60537 9.22654 8.63264 9.24219 8.64551C9.29163 8.68601 9.20426 8.5937 9.28613 8.66504C9.36808 8.73644 9.43654 8.78257 9.39844 8.71485C9.39571 8.71105 9.33229 8.641 9.33496 8.63477C9.34422 8.62923 9.3695 8.63306 9.37695 8.62501C9.38042 8.62104 9.33415 8.57861 9.33398 8.57715C9.33431 8.52765 9.39166 8.54961 9.43555 8.54004C9.44231 8.53668 9.39737 8.46401 9.4541 8.50196C9.51691 8.54392 9.72362 8.77232 9.69629 8.69727C9.68517 8.6668 9.42121 8.37689 9.58203 8.50294C9.58059 8.4342 9.68488 8.47602 9.66797 8.39161C9.66713 8.3878 9.59801 8.31016 9.59863 8.30372C9.60565 8.30012 9.6452 8.33345 9.65137 8.33204C9.67794 8.32692 9.66156 8.281 9.68164 8.27051C9.68929 8.26662 9.7244 8.30562 9.7334 8.30079C9.74225 8.29581 9.69835 8.2425 9.73145 8.25684C9.75711 8.26844 9.86313 8.36028 9.88477 8.36329C9.78623 8.26401 9.79494 8.25931 9.78027 8.22169C9.7771 8.21432 9.74173 8.18392 9.7373 8.17774C9.72377 8.15571 9.75653 8.17965 9.74121 8.15626C9.73748 8.15057 9.70315 8.11686 9.69824 8.11036C9.65572 8.05424 9.74209 8.11817 9.75781 8.12989C9.81557 8.17284 9.77527 8.1255 9.80078 8.13965C9.82625 8.15383 9.84269 8.18698 9.86133 8.19239C9.89985 8.20347 9.91225 8.18035 9.92773 8.16797C9.93218 8.16204 9.88507 8.12275 9.88379 8.12012C9.88383 8.09717 9.94382 8.13335 9.86035 8.03711C10.1009 8.2617 9.84518 8.00697 9.9082 8.03711C9.91497 8.04131 10.025 8.14897 10.0361 8.16993ZM7.42383 10.2744C7.43842 10.2844 7.43209 10.2765 7.42188 10.2627C7.42281 10.2665 7.42309 10.2704 7.42383 10.2744ZM7.9502 9.89844C7.94539 9.89431 7.92701 9.9046 7.93066 9.90919C8.00536 9.99851 8.04265 9.97841 7.9502 9.89844ZM8.30566 9.73829C8.30301 9.73647 8.2976 9.73919 8.31055 9.75196C8.35371 9.79449 8.34737 9.776 8.30566 9.73829ZM5.91406 9.50684C5.86051 9.55383 5.86851 9.57021 5.91797 9.51563C5.91996 9.51343 5.91631 9.50505 5.91406 9.50684ZM8.66992 9.32813C8.71692 9.38174 8.73368 9.37302 8.67871 9.32325C8.67646 9.3213 8.66799 9.3259 8.66992 9.32813ZM9.77148 8.56153C9.69155 8.50155 9.78756 8.61121 9.84863 8.65821C9.90963 8.70514 9.79576 8.57973 9.77148 8.56153ZM9.87109 8.24805C9.83732 8.2216 9.86202 8.26754 9.9043 8.30079C9.93798 8.32714 9.91337 8.28128 9.87109 8.24805ZM9.85645 7.91114C9.86552 7.91042 9.9046 7.98194 9.92773 7.99219C9.97003 8.01084 9.86156 7.88665 9.93555 7.93653C9.94874 7.94549 10.0392 8.06304 10.043 8.07129C10.0087 8.08861 9.80741 7.91825 9.85645 7.91114Z" fill="#555961"/>
</svg>
