<svg width="16" height="16" viewBox="0 0 16 16" fill="none" xmlns="http://www.w3.org/2000/svg">
<path d="M8.10514 6.15011C8.13954 6.07084 8.17917 6.21964 8.18228 6.24386C8.18231 6.24457 8.15289 6.25676 8.16471 6.28976C8.16664 6.35632 8.18183 6.24411 8.18228 6.24386C8.18523 6.2586 8.23869 6.27976 8.25162 6.27023C8.25854 6.26472 8.26369 6.20558 8.26725 6.20382C8.35199 6.16345 8.43727 6.16708 8.50748 6.21554C8.50715 6.22086 8.48938 6.27927 8.49185 6.28195C8.52653 6.3218 8.57734 6.25403 8.63053 6.22238C8.68305 6.19118 8.70842 6.21883 8.68619 6.33078C8.71802 6.32849 8.73571 6.3906 8.74283 6.42746C8.74987 6.4642 8.80907 6.35162 8.81217 6.35031C8.90725 6.30783 8.9089 6.39103 8.95963 6.43527C8.98413 6.45659 9.04776 6.47648 9.08463 6.48605C9.11355 6.49357 9.1095 6.52754 9.14127 6.52804C9.14635 6.52655 9.17584 6.4834 9.17935 6.48019C9.24462 6.44523 9.1486 6.54462 9.13736 6.56808C9.09784 6.65186 9.07524 6.69535 9.12857 6.68527C9.14037 6.68255 9.29069 6.54865 9.31119 6.55148C9.33671 6.55482 9.28264 6.60222 9.31021 6.60421C9.31333 6.60346 9.34277 6.57204 9.35123 6.58273C9.36087 6.59476 9.36981 6.60824 9.37857 6.62179C9.40604 6.66426 9.43023 6.71082 9.46451 6.74582C9.47064 6.75232 9.51706 6.6978 9.52701 6.70675C9.57351 6.7487 9.61342 6.80594 9.62076 6.87375C9.62233 6.89059 9.57726 6.91171 9.56705 6.92257C9.50477 6.98752 9.62569 6.93812 9.63053 6.94113C9.74173 7.00147 9.6808 7.13024 9.77506 7.2048C9.78518 7.20741 9.92316 7.19922 9.82389 7.26242C9.81661 7.26751 9.71375 7.33028 9.79654 7.31711C9.80343 7.31521 9.85506 7.28243 9.85709 7.30539C9.85939 7.32818 9.91 7.34996 9.85514 7.40011C9.83787 7.41655 9.72925 7.47181 9.82877 7.4714C9.83541 7.46987 10.0571 7.45864 9.91666 7.51242C9.89344 7.52119 9.73939 7.5564 9.82584 7.56906C9.84257 7.57157 9.87383 7.55267 9.89908 7.56418C9.9382 7.58293 9.90446 7.62504 9.97916 7.64523C9.9924 7.64831 10.103 7.65709 10.026 7.69015C10.0139 7.6952 9.96002 7.69752 9.95572 7.70871C9.9353 7.76104 9.97583 7.80855 9.94303 7.86105C9.93134 7.87935 9.84568 7.87672 9.82389 7.89523C9.80221 7.91393 9.78183 7.94761 9.82096 7.96457C9.86033 7.98204 9.99632 7.9597 10.0075 7.98898C10.0088 7.99257 10.0103 7.99612 10.0114 7.99972C10.0501 8.12647 9.96276 8.24662 9.92935 8.36203C9.92414 8.37999 9.97497 8.37434 9.97037 8.40207C9.95584 8.50257 9.94369 8.69429 9.81314 8.73703C9.71029 8.76851 9.68385 8.66612 9.63346 8.69894C9.61146 8.71365 9.73926 8.79982 9.74478 8.81027C9.76481 8.88685 9.68271 8.89323 9.67545 8.94992C9.67447 8.96188 9.73523 8.98389 9.73307 8.99386C9.72587 9.02871 9.68329 9.04449 9.67057 9.07394C9.66575 9.08733 9.70719 9.11163 9.69693 9.12082C9.67212 9.14299 9.63849 9.15449 9.58365 9.15207C9.57876 9.15172 9.54016 9.10207 9.52506 9.11789C9.50072 9.14522 9.43844 9.15161 9.44791 9.21261C9.45095 9.23082 9.53592 9.30412 9.45963 9.27414C9.44358 9.2679 9.3474 9.17407 9.41373 9.27414C9.42571 9.29012 9.50243 9.43751 9.4108 9.38644C9.39867 9.37949 9.36967 9.35979 9.34439 9.34445C9.31955 9.32943 9.29861 9.3187 9.29947 9.3298C9.30207 9.33465 9.34715 9.37093 9.34244 9.38351C9.32442 9.42819 9.28607 9.45501 9.26334 9.49875C9.25796 9.51081 9.31083 9.5458 9.30045 9.56222C9.27051 9.60777 9.20828 9.63536 9.15592 9.64816C9.1365 9.65281 9.11731 9.60313 9.11295 9.59933C9.04436 9.53647 9.10352 9.64484 9.10123 9.655C9.08745 9.7155 9.02767 9.68497 9.00064 9.71847C8.9934 9.72799 9.02928 9.77436 9.02994 9.78C9.03436 9.83571 8.99784 9.73694 8.97916 9.73312C8.92709 9.72476 8.88929 9.74937 8.85514 9.77414C8.84289 9.78348 8.88755 9.8378 8.87564 9.84543C8.80527 9.89181 8.71955 9.91834 8.6315 9.90793C8.61506 9.90533 8.60787 9.85286 8.60123 9.8425C8.55619 9.76975 8.56082 9.8875 8.55631 9.90011C8.53836 9.95663 8.51368 9.91614 8.48795 9.93136C8.35949 10.0094 8.17281 10.0027 8.03971 9.98507C8.02632 9.98347 8.01258 9.98134 7.99967 9.97921C7.84347 9.95267 7.72683 9.89766 7.57975 9.87765C7.56953 9.87613 7.56361 9.94653 7.55435 9.94601C7.43428 9.93555 7.33111 9.87317 7.21451 9.84543C7.20487 9.84433 7.19205 9.91002 7.17545 9.90793C7.14083 9.90394 7.10327 9.88218 7.08267 9.84836C7.0728 9.83197 7.1173 9.79036 7.10709 9.77511C7.08369 9.73976 7.05206 9.71733 7.01432 9.70773C6.99801 9.70366 6.98543 9.77451 6.96646 9.76437C6.83731 9.69673 6.70794 9.61456 6.6608 9.45187C6.65951 9.43864 6.74433 9.3349 6.71256 9.34054C6.68513 9.36697 6.65435 9.39957 6.62564 9.42843C6.61552 9.42057 6.605 9.41245 6.59537 9.40402C6.44757 9.27426 6.36442 9.09068 6.28092 8.91964C6.27499 8.91434 6.22103 8.95893 6.21256 8.94504C6.16714 8.85686 6.10744 8.77126 6.14225 8.65207C6.14567 8.64038 6.2679 8.60339 6.24185 8.58371C6.2369 8.58033 6.208 8.54559 6.17838 8.54269C6.17392 8.5424 6.11864 8.5675 6.11295 8.55441C6.08097 8.47808 6.0748 8.38859 6.0983 8.30343C6.10282 8.28997 6.16719 8.29346 6.17057 8.2839C6.1943 8.21779 6.13983 8.1542 6.194 8.09152C6.23112 8.05063 6.34213 8.0602 6.44986 8.03879C6.465 8.03585 6.46714 8.01493 6.52994 8.01339C6.68832 8.00984 6.86211 8.01649 7.03092 8.01144C7.0672 8.01044 7.02856 7.99312 7.11588 8.00265C7.12174 8.00337 7.15145 8.0144 7.18131 8.01632C7.20197 8.01765 7.26616 8.01362 7.29264 8.01632C7.31896 8.01879 7.26567 8.02376 7.29654 8.02804C7.32815 8.032 7.4007 8.02744 7.40982 8.03586C7.43037 8.05524 7.41261 8.08235 7.38834 8.1091C7.38032 8.11726 7.34142 8.12122 7.33463 8.12765C7.32138 8.14063 7.34244 8.14595 7.32682 8.15988C7.32099 8.1647 7.25865 8.17449 7.25455 8.17941C7.23269 8.20707 7.25449 8.22366 7.24869 8.24875C7.22103 8.37525 7.2615 8.4979 7.32584 8.61105C7.33293 8.6235 7.33755 8.6405 7.34244 8.65793C7.35203 8.69282 7.3649 8.73138 7.39908 8.738C7.40504 8.73905 7.43689 8.69486 7.44107 8.69113C7.49557 8.64623 7.42459 8.72861 7.42252 8.74777C7.41923 8.81939 7.45929 8.85329 7.50553 8.85519C7.52525 8.85582 7.56404 8.75185 7.5485 8.8132C7.54755 8.81742 7.51519 8.86676 7.51627 8.87472C7.51916 8.89245 7.54288 8.8932 7.5485 8.90109C7.55929 8.91678 7.56272 8.91727 7.57682 8.92453C7.59545 8.93486 7.60861 8.9721 7.63541 8.96847C7.64113 8.9674 7.65701 8.90807 7.66764 8.90109C7.67821 8.89478 7.69394 8.90627 7.69596 8.9216C7.69767 8.93747 7.68151 8.98129 7.67935 8.99191C7.66217 9.08214 7.72332 8.96805 7.72623 8.96554C7.79273 8.92898 7.82268 9.00833 7.8776 9.01535C7.91804 9.01994 7.96231 8.99908 7.99967 9.00168H8.00064C8.04546 9.00568 8.08769 9.03546 8.13248 9.02414C8.13636 9.02066 8.12237 8.95334 8.1276 8.95187C8.18394 8.93593 8.23843 8.93181 8.31021 8.95871C8.31741 8.96138 8.32886 9.02109 8.33756 9.02902C8.38831 9.06692 8.50814 9.15057 8.41471 8.89523C8.44159 8.89446 8.473 8.89055 8.52017 8.92648C8.55079 8.94937 8.57095 9.01572 8.57389 8.98117C8.57447 8.97349 8.54106 8.9266 8.54264 8.91769C8.55427 8.88564 8.58868 8.88548 8.59244 8.84543C8.59301 8.83716 8.56167 8.79446 8.55728 8.78586C8.52159 8.71704 8.61168 8.80887 8.62174 8.8132C8.69152 8.84704 8.69631 8.80741 8.72135 8.78683C8.72521 8.78076 8.67188 8.73542 8.67545 8.72921C8.68221 8.71806 8.69031 8.70828 8.69986 8.69992C8.71747 8.6845 8.74046 8.67474 8.77115 8.67062C8.78186 8.66927 8.82315 8.71428 8.83072 8.71554C8.8638 8.71957 8.77889 8.64354 8.80728 8.64621C8.8134 8.64669 8.8532 8.68123 8.85807 8.68429C8.93427 8.73103 8.84153 8.64666 8.83951 8.6423C8.82788 8.59427 8.94833 8.65281 8.95182 8.613C8.94852 8.60719 8.89275 8.58016 8.89615 8.57004C8.91895 8.50042 8.96625 8.4456 9.04166 8.39523C9.05334 8.3874 9.09725 8.41225 9.10318 8.41379C9.19627 8.43477 9.07924 8.38342 9.07584 8.37863C9.05318 8.34048 9.16393 8.34201 9.0231 8.28195C9.08967 8.19809 9.05706 8.09558 9.10709 7.99972C9.1194 7.97549 9.13689 7.95065 9.16178 7.92355C9.16323 7.92178 9.22614 7.92033 9.22916 7.91671C9.26118 7.87217 9.16389 7.88685 9.04264 7.87668C9.01378 7.87477 9.15021 7.83824 9.16275 7.83371C9.20036 7.82158 9.29429 7.81459 9.30142 7.81125C9.35584 7.78227 9.05381 7.83264 9.0485 7.81222C9.05229 7.81107 9.10334 7.80438 9.11002 7.80148C9.12641 7.79226 9.10366 7.79059 9.12174 7.78097C9.16372 7.75918 9.30892 7.72127 9.21842 7.7175C9.2064 7.71746 9.03981 7.75975 9.04068 7.73996C9.04224 7.73135 9.02992 7.69803 9.03775 7.68527C9.04548 7.67285 9.09787 7.66269 9.10318 7.66086C9.16576 7.61088 9.19889 7.61174 9.2985 7.56125C9.39718 7.50914 9.15037 7.59903 9.12076 7.60324C9.0914 7.6075 9.14199 7.56661 9.15982 7.55343C9.17786 7.54056 9.21386 7.53426 9.2233 7.52511C9.28399 7.46364 9.09709 7.55957 9.05435 7.56613C8.95518 7.58376 9.12461 7.4908 9.13248 7.45968C9.1344 7.45176 9.0966 7.47549 9.09049 7.47238C9.06747 7.46031 9.11504 7.41979 9.05435 7.42453C9.04414 7.42479 8.93363 7.46698 9.00162 7.41379C9.0114 7.40596 9.05656 7.38536 9.06119 7.37179C9.06802 7.35156 9.06246 7.3238 9.04068 7.32004C9.02392 7.31847 8.96529 7.37157 8.97818 7.34738C8.98404 7.33624 9.02896 7.31959 9.03678 7.3005C9.04434 7.28123 9.02546 7.25699 9.01725 7.24875C9.00911 7.24082 8.96607 7.28063 8.9606 7.2839C8.93952 7.29306 8.90573 7.29467 8.90201 7.29367C8.86977 7.25893 8.85998 7.20738 8.84146 7.1589C8.82545 7.11658 8.80188 7.07697 8.75846 7.06222C8.75035 7.06171 8.71502 7.11288 8.71353 7.113C8.67928 7.11891 8.79964 6.99741 8.81998 6.94113C8.74286 7.04482 8.7484 7.02057 8.72623 7.02121C8.71533 7.02179 8.68902 7.06516 8.68521 7.06906C8.63076 7.12387 8.68247 7.03917 8.69205 7.02121C8.72763 6.9561 8.66964 7.02228 8.69303 6.97824C8.71574 6.93412 8.76858 6.88141 8.7526 6.87179C8.72275 6.90781 8.66543 7.01655 8.6442 7.02609C8.5673 7.06268 8.54325 6.94063 8.51041 6.91476C8.48021 6.88991 8.46518 6.89321 8.45084 6.86984C8.42379 6.82671 8.40443 6.91596 8.36881 6.94699C8.33452 6.97718 8.41559 6.77155 8.4274 6.72531C8.43863 6.67918 8.41922 6.72388 8.42252 6.69796C8.42575 6.67152 8.44665 6.64373 8.43814 6.63058C8.42899 6.61725 8.37305 6.68885 8.35611 6.73605C8.31988 6.83546 8.30226 6.94556 8.28775 6.90207C8.28685 6.89944 8.30571 6.84385 8.30142 6.83664C8.26612 6.78135 8.2161 6.76832 8.17154 6.72238C8.16562 6.71524 8.1801 6.65262 8.17642 6.64816C8.13671 6.60146 8.13902 6.71189 8.10611 6.83078C8.12615 6.67022 8.12213 6.57036 8.0856 6.56711C8.06413 6.56549 8.06425 6.63611 8.04947 6.68527C8.04516 6.69938 8.03231 6.65128 8.02896 6.68429C8.01866 6.79268 8.02818 6.91424 7.99967 6.86593V6.80734C7.99937 6.80408 7.99938 6.80149 7.99869 6.8005C7.96771 6.77717 7.96578 6.89073 7.93717 6.90597C7.91506 6.91717 7.86704 6.85256 7.83658 6.84543C7.81246 6.66573 7.78553 6.71158 7.79654 6.83664C7.77733 6.83503 7.7593 6.84554 7.73795 6.83273C7.73055 6.82779 7.72238 6.77655 7.72037 6.77121C7.68806 6.68867 7.70653 6.80414 7.70475 6.8132C7.67416 6.86868 7.61088 6.79231 7.60025 6.89132C7.59977 6.89496 7.64092 7.01425 7.59928 6.93234C7.59622 6.92673 7.58916 6.86842 7.569 6.87082C7.54945 6.87336 7.48575 6.82604 7.48404 6.89132C7.48326 6.90723 7.51396 7.00594 7.46646 6.94015C7.45989 6.93102 7.44472 6.89823 7.43326 6.88156C7.39626 6.82909 7.45076 6.94371 7.39127 6.85324C7.33165 6.76225 7.268 6.70388 7.27701 6.78488C7.27711 6.78732 7.32149 6.87596 7.31412 6.88156C7.29978 6.88722 7.26978 6.8817 7.2565 6.89132C7.2504 6.89584 7.28715 6.94288 7.28873 6.94699C7.26791 7.00383 7.20774 6.97933 7.14908 6.99679C7.13867 7.00158 7.17313 7.08223 7.11392 7.04562C7.04721 7.00619 6.8535 6.76547 6.861 6.86105C6.86525 6.90456 7.12879 7.18545 6.95572 7.07687C6.9466 7.16301 6.82224 7.1567 6.84146 7.25949C6.84426 7.26552 6.92804 7.32994 6.92447 7.33566C6.91696 7.34325 6.8701 7.3219 6.86295 7.32687C6.83273 7.34781 6.85629 7.39513 6.83658 7.41964C6.82912 7.42916 6.78418 7.40274 6.77506 7.41476C6.76598 7.42712 6.82479 7.46432 6.78678 7.46847C6.75767 7.47127 6.62055 7.43106 6.59635 7.44601C6.72603 7.4982 6.71855 7.51043 6.74478 7.54562C6.74998 7.55239 6.79756 7.56505 6.8024 7.56906C6.82298 7.58531 6.78304 7.57895 6.80631 7.59543C6.81268 7.59957 6.85653 7.61483 6.86392 7.61886C6.92685 7.6528 6.81771 7.63951 6.7985 7.63839C6.72692 7.63246 6.78406 7.65741 6.75455 7.66086C6.72443 7.66481 6.69457 7.63797 6.67447 7.64718C6.63303 7.66692 6.63147 7.70759 6.62369 7.73703C6.62186 7.74873 6.68515 7.75263 6.68619 7.75461C6.69743 7.78045 6.62757 7.79538 6.75162 7.82589C6.42417 7.79828 6.77884 7.8438 6.71256 7.86789C6.70701 7.86977 6.55147 7.85838 6.52994 7.84445C6.50856 7.8303 6.55818 7.81903 6.52506 7.79855C6.51391 7.79325 6.37738 7.75012 6.36881 7.74484C6.30482 7.70749 6.5348 7.74359 6.54752 7.74484C6.68496 7.75576 6.53592 7.70231 6.52701 7.69211C6.48514 7.64951 6.52283 7.62943 6.49576 7.59347C6.47702 7.56982 6.33347 7.52663 6.34244 7.51242C6.37336 7.46357 6.57791 7.51937 6.42154 7.41183C6.38839 7.38847 6.22929 7.33789 6.36588 7.34836C6.3768 7.34889 6.49495 7.36786 6.43228 7.32394C6.4242 7.31826 6.3799 7.30003 6.37662 7.29562C6.36006 7.26763 6.40134 7.27116 6.39322 7.24484C6.38514 7.21846 6.37149 7.1834 6.39713 7.16964C6.41309 7.16139 6.50076 7.1879 6.5231 7.19308C6.58744 7.2083 6.50626 7.13966 6.57877 7.16867C6.65096 7.1989 6.74256 7.27583 6.7985 7.28C6.69081 7.21438 6.58085 7.14505 6.4733 7.07785C6.51313 7.02058 6.58495 6.98877 6.62174 6.93234C6.62622 6.92525 6.56867 6.89099 6.57096 6.88156C6.58718 6.84348 6.64646 6.84793 6.65885 6.80539C6.66817 6.77211 6.64001 6.6966 6.65201 6.6589C6.66046 6.66515 6.66817 6.67078 6.67545 6.6755C6.76853 6.73623 6.77122 6.67691 6.80435 6.66379C6.81667 6.65925 6.84146 6.68815 6.85611 6.69211C6.91068 6.70633 6.81621 6.61965 6.81021 6.59836C6.78697 6.5066 6.97287 6.72755 7.00064 6.69699C7.00147 6.69524 6.93208 6.55515 6.93033 6.54464C6.915 6.47892 6.96544 6.5858 6.98502 6.58566C7.0208 6.58569 7.05672 6.60439 7.06021 6.54855C7.06023 6.53107 7.03149 6.43837 7.08658 6.49093C7.09362 6.49774 7.11753 6.54016 7.12174 6.54367C7.17755 6.56807 7.09815 6.4304 7.09146 6.37179C7.08545 6.31311 7.1692 6.39406 7.18912 6.41964C7.24168 6.48458 7.19309 6.45691 7.19596 6.46457C7.23083 6.55376 7.24358 6.52973 7.26236 6.52902C7.33476 6.66759 7.34999 6.64971 7.28189 6.52804C7.27431 6.51478 7.26861 6.53387 7.26236 6.52902C7.20651 6.38504 7.22791 6.3526 7.31412 6.4714C7.35413 6.52733 7.37443 6.60388 7.39908 6.56222C7.41039 6.54334 7.36315 6.44674 7.36783 6.41281C7.38076 6.33534 7.46442 6.41199 7.49674 6.38546C7.50866 6.37545 7.47828 6.32416 7.486 6.31515C7.508 6.29171 7.54341 6.32731 7.56412 6.29855C7.56487 6.29331 7.54514 6.23944 7.5524 6.23507C7.61641 6.21161 7.68183 6.23865 7.74967 6.23019C7.78227 6.22586 7.83877 6.18588 7.87467 6.19015C7.91437 6.19478 7.96061 6.23287 7.99967 6.25461C8.02148 6.26658 8.04226 6.27348 8.06021 6.26632C8.09261 6.25323 8.08819 6.19122 8.10514 6.15011ZM6.48697 8.10421C6.4153 8.10093 6.41165 8.13221 6.48502 8.11984C6.48784 8.11927 6.48953 8.10523 6.48697 8.10421ZM6.58658 7.96847C6.60077 7.90849 6.86425 7.90111 6.8317 7.94992C6.82399 7.95808 6.74925 7.92526 6.72525 7.93625C6.68096 7.95918 6.84496 7.97761 6.7565 7.99972C6.73873 8.00432 6.58555 7.97286 6.5856 7.96847H6.58658ZM9.22525 7.95089C9.21911 7.95184 9.21393 7.97787 9.21939 7.97921C9.33622 7.99285 9.347 7.93279 9.22525 7.95089ZM6.59342 7.54757C6.54972 7.54267 6.58992 7.58014 6.6442 7.58566C6.68713 7.59055 6.64714 7.55455 6.59342 7.54757ZM9.23111 7.41183C9.22862 7.41397 9.23032 7.42265 9.24674 7.41476C9.30158 7.38833 9.27991 7.38353 9.23111 7.41183ZM6.63834 6.99582C6.56569 6.96658 6.69432 7.07765 6.7233 7.08859C6.81728 7.12712 6.71052 7.02682 6.63834 6.99582ZM8.65787 6.8425C8.69941 6.78416 8.67808 6.76513 8.64713 6.83273C8.64603 6.83536 8.65564 6.84397 8.65787 6.8425Z" fill="#555961"/>
<path d="M7.66796 3.83109C7.70203 3.7531 7.73272 3.84977 7.74023 3.87015C7.76798 3.94337 7.79214 3.85519 7.81054 3.90433C7.82831 3.95313 7.79287 4.02668 7.84179 4.02445C7.85439 3.97765 7.81462 3.85826 7.85156 3.83695C7.89226 3.81482 7.94435 3.80625 7.99999 3.80667C8.14033 3.80735 8.30057 3.86469 8.38281 3.87698C8.49718 3.89398 8.5362 3.88928 8.60156 3.91214C8.71856 3.95408 8.68417 3.86053 8.76464 3.82816C8.8464 3.79667 8.78141 4.01174 8.78613 4.06058C8.79036 4.1092 8.80797 4.06216 8.81738 4.08988C8.82659 4.11757 8.7948 4.14639 8.82324 4.16019C8.8512 4.17372 8.94571 4.10207 8.96484 4.05472C9.00444 3.95412 8.98427 3.8374 9.06054 3.88968C9.06472 3.89298 9.03969 3.94819 9.05663 3.95706C9.19132 4.02568 9.33684 4.05961 9.46581 4.13284C9.48301 4.14332 9.45099 4.20146 9.46093 4.20804C9.56365 4.27709 9.55043 4.16119 9.64648 4.06155C9.58907 4.21352 9.59722 4.31789 9.68066 4.34378C9.73093 4.35955 9.74284 4.28907 9.79101 4.25198C9.80559 4.24115 9.82698 4.29868 9.84374 4.26956C9.89921 4.17376 9.90272 4.04663 9.97753 4.1221C9.98073 4.12562 9.94951 4.17851 9.96191 4.18655C10.0412 4.23874 10.09 4.13504 10.1904 4.15823C10.2693 4.17642 10.3745 4.29416 10.4512 4.34085C10.3763 4.50654 10.4675 4.50226 10.5518 4.40335C10.6024 4.43252 10.6618 4.45355 10.7041 4.49417C10.718 4.50835 10.683 4.54956 10.6826 4.5557C10.6752 4.65138 10.7531 4.55409 10.7666 4.5557C10.9083 4.57724 10.9589 4.71122 11.1152 4.69925C11.1232 4.6948 11.1922 4.59726 11.1748 4.69241C11.1717 4.6994 11.1075 4.72584 11.1562 4.76077C11.2062 4.79638 11.265 4.91403 11.3672 4.91214C11.3918 4.91124 11.4927 4.85581 11.4814 4.94534C11.4798 4.95743 11.4542 4.98384 11.4492 5.00491C11.4333 5.07204 11.5173 4.97574 11.4795 5.08109C11.4416 5.1873 11.4422 5.28712 11.5527 5.2764C11.5602 5.27224 11.6327 5.20805 11.6523 5.22464C11.6846 5.25243 11.7183 5.3054 11.7529 5.33206C11.7695 5.34373 11.7982 5.28677 11.8018 5.28812C11.9352 5.34982 11.9763 5.45816 12.0732 5.5762C12.0906 5.59754 12.2072 5.5874 12.2012 5.67386C12.1938 5.76842 11.9409 5.95358 12.085 5.98929C12.1419 6.00302 12.4676 5.77299 12.3926 5.98538C12.5615 6.08482 12.6042 6.28362 12.7812 6.37698C12.7898 6.38077 12.8881 6.33033 12.9014 6.34573C12.9193 6.37018 12.892 6.41612 12.9033 6.4346C12.9489 6.51186 13.0344 6.5471 13.084 6.61917C13.1025 6.64602 13.0545 6.6702 13.0762 6.70218C13.0979 6.73416 13.1686 6.71194 13.1748 6.77445C13.1789 6.82195 13.0916 6.94057 13.1094 6.99124C13.2221 6.90809 13.2413 6.93817 13.3096 6.9678C13.3228 6.97328 13.354 6.9334 13.3623 6.9346C13.3967 6.93901 13.3775 6.98113 13.4131 6.98343C13.4217 6.98404 13.4604 6.95632 13.4697 6.95511C13.55 6.94551 13.5003 7.059 13.4912 7.07913C13.4576 7.15448 13.519 7.13431 13.5146 7.17679C13.5101 7.2189 13.4546 7.20027 13.4619 7.24027C13.4779 7.32408 13.5392 7.39958 13.581 7.46585C13.5979 7.49207 13.6389 7.43949 13.6426 7.44241C13.6924 7.48764 13.6718 7.5787 13.7978 7.53909C13.5462 7.75598 13.8459 7.55464 13.8408 7.66898C13.8375 7.67979 13.7138 7.76828 13.6797 7.75784C13.6456 7.7468 13.663 7.68553 13.6123 7.67288C13.5978 7.67049 13.4505 7.70588 13.4394 7.70511C13.3522 7.69763 13.5401 7.56277 13.5498 7.55277C13.6452 7.44886 13.4819 7.4824 13.4619 7.47562C13.3781 7.44081 13.3677 7.3689 13.3018 7.33695C13.2587 7.31653 13.1329 7.40081 13.1182 7.3721C13.0698 7.27771 13.2164 7.12055 13.0088 7.14945C12.9643 7.15577 12.8441 7.27271 12.9023 7.13284C12.9064 7.12396 12.9658 7.00571 12.8857 7.02542C12.8758 7.02794 12.8386 7.05641 12.831 7.0557C12.7878 7.04302 12.8028 7.00009 12.7637 6.9805C12.7246 6.96097 12.6735 6.94209 12.6572 6.89652C12.6476 6.8692 12.6945 6.78429 12.7031 6.7598C12.7282 6.69033 12.6235 6.72699 12.667 6.66019C12.7109 6.59212 12.8314 6.55092 12.8291 6.47073C12.7318 6.55091 12.6298 6.63116 12.5312 6.71097C12.4484 6.60759 12.3917 6.48363 12.2969 6.39066C12.2851 6.37937 12.2474 6.43678 12.2334 6.42679C12.1755 6.38113 12.164 6.30024 12.0967 6.2598C12.0445 6.22904 11.9477 6.23386 11.8916 6.20511C11.9645 6.07518 11.8645 6.04748 11.8242 5.9932C11.8102 5.97429 11.8366 5.94723 11.833 5.92679C11.8172 5.85023 11.7535 5.96508 11.7275 5.96878C11.6181 5.98483 11.8016 5.76295 11.7295 5.71097C11.7212 5.71071 11.5852 5.78841 11.5723 5.79202C11.4953 5.80928 11.5999 5.74631 11.584 5.71781C11.5535 5.66604 11.5445 5.61255 11.4648 5.60745C11.4406 5.60667 11.3472 5.65323 11.3623 5.5723C11.3646 5.56155 11.3963 5.52473 11.3965 5.51859C11.3685 5.43552 11.2709 5.5627 11.207 5.58304C11.1441 5.60308 11.1575 5.47776 11.165 5.44437C11.1845 5.35841 11.2057 5.42956 11.2119 5.42484C11.2849 5.35883 11.2375 5.34523 11.2129 5.31839C11.2977 5.18672 11.2499 5.16556 11.1865 5.29105C11.1797 5.30467 11.2107 5.30857 11.2129 5.31839C11.0995 5.42686 11.0467 5.41486 11.0752 5.26175C11.0885 5.19013 11.154 5.13905 11.0654 5.11624C11.0253 5.10613 10.9807 5.20449 10.9365 5.21195C10.8359 5.22815 10.8008 5.09119 10.7226 5.06546C10.6948 5.05668 10.6907 5.11991 10.6709 5.11624C10.6177 5.10491 10.5978 5.04428 10.541 5.04007C10.5356 5.04112 10.5173 5.10001 10.5029 5.09378C10.3917 5.04392 10.3137 4.96207 10.1973 4.90921C10.1413 4.88366 10.0271 4.87268 9.9707 4.84378C9.8733 4.79309 9.77302 4.66233 9.6748 4.65433C9.61171 4.64925 9.6063 4.71247 9.56933 4.74515C9.49855 4.80883 9.45394 4.64429 9.44726 4.61917C9.45284 4.61832 9.50006 4.61681 9.48241 4.58109C9.48372 4.51566 9.45053 4.61114 9.44726 4.61917C9.4425 4.60257 9.34267 4.56264 9.31933 4.56937C9.30683 4.5738 9.2992 4.63204 9.29296 4.63284C9.14406 4.65081 9.00672 4.63793 8.87109 4.5889C8.8688 4.58735 8.88237 4.52382 8.87695 4.52054C8.79859 4.47892 8.73457 4.55159 8.6621 4.59085C8.58926 4.63016 8.53947 4.60884 8.50878 4.4932C8.45634 4.50262 8.3863 4.44864 8.34472 4.41605C8.30304 4.38345 8.28992 4.51042 8.28613 4.51273C8.17236 4.58351 8.11057 4.52082 7.99999 4.50394C7.99365 4.50298 7.9871 4.50259 7.98046 4.50198C7.92204 4.4963 7.80788 4.51729 7.74609 4.53421C7.6978 4.54746 7.6666 4.51953 7.62304 4.54105C7.61732 4.5439 7.62596 4.59712 7.62499 4.60257C7.5802 4.67371 7.59419 4.53381 7.58202 4.5098C7.53772 4.42299 7.50875 4.37702 7.44726 4.42484C7.43258 4.43595 7.40954 4.63951 7.38476 4.65433C7.35206 4.67291 7.35631 4.59997 7.32226 4.62113C7.31933 4.62292 7.32511 4.66715 7.30273 4.668C7.19928 4.67248 7.08284 4.66491 6.97753 4.68948C6.96324 4.69275 6.99462 4.75769 6.9746 4.7637C6.87933 4.79051 6.77421 4.81147 6.67284 4.80374C6.64779 4.80162 6.64928 4.75015 6.64062 4.73734C6.5882 4.66203 6.57652 4.79051 6.57031 4.79984C6.41775 4.90646 6.25212 4.83928 6.10058 4.95609C6.09177 4.96398 6.07316 5.11722 5.99804 5.02152C5.99318 5.01504 5.91559 4.91683 5.91991 5.00394C5.92029 5.00939 5.96355 5.05895 5.92773 5.06741C5.89184 5.07624 5.85601 5.13641 5.78222 5.09573C5.75892 5.08243 5.67246 4.99124 5.67089 5.09769C5.67021 5.10535 5.70282 5.33145 5.6123 5.20999C5.59746 5.19001 5.52852 5.04725 5.51464 5.14554C5.51231 5.16454 5.54617 5.18697 5.53124 5.21976C5.50873 5.26979 5.43786 5.26089 5.42577 5.34866C5.42358 5.36487 5.44288 5.47627 5.37499 5.42191C5.36425 5.41329 5.34563 5.3628 5.32812 5.36624C5.2443 5.38285 5.19104 5.45683 5.10253 5.47073C5.0712 5.47547 5.03734 5.39704 4.99902 5.39456C4.96025 5.39263 4.89534 5.40924 4.89062 5.45999C4.88619 5.51055 4.99263 5.60262 4.95995 5.6387C4.81993 5.79446 4.61021 5.85687 4.44335 5.98441C4.41863 6.00337 4.46941 6.02314 4.43554 6.05374C4.31055 6.16546 4.13262 6.39879 3.95702 6.43265C3.81486 6.46073 3.87426 6.30873 3.78613 6.35159C3.74338 6.37315 3.82386 6.5135 3.82226 6.52738C3.78879 6.63741 3.68831 6.64495 3.64257 6.72952C3.63317 6.74703 3.69303 6.77472 3.68456 6.78909C3.65623 6.83827 3.59657 6.86533 3.5664 6.90921C3.55292 6.92914 3.59285 6.95722 3.57616 6.97171C3.53601 7.00669 3.49014 7.03032 3.42187 7.04202C3.41563 7.0431 3.38778 6.97964 3.36132 7.00882C3.31873 7.05619 3.23316 7.09173 3.2246 7.17972C3.22274 7.20602 3.31085 7.27394 3.22167 7.26468C3.20292 7.26276 3.10276 7.17186 3.1621 7.28519C3.17173 7.30437 3.24333 7.47084 3.13574 7.44827C3.10735 7.44211 2.99953 7.40286 2.99804 7.4346C2.99962 7.43954 3.05571 7.46252 3.04784 7.48343C3.01913 7.55715 2.9662 7.62111 2.93749 7.69632C2.92987 7.71657 2.99868 7.72608 2.98632 7.75491C2.95098 7.83441 2.87729 7.9156 2.81542 7.97562C2.83842 8.02255 2.85909 8.07092 2.87499 8.12015C2.88252 8.1453 2.83022 8.16088 2.82324 8.17191C2.77459 8.24871 2.89825 8.23069 2.91503 8.23441C2.98766 8.25302 2.96166 8.29702 2.99706 8.33304C3.16962 8.50778 3.32151 8.76291 3.44921 8.95023C3.61531 9.19365 3.73132 9.39872 3.93554 9.59085C3.94836 9.60292 3.98515 9.54291 3.99706 9.55179C4.14597 9.67999 4.26679 9.83152 4.42675 9.94437C4.43979 9.95286 4.46624 9.88841 4.48827 9.9014C4.53386 9.92772 4.58125 9.97286 4.60839 10.0225C4.62147 10.0465 4.55924 10.0684 4.57324 10.0918C4.60653 10.1466 4.6541 10.191 4.70995 10.2207C4.73363 10.2331 4.74321 10.1562 4.7705 10.1758C4.95849 10.3113 5.14804 10.4262 5.30273 10.6201C5.31332 10.6334 5.25632 10.7592 5.2998 10.7539C5.32101 10.7225 5.34303 10.6839 5.36425 10.6494C5.66427 10.7978 5.9435 10.9791 6.25878 11.0967C6.27164 11.1002 6.27271 11.0255 6.29784 11.0342C6.44568 11.0861 6.5944 11.1086 6.73339 11.2168C6.74725 11.2274 6.70959 11.3492 6.76074 11.3418C6.76981 11.3404 6.8453 11.34 6.86913 11.3164C6.87232 11.3116 6.87202 11.252 6.89452 11.2549C7.02667 11.2733 7.16141 11.3091 7.29003 11.3623C7.31083 11.371 7.28002 11.4318 7.29491 11.4385C7.4019 11.486 7.52693 11.4493 7.62988 11.5137C7.69872 11.5571 7.66611 11.6654 7.70019 11.7754C7.70537 11.7909 7.75194 11.7956 7.75195 11.8584C7.75219 12.017 7.72078 12.1893 7.72363 12.3584C7.72423 12.395 7.79506 12.3589 7.75097 12.4453C7.74715 12.4514 7.69669 12.4781 7.68261 12.5069C7.67293 12.527 7.68501 12.5915 7.66601 12.6172C7.64662 12.6427 7.62918 12.588 7.59765 12.6172C7.56598 12.6468 7.57471 12.7211 7.51366 12.7256C7.37095 12.7356 7.18752 12.6956 7.05273 12.6475C7.01033 12.6325 7.03756 12.5962 7.00878 12.584C6.95281 12.5603 6.89589 12.57 6.84179 12.542C6.82393 12.5325 6.85767 12.4754 6.83886 12.4668C6.73572 12.4203 6.63175 12.415 6.52636 12.377C6.01024 12.1901 5.52072 11.9804 5.05566 11.7032C4.90128 11.6116 4.74545 11.4549 4.57909 11.377C4.5597 11.368 4.54004 11.4212 4.53417 11.4229C4.44286 11.4463 4.52136 11.3642 4.49511 11.3291C4.3901 11.1895 4.24805 11.0808 4.11132 11.002C4.05285 10.9683 4.038 11.0961 4.02245 11.0059C4.02134 10.9997 4.0711 10.9636 4.06054 10.9473C4.03643 10.9107 3.96918 10.8708 3.94726 10.8467C3.90561 10.8004 3.89718 10.7937 3.85351 10.7559C3.79413 10.7036 3.74132 10.6183 3.66991 10.5713C3.6545 10.5627 3.63165 10.6223 3.60351 10.6104C3.57503 10.5982 3.52199 10.542 3.51269 10.5137C3.50341 10.4854 3.54374 10.4583 3.54784 10.4473C3.58311 10.3558 3.43492 10.3857 3.42284 10.3799C3.23556 10.271 3.16399 10.0914 3.03417 9.9473C2.93567 9.83817 2.8144 9.73317 2.72851 9.62308C2.62505 9.49004 2.56494 9.35891 2.46386 9.23343C2.45325 9.22012 2.40863 9.27802 2.3955 9.26175C2.25514 9.08736 2.1349 8.90325 2.05273 8.69339C2.04452 8.67224 2.11149 8.66085 2.10644 8.63773C2.07456 8.49769 2.06583 8.25632 1.79491 8.33109C1.77123 8.28048 1.74403 8.22263 1.72753 8.16312C1.67087 8.08111 1.68215 7.92573 1.72753 7.83695C1.75624 7.80963 1.78846 7.78564 1.82324 7.76956C1.88029 7.74367 1.91101 7.82147 1.91991 7.75198C1.92087 7.73648 1.86218 7.72121 1.86913 7.70023C1.89849 7.61164 1.96863 7.53597 1.99218 7.44339C1.99639 7.42447 1.94947 7.40023 1.94433 7.39066C1.90354 7.3112 2.0516 7.31988 2.06835 7.31155C2.19401 7.24763 2.2197 7.16155 2.2871 7.06839C2.30258 7.04713 2.22723 7.03174 2.23925 7.0098C2.30688 6.89615 2.39394 6.78768 2.49706 6.70413C2.52006 6.68658 2.55202 6.74309 2.56542 6.73636C2.62379 6.70625 2.54227 6.62556 2.59765 6.59476C2.60942 6.58889 2.64522 6.62487 2.65136 6.62698C2.74336 6.65487 2.66255 6.55286 2.66601 6.54398C2.70639 6.432 2.85511 6.45772 2.91015 6.36331C2.91672 6.35181 2.84749 6.33163 2.86913 6.30179C3.01444 6.10117 3.20436 5.9205 3.41406 5.78421C3.44545 5.76394 3.46141 5.81434 3.46777 5.81937C3.56199 5.85957 3.4906 5.75279 3.49609 5.74027C3.54197 5.6464 3.67977 5.66233 3.62499 5.50589C3.96292 5.26396 4.23965 4.93628 4.66015 4.82425C4.66576 4.82401 4.69206 4.88016 4.70214 4.87698C4.82478 4.83959 4.75188 4.77088 4.76074 4.62503C4.76442 4.58919 4.89209 4.67883 4.90234 4.68558C4.93913 4.70841 4.96842 4.79728 4.97851 4.80277C5.05591 4.82598 4.89228 4.56321 4.95995 4.52445C4.96231 4.5237 4.98179 4.57828 4.99023 4.58011C5.01642 4.58569 5.02314 4.55686 5.0498 4.56448C5.11116 4.58288 5.19489 4.7063 5.21288 4.59866C5.21526 4.58466 5.12184 4.43588 5.18749 4.41116C5.21355 4.40129 5.32163 4.34398 5.35741 4.33988C5.39311 4.33551 5.39613 4.39635 5.39941 4.39749C5.51338 4.42644 5.49493 4.46971 5.58105 4.55179C5.66582 4.63389 5.54883 4.40125 5.55273 4.36527C5.55786 4.33087 5.64384 4.36047 5.66699 4.37405C5.69004 4.38758 5.68537 4.42891 5.70312 4.4346C5.82009 4.47162 5.69188 4.29804 5.70507 4.2471C5.7385 4.12691 5.86541 4.28737 5.93456 4.28226C5.95271 4.28039 5.92411 4.24409 5.93749 4.23441C5.99347 4.19731 6.05008 4.24198 6.10253 4.16605C6.11077 4.1537 6.13316 4.02315 6.19628 4.09378C6.2051 4.10423 6.20488 4.15495 6.23437 4.15726C6.27861 4.16068 6.35233 4.15033 6.39062 4.12308C6.41892 4.10283 6.36157 4.03573 6.4082 4.04886C6.42855 4.05503 6.40823 4.10852 6.44531 4.11624C6.48257 4.12371 6.5667 4.10088 6.59863 4.09183C6.63035 4.08262 6.59893 4.02709 6.60058 4.02249C6.61095 3.99642 6.66532 3.95488 6.67284 3.95218C6.95521 3.88338 7.23102 3.94702 7.50292 3.89163C7.52437 3.88726 7.50554 3.82555 7.50878 3.82425C7.5818 3.79238 7.53532 3.96503 7.58984 4.01859C7.57406 3.89005 7.6059 3.91144 7.65722 3.89456C7.68203 3.8863 7.66601 3.83652 7.66796 3.83109ZM7.54784 11.7998C7.57082 11.7302 7.50453 11.7191 7.51269 11.794C7.51301 11.797 7.54655 11.8027 7.54784 11.7998ZM13.8887 7.97269C13.8252 7.84374 14.0009 7.6306 14.0596 7.78128C14.0694 7.80818 13.955 7.77296 13.9541 7.81644C13.9529 7.89491 14.1159 7.84768 14.0762 7.95218C14.0686 7.97098 13.8922 7.98014 13.8887 7.97269ZM13.3496 7.16312C13.3727 7.12145 13.2981 7.10359 13.2695 7.1553C13.247 7.19641 13.3208 7.21424 13.3496 7.16312ZM12.5166 6.37015C12.552 6.26323 12.4199 6.33435 12.3896 6.41409C12.359 6.49351 12.5055 6.4026 12.5166 6.37015ZM4.61523 4.92777C4.61 4.92353 4.53984 4.96432 4.54101 4.97073C4.57302 5.08975 4.7127 5.00923 4.61523 4.92777ZM5.97363 4.38382C5.9711 4.38126 5.94813 4.3871 5.95507 4.40433C5.97787 4.46071 6.00339 4.43277 5.97363 4.38382ZM8.09863 3.99905C8.0791 4.0699 8.14755 4.07715 8.13476 4.00296C8.13399 4.00001 8.10073 3.9964 8.09863 3.99905Z" fill="#555961"/>
<path d="M12.0081 10.1742C12.2107 9.44018 13.1702 9.42876 13.3255 10.1742C13.388 10.2683 13.3473 10.3906 13.3763 10.4984C13.3807 10.5145 13.421 10.4847 13.431 10.5062C13.467 10.5898 13.5723 10.7053 13.5208 10.8236C13.4801 10.92 13.3844 10.8798 13.3802 10.9408C13.3803 10.9701 13.5295 10.9124 13.5365 10.9144C13.6082 10.9356 13.5702 11.0063 13.6165 11.0365C13.6271 11.0408 13.6724 10.9984 13.68 11.0033C13.7057 11.0211 13.7009 11.0627 13.722 11.0824C13.7319 11.09 13.7682 11.0606 13.7728 11.0707C13.7824 11.0976 13.7807 11.1299 13.762 11.18C13.7578 11.1855 13.7029 11.2093 13.7142 11.2269C13.7329 11.2558 13.7267 11.3186 13.7884 11.3177C13.8075 11.3166 13.8892 11.2434 13.849 11.3128C13.8405 11.3275 13.7376 11.4138 13.8431 11.3568C13.8626 11.3473 14.0055 11.2747 13.9505 11.3607C13.9432 11.3723 13.9222 11.401 13.9066 11.4261C13.8914 11.4505 13.8813 11.4717 13.8919 11.471C13.8952 11.4704 13.9321 11.4226 13.9447 11.4261C13.9875 11.4406 14.0143 11.4751 14.0579 11.4886C14.0697 11.4917 14.0988 11.4344 14.1146 11.4408C14.1579 11.4581 14.1899 11.5051 14.2122 11.5472C14.22 11.5629 14.1796 11.5968 14.1771 11.6019C14.1369 11.6854 14.2199 11.5962 14.2298 11.5931C14.2864 11.5821 14.2765 11.6461 14.3148 11.6546C14.3252 11.6569 14.353 11.6044 14.3577 11.6009C14.4029 11.5701 14.3318 11.648 14.3353 11.6654C14.347 11.7131 14.3848 11.7315 14.4202 11.7445C14.4333 11.7491 14.456 11.6832 14.4671 11.6878C14.5333 11.7144 14.5925 11.7552 14.638 11.8197C14.6464 11.832 14.6165 11.875 14.6136 11.8871C14.5944 11.971 14.67 11.8808 14.68 11.8734C14.7269 11.8407 14.7179 11.8861 14.7445 11.889C14.8755 11.8997 15.0083 11.9772 15.1195 12.0248C15.1304 12.0295 15.1411 12.0347 15.1517 12.0394C15.8511 12.2324 15.862 13.1463 15.1517 13.2943C15.0118 13.3021 14.887 13.2987 14.762 13.3626C14.754 13.3676 14.7894 13.4285 14.7826 13.433C14.6939 13.488 14.5897 13.5084 14.5091 13.5775C14.5033 13.5836 14.5456 13.6343 14.5365 13.6449C14.5179 13.6671 14.487 13.6813 14.4525 13.6781C14.4357 13.6759 14.4211 13.6188 14.4046 13.6185C14.3659 13.6179 14.3336 13.6339 14.3118 13.6615C14.3028 13.6733 14.3577 13.7166 14.3441 13.7279C14.2461 13.8043 14.1633 13.8869 14.0111 13.9105C14.0007 13.912 13.8995 13.8182 13.9036 13.8509C13.9291 13.8792 13.9607 13.9112 13.9886 13.9408C13.9815 13.9496 13.9745 13.9586 13.9671 13.9671C13.8554 14.0972 13.7143 14.2024 13.6117 14.346C13.6071 14.3524 13.6756 14.3816 13.6673 14.3939C13.6194 14.4659 13.5955 14.5451 13.4906 14.5912C13.4787 14.5947 13.3693 14.5345 13.3734 14.5667C13.3743 14.5727 13.3721 14.6178 13.3929 14.639C13.3983 14.6426 13.4533 14.6612 13.4495 14.6732C13.4265 14.744 13.3844 14.8095 13.3245 14.8675C13.3144 14.8765 13.2588 14.8424 13.2513 14.849C13.1979 14.8976 13.2235 14.9773 13.1517 15.0199C13.1033 15.049 13.0008 15.0061 12.89 15.0013C12.8746 15.0012 12.865 15.0266 12.804 15.013C12.7625 15.0039 12.7208 14.9914 12.6781 14.9798C12.6297 14.978 12.5767 14.9746 12.5765 14.972C12.5758 14.9659 12.5777 14.9599 12.5794 14.9535C12.4938 14.9294 12.406 14.9055 12.3187 14.8871C12.2835 14.88 12.3104 14.9326 12.2318 14.8861C12.2265 14.8829 12.2058 14.844 12.179 14.8285C12.1605 14.8177 12.0962 14.8115 12.0736 14.7933C12.0511 14.7749 12.1061 14.7758 12.0814 14.7484C12.0564 14.7207 11.9836 14.7095 11.9867 14.6673C11.9927 14.5888 12.0327 14.4997 12.0794 14.4271L12.0775 14.4281C12.0369 14.4355 11.8966 14.5251 11.9906 14.4261C11.9967 14.4202 12.0854 14.3327 12.0101 14.3539C12.0001 14.3571 11.961 14.3796 11.9544 14.3802C11.9215 14.376 11.9474 14.3448 11.9202 14.3353C11.8929 14.3259 11.8554 14.3182 11.8558 14.2884C11.8563 14.2705 11.9217 14.2045 11.9359 14.1859C11.9763 14.1331 11.8779 14.1724 11.9329 14.1185C11.9887 14.0629 12.1021 14.0182 12.1214 13.9584C12.0176 14.0299 11.9096 14.1015 11.805 14.1732C11.7666 14.1111 11.7539 14.0279 11.7015 13.974C11.6938 13.9693 11.6491 14.0187 11.6409 14.013C11.6066 13.9891 11.6188 13.93 11.5755 13.9115C11.5418 13.8975 11.4661 13.9208 11.43 13.9105C11.4363 13.9021 11.4419 13.8943 11.4466 13.8871C11.5071 13.7941 11.4451 13.7898 11.4281 13.7582C11.4216 13.746 11.4478 13.7182 11.4495 13.7025C11.4541 13.6441 11.3813 13.7491 11.3607 13.7582C11.2742 13.796 11.4608 13.5765 11.4163 13.5482C11.4138 13.5464 11.2932 13.6434 11.2826 13.6498C11.2223 13.6813 11.3122 13.6053 11.306 13.5853C11.294 13.5493 11.2975 13.5057 11.2406 13.5189C11.2235 13.5228 11.1462 13.5855 11.1722 13.513C11.1759 13.5031 11.2065 13.463 11.2064 13.4593C11.2006 13.3949 11.1084 13.5255 11.0599 13.558C11.0117 13.5906 11.0435 13.4795 11.054 13.4486C11.0814 13.3711 11.0852 13.4248 11.0902 13.4212C11.1527 13.3475 11.122 13.3463 11.1087 13.3285C11.1895 13.1945 11.158 13.1865 11.0941 13.3109C11.0876 13.324 11.1088 13.3204 11.1087 13.3285C11.0112 13.4487 10.9779 13.4513 11.0208 13.3099C11.0407 13.2438 11.0932 13.1839 11.0345 13.183C11.0077 13.1828 10.9624 13.281 10.931 13.2972C10.8604 13.3346 10.8557 13.2195 10.806 13.2132C10.7884 13.2113 10.7777 13.271 10.765 13.2718C10.7314 13.2736 10.7255 13.2223 10.6888 13.2308C10.6855 13.2317 10.6662 13.2914 10.6576 13.2884C10.5917 13.2676 10.5497 13.2083 10.4808 13.183C10.4472 13.1709 10.3776 13.1838 10.3451 13.1673C10.3085 13.1488 10.2739 13.098 10.2367 13.0667C9.79062 12.9437 9.78368 12.3604 10.2367 12.266C10.2627 12.2719 10.2861 12.2726 10.3031 12.2601C10.3342 12.2372 10.31 12.1797 10.3128 12.1351C10.3171 12.0493 10.4078 12.1746 10.4222 12.1937C10.4216 12.1953 10.3979 12.2179 10.4222 12.2425C10.4506 12.301 10.4236 12.1996 10.4222 12.1937C10.4317 12.206 10.493 12.2 10.5013 12.1849C10.5053 12.1769 10.4839 12.1258 10.4847 12.1195C10.543 12.0433 10.6084 12.0002 10.6927 11.9916C10.6945 11.992 10.7199 12.0524 10.724 12.0531C10.7798 12.0593 10.7728 11.9729 10.7845 11.9134C10.7964 11.854 10.8286 11.855 10.9036 11.9417C10.9223 11.9152 10.9837 11.9369 11.0208 11.9496C11.0581 11.9622 10.9941 11.8512 10.9945 11.848C11.0071 11.7455 11.0769 11.7861 11.14 11.7552C11.1699 11.7408 11.2104 11.6873 11.2288 11.6546C11.2433 11.6289 11.2751 11.6414 11.2826 11.6107C11.2835 11.6066 11.2446 11.5657 11.2435 11.5628C11.2207 11.4932 11.3011 11.6073 11.3216 11.6224C11.3962 11.6769 11.4384 11.7035 11.4388 11.6468C11.4392 11.6334 11.3232 11.4688 11.3255 11.4505C11.3294 11.4269 11.3732 11.4835 11.3763 11.4574C11.3766 11.4551 11.346 11.4237 11.3558 11.4164C11.3672 11.4082 11.3793 11.3998 11.3919 11.3919C11.4312 11.3677 11.4742 11.3431 11.5023 11.307C11.5074 11.3006 11.449 11.2612 11.4554 11.2513C11.4854 11.2052 11.5247 11.1621 11.5833 11.14C11.5979 11.1348 11.6315 11.1703 11.6449 11.1771C11.726 11.2163 11.6397 11.1181 11.64 11.1136C11.6484 10.9997 11.7858 11.0004 11.7913 10.8841C11.7918 10.8771 11.6933 10.7736 11.805 10.8148C11.8151 10.8187 11.9257 10.8578 11.8626 10.805C11.8586 10.8018 11.7996 10.7825 11.8128 10.7679C11.8279 10.7529 11.8059 10.706 11.8792 10.7113C11.9025 10.7133 12.0198 10.745 11.9447 10.68C11.9398 10.6747 11.7588 10.5498 11.9007 10.597C11.9241 10.6048 12.0681 10.67 12.0072 10.6087C11.995 10.597 11.9579 10.5928 11.9437 10.5697C11.9218 10.5347 11.9727 10.5205 11.9173 10.4681C11.9076 10.4586 11.8145 10.4017 11.8968 10.4134C11.9102 10.4155 11.9575 10.4377 11.9661 10.431C12.0074 10.3985 11.9888 10.3444 12.0365 10.3119C12.0535 10.3002 12.1327 10.3311 12.1595 10.3207C12.1862 10.3102 12.2166 10.2816 12.1839 10.2542C12.1507 10.2272 12.0147 10.2122 12.0091 10.1849C12.0086 10.1815 12.0085 10.1776 12.0081 10.1742ZM12.8822 14.9046C12.9475 14.9347 12.9639 14.8994 12.8909 14.8861C12.888 14.8855 12.8795 14.9033 12.8822 14.9046ZM12.3861 10.9916C12.2757 10.9657 12.5137 11.0781 12.5345 11.1019C12.554 11.1254 12.4812 11.1336 12.4574 11.1322C12.4338 11.1309 12.4078 11.1031 12.3929 11.1048C12.2956 11.1176 12.495 11.1911 12.5218 11.2289C12.5832 11.319 12.3969 11.2549 12.3587 11.2796C12.3484 11.2867 12.3908 11.3019 12.389 11.3128C12.3807 11.3559 12.3166 11.3437 12.3372 11.4125C12.3409 11.4234 12.4164 11.5219 12.3314 11.4935C12.3191 11.489 12.2847 11.4534 12.2659 11.4613C12.2378 11.4732 12.2031 11.5048 12.1995 11.5365C12.1977 11.56 12.2741 11.5891 12.2386 11.5951C12.2228 11.5967 12.1984 11.5522 12.1722 11.5589C12.1459 11.5657 12.1137 11.6093 12.1019 11.6263C12.0907 11.6434 12.1447 11.6733 12.1468 11.6771C12.1583 11.6994 12.1551 11.7477 12.1527 11.7523C12.0929 11.8292 12.0095 11.8804 11.93 11.93C11.8599 11.9738 11.7929 12.0171 11.7415 12.0824C11.7328 12.0933 11.7815 12.1359 11.7806 12.138C11.7616 12.189 11.6794 12.0354 11.6185 12.0121C11.7054 12.1086 11.676 12.1034 11.6595 12.1351C11.6516 12.1504 11.6893 12.1837 11.6917 12.1888C11.7208 12.2633 11.6462 12.1976 11.6302 12.1839C11.5722 12.1351 11.6123 12.2148 11.5736 12.182C11.5355 12.1492 11.5101 12.0767 11.4867 12.0951C11.5077 12.1374 11.5996 12.221 11.5921 12.2513C11.5626 12.3676 11.3638 12.386 11.2972 12.4134C11.2298 12.4424 11.2133 12.4613 11.1683 12.4671C11.0868 12.4767 11.1537 12.5427 11.1292 12.6019C11.1039 12.6605 11.026 12.4525 10.9984 12.4125C10.9714 12.3727 10.9867 12.4194 10.9681 12.3998C10.9496 12.3797 10.9506 12.3432 10.93 12.3421C10.9097 12.3413 10.9002 12.4394 10.9144 12.4876C10.9451 12.5896 11.013 12.6801 10.9486 12.6664C10.9449 12.6655 10.9302 12.6089 10.9173 12.6078C10.8591 12.6052 10.805 12.6138 10.7513 12.6205C10.7511 12.622 10.729 12.6209 10.7288 12.6224C10.7123 12.6242 10.6958 12.6249 10.679 12.6253C10.6352 12.7653 10.6907 12.7383 10.7513 12.6351C10.7838 12.6527 10.8239 12.6613 10.8499 12.6908C10.8583 12.7013 10.8312 12.7465 10.8304 12.7523C10.8171 12.8431 10.8787 12.7369 10.888 12.7357C10.9853 12.7274 11.0074 12.8404 11.1204 12.7972C11.1254 12.7937 11.1866 12.6865 11.1634 12.7777C11.1606 12.7845 11.1116 12.8225 11.1429 12.8441C11.175 12.8664 11.203 12.959 11.2777 12.9359C11.2958 12.9299 11.378 12.8609 11.3577 12.9427C11.3547 12.9539 11.3321 12.9827 11.3255 13.0023C11.3048 13.064 11.3805 12.962 11.3372 13.0628C11.2939 13.1641 11.2781 13.2509 11.3617 13.2181C11.3641 13.2172 11.4322 13.1418 11.4447 13.1527C11.4643 13.17 11.4816 13.2082 11.5033 13.224C11.5137 13.2315 11.5457 13.1767 11.5482 13.1771C11.6398 13.2034 11.6541 13.2878 11.7074 13.3675C11.7168 13.382 11.8125 13.3527 11.7904 13.4251C11.7652 13.5039 11.526 13.7009 11.6312 13.7015L11.7034 13.6664C11.8037 13.607 11.9573 13.5073 11.8773 13.6439C11.9933 13.6963 11.9807 13.844 12.1058 13.8929C12.1114 13.8951 12.2098 13.8445 12.2161 13.8558C12.2246 13.8727 12.1889 13.9106 12.1937 13.9232C12.2127 13.9769 12.2772 13.995 12.3001 14.0443C12.3086 14.0629 12.2599 14.085 12.2699 14.1068C12.2798 14.1283 12.3477 14.1065 12.3353 14.1517C12.3288 14.1751 12.2753 14.224 12.2415 14.264C12.2514 14.2641 12.271 14.27 12.2865 14.2767C12.2989 14.272 12.3096 14.2706 12.3187 14.2689C12.3638 14.2155 12.3808 14.1536 12.4222 14.098C12.6413 13.8052 12.859 13.5338 13.1214 13.2943C13.15 13.2683 13.184 13.2436 13.2201 13.2201C13.2931 13.1723 13.3721 13.1275 13.4212 13.0628C13.429 13.0514 13.3882 13.0161 13.3861 13.0101C13.3728 12.9296 13.435 13.023 13.4652 13.0169C13.5849 12.9928 13.68 12.9274 13.7523 12.8519C13.7823 12.8196 13.6851 12.7537 13.7562 12.7796C13.761 12.7814 13.7848 12.8367 13.7982 12.8353C13.8281 12.8318 13.8648 12.7958 13.8851 12.7884C13.9239 12.775 13.9297 12.771 13.9622 12.7523C14.0077 12.7269 14.076 12.7215 14.1185 12.6839C14.126 12.6749 14.0858 12.6307 14.097 12.6126C14.1092 12.5945 14.1574 12.5752 14.179 12.5804C14.1886 12.5827 14.1958 12.5935 14.2025 12.6048C14.1525 12.521 14.0913 12.4316 13.9378 12.6019C13.891 12.5616 13.8344 12.5121 13.8206 12.4369C13.812 12.3885 13.877 12.3516 13.8265 12.3519C13.8151 12.3521 13.7913 12.4076 13.7767 12.4037C13.7149 12.3868 13.6734 12.3326 13.6077 12.3197C13.5943 12.3172 13.5639 12.3598 13.555 12.3656C13.4832 12.4077 13.5255 12.2766 13.5238 12.263C13.5066 12.1586 13.4462 12.1413 13.3929 12.0892C13.3807 12.0771 13.3462 12.1428 13.3324 12.1332C13.3075 12.1145 13.2836 12.0934 13.262 12.0707C13.2224 12.0288 13.1902 11.9797 13.1683 11.9251C13.161 11.9063 13.217 11.8786 13.2161 11.8675C13.2112 11.82 13.1195 11.8886 13.1126 11.8441C13.1113 11.8347 13.1542 11.804 13.1576 11.7992C13.2114 11.7241 13.1012 11.7914 13.0951 11.7884C13.018 11.7546 13.0927 11.6354 13.0365 11.5912C13.0291 11.5866 12.9884 11.6397 12.972 11.6224C12.8622 11.5039 12.7852 11.3467 12.7581 11.1839C12.7539 11.1587 12.8053 11.1501 12.8099 11.1459C12.882 11.0806 12.7651 11.1246 12.7552 11.1205C12.7134 11.092 12.7357 11.0367 12.6995 11.014C12.6904 11.0309 12.683 11.0471 12.6751 11.0531C12.6555 11.0679 12.6106 11.0302 12.6077 11.0306C12.5157 11.0497 12.4971 11.0163 12.3861 10.9916ZM11.8861 13.9242C11.9431 13.8369 11.8162 13.9116 11.7708 13.9769C11.7249 14.0412 11.8681 13.9503 11.8861 13.9242ZM14.222 12.64C14.2234 12.6416 14.2256 12.6425 14.2269 12.6439C14.2217 12.6359 14.2165 12.6273 14.2113 12.6185C14.216 12.628 14.2192 12.6367 14.222 12.64ZM10.3753 12.4916V12.5404C10.377 12.5412 10.3785 12.5418 10.3802 12.5423V12.473C10.3809 12.474 10.3782 12.4819 10.3753 12.4916ZM11.3724 12.2074C11.3417 12.1423 11.3036 12.1608 11.3519 12.2171C11.354 12.2193 11.3731 12.2103 11.3724 12.2074ZM12.2611 11.2035C12.209 11.1733 12.2129 11.1995 12.264 11.223C12.2671 11.2244 12.2774 11.213 12.2611 11.2035ZM12.6859 10.3861H12.7396C12.7158 10.3789 12.6978 10.3806 12.6859 10.3861Z" fill="#555961"/>
</svg>
