<svg width="16" height="16" viewBox="0 0 16 16" fill="none" xmlns="http://www.w3.org/2000/svg">
<path d="M4.77181 10.1501C4.80621 10.0708 4.84584 10.2196 4.84896 10.2439C4.84898 10.2446 4.81957 10.2568 4.83138 10.2898C4.83331 10.3563 4.8485 10.2441 4.84896 10.2439C4.8519 10.2586 4.90536 10.2798 4.91829 10.2702C4.92522 10.2647 4.93036 10.2056 4.93392 10.2038C5.01866 10.1635 5.10395 10.1671 5.17415 10.2155C5.17383 10.2209 5.15605 10.2793 5.15853 10.2819C5.1932 10.3218 5.24401 10.254 5.2972 10.2224C5.34972 10.1912 5.3751 10.2188 5.35286 10.3308C5.38469 10.3285 5.40238 10.3906 5.4095 10.4275C5.41654 10.4642 5.47574 10.3516 5.47884 10.3503C5.57392 10.3078 5.57557 10.391 5.6263 10.4353C5.6508 10.4566 5.71443 10.4765 5.7513 10.4861C5.78023 10.4936 5.77618 10.5275 5.80794 10.528C5.81302 10.5266 5.84251 10.4834 5.84603 10.4802C5.91129 10.4452 5.81527 10.5446 5.80403 10.5681C5.76451 10.6519 5.74191 10.6954 5.79524 10.6853C5.80704 10.6825 5.95737 10.5486 5.97786 10.5515C6.00338 10.5548 5.94931 10.6022 5.97689 10.6042C5.98 10.6035 6.00944 10.572 6.0179 10.5827C6.02754 10.5948 6.03648 10.6082 6.04524 10.6218C6.07271 10.6643 6.0969 10.7108 6.13118 10.7458C6.13731 10.7523 6.18373 10.6978 6.19368 10.7068C6.24018 10.7487 6.28009 10.8059 6.28743 10.8737C6.289 10.8906 6.24393 10.9117 6.23372 10.9226C6.17144 10.9875 6.29236 10.9381 6.2972 10.9411C6.4084 11.0015 6.34747 11.1302 6.44173 11.2048C6.45185 11.2074 6.58983 11.1992 6.49056 11.2624C6.48328 11.2675 6.38042 11.3303 6.46321 11.3171C6.4701 11.3152 6.52173 11.2824 6.52376 11.3054C6.52607 11.3282 6.57667 11.35 6.52181 11.4001C6.50454 11.4165 6.39592 11.4718 6.49544 11.4714C6.50209 11.4699 6.72377 11.4586 6.58333 11.5124C6.56011 11.5212 6.40606 11.5564 6.49251 11.5691C6.50925 11.5716 6.54051 11.5527 6.56575 11.5642C6.60487 11.5829 6.57113 11.625 6.64583 11.6452C6.65907 11.6483 6.7697 11.6571 6.69271 11.6902C6.68056 11.6952 6.62669 11.6975 6.62239 11.7087C6.60198 11.761 6.6425 11.8085 6.6097 11.8611C6.59801 11.8794 6.51235 11.8767 6.49056 11.8952C6.46889 11.9139 6.4485 11.9476 6.48763 11.9646C6.52701 11.982 6.66299 11.9597 6.67415 11.989C6.67549 11.9926 6.67693 11.9961 6.67806 11.9997C6.7168 12.1265 6.62943 12.2466 6.59603 12.362C6.59081 12.38 6.64165 12.3743 6.63704 12.4021C6.62251 12.5026 6.61036 12.6943 6.47982 12.737C6.37697 12.7685 6.35052 12.6661 6.30013 12.6989C6.27814 12.7137 6.40594 12.7998 6.41146 12.8103C6.43149 12.8869 6.34938 12.8932 6.34212 12.9499C6.34114 12.9619 6.4019 12.9839 6.39974 12.9939C6.39254 13.0287 6.34996 13.0445 6.33724 13.0739C6.33242 13.0873 6.37387 13.1116 6.3636 13.1208C6.33879 13.143 6.30516 13.1545 6.25032 13.1521C6.24543 13.1517 6.20684 13.1021 6.19173 13.1179C6.16739 13.1452 6.10511 13.1516 6.11458 13.2126C6.11763 13.2308 6.20259 13.3041 6.1263 13.2741C6.11025 13.2679 6.01408 13.1741 6.0804 13.2741C6.09238 13.2901 6.1691 13.4375 6.07747 13.3864C6.06534 13.3795 6.03634 13.3598 6.01107 13.3444C5.98622 13.3294 5.96528 13.3187 5.96614 13.3298C5.96874 13.3346 6.01383 13.3709 6.00911 13.3835C5.99109 13.4282 5.95274 13.455 5.93001 13.4987C5.92463 13.5108 5.9775 13.5458 5.96712 13.5622C5.93718 13.6078 5.87495 13.6354 5.82259 13.6482C5.80317 13.6528 5.78398 13.6031 5.77962 13.5993C5.71103 13.5365 5.77019 13.6448 5.7679 13.655C5.75412 13.7155 5.69435 13.685 5.66732 13.7185C5.66007 13.728 5.69595 13.7744 5.69661 13.78C5.70103 13.8357 5.66451 13.7369 5.64583 13.7331C5.59376 13.7248 5.55596 13.7494 5.52181 13.7741C5.50956 13.7835 5.55422 13.8378 5.54232 13.8454C5.47194 13.8918 5.38622 13.9183 5.29817 13.9079C5.28174 13.9053 5.27455 13.8529 5.2679 13.8425C5.22286 13.7697 5.22749 13.8875 5.22298 13.9001C5.20503 13.9566 5.18036 13.9161 5.15462 13.9314C5.02616 14.0094 4.83948 14.0027 4.70638 13.9851C4.69299 13.9835 4.67925 13.9813 4.66634 13.9792C4.51014 13.9527 4.3935 13.8977 4.24642 13.8777C4.2362 13.8761 4.23028 13.9465 4.22103 13.946C4.10095 13.9356 3.99778 13.8732 3.88118 13.8454C3.87155 13.8443 3.85872 13.91 3.84212 13.9079C3.8075 13.9039 3.76994 13.8822 3.74935 13.8484C3.73947 13.832 3.78397 13.7904 3.77376 13.7751C3.75036 13.7398 3.71873 13.7173 3.68099 13.7077C3.66468 13.7037 3.6521 13.7745 3.63314 13.7644C3.50398 13.6967 3.37462 13.6146 3.32747 13.4519C3.32618 13.4386 3.41101 13.3349 3.37923 13.3405C3.3518 13.367 3.32102 13.3996 3.29232 13.4284C3.28219 13.4206 3.27167 13.4125 3.26204 13.404C3.11424 13.2743 3.0311 13.0907 2.94759 12.9196C2.94167 12.9143 2.8877 12.9589 2.87923 12.945C2.83381 12.8569 2.77411 12.7713 2.80892 12.6521C2.81234 12.6404 2.93457 12.6034 2.90853 12.5837C2.90357 12.5803 2.87467 12.5456 2.84505 12.5427C2.84059 12.5424 2.78531 12.5675 2.77962 12.5544C2.74764 12.4781 2.74148 12.3886 2.76497 12.3034C2.76949 12.29 2.83387 12.2935 2.83724 12.2839C2.86097 12.2178 2.8065 12.1542 2.86067 12.0915C2.8978 12.0506 3.0088 12.0602 3.11653 12.0388C3.13168 12.0359 3.13382 12.0149 3.19661 12.0134C3.35499 12.0098 3.52878 12.0165 3.69759 12.0114C3.73387 12.0104 3.69523 11.9931 3.78255 12.0027C3.78841 12.0034 3.81813 12.0144 3.84798 12.0163C3.86864 12.0176 3.93284 12.0136 3.95931 12.0163C3.98563 12.0188 3.93234 12.0238 3.96321 12.028C3.99483 12.032 4.06737 12.0274 4.0765 12.0359C4.09705 12.0552 4.07928 12.0823 4.05501 12.1091C4.04699 12.1173 4.00809 12.1212 4.0013 12.1277C3.98805 12.1406 4.00911 12.1459 3.99349 12.1599C3.98766 12.1647 3.92532 12.1745 3.92122 12.1794C3.89936 12.2071 3.92116 12.2237 3.91536 12.2487C3.8877 12.3753 3.92817 12.4979 3.99251 12.6111C3.9996 12.6235 4.00422 12.6405 4.00911 12.6579C4.0187 12.6928 4.03157 12.7314 4.06575 12.738C4.07171 12.739 4.10357 12.6949 4.10775 12.6911C4.16224 12.6462 4.09127 12.7286 4.08919 12.7478C4.0859 12.8194 4.12596 12.8533 4.1722 12.8552C4.19192 12.8558 4.23071 12.7519 4.21517 12.8132C4.21422 12.8174 4.18186 12.8668 4.18294 12.8747C4.18583 12.8924 4.20955 12.8932 4.21517 12.9011C4.22596 12.9168 4.22939 12.9173 4.24349 12.9245C4.26213 12.9349 4.27528 12.9721 4.30208 12.9685C4.3078 12.9674 4.32369 12.9081 4.33431 12.9011C4.34488 12.8948 4.36062 12.9063 4.36263 12.9216C4.36434 12.9375 4.34819 12.9813 4.34603 12.9919C4.32884 13.0821 4.38999 12.9681 4.3929 12.9655C4.4594 12.929 4.48935 13.0083 4.54427 13.0153C4.58472 13.0199 4.62898 12.9991 4.66634 13.0017H4.66732C4.71213 13.0057 4.75436 13.0355 4.79915 13.0241C4.80304 13.0207 4.78904 12.9533 4.79427 12.9519C4.85061 12.9359 4.9051 12.9318 4.97689 12.9587C4.98409 12.9614 4.99553 13.0211 5.00423 13.029C5.05498 13.0669 5.17481 13.1506 5.08138 12.8952C5.10826 12.8945 5.13967 12.8906 5.18685 12.9265C5.21746 12.9494 5.23762 13.0157 5.24056 12.9812C5.24114 12.9735 5.20773 12.9266 5.20931 12.9177C5.22094 12.8856 5.25535 12.8855 5.25911 12.8454C5.25968 12.8372 5.22834 12.7945 5.22396 12.7859C5.18826 12.717 5.27836 12.8089 5.28841 12.8132C5.35819 12.847 5.36298 12.8074 5.38802 12.7868C5.39188 12.7808 5.33855 12.7354 5.34212 12.7292C5.34888 12.7181 5.35698 12.7083 5.36653 12.6999C5.38414 12.6845 5.40713 12.6747 5.43782 12.6706C5.44853 12.6693 5.48982 12.7143 5.49739 12.7155C5.53047 12.7196 5.44556 12.6435 5.47396 12.6462C5.48007 12.6467 5.51987 12.6812 5.52474 12.6843C5.60095 12.731 5.5082 12.6467 5.50618 12.6423C5.49455 12.5943 5.61501 12.6528 5.61849 12.613C5.61519 12.6072 5.55942 12.5802 5.56282 12.57C5.58562 12.5004 5.63292 12.4456 5.70833 12.3952C5.72002 12.3874 5.76392 12.4123 5.76985 12.4138C5.86294 12.4348 5.74591 12.3834 5.74251 12.3786C5.71986 12.3405 5.8306 12.342 5.68978 12.2819C5.75634 12.1981 5.72373 12.0956 5.77376 11.9997C5.78607 11.9755 5.80356 11.9507 5.82845 11.9236C5.82991 11.9218 5.89281 11.9203 5.89583 11.9167C5.92785 11.8722 5.83056 11.8869 5.70931 11.8767C5.68046 11.8748 5.81688 11.8382 5.82942 11.8337C5.86703 11.8216 5.96096 11.8146 5.9681 11.8112C6.02251 11.7823 5.72048 11.8326 5.71517 11.8122C5.71896 11.8111 5.77001 11.8044 5.77669 11.8015C5.79308 11.7923 5.77033 11.7906 5.78841 11.781C5.83039 11.7592 5.97559 11.7213 5.88509 11.7175C5.87307 11.7175 5.70648 11.7597 5.70735 11.74C5.70891 11.7313 5.69659 11.698 5.70442 11.6853C5.71215 11.6728 5.76454 11.6627 5.76985 11.6609C5.83243 11.6109 5.86557 11.6117 5.96517 11.5612C6.06385 11.5091 5.81704 11.599 5.78743 11.6032C5.75807 11.6075 5.80866 11.5666 5.82649 11.5534C5.84453 11.5406 5.88053 11.5343 5.88997 11.5251C5.95066 11.4636 5.76376 11.5596 5.72103 11.5661C5.62186 11.5838 5.79128 11.4908 5.79915 11.4597C5.80107 11.4518 5.76327 11.4755 5.75716 11.4724C5.73415 11.4603 5.78171 11.4198 5.72103 11.4245C5.71082 11.4248 5.6003 11.467 5.66829 11.4138C5.67808 11.406 5.72323 11.3854 5.72786 11.3718C5.73469 11.3516 5.72914 11.3238 5.70735 11.32C5.69059 11.3185 5.63197 11.3716 5.64485 11.3474C5.65071 11.3362 5.69563 11.3196 5.70345 11.3005C5.71101 11.2812 5.69214 11.257 5.68392 11.2487C5.67578 11.2408 5.63274 11.2806 5.62728 11.2839C5.60619 11.2931 5.5724 11.2947 5.56868 11.2937C5.53644 11.2589 5.52665 11.2074 5.50814 11.1589C5.49212 11.1166 5.46855 11.077 5.42513 11.0622C5.41702 11.0617 5.38169 11.1129 5.38021 11.113C5.34595 11.1189 5.46631 10.9974 5.48665 10.9411C5.40954 11.0448 5.41507 11.0206 5.3929 11.0212C5.382 11.0218 5.35569 11.0652 5.35189 11.0691C5.29743 11.1239 5.34914 11.0392 5.35872 11.0212C5.3943 10.9561 5.33631 11.0223 5.3597 10.9782C5.38242 10.9341 5.43525 10.8814 5.41927 10.8718C5.38943 10.9078 5.3321 11.0166 5.31087 11.0261C5.23397 11.0627 5.20992 10.9406 5.17708 10.9148C5.14688 10.8899 5.13185 10.8932 5.11751 10.8698C5.09046 10.8267 5.07111 10.916 5.03548 10.947C5.00119 10.9772 5.08226 10.7716 5.09407 10.7253C5.1053 10.6792 5.08589 10.7239 5.08919 10.698C5.09242 10.6715 5.11333 10.6437 5.10482 10.6306C5.09566 10.6172 5.03972 10.6888 5.02278 10.7361C4.98656 10.8355 4.96893 10.9456 4.95442 10.9021C4.95352 10.8994 4.97239 10.8438 4.9681 10.8366C4.93279 10.7814 4.88278 10.7683 4.83821 10.7224C4.83229 10.7152 4.84678 10.6526 4.8431 10.6482C4.80338 10.6015 4.8057 10.7119 4.77278 10.8308C4.79282 10.6702 4.78881 10.5704 4.75228 10.5671C4.7308 10.5655 4.73092 10.6361 4.71614 10.6853C4.71183 10.6994 4.69898 10.6513 4.69564 10.6843C4.68533 10.7927 4.69485 10.9142 4.66634 10.8659V10.8073C4.66604 10.8041 4.66605 10.8015 4.66536 10.8005C4.63438 10.7772 4.63246 10.8907 4.60384 10.906C4.58174 10.9172 4.53372 10.8526 4.50325 10.8454C4.47913 10.6657 4.4522 10.7116 4.46321 10.8366C4.444 10.835 4.42597 10.8455 4.40462 10.8327C4.39722 10.8278 4.38906 10.7766 4.38704 10.7712C4.35473 10.6887 4.3732 10.8041 4.37142 10.8132C4.34083 10.8687 4.27755 10.7923 4.26692 10.8913C4.26644 10.895 4.30759 11.0143 4.26595 10.9323C4.26289 10.9267 4.25583 10.8684 4.23567 10.8708C4.21613 10.8734 4.15242 10.826 4.15071 10.8913C4.14993 10.9072 4.18063 11.0059 4.13314 10.9402C4.12657 10.931 4.11139 10.8982 4.09993 10.8816C4.06293 10.8291 4.11743 10.9437 4.05794 10.8532C3.99832 10.7622 3.93467 10.7039 3.94368 10.7849C3.94378 10.7873 3.98816 10.876 3.98079 10.8816C3.96646 10.8872 3.93645 10.8817 3.92317 10.8913C3.91707 10.8958 3.95382 10.9429 3.9554 10.947C3.93458 11.0038 3.87441 10.9793 3.81575 10.9968C3.80534 11.0016 3.83981 11.0822 3.7806 11.0456C3.71388 11.0062 3.52017 10.7655 3.52767 10.8611C3.53192 10.9046 3.79546 11.1854 3.62239 11.0769C3.61328 11.163 3.48891 11.1567 3.50814 11.2595C3.51093 11.2655 3.59471 11.3299 3.59114 11.3357C3.58363 11.3432 3.53677 11.3219 3.52962 11.3269C3.4994 11.3478 3.52296 11.3951 3.50325 11.4196C3.49579 11.4292 3.45085 11.4027 3.44173 11.4148C3.43265 11.4271 3.49146 11.4643 3.45345 11.4685C3.42434 11.4713 3.28723 11.4311 3.26302 11.446C3.3927 11.4982 3.38522 11.5104 3.41146 11.5456C3.41665 11.5524 3.46423 11.565 3.46907 11.5691C3.48965 11.5853 3.44971 11.579 3.47298 11.5954C3.47935 11.5996 3.5232 11.6148 3.5306 11.6189C3.59352 11.6528 3.48438 11.6395 3.46517 11.6384C3.39359 11.6325 3.45073 11.6574 3.42122 11.6609C3.39111 11.6648 3.36124 11.638 3.34114 11.6472C3.2997 11.6669 3.29814 11.7076 3.29036 11.737C3.28854 11.7487 3.35182 11.7526 3.35286 11.7546C3.36411 11.7805 3.29424 11.7954 3.41829 11.8259C3.09084 11.7983 3.44551 11.8438 3.37923 11.8679C3.37369 11.8698 3.21814 11.8584 3.19661 11.8444C3.17523 11.8303 3.22485 11.819 3.19173 11.7986C3.18058 11.7932 3.04405 11.7501 3.03548 11.7448C2.97149 11.7075 3.20147 11.7436 3.21419 11.7448C3.35163 11.7558 3.2026 11.7023 3.19368 11.6921C3.15182 11.6495 3.1895 11.6294 3.16243 11.5935C3.14369 11.5698 3.00014 11.5266 3.00911 11.5124C3.04003 11.4636 3.24458 11.5194 3.08821 11.4118C3.05506 11.3885 2.89597 11.3379 3.03255 11.3484C3.04347 11.3489 3.16162 11.3679 3.09896 11.3239C3.09087 11.3183 3.04657 11.3 3.04329 11.2956C3.02673 11.2676 3.06802 11.2712 3.05989 11.2448C3.05181 11.2185 3.03816 11.1834 3.0638 11.1696C3.07977 11.1614 3.16744 11.1879 3.18978 11.1931C3.25411 11.2083 3.17293 11.1397 3.24544 11.1687C3.31763 11.1989 3.40923 11.2758 3.46517 11.28C3.35749 11.2144 3.24752 11.1451 3.13997 11.0778C3.1798 11.0206 3.25163 10.9888 3.28841 10.9323C3.2929 10.9253 3.23534 10.891 3.23763 10.8816C3.25385 10.8435 3.31314 10.8479 3.32552 10.8054C3.33484 10.7721 3.30668 10.6966 3.31868 10.6589C3.32713 10.6651 3.33485 10.6708 3.34212 10.6755C3.4352 10.7362 3.43789 10.6769 3.47103 10.6638C3.48334 10.6593 3.50813 10.6881 3.52278 10.6921C3.57735 10.7063 3.48288 10.6197 3.47689 10.5984C3.45364 10.5066 3.63955 10.7276 3.66732 10.697C3.66815 10.6952 3.59875 10.5552 3.597 10.5446C3.58167 10.4789 3.63211 10.5858 3.65169 10.5857C3.68747 10.5857 3.72339 10.6044 3.72689 10.5486C3.7269 10.5311 3.69816 10.4384 3.75325 10.4909C3.76029 10.4977 3.78421 10.5402 3.78841 10.5437C3.84422 10.5681 3.76482 10.4304 3.75814 10.3718C3.75212 10.3131 3.83587 10.3941 3.85579 10.4196C3.90835 10.4846 3.85976 10.4569 3.86263 10.4646C3.8975 10.5538 3.91025 10.5297 3.92903 10.529C4.00144 10.6676 4.01666 10.6497 3.94857 10.528C3.94098 10.5148 3.93529 10.5339 3.92903 10.529C3.87318 10.385 3.89458 10.3526 3.98079 10.4714C4.02081 10.5273 4.0411 10.6039 4.06575 10.5622C4.07707 10.5433 4.02982 10.4467 4.0345 10.4128C4.04743 10.3353 4.13109 10.412 4.16341 10.3855C4.17533 10.3754 4.14495 10.3242 4.15267 10.3152C4.17467 10.2917 4.21008 10.3273 4.23079 10.2986C4.23154 10.2933 4.21182 10.2394 4.21907 10.2351C4.28308 10.2116 4.3485 10.2387 4.41634 10.2302C4.44894 10.2259 4.50545 10.1859 4.54134 10.1902C4.58104 10.1948 4.62728 10.2329 4.66634 10.2546C4.68815 10.2666 4.70893 10.2735 4.72689 10.2663C4.75928 10.2532 4.75486 10.1912 4.77181 10.1501ZM3.15364 12.1042C3.08197 12.1009 3.07832 12.1322 3.15169 12.1198C3.15451 12.1193 3.1562 12.1052 3.15364 12.1042ZM3.25325 11.9685C3.26744 11.9085 3.53092 11.9011 3.49837 11.9499C3.49066 11.9581 3.41592 11.9253 3.39192 11.9362C3.34763 11.9592 3.51163 11.9776 3.42317 11.9997C3.4054 12.0043 3.25223 11.9729 3.25228 11.9685H3.25325ZM5.89192 11.9509C5.88578 11.9518 5.8806 11.9779 5.88607 11.9792C6.00289 11.9929 6.01367 11.9328 5.89192 11.9509ZM3.26009 11.5476C3.21639 11.5427 3.25659 11.5801 3.31087 11.5857C3.3538 11.5906 3.31381 11.5545 3.26009 11.5476ZM5.89778 11.4118C5.89529 11.414 5.89699 11.4226 5.91341 11.4148C5.96825 11.3883 5.94658 11.3835 5.89778 11.4118ZM3.30501 10.9958C3.23236 10.9666 3.361 11.0776 3.38997 11.0886C3.48395 11.1271 3.37719 11.0268 3.30501 10.9958ZM5.32454 10.8425C5.36609 10.7842 5.34475 10.7651 5.3138 10.8327C5.3127 10.8354 5.32231 10.844 5.32454 10.8425Z" fill="#555961"/>
<path d="M4.77181 2.15011C4.80621 2.07084 4.84584 2.21964 4.84896 2.24386C4.84898 2.24457 4.81957 2.25676 4.83138 2.28976C4.83331 2.35632 4.8485 2.24411 4.84896 2.24386C4.8519 2.2586 4.90536 2.27976 4.91829 2.27023C4.92522 2.26472 4.93036 2.20558 4.93392 2.20382C5.01866 2.16345 5.10395 2.16708 5.17415 2.21554C5.17383 2.22086 5.15605 2.27927 5.15853 2.28195C5.1932 2.3218 5.24401 2.25403 5.2972 2.22238C5.34972 2.19118 5.3751 2.21883 5.35286 2.33078C5.38469 2.32849 5.40238 2.3906 5.4095 2.42746C5.41654 2.4642 5.47574 2.35162 5.47884 2.35031C5.57392 2.30783 5.57557 2.39103 5.6263 2.43527C5.6508 2.45659 5.71443 2.47648 5.7513 2.48605C5.78023 2.49357 5.77618 2.52754 5.80794 2.52804C5.81302 2.52655 5.84251 2.4834 5.84603 2.48019C5.91129 2.44523 5.81527 2.54462 5.80403 2.56808C5.76451 2.65186 5.74191 2.69535 5.79524 2.68527C5.80704 2.68255 5.95737 2.54865 5.97786 2.55148C6.00338 2.55482 5.94931 2.60222 5.97689 2.60421C5.98 2.60346 6.00944 2.57204 6.0179 2.58273C6.02754 2.59476 6.03648 2.60824 6.04524 2.62179C6.07271 2.66426 6.0969 2.71082 6.13118 2.74582C6.13731 2.75232 6.18373 2.6978 6.19368 2.70675C6.24018 2.7487 6.28009 2.80594 6.28743 2.87375C6.289 2.89059 6.24393 2.91171 6.23372 2.92257C6.17144 2.98752 6.29236 2.93812 6.2972 2.94113C6.4084 3.00147 6.34747 3.13024 6.44173 3.2048C6.45185 3.20741 6.58983 3.19922 6.49056 3.26242C6.48329 3.26751 6.38042 3.33028 6.46321 3.31711C6.4701 3.31521 6.52173 3.28243 6.52376 3.30539C6.52607 3.32818 6.57667 3.34996 6.52181 3.40011C6.50454 3.41655 6.39592 3.47181 6.49544 3.4714C6.50209 3.46987 6.72377 3.45864 6.58333 3.51242C6.56011 3.52119 6.40606 3.5564 6.49251 3.56906C6.50925 3.57157 6.54051 3.55267 6.56575 3.56418C6.60487 3.58293 6.57113 3.62504 6.64583 3.64523C6.65907 3.64831 6.7697 3.65709 6.69271 3.69015C6.68056 3.6952 6.62669 3.69752 6.62239 3.70871C6.60198 3.76104 6.6425 3.80855 6.6097 3.86105C6.59801 3.87935 6.51235 3.87672 6.49056 3.89523C6.46889 3.91393 6.4485 3.94761 6.48763 3.96457C6.52701 3.98204 6.66299 3.9597 6.67415 3.98898C6.67549 3.99257 6.67693 3.99612 6.67806 3.99972C6.7168 4.12647 6.62943 4.24662 6.59603 4.36203C6.59081 4.37999 6.64165 4.37434 6.63704 4.40207C6.62251 4.50257 6.61036 4.69429 6.47982 4.73703C6.37697 4.76851 6.35052 4.66612 6.30013 4.69894C6.27814 4.71365 6.40594 4.79982 6.41146 4.81027C6.43149 4.88685 6.34938 4.89323 6.34212 4.94992C6.34114 4.96188 6.4019 4.98389 6.39974 4.99386C6.39254 5.02871 6.34996 5.04449 6.33724 5.07394C6.33242 5.08733 6.37387 5.11163 6.3636 5.12082C6.33879 5.14299 6.30516 5.15449 6.25032 5.15207C6.24543 5.15172 6.20684 5.10207 6.19173 5.11789C6.16739 5.14522 6.10511 5.15161 6.11458 5.21261C6.11763 5.23082 6.20259 5.30412 6.1263 5.27414C6.11025 5.2679 6.01408 5.17407 6.0804 5.27414C6.09238 5.29012 6.1691 5.43751 6.07747 5.38644C6.06534 5.37949 6.03634 5.35979 6.01107 5.34445C5.98622 5.32943 5.96528 5.3187 5.96614 5.3298C5.96874 5.33465 6.01383 5.37093 6.00911 5.38351C5.99109 5.42819 5.95274 5.45501 5.93001 5.49875C5.92463 5.51081 5.9775 5.5458 5.96712 5.56222C5.93718 5.60777 5.87495 5.63536 5.82259 5.64816C5.80317 5.65281 5.78398 5.60313 5.77962 5.59933C5.71103 5.53647 5.77019 5.64484 5.7679 5.655C5.75412 5.7155 5.69435 5.68497 5.66732 5.71847C5.66007 5.72799 5.69595 5.77436 5.69661 5.78C5.70103 5.83571 5.66451 5.73695 5.64583 5.73312C5.59376 5.72476 5.55596 5.74937 5.52181 5.77414C5.50956 5.78348 5.55422 5.8378 5.54232 5.84543C5.47194 5.89181 5.38622 5.91834 5.29817 5.90793C5.28174 5.90533 5.27455 5.85286 5.2679 5.8425C5.22286 5.76975 5.22749 5.8875 5.22298 5.90011C5.20503 5.95663 5.18036 5.91614 5.15462 5.93136C5.02616 6.00942 4.83948 6.00266 4.70638 5.98507C4.69299 5.98347 4.67925 5.98134 4.66634 5.97921C4.51014 5.95267 4.3935 5.89766 4.24642 5.87765C4.2362 5.87613 4.23028 5.94653 4.22103 5.94601C4.10095 5.93555 3.99778 5.87317 3.88118 5.84543C3.87155 5.84433 3.85872 5.91002 3.84212 5.90793C3.8075 5.90394 3.76994 5.88218 3.74935 5.84836C3.73947 5.83197 3.78397 5.79036 3.77376 5.77511C3.75036 5.73976 3.71873 5.71733 3.68099 5.70773C3.66468 5.70366 3.6521 5.77451 3.63314 5.76437C3.50398 5.69673 3.37462 5.61456 3.32747 5.45187C3.32618 5.43864 3.41101 5.3349 3.37923 5.34054C3.3518 5.36697 3.32102 5.39958 3.29232 5.42843C3.2822 5.42057 3.27167 5.41245 3.26204 5.40402C3.11424 5.27426 3.0311 5.09068 2.94759 4.91964C2.94167 4.91434 2.8877 4.95893 2.87923 4.94504C2.83381 4.85686 2.77411 4.77126 2.80892 4.65207C2.81234 4.64038 2.93457 4.60339 2.90853 4.58371C2.90357 4.58033 2.87467 4.54559 2.84505 4.54269C2.84059 4.5424 2.78531 4.5675 2.77962 4.55441C2.74764 4.47808 2.74148 4.38859 2.76497 4.30343C2.76949 4.28997 2.83387 4.29346 2.83724 4.2839C2.86097 4.21779 2.8065 4.1542 2.86067 4.09152C2.8978 4.05063 3.0088 4.0602 3.11653 4.03879C3.13168 4.03585 3.13382 4.01493 3.19661 4.01339C3.35499 4.00984 3.52878 4.01649 3.69759 4.01144C3.73387 4.01044 3.69523 3.99312 3.78255 4.00265C3.78841 4.00337 3.81813 4.0144 3.84798 4.01632C3.86864 4.01765 3.93284 4.01362 3.95931 4.01632C3.98563 4.01879 3.93234 4.02376 3.96321 4.02804C3.99483 4.032 4.06737 4.02744 4.0765 4.03586C4.09705 4.05524 4.07928 4.08235 4.05501 4.1091C4.04699 4.11726 4.00809 4.12122 4.0013 4.12765C3.98805 4.14063 4.00911 4.14595 3.99349 4.15988C3.98767 4.1647 3.92532 4.17449 3.92122 4.17941C3.89936 4.20707 3.92116 4.22366 3.91536 4.24875C3.8877 4.37525 3.92817 4.4979 3.99251 4.61105C3.9996 4.6235 4.00422 4.6405 4.00911 4.65793C4.0187 4.69282 4.03157 4.73138 4.06575 4.738C4.07171 4.73905 4.10357 4.69486 4.10775 4.69113C4.16224 4.64623 4.09127 4.72861 4.08919 4.74777C4.0859 4.81939 4.12596 4.85329 4.1722 4.85519C4.19192 4.85582 4.23071 4.75186 4.21517 4.8132C4.21422 4.81742 4.18186 4.86676 4.18294 4.87472C4.18583 4.89245 4.20955 4.8932 4.21517 4.90109C4.22596 4.91678 4.22939 4.91727 4.24349 4.92453C4.26213 4.93486 4.27528 4.9721 4.30208 4.96847C4.3078 4.9674 4.32368 4.90807 4.33431 4.90109C4.34488 4.89478 4.36062 4.90627 4.36263 4.9216C4.36434 4.93747 4.34818 4.98129 4.34603 4.99191C4.32884 5.08214 4.38999 4.96805 4.3929 4.96554C4.4594 4.92898 4.48935 5.00833 4.54427 5.01535C4.58472 5.01994 4.62898 4.99908 4.66634 5.00168H4.66732C4.71213 5.00568 4.75436 5.03546 4.79915 5.02414C4.80304 5.02066 4.78904 4.95334 4.79427 4.95187C4.85061 4.93593 4.9051 4.93181 4.97689 4.95871C4.98409 4.96138 4.99553 5.02109 5.00423 5.02902C5.05498 5.06692 5.17481 5.15057 5.08138 4.89523C5.10826 4.89446 5.13967 4.89055 5.18685 4.92648C5.21746 4.94937 5.23762 5.01573 5.24056 4.98117C5.24114 4.97349 5.20773 4.9266 5.20931 4.91769C5.22094 4.88564 5.25535 4.88548 5.25911 4.84543C5.25968 4.83716 5.22834 4.79446 5.22396 4.78586C5.18826 4.71704 5.27836 4.80887 5.28841 4.8132C5.35819 4.84704 5.36298 4.80741 5.38802 4.78683C5.39188 4.78076 5.33855 4.73542 5.34212 4.72921C5.34888 4.71806 5.35698 4.70828 5.36653 4.69992C5.38414 4.6845 5.40713 4.67474 5.43782 4.67062C5.44853 4.66927 5.48982 4.71428 5.49739 4.71554C5.53047 4.71958 5.44556 4.64354 5.47396 4.64621C5.48007 4.64669 5.51987 4.68123 5.52474 4.68429C5.60095 4.73103 5.5082 4.64666 5.50618 4.6423C5.49455 4.59427 5.61501 4.65281 5.61849 4.613C5.61519 4.60719 5.55942 4.58016 5.56282 4.57004C5.58562 4.50042 5.63292 4.4456 5.70833 4.39523C5.72002 4.3874 5.76392 4.41225 5.76985 4.41379C5.86294 4.43477 5.74591 4.38342 5.74251 4.37863C5.71986 4.34048 5.8306 4.34201 5.68978 4.28195C5.75634 4.19809 5.72373 4.09558 5.77376 3.99972C5.78607 3.97549 5.80356 3.95065 5.82845 3.92355C5.82991 3.92178 5.89281 3.92033 5.89583 3.91671C5.92785 3.87217 5.83056 3.88685 5.70931 3.87668C5.68046 3.87477 5.81688 3.83824 5.82942 3.83371C5.86703 3.82158 5.96096 3.81459 5.9681 3.81125C6.02251 3.78227 5.72048 3.83264 5.71517 3.81222C5.71896 3.81107 5.77001 3.80438 5.77669 3.80148C5.79308 3.79226 5.77033 3.79059 5.78841 3.78097C5.83039 3.75918 5.97559 3.72127 5.88509 3.7175C5.87307 3.71746 5.70648 3.75975 5.70735 3.73996C5.70891 3.73135 5.69659 3.69803 5.70442 3.68527C5.71215 3.67285 5.76454 3.66269 5.76985 3.66086C5.83243 3.61088 5.86557 3.61174 5.96517 3.56125C6.06385 3.50914 5.81704 3.59903 5.78743 3.60324C5.75807 3.6075 5.80866 3.56661 5.82649 3.55343C5.84453 3.54056 5.88053 3.53426 5.88997 3.52511C5.95066 3.46364 5.76376 3.55957 5.72103 3.56613C5.62186 3.58376 5.79128 3.4908 5.79915 3.45968C5.80107 3.45176 5.76327 3.47549 5.75716 3.47238C5.73415 3.46031 5.78171 3.41979 5.72103 3.42453C5.71082 3.42479 5.6003 3.46698 5.66829 3.41379C5.67808 3.40596 5.72323 3.38536 5.72786 3.37179C5.73469 3.35156 5.72914 3.3238 5.70735 3.32004C5.69059 3.31847 5.63197 3.37157 5.64485 3.34738C5.65071 3.33624 5.69563 3.31959 5.70345 3.3005C5.71101 3.28123 5.69214 3.25699 5.68392 3.24875C5.67578 3.24082 5.63274 3.28063 5.62728 3.2839C5.60619 3.29306 5.5724 3.29467 5.56868 3.29367C5.53644 3.25893 5.52665 3.20738 5.50814 3.1589C5.49212 3.11658 5.46855 3.07697 5.42513 3.06222C5.41702 3.06171 5.38169 3.11288 5.38021 3.113C5.34595 3.11891 5.46631 2.99741 5.48665 2.94113C5.40954 3.04482 5.41507 3.02057 5.3929 3.02121C5.382 3.02179 5.35569 3.06516 5.35189 3.06906C5.29743 3.12387 5.34914 3.03917 5.35872 3.02121C5.3943 2.95609 5.33631 3.02228 5.3597 2.97824C5.38242 2.93412 5.43525 2.88141 5.41927 2.87179C5.38943 2.90781 5.3321 3.01655 5.31087 3.02609C5.23397 3.06268 5.20992 2.94063 5.17708 2.91476C5.14688 2.88991 5.13185 2.89321 5.11751 2.86984C5.09046 2.82671 5.07111 2.91596 5.03548 2.94699C5.00119 2.97718 5.08226 2.77155 5.09407 2.72531C5.1053 2.67918 5.08589 2.72388 5.08919 2.69796C5.09242 2.67152 5.11333 2.64373 5.10482 2.63058C5.09566 2.61725 5.03972 2.68885 5.02278 2.73605C4.98656 2.83546 4.96893 2.94556 4.95442 2.90207C4.95352 2.89944 4.97239 2.84385 4.9681 2.83664C4.93279 2.78135 4.88278 2.76832 4.83821 2.72238C4.83229 2.71524 4.84678 2.65262 4.8431 2.64816C4.80338 2.60146 4.8057 2.71189 4.77278 2.83078C4.79282 2.67022 4.78881 2.57035 4.75228 2.56711C4.7308 2.56549 4.73092 2.63611 4.71614 2.68527C4.71183 2.69938 4.69898 2.65128 4.69564 2.68429C4.68533 2.79268 4.69485 2.91424 4.66634 2.86593V2.80734C4.66604 2.80408 4.66605 2.80149 4.66536 2.8005C4.63438 2.77717 4.63246 2.89073 4.60384 2.90597C4.58174 2.91717 4.53372 2.85256 4.50325 2.84543C4.47913 2.66573 4.4522 2.71158 4.46321 2.83664C4.444 2.83503 4.42597 2.84554 4.40462 2.83273C4.39722 2.82779 4.38905 2.77655 4.38704 2.77121C4.35473 2.68867 4.3732 2.80414 4.37142 2.8132C4.34083 2.86868 4.27755 2.79231 4.26692 2.89132C4.26644 2.89496 4.30759 3.01425 4.26595 2.93234C4.26289 2.92673 4.25583 2.86842 4.23567 2.87082C4.21613 2.87336 4.15242 2.82604 4.15071 2.89132C4.14993 2.90723 4.18063 3.00594 4.13314 2.94015C4.12657 2.93102 4.11139 2.89823 4.09993 2.88156C4.06293 2.82909 4.11743 2.94371 4.05794 2.85324C3.99832 2.76225 3.93467 2.70388 3.94368 2.78488C3.94378 2.78732 3.98816 2.87596 3.98079 2.88156C3.96646 2.88722 3.93645 2.8817 3.92317 2.89132C3.91707 2.89584 3.95382 2.94289 3.9554 2.94699C3.93458 3.00383 3.87441 2.97933 3.81575 2.99679C3.80534 3.00158 3.83981 3.08223 3.7806 3.04562C3.71388 3.00619 3.52017 2.76547 3.52767 2.86105C3.53193 2.90456 3.79546 3.18545 3.62239 3.07687C3.61328 3.16301 3.48891 3.1567 3.50814 3.25949C3.51093 3.26552 3.59471 3.32994 3.59114 3.33566C3.58363 3.34325 3.53677 3.3219 3.52962 3.32687C3.4994 3.34781 3.52296 3.39513 3.50325 3.41964C3.49579 3.42916 3.45085 3.40274 3.44173 3.41476C3.43265 3.42712 3.49146 3.46432 3.45345 3.46847C3.42434 3.47127 3.28723 3.43106 3.26302 3.44601C3.3927 3.4982 3.38522 3.51043 3.41146 3.54562C3.41665 3.55239 3.46423 3.56505 3.46907 3.56906C3.48965 3.58531 3.44971 3.57895 3.47298 3.59543C3.47935 3.59957 3.5232 3.61483 3.5306 3.61886C3.59352 3.6528 3.48438 3.63951 3.46517 3.63839C3.39359 3.63246 3.45073 3.65741 3.42122 3.66086C3.39111 3.66481 3.36124 3.63797 3.34114 3.64718C3.2997 3.66692 3.29814 3.70759 3.29036 3.73703C3.28854 3.74873 3.35182 3.75263 3.35286 3.75461C3.36411 3.78045 3.29424 3.79538 3.41829 3.82589C3.09084 3.79828 3.44551 3.8438 3.37923 3.86789C3.37369 3.86977 3.21814 3.85838 3.19661 3.84445C3.17523 3.8303 3.22485 3.81903 3.19173 3.79855C3.18058 3.79325 3.04405 3.75012 3.03548 3.74484C2.97149 3.70749 3.20147 3.74359 3.21419 3.74484C3.35163 3.75576 3.2026 3.70231 3.19368 3.69211C3.15182 3.64951 3.1895 3.62943 3.16243 3.59347C3.14369 3.56982 3.00014 3.52663 3.00911 3.51242C3.04003 3.46357 3.24458 3.51937 3.08821 3.41183C3.05506 3.38847 2.89597 3.33789 3.03255 3.34836C3.04347 3.34889 3.16162 3.36786 3.09896 3.32394C3.09087 3.31826 3.04657 3.30003 3.04329 3.29562C3.02673 3.26763 3.06802 3.27116 3.05989 3.24484C3.05181 3.21846 3.03816 3.1834 3.0638 3.16964C3.07977 3.16139 3.16744 3.1879 3.18978 3.19308C3.25411 3.2083 3.17294 3.13966 3.24544 3.16867C3.31763 3.1989 3.40923 3.27583 3.46517 3.28C3.35749 3.21438 3.24752 3.14505 3.13997 3.07785C3.1798 3.02058 3.25163 2.98877 3.28841 2.93234C3.2929 2.92525 3.23534 2.89099 3.23763 2.88156C3.25385 2.84348 3.31314 2.84793 3.32552 2.80539C3.33484 2.77211 3.30668 2.6966 3.31868 2.6589C3.32713 2.66515 3.33485 2.67078 3.34212 2.6755C3.4352 2.73623 3.43789 2.67691 3.47103 2.66379C3.48334 2.65925 3.50813 2.68815 3.52278 2.69211C3.57735 2.70633 3.48288 2.61965 3.47689 2.59836C3.45364 2.50659 3.63955 2.72755 3.66732 2.69699C3.66815 2.69524 3.59875 2.55515 3.597 2.54464C3.58167 2.47892 3.63211 2.5858 3.65169 2.58566C3.68747 2.58569 3.72339 2.60439 3.72689 2.54855C3.7269 2.53107 3.69816 2.43837 3.75325 2.49093C3.76029 2.49774 3.78421 2.54016 3.78841 2.54367C3.84422 2.56807 3.76482 2.4304 3.75814 2.37179C3.75212 2.31311 3.83587 2.39406 3.85579 2.41964C3.90835 2.48458 3.85976 2.45691 3.86263 2.46457C3.8975 2.55376 3.91025 2.52973 3.92903 2.52902C4.00143 2.66759 4.01666 2.64971 3.94857 2.52804C3.94098 2.51478 3.93529 2.53387 3.92903 2.52902C3.87318 2.38504 3.89458 2.3526 3.98079 2.4714C4.02081 2.52733 4.0411 2.60388 4.06575 2.56222C4.07707 2.54334 4.02982 2.44674 4.0345 2.41281C4.04743 2.33534 4.13109 2.41199 4.16341 2.38546C4.17533 2.37545 4.14495 2.32416 4.15267 2.31515C4.17467 2.29171 4.21008 2.32731 4.23079 2.29855C4.23154 2.29331 4.21182 2.23944 4.21907 2.23507C4.28308 2.21161 4.3485 2.23865 4.41634 2.23019C4.44894 2.22586 4.50545 2.18588 4.54134 2.19015C4.58104 2.19478 4.62728 2.23287 4.66634 2.25461C4.68815 2.26658 4.70893 2.27348 4.72689 2.26632C4.75928 2.25323 4.75486 2.19122 4.77181 2.15011ZM3.15364 4.10421C3.08197 4.10093 3.07832 4.13221 3.15169 4.11984C3.15451 4.11927 3.1562 4.10523 3.15364 4.10421ZM3.25325 3.96847C3.26744 3.90849 3.53092 3.90111 3.49837 3.94992C3.49066 3.95808 3.41592 3.92526 3.39192 3.93625C3.34763 3.95918 3.51163 3.97761 3.42317 3.99972C3.4054 4.00432 3.25223 3.97286 3.25228 3.96847H3.25325ZM5.89192 3.95089C5.88578 3.95184 5.8806 3.97787 5.88607 3.97921C6.00289 3.99285 6.01367 3.93279 5.89192 3.95089ZM3.26009 3.54757C3.21639 3.54267 3.25659 3.58014 3.31087 3.58566C3.3538 3.59055 3.31381 3.55455 3.26009 3.54757ZM5.89778 3.41183C5.89529 3.41397 5.89699 3.42265 5.91341 3.41476C5.96825 3.38833 5.94658 3.38353 5.89778 3.41183ZM3.30501 2.99582C3.23236 2.96658 3.361 3.07765 3.38997 3.08859C3.48395 3.12712 3.37719 3.02682 3.30501 2.99582ZM5.32454 2.8425C5.36609 2.78416 5.34475 2.76513 5.3138 2.83273C5.3127 2.83536 5.32231 2.84397 5.32454 2.8425Z" fill="#555961"/>
<path d="M11.4385 6.15011C11.4729 6.07084 11.5125 6.21964 11.5156 6.24386C11.5156 6.24457 11.4862 6.25676 11.498 6.28976C11.5 6.35632 11.5152 6.24411 11.5156 6.24386C11.5186 6.2586 11.572 6.27976 11.585 6.27023C11.5919 6.26472 11.597 6.20558 11.6006 6.20382C11.6853 6.16345 11.7706 6.16708 11.8408 6.21554C11.8405 6.22086 11.8227 6.27927 11.8252 6.28195C11.8599 6.3218 11.9107 6.25403 11.9639 6.22238C12.0164 6.19118 12.0418 6.21883 12.0195 6.33078C12.0514 6.32849 12.0691 6.3906 12.0762 6.42746C12.0832 6.4642 12.1424 6.35162 12.1455 6.35031C12.2406 6.30783 12.2422 6.39103 12.293 6.43527C12.3175 6.45659 12.3811 6.47648 12.418 6.48605C12.4469 6.49357 12.4428 6.52754 12.4746 6.52804C12.4797 6.52655 12.5092 6.4834 12.5127 6.48019C12.578 6.44523 12.4819 6.54462 12.4707 6.56808C12.4312 6.65186 12.4086 6.69535 12.4619 6.68527C12.4737 6.68255 12.624 6.54865 12.6445 6.55148C12.6701 6.55482 12.616 6.60222 12.6436 6.60421C12.6467 6.60346 12.6761 6.57204 12.6846 6.58273C12.6942 6.59476 12.7032 6.60824 12.7119 6.62179C12.7394 6.66426 12.7636 6.71082 12.7979 6.74582C12.804 6.75232 12.8504 6.6978 12.8604 6.70675C12.9069 6.7487 12.9468 6.80594 12.9541 6.87375C12.9557 6.89059 12.9106 6.91171 12.9004 6.92257C12.8381 6.98752 12.959 6.93812 12.9639 6.94113C13.0751 7.00147 13.0141 7.13024 13.1084 7.2048C13.1185 7.20741 13.2565 7.19922 13.1572 7.26242C13.15 7.26751 13.0471 7.33028 13.1299 7.31711C13.1368 7.31521 13.1884 7.28243 13.1904 7.30539C13.1927 7.32818 13.2433 7.34996 13.1885 7.40011C13.1712 7.41655 13.0626 7.47181 13.1621 7.4714C13.1688 7.46987 13.3904 7.45864 13.25 7.51242C13.2268 7.52119 13.0727 7.5564 13.1592 7.56906C13.1759 7.57157 13.2072 7.55267 13.2324 7.56418C13.2715 7.58293 13.2378 7.62504 13.3125 7.64523C13.3257 7.64831 13.4364 7.65709 13.3594 7.69015C13.3472 7.6952 13.2934 7.69752 13.2891 7.70871C13.2686 7.76104 13.3092 7.80855 13.2764 7.86105C13.2647 7.87935 13.179 7.87672 13.1572 7.89523C13.1356 7.91393 13.1152 7.94761 13.1543 7.96457C13.1937 7.98204 13.3297 7.9597 13.3408 7.98898C13.3422 7.99257 13.3436 7.99612 13.3447 7.99972C13.3835 8.12647 13.2961 8.24662 13.2627 8.36203C13.2575 8.37999 13.3083 8.37434 13.3037 8.40207C13.2892 8.50257 13.277 8.69429 13.1465 8.73703C13.0436 8.76851 13.0172 8.66612 12.9668 8.69894C12.9448 8.71365 13.0726 8.79982 13.0781 8.81027C13.0982 8.88685 13.0161 8.89323 13.0088 8.94992C13.0078 8.96188 13.0686 8.98389 13.0664 8.99386C13.0592 9.02871 13.0166 9.04449 13.0039 9.07394C12.9991 9.08733 13.0405 9.11163 13.0303 9.12082C13.0055 9.14299 12.9718 9.15449 12.917 9.15207C12.9121 9.15172 12.8735 9.10207 12.8584 9.11789C12.8341 9.14522 12.7718 9.15161 12.7813 9.21261C12.7843 9.23082 12.8693 9.30412 12.793 9.27414C12.7769 9.2679 12.6807 9.17407 12.7471 9.27414C12.7591 9.29012 12.8358 9.43751 12.7441 9.38644C12.732 9.37949 12.703 9.35979 12.6777 9.34445C12.6529 9.32943 12.632 9.3187 12.6328 9.3298C12.6354 9.33465 12.6805 9.37093 12.6758 9.38351C12.6578 9.42819 12.6194 9.45501 12.5967 9.49875C12.5913 9.51081 12.6442 9.5458 12.6338 9.56222C12.6039 9.60777 12.5416 9.63536 12.4893 9.64816C12.4698 9.65281 12.4507 9.60313 12.4463 9.59933C12.3777 9.53647 12.4369 9.64484 12.4346 9.655C12.4208 9.7155 12.361 9.68497 12.334 9.71847C12.3267 9.72799 12.3626 9.77436 12.3633 9.78C12.3677 9.83571 12.3312 9.73694 12.3125 9.73312C12.2604 9.72476 12.2226 9.74937 12.1885 9.77414C12.1762 9.78348 12.2209 9.8378 12.209 9.84543C12.1386 9.89181 12.0529 9.91834 11.9648 9.90793C11.9484 9.90533 11.9412 9.85286 11.9346 9.8425C11.8895 9.76975 11.8942 9.8875 11.8897 9.90011C11.8717 9.95663 11.847 9.91614 11.8213 9.93136C11.6928 10.0094 11.5061 10.0027 11.373 9.98507C11.3597 9.98347 11.3459 9.98134 11.333 9.97921C11.1768 9.95267 11.0602 9.89766 10.9131 9.87765C10.9029 9.87613 10.8969 9.94653 10.8877 9.94601C10.7676 9.93555 10.6645 9.87317 10.5479 9.84543C10.5382 9.84433 10.5254 9.91002 10.5088 9.90793C10.4742 9.90394 10.4366 9.88218 10.416 9.84836C10.4061 9.83197 10.4506 9.79036 10.4404 9.77511C10.417 9.73976 10.3854 9.71733 10.3477 9.70773C10.3314 9.70366 10.3188 9.77451 10.2998 9.76437C10.1707 9.69673 10.0413 9.61456 9.99414 9.45187C9.99286 9.43864 10.0777 9.3349 10.0459 9.34054C10.0185 9.36697 9.98769 9.39957 9.95899 9.42843C9.94887 9.42057 9.93835 9.41245 9.92871 9.40402C9.78092 9.27426 9.69777 9.09068 9.61426 8.91964C9.60834 8.91434 9.55438 8.95893 9.5459 8.94504C9.50048 8.85686 9.44078 8.77126 9.47559 8.65207C9.47901 8.64038 9.60124 8.60339 9.5752 8.58371C9.57024 8.58033 9.54134 8.54559 9.51172 8.54269C9.50726 8.5424 9.45198 8.5675 9.44629 8.55441C9.41431 8.47808 9.40815 8.38859 9.43164 8.30343C9.43616 8.28997 9.50054 8.29346 9.50391 8.2839C9.52764 8.21779 9.47318 8.1542 9.52735 8.09152C9.56447 8.05063 9.67547 8.0602 9.78321 8.03879C9.79835 8.03585 9.80049 8.01493 9.86328 8.01339C10.0217 8.00984 10.1954 8.01649 10.3643 8.01144C10.4005 8.01044 10.3619 7.99312 10.4492 8.00265C10.4551 8.00337 10.4848 8.0144 10.5147 8.01632C10.5353 8.01765 10.5995 8.01362 10.626 8.01632C10.6523 8.01879 10.599 8.02376 10.6299 8.02804C10.6615 8.032 10.734 8.02744 10.7432 8.03586C10.7637 8.05524 10.746 8.08235 10.7217 8.1091C10.7137 8.11726 10.6748 8.12122 10.668 8.12765C10.6547 8.14063 10.6758 8.14595 10.6602 8.15988C10.6543 8.1647 10.592 8.17449 10.5879 8.17941C10.566 8.20707 10.5878 8.22366 10.582 8.24875C10.5544 8.37525 10.5948 8.4979 10.6592 8.61105C10.6663 8.6235 10.6709 8.6405 10.6758 8.65793C10.6854 8.69282 10.6982 8.73138 10.7324 8.738C10.7384 8.73905 10.7702 8.69486 10.7744 8.69113C10.8289 8.64623 10.7579 8.72861 10.7559 8.74777C10.7526 8.81939 10.7926 8.85329 10.8389 8.85519C10.8586 8.85582 10.8974 8.75185 10.8818 8.8132C10.8809 8.81742 10.8485 8.86676 10.8496 8.87472C10.8525 8.89245 10.8762 8.8932 10.8818 8.90109C10.8926 8.91678 10.8961 8.91727 10.9102 8.92453C10.9288 8.93486 10.9419 8.9721 10.9688 8.96847C10.9745 8.9674 10.9904 8.90807 11.001 8.90109C11.0115 8.89478 11.0273 8.90627 11.0293 8.9216C11.031 8.93747 11.0149 8.98129 11.0127 8.99191C10.9955 9.08214 11.0567 8.96805 11.0596 8.96554C11.1261 8.92898 11.156 9.00833 11.2109 9.01535C11.2514 9.01994 11.2957 8.99908 11.333 9.00168H11.334C11.3788 9.00568 11.421 9.03546 11.4658 9.02414C11.4697 9.02066 11.4557 8.95334 11.4609 8.95187C11.5173 8.93593 11.5718 8.93181 11.6436 8.95871C11.6508 8.96138 11.6622 9.02109 11.6709 9.02902C11.7217 9.06692 11.8415 9.15057 11.748 8.89523C11.7749 8.89446 11.8063 8.89055 11.8535 8.92648C11.8841 8.94937 11.9043 9.01572 11.9072 8.98117C11.9078 8.97349 11.8744 8.9266 11.876 8.91769C11.8876 8.88564 11.922 8.88548 11.9258 8.84543C11.9264 8.83716 11.895 8.79446 11.8906 8.78586C11.8549 8.71704 11.945 8.80887 11.9551 8.8132C12.0249 8.84704 12.0297 8.80741 12.0547 8.78683C12.0586 8.78076 12.0052 8.73542 12.0088 8.72921C12.0155 8.71806 12.0237 8.70828 12.0332 8.69992C12.0508 8.6845 12.0738 8.67474 12.1045 8.67062C12.1152 8.66927 12.1565 8.71428 12.1641 8.71554C12.1971 8.71957 12.1122 8.64354 12.1406 8.64621C12.1467 8.64669 12.1865 8.68123 12.1914 8.68429C12.2676 8.73103 12.1749 8.64666 12.1729 8.6423C12.1612 8.59427 12.2817 8.65281 12.2852 8.613C12.2819 8.60719 12.2261 8.58016 12.2295 8.57004C12.2523 8.50042 12.2996 8.4456 12.375 8.39523C12.3867 8.3874 12.4306 8.41225 12.4365 8.41379C12.5296 8.43477 12.4126 8.38342 12.4092 8.37863C12.3865 8.34048 12.4973 8.34201 12.3564 8.28195C12.423 8.19809 12.3904 8.09558 12.4404 7.99972C12.4527 7.97549 12.4702 7.95065 12.4951 7.92355C12.4966 7.92178 12.5595 7.92033 12.5625 7.91671C12.5945 7.87217 12.4972 7.88685 12.376 7.87668C12.3471 7.87477 12.4835 7.83824 12.4961 7.83371C12.5337 7.82158 12.6276 7.81459 12.6348 7.81125C12.6892 7.78227 12.3872 7.83264 12.3818 7.81222C12.3856 7.81107 12.4367 7.80438 12.4434 7.80148C12.4598 7.79226 12.437 7.79059 12.4551 7.78097C12.4971 7.75918 12.6423 7.72127 12.5518 7.7175C12.5397 7.71746 12.3732 7.75975 12.374 7.73996C12.3756 7.73135 12.3633 7.69803 12.3711 7.68527C12.3788 7.67285 12.4312 7.66269 12.4365 7.66086C12.4991 7.61088 12.5322 7.61174 12.6318 7.56125C12.7305 7.50914 12.4837 7.59903 12.4541 7.60324C12.4247 7.6075 12.4753 7.56661 12.4932 7.55343C12.5112 7.54056 12.5472 7.53426 12.5566 7.52511C12.6173 7.46364 12.4304 7.55957 12.3877 7.56613C12.2885 7.58376 12.458 7.4908 12.4658 7.45968C12.4677 7.45176 12.4299 7.47549 12.4238 7.47238C12.4008 7.46031 12.4484 7.41979 12.3877 7.42453C12.3775 7.42479 12.267 7.46698 12.335 7.41379C12.3447 7.40596 12.3899 7.38536 12.3945 7.37179C12.4014 7.35156 12.3958 7.3238 12.374 7.32004C12.3573 7.31847 12.2986 7.37157 12.3115 7.34738C12.3174 7.33624 12.3623 7.31959 12.3701 7.3005C12.3777 7.28123 12.3588 7.25699 12.3506 7.24875C12.3425 7.24082 12.2994 7.28063 12.2939 7.2839C12.2729 7.29306 12.2391 7.29467 12.2354 7.29367C12.2031 7.25893 12.1933 7.20738 12.1748 7.1589C12.1588 7.11658 12.1352 7.07697 12.0918 7.06222C12.0837 7.06171 12.0484 7.11288 12.0469 7.113C12.0126 7.11891 12.133 6.99741 12.1533 6.94113C12.0762 7.04482 12.0817 7.02057 12.0596 7.02121C12.0487 7.02179 12.0224 7.06516 12.0186 7.06906C11.9641 7.12387 12.0158 7.03917 12.0254 7.02121C12.061 6.9561 12.003 7.02228 12.0264 6.97824C12.0491 6.93412 12.1019 6.88141 12.0859 6.87179C12.0561 6.90781 11.9988 7.01655 11.9775 7.02609C11.9006 7.06268 11.8766 6.94063 11.8438 6.91476C11.8135 6.88991 11.7985 6.89321 11.7842 6.86984C11.7571 6.82671 11.7378 6.91596 11.7022 6.94699C11.6679 6.97718 11.7489 6.77155 11.7607 6.72531C11.772 6.67918 11.7526 6.72388 11.7559 6.69796C11.7591 6.67152 11.78 6.64373 11.7715 6.63058C11.7623 6.61725 11.7064 6.68885 11.6895 6.73605C11.6532 6.83546 11.6356 6.94556 11.6211 6.90207C11.6202 6.89944 11.6391 6.84385 11.6348 6.83664C11.5995 6.78135 11.5494 6.76832 11.5049 6.72238C11.499 6.71524 11.5134 6.65262 11.5098 6.64816C11.4701 6.60146 11.4724 6.71189 11.4395 6.83078C11.4595 6.67022 11.4555 6.57036 11.4189 6.56711C11.3975 6.56549 11.3976 6.63611 11.3828 6.68527C11.3785 6.69938 11.3657 6.65128 11.3623 6.68429C11.352 6.79268 11.3615 6.91424 11.333 6.86593V6.80734C11.3327 6.80408 11.3327 6.80149 11.332 6.8005C11.3011 6.77717 11.2991 6.89073 11.2705 6.90597C11.2484 6.91717 11.2004 6.85256 11.1699 6.84543C11.1458 6.66573 11.1189 6.71158 11.1299 6.83664C11.1107 6.83503 11.0926 6.84554 11.0713 6.83273C11.0639 6.82779 11.0557 6.77655 11.0537 6.77121C11.0214 6.68867 11.0399 6.80414 11.0381 6.8132C11.0075 6.86868 10.9442 6.79231 10.9336 6.89132C10.9331 6.89496 10.9743 7.01425 10.9326 6.93234C10.9296 6.92673 10.9225 6.86842 10.9023 6.87082C10.8828 6.87336 10.8191 6.82604 10.8174 6.89132C10.8166 6.90723 10.8473 7.00594 10.7998 6.94015C10.7932 6.93102 10.7781 6.89823 10.7666 6.88156C10.7296 6.82909 10.7841 6.94371 10.7246 6.85324C10.665 6.76225 10.6013 6.70388 10.6104 6.78488C10.6105 6.78732 10.6548 6.87596 10.6475 6.88156C10.6331 6.88722 10.6031 6.8817 10.5898 6.89132C10.5837 6.89584 10.6205 6.94288 10.6221 6.94699C10.6013 7.00383 10.5411 6.97933 10.4824 6.99679C10.472 7.00158 10.5065 7.08223 10.4473 7.04562C10.3806 7.00619 10.1868 6.76547 10.1943 6.86105C10.1986 6.90456 10.4621 7.18545 10.2891 7.07687C10.2799 7.16301 10.1556 7.1567 10.1748 7.25949C10.1776 7.26552 10.2614 7.32994 10.2578 7.33566C10.2503 7.34325 10.2034 7.3219 10.1963 7.32687C10.1661 7.34781 10.1896 7.39513 10.1699 7.41964C10.1625 7.42916 10.1175 7.40274 10.1084 7.41476C10.0993 7.42712 10.1581 7.46432 10.1201 7.46847C10.091 7.47127 9.9539 7.43106 9.92969 7.44601C10.0594 7.4982 10.0519 7.51043 10.0781 7.54562C10.0833 7.55239 10.1309 7.56505 10.1357 7.56906C10.1563 7.58531 10.1164 7.57895 10.1397 7.59543C10.146 7.59957 10.1899 7.61483 10.1973 7.61886C10.2602 7.6528 10.1511 7.63951 10.1318 7.63839C10.0603 7.63246 10.1174 7.65741 10.0879 7.66086C10.0578 7.66481 10.0279 7.63797 10.0078 7.64718C9.96637 7.66692 9.96481 7.70759 9.95703 7.73703C9.95521 7.74873 10.0185 7.75263 10.0195 7.75461C10.0308 7.78045 9.96091 7.79538 10.085 7.82589C9.75751 7.79828 10.1122 7.8438 10.0459 7.86789C10.0404 7.86977 9.88481 7.85838 9.86328 7.84445C9.8419 7.8303 9.89152 7.81903 9.8584 7.79855C9.84725 7.79325 9.71073 7.75012 9.70215 7.74484C9.63817 7.70749 9.86815 7.74359 9.88086 7.74484C10.0183 7.75576 9.86927 7.70231 9.86035 7.69211C9.81849 7.64951 9.85617 7.62943 9.8291 7.59347C9.81036 7.56982 9.66681 7.52663 9.67578 7.51242C9.7067 7.46357 9.91126 7.51937 9.75489 7.41183C9.72174 7.38847 9.56264 7.33789 9.69922 7.34836C9.71014 7.34889 9.8283 7.36786 9.76563 7.32394C9.75755 7.31826 9.71325 7.30003 9.70996 7.29562C9.6934 7.26763 9.73469 7.27116 9.72657 7.24484C9.71848 7.21846 9.70483 7.1834 9.73047 7.16964C9.74644 7.16139 9.83411 7.1879 9.85645 7.19308C9.92078 7.2083 9.83961 7.13966 9.91211 7.16867C9.98431 7.1989 10.0759 7.27583 10.1318 7.28C10.0242 7.21438 9.9142 7.14505 9.80664 7.07785C9.84647 7.02058 9.9183 6.98877 9.95508 6.93234C9.95957 6.92525 9.90201 6.89099 9.9043 6.88156C9.92052 6.84348 9.97981 6.84793 9.99219 6.80539C10.0015 6.77211 9.97335 6.6966 9.98535 6.6589C9.9938 6.66515 10.0015 6.67078 10.0088 6.6755C10.1019 6.73623 10.1046 6.67691 10.1377 6.66379C10.15 6.65925 10.1748 6.68815 10.1895 6.69211C10.244 6.70633 10.1496 6.61965 10.1436 6.59836C10.1203 6.5066 10.3062 6.72755 10.334 6.69699C10.3348 6.69524 10.2654 6.55515 10.2637 6.54464C10.2483 6.47892 10.2988 6.5858 10.3184 6.58566C10.3541 6.58569 10.3901 6.60439 10.3936 6.54855C10.3936 6.53107 10.3648 6.43837 10.4199 6.49093C10.427 6.49774 10.4509 6.54016 10.4551 6.54367C10.5109 6.56807 10.4315 6.4304 10.4248 6.37179C10.4188 6.31311 10.5025 6.39406 10.5225 6.41964C10.575 6.48458 10.5264 6.45691 10.5293 6.46457C10.5642 6.55376 10.5769 6.52973 10.5957 6.52902C10.6681 6.66759 10.6833 6.64971 10.6152 6.52804C10.6077 6.51478 10.602 6.53387 10.5957 6.52902C10.5399 6.38504 10.5613 6.3526 10.6475 6.4714C10.6875 6.52733 10.7078 6.60388 10.7324 6.56222C10.7437 6.54334 10.6965 6.44674 10.7012 6.41281C10.7141 6.33534 10.7978 6.41199 10.8301 6.38546C10.842 6.37545 10.8116 6.32416 10.8193 6.31515C10.8413 6.29171 10.8767 6.32731 10.8975 6.29855C10.8982 6.29331 10.8785 6.23944 10.8857 6.23507C10.9498 6.21161 11.0152 6.23865 11.083 6.23019C11.1156 6.22586 11.1721 6.18588 11.208 6.19015C11.2477 6.19478 11.2939 6.23287 11.333 6.25461C11.3548 6.26658 11.3756 6.27348 11.3936 6.26632C11.426 6.25323 11.4215 6.19122 11.4385 6.15011ZM9.82032 8.10421C9.74864 8.10093 9.74499 8.13221 9.81836 8.11984C9.82118 8.11927 9.82287 8.10523 9.82032 8.10421ZM9.91992 7.96847C9.93412 7.90849 10.1976 7.90111 10.165 7.94992C10.1573 7.95808 10.0826 7.92526 10.0586 7.93625C10.0143 7.95918 10.1783 7.97761 10.0898 7.99972C10.0721 8.00432 9.9189 7.97286 9.91895 7.96847H9.91992ZM12.5586 7.95089C12.5525 7.95184 12.5473 7.97787 12.5527 7.97921C12.6696 7.99285 12.6803 7.93279 12.5586 7.95089ZM9.92676 7.54757C9.88306 7.54267 9.92326 7.58014 9.97754 7.58566C10.0205 7.59055 9.98048 7.55455 9.92676 7.54757ZM12.5645 7.41183C12.562 7.41397 12.5637 7.42265 12.5801 7.41476C12.6349 7.38833 12.6133 7.38353 12.5645 7.41183ZM9.97168 6.99582C9.89904 6.96658 10.0277 7.07765 10.0566 7.08859C10.1506 7.12712 10.0439 7.02682 9.97168 6.99582ZM11.9912 6.8425C12.0328 6.78416 12.0114 6.76513 11.9805 6.83273C11.9794 6.83536 11.989 6.84397 11.9912 6.8425Z" fill="#555961"/>
<path d="M4.60123 10.6361C4.65918 10.6096 4.85667 10.5975 4.83073 10.6303C4.82395 10.6364 4.74675 10.6159 4.7233 10.6244C4.68086 10.6401 4.84478 10.6503 4.75651 10.6664C4.73918 10.669 4.59104 10.6505 4.58561 10.6478L4.60123 10.6361ZM5.18131 5.35096C5.20202 5.35285 5.26627 5.34903 5.29264 5.35291C5.31852 5.35679 5.26561 5.36113 5.29655 5.36756C5.32811 5.37387 5.39995 5.37147 5.40885 5.38416C5.42839 5.41405 5.40725 5.45302 5.37858 5.48279C5.36952 5.49196 5.331 5.48819 5.32291 5.49451C5.30752 5.50706 5.32627 5.51826 5.30826 5.53065C5.302 5.53475 5.23981 5.53035 5.23405 5.53455C5.20638 5.55812 5.22163 5.58003 5.20866 5.60389C5.14267 5.72207 5.11915 5.83876 5.09049 5.95838C5.08108 5.99786 5.02351 6.04651 5.0485 6.08729C5.05293 6.09164 5.10459 6.08851 5.111 6.08924C5.18074 6.10345 5.06918 6.0995 5.05436 6.10877C4.99614 6.14553 4.99107 6.18669 5.01237 6.22205C5.02281 6.23662 5.13067 6.22172 5.06998 6.2367C5.06586 6.23774 5.00791 6.23375 5.00065 6.23768C4.98658 6.24704 4.99746 6.26556 4.99284 6.27283C4.98358 6.28683 4.98374 6.28889 4.98307 6.30213C4.98166 6.3201 4.95292 6.34141 4.96549 6.36072C4.96848 6.36484 5.02776 6.36022 5.03873 6.36658C5.04896 6.3732 5.04413 6.39095 5.02994 6.39686C5.01545 6.40263 4.96845 6.39972 4.95768 6.40076C4.86851 6.40916 4.98716 6.42867 4.99576 6.43201C5.049 6.47938 4.97744 6.52039 4.97721 6.56483C4.97752 6.59862 5.00186 6.63519 4.99869 6.66736C4.99457 6.70574 4.96184 6.73848 4.96744 6.77576C4.96935 6.77947 5.03839 6.77501 5.03971 6.77967C5.04794 6.8307 5.03953 6.88121 4.99186 6.93201C4.98703 6.93709 4.92569 6.93096 4.91666 6.93592C4.86561 6.96711 4.74289 7.017 5.01334 7.03553C5.00283 7.05659 4.99141 7.08216 4.93717 7.10096C4.90202 7.11302 4.83511 7.10164 4.86393 7.11658C4.87257 7.11954 4.9292 7.11554 4.93424 7.12049C4.95576 7.14178 4.93688 7.16487 4.96744 7.18592C4.97411 7.19016 5.02725 7.18861 5.03678 7.18983C5.11357 7.20004 4.98552 7.21737 4.97623 7.22108C4.90719 7.24924 4.93495 7.27001 4.93326 7.29627C4.93284 7.30237 5.00338 7.29528 5.00553 7.30115C5.01574 7.3316 5.00982 7.36314 4.97819 7.39295C4.9705 7.39941 4.91075 7.39376 4.90397 7.39686C4.87581 7.41083 4.99029 7.41373 4.96549 7.42713C4.95994 7.42985 4.90964 7.42862 4.90299 7.42908C4.81362 7.43712 4.93942 7.44358 4.94303 7.44568C4.98136 7.47193 4.84905 7.48869 4.86784 7.51404C4.87236 7.51667 4.93497 7.51073 4.93815 7.51893C4.95631 7.57572 4.93803 7.63556 4.88541 7.69178C4.87732 7.70052 4.82803 7.69416 4.82194 7.69471C4.72692 7.70367 4.85424 7.71041 4.85905 7.71326C4.89345 7.73574 4.78724 7.75659 4.93912 7.77186C4.88652 7.86701 4.97137 7.96167 4.83561 8.05604C4.83403 8.05724 4.7711 8.05559 4.76823 8.05799C4.73318 8.08676 4.83052 8.08091 4.94987 8.09998C4.97959 8.1048 4.83543 8.1192 4.82487 8.12049C4.78601 8.12516 4.69347 8.12093 4.68522 8.12244C4.62598 8.13551 4.93512 8.13314 4.93522 8.15076C4.9347 8.15131 4.8774 8.14928 4.87174 8.15076C4.8546 8.15533 4.87656 8.15997 4.85709 8.16443C4.81155 8.17467 4.66229 8.1781 4.74869 8.19373C4.76004 8.19572 4.93569 8.19264 4.92741 8.20838C4.92402 8.2148 4.92701 8.24262 4.91569 8.25037C4.90405 8.25802 4.84781 8.25275 4.84537 8.2533C4.77081 8.27419 4.73979 8.26631 4.62955 8.27674C4.51933 8.28723 4.78185 8.28418 4.81119 8.28846C4.84018 8.29274 4.77909 8.30806 4.75748 8.3119C4.73617 8.31564 4.7005 8.31159 4.68815 8.31483C4.60887 8.33707 4.8183 8.3241 4.86002 8.33143C4.95877 8.3487 4.76389 8.36249 4.74479 8.3783C4.74057 8.38231 4.78168 8.37891 4.78776 8.38221C4.80358 8.39727 4.74329 8.4071 4.7985 8.4242C4.80758 8.42701 4.92496 8.4406 4.83951 8.44959C4.82712 8.45086 4.77819 8.44709 4.76725 8.4535C4.751 8.46305 4.74064 8.48026 4.75651 8.49061C4.76851 8.49822 4.84853 8.48984 4.82389 8.4994C4.81279 8.50366 4.76565 8.49626 4.74869 8.50428C4.73215 8.51237 4.73439 8.53271 4.736 8.54041C4.74029 8.54742 4.79841 8.54371 4.80241 8.54432C4.82552 8.54814 4.85455 8.56225 4.85514 8.56385C4.86255 8.63008 4.75974 8.69175 4.79362 8.75623C4.7976 8.76082 4.85571 8.75773 4.861 8.75818C4.88783 8.77551 4.71779 8.76171 4.6608 8.77381C4.79075 8.77206 4.76765 8.77918 4.7819 8.79139C4.78898 8.79724 4.83925 8.79476 4.8444 8.79529C4.92012 8.80399 4.82159 8.80936 4.80143 8.81092C4.72738 8.81669 4.81492 8.82359 4.7653 8.82752C4.71666 8.83137 4.64517 8.82237 4.6442 8.83338C4.69076 8.83663 4.81177 8.82847 4.8317 8.83729C4.90608 8.87075 4.81164 8.93329 4.80143 8.96033C4.79153 8.98724 4.79968 8.99641 4.78287 9.01209C4.75323 9.04012 4.84327 9.02971 4.88444 9.04725C4.9237 9.06461 4.704 9.05648 4.65592 9.05897C4.60824 9.06145 4.65674 9.06368 4.63053 9.06678C4.60437 9.06979 4.57198 9.06345 4.56217 9.07068C4.55306 9.07801 4.63746 9.0974 4.68717 9.09998C4.79284 9.10542 4.90388 9.09737 4.86491 9.11658C4.86163 9.11758 4.80566 9.11364 4.7985 9.11756C4.75358 9.15116 4.75034 9.18654 4.71061 9.2201C4.70362 9.22443 4.64037 9.22039 4.63639 9.22303C4.59488 9.25099 4.70431 9.24092 4.82584 9.25623C4.66426 9.2528 4.56528 9.26142 4.56412 9.2826C4.56349 9.29536 4.63444 9.2929 4.68424 9.30115C4.69879 9.30367 4.65112 9.31319 4.68424 9.31483C4.79256 9.32016 4.91354 9.31167 4.86588 9.33338C4.86363 9.33432 4.80613 9.33135 4.80045 9.33436C4.77688 9.35581 4.89021 9.35902 4.90397 9.38221C4.91395 9.40043 4.84585 9.4329 4.83463 9.4535C4.83311 9.45349 4.83124 9.4535 4.82975 9.4535C4.90095 9.46238 4.90931 9.47277 4.81998 9.47986H4.81901C4.8139 9.49323 4.8214 9.50795 4.80436 9.52088C4.79849 9.52531 4.74625 9.52233 4.73991 9.52283C4.6519 9.53135 4.76909 9.53747 4.77701 9.54041C4.82352 9.57183 4.73155 9.59734 4.82194 9.62733C4.8282 9.62839 4.95013 9.63016 4.85905 9.63807C4.85258 9.63856 4.79513 9.62886 4.79069 9.64295C4.78617 9.65706 4.71855 9.68392 4.77701 9.7035C4.79109 9.70823 4.8935 9.72025 4.81412 9.72986C4.80331 9.73114 4.76698 9.72905 4.74674 9.73084C4.68258 9.73681 4.80945 9.74044 4.70182 9.74744C4.59332 9.75447 4.51172 9.76968 4.58659 9.78943C4.59195 9.79018 4.6859 9.79425 4.68815 9.80018C4.68551 9.81009 4.66405 9.82498 4.66471 9.83533C4.66687 9.83979 4.72385 9.83674 4.72916 9.83729C4.76437 9.8706 4.70858 9.89439 4.68424 9.93006C4.67966 9.9366 4.76537 9.95548 4.69791 9.96815C4.62383 9.98204 4.316 9.96759 4.38834 9.9994C4.41775 10.0123 4.80896 10.029 4.60612 10.0521C4.65637 10.0971 4.55301 10.1389 4.62467 10.184C4.62779 10.186 4.73332 10.1919 4.736 10.1967C4.7336 10.2037 4.68355 10.2083 4.67936 10.2133C4.66406 10.2343 4.70703 10.2535 4.70084 10.2738C4.69837 10.2816 4.6452 10.2792 4.64225 10.2885C4.63984 10.2976 4.70813 10.3034 4.67545 10.3158C4.64985 10.3253 4.50745 10.3355 4.49088 10.348C4.63108 10.3485 4.62868 10.3571 4.66569 10.3724C4.67429 10.3751 4.72141 10.3721 4.72721 10.3734C4.75213 10.3791 4.71201 10.3847 4.73893 10.39C4.74542 10.3913 4.79243 10.3909 4.80143 10.392C4.87194 10.4011 4.76452 10.4158 4.74576 10.4183C4.67457 10.4282 4.7367 10.4332 4.70866 10.4408C4.68065 10.4483 4.64556 10.4369 4.62858 10.4457C4.59348 10.464 4.60146 10.4877 4.59928 10.5062C4.5987 10.5136 4.66233 10.5091 4.66373 10.5101C4.67917 10.5254 4.61268 10.5407 4.73893 10.5492C4.41089 10.5598 4.77043 10.5586 4.70573 10.5805C4.7004 10.5822 4.54401 10.5842 4.52116 10.5775C4.49913 10.5709 4.54684 10.5603 4.51139 10.5512C4.49952 10.5487 4.35702 10.5372 4.3483 10.5355C4.28025 10.5222 4.5123 10.5196 4.52506 10.5189C4.6628 10.5109 4.50564 10.4956 4.49479 10.4916C4.44538 10.4733 4.47751 10.4581 4.44205 10.4428C4.41902 10.4331 4.27594 10.4315 4.27213 10.4242C4.28755 10.398 4.4994 10.3884 4.3151 10.3637C4.27534 10.3584 4.11021 10.364 4.24088 10.3451C4.25171 10.3436 4.36748 10.3297 4.29264 10.3217C4.28296 10.3206 4.23421 10.3201 4.23014 10.3187C4.20468 10.3098 4.24248 10.3041 4.22428 10.2943C4.20576 10.2845 4.17852 10.2724 4.19498 10.2611C4.20568 10.2544 4.29493 10.2458 4.31705 10.2426C4.38072 10.2334 4.27667 10.2238 4.35319 10.2181C4.4308 10.2124 4.54913 10.2234 4.59928 10.2084C4.47319 10.2078 4.34328 10.2063 4.21647 10.2055C4.22091 10.1726 4.26208 10.1398 4.25651 10.1068C4.25334 10.1031 4.18799 10.1072 4.18522 10.1029C4.17449 10.0845 4.22248 10.0683 4.20377 10.0492C4.18862 10.0343 4.11639 10.0179 4.0983 10.0023C4.24132 9.99292 4.1947 9.9702 4.2067 9.9535C4.21121 9.94769 4.2494 9.94777 4.26237 9.94373C4.30871 9.92805 4.18247 9.93526 4.16178 9.93104C4.07627 9.91256 4.36331 9.91077 4.35709 9.88904C4.34966 9.88732 4.20511 9.87351 4.19401 9.87147C4.13173 9.85914 4.2465 9.86931 4.25846 9.8617C4.27921 9.84759 4.31599 9.83821 4.27116 9.82166C4.25781 9.81683 4.16192 9.80468 4.236 9.79529C4.24554 9.79408 4.29494 9.79524 4.29948 9.79432C4.34911 9.77633 4.18955 9.7753 4.13541 9.76502C4.08133 9.75474 4.19148 9.73896 4.2233 9.73572C4.30443 9.72738 4.25974 9.74173 4.26627 9.74256C4.36178 9.74791 4.34636 9.73674 4.35416 9.72791C4.51081 9.72663 4.50141 9.71367 4.36198 9.71815C4.34674 9.71866 4.36132 9.72613 4.35416 9.72791C4.20046 9.72014 4.18123 9.70583 4.32487 9.6908C4.39207 9.68385 4.46972 9.69063 4.44108 9.66932C4.42655 9.65999 4.32118 9.66305 4.29166 9.65467C4.22495 9.63523 4.32369 9.61031 4.30924 9.59022C4.30349 9.5829 4.24392 9.58936 4.23795 9.58436C4.2228 9.5712 4.26636 9.55951 4.24381 9.54627C4.2415 9.54512 4.18381 9.54789 4.17936 9.54432C4.17218 9.51293 4.21142 9.48529 4.21256 9.45252C4.21306 9.43668 4.17934 9.40839 4.18619 9.39197C4.1978 9.36354 4.28712 9.32837 4.2653 9.30408C4.25122 9.2883 4.1892 9.29134 4.14713 9.28455C4.06629 9.27144 4.21241 9.24861 4.23502 9.24549C4.23716 9.24671 4.25189 9.25823 4.2819 9.25135C4.34565 9.24725 4.24165 9.24574 4.23502 9.24549C4.24942 9.2431 4.26288 9.21696 4.25162 9.21131C4.24525 9.20841 4.18792 9.20981 4.18424 9.20838C4.13183 9.17195 4.11682 9.13498 4.1442 9.09803C4.14534 9.0974 4.20655 9.09837 4.21256 9.09705C4.24169 9.07566 4.16151 9.06196 4.11393 9.04432C4.06685 9.02676 4.08304 9.01274 4.19498 9.00233C4.1809 8.98902 4.23123 8.96936 4.26139 8.95838C4.28969 8.94755 4.16331 8.94665 4.1608 8.94568C4.08045 8.91562 4.15309 8.89772 4.16471 8.86658C4.17029 8.8518 4.15226 8.82221 4.13834 8.80604C4.12711 8.79331 4.15648 8.78554 4.13737 8.77381C4.13423 8.77227 4.07802 8.77332 4.07584 8.77283C4.0084 8.75981 4.14652 8.76672 4.17155 8.76404C4.26171 8.75425 4.30966 8.7476 4.26725 8.73084C4.25538 8.72695 4.06243 8.71637 4.04655 8.70936C4.03173 8.70021 4.10272 8.70328 4.08561 8.69373C4.08419 8.69291 4.03971 8.69282 4.04166 8.6869C4.05017 8.65944 4.07636 8.62948 4.07194 8.60096C4.07094 8.59714 4.00145 8.60169 3.99967 8.59608C3.99149 8.56973 3.99343 8.54067 4.02604 8.51502C4.03433 8.50868 4.0837 8.51249 4.0983 8.51111C4.18428 8.50287 4.06462 8.49204 4.05631 8.48963C3.99478 8.44248 4.11029 8.40584 4.05534 8.35779C4.0521 8.35518 3.91485 8.33457 4.0319 8.32557C4.03972 8.32495 4.16024 8.31682 4.07877 8.30897C4.07364 8.30848 4.01153 8.31358 4.01725 8.30408C4.02356 8.29441 3.98228 8.27832 4.05045 8.26502C4.07207 8.2608 4.19211 8.2512 4.09635 8.23865C4.08924 8.2378 3.8734 8.21823 4.02213 8.21131C4.0467 8.21019 4.20475 8.21156 4.12467 8.19666C4.10903 8.19381 4.07349 8.19915 4.05143 8.19178C4.01746 8.18022 4.05941 8.16497 3.98893 8.15076C3.97616 8.14826 3.86947 8.13773 3.95084 8.12928C3.9638 8.12798 4.01624 8.12983 4.02213 8.12537C4.0502 8.10423 4.01556 8.08239 4.05143 8.06092C4.06419 8.05332 4.14904 8.05698 4.17252 8.0492C4.1954 8.04123 4.21741 8.02531 4.17838 8.01697C4.13926 8.0088 4.00537 8.01732 3.99284 8.00526C3.94553 7.95096 4.0251 7.89638 4.03678 7.84217C4.03688 7.83476 3.99016 7.84096 3.98893 7.82947C3.98531 7.78579 3.94013 7.71016 4.04362 7.67225C4.12634 7.6421 4.18962 7.6798 4.2233 7.65662C4.2363 7.64557 4.08247 7.634 4.07584 7.63123C4.02545 7.60493 4.09454 7.5865 4.07389 7.56287C4.0695 7.55804 4.00759 7.56181 4.0026 7.55799C3.99148 7.54372 4.01956 7.52866 4.01432 7.51502C4.0109 7.50912 3.96273 7.50985 3.96647 7.50428C3.97499 7.49086 3.99592 7.47928 4.04166 7.46619C4.04581 7.46501 4.10575 7.47281 4.10905 7.46326C4.11254 7.44714 4.15774 7.42713 4.111 7.40858C4.09695 7.40308 3.98536 7.40279 4.06217 7.391C4.07832 7.38851 4.2125 7.39111 4.09635 7.37733C4.07504 7.3747 3.92196 7.35247 4.02213 7.34119C4.04905 7.33819 4.15761 7.3302 4.14127 7.32361C4.13851 7.32272 4.0778 7.32617 4.07194 7.32068C4.05263 7.30145 4.05932 7.28087 4.04069 7.26111C4.0356 7.25587 3.97433 7.26369 3.96744 7.25623C3.95172 7.2345 3.96751 7.20718 3.98698 7.18592C3.99427 7.17808 4.04582 7.18356 4.05143 7.18299C4.14171 7.1739 4.02142 7.16847 4.01237 7.16541C3.96937 7.14648 4.0267 7.13208 4.01139 7.11463C4.00717 7.10992 3.95049 7.11254 3.94401 7.1117C3.89295 7.10178 3.99746 7.10914 4.00944 7.10291C4.04234 7.08528 4.03745 7.06605 4.02994 7.04822C4.02715 7.04178 3.96153 7.0487 3.95768 7.04334C3.94595 7.00855 3.95237 6.97182 3.98991 6.93787C3.99726 6.93161 4.04865 6.93519 4.06119 6.93397C4.14497 6.92478 4.03106 6.91167 4.02018 6.90858C3.97051 6.8945 4.01711 6.88878 4.00846 6.87635C3.96558 6.81579 3.99535 6.74121 4.01432 6.68397C4.03872 6.60931 4.08869 6.55104 4.07584 6.47986C4.07511 6.47549 4.01031 6.4792 4.00455 6.47596C3.98779 6.4257 4.01463 6.37593 3.99479 6.32557C3.99329 6.32151 3.92948 6.32671 3.92252 6.32068C3.91246 6.30704 3.91606 6.28956 3.93717 6.27576C3.94819 6.26944 4.0033 6.27754 4.01237 6.27088C4.03364 6.25511 4.03859 6.23825 4.02799 6.22205C4.02206 6.21566 3.95644 6.2257 3.95475 6.21717C3.94805 6.15619 3.93675 6.09617 4.02409 6.03455C4.0301 6.03032 4.16763 6.02596 4.14127 6.01697C4.10314 6.0163 4.058 6.01629 4.01725 6.016C3.99557 5.92731 4.0431 5.83931 4.05045 5.75037C4.04784 5.74717 3.9806 5.75296 3.97819 5.74647C3.97926 5.70438 3.95952 5.66257 4.0319 5.61951C4.0428 5.61552 4.16618 5.61724 4.14713 5.60486C4.1429 5.60174 4.12599 5.58432 4.09928 5.57947C4.09509 5.57881 4.03462 5.58168 4.03287 5.57557C4.02404 5.54032 4.03779 5.50334 4.07389 5.46815C4.0799 5.46243 4.14425 5.46831 4.14909 5.46424C4.18273 5.43537 4.13438 5.40394 4.19205 5.37635C4.23098 5.35786 4.34152 5.36469 4.44987 5.35486C4.46474 5.35329 4.46772 5.3418 4.52994 5.34119C4.68838 5.33967 4.86204 5.34541 5.03092 5.34315C5.06725 5.34267 5.02852 5.32733 5.11588 5.33631C5.12177 5.33694 5.15148 5.34822 5.18131 5.35096ZM4.52213 10.4027C4.47921 10.4076 4.52835 10.4213 4.5817 10.4154C4.6247 10.4106 4.5756 10.3967 4.52213 10.4027ZM4.30826 10.1273C4.23203 10.1367 4.40132 10.1441 4.43131 10.14C4.53006 10.1267 4.38465 10.1179 4.30826 10.1273ZM4.66764 8.8949C4.59685 8.89058 4.59176 8.90715 4.66569 8.90369C4.66853 8.90295 4.67047 8.89509 4.66764 8.8949ZM4.62272 8.37244C4.56186 8.37284 4.57919 8.38097 4.63541 8.3783C4.63867 8.37793 4.64122 8.37233 4.62272 8.37244ZM4.77994 8.01404C4.66387 8.00428 4.65188 8.04295 4.77409 8.03455C4.78036 8.03389 4.78573 8.01466 4.77994 8.01404ZM4.48307 5.39197C4.41192 5.38761 4.40618 5.40328 4.48014 5.39979C4.48312 5.39965 4.48602 5.39217 4.48307 5.39197Z" fill="#555961"/>
<path d="M5.18131 5.3509C5.20196 5.35267 5.2662 5.34924 5.29264 5.35285C5.31867 5.35636 5.26549 5.36161 5.29655 5.3675C5.32816 5.37318 5.40075 5.3686 5.40983 5.3802C5.42992 5.40728 5.41082 5.44385 5.38444 5.47395C5.37633 5.48322 5.33705 5.48212 5.32877 5.4886C5.31431 5.50205 5.33424 5.51195 5.31705 5.5257C5.31098 5.53028 5.2493 5.53172 5.24381 5.53645C5.21853 5.56311 5.23613 5.5838 5.22623 5.60969C5.17662 5.73889 5.18018 5.86768 5.19108 5.99934C5.19446 6.04242 5.15839 6.11131 5.19791 6.14485C5.20345 6.1481 5.25292 6.12601 5.25748 6.12531C5.32765 6.11451 5.22166 6.15041 5.21159 6.16535C5.17212 6.22428 5.18653 6.27016 5.22233 6.29719C5.23889 6.30734 5.32949 6.24785 5.28092 6.2884C5.27646 6.29159 5.22417 6.31168 5.2194 6.31867C5.21108 6.33422 5.22878 6.34837 5.22819 6.35774C5.22687 6.37548 5.22903 6.37756 5.23502 6.39094C5.24291 6.40978 5.22834 6.44601 5.25065 6.4593C5.25697 6.46071 5.30575 6.42749 5.31803 6.42902C5.33025 6.43077 5.33469 6.44962 5.32584 6.46223C5.31671 6.47489 5.27425 6.49587 5.2653 6.50227C5.19207 6.55516 5.30783 6.51498 5.31608 6.51399C5.38883 6.53246 5.35165 6.60914 5.38053 6.65168C5.40239 6.68347 5.44548 6.7029 5.46452 6.73371C5.48698 6.77053 5.48472 6.81971 5.51627 6.84895C5.51953 6.85203 5.57064 6.80265 5.57487 6.80598C5.61748 6.84401 5.64829 6.88996 5.65397 6.96418C5.65452 6.97167 5.60469 7.00942 5.60221 7.01985C5.59934 7.03561 5.59478 7.05616 5.59244 7.07453C5.58544 7.12777 5.60227 7.1662 5.75065 7.02961C5.76073 7.05345 5.77484 7.08094 5.75553 7.13606C5.74316 7.17164 5.6888 7.21416 5.72037 7.20442C5.7275 7.20218 5.76176 7.15498 5.77018 7.15363C5.80281 7.15315 5.81143 7.18451 5.84928 7.1761C5.85709 7.17421 5.89009 7.13193 5.89713 7.12531C5.9532 7.0728 5.88914 7.18253 5.88639 7.19367C5.86946 7.26822 5.9059 7.26164 5.92936 7.28059C5.93474 7.28498 5.96894 7.22457 5.97623 7.22492C6.00996 7.23654 6.03549 7.26098 6.04655 7.30598C6.04822 7.31664 6.01015 7.36279 6.00944 7.37043C6.00803 7.403 6.07212 7.30878 6.07194 7.33723C6.07196 7.34325 6.04322 7.38676 6.04069 7.39192C6.00214 7.47121 6.07304 7.37319 6.07877 7.36848C6.12409 7.35135 6.07307 7.47492 6.10905 7.47395C6.11332 7.47364 6.1392 7.41279 6.14909 7.41535C6.21491 7.43203 6.26629 7.47857 6.30436 7.55402C6.31034 7.5657 6.28291 7.6078 6.28092 7.6136C6.25124 7.70444 6.31117 7.59126 6.31608 7.5882C6.35366 7.5682 6.33581 7.67581 6.4108 7.54328C6.49482 7.63505 6.62282 7.58873 6.69498 7.74836C6.69597 7.75023 6.67793 7.80852 6.67936 7.81379C6.70506 7.85693 6.72345 7.76052 6.77311 7.64973C6.78486 7.62346 6.76919 7.76289 6.76823 7.77668C6.76507 7.81593 6.73774 7.90659 6.73795 7.91438C6.7415 7.97405 6.80722 7.67358 6.82682 7.67707C6.82734 7.6777 6.81332 7.73068 6.81315 7.7386C6.81476 7.75712 6.82464 7.73688 6.82584 7.75715C6.82827 7.80423 6.80438 7.95186 6.84049 7.87043C6.84504 7.85974 6.87504 7.68609 6.89127 7.69758C6.89785 7.70231 6.92884 7.70571 6.93619 7.71809C6.94329 7.73077 6.92817 7.78588 6.92838 7.7884C6.94131 7.86599 6.92713 7.89503 6.9235 8.00617C6.92067 8.11723 6.95611 7.85671 6.96549 7.82844C6.97479 7.80056 6.98507 7.86421 6.98698 7.88606C6.9887 7.90795 6.97755 7.94283 6.98014 7.95539C6.99804 8.03708 7.00909 7.82842 7.02311 7.78742C7.05524 7.69189 7.04876 7.8874 7.06705 7.90852C7.07147 7.91141 7.07188 7.8691 7.07682 7.86555C7.09656 7.85175 7.10292 7.91339 7.12858 7.85969C7.13301 7.85094 7.15722 7.73508 7.16178 7.8216C7.16248 7.83411 7.15556 7.88248 7.16276 7.89387C7.17356 7.91076 7.19415 7.92206 7.20768 7.90656C7.21742 7.89436 7.21102 7.81528 7.22135 7.84016C7.22606 7.85147 7.21416 7.89794 7.2233 7.91535C7.2325 7.93274 7.25848 7.93141 7.26823 7.93C7.27767 7.92769 7.27418 7.86763 7.27506 7.8636C7.28013 7.84143 7.29661 7.81425 7.29948 7.81184C7.31078 7.81093 7.32256 7.81207 7.33366 7.81477C7.40499 7.83109 7.47277 7.90205 7.54362 7.87336C7.55011 7.8708 7.54558 7.80633 7.54655 7.805C7.56881 7.77817 7.5515 7.94919 7.56705 8.00617C7.56482 7.8768 7.57395 7.89894 7.58951 7.88508C7.59707 7.87811 7.59371 7.82773 7.5944 7.82258C7.6056 7.74628 7.6129 7.84536 7.61491 7.86555C7.62232 7.93899 7.63037 7.85214 7.63541 7.90168C7.64035 7.95095 7.6292 8.02371 7.6442 8.02277C7.64839 7.97663 7.63713 7.8564 7.64811 7.83527C7.69105 7.76101 7.77147 7.85509 7.80631 7.86555C7.84089 7.87545 7.85257 7.86729 7.87272 7.8841C7.9088 7.91386 7.89607 7.82373 7.91862 7.78254C7.94109 7.74246 7.93001 7.96345 7.93326 8.01106C7.93645 8.05845 7.94005 8.00996 7.94401 8.03547C7.94796 8.06162 7.93967 8.09391 7.94889 8.10383C7.9582 8.11364 7.98357 8.02973 7.98698 7.97981C7.99397 7.87413 7.98181 7.7631 8.00651 7.80207C8.00774 7.80591 8.00408 7.86267 8.00944 7.86848C8.05249 7.91311 8.09729 7.91591 8.1403 7.95539C8.14623 7.96095 8.14075 8.02662 8.1442 8.03059C8.18 8.07176 8.16758 7.96245 8.18717 7.84113C8.18278 8.00269 8.19409 8.1019 8.22135 8.10285C8.23732 8.10241 8.23431 8.03215 8.24479 7.98274C8.24797 7.96772 8.26026 8.01597 8.26237 7.98274C8.26927 7.87426 8.2578 7.7531 8.2858 7.8011C8.28704 7.8034 8.28349 7.86292 8.28776 7.86652C8.31521 7.88989 8.31875 7.7773 8.3483 7.76301C8.37166 7.75221 8.4135 7.82108 8.4401 7.83235C8.43954 8.01426 8.46409 7.97242 8.47428 7.84699C8.4915 7.85212 8.51036 7.84543 8.52702 7.86262C8.53276 7.86853 8.52922 7.92138 8.52994 7.92707C8.54103 8.01596 8.54868 7.89377 8.55241 7.88899C8.59266 7.84309 8.62531 7.93486 8.66373 7.84504C8.6651 7.84179 8.66808 7.71567 8.67838 7.80793C8.6786 7.81587 8.66642 7.87192 8.68424 7.87629C8.70239 7.8813 8.73636 7.94745 8.76139 7.88996C8.76748 7.87587 8.78321 7.7729 8.79557 7.85285C8.79722 7.86373 8.79515 7.90006 8.79752 7.92024C8.80521 7.98447 8.80998 7.85687 8.81901 7.96516C8.82804 8.07357 8.84639 8.15495 8.87174 8.08039C8.87254 8.07824 8.87852 7.97913 8.88639 7.97883C8.89901 7.98145 8.91707 8.00152 8.93034 8.00129C8.93671 8.00094 8.93314 7.93799 8.93424 7.93684C8.97698 7.90195 9.00756 7.95845 9.05338 7.98274C9.06195 7.98607 9.08603 7.90176 9.10221 7.96906C9.12001 8.04346 9.1023 8.35131 9.14323 8.27863C9.1598 8.24923 9.18082 7.85733 9.21061 8.05988C9.26822 8.01032 9.32177 8.11357 9.37955 8.04231C9.38213 8.03916 9.39005 7.93212 9.39616 7.93098C9.40513 7.93337 9.41029 7.98307 9.41666 7.98762C9.44387 8.003 9.46953 7.95934 9.49577 7.96613C9.50519 7.96984 9.50187 8.02126 9.51334 8.02473C9.52522 8.02763 9.53339 7.95794 9.54948 7.99152C9.56161 8.01731 9.57341 8.15945 9.58952 8.1761C9.59013 8.0359 9.60205 8.0383 9.62174 8.00129C9.62528 7.99348 9.62113 7.94673 9.62272 7.93977C9.63 7.91462 9.63728 7.95445 9.6442 7.92707C9.6458 7.91915 9.64578 7.8725 9.64713 7.86457C9.65884 7.79474 9.67801 7.90249 9.68131 7.92121C9.69389 7.99147 9.7 7.93033 9.70963 7.95735C9.71935 7.98539 9.70512 8.02138 9.71647 8.0384C9.7399 8.07296 9.76986 8.06555 9.79362 8.0677C9.80285 8.06826 9.79763 8.00828 9.7985 8.00324C9.81821 7.98709 9.83738 8.05434 9.8483 7.92707C9.86196 8.25591 9.86025 7.89626 9.88834 7.96125C9.89055 7.96656 9.89381 8.12103 9.88541 8.14485C9.87692 8.1676 9.864 8.11962 9.85221 8.15461C9.84943 8.16291 9.83309 8.30705 9.83073 8.3177C9.81369 8.38634 9.81114 8.15717 9.81022 8.14192C9.79993 8.00404 9.78022 8.16133 9.77506 8.17219C9.75167 8.22097 9.73215 8.18934 9.71256 8.22395C9.6998 8.24662 9.69796 8.39576 9.68815 8.39485C9.65446 8.37944 9.64271 8.16744 9.611 8.3509C9.60419 8.39021 9.61002 8.55704 9.58561 8.4261C9.58387 8.41649 9.56672 8.29905 9.55631 8.37434C9.55507 8.38449 9.55499 8.43015 9.55338 8.43586C9.54176 8.46223 9.53382 8.42418 9.52116 8.4427C9.50852 8.46121 9.4926 8.48841 9.47819 8.47199C9.46955 8.46142 9.45895 8.3726 9.45475 8.34992C9.44297 8.28615 9.42982 8.39004 9.42252 8.31281C9.41525 8.23533 9.42991 8.11793 9.4108 8.0677C9.41009 8.19363 9.40805 8.32288 9.4069 8.44953C9.36472 8.44501 9.32324 8.40501 9.28092 8.41047C9.27566 8.41129 9.2807 8.47914 9.27506 8.48176C9.25139 8.49204 9.2303 8.44403 9.20573 8.4632C9.18678 8.47867 9.16596 8.54928 9.14616 8.5677C9.13394 8.42388 9.10418 8.47247 9.08268 8.4593C9.07529 8.45434 9.07531 8.41613 9.06998 8.40363C9.04997 8.35819 9.05989 8.48518 9.05436 8.5052C9.03059 8.5906 9.02771 8.30178 8.99967 8.30891C8.99798 8.31121 8.98067 8.46345 8.97819 8.47297C8.9623 8.53537 8.97544 8.41891 8.96549 8.40754C8.94742 8.38674 8.93498 8.3509 8.91373 8.39582C8.90751 8.40945 8.89256 8.50415 8.88053 8.43098C8.879 8.42162 8.87966 8.37361 8.87858 8.3675C8.85545 8.31786 8.85468 8.47745 8.84147 8.53156C8.8283 8.58502 8.80764 8.47588 8.80338 8.44367C8.79251 8.36144 8.81158 8.4078 8.81217 8.39973C8.81902 8.30409 8.804 8.32092 8.79264 8.31281C8.79099 8.15616 8.77516 8.16553 8.78092 8.305C8.78168 8.31976 8.79037 8.3057 8.79264 8.31281C8.78265 8.4662 8.76506 8.48564 8.74577 8.34211C8.73679 8.275 8.7456 8.19686 8.71842 8.22492C8.70598 8.23786 8.71079 8.34568 8.69987 8.37531C8.67474 8.44241 8.64179 8.34188 8.61588 8.35774C8.60657 8.36348 8.61518 8.42132 8.60905 8.42805C8.59199 8.44407 8.57734 8.40047 8.56022 8.42317C8.55891 8.42725 8.56207 8.48457 8.55729 8.48762C8.51692 8.4948 8.48128 8.45551 8.43912 8.45442C8.41874 8.45402 8.38206 8.48763 8.361 8.48078C8.32449 8.46883 8.27984 8.37991 8.24869 8.40168C8.22849 8.41574 8.23289 8.47682 8.22428 8.51887C8.20744 8.60047 8.17754 8.45473 8.1735 8.43195C8.17452 8.43029 8.19023 8.41558 8.18131 8.38508C8.17592 8.31952 8.17373 8.42979 8.1735 8.43195C8.17086 8.41733 8.13553 8.40354 8.12858 8.41535C8.12495 8.42277 8.12662 8.4805 8.12467 8.48274C8.07808 8.53472 8.0313 8.54978 7.98405 8.52277C7.98321 8.52159 7.98406 8.4554 7.98209 8.45344C7.95474 8.42485 7.93728 8.50455 7.91471 8.55207C7.89204 8.59964 7.87345 8.58349 7.86002 8.47102C7.84291 8.48518 7.81848 8.43576 7.80436 8.40559C7.79057 8.37659 7.78803 8.49816 7.78678 8.5052C7.74815 8.58561 7.72614 8.51402 7.68619 8.50227C7.66708 8.49665 7.62878 8.51469 7.60807 8.52863C7.59171 8.53987 7.58213 8.5105 7.56705 8.52961C7.56525 8.53461 7.56668 8.589 7.56608 8.59113C7.54949 8.65768 7.55768 8.5213 7.55436 8.49543C7.54176 8.40527 7.53391 8.35731 7.51237 8.39973C7.50732 8.41238 7.49304 8.60612 7.48405 8.62043C7.47227 8.63526 7.47587 8.56401 7.46354 8.58137C7.46261 8.5856 7.46285 8.62539 7.45573 8.62434C7.42039 8.61587 7.38111 8.59061 7.3444 8.59504C7.34014 8.59876 7.34597 8.66325 7.33951 8.66731C7.33774 8.66774 7.33544 8.66791 7.33366 8.66828C7.29308 8.67494 7.24829 8.67043 7.21061 8.63801C7.20111 8.62889 7.20928 8.5803 7.20768 8.56574C7.19822 8.47736 7.17406 8.6045 7.17057 8.60676C7.09177 8.66396 7.04386 8.54363 6.96354 8.59016C6.95949 8.593 6.91034 8.72553 6.9108 8.60676C6.91072 8.5957 6.9131 8.47945 6.8903 8.55793C6.88881 8.56289 6.8888 8.62478 6.87467 8.6175C6.86042 8.60915 6.82929 8.64619 6.81901 8.57551C6.81553 8.5532 6.82 8.43256 6.78483 8.52375C6.78188 8.5337 6.71342 8.73605 6.72916 8.5882C6.73212 8.56237 6.76281 8.40973 6.72526 8.48469C6.71807 8.49948 6.71956 8.53578 6.70377 8.555C6.67919 8.5845 6.66355 8.53807 6.62662 8.60188C6.62029 8.61327 6.58032 8.71454 6.58463 8.63215C6.58537 8.61923 6.60102 8.56821 6.59537 8.56086C6.56892 8.52585 6.52565 8.5519 6.50162 8.50813C6.49322 8.49264 6.52111 8.41132 6.5153 8.38606C6.50941 8.36082 6.49224 8.33345 6.4694 8.3675C6.44639 8.40172 6.42233 8.53645 6.40006 8.54133C6.30214 8.56182 6.24312 8.45834 6.16764 8.41731C6.15648 8.4118 6.14933 8.45965 6.13151 8.45442C6.06512 8.43335 5.93173 8.42497 5.92155 8.305C5.91465 8.21001 5.99523 8.17872 5.97819 8.13313C5.97043 8.11157 5.88435 8.24411 5.8776 8.24738C5.81749 8.27387 5.82364 8.19817 5.78092 8.19953C5.77186 8.2006 5.74818 8.25958 5.74088 8.2591C5.71554 8.25782 5.70835 8.22165 5.68717 8.21516C5.67754 8.21249 5.65438 8.25524 5.64811 8.24836C5.63345 8.23009 5.6276 8.20176 5.63346 8.15168C5.63547 8.14582 5.67517 8.10211 5.66373 8.09211C5.64391 8.07604 5.64175 8.02132 5.59244 8.04524C5.57714 8.05377 5.51736 8.14508 5.54362 8.07063C5.55029 8.05347 5.62569 7.94615 5.54459 8.03059C5.53124 8.04512 5.41332 8.154 5.45475 8.06086C5.46575 8.03625 5.51838 7.93878 5.50065 7.9466C5.49792 7.94805 5.46816 8.00127 5.45768 8.00129C5.42155 7.99983 5.39927 7.97579 5.36295 7.97199C5.35309 7.97105 5.32582 8.02785 5.31217 8.02473C5.27449 8.0161 5.24943 7.97641 5.23502 7.93977C5.22986 7.9264 5.26713 7.89295 5.27116 7.88703C5.31705 7.80769 5.23475 7.8961 5.22526 7.89973C5.17453 7.91348 5.19327 7.85384 5.16276 7.84699C5.15434 7.84505 5.11997 7.89213 5.11491 7.89582C5.06924 7.9237 5.14659 7.85295 5.14713 7.83723C5.14755 7.79391 5.12134 7.77674 5.09537 7.76301C5.08541 7.7593 5.04922 7.81489 5.04069 7.81086C5.00308 7.7882 4.9716 7.7561 4.95377 7.7132C4.9482 7.69972 4.94379 7.68485 4.94108 7.66926C4.93904 7.65687 4.98086 7.62445 4.98795 7.61457C5.03805 7.54603 4.94182 7.61088 4.93034 7.61457C4.8788 7.63225 4.90616 7.59395 4.88639 7.58527C4.78829 7.54267 4.7329 7.42827 4.69303 7.34406C4.64012 7.23382 4.63056 7.13101 4.56119 7.04328C4.55681 7.03761 4.50035 7.08002 4.49577 7.07551C4.43902 7.01503 4.42386 6.93193 4.36881 6.86945C4.36406 6.86451 4.30959 6.90335 4.30045 6.89582C4.28141 6.88046 4.27189 6.85297 4.28092 6.82356C4.28538 6.80926 4.34295 6.79726 4.34635 6.78352C4.35431 6.75169 4.3471 6.72536 4.32682 6.70637C4.31732 6.69917 4.26318 6.74164 4.25651 6.72883C4.20961 6.64172 4.16182 6.55227 4.21159 6.43C4.21757 6.42075 4.3422 6.37086 4.31315 6.36652C4.2768 6.37786 4.23462 6.39287 4.19596 6.40559C4.12901 6.27748 4.13761 6.12737 4.11686 5.9886C4.11374 5.9838 4.04733 6.00737 4.04459 5.99641C4.0323 5.92995 4.00111 5.86661 4.06315 5.7884C4.06923 5.78068 4.19622 5.76584 4.17448 5.74934C4.16978 5.74536 4.14939 5.72046 4.12174 5.71613C4.11745 5.71557 4.05821 5.72754 4.05534 5.71809C4.03983 5.66317 4.04796 5.60202 4.08073 5.54426C4.08615 5.53493 4.15052 5.5401 4.15494 5.53352C4.18572 5.48762 4.13612 5.44122 4.19303 5.39777C4.23175 5.36947 4.34202 5.37765 4.44987 5.36262C4.46478 5.36033 4.46761 5.34508 4.52994 5.34406C4.68836 5.34163 4.86206 5.34759 5.03092 5.34406C5.06723 5.34335 5.02854 5.32657 5.11588 5.33625C5.12176 5.33695 5.15146 5.34835 5.18131 5.3509ZM9.32291 8.23567C9.30582 8.13672 9.29425 8.2823 9.30631 8.35871C9.31833 8.43415 9.32805 8.26612 9.32291 8.23567ZM9.67643 8.0843C9.67016 8.04171 9.65209 8.09144 9.65983 8.14485C9.66608 8.18768 9.68419 8.13777 9.67643 8.0843ZM9.9528 7.83625C9.96079 7.84287 9.93399 7.9202 9.94498 7.94367C9.96518 7.98578 9.97905 7.82198 9.99967 7.90949C10.0034 7.92568 9.97786 8.08227 9.97526 8.08137C9.93123 8.06844 9.90478 7.80666 9.9528 7.83625ZM7.04655 8.02863C7.04063 8.08921 7.05407 8.07321 7.05631 8.01692C7.05616 8.01364 7.04838 8.01034 7.04655 8.02863ZM7.72233 7.99836C7.71664 8.06958 7.73752 8.07538 7.73307 8.00129C7.73245 7.99845 7.72294 7.99574 7.72233 7.99836ZM6.63151 7.78742C6.58727 7.89582 6.63088 7.92152 6.65299 7.8011C6.65408 7.79505 6.63477 7.78317 6.63151 7.78742ZM4.48405 5.4134C4.41287 5.4093 4.40829 5.43244 4.48209 5.42512C4.48489 5.42396 4.48687 5.41358 4.48405 5.4134Z" fill="#555961"/>
</svg>
