<svg width="16" height="16" viewBox="0 0 16 16" fill="none" xmlns="http://www.w3.org/2000/svg">
<path d="M7.16931 6.43623C7.24171 6.41871 7.30314 6.51267 7.40368 6.56513C7.41789 6.57253 7.44741 6.54652 7.49353 6.58955C7.60947 6.69757 7.71897 6.83338 7.84411 6.94697C7.87108 6.97147 7.88096 6.90674 7.92126 6.99092C7.92383 6.99688 7.91757 7.04434 7.932 7.07197C7.94198 7.09114 7.99584 7.12786 8.00525 7.15595C8.01448 7.18396 7.96607 7.15697 7.97204 7.19404C7.97866 7.2319 8.03716 7.27669 8.01208 7.31416C7.95346 7.40072 7.84386 7.4815 7.75134 7.53388C7.72239 7.55037 7.70521 7.51107 7.68396 7.52119C7.64252 7.54104 7.62757 7.58294 7.58435 7.60029C7.56982 7.60558 7.53792 7.54945 7.5238 7.55634C7.44655 7.59453 7.40309 7.66055 7.33532 7.70967C7.00158 7.95145 6.70278 8.2183 6.39197 8.48994C6.28947 8.57959 6.13242 8.65703 6.05115 8.77412C6.04244 8.78786 6.08665 8.8192 6.08825 8.8249C6.10317 8.90852 6.03641 8.81916 6.00329 8.83076C5.87251 8.87922 5.76948 8.97546 5.69861 9.07685C5.6686 9.12008 5.78249 9.16035 5.70251 9.154C5.697 9.15363 5.66425 9.10341 5.64978 9.10908C5.61718 9.1221 5.58182 9.17265 5.56091 9.1872C5.52036 9.21482 5.51443 9.22081 5.48181 9.25263C5.43683 9.29566 5.36419 9.32782 5.32654 9.38447C5.31899 9.39677 5.37437 9.42564 5.3656 9.44892C5.35677 9.47224 5.3109 9.51083 5.2865 9.51533C5.26211 9.51972 5.23422 9.48039 5.224 9.47529C5.13889 9.43245 5.17926 9.57123 5.17517 9.57978C5.09764 9.73303 4.94725 9.7815 4.83923 9.89033C4.75738 9.97307 4.68626 10.0778 4.60583 10.154C4.5098 10.2446 4.40815 10.3014 4.32165 10.3962C4.31247 10.4062 4.37378 10.4454 4.36267 10.4577C4.24462 10.588 4.11554 10.7054 3.95837 10.7956C3.94256 10.8046 3.9143 10.7453 3.89587 10.7517C3.78396 10.7916 3.57789 10.8259 3.724 11.0612C3.66526 11.1053 3.59555 11.16 3.51111 11.1677C3.45672 11.1726 3.43712 11.0965 3.42126 11.153C3.41763 11.1658 3.47091 11.1976 3.46228 11.2136C3.42588 11.2807 3.35501 11.3242 3.32556 11.3972C3.32083 11.4124 3.36066 11.4461 3.36462 11.4558C3.39472 11.5353 3.26205 11.4865 3.24646 11.489C3.12917 11.5089 3.09843 11.5785 3.03357 11.6413C3.01846 11.6559 3.08633 11.6889 3.07361 11.7048C3.0302 11.7578 2.98055 11.8075 2.92517 11.8493C2.90042 11.8666 2.87536 11.8814 2.849 11.8952C2.83183 11.9033 2.79619 11.8517 2.78552 11.8542C2.7384 11.8679 2.82326 11.9459 2.78259 11.9597C2.77411 11.9629 2.73511 11.9294 2.72888 11.9265C2.6418 11.894 2.73501 11.9834 2.73474 11.989C2.72934 12.068 2.59006 12.0461 2.57556 12.1247C2.57491 12.1336 2.64188 12.142 2.63513 12.1647C2.63467 12.1663 2.63461 12.1681 2.63415 12.1696C2.59317 12.3097 2.54943 12.4509 2.50525 12.6013C2.50202 12.6122 2.49871 12.6234 2.49548 12.6345C2.48807 12.6598 2.43827 12.6437 2.432 12.6452C2.33849 12.6772 2.46517 12.6888 2.47204 12.696C2.51114 12.7561 2.41797 12.8399 2.57556 12.8503C2.57731 12.9152 2.59332 12.9795 2.61658 13.0397C2.67158 13.1812 2.76442 13.2976 2.84704 13.4294C2.87656 13.4761 2.9052 13.5256 2.93396 13.5808C2.93593 13.5842 2.89404 13.6294 2.89685 13.6374C2.95098 13.7201 2.9959 13.6313 3.1029 13.5573C3.12816 13.538 3.09467 13.6818 3.09411 13.695C3.0889 13.7362 3.03203 13.8116 3.03259 13.821C3.04591 13.8944 3.17801 13.6151 3.22107 13.6345C3.22137 13.6371 3.19309 13.6853 3.1947 13.6921C3.20018 13.7134 3.22102 13.6984 3.22595 13.7214C3.23634 13.7745 3.19923 13.9204 3.27575 13.8542C3.28509 13.8451 3.33028 13.6766 3.3695 13.696C3.38534 13.7047 3.46146 13.7189 3.48181 13.7331C3.50167 13.748 3.47786 13.8017 3.47888 13.8044C3.5306 13.8878 3.50269 13.9149 3.52575 14.029C3.55254 14.1417 3.56622 13.8804 3.58142 13.8513C3.59634 13.8233 3.64022 13.8874 3.65271 13.9089C3.66431 13.9306 3.64854 13.966 3.65954 13.9782C3.66704 13.9863 3.67361 13.9913 3.67908 13.9938C3.72754 14.0155 3.69394 13.8432 3.71325 13.8054C3.75826 13.706 3.80993 13.8962 3.86658 13.9079C3.88092 13.911 3.86379 13.8695 3.87439 13.863C3.91765 13.8401 3.96014 13.8934 3.99939 13.8259C4.00689 13.8128 4.01324 13.6924 4.06384 13.7653C4.07145 13.7758 4.07537 13.8256 4.09802 13.8298C4.13209 13.8357 4.18927 13.8249 4.21325 13.7966C4.23056 13.7756 4.17325 13.714 4.21033 13.7243C4.22647 13.7296 4.22419 13.7815 4.25427 13.7858C4.2851 13.7903 4.34396 13.7566 4.36462 13.7419C4.38463 13.7276 4.34331 13.6846 4.34118 13.6784C4.33951 13.653 4.35975 13.6059 4.36365 13.6013C4.42595 13.5554 4.49265 13.5186 4.55798 13.4763C4.66931 13.4003 4.78274 13.3291 4.86365 13.2194C4.87416 13.2053 4.82051 13.1674 4.82165 13.1647C4.84514 13.1048 4.9318 13.2581 5.00134 13.2692C4.90533 13.1815 4.93967 13.1801 4.95935 13.1403C4.96818 13.1212 4.92584 13.0937 4.92322 13.0886C4.89068 13.0137 4.97388 13.0679 4.99255 13.0788C5.05902 13.1173 5.01254 13.0407 5.057 13.0661C5.10137 13.0915 5.13169 13.1645 5.15954 13.1354C5.1347 13.0945 5.02778 13.0294 5.03552 12.9938C5.06499 12.86 5.2841 12.7759 5.35681 12.7175C5.42935 12.6591 5.44444 12.6314 5.4945 12.6052C5.58469 12.5579 5.49546 12.5189 5.50915 12.447C5.52333 12.3761 5.65835 12.5523 5.69861 12.5808C5.73833 12.6085 5.71064 12.5678 5.73669 12.5788C5.76264 12.5899 5.76971 12.6285 5.79431 12.6179C5.81853 12.6066 5.80732 12.4995 5.77868 12.4577C5.71741 12.3698 5.61705 12.3128 5.69079 12.2936C5.69512 12.2926 5.72808 12.3427 5.74255 12.3366C5.8561 12.2868 5.9433 12.2035 6.0531 12.1501C6.06829 12.1439 6.10295 12.1974 6.11267 12.195C6.21014 12.1565 6.10842 12.1035 6.05993 11.9802C6.16579 12.1031 6.25655 12.1522 6.30896 12.1013C6.34023 12.0708 6.28604 12.0265 6.27087 11.9714C6.26631 11.9547 6.32251 11.9666 6.3031 11.9392C6.23955 11.8491 6.13263 11.7842 6.22009 11.7653C6.22403 11.7646 6.25806 11.8131 6.26892 11.8083C6.33783 11.7729 6.26413 11.6859 6.31091 11.6198C6.34776 11.5682 6.47522 11.539 6.53357 11.4968C6.6609 11.6266 6.67897 11.5492 6.60974 11.4411C6.64595 11.4122 6.67648 11.3726 6.72009 11.3532C6.73502 11.3466 6.76511 11.3899 6.77087 11.3933C6.854 11.435 6.78452 11.3372 6.7865 11.3249C6.83022 11.2156 6.95792 11.2186 6.96716 11.0817C6.96738 11.0768 6.88291 10.9835 6.96716 11.029C6.9729 11.0322 6.98946 11.0966 7.02673 11.0661C7.06422 11.035 7.17742 11.0183 7.18396 10.9294C7.18555 10.9079 7.14201 10.8062 7.22204 10.8395C7.23286 10.8442 7.25511 10.8727 7.2738 10.8825C7.33368 10.9135 7.25183 10.8153 7.34509 10.8747C7.43874 10.9344 7.53225 10.9568 7.52771 10.8561C7.5277 10.8531 7.4675 10.7695 7.48376 10.7556C7.50978 10.7335 7.55863 10.7145 7.58337 10.6892C7.5952 10.6769 7.54302 10.6393 7.54431 10.6364C7.60066 10.5307 7.69801 10.5125 7.80212 10.4431C7.82128 10.4304 7.80683 10.3247 7.88513 10.3415C7.97134 10.3602 8.15479 10.6131 8.18103 10.4841C8.1917 10.4319 7.95496 10.1145 8.15466 10.2019C8.22875 10.0571 8.40312 10.0291 8.46228 9.86884C8.46268 9.8588 8.40395 9.76883 8.41638 9.75849C8.43536 9.74334 8.48068 9.77004 8.49548 9.76045C8.55788 9.71994 8.57385 9.64117 8.62829 9.59638C8.64889 9.57933 8.67988 9.62337 8.70447 9.60322C8.72902 9.58283 8.69518 9.51903 8.74939 9.5124C8.7905 9.50756 8.91415 9.58486 8.95642 9.56611C8.85862 9.46569 8.88175 9.44688 8.89294 9.38349C8.89505 9.37125 8.85271 9.34419 8.85193 9.33662C8.84802 9.30517 8.88909 9.32084 8.88318 9.28877C8.88172 9.28093 8.84819 9.24631 8.84509 9.23799C8.8177 9.16615 8.93008 9.20655 8.94958 9.21357C9.02305 9.23952 8.99103 9.18508 9.02868 9.18623C9.0669 9.18772 9.06449 9.23957 9.09802 9.23017C9.16745 9.21063 9.21915 9.14779 9.26599 9.1042C9.28397 9.08699 9.22988 9.05526 9.22888 9.05049C9.2548 9.00175 9.34003 9.01188 9.27087 8.90107C9.52918 9.10833 9.27152 8.85591 9.37146 8.84931C9.38111 8.85063 9.49404 8.95378 9.4945 8.98603C9.49447 9.0183 9.43512 9.00877 9.43786 9.05634C9.43941 9.06911 9.51098 9.2013 9.51306 9.21162C9.52892 9.29232 9.3607 9.13203 9.34997 9.1247C9.23376 9.04712 9.307 9.19491 9.30505 9.21259C9.29542 9.29245 9.23441 9.30735 9.22204 9.36982C9.2139 9.41054 9.31877 9.52096 9.29626 9.53681C9.22138 9.58929 9.04966 9.46164 9.1195 9.65205C9.13524 9.69312 9.26351 9.79708 9.12536 9.75068C9.1148 9.74694 8.99826 9.69839 9.03161 9.77119C9.03639 9.78067 9.06853 9.8128 9.0697 9.82002C9.06629 9.86066 9.02399 9.8484 9.01306 9.88545C9.00219 9.92233 8.99306 9.97018 8.95447 9.98603C8.931 9.99553 8.84519 9.95281 8.82165 9.94502C8.75506 9.92273 8.80454 10.0196 8.73669 9.9792C8.66795 9.93814 8.6114 9.82786 8.53943 9.82881C8.62709 9.91944 8.71575 10.0142 8.8031 10.1061C8.71992 10.1828 8.61198 10.2322 8.53552 10.3161C8.52613 10.3266 8.58439 10.3651 8.57556 10.3776C8.53808 10.4302 8.4642 10.4356 8.43103 10.4958C8.40583 10.5427 8.41697 10.6329 8.39197 10.6833C8.26697 10.6042 8.2448 10.6949 8.1947 10.7263C8.17722 10.7368 8.15113 10.7085 8.1322 10.7097C8.06122 10.715 8.16805 10.7873 8.17224 10.8122C8.1876 10.9177 7.98034 10.7175 7.932 10.7751C7.92939 10.7781 8.0042 10.9218 8.00622 10.9333C8.02013 11.0074 7.96278 10.9001 7.93591 10.9108C7.88685 10.9304 7.83708 10.9286 7.82849 11.0007C7.82613 11.0219 7.86553 11.1182 7.7904 11.0886C7.78054 11.0847 7.7461 11.0463 7.74157 11.0466C7.66306 11.0553 7.7742 11.1698 7.78747 11.2331C7.80061 11.2964 7.684 11.2565 7.65368 11.2419C7.57563 11.2044 7.64459 11.2018 7.64001 11.195C7.58534 11.114 7.56867 11.1539 7.54138 11.1696C7.42774 11.0619 7.40467 11.0984 7.51404 11.1862C7.5258 11.1954 7.53225 11.1697 7.54138 11.1696C7.63097 11.2973 7.61202 11.3442 7.474 11.279C7.40936 11.2484 7.37003 11.1765 7.33825 11.2487C7.32383 11.2814 7.4095 11.3487 7.40954 11.3903C7.40929 11.4853 7.27558 11.4756 7.23767 11.5358C7.22407 11.5575 7.28226 11.582 7.27575 11.5983C7.25474 11.6419 7.19454 11.6397 7.1781 11.6882C7.17872 11.6938 7.22748 11.7295 7.21814 11.7399C7.14669 11.8212 7.0517 11.8593 6.97107 11.9382C6.93212 11.9764 6.88697 12.0692 6.84216 12.1042C6.76467 12.1651 6.61641 12.187 6.57263 12.2614C6.54404 12.3098 6.59556 12.345 6.60876 12.3913C6.63441 12.4807 6.47581 12.4341 6.45154 12.4255C6.45077 12.4252 6.47312 12.3814 6.43298 12.3767C6.37664 12.3407 6.45171 12.4249 6.45154 12.4255C6.43621 12.4201 6.3597 12.4762 6.35486 12.4978C6.35253 12.5096 6.398 12.5471 6.39587 12.5524C6.3441 12.678 6.26499 12.777 6.15564 12.8474C6.15101 12.8453 6.11098 12.8009 6.10486 12.8015C6.03216 12.8328 6.05468 12.9231 6.04529 12.9997C6.03585 13.0762 5.9909 13.0989 5.88611 13.0446C5.86366 13.087 5.78184 13.0979 5.73376 13.1032C5.68658 13.1087 5.77037 13.2005 5.77185 13.2067C5.75534 13.3371 5.66079 13.3282 5.57654 13.3962C5.53633 13.4285 5.47794 13.5133 5.44861 13.5622C5.42552 13.601 5.38557 13.5984 5.37048 13.6403C5.36842 13.646 5.41211 13.6825 5.41247 13.6853C5.42841 13.7649 5.34573 13.6513 5.32165 13.6403C5.23432 13.6004 5.18605 13.5814 5.17517 13.652C5.17368 13.6696 5.28491 13.836 5.27673 13.862C5.26488 13.8948 5.2234 13.8362 5.21228 13.8718C5.21245 13.8757 5.24244 13.9059 5.22693 13.9186C5.18684 13.9521 5.14102 13.9836 5.09704 14.0173C5.04683 14.0589 4.99599 14.0989 4.94861 14.1403C4.93507 14.1531 4.99788 14.1914 4.97693 14.2106C4.87787 14.3013 4.74954 14.381 4.6195 14.4108C4.5877 14.4177 4.58323 14.3653 4.57068 14.3552C4.49604 14.2945 4.49876 14.4331 4.48962 14.4401C4.29382 14.5902 4.08863 14.5246 3.86462 14.6022C3.85435 14.6071 3.75698 14.7513 3.70837 14.6335C3.70679 14.6297 3.6946 14.5987 3.67908 14.5778C3.66299 14.5565 3.64387 14.5459 3.62341 14.5866C3.62068 14.5917 3.64645 14.6551 3.59802 14.6472C3.55061 14.6392 3.46659 14.6741 3.40954 14.5974C3.39042 14.5731 3.36507 14.4487 3.28845 14.531C3.284 14.5405 3.13794 14.7251 3.14099 14.572C3.14178 14.5465 3.19026 14.397 3.09997 14.4538C3.08208 14.4646 3.09525 14.5057 3.0531 14.5153C2.98716 14.5296 2.93177 14.4641 2.83825 14.4997C2.82218 14.5069 2.72552 14.58 2.72204 14.487C2.72218 14.4723 2.75678 14.4311 2.73962 14.4157C2.65898 14.3426 2.54509 14.3139 2.47986 14.2204C2.45737 14.1876 2.5245 14.1303 2.50915 14.0895C2.4935 14.0487 2.45225 13.9855 2.39783 13.988C2.34267 13.9901 2.282 14.1201 2.22888 14.0847C2.22232 14.0802 2.21573 14.0748 2.20935 14.07C1.98796 13.9049 1.89452 13.6314 1.80505 13.3884C1.80357 13.3844 1.80201 13.3809 1.80017 13.3786C1.78467 13.3601 1.75611 13.3942 1.73572 13.3444C1.65213 13.1569 1.54858 12.8046 1.63318 12.6013C1.63897 12.5864 1.64529 12.5722 1.65271 12.5593C1.74095 12.4144 1.79669 12.5993 1.83532 12.4938C1.85397 12.4461 1.70357 12.3734 1.69958 12.3581C1.66629 12.2212 1.75517 12.1449 1.76697 12.029C1.76958 12.0048 1.70194 12.0087 1.70447 11.988C1.71397 11.9253 1.75516 11.87 1.78064 11.8151C1.78472 11.8063 1.78827 11.7968 1.79138 11.7878C1.80105 11.7587 1.75532 11.7443 1.77087 11.7194C1.80785 11.6601 1.85461 11.6142 1.92712 11.5808C1.9336 11.578 1.96721 11.6425 1.99353 11.6022C2.03679 11.5362 2.12641 11.4844 2.1449 11.3864C2.14956 11.3573 2.06518 11.2845 2.1615 11.2897C2.18212 11.2909 2.27123 11.3921 2.22986 11.2653C2.22632 11.2541 2.21479 11.1946 2.224 11.1452C2.22091 11.1128 2.23346 11.0869 2.27966 11.1071C2.30578 11.1186 2.40279 11.1775 2.40661 11.1491C2.40511 11.1441 2.35577 11.1117 2.36462 11.0944C2.39764 11.0334 2.45084 10.9882 2.48572 10.9265C2.49492 10.9099 2.43183 10.8853 2.44665 10.862C2.48828 10.7979 2.56581 10.7429 2.63122 10.7048C2.65516 10.691 2.67829 10.7394 2.68396 10.7429C2.77058 10.7847 2.69783 10.6856 2.69958 10.6726C2.71505 10.5961 2.79108 10.6018 2.82263 10.5485C2.83129 10.5342 2.78261 10.5016 2.77966 10.4948C2.76754 10.4345 2.8245 10.5264 2.84802 10.5192C2.91406 10.4994 2.95853 10.4479 2.99646 10.3991C3.00925 10.3811 2.94446 10.3511 2.9574 10.3356C3.03346 10.2427 3.12587 10.1595 3.23474 10.1032C3.25529 10.0927 3.28253 10.1388 3.29431 10.1442C3.37592 10.1809 3.32778 10.0678 3.32751 10.0524C3.32646 9.98304 3.3728 10.002 3.39685 9.96552C3.51372 9.78725 3.71703 9.62603 3.8695 9.4997C4.06817 9.33471 4.24481 9.2285 4.40857 9.0456C4.41875 9.03395 4.35821 8.99565 4.36658 8.98506C4.47698 8.85033 4.6167 8.74837 4.72497 8.61103C4.73333 8.59972 4.67314 8.56797 4.68591 8.54853C4.71192 8.50824 4.75669 8.46862 4.80505 8.4499C4.8284 8.44152 4.84676 8.50292 4.8695 8.49287C4.92271 8.46947 4.96664 8.43128 4.99841 8.38447C5.01184 8.36438 4.93913 8.34144 4.96033 8.31904C5.10362 8.16556 5.24088 8.01115 5.45251 7.92256C5.46699 7.91651 5.57277 8.00415 5.57654 7.96455C5.5512 7.93605 5.51971 7.90413 5.49158 7.8747C5.69165 7.64258 5.93907 7.46176 6.16052 7.2497C6.16917 7.24058 6.10198 7.20475 6.1195 7.1872C6.22239 7.08536 6.30757 6.97164 6.46325 6.91767C6.47864 6.91225 6.56459 7.00794 6.58142 6.96357C6.58455 6.95527 6.61752 6.89735 6.60974 6.86592C6.60808 6.86117 6.5581 6.82731 6.57165 6.81123C6.65138 6.71827 6.75176 6.6375 6.86365 6.57685C6.88181 6.56767 6.9119 6.62632 6.92517 6.61982C7.01914 6.57313 7.06137 6.46277 7.16931 6.43623ZM3.86462 14.0319C3.87383 14.0916 3.90083 14.0705 3.88318 14.0163C3.88178 14.0132 3.86186 14.0134 3.86462 14.0319ZM2.79919 13.5397C2.69441 13.6024 2.78599 13.6996 2.84314 13.5866C2.84416 13.5797 2.80425 13.5371 2.79919 13.5397ZM5.2904 12.9704C5.32986 13.0315 5.37423 12.9958 5.31384 12.9519C5.31129 12.9503 5.28946 12.9675 5.2904 12.9704ZM8.49255 10.112C8.39091 10.0747 8.4715 10.1999 8.54822 10.2311C8.62452 10.262 8.52357 10.1234 8.49255 10.112ZM9.05603 9.33759C9.0139 9.31903 9.0153 9.38859 9.06775 9.41181C9.10948 9.42976 9.10835 9.36073 9.05603 9.33759ZM9.54529 8.60322C9.56398 8.6086 9.62552 8.76487 9.62048 8.77021L9.58044 8.78877C9.47505 8.81252 9.30572 8.70065 9.40368 8.63935C9.42397 8.6267 9.42755 8.73416 9.46521 8.73017C9.53415 8.72238 9.44361 8.57975 9.54529 8.60322ZM7.33825 6.67939C7.29844 6.61852 7.25414 6.65432 7.31482 6.69795C7.31723 6.69968 7.33911 6.68239 7.33825 6.67939Z" fill="#555961"/>
<path d="M8.27608 1.6296C8.38519 1.6373 8.49244 1.65691 8.59639 1.68624C8.66209 1.70626 8.6206 1.64182 8.72041 1.67355C8.87671 1.72522 9.07651 1.82561 9.23506 1.98312C9.3399 2.0843 9.43826 2.19651 9.46358 2.30538C9.49906 2.45804 9.33562 2.38459 9.3835 2.48019C9.40665 2.52592 9.55424 2.45309 9.56807 2.45675C9.68561 2.50277 9.69324 2.60921 9.78194 2.66769C9.8003 2.67974 9.83126 2.61982 9.84639 2.63058C9.89824 2.66698 9.92456 2.73371 9.97041 2.77218C9.99113 2.78901 10.0221 2.75114 10.0368 2.7712C10.0725 2.81886 10.095 2.87011 10.1032 2.94308C10.104 2.94974 10.0359 2.96822 10.0651 3.00069C10.1126 3.05311 10.1427 3.1471 10.2331 3.17159C10.2601 3.17869 10.3397 3.10035 10.322 3.19112C10.3183 3.21023 10.2137 3.29597 10.3386 3.25655C10.3601 3.24995 10.5417 3.21171 10.5056 3.31808C10.4957 3.34666 10.4424 3.44699 10.4743 3.45577C10.4791 3.4566 10.5108 3.40288 10.5319 3.41573C10.6057 3.46176 10.6641 3.52865 10.739 3.57687C10.759 3.58966 10.7788 3.52123 10.8073 3.54171C10.8858 3.59797 10.9584 3.69356 11.0105 3.77315C11.0294 3.80239 10.9771 3.82198 10.9743 3.82784C10.9382 3.92071 11.0417 3.85094 11.0564 3.85519C11.1454 3.88344 11.1497 3.96917 11.2146 4.01241C11.2321 4.02308 11.2619 3.97391 11.2692 3.9714C11.3362 3.96603 11.2394 4.0179 11.2507 4.04562C11.2821 4.12325 11.3465 4.18036 11.4069 4.23019C11.4292 4.24815 11.4539 4.17821 11.4733 4.19503C11.5894 4.29451 11.6974 4.41096 11.7761 4.54269C11.7905 4.56753 11.7413 4.59262 11.737 4.60519C11.7066 4.69232 11.8275 4.65337 11.8454 4.65499C11.924 4.66345 11.9085 4.7134 11.9528 4.74581C12.1714 4.90346 12.3824 5.15732 12.5466 5.34835C12.7608 5.5971 12.9056 5.81254 13.1355 6.02413C13.1502 6.03665 13.1848 5.97426 13.198 5.98507C13.366 6.12932 13.5009 6.30184 13.6716 6.44405C13.6854 6.45575 13.7132 6.39155 13.737 6.40792C13.7864 6.44308 13.8381 6.49967 13.8659 6.55733C13.879 6.58516 13.8114 6.59741 13.8259 6.62472C13.8597 6.68859 13.9088 6.74415 13.9665 6.78683C13.9911 6.80459 14.0066 6.72548 14.0349 6.75265C14.1286 6.84177 14.2229 6.92889 14.3093 7.02413C14.5059 7.22863 14.6254 7.50741 14.6247 7.78585C14.6246 7.82422 14.4928 7.87073 14.5231 7.93722C14.5614 7.94054 14.6064 7.93762 14.6472 7.93819C14.6487 7.9586 14.6496 7.97923 14.6501 7.99972C14.6598 8.34658 14.5103 8.69233 14.2605 8.92745C14.1098 9.0637 13.9555 9.19689 13.8083 9.33858C13.7981 9.35028 13.8679 9.38184 13.8454 9.40401C13.7144 9.53354 13.602 9.67443 13.4177 9.75655C13.3992 9.7642 13.3163 9.66799 13.2907 9.71944C13.2864 9.7288 13.2397 9.79972 13.2439 9.83468C13.2448 9.83969 13.2972 9.87115 13.28 9.89132C13.1764 10.0077 13.0514 10.114 12.9157 10.198C12.8938 10.2108 12.8673 10.1478 12.8513 10.1569C12.7382 10.2227 12.6748 10.3535 12.5485 10.3982C12.4638 10.4278 12.4074 10.3291 12.3005 10.2829C12.2854 10.2764 12.2482 10.3099 12.2019 10.2673C12.0851 10.1599 11.9788 10.0203 11.8523 9.90792C11.8251 9.88406 11.8051 9.95861 11.7712 9.86886C11.769 9.86275 11.7827 9.80767 11.7702 9.77804C11.7616 9.75761 11.7058 9.72275 11.6989 9.6921C11.6923 9.66149 11.7436 9.68566 11.7419 9.64425C11.7397 9.60209 11.6799 9.55934 11.7136 9.51339C11.7924 9.40698 11.9282 9.3002 12.0407 9.22823C12.0759 9.20562 12.0894 9.24839 12.1149 9.23409C12.1649 9.20599 12.1874 9.15515 12.239 9.1296C12.2561 9.12181 12.2844 9.18118 12.3015 9.17257C12.3946 9.1188 12.4529 9.03731 12.5368 8.97237C12.8704 8.71415 13.1809 8.44032 13.4939 8.15987C13.5216 8.13977 13.546 8.11266 13.5632 8.0798C13.575 8.05723 13.5915 8.0311 13.6023 7.99972C13.619 7.95413 13.6179 7.89414 13.5817 7.86105C13.5748 7.8548 13.5303 7.88707 13.5251 7.88839C13.4557 7.90872 13.553 7.85408 13.5544 7.83077C13.5554 7.8147 13.5541 7.79875 13.5495 7.7839C13.4764 7.66428 13.3745 7.56264 13.2722 7.48507C13.2192 7.44564 13.1887 7.5692 13.1853 7.47921C13.1849 7.473 13.2376 7.44273 13.2292 7.4255C13.2098 7.38659 13.1478 7.33888 13.1286 7.31319C13.092 7.26351 13.0841 7.25691 13.0437 7.21554C12.9886 7.15844 12.9423 7.071 12.8728 7.02023C12.8578 7.00988 12.8321 7.06859 12.8044 7.05538C12.7766 7.04172 12.7267 6.98394 12.7185 6.95577C12.7106 6.92761 12.751 6.90222 12.7556 6.89132C12.7936 6.79999 12.6409 6.82686 12.6306 6.82101C12.4458 6.71155 12.3704 6.53416 12.2321 6.3962C12.1271 6.2917 11.9985 6.1964 11.9011 6.09444C11.7851 5.97262 11.7071 5.84857 11.5876 5.73702C11.5751 5.72523 11.5396 5.78895 11.5241 5.77511C11.3602 5.62283 11.2084 5.46037 11.0847 5.26925C11.0723 5.25002 11.1364 5.22565 11.1267 5.20382C11.0662 5.07108 10.9999 4.83208 10.7517 4.96554C10.6937 4.89266 10.6213 4.80574 10.6013 4.7087C10.5883 4.64614 10.673 4.63505 10.6062 4.60909C10.5911 4.60359 10.5629 4.6582 10.5437 4.6462C10.4624 4.59555 10.4039 4.51022 10.3171 4.46651C10.2993 4.45773 10.2651 4.49867 10.2546 4.50167C10.1683 4.52466 10.2058 4.38105 10.2009 4.363C10.1624 4.22684 10.0799 4.18189 9.99971 4.09933C9.98116 4.08017 9.95301 4.15257 9.9333 4.13644C9.83173 4.04931 9.73769 3.94749 9.66768 3.83272C9.65229 3.80709 9.71388 3.78272 9.7087 3.76827C9.68514 3.70558 9.59496 3.77646 9.571 3.71749C9.56637 3.705 9.60763 3.67329 9.61006 3.66769C9.64826 3.57954 9.53644 3.64771 9.52803 3.64327C9.42 3.58893 9.46158 3.44286 9.36983 3.37765C9.35865 3.37111 9.33337 3.43753 9.30538 3.41378C9.11653 3.25062 8.94334 3.051 8.80635 2.83956C8.78558 2.80747 8.83698 2.79212 8.84151 2.78585C8.88106 2.69073 8.77268 2.76296 8.76045 2.75753C8.68641 2.72189 8.6774 2.62625 8.60127 2.6169C8.58431 2.61797 8.56243 2.6264 8.53487 2.64522C8.47661 2.56705 8.37422 2.52707 8.27608 2.52804C8.16631 2.5287 8.06379 2.56974 7.96455 2.63155C7.89802 2.68059 7.82739 2.72562 7.75069 2.76437C7.74585 2.76697 7.70741 2.71601 7.69795 2.7214C7.58416 2.78574 7.66973 2.83771 7.69502 2.98116C7.70087 3.01694 7.55415 2.96021 7.54268 2.95675C7.50058 2.94353 7.44937 2.86246 7.43916 2.86202C7.35808 2.8614 7.58234 3.07301 7.52803 3.12765C7.52596 3.12899 7.49267 3.08117 7.48409 3.08175C7.45737 3.08348 7.45911 3.11389 7.43135 3.11397C7.36738 3.1137 7.25028 3.01913 7.26338 3.1296C7.26623 3.14449 7.39787 3.25874 7.34346 3.30147C7.32113 3.31903 7.23777 3.40656 7.20577 3.42257C7.17421 3.43827 7.15121 3.38337 7.14717 3.38155C7.02943 3.39361 7.03136 3.34719 6.92061 3.30147C6.81113 3.25671 7.0059 3.43354 7.01338 3.46749C7.02016 3.50116 6.92882 3.50512 6.90205 3.50167C6.87541 3.49796 6.86432 3.45787 6.84541 3.45968C6.72115 3.47261 6.90729 3.58219 6.91475 3.63448C6.93107 3.7578 6.75177 3.66263 6.68916 3.69796C6.67226 3.70757 6.71366 3.72814 6.70479 3.74288C6.66914 3.80028 6.59839 3.78625 6.58467 3.87862C6.58316 3.89557 6.62163 4.01861 6.53389 3.98605C6.52121 3.98123 6.49795 3.93603 6.47041 3.94796C6.4291 3.96618 6.36789 4.01287 6.34737 4.05636C6.33297 4.08827 6.41518 4.11742 6.36885 4.1296C6.34785 4.13495 6.33896 4.0782 6.30245 4.09054C6.26576 4.10325 6.20326 4.1679 6.18037 4.19308C6.15835 4.21808 6.21323 4.24768 6.21455 4.25265C6.21725 4.26838 6.21094 4.29596 6.20381 4.31808C6.20117 4.33257 6.19823 4.34409 6.19698 4.34542C6.1206 4.4363 6.04557 4.53722 6.02315 4.66671C6.00718 4.75794 6.02386 4.86101 6.08467 4.93722C6.09557 4.95083 6.14169 4.91126 6.14717 4.90987C6.19918 4.94107 6.03103 4.99632 6.01436 5.07101C6.11426 4.9878 6.11126 5.02372 6.15205 5.04659C6.17177 5.05699 6.19944 5.01413 6.20479 5.01144C6.20641 5.0107 6.20818 5.01012 6.20967 5.00948C6.28313 4.98802 6.23463 5.07264 6.2253 5.09151C6.19067 5.16193 6.27166 5.11942 6.24873 5.16671C6.22593 5.2136 6.14643 5.2376 6.1833 5.27315C6.22632 5.25045 6.2854 5.13776 6.32686 5.15108C6.48316 5.20218 6.60968 5.46248 6.68623 5.55343C6.76253 5.64371 6.79607 5.66496 6.83272 5.7253C6.89896 5.83453 6.93069 5.73908 7.01436 5.76437C7.09761 5.78999 6.91424 5.92008 6.88838 5.96163C6.86272 6.00264 6.90575 5.97695 6.89717 6.0046C6.88822 6.03263 6.8448 6.03489 6.86006 6.06417C6.87559 6.09359 6.9964 6.09529 7.03975 6.06808C7.13125 6.01026 7.18259 5.90426 7.21455 5.99093C7.21634 5.99597 7.16391 6.02637 7.17256 6.04366C7.24491 6.17953 7.35156 6.28953 7.42745 6.42159C7.43779 6.43977 7.3793 6.47288 7.38448 6.48409C7.44179 6.60012 7.48831 6.49229 7.62178 6.45382C7.4967 6.55756 7.45219 6.65397 7.51729 6.72042C7.55638 6.76036 7.60006 6.70272 7.66084 6.69308C7.67894 6.69045 7.67255 6.75217 7.70088 6.73409C7.79438 6.67402 7.8548 6.56196 7.88838 6.66378C7.88971 6.66833 7.83906 6.70047 7.84541 6.71358C7.89518 6.79667 7.9836 6.72486 8.06514 6.78683C8.12894 6.83539 8.18004 6.9841 8.23604 7.05636C8.1061 7.18362 8.19701 7.2152 8.31026 7.15108C8.34821 7.19621 8.39759 7.23641 8.42549 7.28878C8.43508 7.3068 8.38871 7.33477 8.38643 7.34054C8.35013 7.43035 8.45512 7.36228 8.46748 7.36788C8.5974 7.43242 8.61159 7.57721 8.76827 7.60616C8.77586 7.60519 8.86772 7.52406 8.82784 7.613C8.82494 7.6191 8.75408 7.62963 8.79463 7.67648C8.83501 7.72374 8.86966 7.85356 8.97139 7.87276C8.99625 7.87736 9.10564 7.84207 9.07881 7.92843C9.07482 7.94012 9.04534 7.9613 9.03682 7.98116C9.00994 8.04507 9.10999 7.9651 9.05537 8.06319C9.00043 8.1617 8.98813 8.2649 9.10225 8.27315C9.1065 8.27302 9.19165 8.21674 9.20967 8.23702C9.23838 8.26952 9.26716 8.32745 9.29952 8.35909C9.31464 8.37374 9.34804 8.32343 9.35323 8.32198C9.48139 8.40033 9.51567 8.5135 9.60909 8.64132C9.62612 8.66484 9.7447 8.66254 9.73604 8.74972C9.72656 8.8453 9.46489 9.01904 9.61592 9.06612C9.67736 9.08449 10.0032 8.85985 9.93233 9.07394C10.1072 9.17768 10.1628 9.38052 10.3532 9.46944C10.3641 9.47169 10.4585 9.41618 10.4724 9.43136C10.4924 9.4548 10.4686 9.50284 10.4812 9.5212C10.5358 9.59756 10.6268 9.62719 10.6853 9.69503C10.7075 9.72078 10.6626 9.75024 10.6892 9.78097C10.7159 9.81091 10.7834 9.78157 10.7985 9.84347C10.8097 9.89086 10.7382 10.0214 10.7653 10.072C10.866 9.97433 10.8909 10.0028 10.9646 10.0241C10.9788 10.0281 11.0039 9.98396 11.0124 9.98409C11.0473 9.98419 11.0352 10.0287 11.071 10.0261C11.0797 10.0255 11.1137 9.99149 11.1228 9.98897C11.2006 9.96737 11.1711 10.0894 11.1657 10.111C11.1586 10.1404 11.1616 10.1558 11.1687 10.1648C11.1804 10.1797 11.2034 10.1757 11.2067 10.2019C11.2134 10.2436 11.1531 10.2397 11.1735 10.278C11.2185 10.3597 11.3286 10.4072 11.4138 10.4314C11.4482 10.441 11.4407 10.3728 11.446 10.3728C11.5073 10.3737 11.5712 10.4364 11.6091 10.3405C11.6116 10.3338 11.6138 10.3264 11.6159 10.3181C11.673 10.6437 11.6554 10.289 11.7439 10.3366C11.7508 10.3405 11.7995 10.4895 11.7692 10.5192C11.7376 10.549 11.6794 10.508 11.6325 10.5446C11.6289 10.5474 11.6205 10.5639 11.6091 10.5847C11.5844 10.6313 11.5404 10.7005 11.5319 10.7058C11.4346 10.7657 11.4616 10.5306 11.4616 10.5183C11.4497 10.3781 11.3425 10.5067 11.3122 10.5075C11.1971 10.5165 11.1341 10.4406 11.0446 10.4128C10.9971 10.3972 10.9171 10.4621 10.8679 10.4655C10.8582 10.4682 10.8505 10.4678 10.8464 10.4626C10.776 10.3705 10.8978 10.1912 10.6911 10.2448C10.6469 10.2562 10.5451 10.3904 10.5788 10.239C10.5813 10.2283 10.6219 10.1016 10.5437 10.1296C10.5337 10.1332 10.499 10.168 10.4919 10.1667C10.4457 10.1572 10.4543 10.1109 10.4108 10.0935C10.3672 10.076 10.311 10.0589 10.2878 10.0124C10.2738 9.98445 10.3105 9.89359 10.3161 9.86788C10.3328 9.79442 10.2283 9.83753 10.2653 9.76534C10.3026 9.69285 10.4209 9.64409 10.4099 9.56222C10.319 9.64965 10.223 9.73704 10.1306 9.82394C10.032 9.71898 9.96023 9.59006 9.8542 9.4919C9.84075 9.48085 9.80607 9.54067 9.79073 9.52901C9.726 9.47936 9.71015 9.39518 9.63741 9.34933C9.5808 9.3141 9.47961 9.31411 9.41866 9.27901C9.49111 9.14778 9.38508 9.11062 9.34248 9.04952C9.32754 9.02813 9.35531 9.002 9.35127 8.98019C9.33534 8.89889 9.26846 9.01159 9.24092 9.01241C9.12311 9.01558 9.32235 8.80641 9.24971 8.74386C9.24501 8.74096 9.09562 8.80462 9.08077 8.80636C8.99833 8.81221 9.11218 8.7622 9.09639 8.73019C9.06731 8.67173 9.06239 8.61591 8.9792 8.5964C8.95479 8.59086 8.85135 8.62226 8.87471 8.54073C8.87789 8.52997 8.91572 8.4961 8.91475 8.49093C8.89409 8.40029 8.77979 8.51164 8.70967 8.51827C8.63969 8.52465 8.66787 8.39775 8.68037 8.36495C8.71161 8.28248 8.72491 8.35683 8.73213 8.35616C8.81671 8.30492 8.76944 8.27995 8.74776 8.24679C8.85443 8.13214 8.81 8.10111 8.7253 8.21358C8.71644 8.22576 8.74663 8.23636 8.74776 8.24679C8.615 8.3314 8.55896 8.30311 8.61397 8.15499C8.63987 8.08587 8.71562 8.05134 8.62959 8.00558C8.59039 7.9847 8.52553 8.07184 8.47823 8.06612C8.37036 8.05288 8.36239 7.90346 8.28877 7.85226C8.26232 7.83436 8.24288 7.89678 8.22334 7.88644C8.17091 7.85666 8.16544 7.78862 8.10811 7.76339C8.10218 7.76271 8.06882 7.81335 8.05537 7.80245C7.95309 7.7103 7.89625 7.59713 7.79561 7.49483C7.74688 7.4454 7.6346 7.38158 7.58858 7.32589C7.50858 7.22961 7.46349 7.05762 7.37276 6.99776C7.31384 6.95868 7.28097 7.01344 7.23018 7.02218C7.13191 7.03923 7.1633 6.86329 7.16963 6.83761C7.17067 6.83729 7.22248 6.86857 7.22237 6.82394C7.25543 6.76506 7.17269 6.8358 7.16963 6.83761C7.17279 6.82019 7.09892 6.72683 7.07393 6.71847C7.06016 6.71426 7.02362 6.76067 7.01729 6.75753C6.86746 6.68173 6.74419 6.5788 6.64912 6.44503C6.64795 6.44218 6.6974 6.39842 6.69405 6.3923C6.64829 6.30577 6.54885 6.32051 6.46065 6.29952C6.37251 6.27852 6.3405 6.2236 6.38741 6.11202C6.33615 6.0808 6.31223 5.98576 6.29952 5.93038C6.28656 5.87571 6.19234 5.96053 6.18721 5.95968C6.03671 5.9233 6.03393 5.81758 5.94502 5.71261C5.90283 5.66254 5.79867 5.58366 5.73897 5.54366C5.72476 5.53417 5.7144 5.52335 5.70577 5.51241C5.66777 5.4687 5.64355 5.42653 5.59444 5.38351C5.58513 5.37552 5.54968 5.4156 5.54366 5.41671C5.42456 5.36665 5.57009 5.33143 5.57881 5.3005C5.6148 5.1877 5.63789 5.13715 5.55537 5.04464C5.5363 5.02681 5.3195 5.00433 5.29463 4.94405C5.26468 4.87052 5.34086 4.88635 5.31319 4.81124C5.31074 4.80489 5.26669 4.81127 5.26436 4.76144C5.26321 4.7303 5.26371 4.69841 5.26534 4.66671C5.27536 4.45985 5.34629 4.25153 5.44014 4.07003C5.45466 4.04151 5.37368 4.0453 5.3962 4.00167C5.44915 3.90116 5.52083 3.80369 5.60713 3.72237C5.65326 3.68131 5.70304 3.64383 5.75557 3.61495C5.78104 3.60139 5.80352 3.64798 5.81807 3.65401C5.90659 3.69015 5.85273 3.56226 5.85713 3.5544C5.95982 3.36489 6.15444 3.33514 6.26436 3.14718C6.26968 3.13513 6.23588 2.97779 6.34639 3.03292C6.35583 3.03757 6.46589 3.09325 6.43233 3.01144C6.43014 3.00626 6.36959 2.9793 6.40401 2.95382C6.43828 2.92813 6.4574 2.85112 6.54659 2.85812C6.57493 2.86034 6.69067 2.91392 6.66182 2.80733C6.65796 2.79631 6.56743 2.58847 6.69307 2.67159C6.71395 2.68552 6.82217 2.80078 6.81123 2.69698C6.80884 2.67714 6.76862 2.66818 6.77608 2.6296C6.78787 2.56978 6.86491 2.55158 6.85909 2.45772C6.85729 2.43991 6.81597 2.33282 6.89912 2.36397C6.91224 2.36889 6.94164 2.41446 6.95967 2.40499C7.04555 2.35922 7.08965 2.26532 7.18233 2.22433C7.21508 2.20984 7.26356 2.28164 7.3044 2.27315C7.34528 2.26451 7.41066 2.2307 7.40889 2.17745C7.40711 2.12402 7.28219 2.05588 7.31319 2.00948C7.31711 2.00361 7.32084 1.99762 7.32491 1.9919C7.55598 1.71678 7.93551 1.60203 8.27608 1.6296ZM12.0163 10.1325C12.0396 10.1347 12.0813 10.3066 12.0681 10.3142L12.0085 10.3366C11.8727 10.357 11.7648 10.176 11.8698 10.154C11.8935 10.1472 11.8656 10.2518 11.904 10.2575C11.9864 10.2597 11.9163 10.1069 12.0163 10.1325ZM11.0388 10.2155C11.0537 10.1704 10.976 10.1624 10.9567 10.2185C10.9413 10.2639 11.0197 10.2721 11.0388 10.2155ZM12.3913 10.1442C12.4281 10.2082 12.4829 10.1613 12.4196 10.1198C12.4171 10.1183 12.3913 10.1406 12.3913 10.1442ZM10.0808 9.4714C10.1095 9.36022 9.97877 9.43517 9.95381 9.51827C9.92955 9.60042 10.0715 9.50531 10.0808 9.4714ZM6.38936 5.44503C6.32569 5.48166 6.37219 5.53617 6.41377 5.47335C6.41524 5.47062 6.39205 5.44356 6.38936 5.44503ZM6.61983 3.59444C6.57555 3.55265 6.56204 3.5903 6.61006 3.62179C6.61335 3.6231 6.63281 3.6072 6.61983 3.59444ZM7.84151 2.59542C7.78985 2.48256 7.66219 2.59254 7.77412 2.65304C7.77999 2.65611 7.84368 2.60148 7.84151 2.59542Z" fill="#555961"/>
</svg>
