<svg width="16" height="16" viewBox="0 0 16 16" fill="none" xmlns="http://www.w3.org/2000/svg">
<path d="M4.4961 1.48533C4.5461 1.40636 4.6127 1.55934 4.61915 1.58299C4.61824 1.5839 4.57363 1.59448 4.59376 1.62791C4.60054 1.69323 4.61792 1.58719 4.61915 1.58299C4.62521 1.59789 4.70941 1.62182 4.72852 1.61326C4.73888 1.60825 4.74271 1.54933 4.74805 1.54783C4.87506 1.51387 5.00233 1.52665 5.11427 1.58689C5.11599 1.58858 5.0967 1.6472 5.09962 1.6533C5.15852 1.70062 5.22496 1.63808 5.29786 1.61326C5.37009 1.58874 5.41129 1.6225 5.4004 1.73924C5.40268 1.73942 5.40499 1.73971 5.40723 1.74021C5.45056 1.7499 5.48601 1.81615 5.50391 1.85642C5.52265 1.89872 5.58279 1.78693 5.58692 1.78611C5.71391 1.7594 5.73306 1.85366 5.81544 1.91697C5.85494 1.94733 5.9478 1.98608 6.00001 2.00682C6.04119 2.02295 6.04425 2.06137 6.08692 2.07029C6.09272 2.07156 6.12335 2.02414 6.12598 2.02342C6.2035 1.99791 6.10006 2.09311 6.0918 2.11814C6.0613 2.20908 6.04509 2.25699 6.11329 2.25974C6.12855 2.25997 6.28881 2.13512 6.31544 2.14353C6.34904 2.15411 6.29228 2.19829 6.32813 2.20799C6.33299 2.20645 6.36091 2.17731 6.37403 2.19236C6.38939 2.20984 6.40443 2.2287 6.41895 2.24803C6.4644 2.30848 6.50673 2.37432 6.55762 2.42869C6.56669 2.43864 6.6086 2.38034 6.62305 2.39353C6.68979 2.45926 6.75085 2.54383 6.7754 2.6367C6.78121 2.65968 6.73295 2.67626 6.72364 2.68846C6.66702 2.7616 6.79567 2.7245 6.80177 2.72947C6.94365 2.83645 6.90271 3.00263 7.02052 3.12889C7.0268 3.13396 7.12061 3.14154 7.1172 3.18064C7.11609 3.19177 7.10658 3.20541 7.08497 3.22166C7.07858 3.22707 6.97811 3.29848 7.06446 3.29392C7.07199 3.29183 7.12102 3.25488 7.12696 3.28807C7.13309 3.3216 7.19012 3.36051 7.13966 3.42576C7.12391 3.44692 7.01932 3.51354 7.12305 3.52732C7.1328 3.52684 7.35666 3.53726 7.21876 3.59861C7.1958 3.60866 7.04223 3.64304 7.13184 3.67283C7.14932 3.67874 7.17974 3.65368 7.20704 3.67381C7.24925 3.70584 7.219 3.76608 7.29688 3.80271C7.31066 3.80865 7.42347 3.8291 7.34766 3.87205C7.33575 3.87864 7.28184 3.87813 7.27833 3.89451C7.26146 3.97157 7.30531 4.04524 7.27442 4.12303C7.26343 4.15035 7.17652 4.143 7.15528 4.17088C7.13421 4.19898 7.11505 4.25158 7.1543 4.2783C7.19395 4.30548 7.32953 4.27243 7.34083 4.31639C7.34222 4.32192 7.34358 4.32744 7.34473 4.33299C7.38348 4.52188 7.28991 4.7035 7.24512 4.87986C7.23821 4.90703 7.29038 4.89337 7.28321 4.93455C7.2593 5.08573 7.22098 5.36365 7.07227 5.44724C7.06398 5.45197 7.05609 5.45535 7.04884 5.45799C6.95476 5.49064 6.9432 5.3723 6.88673 5.42576C6.85821 5.45243 6.98505 5.55433 6.98536 5.56541C6.99206 5.67 6.8999 5.69532 6.87891 5.77635C6.87519 5.79312 6.93745 5.81002 6.9336 5.8242C6.91808 5.87366 6.86617 5.90429 6.84473 5.94725C6.83518 5.96665 6.87848 5.99011 6.86427 6.00486C6.8307 6.04026 6.78954 6.06413 6.72559 6.0742C6.71985 6.07498 6.68689 6.01714 6.66505 6.04295C6.62946 6.08566 6.55225 6.11048 6.54786 6.18846C6.54753 6.21199 6.63099 6.28498 6.54591 6.2656C6.52771 6.26126 6.43496 6.16458 6.49024 6.27635C6.50038 6.29428 6.5582 6.46248 6.45704 6.42088C6.44354 6.41511 6.41257 6.39742 6.38477 6.38475C6.35756 6.37239 6.33327 6.36454 6.33106 6.37791C6.33077 6.38204 6.38154 6.41715 6.37208 6.43455C6.33772 6.49502 6.28179 6.53792 6.24122 6.59666C6.2309 6.61258 6.29105 6.6417 6.27345 6.66404C6.22386 6.72605 6.13641 6.77365 6.06348 6.80076C6.03667 6.81063 6.02257 6.75788 6.01759 6.75389C5.94015 6.69705 5.99306 6.80738 5.98829 6.82029C5.956 6.8933 5.88171 6.8721 5.83692 6.916C5.82545 6.92844 5.86411 6.97191 5.86427 6.9785C5.85864 7.04073 5.82877 6.93661 5.80372 6.93748C5.73373 6.93945 5.67605 6.97495 5.62305 7.00877C5.60416 7.02144 5.65629 7.0712 5.63868 7.08201C5.59488 7.1081 5.54753 7.13064 5.49903 7.14842C5.42852 7.17425 5.35396 7.18912 5.2793 7.19041C5.25575 7.19065 5.25313 7.13754 5.24512 7.12693C5.18964 7.05702 5.17893 7.17971 5.17091 7.19334C5.13708 7.2543 5.10535 7.21525 5.06544 7.23435C4.86761 7.33033 4.59319 7.33512 4.39259 7.31834C4.37246 7.31687 4.35243 7.3146 4.33302 7.31248C4.09804 7.28554 3.91722 7.22304 3.69434 7.1865C3.67893 7.1838 3.67878 7.25542 3.66505 7.25389C3.49674 7.2316 3.34518 7.15826 3.18458 7.1074C3.17543 7.1045 3.1655 7.10137 3.15626 7.09861C3.14243 7.09577 3.13591 7.16399 3.11231 7.15916C3.06289 7.14885 3.00685 7.11824 2.97169 7.07713C2.95492 7.05722 3.00853 7.02073 2.99122 7.00193C2.95122 6.95814 2.90197 6.92636 2.84766 6.90721C2.82439 6.8992 2.82201 6.97636 2.79395 6.96092C2.60284 6.85691 2.41602 6.73238 2.31544 6.52049C2.30942 6.50492 2.39311 6.3971 2.35352 6.39549C2.32551 6.42138 2.2946 6.45378 2.26563 6.4824C2.25086 6.47006 2.23586 6.45729 2.22169 6.44432C2.00458 6.24524 1.86338 5.98331 1.73341 5.72557C1.7275 5.71386 1.67427 5.76752 1.66212 5.7451C1.6185 5.66109 1.57148 5.57929 1.54688 5.48728C1.53271 5.43408 1.52549 5.37728 1.53223 5.31639C1.53535 5.2998 1.65754 5.26494 1.62598 5.23142C1.61991 5.22517 1.58389 5.17037 1.55274 5.16209C1.54613 5.16231 1.49548 5.1886 1.48731 5.1699C1.44352 5.05351 1.42745 4.92122 1.44434 4.7949C1.44721 4.77455 1.51299 4.78483 1.51563 4.77049C1.53413 4.67061 1.47611 4.5699 1.5293 4.47459C1.56553 4.41223 1.67606 4.43024 1.78321 4.39744C1.7983 4.39289 1.80051 4.3587 1.86329 4.35642C2.02164 4.35109 2.1955 4.36316 2.36427 4.35545C2.40052 4.35388 2.36178 4.3197 2.44923 4.33982C2.45506 4.34128 2.48479 4.36484 2.51466 4.3701C2.53531 4.37366 2.5993 4.36583 2.62598 4.37303C2.65254 4.38008 2.59934 4.39044 2.63087 4.40232C2.66287 4.41381 2.73516 4.40518 2.74512 4.42869C2.76761 4.48311 2.75523 4.556 2.73731 4.61717C2.73174 4.6363 2.69099 4.63545 2.68555 4.64939C2.6755 4.67672 2.69872 4.69556 2.68653 4.72361C2.68086 4.7328 2.6199 4.73742 2.61622 4.74705C2.60085 4.80189 2.62878 4.84353 2.63184 4.89549C2.6346 4.94093 2.64092 4.9865 2.64942 5.03123C2.68939 5.24058 2.78775 5.43645 2.91895 5.61619C2.93636 5.64003 2.95194 5.66889 2.96876 5.69822C3.00249 5.75739 3.04223 5.81995 3.10157 5.84666C3.11194 5.85125 3.14203 5.80398 3.14649 5.80174C3.21366 5.76755 3.13675 5.84821 3.14454 5.87303C3.17552 5.97096 3.25568 6.03091 3.3379 6.05369C3.37306 6.06316 3.39661 5.95086 3.39649 6.02146C3.39529 6.02773 3.36137 6.07264 3.36622 6.08299C3.37874 6.10611 3.42128 6.11621 3.43458 6.12791C3.46007 6.15087 3.46512 6.15327 3.49317 6.16697C3.51381 6.17727 3.53394 6.19554 3.55567 6.21092C3.5744 6.22418 3.59483 6.23545 3.61719 6.23728C3.62735 6.2366 3.63658 6.17705 3.6543 6.17283C3.67217 6.16879 3.70808 6.18649 3.7168 6.20408C3.72541 6.22184 3.70511 6.26527 3.70411 6.27635C3.69655 6.36911 3.77985 6.26534 3.78712 6.2617C3.9076 6.24014 3.9846 6.3286 4.0918 6.34178C4.17154 6.35114 4.25797 6.33232 4.33302 6.33494H4.33497C4.42497 6.33881 4.5054 6.36644 4.59376 6.34959C4.60283 6.34757 4.58295 6.27876 4.59376 6.27635C4.70981 6.25238 4.82327 6.23458 4.95216 6.24314C4.96489 6.24518 4.96914 6.30804 4.98341 6.31248C5.03515 6.32726 5.1135 6.35691 5.15723 6.32225C5.18744 6.29821 5.1996 6.24393 5.16895 6.13572C5.21839 6.12455 5.2763 6.10688 5.34278 6.13182C5.3858 6.14762 5.3941 6.22065 5.41212 6.17771C5.41611 6.16796 5.37751 6.12246 5.38477 6.11131C5.41804 6.06649 5.47592 6.05139 5.50001 5.99705C5.5042 5.98569 5.4724 5.94534 5.46876 5.93553C5.44283 5.86006 5.54751 5.93748 5.56251 5.94041C5.6586 5.95396 5.68161 5.89882 5.7295 5.8574C5.74067 5.8477 5.67975 5.80687 5.68848 5.79588C5.70446 5.7762 5.7217 5.75757 5.74024 5.74021C5.77455 5.7081 5.81367 5.68047 5.85938 5.65916C5.87521 5.65193 5.91187 5.70272 5.92188 5.70115C5.96553 5.69264 5.88277 5.61354 5.92188 5.60447C5.93082 5.60346 5.96847 5.63806 5.97364 5.6406C6.05508 5.6796 5.9693 5.59028 5.96778 5.58299C5.97484 5.51036 6.10612 5.55296 6.12598 5.48826C6.12804 5.48065 6.06436 5.45931 6.07325 5.44041C6.12318 5.33329 6.18765 5.23178 6.26661 5.13474C6.28038 5.11785 6.29495 5.10058 6.30958 5.08396C6.32465 5.06663 6.36517 5.09697 6.37208 5.09861C6.46954 5.10992 6.35483 5.05189 6.35255 5.04392C6.33841 4.98072 6.45626 4.9592 6.32032 4.88182C6.41109 4.71112 6.39037 4.51832 6.44044 4.33299C6.45281 4.28666 6.46951 4.23957 6.49317 4.19041C6.49472 4.18726 6.55736 4.18891 6.56055 4.1826C6.59 4.10417 6.49285 4.12528 6.36915 4.09275C6.3389 4.08527 6.47594 4.03101 6.48634 4.02537C6.52257 4.00801 6.61459 4.00691 6.62403 4.00193C6.67726 3.95742 6.37353 4.01007 6.36622 3.96873C6.3709 3.96715 6.42093 3.96326 6.42774 3.95896C6.44318 3.94441 6.41947 3.93668 6.43653 3.92185C6.47633 3.88826 6.62001 3.84601 6.52637 3.8242C6.51413 3.82178 6.34559 3.86847 6.34376 3.83006C6.34366 3.81424 6.3231 3.74901 6.32813 3.72752C6.33407 3.70666 6.38916 3.70216 6.39259 3.70017C6.44778 3.62668 6.48337 3.63638 6.57911 3.5742C6.67336 3.51069 6.43058 3.60317 6.39747 3.60349C6.36638 3.60303 6.41056 3.54464 6.42677 3.52732C6.44334 3.51059 6.48128 3.50883 6.48927 3.49607C6.53941 3.41116 6.35844 3.51984 6.31251 3.51853C6.30867 3.51844 6.30492 3.51887 6.30177 3.51853C6.2177 3.51053 6.36964 3.40811 6.36915 3.36228C6.36889 3.34985 6.33244 3.37701 6.32423 3.3701C6.29299 3.34217 6.33604 3.29232 6.26563 3.27928C6.25388 3.27661 6.13528 3.30371 6.19825 3.24119C6.20793 3.23205 6.25376 3.21604 6.25489 3.19627C6.25621 3.16631 6.24041 3.1215 6.21192 3.1074C6.19094 3.09726 6.13694 3.15933 6.14356 3.12596C6.14664 3.11059 6.19695 3.10122 6.19923 3.0742C6.20147 3.04721 6.16908 3.00396 6.15528 2.98826C6.14164 2.97264 6.09902 3.01844 6.09473 3.01951C6.07063 3.02512 6.0266 3.01364 6.02247 3.01072C5.96462 2.94331 5.92833 2.86161 5.88184 2.78514C5.84126 2.71828 5.79262 2.65526 5.72169 2.61814C5.70984 2.61188 5.67606 2.66741 5.67384 2.66697C5.6233 2.66057 5.75605 2.54954 5.76563 2.48435C5.69008 2.58935 5.68909 2.5595 5.65528 2.55174C5.63903 2.54826 5.61603 2.59216 5.61134 2.59666C5.54894 2.64514 5.59315 2.5577 5.60157 2.53807C5.6319 2.46859 5.56844 2.53087 5.5879 2.48435C5.60666 2.43784 5.6681 2.39152 5.64161 2.374C5.60855 2.40787 5.55925 2.52163 5.5293 2.52537C5.4196 2.53983 5.33047 2.3824 5.26856 2.34373C5.22545 2.3156 5.201 2.30726 5.17872 2.29295C5.17051 2.28771 5.16185 2.28166 5.15333 2.27342C5.09548 2.21884 5.08822 2.31293 5.03321 2.33689C4.97927 2.36071 5.0701 2.15758 5.07911 2.11033C5.08747 2.06359 5.06461 2.10707 5.06446 2.08006C5.06424 2.05244 5.09197 2.02744 5.0752 2.0117C5.0576 1.99615 4.9796 2.0611 4.95997 2.1074C4.91761 2.20525 4.91038 2.31757 4.87403 2.26756C4.87246 2.26356 4.89538 2.21089 4.88673 2.20213C4.81314 2.13661 4.72249 2.11566 4.63868 2.06443C4.62705 2.05728 4.6465 1.99414 4.63966 1.98924C4.56742 1.93879 4.58104 2.05101 4.53028 2.16795C4.55431 2.00796 4.54 1.90713 4.47852 1.90232C4.44224 1.89995 4.44429 1.96981 4.41993 2.01853C4.41278 2.03323 4.39011 1.98464 4.38477 2.01756C4.36808 2.12593 4.38729 2.24778 4.33302 2.1992V2.1406C4.3324 2.13693 4.33163 2.13448 4.33009 2.13377C4.27385 2.11063 4.26977 2.22456 4.21387 2.24119C4.1705 2.25411 4.084 2.19288 4.0293 2.18943C4.00563 2.00894 3.95609 2.05834 3.95802 2.18553C3.92317 2.1865 3.88788 2.19993 3.85157 2.19041C3.83937 2.18595 3.83468 2.13405 3.83204 2.12889C3.78958 2.04814 3.80265 2.17018 3.79688 2.17674C3.7304 2.24127 3.63752 2.17286 3.59376 2.28416C3.5921 2.28823 3.63177 2.40825 3.58106 2.32908C3.57742 2.32367 3.58083 2.26072 3.54493 2.26951C3.52937 2.27317 3.50366 2.26873 3.47755 2.26853C3.44326 2.26826 3.40787 2.27607 3.39552 2.31834C3.38972 2.33673 3.4071 2.44133 3.34962 2.38084C3.34181 2.37268 3.32879 2.33917 3.31544 2.32322C3.27179 2.27332 3.32304 2.38993 3.25587 2.30271C3.18895 2.21562 3.11055 2.1659 3.09962 2.25877C3.09908 2.26162 3.13907 2.35591 3.12403 2.36326C3.09966 2.37483 3.05645 2.37817 3.03321 2.39451C3.02259 2.40206 3.06022 2.44531 3.06251 2.45115C3.00925 2.5301 2.9268 2.52284 2.83594 2.56736C2.81907 2.57642 2.83789 2.67203 2.76759 2.64549C2.68914 2.61763 2.50669 2.36522 2.48731 2.48728C2.48078 2.54141 2.73114 2.83631 2.54005 2.74803C2.49593 2.87384 2.34165 2.90642 2.33204 3.05369C2.33153 3.06033 2.41399 3.1331 2.40723 3.14353C2.39533 3.15824 2.34593 3.1411 2.33594 3.15135C2.29317 3.19368 2.30568 3.26064 2.2754 3.30662C2.26394 3.32423 2.22011 3.29514 2.20606 3.31639C2.19232 3.33856 2.24813 3.38279 2.20411 3.40037C2.18446 3.40814 2.12843 3.40077 2.07911 3.39939C2.04371 3.39837 2.01117 3.40019 1.99903 3.41209C2.12878 3.46491 2.11744 3.48677 2.1377 3.53904C2.14172 3.54907 2.19104 3.5579 2.19532 3.56346C2.21322 3.58578 2.17121 3.58598 2.19239 3.60838C2.19857 3.614 2.24235 3.62963 2.24903 3.63474C2.30816 3.67867 2.19529 3.68176 2.17481 3.68357C2.09914 3.6886 2.15496 3.71842 2.12305 3.73045C2.09061 3.743 2.0648 3.70435 2.042 3.72361C1.99489 3.76401 1.98739 3.83088 1.97559 3.88182C1.97118 3.90204 2.03461 3.90027 2.03712 3.9033C2.04536 3.94699 1.97181 3.97998 2.09473 4.02049C1.76508 4.00522 2.12138 4.04995 2.05079 4.09959C2.04504 4.10349 1.8889 4.09491 1.86817 4.07322C1.84808 4.05141 1.89934 4.02807 1.86817 3.99705C1.86068 3.99021 1.72424 3.93291 1.71387 3.92478C1.65246 3.87202 1.88193 3.9047 1.89552 3.90525C2.03507 3.90699 1.88879 3.83609 1.88087 3.82127C1.84366 3.75762 1.8866 3.71936 1.86427 3.66599C1.84972 3.63118 1.70562 3.58673 1.71583 3.56346C1.75555 3.485 1.96441 3.53016 1.81837 3.39549C1.78744 3.36629 1.62575 3.32186 1.77052 3.3115C1.77756 3.3112 1.82097 3.31129 1.84571 3.30271C1.86414 3.29617 1.87234 3.28424 1.84766 3.2617C1.84029 3.25502 1.79617 3.23642 1.79298 3.23045C1.78067 3.19271 1.82446 3.19009 1.8213 3.1533C1.81815 3.11639 1.81099 3.0685 1.84278 3.04295C1.86253 3.02782 1.95391 3.04489 1.97852 3.04685C2.04802 3.0526 1.97295 2.97478 2.04884 2.99803C2.12442 3.0226 2.20956 3.10968 2.27442 3.09861C2.16714 3.03247 2.05813 2.96258 1.95118 2.89451C2.01107 2.80406 2.1045 2.74051 2.16505 2.6533C2.17254 2.64233 2.11033 2.61069 2.11719 2.59764C2.14696 2.54278 2.21776 2.53281 2.24512 2.47361C2.26608 2.42727 2.25146 2.33775 2.27637 2.28709C2.28541 2.29277 2.2938 2.29769 2.30177 2.30174C2.40357 2.35366 2.4239 2.2772 2.47071 2.25193C2.48815 2.24261 2.51289 2.27283 2.53126 2.27342C2.59958 2.27538 2.49921 2.19351 2.49708 2.16892C2.49075 2.0636 2.67658 2.2826 2.72462 2.23631C2.72422 2.22794 2.6708 2.08383 2.67091 2.07224C2.66734 1.99822 2.70841 2.11189 2.73536 2.10642C2.78464 2.0968 2.82981 2.10942 2.84962 2.04295C2.85493 2.02355 2.83727 1.92137 2.90235 1.96873C2.91097 1.97543 2.93524 2.01958 2.93946 2.02049C3.01293 2.03355 2.93444 1.89535 2.93848 1.83103C2.94338 1.76706 3.04216 1.83944 3.06544 1.86326C3.12591 1.92272 3.06573 1.90443 3.06544 1.91111C3.09499 2.00408 3.12011 1.97281 3.14844 1.96775C3.22226 2.10578 3.24974 2.08143 3.17677 1.96189C3.16873 1.94977 3.1565 1.97099 3.14844 1.96775C3.10081 1.81981 3.13613 1.78039 3.23829 1.89158C3.28592 1.94418 3.29885 2.02415 3.34669 1.97264C3.34898 1.97012 3.35076 1.96685 3.35157 1.96287C3.35813 1.92937 3.31828 1.84963 3.33106 1.81639C3.36538 1.73077 3.47714 1.79769 3.53223 1.76463C3.55274 1.75226 3.51364 1.70184 3.52735 1.69139C3.5643 1.66347 3.61255 1.69568 3.64844 1.66307C3.65176 1.66002 3.62749 1.60277 3.64063 1.59861C3.74051 1.5662 3.8373 1.58725 3.94337 1.57322C3.99454 1.56614 4.08449 1.52195 4.13966 1.52537C4.20085 1.52853 4.27145 1.56614 4.33302 1.58787C4.36727 1.59984 4.39962 1.60737 4.42774 1.60057C4.47915 1.5885 4.47112 1.52618 4.4961 1.48533ZM1.82227 4.50584C1.7504 4.49751 1.74831 4.54769 1.8213 4.53123C1.8242 4.53057 1.82523 4.50622 1.82227 4.50584ZM1.91895 4.27928C1.93404 4.17884 2.20064 4.14668 2.16602 4.23924C2.15984 4.25674 2.08441 4.19749 2.05958 4.21873C2.01439 4.26025 2.17835 4.29192 2.08985 4.33299C2.0715 4.34045 1.9178 4.28588 1.91895 4.27928ZM6.55762 4.24412C6.55157 4.24614 6.54716 4.29401 6.55274 4.29588C6.66994 4.32116 6.67929 4.21604 6.55762 4.24412ZM1.97462 3.5742C1.92922 3.57473 1.96437 3.62799 2.02052 3.62693C2.06551 3.62651 2.03076 3.57434 1.97462 3.5742ZM6.48536 3.32322C6.54001 3.29636 6.51425 3.28231 6.4668 3.31346C6.46404 3.31536 6.46845 3.33149 6.48536 3.32322ZM2.167 2.73533C2.08767 2.71489 2.21143 2.83375 2.24317 2.8408C2.34578 2.86631 2.24571 2.75745 2.167 2.73533ZM5.48536 2.30564C5.53127 2.24995 5.4932 2.22243 5.46583 2.29197C5.46563 2.29516 5.48349 2.30787 5.48536 2.30564Z" fill="#555961"/>
<path d="M3.88639 9.07749C4.13971 8.70758 4.59056 8.67152 4.78093 9.07749C4.78421 9.09479 4.78797 9.11308 4.79557 9.1312C4.81295 9.17294 4.87363 9.24146 4.90983 9.27671C4.93851 9.30445 4.92456 9.33949 4.95866 9.36069C4.96496 9.36194 5.00907 9.33178 5.01237 9.3314C5.0908 9.33196 4.96187 9.3842 4.94401 9.40366C4.88049 9.47394 4.84733 9.51361 4.90886 9.53648C4.92307 9.54178 5.11366 9.47212 5.13444 9.48472C5.16093 9.50129 5.09409 9.52776 5.12272 9.54429C5.12516 9.54572 5.1629 9.52381 5.17057 9.5394C5.20435 9.61557 5.22751 9.70705 5.27409 9.77964C5.28045 9.78943 5.33346 9.74235 5.34343 9.7562C5.3901 9.82124 5.43101 9.89821 5.44108 9.98179C5.44337 10.0025 5.39504 10.0169 5.38444 10.0277C5.32136 10.0929 5.44794 10.0614 5.45475 10.0648C5.57878 10.1578 5.53225 10.31 5.65202 10.4085C5.65875 10.4138 5.80824 10.3988 5.7194 10.4808C5.71221 10.4875 5.62309 10.5693 5.70573 10.5492C5.71142 10.5473 5.75635 10.5024 5.7653 10.5306C5.77428 10.559 5.83358 10.5794 5.7946 10.6478C5.78225 10.6695 5.6926 10.7553 5.7946 10.7406C5.80533 10.7384 6.01719 10.6834 5.89909 10.7748C5.87943 10.7899 5.74068 10.8654 5.83268 10.8646C5.85057 10.8643 5.8737 10.8336 5.90397 10.8421C5.95066 10.8555 5.9373 10.9159 6.01921 10.9183C6.03375 10.9186 6.14373 10.8938 6.08561 10.9564C6.07648 10.9662 6.02645 10.9857 6.028 11.0003C6.03534 11.0698 6.09869 11.1105 6.09929 11.1849C6.09957 11.2113 6.02045 11.2436 6.01237 11.2757C6.00443 11.3079 6.00899 11.3612 6.05534 11.3636C6.10175 11.366 6.20593 11.2748 6.23405 11.3021C6.3563 11.4208 6.36817 11.6007 6.43913 11.7484C6.4496 11.7702 6.4811 11.7294 6.49968 11.7591C6.56818 11.8717 6.72129 12.047 6.68815 12.1976C6.66162 12.318 6.55021 12.2495 6.55534 12.3265C6.5581 12.3634 6.7101 12.3181 6.72136 12.3216C6.80477 12.3657 6.77171 12.4488 6.82585 12.5003C6.83697 12.5109 6.8847 12.4675 6.89421 12.4759C6.92511 12.5077 6.92323 12.561 6.94792 12.5941C6.95924 12.6089 7.0004 12.5824 7.00554 12.599C7.01821 12.6383 7.01788 12.6797 6.99772 12.7367C6.99537 12.7419 6.93112 12.7516 6.94401 12.7787C6.96487 12.8227 6.95602 12.8969 7.02409 12.9222C7.04454 12.9297 7.14187 12.8753 7.09245 12.9447C7.08036 12.9598 6.96225 13.0168 7.08268 12.9955C7.1043 12.9918 7.27309 12.9756 7.2028 13.055C7.18424 13.076 7.10012 13.1506 7.12468 13.1595C7.12841 13.1605 7.17583 13.1207 7.18913 13.1322C7.23495 13.173 7.2595 13.2292 7.30534 13.2718C7.31775 13.2832 7.35986 13.2325 7.37663 13.2503C7.42278 13.2995 7.44963 13.3784 7.46452 13.4437C7.46932 13.467 7.41996 13.4783 7.41374 13.4828C7.34885 13.5514 7.46074 13.5067 7.47331 13.5101C7.53897 13.5383 7.51106 13.6048 7.55046 13.6429C7.5617 13.6526 7.60703 13.6157 7.61296 13.6156C7.6717 13.6163 7.56969 13.649 7.56901 13.6712C7.56897 13.6725 7.56903 13.6739 7.56901 13.6751C7.80847 14.1873 7.56325 14.7008 6.99968 14.6546C6.9476 14.6243 6.88996 14.6288 6.83757 14.6361C6.81782 14.6389 6.83967 14.7076 6.82194 14.7093C6.71709 14.721 6.60786 14.7146 6.50554 14.6771C6.48633 14.6698 6.49881 14.6168 6.49479 14.6048C6.46711 14.5214 6.426 14.6359 6.41667 14.6468C6.37458 14.6958 6.35808 14.6503 6.32097 14.6585C6.1378 14.7016 5.91086 14.6707 5.73796 14.6517C5.51297 14.6273 5.33825 14.5773 5.1237 14.5902C5.11019 14.5909 5.1231 14.6595 5.11198 14.6625C4.96005 14.6793 4.81012 14.6521 4.65788 14.6722C4.64539 14.6737 4.66321 14.7397 4.64323 14.7445C4.6021 14.7545 4.55006 14.7509 4.50847 14.7298C4.48818 14.7197 4.51522 14.6627 4.49479 14.6537C4.44729 14.6325 4.39611 14.6284 4.34733 14.639C4.32705 14.6442 4.35764 14.7105 4.33073 14.7113C4.1468 14.718 3.96582 14.7304 3.77995 14.6429C3.76724 14.6363 3.75621 14.4994 3.72917 14.5257C3.72715 14.5637 3.72712 14.6082 3.72624 14.6488C3.45838 14.6707 3.19309 14.6239 2.92448 14.6166C2.91366 14.6173 2.93258 14.689 2.91081 14.6888C2.78395 14.6878 2.66069 14.7075 2.53093 14.6351C2.51817 14.6277 2.52449 14.5005 2.48698 14.5189C2.48029 14.5224 2.42266 14.5399 2.40788 14.5677C2.40597 14.5723 2.41641 14.6313 2.39811 14.6332C2.29105 14.6422 2.17882 14.6287 2.07194 14.5921C2.05502 14.586 2.07275 14.5238 2.0612 14.5179C1.9741 14.4841 1.87882 14.5326 1.79557 14.475C1.73983 14.436 1.76074 14.3255 1.73112 14.2171C1.72684 14.2019 1.69189 14.199 1.69011 14.1361C1.68879 14.0903 1.69091 14.0433 1.69206 13.9955C1.65966 13.9596 1.62514 13.9162 1.62468 13.9105L1.65593 13.8861C1.66724 13.8809 1.68025 13.8782 1.69401 13.8763C1.69572 13.8229 1.69517 13.769 1.69499 13.7152C1.68468 13.7069 1.67668 13.7005 1.67448 13.6947C1.66893 13.6786 1.68326 13.6696 1.69499 13.6585C1.69477 13.6509 1.69628 13.6428 1.69597 13.6351C1.6945 13.605 1.66262 13.6278 1.66862 13.5834C1.63598 13.5498 1.59237 13.5054 1.58757 13.4984C1.56114 13.4527 1.6407 13.4862 1.70182 13.515C1.70855 13.5056 1.71645 13.4962 1.7194 13.4857C1.72515 13.4651 1.71453 13.4008 1.72624 13.3744C1.73796 13.348 1.75074 13.4015 1.77018 13.3705C1.78313 13.3494 1.78406 13.31 1.7946 13.2835C1.76299 13.2433 1.67448 13.184 1.68718 13.1683C1.73978 13.1073 1.93784 13.1885 1.81511 13.0326C1.78893 12.9992 1.63657 12.9306 1.778 12.9457C1.78695 12.9466 1.91265 12.9684 1.85905 12.9095C1.85197 12.9021 1.81099 12.8794 1.80827 12.8734C1.79893 12.8368 1.84152 12.8396 1.8405 12.805C1.83915 12.7701 1.83282 12.7247 1.86393 12.7035C1.88293 12.6909 1.97314 12.7125 1.99772 12.7152C2.0668 12.7228 1.99152 12.6458 2.06706 12.6693C2.14289 12.693 2.22875 12.7803 2.2946 12.766C2.18595 12.702 2.07524 12.634 1.96647 12.5687C2.01954 12.4849 2.10363 12.4205 2.14811 12.3314C2.15276 12.3202 2.08819 12.2972 2.09245 12.2845C2.11095 12.231 2.17716 12.2123 2.18913 12.1527C2.19795 12.1063 2.16024 12.0284 2.16764 11.9789C2.30683 12.0254 2.29914 11.9409 2.33561 11.9037C2.34837 11.8906 2.38097 11.9103 2.39811 11.9056C2.46157 11.8876 2.34164 11.844 2.32975 11.8226C2.28309 11.7317 2.53572 11.8706 2.56218 11.8099C2.56294 11.8061 2.4537 11.696 2.44597 11.6839C2.41029 11.6207 2.49464 11.704 2.51628 11.6898C2.55545 11.6631 2.60283 11.6559 2.58854 11.5902C2.58419 11.5709 2.51792 11.493 2.59636 11.5052C2.6067 11.5069 2.64991 11.5337 2.65397 11.5326C2.72337 11.51 2.58631 11.43 2.55436 11.3763C2.52278 11.3226 2.64205 11.3358 2.67448 11.3431C2.75851 11.3618 2.6955 11.377 2.70182 11.3822C2.77712 11.4439 2.78017 11.4052 2.80046 11.3861C2.93826 11.4604 2.94844 11.4239 2.82097 11.3666C2.80707 11.3604 2.80912 11.3847 2.80046 11.3861C2.67865 11.2895 2.68164 11.2448 2.82878 11.2767C2.89766 11.2917 2.95639 11.3475 2.96354 11.2777C2.9668 11.2459 2.8669 11.2014 2.85417 11.1644C2.8258 11.0804 2.95108 11.0638 2.96745 11.0033C2.9734 10.9813 2.91144 10.9705 2.91374 10.9544C2.91973 10.9118 2.97503 10.9029 2.97526 10.8568C2.97259 10.8518 2.91807 10.8298 2.92253 10.8187C2.96329 10.7329 3.0395 10.6804 3.08952 10.5951C3.11346 10.5536 3.12652 10.4626 3.1569 10.4232C3.20962 10.3548 3.33944 10.3079 3.3571 10.2337C3.36868 10.1853 3.30929 10.163 3.28288 10.1244C3.23244 10.0501 3.39257 10.0617 3.41764 10.0648C3.41843 10.0649 3.41102 10.1077 3.44889 10.1048C3.51257 10.1265 3.41786 10.0655 3.41764 10.0648C3.43342 10.0667 3.48622 10.0018 3.48405 9.98179C3.48145 9.9709 3.43218 9.94749 3.43034 9.94175C3.43934 9.82035 3.48116 9.71729 3.56022 9.63413C3.56483 9.63484 3.61786 9.66736 3.62175 9.6644C3.67836 9.6228 3.62982 9.54749 3.61491 9.47788C3.60001 9.40813 3.63457 9.37917 3.74772 9.40757C3.75552 9.3658 3.82722 9.3403 3.86979 9.32651C3.91233 9.31268 3.80413 9.24533 3.80339 9.24155C3.78382 9.14762 3.83583 9.12182 3.88639 9.07749ZM1.84245 14.1839C1.82952 14.2547 1.87818 14.2604 1.86784 14.1869C1.86742 14.1839 1.84304 14.181 1.84245 14.1839ZM6.76823 14.1322C6.78425 14.088 6.85334 14.0847 6.80827 14.0609L6.76823 14.1322ZM4.50358 9.61948C4.39338 9.68853 4.40238 9.65804 4.37175 9.63315C4.35672 9.62177 4.3184 9.65447 4.31315 9.65562C4.30761 9.65667 4.3026 9.65432 4.2985 9.65464C4.28005 9.68377 4.26875 9.70251 4.24382 9.72398C4.17506 9.78304 4.26846 9.80101 4.278 9.86753C4.28736 9.93397 4.1088 9.80197 4.06315 9.78452C4.01811 9.76741 4.05608 9.79905 4.02897 9.79429C4.0016 9.78936 3.98294 9.75576 3.96354 9.76987C3.94519 9.78504 3.98882 9.87826 4.028 9.90952C4.11151 9.97605 4.22104 10.0075 4.15886 10.0384C4.1552 10.0402 4.10976 10.002 4.09831 10.0101C4.0091 10.0758 3.9544 10.1656 3.86979 10.2337C3.8581 10.243 3.80816 10.2007 3.80046 10.2054C3.72266 10.258 3.83212 10.2859 3.91472 10.3861C3.77958 10.297 3.68068 10.2705 3.64811 10.3255C3.62893 10.3585 3.69342 10.3878 3.72429 10.4339C3.73362 10.4479 3.67835 10.4473 3.70475 10.4681C3.79085 10.536 3.90862 10.5745 3.83464 10.6078C3.83125 10.6091 3.78501 10.5728 3.77604 10.5785C3.72361 10.6228 3.81772 10.6859 3.79557 10.7533C3.77776 10.8062 3.66835 10.857 3.62761 10.9056C3.47057 10.8144 3.47788 10.8861 3.57487 10.9691C3.55036 11.0017 3.53412 11.0433 3.49968 11.0687C3.48725 11.0762 3.44679 11.0437 3.44108 11.0423C3.35139 11.0209 3.44667 11.095 3.44792 11.1058C3.44129 11.2111 3.32257 11.2325 3.35612 11.3558C3.35735 11.3602 3.46441 11.4273 3.37272 11.4027C3.36643 11.4009 3.33128 11.3466 3.30632 11.3812C3.28134 11.4159 3.18224 11.4522 3.20378 11.5326C3.20944 11.5524 3.2796 11.634 3.19597 11.6195C3.18435 11.6171 3.15548 11.5953 3.13542 11.5902C3.07072 11.574 3.17662 11.6461 3.07194 11.6107C2.96722 11.5753 2.87438 11.5736 2.90983 11.6625C2.91201 11.6661 2.99144 11.7271 2.98112 11.7425C2.96399 11.7672 2.92475 11.7942 2.90983 11.8216C2.90416 11.8343 2.95747 11.8555 2.96159 11.8597C2.94231 11.9644 2.85838 11.999 2.78386 12.0804C2.7701 12.0953 2.81631 12.1871 2.73893 12.1869C2.65383 12.1865 2.40731 11.9964 2.42253 12.1156C2.42876 12.1639 2.74443 12.4015 2.53386 12.3617C2.51014 12.5042 2.35735 12.5616 2.35222 12.7152C2.35247 12.7224 2.43776 12.7933 2.42936 12.805C2.4165 12.8221 2.36657 12.8072 2.35612 12.8187C2.31122 12.8664 2.32007 12.9386 2.28386 12.9886C2.27012 13.0077 2.22798 12.9747 2.21159 12.9974C2.19552 13.0201 2.24581 13.07 2.19889 13.0863C2.16266 13.0983 2.02568 13.0535 1.99186 13.0775C2.11243 13.1481 2.09696 13.1696 2.10612 13.2279C2.10795 13.2392 2.15483 13.2555 2.15788 13.2621C2.1711 13.2893 2.12851 13.2832 2.14421 13.3109L2.19499 13.348C2.21727 13.3475 2.23957 13.3476 2.26237 13.3587C2.27439 13.3657 2.25925 13.4277 2.27214 13.433C2.34363 13.4608 2.41163 13.445 2.48405 13.4584C2.84064 13.5243 3.19145 13.5478 3.55241 13.5765C3.67142 13.586 3.81625 13.6435 3.93913 13.6185C3.95328 13.6152 3.94422 13.5596 3.94694 13.555C3.98951 13.4858 3.97625 13.5959 4.00358 13.6117C4.1146 13.6702 4.23854 13.676 4.34538 13.6546C4.39079 13.6454 4.34552 13.5354 4.39128 13.597C4.39403 13.6025 4.38289 13.6602 4.39518 13.6664C4.42344 13.6802 4.47674 13.6696 4.4987 13.6742C4.54077 13.6834 4.54801 13.6833 4.58757 13.6839C4.64216 13.6854 4.7077 13.7138 4.76628 13.7005C4.77825 13.6967 4.76211 13.6375 4.7819 13.6273C4.80187 13.6171 4.85493 13.6229 4.87272 13.6371C4.89009 13.6516 4.88326 13.6986 4.88639 13.7093C4.9124 13.7998 4.97328 13.6734 4.98112 13.6703C5.12423 13.6171 5.24715 13.689 5.38151 13.6888C5.48358 13.6885 5.59299 13.665 5.69011 13.6683C5.80572 13.6725 5.90393 13.7052 6.01628 13.6996C6.02784 13.6984 6.01455 13.6281 6.02897 13.6273C6.18281 13.6191 6.33576 13.6265 6.48893 13.6742C6.50421 13.6792 6.48433 13.7418 6.49968 13.7503C6.51608 13.7593 6.53444 13.7698 6.55339 13.7806C6.54627 13.715 6.50792 13.6781 6.47819 13.6234C6.46935 13.6074 6.41852 13.6611 6.40788 13.6468C6.3535 13.5722 6.31172 13.4866 6.2946 13.3929C6.29123 13.3721 6.35224 13.3576 6.35319 13.346C6.35619 13.2961 6.25309 13.3445 6.25456 13.2972C6.25507 13.2873 6.30214 13.2653 6.30632 13.2611C6.3707 13.1966 6.25347 13.2397 6.24577 13.2367C6.17322 13.187 6.2629 13.0769 6.20866 13.0199C6.2014 13.0143 6.15546 13.0633 6.1403 13.0433C6.03957 12.9036 5.96487 12.7371 5.92643 12.5638C5.92041 12.537 5.97229 12.5283 5.97722 12.5238C6.04648 12.4531 5.92706 12.5015 5.91862 12.4964C5.85523 12.4547 5.91657 12.3471 5.76237 12.3822C5.66566 12.1066 5.44955 11.9002 5.42643 11.5853C5.42929 11.5803 5.48315 11.5557 5.4821 11.5482C5.46946 11.4556 5.39335 11.5183 5.26139 11.5277C5.22816 11.53 5.3313 11.4201 5.33854 11.4115C5.36534 11.3798 5.45344 11.3461 5.45768 11.3382C5.4895 11.2748 5.22529 11.4332 5.19792 11.388C5.19754 11.3863 5.25088 11.3635 5.25358 11.3568C5.26172 11.3363 5.23554 11.3352 5.24577 11.3138C5.26995 11.2644 5.39391 11.1807 5.2946 11.183C5.27871 11.1856 5.13399 11.2775 5.11784 11.2328C5.11143 11.2146 5.06812 11.1437 5.06608 11.1175C5.06431 11.0915 5.12143 11.0772 5.12272 11.0746C5.15626 10.9828 5.19474 10.9879 5.27507 10.9056C5.35495 10.8235 5.13116 10.9618 5.09929 10.9652C5.06771 10.9684 5.09796 10.8981 5.111 10.8773C5.12393 10.8569 5.16192 10.851 5.16764 10.8363C5.20316 10.7388 5.04025 10.8755 4.99284 10.8773C4.88121 10.8811 5.03019 10.7485 5.02311 10.6976C5.02097 10.6842 4.98746 10.7153 4.97819 10.7074C4.94207 10.6757 4.98093 10.6221 4.9069 10.6048C4.89322 10.6024 4.77298 10.6226 4.83366 10.557C4.84249 10.5475 4.89004 10.5332 4.8903 10.5111C4.89011 10.4778 4.87298 10.4266 4.84343 10.4076C4.82134 10.3946 4.76611 10.4562 4.77311 10.4193C4.77637 10.4026 4.82794 10.3998 4.83073 10.3705C4.83352 10.3412 4.80175 10.2884 4.78874 10.2689C4.77585 10.2506 4.73176 10.2889 4.72526 10.2914C4.69925 10.2931 4.65099 10.2685 4.64909 10.265C4.54378 10.0954 4.54141 9.88469 4.41569 9.73276C4.40617 9.72113 4.35784 9.75929 4.35319 9.76011C4.30399 9.72807 4.47216 9.67942 4.50358 9.61948ZM1.9362 13.2357C1.91867 13.2324 1.91335 13.2402 1.91472 13.2513C1.93434 13.252 1.95435 13.2526 1.97429 13.2552C1.96468 13.2468 1.95187 13.2387 1.9362 13.2357ZM2.16276 12.4095C2.08254 12.3962 2.21738 12.5007 2.24968 12.5052C2.35542 12.5195 2.24314 12.423 2.16276 12.4095ZM5.53679 11.6683C5.65242 11.6364 5.60594 11.53 5.51237 11.6126C5.50756 11.617 5.5308 11.6696 5.53679 11.6683ZM5.13737 10.6517C5.18942 10.6206 5.16243 10.6074 5.11784 10.6419C5.11518 10.644 5.12114 10.6614 5.13737 10.6517ZM4.31901 9.36167C4.26388 9.31483 4.23431 9.35449 4.30339 9.38218C4.30619 9.38309 4.32038 9.36447 4.31901 9.36167Z" fill="#555961"/>
<path d="M9.90266 1.5195C9.94256 1.53181 9.96228 1.58067 9.96809 1.62692C9.96996 1.64131 9.93807 1.66542 9.93782 1.67672C9.93791 1.69868 9.96143 1.69578 9.9593 1.71969C9.9566 1.72873 9.91061 1.76638 9.9095 1.77438C9.91056 1.81462 9.94178 1.82334 9.95345 1.85348C10.0102 2.00369 10.0955 2.12295 10.18 2.24801C10.2077 2.28932 10.2098 2.37165 10.263 2.38962C10.2703 2.39004 10.306 2.35001 10.3099 2.34762C10.3714 2.31094 10.2878 2.38568 10.2855 2.40426C10.2765 2.47754 10.3088 2.51728 10.3548 2.53317C10.3745 2.53983 10.4388 2.44897 10.4085 2.50583C10.4042 2.51145 10.3615 2.54782 10.3607 2.55563C10.3591 2.57367 10.382 2.58215 10.3851 2.59176C10.3907 2.61038 10.3935 2.61197 10.4046 2.62399C10.4193 2.64073 10.4178 2.67951 10.4437 2.68747C10.4494 2.68895 10.487 2.64284 10.5003 2.64059C10.5132 2.63917 10.5253 2.6577 10.5208 2.67282C10.516 2.68802 10.4797 2.7199 10.473 2.72848C10.4171 2.79929 10.5207 2.73018 10.5277 2.72848C10.607 2.7323 10.592 2.81949 10.6312 2.85837C10.661 2.88761 10.7099 2.90217 10.7357 2.93258C10.7663 2.96908 10.7714 3.02114 10.8079 3.04977C10.8125 3.05176 10.8579 2.99832 10.8626 3.00192C10.9131 3.04075 10.9515 3.09075 10.9622 3.16891C10.9633 3.17679 10.9142 3.21497 10.9124 3.22555C10.9036 3.28894 10.8603 3.41913 11.0677 3.24411C11.0787 3.26999 11.0935 3.30056 11.0716 3.35544C11.0573 3.39085 10.9991 3.42817 11.0325 3.42087C11.0403 3.41887 11.0782 3.37322 11.0863 3.37399C11.1201 3.37742 11.1273 3.41136 11.1673 3.40817C11.1762 3.40627 11.2108 3.36952 11.2191 3.36325C11.2826 3.31758 11.2082 3.42218 11.2044 3.43258C11.1801 3.5061 11.2168 3.5053 11.2386 3.52926C11.2436 3.5349 11.2886 3.4778 11.2952 3.48141C11.329 3.50084 11.3521 3.53359 11.3558 3.582C11.3555 3.59334 11.3078 3.63033 11.306 3.63766C11.2986 3.66929 11.3813 3.59197 11.3763 3.62008C11.3752 3.62615 11.3369 3.66247 11.3333 3.66696C11.2778 3.73656 11.3735 3.65345 11.3773 3.65329C11.427 3.64932 11.3486 3.75705 11.3831 3.76657C11.3875 3.76754 11.4285 3.7151 11.4378 3.72067C11.5003 3.75755 11.5401 3.82279 11.5521 3.90915C11.5537 3.9226 11.5139 3.95223 11.5101 3.957C11.4521 4.0303 11.5415 3.95079 11.5511 3.94626C11.5952 3.94148 11.5387 4.03544 11.6595 3.94137C11.7057 4.06148 11.8486 4.0844 11.8353 4.26266C11.8352 4.26478 11.7905 4.30571 11.7884 4.31149C11.7887 4.36168 11.8533 4.28843 11.9544 4.22067C11.9798 4.20374 11.8904 4.31851 11.8841 4.32712C11.8608 4.35848 11.7919 4.41885 11.7865 4.42672C11.756 4.48005 11.9731 4.26 11.9886 4.27536C11.9884 4.27649 11.9479 4.31281 11.9437 4.3193C11.9352 4.33586 11.9545 4.32409 11.9447 4.34176C11.9216 4.38282 11.8193 4.49237 11.8949 4.4443C11.9069 4.43554 12.0256 4.31175 12.0335 4.33102C12.0366 4.33893 12.0629 4.3611 12.0618 4.37594C12.0606 4.39077 12.0162 4.42646 12.015 4.42868C11.9805 4.49971 11.951 4.51436 11.8822 4.60153C11.8135 4.68846 11.9957 4.50107 12.0208 4.48337C12.0453 4.46643 12.0151 4.5235 12.0033 4.54196C11.9914 4.56041 11.962 4.58221 11.9564 4.59372C11.9204 4.66834 12.0571 4.50948 12.0931 4.48629C12.1776 4.43186 12.0541 4.5798 12.0531 4.60837C12.0532 4.61573 12.0808 4.58186 12.0872 4.582C12.1117 4.58399 12.0767 4.63473 12.1312 4.61032C12.1412 4.60544 12.2344 4.53641 12.182 4.60446C12.1743 4.61434 12.1372 4.64582 12.1351 4.65915C12.132 4.67899 12.1392 4.70134 12.1595 4.69919C12.1746 4.69737 12.2242 4.63349 12.2152 4.65915C12.211 4.67072 12.1704 4.69679 12.1654 4.71579C12.1604 4.73468 12.1798 4.7511 12.1878 4.7568C12.1957 4.76237 12.2348 4.7167 12.2386 4.71383C12.2582 4.70077 12.2913 4.6924 12.2933 4.69333C12.3565 4.74604 12.3379 4.87277 12.4183 4.90524C12.426 4.90553 12.4667 4.85941 12.4681 4.85934C12.5013 4.85612 12.3699 4.96382 12.3402 5.01462C12.4304 4.92135 12.42 4.9437 12.4408 4.9443C12.451 4.94416 12.4835 4.90644 12.4876 4.90329C12.5488 4.85729 12.4855 4.93088 12.472 4.94723C12.4245 5.00481 12.492 4.94872 12.4603 4.98727C12.4289 5.02555 12.3693 5.06949 12.3802 5.07907C12.4159 5.04909 12.4941 4.95556 12.5159 4.94919C12.5976 4.92593 12.5856 5.04686 12.6019 5.07809C12.6184 5.10863 12.6323 5.11108 12.6341 5.13669C12.6377 5.18202 12.6922 5.10943 12.7366 5.09567C12.7808 5.08228 12.6168 5.23163 12.5853 5.26754C12.5538 5.30339 12.5904 5.27072 12.5745 5.29196C12.5588 5.3131 12.5304 5.33044 12.5296 5.34372C12.529 5.35702 12.6064 5.31424 12.6439 5.28122C12.7233 5.21127 12.7943 5.12554 12.7835 5.16989C12.782 5.17313 12.7381 5.21092 12.7376 5.21872C12.7354 5.27949 12.7636 5.31199 12.765 5.36911C12.7651 5.37705 12.7159 5.41944 12.7152 5.42477C12.7103 5.47854 12.7791 5.39278 12.8783 5.32028C12.7611 5.43142 12.6984 5.50897 12.7161 5.52829C12.7269 5.53989 12.7753 5.48793 12.8177 5.45993C12.8305 5.45148 12.8045 5.49371 12.8294 5.47165C12.9109 5.39957 12.989 5.30598 12.974 5.35934C12.9729 5.36198 12.9307 5.3994 12.929 5.40622C12.9311 5.44161 13.0132 5.36464 13.0433 5.37497C13.0668 5.38323 13.0468 5.46022 13.057 5.48629C12.928 5.61449 12.9741 5.60213 13.0697 5.52047C13.0778 5.53577 13.0959 5.5438 13.095 5.56735C13.0938 5.57597 13.0548 5.60957 13.0511 5.61422C12.9955 5.68491 13.0872 5.60335 13.0931 5.60251C13.1529 5.5975 13.1106 5.68503 13.2005 5.64743C13.2068 5.64306 13.2928 5.55989 13.2357 5.63083C13.23 5.63673 13.1827 5.66839 13.1917 5.68356C13.2005 5.69956 13.1767 5.76899 13.2347 5.74508C13.2488 5.73926 13.3318 5.67804 13.2835 5.74313C13.2764 5.75233 13.25 5.77636 13.2376 5.79196C13.1979 5.84213 13.2905 5.75511 13.22 5.83786C13.1495 5.92069 13.1049 5.99068 13.1751 5.95504C13.1779 5.95346 13.2527 5.88723 13.2572 5.89352C13.2639 5.90395 13.2617 5.93051 13.2708 5.93942C13.2753 5.94345 13.3159 5.89792 13.3187 5.89645C13.3727 5.90071 13.3544 5.96129 13.3685 6.00973C13.3719 6.01796 13.447 5.97466 13.4105 6.03317C13.3702 6.0978 13.1401 6.30425 13.22 6.28024C13.2526 6.27024 13.5433 6.00829 13.4202 6.17184C13.4946 6.17599 13.4581 6.28469 13.5482 6.2734C13.5553 6.27005 13.635 6.20189 13.638 6.207C13.642 6.21508 13.6108 6.25301 13.6116 6.26071C13.6192 6.28993 13.6666 6.27672 13.68 6.29879C13.685 6.30725 13.6465 6.34201 13.6517 6.35251C13.6577 6.3626 13.7117 6.31957 13.6995 6.35348C13.6897 6.37982 13.598 6.4888 13.597 6.51169C13.6963 6.41321 13.702 6.42288 13.7415 6.41012C13.7495 6.40715 13.7811 6.37009 13.7865 6.36715C13.8087 6.35481 13.785 6.38756 13.8089 6.37301C13.8146 6.36957 13.8474 6.33668 13.8548 6.33102C13.9124 6.2893 13.8506 6.37749 13.8392 6.39352C13.7975 6.45251 13.8456 6.41297 13.8324 6.43942C13.8191 6.46569 13.7841 6.48033 13.7796 6.49997C13.7707 6.54087 13.7971 6.55637 13.8118 6.57419C13.8182 6.58049 13.8588 6.53128 13.8607 6.53122C13.8853 6.53334 13.8514 6.595 13.9486 6.51266C13.7254 6.75444 13.9788 6.49784 13.9515 6.56344C13.9492 6.56871 13.8421 6.68039 13.8197 6.69137C13.7977 6.70172 13.8226 6.65861 13.7894 6.67575C13.779 6.68197 13.6704 6.76975 13.6605 6.77633C13.6 6.81349 13.7624 6.64731 13.7708 6.63766C13.8611 6.5334 13.7373 6.63138 13.7259 6.63571C13.6749 6.65473 13.6838 6.61769 13.6458 6.62887C13.6208 6.63631 13.5117 6.74357 13.5081 6.73337C13.4961 6.69947 13.6386 6.54169 13.4866 6.65036C13.4541 6.67365 13.3414 6.79562 13.4173 6.68649C13.4224 6.67927 13.4935 6.58251 13.4329 6.62887C13.4248 6.63533 13.3911 6.66918 13.387 6.67087C13.3609 6.68124 13.3823 6.64883 13.3607 6.65329C13.339 6.65778 13.3092 6.6667 13.3109 6.64547C13.3119 6.63268 13.3678 6.5621 13.3812 6.54294C13.4183 6.48982 13.3364 6.55466 13.3861 6.49508C13.4359 6.43534 13.5286 6.36198 13.5511 6.31344C13.4616 6.40201 13.369 6.49224 13.2786 6.58102C13.253 6.54911 13.2529 6.4917 13.22 6.46676C13.2144 6.46602 13.1723 6.51493 13.1663 6.51364C13.1426 6.50508 13.1623 6.45741 13.1322 6.45407C13.1084 6.45179 13.0433 6.48807 13.0169 6.48727C13.1106 6.37695 13.0555 6.39113 13.0501 6.36715C13.0485 6.35868 13.0762 6.33179 13.0814 6.3193C13.1003 6.27299 13.0179 6.36861 12.9993 6.37985C12.923 6.42399 13.1227 6.22091 13.1009 6.20504C13.0997 6.20423 12.9785 6.30056 12.97 6.30563C12.9153 6.33885 13.0054 6.26601 13.0072 6.25094C13.0095 6.2239 13.0271 6.1897 12.9808 6.207C12.9671 6.2122 12.8891 6.26923 12.9329 6.20895C12.9387 6.201 12.9756 6.16505 12.9769 6.16208C12.9955 6.11224 12.8824 6.22469 12.8353 6.25387C12.7886 6.28252 12.8527 6.19132 12.8724 6.16598C12.9231 6.10044 12.9024 6.1459 12.9085 6.14059C12.9801 6.07826 12.9597 6.07938 12.9574 6.06637C13.067 5.95448 13.0491 5.95016 12.9544 6.0527C12.9448 6.06346 12.9608 6.05983 12.9574 6.06637C12.8421 6.16807 12.8163 6.16929 12.9046 6.05465C12.9461 6.00104 13.007 5.95148 12.9681 5.95309C12.9502 5.95414 12.8772 6.03357 12.849 6.04684C12.785 6.07669 12.8334 5.9843 12.805 5.97751C12.7946 5.97518 12.759 6.02231 12.7503 6.02243C12.7275 6.02215 12.7482 5.98131 12.721 5.98532C12.7185 5.98576 12.6789 6.03007 12.6732 6.02926C12.6407 6.00693 12.6441 5.95527 12.6165 5.92575C12.6031 5.91158 12.554 5.91056 12.5443 5.89157C12.5275 5.85853 12.5605 5.76361 12.5238 5.75778C12.5 5.75418 12.4597 5.8014 12.4241 5.82516C12.3549 5.87143 12.4382 5.74723 12.4515 5.72848C12.4548 5.72806 12.4748 5.72738 12.4896 5.70114C12.5312 5.65237 12.4569 5.72357 12.4515 5.72848C12.4596 5.71622 12.4458 5.6835 12.4329 5.68649C12.4258 5.68848 12.3851 5.73116 12.3822 5.73141C12.3134 5.7365 12.2711 5.71466 12.2581 5.66305C12.2612 5.65908 12.3043 5.61832 12.306 5.61422C12.3079 5.57491 12.2389 5.61945 12.1898 5.63766C12.1408 5.6558 12.1401 5.63238 12.2103 5.54391C12.1886 5.54228 12.2074 5.4899 12.2191 5.45895C12.2303 5.42856 12.1387 5.51661 12.1361 5.51754C12.0526 5.5482 12.089 5.48166 12.0697 5.44626C12.0606 5.42928 12.0213 5.41631 11.9974 5.41208C11.9791 5.40848 11.9926 5.38151 11.9691 5.38473C11.9638 5.38762 11.927 5.42662 11.9251 5.4277C11.8664 5.46369 11.9695 5.37145 11.9847 5.35153C12.0399 5.2792 12.0684 5.2405 12.0238 5.25583C12.0104 5.26223 11.8622 5.39047 11.848 5.39254C11.8301 5.39464 11.8832 5.34767 11.8626 5.35153C11.8593 5.35355 11.8302 5.38231 11.8265 5.37594C11.8085 5.34595 11.7998 5.30213 11.7718 5.28024C11.7681 5.27719 11.7246 5.32872 11.7171 5.32712C11.6882 5.30989 11.6639 5.2828 11.6644 5.23727C11.6647 5.22585 11.7031 5.1941 11.7122 5.18258C11.7672 5.11284 11.6659 5.19333 11.6624 5.19333C11.5782 5.19521 11.6282 5.08211 11.5472 5.07907C11.5407 5.08051 11.4289 5.1573 11.5033 5.06735C11.5083 5.06127 11.5859 4.96815 11.5208 5.0195C11.5168 5.02269 11.4785 5.07037 11.474 5.05856C11.47 5.04564 11.4266 5.06078 11.4632 5.00094C11.4752 4.98156 11.5504 4.88872 11.472 4.94528C11.4649 4.95061 11.2967 5.08475 11.3958 4.9736C11.4122 4.95524 11.5252 4.84492 11.4554 4.88864C11.4418 4.89725 11.4209 4.92751 11.3988 4.93649C11.365 4.95001 11.3808 4.90701 11.3187 4.9443C11.3061 4.9523 11.2232 5.01629 11.2728 4.95212C11.2805 4.94212 11.3189 4.9083 11.3206 4.89938C11.3221 4.8608 11.2777 4.86575 11.2845 4.82126C11.2869 4.80553 11.3512 4.7488 11.3607 4.72555C11.3699 4.70247 11.3709 4.67237 11.3363 4.69235C11.3016 4.71253 11.2141 4.81625 11.1947 4.81442C11.1137 4.80036 11.1225 4.69629 11.0833 4.64059C11.0771 4.63343 11.0494 4.6722 11.0384 4.66305C10.9976 4.62739 10.8988 4.5936 10.9388 4.48727C10.9708 4.40209 11.0495 4.39081 11.0531 4.34665C11.0539 4.32657 10.935 4.4239 10.9261 4.4277C10.8672 4.44037 10.9006 4.3747 10.8646 4.36911C10.8571 4.36798 10.8157 4.41843 10.8099 4.41696C10.7897 4.41228 10.7969 4.37847 10.7816 4.37008C10.7745 4.3665 10.7409 4.4021 10.7386 4.3945C10.7328 4.37672 10.7362 4.35148 10.7572 4.30758C10.76 4.30297 10.8091 4.268 10.8021 4.25778C10.7906 4.24114 10.8051 4.19143 10.7562 4.20797C10.7414 4.21311 10.6621 4.29253 10.7064 4.22751C10.7157 4.21386 10.813 4.12148 10.7191 4.19137C10.7034 4.20298 10.5729 4.29393 10.6341 4.21286C10.6502 4.19154 10.7206 4.10769 10.7034 4.11325C10.7007 4.11441 10.6606 4.1598 10.6517 4.15915C10.6212 4.15599 10.6079 4.13396 10.5775 4.12985C10.5692 4.12885 10.5318 4.17962 10.5208 4.17672C10.4908 4.16874 10.4788 4.13382 10.474 4.10153C10.4723 4.08951 10.5135 4.05814 10.5169 4.05368C10.5734 3.98115 10.4807 4.06298 10.473 4.0654C10.4267 4.07882 10.4543 4.02641 10.429 4.02145C10.4219 4.02011 10.3828 4.06449 10.3783 4.06735C10.3336 4.09468 10.4146 4.02638 10.4173 4.01266C10.4249 3.97446 10.4048 3.96041 10.3841 3.95016C10.3764 3.94644 10.3339 4.00093 10.3275 3.99704C10.289 3.9749 10.2623 3.93872 10.2591 3.88278C10.2586 3.87224 10.2979 3.83919 10.306 3.82907C10.3572 3.76179 10.2646 3.83092 10.2542 3.8359C10.2075 3.85823 10.2348 3.82127 10.2181 3.81637C10.1346 3.79372 10.0908 3.70611 10.054 3.64254C10.0059 3.55991 9.98979 3.47405 9.91829 3.42087C9.9121 3.42002 9.86898 3.47001 9.86458 3.46774C9.80868 3.43557 9.78416 3.3737 9.72591 3.34372C9.7212 3.34117 9.67937 3.3931 9.67024 3.39059C9.65128 3.38573 9.6391 3.36768 9.64192 3.34079C9.64322 3.32775 9.69093 3.2956 9.69173 3.28317C9.69297 3.25433 9.68117 3.23614 9.6595 3.22946C9.64997 3.22723 9.61122 3.28359 9.60286 3.27633C9.54477 3.22774 9.48456 3.18311 9.49251 3.06735C9.4946 3.05793 9.58617 2.95901 9.55989 2.96969C9.53236 2.99604 9.50104 3.02808 9.472 3.05661C9.37882 2.99445 9.33565 2.88389 9.26302 2.80075C9.25994 2.79725 9.21357 2.85413 9.20735 2.84762C9.17134 2.81021 9.12175 2.7886 9.13509 2.70016C9.13635 2.69146 9.22801 2.60356 9.20442 2.60544C9.19998 2.60599 9.17075 2.60082 9.1468 2.61618C9.14331 2.61853 9.10535 2.66284 9.09798 2.66012C9.06049 2.63548 9.03675 2.59295 9.03157 2.5361C9.03193 2.52629 9.08152 2.48734 9.08138 2.48044C9.07994 2.43132 9.01877 2.43803 9.03548 2.37301C9.04689 2.32931 9.13057 2.25701 9.19856 2.17184C9.2077 2.15995 9.20002 2.14801 9.24348 2.10348C9.35425 1.99006 9.48244 1.87241 9.59993 1.75094C9.62515 1.72486 9.58371 1.73865 9.65364 1.68454C9.65835 1.68094 9.68876 1.66998 9.71223 1.65133C9.72848 1.63842 9.77121 1.59045 9.79329 1.57516C9.81525 1.55997 9.78099 1.60067 9.80794 1.58493C9.83576 1.56837 9.88526 1.51444 9.90266 1.5195ZM14.0843 6.51852C14.0856 6.52841 14.0132 6.56466 14.0033 6.58883C13.9866 6.63312 14.1118 6.52634 14.0638 6.60251C14.0549 6.6165 13.9272 6.7094 13.9261 6.707V6.68551C13.9442 6.62122 14.074 6.47159 14.0843 6.51852ZM13.72 6.50583C13.7458 6.47154 13.6988 6.49505 13.6663 6.53805C13.6406 6.57231 13.6876 6.54884 13.72 6.50583ZM13.3734 6.37204C13.4309 6.29134 13.3205 6.38609 13.2747 6.44821C13.2291 6.5103 13.3557 6.39679 13.3734 6.37204ZM12.4505 5.1152C12.3963 5.16166 12.407 5.18036 12.4564 5.12497C12.4583 5.12269 12.4528 5.11329 12.4505 5.1152ZM11.9613 4.6904C11.9188 4.73361 11.9385 4.72853 11.9759 4.68649C11.9777 4.6838 11.9741 4.67736 11.9613 4.6904ZM11.7591 4.26559C11.6685 4.33912 11.6937 4.38083 11.7728 4.28708C11.7761 4.28165 11.7637 4.26209 11.7591 4.26559ZM9.25423 2.18063C9.2002 2.22707 9.21084 2.24576 9.26009 2.1904C9.26207 2.18817 9.25649 2.17872 9.25423 2.18063Z" fill="#555961"/>
<path d="M13.8968 2.04788C13.9021 2.05013 14.0144 2.15873 14.0247 2.18069C14.035 2.20253 13.9922 2.17697 14.0091 2.20999C14.0131 2.21778 14.1044 2.33145 14.1097 2.33987C14.1468 2.4002 13.9815 2.23874 13.971 2.22952C13.8665 2.13903 13.9649 2.26325 13.9691 2.27444C13.9879 2.32531 13.9508 2.31628 13.9622 2.35452C13.9697 2.37954 14.0769 2.48861 14.0667 2.49221C14.0326 2.50388 13.8752 2.36193 13.9837 2.5137C14.0074 2.5465 14.1285 2.65863 14.0199 2.58303C14.013 2.57824 13.916 2.50594 13.9622 2.56643C13.968 2.57396 14.0015 2.60738 14.0042 2.61233C14.0149 2.6388 13.9824 2.61735 13.9867 2.6387C13.9911 2.66039 14.0003 2.69025 13.9788 2.6885C13.966 2.68747 13.895 2.63119 13.8763 2.61819C13.8232 2.58111 13.888 2.66392 13.8285 2.61428C13.7687 2.56452 13.6954 2.47186 13.6468 2.44924C13.7354 2.53879 13.8256 2.63136 13.9144 2.7217C13.8825 2.74732 13.8251 2.7466 13.8001 2.77932C13.7971 2.78348 13.849 2.82832 13.847 2.83401C13.8382 2.85752 13.7906 2.83787 13.7874 2.86819C13.7853 2.89204 13.8214 2.95711 13.8206 2.98342C13.7103 2.88973 13.7245 2.94389 13.7005 2.94924C13.6922 2.95115 13.6652 2.92429 13.6527 2.91897C13.6061 2.89988 13.7027 2.98294 13.7132 3.001C13.7575 3.07764 13.553 2.87596 13.5384 2.89944C13.5422 2.90621 13.6341 3.02203 13.639 3.0303C13.6718 3.08454 13.5994 2.99507 13.5843 2.99319C13.5573 2.99087 13.523 2.97319 13.5404 3.01956C13.5461 3.03385 13.6026 3.11041 13.5423 3.06643C13.5342 3.06046 13.4984 3.02469 13.4954 3.02346C13.4454 3.00469 13.5579 3.11682 13.5872 3.16409C13.6164 3.2112 13.525 3.1478 13.4994 3.12795C13.4338 3.07721 13.4793 3.09793 13.474 3.09182C13.4114 3.01991 13.4128 3.04064 13.3997 3.04299C13.2878 2.93334 13.2835 2.95025 13.3861 3.04495C13.3972 3.05519 13.3931 3.03949 13.3997 3.04299C13.5013 3.15813 13.5026 3.18404 13.388 3.09573C13.3343 3.05428 13.2849 2.9933 13.2865 3.03225C13.2884 3.05059 13.3667 3.1222 13.3802 3.15042C13.4106 3.21497 13.3173 3.16649 13.3109 3.19534C13.3089 3.20596 13.3559 3.24146 13.3558 3.25003C13.3552 3.27252 13.3143 3.25175 13.3187 3.27932C13.3191 3.28187 13.3651 3.32255 13.3626 3.32717C13.3403 3.35968 13.2886 3.35604 13.2591 3.38381C13.245 3.39721 13.2437 3.44501 13.2249 3.4551C13.192 3.4718 13.0975 3.43949 13.0911 3.47561C13.0872 3.49936 13.1347 3.54047 13.1585 3.5762C13.2044 3.64506 13.0806 3.56212 13.0619 3.54885C13.0614 3.54682 13.0621 3.52523 13.0345 3.50979C12.9851 3.46764 13.0587 3.54533 13.0619 3.54885C13.0496 3.54048 13.0162 3.55436 13.0199 3.56741C13.0218 3.57441 13.0627 3.61275 13.0648 3.61721C13.07 3.68616 13.0481 3.72924 12.9964 3.74221C12.9934 3.74019 12.9523 3.69673 12.9476 3.69436C12.9083 3.69248 12.9528 3.76149 12.971 3.81057C12.989 3.85923 12.9654 3.86 12.8773 3.79006C12.8755 3.81154 12.8232 3.79297 12.7923 3.78128C12.7616 3.76975 12.85 3.86166 12.8509 3.86428C12.8813 3.94733 12.815 3.91137 12.7796 3.93069C12.7627 3.93987 12.7497 3.97809 12.7454 4.00198C12.7423 4.02099 12.7151 4.00687 12.7181 4.0303C12.7185 4.03345 12.7589 4.07132 12.7611 4.07424C12.7977 4.13374 12.7048 4.02984 12.6849 4.01467C12.6129 3.95971 12.5741 3.93128 12.5892 3.97561C12.5926 3.98577 12.7216 4.13475 12.7259 4.15139C12.7284 4.1699 12.681 4.11705 12.6849 4.13772C12.688 4.14202 12.7155 4.17024 12.7093 4.17385C12.6793 4.19184 12.6354 4.20047 12.6136 4.22854C12.6129 4.23383 12.6637 4.27695 12.6605 4.28323C12.6433 4.31217 12.6162 4.33551 12.5706 4.33499C12.5592 4.33467 12.5275 4.29624 12.516 4.28713C12.4476 4.2334 12.5248 4.33123 12.5267 4.33694C12.5289 4.42177 12.4155 4.37203 12.4124 4.45315C12.4159 4.46245 12.4892 4.57013 12.4007 4.4971C12.3946 4.49209 12.3015 4.41436 12.3529 4.47952C12.3571 4.48437 12.404 4.52211 12.3919 4.52639C12.379 4.53039 12.3942 4.57371 12.3343 4.53713C12.3153 4.52548 12.2224 4.44926 12.2786 4.52737C12.2827 4.53282 12.4187 4.70321 12.307 4.60354C12.2878 4.58624 12.1781 4.47501 12.222 4.54495C12.2306 4.55852 12.2608 4.57852 12.2699 4.60061C12.2838 4.63473 12.2403 4.61846 12.2777 4.68069C12.2843 4.69168 12.3505 4.77682 12.2855 4.72659C12.2751 4.71838 12.2414 4.68012 12.2327 4.67874C12.1941 4.67728 12.1992 4.72174 12.1546 4.71487C12.1389 4.71248 12.0822 4.64927 12.0589 4.63967C12.0358 4.63047 12.0055 4.62924 12.0257 4.66409C12.046 4.69895 12.1507 4.78691 12.1478 4.80569C12.1337 4.88661 12.0297 4.87691 11.974 4.91604C11.9657 4.92184 12.0061 4.95092 11.9964 4.96194C11.9608 5.00276 11.9269 5.10056 11.8206 5.06057C11.7356 5.0285 11.7241 4.95083 11.68 4.94729C11.6596 4.94643 11.7599 5.06837 11.7611 5.07424C11.7737 5.13306 11.7081 5.09977 11.7025 5.13577C11.7025 5.1437 11.7497 5.18242 11.7503 5.18948C11.7457 5.20983 11.7117 5.20314 11.7035 5.21878C11.7001 5.226 11.7354 5.2595 11.7279 5.26174C11.7101 5.26745 11.6848 5.26312 11.641 5.24221C11.6354 5.23782 11.6014 5.19119 11.5911 5.19729C11.5746 5.20893 11.5245 5.19486 11.5413 5.24417C11.5466 5.25899 11.6256 5.33805 11.5609 5.29397C11.5473 5.28472 11.4547 5.18708 11.5247 5.28128C11.5367 5.29741 11.6268 5.42698 11.5462 5.36624C11.5248 5.35007 11.4402 5.27888 11.4466 5.2969C11.4487 5.30038 11.4921 5.33825 11.4925 5.34768C11.4895 5.37848 11.4673 5.39218 11.4632 5.42288C11.4629 5.43137 11.5115 5.46714 11.5101 5.47854C11.5022 5.50867 11.4673 5.52156 11.4349 5.52639C11.423 5.52807 11.392 5.48757 11.387 5.48342C11.3153 5.42753 11.3947 5.517 11.3988 5.52639C11.4126 5.57329 11.3594 5.54543 11.3548 5.57131C11.3535 5.57825 11.3962 5.61525 11.4007 5.62112C11.4282 5.66599 11.3598 5.58575 11.346 5.58303C11.3076 5.57539 11.2938 5.5954 11.2835 5.61624C11.2798 5.62393 11.3335 5.6651 11.3304 5.6719C11.3083 5.71059 11.2723 5.73802 11.2161 5.74124C11.2055 5.74174 11.1722 5.70085 11.1624 5.69338C11.0953 5.64231 11.164 5.73434 11.1693 5.74514C11.1921 5.79261 11.1545 5.76525 11.1497 5.78225C11.127 5.8657 11.0394 5.9096 10.9759 5.94631C10.8934 5.99436 10.8074 6.00983 10.7542 6.08108C10.7508 6.08558 10.8034 6.13126 10.8011 6.13577C10.7689 6.19157 10.707 6.2161 10.6771 6.27444C10.6748 6.27922 10.7248 6.3192 10.724 6.32913C10.7191 6.34815 10.7011 6.36124 10.6742 6.35842C10.6611 6.35712 10.629 6.30947 10.6165 6.30862C10.5877 6.30737 10.5695 6.31918 10.5628 6.34085C10.5619 6.35082 10.6158 6.38783 10.6097 6.39651C10.561 6.45465 10.5166 6.5158 10.4007 6.50784C10.3917 6.50616 10.2931 6.41403 10.3031 6.43948C10.3294 6.46704 10.3614 6.49926 10.39 6.52835C10.3278 6.62143 10.2172 6.66467 10.1341 6.73733C10.1306 6.74039 10.1866 6.78528 10.181 6.79202C10.1434 6.82804 10.1221 6.87859 10.0335 6.86526C10.0248 6.86399 9.93612 6.77121 9.9388 6.79592C9.93934 6.80039 9.93456 6.82874 9.94955 6.85256C9.95193 6.85611 9.99754 6.89575 9.99349 6.90237C9.96885 6.93986 9.92632 6.96262 9.86947 6.9678C9.85962 6.96736 9.8207 6.91882 9.8138 6.91897C9.7647 6.92042 9.77138 6.98156 9.70638 6.96487C9.66268 6.95352 9.59042 6.8698 9.50521 6.80178C9.49326 6.79244 9.48169 6.79969 9.43685 6.75588C9.32353 6.6452 9.20567 6.51781 9.08431 6.40042C9.05816 6.3751 9.07215 6.41586 9.01791 6.34573C9.0141 6.34015 9.00288 6.31109 8.9847 6.28811C8.97183 6.27192 8.92398 6.2292 8.90853 6.20706C8.89328 6.185 8.93459 6.21901 8.9183 6.19143C8.90174 6.16374 8.84853 6.11532 8.85287 6.09768C8.86517 6.0578 8.91405 6.03807 8.96029 6.03225C8.97468 6.03038 8.99879 6.06228 9.01009 6.06252C9.03205 6.06243 9.02915 6.03794 9.05306 6.04006C9.06177 6.04224 9.09949 6.08841 9.10775 6.08987C9.14794 6.08881 9.1568 6.0586 9.18685 6.0469C9.33706 5.9901 9.45632 5.90482 9.58138 5.82034C9.62264 5.79256 9.705 5.79061 9.72298 5.73733C9.72449 5.73079 9.68401 5.69493 9.68099 5.69045C9.64411 5.62871 9.71903 5.71152 9.73763 5.71389C9.81098 5.72291 9.85065 5.69056 9.86654 5.64456C9.87145 5.62424 9.78284 5.56082 9.83919 5.59085C9.84372 5.59372 9.88104 5.6379 9.889 5.6387C9.90707 5.64034 9.91551 5.61734 9.92513 5.61428C9.94349 5.60869 9.94552 5.60664 9.95736 5.59573C9.97421 5.58089 10.0132 5.58209 10.0208 5.55569C10.0216 5.54947 9.9754 5.51197 9.97396 5.49905C9.97284 5.48624 9.99116 5.47497 10.0062 5.47952C10.0214 5.48438 10.0533 5.51962 10.0619 5.52639C10.1341 5.58357 10.0618 5.4762 10.0619 5.4717C10.0659 5.39281 10.1529 5.40827 10.1917 5.36917C10.2211 5.33933 10.2355 5.29054 10.266 5.26467C10.3024 5.23402 10.3545 5.22897 10.3831 5.19241C10.3862 5.18865 10.3332 5.14352 10.3353 5.13772C10.3741 5.08724 10.4241 5.04786 10.5023 5.03713C10.5102 5.0361 10.5484 5.08631 10.5589 5.08792C10.6223 5.09672 10.7523 5.13987 10.5775 4.93264C10.6034 4.92163 10.6338 4.90677 10.6888 4.92874C10.7241 4.94307 10.7613 5.00079 10.7542 4.9678C10.7526 4.96033 10.707 4.92241 10.7074 4.91409C10.7107 4.88009 10.7447 4.87314 10.7415 4.83303C10.7405 4.82458 10.7023 4.78809 10.6966 4.7803C10.651 4.71685 10.7561 4.79259 10.766 4.79592C10.8397 4.82027 10.8384 4.78258 10.8626 4.76077C10.8674 4.75526 10.8117 4.712 10.8148 4.7051C10.8342 4.67123 10.8669 4.64827 10.9154 4.64456C10.9267 4.64491 10.9637 4.69149 10.971 4.69338C11.003 4.70102 10.9256 4.61834 10.9535 4.62307C10.9595 4.62419 10.9958 4.66245 11.0003 4.66604C11.0693 4.72118 10.9895 4.62973 10.9867 4.62307C10.9825 4.573 11.091 4.6517 11.0999 4.61624C11.0995 4.61105 11.049 4.57195 11.054 4.56253C11.0909 4.49997 11.1561 4.46025 11.2425 4.44827C11.2559 4.44661 11.2856 4.48644 11.2904 4.49026C11.3651 4.54935 11.2805 4.45415 11.2796 4.44827C11.2751 4.40452 11.3684 4.46121 11.2747 4.34085C11.3949 4.29469 11.4177 4.15173 11.596 4.16506C11.5981 4.16513 11.6383 4.20792 11.6449 4.21096C11.695 4.21067 11.6218 4.14697 11.554 4.04592C11.537 4.02051 11.6519 4.10989 11.6605 4.11624C11.6921 4.13978 11.7528 4.20927 11.7601 4.21389C11.8134 4.24435 11.5934 4.02724 11.6087 4.01174C11.6105 4.01265 11.6467 4.05299 11.6527 4.05667C11.6691 4.06515 11.6579 4.04526 11.6751 4.05471C11.7162 4.07776 11.8257 4.18108 11.7777 4.10549C11.7703 4.09478 11.6456 3.97525 11.6644 3.96682C11.6723 3.96378 11.6945 3.93739 11.7093 3.9385C11.7241 3.93973 11.7598 3.98413 11.762 3.98538C11.833 4.01983 11.8476 4.04925 11.9349 4.11819C12.022 4.18694 11.8337 4.00303 11.8167 3.97854C11.8005 3.95471 11.8567 3.9842 11.8753 3.99612C11.8938 4.00798 11.9156 4.03735 11.9271 4.04299C12.0024 4.07943 11.8427 3.94217 11.8197 3.90628C11.766 3.82257 11.9132 3.94624 11.9417 3.94729C11.949 3.9472 11.9162 3.92005 11.9154 3.91311C11.9174 3.8887 11.968 3.92352 11.9437 3.86917C11.9397 3.86028 11.8691 3.76542 11.9378 3.81838C11.9478 3.82617 11.9792 3.8632 11.9925 3.86526C12.0125 3.86837 12.035 3.86036 12.0326 3.83987C12.0299 3.82436 11.9668 3.77609 11.9925 3.78518C12.0041 3.78928 12.0302 3.82878 12.0492 3.83401C12.0679 3.83896 12.0843 3.82063 12.0902 3.81253C12.0957 3.80476 12.0513 3.76661 12.0472 3.76174C12.0344 3.74261 12.0262 3.71041 12.0267 3.70706C12.0794 3.64386 12.2061 3.66244 12.2386 3.58206C12.24 3.57522 12.1948 3.53536 12.1927 3.53225C12.1889 3.49812 12.2971 3.63047 12.348 3.66018C12.2549 3.57012 12.2769 3.58008 12.2777 3.5596C12.2779 3.54963 12.2405 3.5174 12.2367 3.51272C12.1904 3.45128 12.2646 3.5151 12.2806 3.52835C12.3382 3.57582 12.2821 3.5084 12.3206 3.54006C12.3588 3.57144 12.4027 3.63071 12.4124 3.62014C12.3826 3.58459 12.2897 3.50663 12.2826 3.4844C12.2593 3.40283 12.38 3.41463 12.4115 3.39846C12.442 3.38192 12.4444 3.36807 12.4701 3.36624C12.5154 3.36265 12.4429 3.30811 12.429 3.2637C12.4153 3.21908 12.565 3.38355 12.6009 3.41506C12.6363 3.44615 12.6047 3.40961 12.6253 3.42483C12.6465 3.44061 12.6638 3.46992 12.6771 3.47073C12.6904 3.47133 12.6476 3.39403 12.6146 3.35647C12.5446 3.27699 12.4589 3.20608 12.5033 3.21682C12.5072 3.21923 12.5444 3.26129 12.5521 3.26174C12.6129 3.26396 12.6453 3.23577 12.7025 3.2344C12.7104 3.23429 12.7523 3.28283 12.7581 3.2842C12.812 3.28909 12.7262 3.22051 12.6536 3.12112C12.765 3.23854 12.8424 3.30113 12.8617 3.28323C12.8721 3.27203 12.8211 3.22467 12.7933 3.18264C12.7849 3.16987 12.827 3.19579 12.805 3.17092C12.7329 3.08939 12.6393 3.0113 12.6927 3.02639C12.6964 3.02877 12.7331 3.06995 12.7396 3.07131C12.775 3.06921 12.6978 2.9861 12.7083 2.95608C12.7175 2.93331 12.7938 2.95345 12.8197 2.94338C12.9477 3.07223 12.9354 3.0261 12.8538 2.93069C12.8692 2.92257 12.8771 2.9044 12.9007 2.9053C12.9094 2.90669 12.9431 2.94576 12.9476 2.94924C13.0181 3.00463 12.9367 2.91317 12.9359 2.90725C12.9305 2.84695 13.0185 2.88995 12.9808 2.79983C12.9794 2.7966 12.8919 2.70547 12.9642 2.7637C12.9692 2.7678 13.0015 2.81683 13.0169 2.80764C13.0335 2.79928 13.1025 2.82256 13.0785 2.76467C13.0717 2.74954 13.012 2.668 13.0765 2.71585C13.0854 2.72262 13.1095 2.74916 13.1253 2.76174C13.176 2.80191 13.0887 2.7091 13.1712 2.77932C13.254 2.84981 13.3238 2.89509 13.2884 2.82522C13.2874 2.82313 13.2203 2.74651 13.2269 2.74221C13.2376 2.73562 13.2643 2.73799 13.2728 2.72854C13.2761 2.72343 13.2299 2.68224 13.2298 2.68069C13.2344 2.62715 13.2948 2.64587 13.3431 2.63186C13.3518 2.62911 13.3082 2.55267 13.3665 2.58889C13.4311 2.62914 13.6372 2.85969 13.6136 2.7803C13.6041 2.74822 13.3415 2.45695 13.5052 2.5801C13.5091 2.50531 13.618 2.54231 13.6068 2.45217C13.6063 2.44816 13.5353 2.36564 13.5404 2.36233C13.5481 2.35793 13.5863 2.38949 13.5941 2.3887C13.6234 2.38107 13.6097 2.33253 13.6322 2.31936C13.6406 2.31439 13.6752 2.35349 13.6859 2.34866C13.696 2.34265 13.6527 2.28847 13.6869 2.30081C13.7132 2.31062 13.8222 2.40242 13.8451 2.40335C13.7465 2.30395 13.7562 2.29828 13.7435 2.25881C13.741 2.25116 13.7035 2.21929 13.7005 2.21389C13.6878 2.19133 13.7206 2.21505 13.7064 2.19143C13.7029 2.18564 13.6692 2.1512 13.6644 2.14456C13.6226 2.08687 13.7113 2.15008 13.7269 2.16116C13.7859 2.20288 13.7463 2.15479 13.7728 2.16799C13.7989 2.18125 13.8138 2.21518 13.8333 2.21975C13.8742 2.22862 13.8898 2.20322 13.9076 2.1885C13.9143 2.18255 13.8665 2.14305 13.8646 2.13967C13.8665 2.11482 13.9282 2.14889 13.846 2.05178C14.0872 2.27444 13.8321 2.0213 13.8968 2.04788ZM9.514 6.74514C9.56049 6.79929 9.57899 6.78943 9.52376 6.74026C9.52162 6.73835 9.51296 6.74277 9.514 6.74514ZM11.6204 4.22756C11.6153 4.22398 11.5957 4.2356 11.599 4.24026C11.6727 4.33126 11.7143 4.30672 11.6204 4.22756ZM12.0199 4.02444C12.0173 4.02239 12.0107 4.02517 12.0238 4.03811C12.0671 4.08079 12.062 4.06186 12.0199 4.02444ZM12.4486 3.54983C12.4949 3.60374 12.5135 3.59313 12.4583 3.54397C12.4561 3.54205 12.4467 3.54758 12.4486 3.54983ZM13.7054 2.62698C13.6244 2.56923 13.7194 2.67986 13.7816 2.72561C13.8433 2.77096 13.7301 2.64462 13.7054 2.62698ZM13.8392 2.2803C13.8047 2.2543 13.8284 2.30149 13.8714 2.33401C13.9055 2.35945 13.8821 2.31272 13.8392 2.2803ZM13.8519 1.91604C13.8617 1.91447 13.898 1.98736 13.9222 1.9971C13.9665 2.01379 13.8594 1.88827 13.9359 1.93655C13.9491 1.94494 14.0321 2.0596 14.0394 2.07327C13.9989 2.09215 13.7985 1.92774 13.8519 1.91604Z" fill="#555961"/>
<path d="M9.51106 8.59119C9.61561 8.57166 9.75258 8.59281 9.85676 8.62147C9.88939 8.63035 9.87337 8.66915 9.89583 8.67713C9.93992 8.69259 9.98116 8.67337 10.0247 8.69178C10.0389 8.69842 10.0214 8.76085 10.0365 8.766C10.1193 8.79372 10.1976 8.77803 10.2816 8.79139C10.6956 8.85743 11.1027 8.88086 11.5218 8.90955C11.66 8.91898 11.8283 8.97653 11.971 8.95155C11.987 8.94773 11.9778 8.89416 11.9808 8.88905C12.0305 8.8193 12.0138 8.93086 12.0462 8.94569C12.175 9.00415 12.3188 9.009 12.4427 8.98768C12.4947 8.97791 12.4425 8.86869 12.4954 8.93006C12.4991 8.93422 12.4859 8.99314 12.5003 8.9994C12.5331 9.01329 12.595 9.00263 12.6204 9.00721C12.6694 9.01647 12.6776 9.01631 12.724 9.01697C12.7873 9.0184 12.863 9.04785 12.931 9.03455C12.945 9.03094 12.9265 8.97149 12.9495 8.96131C12.9728 8.95121 13.0334 8.95598 13.054 8.9701C13.0747 8.98429 13.066 9.03152 13.0697 9.04237C13.0997 9.13375 13.1709 9.00741 13.18 9.00428C13.3463 8.95091 13.4888 9.02304 13.6448 9.02283C13.7624 9.02252 13.8883 8.99855 14.0003 9.00135C14.1872 8.98654 14.3163 9.1464 14.3314 9.33338V9.33631C14.3272 9.47057 14.2955 9.58477 14.3011 9.71522C14.3031 9.72809 14.3704 9.71297 14.3724 9.72889C14.3806 9.90748 14.3732 10.0852 14.3255 10.2631C14.3207 10.2808 14.2597 10.2588 14.2503 10.2758C14.1993 10.3849 14.0765 10.5576 14.347 10.6224C14.3364 10.6964 14.3253 10.7868 14.2708 10.8529C14.2357 10.8954 14.1677 10.8543 14.1966 10.9066C14.2035 10.9181 14.2626 10.9028 14.2679 10.9203C14.2896 10.9949 14.2705 11.077 14.3011 11.1508C14.3083 11.1651 14.3593 11.1614 14.3695 11.1654C14.4469 11.2012 14.3192 11.2608 14.3099 11.2738C14.2406 11.3725 14.2676 11.4446 14.2659 11.5365C14.2655 11.5578 14.3363 11.5331 14.3392 11.5531C14.3494 11.6595 14.3434 11.7702 14.3118 11.8744C14.3046 11.8976 14.2432 11.877 14.2366 11.8881C14.2094 11.9366 14.3238 11.9478 14.2991 11.9945C14.2941 12.0044 14.2414 11.9986 14.2357 12.0004C14.1466 12.0286 14.2739 12.0537 14.2767 12.0609C14.3144 12.1525 14.1818 12.2116 14.2005 12.3002C14.2036 12.3103 14.2691 12.2871 14.2718 12.3168C14.2899 12.5155 14.2717 12.7256 14.2191 12.9222C14.211 12.9526 14.1624 12.9315 14.1556 12.933C14.0606 12.9643 14.1872 12.9845 14.1927 12.9945C14.2273 13.0732 14.1202 13.1471 14.2718 13.2006C14.2295 13.468 14.2762 13.7348 14.2259 14.0004C14.2359 14.1276 14.1276 14.2156 14.0003 14.226C13.9349 14.2136 13.8693 14.1952 13.804 14.1683C13.7998 14.1668 13.8073 14.1045 13.7991 14.101C13.6982 14.0657 13.7175 14.1641 13.6507 14.2836C13.6338 14.3129 13.582 14.1691 13.5775 14.1586C13.561 14.1196 13.5781 14.0255 13.5726 14.018C13.5273 13.9608 13.5345 14.2688 13.473 14.2689C13.471 14.2684 13.4791 14.2113 13.474 14.2055C13.4579 14.1877 13.4418 14.2103 13.4261 14.1908C13.3901 14.1455 13.3775 13.9954 13.3226 14.0824C13.3156 14.0938 13.3259 14.2694 13.2708 14.2611C13.2488 14.2577 13.1516 14.2608 13.1243 14.2494C13.0972 14.238 13.1155 14.1815 13.1136 14.1791C13.0404 14.1044 13.0683 14.0729 13.0316 13.9623C12.9949 13.8527 13.0055 14.1156 12.9906 14.1449C12.9754 14.1737 12.9217 14.1116 12.9085 14.0902C12.8956 14.0687 12.9114 14.033 12.8997 14.0209C12.8221 13.9421 12.8658 14.152 12.8402 14.1937C12.7798 14.292 12.7323 14.0978 12.6771 14.0785C12.6623 14.0734 12.6741 14.1165 12.6615 14.1215C12.6086 14.1373 12.576 14.0764 12.5159 14.1322C12.5058 14.1422 12.4574 14.2579 12.4261 14.1722C12.4221 14.1593 12.4342 14.112 12.4124 14.101C12.3788 14.0846 12.3177 14.074 12.2816 14.0902C12.2553 14.1025 12.2852 14.1816 12.2523 14.1576C12.2373 14.1465 12.2647 14.0994 12.2366 14.0824C12.2088 14.0655 12.1381 14.0671 12.1107 14.0687C12.0842 14.0703 12.0974 14.1286 12.096 14.1351C12.0828 14.1586 12.0303 14.1879 12.0257 14.1879C11.794 14.1952 11.5804 14.0935 11.3548 14.1273C11.3371 14.1299 11.3487 14.1937 11.346 14.1947C11.2856 14.2213 11.3333 14.0518 11.2913 13.9945C11.2974 14.1237 11.2722 14.1008 11.2298 14.1146C11.2096 14.1215 11.2195 14.1706 11.2181 14.1771C11.1876 14.2535 11.166 14.1555 11.1605 14.1351C11.1403 14.0609 11.1186 14.1483 11.1048 14.099C11.0911 14.0497 11.1223 13.976 11.0814 13.9769C11.0699 14.0235 11.1008 14.1457 11.0697 14.1654C10.9523 14.2398 10.7334 14.1441 10.639 14.1342C10.5448 14.1243 10.5142 14.1334 10.4593 14.1166C10.3604 14.0863 10.3965 14.1758 10.3353 14.2172C10.2736 14.2584 10.3031 14.0364 10.2943 13.9887C10.2856 13.9418 10.2767 13.99 10.2659 13.9642C10.2551 13.938 10.2777 13.9057 10.2523 13.8959C10.2266 13.8868 10.1577 13.9712 10.1488 14.0209C10.1298 14.1263 10.1608 14.2369 10.0941 14.1986C10.0902 14.1963 10.102 14.1371 10.0872 14.1312C9.9699 14.0866 9.84796 14.0839 9.73079 14.0443C9.71644 14.0394 9.7233 13.9883 9.71907 13.974L9.71321 13.9681C9.62254 13.9335 9.65542 14.0405 9.60286 14.1596C9.61489 13.9979 9.58519 13.899 9.51106 13.8978C9.46645 13.8972 9.47341 13.9672 9.44465 14.017C9.436 14.032 9.40454 13.984 9.39876 14.017C9.37988 14.1256 9.40982 14.2469 9.33333 14.1986C9.22123 14.2076 9.14324 14.1124 9.13411 14.0004C9.13492 13.9992 9.14357 13.9997 9.15364 14.0004C9.16194 14.1018 9.23188 14.1882 9.33333 14.1801C9.33425 14.167 9.33534 14.1505 9.33333 14.141C9.25423 14.1473 9.19918 14.0794 9.1927 14.0004C9.19643 13.9995 9.19887 13.9976 9.19954 13.9955C9.22297 13.9205 9.10978 13.9116 9.09602 13.8305C9.08524 13.7669 9.15401 13.6539 9.16536 13.5814C9.34707 13.5829 9.30608 13.5145 9.18098 13.4867C9.18611 13.4397 9.1783 13.3886 9.19563 13.3431C9.20184 13.3279 9.25371 13.3381 9.26008 13.3363C9.34807 13.3065 9.23096 13.2861 9.22297 13.2758C9.17647 13.1658 9.2684 13.076 9.17805 12.9711C9.1748 12.9674 9.04868 12.961 9.14094 12.933C9.14752 12.9313 9.20487 12.9656 9.2093 12.9164C9.21388 12.867 9.28145 12.7739 9.22297 12.7055C9.20891 12.6889 9.10665 12.6473 9.18586 12.6137C9.19671 12.6092 9.23304 12.6132 9.25325 12.6068C9.31742 12.5859 9.19044 12.5747 9.29817 12.5502C9.40665 12.5256 9.48819 12.4748 9.4134 12.4056C9.41123 12.4034 9.31024 12.3864 9.31184 12.3646C9.31463 12.33 9.33594 12.2806 9.33528 12.2445C9.33414 12.2282 9.27565 12.2378 9.27083 12.2357C9.2356 12.1191 9.29143 12.0355 9.31575 11.9105C9.31907 11.8872 9.2348 11.8218 9.30208 11.7777C9.37624 11.729 9.68492 11.7792 9.61165 11.6674C9.58224 11.6222 9.19103 11.5649 9.39387 11.4838C9.34361 11.3264 9.44709 11.1806 9.37532 11.0228C9.36999 11.0155 9.26252 10.9934 9.26399 10.9769C9.26649 10.9524 9.31665 10.9388 9.32063 10.9213C9.33601 10.8472 9.29235 10.7788 9.29915 10.7074C9.30187 10.6805 9.3548 10.6899 9.35774 10.6576C9.36054 10.6253 9.29113 10.6037 9.32454 10.5599C9.35014 10.5269 9.49254 10.4935 9.50911 10.4496C9.36891 10.4479 9.37131 10.4182 9.3343 10.3646C9.327 10.3545 9.27932 10.3653 9.27278 10.3607C9.24767 10.3409 9.28817 10.3219 9.26106 10.3031C9.25452 10.2985 9.20702 10.298 9.19856 10.2943C9.12807 10.2625 9.23543 10.2106 9.25422 10.2015C9.32543 10.167 9.26331 10.1509 9.29133 10.1244C9.31929 10.098 9.35434 10.1372 9.37141 10.1068C9.40661 10.0428 9.39851 9.95996 9.40071 9.8949C9.40119 9.8694 9.3394 9.88624 9.33626 9.88319C9.32006 9.82957 9.38779 9.77527 9.26106 9.74549C9.58938 9.70834 9.22893 9.71267 9.29426 9.63612C9.2978 9.6321 9.368 9.62814 9.42122 9.63221C9.41761 9.60587 9.4162 9.57747 9.40754 9.55018C9.40231 9.53627 9.36865 9.53255 9.36262 9.48084C9.28447 9.54341 9.14786 9.55858 9.16926 9.46229C9.17463 9.43856 9.253 9.51299 9.27669 9.4828C9.31981 9.42755 9.15508 9.39074 9.24348 9.33436C9.25418 9.32864 9.31536 9.35298 9.36165 9.37342C9.36362 9.24242 9.37288 9.1043 9.36653 8.96912C9.36485 8.9328 9.3117 8.97147 9.34309 8.88416C9.34531 8.87828 9.38429 8.84857 9.39387 8.81873C9.40054 8.79811 9.38905 8.73381 9.40266 8.7074C9.41622 8.68181 9.43097 8.73439 9.45344 8.7035C9.47568 8.67194 9.46628 8.59989 9.51106 8.59119ZM13.9505 14.1137C13.985 13.9973 13.8508 13.9855 13.8802 14.1078C13.8838 14.114 13.9484 14.1194 13.9505 14.1137ZM10.8685 14.0013C10.8838 13.9304 10.8263 13.9246 10.8382 13.9984C10.8389 14.0014 10.8678 14.0043 10.8685 14.0013ZM12.6966 13.9564C12.6952 13.8958 12.666 13.9123 12.6751 13.9681C12.6757 13.9715 12.6968 13.9749 12.6966 13.9564ZM9.59993 9.83631C9.54771 9.8449 9.48158 9.84772 9.47493 9.84901C9.33707 9.87701 9.49434 9.93066 9.5052 9.94471C9.55487 10.009 9.52244 10.0638 9.55794 10.1176C9.58151 10.1525 9.73251 10.1564 9.72786 10.184C9.71181 10.2754 9.5009 10.3076 9.68489 10.3939C9.72457 10.4123 9.88982 10.394 9.75911 10.4603C9.74878 10.4653 9.63232 10.5141 9.70735 10.5424C9.71698 10.5459 9.76578 10.5464 9.76985 10.5512C9.79545 10.5825 9.75728 10.6038 9.77571 10.6381C9.79423 10.6725 9.82145 10.714 9.80501 10.7533C9.79481 10.777 9.70508 10.8074 9.68293 10.8187C9.61927 10.8507 9.72324 10.8848 9.6468 10.9047C9.56919 10.9247 9.45086 10.8863 9.40071 10.9388C9.5268 10.9408 9.65671 10.9445 9.78352 10.9476C9.77909 11.0626 9.73804 11.1761 9.74348 11.2914C9.7443 11.3057 9.81215 11.2917 9.81477 11.307C9.82544 11.3717 9.77699 11.4284 9.79622 11.4955C9.81141 11.5474 9.88359 11.6043 9.90168 11.6586C9.7574 11.6918 9.80647 11.7728 9.79329 11.8314C9.7886 11.8516 9.75046 11.8504 9.73762 11.8646C9.69113 11.9197 9.81814 11.8945 9.83821 11.9096C9.92374 11.9743 9.63577 11.9797 9.6429 12.056C9.64858 12.0616 9.79637 12.1098 9.80598 12.1166C9.86845 12.1599 9.7529 12.1237 9.74153 12.1508C9.72075 12.2002 9.68384 12.2344 9.72883 12.2924C9.74218 12.3093 9.83816 12.3503 9.76399 12.3832C9.75414 12.3874 9.70446 12.3848 9.70051 12.3881C9.6509 12.451 9.81037 12.4527 9.86458 12.4887C9.91857 12.5246 9.80871 12.5797 9.77668 12.5912C9.69603 12.6202 9.73962 12.5712 9.73372 12.5678C9.63768 12.5489 9.65394 12.5895 9.64583 12.6205C9.48917 12.625 9.49854 12.6674 9.63801 12.6517C9.65305 12.6499 9.63916 12.627 9.64583 12.6205C9.79946 12.6477 9.81873 12.6949 9.67512 12.7474C9.60789 12.7718 9.53025 12.749 9.55891 12.8236C9.57213 12.8573 9.67871 12.8447 9.70833 12.8744C9.77531 12.9427 9.6753 13.0315 9.69075 13.1019C9.6965 13.1275 9.75607 13.103 9.76204 13.1205C9.7779 13.1668 9.73365 13.2078 9.75618 13.2543C9.75831 13.2585 9.81984 13.2486 9.82063 13.2631C9.82615 13.3483 9.80711 13.4254 9.79622 13.5092C9.91581 13.4644 10.0353 13.4523 10.1566 13.4779C10.1588 13.4791 10.1556 13.5416 10.1605 13.5463C10.2353 13.5754 10.2834 13.4952 10.345 13.4476C10.4068 13.4001 10.456 13.4162 10.4925 13.5287C10.5391 13.5145 10.6064 13.564 10.6448 13.5941C10.683 13.624 10.6883 13.4991 10.6917 13.4945C10.7973 13.4138 10.8586 13.4871 10.9681 13.4984C11.0202 13.504 11.1237 13.485 11.18 13.4711C11.2243 13.4601 11.2514 13.4901 11.2923 13.4711C11.2976 13.4681 11.292 13.4145 11.2933 13.4096C11.3391 13.3416 11.318 13.4805 11.3275 13.5053C11.3616 13.595 11.3824 13.6429 11.4407 13.601C11.4543 13.5912 11.4942 13.391 11.5189 13.3793C11.5507 13.3648 11.5391 13.4366 11.5726 13.4193C11.5754 13.4175 11.5747 13.3738 11.595 13.3754C11.6912 13.3838 11.7968 13.4091 11.8968 13.4047C11.9095 13.4025 11.8929 13.3342 11.9124 13.3324C12.005 13.3241 12.1065 13.327 12.1966 13.3597C12.2187 13.3681 12.2045 13.4175 12.2093 13.432C12.2389 13.5199 12.2815 13.3915 12.2884 13.389C12.4534 13.3278 12.5802 13.4432 12.7484 13.3881C12.7595 13.3803 12.8278 13.2503 12.8587 13.3656C12.8609 13.3734 12.8927 13.4939 12.9202 13.4115C12.9214 13.4049 12.9027 13.345 12.9359 13.351C12.9697 13.3573 13.0241 13.316 13.0706 13.3842C13.0854 13.4058 13.1205 13.5253 13.1644 13.4301C13.1672 13.4234 13.2349 13.2064 13.2591 13.3558C13.263 13.3805 13.2594 13.5385 13.3118 13.4574C13.3202 13.4438 13.3086 13.4164 13.3216 13.3949C13.3167 13.241 13.2746 12.9834 13.3763 12.8529C13.4591 12.7466 13.5222 12.8802 13.556 12.7992C13.5719 12.7604 13.4177 12.7185 13.4095 12.7084C13.3589 12.6159 13.429 12.5513 13.4075 12.4681C13.4031 12.451 13.3388 12.4678 13.3353 12.4535C13.3242 12.4036 13.3532 12.3508 13.348 12.3031C13.3455 12.2817 13.2964 12.2857 13.3001 12.266C13.3086 12.2189 13.3294 12.1772 13.3753 12.1312C13.3806 12.1278 13.4403 12.1548 13.4427 12.1205C13.4462 12.0641 13.4911 11.994 13.4447 11.9291C13.4306 11.9098 13.3185 11.909 13.3958 11.8676C13.412 11.8589 13.5461 11.8699 13.43 11.8217C13.4104 11.8134 13.2547 11.7325 13.3548 11.6928C13.3813 11.6823 13.4911 11.6553 13.4749 11.6322C13.4722 11.6291 13.4115 11.6416 13.4056 11.6224C13.386 11.5548 13.3922 11.4839 13.3734 11.4144C13.3682 11.3959 13.306 11.4233 13.3001 11.3959C13.2844 11.3198 13.3012 11.2242 13.3206 11.1498C13.3283 11.123 13.3795 11.142 13.3851 11.14C13.4758 11.108 13.3532 11.0882 13.346 11.0775C13.3031 11.0113 13.3603 10.9609 13.345 10.8998C13.3403 10.8834 13.2819 10.8953 13.2767 10.892C13.226 10.8574 13.3315 10.8827 13.3431 10.8607C13.3758 10.7992 13.3711 10.7306 13.3636 10.6683C13.3608 10.6456 13.2942 10.6704 13.2913 10.6508C13.2796 10.5291 13.2861 10.4023 13.3236 10.2836C13.3308 10.2612 13.3829 10.2746 13.3948 10.2699C13.4782 10.2379 13.3655 10.1911 13.3538 10.1801C13.3041 10.1308 13.3498 10.1113 13.3411 10.0678C13.3361 10.0428 13.3345 10.0168 13.3314 9.99061C13.3305 9.99268 13.3331 9.9953 13.3314 9.99549C13.1551 10.0122 12.9816 9.98515 12.805 10.0053C12.7906 10.0068 12.811 10.0721 12.7884 10.0775C12.7407 10.0876 12.6795 10.084 12.6312 10.0629C12.6085 10.0521 12.6391 9.9967 12.6156 9.98768C12.5604 9.96646 12.5013 9.96146 12.4447 9.97205C12.421 9.97698 12.4568 10.044 12.4261 10.0453C12.2125 10.052 12.0023 10.0635 11.7865 9.97596C11.7717 9.96994 11.7583 9.83242 11.7269 9.85877C11.7245 9.8969 11.725 9.94205 11.724 9.9828C11.413 10.0047 11.1051 9.95696 10.7933 9.94959C10.7805 9.94987 10.8028 10.0219 10.7777 10.0219C10.6303 10.0208 10.4869 10.0405 10.3363 9.96815C10.3218 9.95928 10.329 9.83413 10.2855 9.85291C10.2777 9.85644 10.211 9.87306 10.1937 9.90076C10.1913 9.90496 10.2033 9.96543 10.182 9.96717C10.0579 9.97619 9.92785 9.96257 9.80403 9.92615C9.78401 9.92014 9.80462 9.85579 9.79036 9.85096C9.72848 9.83043 9.66333 9.83865 9.59993 9.83631ZM13.8245 13.4974C13.8264 13.5004 13.8269 13.5042 13.8294 13.5062C13.8573 13.529 13.9126 13.5507 13.9417 13.5121C13.9626 13.4842 13.9528 13.4066 13.9613 13.3607L13.8245 13.4974ZM9.56868 11.1762C9.47017 11.2227 9.61537 11.2539 9.69172 11.2211C9.7678 11.1883 9.59866 11.162 9.56868 11.1762ZM9.41829 10.2142C9.37526 10.2312 9.42435 10.2793 9.47786 10.2582C9.5208 10.2412 9.47171 10.1933 9.41829 10.2142ZM9.53743 9.51697C9.52215 9.58811 9.57985 9.59378 9.5677 9.5199C9.56721 9.51693 9.53812 9.51402 9.53743 9.51697Z" fill="#555961"/>
</svg>
