<svg width="16" height="16" viewBox="0 0 16 16" fill="none" xmlns="http://www.w3.org/2000/svg">
<path d="M10.8363 1.41341C10.8888 1.34807 10.8579 1.48583 10.8665 1.51107C10.8976 1.60271 10.9151 1.65157 10.9779 1.61458C10.9919 1.60597 11.0519 1.41038 11.0804 1.40169C11.1165 1.39078 11.0957 1.46034 11.1331 1.44759C11.1364 1.44656 11.1413 1.4028 11.1634 1.40755C11.1881 1.41276 11.2133 1.41896 11.2386 1.4261C11.3179 1.44848 11.3985 1.47694 11.4788 1.49056C11.4934 1.49321 11.4896 1.42038 11.5111 1.42317C11.6119 1.43638 11.7204 1.46701 11.805 1.52669C11.8257 1.54154 11.7967 1.58431 11.7972 1.59993C11.8013 1.69326 11.8826 1.58508 11.891 1.58528C12.0819 1.58392 12.1671 1.74172 12.3529 1.7679C12.3654 1.76641 12.4933 1.68165 12.471 1.8011C12.4695 1.81089 12.4438 1.93001 12.5072 1.87239C12.5113 1.86876 12.5225 1.80347 12.5521 1.82649C12.5814 1.84916 12.6542 1.84278 12.6634 1.92708C12.6668 1.95394 12.6361 2.07576 12.7259 2.01888C12.7311 2.01406 12.9108 1.87145 12.8519 2.01107C12.842 2.0341 12.751 2.16366 12.8421 2.12728C12.8598 2.12025 12.8638 2.07956 12.8997 2.07747C12.9551 2.07477 12.9775 2.14242 13.0628 2.11849C13.0776 2.11391 13.1765 2.05415 13.1527 2.13899C13.1483 2.15245 13.1088 2.18743 13.1185 2.20247C13.1644 2.27441 13.2523 2.30215 13.2894 2.38411C13.3016 2.41303 13.2343 2.46682 13.2406 2.50325C13.2471 2.53984 13.2739 2.59474 13.3226 2.58821C13.3719 2.5817 13.4429 2.46082 13.4847 2.48665C13.4899 2.48992 13.4953 2.49298 13.5003 2.49642C13.672 2.61331 13.7476 2.81734 13.8558 2.98372C13.8724 3.00932 13.8969 2.96086 13.9242 2.99642C14.0261 3.12783 14.218 3.35925 14.1898 3.53646C14.1668 3.67557 14.0473 3.57712 14.055 3.66829C14.0584 3.71095 14.2195 3.68421 14.2288 3.69173C14.3166 3.76177 14.2784 3.85401 14.3304 3.92903C14.3412 3.94471 14.395 3.90459 14.4036 3.91829C14.4335 3.9657 14.4253 4.02983 14.4466 4.07747C14.4563 4.0987 14.5018 4.07947 14.5052 4.10091C14.513 4.15303 14.5065 4.20364 14.4759 4.26399C14.4731 4.26938 14.4067 4.25694 14.4144 4.29329C14.4273 4.35254 14.4012 4.43454 14.4613 4.49153C14.4793 4.50835 14.5894 4.48653 14.5228 4.54622C14.5088 4.55879 14.375 4.57285 14.4984 4.60091C14.5189 4.60466 14.6893 4.6665 14.596 4.72591C14.5835 4.73373 14.5505 4.74915 14.5238 4.76497C14.4977 4.78047 14.4776 4.7962 14.4876 4.80696C14.4908 4.80992 14.548 4.78863 14.557 4.80794C14.5862 4.87766 14.5881 4.95506 14.6126 5.02864C14.6197 5.04792 14.679 5.0134 14.6868 5.04329C14.7088 5.12613 14.6973 5.23302 14.6781 5.31478C14.6707 5.34401 14.6205 5.324 14.6136 5.32552C14.5236 5.35945 14.6418 5.38075 14.6517 5.3929C14.6934 5.46641 14.6339 5.52029 14.6449 5.58724C14.6477 5.60589 14.7073 5.59689 14.7122 5.60091C14.7606 5.64302 14.6573 5.60711 14.6439 5.63021C14.6061 5.69486 14.6031 5.76893 14.6019 5.83724C14.6015 5.86238 14.6734 5.84378 14.6722 5.86653C14.6662 6.00149 14.6333 6.13988 14.5667 6.25814C14.554 6.28037 14.5063 6.25305 14.4935 6.25521C14.4045 6.26884 14.5028 6.34595 14.5101 6.36067C14.5437 6.42546 14.4928 6.43399 14.4876 6.48177C14.4631 6.71812 14.3236 6.97825 14.2054 7.16243C14.1937 7.18097 14.1821 7.19951 14.1702 7.21712C14.0258 7.42943 13.8782 7.57659 13.7347 7.77767C13.7248 7.7915 13.7897 7.8217 13.7816 7.83431C13.6733 7.99591 13.5233 8.11664 13.3958 8.26302C13.3852 8.27503 13.4478 8.30835 13.432 8.32942C13.3997 8.37302 13.346 8.41536 13.2913 8.43392C13.2649 8.44286 13.2545 8.37725 13.2288 8.38704C13.1692 8.40955 13.1161 8.44579 13.0736 8.49153C13.0564 8.51108 13.1276 8.54041 13.1019 8.56185C12.9179 8.70919 12.7203 8.847 12.4701 8.8763C12.4525 8.87759 12.3787 8.76166 12.3607 8.79915C12.3752 8.83451 12.3956 8.87531 12.4124 8.91243C12.3943 8.92279 12.3753 8.93307 12.3568 8.94271C12.073 9.0899 11.7569 9.14889 11.4466 9.20442C11.4325 9.20695 11.4712 9.27434 11.4437 9.27962C11.2851 9.30982 11.1279 9.35123 10.9583 9.29134C10.9417 9.2849 10.9406 9.15712 10.8958 9.17903C10.8879 9.18321 10.8186 9.20449 10.8011 9.23274C10.7996 9.23944 10.8134 9.29514 10.7913 9.29817C10.6568 9.31165 10.5135 9.29539 10.3831 9.24935C10.3621 9.24178 10.3891 9.18009 10.3743 9.17415C10.2714 9.13266 10.1502 9.16647 10.0589 9.0931C9.99885 9.04369 10.0418 8.93904 10.0277 8.82649C10.0254 8.81078 9.98814 8.80061 9.99837 8.7386C10.0243 8.58229 10.0746 8.4154 10.0999 8.24837C10.1055 8.21252 10.0552 8.24193 10.097 8.16146C10.0999 8.15608 10.1361 8.13285 10.1488 8.10482C10.1575 8.08546 10.1604 8.02054 10.1751 7.99642C10.1896 7.97273 10.1914 8.02704 10.2132 7.99935C10.2347 7.97092 10.24 7.89845 10.2728 7.89485C10.3488 7.88719 10.4418 7.9179 10.515 7.95052C10.5373 7.96079 10.524 7.99903 10.5394 8.00814C10.5711 8.02508 10.6023 8.00693 10.6341 8.02571C10.6444 8.03274 10.6307 8.09452 10.6419 8.09993C10.7049 8.12824 10.7648 8.11084 10.8294 8.12044C11.1503 8.1675 11.4762 8.1179 11.7943 8.01497C11.8289 8.00373 11.8683 7.99574 11.9085 7.98665C11.9899 7.96839 12.0773 7.94507 12.1361 7.89192C12.145 7.8822 12.113 7.84082 12.1117 7.83431C12.1103 7.75479 12.1547 7.85549 12.1849 7.85579C12.3043 7.85236 12.4074 7.78873 12.4749 7.71028C12.5035 7.67669 12.4026 7.61657 12.474 7.63899C12.4789 7.6404 12.5066 7.69286 12.5199 7.69075C12.5499 7.68519 12.583 7.64411 12.6019 7.63411C12.6386 7.61511 12.6433 7.61003 12.6722 7.58528C12.712 7.5518 12.7781 7.53008 12.8089 7.48079C12.8153 7.47016 12.7619 7.43787 12.7679 7.41732C12.7744 7.3969 12.8117 7.36548 12.8333 7.36263C12.855 7.36003 12.8847 7.39713 12.8949 7.40267C12.9796 7.44609 12.9261 7.31613 12.9281 7.30892C12.9766 7.172 13.1033 7.12447 13.1761 7.01595C13.2302 6.93478 13.2631 6.83382 13.3089 6.75423L13.3099 6.75228C13.3653 6.6573 13.4347 6.58523 13.471 6.48274C13.4749 6.47198 13.4051 6.45665 13.4095 6.44368C13.4562 6.30616 13.5073 6.17416 13.5882 6.04329C13.5967 6.03047 13.6516 6.06266 13.6634 6.05013C13.735 5.97523 13.8833 5.84046 13.6224 5.74935C13.6414 5.69092 13.6599 5.61973 13.7181 5.56868C13.7557 5.53546 13.8211 5.57449 13.7952 5.52767C13.7888 5.51757 13.7297 5.52681 13.7249 5.51204C13.707 5.44858 13.7286 5.38021 13.6976 5.31868C13.6912 5.30628 13.6381 5.31029 13.6283 5.30696C13.5513 5.27959 13.6754 5.22941 13.6859 5.21712C13.7518 5.132 13.7199 5.07097 13.7132 4.99446C13.7112 4.9772 13.644 5.00526 13.639 4.98958C13.6319 4.95951 13.6261 4.92865 13.6224 4.89778C13.6156 4.84071 13.6156 4.78203 13.6243 4.72298C13.6283 4.70323 13.6898 4.70784 13.6947 4.69759C13.7135 4.65073 13.5994 4.6667 13.6146 4.62337C13.6182 4.61427 13.67 4.60663 13.6751 4.60384C13.7559 4.55915 13.6275 4.56961 13.6234 4.56478C13.5671 4.50126 13.68 4.4166 13.638 4.34896C13.6327 4.34135 13.5772 4.38062 13.5667 4.35774C13.4965 4.20546 13.4452 4.03942 13.4124 3.86653C13.4077 3.83997 13.4596 3.83271 13.4642 3.82845C13.5335 3.75988 13.4153 3.80424 13.4056 3.80013C13.3431 3.75911 13.4003 3.64797 13.2474 3.69075C13.1612 3.47677 12.9844 3.32953 12.8617 3.13607C12.8311 3.08804 12.8028 3.03652 12.7786 2.97884C12.777 2.97522 12.8233 2.93222 12.8197 2.92513C12.776 2.83994 12.7239 2.92392 12.6048 2.97982C12.5754 2.99429 12.632 2.85535 12.6351 2.84407C12.6477 2.80502 12.7157 2.7419 12.7181 2.73177C12.7216 2.65928 12.5373 2.90691 12.4964 2.8763C12.4975 2.8729 12.5356 2.83348 12.5355 2.82649C12.5349 2.8041 12.5105 2.8141 12.5111 2.79036C12.5129 2.73575 12.5887 2.60577 12.4984 2.64974C12.4854 2.65867 12.3961 2.80413 12.3626 2.77278C12.3493 2.75943 12.2779 2.718 12.264 2.69661C12.2508 2.67536 12.2918 2.63638 12.2933 2.63216C12.2768 2.53545 12.3129 2.52078 12.3392 2.40853C12.3639 2.29575 12.2428 2.52891 12.2171 2.54817C12.1917 2.56721 12.1797 2.49062 12.179 2.46614C12.1789 2.44194 12.2087 2.41731 12.2054 2.40169C12.1788 2.29858 12.1182 2.50356 12.0794 2.5306C11.9897 2.59597 12.0386 2.40283 12.0003 2.36458C11.9903 2.35447 11.9815 2.39975 11.9691 2.39876C11.9208 2.39445 11.9179 2.32772 11.848 2.3597C11.8356 2.36538 11.7553 2.45798 11.7601 2.36849C11.7612 2.35517 11.7882 2.31426 11.7738 2.2972C11.7515 2.27157 11.703 2.24375 11.6673 2.24935C11.6414 2.2541 11.6426 2.33747 11.6224 2.30501C11.6135 2.29047 11.6504 2.25341 11.6322 2.22982C11.6136 2.20619 11.5518 2.18966 11.5277 2.18489C11.5038 2.18012 11.5004 2.24299 11.4974 2.24642C11.4798 2.26582 11.4289 2.2825 11.4251 2.28157C11.3214 2.25974 11.227 2.21396 11.1283 2.17806C11.0417 2.14655 10.9514 2.12293 10.8577 2.13314C10.8427 2.13584 10.8492 2.19846 10.847 2.20052C10.7934 2.22451 10.8437 2.05611 10.8079 1.99739C10.8078 2.12748 10.7865 2.10329 10.7484 2.11653C10.7302 2.12324 10.7384 2.17394 10.7367 2.17903C10.7091 2.25378 10.6927 2.15528 10.6878 2.13509C10.6704 2.06112 10.6513 2.14844 10.639 2.09896C10.6263 2.04987 10.6539 1.97669 10.6165 1.97786C10.607 2.02453 10.6355 2.14621 10.6087 2.16634C10.5099 2.24107 10.3171 2.16147 10.2318 2.16439C10.1487 2.16607 10.1239 2.17899 10.0736 2.17122C9.98183 2.15806 10.0302 2.24094 9.98763 2.29232C9.94579 2.34323 9.92007 2.12214 9.90169 2.07747C9.88311 2.03326 9.88597 2.08212 9.87044 2.05989C9.85448 2.03681 9.86766 1.99932 9.84212 1.99544C9.81607 1.9922 9.77468 2.09084 9.7806 2.14095C9.79253 2.24739 9.84866 2.34701 9.78255 2.32552C9.77868 2.32329 9.77303 2.26526 9.75911 2.26302C9.64699 2.24921 9.54258 2.28172 9.43001 2.2845C9.41465 2.28348 9.40228 2.22047 9.3929 2.22005C9.29379 2.21651 9.3652 2.30502 9.37142 2.43489C9.31562 2.28284 9.25002 2.20242 9.18587 2.23177C9.14794 2.24951 9.18526 2.31038 9.18392 2.36653C9.18368 2.38337 9.13644 2.35331 9.14681 2.38509C9.18163 2.48942 9.26038 2.58546 9.18001 2.57357L9.17122 2.55696C9.16572 2.54503 9.15875 2.52929 9.15267 2.52181C9.15029 2.51892 9.14777 2.51767 9.14583 2.5179C9.07654 2.52893 9.12496 2.63127 9.07357 2.67806C9.03323 2.71445 8.9142 2.70835 8.85579 2.73567C8.75342 2.58516 8.72539 2.65649 8.7806 2.77181C8.74447 2.79198 8.71305 2.82407 8.67122 2.83528C8.65675 2.83815 8.63115 2.79272 8.6263 2.78939C8.55023 2.73774 8.61031 2.83997 8.60872 2.85189C8.56506 2.94858 8.44325 2.93447 8.43978 3.0638C8.43963 3.06853 8.52475 3.16207 8.44271 3.1136C8.43688 3.1097 8.4177 3.04808 8.38411 3.07552C8.35072 3.10253 8.24382 3.11769 8.2474 3.20247C8.2485 3.22378 8.30153 3.31658 8.22201 3.28743C8.21102 3.28316 8.18633 3.25685 8.16732 3.24837C8.10578 3.22184 8.19799 3.31045 8.09993 3.25911C8.00201 3.20775 7.90613 3.19716 7.92708 3.29427C7.92888 3.29857 7.99981 3.36915 7.98763 3.38411C7.96699 3.40789 7.9237 3.43245 7.9056 3.46028C7.89715 3.47337 7.95302 3.49958 7.95443 3.50325C7.92582 3.60924 7.83987 3.64194 7.76302 3.72982C7.7487 3.74643 7.79619 3.83743 7.7181 3.84212C7.63187 3.84845 7.37659 3.66983 7.39486 3.80208C7.40478 3.85896 7.73693 4.06023 7.52376 4.05013C7.51595 4.20209 7.37397 4.29835 7.40462 4.46028C7.40593 4.46755 7.50445 4.51431 7.5013 4.52864C7.49353 4.54943 7.44095 4.54983 7.43392 4.56478C7.40346 4.62711 7.4332 4.69621 7.41536 4.75814C7.40874 4.78178 7.35893 4.76477 7.35091 4.79329C7.34328 4.82242 7.40893 4.85238 7.37044 4.88704C7.34113 4.91305 7.19635 4.92651 7.17513 4.96712C7.31405 4.98344 7.30839 5.01094 7.34115 5.06282C7.34755 5.07277 7.39713 5.06675 7.40267 5.07161C7.42607 5.09112 7.38485 5.1048 7.41048 5.12337C7.41678 5.12788 7.46512 5.13131 7.47298 5.13509C7.54102 5.16675 7.4314 5.20729 7.41243 5.21517C7.34116 5.24347 7.40162 5.25963 7.37435 5.28255C7.34598 5.30616 7.31066 5.26997 7.29329 5.29817C7.25752 5.357 7.26708 5.43409 7.2679 5.49446C7.26848 5.51769 7.32637 5.50067 7.33236 5.50228C7.35091 5.54978 7.28772 5.60572 7.41634 5.62142C7.09244 5.68522 7.45065 5.64846 7.3929 5.72298C7.38382 5.72937 7.23445 5.75462 7.20931 5.73567C7.18407 5.71614 7.22871 5.67787 7.19076 5.65071C7.18174 5.64468 7.03299 5.61348 7.02376 5.60774C6.95204 5.56573 7.18085 5.54441 7.19564 5.54134C7.33107 5.50735 7.17382 5.46661 7.16146 5.45247C7.10971 5.39202 7.14243 5.33789 7.10775 5.28548C7.08533 5.25108 6.93233 5.24337 6.93783 5.21517C6.95718 5.12042 7.17065 5.10621 6.99447 5.00521C6.9568 4.98332 6.78987 4.9852 6.92708 4.93001C6.93727 4.92569 7.05946 4.89056 6.98861 4.85286C6.97919 4.84803 6.93144 4.8416 6.92806 4.83626C6.90669 4.80041 6.94767 4.78425 6.9349 4.74642C6.92212 4.70845 6.90229 4.66069 6.92611 4.62337C6.94041 4.60067 7.0359 4.58787 7.0599 4.58138C7.12793 4.56315 7.03413 4.50646 7.11361 4.50423C7.19344 4.503 7.29939 4.56615 7.3597 4.5306C7.2377 4.4991 7.11281 4.46343 6.99056 4.43001C7.02351 4.31491 7.09567 4.21498 7.12923 4.10189C7.1333 4.0878 7.0657 4.07959 7.06771 4.0638C7.08028 3.99605 7.14601 3.9576 7.15462 3.88607C7.16083 3.83063 7.1201 3.74729 7.12826 3.68685C7.13878 3.68891 7.14857 3.68992 7.15755 3.69075C7.27247 3.70169 7.26856 3.61633 7.30599 3.57161C7.32005 3.55514 7.35335 3.57395 7.37142 3.56673C7.43854 3.53947 7.31501 3.50137 7.30501 3.47786C7.26446 3.37645 7.5161 3.51377 7.54915 3.44661C7.55067 3.4434 7.44737 3.32024 7.44271 3.30794C7.41415 3.23638 7.4913 3.32989 7.51595 3.31282C7.56093 3.28131 7.60986 3.27343 7.60677 3.19954C7.60543 3.17807 7.553 3.08753 7.63314 3.10384C7.64408 3.10681 7.68121 3.13684 7.68685 3.13704C7.76441 3.11581 7.63885 3.01801 7.61947 2.95442C7.60064 2.89077 7.72301 2.91333 7.75521 2.92513C7.837 2.95394 7.76919 2.96549 7.77279 2.972C7.83522 3.04743 7.84818 3.00508 7.87435 2.98665C7.99716 3.08391 8.01644 3.04736 7.90072 2.9681C7.88803 2.95972 7.88377 2.98651 7.87435 2.98665C7.77419 2.86743 7.79363 2.81476 7.93587 2.87142C8.00244 2.89836 8.04499 2.96762 8.07357 2.89485C8.08617 2.86192 8.00001 2.79739 7.99935 2.75521C8.00011 2.65786 8.13556 2.66536 8.17708 2.60677C8.19241 2.58506 8.13457 2.55782 8.14388 2.54134C8.16902 2.49769 8.22939 2.50322 8.2513 2.4554C8.2533 2.45095 8.20505 2.4101 8.21615 2.39974C8.30037 2.32035 8.40434 2.29095 8.50228 2.22396C8.54929 2.19141 8.6171 2.10697 8.6722 2.08138C8.73336 2.05255 8.82026 2.04885 8.89095 2.03548C8.93 2.028 8.96443 2.01718 8.98861 1.99642C9.03316 1.95862 8.99511 1.90856 8.99935 1.8597C9.00857 1.76459 9.14747 1.86207 9.16634 1.87923C9.16685 1.87975 9.12847 1.91245 9.16439 1.93099C9.20456 1.98533 9.1661 1.88037 9.16634 1.87923C9.17898 1.88935 9.27446 1.86478 9.28841 1.847C9.29587 1.83712 9.26938 1.78474 9.27376 1.7806C9.37863 1.68335 9.50506 1.62536 9.64388 1.61556C9.64648 1.61606 9.66037 1.67935 9.66634 1.68099C9.74852 1.68889 9.77706 1.5992 9.83138 1.53841C9.88541 1.47789 9.94229 1.48336 9.99935 1.58724C10.0449 1.56479 10.1216 1.60348 10.1644 1.62825C10.2071 1.65299 10.1972 1.52576 10.2005 1.52278C10.302 1.42982 10.3753 1.49646 10.4896 1.50228C10.5443 1.50503 10.6522 1.48484 10.7122 1.472C10.7596 1.46144 10.7874 1.49202 10.8314 1.47493C10.8374 1.47264 10.8344 1.41551 10.8363 1.41341ZM10.1566 8.8138C10.1316 8.88194 10.1867 8.8956 10.1849 8.82064C10.1848 8.81764 10.1577 8.811 10.1566 8.8138ZM7.30794 5.9554C7.29935 5.83993 7.55137 5.7415 7.53939 5.85774C7.53711 5.87892 7.44907 5.82672 7.43001 5.85677C7.3957 5.91367 7.56342 5.91525 7.48665 5.98079C7.47268 5.99356 7.30814 5.96292 7.30697 5.9554H7.30794ZM7.19173 5.15169C7.14789 5.1658 7.19521 5.21531 7.24935 5.19759C7.29278 5.18366 7.24605 5.13512 7.19173 5.15169ZM7.1556 4.18685C7.07301 4.19553 7.2263 4.27155 7.25911 4.26692C7.36674 4.25407 7.23846 4.17969 7.1556 4.18685ZM12.9095 3.02571C13.0136 2.96409 12.9336 2.87088 12.8695 2.97884C12.868 2.98574 12.904 3.02788 12.9095 3.02571ZM12.0667 2.26107C12.0908 2.20529 12.0584 2.20942 12.0433 2.26399C12.0424 2.26725 12.0592 2.2784 12.0667 2.26107ZM10.4222 2.01107C10.4314 1.93894 10.3776 1.9371 10.3949 2.01009C10.3974 2.01262 10.4204 2.0136 10.4222 2.01107Z" fill="#555961"/>
<path d="M6.8603 5.52994C7.16496 5.22433 7.61942 5.17062 7.90425 5.49478C8.05862 5.6433 8.20511 5.79737 8.30854 6.00162C8.31722 6.01876 8.23184 6.1271 8.27729 6.13638C8.30633 6.11147 8.33839 6.07936 8.36811 6.05142C8.65557 6.30761 8.89067 6.61064 9.15815 6.88833C9.16944 6.90003 9.20146 6.82884 9.22358 6.85122C9.35159 6.98062 9.49065 7.09133 9.57124 7.27408C9.5793 7.29211 9.48258 7.37605 9.53413 7.40103C9.5434 7.40531 9.61364 7.45038 9.64839 7.44595C9.65337 7.44502 9.68508 7.39297 9.70503 7.40982C9.82013 7.51199 9.92509 7.63592 10.0078 7.77017C10.0199 7.79171 9.95766 7.81784 9.96577 7.83365C10.0303 7.94596 10.1614 8.00808 10.205 8.13345C10.234 8.21748 10.1353 8.27484 10.0888 8.3815C10.0825 8.39665 10.1148 8.43289 10.0722 8.47915C10.0389 8.5154 10.0006 8.54857 9.96284 8.58365C9.97895 8.6345 9.99529 8.70628 9.99214 8.71451C9.94208 8.75166 9.871 8.7479 9.81538 8.72622C9.78038 8.75957 9.74481 8.79281 9.71284 8.82876C9.7113 8.83053 9.71167 8.83292 9.71089 8.83462C9.74479 8.86611 9.80965 8.93584 9.80464 8.96353C9.79794 8.99943 9.73399 8.99166 9.72749 9.04458C9.72592 9.05696 9.77988 9.19959 9.7812 9.21353C9.78325 9.3035 9.62394 9.13422 9.61323 9.12662C9.49644 9.04572 9.54982 9.20759 9.54389 9.2272C9.51676 9.31666 9.44454 9.33652 9.41792 9.40689C9.40031 9.45279 9.49747 9.57053 9.4687 9.58951C9.37308 9.65219 9.20423 9.51926 9.24507 9.72818C9.2544 9.77309 9.37933 9.88249 9.23237 9.83853C9.22305 9.83572 9.0977 9.78567 9.12104 9.86587C9.124 9.87598 9.15596 9.91267 9.15425 9.91958C9.14204 9.96479 9.09694 9.95293 9.0771 9.99478C9.05728 10.0366 9.03732 10.0912 8.99018 10.111C8.96173 10.1229 8.87405 10.0796 8.84858 10.0719C8.77675 10.05 8.81343 10.1568 8.74409 10.1149C8.67434 10.0728 8.63263 9.95264 8.55073 9.95767C8.63196 10.0541 8.7133 10.1556 8.7939 10.2536C8.68392 10.3438 8.5519 10.4054 8.44819 10.5036C8.43545 10.5159 8.49297 10.5545 8.48042 10.569C8.42725 10.6297 8.34269 10.6395 8.29292 10.7086C8.25469 10.7623 8.24934 10.8627 8.21089 10.9206C8.08501 10.839 8.04164 10.9413 7.97847 10.9792C7.95637 10.9924 7.93197 10.9631 7.91011 10.9655C7.82917 10.9756 7.93633 11.0504 7.9355 11.0778C7.93111 11.1938 7.73729 10.9826 7.67085 11.0495C7.6673 11.0529 7.72072 11.2063 7.72163 11.2213C7.7225 11.3036 7.6801 11.1873 7.64741 11.2008C7.58775 11.2254 7.53207 11.2262 7.50776 11.3073C7.50109 11.3317 7.52533 11.4358 7.44624 11.4069C7.4358 11.403 7.40456 11.3624 7.39936 11.3629C7.30808 11.3769 7.41186 11.499 7.41401 11.569C7.41603 11.6386 7.29273 11.6014 7.26069 11.5866C7.179 11.5488 7.25866 11.5412 7.25483 11.5338C7.20914 11.4464 7.18157 11.4923 7.14741 11.5114C7.0401 11.3972 7.00585 11.4397 7.11225 11.5319C7.12384 11.5418 7.13696 11.5116 7.14741 11.5114C7.22328 11.6491 7.19224 11.7026 7.04878 11.6374C6.98154 11.6067 6.95101 11.5285 6.90034 11.611C6.87757 11.6484 6.96038 11.7188 6.9521 11.7653C6.93262 11.8715 6.78366 11.8688 6.72847 11.9381C6.70958 11.963 6.77027 11.9869 6.75874 12.0055C6.72609 12.0554 6.65828 12.0559 6.62983 12.111C6.62924 12.1171 6.67772 12.1545 6.66499 12.1667C6.56748 12.2614 6.45212 12.3094 6.34468 12.402C6.29278 12.4468 6.2229 12.5528 6.16499 12.5944C6.06481 12.6668 5.89193 12.6992 5.8271 12.7848C5.78468 12.8405 5.83613 12.8773 5.84175 12.9284C5.85274 13.0271 5.68128 12.9834 5.6562 12.9752C5.65543 12.9749 5.69004 12.9247 5.64546 12.9215C5.58861 12.8843 5.65651 12.9746 5.6562 12.9752C5.63977 12.9702 5.54201 13.0369 5.53218 13.0612C5.52693 13.0744 5.5704 13.1134 5.56733 13.1198C5.4832 13.2631 5.37367 13.3788 5.2353 13.4635C5.23072 13.462 5.19259 13.4119 5.18647 13.4147C5.09773 13.4538 5.10613 13.5533 5.08003 13.6393C5.0539 13.7254 4.99767 13.7528 4.8896 13.6979C4.8556 13.7465 4.7607 13.7635 4.70503 13.7721C4.64937 13.7807 4.728 13.8817 4.72651 13.8864C4.70548 13.9546 4.67122 13.9899 4.62983 14.0163L4.6562 13.9918C4.5947 14.041 4.52201 14.0753 4.4394 14.1305C4.36671 14.181 4.22736 14.289 4.14448 14.3424C4.07953 14.3859 4.0252 14.3764 3.96577 14.4186C3.95884 14.4255 3.98633 14.4742 3.98432 14.4772C3.92878 14.5684 3.92149 14.4232 3.89839 14.4049C3.81502 14.3368 3.77377 14.3004 3.69136 14.362C3.67402 14.3784 3.64334 14.5846 3.59858 14.6022C3.54303 14.6239 3.55625 14.551 3.49897 14.5739C3.49435 14.5768 3.49816 14.6201 3.46089 14.6208C3.41839 14.6215 3.37475 14.6193 3.331 14.6159C3.19478 14.6053 3.05705 14.5768 2.92475 14.5514C2.90066 14.5465 2.91584 14.6222 2.87983 14.6159C2.77474 14.5969 2.66528 14.563 2.56636 14.5133C2.50635 14.4833 2.45036 14.4471 2.40132 14.4069C2.36957 14.3803 2.41463 14.3486 2.41401 14.3317C2.41207 14.2313 2.28553 14.3024 2.27241 14.2965C2.13236 14.2414 2.03688 14.1445 1.95503 14.0426C1.87047 13.9369 1.79849 13.8263 1.69233 13.7126C1.67792 13.7027 1.49458 13.6545 1.57319 13.5485C1.57827 13.5399 1.66231 13.4411 1.56831 13.4303C1.56075 13.432 1.51898 13.4848 1.50093 13.4264V13.4245C1.48171 13.3662 1.41019 13.2824 1.45307 13.1833C1.46718 13.1498 1.56711 13.0666 1.45991 13.0104C1.45016 13.0099 1.21846 12.9129 1.36323 12.8512C1.38741 12.8413 1.54382 12.8365 1.45796 12.7516C1.44149 12.7351 1.40731 12.7687 1.38374 12.7223C1.3751 12.705 1.37105 12.6857 1.36909 12.6657C1.36282 12.6018 1.37786 12.5309 1.33198 12.4557C1.3197 12.4388 1.22447 12.3527 1.3144 12.3102C1.32884 12.3043 1.37761 12.3292 1.38862 12.3024C1.441 12.1754 1.44821 12.028 1.53511 11.9147C1.56586 11.8754 1.63435 11.9307 1.67475 11.8971C1.71513 11.8631 1.77728 11.7929 1.76948 11.7311C1.76221 11.6682 1.61629 11.645 1.65034 11.571C1.71107 11.4434 1.80299 11.3331 1.90815 11.2409L1.8769 11.2741C1.98031 11.1768 2.09658 11.091 2.19526 10.9889C2.21948 10.9639 2.16426 10.9538 2.19722 10.9147C2.31898 10.7701 2.49962 10.4945 2.6855 10.4391C2.83425 10.3949 2.77316 10.5602 2.86421 10.5075C2.90815 10.4817 2.82447 10.3384 2.82807 10.3258C2.86525 10.2066 2.96983 10.1926 3.02143 10.1012C3.03207 10.0823 2.97084 10.0553 2.98042 10.0397C3.01271 9.98633 3.07638 9.95633 3.11128 9.90884C3.12684 9.88728 3.08751 9.85828 3.1064 9.84244C3.1511 9.80427 3.20057 9.77877 3.27241 9.76626C3.27924 9.76652 3.30219 9.83108 3.33198 9.80044C3.38065 9.75038 3.47155 9.71474 3.48921 9.62369C3.49376 9.59629 3.41125 9.52248 3.50288 9.53482C3.52287 9.53851 3.61319 9.63496 3.56538 9.51431C3.55691 9.49196 3.50678 9.31626 3.61421 9.34537C3.64268 9.35308 3.74651 9.40026 3.75288 9.36783C3.75336 9.36309 3.69869 9.33487 3.70991 9.31314C3.75026 9.23737 3.81302 9.1753 3.85542 9.0983C3.86561 9.07782 3.79724 9.06217 3.81538 9.03287C3.86555 8.95182 3.95507 8.87435 4.03022 8.81802C4.05801 8.7975 4.08102 8.84841 4.08686 8.85025C4.18127 8.88032 4.10465 8.78239 4.10737 8.76724C4.12898 8.67727 4.21369 8.66813 4.2519 8.60122C4.26242 8.58286 4.20916 8.55505 4.20796 8.54849C4.19808 8.48315 4.25554 8.57595 4.28218 8.56314C4.3571 8.52745 4.4099 8.46103 4.45503 8.3981C4.47153 8.37493 4.3998 8.35392 4.41499 8.33365C4.5053 8.21265 4.61323 8.09916 4.73823 8.01333C4.76186 7.99725 4.78988 8.04494 4.80268 8.04849C4.89144 8.07342 4.84414 7.95459 4.84468 7.93716C4.8474 7.85858 4.89778 7.87105 4.92671 7.82486C5.0674 7.59873 5.30472 7.37501 5.48237 7.20083C5.71364 6.97368 5.91604 6.81731 6.10932 6.57681C6.12133 6.56158 6.05685 6.531 6.06636 6.51724C6.19734 6.34206 6.35947 6.19788 6.48823 6.02017C6.49752 6.00563 6.43191 5.98122 6.44722 5.95669C6.47855 5.90574 6.53081 5.8519 6.58589 5.82095C6.6124 5.80641 6.62944 5.87202 6.65522 5.85708C6.71617 5.81975 6.7684 5.76739 6.80659 5.70767C6.82253 5.68234 6.74296 5.67153 6.76655 5.64224C6.79767 5.60481 6.8291 5.56698 6.8603 5.52994ZM7.2978 6.59634C7.24514 6.65434 7.16151 6.70502 7.11616 6.77701C7.10662 6.79247 7.16714 6.81421 7.1562 6.84244C7.14506 6.87064 7.09197 6.92414 7.0644 6.93423C7.0369 6.94411 7.00816 6.90477 6.99702 6.90103C6.90426 6.86921 6.94128 7.01767 6.93647 7.02896C6.84125 7.21884 6.67085 7.3045 6.5439 7.44986C6.44773 7.56025 6.3627 7.69386 6.2685 7.79654C6.15612 7.91868 6.03845 8.00269 5.93647 8.12759C5.92565 8.14075 5.99158 8.17295 5.97847 8.18912C5.83919 8.36072 5.68852 8.5209 5.50776 8.65494C5.48963 8.66712 5.46214 8.60651 5.44136 8.61685C5.31406 8.68479 5.08068 8.76513 5.2314 9.00357C5.16333 9.06533 5.08194 9.14103 4.98725 9.16665C4.92623 9.1832 4.90853 9.10051 4.88765 9.16763C4.88286 9.18286 4.94018 9.20829 4.92964 9.22818C4.88521 9.31173 4.80459 9.37485 4.76753 9.46353C4.76015 9.48155 4.80229 9.51261 4.80659 9.5231C4.83575 9.60736 4.69134 9.57868 4.67378 9.58462C4.54117 9.63085 4.50292 9.71594 4.42671 9.80044C4.40922 9.82002 4.48282 9.8434 4.46772 9.86392C4.38865 9.96975 4.29424 10.069 4.1855 10.1452C4.16124 10.1613 4.13299 10.1021 4.11909 10.1081C4.05834 10.135 4.13537 10.2203 4.07905 10.2477C4.06718 10.2536 4.03209 10.2137 4.02632 10.2116C3.93628 10.1791 4.01156 10.286 4.00776 10.2946C3.96169 10.405 3.8139 10.3726 3.75581 10.4674C3.7501 10.4789 3.81762 10.4997 3.79585 10.529C3.64762 10.7259 3.46251 10.9098 3.26265 11.0583C3.23175 11.081 3.21215 11.0282 3.206 11.026C3.11034 10.9933 3.1878 11.0945 3.18452 11.1081C3.14646 11.2041 3.00541 11.2024 3.07612 11.3522C2.89171 11.5155 2.74409 11.7105 2.5771 11.8874C2.57501 11.89 2.56884 11.8964 2.56636 11.8991C2.4658 11.9911 2.37338 12.0904 2.2646 12.2008C2.26135 12.2044 2.20869 12.1729 2.20112 12.1793C2.12493 12.2733 2.22454 12.2915 2.32026 12.3874C2.34419 12.4089 2.19584 12.4265 2.18159 12.4313C2.14012 12.4415 2.05268 12.4048 2.04292 12.4088C1.97439 12.4541 2.2788 12.4975 2.27339 12.5553C2.27266 12.5573 2.21719 12.5438 2.21089 12.5485C2.19143 12.5636 2.21191 12.5821 2.19136 12.5973C2.15741 12.622 2.07192 12.6352 2.05659 12.6657C2.05047 12.6779 2.05634 12.6931 2.08198 12.7106C2.09382 12.7179 2.26785 12.7015 2.26362 12.7555C2.26087 12.7778 2.2783 12.873 2.27436 12.902C2.26941 12.9313 2.20996 12.9261 2.20796 12.9284C2.15484 13.0238 2.11736 13.0024 2.02436 13.0778C1.93433 13.1574 2.1799 13.0615 2.21284 13.067C2.23279 13.0706 2.22656 13.0993 2.21675 13.1276C2.21036 13.1457 2.20242 13.1637 2.19722 13.1725C2.18396 13.1953 2.14288 13.1927 2.13765 13.2106C2.10798 13.3306 2.27238 13.1905 2.32222 13.196C2.43728 13.2025 2.29579 13.3428 2.32026 13.4098C2.32648 13.4269 2.3538 13.3896 2.36616 13.3991C2.41392 13.4353 2.39317 13.5034 2.48042 13.5133C2.48125 13.5134 2.4828 13.5135 2.48432 13.5133C2.51021 13.511 2.60868 13.4701 2.58003 13.5504C2.57584 13.563 2.53381 13.5911 2.54585 13.6159C2.56455 13.6532 2.61686 13.705 2.66108 13.7135C2.69302 13.7189 2.70645 13.6335 2.72456 13.6735C2.73311 13.6915 2.68209 13.7157 2.70112 13.7467C2.72013 13.7783 2.79601 13.8152 2.82612 13.8258C2.856 13.8369 2.86409 13.7739 2.86811 13.7711C2.87042 13.7695 2.87289 13.7677 2.87593 13.7663C2.90309 13.7543 2.95392 13.7474 2.95796 13.7487C3.08211 13.7874 3.2017 13.8347 3.33198 13.8561C3.44553 13.8749 3.56666 13.8718 3.67573 13.8229C3.69395 13.8147 3.66338 13.7574 3.66597 13.7555C3.71874 13.7109 3.72186 13.8885 3.78901 13.9254C3.73823 13.8059 3.77353 13.8185 3.81245 13.7868C3.83091 13.7712 3.7992 13.7302 3.79878 13.7243C3.79656 13.6417 3.85859 13.7211 3.87397 13.736C3.92829 13.7913 3.90872 13.7024 3.94624 13.7379C3.98509 13.7723 3.98839 13.8547 4.03218 13.8278C4.01921 13.7811 3.92794 13.6955 3.94624 13.6608C3.98434 13.5893 4.06895 13.5393 4.15034 13.485C4.15213 13.4831 4.15756 13.4788 4.15913 13.4772C4.23619 13.4307 4.31235 13.3919 4.35444 13.361C4.44832 13.292 4.47136 13.2611 4.53315 13.2292C4.64539 13.1713 4.55288 13.1326 4.58296 13.0514C4.61327 12.9711 4.73044 13.1604 4.77046 13.1901C4.80996 13.2189 4.78706 13.1743 4.8144 13.1852C4.84161 13.1962 4.841 13.2394 4.87104 13.2262C4.90116 13.2129 4.91016 13.0924 4.88569 13.0475C4.83376 12.9527 4.73215 12.8952 4.82026 12.8698C4.82634 12.8713 4.85191 12.9215 4.86909 12.9147C5.0081 12.8528 5.12426 12.7549 5.25972 12.6891C5.27817 12.6815 5.30674 12.7399 5.31831 12.737C5.43675 12.6885 5.33282 12.6339 5.30268 12.4987C5.39802 12.6303 5.49073 12.6805 5.5605 12.6208C5.60184 12.5849 5.54882 12.538 5.54292 12.4772C5.5414 12.459 5.60221 12.4696 5.58589 12.4401C5.53192 12.343 5.42412 12.2756 5.52729 12.2497C5.53264 12.2504 5.56121 12.3022 5.57417 12.2956C5.65944 12.2522 5.59275 12.1591 5.65913 12.0827C5.7112 12.0228 5.86264 11.9828 5.93745 11.9323C6.05572 12.0703 6.0917 11.9837 6.03511 11.8668C6.08222 11.8324 6.12497 11.7853 6.17866 11.7614C6.19707 11.7538 6.22194 11.8017 6.22749 11.8043C6.3142 11.8467 6.25343 11.7381 6.25972 11.7262C6.33142 11.6019 6.4755 11.5983 6.51362 11.445C6.51494 11.4395 6.4375 11.3398 6.52436 11.3864C6.53011 11.3926 6.53627 11.4594 6.58393 11.4235C6.63281 11.3866 6.76477 11.3622 6.78999 11.2624C6.796 11.238 6.76756 11.127 6.85151 11.1598C6.86287 11.1645 6.88206 11.1958 6.90132 11.2057C6.96303 11.237 6.89 11.1314 6.98432 11.193C7.07855 11.2545 7.17917 11.274 7.19429 11.1618C7.1949 11.1583 7.144 11.0691 7.16499 11.0524C7.19902 11.0261 7.25866 11.0013 7.29194 10.9713C7.30732 10.957 7.25686 10.9197 7.25776 10.9157C7.34308 10.7942 7.45755 10.7686 7.58979 10.6852C7.61413 10.67 7.61914 10.5522 7.70503 10.567C7.79919 10.5833 7.95595 10.8561 8.01167 10.7096C8.03431 10.6507 7.82995 10.3096 8.03901 10.3961C8.1523 10.2304 8.35548 10.1897 8.45503 10.0075C8.45951 9.99936 8.40927 9.89993 8.42475 9.88638C8.44933 9.86809 8.49584 9.89509 8.5146 9.88345C8.59367 9.8347 8.62822 9.74607 8.69917 9.69302C8.72592 9.67333 8.75221 9.72091 8.78413 9.69693C8.81612 9.67279 8.79059 9.60283 8.85347 9.59244C8.90136 9.58519 9.02545 9.6645 9.0771 9.64126C8.98633 9.53439 9.01643 9.51159 9.04194 9.44009C9.04571 9.42615 9.0042 9.39861 9.00483 9.39029C9.00695 9.35558 9.05025 9.37046 9.04975 9.33462C9.04878 9.32527 9.01836 9.2899 9.01655 9.28091C8.99988 9.20205 9.11985 9.23996 9.14057 9.24673C9.2193 9.27202 9.19342 9.21317 9.23628 9.21255C9.27935 9.21212 9.26567 9.26982 9.30561 9.25747C9.38839 9.23181 9.46043 9.15937 9.52241 9.10806C9.54627 9.08738 9.48784 9.05361 9.49018 9.04947C9.52561 8.99903 9.60576 9.00028 9.58003 8.91275C9.55931 8.92538 9.52603 8.97565 9.49702 8.98208C9.46694 8.98846 9.49156 8.93794 9.45014 8.94009C9.40822 8.9426 9.36478 9.00264 9.31929 8.96939C9.21415 8.89174 9.1088 8.75733 9.03804 8.64615C9.01606 8.61147 9.05896 8.59719 9.04487 8.57193C9.01725 8.52268 8.96742 8.50074 8.94233 8.44986C8.93419 8.43286 8.99324 8.40427 8.98432 8.38736C8.93152 8.29532 8.85203 8.23763 8.78804 8.15494C8.47264 7.74642 8.13328 7.37348 7.78706 6.98697C7.67285 6.85955 7.56627 6.67215 7.42378 6.56509C7.4071 6.55265 7.37606 6.60077 7.37007 6.60122C7.31184 6.60479 7.32678 6.57971 7.34175 6.55142C7.32953 6.5637 7.31697 6.57495 7.2978 6.59634ZM4.46382 13.7995C4.39499 13.7988 4.53569 13.959 4.54292 13.8795V13.8786L4.52436 13.8952C4.51821 13.8848 4.45883 13.8133 4.45503 13.8122C4.45364 13.8118 4.45235 13.8114 4.45112 13.8112L4.46382 13.7995ZM4.23042 13.6501C4.26374 13.7164 4.32265 13.6691 4.25972 13.6266C4.25713 13.6252 4.23004 13.6468 4.23042 13.6501ZM2.20796 13.4626C2.15952 13.4991 2.19549 13.5194 2.23335 13.4762C2.23555 13.4737 2.22306 13.4513 2.20796 13.4626ZM2.29097 12.0319C2.2127 11.934 2.1194 12.0732 2.24604 12.0983C2.25225 12.0989 2.29419 12.0367 2.29097 12.0319ZM8.44038 10.277C8.33255 10.241 8.39868 10.3762 8.47944 10.4069C8.56016 10.4375 8.47332 10.288 8.44038 10.277ZM9.23628 9.38052C9.19224 9.36217 9.1795 9.43949 9.23432 9.46255C9.27842 9.481 9.29118 9.40357 9.23628 9.38052ZM9.60542 8.90787C9.71612 9.00039 9.69277 8.96216 9.67378 8.90884L9.63667 8.90591C9.62655 8.90511 9.61571 8.90693 9.60542 8.90787ZM9.92768 8.26333C9.92604 8.26582 9.94764 8.29191 9.95112 8.29165C10.0147 8.25475 9.96923 8.20094 9.92768 8.26333Z" fill="#555961"/>
</svg>
