<svg width="16" height="16" viewBox="0 0 16 16" fill="none" xmlns="http://www.w3.org/2000/svg">
<path d="M4.66635 1.46098C5.54704 1.52464 6.41405 1.54799 7.30599 1.57622C7.60482 1.58563 7.96803 1.64316 8.2767 1.61821C8.31231 1.61527 8.29206 1.56139 8.29818 1.55571C8.40573 1.48597 8.37054 1.59752 8.44076 1.61235C8.71934 1.67079 9.02914 1.67566 9.29721 1.65434C9.41114 1.64509 9.29714 1.5355 9.41146 1.59673C9.41944 1.60089 9.39091 1.6598 9.42221 1.66606C9.4932 1.68011 9.62797 1.66923 9.68295 1.67387C9.78877 1.68312 9.80638 1.68297 9.90658 1.68364C10.0436 1.68508 10.2068 1.71452 10.3538 1.70122C10.3849 1.698 10.3439 1.6382 10.3939 1.62798C10.444 1.61785 10.5755 1.62269 10.6204 1.63676C10.6651 1.65096 10.6467 1.69819 10.6546 1.70903C10.7198 1.80026 10.8732 1.67408 10.8929 1.67094C11.047 1.64809 11.1917 1.64765 11.3333 1.65532C11.5718 1.66606 11.7931 1.73806 12.0091 1.83501C12.1864 1.91435 12.362 2.02331 12.5072 2.1602C12.5979 2.24536 12.6769 2.34097 12.7386 2.44048C12.9136 2.72808 12.9649 3.0219 12.9671 3.33305C12.9671 3.35424 12.9667 3.37593 12.9671 3.39751C12.9677 3.42729 13.0386 3.39239 13.0394 3.42876C13.0476 3.81528 13.0403 4.19918 12.9925 4.58403C12.9877 4.62259 12.925 4.57303 12.9163 4.61137C12.8653 4.8474 12.743 5.22101 13.013 5.36137C13.0025 5.52117 12.9922 5.71539 12.9378 5.85844C12.9027 5.9507 12.8347 5.86134 12.8636 5.97466C12.87 6.00011 12.9283 5.96734 12.9339 6.00493C12.9556 6.16631 12.9365 6.34332 12.9671 6.50298C12.9737 6.53506 13.0266 6.52622 13.0365 6.5352C13.1138 6.61239 12.9866 6.74119 12.9769 6.76958C12.9075 6.98327 12.9346 7.13984 12.9329 7.33891C12.933 7.38416 13.0036 7.33051 13.0062 7.37407C13.0164 7.60456 13.0095 7.84369 12.9779 8.06938C12.9707 8.1196 12.9102 8.07371 12.9037 8.0977C12.8756 8.20341 12.9898 8.22682 12.9652 8.32817C12.9601 8.34956 12.9084 8.33794 12.9027 8.34184C12.8133 8.40287 12.9399 8.45603 12.9427 8.47173C12.9809 8.67033 12.8487 8.7974 12.8675 8.9893C12.8701 9.01187 12.9349 8.96075 12.9378 9.02446C12.956 9.45453 12.9387 9.91028 12.8861 10.336C12.8778 10.4016 12.8277 10.3543 12.8216 10.3584C12.7268 10.4262 12.8549 10.4707 12.8597 10.4922C12.8941 10.6623 12.7873 10.821 12.9388 10.9366C12.8965 11.5152 12.9432 12.0924 12.8929 12.667C12.8806 12.8324 12.8355 12.9941 12.7601 13.1368C12.7552 13.1456 12.7016 13.1094 12.6927 13.127C12.5758 13.333 12.6819 13.3229 12.6966 13.5352C12.6975 13.5921 12.5027 13.6119 12.4886 13.6104C12.4335 13.6158 12.3874 13.5252 12.3734 13.5303C12.3006 13.5552 12.384 13.6485 12.4115 13.7452C12.4249 13.7924 12.4241 13.8401 12.3841 13.875C12.3796 13.8756 12.3584 13.8223 12.3451 13.8262C12.3035 13.839 12.2865 13.8808 12.2435 13.8887C12.1421 13.9055 12.0437 13.7933 11.9759 13.9278C11.9658 13.9445 12.0722 14.0929 11.9369 14.1426C11.8849 14.1658 11.643 14.2375 11.5706 14.2315C11.5 14.23 11.5401 14.1667 11.5345 14.1651C11.3504 14.1095 11.4147 14.0706 11.3333 13.9629C11.2539 13.8527 11.2759 14.1152 11.2435 14.1446C11.2111 14.1736 11.096 14.1126 11.0667 14.0909C11.0383 14.0695 11.0729 14.0338 11.0482 14.0215C10.8798 13.9422 10.9738 14.1517 10.9183 14.1934C10.7876 14.2919 10.6855 14.0973 10.5658 14.0782C10.534 14.0734 10.5598 14.1167 10.5316 14.1211C10.4173 14.137 10.3481 14.0761 10.2181 14.1319C10.1968 14.1411 10.0918 14.2587 10.0238 14.1729C10.0141 14.1605 10.0412 14.1115 9.99252 14.1006C9.91978 14.0844 9.78934 14.0738 9.71127 14.0899C9.65356 14.1019 9.71934 14.182 9.64681 14.1573C9.61452 14.1462 9.67429 14.099 9.61361 14.0821C9.55321 14.0651 9.39888 14.0678 9.34017 14.0694C9.28163 14.0711 9.31366 14.1317 9.30892 14.1358C9.28002 14.1592 9.16748 14.1886 9.15756 14.1885C8.65625 14.1959 8.19352 14.0931 7.70541 14.127C7.66769 14.13 7.69268 14.1933 7.68685 14.1944C7.55608 14.2209 7.65928 14.0511 7.56771 13.9942C7.58094 14.124 7.52713 14.1011 7.4349 14.1153C7.39038 14.1223 7.41455 14.1726 7.41049 14.1778C7.3445 14.2541 7.2983 14.155 7.28646 14.1348C7.24275 14.0607 7.19511 14.1483 7.16537 14.0987C7.13577 14.0494 7.20394 13.9767 7.11556 13.9776C7.09086 14.0241 7.15624 14.1453 7.0892 14.1651C6.83545 14.2396 6.36175 14.1448 6.15756 14.1348C5.95388 14.1249 5.88757 14.1331 5.76889 14.1163C5.55494 14.086 5.63337 14.1766 5.50033 14.2178C5.36716 14.2589 5.43135 14.0374 5.41244 13.9893C5.3936 13.9416 5.37337 13.9901 5.34994 13.9639C5.32666 13.9377 5.37653 13.9054 5.32162 13.8956C5.26638 13.8861 5.11645 13.9708 5.09701 14.0206C5.05583 14.1262 5.12331 14.2373 4.97787 14.1983C4.97061 14.1945 4.99651 14.1378 4.96517 14.1319C4.8668 14.1145 4.76651 14.1031 4.66635 14.0938C4.49674 14.0792 4.32946 14.0372 4.18685 13.9581C4.15521 13.9401 4.20812 13.8909 4.19076 13.8799C4.01881 13.7593 4.04387 13.8886 3.87045 13.9288C3.97947 13.8047 3.97228 13.6929 3.86264 13.5987C3.81948 13.5604 3.78955 13.5712 3.75131 13.5821C3.73083 13.5878 3.70783 13.5932 3.68002 13.5889C3.65543 13.5848 3.64732 13.5023 3.61459 13.5127C3.50432 13.5458 3.44574 13.6803 3.37728 13.4942C3.37562 13.4861 3.43889 13.4754 3.42709 13.4502C3.35803 13.2866 3.2445 13.3179 3.16439 13.1241C3.12103 13.0136 3.12029 12.8235 3.14584 12.667C3.15481 12.6149 3.16228 12.5645 3.16537 12.5215C3.34709 12.5248 3.3061 12.3776 3.18099 12.3174C3.18612 12.2159 3.17839 12.106 3.19564 12.0079C3.20155 11.974 3.25441 11.9955 3.2601 11.9913C3.3487 11.9262 3.22889 11.8824 3.22299 11.8604C3.17648 11.6225 3.26845 11.4282 3.17807 11.2012C3.1718 11.1931 3.05021 11.18 3.14096 11.1202C3.14731 11.1162 3.20486 11.1907 3.20932 11.084C3.21377 10.9773 3.28129 10.7762 3.22299 10.628C3.20889 10.5921 3.10586 10.5006 3.18588 10.4278C3.19671 10.4181 3.23304 10.4288 3.25326 10.4151C3.31743 10.3699 3.19053 10.3451 3.29818 10.292C3.40666 10.2388 3.4882 10.128 3.41342 9.97856C3.41125 9.97381 3.31091 9.93844 3.31185 9.89165C3.3145 9.81658 3.33595 9.70928 3.33529 9.63091C3.33464 9.59452 3.27432 9.61659 3.27084 9.61137C3.23563 9.35913 3.29143 9.1794 3.31576 8.90923C3.32034 8.85969 3.23446 8.71707 3.30209 8.62114C3.37627 8.51581 3.68512 8.62393 3.61166 8.38188C3.58225 8.28423 3.19104 8.16089 3.39389 7.9854C3.34362 7.64505 3.4471 7.32963 3.37533 6.98833C3.37079 6.97265 3.26253 6.92456 3.264 6.88872C3.26642 6.83522 3.31716 6.8058 3.32064 6.76762C3.33603 6.60735 3.29236 6.46024 3.29916 6.30571C3.3018 6.24753 3.35463 6.26769 3.35775 6.19829C3.36065 6.12836 3.29097 6.08114 3.32455 5.98637C3.35027 5.91484 3.49256 5.84304 3.50912 5.74809C3.36892 5.74447 3.37132 5.67949 3.33432 5.56352C3.32688 5.54162 3.2787 5.56523 3.27279 5.55473C3.24772 5.51196 3.28792 5.4723 3.26107 5.43169C3.25458 5.4219 3.20754 5.42094 3.19857 5.41313C3.12807 5.34423 3.23546 5.2305 3.25424 5.21098C3.32545 5.13626 3.2633 5.10131 3.29135 5.04399C3.31933 4.98695 3.35437 5.07199 3.37142 5.00591C3.40662 4.86735 3.39852 4.68862 3.40072 4.5479C3.40113 4.49271 3.33904 4.52942 3.33627 4.52251C3.32008 4.40654 3.38778 4.28908 3.26107 4.22466C3.58965 4.14425 3.22854 4.15416 3.29428 3.98833C3.29961 3.97525 3.45599 3.95865 3.47885 4.00884C3.50156 4.05902 3.45302 4.13554 3.48861 4.20512C3.49898 4.22262 3.64208 4.3149 3.6517 4.32817C3.72075 4.42913 3.48772 4.44392 3.47494 4.44927C3.33754 4.50968 3.49361 4.62455 3.50521 4.65532C3.55496 4.79438 3.52244 4.91303 3.55795 5.02934C3.5811 5.10499 3.73174 5.11266 3.72787 5.17192C3.71246 5.37046 3.50074 5.43994 3.6849 5.627C3.72421 5.66712 3.89007 5.62777 3.75912 5.77153C3.74893 5.78225 3.63229 5.88816 3.70736 5.94927C3.71749 5.95681 3.76582 5.95672 3.76986 5.96684C3.79594 6.03509 3.75724 6.08089 3.77572 6.15532C3.79422 6.22981 3.82139 6.3193 3.80502 6.40434C3.79521 6.45549 3.70544 6.52121 3.68295 6.54594C3.61919 6.61528 3.7239 6.69047 3.64682 6.73344C3.5692 6.77677 3.45087 6.69209 3.40072 6.80571C3.52681 6.80992 3.65673 6.81945 3.78353 6.82622C3.77907 7.07499 3.73797 7.31978 3.74349 7.56938C3.74431 7.60035 3.81216 7.56938 3.81478 7.60259C3.82543 7.74247 3.77704 7.86473 3.79623 8.00981C3.81138 8.12226 3.88362 8.24574 3.9017 8.36333C3.75741 8.43515 3.80648 8.60962 3.7933 8.73637C3.78872 8.78073 3.7502 8.77805 3.73764 8.80962C3.69132 8.92851 3.81811 8.87273 3.83822 8.90532C3.92386 9.04543 3.63578 9.05751 3.64291 9.2227C3.6456 9.23285 3.79413 9.33654 3.80599 9.35259C3.86834 9.44603 3.75329 9.36885 3.74154 9.4268C3.72077 9.53378 3.68379 9.60891 3.72885 9.73442C3.74276 9.77127 3.83789 9.85893 3.764 9.92973C3.75397 9.93891 3.70349 9.93396 3.70053 9.94145C3.6512 10.0774 3.81051 10.0814 3.86459 10.1592C3.91807 10.2369 3.80873 10.3561 3.7767 10.3809C3.6959 10.4438 3.73983 10.3362 3.73373 10.3291C3.63785 10.2885 3.65386 10.3755 3.64584 10.4424C3.48918 10.4521 3.49855 10.5457 3.63803 10.5118C3.6531 10.5077 3.6387 10.4559 3.64584 10.4424C3.79954 10.5012 3.81877 10.605 3.67514 10.7188C3.60794 10.7714 3.5303 10.7216 3.55892 10.8829C3.57189 10.9563 3.67893 10.9284 3.70834 10.9932C3.77522 11.1411 3.67509 11.3329 3.69076 11.4854C3.69652 11.5408 3.75608 11.4876 3.76205 11.5254C3.77783 11.6256 3.73371 11.7139 3.75619 11.8145C3.75832 11.8236 3.81986 11.8017 3.82064 11.8331C3.82782 12.0708 3.78854 12.2781 3.78744 12.5264C3.78729 12.5654 3.79071 12.6145 3.79525 12.667C3.80425 12.7389 3.82967 12.8155 3.83822 12.8682C3.8542 13 3.86838 13.2096 3.97689 13.293C3.99289 13.3056 4.00698 13.3119 4.01986 13.3135C4.06031 13.3182 4.08751 13.2843 4.12631 13.2764C4.21946 13.2531 4.22457 13.4272 4.23373 13.4571C4.23391 13.4587 4.16563 13.4348 4.18197 13.4815C4.16879 13.5505 4.23338 13.4572 4.23373 13.4571C4.23387 13.4769 4.36005 13.5486 4.39193 13.543C4.40835 13.5409 4.41734 13.4825 4.42514 13.4825C4.51009 13.4823 4.58922 13.4774 4.66635 13.4698C4.81492 13.4609 4.96448 13.4629 5.11459 13.4776C5.11934 13.4793 5.11224 13.543 5.12338 13.5459C5.28534 13.5751 5.38922 13.4949 5.52279 13.4473C5.65618 13.3998 5.76214 13.4162 5.84115 13.5284C5.94192 13.5142 6.08706 13.5646 6.17025 13.5948C6.25284 13.6242 6.26451 13.4972 6.27182 13.4942C6.50013 13.4135 6.6326 13.4867 6.86947 13.4981C6.98219 13.5037 7.20566 13.4857 7.32748 13.4717C7.42363 13.4606 7.48196 13.4898 7.57064 13.4707C7.58194 13.4672 7.57025 13.4123 7.57357 13.4092C7.67267 13.3413 7.62538 13.4801 7.64584 13.5049C7.72002 13.5951 7.76601 13.643 7.89291 13.6006C7.92242 13.5898 8.00768 13.3916 8.06088 13.3799C8.12989 13.3653 8.10388 13.4361 8.17611 13.419C8.18232 13.4176 8.18132 13.3733 8.22592 13.375C8.43399 13.3835 8.66106 13.4097 8.87728 13.4053C8.90676 13.4049 8.86921 13.3351 8.91146 13.3331C9.11173 13.3247 9.33159 13.3266 9.5267 13.3594C9.57466 13.3677 9.54461 13.4171 9.55502 13.4317C9.61902 13.5199 9.70997 13.3921 9.72494 13.3897C10.082 13.3282 10.3552 13.4438 10.7191 13.3887C10.7389 13.3855 10.8922 13.2477 10.9603 13.3653C10.9649 13.3731 11.0317 13.4938 11.0912 13.4122C11.0948 13.407 11.0531 13.3443 11.1263 13.3506C11.1796 13.3552 11.2566 13.335 11.3333 13.3497C11.348 13.3552 11.3634 13.3653 11.3792 13.3829C11.3951 13.4047 11.4597 13.5176 11.4964 13.4122C11.5054 13.4029 11.5097 13.1793 11.5824 13.3096C11.5948 13.3319 11.6506 13.4798 11.68 13.377C11.6836 13.3574 11.6499 13.3353 11.6673 13.3018C11.6914 13.2519 11.7684 13.2508 11.764 13.1612C11.7634 13.1511 11.7453 13.1038 11.7503 13.0831C11.7535 13.0717 11.7642 13.0678 11.7923 13.0791C11.805 13.084 11.8378 13.126 11.8538 13.1172C11.9315 13.0706 11.9474 12.977 12.0101 12.9092C12.0324 12.8838 12.1082 12.9262 12.141 12.8965C12.174 12.8673 12.2108 12.7902 12.1751 12.7461C12.1392 12.7045 12.0012 12.7325 11.9925 12.6846C11.9913 12.6787 11.9898 12.6729 11.9886 12.667C11.9498 12.2684 12.0251 11.8729 12.0365 11.4747C12.0382 11.4138 11.9895 11.4638 11.9886 11.3741C11.985 11.0433 11.9399 10.4725 12.0433 10.1856C12.1262 9.95571 12.1893 10.2448 12.223 10.0694C12.2391 9.98459 12.0805 9.89259 12.0755 9.87212C12.025 9.67233 12.095 9.53338 12.0736 9.35356C12.0691 9.31655 12.0059 9.35227 12.0023 9.32134C11.9912 9.21329 12.0192 9.09938 12.014 8.99614C12.0115 8.94994 11.9636 8.95832 11.9671 8.91606C11.9756 8.81411 11.9955 8.72345 12.0413 8.62407C12.0455 8.61501 12.1065 8.67608 12.1087 8.60063C12.1122 8.47853 12.1574 8.32703 12.1107 8.18657C12.0965 8.14498 11.9856 8.14329 12.0628 8.05376C12.0795 8.03521 12.2129 8.05828 12.097 7.95415C12.0776 7.93645 11.9213 7.76189 12.0218 7.67583C12.0484 7.65315 12.1579 7.59506 12.141 7.54497C12.1382 7.53817 12.0785 7.56502 12.0726 7.52348C12.053 7.37711 12.0592 7.22366 12.0404 7.07329C12.0351 7.0333 11.9728 7.09297 11.9671 7.03325C11.9514 6.86864 11.9672 6.66296 11.9867 6.502C11.9939 6.44337 12.0446 6.48287 12.0511 6.47954C12.1424 6.4101 12.0192 6.36879 12.012 6.34575C11.9692 6.20251 12.0274 6.09305 12.012 5.96098C12.0077 5.92493 11.9489 5.95065 11.9437 5.94341C11.8927 5.86835 11.9981 5.92412 12.0101 5.877C12.043 5.74352 12.0381 5.59402 12.0306 5.45903C12.0275 5.40992 11.9591 5.46536 11.9574 5.42094C11.9456 5.15768 11.9521 4.88394 11.9896 4.627C11.9968 4.5786 12.0499 4.60877 12.0619 4.59868C12.145 4.52938 12.0313 4.42817 12.0199 4.40434C11.9702 4.29789 12.0166 4.25604 12.0081 4.16216C11.9841 3.90563 11.9835 3.61481 11.9906 3.33305C11.9965 3.22317 11.9775 3.11255 11.9398 3.02153C11.9115 2.9529 11.8749 2.89104 11.8314 2.83598C11.7147 2.68855 11.5396 2.58524 11.3333 2.58891C11.3059 2.58926 11.2782 2.5902 11.2503 2.59087C11.2162 2.59172 11.2506 2.66061 11.221 2.66216C10.8395 2.67896 10.4637 2.65178 10.0814 2.67192C10.0505 2.67375 10.0952 2.73939 10.0453 2.74419C9.94197 2.75424 9.81082 2.75065 9.70639 2.72954C9.65597 2.71922 9.72338 2.66341 9.67221 2.65434C9.55305 2.63315 9.42544 2.62817 9.30306 2.63872C9.25088 2.64337 9.3289 2.71118 9.26107 2.71196C8.79916 2.71867 8.34504 2.73017 7.87826 2.64262C7.84642 2.6355 7.81809 2.4992 7.75033 2.52544C7.74521 2.56356 7.74573 2.60872 7.74349 2.64946C7.07094 2.67142 6.40524 2.62363 5.7308 2.61626C5.70242 2.61596 5.75118 2.68845 5.69662 2.68852C5.37802 2.68745 5.06841 2.70715 4.74252 2.63481C4.71496 2.62878 4.72235 2.53524 4.66635 2.51958C4.66045 2.51697 4.65326 2.51653 4.64486 2.51958C4.63384 2.52238 4.54902 2.54704 4.53353 2.57915C4.53174 2.58374 4.55527 2.63974 4.53256 2.64653C4.40101 2.68122 4.27104 2.73483 4.14584 2.81255C4.14105 2.81552 4.13595 2.8183 4.13119 2.82134C4.11016 2.83482 4.08188 2.77235 4.06576 2.78227C3.94645 2.86228 3.919 3.01515 3.83334 3.127C3.77579 3.20737 3.67495 3.15443 3.55892 3.19926C3.54207 3.20606 3.53364 3.27847 3.47103 3.28032C3.31202 3.28618 3.14076 3.23124 2.97103 3.24126C2.93365 3.24446 2.97055 3.39481 2.88412 3.30473C2.87751 3.29859 2.85326 3.18348 2.82748 3.15141C2.80877 3.12948 2.74166 3.15974 2.72006 3.1143C2.69907 3.06771 2.75836 3.02866 2.74154 2.95317C2.72617 2.8765 2.64473 2.89161 2.67709 2.74321C2.74388 2.43954 2.9627 2.0901 3.21322 1.87993C3.24756 1.85013 3.28169 1.82221 3.31576 1.79692C3.40386 1.73329 3.38759 1.79902 3.44955 1.75981C3.57089 1.68569 3.6745 1.59944 3.80892 1.55473C3.85268 1.54123 3.82878 1.62164 3.87338 1.60649C4.11578 1.52635 4.34818 1.45493 4.6058 1.45903C4.62598 1.45943 4.64624 1.45995 4.66635 1.46098ZM6.65365 14.001C6.68652 13.9302 6.56302 13.9251 6.5892 13.9991C6.59488 14.0019 6.65222 14.0039 6.65365 14.001ZM10.6078 13.9561C10.6047 13.8952 10.5426 13.9126 10.5628 13.9688C10.5649 13.9721 10.6086 13.9748 10.6078 13.9561ZM12.7757 12.7832C12.6697 12.7001 12.6192 12.9831 12.7464 12.9444C12.7552 12.9426 12.7825 12.7913 12.7757 12.7832ZM3.56869 7.31841C3.46975 7.41911 3.61532 7.48808 3.69174 7.41704C3.76801 7.34602 3.59869 7.28774 3.56869 7.31841ZM3.49642 6.27446C3.41903 6.39194 3.73646 6.4102 3.67221 6.28423C3.66693 6.27691 3.50093 6.26761 3.49642 6.27446ZM3.4183 5.23833C3.37533 5.27502 3.42444 5.3802 3.47787 5.33501C3.52091 5.29826 3.47182 5.19261 3.4183 5.23833ZM3.24349 3.33598C3.25954 3.3141 3.41263 3.45919 3.41439 3.47661L3.39877 3.56841C3.34094 3.76914 3.14344 3.85918 3.16928 3.61137C3.17464 3.56006 3.25301 3.72161 3.2767 3.6563C3.31962 3.53691 3.15528 3.45784 3.24349 3.33598ZM3.57943 2.96001C3.63742 3.00795 3.6769 2.91552 3.60092 2.90825C3.59677 2.91023 3.57684 2.95778 3.57943 2.96001Z" fill="#555961"/>
<path d="M6.03809 3.92445C6.06051 3.90491 6.08998 3.92605 6.11231 3.95473C6.11885 3.96401 6.11578 4.00146 6.12012 4.01039C6.12956 4.02584 6.13911 4.00668 6.14844 4.02504C6.15147 4.0312 6.14752 4.09178 6.1504 4.09926C6.16813 4.12701 6.18517 4.11146 6.20313 4.12465C6.29175 4.19062 6.37905 4.21416 6.46875 4.24281C6.49837 4.25222 6.53485 4.3098 6.56543 4.28481C6.56876 4.28067 6.56682 4.22845 6.56739 4.22231C6.57804 4.15256 6.5741 4.26412 6.58106 4.27895C6.60862 4.33729 6.63949 4.34216 6.66602 4.32094C6.67731 4.31171 6.66642 4.20214 6.67774 4.26332C6.67853 4.26748 6.67562 4.3264 6.67872 4.33266C6.68559 4.34636 6.69844 4.3366 6.70411 4.34047C6.71461 4.34973 6.71664 4.34957 6.72657 4.35023C6.74005 4.35165 6.75603 4.3804 6.77051 4.36781C6.77357 4.36485 6.7698 4.30613 6.77442 4.29457C6.77938 4.28435 6.79245 4.28918 6.79688 4.30336C6.8013 4.31757 6.8 4.36479 6.80079 4.37563C6.80711 4.46508 6.8218 4.34535 6.82422 4.33754C6.85984 4.28417 6.89041 4.35621 6.92383 4.35609C6.94923 4.35578 6.97682 4.33134 7.00098 4.33461C7.02962 4.33894 7.05418 4.37144 7.08204 4.36586C7.08458 4.36179 7.08146 4.29435 7.08497 4.29359C7.1232 4.28543 7.16116 4.29376 7.19922 4.34145C7.20286 4.34722 7.19839 4.40806 7.20215 4.41664C7.22554 4.46769 7.26248 4.59041 7.27637 4.31996C7.29221 4.33051 7.31104 4.34167 7.3252 4.39613C7.3343 4.43125 7.3257 4.49823 7.33692 4.46938C7.33919 4.46138 7.33629 4.40514 7.33985 4.39906C7.35584 4.37737 7.37384 4.39648 7.38965 4.36586C7.39278 4.35884 7.39168 4.30601 7.39258 4.29652C7.40025 4.21983 7.41324 4.34778 7.41602 4.35707C7.43696 4.42542 7.45223 4.39884 7.47168 4.40004C7.47617 4.40045 7.47166 4.33256 7.47559 4.32777C7.49843 4.31755 7.52256 4.32347 7.54493 4.35512C7.54967 4.36321 7.54553 4.42266 7.54786 4.42934C7.55834 4.4575 7.56026 4.34302 7.57032 4.36781C7.57236 4.37329 7.57095 4.42352 7.57129 4.43031C7.57731 4.51948 7.5824 4.39445 7.58399 4.39027C7.60367 4.35195 7.61673 4.48425 7.63575 4.46547C7.63754 4.45956 7.63345 4.39774 7.63965 4.39516C7.68217 4.37721 7.72747 4.39538 7.76954 4.44789C7.77564 4.45713 7.77108 4.50537 7.77149 4.51137C7.77811 4.60487 7.78202 4.4825 7.78418 4.47426C7.80105 4.43967 7.81765 4.54615 7.82911 4.39418C7.90044 4.44665 7.97125 4.36203 8.042 4.4977C8.04288 4.49924 8.04135 4.55991 8.04297 4.56508C8.06461 4.60036 8.06088 4.50288 8.0752 4.38344C8.07882 4.35383 8.08985 4.49788 8.09083 4.50844C8.09431 4.54728 8.09068 4.63962 8.0918 4.64809C8.1016 4.70732 8.10007 4.39819 8.11329 4.39809C8.11368 4.39897 8.1112 4.45592 8.11231 4.46156C8.11575 4.47903 8.11969 4.45668 8.12305 4.47621C8.13074 4.52167 8.13378 4.67111 8.14551 4.58461C8.14701 4.57326 8.14445 4.39761 8.15625 4.4059C8.16111 4.40926 8.1817 4.40632 8.1875 4.41762C8.19333 4.42898 8.18904 4.48546 8.18946 4.48793C8.20514 4.56255 8.19922 4.59351 8.20704 4.70375C8.21491 4.81397 8.21359 4.55145 8.2168 4.52211C8.22003 4.49324 8.23152 4.55428 8.23438 4.57582C8.23718 4.59702 8.233 4.63263 8.23536 4.64516C8.25204 4.72444 8.24353 4.51501 8.24903 4.47328C8.26194 4.37496 8.27139 4.5685 8.28321 4.58852C8.28637 4.5936 8.28446 4.55082 8.28711 4.54555C8.29841 4.52972 8.30553 4.59004 8.31836 4.53481C8.32047 4.52573 8.33018 4.40838 8.33692 4.49379C8.33787 4.50617 8.33507 4.55503 8.33985 4.56606C8.34704 4.58235 8.36042 4.59287 8.36817 4.5768C8.37389 4.56478 8.36781 4.48455 8.375 4.50941C8.37817 4.52063 8.37193 4.56769 8.37793 4.58461C8.38397 4.60129 8.39949 4.59891 8.40528 4.59731C8.4105 4.59284 8.40775 4.53489 8.40821 4.5309C8.41108 4.50769 8.42173 4.47853 8.42286 4.47816C8.47241 4.47077 8.51817 4.57286 8.56641 4.53969C8.57006 4.53722 8.56802 4.47776 8.56836 4.47231C8.58136 4.44548 8.57101 4.61551 8.58008 4.6725C8.57877 4.54256 8.5846 4.56566 8.59375 4.55141C8.59799 4.54365 8.59531 4.49401 8.59571 4.48891C8.60224 4.41303 8.60723 4.51171 8.6084 4.53188C8.61273 4.60588 8.61718 4.51839 8.62012 4.56801C8.62301 4.61662 8.61676 4.68807 8.625 4.6891C8.62744 4.64254 8.62133 4.52155 8.62793 4.5016C8.65308 4.42708 8.70049 4.52197 8.72071 4.53188C8.74071 4.5416 8.74708 4.53368 8.75879 4.55043C8.77997 4.58061 8.77198 4.49012 8.78516 4.44887C8.79821 4.40933 8.79209 4.62926 8.79395 4.67738C8.79582 4.72507 8.79749 4.67656 8.79981 4.70277C8.80207 4.72893 8.79732 4.76133 8.80274 4.77113C8.8082 4.78076 8.82326 4.69597 8.8252 4.64613C8.82928 4.54054 8.82256 4.4297 8.83692 4.4684C8.83773 4.47067 8.83496 4.52734 8.8379 4.53481C8.8631 4.57972 8.88987 4.58297 8.91504 4.6227C8.91827 4.62965 8.91508 4.69234 8.917 4.69691C8.93797 4.73842 8.9309 4.62901 8.94239 4.50746C8.93981 4.66905 8.94603 4.76804 8.96192 4.76918C8.97149 4.76981 8.97038 4.69887 8.97657 4.64906C8.97847 4.63491 8.98511 4.68209 8.98633 4.64906C8.99033 4.54076 8.98373 4.41981 9 4.46742C9.00072 4.46969 8.99865 4.52783 9.00098 4.53285C9.01702 4.55635 9.01889 4.44364 9.03614 4.42934C9.04974 4.41856 9.07433 4.48718 9.08985 4.49867C9.08952 4.68038 9.1044 4.6394 9.11036 4.5143C9.12025 4.51899 9.13108 4.51219 9.14063 4.52895C9.14396 4.53482 9.14219 4.58723 9.14258 4.5934C9.14897 4.68135 9.15307 4.56435 9.15528 4.55629C9.17884 4.50979 9.19822 4.60175 9.22071 4.51137C9.22151 4.50464 9.2226 4.38336 9.22852 4.47426C9.22889 4.48075 9.22186 4.53818 9.23243 4.54262C9.24306 4.54794 9.26277 4.61419 9.27735 4.55629C9.2809 4.54222 9.28967 4.43992 9.29688 4.51918C9.29784 4.53 9.29748 4.56633 9.29883 4.58656C9.30331 4.65073 9.3053 4.52385 9.31055 4.63148C9.31582 4.73998 9.32699 4.82158 9.3418 4.74672C9.34235 4.7418 9.346 4.64358 9.35059 4.64516C9.35796 4.64814 9.36832 4.66897 9.37598 4.66859C9.37956 4.66826 9.37752 4.6095 9.37793 4.60414C9.40289 4.56898 9.42057 4.62468 9.44727 4.64906C9.45218 4.65364 9.46706 4.56779 9.47657 4.63539C9.487 4.70954 9.47606 5.01809 9.5 4.94496C9.50968 4.91555 9.52168 4.52434 9.53907 4.72719C9.57276 4.67697 9.60392 4.78006 9.6377 4.70863C9.6392 4.70551 9.64391 4.59938 9.64747 4.59731C9.65275 4.59971 9.65639 4.65021 9.66016 4.65395C9.67586 4.66916 9.68996 4.62684 9.70508 4.63246C9.7108 4.63489 9.70928 4.68662 9.71583 4.69106C9.72274 4.69395 9.72795 4.62464 9.73731 4.65785C9.7444 4.68345 9.75134 4.82586 9.76075 4.84242C9.76111 4.70223 9.76781 4.70463 9.7793 4.66762C9.7813 4.65906 9.77925 4.6119 9.78028 4.60609C9.78451 4.58127 9.78798 4.62106 9.792 4.59438C9.79297 4.58789 9.79318 4.54087 9.79395 4.53188C9.80078 4.46137 9.81253 4.56879 9.81446 4.58754C9.82185 4.65858 9.82441 4.59662 9.83008 4.62465C9.83572 4.65267 9.82737 4.68773 9.83399 4.70473C9.84771 4.73991 9.86595 4.73182 9.87989 4.73402C9.88495 4.73249 9.88122 4.67298 9.88184 4.66957C9.89333 4.65338 9.90573 4.72116 9.91211 4.59438C9.92007 4.92243 9.91918 4.56282 9.93555 4.62758C9.93685 4.63291 9.93759 4.7893 9.93262 4.81215C9.92765 4.83387 9.92092 4.78653 9.91407 4.82191C9.91231 4.83271 9.90264 4.97625 9.90137 4.985C9.89142 5.05285 9.89018 4.821 9.88965 4.80824C9.88365 4.67045 9.87216 4.82766 9.86915 4.83852C9.85538 4.88819 9.84355 4.85575 9.83204 4.89125C9.82457 4.91503 9.82328 5.06582 9.81739 5.06117C9.79808 5.04277 9.79085 4.83539 9.77247 5.0182C9.76854 5.058 9.773 5.22307 9.75879 5.09242C9.75766 5.08142 9.74724 4.96589 9.74122 5.04066C9.74045 5.05039 9.74027 5.0991 9.73926 5.10316C9.73254 5.12877 9.72805 5.09067 9.72071 5.10902C9.71332 5.12754 9.70375 5.15478 9.69532 5.13832C9.69027 5.12665 9.68405 5.03816 9.68165 5.01625C9.67479 4.95257 9.66735 5.05671 9.66309 4.98012C9.6588 4.9025 9.66751 4.78417 9.65625 4.73402C9.65584 4.86012 9.65497 4.99003 9.6543 5.11684C9.62964 5.1124 9.60483 5.07123 9.58008 5.0768C9.57725 5.07962 9.58038 5.14543 9.57715 5.14809C9.56335 5.15879 9.5514 5.11115 9.53711 5.12953C9.52597 5.14469 9.51361 5.21692 9.50196 5.235C9.49488 5.09152 9.47739 5.13903 9.46485 5.1266C9.4605 5.1221 9.46103 5.08393 9.45801 5.07094C9.44625 5.02458 9.45142 5.1509 9.44825 5.17152C9.43445 5.25663 9.43307 4.97278 9.417 4.97621C9.41571 4.98352 9.40485 5.12835 9.40333 5.1393C9.39411 5.20135 9.40208 5.0875 9.39649 5.07484C9.3859 5.05409 9.37863 5.01724 9.36622 5.06215C9.36259 5.07549 9.35372 5.17133 9.34668 5.09731C9.34577 5.08774 9.3464 5.03818 9.34571 5.03383C9.33222 4.98422 9.33192 5.14368 9.32422 5.19789C9.31651 5.25197 9.30419 5.14183 9.30176 5.11C9.29551 5.02895 9.30601 5.07346 9.30665 5.06703C9.31066 4.97139 9.30253 4.98702 9.2959 4.97914C9.29494 4.82249 9.28571 4.83187 9.28907 4.97133C9.28945 4.98656 9.29457 4.97198 9.2959 4.97914C9.29008 5.13284 9.27983 5.15207 9.26856 5.00844C9.26334 4.94122 9.26795 4.86358 9.25196 4.89223C9.24498 4.9068 9.24747 5.012 9.24122 5.04164C9.2266 5.10852 9.20748 5.009 9.19239 5.02406C9.1869 5.02982 9.19223 5.08938 9.18848 5.09535C9.1786 5.11086 9.17008 5.06731 9.16016 5.08949C9.15929 5.09155 9.16087 5.14932 9.15821 5.15395C9.13465 5.16112 9.11347 5.12184 9.08887 5.12074C9.07691 5.12108 9.05611 5.15388 9.04395 5.14711C9.0227 5.13538 8.99671 5.04692 8.97852 5.06801C8.96663 5.08198 8.96897 5.14405 8.96387 5.18617C8.95404 5.26719 8.93692 5.1209 8.93458 5.09828C8.93282 5.0838 8.91233 5.07014 8.90821 5.08168C8.90602 5.08808 8.90735 5.14578 8.90625 5.14906C8.87893 5.20148 8.85096 5.21649 8.82325 5.1891C8.82277 5.18795 8.82328 5.12623 8.82227 5.12074C8.80623 5.09161 8.79644 5.17179 8.78321 5.21938C8.77004 5.26641 8.75977 5.25022 8.75196 5.13832C8.74198 5.15248 8.727 5.10209 8.71875 5.07191C8.71063 5.04352 8.70971 5.16999 8.70899 5.1725C8.68641 5.25282 8.67286 5.17994 8.64942 5.16859C8.63827 5.16339 8.61655 5.18115 8.6045 5.19496C8.59495 5.2062 8.58888 5.17683 8.58008 5.19594C8.57897 5.19991 8.58044 5.25531 8.58008 5.25746C8.57029 5.32514 8.57525 5.18682 8.57325 5.16176C8.5659 5.0716 8.56043 5.02364 8.54786 5.06606C8.54492 5.07821 8.53651 5.27289 8.53125 5.28676C8.5244 5.30155 8.52763 5.23091 8.52051 5.2477C8.51991 5.24908 8.51974 5.29137 8.51563 5.29164C8.49515 5.28323 8.47247 5.25737 8.45118 5.26137C8.44827 5.2618 8.45133 5.33076 8.44727 5.33363C8.42751 5.34191 8.40599 5.33971 8.38672 5.30727C8.38197 5.29898 8.38481 5.24967 8.38379 5.235C8.3776 5.1489 8.36898 5.26898 8.36719 5.27699C8.33186 5.33848 8.30455 5.22334 8.26856 5.27797C8.2666 5.28121 8.2509 5.41843 8.24415 5.30141C8.24368 5.29358 8.23734 5.17301 8.23145 5.25453C8.23108 5.25969 8.2348 5.32238 8.22754 5.31606C8.22028 5.31061 8.20911 5.35036 8.19922 5.28285C8.19607 5.26138 8.18813 5.14111 8.17872 5.23695C8.17806 5.24434 8.16438 5.45973 8.15918 5.31117C8.15834 5.28661 8.15864 5.12858 8.14747 5.20863C8.14533 5.2243 8.14912 5.25982 8.14356 5.28188C8.13489 5.31584 8.12394 5.27389 8.11329 5.34438C8.11141 5.35712 8.10302 5.46385 8.09668 5.38246C8.09572 5.36944 8.09709 5.31706 8.09375 5.31117C8.07791 5.28322 8.06199 5.3176 8.0459 5.28188C8.04021 5.26912 8.04293 5.18432 8.03711 5.16078C8.03114 5.1379 8.01895 5.1159 8.0127 5.15492C8.00657 5.19414 8.013 5.32817 8.00391 5.34047C7.96319 5.38777 7.9225 5.3082 7.88184 5.29652C7.87583 5.2948 7.88084 5.34315 7.87207 5.34438C7.83931 5.348 7.78234 5.39317 7.75391 5.28969C7.73134 5.207 7.76055 5.14367 7.74317 5.11C7.73483 5.09443 7.72574 5.25047 7.72364 5.25746C7.70386 5.30799 7.68967 5.2382 7.67188 5.25941C7.66832 5.26373 7.67157 5.32398 7.66895 5.3307C7.65833 5.34174 7.64688 5.31433 7.63672 5.31898C7.63214 5.32148 7.63216 5.37062 7.62793 5.36684C7.6179 5.35828 7.60941 5.33728 7.59961 5.29164C7.59873 5.28753 7.60455 5.22844 7.59766 5.22426C7.58557 5.22076 7.57056 5.1756 7.55665 5.22231C7.55252 5.23636 7.55183 5.34803 7.54297 5.27113C7.54111 5.25499 7.54355 5.1208 7.53321 5.23695C7.53125 5.25813 7.51432 5.4114 7.50586 5.31117C7.5036 5.28414 7.49714 5.17495 7.49219 5.19203C7.49152 5.19479 7.49435 5.2555 7.49024 5.26137C7.47593 5.28036 7.46098 5.27442 7.44629 5.29262C7.44238 5.29768 7.44785 5.3585 7.44239 5.36586C7.42611 5.38156 7.40559 5.36576 7.38965 5.34633C7.38377 5.33903 7.38715 5.28748 7.38672 5.28188C7.3799 5.1916 7.37632 5.31209 7.37403 5.32094C7.35983 5.36394 7.34903 5.30661 7.33594 5.32191C7.33256 5.32704 7.3346 5.38267 7.33399 5.3893C7.32656 5.44027 7.33178 5.33613 7.32715 5.32387C7.31393 5.29095 7.29951 5.29586 7.28614 5.30336C7.28146 5.3073 7.28654 5.37355 7.28223 5.37563C7.25614 5.38736 7.22859 5.38093 7.20313 5.3434C7.1985 5.33583 7.20208 5.28473 7.20118 5.27211C7.1943 5.18842 7.18398 5.30204 7.18165 5.31313C7.17109 5.36281 7.16655 5.31623 7.15723 5.32484C7.11175 5.36786 7.05568 5.33796 7.0127 5.31898C6.95666 5.29457 6.91282 5.24451 6.85938 5.25746C6.85651 5.26239 6.85928 5.32725 6.85645 5.32875C6.81881 5.34541 6.78186 5.31875 6.74415 5.33852C6.74109 5.34002 6.74485 5.40427 6.74024 5.41078C6.73001 5.42084 6.71738 5.41725 6.70704 5.39613C6.70228 5.38525 6.70803 5.33033 6.70313 5.32094C6.69134 5.29973 6.67911 5.29483 6.667 5.30531C6.6619 5.3099 6.6693 5.37588 6.66309 5.37856C6.61732 5.38526 6.57165 5.39679 6.5254 5.30922C6.52223 5.30299 6.51944 5.1657 6.5127 5.19203C6.51219 5.23017 6.51292 5.2753 6.5127 5.31606C6.44607 5.33802 6.37932 5.29022 6.3125 5.28285C6.31026 5.287 6.31472 5.35458 6.30957 5.35512C6.27801 5.35404 6.24714 5.37379 6.21485 5.30141C6.21182 5.29121 6.21342 5.16706 6.20411 5.18617C6.2022 5.18994 6.18829 5.20674 6.18457 5.23402C6.18408 5.23822 6.18623 5.29869 6.18165 5.30043C6.15516 5.30927 6.12702 5.29567 6.10059 5.25941C6.0963 5.2534 6.10072 5.18905 6.09766 5.18422C6.07605 5.15112 6.05287 5.19881 6.03223 5.14125C6.01837 5.10232 6.023 4.99179 6.01563 4.88344C6.01444 4.86861 6.00632 4.86551 6.00586 4.80336C6.00472 4.64493 6.00854 4.47126 6.00684 4.30238C6.00648 4.26605 5.99523 4.30476 6.00196 4.21742C6.00243 4.21154 6.01065 4.18183 6.0127 4.15199C6.01412 4.13133 6.01174 4.06705 6.01465 4.04066C6.01756 4.01481 6.02057 4.06769 6.0254 4.03676C6.03013 4.00524 6.0286 3.93347 6.03809 3.92445ZM9.60547 4.90199C9.5955 4.80311 9.58867 4.94863 9.59571 5.02504C9.60274 5.10122 9.60851 4.93198 9.60547 4.90199ZM6.04395 4.85023C6.04068 4.92137 6.05243 4.92712 6.04981 4.85316C6.0497 4.85019 6.0441 4.84728 6.04395 4.85023ZM9.81153 4.7516C9.80789 4.70861 9.79727 4.75772 9.80176 4.81117C9.80539 4.8541 9.81597 4.80496 9.81153 4.7516ZM8.2793 4.71059C8.2796 4.77144 8.28619 4.75412 8.28418 4.69789C8.28394 4.69461 8.27922 4.692 8.2793 4.71059ZM9.97266 4.50258C9.97729 4.5093 9.96137 4.58654 9.96778 4.61C9.97961 4.65304 9.98793 4.48841 10 4.5768C10.002 4.59465 9.98686 4.74859 9.98536 4.7477L9.96875 4.69984C9.95482 4.62224 9.95162 4.48036 9.97266 4.50258ZM8.6709 4.66566C8.66766 4.73644 8.68033 4.74154 8.67774 4.66762C8.67714 4.66479 8.67104 4.66284 8.6709 4.66566ZM8.01075 4.55336C8.00342 4.66945 8.03169 4.68143 8.0254 4.55922C8.02482 4.55296 8.01121 4.54759 8.01075 4.55336Z" fill="#555961"/>
<path d="M6.03809 6.5912C6.06051 6.57166 6.08998 6.5928 6.11231 6.62147C6.11885 6.63076 6.11578 6.66821 6.12012 6.67714C6.12956 6.69259 6.13911 6.67343 6.14844 6.69179C6.15147 6.69795 6.14752 6.75853 6.1504 6.76601C6.16813 6.79376 6.18517 6.77821 6.20313 6.7914C6.29175 6.85737 6.37905 6.88091 6.46875 6.90956C6.49837 6.91897 6.53485 6.97655 6.56543 6.95155C6.56876 6.94741 6.56682 6.8952 6.56739 6.88905C6.57804 6.81931 6.5741 6.93087 6.58106 6.94569C6.60862 7.00404 6.63949 7.00891 6.66602 6.98769C6.67731 6.97846 6.66642 6.86888 6.67774 6.93007C6.67853 6.93423 6.67562 6.99314 6.67872 6.9994C6.68559 7.01311 6.69844 7.00335 6.70411 7.00722C6.71461 7.01648 6.71664 7.01631 6.72657 7.01698C6.74005 7.0184 6.75603 7.04715 6.77051 7.03456C6.77357 7.03159 6.7698 6.97287 6.77442 6.96132C6.77938 6.9511 6.79245 6.95592 6.79688 6.97011C6.8013 6.98431 6.8 7.03154 6.80079 7.04237C6.80711 7.13183 6.8218 7.0121 6.82422 7.00429C6.85984 6.95092 6.89041 7.02296 6.92383 7.02284C6.94923 7.02253 6.97682 6.99809 7.00098 7.00136C7.02962 7.00569 7.05418 7.03819 7.08204 7.03261C7.08458 7.02854 7.08146 6.9611 7.08497 6.96034C7.1232 6.95218 7.16116 6.96051 7.19922 7.00819C7.20286 7.01397 7.19839 7.07481 7.20215 7.08339C7.22554 7.13444 7.26248 7.25716 7.27637 6.98671C7.29221 6.99726 7.31104 7.00841 7.3252 7.06288C7.3343 7.09799 7.3257 7.16497 7.33692 7.13612C7.33919 7.12813 7.33629 7.07189 7.33985 7.06581C7.35584 7.04412 7.37384 7.06323 7.38965 7.03261C7.39278 7.02559 7.39168 6.97276 7.39258 6.96327C7.40025 6.88658 7.41324 7.01453 7.41602 7.02382C7.43696 7.09217 7.45223 7.06559 7.47168 7.06679C7.47617 7.0672 7.47166 6.99931 7.47559 6.99452C7.49843 6.9843 7.52256 6.99022 7.54493 7.02187C7.54967 7.02996 7.54553 7.08941 7.54786 7.09608C7.55834 7.12425 7.56026 7.00977 7.57032 7.03456C7.57236 7.04003 7.57095 7.09026 7.57129 7.09706C7.57731 7.18623 7.5824 7.0612 7.58399 7.05702C7.60367 7.01869 7.61673 7.151 7.63575 7.13222C7.63754 7.12631 7.63345 7.06449 7.63965 7.0619C7.68217 7.04396 7.72747 7.06213 7.76954 7.11464C7.77564 7.12388 7.77108 7.17212 7.77149 7.17812C7.77811 7.27162 7.78202 7.14924 7.78418 7.14101C7.80105 7.10642 7.81765 7.2129 7.82911 7.06093C7.90044 7.1134 7.97125 7.02878 8.042 7.16444C8.04288 7.16599 8.04135 7.22666 8.04297 7.23183C8.06461 7.26711 8.06088 7.16963 8.0752 7.05019C8.07882 7.02058 8.08985 7.16463 8.09083 7.17519C8.09431 7.21403 8.09068 7.30637 8.0918 7.31483C8.1016 7.37407 8.10007 7.06493 8.11329 7.06483C8.11368 7.06571 8.1112 7.12267 8.11231 7.12831C8.11575 7.14578 8.11969 7.12343 8.12305 7.14296C8.13074 7.18842 8.13378 7.33786 8.14551 7.25136C8.14701 7.24001 8.14445 7.06436 8.15625 7.07265C8.16111 7.07601 8.1817 7.07306 8.1875 7.08437C8.19333 7.09573 8.18904 7.1522 8.18946 7.15468C8.20514 7.2293 8.19922 7.26025 8.20704 7.3705C8.21491 7.48072 8.21359 7.2182 8.2168 7.18886C8.22003 7.15999 8.23152 7.22103 8.23438 7.24257C8.23718 7.26377 8.233 7.29938 8.23536 7.3119C8.25204 7.39119 8.24353 7.18175 8.24903 7.14003C8.26194 7.04171 8.27139 7.23525 8.28321 7.25526C8.28637 7.26034 8.28446 7.21757 8.28711 7.2123C8.29841 7.19647 8.30553 7.25678 8.31836 7.20155C8.32047 7.19248 8.33018 7.07513 8.33692 7.16054C8.33787 7.17291 8.33507 7.22178 8.33985 7.2328C8.34704 7.2491 8.36042 7.25962 8.36817 7.24355C8.37389 7.23153 8.36781 7.15129 8.375 7.17616C8.37817 7.18738 8.37193 7.23443 8.37793 7.25136C8.38397 7.26804 8.39949 7.26566 8.40528 7.26405C8.4105 7.25958 8.40775 7.20163 8.40821 7.19765C8.41108 7.17444 8.42173 7.14527 8.42286 7.14491C8.47241 7.13752 8.51817 7.23961 8.56641 7.20644C8.57006 7.20396 8.56802 7.1445 8.56836 7.13905C8.58136 7.11222 8.57101 7.28226 8.58008 7.33925C8.57877 7.2093 8.5846 7.23241 8.59375 7.21815C8.59799 7.2104 8.59531 7.16075 8.59571 7.15565C8.60224 7.07978 8.60723 7.17846 8.6084 7.19862C8.61273 7.27262 8.61718 7.18514 8.62012 7.23476C8.62301 7.28337 8.61676 7.35482 8.625 7.35585C8.62744 7.30928 8.62133 7.1883 8.62793 7.16835C8.65308 7.09383 8.70049 7.18872 8.72071 7.19862C8.74071 7.20835 8.74708 7.20043 8.75879 7.21718C8.77997 7.24736 8.77198 7.15686 8.78516 7.11562C8.79821 7.07608 8.79209 7.296 8.79395 7.34413C8.79582 7.39181 8.79749 7.34331 8.79981 7.36952C8.80207 7.39568 8.79732 7.42807 8.80274 7.43788C8.8082 7.44751 8.82326 7.36272 8.8252 7.31288C8.82928 7.20729 8.82256 7.09644 8.83692 7.13515C8.83773 7.13742 8.83496 7.19409 8.8379 7.20155C8.8631 7.24647 8.88987 7.24971 8.91504 7.28944C8.91827 7.2964 8.91508 7.35909 8.917 7.36366C8.93797 7.40517 8.9309 7.29576 8.94239 7.17421C8.93981 7.3358 8.94603 7.43479 8.96192 7.43593C8.97149 7.43656 8.97038 7.36562 8.97657 7.31581C8.97847 7.30166 8.98511 7.34884 8.98633 7.31581C8.99033 7.20751 8.98373 7.08656 9 7.13417C9.00072 7.13644 8.99865 7.19458 9.00098 7.1996C9.01702 7.2231 9.01889 7.11039 9.03614 7.09608C9.04974 7.08531 9.07433 7.15393 9.08985 7.16542C9.08952 7.34713 9.1044 7.30615 9.11036 7.18105C9.12025 7.18573 9.13108 7.17894 9.14063 7.19569C9.14396 7.20157 9.14219 7.25398 9.14258 7.26015C9.14897 7.3481 9.15307 7.2311 9.15528 7.22304C9.17884 7.17653 9.19822 7.2685 9.22071 7.17812C9.22151 7.17139 9.2226 7.05011 9.22852 7.14101C9.22889 7.1475 9.22186 7.20493 9.23243 7.20937C9.24306 7.21469 9.26277 7.28093 9.27735 7.22304C9.2809 7.20897 9.28967 7.10666 9.29688 7.18593C9.29784 7.19675 9.29748 7.23308 9.29883 7.25331C9.30331 7.31747 9.3053 7.1906 9.31055 7.29823C9.31582 7.40673 9.32699 7.48833 9.3418 7.41347C9.34235 7.40855 9.346 7.31033 9.35059 7.3119C9.35796 7.31489 9.36832 7.33572 9.37598 7.33534C9.37956 7.335 9.37752 7.27625 9.37793 7.27089C9.40289 7.23572 9.42057 7.29143 9.44727 7.31581C9.45218 7.32039 9.46706 7.23454 9.47657 7.30214C9.487 7.37629 9.47606 7.68484 9.5 7.61171C9.50968 7.5823 9.52168 7.19109 9.53907 7.39394C9.57276 7.34371 9.60392 7.4468 9.6377 7.37538C9.6392 7.37225 9.64391 7.26612 9.64747 7.26405C9.65275 7.26646 9.65639 7.31695 9.66016 7.32069C9.67586 7.3359 9.68996 7.29359 9.70508 7.29921C9.7108 7.30164 9.70928 7.35337 9.71583 7.3578C9.72274 7.3607 9.72795 7.29139 9.73731 7.3246C9.7444 7.3502 9.75134 7.4926 9.76075 7.50917C9.76111 7.36897 9.76781 7.37137 9.7793 7.33437C9.7813 7.32581 9.77925 7.27864 9.78028 7.27284C9.78451 7.24802 9.78798 7.28781 9.792 7.26112C9.79297 7.25464 9.79318 7.20762 9.79395 7.19862C9.80078 7.12811 9.81253 7.23554 9.81446 7.25429C9.82185 7.32533 9.82441 7.26337 9.83008 7.2914C9.83572 7.31942 9.82737 7.35448 9.83399 7.37147C9.84771 7.40666 9.86595 7.39857 9.87989 7.40077C9.88495 7.39924 9.88122 7.33973 9.88184 7.33632C9.89333 7.32013 9.90573 7.38791 9.91211 7.26112C9.92007 7.58917 9.91918 7.22957 9.93555 7.29433C9.93685 7.29966 9.93759 7.45605 9.93262 7.4789C9.92765 7.50062 9.92092 7.45328 9.91407 7.48866C9.91231 7.49946 9.90264 7.643 9.90137 7.65175C9.89142 7.7196 9.89018 7.48774 9.88965 7.47499C9.88365 7.3372 9.87216 7.49441 9.86915 7.50526C9.85538 7.55493 9.84355 7.5225 9.83204 7.558C9.82457 7.58177 9.82328 7.73257 9.81739 7.72792C9.79808 7.70952 9.79085 7.50214 9.77247 7.68495C9.76854 7.72475 9.773 7.88982 9.75879 7.75917C9.75766 7.74817 9.74724 7.63264 9.74122 7.70741C9.74045 7.71714 9.74027 7.76585 9.73926 7.76991C9.73254 7.79552 9.72805 7.75741 9.72071 7.77577C9.71332 7.79429 9.70375 7.82153 9.69532 7.80507C9.69027 7.7934 9.68405 7.70491 9.68165 7.683C9.67479 7.61932 9.66735 7.72346 9.66309 7.64687C9.6588 7.56925 9.66751 7.45092 9.65625 7.40077C9.65584 7.52686 9.65497 7.65678 9.6543 7.78358C9.62964 7.77914 9.60483 7.73797 9.58008 7.74355C9.57725 7.74637 9.58038 7.81218 9.57715 7.81483C9.56335 7.82554 9.5514 7.7779 9.53711 7.79628C9.52597 7.81144 9.51361 7.88367 9.50196 7.90175C9.49488 7.75827 9.47739 7.80578 9.46485 7.79335C9.4605 7.78884 9.46103 7.75068 9.45801 7.73769C9.44625 7.69132 9.45142 7.81765 9.44825 7.83827C9.43445 7.92337 9.43307 7.63953 9.417 7.64296C9.41571 7.65027 9.40485 7.79509 9.40333 7.80605C9.39411 7.8681 9.40208 7.75425 9.39649 7.74159C9.3859 7.72084 9.37863 7.68399 9.36622 7.7289C9.36259 7.74224 9.35372 7.83808 9.34668 7.76405C9.34577 7.75449 9.3464 7.70493 9.34571 7.70058C9.33222 7.65097 9.33192 7.81043 9.32422 7.86464C9.31651 7.91872 9.30419 7.80858 9.30176 7.77675C9.29551 7.69569 9.30601 7.74021 9.30665 7.73378C9.31066 7.63814 9.30253 7.65377 9.2959 7.64589C9.29494 7.48924 9.28571 7.49862 9.28907 7.63808C9.28945 7.65331 9.29457 7.63873 9.2959 7.64589C9.29008 7.79959 9.27983 7.81882 9.26856 7.67519C9.26334 7.60797 9.26795 7.53032 9.25196 7.55897C9.24498 7.57355 9.24747 7.67874 9.24122 7.70839C9.2266 7.77527 9.20748 7.67575 9.19239 7.69081C9.1869 7.69657 9.19223 7.75613 9.18848 7.7621C9.1786 7.77761 9.17008 7.73405 9.16016 7.75624C9.15929 7.7583 9.16087 7.81606 9.15821 7.82069C9.13465 7.82787 9.11347 7.78859 9.08887 7.78749C9.07691 7.78783 9.05611 7.82063 9.04395 7.81386C9.0227 7.80213 8.99671 7.71367 8.97852 7.73476C8.96663 7.74873 8.96897 7.8108 8.96387 7.85292C8.95404 7.93394 8.93692 7.78765 8.93458 7.76503C8.93282 7.75055 8.91233 7.73689 8.90821 7.74843C8.90602 7.75483 8.90735 7.81253 8.90625 7.81581C8.87893 7.86823 8.85096 7.88324 8.82325 7.85585C8.82277 7.8547 8.82328 7.79298 8.82227 7.78749C8.80623 7.75836 8.79644 7.83854 8.78321 7.88612C8.77004 7.93315 8.75977 7.91697 8.75196 7.80507C8.74198 7.81923 8.727 7.76883 8.71875 7.73866C8.71063 7.71027 8.70971 7.83674 8.70899 7.83925C8.68641 7.91957 8.67286 7.84669 8.64942 7.83534C8.63827 7.83014 8.61655 7.8479 8.6045 7.86171C8.59495 7.87294 8.58888 7.84358 8.58008 7.86269C8.57897 7.86666 8.58044 7.92205 8.58008 7.92421C8.57029 7.99188 8.57525 7.85357 8.57325 7.82851C8.5659 7.73835 8.56043 7.69039 8.54786 7.7328C8.54492 7.74496 8.53651 7.93964 8.53125 7.95351C8.5244 7.96829 8.52763 7.89766 8.52051 7.91444C8.51991 7.91583 8.51974 7.95812 8.51563 7.95839C8.49515 7.94998 8.47247 7.92412 8.45118 7.92812C8.44827 7.92855 8.45133 7.99751 8.44727 8.00038C8.42751 8.00866 8.40599 8.00646 8.38672 7.97401C8.38197 7.96573 8.38481 7.91642 8.38379 7.90175C8.3776 7.81565 8.36898 7.93573 8.36719 7.94374C8.33186 8.00523 8.30455 7.89009 8.26856 7.94472C8.2666 7.94795 8.2509 8.08518 8.24415 7.96815C8.24368 7.96033 8.23734 7.83976 8.23145 7.92128C8.23108 7.92644 8.2348 7.98913 8.22754 7.9828C8.22028 7.97736 8.20911 8.01711 8.19922 7.9496C8.19607 7.92812 8.18813 7.80786 8.17872 7.9037C8.17806 7.91109 8.16438 8.12648 8.15918 7.97792C8.15834 7.95336 8.15864 7.79533 8.14747 7.87538C8.14533 7.89104 8.14912 7.92657 8.14356 7.94862C8.13489 7.98259 8.12394 7.94064 8.11329 8.01112C8.11141 8.02386 8.10302 8.1306 8.09668 8.04921C8.09572 8.03619 8.09709 7.98381 8.09375 7.97792C8.07791 7.94996 8.06199 7.98435 8.0459 7.94862C8.04021 7.93586 8.04293 7.85107 8.03711 7.82753C8.03114 7.80465 8.01895 7.78265 8.0127 7.82167C8.00657 7.86088 8.013 7.99492 8.00391 8.00722C7.96319 8.05452 7.9225 7.97495 7.88184 7.96327C7.87583 7.96155 7.88084 8.0099 7.87207 8.01112C7.83931 8.01475 7.78234 8.05992 7.75391 7.95644C7.73134 7.87375 7.76055 7.81042 7.74317 7.77675C7.73483 7.76118 7.72574 7.91722 7.72364 7.92421C7.70386 7.97474 7.68967 7.90495 7.67188 7.92616C7.66832 7.93048 7.67157 7.99073 7.66895 7.99745C7.65833 8.00848 7.64688 7.98108 7.63672 7.98573C7.63214 7.98823 7.63216 8.03736 7.62793 8.03358C7.6179 8.02503 7.60941 8.00403 7.59961 7.95839C7.59873 7.95428 7.60455 7.89519 7.59766 7.89101C7.58557 7.88751 7.57056 7.84235 7.55665 7.88905C7.55252 7.90311 7.55183 8.01477 7.54297 7.93788C7.54111 7.92173 7.54355 7.78755 7.53321 7.9037C7.53125 7.92488 7.51432 8.07815 7.50586 7.97792C7.5036 7.95089 7.49714 7.8417 7.49219 7.85878C7.49152 7.86154 7.49435 7.92225 7.49024 7.92812C7.47593 7.94711 7.46098 7.94116 7.44629 7.95937C7.44238 7.96443 7.44785 8.02524 7.44239 8.03261C7.42611 8.04831 7.40559 8.03251 7.38965 8.01308C7.38377 8.00578 7.38715 7.95423 7.38672 7.94862C7.3799 7.85834 7.37632 7.97884 7.37403 7.98769C7.35983 8.03068 7.34903 7.97335 7.33594 7.98866C7.33256 7.99379 7.3346 8.04942 7.33399 8.05605C7.32656 8.10702 7.33178 8.00288 7.32715 7.99062C7.31393 7.9577 7.29951 7.9626 7.28614 7.97011C7.28146 7.97405 7.28654 8.0403 7.28223 8.04237C7.25614 8.05411 7.22859 8.04768 7.20313 8.01015C7.1985 8.00257 7.20208 7.95148 7.20118 7.93886C7.1943 7.85516 7.18398 7.96879 7.18165 7.97987C7.17109 8.02956 7.16655 7.98298 7.15723 7.99159C7.11175 8.03461 7.05568 8.00471 7.0127 7.98573C6.95666 7.96132 6.91282 7.91126 6.85938 7.92421C6.85651 7.92914 6.85928 7.994 6.85645 7.9955C6.81881 8.01215 6.78186 7.98549 6.74415 8.00526C6.74109 8.00677 6.74485 8.07102 6.74024 8.07753C6.73001 8.08759 6.71738 8.08399 6.70704 8.06288C6.70228 8.05199 6.70803 7.99708 6.70313 7.98769C6.69134 7.96648 6.67911 7.96158 6.667 7.97206C6.6619 7.97665 6.6693 8.04263 6.66309 8.0453C6.61732 8.05201 6.57165 8.06354 6.5254 7.97597C6.52223 7.96974 6.51944 7.83244 6.5127 7.85878C6.51219 7.89691 6.51292 7.94205 6.5127 7.9828C6.44607 8.00476 6.37932 7.95697 6.3125 7.9496C6.31026 7.95375 6.31472 8.02133 6.30957 8.02187C6.27801 8.02079 6.24714 8.04054 6.21485 7.96815C6.21182 7.95796 6.21342 7.83381 6.20411 7.85292C6.2022 7.85669 6.18829 7.87349 6.18457 7.90077C6.18408 7.90497 6.18623 7.96544 6.18165 7.96718C6.15516 7.97601 6.12702 7.96242 6.10059 7.92616C6.0963 7.92015 6.10072 7.8558 6.09766 7.85097C6.07605 7.81787 6.05287 7.86556 6.03223 7.808C6.01837 7.76907 6.023 7.65854 6.01563 7.55019C6.01444 7.53536 6.00632 7.53226 6.00586 7.47011C6.00472 7.31167 6.00854 7.13801 6.00684 6.96913C6.00648 6.9328 5.99523 6.9715 6.00196 6.88417C6.00243 6.87828 6.01065 6.84858 6.0127 6.81874C6.01412 6.79807 6.01174 6.7338 6.01465 6.70741C6.01756 6.68156 6.02057 6.73444 6.0254 6.70351C6.03013 6.67198 6.0286 6.60021 6.03809 6.5912ZM9.60547 7.56874C9.5955 7.46986 9.58867 7.61538 9.59571 7.69179C9.60274 7.76797 9.60851 7.59873 9.60547 7.56874ZM6.04395 7.51698C6.04068 7.58812 6.05243 7.59386 6.04981 7.51991C6.0497 7.51693 6.0441 7.51403 6.04395 7.51698ZM9.81153 7.41835C9.80789 7.37536 9.79727 7.42447 9.80176 7.47792C9.80539 7.52085 9.81597 7.47171 9.81153 7.41835ZM8.2793 7.37733C8.2796 7.43819 8.28619 7.42086 8.28418 7.36464C8.28394 7.36136 8.27922 7.35875 8.2793 7.37733ZM9.97266 7.16933C9.97729 7.17605 9.96137 7.25329 9.96778 7.27675C9.97961 7.31979 9.98793 7.15516 10 7.24355C10.002 7.2614 9.98686 7.41534 9.98536 7.41444L9.96875 7.36659C9.95482 7.28899 9.95162 7.14711 9.97266 7.16933ZM8.6709 7.33241C8.66766 7.40318 8.68033 7.40829 8.67774 7.33437C8.67714 7.33154 8.67104 7.32959 8.6709 7.33241ZM8.01075 7.22011C8.00342 7.3362 8.03169 7.34817 8.0254 7.22597C8.02482 7.21971 8.01121 7.21434 8.01075 7.22011Z" fill="#555961"/>
<path d="M6.02539 9.25783C6.04034 9.23829 6.06031 9.25942 6.0752 9.2881C6.07946 9.29768 6.07719 9.33493 6.08008 9.34377C6.08635 9.35916 6.09244 9.34038 6.09863 9.35841C6.10066 9.3646 6.09863 9.42553 6.10059 9.43263C6.11244 9.46046 6.12374 9.44464 6.13574 9.45802C6.1948 9.52396 6.25273 9.54755 6.3125 9.57619C6.33224 9.58559 6.35657 9.64317 6.37696 9.61818C6.37921 9.61445 6.37756 9.56198 6.37793 9.55568C6.38503 9.48594 6.38306 9.59749 6.3877 9.61232C6.40608 9.67058 6.42665 9.67561 6.44434 9.65431C6.45172 9.64434 6.44463 9.53571 6.45215 9.59669C6.45267 9.60084 6.45013 9.65932 6.45215 9.66603C6.45677 9.67991 6.466 9.66968 6.46973 9.67384C6.47673 9.6831 6.47776 9.68294 6.48438 9.68361C6.49337 9.68502 6.50401 9.71381 6.51367 9.70119C6.51572 9.69821 6.51348 9.63921 6.5166 9.62794C6.51991 9.61772 6.5283 9.62255 6.53125 9.63673C6.53418 9.65103 6.53366 9.69818 6.53418 9.709C6.53841 9.79864 6.54822 9.67824 6.54981 9.67091C6.57356 9.61751 6.59391 9.68967 6.61621 9.68947C6.63302 9.68891 6.651 9.66487 6.66699 9.66798C6.68605 9.67208 6.70222 9.70428 6.72071 9.69923C6.72267 9.69871 6.72123 9.62775 6.72363 9.62697C6.74901 9.61898 6.77454 9.62735 6.79981 9.67482C6.80212 9.68148 6.79926 9.7416 6.80176 9.75002C6.81735 9.80108 6.84133 9.92371 6.85059 9.65334C6.86115 9.6639 6.87434 9.67499 6.88379 9.72951C6.88983 9.76465 6.88413 9.83157 6.8916 9.80275C6.8931 9.79432 6.89109 9.73759 6.89356 9.73244C6.9042 9.71076 6.91525 9.72972 6.92578 9.69923C6.92793 9.69287 6.92811 9.63946 6.92871 9.6299C6.93382 9.55326 6.94249 9.68116 6.94434 9.69044C6.95839 9.75923 6.96835 9.7318 6.98145 9.73341C6.98377 9.72838 6.98103 9.66689 6.9834 9.66115C6.99861 9.65093 7.0144 9.65692 7.0293 9.68849C7.03258 9.69562 7.0298 9.75496 7.03125 9.76271C7.03824 9.79087 7.04018 9.67639 7.04688 9.70119C7.04825 9.70661 7.04763 9.75695 7.04785 9.76369C7.05189 9.85336 7.05561 9.72645 7.05664 9.72365C7.06973 9.68597 7.07817 9.81759 7.09082 9.79884C7.09197 9.79253 7.0888 9.73196 7.09278 9.72853C7.12118 9.71036 7.15157 9.72862 7.17969 9.78127C7.18379 9.79038 7.18039 9.83873 7.18067 9.84474C7.18509 9.93844 7.18801 9.81551 7.18946 9.80763C7.2007 9.77304 7.21111 9.87952 7.21875 9.72755C7.26634 9.78025 7.31414 9.69535 7.36133 9.83107C7.36192 9.83262 7.36119 9.89386 7.36231 9.89845C7.37673 9.93374 7.37327 9.83626 7.38281 9.71681C7.38522 9.6869 7.39291 9.83124 7.39356 9.84181C7.39588 9.8806 7.39379 9.97285 7.39453 9.98146C7.401 10.0401 7.39966 9.73742 7.40821 9.73146C7.40848 9.73198 7.40747 9.78928 7.40821 9.79494C7.41049 9.81232 7.4128 9.79007 7.41504 9.80959C7.42017 9.85498 7.42187 10.0043 7.42969 9.91798C7.43068 9.90664 7.42963 9.73099 7.4375 9.73927C7.44078 9.74258 7.45412 9.7398 7.45801 9.75099C7.4619 9.76234 7.45969 9.81886 7.45996 9.8213C7.47041 9.89588 7.46647 9.92689 7.47168 10.0371C7.47693 10.1473 7.4754 9.88483 7.47754 9.85548C7.47969 9.82652 7.48734 9.88759 7.48926 9.90919C7.49113 9.93041 7.48866 9.96603 7.49024 9.97853C7.50136 10.0578 7.49536 9.84838 7.49903 9.80666C7.50766 9.70792 7.51456 9.90279 7.52246 9.92189C7.52455 9.92691 7.52273 9.88489 7.52442 9.87892C7.53194 9.86311 7.53639 9.92313 7.54492 9.86818C7.54633 9.8591 7.5541 9.74167 7.5586 9.82716C7.55923 9.83957 7.55733 9.88855 7.56055 9.89943C7.56536 9.91564 7.57396 9.92631 7.5791 9.91017C7.58291 9.89817 7.57823 9.81811 7.58301 9.84279C7.58514 9.85389 7.58096 9.90103 7.58496 9.91798C7.58898 9.93474 7.59965 9.93229 7.60352 9.93068C7.60696 9.92595 7.60517 9.86825 7.60547 9.86427C7.60739 9.84098 7.61453 9.81171 7.61524 9.81154C7.64829 9.80414 7.67877 9.90635 7.71094 9.87306C7.71338 9.87058 7.71266 9.81088 7.71289 9.80568C7.72155 9.77885 7.71465 9.94889 7.72071 10.0059C7.71983 9.87593 7.72339 9.89903 7.72949 9.88478C7.73226 9.87664 7.73021 9.82735 7.73047 9.82228C7.73482 9.74644 7.73848 9.84508 7.73926 9.86525C7.74215 9.93923 7.74511 9.85177 7.74707 9.90138C7.74899 9.94992 7.74454 10.0212 7.75 10.0225C7.75162 9.97591 7.74755 9.85493 7.75196 9.83498C7.76864 9.76083 7.79989 9.85456 7.81348 9.86525C7.82691 9.87513 7.83105 9.86709 7.83887 9.8838C7.85303 9.9142 7.84766 9.82352 7.85645 9.78224C7.86515 9.74263 7.86107 9.96261 7.86231 10.0108C7.86355 10.0584 7.86564 10.0099 7.86719 10.0361C7.86869 10.0623 7.86553 10.0947 7.86914 10.1045C7.87289 10.1116 7.88252 10.0287 7.88379 9.97951C7.88651 9.87383 7.882 9.7628 7.8916 9.80177C7.89215 9.80408 7.89051 9.86181 7.89258 9.86818C7.90938 9.9131 7.92658 9.91634 7.94336 9.95607C7.94553 9.96306 7.94399 10.0264 7.94531 10.0303C7.95923 10.0713 7.95427 9.96222 7.96192 9.84084C7.9602 10.0024 7.96402 10.1014 7.97461 10.1026C7.98099 10.1032 7.98025 10.0322 7.98438 9.98244C7.98564 9.96818 7.98942 10.0155 7.99024 9.98244C7.9929 9.87414 7.98916 9.75322 8 9.8008C8.00048 9.80308 7.99938 9.86175 8.00098 9.86623C8.0117 9.8898 8.01282 9.77647 8.02442 9.76271C8.03343 9.75232 8.04923 9.81985 8.05957 9.83205C8.05936 10.0137 8.06927 9.97276 8.07324 9.84767C8.07988 9.85257 8.08734 9.84546 8.09375 9.86232C8.09597 9.86819 8.09447 9.92049 8.09473 9.92677C8.09898 10.0147 8.10205 9.89782 8.10352 9.88966C8.11923 9.84316 8.13247 9.93513 8.14746 9.84474C8.148 9.83783 8.1484 9.71681 8.15235 9.80763C8.15259 9.81415 8.14823 9.87155 8.15528 9.87599C8.1624 9.8823 8.17494 9.94697 8.18457 9.88966C8.18694 9.87559 8.19344 9.77323 8.19824 9.85255C8.19888 9.86337 8.19832 9.8997 8.19922 9.91994C8.20221 9.9841 8.20353 9.85722 8.20703 9.96486C8.21055 10.0734 8.21767 10.155 8.22754 10.0801C8.22789 10.0757 8.23044 9.98143 8.2334 9.97853C8.23836 9.98117 8.2458 10.0026 8.25098 10.002C8.25331 10.001 8.25168 9.94282 8.25196 9.93752C8.26862 9.90229 8.28098 9.95812 8.29883 9.98244C8.3024 9.98072 8.31128 9.90378 8.31738 9.96877C8.32434 10.0429 8.31708 10.3511 8.33301 10.2783C8.33946 10.2489 8.34779 9.85772 8.35938 10.0606C8.38183 10.0104 8.4023 10.1133 8.42481 10.042C8.42581 10.0389 8.42927 9.93195 8.43164 9.93068C8.43506 9.93302 8.43705 9.98102 8.43946 9.98732C8.45004 10.0027 8.4605 9.95904 8.47071 9.96584C8.47453 9.96861 8.47293 10.0215 8.47754 10.0244C8.48214 10.0271 8.48499 9.95827 8.49121 9.99123C8.49593 10.0168 8.50057 10.159 8.50684 10.1758C8.50708 10.0356 8.51187 10.038 8.51953 10.001C8.52087 9.99248 8.51885 9.94527 8.51953 9.93947C8.52236 9.91442 8.52564 9.95455 8.52832 9.92775C8.52897 9.92126 8.52878 9.87424 8.5293 9.86525C8.53385 9.79474 8.54168 9.90216 8.54297 9.92091C8.5479 9.99199 8.54993 9.92999 8.55371 9.95802C8.55744 9.98603 8.55224 10.0211 8.55664 10.0381C8.56578 10.073 8.57764 10.0652 8.58692 10.0674C8.58995 10.0632 8.58747 10.0059 8.58789 10.0029C8.59555 9.98675 8.60317 10.0545 8.60742 9.92775C8.61272 10.2555 8.61216 9.89702 8.62305 9.96095C8.62391 9.96628 8.62539 10.1227 8.62207 10.1455C8.61876 10.1675 8.61395 10.1199 8.60938 10.1553C8.60819 10.1664 8.60143 10.3096 8.60059 10.3184C8.59396 10.3861 8.59313 10.1544 8.59278 10.1416C8.58877 10.0039 8.58111 10.161 8.5791 10.1719C8.56993 10.2214 8.56236 10.1891 8.55469 10.2246C8.54972 10.2485 8.54885 10.3992 8.54492 10.3945C8.53206 10.376 8.52788 10.1688 8.51563 10.3516C8.513 10.3913 8.51534 10.5565 8.50586 10.4258C8.5051 10.4147 8.49816 10.2993 8.49414 10.374C8.49364 10.3838 8.49384 10.4325 8.49317 10.4365C8.48868 10.4622 8.48537 10.424 8.48047 10.4424C8.47555 10.4609 8.46949 10.4881 8.46387 10.4717C8.46049 10.4606 8.45571 10.3716 8.4541 10.3496C8.44953 10.2859 8.44522 10.3901 8.44238 10.3135C8.43952 10.2359 8.44501 10.1175 8.4375 10.0674C8.43722 10.1935 8.436 10.3234 8.43555 10.4502C8.41922 10.4453 8.40311 10.4046 8.38672 10.4102C8.38479 10.4125 8.38693 10.4789 8.38477 10.4815C8.37552 10.4922 8.36701 10.4437 8.35742 10.4629C8.35 10.4781 8.34273 10.5503 8.33496 10.5684C8.33023 10.4245 8.31794 10.4728 8.30957 10.46C8.30666 10.4555 8.30673 10.4172 8.30469 10.4043C8.29684 10.3579 8.30095 10.4843 8.29883 10.5049C8.28958 10.5905 8.28826 10.3025 8.27735 10.3096C8.27644 10.3182 8.27057 10.4611 8.26953 10.4727C8.2634 10.5346 8.26834 10.4212 8.26465 10.4082C8.25759 10.3875 8.25243 10.3506 8.24414 10.3955C8.24173 10.4089 8.23614 10.5047 8.23145 10.4307C8.23084 10.4211 8.23094 10.3714 8.23047 10.3672C8.22148 10.3176 8.22096 10.4771 8.21582 10.5313C8.21068 10.5853 8.20279 10.4752 8.20117 10.4434C8.19699 10.3621 8.20469 10.4072 8.20508 10.4004C8.20776 10.3046 8.20169 10.3205 8.19727 10.3125C8.19663 10.1559 8.19014 10.1653 8.19238 10.3047C8.19264 10.3199 8.19638 10.3054 8.19727 10.3125C8.19338 10.4662 8.18622 10.4854 8.17871 10.3418C8.17524 10.2746 8.17863 10.197 8.16797 10.2256C8.16333 10.2402 8.16529 10.3453 8.16113 10.375C8.15137 10.442 8.138 10.3419 8.12793 10.3574C8.12427 10.3632 8.12848 10.4228 8.12598 10.4287C8.11936 10.4445 8.11309 10.4003 8.10645 10.4229C8.10586 10.4249 8.10723 10.4825 8.10547 10.4873C8.08977 10.4945 8.07596 10.4553 8.05957 10.4541C8.05165 10.4536 8.03751 10.4873 8.0293 10.4805C8.01511 10.4684 7.99746 10.3796 7.98535 10.4014C7.97747 10.4155 7.97898 10.4775 7.97559 10.5195C7.96903 10.6005 7.95762 10.4543 7.95606 10.4317C7.95485 10.4172 7.94118 10.4034 7.93848 10.4151C7.93702 10.4215 7.93825 10.4796 7.9375 10.4824C7.91935 10.5347 7.90122 10.5495 7.88281 10.5225C7.8825 10.5213 7.88249 10.4601 7.88184 10.4541C7.87114 10.425 7.86429 10.5052 7.85547 10.5527C7.8467 10.5997 7.83919 10.5836 7.83399 10.4717C7.82734 10.4846 7.81795 10.4352 7.8125 10.4053C7.80708 10.3768 7.80615 10.5034 7.80567 10.5059C7.79065 10.5859 7.78217 10.5135 7.7666 10.502C7.75923 10.4964 7.74443 10.5144 7.73633 10.5283C7.72997 10.5396 7.72559 10.5102 7.71973 10.5293C7.719 10.5335 7.71997 10.5887 7.71973 10.5908C7.7132 10.6585 7.71619 10.52 7.71485 10.4951C7.70995 10.405 7.7076 10.357 7.69922 10.3994C7.69729 10.4098 7.69102 10.6053 7.6875 10.6201C7.68292 10.635 7.68449 10.5637 7.67969 10.5811C7.67929 10.5831 7.67968 10.6267 7.67676 10.625C7.66302 10.6166 7.64807 10.5904 7.63379 10.5947C7.6319 10.5952 7.63426 10.6613 7.63184 10.667C7.61865 10.6753 7.60368 10.6732 7.59082 10.6406C7.58765 10.6324 7.58955 10.583 7.58887 10.5684C7.58474 10.4822 7.57931 10.6026 7.57813 10.6104C7.55453 10.6719 7.53577 10.5561 7.51172 10.6113C7.5104 10.6148 7.5006 10.7517 7.4961 10.6348C7.49579 10.627 7.49123 10.5064 7.48731 10.5879C7.48706 10.593 7.49005 10.6548 7.48535 10.6494C7.48052 10.6431 7.47247 10.6844 7.46582 10.6162C7.46372 10.5948 7.4594 10.4745 7.45313 10.5703C7.45272 10.577 7.44292 10.7934 7.43946 10.6445C7.4389 10.62 7.43909 10.462 7.43164 10.542C7.43022 10.5577 7.43243 10.5932 7.42871 10.6152C7.42293 10.6492 7.41531 10.6073 7.40821 10.6777C7.40694 10.6909 7.40168 10.797 7.39746 10.7158C7.39682 10.7029 7.39864 10.6512 7.39649 10.6445C7.38589 10.6162 7.37405 10.6514 7.36328 10.6152C7.35948 10.6025 7.36134 10.5175 7.35742 10.4942C7.35344 10.4713 7.34597 10.4493 7.3418 10.4883C7.33771 10.5276 7.34203 10.6618 7.33594 10.6738C7.30889 10.721 7.28189 10.642 7.25488 10.6299C7.25087 10.6282 7.25391 10.6766 7.24805 10.6777C7.22621 10.6814 7.18888 10.7265 7.16992 10.6231C7.15483 10.5403 7.1737 10.4771 7.16211 10.4434C7.15653 10.4287 7.14979 10.5859 7.14844 10.5908C7.13525 10.6413 7.12614 10.5713 7.11426 10.5928C7.11192 10.5975 7.1141 10.6579 7.11231 10.6641C7.10517 10.6752 7.09764 10.6471 7.09082 10.6524C7.08799 10.6557 7.08836 10.6999 7.08594 10.7002C7.07921 10.6917 7.07297 10.6709 7.06641 10.625C7.06581 10.6208 7.06944 10.5599 7.06446 10.5576C7.05644 10.5533 7.04629 10.5094 7.03711 10.5557C7.03439 10.5704 7.0342 10.6812 7.02832 10.6045C7.02708 10.5884 7.02936 10.4542 7.02246 10.5703C7.02116 10.5914 7.00955 10.7448 7.00391 10.6445C7.0024 10.6176 6.99841 10.509 6.99512 10.5254C6.99467 10.5282 6.99689 10.5889 6.99414 10.5947C6.98454 10.6141 6.97373 10.6075 6.96387 10.626C6.96122 10.6311 6.96489 10.6935 6.96094 10.6992C6.95007 10.7149 6.93641 10.6992 6.92578 10.6797C6.92205 10.6716 6.92509 10.6208 6.92481 10.6152C6.92026 10.5248 6.91754 10.6456 6.91602 10.6543C6.90655 10.6973 6.89935 10.64 6.89063 10.6553C6.88844 10.6611 6.89005 10.716 6.88965 10.7227C6.8847 10.7736 6.88783 10.6697 6.88477 10.6572C6.87595 10.6243 6.86634 10.6292 6.85742 10.6367C6.85448 10.642 6.85737 10.7073 6.85449 10.709C6.83719 10.7205 6.81962 10.714 6.80274 10.6768C6.79957 10.6697 6.80139 10.6182 6.80078 10.6055C6.7962 10.5218 6.78965 10.6353 6.78809 10.6465C6.78108 10.696 6.77765 10.65 6.77149 10.6582C6.74112 10.7013 6.70347 10.6713 6.67481 10.6524C6.63745 10.6279 6.60886 10.5779 6.57324 10.5908C6.57129 10.5942 6.57284 10.656 6.57129 10.6621C6.54619 10.6789 6.52124 10.6522 6.4961 10.6719C6.49405 10.6734 6.49627 10.7379 6.49317 10.7442C6.48634 10.7542 6.4776 10.7506 6.47071 10.7295C6.46768 10.7181 6.47193 10.6639 6.46875 10.6543C6.46087 10.633 6.45244 10.6281 6.44434 10.6387C6.44105 10.6443 6.44585 10.7112 6.44141 10.7119C6.41105 10.7186 6.38127 10.7296 6.35059 10.6426C6.34847 10.6366 6.34629 10.499 6.3418 10.5254C6.34146 10.5635 6.34195 10.6087 6.3418 10.6494C6.29751 10.6713 6.25339 10.6238 6.20899 10.6162C6.20711 10.6159 6.20969 10.6887 6.20606 10.6885C6.1851 10.6876 6.16499 10.7069 6.14356 10.6348C6.14152 10.6251 6.14197 10.5004 6.13574 10.5195C6.13429 10.5236 6.12549 10.5405 6.12305 10.5674C6.12272 10.5716 6.12415 10.6321 6.1211 10.6338C6.10349 10.6426 6.08496 10.6288 6.06738 10.5928C6.06452 10.5868 6.06747 10.5224 6.06543 10.5176C6.051 10.4842 6.03527 10.5323 6.02149 10.4746C6.01224 10.4357 6.01566 10.3252 6.01074 10.2168C6.00995 10.202 6.00421 10.1989 6.00391 10.1367C6.00315 9.9783 6.00602 9.80464 6.00488 9.63576C6.00464 9.59943 5.99649 9.63812 6.00098 9.5508C6.0013 9.54491 6.00742 9.5152 6.00879 9.48537C6.00974 9.46467 6.00783 9.40042 6.00977 9.37404C6.01171 9.34821 6.01437 9.40106 6.01758 9.37013C6.02072 9.3386 6.0191 9.26698 6.02539 9.25783ZM8.40332 10.2354C8.39667 10.1366 8.3918 10.282 8.39649 10.3584C8.40118 10.4347 8.40535 10.2654 8.40332 10.2354ZM6.0293 10.1836C6.02712 10.2547 6.03495 10.2605 6.03321 10.1865C6.03313 10.1836 6.0294 10.1807 6.0293 10.1836ZM8.54102 10.085C8.53859 10.042 8.53119 10.0911 8.53418 10.1445C8.5366 10.1875 8.54398 10.1383 8.54102 10.085ZM7.51953 10.044C7.51973 10.1048 7.5238 10.0875 7.52246 10.0313C7.52228 10.028 7.51948 10.0254 7.51953 10.044ZM8.64551 9.94337C8.65339 9.98609 8.65895 9.82185 8.66699 9.91017C8.66827 9.92768 8.65858 10.0753 8.65723 10.0811L8.64551 10.0332C8.63623 9.95561 8.63441 9.81373 8.64844 9.83595C8.65154 9.8426 8.64124 9.91991 8.64551 9.94337ZM7.78028 9.99904C7.77812 10.0698 7.78689 10.0749 7.78516 10.001C7.78474 9.99818 7.78037 9.99623 7.78028 9.99904ZM7.34082 9.88673C7.33594 10.0028 7.35479 10.0148 7.35059 9.89259C7.35023 9.88633 7.34113 9.88095 7.34082 9.88673Z" fill="#555961"/>
</svg>
