<svg width="16" height="16" viewBox="0 0 16 16" fill="none" xmlns="http://www.w3.org/2000/svg">
<path d="M8.02246 1.26133C8.17884 1.26984 8.32144 1.31796 8.49121 1.38731C8.53511 1.40425 8.70914 1.37927 8.76562 1.48789C8.77102 1.49846 8.77369 1.51 8.77441 1.52207C8.77766 1.64237 8.593 1.82088 8.81543 1.87461C8.91428 1.89857 9.21897 1.62477 9.2666 1.88828C9.58433 2.01728 9.80236 2.26561 10.1318 2.37656C10.1478 2.38039 10.2433 2.31262 10.2734 2.33164C10.3181 2.36079 10.3177 2.41964 10.3486 2.44199C10.4784 2.53633 10.6267 2.57285 10.7559 2.65684C10.805 2.68866 10.7608 2.72434 10.8193 2.76231C10.8779 2.79998 10.9534 2.76365 11.0176 2.84043C11.066 2.89864 11.0551 3.05721 11.1279 3.11973C11.2021 3.00098 11.257 3.03627 11.375 3.06309C11.3975 3.06812 11.4023 3.01536 11.4141 3.01426C11.4636 3.01432 11.4777 3.06973 11.5264 3.06699C11.5382 3.06635 11.5632 3.02496 11.5742 3.02207C11.669 2.99627 11.7114 3.146 11.7188 3.17246C11.7467 3.27154 11.8088 3.23573 11.8438 3.28867C11.8786 3.34179 11.7872 3.32907 11.8359 3.37754C11.937 3.478 12.0942 3.56124 12.2139 3.63438C12.2611 3.66279 12.2612 3.59041 12.2686 3.59141C12.3764 3.63619 12.4427 3.75415 12.5625 3.67734C12.4645 4.00134 12.639 3.68596 12.748 3.82578C12.7565 3.83696 12.6923 3.9792 12.6377 3.97422C12.583 3.96848 12.5417 3.88796 12.4639 3.8834C12.4446 3.8829 12.2929 3.95927 12.2754 3.96152C12.1546 3.96983 12.2572 3.76527 12.2607 3.74863C12.2788 3.59921 12.1 3.67557 12.0684 3.66953C11.9238 3.64196 11.8386 3.55426 11.7207 3.52598C11.6439 3.50774 11.5606 3.6342 11.5117 3.6002C11.3491 3.4864 11.3968 3.26859 11.1426 3.33262C11.0883 3.34686 11.0382 3.50895 10.9814 3.32383C10.9776 3.31069 10.9464 3.15524 10.8555 3.18906C10.844 3.19337 10.8194 3.23564 10.8086 3.23399C10.7365 3.22202 10.7168 3.16596 10.6436 3.14414C10.5701 3.12234 10.4788 3.09986 10.4141 3.04258C10.3753 3.00774 10.3643 2.89722 10.3545 2.86582C10.3273 2.7759 10.2106 2.82809 10.2129 2.73984C10.2152 2.65108 10.3475 2.59249 10.2754 2.4918C10.2078 2.59817 10.1336 2.70447 10.0635 2.81016C9.85218 2.68035 9.66243 2.52156 9.44531 2.4C9.41852 2.38538 9.41132 2.45867 9.38184 2.44492C9.25614 2.38331 9.17543 2.27924 9.04102 2.22227C8.93677 2.1784 8.79373 2.17832 8.68359 2.13438C8.69113 2.03022 8.62053 1.97445 8.54199 1.92734C8.51458 1.91274 8.48565 1.90027 8.46191 1.88535C8.43592 1.86872 8.45159 1.83417 8.43457 1.81406C8.36728 1.74076 8.36507 1.87518 8.33789 1.88731C8.22821 1.94484 8.28693 1.65988 8.14941 1.64902C8.14001 1.64768 8.05057 1.79446 8.04199 1.80625C8.03332 1.81429 8.0273 1.82017 8.02246 1.82285C7.99095 1.84024 8.02605 1.75123 7.98926 1.7418C7.91121 1.72385 7.84512 1.69403 7.76269 1.7584C7.737 1.77789 7.70694 1.88505 7.63574 1.83262C7.62606 1.82565 7.61184 1.77677 7.60547 1.77598C7.48882 1.76889 7.55165 1.9183 7.5332 1.98887C7.53251 1.99148 7.53218 1.9944 7.53125 1.99668L7.54492 1.98887C7.49894 2.06345 7.34945 2.03166 7.31348 2.01719C7.21674 1.97876 7.33803 1.96144 7.33691 1.95274C7.32304 1.84976 7.25592 1.90823 7.19434 1.93516C7.10646 1.80519 7.03094 1.86055 7.13086 1.96348C7.14191 1.97464 7.17915 1.9358 7.19434 1.93516C7.2219 2.09733 7.14327 2.16634 6.97266 2.1002C6.89305 2.06911 6.89624 1.97662 6.77246 2.08262C6.71602 2.13094 6.79459 2.21004 6.75391 2.26816C6.66085 2.40062 6.44515 2.41176 6.32227 2.50254C6.27778 2.53543 6.35293 2.5584 6.32422 2.58262C6.24613 2.64726 6.14734 2.65458 6.07227 2.7252C6.06665 2.73223 6.11553 2.77314 6.08984 2.78965C5.88933 2.91621 5.69125 2.98718 5.47754 3.11191C5.37443 3.17213 5.20783 3.30966 5.09766 3.3668C4.90689 3.46591 4.6332 3.5234 4.48633 3.63535C4.39086 3.70798 4.4446 3.74792 4.42187 3.81016C4.378 3.93051 4.15289 3.89386 4.12109 3.88633C4.12016 3.886 4.20109 3.82034 4.13769 3.8209C4.07731 3.78101 4.12195 3.88549 4.12109 3.88633C4.10005 3.88177 3.91586 3.97361 3.88672 4.00449C3.8717 4.02121 3.91043 4.06406 3.90332 4.07285C3.69313 4.25764 3.46308 4.41088 3.20898 4.52891C3.20416 4.53038 3.17696 4.47005 3.16602 4.47422C3.09721 4.49971 3.04957 4.53821 3.00977 4.58262C3.00728 4.58396 2.99959 4.58819 2.99707 4.58945C2.96533 4.63237 2.9491 4.68643 2.92773 4.73496C2.88925 4.82347 2.84037 4.85132 2.71973 4.81797C2.68516 4.8771 2.59031 4.92913 2.53516 4.96934C2.48 5.00952 2.5906 5.07096 2.59277 5.07676C2.60968 5.24196 2.52164 5.29514 2.50195 5.45469C2.50125 5.46172 2.5011 5.46983 2.50098 5.47813C2.49983 5.5968 2.51572 5.78904 2.52832 5.89902C2.53955 5.99507 2.51019 6.05369 2.5293 6.14219C2.53272 6.15352 2.58754 6.14186 2.59082 6.14512C2.65876 6.24389 2.51991 6.19699 2.49512 6.21738C2.40502 6.29127 2.35701 6.33704 2.39941 6.46348C2.41032 6.49289 2.6081 6.57745 2.62012 6.63047C2.63493 6.69952 2.56395 6.67364 2.58105 6.7457C2.58247 6.75189 2.6269 6.7509 2.625 6.79551C2.61653 7.00292 2.5903 7.22939 2.59473 7.44492C2.59559 7.47386 2.66521 7.4367 2.66699 7.4791C2.67529 7.67853 2.67337 7.89711 2.64062 8.09141C2.63236 8.1391 2.58312 8.10966 2.56836 8.11973C2.48116 8.1828 2.60518 8.27225 2.61035 8.28867C2.67193 8.64471 2.55612 8.91797 2.61133 9.28086C2.61565 9.3016 2.7514 9.45245 2.63477 9.52012C2.62694 9.52475 2.50638 9.59171 2.58789 9.65098C2.59304 9.65466 2.65571 9.6132 2.64941 9.68613C2.6431 9.75912 2.68439 9.87683 2.61621 9.97715C2.59448 10.009 2.47476 10.0838 2.57031 10.1783C2.57545 10.1831 2.7045 10.2706 2.69629 10.3346C2.6938 10.3434 2.67889 10.3529 2.64453 10.3609C2.61996 10.3659 2.4612 10.3692 2.54785 10.4352C2.56505 10.4466 2.59789 10.4203 2.62402 10.4508C2.66332 10.4945 2.63873 10.572 2.72559 10.6051C2.74215 10.6124 2.85325 10.6067 2.79394 10.6695C2.78414 10.6799 2.73306 10.694 2.73633 10.7135C2.73946 10.7316 2.74517 10.7489 2.75293 10.7652C2.78595 10.8341 2.84596 10.8832 2.87988 10.9566C2.89575 10.9892 2.82487 11.04 2.83984 11.0836C2.85439 11.1272 2.91176 11.1953 2.96875 11.1832C3.01831 11.1714 3.04873 11.0593 3.0918 11.0484C3.09927 11.0529 3.12191 11.0651 3.12891 11.0699C3.13613 11.0705 3.14385 11.0727 3.15234 11.0768C3.52385 11.2558 3.82459 11.5396 4.16406 11.7682C4.21435 11.802 4.1974 11.7348 4.27344 11.7818C4.55395 11.955 5.05966 12.2202 5.24609 12.4605C5.39547 12.6531 5.11807 12.5523 5.24805 12.6744C5.31057 12.7328 5.47093 12.6492 5.49219 12.6549C5.68767 12.7187 5.76757 12.8525 5.93066 12.9303C5.96414 12.946 5.96802 12.8725 5.99609 12.8863C6.09305 12.9345 6.17391 13.0193 6.26367 13.0699C6.30384 13.0922 6.32264 13.047 6.35644 13.0729C6.43776 13.1343 6.50236 13.1999 6.56152 13.2916C6.56692 13.3 6.48356 13.3188 6.5459 13.3609C6.64681 13.429 6.75032 13.5483 6.89355 13.5836C6.93618 13.5936 6.99715 13.5 7.03125 13.6129C7.0384 13.6366 6.9467 13.7375 7.09668 13.6949C7.12181 13.688 7.3535 13.6488 7.37207 13.7799C7.37698 13.8144 7.36651 13.9387 7.41797 13.9508C7.42517 13.9521 7.43453 13.8867 7.47266 13.9039C7.51443 13.9231 7.55588 13.9447 7.59668 13.9674L7.56348 13.9479C7.61983 13.9723 7.67861 13.9962 7.74023 14.0016C7.76368 14.0032 7.74999 13.9351 7.78223 13.9381C7.85013 13.9447 7.92658 13.9621 8 13.9742C8.02262 13.978 8.04525 13.9811 8.06641 13.984C8.09893 13.9887 8.08154 14.0416 8.08398 14.0475C8.13616 14.134 8.14546 14.0067 8.15527 13.9977C8.22423 13.9408 8.29838 13.9771 8.3623 13.9313C8.37814 13.9183 8.34043 13.8722 8.3418 13.8658C8.35384 13.8032 8.37529 13.9108 8.4043 13.9088C8.40743 13.9085 8.41095 13.9082 8.41406 13.9078L8.37891 13.9283C8.50316 13.8837 8.62029 13.8033 8.72559 13.7281C8.76544 13.6995 8.68347 13.6722 8.71875 13.6471C8.93431 13.4968 9.16872 13.3558 9.40527 13.2506C9.44953 13.231 9.45221 13.2909 9.4668 13.2965C9.56993 13.3302 9.59543 13.18 9.60937 13.1578C9.67259 13.059 9.73198 13.0756 9.80664 13.0182C10.1709 12.7367 10.6662 12.46 11.042 12.2447C11.5313 11.9641 11.9277 11.7725 12.375 11.4742C12.4031 11.4553 12.3373 11.4151 12.3613 11.398C12.5283 11.2818 12.7004 11.1769 12.8721 11.0709C12.8792 11.0668 12.8999 11.0531 12.9072 11.0494C12.9941 11.0039 13.0731 10.9417 13.1299 10.8619C13.1385 10.8481 13.075 10.8235 13.0869 10.8014C13.1122 10.7554 13.1492 10.7046 13.1914 10.6666C13.212 10.6476 13.2472 10.7046 13.2676 10.6842C13.3153 10.6333 13.3442 10.5617 13.3467 10.4918C13.3467 10.4632 13.2733 10.4921 13.2783 10.4576C13.2838 10.4168 13.2861 10.3756 13.2852 10.3346C13.2808 9.95571 13.285 9.57963 13.3574 9.19492C13.3642 9.1632 13.5002 9.13532 13.4746 9.06797C13.4365 9.06286 13.3914 9.06239 13.3506 9.06016C13.3287 8.38989 13.3764 7.72645 13.3838 7.0543C13.3841 7.02596 13.3114 7.0749 13.3115 7.02012C13.3126 6.70251 13.2929 6.39382 13.3652 6.06895C13.373 6.03712 13.4997 6.05322 13.4805 5.95859C13.4769 5.94184 13.4604 5.79832 13.4326 5.76133C13.4283 5.75639 13.3682 5.78262 13.3662 5.73691C13.3633 5.65207 13.3635 5.56569 13.3652 5.4791C13.3696 5.36844 13.3641 5.25838 13.3477 5.14707C13.3438 5.1206 13.413 5.12315 13.4102 5.10313C13.4034 5.05998 13.3861 5.01876 13.3643 4.98008C13.3124 4.88839 13.2381 4.81595 13.1924 4.72031C13.1461 4.62876 13.2422 4.5667 13.2578 4.44297C13.2599 4.42489 13.1994 4.38127 13.2285 4.32578C13.2376 4.30827 13.2491 4.29203 13.2598 4.275C13.2573 4.27341 13.2544 4.27192 13.252 4.27012C13.2454 4.26487 13.2556 4.2463 13.2725 4.22324C13.3197 4.22225 13.335 4.16681 13.2939 4.14316C13.2356 4.16832 13.1347 4.19297 13.126 4.18711C12.91 4.04475 12.9082 3.74046 13.1357 3.90879C13.1771 3.93939 12.9979 3.92563 13.042 3.9791C13.1182 4.07132 13.2585 3.98508 13.3242 4.09141C13.3416 4.10133 13.3531 4.11494 13.3623 4.12852C13.4152 4.05905 13.4693 3.98862 13.5078 3.90977C13.5243 3.8757 13.3771 3.83538 13.4971 3.80332C13.5076 3.80148 13.6136 3.83402 13.6533 3.82676C13.6812 3.82111 13.6885 3.74771 13.7373 3.74961C13.7871 3.75273 13.7917 3.82273 13.8643 3.84238C13.9371 3.86361 13.9635 3.78611 14.0752 3.88047C14.2127 3.99983 14.3476 4.16918 14.4453 4.35508C14.5301 4.51471 14.5878 4.68559 14.6191 4.83652C14.6393 4.93869 14.5872 4.89871 14.5967 4.96836C14.6134 5.10441 14.6502 5.22875 14.6387 5.36484C14.6343 5.40932 14.5701 5.35791 14.5664 5.40293C14.5643 5.42946 14.5618 5.45596 14.5596 5.48203C14.5424 5.63662 14.5539 5.78899 14.542 5.95078C14.4759 6.84338 14.4525 7.72109 14.4238 8.62461C14.4144 8.92247 14.3568 9.28477 14.3818 9.59238C14.3851 9.62791 14.4398 9.60705 14.4443 9.61387C14.5139 9.72087 14.4025 9.68552 14.3877 9.75547C14.3485 9.94182 14.3333 10.1422 14.334 10.3346C14.3344 10.4502 14.3277 10.5636 14.3145 10.6715C14.2944 10.8111 14.4328 10.6968 14.3379 10.8238C14.3312 10.8321 14.2837 10.7827 14.2676 10.818C14.2328 10.8981 14.1833 11.0539 14.1484 11.1119C14.0827 11.2229 14.0728 11.2417 14.0059 11.3424C13.9114 11.4802 13.7577 11.6056 13.6289 11.7242C13.6013 11.7499 13.6787 11.7661 13.6357 11.8121C13.5956 11.8565 13.4664 11.9355 13.4043 11.9537L13.4238 11.942C13.4208 11.943 13.4176 11.9442 13.415 11.9449C13.3698 11.9567 13.3601 11.9069 13.3477 11.902C13.2441 11.8599 13.1829 12.048 13.168 12.0611C12.8936 12.2979 12.5948 12.4016 12.3105 12.5816C12.095 12.7184 11.8769 12.8842 11.6699 13.0113C11.423 13.1627 11.1977 13.2663 10.9629 13.4215C10.9386 13.4379 11.0057 13.4796 10.9756 13.4996C10.6544 13.7125 10.3263 13.9101 9.97656 14.0748C9.94197 14.0905 9.95059 14.0133 9.91406 14.026C9.68789 14.1086 9.30752 14.2041 9.33398 14.5074C9.19362 14.5837 9.02369 14.6774 8.87402 14.7076L8.87207 14.7086C8.86911 14.7105 8.8615 14.7146 8.8584 14.7164C8.74948 14.7337 8.80998 14.6298 8.70801 14.7105C8.6842 14.7283 8.74308 14.7669 8.7041 14.7896C8.53736 14.8857 8.3286 14.917 8.14258 14.9615C8.10484 14.971 8.11813 15.0235 8.10742 15.0338C8.07764 15.0605 8.03858 15.0654 8 15.0582C7.91916 15.0435 7.84463 14.9769 7.82324 14.9684C7.57856 14.872 7.4022 14.8446 7.19141 14.7389C7.14336 14.7135 7.16775 14.8062 7.11914 14.7828C7.11563 14.7811 7.1119 14.7797 7.1084 14.7779C7.10473 14.7761 7.09476 14.7695 7.09082 14.7672C6.89415 14.6541 6.69902 14.5234 6.52832 14.3785C6.49 14.3458 6.561 14.3187 6.54492 14.3004C6.47096 14.2203 6.38952 14.3045 6.31738 14.2301C6.30209 14.2144 6.34002 14.1765 6.33984 14.1695C6.33636 14.0618 6.22462 14.1395 6.20898 14.1344C6.02122 14.0609 5.98497 13.881 5.81348 13.7945C5.79287 13.7843 5.80087 13.8676 5.74512 13.8355C5.37315 13.6217 4.99937 13.3637 4.66894 13.0924C4.61898 13.0512 4.68178 13.0345 4.68359 13.027C4.67734 12.9106 4.57284 12.9939 4.55176 12.9869C4.38986 12.9254 4.31247 12.7502 4.13379 12.817C3.65298 12.4611 3.1233 12.1867 2.6543 11.8199L2.66602 11.8268C2.54994 11.7496 2.44652 11.6546 2.36328 11.5465C2.35776 11.5383 2.41255 11.5041 2.40039 11.4889C2.26198 11.2999 2.227 11.4006 2.02832 11.3336C2.00103 11.3231 2.00287 11.2594 2.01465 11.2047C2.02386 11.1605 2.03918 11.1213 2.04102 11.1148C2.05746 11.0626 2.15755 11.0534 2.1582 11.0387C2.16662 10.9254 1.89275 11.0744 1.83496 10.9244C1.83382 10.9198 1.89456 10.9189 1.89551 10.9049C1.89862 10.8623 1.86482 10.832 1.87305 10.7896C1.89358 10.6905 2.03329 10.6377 1.92969 10.5289C1.91704 10.514 1.74271 10.5629 1.74121 10.4215C1.74138 10.4056 1.74087 10.374 1.74121 10.3355C1.74225 10.2533 1.74287 10.1343 1.75098 10.0924C1.76228 10.034 1.8184 10.0737 1.82129 10.0699C1.89598 9.91194 1.9266 9.9712 2.03711 9.89219C2.14717 9.81312 1.88543 9.8354 1.85547 9.80332C1.8263 9.77109 1.88756 9.65551 1.90918 9.62656C1.93058 9.59815 1.96632 9.63305 1.97852 9.60801C2.05779 9.44021 1.84839 9.53437 1.80664 9.4791C1.70785 9.34874 1.90277 9.24689 1.92187 9.12754C1.92674 9.09575 1.88331 9.12156 1.87891 9.09336C1.86305 8.97947 1.92394 8.91043 1.86816 8.78086C1.85876 8.75946 1.74168 8.6552 1.82715 8.5875C1.83955 8.5779 1.88853 8.60479 1.89941 8.55625C1.9157 8.48368 1.92637 8.35283 1.91016 8.275C1.89784 8.21824 1.81805 8.28366 1.84277 8.21152C1.85388 8.17934 1.90101 8.2388 1.91797 8.17832C1.93486 8.11803 1.93228 7.96433 1.93066 7.90586C1.92894 7.84759 1.86835 7.87933 1.86426 7.87461C1.84088 7.84567 1.8115 7.73426 1.81152 7.72422C1.80411 7.22445 1.90692 6.76354 1.87305 6.27695C1.87047 6.23905 1.80752 6.26378 1.80566 6.2584C1.77883 6.12767 1.94887 6.23058 2.00586 6.13926C1.87592 6.15246 1.89902 6.09853 1.88477 6.00645C1.87766 5.96238 1.82741 5.98607 1.82227 5.98203C1.74652 5.9164 1.84507 5.87077 1.86523 5.85898C1.93933 5.81542 1.85174 5.76753 1.90137 5.73789C1.95064 5.70866 2.02339 5.77624 2.02246 5.68809C1.9758 5.66385 1.85497 5.72894 1.83496 5.6627C1.81929 5.60949 1.81063 5.54619 1.80762 5.47813C1.78814 5.18188 1.97007 4.8413 2.06641 4.69981C2.18555 4.51378 2.23077 4.45632 2.3291 4.37363C2.5148 4.2361 2.39385 4.22913 2.48828 4.10313C2.59113 3.982 2.65042 4.20951 2.69336 4.23887C2.7343 4.26932 2.72655 4.21711 2.75977 4.22813C2.79165 4.23999 2.76718 4.29166 2.81641 4.275C2.81836 4.27434 2.82021 4.2731 2.82227 4.27207C2.8775 4.24172 2.95643 4.10294 2.94824 4.05234C2.92993 3.94047 2.8153 3.87951 2.95996 3.83945C2.96828 3.83733 2.97466 3.90086 3.00488 3.89024C3.24611 3.80015 3.47457 3.66823 3.71289 3.57383C3.7457 3.56095 3.75202 3.63246 3.77148 3.62559C3.9741 3.55418 3.85372 3.49801 3.8916 3.33457C3.95141 3.48714 4.05683 3.54011 4.19531 3.45957C4.27828 3.41128 4.22871 3.35912 4.25684 3.28477C4.26531 3.26234 4.34804 3.26888 4.3418 3.23399C4.32151 3.11993 4.20538 3.0476 4.37207 3.00547C4.37947 3.00453 4.38983 3.06679 4.41309 3.05723C4.56445 2.99533 4.52328 2.88743 4.66699 2.78672C4.77962 2.70778 5.02481 2.64342 5.16504 2.57383C5.25461 2.7322 5.3608 2.62144 5.34863 2.48301C5.43843 2.436 5.529 2.37425 5.62207 2.33945C5.65411 2.32743 5.66239 2.38456 5.66894 2.38731C5.76984 2.43059 5.74651 2.30432 5.76269 2.28867C5.94328 2.12821 6.15669 2.10937 6.30566 1.9166C6.31038 1.90877 6.25796 1.79484 6.35644 1.84336C6.36305 1.84685 6.32794 1.93362 6.42187 1.8834C6.51576 1.83323 6.72266 1.78986 6.82031 1.66465C6.84396 1.63434 6.87039 1.49967 6.97363 1.53184C6.9874 1.53642 6.99647 1.57322 7.01855 1.58359C7.09007 1.61602 7.04666 1.49363 7.14746 1.56016C7.19903 1.59416 7.2601 1.61414 7.31934 1.60703C7.37114 1.60466 7.42156 1.57968 7.47168 1.52012C7.47456 1.51666 7.4701 1.40921 7.5166 1.39512C7.58957 1.37256 7.69878 1.36745 7.77539 1.35508C7.81173 1.34871 7.77889 1.28982 7.78516 1.2877C7.86787 1.2639 7.94698 1.25772 8.02246 1.26133ZM2.67383 11.7086C2.79502 11.649 2.56112 11.4813 2.54199 11.6139C2.54224 11.6238 2.66552 11.7125 2.67383 11.7086ZM2.03125 9.12461C2.02797 9.12698 2.02535 9.17036 2.04394 9.16953C2.1048 9.16651 2.08747 9.10447 2.03125 9.12461ZM2.01953 5.2291C2.08365 5.27232 2.11169 5.15823 2.03516 5.1666C2.03169 5.16737 2.01722 5.22515 2.01953 5.2291ZM13.4609 4.57676C13.3915 4.60553 13.456 4.68474 13.4971 4.6207C13.499 4.61791 13.4642 4.57549 13.4609 4.57676ZM11.6133 3.29941C11.6032 3.24416 11.4874 3.23364 11.499 3.30234C11.5087 3.35803 11.6254 3.36869 11.6133 3.29941ZM10.6836 2.84336C10.6222 2.71667 10.4446 2.98008 10.585 2.98887C10.593 2.98944 10.6846 2.85416 10.6836 2.84336ZM9.75 2.37656C9.71384 2.24053 9.58079 2.3306 9.60254 2.43223C9.62476 2.53394 9.7611 2.41794 9.75 2.37656Z" fill="#555961"/>
<path d="M8.14356 5.48536C8.18839 5.40591 8.24569 5.55744 8.25098 5.58106C8.24805 5.58255 8.21201 5.59399 8.22852 5.62598C8.23367 5.69192 8.24995 5.58452 8.25098 5.58106C8.25555 5.59594 8.33082 5.61948 8.34766 5.61036C8.35671 5.60527 8.3606 5.54838 8.36524 5.54493C8.47834 5.50871 8.59227 5.51777 8.69043 5.57422C8.6907 5.57908 8.67193 5.63603 8.67481 5.64063C8.72553 5.68553 8.78633 5.62194 8.85254 5.59473C8.9185 5.56765 8.9552 5.59931 8.94043 5.71485C8.9819 5.71673 9.01249 5.78473 9.02735 5.8252C9.04228 5.86518 9.10267 5.75294 9.10645 5.75196C9.22282 5.71999 9.23672 5.81026 9.3086 5.86719C9.34323 5.89451 9.42566 5.92736 9.47266 5.94434C9.50979 5.9576 9.51073 5.99487 9.54981 6.00098C9.55607 5.99959 9.58446 5.95567 9.5879 5.95313C9.6613 5.92446 9.56122 6.02127 9.55176 6.0459C9.51823 6.13454 9.50002 6.18128 9.56348 6.17969C9.58018 6.1765 9.73444 6.05015 9.75879 6.05665C9.78943 6.06488 9.73355 6.11104 9.76661 6.11817C9.77065 6.11717 9.7987 6.08686 9.81055 6.09962C9.82404 6.11531 9.83696 6.13292 9.84961 6.1504C9.88914 6.20494 9.92623 6.26454 9.97168 6.31251C9.98074 6.31922 10.0225 6.26424 10.0352 6.27637C10.0952 6.33426 10.1502 6.40946 10.169 6.49415C10.1727 6.51474 10.1264 6.53226 10.1162 6.54395C10.0577 6.61436 10.1838 6.57284 10.1895 6.57715C10.3212 6.66853 10.273 6.82261 10.3828 6.93165C10.3888 6.9366 10.5407 6.94179 10.4424 7.0127C10.436 7.01782 10.334 7.08645 10.419 7.07911C10.4243 7.07877 10.4766 7.04091 10.4815 7.0713C10.486 7.10133 10.5415 7.13489 10.4893 7.19532C10.4727 7.21504 10.3676 7.27712 10.4697 7.28614C10.4826 7.28534 10.6999 7.28941 10.5625 7.34766C10.5395 7.35729 10.3854 7.39192 10.4746 7.41602C10.4918 7.42079 10.5222 7.39779 10.5488 7.41505C10.5901 7.44268 10.5586 7.49719 10.6357 7.52833C10.6499 7.53338 10.7608 7.54928 10.6846 7.58887C10.6726 7.59494 10.619 7.59571 10.6152 7.61036C10.5972 7.67917 10.6399 7.74411 10.6084 7.81348C10.5972 7.8378 10.5107 7.83169 10.4893 7.85645C10.468 7.88134 10.4484 7.92761 10.4873 7.95118C10.5266 7.97514 10.6616 7.94596 10.6738 7.98438C10.6753 7.98942 10.6766 7.99495 10.6777 8.00001C10.7165 8.16818 10.626 8.32929 10.585 8.48536C10.5788 8.50937 10.6304 8.49837 10.624 8.53516C10.6032 8.66946 10.5733 8.91831 10.4307 8.98829C10.3188 9.04172 10.3043 8.91187 10.2471 8.96094C10.22 8.98347 10.3489 9.08168 10.3496 9.0918C10.3606 9.18684 10.2723 9.20555 10.2559 9.27833C10.2523 9.29352 10.3146 9.31233 10.3115 9.3252C10.2988 9.36969 10.2501 9.3953 10.2315 9.4336C10.2232 9.45098 10.266 9.47537 10.2529 9.48829C10.2223 9.51922 10.183 9.53906 10.1221 9.54493C10.1157 9.54344 10.0817 9.49014 10.0625 9.5127C10.0306 9.55014 9.95881 9.56851 9.95899 9.64063C9.95925 9.66212 10.0439 9.73566 9.96192 9.7129C9.94459 9.70812 9.85044 9.6121 9.90918 9.71973C9.91991 9.73696 9.98449 9.89806 9.88672 9.85352C9.87381 9.84748 9.84261 9.82909 9.81543 9.81544C9.78898 9.80221 9.76563 9.79379 9.76465 9.80665C9.76534 9.81094 9.81408 9.84548 9.80665 9.86133C9.77777 9.91673 9.72709 9.95396 9.69239 10.0078C9.68309 10.0224 9.74215 10.0548 9.72657 10.0752C9.68341 10.1315 9.60402 10.1721 9.53809 10.1943C9.51391 10.2018 9.49888 10.1502 9.49415 10.1465C9.41934 10.0874 9.47499 10.1985 9.47071 10.21C9.44458 10.2787 9.37482 10.2536 9.33594 10.294C9.32519 10.3048 9.36166 10.3489 9.36329 10.3565C9.36105 10.4167 9.32955 10.3138 9.30665 10.3135C9.24257 10.312 9.19128 10.3442 9.14454 10.375C9.12851 10.3869 9.17769 10.4375 9.16211 10.4473C9.06699 10.5056 8.95436 10.5431 8.84083 10.541C8.8198 10.5398 8.81524 10.4866 8.80762 10.4766C8.7557 10.406 8.75099 10.5268 8.74415 10.54C8.71557 10.5997 8.68564 10.5592 8.6504 10.5772C8.47568 10.6672 8.23082 10.6684 8.05274 10.6514C8.03486 10.6499 8.01727 10.6476 8 10.6455C7.79108 10.6187 7.63141 10.5594 7.4336 10.5283C7.41998 10.526 7.41834 10.5962 7.40625 10.5957C7.24753 10.5765 7.10723 10.5023 6.95411 10.459C6.94144 10.4552 6.9327 10.5237 6.91114 10.5195C6.86664 10.5114 6.81645 10.484 6.78614 10.4453C6.77211 10.4265 6.82252 10.3887 6.80762 10.3711C6.77314 10.33 6.72953 10.3011 6.68067 10.2852C6.66007 10.2793 6.65448 10.3525 6.62989 10.3398C6.45938 10.248 6.29078 10.1379 6.20801 9.94239C6.20258 9.92854 6.28815 9.82047 6.25098 9.8213C6.22311 9.84741 6.19202 9.88044 6.16309 9.90919C6.14989 9.89836 6.13669 9.88744 6.12403 9.87598C5.92978 9.69995 5.80793 9.46343 5.69336 9.23438C5.6874 9.22502 5.63358 9.27611 5.62305 9.25587C5.56223 9.1385 5.49012 9.02407 5.51368 8.87305C5.51601 8.85817 5.63945 8.82199 5.60938 8.79297C5.60382 8.78795 5.56982 8.73986 5.53907 8.7334C5.53347 8.73321 5.48061 8.75969 5.47364 8.74219C5.4338 8.63921 5.42139 8.52174 5.44043 8.40919C5.44365 8.39104 5.50883 8.39852 5.51172 8.38575C5.53174 8.29732 5.4751 8.20926 5.52832 8.12501C5.56477 8.06965 5.67578 8.08472 5.78321 8.05567C5.79832 8.05167 5.80048 8.02157 5.86329 8.01954C6.02164 8.01479 6.19548 8.02538 6.36426 8.01856C6.40052 8.01719 6.36192 7.98831 6.44922 8.00489C6.45507 8.0061 6.48478 8.02616 6.51465 8.03028C6.53533 8.0331 6.5994 8.0265 6.62598 8.03223C6.6525 8.03776 6.59944 8.04632 6.63086 8.05567C6.66274 8.06448 6.73396 8.05709 6.74415 8.0752C6.76607 8.11796 6.75247 8.17586 6.73243 8.22559C6.7262 8.24112 6.6856 8.24148 6.67969 8.25294C6.66833 8.27562 6.69111 8.29004 6.67774 8.31348C6.67177 8.32129 6.60974 8.3278 6.60645 8.33594C6.58908 8.38161 6.61513 8.41507 6.61524 8.45801C6.61677 8.67272 6.70452 8.8767 6.83204 9.05958C6.84591 9.07954 6.85831 9.10367 6.8711 9.12891C6.8968 9.18005 6.9275 9.23488 6.97852 9.25489C6.98743 9.2583 7.01821 9.21255 7.02247 9.20997C7.0858 9.17186 7.01066 9.25222 7.01465 9.2754C7.03421 9.36474 7.10152 9.41587 7.17188 9.43165C7.2019 9.43817 7.2309 9.3288 7.22559 9.39649C7.22519 9.40133 7.19046 9.44852 7.19434 9.45801C7.20364 9.47932 7.23924 9.48666 7.25 9.49708C7.27059 9.5176 7.27548 9.51875 7.29883 9.53028C7.33058 9.54645 7.35994 9.59047 7.40137 9.5918C7.41007 9.58981 7.42131 9.53145 7.43653 9.52637C7.45204 9.52162 7.4809 9.53785 7.48731 9.55469C7.49352 9.57184 7.47503 9.61507 7.47364 9.62598C7.46283 9.71846 7.54003 9.60942 7.54493 9.60743C7.64742 9.58098 7.70893 9.66584 7.79883 9.67676C7.8655 9.68447 7.93751 9.66528 8 9.66797H8.00196C8.07678 9.67196 8.14406 9.70054 8.21778 9.68555C8.22505 9.68345 8.20806 9.61786 8.21583 9.61329C8.31195 9.592 8.40578 9.5781 8.51563 9.59278C8.52676 9.59426 8.53335 9.65814 8.5459 9.66309C8.62004 9.69362 8.77565 9.76168 8.69532 9.50001C8.73727 9.4923 8.78658 9.47917 8.84668 9.50782C8.88547 9.52616 8.89813 9.59713 8.91114 9.55665C8.914 9.54758 8.87637 9.50149 8.88184 9.49122C8.90783 9.45076 8.95817 9.44089 8.97559 9.39161C8.97897 9.38145 8.94599 9.33924 8.94239 9.33008C8.91297 9.25626 9.01518 9.33947 9.02735 9.3418C9.11447 9.362 9.13071 9.31278 9.1709 9.27833C9.18023 9.27032 9.12301 9.22865 9.12891 9.21876C9.14183 9.20189 9.15533 9.18529 9.1709 9.1709C9.19965 9.14435 9.23372 9.12301 9.27442 9.10743C9.28853 9.10215 9.32674 9.15102 9.33594 9.1504C9.37616 9.14607 9.29229 9.06848 9.32813 9.06348C9.33574 9.06255 9.37293 9.096 9.37891 9.09962C9.45986 9.14193 9.36908 9.05159 9.36915 9.04688C9.37019 8.98275 9.49814 9.03076 9.5127 8.97462C9.51411 8.96801 9.45089 8.94382 9.45801 8.92774C9.50481 8.82049 9.574 8.72354 9.66504 8.63184C9.67897 8.61787 9.71963 8.64658 9.72657 8.64844C9.82279 8.66305 9.70774 8.60653 9.70508 8.59962C9.68843 8.54492 9.80347 8.53054 9.66602 8.45899C9.74842 8.31738 9.72349 8.15535 9.77344 8.00001C9.78582 7.96089 9.80296 7.92089 9.82715 7.87891C9.82924 7.87625 9.89204 7.87659 9.89454 7.8711C9.92423 7.8045 9.82763 7.82381 9.70508 7.79883C9.67432 7.79338 9.81333 7.74418 9.82325 7.73926C9.86032 7.72354 9.95362 7.72038 9.96094 7.71583C10.0149 7.6764 9.71022 7.72885 9.70411 7.69434C9.70445 7.69311 9.76158 7.68765 9.76661 7.6836C9.78208 7.67092 9.7582 7.66535 9.7754 7.65235C9.81565 7.62266 9.96088 7.58226 9.86817 7.56641C9.85608 7.56475 9.6861 7.61004 9.68653 7.57715C9.6867 7.56323 9.66987 7.50965 9.67579 7.49122C9.6825 7.47279 9.7392 7.46659 9.74122 7.46485C9.7988 7.39936 9.83358 7.40604 9.93067 7.34766C10.026 7.28807 9.77972 7.38081 9.74903 7.38184C9.71931 7.3825 9.76552 7.33037 9.78223 7.31446C9.79904 7.29887 9.8359 7.29561 9.84473 7.28419C9.89911 7.20643 9.71584 7.31119 9.6709 7.31251C9.56615 7.31767 9.73314 7.21384 9.73438 7.17188C9.73414 7.16187 9.69937 7.18653 9.69141 7.18165C9.66277 7.15904 9.70691 7.11258 9.63965 7.10547C9.62843 7.10378 9.51277 7.13642 9.57715 7.07715C9.58643 7.06846 9.6327 7.05015 9.63477 7.03223C9.63787 7.00554 9.62574 6.96674 9.59961 6.95606C9.58024 6.9484 9.52434 7.00815 9.53321 6.97755C9.53721 6.96363 9.58552 6.95197 9.58985 6.92774C9.59395 6.90325 9.5656 6.86566 9.55372 6.85255C9.54182 6.83954 9.49828 6.8835 9.49415 6.88477C9.47096 6.89163 9.43049 6.88515 9.42676 6.88282C9.37742 6.82627 9.34971 6.7547 9.3125 6.68751C9.28013 6.62887 9.24039 6.57364 9.17872 6.54395C9.16852 6.53899 9.13447 6.59289 9.13184 6.59376C9.08622 6.59174 9.21562 6.47632 9.22852 6.41407C9.1521 6.51913 9.15329 6.49115 9.12305 6.48633C9.1084 6.48418 9.08411 6.52881 9.08008 6.53223C9.02042 6.58262 9.06761 6.49522 9.07618 6.47657C9.10821 6.40862 9.04658 6.47251 9.06739 6.42676C9.08751 6.3809 9.14665 6.33215 9.12305 6.31739C9.09119 6.35184 9.03983 6.46328 9.0127 6.46973C8.91376 6.49202 8.84623 6.34605 8.79395 6.31153C8.74441 6.27762 8.72308 6.2785 8.69727 6.25001C8.64955 6.19888 8.63832 6.29092 8.58985 6.31739C8.54186 6.34438 8.62934 6.14142 8.63965 6.09376C8.64913 6.04664 8.6268 6.09067 8.62793 6.06348C8.62891 6.03635 8.6544 6.01097 8.64063 5.9961C8.62603 5.98094 8.55485 6.04804 8.53614 6.09473C8.49578 6.19317 8.48514 6.30493 8.45606 6.25684C8.45476 6.25313 8.47684 6.19981 8.46973 6.19141C8.40887 6.12918 8.33153 6.11106 8.26075 6.06153C8.25091 6.05462 8.26847 5.99214 8.2627 5.98731C8.20118 5.93793 8.21188 6.0493 8.167 6.167C8.18967 6.00716 8.17877 5.90617 8.12598 5.90137C8.09441 5.89896 8.09546 5.9696 8.07422 6.01856C8.06804 6.03332 8.0486 5.98445 8.04395 6.01758C8.02939 6.12589 8.04559 6.24742 8 6.19922V6.14063C7.99947 6.1369 7.99842 6.13446 7.99708 6.1338C7.9493 6.11071 7.9462 6.22408 7.89942 6.24024C7.86313 6.25283 7.78884 6.19005 7.74219 6.18555C7.71835 6.00541 7.67762 6.05411 7.68262 6.18067C7.65284 6.18064 7.62326 6.19327 7.5918 6.18262C7.58102 6.17905 7.57573 6.12713 7.57325 6.1211C7.53374 6.03854 7.54866 6.1609 7.54395 6.167C7.48941 6.22838 7.40667 6.15722 7.37403 6.26465C7.37276 6.26859 7.41218 6.38821 7.36426 6.30762C7.36097 6.30072 7.36112 6.24068 7.33106 6.24708C7.30112 6.25352 7.21769 6.21508 7.20215 6.28712C7.19815 6.30498 7.21988 6.40747 7.16602 6.34571C7.15866 6.33732 7.14556 6.30336 7.13282 6.28712C7.09127 6.23615 7.14286 6.35218 7.07813 6.26368C7.01372 6.17554 6.94079 6.12312 6.93653 6.21192C6.93621 6.21462 6.97737 6.30551 6.96582 6.31348C6.94481 6.32322 6.90475 6.32365 6.88477 6.3379C6.87651 6.34547 6.91658 6.39201 6.91602 6.39454C6.87358 6.46611 6.7979 6.45278 6.71778 6.48829C6.70356 6.49681 6.72711 6.58614 6.66114 6.55665C6.58665 6.52505 6.40008 6.27638 6.38965 6.38965C6.3867 6.44027 6.64115 6.73079 6.45606 6.63575C6.42349 6.7482 6.27919 6.76788 6.2793 6.9004C6.28043 6.90725 6.3631 6.97654 6.35743 6.98536C6.34698 6.9977 6.29805 6.97877 6.28907 6.98731C6.25047 7.02251 6.26697 7.08324 6.24024 7.12208C6.23014 7.13695 6.18642 7.10912 6.17383 7.12696C6.16163 7.14589 6.21821 7.18815 6.17579 7.20118C6.14346 7.21057 6.00486 7.1775 5.97657 7.20118C6.10623 7.2538 6.09577 7.27263 6.11817 7.31934C6.12297 7.3281 6.16905 7.33771 6.17481 7.34278C6.19414 7.36333 6.15285 7.36134 6.17481 7.38184C6.18097 7.38692 6.22396 7.40235 6.23145 7.40723C6.29207 7.44794 6.17994 7.44546 6.16016 7.4463C6.08611 7.44771 6.14266 7.47624 6.11133 7.48536C6.07967 7.49504 6.05217 7.45968 6.03028 7.47559C5.98499 7.50917 5.97924 7.56754 5.96875 7.61133C5.96482 7.62898 6.03036 7.62904 6.03125 7.63184C6.04023 7.66946 5.96822 7.69636 6.09082 7.7334C5.76196 7.71404 6.11948 7.75964 6.04883 7.80079C6.04098 7.8038 5.88705 7.79436 5.86622 7.7754C5.84544 7.75614 5.8966 7.73645 5.86524 7.70899C5.85762 7.70297 5.71976 7.64975 5.70997 7.64258C5.64762 7.59489 5.87783 7.62919 5.89063 7.62989C6.02868 7.63465 5.88388 7.57048 5.87403 7.55665C5.83509 7.49993 5.87644 7.46752 5.85254 7.41993C5.83734 7.38894 5.69319 7.34462 5.70215 7.32422C5.73894 7.2556 5.94672 7.30454 5.79688 7.17872C5.76523 7.15148 5.60446 7.10503 5.7461 7.10157C5.7552 7.10084 5.88029 7.11048 5.82032 7.06055C5.81268 7.05415 5.76783 7.03449 5.76563 7.0293C5.75212 6.99502 5.79372 6.99502 5.78907 6.96192C5.78429 6.92864 5.7753 6.88498 5.80469 6.86329C5.82262 6.85001 5.91485 6.87107 5.93848 6.87403C6.00536 6.88249 5.92836 6.80791 6.00293 6.83301C6.07731 6.85935 6.16465 6.94223 6.22657 6.93653C6.11928 6.87064 6.01034 6.8011 5.90332 6.7334C5.95655 6.65397 6.04211 6.60047 6.09473 6.52344C6.10021 6.51365 6.04206 6.48271 6.0459 6.47071C6.07112 6.42115 6.13887 6.41534 6.16114 6.36133C6.1779 6.31939 6.15857 6.23579 6.17872 6.18946C6.18757 6.19534 6.19636 6.19983 6.20411 6.20411C6.3029 6.25889 6.31725 6.18831 6.35938 6.167C6.37503 6.15911 6.39985 6.18848 6.417 6.19044C6.4809 6.19656 6.38234 6.11335 6.37891 6.08985C6.36696 5.98909 6.55345 6.20902 6.59473 6.16797C6.59634 6.16575 6.53584 6.01958 6.53516 6.00782C6.52758 5.93625 6.57114 6.04695 6.59571 6.04395C6.64065 6.03739 6.68285 6.05241 6.69727 5.98926C6.70091 5.97072 6.67938 5.8717 6.74122 5.9209C6.74907 5.92736 6.7723 5.96892 6.77735 5.97266C6.84538 5.98985 6.76704 5.85151 6.76758 5.78907C6.76874 5.72666 6.8626 5.80175 6.88477 5.82618C6.94345 5.88832 6.88416 5.86618 6.88672 5.87403C6.91799 5.96535 6.93878 5.93626 6.96387 5.93262C7.03721 6.07086 7.06139 6.04875 6.99024 5.92872C6.9823 5.91562 6.97137 5.93685 6.96387 5.93262C6.91348 5.78591 6.94404 5.74931 7.04102 5.86329C7.08605 5.91693 7.10162 5.99511 7.14161 5.94727C7.16013 5.92557 7.10986 5.82918 7.1211 5.79297C7.14824 5.71 7.25031 5.77981 7.29786 5.74903C7.31562 5.73751 7.27922 5.68666 7.29102 5.67676C7.32297 5.65031 7.3676 5.68458 7.39844 5.65333C7.40126 5.65043 7.37802 5.59379 7.38868 5.58887C7.47672 5.55936 7.56377 5.58258 7.65723 5.57032C7.70232 5.56397 7.78048 5.52161 7.82911 5.5254C7.88326 5.52903 7.94584 5.56618 8 5.5879C8.03014 5.59987 8.05826 5.60752 8.08301 5.60059C8.12803 5.5883 8.12148 5.52633 8.14356 5.48536ZM5.82129 8.14942C5.74974 8.1429 5.74728 8.18697 5.82032 8.17188C5.82323 8.17127 5.82425 8.14972 5.82129 8.14942ZM5.9209 7.95313C5.93675 7.8666 6.2002 7.84291 6.16602 7.9209C6.15945 7.93513 6.08434 7.88494 6.05957 7.90235C6.01469 7.93766 6.17833 7.96426 6.08985 7.99903C6.07345 8.00578 5.93125 7.96172 5.9209 7.95313ZM9.89161 7.92383C9.88552 7.92512 9.88032 7.96659 9.88575 7.96876C10.0027 7.99014 10.0129 7.89932 9.89161 7.92383ZM5.95801 7.34278C5.914 7.34186 5.95066 7.39037 6.00586 7.39161C6.05034 7.39301 6.01347 7.34513 5.95801 7.34278ZM9.83301 7.12403C9.83018 7.12582 9.83361 7.14011 9.85059 7.13184C9.90511 7.10519 9.8808 7.09395 9.83301 7.12403ZM6.10157 6.60059C6.02476 6.5774 6.14975 6.69269 6.18067 6.70118C6.28079 6.73125 6.17816 6.62569 6.10157 6.60059ZM8.98731 6.2627C9.03188 6.20606 8.99929 6.18107 8.97071 6.25001C8.97012 6.25293 8.98496 6.26432 8.98731 6.2627Z" fill="#555961"/>
</svg>
