<svg width="16" height="16" viewBox="0 0 16 16" fill="none" xmlns="http://www.w3.org/2000/svg">
<path d="M8.51248 1.61623C8.54863 1.61287 8.53561 1.6713 8.58768 1.67482C8.64028 1.67756 8.67304 1.61065 8.74295 1.65627C8.90476 1.76272 9.09431 1.92871 9.23905 2.05959C9.28442 2.1006 9.23762 2.11672 9.26834 2.1465C9.32878 2.20451 9.4039 2.22904 9.46365 2.28713C9.48344 2.30657 9.42169 2.34304 9.44315 2.36232C9.56294 2.46752 9.70117 2.52655 9.83572 2.61232C10.5012 3.03559 11.2447 3.31515 12.0349 3.47853C12.2947 3.53294 12.6131 3.62605 12.8914 3.61525C12.9237 3.61388 12.9075 3.55795 12.9138 3.55373C13.0121 3.48887 12.9755 3.59904 13.0379 3.61623C13.2331 3.66938 13.4507 3.68059 13.6512 3.66408C13.7968 3.65164 13.9423 3.76677 13.989 3.90529C14.0072 3.96044 14.0259 4.01437 14.0447 4.06642C14.0826 4.17203 14.1596 4.03576 14.1287 4.16115C14.1242 4.16871 14.063 4.15719 14.0642 4.18752C14.0681 4.25812 14.1089 4.38371 14.116 4.43752C14.1293 4.54079 14.1336 4.55805 14.1521 4.65431C14.1766 4.7861 14.1747 4.94722 14.2078 5.08693C14.2151 5.11688 14.269 5.06888 14.2859 5.11623C14.303 5.164 14.314 5.29382 14.3045 5.33888C14.2952 5.38369 14.2465 5.37043 14.2361 5.37892C14.1522 5.45096 14.2913 5.58769 14.2957 5.60744C14.3758 5.95588 14.3082 6.26274 14.2957 6.59084C14.2879 6.79402 14.2865 7.00997 14.2674 7.21095C14.263 7.25713 14.2582 7.30254 14.2517 7.3467C14.2099 7.62855 14.134 7.85965 14.0779 8.12892C14.0726 8.15686 14.1488 8.13996 14.1414 8.17482C14.0623 8.54672 13.9422 8.90864 13.7625 9.24318C13.7444 9.27662 13.7039 9.2094 13.6824 9.24123C13.5528 9.43931 13.2962 9.7077 13.4763 9.94924C13.3997 10.0819 13.303 10.2411 13.1902 10.336C13.1876 10.3382 13.1851 10.3406 13.1824 10.3428C13.1074 10.4031 13.0922 10.2944 13.0623 10.4033C13.0555 10.4278 13.1226 10.4302 13.1082 10.4649C13.047 10.6111 12.9392 10.7457 12.8777 10.8916C12.8653 10.9214 12.9139 10.9442 12.9168 10.957C12.9377 11.0636 12.7608 11.0942 12.7361 11.1104C12.558 11.2384 12.4875 11.3739 12.3631 11.5225C12.3341 11.5568 12.4224 11.5619 12.3963 11.5967C12.2596 11.7767 12.0969 11.9471 11.9197 12.082C11.8802 12.1118 11.8684 12.0371 11.8474 12.0488C11.7556 12.1013 11.8195 12.1989 11.7312 12.25C11.7128 12.2607 11.6855 12.2163 11.6785 12.2139C11.5748 12.1897 11.6228 12.3151 11.614 12.3291C11.497 12.489 11.3164 12.4702 11.1863 12.6016C11.1706 12.6175 11.2515 12.6371 11.2049 12.6787C11.149 12.7282 11.0907 12.7763 11.031 12.8233C10.7566 13.0397 10.4444 13.2239 10.1306 13.3565C10.0727 13.381 10.0854 13.3194 10.0799 13.3135C9.97625 13.2634 10.0022 13.3947 9.98612 13.4092C9.85884 13.5195 9.67551 13.494 9.64237 13.6787C9.12107 13.8881 8.60914 14.1273 8.05643 14.2188C8.03174 14.2261 7.96804 14.2242 7.94315 14.2188C7.81386 14.1724 7.68758 14.117 7.56619 14.0508C7.55884 14.0462 7.5915 13.9913 7.57596 13.9834C7.3893 13.8866 7.39767 13.9914 7.22537 14.0576C7.18147 14.0739 7.13054 13.9027 7.12576 13.8887C7.10763 13.8402 7.17377 13.765 7.1658 13.7539C7.10032 13.666 7.00245 13.9599 6.88162 13.9111C6.87853 13.9088 6.91468 13.8636 6.90799 13.8535C6.88372 13.8245 6.84372 13.8325 6.82108 13.8018C6.76933 13.7305 6.8063 13.5828 6.66776 13.6162C6.64974 13.6221 6.59702 13.7897 6.49588 13.7334C6.45494 13.7111 6.27055 13.6238 6.22537 13.5869C6.18128 13.5514 6.23922 13.5197 6.23905 13.5147C6.13913 13.3778 6.20422 13.3769 6.19119 13.2442C6.1794 13.112 6.07059 13.3517 6.02908 13.3623C5.98743 13.3728 5.92121 13.2638 5.90897 13.2315C5.89654 13.1994 5.94336 13.1856 5.92947 13.1631C5.83419 13.0139 5.8023 13.2389 5.73514 13.2471C5.57512 13.2649 5.59639 13.0462 5.51346 12.9678C5.49087 12.9466 5.48681 12.9973 5.4617 12.9854C5.36226 12.937 5.34367 12.8501 5.21072 12.8223C5.18867 12.8182 5.03777 12.8514 5.03787 12.7432C5.03803 12.732 5.06406 12.7167 5.06717 12.6953C5.06826 12.6873 5.06651 12.678 5.05838 12.668C5.01339 12.6129 4.92273 12.5273 4.85526 12.4922C4.80529 12.4664 4.80196 12.5687 4.76444 12.5049C4.74801 12.4766 4.82203 12.4769 4.78885 12.4268C4.75559 12.377 4.64449 12.2825 4.60233 12.2461C4.56092 12.2109 4.54236 12.2728 4.53592 12.2754C4.49984 12.2746 4.40019 12.2226 4.39334 12.2158C4.03569 11.8879 3.81763 11.4887 3.51151 11.1387C3.48779 11.1116 3.45199 11.1673 3.44705 11.1651C3.3504 11.0798 3.54541 11.0582 3.5408 10.9551C3.44327 11.0415 3.43122 10.9857 3.36893 10.9219C3.33897 10.8918 3.31089 10.9397 3.30447 10.9395C3.206 10.9308 3.26138 10.8384 3.27225 10.8174C3.31037 10.7415 3.21282 10.752 3.23807 10.7012C3.2639 10.6506 3.3604 10.6639 3.31424 10.5947C3.2624 10.6003 3.19483 10.7191 3.14334 10.6758C3.04675 10.5943 2.95939 10.4435 2.89041 10.2901C2.81984 10.134 2.76756 9.976 2.7283 9.88576C2.65094 9.7069 2.61865 9.65225 2.58768 9.54201C2.53401 9.34286 2.48059 9.44687 2.39334 9.34377C2.30762 9.23946 2.53749 9.21617 2.57498 9.18166C2.61213 9.14823 2.56006 9.14771 2.57596 9.11818C2.59261 9.08845 2.63968 9.12047 2.63065 9.06935C2.62145 9.01868 2.49424 8.91641 2.44119 8.91506C2.32881 8.91318 2.24538 9.01055 2.23709 8.86525C2.23715 8.85704 2.29981 8.86286 2.29569 8.83205C2.26129 8.58768 2.19495 8.34493 2.1785 8.10158C2.17683 8.06858 2.24636 8.08195 2.24588 8.06252C2.24249 7.86048 2.15222 7.95342 2.01053 7.86916C2.17405 7.86109 2.25738 7.783 2.23221 7.63674C2.21743 7.54851 2.15112 7.57508 2.09256 7.52541C2.07485 7.51024 2.11242 7.43923 2.07791 7.43263C1.96509 7.41029 1.85323 7.48819 1.87967 7.32326C1.88157 7.31627 1.9427 7.32987 1.94315 7.30568C1.9442 7.25436 1.93276 7.21934 1.9158 7.18947C1.8812 7.12834 1.82191 7.08847 1.80252 6.9756C1.77939 6.84337 1.83506 6.60316 1.84354 6.45314C2.02476 6.45123 1.98084 6.31479 1.85623 6.25685C1.86132 6.15951 1.85595 6.05335 1.87674 5.95998C1.88405 5.92828 1.93525 5.95106 1.94119 5.94728C2.03277 5.88915 1.9136 5.84178 1.90994 5.82033C1.87636 5.59006 1.98528 5.41533 1.92362 5.18947C1.91833 5.1811 1.79918 5.15213 1.89725 5.10744C1.90407 5.10474 1.95066 5.18303 1.96951 5.08303C1.98835 4.98203 2.08654 4.80563 2.0574 4.65627C2.05017 4.6204 1.9677 4.51279 2.06131 4.46193C2.07393 4.4553 2.10706 4.47317 2.12967 4.46486C2.20181 4.43757 2.0836 4.38504 2.20096 4.36135C2.3182 4.33746 2.42088 4.25987 2.38651 4.10646C2.38559 4.1017 2.29732 4.0423 2.31131 4.00002C2.31195 3.9981 2.31258 3.99611 2.31326 3.99416C2.31553 3.98517 2.32548 3.97848 2.33475 3.97853C2.4045 3.98543 2.50043 4.0084 2.57205 4.00881C2.60669 4.00841 2.58547 3.94541 2.59158 3.94435C2.82653 3.91165 2.99381 3.96408 3.24881 3.9717C3.29597 3.97325 3.42072 3.87777 3.51639 3.93556C3.62271 3.99841 3.55468 4.31805 3.78006 4.21584C3.87281 4.17311 3.92703 3.77068 4.12283 3.94142C4.4288 3.83528 4.74474 3.86674 5.03494 3.70412C5.04804 3.69642 5.05935 3.57901 5.09158 3.57033C5.13972 3.55768 5.18143 3.59686 5.21658 3.58888C5.36457 3.55587 5.4792 3.46738 5.616 3.42092C5.66797 3.40299 5.66991 3.45961 5.73221 3.43752C5.7944 3.41508 5.80771 3.33496 5.90213 3.3301C5.97351 3.32673 6.09436 3.42797 6.18436 3.40431C6.12777 3.2759 6.18508 3.2517 6.26639 3.16994C6.28188 3.15416 6.24067 3.12104 6.24686 3.11135C6.27133 3.07103 6.32229 3.08969 6.34354 3.04787C6.34809 3.03741 6.32772 2.99664 6.32987 2.98537C6.35331 2.89441 6.49462 2.93761 6.52127 2.94533C6.61685 2.97388 6.61531 2.90369 6.67557 2.90138C6.73602 2.89877 6.68392 2.96902 6.74686 2.95217C6.87789 2.9168 7.01819 2.82162 7.13065 2.75002C7.17463 2.72169 7.11187 2.68884 7.11502 2.68263C7.19672 2.60928 7.32736 2.60068 7.30252 2.46193C7.5557 2.68487 7.33797 2.39923 7.49979 2.35939C7.51263 2.35634 7.61999 2.47031 7.59549 2.5176C7.57063 2.56491 7.48337 2.56903 7.44998 2.63674C7.44249 2.653 7.4517 2.82374 7.44608 2.83888C7.40373 2.95207 7.26127 2.76802 7.24979 2.75978C7.12536 2.67765 7.12087 2.8684 7.10135 2.89357C7.01529 3.00742 6.90014 3.0382 6.82108 3.12502C6.76905 3.18149 6.83756 3.31787 6.78397 3.34279C6.60334 3.42472 6.44873 3.26574 6.36697 3.51174C6.34947 3.56428 6.4558 3.69665 6.27127 3.63967C6.2593 3.63628 6.11405 3.57163 6.08963 3.66506C6.08653 3.67688 6.10605 3.72169 6.09842 3.72951C6.04688 3.78043 5.99037 3.76335 5.92947 3.80861C5.86832 3.85402 5.79495 3.91301 5.70975 3.92775C5.65832 3.93673 5.566 3.87413 5.53592 3.86135C5.45074 3.82436 5.41617 3.94644 5.35135 3.88674C5.28716 3.82634 5.32597 3.68949 5.20779 3.6758C5.24324 3.79687 5.27467 3.92322 5.3074 4.04592C5.07037 4.11811 4.82565 4.14332 4.5867 4.20412C4.55709 4.21179 4.6026 4.27033 4.57108 4.28029C4.43694 4.32156 4.30823 4.29876 4.16971 4.34279C4.06251 4.37714 3.95097 4.46736 3.83572 4.50099C3.74514 4.3679 3.58024 4.43684 3.45291 4.43459C3.40887 4.43383 3.40846 4.39492 3.37674 4.38478C3.256 4.34751 3.31992 4.47077 3.28885 4.49318C3.15382 4.58768 3.12543 4.30055 2.96561 4.31349C2.95656 4.31585 2.85555 4.47088 2.84061 4.48049C2.75916 4.53645 2.80935 4.45122 2.78104 4.42385C2.76726 4.48612 2.67561 4.53987 2.64627 4.55178C2.55388 4.58853 2.62202 4.5009 2.61502 4.49611C2.53039 4.43851 2.52765 4.51892 2.50662 4.57619C2.352 4.55051 2.34324 4.63694 2.48612 4.63576C2.5013 4.6349 2.49709 4.5866 2.50662 4.57619C2.64474 4.66191 2.64571 4.75178 2.48612 4.82521C2.41128 4.85994 2.3407 4.80145 2.34354 4.95217C2.34554 5.02015 2.45648 5.01235 2.47635 5.07424C2.52187 5.21462 2.40056 5.37176 2.40311 5.51076C2.40422 5.56049 2.46676 5.51863 2.46951 5.55275C2.47703 5.64278 2.42784 5.71845 2.4451 5.80959C2.44945 5.81653 2.50937 5.80207 2.50858 5.82912C2.50413 6.03865 2.46068 6.22096 2.46463 6.44142C2.46621 6.5481 2.51017 6.736 2.51248 6.84572C2.51401 6.93153 2.50169 7.02787 2.49295 7.12306C2.4822 7.23911 2.47673 7.35405 2.50272 7.44142C2.53358 7.54469 2.59131 7.51146 2.64041 7.54885C2.73451 7.61964 2.62311 7.79714 2.60526 7.82424C2.60456 7.82511 2.57079 7.73798 2.54959 7.79201C2.49085 7.83355 2.60479 7.82336 2.60526 7.82424C2.59325 7.84074 2.61965 8.02409 2.64041 8.05666C2.65192 8.0737 2.70611 8.04925 2.71072 8.05861C2.82003 8.28258 2.9027 8.50822 2.95877 8.74904C2.9591 8.75347 2.89613 8.76898 2.89627 8.77931C2.91724 8.92478 3.02609 8.98325 3.11404 9.07326C3.20219 9.16332 3.22441 9.2523 3.15115 9.36232C3.20049 9.43751 3.21002 9.57421 3.21658 9.65431C3.22308 9.73447 3.34234 9.68592 3.34744 9.69045C3.4415 9.77177 3.47916 9.84949 3.51248 9.93752C3.53707 10.0023 3.55954 10.0723 3.60135 10.1504C3.64763 10.2386 3.77016 10.3946 3.84256 10.4746C3.89934 10.5378 3.90453 10.5965 3.96561 10.6485C3.97387 10.6555 4.01371 10.6139 4.01737 10.6153C4.12254 10.6446 3.98661 10.6935 3.97733 10.7227C3.94395 10.8287 3.93068 10.8919 4.03397 10.9551C4.05804 10.9701 4.26155 10.9038 4.29959 10.9317C4.34872 10.9685 4.27957 10.9969 4.33279 11.0342C4.33738 11.0374 4.37066 11.0085 4.39432 11.0391C4.50461 11.1818 4.61959 11.3451 4.75565 11.4756C4.77406 11.4931 4.80069 11.4206 4.82791 11.4453C4.95578 11.5615 5.09173 11.6913 5.19803 11.8262C5.2241 11.8596 5.17234 11.8805 5.16971 11.8975C5.15554 12.0005 5.29865 11.9542 5.31033 11.96C5.39091 12.0033 5.4581 12.0524 5.52029 12.1045C5.6726 12.2318 5.7981 12.3785 6.00858 12.4678C6.02565 12.4749 6.20803 12.4291 6.19705 12.5596C6.19593 12.571 6.18652 12.7015 6.27225 12.6572C6.27748 12.6535 6.27771 12.5831 6.32889 12.6201C6.38084 12.6574 6.4893 12.6707 6.53397 12.7715C6.5477 12.8038 6.55129 12.9404 6.66873 12.8926C6.67852 12.889 6.88484 12.7519 6.86112 12.9053C6.85635 12.9317 6.78403 13.0708 6.90799 13.0391C6.93174 13.0326 6.91524 12.9859 6.96951 12.9863C7.05226 12.9866 7.12827 13.0653 7.241 13.0352C7.26153 13.0294 7.36323 12.9566 7.38455 13.0518C7.38731 13.0671 7.35392 13.1101 7.37869 13.126C7.49887 13.2024 7.64866 13.2174 7.77225 13.2949C7.81562 13.3225 7.7664 13.3962 7.81033 13.4336C7.85447 13.4711 7.95142 13.5217 8.01541 13.499C8.0709 13.479 8.06201 13.3663 8.11209 13.3438H7.82987C8.15063 13.2205 8.49574 13.1849 8.8201 13.0625C8.8694 13.0438 8.81097 13.0155 8.88162 12.9844C9.14495 12.8715 9.5545 12.6059 9.81815 12.5625C10.0323 12.5281 9.85013 12.7152 9.99979 12.6621C10.0725 12.6352 10.0545 12.4581 10.0662 12.4444C10.1828 12.3069 10.3212 12.2948 10.4344 12.1836C10.4575 12.1606 10.3939 12.1283 10.4138 12.1094C10.427 12.0968 10.4411 12.0852 10.4558 12.0742C10.5169 12.029 10.5884 11.9941 10.6414 11.9453C10.6707 11.918 10.6343 11.8847 10.6648 11.8643C10.7373 11.8149 10.8094 11.7799 10.9041 11.7569C10.9125 11.7564 10.9138 11.8352 10.9637 11.794C11.0452 11.7256 11.1746 11.6669 11.2293 11.5469C11.2454 11.511 11.1666 11.4308 11.2762 11.4297C11.299 11.4294 11.3814 11.5381 11.3611 11.3916C11.3587 11.3654 11.3472 11.1509 11.4705 11.1631C11.5032 11.1664 11.6196 11.2011 11.6355 11.1563C11.6357 11.1497 11.5767 11.1284 11.5955 11.0977C11.6639 10.9886 11.7531 10.8891 11.8181 10.7744C11.8351 10.7439 11.7552 10.7463 11.782 10.7022C11.8557 10.5809 11.971 10.4479 12.0642 10.3438C12.0987 10.3054 12.122 10.3632 12.1287 10.3633C12.2381 10.3635 12.1553 10.2655 12.1599 10.2451C12.1907 10.1184 12.2881 10.0684 12.3328 9.96193C12.3446 9.93319 12.2848 9.92303 12.282 9.91506C12.2699 9.83378 12.3374 9.92734 12.368 9.89748C12.3739 9.89169 12.3799 9.88598 12.3855 9.8799C12.4617 9.79795 12.5146 9.68977 12.5574 9.58986C12.5734 9.55091 12.4922 9.563 12.5076 9.52834C12.5985 9.32136 12.699 9.11044 12.8142 8.91799C12.8361 8.88239 12.8752 8.92568 12.8894 8.92189C12.9893 8.89537 12.9141 8.77205 12.9099 8.74904C12.8941 8.64577 12.9492 8.62695 12.9666 8.54689C13.0513 8.15805 13.1903 7.69167 13.2615 7.32228C13.2766 7.24589 13.2913 7.17175 13.3045 7.09963C13.3729 6.71915 13.4203 6.38499 13.3963 5.99025C13.3944 5.96059 13.3261 5.99264 13.323 5.96779C13.2933 5.64042 13.2864 5.31386 13.2097 4.9922C13.2031 4.96672 13.1447 5.01575 13.1326 4.97463C13.1097 4.89777 13.0947 4.80054 13.0926 4.71486C12.8717 4.70146 12.6514 4.67075 12.4334 4.60744C12.4014 4.59813 12.3875 4.45837 12.3172 4.47658C12.3077 4.51379 12.3027 4.55849 12.2957 4.59865C11.6125 4.54063 10.9588 4.33529 10.3221 4.09279C10.2951 4.0825 10.3161 4.16821 10.2635 4.14845C9.95988 4.03392 9.65932 3.92424 9.39627 3.70998C9.37023 3.68871 9.44284 3.58248 9.3494 3.55568C9.33225 3.55108 9.19829 3.49919 9.15213 3.5049C9.14562 3.50608 9.13932 3.5711 9.09744 3.54982C8.85474 3.42513 8.6178 3.26139 8.4158 3.07717C8.38345 3.04744 8.45741 3.02159 8.43533 3.00002C8.27544 2.84788 8.05648 2.74177 7.93143 2.56447C7.84881 2.44577 7.95845 2.39381 7.97342 2.26467C7.9752 2.24759 7.92341 2.19804 7.94803 2.15041C7.74996 2.30024 7.47694 2.18315 7.69705 2.04299C7.7364 2.01811 7.67155 2.17338 7.73319 2.15334C7.84704 2.11493 7.79604 1.94202 7.93826 1.93361C7.96157 1.93209 7.96116 2.09116 7.95291 2.13771C8.04906 2.0121 8.19235 1.90774 8.2908 1.77053C8.3121 1.74103 8.20827 1.70119 8.31229 1.6758C8.31937 1.67431 8.39525 1.70138 8.4285 1.69045C8.45142 1.68252 8.47607 1.61967 8.51248 1.61623ZM7.87283 14.084C7.97113 13.9908 7.71219 13.9049 7.73514 14.0381C7.73638 14.0453 7.8669 14.0887 7.87283 14.084ZM5.61404 12.8887C5.64518 12.8366 5.58793 12.8184 5.57205 12.875C5.57112 12.8784 5.60419 12.9046 5.61404 12.8887ZM3.03983 10.1836C3.03981 10.1856 3.04272 10.1928 3.04666 10.2012C3.05417 10.2171 3.06609 10.2375 3.06815 10.2373C3.11463 10.2322 3.11374 10.1929 3.09451 10.1748C3.08181 10.1632 3.06044 10.1609 3.03983 10.1836ZM2.67166 4.15236C2.65335 4.17593 2.64767 4.19622 2.6492 4.21486L2.72928 4.15822C2.71228 4.15824 2.67591 4.14751 2.67166 4.15236ZM4.78397 3.9756C4.66575 3.90438 4.63535 4.06028 4.72049 4.11818C4.80714 4.17506 4.82027 3.99766 4.78397 3.9756ZM5.71658 3.59377C5.58393 3.56225 5.68015 3.86492 5.77225 3.76076C5.77766 3.75471 5.72441 3.59553 5.71658 3.59377ZM6.57791 3.10158C6.52699 3.08103 6.46228 3.17129 6.52518 3.19826C6.57672 3.2198 6.64207 3.12749 6.57791 3.10158ZM8.20291 2.41017C8.13387 2.44601 8.22531 2.52538 8.25076 2.45119C8.251 2.44768 8.20582 2.40881 8.20291 2.41017Z" fill="#555961"/>
</svg>
