<svg width="16" height="16" viewBox="0 0 16 16" fill="none" xmlns="http://www.w3.org/2000/svg">
<path d="M8.06771 6.81571C8.09196 6.73585 8.11324 6.88462 8.11361 6.9075C8.11225 6.9091 8.095 6.92218 8.10091 6.9534C8.0996 7.01745 8.11257 6.91367 8.11361 6.9075C8.11539 6.92216 8.14723 6.93947 8.1556 6.92899C8.16022 6.92182 8.16694 6.86547 8.16927 6.86356C8.22575 6.81892 8.2832 6.81615 8.32552 6.85672C8.32476 6.86205 8.30659 6.92077 8.30794 6.92313C8.32652 6.95836 8.3674 6.88711 8.40755 6.85086C8.44722 6.81482 8.46282 6.83845 8.43294 6.94754C8.45515 6.9413 8.45903 6.99744 8.45833 7.03055C8.45779 7.06299 8.51549 6.95015 8.5179 6.94852C8.59197 6.89536 8.58079 6.97271 8.61068 7.00418C8.62512 7.01938 8.66898 7.02546 8.69564 7.02762C8.71692 7.02908 8.70812 7.06009 8.73275 7.05496C8.73653 7.05361 8.76896 7.00743 8.77083 7.00614C8.82777 6.96513 8.73442 7.06838 8.722 7.09012C8.6765 7.16904 8.65126 7.21037 8.69466 7.19168C8.70421 7.18691 8.84649 7.04695 8.86361 7.0452C8.88392 7.04364 8.83181 7.09323 8.85384 7.09012C8.85567 7.08992 8.88523 7.05807 8.89095 7.06473C8.89687 7.07321 8.90258 7.08325 8.90755 7.09305C8.923 7.12348 8.93518 7.1569 8.95833 7.17899C8.96247 7.18316 9.01082 7.1324 9.0179 7.13797C9.05101 7.16415 9.07778 7.20292 9.07357 7.25418C9.0723 7.26693 9.02775 7.29011 9.01693 7.30008C8.95311 7.3577 9.0618 7.30492 9.07064 7.30399C9.16239 7.33306 9.08772 7.43653 9.16634 7.47684C9.17055 7.47808 9.31018 7.45511 9.20638 7.51297C9.19898 7.51753 9.09253 7.57293 9.17318 7.55399C9.17888 7.55255 9.23258 7.52294 9.23275 7.53836C9.23197 7.55417 9.27953 7.56523 9.22103 7.60574C9.20274 7.61904 9.09191 7.66643 9.1888 7.65653C9.20122 7.65372 9.40977 7.62822 9.26986 7.67606C9.24549 7.68416 9.09371 7.72075 9.17708 7.72196C9.19335 7.72225 9.22548 7.70735 9.24935 7.71317C9.28649 7.72311 9.25035 7.75381 9.32357 7.76297C9.3379 7.76411 9.44432 7.76397 9.36654 7.79031C9.35418 7.79433 9.30201 7.79921 9.2972 7.80692C9.27403 7.84282 9.31233 7.87285 9.27865 7.90848C9.26665 7.9208 9.18092 7.92069 9.15853 7.93289C9.13637 7.94529 9.11543 7.96734 9.15462 7.97781C9.19419 7.98858 9.32869 7.9732 9.34017 7.99246C9.34158 7.99499 9.3429 7.99774 9.34408 8.00028C9.3827 8.08567 9.2995 8.16473 9.27376 8.23953C9.27123 8.2508 9.31947 8.25049 9.31673 8.26883C9.30848 8.3357 9.31369 8.4705 9.19466 8.48563C9.10128 8.49482 9.06409 8.4208 9.02083 8.4368C9.00148 8.44325 9.13356 8.52125 9.13997 8.52957C9.16879 8.58736 9.09413 8.58095 9.09603 8.62137C9.09832 8.63037 9.15516 8.65534 9.15462 8.66239C9.15277 8.68729 9.11661 8.69279 9.1097 8.71317C9.10709 8.72258 9.14809 8.74771 9.13997 8.75321C9.12097 8.76642 9.09292 8.77079 9.04427 8.76004C9.03957 8.7585 8.99822 8.71438 8.98763 8.72391C8.97077 8.74102 8.9181 8.73468 8.93685 8.78446C8.94268 8.79935 9.02731 8.87303 8.95736 8.83621C8.94262 8.82852 8.84518 8.73592 8.91829 8.82742C8.93137 8.84187 9.02069 8.97606 8.93587 8.91922C8.92463 8.91148 8.89605 8.88951 8.8724 8.87235C8.84949 8.85579 8.83065 8.84358 8.83333 8.85281C8.8356 8.85671 8.87928 8.8945 8.87825 8.90457C8.87117 8.93881 8.84417 8.9548 8.83333 8.98856C8.83049 8.99781 8.88038 9.0376 8.87435 9.05008C8.85747 9.08473 8.8115 9.09959 8.77279 9.10281C8.75853 9.10339 8.73698 9.05672 8.73275 9.05203C8.66978 8.98469 8.73207 9.09105 8.73177 9.09988C8.73038 9.15204 8.68071 9.11569 8.66536 9.14188C8.661 9.14902 8.69313 9.19564 8.69564 9.20242C8.70694 9.25493 8.66503 9.15786 8.65072 9.15262C8.61082 9.13757 8.58725 9.15544 8.56575 9.1741C8.55924 9.18215 8.59693 9.23605 8.59017 9.24246C8.54442 9.27725 8.48505 9.29441 8.4222 9.27567C8.41049 9.27204 8.40058 9.22077 8.39486 9.20926C8.3566 9.13393 8.37154 9.24751 8.36947 9.26004C8.36213 9.3137 8.34088 9.27188 8.32454 9.28446C8.24217 9.35053 8.1138 9.33679 8.02572 9.31863C8.01707 9.31699 8.00864 9.31483 8.00033 9.31278C7.89629 9.28649 7.82183 9.23577 7.72493 9.22684C7.71822 9.22763 7.70964 9.29601 7.70345 9.29617C7.62182 9.29465 7.5561 9.24399 7.47591 9.23172C7.46923 9.23053 7.45174 9.29525 7.43978 9.2952C7.41514 9.29533 7.39014 9.28003 7.37923 9.25125C7.37397 9.23727 7.41195 9.19289 7.40658 9.17996C7.39428 9.1501 7.37464 9.13355 7.34798 9.13016C7.33636 9.1288 7.31594 9.19633 7.30306 9.18973C7.21526 9.14633 7.12416 9.09204 7.11263 8.96219C7.11173 8.95317 7.2012 8.84906 7.17415 8.85965C7.14706 8.88649 7.11581 8.91947 7.08724 8.94852C7.08039 8.94375 7.07415 8.93815 7.06771 8.93289C6.96609 8.8495 6.92193 8.7189 6.86947 8.60574C6.86702 8.60054 6.80775 8.64293 6.80208 8.63309C6.77208 8.57414 6.72577 8.51825 6.77181 8.43094C6.77839 8.42192 6.89801 8.38349 6.87435 8.37332C6.86978 8.37139 6.84522 8.35187 6.81673 8.35281C6.8105 8.35387 6.75652 8.3748 6.75228 8.36649C6.72821 8.31691 6.72931 8.25616 6.75716 8.19852C6.76239 8.18951 6.82423 8.18813 6.82943 8.18192C6.85672 8.1381 6.80395 8.09806 6.8597 8.05692C6.89747 8.03052 7.00857 8.03546 7.11654 8.02176C7.13152 8.01983 7.13411 8.00815 7.19661 8.00711C7.35503 8.00475 7.52874 8.00648 7.69759 8.00321C7.73391 8.00258 7.69521 7.99779 7.78255 8.00028C7.78843 8.0005 7.81814 8.00346 7.84798 8.00321C7.86864 8.00303 7.93292 8.00159 7.95931 8.00125C7.96066 8.00119 7.96203 8.00131 7.96322 8.00125C7.97415 8.00087 7.98987 7.99906 8.00618 7.99832C7.99868 7.99973 7.99243 8.00167 7.98958 8.00223C7.97447 8.00549 7.99281 8.00172 7.97493 8.00614C7.9665 8.0083 7.90747 8.02211 7.90267 8.02371C7.87704 8.03313 7.89282 8.03219 7.88118 8.03934C7.82442 8.07779 7.81834 8.11984 7.81966 8.16336C7.81986 8.16822 7.8169 8.17736 7.8138 8.1868C7.80738 8.20563 7.80291 8.228 7.82064 8.22098C7.82496 8.21796 7.85766 8.17544 7.86068 8.17215C7.90627 8.12068 7.83597 8.20733 7.82943 8.22098C7.80359 8.2745 7.81714 8.28956 7.83919 8.27762C7.84868 8.27235 7.89849 8.17474 7.8724 8.23074C7.87013 8.23554 7.84081 8.28511 7.83919 8.29129C7.83575 8.30531 7.84655 8.29957 7.847 8.30496C7.84794 8.31554 7.8493 8.31583 7.85384 8.31864C7.85974 8.32292 7.85767 8.35323 7.87044 8.34403C7.87312 8.34181 7.89203 8.28445 7.89779 8.27567C7.90347 8.26692 7.90699 8.27424 7.90462 8.28836C7.90195 8.30301 7.88703 8.34737 7.88411 8.3577C7.86067 8.44532 7.9076 8.32752 7.90853 8.32449C7.9391 8.27813 7.93721 8.34983 7.95736 8.35281C7.97174 8.35424 7.98805 8.33246 8.00033 8.33524C8.01496 8.33947 8.0315 8.3702 8.0472 8.36258C8.04778 8.35677 8.03787 8.29225 8.03939 8.29129C8.05594 8.28087 8.07117 8.28556 8.10482 8.32449C8.10834 8.32845 8.12525 8.3884 8.13021 8.39578C8.15758 8.44105 8.24065 8.53932 8.13411 8.29031C8.14591 8.29648 8.15953 8.30193 8.19368 8.345C8.216 8.37262 8.2448 8.43434 8.23763 8.40555C8.23594 8.39908 8.204 8.34872 8.20345 8.34305C8.20084 8.31985 8.22004 8.32952 8.21029 8.2991C8.20732 8.29189 8.17801 8.25135 8.1722 8.24246C8.12959 8.17777 8.20954 8.27757 8.21712 8.28348C8.26906 8.33051 8.26108 8.30185 8.27083 8.2952C8.27128 8.29205 8.22577 8.24634 8.22298 8.24051C8.22357 8.23507 8.22532 8.23112 8.22884 8.22879C8.23535 8.22455 8.24727 8.22541 8.2679 8.2327C8.2752 8.23529 8.31957 8.27741 8.32552 8.28055C8.35144 8.29282 8.26482 8.21838 8.28743 8.22977C8.29314 8.23286 8.3315 8.26532 8.33626 8.26883C8.40931 8.32105 8.31181 8.23872 8.3099 8.2366C8.28711 8.20603 8.39913 8.27512 8.39193 8.25223C8.39078 8.24966 8.33452 8.21748 8.33333 8.21219C8.3321 8.18015 8.35854 8.16756 8.41829 8.15848C8.4275 8.157 8.47306 8.17802 8.47884 8.17996C8.56774 8.207 8.45604 8.16185 8.44759 8.1575C8.41862 8.13584 8.52445 8.15336 8.38021 8.10477C8.43105 8.07872 8.39067 8.0366 8.44075 8.00028C8.45313 7.99055 8.47127 7.97977 8.4974 7.96707C8.50306 7.96613 8.56114 7.96292 8.5638 7.96121C8.59738 7.93932 8.50062 7.95063 8.38118 7.95535C8.35125 7.9574 8.49301 7.93093 8.50325 7.92801C8.54142 7.91954 8.63461 7.90962 8.64193 7.9075C8.69783 7.88865 8.39759 7.93634 8.39193 7.92996C8.39238 7.92958 8.44899 7.92001 8.45443 7.91824C8.47067 7.91274 8.44864 7.91456 8.46712 7.90848C8.51058 7.89462 8.65649 7.8592 8.56868 7.86746C8.5548 7.86949 8.38863 7.91014 8.39388 7.90164C8.39654 7.89784 8.39003 7.88514 8.39974 7.87821C8.41006 7.87129 8.46176 7.85816 8.46615 7.85672C8.53369 7.82241 8.56495 7.81747 8.66732 7.77469C8.76823 7.73056 8.52216 7.81766 8.49251 7.82547C8.46427 7.83293 8.51829 7.80378 8.53743 7.79324C8.55649 7.78308 8.59147 7.77261 8.60189 7.7659C8.66834 7.72098 8.47838 7.80777 8.43783 7.81961C8.34343 7.84986 8.51967 7.76589 8.53158 7.74637C8.53373 7.74226 8.4953 7.7624 8.49056 7.76199C8.47298 7.76042 8.52327 7.72788 8.46908 7.74442C8.45899 7.7471 8.35493 7.79713 8.42611 7.75028C8.4364 7.74331 8.47945 7.72043 8.48665 7.71121C8.49747 7.69747 8.5002 7.68187 8.48275 7.68485C8.4695 7.68759 8.40669 7.73554 8.42415 7.71707C8.4324 7.70852 8.47375 7.68696 8.4847 7.67313C8.49558 7.65913 8.48534 7.64816 8.48079 7.64481C8.47609 7.64178 8.43194 7.6779 8.42611 7.68192C8.40588 7.69385 8.3768 7.70583 8.3763 7.70535C8.36114 7.69237 8.36934 7.65998 8.36947 7.63016C8.36986 7.60425 8.36419 7.5802 8.33919 7.58035C8.33424 7.5819 8.2996 7.62839 8.29622 7.63211C8.27189 7.64704 8.38359 7.51859 8.41146 7.46805C8.3328 7.5715 8.34339 7.55027 8.32845 7.55692C8.32105 7.56086 8.29452 7.60055 8.29036 7.60574C8.24143 7.66462 8.29638 7.58296 8.30697 7.56571C8.34654 7.50279 8.29272 7.57194 8.31868 7.52957C8.34337 7.48817 8.38883 7.43374 8.38314 7.42703C8.35551 7.46439 8.29237 7.56739 8.27669 7.58133C8.22113 7.6335 8.24047 7.53501 8.22689 7.51785C8.21563 7.50177 8.20649 7.5079 8.20345 7.48856C8.19712 7.45382 8.17133 7.53957 8.14876 7.57547C8.12689 7.61148 8.20119 7.40407 8.21517 7.3577C8.22835 7.31183 8.21136 7.35702 8.21712 7.33133C8.22271 7.30589 8.23759 7.27738 8.2347 7.2659C8.23093 7.25432 8.18992 7.3305 8.17513 7.37821C8.14309 7.47855 8.11861 7.58627 8.11849 7.54715C8.11843 7.54474 8.13519 7.4881 8.13411 7.48172C8.12431 7.43319 8.1018 7.42535 8.08333 7.38309C8.08068 7.37713 8.09178 7.31308 8.09017 7.30887C8.0723 7.26509 8.06711 7.37451 8.04622 7.49442C8.06348 7.33433 8.06587 7.23466 8.04622 7.23172C8.03468 7.23044 8.03302 7.30137 8.02474 7.35086C8.02244 7.36579 8.01608 7.31766 8.014 7.35086C8.00794 7.45906 8.01161 7.57997 8.00033 7.5325V7.47391C8.00019 7.47054 7.99967 7.468 7.99935 7.46707C7.98524 7.44363 7.9863 7.55702 7.97591 7.57156C7.96817 7.58269 7.94452 7.51596 7.93001 7.50614C7.90552 7.32598 7.89427 7.36928 7.91146 7.49344C7.9026 7.49006 7.89553 7.4985 7.88411 7.48367C7.88009 7.47853 7.8701 7.42673 7.86849 7.42117C7.84246 7.3364 7.86541 7.45319 7.86556 7.46024C7.85885 7.5098 7.8148 7.42704 7.8265 7.51883C7.82759 7.52431 7.86911 7.64012 7.83333 7.55594C7.83068 7.55022 7.81691 7.49635 7.80697 7.49344C7.79779 7.4921 7.75295 7.43708 7.76497 7.49539C7.76757 7.50973 7.8067 7.60463 7.76595 7.53543C7.76014 7.52555 7.74478 7.49304 7.7347 7.47586C7.70202 7.42156 7.75829 7.53513 7.70345 7.44168C7.64869 7.34812 7.59609 7.28445 7.61849 7.3577C7.61901 7.35992 7.66708 7.4495 7.66243 7.45047C7.65471 7.45175 7.63515 7.44039 7.62825 7.44461C7.62526 7.44705 7.66125 7.49654 7.66243 7.4993C7.66324 7.54139 7.61759 7.50575 7.5804 7.50516C7.57306 7.50536 7.61985 7.57782 7.56771 7.53446C7.5091 7.48783 7.30693 7.25424 7.33236 7.33231C7.34375 7.36865 7.61637 7.64087 7.4554 7.51883C7.46939 7.57825 7.36444 7.54558 7.40267 7.61844C7.40429 7.62171 7.49163 7.68223 7.49154 7.68582C7.48695 7.68868 7.44231 7.66495 7.43685 7.66629C7.4153 7.67286 7.4455 7.70652 7.43392 7.71707C7.42915 7.72114 7.38224 7.69689 7.3763 7.70242C7.37288 7.70913 7.43066 7.7405 7.39681 7.73563C7.3696 7.73119 7.23624 7.68471 7.21615 7.69071C7.34606 7.74259 7.34103 7.74875 7.37142 7.77274C7.3774 7.77733 7.4248 7.79124 7.43001 7.79422C7.45206 7.80627 7.41259 7.79751 7.43685 7.80985C7.44278 7.81283 7.48897 7.82813 7.49642 7.83133C7.56025 7.85802 7.45737 7.83364 7.43783 7.83035C7.36775 7.81686 7.42563 7.83745 7.39779 7.83524C7.36922 7.83346 7.33698 7.81612 7.31868 7.81864C7.28135 7.8245 7.28359 7.8465 7.27865 7.8616C7.27688 7.8678 7.34092 7.87606 7.34212 7.87723C7.35446 7.89102 7.28752 7.89451 7.41146 7.91824C7.08462 7.88232 7.44204 7.92889 7.37533 7.93582C7.36992 7.93635 7.21478 7.92309 7.19271 7.91434C7.17101 7.9054 7.21993 7.90225 7.18587 7.88895C7.17734 7.88618 7.03499 7.85178 7.02669 7.84793C6.96295 7.82146 7.18773 7.85832 7.20345 7.86063C7.34037 7.87785 7.18863 7.83552 7.17904 7.8284C7.13468 7.8001 7.16972 7.79198 7.13997 7.76785C7.12054 7.75191 6.97455 7.70883 6.98177 7.70047C7.00671 7.67127 7.20971 7.73337 7.04622 7.64383C7.01131 7.62429 6.85407 7.57077 6.9847 7.595C6.99316 7.59603 7.11014 7.62667 7.04427 7.58817C7.03599 7.58326 6.99261 7.5644 6.98861 7.56082C6.96926 7.5394 7.0075 7.5477 6.99642 7.5286C6.98509 7.50926 6.96728 7.48191 6.98861 7.47586C7.0016 7.47206 7.08609 7.50535 7.10775 7.51297C7.16849 7.53445 7.08432 7.47284 7.15365 7.50516C7.22362 7.53929 7.32054 7.60816 7.37044 7.62235C7.26254 7.55711 7.15219 7.48876 7.04427 7.42215C7.07086 7.38712 7.12793 7.37608 7.14876 7.34012C7.14947 7.33459 7.0951 7.29872 7.09603 7.29227C7.10331 7.26556 7.15432 7.27982 7.15658 7.24832C7.15799 7.22365 7.12097 7.15818 7.12435 7.12918C7.13239 7.13579 7.14001 7.14159 7.14681 7.14676C7.23406 7.21337 7.22533 7.16546 7.24935 7.16043C7.25861 7.15975 7.28323 7.18873 7.29525 7.19461C7.33977 7.21636 7.25008 7.12577 7.24154 7.10672C7.20719 7.02451 7.38941 7.24293 7.4056 7.22586C7.40597 7.22518 7.32872 7.09384 7.32454 7.08231C7.30124 7.02198 7.3587 7.12381 7.37337 7.12723C7.4002 7.13358 7.4295 7.15732 7.4222 7.10867C7.41956 7.09447 7.38288 7.00427 7.43197 7.06082C7.43826 7.06819 7.46292 7.11138 7.46615 7.11453C7.5099 7.14622 7.42986 7.0079 7.41634 6.9534C7.40363 6.89938 7.47568 6.98513 7.49349 7.01199C7.5405 7.08031 7.50203 7.04748 7.50521 7.05496C7.54407 7.1429 7.54907 7.1216 7.56185 7.1243C7.63339 7.26343 7.63938 7.25027 7.57454 7.12723C7.56738 7.11389 7.56675 7.12942 7.56185 7.1243C7.50055 6.98308 7.51181 6.95576 7.58724 7.07938C7.62221 7.13752 7.64638 7.21214 7.6556 7.17703C7.66005 7.16116 7.61582 7.06272 7.61458 7.03153C7.61343 6.96036 7.67739 7.0433 7.69466 7.02176C7.70141 7.01368 7.67607 6.96051 7.68001 6.95242C7.69205 6.93202 7.71924 6.97076 7.72982 6.94461C7.73066 6.94179 7.71189 6.88529 7.71615 6.88114C7.7563 6.86366 7.80067 6.89479 7.8431 6.88992C7.8635 6.8874 7.89822 6.84934 7.92122 6.85477C7.94665 6.86053 7.97628 6.89953 8.00033 6.92117C8.01363 6.93298 8.02542 6.9399 8.03646 6.93289C8.05689 6.91969 8.05602 6.85727 8.06771 6.81571ZM7.15169 8.05789C7.08041 8.05806 7.07622 8.0763 7.14974 8.06668C7.15255 8.06582 7.15455 8.05789 7.15169 8.05789ZM7.25228 7.98367C7.26521 7.95069 7.52621 7.95852 7.49837 7.97781C7.49282 7.98202 7.41507 7.96466 7.39095 7.96903C7.34725 7.97958 7.5116 7.98985 7.42318 7.9993C7.40611 8.00186 7.2576 7.98683 7.25228 7.98367ZM8.04525 7.99149C8.07359 7.98779 8.09481 7.99135 8.07552 7.99539C8.06984 7.99649 8.03702 7.99693 8.00618 7.99832C8.02058 7.99562 8.0395 7.9922 8.04525 7.99149ZM8.55892 7.97781C8.55268 7.9785 8.54728 7.99022 8.55306 7.99051C8.66959 7.99636 8.68095 7.96624 8.55892 7.97781ZM7.22786 7.75125C7.18536 7.74273 7.22868 7.77049 7.28158 7.78055C7.3238 7.78924 7.28034 7.76263 7.22786 7.75125ZM8.63021 7.69852C8.62729 7.70007 8.62637 7.70626 8.6429 7.69852C8.69771 7.67245 8.67957 7.67234 8.63021 7.69852ZM7.17513 7.39188C7.10643 7.35643 7.23879 7.46231 7.26595 7.47586C7.35363 7.52275 7.2429 7.42886 7.17513 7.39188ZM8.32454 7.41531C8.32326 7.41799 8.32687 7.42365 8.32845 7.42117C8.36672 7.36146 8.35761 7.34973 8.32454 7.41531Z" fill="#555961"/>
<path d="M7.53483 4.10221C7.5552 4.10586 7.54192 4.17129 7.55632 4.17448C7.65697 4.19666 7.76023 4.14067 7.85612 4.19499C7.91939 4.23179 7.8999 4.34232 7.93327 4.44987C7.93791 4.465 7.97398 4.46713 7.97624 4.52995C7.98159 4.68832 7.96748 4.86213 7.97526 5.03092C7.97686 5.06718 8.01585 5.02852 7.99284 5.11588C7.99118 5.12173 7.96306 5.15142 7.95671 5.18131C7.95235 5.20198 7.96162 5.266 7.9528 5.29264C7.94408 5.31918 7.93225 5.26605 7.91764 5.29752C7.9035 5.32959 7.91241 5.40194 7.88346 5.41178C7.81632 5.43397 7.72712 5.42102 7.65495 5.40202C7.63233 5.3961 7.63694 5.35501 7.62077 5.34928C7.58919 5.33855 7.56484 5.36201 7.53288 5.34928C7.52207 5.3448 7.52267 5.28025 7.51139 5.27702C7.44949 5.26019 7.39867 5.28668 7.33854 5.28776C7.03864 5.2931 6.7496 5.38647 6.47331 5.52311C6.4431 5.53808 6.40761 5.54984 6.37175 5.56315C6.29964 5.58976 6.22316 5.62147 6.17741 5.67838C6.16949 5.6884 6.20866 5.72804 6.20964 5.73307C6.22451 5.80913 6.16574 5.71579 6.13737 5.71842C6.02591 5.73362 5.93917 5.80519 5.88835 5.88639C5.86749 5.92101 5.97255 5.96962 5.90202 5.95475C5.8971 5.95384 5.8614 5.90539 5.84928 5.90885C5.82197 5.91694 5.79723 5.95808 5.78093 5.9694C5.74904 5.99069 5.74504 5.99602 5.72135 6.02213C5.68876 6.05743 5.62973 6.08401 5.60807 6.13346C5.60399 6.14406 5.65905 6.16924 5.6569 6.18913C5.65434 6.2089 5.62374 6.24219 5.60319 6.24674C5.58275 6.25086 5.54844 6.21806 5.53776 6.21354C5.45021 6.1792 5.52004 6.296 5.52018 6.30436C5.49411 6.43745 5.37791 6.49158 5.32194 6.59831C5.28061 6.67794 5.26198 6.77426 5.22721 6.85124L5.22624 6.85319C5.18385 6.94534 5.12342 7.01653 5.09928 7.11393C5.09676 7.12401 5.16678 7.13313 5.16569 7.14518C5.13504 7.27559 5.09832 7.40135 5.02995 7.52702C5.02304 7.53967 4.96455 7.51293 4.95378 7.52506C4.88971 7.59848 4.75299 7.7317 5.02018 7.79948C5.00579 7.85451 4.99206 7.92176 4.93718 7.97233C4.90182 8.00463 4.83524 7.97213 4.86393 8.01335C4.87036 8.02255 4.92815 8.01092 4.93425 8.02409C4.95635 8.08133 4.93995 8.14519 4.97428 8.19987C4.98146 8.21087 5.03376 8.20421 5.04362 8.2067C5.12259 8.2273 4.99906 8.28222 4.99089 8.29362C4.92955 8.3759 4.96359 8.42964 4.97331 8.49967C4.97612 8.5154 5.04197 8.4855 5.04753 8.49967C5.05579 8.52698 5.06327 8.55538 5.06803 8.58366C5.07678 8.63575 5.07812 8.68982 5.07096 8.74479C5.06727 8.76304 5.00674 8.76253 5.00163 8.77213C4.98413 8.81653 5.09643 8.79484 5.08268 8.83561C5.0799 8.84428 5.02931 8.85514 5.02409 8.85807C4.94416 8.90456 5.07162 8.88704 5.07585 8.89127C5.13261 8.94673 5.02189 9.03214 5.06413 9.09245C5.06965 9.099 5.12486 9.05915 5.13542 9.07975C5.20635 9.21697 5.25654 9.36861 5.28678 9.52897C5.29158 9.55378 5.24102 9.56372 5.236 9.56803C5.16585 9.63735 5.28466 9.58834 5.29264 9.59245C5.35313 9.62768 5.2952 9.73437 5.44499 9.6862C5.5249 9.88378 5.69215 10.0159 5.80241 10.1969C5.8299 10.2419 5.85505 10.2906 5.87565 10.3454C5.87708 10.3488 5.83192 10.3905 5.83366 10.3981C5.8717 10.4794 5.92536 10.3965 6.04167 10.3385C6.07041 10.3236 6.0099 10.4606 6.00651 10.4714C5.99228 10.5101 5.92276 10.574 5.92155 10.5827C5.91492 10.6527 6.10146 10.4078 6.13932 10.4352C6.14021 10.4365 6.10107 10.4776 6.10026 10.485C6.09962 10.5069 6.12349 10.4971 6.12175 10.5202C6.11694 10.5736 6.03901 10.7017 6.12663 10.6569C6.13839 10.6497 6.23131 10.5031 6.26139 10.5339C6.27339 10.5466 6.33829 10.5854 6.35026 10.6061C6.3616 10.6265 6.32212 10.665 6.31999 10.6696C6.33031 10.764 6.29517 10.7789 6.26432 10.8893C6.23497 11 6.36093 10.7705 6.38639 10.7506C6.41141 10.7315 6.41839 10.8067 6.41764 10.8307C6.41642 10.8545 6.38798 10.8789 6.3903 10.8942C6.40947 10.9952 6.47741 10.7932 6.5153 10.7663C6.60271 10.7019 6.54619 10.8918 6.57975 10.9294C6.58857 10.9392 6.59946 10.8952 6.611 10.8962C6.65566 10.9005 6.65436 10.9656 6.72135 10.9342C6.73272 10.9293 6.81309 10.8369 6.80339 10.9255C6.80203 10.9383 6.77484 10.9797 6.78776 10.9967C6.80702 11.0221 6.84924 11.0494 6.88249 11.0446C6.90707 11.0408 6.9115 10.9575 6.92839 10.9899C6.93601 11.0044 6.89878 11.0414 6.91471 11.0651C6.93075 11.0888 6.98767 11.1049 7.00944 11.11C7.03119 11.1151 7.03772 11.0538 7.04069 11.0505C7.0576 11.032 7.10333 11.0162 7.10905 11.0163C7.20392 11.0401 7.28858 11.0893 7.3776 11.1286C7.45549 11.163 7.5369 11.1899 7.6237 11.1842C7.63795 11.1834 7.63626 11.121 7.63835 11.1178C7.68916 11.0965 7.63255 11.2616 7.66178 11.3219C7.66996 11.1927 7.68773 11.2176 7.72331 11.2067C7.74041 11.2012 7.73613 11.1509 7.73796 11.1452C7.76816 11.071 7.77765 11.1706 7.78093 11.1911C7.79241 11.2659 7.81564 11.18 7.82389 11.2301C7.83242 11.2799 7.80205 11.3513 7.83659 11.3522C7.84825 11.3063 7.82943 11.1835 7.85514 11.1647C7.95059 11.0957 8.12319 11.1891 8.20182 11.193C8.2784 11.1978 8.30232 11.1858 8.34831 11.1979C8.43173 11.2188 8.39187 11.1329 8.43425 11.0856C8.47594 11.0381 8.48559 11.2591 8.49968 11.3063C8.51415 11.3523 8.51487 11.3033 8.528 11.3278C8.54102 11.3521 8.52669 11.3868 8.54948 11.3932C8.57317 11.3995 8.61702 11.3061 8.61491 11.2555C8.61058 11.149 8.56568 11.0448 8.62468 11.0719C8.62818 11.0736 8.63034 11.133 8.64323 11.1364C8.74567 11.1612 8.84365 11.1392 8.94792 11.1491C8.96238 11.1505 8.97042 11.2169 8.97917 11.2184C9.07025 11.233 9.00983 11.137 9.01237 11.0085C9.05432 11.1648 9.11009 11.2513 9.17155 11.2301C9.2079 11.2173 9.17743 11.1533 9.18229 11.0983C9.18362 11.0818 9.22582 11.1169 9.21843 11.0846C9.1929 10.9779 9.12583 10.8743 9.19987 10.8962C9.20116 10.8977 9.20376 10.9043 9.20671 10.9128C9.21108 10.9253 9.21712 10.9418 9.22233 10.9499C9.22433 10.9529 9.2264 10.9548 9.22819 10.9548C9.29296 10.9524 9.25498 10.846 9.30632 10.8073C9.3464 10.777 9.45664 10.7992 9.51335 10.7809C9.59864 10.9413 9.63017 10.8762 9.58659 10.7565C9.62182 10.7422 9.65305 10.7154 9.69303 10.7106C9.70687 10.7089 9.72871 10.7574 9.73307 10.7614C9.8009 10.8225 9.752 10.7147 9.75456 10.7038C9.8029 10.6168 9.916 10.6488 9.92936 10.5251C9.92719 10.5171 9.85876 10.419 9.93132 10.4772C9.93658 10.4825 9.94945 10.5434 9.98307 10.5231C10.0168 10.5025 10.1196 10.5054 10.1237 10.4245C10.1249 10.4047 10.0812 10.3063 10.1549 10.3473C10.165 10.353 10.1863 10.3819 10.2038 10.3932C10.2602 10.4286 10.18 10.3292 10.2692 10.3942C10.3582 10.4591 10.4481 10.4852 10.4372 10.3903C10.437 10.3874 10.375 10.3066 10.3883 10.2946C10.4103 10.2756 10.4543 10.2592 10.4743 10.236C10.4823 10.2245 10.4305 10.1898 10.4313 10.1872C10.469 10.0925 10.5551 10.0771 10.6383 10.0085C10.6536 9.99507 10.6172 9.90147 10.693 9.91081C10.7771 9.91993 11.0058 10.1328 11.0026 10.0065L10.9889 9.97819C10.9325 9.8953 10.7247 9.71152 10.9059 9.75358C10.9312 9.61424 11.0814 9.55036 11.0729 9.39616C11.07 9.38777 10.9815 9.32822 10.987 9.31608C10.9974 9.29845 11.0493 9.30797 11.0583 9.29557C11.0965 9.24405 11.0767 9.17495 11.1032 9.12174C11.1133 9.10186 11.1594 9.12623 11.1716 9.10221C11.1833 9.07705 11.1236 9.03783 11.1667 9.01335C11.1994 8.99504 11.3438 9.00935 11.3708 8.97624C11.2365 8.93573 11.2464 8.91136 11.2223 8.85807C11.2172 8.84798 11.1684 8.84395 11.1637 8.83854C11.1439 8.81656 11.1859 8.81224 11.1637 8.79069C11.1583 8.78543 11.1113 8.7731 11.1042 8.76823C11.0428 8.72703 11.1565 8.71132 11.1764 8.70768C11.2521 8.69512 11.1944 8.66873 11.2262 8.65299C11.2579 8.63717 11.2856 8.676 11.3073 8.65397C11.3525 8.60719 11.3569 8.53497 11.3669 8.48014C11.3696 8.45915 11.3082 8.46442 11.3044 8.46159C11.2945 8.41515 11.3669 8.37647 11.2428 8.33854C11.5732 8.34061 11.2147 8.30826 11.2848 8.25163C11.2905 8.24717 11.4461 8.25197 11.4674 8.27409C11.4886 8.29641 11.4378 8.32258 11.4704 8.35417C11.4789 8.36156 11.6186 8.41663 11.6266 8.4235C11.6891 8.47447 11.4625 8.45096 11.446 8.45085C11.3062 8.45663 11.4549 8.52401 11.4635 8.53874C11.5038 8.60301 11.4625 8.64594 11.488 8.69987C11.5045 8.73485 11.6509 8.76914 11.6432 8.79362C11.609 8.87627 11.3965 8.85012 11.5534 8.97428C11.5867 9.00114 11.7516 9.0304 11.6081 9.05534C11.5969 9.05741 11.4724 9.06678 11.5358 9.11393C11.5439 9.11995 11.5893 9.13468 11.5924 9.1403C11.6084 9.17713 11.5659 9.18442 11.5729 9.22135C11.5799 9.25829 11.5918 9.30499 11.5632 9.33463C11.546 9.35265 11.4524 9.34783 11.4274 9.34928C11.3574 9.3532 11.4414 9.42147 11.363 9.40885C11.2846 9.3952 11.1895 9.31867 11.1257 9.34049C11.2408 9.3917 11.3581 9.44666 11.4733 9.49967C11.4255 9.5991 11.3423 9.67789 11.2956 9.77604C11.2898 9.78835 11.3559 9.8087 11.3512 9.82292C11.3307 9.88304 11.2616 9.9059 11.2448 9.97038C11.2321 10.0205 11.2633 10.106 11.2487 10.1608C11.2387 10.157 11.229 10.1544 11.2204 10.152C11.1101 10.1214 11.1041 10.2009 11.0632 10.236C11.0478 10.2491 11.0179 10.2256 10.9997 10.2292C10.9315 10.2427 11.0481 10.3001 11.0553 10.3239C11.0842 10.4261 10.8532 10.2532 10.8151 10.3112C10.8151 10.3166 10.9023 10.4482 10.9049 10.4596C10.9253 10.5313 10.8601 10.4307 10.8346 10.4421C10.7882 10.464 10.7398 10.4633 10.736 10.5339C10.7357 10.5549 10.7775 10.6484 10.7028 10.6198C10.6932 10.6161 10.6596 10.5802 10.654 10.5788C10.5777 10.5858 10.6891 10.6999 10.7018 10.7633C10.7139 10.8267 10.5982 10.7846 10.569 10.7682C10.4929 10.727 10.5607 10.7274 10.5563 10.7204C10.5035 10.639 10.488 10.6768 10.4616 10.6901C10.3527 10.5774 10.3306 10.6094 10.4342 10.7038C10.4456 10.7138 10.4526 10.6887 10.4616 10.6901C10.5468 10.8198 10.5237 10.8666 10.3932 10.7897C10.3322 10.7533 10.2974 10.6804 10.2643 10.7448C10.249 10.7742 10.3262 10.8508 10.3229 10.8913C10.3141 10.9842 10.1858 10.9552 10.1423 11.0055C10.1268 11.0241 10.1795 11.0585 10.1696 11.0729C10.1426 11.1116 10.0855 11.0972 10.0612 11.1403C10.0607 11.1458 10.1014 11.1907 10.0905 11.1989C10.0053 11.263 9.90569 11.2765 9.80925 11.3278C9.76278 11.3528 9.6926 11.4265 9.63932 11.444C9.58029 11.4638 9.49979 11.4565 9.43327 11.4606C9.39631 11.463 9.3634 11.4685 9.33952 11.486C9.29573 11.5176 9.32791 11.5714 9.32096 11.6188C9.30617 11.7114 9.18268 11.5985 9.16667 11.5798C9.16767 11.5781 9.20375 11.5511 9.17155 11.529C9.13851 11.4719 9.16578 11.5744 9.16667 11.5798C9.15479 11.5686 9.06527 11.5823 9.05143 11.5983C9.04492 11.6085 9.06542 11.6611 9.0612 11.6647C8.95784 11.7492 8.83746 11.7935 8.70866 11.7897C8.70611 11.7868 8.69736 11.7248 8.69206 11.7233C8.61678 11.7075 8.58473 11.7937 8.53093 11.8493C8.47747 11.9044 8.42556 11.894 8.37956 11.7858C8.33621 11.8042 8.2679 11.76 8.23014 11.7321C8.19246 11.7044 8.19431 11.8319 8.19108 11.8346C8.09196 11.9198 8.02836 11.8477 7.9235 11.8346C7.87331 11.8283 7.77245 11.8417 7.71647 11.8512C7.6723 11.859 7.64865 11.8275 7.6071 11.8424C7.6017 11.8461 7.60113 11.902 7.59928 11.904C7.54758 11.9654 7.58375 11.8319 7.5778 11.8053C7.55479 11.712 7.54153 11.6616 7.48112 11.696C7.46767 11.7039 7.4005 11.8965 7.3737 11.904C7.33998 11.9131 7.3633 11.8446 7.3278 11.8561C7.32472 11.8577 7.31743 11.9007 7.29753 11.8952C7.27507 11.889 7.25203 11.8817 7.22917 11.8737C7.15746 11.8486 7.08473 11.818 7.01139 11.8024C6.99833 11.7999 6.99757 11.8705 6.97819 11.8678C6.88572 11.8521 6.78658 11.8199 6.71159 11.7594C6.69347 11.7445 6.7226 11.7028 6.72331 11.6872C6.72514 11.5945 6.64316 11.7011 6.63542 11.7008C6.45787 11.7001 6.38782 11.5432 6.2155 11.5182C6.2041 11.5194 6.07949 11.6047 6.1071 11.487C6.10864 11.4789 6.13961 11.359 6.07585 11.4176C6.07148 11.4236 6.05787 11.4844 6.0319 11.4626C6.00562 11.4406 5.9364 11.4474 5.93229 11.3649C5.93097 11.3379 5.966 11.22 5.87858 11.277C5.87119 11.2836 5.69687 11.4233 5.75944 11.2868C5.76999 11.2641 5.86218 11.136 5.77409 11.1735C5.75736 11.1812 5.7513 11.2195 5.71745 11.2223C5.66486 11.2263 5.64708 11.1619 5.5651 11.1872C5.55085 11.192 5.45471 11.2532 5.48112 11.1706C5.48537 11.1577 5.52461 11.1216 5.51628 11.1071C5.47605 11.0387 5.39395 11.0149 5.36198 10.9372C5.35081 10.9098 5.41723 10.8551 5.41276 10.82C5.40802 10.7849 5.38459 10.7326 5.33757 10.7409C5.29002 10.7492 5.21743 10.8686 5.17839 10.8454C5.17349 10.8424 5.16848 10.8397 5.16374 10.8366C5.00326 10.7309 4.93652 10.5391 4.83561 10.3864C4.82009 10.3636 4.79579 10.4106 4.77018 10.3776C4.67456 10.2577 4.49087 10.0502 4.52018 9.88249C4.54388 9.75079 4.66082 9.83666 4.65397 9.75163C4.65107 9.71172 4.4909 9.74652 4.4821 9.73991C4.39601 9.67939 4.43318 9.59094 4.38151 9.52409C4.37044 9.51067 4.31871 9.55009 4.31022 9.53776C4.28057 9.4954 4.28682 9.4362 4.2653 9.39323C4.25547 9.37393 4.211 9.39386 4.20768 9.3737C4.19943 9.32586 4.20568 9.27904 4.23503 9.22135C4.23775 9.21619 4.30397 9.22342 4.29557 9.1901C4.28183 9.13597 4.30586 9.05849 4.24479 9.00944C4.22639 8.99499 4.11758 9.02181 4.18229 8.96256C4.19747 8.95006 4.32731 8.92907 4.20475 8.91081C4.1842 8.90859 4.01252 8.86191 4.10319 8.80143C4.11522 8.79353 4.1474 8.77762 4.1735 8.76139C4.19907 8.74542 4.21913 8.72875 4.20866 8.7194C4.20346 8.71787 4.14862 8.74036 4.13932 8.72331C4.10764 8.66081 4.10269 8.58936 4.07487 8.52311C4.06655 8.50635 4.00987 8.54119 4.00065 8.51432C3.975 8.4394 3.98113 8.3407 3.99577 8.26432C4.00139 8.23628 4.05379 8.25209 4.05925 8.24967C4.14823 8.21246 4.02399 8.20078 4.01628 8.1901C3.97056 8.12513 4.02687 8.07227 4.01139 8.01139C4.0073 7.99446 3.94948 8.00592 3.94401 8.0026C3.89291 7.96683 3.99771 7.99351 4.00944 7.97135C4.0426 7.90965 4.04074 7.8418 4.03678 7.77897C4.03526 7.75582 3.96505 7.77751 3.96452 7.75651C3.96021 7.63193 3.98134 7.50246 4.03678 7.38932C4.04724 7.36831 4.09579 7.38953 4.10905 7.38737C4.19662 7.36936 4.0923 7.3048 4.08366 7.29167C4.04375 7.23381 4.09301 7.22285 4.09343 7.17838C4.09442 6.95883 4.20269 6.70907 4.29557 6.52995C4.30473 6.51194 4.31448 6.49438 4.32389 6.47721C4.43854 6.26993 4.56204 6.12218 4.67155 5.92252C4.67925 5.90879 4.61184 5.88519 4.61784 5.87272C4.69872 5.71277 4.82324 5.58658 4.92155 5.43717C4.92981 5.42489 4.86582 5.39798 4.87761 5.37663C4.90151 5.33262 4.94596 5.28761 4.99479 5.2653C5.01829 5.25546 5.03853 5.31663 5.0612 5.30534C5.11431 5.27881 5.1584 5.23961 5.19108 5.19206C5.20493 5.1717 5.13189 5.14959 5.153 5.12663C5.30243 4.96907 5.46399 4.81747 5.69206 4.76237C5.7078 4.75855 5.79721 4.86352 5.80729 4.82487C5.78757 4.79225 5.76216 4.75543 5.73991 4.72135C5.75496 4.70934 5.77029 4.69758 5.78581 4.6862C6.02348 4.51189 6.30336 4.41423 6.57682 4.31608C6.58923 4.31162 6.5419 4.25189 6.56608 4.24284C6.7054 4.19084 6.84057 4.12599 7.00553 4.15788C7.02176 4.16101 7.0462 4.28604 7.08268 4.25846C7.08907 4.25314 7.14774 4.22159 7.15885 4.19108C7.16023 4.18651 7.13593 4.13045 7.15593 4.1237C7.27556 4.08827 7.40844 4.08041 7.53483 4.10221ZM8.01725 11.3317C8.00434 11.403 8.0539 11.4084 8.04264 11.3346C8.04201 11.3317 8.01842 11.329 8.01725 11.3317ZM6.51139 11.0319C6.48586 11.0868 6.51567 11.082 6.53288 11.028C6.53326 11.0246 6.51925 11.0151 6.51139 11.0319ZM5.75163 10.3053C5.65003 10.3685 5.72288 10.4551 5.78874 10.3493C5.79203 10.3439 5.75687 10.3025 5.75163 10.3053ZM11.1901 9.60026C11.0834 9.59249 11.1982 9.68536 11.2799 9.69401C11.3618 9.70119 11.2235 9.60275 11.1901 9.60026ZM11.3337 8.75358C11.2888 8.7583 11.3273 8.81053 11.3835 8.80534C11.4289 8.80061 11.39 8.74722 11.3337 8.75358ZM11.2428 8.00065C11.2591 7.99168 11.4149 8.05053 11.4137 8.05729L11.3981 8.09342C11.3385 8.17125 11.1383 8.19282 11.1676 8.10319C11.1737 8.08411 11.2493 8.14688 11.2741 8.1237C11.3189 8.07864 11.1548 8.04565 11.2428 8.00065ZM7.81901 4.48795C7.8292 4.41614 7.77736 4.41295 7.79264 4.486C7.79326 4.48889 7.81789 4.49075 7.81901 4.48795Z" fill="#555961"/>
<path d="M7.25164 1.40743C7.46711 1.37377 7.69814 1.37349 7.91473 1.40743C7.94881 1.41341 7.91343 1.47644 7.93719 1.48165C8.11081 1.51362 8.3028 1.47146 8.46453 1.54122C8.5717 1.58841 8.52236 1.69509 8.56903 1.80783C8.57557 1.82365 8.6404 1.83298 8.63738 1.89572C8.62902 2.05422 8.58097 2.22442 8.57586 2.39376C8.57501 2.4297 8.65799 2.39997 8.60223 2.48165C8.59829 2.48708 8.53872 2.5108 8.52215 2.53927C8.51069 2.55896 8.52139 2.62418 8.49969 2.64865C8.4781 2.67313 8.46101 2.61737 8.42645 2.64572C8.39223 2.67464 8.40054 2.74777 8.33758 2.75216C8.19142 2.76175 8.00277 2.73736 7.85613 2.7131C7.81063 2.70545 7.83218 2.66536 7.80047 2.65841C7.73762 2.64532 7.68045 2.66834 7.61785 2.6545C7.59695 2.6497 7.61742 2.58483 7.59539 2.58126C7.47437 2.56249 7.36337 2.59046 7.24188 2.59396C6.64014 2.61176 6.05192 2.76779 5.48797 3.01974C5.42639 3.04728 5.35817 3.0735 5.28875 3.10177C5.14886 3.15855 5.00219 3.22434 4.89324 3.31661C4.87451 3.33259 4.91598 3.37008 4.9157 3.37716C4.89415 3.47565 4.85163 3.36982 4.8034 3.38497C4.61262 3.44543 4.43746 3.57497 4.31121 3.71212C4.2578 3.77063 4.3886 3.80127 4.28973 3.80685C4.28284 3.80738 4.25833 3.75031 4.23797 3.75997C4.19168 3.78198 4.13001 3.85329 4.0993 3.87618C4.03973 3.92008 4.03099 3.92919 3.98113 3.97775C3.91286 4.0437 3.81314 4.10631 3.75457 4.19161C3.743 4.20977 3.80656 4.22867 3.79168 4.26095C3.77632 4.29328 3.71296 4.35839 3.68231 4.37325C3.6519 4.38762 3.624 4.34825 3.61199 4.34493C3.51195 4.3216 3.54311 4.48602 3.53778 4.49825C3.42714 4.72622 3.24788 4.85962 3.12567 5.06173C3.03439 5.21338 2.96536 5.39037 2.89031 5.54025C2.88969 5.54149 2.88899 5.54291 2.88836 5.54415C2.79792 5.72359 2.70156 5.86984 2.63934 6.05685C2.63376 6.07619 2.70758 6.07807 2.69988 6.10177C2.61801 6.35493 2.53965 6.60513 2.43914 6.85665C2.42873 6.88102 2.37616 6.83606 2.36199 6.85958C2.27788 7.0092 2.11791 7.26442 2.37762 7.39083C2.35503 7.49952 2.33383 7.63227 2.27508 7.7297C2.23722 7.79281 2.17202 7.72742 2.19793 7.8088C2.20389 7.82691 2.26352 7.80568 2.26824 7.83224C2.28656 7.94554 2.26725 8.06938 2.30145 8.1799C2.3085 8.20216 2.3605 8.19463 2.37078 8.2004C2.44985 8.2501 2.32688 8.34469 2.31902 8.36544C2.25994 8.51863 2.29854 8.62699 2.31512 8.76486C2.31943 8.79634 2.38497 8.74937 2.39129 8.7795C2.40257 8.83451 2.41289 8.89038 2.42156 8.9465C2.43757 9.05011 2.44833 9.15521 2.45086 9.259C2.45115 9.294 2.38571 9.27677 2.3825 9.29415C2.37212 9.37354 2.48759 9.36239 2.48113 9.43673C2.47986 9.45214 2.42872 9.45709 2.42254 9.46115C2.34683 9.52597 2.47947 9.52977 2.48504 9.53927C2.55911 9.66147 2.45962 9.78591 2.52215 9.90939C2.52981 9.92372 2.57977 9.86801 2.59735 9.90939C2.71461 10.1873 2.8271 10.4826 2.92547 10.7717C2.94053 10.8156 2.88378 10.8117 2.87762 10.8166C2.81842 10.9046 2.94206 10.8714 2.95574 10.8811C3.04499 10.9677 3.01496 11.1212 3.18719 11.1076C3.37294 11.4728 3.66421 11.7607 3.91375 12.0813C3.97562 12.1607 4.03568 12.2429 4.09246 12.3303C4.094 12.337 4.04592 12.3743 4.0534 12.385C4.14776 12.516 4.19056 12.4232 4.34442 12.3967C4.38262 12.3896 4.35191 12.5508 4.35125 12.5637C4.34658 12.61 4.26816 12.6667 4.2702 12.6779C4.29082 12.7684 4.4715 12.5197 4.54559 12.5744C4.54763 12.5766 4.50395 12.6148 4.50653 12.6242C4.51554 12.6533 4.54847 12.6499 4.55633 12.6799C4.57383 12.7488 4.50392 12.8835 4.62469 12.8615C4.64006 12.8583 4.72647 12.7057 4.7907 12.759C4.81617 12.7809 4.94186 12.8589 4.97137 12.8899C4.99938 12.9203 4.94977 12.9521 4.94793 12.9572C5.00573 13.0798 4.95312 13.0845 4.94695 13.2092C4.94249 13.3341 5.06081 13.0982 5.09539 13.0842C5.1297 13.0715 5.17213 13.165 5.18035 13.1936C5.18831 13.2222 5.14852 13.2415 5.15887 13.261C5.23052 13.389 5.26757 13.1711 5.32195 13.1526C5.44852 13.1073 5.42623 13.3129 5.49774 13.3674C5.51668 13.3816 5.51824 13.3342 5.53875 13.3391C5.61931 13.3588 5.64097 13.4345 5.74871 13.4192C5.76689 13.4167 5.87844 13.3361 5.89227 13.4328C5.89424 13.4469 5.85871 13.4852 5.88738 13.508C5.93035 13.5421 6.0161 13.5852 6.07488 13.5881C6.11818 13.5902 6.09909 13.4991 6.14031 13.5393C6.15838 13.5571 6.10328 13.5876 6.13934 13.6174C6.1753 13.6474 6.28236 13.6794 6.32391 13.6897C6.36516 13.7 6.36046 13.635 6.36492 13.632C6.391 13.6158 6.47307 13.6091 6.48211 13.6106C6.66597 13.6561 6.83803 13.7211 7.01434 13.7727C7.16888 13.8178 7.32713 13.8524 7.49188 13.8508C7.51842 13.8504 7.50735 13.7891 7.51043 13.7844C7.60543 13.7651 7.51912 13.9287 7.58172 13.9904C7.58122 13.8602 7.61813 13.8868 7.68524 13.8762C7.71724 13.8709 7.70297 13.8206 7.70574 13.8147C7.75604 13.7408 7.78457 13.8399 7.79266 13.8606C7.82168 13.9359 7.8584 13.8496 7.8786 13.8996C7.89893 13.9493 7.84776 14.0215 7.91278 14.0217C7.93138 13.9755 7.8861 13.8534 7.93426 13.8342C8.11438 13.7642 8.45278 13.8418 8.60125 13.8342C8.74731 13.8285 8.79283 13.8124 8.87957 13.8166C9.03668 13.8225 8.96642 13.7419 9.05145 13.6848C9.13618 13.6267 9.13425 13.8534 9.15692 13.8977C9.17955 13.9412 9.18495 13.891 9.20672 13.9123C9.22892 13.9345 9.19903 13.9743 9.2409 13.9758C9.28352 13.9773 9.37385 13.8695 9.37567 13.8176C9.38017 13.7078 9.30768 13.6123 9.41668 13.6252C9.42301 13.626 9.41876 13.686 9.44207 13.6867C9.6304 13.6853 9.81461 13.6324 10.0016 13.6076C10.0275 13.6043 10.0282 13.6734 10.0436 13.6721C10.2044 13.6571 10.1141 13.5731 10.1472 13.4299C10.1888 13.5872 10.2702 13.6633 10.3815 13.6174C10.4479 13.5896 10.4087 13.529 10.4304 13.4651C10.4371 13.4464 10.5018 13.4691 10.4968 13.4358C10.4782 13.3246 10.3851 13.2344 10.5114 13.2277C10.5134 13.2277 10.5159 13.2349 10.5192 13.2443C10.5237 13.2569 10.5297 13.2734 10.5368 13.2805C10.5394 13.283 10.5425 13.2841 10.5456 13.2834C10.6609 13.2533 10.6229 13.1453 10.7253 13.0754C10.8053 13.0209 10.9896 12.995 11.0905 12.9445C11.1843 13.0999 11.2549 13.0062 11.2214 12.8781C11.2849 12.8423 11.3455 12.7918 11.4128 12.7649C11.4359 12.7557 11.4539 12.8069 11.4597 12.8098C11.55 12.8539 11.5045 12.738 11.5134 12.7238C11.6214 12.5852 11.7894 12.5682 11.8532 12.3928C11.8555 12.3864 11.7788 12.2854 11.8718 12.3254C11.8782 12.3282 11.8764 12.4071 11.9362 12.3596C11.9958 12.3122 12.1495 12.2606 12.1833 12.1428C12.1918 12.1142 12.1629 11.9975 12.2565 12.0149C12.2692 12.0176 12.2907 12.0475 12.3122 12.0539C12.381 12.0733 12.3001 11.974 12.4059 12.0188C12.5117 12.0635 12.6292 12.0545 12.6442 11.9211C12.6449 11.9169 12.5841 11.8312 12.6071 11.8059C12.6441 11.7655 12.7092 11.718 12.7438 11.6721C12.7602 11.6503 12.7013 11.6262 12.7018 11.6213C12.7847 11.4549 12.9049 11.382 13.0329 11.2287C13.0568 11.2003 13.039 11.0684 13.1325 11.0432C13.2354 11.0143 13.4624 11.2398 13.4899 11.0412V11.0402C13.4987 10.9566 13.1985 10.6987 13.4352 10.675C13.5002 10.429 13.6864 10.2523 13.7028 9.98849C13.7018 9.9756 13.6123 9.90792 13.6218 9.884C13.6363 9.84804 13.691 9.84327 13.7028 9.81759C13.7531 9.71012 13.7404 9.59456 13.7751 9.48751C13.7881 9.44673 13.8361 9.4743 13.8513 9.42501C13.8662 9.37541 13.8057 9.32622 13.8532 9.26583C13.8892 9.22045 14.0394 9.19688 14.069 9.12911C13.9318 9.10068 13.9443 9.05313 13.9216 8.9631C13.9165 8.94637 13.8661 8.95572 13.861 8.94747C13.8411 8.91283 13.8858 8.88995 13.863 8.85665C13.8571 8.84864 13.8096 8.84203 13.8024 8.83517C13.7398 8.77679 13.8574 8.7098 13.8776 8.69747C13.954 8.65197 13.8955 8.61969 13.9274 8.58126C13.9593 8.54286 13.9879 8.60803 14.0095 8.56075C14.0542 8.46208 14.0553 8.32882 14.0612 8.22482C14.0628 8.18437 13.9994 8.2095 13.9968 8.20431C13.9836 8.1193 14.0525 8.03229 13.9255 7.98556C14.2532 7.92491 13.8938 7.93431 13.9557 7.81368C13.9608 7.80415 14.1163 7.78638 14.1403 7.82345C14.164 7.8607 14.1173 7.91803 14.153 7.96993C14.1615 7.98186 14.3065 8.05515 14.3151 8.06564C14.3828 8.14502 14.1503 8.15004 14.1374 8.15353C13.9992 8.19464 14.1511 8.28505 14.1618 8.30978C14.2061 8.41735 14.1663 8.50498 14.193 8.59591C14.2102 8.65551 14.361 8.67784 14.3513 8.72384C14.3174 8.87797 14.1002 8.89647 14.2585 9.06857C14.2918 9.10568 14.4616 9.10472 14.3122 9.19259C14.3028 9.19854 14.1699 9.25645 14.2341 9.31857C14.243 9.3264 14.2894 9.33632 14.2917 9.34493C14.3061 9.40325 14.2608 9.43018 14.2653 9.49142C14.2698 9.55267 14.2783 9.62896 14.2448 9.68966C14.224 9.7262 14.1238 9.75099 14.0973 9.7629C14.0214 9.79635 14.1043 9.88173 14.0212 9.89083C13.9372 9.89888 13.8437 9.80319 13.7702 9.86837C13.8891 9.91011 14.0098 9.95677 14.1286 10.0012C14.0632 10.1868 13.9575 10.3528 13.8854 10.5344C13.8766 10.557 13.9482 10.561 13.9401 10.5861C13.9055 10.6923 13.8213 10.7596 13.7878 10.8703C13.762 10.9564 13.7806 11.0775 13.7507 11.1692C13.7394 11.1678 13.7284 11.167 13.7184 11.1672C13.5929 11.1703 13.5668 11.2983 13.5075 11.3713C13.4853 11.3986 13.454 11.3768 13.4304 11.3908C13.3415 11.4448 13.4722 11.4763 13.4753 11.509C13.4857 11.6491 13.2403 11.4989 13.1745 11.6067C13.1712 11.612 13.2482 11.769 13.2487 11.7844C13.2557 11.8808 13.1981 11.7628 13.1618 11.7932C13.0952 11.8484 13.032 11.872 13.0065 11.9768C12.9998 12.0075 13.0294 12.1213 12.9372 12.1174C12.9253 12.1168 12.8897 12.0823 12.8825 12.0832C12.7767 12.1319 12.8954 12.2379 12.8952 12.3205C12.8944 12.4031 12.7486 12.4008 12.7116 12.3928C12.6188 12.3736 12.7087 12.3415 12.7077 12.3332C12.6584 12.2449 12.6242 12.3062 12.5827 12.3381C12.4638 12.2361 12.4225 12.293 12.5407 12.3713C12.5536 12.3789 12.5705 12.3413 12.5827 12.3381C12.6634 12.4764 12.6187 12.551 12.4548 12.511C12.3784 12.4916 12.3517 12.4093 12.2829 12.5149C12.2514 12.5625 12.3404 12.6261 12.3239 12.6818C12.2842 12.8101 12.1043 12.834 12.0231 12.9201C11.9935 12.9517 12.0622 12.9711 12.0436 12.9943C11.9922 13.0565 11.9104 13.0648 11.861 13.1301C11.8565 13.1361 11.9073 13.175 11.8884 13.1906C11.7414 13.3094 11.5837 13.3702 11.4177 13.4729C11.3376 13.5229 11.208 13.6388 11.1179 13.6799C11.0179 13.7264 10.8876 13.748 10.7761 13.7776C10.7144 13.794 10.6585 13.8131 10.6149 13.841C10.5348 13.8919 10.5773 13.9404 10.5563 13.9953C10.5148 14.1016 10.331 14.0187 10.3054 14.0031C10.3093 13.9999 10.3725 13.9589 10.3229 13.9455C10.2762 13.8935 10.3056 14.0006 10.3054 14.0031C10.2887 13.9944 10.1318 14.0367 10.1052 14.0578C10.091 14.0695 10.1187 14.1207 10.112 14.1272C9.92257 14.2479 9.7113 14.3245 9.48797 14.3488C9.48395 14.3486 9.47472 14.285 9.46551 14.2834C9.335 14.2838 9.27134 14.3783 9.17449 14.4445C9.07775 14.5105 8.98853 14.508 8.91082 14.4055C8.83368 14.4308 8.7137 14.3959 8.64617 14.3723C8.57965 14.3495 8.5813 14.4733 8.57586 14.4787C8.40122 14.5745 8.28945 14.5079 8.10223 14.5002C8.0128 14.4966 7.83496 14.5132 7.73699 14.5227C7.65953 14.5307 7.61454 14.4987 7.54266 14.5129C7.53368 14.5163 7.53851 14.5697 7.53582 14.5735C7.45102 14.6354 7.50034 14.4998 7.48602 14.4738C7.4344 14.3792 7.40357 14.329 7.30047 14.3606C7.27658 14.37 7.1871 14.5582 7.14227 14.5647C7.08462 14.572 7.1146 14.5039 7.05438 14.5129C7.04936 14.5164 7.04289 14.5571 7.00848 14.55C6.96842 14.5419 6.92751 14.5321 6.88641 14.5217C6.75804 14.4891 6.6269 14.4479 6.49774 14.4211C6.4744 14.4161 6.48803 14.4918 6.45379 14.4856C6.29317 14.456 6.12004 14.405 5.97918 14.3254C5.94531 14.3057 5.98299 14.2669 5.98016 14.2502C5.95888 14.1508 5.84928 14.2482 5.8366 14.2463C5.54164 14.2082 5.38096 14.0172 5.09442 13.9397C5.07924 13.9362 4.90538 14.0019 4.91082 13.8713C4.91094 13.8607 4.91902 13.7315 4.83856 13.7805C4.83342 13.7835 4.8338 13.8544 4.78485 13.8205C4.73608 13.7865 4.63144 13.7745 4.59637 13.674C4.58487 13.6421 4.5963 13.5086 4.48113 13.549C4.47332 13.5533 4.2554 13.6692 4.30242 13.5207C4.31072 13.4959 4.40386 13.3701 4.28387 13.386C4.2608 13.3891 4.26654 13.4359 4.21649 13.4279C4.13864 13.4152 4.08741 13.3257 3.97528 13.3293C3.95577 13.3303 3.83767 13.3754 3.84637 13.2785C3.84782 13.2635 3.89226 13.2318 3.87469 13.2102C3.79022 13.1072 3.663 13.0455 3.58856 12.9299C3.5628 12.8892 3.63652 12.8422 3.61688 12.7932C3.59671 12.744 3.54209 12.6624 3.47918 12.6555C3.4162 12.649 3.3608 12.7842 3.29852 12.7385C3.29059 12.7326 3.28283 12.726 3.27508 12.7199C3.01647 12.516 2.85992 12.2198 2.67742 11.9553C2.64957 11.9149 2.63434 11.9767 2.59051 11.9182C2.42674 11.7054 2.14176 11.3251 2.1286 11.0686C2.11767 10.8664 2.27914 11.0429 2.24578 10.9035C2.22953 10.8378 2.05633 10.8405 2.04461 10.8274C1.93004 10.7027 1.94936 10.5712 1.87567 10.4455C1.86043 10.4193 1.81184 10.4703 1.79949 10.4475C1.75675 10.3696 1.751 10.2728 1.71844 10.1955C1.70371 10.1612 1.65998 10.1832 1.65203 10.1496C1.63335 10.068 1.63034 9.9907 1.65106 9.9006C1.653 9.89248 1.72578 9.92114 1.71063 9.86251C1.68609 9.76747 1.69796 9.64004 1.62664 9.5422C1.60525 9.51322 1.49507 9.5364 1.55438 9.44845C1.56754 9.43004 1.70168 9.42042 1.57098 9.36349C1.54882 9.35467 1.36731 9.2439 1.45477 9.15646C1.46655 9.14486 1.49805 9.12248 1.52313 9.09884C1.54754 9.07575 1.56559 9.05147 1.55438 9.03341C1.55079 9.02844 1.49511 9.05871 1.48406 9.02658C1.44635 8.91304 1.43693 8.7891 1.40594 8.67013C1.39737 8.63863 1.34021 8.6928 1.32977 8.64474C1.30089 8.51204 1.30539 8.3419 1.32098 8.21017C1.32704 8.16204 1.37995 8.19436 1.38543 8.19064C1.47464 8.13262 1.3518 8.10221 1.34344 8.08322C1.29912 7.96661 1.35811 7.87719 1.34637 7.76974C1.34303 7.74033 1.28399 7.75922 1.27899 7.75314C1.23051 7.68953 1.33359 7.739 1.34735 7.70138C1.38501 7.59447 1.38918 7.47426 1.39227 7.36447C1.39335 7.3242 1.32144 7.36236 1.32293 7.32638C1.33276 7.11039 1.37273 6.88701 1.45086 6.68868C1.46571 6.6514 1.5127 6.68652 1.52606 6.68087C1.61849 6.64311 1.52471 6.5395 1.51824 6.51779C1.48936 6.42199 1.54272 6.39957 1.5534 6.32345C1.60394 5.94883 1.79265 5.51772 1.95965 5.20724C1.97604 5.17622 1.99283 5.14607 2.00945 5.11642C2.21246 4.75769 2.4181 4.49364 2.64031 4.16036C2.65583 4.13747 2.58358 4.11925 2.59637 4.09884C2.76517 3.8366 2.98262 3.61843 3.18328 3.38009C3.19928 3.36063 3.12681 3.34175 3.15203 3.3088C3.20393 3.24055 3.28316 3.16609 3.36004 3.12228C3.39714 3.10135 3.39578 3.18049 3.43231 3.15841C3.51742 3.10729 3.59727 3.04182 3.6657 2.96896C3.69488 2.93778 3.60251 2.92853 3.64422 2.89181C3.92745 2.64156 4.22888 2.4105 4.60028 2.29122C4.62587 2.28303 4.7151 2.3898 4.74871 2.34005C4.73327 2.30499 4.71074 2.26591 4.69207 2.2297C4.7204 2.21193 4.74917 2.19486 4.77801 2.17794C5.22156 1.91795 5.71235 1.76173 6.20574 1.63009C6.22701 1.62362 6.16986 1.56491 6.21258 1.55294C6.46313 1.48477 6.70996 1.41175 6.98309 1.44259C7.01012 1.44567 7.01633 1.5731 7.08856 1.54318C7.10249 1.53726 7.21238 1.50632 7.23895 1.47579C7.24253 1.47116 7.21458 1.41344 7.25164 1.40743ZM8.25164 13.9924C8.22988 14.0646 8.32226 14.0661 8.29949 13.9934C8.29822 13.9905 8.25289 13.9895 8.25164 13.9924ZM5.41766 13.4651C5.39387 13.5209 5.44366 13.5251 5.45379 13.468C5.45437 13.4646 5.42513 13.4477 5.41766 13.4651ZM3.88934 12.2151C3.76876 12.2605 3.91334 12.4159 3.96356 12.2951C3.96592 12.289 3.89564 12.2134 3.88934 12.2151ZM13.7975 10.2883C13.6782 10.3225 13.792 10.4258 13.8835 10.4045C13.9753 10.3816 13.8341 10.2772 13.7975 10.2883ZM13.9723 9.51388C13.875 9.57932 14.1772 9.67553 14.1403 9.56466C14.1382 9.55824 13.9803 9.51077 13.9723 9.51388ZM14.0378 8.73751C13.992 8.7592 14.0301 8.8428 14.0876 8.81661C14.134 8.79481 14.095 8.7101 14.0378 8.73751ZM13.8708 7.34493C13.8847 7.32722 14.0403 7.41335 14.0505 7.4299C14.056 7.62606 13.7999 7.75168 13.8161 7.54904C13.8187 7.51183 13.9051 7.62153 13.9255 7.57345C13.962 7.48278 13.7929 7.44101 13.8708 7.34493ZM8.35516 1.82638C8.38459 1.75663 8.28976 1.74542 8.30633 1.82052C8.30792 1.82348 8.35294 1.82898 8.35516 1.82638Z" fill="#555961"/>
<path d="M11.7031 1.7031C12.0204 1.42777 12.4496 1.58091 12.4199 1.99998C12.4155 2.01302 12.4137 2.02616 12.4229 2.04002C12.425 2.04311 12.4865 2.03624 12.4873 2.04685C12.4943 2.1271 12.4552 2.1974 12.4541 2.28123C12.4538 2.32176 12.487 2.39358 12.4805 2.43552C12.469 2.50837 12.3795 2.59888 12.4014 2.66111C12.4156 2.70122 12.4776 2.69261 12.5195 2.70994C12.6004 2.74352 12.4543 2.80254 12.4316 2.81052C12.4295 2.80747 12.4148 2.77725 12.3848 2.7949C12.3211 2.80538 12.4249 2.80988 12.4316 2.81052C12.4171 2.81638 12.4035 2.88526 12.415 2.89939C12.4215 2.90692 12.4802 2.90328 12.4824 2.9072C12.5347 3.0004 12.5498 3.09393 12.5225 3.18845C12.5204 3.19002 12.4581 3.18777 12.4541 3.19138C12.425 3.24616 12.5051 3.28097 12.5527 3.32615C12.5541 3.32745 12.5544 3.32975 12.5557 3.33103C12.5981 3.33311 12.641 3.33964 12.6807 3.35935C12.6969 3.36765 12.6869 3.41704 12.6904 3.43162C12.7116 3.51772 12.741 3.39759 12.7471 3.38963C12.8679 3.32806 12.9609 3.4438 13.084 3.38865C13.0907 3.38541 13.142 3.24828 13.165 3.36521C13.1666 3.37304 13.1898 3.49373 13.21 3.41209C13.2112 3.40693 13.1969 3.34424 13.2217 3.35056C13.2464 3.35685 13.2863 3.31563 13.3203 3.38377C13.3311 3.40524 13.3565 3.52551 13.3887 3.42966C13.3908 3.42294 13.4403 3.20663 13.458 3.35545C13.4609 3.38001 13.458 3.53796 13.4961 3.45798C13.5034 3.44229 13.4906 3.40679 13.5098 3.38474C13.5394 3.35078 13.5789 3.39273 13.6152 3.32224C13.6218 3.3087 13.6484 3.20314 13.6699 3.28416C13.6732 3.29717 13.6673 3.34956 13.6787 3.35545C13.7329 3.38347 13.7897 3.34856 13.8447 3.38474C13.8643 3.39756 13.8548 3.48275 13.875 3.50584C13.8954 3.52871 13.9367 3.55072 13.958 3.5117C13.9789 3.47227 13.956 3.33795 13.9873 3.32615C13.9914 3.32476 13.9959 3.32342 14 3.32224C14.6764 3.37016 14.9916 4.03507 14.4795 4.47947C14.4115 4.60219 14.2634 4.64321 14.1602 4.73045C14.1444 4.74377 14.1907 4.76596 14.1699 4.78806C14.0934 4.86968 13.9893 5.03848 13.8477 5.03416C13.734 5.03054 13.7583 4.91637 13.6924 4.93455C13.6609 4.94342 13.7493 5.07606 13.749 5.08591C13.737 5.16952 13.6548 5.15364 13.627 5.21189C13.6217 5.22408 13.6753 5.26077 13.6699 5.27048C13.6518 5.30398 13.6039 5.31052 13.583 5.33884C13.5737 5.35167 13.6103 5.38398 13.5977 5.39158C13.5673 5.40997 13.5308 5.41784 13.4746 5.40916C13.4689 5.4067 13.4412 5.35097 13.4219 5.36716C13.3902 5.39368 13.3221 5.39777 13.3213 5.46384C13.3213 5.48376 13.4002 5.5634 13.3242 5.53025C13.3083 5.52333 13.2192 5.42316 13.2764 5.53025C13.2866 5.54994 13.3536 5.69945 13.2627 5.64939C13.2385 5.63603 13.1462 5.57244 13.1465 5.59666C13.1472 5.60046 13.1962 5.63634 13.1904 5.65037C13.1694 5.69912 13.1282 5.73119 13.1055 5.78025C13.0995 5.79345 13.1573 5.82342 13.1475 5.84177C13.1192 5.89226 13.0581 5.93033 13.0059 5.95506C12.9865 5.96327 12.96 5.91793 12.9551 5.91502C12.8742 5.86729 12.9516 5.964 12.9512 5.97459C12.9472 6.03898 12.8803 6.02436 12.8594 6.06638C12.8535 6.07798 12.9014 6.11368 12.9033 6.11912C12.9214 6.17311 12.8606 6.08617 12.8408 6.08884C12.7857 6.09749 12.7535 6.13624 12.7266 6.17381C12.7167 6.18767 12.7779 6.22246 12.7686 6.23435C12.7139 6.30563 12.6437 6.36641 12.5557 6.40134C12.539 6.40783 12.5089 6.36345 12.498 6.3574C12.4225 6.31508 12.4794 6.42028 12.4814 6.43357C12.485 6.45634 12.4807 6.46731 12.4736 6.47361C12.3702 6.55655 12.1318 6.68436 12 6.6699C11.9846 6.669 11.9717 6.65312 11.9521 6.65818C11.7966 6.70127 11.6038 6.67129 11.457 6.65232C11.266 6.62791 11.1177 6.57794 10.9355 6.5908C10.924 6.59156 10.9348 6.66054 10.9248 6.66209C10.796 6.67878 10.6691 6.65179 10.54 6.67185C10.5294 6.67338 10.5444 6.73944 10.5273 6.74412C10.4924 6.75416 10.4484 6.75057 10.4131 6.72947C10.3962 6.71903 10.4187 6.66332 10.4014 6.65427C10.361 6.63301 10.3178 6.62805 10.2764 6.63865C10.2589 6.64344 10.2852 6.71068 10.2627 6.71189C10.1748 6.71567 10.0875 6.72062 10 6.70896C9.60127 6.66516 9.24722 6.39871 9.29102 5.99998C9.30007 5.93208 9.31919 5.86389 9.35742 5.7949C9.36344 5.78407 9.50097 5.77397 9.47461 5.75095C9.43648 5.74922 9.39133 5.74976 9.35059 5.749C9.32864 5.52156 9.37641 5.29641 9.38379 5.06834C9.38408 5.05872 9.31137 5.07521 9.31152 5.05662C9.3126 4.94888 9.29296 4.84455 9.36523 4.73435C9.37231 4.72341 9.49984 4.7285 9.48047 4.69627C9.47675 4.68992 9.45994 4.64259 9.43262 4.62986C9.42842 4.62815 9.36795 4.63672 9.36621 4.62107C9.35714 4.53016 9.37069 4.43447 9.40723 4.34373C9.41366 4.32945 9.47716 4.34508 9.48242 4.33494C9.51622 4.26093 9.46757 4.18007 9.52539 4.10935C9.56436 4.06209 9.6749 4.07981 9.7832 4.05466C9.79812 4.05069 9.80099 4.02204 9.86328 4.02048C9.91957 4.0191 9.97791 4.02096 10.0371 4.02244C10.0103 3.97776 9.97466 3.91198 9.97656 3.90818C10.0369 3.86227 10.2075 3.9637 10.2012 4.02341C10.2556 4.02441 10.3101 4.02625 10.3643 4.02439C10.4006 4.02316 10.3617 3.98473 10.4492 4.00779C10.4551 4.00941 10.4848 4.03789 10.5146 4.0449C10.5354 4.0497 10.5996 4.04083 10.626 4.05076C10.6516 4.06068 10.599 4.07143 10.6299 4.08787C10.6614 4.10407 10.7333 4.09731 10.7422 4.12986C10.7617 4.20633 10.7406 4.30657 10.7119 4.38279C10.7031 4.40646 10.6647 4.3953 10.6562 4.41111C10.6408 4.44337 10.66 4.47396 10.6416 4.50584C10.6352 4.51612 10.5743 4.50358 10.5674 4.51365C10.5396 4.57421 10.5552 4.63201 10.542 4.69334C10.476 4.99608 10.4525 5.29412 10.4238 5.60056C10.4216 5.62401 10.4139 5.64851 10.4082 5.67381C10.4414 5.68226 10.4477 5.68293 10.4805 5.68357C10.5268 5.685 10.5821 5.71438 10.6318 5.70115C10.6424 5.69814 10.6287 5.63831 10.6455 5.62791C10.6625 5.61768 10.7075 5.62251 10.7227 5.6367C10.7374 5.65121 10.7307 5.69819 10.7334 5.70896C10.7554 5.80039 10.8078 5.67401 10.8145 5.67088C10.936 5.61757 11.0402 5.68961 11.1543 5.68943C11.2409 5.68912 11.3336 5.66473 11.416 5.66795C11.5143 5.67207 11.5979 5.7048 11.6934 5.6992C11.7033 5.69834 11.6918 5.62771 11.7041 5.62693C11.8031 5.62071 11.9015 5.62394 12 5.64646L11.8457 5.70994C11.8607 5.72218 11.8846 5.7518 11.8965 5.74998C11.9891 5.7296 12.1655 5.7267 12.0078 5.50193C12.0535 5.47116 12.1079 5.43218 12.1807 5.4365C12.2274 5.43951 12.2541 5.50834 12.2607 5.46091C12.2611 5.44991 12.2132 5.41715 12.2178 5.40427C12.241 5.35035 12.2969 5.3215 12.3135 5.2617C12.3167 5.24954 12.2776 5.21441 12.2725 5.20505C12.2365 5.13246 12.3551 5.19047 12.3701 5.19138C12.4702 5.18932 12.4884 5.13231 12.5371 5.08591C12.5485 5.07516 12.485 5.03752 12.4941 5.02537C12.542 4.96307 12.6044 4.91047 12.6807 4.87888C12.6977 4.87321 12.7286 4.92474 12.7393 4.92478C12.7844 4.91939 12.7094 4.833 12.751 4.82615C12.7597 4.82462 12.7938 4.86405 12.7988 4.86716C12.8768 4.91597 12.8 4.81333 12.8018 4.80759C12.8226 4.7337 12.946 4.79635 12.9785 4.73728C12.9809 4.7296 12.9233 4.69584 12.9365 4.67869C13.0265 4.56306 13.1482 4.46691 13.2871 4.40232C13.3086 4.39222 13.3326 4.43898 13.3379 4.44236C13.4215 4.49346 13.342 4.39232 13.3437 4.38377C13.3585 4.32518 13.4512 4.35027 13.4111 4.25681C13.39 4.25567 13.3688 4.2544 13.3594 4.249C13.3396 4.23753 13.353 4.18113 13.3516 4.17869C13.2981 4.10419 13.3187 4.07301 13.292 3.96287C13.2651 3.85274 13.2726 4.11481 13.2617 4.14451C13.2508 4.17371 13.2109 4.11235 13.2012 4.0908C13.1916 4.06956 13.2034 4.03392 13.1953 4.02146C13.1384 3.94218 13.1701 4.15161 13.1514 4.19334C13.1072 4.29203 13.0727 4.09747 13.0322 4.0781C13.0214 4.07299 13.0298 4.11621 13.0205 4.12107C12.9819 4.13692 12.958 4.07613 12.9141 4.13181C12.9069 4.14089 12.8716 4.25837 12.8486 4.17283C12.8454 4.16042 12.8544 4.11145 12.8379 4.10056C12.8133 4.0844 12.7695 4.07387 12.7432 4.08982C12.7236 4.10184 12.7453 4.18207 12.7207 4.1572C12.7102 4.14575 12.7304 4.09886 12.71 4.08201C12.6895 4.06517 12.637 4.0677 12.6172 4.06931C12.5978 4.07164 12.608 4.13165 12.6064 4.13572C12.5965 4.15908 12.559 4.18853 12.5557 4.18845C12.3861 4.19579 12.2295 4.09306 12.0645 4.12693C12.0523 4.13002 12.0598 4.18897 12.0586 4.19431C12.0142 4.22114 12.0486 4.0511 12.0176 3.99412C12.0205 4.07977 12.014 4.09936 12 4.10642C11.9404 4.11293 11.9001 4.05956 11.8936 3.99998C11.89 3.99275 11.8896 3.98319 11.8848 3.97263C11.8772 3.95805 11.8274 3.96618 11.8223 3.96482C11.7463 3.94253 11.8451 3.92683 11.8652 3.92283C11.9393 3.90805 11.8517 3.89187 11.9014 3.88181C11.9505 3.87185 12.023 3.89482 12.0225 3.86521C11.976 3.8569 11.8553 3.87876 11.835 3.85642C11.7605 3.77062 11.8552 3.61008 11.8652 3.54099C11.8751 3.47233 11.8672 3.45003 11.8838 3.41013C11.9142 3.33762 11.8235 3.36336 11.7822 3.31834C11.7428 3.27383 11.9626 3.29539 12.0107 3.28904C12.0584 3.28267 12.0099 3.27548 12.0361 3.26756C12.0622 3.25993 12.0946 3.2769 12.1045 3.25877C12.1143 3.24019 12.0294 3.18924 11.9795 3.18259C11.874 3.16869 11.7634 3.19138 11.8018 3.14256C11.8041 3.13974 11.862 3.14835 11.8682 3.13767C11.9131 3.05163 11.9163 2.96189 11.9561 2.87595C11.9628 2.86473 12.0263 2.87495 12.0303 2.86814C12.0717 2.79659 11.9623 2.82235 11.8408 2.78318C12.0024 2.79197 12.1014 2.77002 12.1025 2.7158C12.1032 2.68312 12.0322 2.68811 11.9824 2.66697C11.9685 2.66041 12.0154 2.63792 11.9824 2.63377C11.8741 2.6201 11.7531 2.64153 11.8008 2.58591C11.803 2.5835 11.8608 2.59079 11.8662 2.58298C11.8898 2.52812 11.7767 2.52108 11.7627 2.46189C11.7582 2.4425 11.7679 2.41682 11.7812 2.38963C11.7713 2.37982 11.7597 2.36831 11.75 2.36228C11.6941 2.32804 11.7778 2.42425 11.6885 2.36033C11.5991 2.29641 11.5151 2.26582 11.5322 2.35447C11.5351 2.36019 11.5961 2.43734 11.584 2.44724C11.5642 2.46333 11.5232 2.47393 11.5049 2.49314C11.4979 2.50296 11.5459 2.5401 11.5459 2.54295C11.5105 2.6282 11.4275 2.63124 11.3457 2.67869C11.3308 2.68758 11.3571 2.78201 11.2871 2.75779C11.2095 2.73054 11.0169 2.48624 11.0107 2.59568C11.0082 2.63982 11.2555 2.946 11.0703 2.8447C11.0245 2.96151 10.8758 2.96377 10.8447 3.09568C10.8433 3.10154 10.9074 3.18905 10.8994 3.19822C10.8849 3.20932 10.8416 3.18071 10.8301 3.18748C10.7809 3.21493 10.7761 3.28032 10.7344 3.31248C10.7186 3.32454 10.6868 3.28321 10.668 3.29783C10.6492 3.31252 10.687 3.37215 10.6406 3.37107C10.6054 3.37007 10.4876 3.28682 10.4531 3.29783C10.5514 3.39783 10.5338 3.41189 10.5322 3.4658C10.5325 3.47637 10.5726 3.50504 10.5742 3.5117C10.5815 3.5394 10.5431 3.52076 10.5527 3.54978C10.5553 3.55703 10.589 3.591 10.5928 3.59861C10.6256 3.66439 10.523 3.61608 10.5049 3.6074C10.4367 3.57491 10.472 3.62719 10.4385 3.62107C10.4053 3.61467 10.401 3.56928 10.373 3.57322C10.315 3.58148 10.2784 3.62999 10.2432 3.66209C10.2293 3.6751 10.2832 3.71093 10.2822 3.71384C10.2657 3.75275 10.1904 3.73286 10.2646 3.83787C10.0128 3.62452 10.2699 3.87797 10.1836 3.87107C10.1744 3.86806 10.0627 3.76317 10.0586 3.73533C10.0551 3.70787 10.1071 3.72321 10.0986 3.68162C10.0948 3.66904 10.0158 3.5463 10.0127 3.53709C9.9883 3.4645 10.1567 3.62504 10.167 3.63279C10.2784 3.7153 10.1954 3.57829 10.1943 3.56248C10.1924 3.49404 10.2444 3.48845 10.2471 3.43552C10.2485 3.40111 10.1449 3.29377 10.1602 3.28123C10.2185 3.24464 10.3854 3.37817 10.2998 3.2031C10.2816 3.16575 10.1551 3.05753 10.2812 3.11521C10.2892 3.11888 10.3997 3.17818 10.3613 3.11033C10.3564 3.10172 10.3217 3.06683 10.3213 3.0615C10.3193 3.02706 10.3574 3.04307 10.3623 3.01267C10.367 2.98186 10.3687 2.94054 10.4004 2.93162C10.4196 2.92631 10.5 2.97457 10.5215 2.98435C10.5828 3.01257 10.527 2.92151 10.5918 2.9658C10.6568 3.01032 10.7198 3.11342 10.7822 3.12205C10.6942 3.03198 10.6055 2.93784 10.5176 2.84666C10.5801 2.7905 10.6669 2.76052 10.7227 2.69724C10.7295 2.68926 10.6746 2.64844 10.6807 2.63865C10.7066 2.59757 10.7699 2.60203 10.791 2.55369C10.8069 2.51604 10.7857 2.43637 10.8008 2.39548C10.9197 2.48012 10.9274 2.40401 10.9668 2.38279C10.9806 2.37539 11.008 2.40294 11.0244 2.40427C11.0847 2.40831 10.9827 2.33282 10.9756 2.31052C10.9486 2.21667 11.1543 2.41637 11.1895 2.37302C11.1913 2.37073 11.1087 2.23586 11.1055 2.22556C11.0839 2.15952 11.1469 2.25985 11.1689 2.25388C11.2092 2.24302 11.2528 2.25127 11.251 2.18943C11.2502 2.17106 11.2041 2.08275 11.2734 2.11814C11.2828 2.12338 11.3149 2.15788 11.3203 2.16013C11.3879 2.16265 11.2767 2.04914 11.2568 1.99216C11.2372 1.9353 11.3437 1.98432 11.3721 2.00095C11.4446 2.04323 11.3865 2.03779 11.3896 2.04392C11.4478 2.12153 11.4578 2.08938 11.4795 2.07908C11.5923 2.18717 11.6084 2.15768 11.502 2.06736C11.4904 2.05759 11.4876 2.08051 11.4795 2.07908C11.3849 1.95633 11.3956 1.91781 11.5244 1.99216C11.5846 2.02709 11.6281 2.09401 11.6465 2.03513C11.6547 2.00837 11.5717 1.93858 11.5664 1.90232C11.5547 1.81989 11.672 1.84449 11.6973 1.79685C11.705 1.77964 11.6525 1.75155 11.6562 1.73826C11.6638 1.71734 11.6852 1.71201 11.7031 1.7031ZM9.81641 4.14939C9.74524 4.13821 9.7395 4.17982 9.81348 4.17088C9.81646 4.17052 9.81936 4.14989 9.81641 4.14939ZM13.5488 4.09177C13.5378 4.05627 13.525 4.03641 13.5039 4.08201C13.5022 4.08584 13.5021 4.10883 13.501 4.1367C13.5173 4.1221 13.5331 4.10699 13.5488 4.09177ZM13.9639 4.11326C13.9813 4.03238 13.9389 4.00188 13.9189 4.0322L13.9531 4.11326C13.959 4.11324 13.9634 4.11492 13.9639 4.11326ZM10.1172 3.96287C10.0887 3.96208 10.0969 3.99361 10.1025 4.02244C10.1223 4.02299 10.1422 4.02294 10.1621 4.02341C10.1507 3.99798 10.1367 3.96355 10.1172 3.96287ZM13.0459 3.95603C13.0449 3.89517 13.0244 3.9125 13.0312 3.96873C13.0323 3.97197 13.0462 3.97447 13.0459 3.95603ZM11.999 3.70896C12.0698 3.72002 12.0749 3.67765 12.001 3.6865C11.9981 3.68792 11.9962 3.70847 11.999 3.70896ZM10.376 3.41892C10.3372 3.39784 10.3471 3.45744 10.3955 3.48435C10.4347 3.50599 10.4247 3.44584 10.376 3.41892ZM10.7236 2.76951C10.6527 2.73252 10.7586 2.86697 10.7871 2.88084C10.8802 2.92596 10.7945 2.80655 10.7236 2.76951ZM11.9336 2.23631C11.9125 2.24761 11.8757 2.25776 11.8496 2.27732C11.9606 2.27588 11.9745 2.25681 11.9336 2.23631Z" fill="#555961"/>
<path d="M7.95019 7.93549C7.97299 7.93273 8.16456 8.10925 8.12988 8.10248C8.12354 8.10123 8.07565 8.03787 8.05566 8.02436C8.01977 8.00027 8.13192 8.1198 8.06347 8.06342C8.0498 8.05164 7.94956 7.93754 7.94922 7.93549H7.95019ZM9.53027 5.63178C9.53667 5.63388 9.58001 5.68067 9.58496 5.68256C9.61962 5.69556 9.59722 5.6501 9.64843 5.68061C9.68297 5.70137 9.7587 5.78162 9.83886 5.85443C9.84996 5.86435 9.85617 5.86243 9.90039 5.90619C10.013 6.01771 10.1336 6.14304 10.2539 6.26166C10.2797 6.28713 10.2586 6.25372 10.3174 6.31928C10.3218 6.32461 10.3379 6.34857 10.3574 6.37006C10.3713 6.38536 10.4183 6.43001 10.4355 6.45014C10.4518 6.46929 10.4132 6.43377 10.4326 6.45795C10.4525 6.48264 10.5044 6.5329 10.5059 6.54389C10.5085 6.56891 10.4787 6.56862 10.4473 6.55951C10.4372 6.55612 10.4113 6.52763 10.4033 6.52436C10.3877 6.51818 10.3972 6.53536 10.3799 6.52729C10.3739 6.52438 10.3305 6.47853 10.3252 6.4765C10.2969 6.46592 10.2997 6.48478 10.2812 6.48432C10.1903 6.48203 10.1296 6.50953 10.0645 6.53412C10.0426 6.54173 9.98494 6.51997 9.9873 6.55268C9.98843 6.55722 10.0284 6.59406 10.0312 6.5976C10.0752 6.65224 9.99736 6.57238 9.9834 6.56537C9.92849 6.53795 9.90953 6.54901 9.91113 6.57709C9.91201 6.58926 9.99526 6.66161 9.94629 6.62397C9.94295 6.62142 9.90246 6.57801 9.89648 6.57514C9.88342 6.56916 9.88388 6.58253 9.87793 6.58197C9.86636 6.58072 9.86575 6.58239 9.86035 6.58686C9.85257 6.59259 9.82432 6.58026 9.82617 6.59662C9.82674 6.60027 9.87041 6.64006 9.87597 6.65033C9.88072 6.66004 9.87064 6.66303 9.8584 6.65522C9.84616 6.64732 9.81404 6.61403 9.80566 6.60639C9.73774 6.54491 9.82005 6.64226 9.82129 6.64545C9.84063 6.70027 9.77439 6.66484 9.75781 6.68158C9.74533 6.6945 9.74876 6.72552 9.73437 6.73529C9.71701 6.7466 9.68186 6.73596 9.67187 6.75385C9.67479 6.75901 9.71845 6.80048 9.7207 6.80561C9.70741 6.83051 9.68339 6.84453 9.63086 6.83002C9.62556 6.82851 9.58458 6.78204 9.57617 6.77729C9.52838 6.75289 9.42318 6.68462 9.60742 6.88275C9.59203 6.88321 9.57395 6.8859 9.52832 6.85443C9.49895 6.83417 9.45596 6.78162 9.4707 6.80756C9.47398 6.81337 9.51777 6.85377 9.51953 6.85932C9.52673 6.88244 9.50408 6.87792 9.51758 6.90717C9.52047 6.91328 9.55912 6.95073 9.56543 6.95795C9.6158 7.01599 9.51869 6.93188 9.51074 6.9267C9.45206 6.88895 9.46277 6.91493 9.45215 6.92377C9.44959 6.92574 9.50131 6.97273 9.50195 6.97748C9.49776 6.99612 9.48178 7.00331 9.44824 6.99213C9.44065 6.98952 9.39938 6.9448 9.39355 6.94135C9.36928 6.92746 9.44825 7.0085 9.42578 6.99604C9.41953 6.99165 9.38513 6.95698 9.38086 6.95307C9.31509 6.89329 9.40043 6.98275 9.40332 6.98725C9.42058 7.02419 9.32044 6.93711 9.32422 6.9599C9.32641 6.96408 9.37336 7.00667 9.37207 7.01166C9.36355 7.04569 9.32871 7.05511 9.27051 7.039C9.2615 7.03656 9.22912 6.99916 9.22461 6.99506C9.15404 6.93121 9.24159 7.02357 9.24414 7.02826C9.26016 7.06115 9.1767 6.99331 9.27832 7.10639C9.2054 7.10481 9.22977 7.20095 9.09863 7.14057C9.09706 7.1399 9.05273 7.09385 9.0498 7.09272C9.01496 7.07924 9.08608 7.14599 9.16308 7.23725C9.18249 7.26026 9.07436 7.16416 9.0664 7.15717C9.03701 7.13127 8.97271 7.06327 8.96679 7.05854C8.92188 7.02325 9.13614 7.23559 9.13379 7.24604C9.13321 7.24588 9.09342 7.20456 9.08886 7.20111C9.07484 7.19052 9.08872 7.20835 9.07324 7.19623C9.03736 7.16806 8.92981 7.06351 8.98535 7.1308C8.99261 7.13955 9.11757 7.26205 9.10644 7.26264C9.10165 7.26255 9.09298 7.27459 9.08203 7.26947C9.07064 7.26359 9.03346 7.22346 9.03125 7.22162C8.9706 7.17667 8.9521 7.15124 8.87011 7.07709C8.78838 7.00321 8.97446 7.18704 8.99414 7.2099C9.01322 7.2322 8.96383 7.19435 8.94726 7.18061C8.93083 7.16695 8.90743 7.14034 8.89746 7.13275C8.83307 7.08504 8.98591 7.22841 9.01269 7.26068C9.07607 7.33702 8.93252 7.20478 8.91308 7.19721C8.91491 7.20091 8.94103 7.22553 8.94238 7.22943C8.94769 7.24601 8.90164 7.2071 8.93457 7.25287C8.94147 7.26204 9.01651 7.34769 8.95312 7.29096C8.94393 7.28272 8.91169 7.24677 8.90136 7.24115C8.88621 7.23321 8.87227 7.23263 8.87988 7.24799C8.88666 7.26013 8.94428 7.3122 8.92383 7.29877C8.91437 7.29252 8.88413 7.256 8.86914 7.24701C8.85467 7.23838 8.84864 7.24673 8.84668 7.25092C8.84496 7.25496 8.88825 7.29599 8.8916 7.29975C8.90669 7.31766 8.92228 7.34402 8.92187 7.34467C8.90231 7.3747 8.80714 7.32521 8.80664 7.37299C8.80656 7.37668 8.85254 7.42031 8.85351 7.42182C8.86597 7.44725 8.751 7.32201 8.70605 7.28608C8.79786 7.37659 8.77902 7.36367 8.78418 7.37787C8.7869 7.38501 8.8237 7.41993 8.82715 7.42377C8.8778 7.48096 8.80587 7.41304 8.79101 7.39936C8.73666 7.34933 8.7963 7.41342 8.75976 7.37983C8.72344 7.34645 8.67462 7.29177 8.6709 7.29682C8.70251 7.33089 8.79191 7.41317 8.80273 7.43061C8.84251 7.49532 8.75354 7.45272 8.73535 7.45502C8.71838 7.45809 8.7205 7.46762 8.70312 7.46186C8.67114 7.45103 8.73788 7.51001 8.76074 7.54584C8.78331 7.58164 8.62941 7.42237 8.59472 7.38959C8.56014 7.35687 8.5939 7.39231 8.57422 7.37494C8.55455 7.35757 8.53408 7.3323 8.52441 7.32807C8.51555 7.3247 8.56745 7.39058 8.60156 7.4267C8.67423 7.50345 8.75639 7.57885 8.72168 7.55854C8.71964 7.55732 8.68001 7.51575 8.67383 7.51264C8.62954 7.49351 8.61472 7.5036 8.57422 7.48822C8.56856 7.48603 8.52334 7.43924 8.51953 7.43744C8.48032 7.41904 8.56156 7.49241 8.6416 7.58393C8.52848 7.46823 8.45493 7.40086 8.44629 7.40815C8.44107 7.41249 8.49229 7.46165 8.52441 7.49994C8.5341 7.51149 8.49664 7.48071 8.51953 7.50483C8.5943 7.58363 8.68305 7.66659 8.64062 7.64057C8.63825 7.63888 8.59752 7.59596 8.59375 7.59467C8.57002 7.58674 8.64706 7.66622 8.64941 7.68549C8.65023 7.69994 8.58897 7.66324 8.57324 7.66303C8.44522 7.53471 8.46718 7.57153 8.55273 7.66303C8.54434 7.66462 8.5433 7.67522 8.52636 7.66791C8.52004 7.66479 8.48487 7.62699 8.48047 7.62299C8.4141 7.5631 8.49868 7.65172 8.50097 7.65619C8.52136 7.7 8.44692 7.6452 8.49902 7.71967C8.50092 7.72237 8.58973 7.81218 8.52148 7.74994C8.51563 7.74417 8.47994 7.70194 8.47168 7.70404C8.46307 7.70603 8.40545 7.66808 8.43945 7.71674C8.44764 7.72849 8.51529 7.80588 8.45508 7.75287C8.44695 7.7457 8.42221 7.71963 8.40722 7.706C8.35954 7.6628 8.4485 7.75372 8.36914 7.67963C8.28983 7.6056 8.22695 7.55389 8.27246 7.6142C8.27542 7.6177 8.34326 7.68919 8.33984 7.69037C8.334 7.6919 8.31414 7.68241 8.31054 7.68647C8.30895 7.68855 8.35413 7.73143 8.35547 7.73334C8.36783 7.77061 8.31966 7.74026 8.28906 7.73627C8.28337 7.73548 8.33683 7.80286 8.28418 7.75971C8.2265 7.71247 8.01371 7.48967 8.05371 7.55365C8.07255 7.58215 8.33872 7.86142 8.1875 7.72748C8.20578 7.77937 8.11793 7.72186 8.15136 7.78901C8.15285 7.79201 8.22745 7.87225 8.22461 7.87299C8.21897 7.87244 8.18289 7.83928 8.17871 7.83881C8.15989 7.83587 8.18336 7.87405 8.1709 7.8769C8.16556 7.87694 8.13164 7.84111 8.125 7.84076C8.1195 7.84217 8.16549 7.89342 8.13769 7.87494C8.11605 7.86039 8.01153 7.76281 7.99511 7.7558C8.09407 7.85511 8.08895 7.8567 8.10937 7.88861C8.1134 7.89479 8.14757 7.9269 8.15234 7.93256C8.16798 7.95245 8.13804 7.92595 8.15527 7.94721C8.15936 7.95226 8.19207 7.9852 8.19824 7.99213C8.24447 8.04515 8.1642 7.97561 8.14941 7.96283C8.09535 7.91618 8.13692 7.96225 8.11426 7.94526C8.09163 7.92825 8.07098 7.89928 8.05566 7.89057C8.02458 7.87297 8.0209 7.88595 8.01269 7.89154C8.0095 7.89391 8.05605 7.93801 8.05664 7.9394C8.06169 7.95588 8.00951 7.91424 8.0957 8.00678C7.85915 7.7782 8.11437 8.03343 8.05957 7.99506C8.05433 7.99111 7.94473 7.88317 7.93066 7.8642C7.91704 7.84562 7.95495 7.87584 7.93359 7.8476C7.9285 7.84087 7.82983 7.73241 7.82422 7.72553C7.78117 7.67252 7.94579 7.83591 7.95508 7.84467C8.05408 7.93775 7.95304 7.82532 7.94433 7.81342C7.91619 7.77158 7.94451 7.78795 7.92578 7.75776C7.9137 7.73837 7.81202 7.63576 7.81152 7.62983C7.83226 7.63089 7.98628 7.77722 7.86523 7.63764C7.83918 7.60764 7.71977 7.49273 7.81933 7.57807C7.82637 7.58412 7.91499 7.66223 7.86523 7.60639C7.85901 7.59942 7.82604 7.56618 7.82226 7.56147C7.80712 7.53959 7.83592 7.56386 7.82715 7.54779C7.81778 7.53108 7.80282 7.50648 7.81836 7.51361C7.82786 7.51803 7.89524 7.57925 7.91211 7.59369C7.96039 7.63511 7.89058 7.55786 7.94726 7.61029C8.0042 7.66299 8.08295 7.75032 8.12402 7.78022C8.03511 7.69088 7.94378 7.59869 7.85449 7.50873C7.86996 7.49954 7.91148 7.51626 7.91992 7.49994C7.91955 7.49673 7.87216 7.45235 7.87109 7.44818C7.87042 7.43363 7.91071 7.46118 7.90429 7.44037C7.89863 7.42373 7.85513 7.36849 7.84765 7.34955C7.95224 7.44705 7.92734 7.40465 7.94238 7.40717C7.94779 7.40819 7.97486 7.43592 7.98535 7.4433C8.02396 7.47016 7.93214 7.38347 7.91894 7.36713C7.86533 7.29963 8.0701 7.50242 8.07324 7.4892C8.06937 7.4841 7.96978 7.37448 7.96386 7.36713C7.92454 7.31857 8.00274 7.40497 8.01367 7.4101C8.03365 7.41961 8.06256 7.44106 8.03711 7.40326C8.02922 7.39174 7.96663 7.32028 8.02246 7.36908C8.03019 7.37596 8.06341 7.40971 8.06738 7.41303C8.10923 7.44138 7.99632 7.32819 7.96191 7.28608C7.92816 7.24461 8.01148 7.31659 8.03515 7.33783C8.09524 7.39171 8.05974 7.36557 8.06347 7.37006C8.12854 7.43911 8.1223 7.42475 8.13086 7.4267C8.24211 7.53699 8.23995 7.52559 8.13965 7.42865C8.12922 7.41871 8.13652 7.43105 8.13086 7.4267C8.02529 7.3153 8.01689 7.29666 8.12402 7.39252C8.17416 7.43744 8.22711 7.49499 8.21484 7.46674C8.20934 7.454 8.13232 7.37978 8.11426 7.35541C8.07414 7.30063 8.15404 7.36148 8.15039 7.34272C8.14699 7.3345 8.10482 7.2969 8.10254 7.29096C8.09674 7.27534 8.13154 7.30151 8.12109 7.28119C8.12006 7.27927 8.07706 7.23803 8.07617 7.23432C8.08282 7.21759 8.12044 7.23457 8.13379 7.22358C8.14003 7.21804 8.12722 7.18347 8.13769 7.18158C8.1565 7.17906 8.23386 7.22957 8.22754 7.20502C8.22344 7.18912 8.17855 7.14646 8.15136 7.1142C8.09892 7.05197 8.20968 7.14567 8.22754 7.16108C8.23865 7.17065 8.25828 7.17048 8.25195 7.1601C8.24701 7.15323 8.20962 7.11674 8.20605 7.11225C8.1827 7.06162 8.18571 7.03655 8.21875 7.04193C8.21982 7.04252 8.2646 7.08887 8.26758 7.09076C8.2962 7.10334 8.2448 7.04118 8.21777 7.00092C8.19088 6.96082 8.20777 6.96651 8.29101 7.04193C8.2868 7.02778 8.32824 7.05512 8.35351 7.07221C8.37871 7.08925 8.29122 7.00088 8.28808 6.99701C8.24233 6.92864 8.30054 6.97337 8.32031 6.96967C8.32963 6.9679 8.32795 6.94449 8.32422 6.92865C8.32106 6.91598 8.3448 6.93358 8.33593 6.91596C8.33473 6.91356 8.29335 6.87374 8.29199 6.87201C8.24947 6.81976 8.34462 6.91981 8.36328 6.93647C8.43059 6.99644 8.46681 7.02811 8.44336 6.99213C8.43794 6.98381 8.30054 6.838 8.29492 6.82709C8.28816 6.81356 8.33678 6.86421 8.3291 6.84955C8.3284 6.84824 8.29718 6.81621 8.30078 6.81537C8.31706 6.81123 8.34582 6.81814 8.35351 6.80463C8.35465 6.80289 8.30549 6.75661 8.30468 6.7519C8.30873 6.7361 8.32162 6.72664 8.35449 6.74018C8.36315 6.74429 8.39552 6.78027 8.40625 6.78998C8.47051 6.84803 8.38887 6.75774 8.38476 6.7519C8.35898 6.6908 8.45401 6.75845 8.43359 6.70209C8.43228 6.69882 8.34301 6.59384 8.42968 6.67377C8.43765 6.6811 8.52231 6.75951 8.46777 6.69916C8.46188 6.69319 8.41972 6.65499 8.42676 6.65522C8.43484 6.65605 8.41165 6.62078 8.46484 6.664C8.482 6.67799 8.5697 6.75872 8.50683 6.68647C8.50181 6.68077 8.35687 6.52118 8.46484 6.62397C8.48264 6.64092 8.59409 6.75268 8.54297 6.69037C8.53296 6.67822 8.50597 6.65504 8.49316 6.63666C8.47349 6.60833 8.50921 6.6321 8.46484 6.57709C8.45695 6.56734 8.38466 6.48762 8.44531 6.54193C8.45483 6.55046 8.49121 6.58923 8.49707 6.59174C8.52502 6.60377 8.50905 6.57009 8.54297 6.58783C8.55567 6.59503 8.61382 6.65582 8.63281 6.66889C8.65195 6.68205 8.67287 6.69175 8.64843 6.66108C8.62372 6.6302 8.52493 6.53803 8.52148 6.52533C8.5084 6.47153 8.58567 6.50811 8.61426 6.49604C8.61757 6.49366 8.58172 6.46231 8.58496 6.45697C8.59877 6.43804 8.59445 6.37773 8.68164 6.43647C8.75136 6.4835 8.78204 6.54213 8.81445 6.55756C8.83003 6.56474 8.72321 6.44784 8.7207 6.4433C8.69539 6.39835 8.75079 6.44027 8.74511 6.41693C8.7438 6.41194 8.6969 6.36795 8.69629 6.3642C8.69389 6.35128 8.71857 6.36532 8.7207 6.35736C8.72121 6.35347 8.68883 6.32136 8.69043 6.31928C8.70148 6.32022 8.7214 6.32983 8.75879 6.35736C8.76269 6.36047 8.80231 6.40636 8.80761 6.40424C8.81698 6.40162 8.85478 6.42407 8.8291 6.38471C8.82016 6.37175 8.74306 6.29471 8.80078 6.34369C8.81313 6.35418 8.90704 6.45052 8.83008 6.36322C8.81591 6.34707 8.7162 6.23046 8.79101 6.29682C8.81088 6.31444 8.89112 6.38919 8.88183 6.37494C8.88024 6.37269 8.83829 6.33231 8.83496 6.32514C8.82835 6.30406 8.83975 6.30085 8.83398 6.28022C8.83234 6.27461 8.7856 6.23374 8.78418 6.2265C8.78123 6.20736 8.80262 6.20811 8.82422 6.21381C8.83232 6.21603 8.86691 6.25498 8.87109 6.25873C8.93771 6.3186 8.85731 6.23358 8.85058 6.22455C8.82742 6.18727 8.8728 6.22167 8.86914 6.20502C8.8681 6.20048 8.82776 6.1622 8.82226 6.15619C8.78982 6.11629 8.86149 6.1933 8.87207 6.19916C8.90146 6.21546 8.90582 6.20514 8.90722 6.1933C8.90767 6.18884 8.85646 6.14304 8.85742 6.13959C8.86219 6.1183 8.88069 6.10919 8.91992 6.12299C8.92757 6.12592 8.96274 6.16485 8.97168 6.17279C9.03385 6.22811 8.95927 6.14324 8.95215 6.13373C8.92247 6.09356 8.95705 6.12342 8.95605 6.11322C8.94836 6.05998 8.99829 6.05295 9.0332 6.04486C9.07821 6.03439 9.13461 6.04783 9.15234 6.01264C9.15348 6.01046 9.10541 5.96438 9.10351 5.9599C9.11053 5.92913 9.14765 5.9296 9.15234 5.89643C9.15115 5.89246 9.10516 5.85003 9.10351 5.84369C9.10152 5.83146 9.11076 5.8271 9.13086 5.83686C9.14083 5.842 9.17645 5.88542 9.18554 5.88959C9.2065 5.89872 9.21626 5.89535 9.21484 5.88178C9.21412 5.87595 9.16338 5.83276 9.16504 5.82807C9.18318 5.80044 9.19815 5.76974 9.2832 5.80854C9.2912 5.81341 9.38714 5.90644 9.37207 5.88471C9.34538 5.85751 9.31383 5.82571 9.28515 5.79682C9.30312 5.7483 9.36967 5.74878 9.4082 5.72065C9.4081 5.71802 9.35614 5.6709 9.3584 5.66791C9.37493 5.6529 9.37615 5.62321 9.44336 5.65815C9.44996 5.66155 9.54023 5.75274 9.53125 5.73432C9.52951 5.73058 9.52342 5.71156 9.50586 5.69037C9.5008 5.68501 9.45991 5.64593 9.46093 5.64252C9.46796 5.62313 9.49156 5.61943 9.53027 5.63178ZM7.99707 7.79877C7.96489 7.77023 7.99422 7.81013 8.03418 7.84565C8.06635 7.87419 8.03703 7.83429 7.99707 7.79877ZM7.94922 7.54389C7.89174 7.49345 8.00847 7.61594 8.03125 7.63568C8.10619 7.70066 8.00677 7.5944 7.94922 7.54389ZM8.66015 7.33783C8.66233 7.33984 8.66704 7.33901 8.66504 7.33686C8.61636 7.28487 8.60648 7.28676 8.66015 7.33783ZM8.83593 7.12006C8.83838 7.12212 8.84206 7.12122 8.8291 7.10834C8.7861 7.06565 8.79523 7.08135 8.83593 7.12006ZM9.07519 7.08588C8.99655 6.99983 8.97381 7.00545 9.06347 7.08881C9.06823 7.0926 9.07848 7.09001 9.07519 7.08588ZM9.84277 5.8935C9.84478 5.89541 9.84962 5.89438 9.84863 5.89252C9.7999 5.84051 9.7891 5.84246 9.84277 5.8935Z" fill="#555961"/>
</svg>
