<svg width="16" height="16" viewBox="0 0 16 16" fill="none" xmlns="http://www.w3.org/2000/svg">
<path d="M9.96875 10.5892C10.0065 10.5763 10.1881 10.7662 10.1338 10.7709C10.1239 10.7701 10.0966 10.6948 10.0742 10.682C10.0335 10.659 10.1231 10.7971 10.0547 10.7386C10.0428 10.728 9.97176 10.5987 9.96875 10.5892ZM10.5029 4.78355C10.5482 4.79432 10.5791 4.84522 10.5928 4.8939C10.5971 4.90914 10.5666 4.93579 10.5684 4.94761C10.5719 4.97034 10.5966 4.96645 10.5977 4.99156C10.5972 5.00045 10.5507 5.04343 10.5518 5.05113C10.5579 5.09271 10.5914 5.10068 10.6064 5.13219C10.6796 5.28799 10.7691 5.41365 10.8496 5.55113C10.8763 5.59659 10.8711 5.68054 10.9229 5.7064C10.9289 5.70938 10.9696 5.6738 10.9746 5.67125C11.041 5.64316 10.9501 5.70627 10.9453 5.72496C10.9281 5.79839 10.9544 5.8429 10.998 5.86754C11.0175 5.87642 11.0943 5.79872 11.0557 5.84996C11.0523 5.85382 11.0023 5.88303 11 5.89097C10.9954 5.90882 11.0172 5.9217 11.0186 5.93199C11.021 5.95177 11.0234 5.95383 11.0322 5.96812C11.0438 5.98811 11.0343 6.02701 11.0586 6.04039C11.0651 6.04195 11.111 6.00458 11.124 6.00621C11.1371 6.00807 11.1447 6.03042 11.1367 6.04429C11.1282 6.05826 11.0866 6.08047 11.0781 6.08726C11.0068 6.14404 11.1271 6.09958 11.1318 6.10094C11.2091 6.12552 11.1732 6.20719 11.2002 6.25621C11.2208 6.29326 11.2625 6.32292 11.2783 6.3607V6.36168C11.2965 6.40744 11.285 6.45892 11.3096 6.49937C11.313 6.50288 11.3708 6.47092 11.377 6.47398C11.4115 6.53049 11.4302 6.59552 11.4092 6.6732C11.4045 6.68111 11.3464 6.69562 11.3408 6.70445C11.3077 6.76005 11.212 6.85524 11.4746 6.78844C11.4736 6.81727 11.4738 6.85185 11.4297 6.89097C11.4011 6.91613 11.3321 6.92331 11.3643 6.93199C11.3716 6.934 11.4263 6.91122 11.4336 6.91539C11.4623 6.9344 11.4526 6.96778 11.4893 6.98472C11.4969 6.98815 11.548 6.97221 11.5576 6.97105C11.6338 6.96278 11.5217 7.01661 11.5107 7.02476C11.4534 7.07755 11.4858 7.09574 11.4922 7.12828C11.4956 7.13467 11.5606 7.10993 11.5645 7.11656C11.5835 7.15162 11.5871 7.19242 11.5645 7.2357C11.5592 7.24539 11.4981 7.25098 11.4922 7.25621C11.4683 7.27877 11.5801 7.25947 11.5605 7.28062C11.5563 7.28513 11.5045 7.29351 11.499 7.29527C11.4132 7.32257 11.5397 7.3068 11.543 7.30894C11.5862 7.33431 11.4611 7.37852 11.4834 7.40562C11.4864 7.40893 11.5502 7.38973 11.5547 7.39976C11.5845 7.46695 11.5772 7.5458 11.5322 7.62047C11.5253 7.63206 11.4747 7.62987 11.4688 7.63121C11.3761 7.65178 11.5037 7.64567 11.5088 7.64879C11.5446 7.67324 11.4419 7.70758 11.5938 7.71422C11.5594 7.81202 11.6098 7.9056 11.5596 8.00035C11.5472 8.02342 11.5282 8.04656 11.501 8.06871C11.4956 8.06975 11.4364 8.066 11.4336 8.06871C11.3982 8.1021 11.4959 8.0975 11.6143 8.12535C11.644 8.13264 11.4989 8.1459 11.4883 8.14683C11.4489 8.15077 11.3562 8.14039 11.3486 8.14195C11.2888 8.15442 11.5977 8.16651 11.5967 8.18883C11.5935 8.18914 11.5413 8.18369 11.5342 8.18492C11.5163 8.18958 11.5377 8.19613 11.5186 8.20054C11.4726 8.2107 11.3222 8.20562 11.4082 8.22984C11.4205 8.23302 11.594 8.24111 11.585 8.26011C11.581 8.26758 11.5811 8.30169 11.5693 8.3109C11.5572 8.31954 11.5005 8.30845 11.498 8.30894C11.4217 8.32742 11.3913 8.31513 11.2803 8.31676C11.1706 8.31792 11.4294 8.33981 11.46 8.34801C11.4883 8.3561 11.4265 8.3683 11.4043 8.37047C11.3825 8.37259 11.3465 8.363 11.334 8.36558C11.2535 8.38232 11.4618 8.3921 11.5029 8.40562C11.5984 8.43846 11.4038 8.43111 11.3818 8.44664C11.3761 8.45094 11.4194 8.45342 11.4238 8.45836C11.4371 8.47858 11.3759 8.48076 11.4277 8.50914C11.4363 8.51362 11.5496 8.54861 11.4629 8.54625C11.4502 8.5457 11.4039 8.53382 11.3916 8.53941C11.3737 8.54821 11.3601 8.56654 11.374 8.5814C11.3848 8.59223 11.4633 8.59582 11.4385 8.60289C11.4267 8.60603 11.3817 8.58865 11.3633 8.59508C11.345 8.60145 11.3429 8.62579 11.3428 8.63511C11.343 8.64438 11.4034 8.65121 11.4072 8.65269C11.4285 8.66134 11.4528 8.68296 11.4541 8.6859C11.4453 8.76781 11.3292 8.81615 11.3418 8.89879C11.3427 8.90529 11.4047 8.91798 11.4062 8.91929C11.4266 8.94678 11.2669 8.8867 11.208 8.88512C11.3327 8.91736 11.3092 8.91931 11.3184 8.93687C11.3231 8.94556 11.3731 8.95634 11.3779 8.95836C11.4476 8.9893 11.3509 8.96909 11.3311 8.96519C11.2581 8.95118 11.3399 8.98347 11.291 8.97398C11.2425 8.96441 11.1758 8.93345 11.1729 8.94664C11.2166 8.96367 11.3358 8.98835 11.3516 9.00426C11.4109 9.06534 11.2963 9.11044 11.2764 9.13707C11.2565 9.16426 11.2605 9.17694 11.2383 9.18883C11.1986 9.20994 11.2861 9.22944 11.3174 9.26402C11.3481 9.29922 11.1452 9.20996 11.0996 9.19566C11.0543 9.18124 11.0987 9.20173 11.0732 9.19566C11.0476 9.18945 11.02 9.17033 11.0078 9.17418C10.9958 9.17806 11.0663 9.23072 11.1113 9.2523C11.2069 9.29777 11.3136 9.32906 11.2686 9.33629C11.2632 9.33518 11.2132 9.31043 11.2061 9.31285C11.1494 9.33315 11.1305 9.3703 11.0781 9.39C11.0708 9.39264 11.0137 9.36146 11.0088 9.36265C10.9577 9.37462 11.0626 9.40978 11.165 9.47789C11.0201 9.40581 10.9261 9.37299 10.915 9.3939C10.9085 9.40658 10.9731 9.43483 11.0137 9.46519C11.0252 9.47413 10.978 9.4626 11.0068 9.47887C11.1014 9.53245 11.2143 9.57682 11.1592 9.57945C11.1577 9.57908 11.1509 9.57606 11.1426 9.57164C11.1309 9.56545 11.1162 9.55666 11.1074 9.55308C11.1043 9.55183 11.1017 9.55198 11.1006 9.55211C11.068 9.5645 11.1671 9.6187 11.166 9.65074C11.1645 9.6757 11.0854 9.67842 11.0635 9.69469C10.9045 9.60643 10.9299 9.64604 11.0342 9.71617C11.0219 9.7278 11.0188 9.74656 10.9961 9.75133C10.9872 9.75191 10.9446 9.7233 10.9395 9.72105C10.8578 9.68487 10.9596 9.75264 10.9619 9.75816C10.9818 9.81427 10.8874 9.7921 10.9443 9.87047C10.9464 9.87325 11.0518 9.94307 10.9688 9.90172C10.9626 9.89823 10.921 9.8577 10.9082 9.86949C10.895 9.88146 10.8221 9.87054 10.8574 9.92222C10.866 9.93464 10.9424 10.0043 10.8701 9.9691C10.8603 9.96425 10.8314 9.94268 10.8135 9.93297C10.7566 9.9023 10.8585 9.97825 10.7646 9.9232C10.6708 9.86826 10.5956 9.83434 10.6436 9.89586C10.6455 9.89811 10.7243 9.96119 10.7188 9.96617C10.7098 9.974 10.6834 9.97476 10.6768 9.98472C10.6736 9.98955 10.7262 10.0243 10.7266 10.0257C10.7308 10.078 10.6687 10.0671 10.624 10.0843C10.6168 10.0883 10.668 10.1583 10.6064 10.1273C10.5387 10.0926 10.3109 9.8848 10.3457 9.95738C10.3602 9.98595 10.6457 10.2544 10.4746 10.1429C10.4782 10.2148 10.3698 10.1803 10.3867 10.266C10.3875 10.2698 10.4608 10.3496 10.457 10.3539C10.4496 10.3582 10.4111 10.3271 10.4033 10.3275C10.3752 10.3344 10.39 10.3818 10.3682 10.3939C10.3599 10.3983 10.3251 10.3585 10.3154 10.3636C10.3059 10.3689 10.3493 10.4236 10.3154 10.4095C10.2896 10.3987 10.1834 10.3039 10.1621 10.3011C10.2578 10.4036 10.2496 10.4084 10.2617 10.4476C10.2654 10.456 10.2981 10.4875 10.3018 10.4935C10.3139 10.5166 10.2821 10.4915 10.2959 10.516C10.2998 10.5225 10.3315 10.557 10.3359 10.5638C10.3751 10.6233 10.2904 10.5556 10.2754 10.5433C10.2197 10.4983 10.2557 10.5477 10.2314 10.5336C10.2064 10.5184 10.1926 10.4831 10.1738 10.4769C10.1351 10.4643 10.1201 10.4874 10.1025 10.4994C10.0959 10.5042 10.1384 10.5472 10.1406 10.5511C10.1373 10.5751 10.0805 10.5341 10.1533 10.639C9.93594 10.3915 10.1653 10.6701 10.1035 10.6351C10.0967 10.6299 9.99966 10.5118 9.99121 10.4896C9.98314 10.4679 10.0213 10.4981 10.0068 10.4642C10.0019 10.4539 9.92465 10.3387 9.91797 10.3275C9.88497 10.2662 10.0312 10.4387 10.043 10.4515C10.1382 10.5515 10.0509 10.4207 10.0469 10.4095C10.0299 10.3586 10.0646 10.3721 10.0537 10.3343C10.0466 10.3097 9.94601 10.1955 9.95508 10.1937C9.98483 10.1878 10.1363 10.3369 10.0303 10.1839C10.0073 10.1511 9.88988 10.0342 9.99316 10.1166C10.0004 10.1226 10.0922 10.1977 10.0469 10.138C10.041 10.1304 10.0067 10.0951 10.0049 10.0912C9.99339 10.0662 10.0239 10.0893 10.0186 10.0697C10.0128 10.0495 10.0022 10.0212 10.0215 10.0248C10.0332 10.027 10.1039 10.0849 10.1221 10.098C10.1738 10.1355 10.1067 10.0553 10.166 10.1048C10.226 10.1544 10.3018 10.2452 10.3496 10.2679C10.2594 10.18 10.1668 10.0899 10.0762 10.0013C10.1021 9.98082 10.1544 9.98406 10.1729 9.95543C10.175 9.95183 10.1232 9.91035 10.123 9.90465C10.1272 9.8839 10.1738 9.90351 10.1719 9.87633C10.1701 9.85518 10.1268 9.79697 10.1221 9.77379C10.2382 9.85882 10.2158 9.80959 10.2363 9.80504C10.2439 9.80391 10.2726 9.82756 10.2852 9.83238C10.3315 9.84883 10.228 9.77502 10.2148 9.75914C10.1588 9.69197 10.3859 9.86892 10.3945 9.84605C10.3876 9.83791 10.2817 9.73971 10.2754 9.73277C10.2341 9.6863 10.3179 9.76186 10.333 9.76402C10.3582 9.76514 10.3944 9.77901 10.3682 9.73863C10.3604 9.72663 10.2899 9.66084 10.3555 9.69664C10.3642 9.70146 10.4025 9.73049 10.4072 9.73277C10.4584 9.74649 10.3296 9.65297 10.291 9.61363C10.2527 9.5747 10.3501 9.62448 10.3789 9.64C10.4511 9.67936 10.4054 9.66554 10.4111 9.67027C10.4869 9.72957 10.4802 9.71046 10.4922 9.70738C10.622 9.79473 10.6217 9.77867 10.5039 9.70445C10.4911 9.69639 10.4988 9.70958 10.4922 9.70738C10.3702 9.61369 10.3604 9.59287 10.4883 9.65953C10.5484 9.69072 10.6099 9.73959 10.5986 9.70445C10.5922 9.68808 10.5011 9.63295 10.4814 9.60972C10.4363 9.55701 10.5338 9.58875 10.5322 9.56285C10.5313 9.5534 10.477 9.52831 10.4746 9.52086C10.4682 9.50136 10.5124 9.51378 10.5 9.49058C10.4988 9.48845 10.4439 9.45935 10.4453 9.45543C10.455 9.42526 10.5026 9.42124 10.5195 9.39293C10.5275 9.37924 10.5115 9.33901 10.5244 9.3275C10.5394 9.31492 10.5852 9.31478 10.6133 9.30699C10.6287 9.30273 10.6388 9.29583 10.6357 9.28453C10.6302 9.26393 10.5732 9.24035 10.5381 9.21617C10.4698 9.16969 10.6118 9.21184 10.6338 9.21812C10.6356 9.22095 10.6446 9.2374 10.6738 9.24351C10.7326 9.26618 10.6408 9.22165 10.6338 9.21812C10.648 9.22197 10.6716 9.20251 10.6631 9.19273C10.6578 9.18727 10.6068 9.16542 10.6035 9.16246C10.5704 9.10808 10.5695 9.07053 10.6084 9.04722C10.6097 9.04707 10.6705 9.07233 10.6729 9.07164C10.7075 9.06233 10.638 9.02031 10.5996 8.98765C10.5614 8.95498 10.5807 8.94848 10.6895 8.97691C10.6817 8.96011 10.7347 8.95915 10.7666 8.95836C10.7979 8.95743 10.6819 8.91518 10.6768 8.91246C10.6098 8.85872 10.684 8.86654 10.7041 8.84019C10.7138 8.82783 10.7044 8.79464 10.6953 8.77574C10.6879 8.76076 10.7185 8.76163 10.7031 8.74547C10.7007 8.7433 10.6504 8.73078 10.6445 8.72886C10.5823 8.69894 10.7146 8.74053 10.7393 8.74449C10.8285 8.75879 10.8765 8.76491 10.8398 8.73765C10.8307 8.73099 10.6434 8.67223 10.6309 8.66246C10.6186 8.65056 10.6865 8.67025 10.6729 8.65758C10.6717 8.65647 10.6286 8.64592 10.6318 8.64097C10.6462 8.61796 10.6774 8.5953 10.6787 8.56773C10.6753 8.5638 10.6094 8.55452 10.6084 8.54918C10.6053 8.52344 10.6138 8.49772 10.6504 8.47984C10.6605 8.476 10.7073 8.48833 10.7217 8.48961C10.8074 8.49673 10.6909 8.46468 10.6836 8.46129C10.6302 8.40782 10.7501 8.39027 10.7012 8.33726C10.6975 8.3339 10.5642 8.29984 10.6816 8.30504C10.6895 8.30548 10.8099 8.31068 10.7295 8.29429C10.7245 8.29332 10.6634 8.29159 10.6689 8.28355C10.6762 8.2751 10.637 8.25644 10.7061 8.25035C10.729 8.24861 10.8471 8.24889 10.7539 8.22886C10.7474 8.2271 10.5325 8.19273 10.6816 8.19761C10.7063 8.19842 10.8641 8.2111 10.7842 8.19078C10.7686 8.18702 10.7334 8.18951 10.7119 8.18101C10.6788 8.16803 10.7217 8.15594 10.6523 8.13902C10.64 8.13594 10.5334 8.12144 10.6143 8.11754C10.6271 8.11689 10.6804 8.12145 10.6865 8.11754C10.7155 8.09876 10.6809 8.07638 10.7178 8.05699C10.7309 8.0501 10.8155 8.05552 10.8389 8.0482C10.8618 8.04079 10.8844 8.02449 10.8457 8.01597C10.8067 8.00762 10.67 8.01588 10.6592 8.00426C10.6579 8.00287 10.6564 8.00173 10.6553 8.00035C10.6165 7.95233 10.6906 7.90253 10.6992 7.85191C10.7002 7.84441 10.6529 7.85298 10.6514 7.84215C10.6453 7.80141 10.594 7.73851 10.6924 7.69176C10.7713 7.65333 10.8383 7.68238 10.8691 7.65562C10.8815 7.64262 10.7249 7.65052 10.7197 7.64879C10.6668 7.63062 10.7337 7.60375 10.709 7.58433C10.7038 7.58043 10.6416 7.59445 10.6377 7.59117C10.6248 7.57992 10.6504 7.56188 10.6436 7.55015C10.6401 7.54494 10.5919 7.55392 10.5947 7.5482C10.6011 7.53471 10.6197 7.52075 10.6621 7.50035C10.6671 7.49842 10.7268 7.49443 10.7275 7.48472C10.7281 7.46894 10.7682 7.44014 10.7188 7.43199C10.7022 7.43009 10.5955 7.4529 10.668 7.42613C10.6833 7.42049 10.8152 7.39493 10.6992 7.4066C10.6798 7.40816 10.5222 7.42192 10.6182 7.38902C10.6435 7.38033 10.7488 7.34744 10.7305 7.34508C10.7275 7.34491 10.67 7.36246 10.6631 7.35875C10.6397 7.3455 10.6411 7.32523 10.6182 7.31187C10.6114 7.3087 10.5532 7.33206 10.5459 7.32652C10.5257 7.31141 10.5348 7.28338 10.5479 7.25914C10.5528 7.25015 10.6041 7.23972 10.6094 7.23765C10.6936 7.20386 10.574 7.23332 10.5664 7.23277C10.521 7.22826 10.5718 7.19891 10.5527 7.18785C10.5476 7.18488 10.4945 7.20483 10.4873 7.2064C10.4364 7.21335 10.5358 7.18843 10.5469 7.17906C10.5731 7.15337 10.5633 7.13671 10.5508 7.1234C10.5462 7.11861 10.4856 7.14639 10.4805 7.14293C10.459 7.11677 10.454 7.08404 10.4775 7.04136C10.4821 7.03328 10.5321 7.0176 10.543 7.01207C10.6169 6.9739 10.5095 7.00205 10.4961 7.00426C10.4456 7.01052 10.4849 6.98949 10.4736 6.98179C10.4125 6.94623 10.4122 6.87146 10.4053 6.8148C10.4046 6.80925 10.4037 6.80373 10.4033 6.7982C10.3984 6.73114 10.4102 6.66499 10.3682 6.61656C10.3647 6.61388 10.3107 6.64979 10.3047 6.64976C10.2667 6.6182 10.2651 6.56472 10.2227 6.53648C10.2193 6.53414 10.1664 6.57505 10.1592 6.57262C10.1443 6.56779 10.1391 6.55267 10.1494 6.53062C10.1551 6.51967 10.206 6.49495 10.21 6.48472C10.2192 6.4606 10.2137 6.44409 10.1963 6.43785C10.1889 6.43535 10.1402 6.48179 10.1338 6.47691C10.0957 6.43521 10.0542 6.39988 10.0859 6.30015C10.0898 6.29202 10.192 6.20494 10.167 6.21422C10.1371 6.23797 10.1019 6.26661 10.0703 6.29234C10.001 6.24284 9.98227 6.14972 9.92773 6.08433C9.92509 6.08217 9.8781 6.13727 9.87305 6.13316C9.84624 6.10478 9.80572 6.09346 9.8252 6.01304C9.82754 6.00465 9.91535 5.91266 9.89355 5.91832C9.88957 5.91945 9.86382 5.91923 9.8418 5.93687C9.8384 5.93977 9.80132 5.98723 9.7959 5.98472C9.76497 5.96933 9.74791 5.93577 9.74512 5.88609C9.74601 5.87704 9.79003 5.83268 9.79004 5.82652C9.78927 5.78245 9.73513 5.80086 9.74902 5.73863C9.75837 5.6965 9.8304 5.61325 9.8877 5.52086C9.89575 5.50779 9.88742 5.49834 9.9248 5.44761C10.0188 5.31996 10.1289 5.18565 10.2285 5.04918C10.2499 5.01979 10.2105 5.0389 10.2725 4.97594C10.2766 4.97172 10.3062 4.95731 10.3271 4.9359C10.3417 4.92103 10.3772 4.86677 10.3975 4.84898C10.4171 4.832 10.3898 4.87727 10.415 4.85875C10.4412 4.83929 10.4832 4.77917 10.5029 4.78355ZM10.1396 10.3646C10.1068 10.3363 10.1282 10.3839 10.1689 10.4193C10.2014 10.4471 10.1803 10.3996 10.1396 10.3646ZM10.1973 10.0052C10.135 9.96119 10.2544 10.0818 10.2793 10.099C10.3611 10.1544 10.2603 10.0493 10.1973 10.0052ZM11.1689 9.02965C11.1718 9.0302 11.1773 9.0221 11.1748 9.02086C11.1086 8.99428 11.0973 9.01049 11.1689 9.02965ZM11.2734 8.43297C11.2768 8.43314 11.2804 8.42744 11.2617 8.42515C11.2014 8.41777 11.2173 8.42857 11.2734 8.43297ZM11.4473 8.01695C11.3309 8.00494 11.318 8.04964 11.4404 8.04136C11.4467 8.04086 11.4526 8.01837 11.4473 8.01695ZM9.94043 5.5189C9.89288 5.5721 9.90344 5.58722 9.94629 5.52672C9.9474 5.52398 9.94234 5.5168 9.94043 5.5189Z" fill="#555961"/>
<path d="M11.7795 12.5794C11.8404 12.5494 12.0389 12.7193 11.9621 12.7464C11.948 12.7511 11.9312 12.6625 11.9025 12.6556C11.8508 12.6426 11.9382 12.7837 11.8576 12.7366C11.843 12.7277 11.7761 12.5811 11.7795 12.5794ZM12.3547 2.82844C12.4189 2.85659 12.4726 2.93059 12.5031 2.99641C12.5127 3.01684 12.4789 3.03954 12.4836 3.05501C12.494 3.08521 12.5265 3.08911 12.5344 3.12141C12.5355 3.13276 12.486 3.17086 12.4895 3.18098C12.5087 3.23644 12.5558 3.25886 12.5842 3.30501C12.7234 3.53206 12.8749 3.73289 13.0148 3.95051C13.0611 4.02249 13.0791 4.13815 13.1506 4.1927C13.16 4.19744 13.1996 4.16064 13.2043 4.1595C13.2784 4.14275 13.1831 4.20123 13.1828 4.22591C13.1821 4.32359 13.2267 4.39627 13.2863 4.44661C13.3119 4.46797 13.3848 4.38042 13.3518 4.44173C13.348 4.44649 13.2964 4.47215 13.2961 4.48274C13.2956 4.50695 13.3248 4.53278 13.3293 4.54817C13.3376 4.57774 13.3412 4.58195 13.3557 4.60579C13.3748 4.63884 13.3741 4.69223 13.4064 4.72005C13.4135 4.72593 13.4586 4.68539 13.4748 4.69173C13.4909 4.69845 13.506 4.73326 13.5002 4.7513C13.494 4.76924 13.4507 4.78884 13.4426 4.79622C13.375 4.8566 13.4989 4.83108 13.509 4.83333C13.6057 4.89416 13.5848 5.00634 13.6281 5.08919C13.661 5.1515 13.7157 5.20863 13.7424 5.27083L13.7434 5.27278C13.7746 5.34797 13.7734 5.42386 13.8098 5.49348C13.8146 5.49995 13.8744 5.46399 13.8791 5.47298C13.9297 5.56943 13.9634 5.67393 13.9563 5.79133C13.9541 5.80292 13.8922 5.8117 13.8879 5.82454C13.8632 5.90421 13.7798 6.03712 14.048 5.9886C14.0522 6.03435 14.059 6.08991 14.0188 6.14387C13.9928 6.17854 13.9209 6.17454 13.9572 6.19563C13.9654 6.20046 14.0195 6.17527 14.0275 6.18391C14.061 6.22046 14.0566 6.2726 14.0979 6.30696C14.1068 6.3135 14.1554 6.29774 14.1662 6.29719C14.2467 6.29768 14.1332 6.36658 14.1262 6.3763C14.0746 6.45114 14.1109 6.48555 14.1223 6.53938C14.1248 6.55187 14.19 6.52143 14.1955 6.53255C14.2204 6.59285 14.2294 6.65995 14.2111 6.72786C14.207 6.74274 14.1467 6.74291 14.1398 6.75032C14.118 6.78434 14.231 6.76854 14.2121 6.8011C14.2076 6.80785 14.1569 6.81459 14.1516 6.81673C14.0683 6.84944 14.1894 6.84074 14.1975 6.84407C14.2451 6.89141 14.1218 6.94912 14.1477 6.99739C14.151 7.00324 14.2144 6.97921 14.2199 6.99641C14.2569 7.11094 14.2554 7.24013 14.215 7.36165C14.2084 7.37991 14.1591 7.37275 14.1525 7.37434C14.0603 7.40201 14.1857 7.40116 14.1926 7.40657C14.2315 7.45005 14.1288 7.50184 14.2824 7.5218C14.2525 7.68378 14.3053 7.84157 14.2551 8.00032C14.2427 8.03913 14.224 8.07766 14.1965 8.11555C14.1949 8.11799 14.1321 8.11267 14.1291 8.11751C14.0929 8.17534 14.1908 8.1655 14.3088 8.2093C14.3376 8.22063 14.1925 8.24633 14.1818 8.24837C14.1423 8.2563 14.0499 8.24254 14.0422 8.24544C13.9819 8.26905 14.291 8.27861 14.2893 8.31575C14.2866 8.31652 14.2315 8.30911 14.2258 8.31184C14.2085 8.3204 14.23 8.33103 14.2102 8.33919C14.1637 8.35811 14.0136 8.35563 14.0988 8.3929C14.1113 8.39769 14.2851 8.40362 14.2746 8.43587C14.2704 8.44932 14.2687 8.50669 14.2561 8.5218C14.2437 8.5366 14.1908 8.52168 14.1857 8.5218C14.1076 8.5583 14.0779 8.53931 13.966 8.55012C13.8544 8.56052 14.116 8.57954 14.1447 8.59114C14.173 8.60278 14.1083 8.62881 14.0861 8.63411C14.0641 8.6393 14.0296 8.62588 14.0168 8.63118C13.9333 8.66702 14.1436 8.66541 14.1838 8.68489C14.2779 8.73181 14.0818 8.73692 14.0588 8.76594C14.0526 8.7739 14.0965 8.77239 14.0998 8.78059C14.1116 8.8134 14.0495 8.82303 14.0998 8.86555C14.1081 8.87235 14.2195 8.91843 14.132 8.92415C14.1195 8.92486 14.0728 8.91028 14.0598 8.92122C14.0407 8.93814 14.0247 8.97109 14.0373 8.99446C14.0466 9.01167 14.1276 9.00763 14.1008 9.02278C14.0884 9.02955 14.0441 9.00562 14.0246 9.01887C14.0054 9.03215 14.0005 9.07346 13.9992 9.08919C13.9985 9.10451 14.0571 9.10773 14.0627 9.10969C14.0844 9.12152 14.1082 9.15682 14.1076 9.1595C14.0889 9.29617 13.9613 9.39547 13.9611 9.53059C13.961 9.54127 14.025 9.55126 14.0256 9.55305C14.0422 9.59425 13.8847 9.52448 13.8234 9.53352C13.95 9.56331 13.9236 9.57119 13.9309 9.59895C13.9346 9.61221 13.9841 9.61896 13.9895 9.62141C14.0584 9.65898 13.96 9.64531 13.9396 9.6429C13.8649 9.63431 13.9457 9.67014 13.8957 9.66438C13.8462 9.65844 13.7812 9.6213 13.7756 9.64387C13.8185 9.66308 13.9404 9.67949 13.9543 9.70247C14.0069 9.79014 13.8767 9.8864 13.8498 9.93489C13.823 9.984 13.8255 10.0039 13.799 10.0286C13.7512 10.0729 13.8429 10.0829 13.8693 10.1312C13.8954 10.1799 13.6932 10.0862 13.6467 10.0745C13.6006 10.0628 13.6441 10.0847 13.6174 10.0814C13.5909 10.0777 13.5651 10.0549 13.551 10.0648C13.5374 10.075 13.6022 10.1415 13.6467 10.1644C13.7412 10.2126 13.8513 10.2352 13.801 10.2581C13.798 10.2594 13.7462 10.2317 13.7375 10.2376C13.6707 10.2852 13.6407 10.3492 13.5773 10.3958C13.5685 10.402 13.5138 10.3699 13.507 10.3724C13.4467 10.4069 13.5552 10.4329 13.6535 10.5111C13.5086 10.4388 13.4109 10.414 13.3928 10.4515C13.3826 10.474 13.4475 10.4997 13.4855 10.5355C13.4971 10.5464 13.4461 10.5418 13.4748 10.5589C13.5684 10.615 13.6853 10.651 13.6223 10.6712C13.6207 10.6711 13.614 10.6678 13.6057 10.6634C13.594 10.6572 13.5786 10.6497 13.5695 10.6468C13.5661 10.6457 13.5639 10.6451 13.5627 10.6458C13.5225 10.6751 13.6215 10.7291 13.6125 10.7786C13.6053 10.8176 13.5135 10.8461 13.4836 10.8782C13.323 10.7928 13.342 10.8463 13.4445 10.9202C13.427 10.942 13.4186 10.9717 13.3908 10.9866C13.3813 10.9917 13.3381 10.9614 13.3322 10.9593C13.2464 10.9312 13.3453 10.9997 13.3479 11.0081C13.3564 11.0874 13.2503 11.0858 13.2961 11.1849C13.3011 11.1904 13.4022 11.2559 13.3166 11.223C13.3107 11.2205 13.272 11.1739 13.2531 11.1956C13.2342 11.2182 13.1481 11.2283 13.176 11.2933C13.1832 11.3093 13.2547 11.3847 13.177 11.3577C13.1661 11.3535 13.138 11.3324 13.1193 11.3245C13.059 11.2995 13.1615 11.375 13.0637 11.3275C12.9652 11.2796 12.882 11.2581 12.9221 11.3324C12.9276 11.3381 13.0011 11.3991 12.9934 11.4085C12.9799 11.4234 12.9463 11.4343 12.9348 11.4515C12.9293 11.4598 12.9846 11.4914 12.9846 11.4935C12.9741 11.5689 12.8995 11.5749 12.8371 11.6175C12.8258 11.6253 12.8709 11.7076 12.802 11.6868C12.7262 11.6635 12.4999 11.4525 12.5197 11.5452C12.5281 11.582 12.8121 11.8532 12.6262 11.762C12.6078 11.8632 12.4759 11.8584 12.4699 11.972C12.4696 11.977 12.5396 12.0574 12.5344 12.0657C12.5231 12.0747 12.4808 12.0476 12.4709 12.0521C12.431 12.073 12.4359 12.1313 12.4025 12.1566C12.3899 12.1658 12.3559 12.1261 12.341 12.137C12.3262 12.1483 12.367 12.2059 12.3254 12.2005C12.2935 12.1961 12.1794 12.1091 12.1506 12.1146C12.2492 12.2143 12.2353 12.2249 12.2395 12.2728C12.2412 12.2823 12.2783 12.311 12.2814 12.3177C12.2909 12.3437 12.2546 12.3228 12.2658 12.3499C12.2685 12.3564 12.3009 12.3897 12.3059 12.3978C12.3415 12.4615 12.2443 12.4059 12.2277 12.3958C12.1644 12.3583 12.2005 12.4096 12.1701 12.3997C12.1398 12.3897 12.1321 12.3483 12.1076 12.348C12.0572 12.3474 12.0281 12.3845 11.9992 12.4075C11.9883 12.4171 12.0379 12.4578 12.0373 12.4603C12.025 12.4929 11.9576 12.4627 12.0285 12.5697C11.7959 12.3358 12.0352 12.606 11.9582 12.5853C11.9504 12.5816 11.848 12.4673 11.843 12.4417C11.8383 12.4165 11.8847 12.4399 11.8752 12.4017C11.873 12.3925 11.7952 12.2674 11.7912 12.2581C11.7643 12.19 11.9204 12.36 11.9309 12.3695C12.034 12.4612 11.953 12.3262 11.9504 12.3118C11.9433 12.2512 11.987 12.2544 11.9846 12.2083C11.983 12.1783 11.8804 12.0671 11.8938 12.0599C11.9394 12.0376 12.101 12.1763 12.0051 12.012C11.9845 11.977 11.8603 11.8662 11.9777 11.9339C11.9868 11.9394 12.0878 12.0031 12.0451 11.9398C12.0397 11.9318 12.0059 11.898 12.0041 11.8929C11.997 11.8625 12.033 11.8809 12.0324 11.8548C12.0318 11.8288 12.0269 11.7941 12.0529 11.7904C12.0695 11.7889 12.1459 11.8385 12.1662 11.849C12.224 11.8789 12.1602 11.7954 12.2238 11.8392C12.2885 11.8834 12.3611 11.9786 12.4182 11.9906C12.3257 11.905 12.2316 11.8162 12.1389 11.7298C12.183 11.6878 12.2535 11.6691 12.2893 11.6185C12.2923 11.6116 12.2373 11.5745 12.2404 11.5667C12.2542 11.5338 12.3099 11.5411 12.3176 11.5013C12.3229 11.4702 12.2862 11.4026 12.2893 11.3695C12.4132 11.4454 12.4017 11.381 12.4309 11.3646C12.4413 11.3593 12.4709 11.3826 12.4855 11.3841C12.5404 11.3887 12.4304 11.3224 12.4191 11.304C12.3715 11.2264 12.6042 11.3957 12.6232 11.3577C12.62 11.3513 12.5161 11.2444 12.51 11.2357C12.4726 11.1807 12.5558 11.2642 12.5734 11.2591C12.6055 11.25 12.646 11.2553 12.6271 11.2044C12.6215 11.1893 12.5545 11.1174 12.6252 11.1449C12.6345 11.1484 12.6764 11.1779 12.6799 11.1781C12.7391 11.1776 12.6082 11.088 12.5734 11.0423C12.5388 10.9968 12.647 11.033 12.677 11.0452C12.7518 11.0761 12.7024 11.0748 12.7053 11.0794C12.7797 11.1406 12.7783 11.1136 12.7941 11.1038C12.9266 11.1873 12.9323 11.1624 12.8107 11.0941C12.7974 11.0866 12.802 11.1049 12.7941 11.1038C12.6738 11.0077 12.6706 10.9767 12.8068 11.0296C12.8708 11.0544 12.9303 11.1072 12.9279 11.057C12.9263 11.0341 12.8311 10.9835 12.8146 10.9544C12.777 10.8884 12.8879 10.8998 12.8938 10.8587C12.8957 10.8441 12.8387 10.8259 12.8371 10.8148C12.8357 10.7855 12.8855 10.7881 12.8781 10.7552C12.877 10.7521 12.8228 10.7276 12.8234 10.72C12.8456 10.6663 12.9043 10.6405 12.9338 10.5872C12.9479 10.5616 12.942 10.5002 12.9611 10.4759C12.9829 10.4491 13.0365 10.4315 13.0715 10.4085C13.0907 10.3959 13.1048 10.3814 13.1047 10.3636C13.1045 10.3308 13.045 10.3105 13.0119 10.2816C12.948 10.2263 13.0977 10.2478 13.1213 10.2513C13.1221 10.2514 13.1252 10.2799 13.1594 10.2806C13.2229 10.3001 13.122 10.2519 13.1213 10.2513C13.1362 10.2538 13.1692 10.2125 13.1623 10.1986C13.1579 10.1909 13.1039 10.1708 13.1027 10.1673C13.0809 10.0849 13.092 10.0185 13.1418 9.96516C13.1437 9.9647 13.2003 9.98798 13.2063 9.98762C13.2476 9.96095 13.1825 9.90887 13.1486 9.86262C13.1149 9.81621 13.1377 9.79803 13.2502 9.81673C13.2452 9.78915 13.303 9.77213 13.3381 9.76204C13.3732 9.75191 13.253 9.70881 13.2512 9.70637C13.192 9.62937 13.2706 9.6216 13.298 9.56965C13.3113 9.54504 13.3086 9.48745 13.3029 9.4554C13.2984 9.43014 13.3305 9.42438 13.3176 9.39876C13.3153 9.39524 13.2599 9.38356 13.258 9.38215C13.1991 9.34246 13.3305 9.38849 13.3557 9.38997C13.4473 9.39528 13.4966 9.39555 13.4631 9.35481C13.4555 9.34524 13.2665 9.27686 13.258 9.26204C13.2484 9.2432 13.3157 9.26527 13.3029 9.24446C13.3008 9.24249 13.2586 9.23274 13.2629 9.22298C13.2824 9.17703 13.3194 9.12983 13.3254 9.07844C13.3264 9.07147 13.256 9.06617 13.2561 9.05598C13.2573 9.00818 13.2687 8.95809 13.3088 8.91829C13.3189 8.90856 13.366 8.92394 13.3811 8.92415C13.4703 8.92382 13.3487 8.8813 13.3459 8.87727C13.2988 8.78445 13.4229 8.73619 13.3791 8.6429C13.3765 8.63753 13.244 8.58631 13.3625 8.58333C13.3704 8.58321 13.4918 8.57976 13.4113 8.55696C13.4043 8.55578 13.3439 8.55854 13.3518 8.54231C13.3595 8.52557 13.322 8.49448 13.3918 8.47688C13.4148 8.47144 13.534 8.46325 13.4416 8.43294C13.4351 8.43051 13.2213 8.37967 13.3713 8.37825C13.3963 8.37806 13.553 8.39134 13.4748 8.35872C13.4595 8.35252 13.4237 8.35894 13.4025 8.34407C13.37 8.32133 13.4137 8.29581 13.3449 8.26692C13.3327 8.26175 13.226 8.23911 13.3078 8.22786C13.3205 8.22608 13.3716 8.23214 13.3791 8.22493C13.409 8.18799 13.3751 8.14657 13.4123 8.10872C13.4254 8.09521 13.5112 8.1044 13.5344 8.09016C13.5574 8.07598 13.5796 8.04624 13.5412 8.03059C13.5022 8.01513 13.3655 8.03043 13.3547 8.00813C13.3534 8.00548 13.3519 8.00297 13.3508 8.00032C13.312 7.90724 13.3855 7.81259 13.3918 7.71712C13.3919 7.70329 13.3452 7.71722 13.343 7.69661C13.3353 7.61858 13.2782 7.49104 13.3732 7.41243C13.4495 7.34855 13.5203 7.41086 13.549 7.36458C13.5625 7.34183 13.4022 7.33837 13.3967 7.3343C13.341 7.29356 13.4054 7.25182 13.3781 7.21223C13.3724 7.20414 13.3102 7.22198 13.3059 7.21516C13.2911 7.1917 13.3159 7.16031 13.3068 7.13704C13.3023 7.12684 13.254 7.1367 13.2561 7.1263C13.2605 7.10141 13.2777 7.07749 13.3186 7.04622C13.3223 7.04333 13.3846 7.04667 13.384 7.02864C13.3822 6.99933 13.4197 6.95409 13.3674 6.93001C13.3516 6.92289 13.2415 6.94481 13.3127 6.90852C13.3276 6.90093 13.4606 6.87903 13.342 6.87825C13.3222 6.87773 13.1604 6.87086 13.2541 6.82942C13.2789 6.81846 13.3831 6.78081 13.3635 6.77278C13.3574 6.77304 13.3047 6.79095 13.2961 6.78352C13.2691 6.75398 13.2664 6.71688 13.2395 6.68684C13.2321 6.6789 13.1753 6.70772 13.1662 6.69563C13.1415 6.66221 13.145 6.61134 13.1535 6.56965C13.1579 6.55469 13.209 6.54964 13.2141 6.54719C13.2967 6.50675 13.1755 6.5308 13.1672 6.52766C13.1173 6.50714 13.1654 6.4662 13.1418 6.44075C13.1355 6.43381 13.0821 6.45585 13.0754 6.45637C13.0213 6.45464 13.1262 6.43634 13.134 6.42219C13.1558 6.38264 13.1403 6.35042 13.1232 6.32258C13.1169 6.31235 13.0559 6.34559 13.051 6.33626C13.0207 6.28173 13.0067 6.22004 13.0207 6.15071C13.0235 6.13761 13.0744 6.12588 13.0852 6.11946C13.1573 6.07488 13.044 6.09099 13.0305 6.09016C12.9751 6.08449 13.0145 6.05891 12.9982 6.04133C12.9188 5.95648 12.8942 5.823 12.8674 5.722C12.8648 5.71218 12.8628 5.70234 12.8605 5.6927C12.8322 5.57415 12.8232 5.46683 12.7551 5.36848C12.7505 5.36181 12.6948 5.40178 12.6887 5.39778C12.6303 5.32775 12.6081 5.23696 12.5432 5.17122C12.536 5.16825 12.4877 5.2097 12.4777 5.20247C12.4566 5.18749 12.443 5.16002 12.4475 5.12825C12.4501 5.11281 12.506 5.09538 12.507 5.0804C12.5094 5.04533 12.4967 5.01745 12.4719 4.99934C12.4611 4.99175 12.415 5.04426 12.4055 5.03157C12.3392 4.94593 12.2695 4.86824 12.2717 4.72786C12.2752 4.71587 12.3754 4.62906 12.3449 4.63216C12.3141 4.65464 12.2787 4.68269 12.2463 4.70735C12.1317 4.59622 12.0664 4.44611 11.9621 4.32356C11.9577 4.31844 11.9122 4.37609 11.9035 4.36653C11.8531 4.31124 11.7887 4.27441 11.7844 4.16926C11.7839 4.15886 11.876 4.06994 11.8459 4.0677C11.8395 4.067 11.8037 4.05587 11.7785 4.06966C11.7746 4.07213 11.7378 4.1189 11.7287 4.11262C11.6764 4.0753 11.6372 4.02027 11.6135 3.95051C11.6106 3.93894 11.6585 3.90008 11.6574 3.89094C11.6399 3.83032 11.5647 3.82911 11.5627 3.75227C11.5615 3.70053 11.6414 3.6241 11.6955 3.52864C11.7031 3.51514 11.6873 3.49891 11.7258 3.44954C11.8233 3.32454 11.9421 3.19684 12.0451 3.06282C12.0673 3.03397 12.0171 3.0435 12.0871 2.98762C12.0918 2.98391 12.129 2.97644 12.1525 2.95735C12.1687 2.94409 12.2034 2.88965 12.2268 2.87434C12.2501 2.85947 12.2238 2.90632 12.2541 2.89192C12.285 2.87691 12.3269 2.81712 12.3547 2.82844ZM12.0969 12.2113C12.0602 12.1869 12.0748 12.2423 12.1203 12.2728C12.1567 12.2966 12.1424 12.2414 12.0969 12.2113ZM12.3039 11.681C12.2349 11.6446 12.3534 11.7667 12.3811 11.7806C12.4722 11.8254 12.3734 11.7172 12.3039 11.681ZM13.7639 9.7679C13.6984 9.73857 13.6834 9.76805 13.7561 9.78352C13.759 9.78402 13.7666 9.76914 13.7639 9.7679ZM13.9387 8.73958C13.8783 8.73284 13.8932 8.75035 13.9494 8.75227C13.9528 8.75238 13.9575 8.74168 13.9387 8.73958ZM14.1428 8.02864C14.0265 8.00829 14.0135 8.0851 14.1359 8.06965C14.1421 8.06767 14.1481 8.03089 14.1428 8.02864ZM11.7717 3.54817C11.7197 3.5971 11.7398 3.62155 11.7824 3.56087C11.7841 3.55841 11.7739 3.54615 11.7717 3.54817Z" fill="#555961"/>
<path d="M6.50293 2.49596C6.68281 2.4276 6.88687 2.4357 7.05176 2.5106C7.10874 2.53612 7.16178 2.56916 7.20801 2.60728C7.25547 2.64825 7.19079 2.66417 7.19043 2.67174C7.18232 2.78089 7.28696 2.70545 7.30762 2.71764C7.36789 2.7541 7.40122 2.81659 7.42773 2.87193C7.46315 2.94577 7.48927 3.0054 7.58887 3.04869C7.60647 3.14886 7.60595 3.25028 7.58984 3.34849C7.57502 3.75841 7.61623 4.16696 7.50195 4.57408C7.49933 4.57983 7.43845 4.56925 7.43457 4.58092C7.39932 4.72892 7.49691 4.70098 7.61621 4.79869C7.6462 4.82338 7.50178 4.89849 7.49121 4.90514C7.45214 4.92914 7.35909 4.90485 7.35156 4.91295C7.29322 4.97979 7.60146 4.96902 7.60156 5.05943C7.59872 5.06154 7.54636 5.05091 7.53906 5.05748C7.5213 5.08108 7.54303 5.1047 7.52344 5.12779C7.47798 5.18055 7.32868 5.19948 7.41602 5.28014C7.42736 5.29035 7.60203 5.2755 7.59375 5.35631C7.59039 5.38944 7.59324 5.53002 7.58203 5.57017C7.57068 5.61009 7.51417 5.58295 7.51172 5.5858C7.43703 5.69326 7.40651 5.65302 7.2959 5.70689C7.18593 5.76065 7.44724 5.74568 7.47754 5.76744C7.50678 5.78943 7.4453 5.86811 7.42383 5.88756C7.40238 5.90692 7.36663 5.88303 7.35449 5.90025C7.27529 6.01436 7.48448 5.95065 7.52637 5.98814C7.62516 6.07686 7.43024 6.14619 7.41113 6.2274C7.40671 6.24865 7.45096 6.23141 7.45508 6.25084C7.47072 6.32815 7.41012 6.3747 7.46582 6.46275C7.47503 6.47723 7.59178 6.54848 7.50586 6.59459C7.49346 6.60112 7.44448 6.58304 7.43359 6.61607C7.41741 6.66533 7.4069 6.75357 7.42285 6.8065C7.43487 6.84566 7.5151 6.80116 7.49023 6.85045C7.47911 6.87222 7.43303 6.83214 7.41602 6.87291C7.39907 6.91384 7.40073 7.01863 7.40234 7.05846C7.40403 7.09816 7.46466 7.07673 7.46875 7.07994C7.49216 7.09954 7.52156 7.17575 7.52148 7.18248C7.52881 7.52238 7.42613 7.8359 7.45996 8.16685C7.46253 8.19284 7.52727 8.17558 7.52832 8.17955C7.55504 8.2684 7.38412 8.19848 7.32715 8.2606C7.4568 8.25164 7.43419 8.28805 7.44824 8.35045C7.45517 8.38043 7.505 8.36458 7.51074 8.36705C7.58716 8.41183 7.48797 8.443 7.46777 8.45103C7.39402 8.48066 7.48122 8.51291 7.43164 8.53306C7.38239 8.55297 7.30969 8.50739 7.31055 8.56724C7.3569 8.58404 7.47771 8.53998 7.49805 8.58482C7.57248 8.75678 7.47786 9.07799 7.46777 9.21666C7.45787 9.3548 7.46603 9.39984 7.44922 9.48033C7.41884 9.6257 7.5095 9.57267 7.55078 9.66295C7.59166 9.75324 7.36994 9.70951 7.32227 9.72252C7.27503 9.73521 7.32305 9.74874 7.29785 9.76451C7.27165 9.78035 7.23933 9.74678 7.22949 9.78404C7.21997 9.82138 7.30367 9.92285 7.35352 9.93639C7.45911 9.9643 7.56998 9.9181 7.53125 10.0165C7.52894 10.0221 7.47074 10.0045 7.46484 10.0262C7.42006 10.1985 7.41756 10.3776 7.37793 10.5497C7.37238 10.5734 7.3067 10.5525 7.30273 10.5663C7.26138 10.7096 7.37078 10.6588 7.49219 10.7372C7.33071 10.7196 7.23151 10.7631 7.23047 10.8719C7.22984 10.9374 7.30079 10.9263 7.35059 10.9686C7.3656 10.9813 7.31735 11.0276 7.35059 11.036C7.4592 11.0637 7.58064 11.0203 7.53223 11.1327C7.52956 11.1374 7.47105 11.1221 7.4668 11.1385C7.44322 11.2487 7.55655 11.2626 7.57031 11.3817C7.58087 11.4751 7.51223 11.6408 7.50098 11.7469C7.31906 11.7447 7.3609 11.8449 7.48633 11.8856C7.4812 11.9545 7.488 12.029 7.4707 12.0956C7.46479 12.1185 7.41194 12.1034 7.40625 12.1063C7.31718 12.1506 7.43955 12.1813 7.44434 12.1962C7.49048 12.3572 7.398 12.4887 7.48828 12.6424C7.48994 12.6452 7.5226 12.6516 7.54297 12.66C7.53884 12.6645 7.53589 12.6715 7.5293 12.6766C7.52297 12.6793 7.45967 12.6243 7.46387 12.7137C7.46783 12.8102 7.37716 12.9472 7.36719 13.0741C7.36693 13.0788 7.36806 13.0851 7.36914 13.0926C7.37795 13.1363 7.38488 13.2368 7.2959 13.2294C7.28234 13.2275 7.26227 13.1967 7.24023 13.1903C7.17292 13.1668 7.23903 13.2776 7.14062 13.2157C7.05983 13.1628 6.99096 13.1235 6.94238 13.162C6.93193 13.17 6.92142 13.1816 6.91016 13.1971C6.90901 13.2002 6.90793 13.3034 6.87305 13.3065C6.81927 13.311 6.74624 13.2875 6.69531 13.2762C6.67104 13.2711 6.67132 13.3321 6.66699 13.3348C6.63578 13.3331 6.60641 13.3268 6.5791 13.3172C6.44154 13.2669 6.36514 13.1496 6.31543 13.0096C6.31434 13.0073 6.31087 13.0015 6.30762 12.996C6.2906 12.9666 6.16321 12.9424 6.17676 12.8495C6.19215 12.7476 6.47993 12.6165 6.32129 12.5321C6.25658 12.4986 5.8981 12.6714 5.98437 12.454C5.80298 12.3026 5.75345 12.0702 5.55469 11.9315C5.54456 11.9259 5.43998 11.9659 5.42578 11.9462C5.40539 11.916 5.43319 11.8681 5.41992 11.8456C5.36528 11.7506 5.26981 11.6989 5.21094 11.6122C5.18866 11.5793 5.23869 11.5576 5.21191 11.5184C5.18498 11.4794 5.11059 11.4969 5.09766 11.4256C5.08823 11.3716 5.17052 11.2465 5.14453 11.1854C5.03238 11.2695 5.00718 11.2326 4.92969 11.1932C4.91473 11.1858 4.886 11.2284 4.87695 11.2264C4.83956 11.2188 4.85474 11.1729 4.81641 11.1678C4.80709 11.1666 4.76854 11.1955 4.75879 11.1962C4.675 11.2021 4.71306 11.0755 4.71973 11.0536C4.74458 10.9702 4.68044 10.9891 4.67871 10.9413C4.6774 10.894 4.74073 10.9178 4.72656 10.8719C4.69671 10.7763 4.61641 10.6858 4.55957 10.6092C4.53665 10.5788 4.50152 10.6381 4.49707 10.6346C4.43612 10.5824 4.44064 10.4777 4.31348 10.5213C4.53942 10.2765 4.25983 10.5032 4.24219 10.3749C4.24095 10.3646 4.35622 10.2602 4.39551 10.2723C4.43443 10.2852 4.42824 10.3555 4.48535 10.371C4.49921 10.3744 4.65028 10.337 4.66504 10.3378C4.76158 10.3494 4.58403 10.4999 4.57617 10.5106C4.49299 10.6274 4.66531 10.5928 4.68652 10.6024C4.78338 10.6463 4.80658 10.7299 4.88281 10.7704C4.93252 10.797 5.05564 10.7077 5.07715 10.742C5.14765 10.8578 5.00919 11.0255 5.23242 11.0126C5.28015 11.0099 5.39506 10.8864 5.35156 11.0438C5.34819 11.0553 5.2995 11.1837 5.38379 11.1708C5.39452 11.169 5.43279 11.1397 5.44043 11.1424C5.48975 11.1629 5.47874 11.2106 5.52441 11.2391C5.57003 11.2676 5.6289 11.2988 5.65137 11.3544C5.66496 11.3879 5.6215 11.479 5.61426 11.5057C5.59293 11.5818 5.70588 11.5576 5.66309 11.6278C5.61987 11.6986 5.49133 11.7257 5.49902 11.8172C5.60029 11.7421 5.70668 11.6678 5.80957 11.5936C5.9097 11.7296 5.9795 11.8862 6.08789 12.0165C6.10164 12.0317 6.14141 11.974 6.15723 11.9901C6.22404 12.0585 6.23687 12.1536 6.3125 12.2196C6.37125 12.2705 6.47972 12.2918 6.54297 12.3436C6.45906 12.4705 6.56985 12.5344 6.6123 12.6102C6.62716 12.6367 6.59561 12.6589 6.59863 12.6835C6.61153 12.7757 6.68929 12.6676 6.71875 12.6727C6.72898 12.6745 6.73719 12.6777 6.74316 12.6815C6.75441 12.6977 6.78696 12.7448 6.79492 12.7626C6.81529 12.7459 6.6163 12.8901 6.65723 12.9227C6.66289 12.9277 6.77363 12.8174 6.77539 12.8065C6.8116 12.7573 6.75007 12.8516 6.75098 12.867C6.75222 12.8728 6.75329 12.8795 6.75488 12.8856C6.75966 12.907 6.77472 12.9265 6.7959 12.8934C6.80777 12.8807 6.80746 12.7851 6.82422 12.8573C6.82708 12.8666 6.83583 12.9171 6.83789 12.9198C6.85243 12.9359 6.8582 12.9213 6.85449 12.8963C6.84894 12.856 6.82331 12.7874 6.80859 12.7577C6.77964 12.7121 6.84001 12.804 6.86816 12.8221C6.93153 12.8755 6.88575 12.8542 6.89062 12.8602C6.94214 12.9408 6.95044 12.9156 6.96875 12.9071C7.08458 13.0132 7.10713 12.9698 6.9873 12.8963C6.9752 12.8885 6.97676 12.9091 6.96875 12.9071C6.90228 12.8288 6.86847 12.8016 6.89355 12.8075C6.90652 12.8101 6.93529 12.8206 6.9834 12.8309C7.05 12.8432 7.12288 12.8845 7.11035 12.8143C7.10213 12.7839 6.99299 12.7799 6.96484 12.7645C6.94152 12.7528 6.93927 12.7448 6.94336 12.7333C6.94184 12.7199 6.93681 12.6805 6.9375 12.6669C6.94821 12.5936 6.98552 12.5163 6.97559 12.4501C6.96983 12.4125 6.91124 12.4484 6.90527 12.4227C6.88936 12.3547 6.93283 12.2948 6.91016 12.2264C6.90758 12.2204 6.84649 12.2349 6.8457 12.2137C6.83859 12.0526 6.8778 11.9123 6.87891 11.744C6.87941 11.6626 6.84569 11.5168 6.85254 11.4325C6.86418 11.2865 6.95346 11.107 6.93164 10.9823C6.91765 10.901 6.85656 10.9184 6.81445 10.8837C6.73284 10.8164 6.87862 10.6976 6.90137 10.6815C6.90259 10.6834 6.91717 10.7501 6.94824 10.7137C7.01385 10.6922 6.90339 10.6824 6.90137 10.6815C6.916 10.671 6.92979 10.5306 6.91797 10.5028C6.91065 10.4884 6.85393 10.4965 6.85059 10.4891C6.79819 10.3021 6.78321 10.1143 6.81055 9.92467C6.81173 9.92133 6.87792 9.92568 6.87988 9.91783C6.90864 9.80827 6.82876 9.73778 6.78125 9.64732C6.73374 9.55678 6.74986 9.48511 6.8623 9.4315C6.84815 9.3632 6.89756 9.26529 6.92773 9.20885C6.95736 9.15343 6.83491 9.1445 6.82812 9.13951C6.74743 8.98466 6.81969 8.89489 6.83105 8.73424C6.83665 8.65782 6.81863 8.50634 6.80469 8.42369C6.7935 8.35839 6.82281 8.31884 6.80371 8.25865C6.79966 8.25109 6.74434 8.25915 6.74219 8.2567C6.6748 8.18995 6.81207 8.2212 6.83789 8.20787C6.92805 8.15756 6.97601 8.12597 6.93359 8.0399C6.92131 8.01971 6.72548 7.96257 6.71289 7.92662C6.69806 7.87957 6.76931 7.89678 6.75195 7.84752C6.74847 7.84366 6.70735 7.84366 6.70898 7.81431C6.71745 7.67318 6.74271 7.5186 6.73828 7.37193C6.7369 7.35276 6.66844 7.37754 6.66602 7.34947C6.65771 7.21377 6.66063 7.06471 6.69336 6.93248C6.70159 6.90019 6.74962 6.91949 6.76465 6.91295C6.85272 6.8696 6.72542 6.80799 6.72266 6.79771C6.66108 6.55543 6.77689 6.36985 6.72168 6.12291C6.71749 6.10887 6.58184 6.00582 6.69922 5.95982C6.70873 5.95603 6.82651 5.911 6.74512 5.87096C6.73996 5.86845 6.67825 5.89621 6.68457 5.84654C6.69051 5.7969 6.64919 5.71725 6.7168 5.64928C6.73827 5.62766 6.85854 5.57605 6.76269 5.51158C6.75016 5.50472 6.54212 5.40791 6.68945 5.37291C6.71489 5.36725 6.87186 5.37244 6.79102 5.29576C6.77526 5.28121 6.73978 5.30801 6.71777 5.26939C6.68381 5.21005 6.72576 5.1314 6.65527 5.05846C6.64188 5.04537 6.53638 4.9913 6.61719 4.9481C6.62989 4.94133 6.68216 4.954 6.68848 4.9315C6.71682 4.82248 6.68231 4.70822 6.71875 4.59752C6.73159 4.55829 6.81696 4.57786 6.83984 4.53697C6.86266 4.49602 6.88452 4.4137 6.8457 4.37096C6.80666 4.32815 6.67007 4.37454 6.65918 4.31041C6.61819 4.06811 6.6687 3.82732 6.69141 3.5858C6.67982 3.59052 6.66905 3.59827 6.65625 3.6024C6.64918 3.60468 6.62693 3.53521 6.59375 3.57408C6.54014 3.63731 6.44053 3.69085 6.41894 3.79478C6.41366 3.82597 6.50019 3.89487 6.40234 3.89537C6.38161 3.89528 6.28582 3.80057 6.33398 3.9276C6.34212 3.94971 6.39208 4.13833 6.27734 4.12291C6.24691 4.11874 6.13516 4.08253 6.12793 4.11998C6.12943 4.12581 6.18573 4.14747 6.17383 4.17271C6.1284 4.26305 6.05947 4.34148 6.01172 4.43346C5.99909 4.45806 6.07266 4.46456 6.05273 4.49986C5.99667 4.59753 5.89875 4.69813 5.81641 4.77232C5.78618 4.79939 5.76231 4.74693 5.75586 4.74498C5.65493 4.72614 5.7344 4.82394 5.73047 4.84068C5.70462 4.94356 5.61418 4.96668 5.57129 5.04674C5.55959 5.06826 5.6137 5.08992 5.61719 5.09752C5.62623 5.16922 5.56612 5.07524 5.53711 5.09361C5.45592 5.1448 5.39779 5.22695 5.34766 5.30357C5.32926 5.33186 5.40578 5.3441 5.38867 5.369C5.28827 5.5172 5.16888 5.65972 5.03223 5.77428C5.00671 5.7952 4.97863 5.74881 4.96484 5.74596C4.87039 5.73183 4.91655 5.85438 4.91602 5.87486C4.91086 5.96244 4.85658 5.95685 4.82422 6.01256C4.74639 6.14723 4.64401 6.28538 4.53613 6.41685C4.42767 6.54159 4.16505 6.68761 4 6.67857C3.82602 6.67403 3.65369 6.66179 3.50488 6.65221C3.19678 6.63258 2.94411 6.5964 2.66699 6.58971C2.65912 6.58806 2.6506 6.58965 2.64355 6.59459C2.64305 6.59969 2.66494 6.6614 2.66504 6.66295C2.66579 6.66575 2.66654 6.66723 2.66699 6.66783C2.66589 6.66517 2.6598 6.6664 2.67187 6.66685C2.67341 6.66628 2.73784 6.67201 2.74414 6.66881C2.74509 6.66809 2.74638 6.66765 2.74707 6.66685C2.75366 6.73294 2.74848 6.81106 2.72949 6.87486C2.71932 6.90941 2.66338 6.86353 2.6543 6.8983C2.63304 6.97925 2.62807 7.06613 2.63867 7.14928C2.64355 7.18414 2.71071 7.1315 2.71191 7.17662C2.71862 7.48999 2.73015 7.79843 2.64258 8.1151C2.63589 8.13673 2.4991 8.15597 2.52539 8.20201C2.56352 8.20548 2.60866 8.20538 2.64941 8.20689C2.66751 8.5834 2.63796 8.95675 2.62305 9.33287C2.61989 9.33812 2.6182 9.34525 2.61914 9.35142C2.61989 9.35174 2.64921 9.33873 2.66894 9.33092C2.6656 9.3382 2.66153 9.34847 2.66016 9.36412C2.65962 9.37107 2.63492 9.49569 2.65234 9.48033C2.65376 9.47869 2.66118 9.47401 2.66699 9.46568C2.69531 9.45758 2.7248 9.44605 2.7373 9.43248C2.74072 9.42828 2.72351 9.36782 2.75488 9.36607C2.93701 9.35703 3.12777 9.37159 3.30957 9.40806C3.33894 9.41408 3.30818 9.47745 3.3291 9.48228C3.47735 9.51598 3.6386 9.46762 3.78027 9.52525C3.87519 9.56418 3.84019 9.67472 3.89062 9.78306C3.89822 9.79812 3.95676 9.80073 3.95996 9.86314C3.96284 9.92157 3.95823 9.98227 3.95508 10.0438C4.00542 10.0298 4.11393 10.0212 4.12305 10.0272C4.22188 10.1738 4.08092 10.4191 3.98633 10.2499C3.9692 10.2191 4.09819 10.2573 4.08984 10.2079C4.07874 10.1439 3.99517 10.1525 3.95312 10.1219C3.94873 10.2023 3.94564 10.2837 3.95117 10.3641C3.95364 10.4005 4.03196 10.3621 3.98535 10.4501C3.98088 10.4564 3.92515 10.4851 3.91113 10.5145C3.90135 10.5351 3.9184 10.5994 3.89844 10.6258C3.87853 10.6517 3.85719 10.5989 3.82422 10.6297C3.79115 10.6611 3.80517 10.7333 3.73926 10.742C3.5858 10.7616 3.38432 10.7414 3.23144 10.7128C3.18371 10.7038 3.20785 10.664 3.1748 10.6561C3.11022 10.6407 3.05014 10.6597 2.98633 10.6415C2.96514 10.6352 2.99096 10.5724 2.96875 10.5672C2.86641 10.5439 2.76881 10.5507 2.66699 10.5458C2.63223 10.5448 2.5965 10.5421 2.56152 10.537C2.28144 10.496 2.02511 10.3575 1.84277 10.1571C1.63584 9.93197 1.52539 9.62936 1.53613 9.33287C1.55152 9.05842 1.56315 8.78291 1.57617 8.50377C1.58558 8.30104 1.64316 8.05398 1.61816 7.84459C1.61487 7.82047 1.5602 7.83457 1.55566 7.82994C1.48606 7.75712 1.59729 7.78166 1.6123 7.73424C1.67081 7.54532 1.67558 7.33502 1.6543 7.15318C1.64506 7.07582 1.5352 7.15285 1.59668 7.07506C1.60084 7.06965 1.65959 7.08927 1.66602 7.06822C1.68008 7.02016 1.66923 6.92887 1.67383 6.89146C1.68309 6.81957 1.68292 6.80712 1.68359 6.73912C1.68397 6.71598 1.68576 6.69173 1.68848 6.66685C1.6964 6.55639 1.73041 6.44412 1.75781 6.33971C1.76592 6.30934 1.69443 6.328 1.7041 6.27525C1.71223 6.22115 1.78653 6.09845 1.82715 6.07017C1.86599 6.04106 1.89191 6.08574 1.90527 6.0858C1.95893 6.08814 1.98303 6.04773 2.00195 6.00181C2.0213 5.95328 2.03578 5.89836 2.04297 5.89049C2.21022 5.71101 2.45208 5.65343 2.66699 5.67174C2.74296 5.6807 2.81904 5.68938 2.89746 5.68931C3.07131 5.68901 3.25743 5.66456 3.42285 5.66783C3.54423 5.67038 3.65431 5.6827 3.76562 5.69127C3.90313 5.50912 4.05108 5.33658 4.22363 5.18248C4.24354 5.16479 4.27211 5.22912 4.29492 5.21373C4.43351 5.11868 4.68612 4.99379 4.53125 4.75279C4.60614 4.67369 4.69535 4.57615 4.79785 4.53306C4.86387 4.50537 4.87991 4.59482 4.9043 4.51646C4.90965 4.49889 4.84979 4.48048 4.86133 4.45689C4.9114 4.35717 4.99968 4.27405 5.04199 4.16978C5.05013 4.14851 5.00468 4.12098 5.00098 4.11021C4.97219 4.02138 5.12746 4.03066 5.14648 4.02135C5.28996 3.94954 5.3338 3.84946 5.41797 3.744C5.43714 3.71961 5.35822 3.70462 5.375 3.67955C5.4629 3.54991 5.5676 3.42546 5.68652 3.32408C5.71299 3.30272 5.74176 3.3641 5.75684 3.35533C5.82276 3.31601 5.74253 3.23336 5.80371 3.1942C5.81663 3.18586 5.85324 3.22403 5.85937 3.22545C5.95501 3.24744 5.87751 3.14084 5.88184 3.13072C5.93451 3.00137 6.0912 3.01433 6.15625 2.90025C6.16384 2.88666 6.09206 2.87395 6.11426 2.83873L6.0918 2.87584C6.16992 2.70548 6.32178 2.56287 6.50293 2.49596ZM7.55762 12.6669C7.55525 12.6632 7.54936 12.6627 7.54297 12.66C7.55636 12.6456 7.55967 12.6362 7.55469 12.6288L7.55762 12.6669ZM5.9834 11.9667C6.01407 11.8818 5.85562 11.9543 5.84473 11.9891C5.80893 12.1033 5.95244 12.0513 5.9834 11.9667ZM4.94727 10.9823C4.96561 10.9363 4.88254 10.9104 4.85937 10.9676C4.84082 11.0137 4.92405 11.0395 4.94727 10.9823ZM3.70117 9.81627C3.7233 9.74537 3.63939 9.73952 3.65723 9.81334C3.65795 9.81632 3.70016 9.81922 3.70117 9.81627ZM2.68652 9.32506C2.68541 9.32578 2.67798 9.32734 2.66894 9.33092C2.67491 9.31792 2.68152 9.31591 2.68359 9.31724C2.68596 9.31894 2.68529 9.32292 2.68652 9.32506ZM7.33496 8.88072C7.26375 8.85801 7.25795 8.94245 7.33203 8.92467C7.33491 8.92343 7.33752 8.88374 7.33496 8.88072ZM7.28906 6.19908C7.22864 6.20127 7.24577 6.2429 7.30176 6.22935C7.3051 6.22853 7.30796 6.19847 7.28906 6.19908ZM3.85742 5.69713C3.89695 5.6988 3.93726 5.70029 3.97852 5.69908C3.99784 5.69798 3.97592 5.63134 3.99805 5.62779L3.85742 5.69713ZM7.44727 4.35924C7.33087 4.3085 7.31828 4.50469 7.44043 4.46178C7.44663 4.45951 7.45254 4.36581 7.44727 4.35924ZM6.88867 3.3358C6.89168 3.33878 6.89321 3.34138 6.89453 3.34166C6.91364 3.33766 6.90896 3.31099 6.91309 3.29869C6.90824 3.30695 6.8981 3.32025 6.88867 3.3358ZM6.66309 3.21959C6.65686 3.23701 6.65379 3.26029 6.65723 3.28306C6.65888 3.2582 6.66028 3.23199 6.66309 3.21959ZM6.82715 3.15709C6.81956 3.14623 6.81292 3.19435 6.80957 3.23814C6.82079 3.20414 6.82894 3.17721 6.82715 3.15709Z" fill="#555961"/>
</svg>
