<svg xmlns="http://www.w3.org/2000/svg" width="174" height="1" fill="none" viewBox="0 0 174 1"><path fill="#ebdfc7" d="M70.666.019c.642 0 .421-.013 1.076-.017 1.205-.007.697.005.875.02C72.57.007 73.99.007 74.135.009c.084 0-.29.02.578.013l-.144-.018c.397.007 1.474-.004 1.657-.002.084 0 .532.046.942.009l.15.017 1.368-.022.217.031h.435L79.05.008c.893.003 1.985-.012 2.169.02l.574-.02.374.032c.885-.003.9-.01 1.506-.021l-.07.024A96 96 0 0 1 85.51.021c.306-.001.832.01.905.008.046 0 .348-.018.585-.021.14-.002.256 0 .285.015 1.059-.017 1.525 0 1.954 0 .28 0 .407-.01.722-.01.451-.001.906.003 1.166.003.149 0 .177-.01.28-.01.484-.001.2.008.712.008.048 0 .422-.01.843-.009.236 0 .846.014.9.014.238 0 .047-.025.863.004l-.072-.014c1.01-.01 1.17.01 1.373.012.026 0 .272-.008.42-.006.247.002.348.013.403.013.193.002.846-.002 1.273.01-.09-.032 1.405-.041 1.736-.006l.794-.018.36.017.217-.016 1.158.039.073-.037.324.005.253.03.405-.005.1-.022c.726-.006.353.06 1.735.004l.646.018c.243-.026.697-.009 1.064-.01.259-.002.245-.013.598-.013.353.001.341.011.368.011.287.002.504-.006.715-.004.032 0 .112.013.381.014s.431-.011.832-.008c.205.002.264.012.446.014.868.006 1.742-.04 2.393.02.148-.007 1.211-.03 1.666-.026.707.005.435.016.717.019.041 0 .257-.003.849 0 .106 0 .083-.006.098-.006.693.002 2.037.012 2.798.016.068 0 .424-.015 1.027.01.894-.013 2.576.03 3.755.01.163 0 .362.007.434.007.623 0 .395-.018 1.803.014-.113-.01.217-.015.682-.012.7.004.203.018.765.02V.107c1.294.02 1.552 0 2.85.007.467.003 1.157.016 1.269.017l.602-.007c.275.001.43.007.667.009.784.004 1.719-.003 1.55.02l.646-.012c.814.029 1.423 0 1.594.024l.437-.012q5.238.037 10.476.078c.139-.004 1.657.009 1.74.01.358.007-.02.016.711.019l.244-.013c.919.006.477.007.839.013.152 0 .104-.004.309-.002 1.114.007 3.397.026 4.614.036.245.002.209.005.284.006.21.002.625.001 1.045.005 2.602.023 6.288.06 8.907.087.178.001.2.003.32.005l.713.005.446.005c.807.008 1.893.018 2.756.029l.997.011c.12.002-.683-.002.637.01-1.18-.009-.811-.003.721.007L170.382.45l-.003.001c.7.006 1.394.01 2.458.015h-.1c-.939-.004-2.073-.008-2.789-.009q1.43.008 2.86.012L170.92.467c-1.339 0 .552.002.905.003l-5.056-.005c.011.003 6.333.01 6.358.009h-1.59l.709.002h-.195l-2.681.006c2.717-.006 3.979-.007 4.63-.01l-.221.002-4.843.015 1.876-.006c.077 0-.194.003-.014.002.406 0 1.957-.007 2.188-.007l-4.05.021c1.477-.006 3.001-.013 4.483-.022-.936.006-1.765.014-3.473.027-.519.006 3.091-.022 3.179-.023q-.939.007-1.877.017l1.588-.015h.005c-1.371.013-2.626.028-4.195.043.055.002.99-.008 1.445-.012-3.64.048-6.125.063-9.501.085-7.433.053-17.236.13-24.838.174-5.754.03-11.601.053-17.32.069-.294 0-.469-.007-.602-.007-1.252.003-3.352.017-4.595.02-2.613.005-7.159.018-9.552.013-1.017-.002-2.059-.002-2.454-.023-.371 0-.574.019-.671.02h-.004c-.312.004-1.1-.009-1.275-.008-.026 0 .134.015-.288.011-.037 0-.003-.01-.358-.01-.093 0-1.282.017-1.622.018C95.88.88 93.179.87 91.827.871c-.207 0-.326.007-.545.007-.113 0-.281-.006-.316-.006-.152 0-.816.03-.578-.028-.693.004-.49.023-.505.035-.753.002-1.117-.025-1.314.004L87 .88Q82.23.876 77.458.867l-.004.015c-1.091-.02-1.466.01-2.089-.017l-1.153.016C64.335.849 54.48.84 44.715.794 44.303.792 44.2.784 43.52.781c-.75-.003-1.805 0-2.794-.006-.868-.004-2.148-.018-3.116-.024-.217-.001-.374.002-.4.002-.144-.001-.152-.008-.292-.009-.168 0-.37.004-.565.002L34.749.737c-.441-.003-.539-.01-.575-.01-.491-.003-.308.004-.43.003-.635-.006-1.083-.022-1.952-.014l.07-.015c-.664-.006-.225.01-.361.011l-1.598-.01c-.382-.004-.395-.01-.427-.01-.081-.001-1.05 0-1.545-.008-.587-.01.103-.018-.042-.02-.026-.001-.64-.004-.722-.008-.09-.004.432-.001.433-.003-.006 0-.888-.014-.72-.018.139-.005 1.333.008 1.587.007.042 0-.037-.008 0-.008.149 0 2.907.012 3.033.014l-.432.007.574.004-.815.005c.404.03 1.619.007 1.67-.008C32.48.65 31.79.63 32.464.622l-.316-.006-.649.006.433.007-.16.006-1.214.004C30.35.636 30.394.632 30.25.63c-1.785-.02-.62 0-1.79-.007l-.5-.01c.057.011-.46.002-1.084.004l.225-.01c-.907-.001-2.745-.027-2.25-.005L24.23.594 23.703.6l-.727-.004-.004-.005.58.002-.436-.017-.427.001c.598.007-.191.012-.382.017-.505 0-.827-.01-.996-.01-.08-.001-1.016.008-.65-.005L19.215.578l-.566-.006c.41-.004-.776-.016.097-.015.652 0 .814.006 1.123.008.279 0 .426-.002.73-.001 2.041.006 3.705.013 5.644.022.383.002.732 0 .99.001.29.001-.074.007.296.007.389 0 .473-.006.576-.006.063 0 .266.006.453.007.765.002 1.885.001 1.996.002l2.392.013c.055.001-.059.022.418 0h.448l-.073.014c.882-.014.579-.006 1.429-.005 2.036.003 5.04.017 7.267.02.497.002.687-.004 1.275-.003.547 0 1.973.023 1.663-.004 1.216.026 1.412-.014 2.02.013l.221-.011c.661.017.866.004 1.587.004.31 0-.047.016.58-.002l.36.005-.083.012c.696-.002.741 0 .662-.015l1.01.01.125-.015c-.168-.01-7.803-.01-8.867-.009C41.74.611 39.234.618 38.226.612 37.822.61 37.643.6 37.056.597 36.47.594 35.732.6 35.419.6c-1.041-.002-5.974-.017-2.62-.019L32.51.568c-1.333.012-.851.004-1.957 0-.465-.002-1.568.004-1.512-.013.865-.002 1.784.006 2.536.008.076 0 .965-.008 1.423-.004.413.003.129.021 1.028.002.668.022 1.054.003 1.23.002.306-.003.34.007.644.01.332.001.56-.006.606-.006.455.001 2.821.005 2.935.01l-.286.005c.616.005.488-.008.65-.009l.362.001-.144.007c.727.001.171-.008 1.203-.006.656.001 1.332.012 1.397.011-.016-.001-.162-.006.08-.007.443 0 1.208 0 1.293.01.216-.001.198-.01.227-.01h2.678c1.075 0 2.27.003 3.435.003.12 0 .044.006.163.006.193 0 1.181-.01 1.33-.01.368-.001 1.338.004 1.49.001-.016-.001-.274-.01.076-.012.414-.002.19.01.213.01.843.005 1.376-.003 1.952-.004.186 0 .53.009.794.006.029 0-.03-.008 0-.009.397-.004.769.013.94.014.422.003.193-.01.215-.01.28 0 .657.005 1.084.005 1.901 0 3.454 0 5.475.002.254 0 .556.009.595.009.12 0 .086-.01.433-.01l2.134.002c.146 0 .208.01.319.01.372 0 1.637-.024 1.666.008.74-.028 1.232-.003 1.828-.003 1.411 0 3.622-.005 5.03-.001.295 0 .434.009.599.01.295 0 1.98-.003 2.073-.001.174.002.07.038.962.006.522-.002.462.014.57.015.842.006 1.662-.028 1.51.003.982-.008 1.618-.025 2.019.004 0-.014.46-.022 1.012-.017-.57.024-.499.04-1.877.034-.021 0 .02-.01-.002-.01-.196-.001-.607.004-.942.004-.335-.001-.15-.008-.284-.008-.123 0-.119.01-.296.01-.577 0-1.088.003-1.416.003-.207 0-.438-.008-.599-.008-.62 0-1.935.006-2.724.005-.165 0-.097-.01-.456-.011-.043 0-.196.01-.51.012-.315.001-.56-.004-.763-.003-.169 0-.098.01-.445.01l-3.743-.01C70.507.64 70.386.63 70.229.63c-.027 0-.073.012-.168.013-1.571.012-5.048-.007-6.842-.01-3.751-.003-7.212 0-10.996-.005l-.203.005 1.148.002.007.014c.513.002.45-.01.434-.016l.575.01c.166-.017 1.44-.003 2.098-.002.428 0 .938-.006 1.163-.005.477.002.465.012.502.012.064 0 .73-.007 1.21-.006.71.001.786.018 1.758.005 1.245.01 2.625.008 3.967.008-.256.017.947.001 1.49.002 3.308.005 7.374.017 10.727.026.43 0 .756.01.996.01.13 0 .187-.012.368-.01.032 0 .055.011.39.013.838.005 2.923-.013 3.45.01L87 .7l3.893-.005.215.014c.545-.024 2.694-.01 3.743-.012 1.845-.003 4.2-.012 5.816-.014.351 0 .639.006.972.006.143 0 .321-.01.469-.01 1.672-.001 3.936.005 5.621.003 3.824-.005 7.427-.01 11.302-.018 13.056-.027 26.037-.072 38.982-.121.173 0 .165.003.299.002l3.463-.017c.715-.002 1.849-.004 2.095-.008-2.538.005-5.22.015-7.862.022-.188 0-.211-.004-.235-.004-.427 0-.157.005-.777.007-.207.001-2.122-.005-1.894.007-.459-.004-3.692.003-4.316.007-.189 0-.055.004-.093.005-.163.001-.237-.005-.382-.004-.39 0-1.379.008-1.567.008-.432.002-1.729 0-2.301.003-.523.003-.425.01-.878.012-.356.002.032-.006-.764-.006-.395 0-1.776.008-2.112.009-.335 0-.709-.002-1.171-.001-.667.002-2.117.008-2.795.012-.041 0-.14.007-.24.008-.206 0-.144-.009-.3-.01l-3.32.008c-.316 0-.536.006-.711.006-.137 0-.152-.007-.292-.006-.045 0-.413.008-.781.008-.349.001-1.67-.003-1.824-.003-.1 0 .009.006-.285.006-.269 0-.446-.007-.599-.007-.356 0-.753.008-1.131.01-1.084.001-1.029-.008-1.094-.009-.18 0-.253.009-.312.01l-1.085.004c-.278.001-.396-.007-.69-.007-.22 0-.665.01-1.166.011l-3.586.008c-.331 0-.383-.008-.484-.008-.531 0-.829.01-.981.01-1.083 0-3.016-.012-4.021-.012-.409 0-2.201.009-3.212.009-.115 0-.008-.007-.136-.006-.307.003-.279.017-.435.017-.075 0-.247-.008-.467-.008-1.138-.003-1.921.004-2.44.004H92.403c-.519 0-1.162.01-1.946 0l-.072-.014-.083.014c-.888.002-1.224.008-2.13.003-.079 0-.317-.022-.464.005C87.092.634 87.131.64 87 .645c-.06.002-.155.004-.363.004-.667.002-1.315-.004-1.961-.005-.355-.01 1.132-.032 1.23-.032.155 0 .317.014.467.015.227.001.45-.001.627-.002.171 0 .3 0 .35.005.574-.013-.142-.006-.07-.018l1.153.014c.197-.038 2.317.012 2.17-.018l.506.018c.74-.037 1.176-.01 2.163 0L93.06.611c.02-.002.891-.009.58.011.893-.026.856.017 1.657-.015.475-.004.19.015 1.04.014.506 0 1.132-.01 1.696-.01.13 0 .187.01.302.01s.172-.011.313-.012c.289 0 .663.007.844.006.162 0 .394-.01.784-.011 1.363-.006.952.007 1.167.011.232.005.398-.012.859-.01.046 0-.073.01.077.01.121 0 .182-.012.584-.014l3.022-.005c.58 0 1.872.007 2.472.007.231 0 .478-.009.724-.01l3.15-.001c.93 0 2.562.017 3.071 0 1.306-.004 1.624.01 1.722.01.266 0 .389-.01.725-.01 4.345-.01 10.068-.012 14.183-.02C141.58.555 151.179.532 160.76.51l.077-.004-3.581.004c-1.492.002-3.706.014-4.801.002.443-.002 1.165.002 1.154-.005l-2.38.002.07.01c-.829.003-1.677.004-2.508.005-.144 0-.042.004-.167.004-.097 0-.082-.001-.072-.003-.355.001-.462.004-.506.004-.111 0-.026-.003-.347-.004-.595 0-1.021.01-.882-.006h-.577l-.148.014c-1.183-.016-1.729.017-2.382-.009l-.647.014-.364-.014q-.035.007-.071.012c-1.161-.001-2.397.007-3.508.008h-1.644c-1.524.003-.011-.008-1.278-.017l.199.017-.629.008-.439-.014c-.647.026-1.066.006-1.155.006-.071 0-.317.016-1.083.004.318.021-.585.001-.657 0l-1.304.007c-.281 0-.879-.004-1.297-.003-.367 0-.332.008-.358.009-.454 0-.171-.005-.498-.005-.329 0-.584.006-.655.006-.034 0 .084-.008-.079-.008-.438-.002-1.231.005-1.732.006-.178 0-.403-.006-.601-.006-.303 0-.446.009-.622.009-.063 0-.454-.014-.939-.011-.093 0-.365.03-.727-.01q-.041.007-.083.017c-1.633.016-2.087-.032-2.813.011-1.186-.003-.372-.02-.502-.023-.085-.002-.471.003-.513.003-.075 0-.062-.006-.145-.006-1.511.002-.84.013-1.319.02-1.138.016-2.025-.018-.046-.01V.546c-.487.003-1.725.003-1.311-.013.327-.012 3.259-.006 1.597-.022-.377-.004-.573.008-1.226-.014-.432 0-.495.028-1.08.017l.289.03c-.798.012-1.784-.004-2.397.002-.209.002-.958.05-.783.002-.35.003-2-.005-2.307 0-.073.001-.17.027-1.236.019l-.223-.01c.976-.01-.747-.019-.279-.044.16.011.931.017 1.057.022.212.01-.42.023.387.019.508-.042-.946-.022-.724-.062-1.059.019-1.166.002-1.405.001-1.025-.003-1.671.001-2.638-.004-.235.009 1.515.02 1.732.017-.797.03.575.03 1.156.013l.146.026c-.755-.004-1.492-.007-2.239.001l-.146-.01.503-.014c-.621-.008-.249.017-1.077-.005l-.077.03-2.383-.01c-.413.02-1.941.014-1.662-.012-.617-.002.145.011-.434.018a23 23 0 0 1-.864-.004c.056-.025.789-.028 1.011-.046-.135-.005-3.555.014-3.253-.016-.273-.004-.148.011-.64.015-1.382.011-3.52-.02-4.633.019 1.306.021 1.692-.001 2.693-.002.64 0 4.536-.005 3.666.022l.43-.01.434.024-1.224.004-.291-.024-.135.017-.516.003.146-.02L97.47.52l.214.027c-1.246.003-.825-.003-1.516-.02-.516-.002.355.015-.736.02-1.27.005-.437-.023-2.081-.017l-.07.014L92.195.53l.144.018c-.746-.002-1.775.009-2.023-.014.757.011.75-.029.553-.036C90.651.491 88.826.491 87 .493L83.303.5c-1.487.001-2.61-.011-3.968.008.92.016 4.156.002 4.77.014.06 0 .044.038.433-.003.747.004 1.58.001 2.462-.001.605-.002 1.233-.004 1.872-.003l-.144.032c-.826-.02-1.6.014-1.728-.002q-.034-.004-.007-.013h-.576v.022h-.87V.53h-.72l-.075.022c-.719-.015-3.17.024-2.092-.018h-1.013l.003.015-.435.002.143-.014c-.665.008-1.295-.016-1.732 0l.864.01c-.552-.006-1.57.008-1.662.008-.277 0-.424-.01-.725-.011-.27 0-.234.007-.284.007C76.355.543 76.912.5 76.23.55l-.22-.02-.29.017-1.297-.002.433.025c-.649.004-.951-.013-1.014-.013-.177-.001-.259.01-.314.01C70.885.565 72.49.555 71.17.515c-.47.015.006.032.073.048C70.616.556 70.42.56 69.76.559c-.172 0-.358-.009-.466-.01-.094 0-.388.01-.613.01-.376 0-.876-.006-1.391-.006-.428 0-1.738.005-2.652.005-.39 0-.3-.007-.4-.007-.043 0-.347.008-.597.008C61.6.558 59.509.55 57.459.549c-1.445 0-2.913.006-4.36.004-.308 0-.145-.007-.28-.007-.046 0-.102.01-.578.006-.172-.002.026-.008-.143-.009-.083 0-.118.008-.599.01-.874.003-1.344-.01-1.423-.009-.147 0-.105.008-.3.008h-2.602L43.884.55c-.337-.003-.024-.017-.455-.017l-.364.011.577.009c-.53-.005-1.13 0-1.52-.001-.073 0-.74-.007-1.08-.007l.434-.007-.154-.007c-.68.003-1.399.002-2.095.001-.252 0-.167-.005-.421-.006-1.482-.002-1.108.018-2.533-.02.481.004 2.237 0 2.493 0 .178.002.867.036.614.002 1.423 0 .187.019 1.517.016l-.08-.013c.463-.003.806-.005 1.088.003.098-.021 1.672-.008 2.535-.009 1.25-.001 2.662-.006 3.9-.007.425 0 .666.009.72.009.079 0 .299-.008.455-.008.582 0 2.356.015 2.797-.008L41.909.487c.436.01-3.072.01-3.25.01-.163-.001-.026-.007-.074-.008-.365-.003-.676.006-.792.006-.088 0-.267-.004-.58-.004-.057 0-.073.004-.135.004h-1.224c-.026 0-.13-.007-.233-.007s-.206.007-.232.007c-.328 0-.891-.005-1.203-.005-.109 0-.034.004-.156.004-.372 0-.25-.009-.71-.007-.155.001-.146.008-.442.007-.209 0-.187-.013-.22-.013-.046 0-.77.008-1.007 0 .517-.02-.564 0-.513.008l-.86-.007-.294.006c-1.157-.01-1.863-.003-3-.006-.053 0-.923-.005-.97-.007a57 57 0 0 1 1.514.003c.605-.017.615-.003 1.591-.005.327-.001.35-.006.388-.006 1.27-.003 3.307-.006 4.163.01.24-.004-.623-.006-.287-.01.185 0 4.586-.006 3.18.013L37 .478c.146-.018.87-.014.79.004l.206-.011c.136-.003.297-.005.523-.006.864-.004 6.002.002 6.276-.001l.018-.014c-2.27-.004-4.473.008-6.949-.004l.216.012-2.963-.015a368 368 0 0 1 3.807-.01c.194 0 .052.007.096.008.117.001.243-.009.664-.01.42-.002 1.476.005 1.575.005.187 0 .692-.013 1.01-.013.417 0 .137.008.221.008.347 0 .658-.004.93-.003.403 0 1.241.013 1.523-.007L44.08.419c1.563-.009 2.785.016 4.325-.005.35-.025-.922-.02.154-.032l-.586.002-.138.015-1.009-.01.288.013C45.921.407 44.716.413 44.3.39l-.074.017c-1.108-.005-2.77.02-2.46-.011L41.607.4c-.669-.005-.383.008-.634.01-.072 0-1.374-.006-.797-.015-1.27-.005-.879.022-1.228.024-.812-.013-2.275.009-1.66-.013l-.363-.002c-.398.017-.79-.001-1.22-.006h-.44l-.292.016c-1.374-.023-.94.043-1.567-.012l.293-.01.697-.006H31.59c-1.187-.011-1.863.006-3.182-.002l-.37.005c.126-.011.604-.012-.288-.014-.073-.007.528-.01.802-.005.064.002-.497.01.136.008.43-.001-.352-.009.938-.009l-.144-.006h.42l.373.012c.32-.007.5-.017 1.23-.018-.198.004.07.013.431.012V.36c.876-.005.574.007 1.301-.003l.218.007c.396-.012 1.855-.025 1.589-.006.41-.019 1.27-.014 1.589 0l.073-.011.51-.003.286.006.361-.008.219.012.581-.017.356.009a50 50 0 0 1 1.515-.008l.294-.009.143.013.219-.01.502.008c.684-.022.707-.005.863-.005.29 0 1.275-.016 1.44-.016s.244.008.377.008c2.19.008 1.29-.011 1.73-.015.237-.003.405.005.615.004.359-.003 2.164-.017 2.271-.016.152.001-.204.038.288.028.017-.02 1.07-.002.577-.028l1.302.004c-.049-.024.486-.01 1.069-.012.826-.003 2.685-.023 2.617.002l.594-.019c1.353.006 2.68-.005 4.024-.007C63.446.259 67.771.26 71.739.262c.19 0 .164.01.301.01.722 0 2.598-.009 3.608-.007.324 0 .482.01.584.01.349.002.267-.01.427-.01.253 0 1.592.01 2.054.011.228 0 .498-.01.766-.006.022 0-.019.01 0 .01.487.001.194-.007.359-.006 1.176.002 2.432.002 3.708.003.317 0 .801.009 1.073.01.104 0-.082-.008.276-.008.123 0 .165.01.303.011.597.003.798-.03 1.31-.004H87c1-.004 2.36-.01 3.128-.01.213 0 .318.006.521.006.145 0 .4-.008.625-.008.226 0 .582.008 1.015.007.457 0 1.025-.005 1.128-.005.124 0 .183.011.307.011.376 0 1.382-.01 1.867-.01.52-.002.833.003 1.01.003.165 0 .358-.008.433-.008.117 0 .145.01.293.01.243 0 .493-.007.858-.007 6.559.001 12.991.014 19.373.03.711.003 1.113-.003 2.162.002.425.002.246.01.577.01.147-.001.11-.008.297-.008.824 0 1.784.008 2.141.008.142 0 .304-.008.594-.007 2.165.003 4.726.01 7.056.014 1.233.002 3.102.003 4.517.006 3.912.009 8.12.023 11.688.034 5.387.016 10.748.034 16.123.059-2.515-.016-5.94-.031-8.739-.043-8.087-.037-16.698-.058-24.986-.078-2.883-.008-6.519-.015-9.676-.026-.143 0-.439.006-.749.004-.065 0-.881-.014-1.156-.014.261.022-.816 0-1.148 0-.42 0-1.294.01-2.276.003-.889-.008-.646-.016-.694-.017-.315-.004-.426.01-.667.01-.987.005-6.058-.01-7.475-.012-.365 0-.376-.01-.459-.01-.218-.001-.529.009-.878.008-.631 0-1.357-.01-1.705-.01-.83-.002-2.404.008-3.483.007-.303 0-.285-.01-.423-.01-.605 0-2.18.01-2.93.01-1.218 0-2.472-.008-3.711-.005L91.32.227l-.37.014c-1.31-.001-2.634 0-3.95.003l-2.362.003c-.24 0-1.429-.009-1.627-.009-.165 0-.327.012-.572.01-.342-.002-.02-.024-.579-.017-.15.001-.005.01-.307.013-.105.001-2.037.006-2.14.005-.174 0-.328-.02-.373-.02-.233-.002-.224.012-.38.013-.46.005-1.063-.005-1.138-.005-.905.004-2.597.017-3.547.011-.131 0-.116-.012-.14-.013-.148-.002-.24.01-.382.011-.762.002-1.955-.005-2.722-.007-.088 0-.275.007-.432.006-.89-.002-.602-.012-.653-.013-.12 0-.33.01-.65.011-.823.003-2.401.004-3.283.004-.66 0-.651-.011-.694-.012-.094 0-.351.01-.786.012-.836.003-.742-.007-1.086-.006-.028 0 .02.01-.36.011-.738.003-2.394-.003-3.184-.001-.303 0-.374.01-.685.01-.493 0-1.605-.006-1.693-.006-.025 0-.08.01-.225.01-.159 0-.315-.004-.434-.004-.675.001-1.839.02-1.515-.014l-.65.027c-1.414 0-2.788.007-4.19.011-.314.001-.578-.005-.844-.004-.267.001-1.438.014-1.635.015l-2.585.007c-.483 0-.952-.012-1.149-.009-.157.002-.012.01-.312.012-.52.004-1.405-.002-1.565-.001-.068 0 .059.005-.577.007-.343 0-.527-.004-.651-.003-.039 0 .018.008-.66.008-.466 0-.666-.005-.716-.004-.074 0-.253.007-.55.007-.692.002-1.959-.002-2.616 0-.128 0-.085.007-.592.008-.362 0-.3-.006-.435-.006-.215 0-.537.009-1.012.01-.6.001-5.045.01-5.275.009-.154 0-.333 0-.41-.003l.196-.009c.68.007.407-.003.587-.005.262-.002 1.249-.004 1.488-.008.084 0-.11-.007.346-.012.49-.006.708.006.904-.011.695.015 1.363-.007.558-.009-.45-.001-4.86.014-5.762.018-.73.003-2.098.015-2.996.018-.528.003-1.827.009-1.772.002-.469.002.027.006-.071.007-.206.003-1.67.007-1.946.009-1.365.009-3.087.024-4.413.026l.185-.005c.298-.004 1.68-.009 1.837-.016l-8.655.06L9.245.4c1.417-.005 1.29-.013 2.242-.015.387-.003.27-.005.461-.007 1.9-.02.031.006 1.486-.007-.438-.002.752-.012 1.286-.016.121-.002 1.717-.012 1.907-.013 1.064-.008 2.892-.025 3.95-.028.832-.005 1.29-.013 2.046-.02.574-.005.41 0 .68-.002.567-.003.754-.018 1.117-.002l1.152-.014v.01l.725-.006.213-.01c.766 0 .446.01.59.017h.496l.384-.024L30.197.25l.144.009.004-.01L34.1.227c.33-.008-1.672-.001-1.825 0-.843.003-3.08.022-3.09.01-.525.012-2.105.02-2.597.014l2.238-.014-.072-.01c.93.009 1.066.008 2.021-.014l.003.016c.667-.024 1.846.003 1.88-.022h1.064c.766-.008-.424-.02 2.576-.031.207 0 .164.006.474.004.09 0 .604-.014 1.585-.019.154 0 .166.005.325.005.367 0 1.098-.016.766.006 1.454-.002.853-.015 1.303-.024.3-.007.24.006.501.001.322-.005.086-.016 1.375-.017l-.434.005.218.009c.736-.013.667 0 1.014-.02.535.005.998.003 1.73-.002 1.42-.01.693-.029 2.315-.007l.789-.016c.431.007.083.02.727.02-.504-.02.856-.019 1.086-.04l.072.014.432-.002.002-.012.575.006.433-.013.712.022h.446l-.142-.018.575.004c-.223-.009-.082-.021.513-.023.491-.002-.062.02.995.007.073 0 .205-.016 1.204-.022 1.197-.008.616.006.829.006.042 0 .408-.01.75-.012.194-.001.381.004.408.004.12 0 .155-.01.321-.01.422-.003.99 0 1.404-.003.187 0 .364-.006.448-.006.13-.001.295.006.427.005.485-.001 1.223-.03 1.449.006.467-.036 1.443.003 1.374-.02 1.248.005 4.577-.033 4.48.008.706-.037.643-.012.939-.013.33-.001.16-.008.423-.008h1.813zm16.468.838c.172 0 .437.01.477.011.15.002.76.005.687-.005l-.794-.02zm6.073-.018c-.695.004-2.038-.01-2.022.015L93.116.85zm-9.18-.1c-.526.003-.572.01-.217.019-.262.01-.55-.006-.865-.002-.025 0 .023.01 0 .01-1.628.007-1.542-.02-1.802-.02-.184-.002-.914.016-.93.022-.013.008 1.512.041-.877.04 1.235.024 2.64.002 1.731-.032.391.004 2.115-.003 2.225-.002.16.001.104.013.305.013.119 0 .433-.028 1.37-.003l.36-.013.337.011-.693.041C85.779.81 86.466.831 87 .82q.107-.002.206-.006c.482.002.717.005.51.017h.434l.285-.02-1.17-.01.02-.026.626.007.22-.012-.778-.03L87 .743l-.585.006.43.015c-.762.005-.596-.016-1.228-.025l-.65.025zm4.699.074c.634-.007 1.074.007 1.383.01.246 0 .22-.007.24-.007h.003c.575.003.753.01 1.188.011 1.103.002 1.734-.023 2.532-.003-.512-.043-3.818.004-4.983-.033zm-4.9 0 .346.01.653-.012-.36-.012zm19.35-.015-.143-.014-.574.011-.289-.023-.291.027c.923.015.892-.001 1.084-.001q.144.002.194.008l.025.002c.232 0 1.037-.016 1.008-.02q-.504-.01-1.009-.017zM72.102.788q-.07.007-.137.018l.72-.02zm40.76-.007.483.006.38-.013-.516-.001zM50.916.775c-.14.003-.217.006-.192.01 2.075-.003.895-.021.192-.01m63.391.01.865-.011-.646-.004zM92.415.728c-.48.01.148.012.22.025.026.005-.425.012.141.03.235.002.124-.006.145-.007.154 0 .3.007.36.006 1.089-.014.372-.02.355-.022-.023-.008.264-.018-.134-.028l-.727.01zm-2.097.046 1.588-.006-1.588-.023zM45.81.72c.059.003-.005.015.045.016.295.01.807.01.82-.002zm-4.2.007 1.742.008c-.26-.025-.701-.004-1.187-.025l-.538-.002h-.002zm-1.35-.02c-.338-.001-.719.01-.062.017.628.005.864-.014.062-.017m8.078-.03c-.649.015-.4.031.29.047.163-.012.564-.025.17-.038-.073-.003-.369-.005-.46-.008m3.829.025c-.42-.008-.827.006-.577.013.48.013.652-.011.577-.013m-7.08-.014c-.062 0 .063.01.182.013.073.002 1.303.012 1.406.011l-.147-.017c-.58.019-1.155-.012-1.441-.007m1.3-.015.435.023c1.008-.004-.316-.014.142-.024zm-11.801.01c-.552-.005-.374.01-.337.011.241.006 1.206-.004.337-.011M32.08.682c1.103.002.815.01.867.01.92.013.23-.032-.867-.01M29.67.676h.002c-.567.014 1.673.029.931-.001l-.33-.005zm-.913-.027L27.6.643l.731.03.423.003.143-.034zM18.778.6l-.423.008c1.432.008.959.005 1.37 0l.728.013h1.584l-.36.005c.796.01.575.006 1.01.002l.002.008c.768-.002.919.006 1.086.008.345.002.784-.03 2.096.012.553-.013.541.02.866.005.936.025-.845.007-1.688.001h-.001c-.064 0 .037.004-.189.002-.023 0-.042-.005-.226-.007l-2.02-.015C21.47.635 17.968.619 17.557.606c-.086-.003.11-.009.076-.01-.102 0-.688-.001-.58-.005zm10.843.052c-.53-.002-.406.014-.274.016.231.004.777.004.542-.005-.045-.001-.585.002-.268-.01m-2.6-.005-.144.007-.507-.004.076-.008zM26.156.62c-1.47-.002-.264.005-1.156.006v-.01zm-3-.005h-.32l-.292-.008.647-.002zM34.393.588l.284-.001c.03 0-.005.007.22.009.54.003 1.23-.016-.506-.015q0 .004.002.007M15.61.544l.15.006.425-.003c.238.005.745.013.142.014q.333 0 .665.002l.345-.004-.18.008L15.75.561c-.089-.002.199-.004.132-.005-.06-.001-.95-.01-.71-.014zm87.711.022h-1.01l1.008-.01zm16.335-.011-.01.01c-.456.002-.81 0-.716-.011zM27.164.552l.655-.008.216.004-.287.002c2.352.014-.65.016-1.27.002h-.002c-.054-.001.06-.007-.03-.009zM13.73.536c.246 0 .065.002.223.003.41.002 1.339.004.917.01-.152.002-.502-.002-.563-.002s-.095.01-.726-.004h-.573L12.86.535c.737.005.817.001.87.001m11.252.01-.774.002-.363-.006h1.008q.065 0 .13.004M40.52.548 38.293.547l.003-.007h2.31zm-3.96-.03-.43.012h-.002l-.222-.01c-.627.01-1.895.009-1.444-.01.678.01 1.115.002 2.098.009M10.905.526l.22.004c-.823-.007-.568.007-1.284 0-.12-.002.229-.004-.53-.005l.082.003q-.258 0-.515-.003l.081-.002C8.145.519 6.877.512 7.597.512Q9.25.52 10.905.525m103.4-.046c-.684-.002-.461.027-.583.03-.038.002-.464 0-.542.002-.964.024 1.223.01 1.324.01.112 0 1.454.012 1.535.005.247-.02-.637-.011-.935-.02-.478-.012.225-.023-.943-.015zm33.016.01c-.591 0-.648-.006-.862-.006-.14 0-.116.006-.302.006-6.734.004-13.183.015-19.635.014-.407 0-2.383-.015-2.805.009-.319.018 1.101.003 1.338.003.177 0 .185.009.303.009.126 0 .022-.006.168-.006h1.854c5.488-.008 10.828-.01 16.287-.014.661 0 .525.004.559.004h.001c3.542-.004 7.589-.015 11.341-.016q3.965 0 7.929-.004l.23-.002c-5.098-.006-10.978-.002-16.406.002m-27.802.014c.199.036 2.844.01 4.036.016.218-.018-1.512-.01-1.921-.011-.204 0-1.296-.02-2.126-.009zM31.352.505l-.43.015-1.009-.011.578-.002-1.445-.009zM148.77.514c-.066 0-.371.005-.144.006l2.239-.01zM6.785.51H6.43c-.117 0-.053 0-.103-.001h-.002L3.612.492c.552.003 3.02.015 3.173.018M154.046.507l.229.003 3.816-.006c.106-.003-.571-.002-.797-.002-.978 0-2.232.004-3.248.005m7.225-.002v.004h.001l1.586-.006zM105.777.497c-.09-.026-3.947.002-3.609.009 1.31-.004 2.388.009 3.609-.009m5.927-.002h.002c.329.029.404 0 1.586.01l.289-.014zM55.779.493c1.267.013.723-.005 2.023-.004a83 83 0 0 0-2.023.004M2.385.486c.123.001.41 0 1.079.007L2.139.485zM1.879.483l.26.002-.65-.003c.284.003 1.767.01.39.001M91.042.334l.08.009 1.22-.007c.341.038-.764.027-1.272.032-.046 0-.31.014-.821.013-.198 0-.97-.021-1.118-.023-1.191-.01-.316.02-1.482-.005.186.015-.162.01-.649.007h-.474l-1.193.017c-.423.003.038-.014-.575-.01l-.22.014h-.43C83.243.34 83.041.37 82.733.374c-.124.002.036-.01-.287-.007-.121.001-.256.01-.582.011-1.022.002-1.37-.036-2.31.004l-.432-.018-.292.02c-.745-.02-.476.002-.745.002-.71 0-2.16-.004-2.29-.02-.613.037-1.346-.005-1.588-.004l-.43.014-.508-.014c.082.037-.79.002-.875.001-.097 0-1.442.011-1.943.011-.499 0-1.368-.01-1.447-.01-.088 0-.94.01-1.605.011-.582 0-4.03-.011-3.813.004.226.004.547.008.824.01.862.005 5.921.012 7.214.014 2.593.005 5.297.003 7.901.006.153 0 .177.01.308.01.2 0 .707-.009.903-.009l2.022.003c.879 0 1.482.006 2.147.007.209 0 1.261-.012 1.983-.007L87 .415l.28.006-.28.003c-.454.004-1.156.009-1.52.01-.673.001-1.024-.006-1.273-.006-.208 0-1.272.008-1.757.009-.15 0-.182-.01-.31-.01-.699 0-1.618 0-2.224.01a108 108 0 0 0-1.378-.01c-.139 0-.29.01-.573.01-.545 0-.476-.02-1.157 0l-.506-.016c-.036.025-2.144-.01-2.746.022.023.004 2.75.014 2.98.014 1.371.003 3.4-.004 4.73.001.4.001 1.657.018 1.754.018.154 0 .016-.01.082-.01 1.354-.007.679.011.859.016.122.004.602-.006.652-.006.093 0 .069.005.07.006.615 0 .048-.016.502-.02.078 0 1.148.007 1.584.007L87 .468h1.357c.423 0 1.207-.012 1.9-.013.287 0 .387.01.675.009 1.846-.002 5.481-.015 7.12-.009.405.002.792.015 1.006.014l.505-.014c.52.042.694.005 1.253.001.356-.002.522.01.57.01.316 0 .473-.007.721-.008.279-.001.679.005.78.004.061 0-.134-.017.949-.017 1.103 0 2.193.003 3.315.004-.374-.047-.697-.015-1.155-.013-.123 0-.045-.008-.152-.007-.303 0-.881.008-1.131.006-.27-.002-.178-.02-.521-.013-.016 0 .038.008-.043.009-.809.012-1.074-.002-2.098-.002-.678 0-4.793.007-4.94.002-.737-.027 3.604-.026 4.112-.024.177.001-.009.008.153.01.07 0 .686-.014 1.295-.016.737 0 2.22.01 2.923.01 6.042 0 12 .01 18.036.014.129 0 .298-.007.718-.007 7.826.006 15.938.017 23.864.023 1.728 0 3.442-.002 5.186.003l.65-.007c-.553.001-1.566-.007-1.66-.007-.034 0-.244.002-.582.002-.476-.001-.685-.004-.724-.004-.12 0-.042.003-.157.003l-2.32-.003c-.893-.001-1.346-.01-1.997-.002l-.221-.01c-.487.013-3.381.008-4.554.006-.37 0-.305-.008-.43-.008-.079 0-.048.009-1.015.006-.488-.001-.616-.008-.861-.008-.132 0-.111.006-.301.006-1.104-.001-2.004-.004-3.084-.007-.304 0-.308-.007-.375-.007-.251 0-.687.01-1.323.01-1.047-.002-3.133-.005-3.989-.01-.126-.001-.231-.008-.323-.008-.14 0-.195.007-.22.007-.468 0-.186-.007-.5-.005-.169 0-.345.009-.738.01-.519 0-.418-.01-.635-.01-.023 0-.031.008-.242.008h-2.746c-.22 0-.383-.005-.69-.006-.617 0-4.128 0-4.416-.003.023-.003.234-.012-.216-.012l-.432.014-.726-.024c-.01.028-1.411.031-1.398.002l-.467-.004c-.324.02-.539.012-1.165.024l-.293-.019-.073.013c-.334-.023-.883-.001-.949-.001-.256 0-.448-.005-.568-.005-.448 0-1.419.008-1.942.004-.025 0-.001-.01-.15-.012-.268-.002-.295.012-.653-.006l-.217.014-.23-.007-1.36.002c.413-.017-.062-.027-.51-.014-.152.005-.017.015-.068.017-.069.002-2.1-.004-2.237-.01l-.289.009-.146-.02-.16.006c-.529-.012-1.902.015-2.151.013-.133-.001-.014-.03-.651-.027l-.067.023-.437.004a8 8 0 0 1-.687-.024l-.257.016c-.231-.018-1.456-.013-1.949 0q-.216-.01-.433-.017l-.58.02c-.449.001.023-.01-.07-.01-.203-.003-1.231.016-1.168-.008h-.422l-.217.02c-.241-.024-.66-.015-1.516-.024l-.216.016-.795-.023-.164.027-.346.004c-.234-.02-.654.002-.868-.007-.312-.012-.071-.027.509-.03-.043-.015-1.77-.008-2.169-.007m-67.19.134c.2 0 .252.007.282.008.12 0 1.171-.007 1.3-.002.36.012-3.918-.001-4.335 0 .032-.007 1.035 0 .505-.01.509.006 1.916.002 2.248.004m-5.07.005L17.34.475l.22-.005zM.375.47 0 .473.534.469zm172.564 0h.158-.29zM121.392.45c-.26.016 1.796.008 2.181.01.174 0 .383.006.489.006.115 0 .273-.008.554-.008.083 0 .997.01 1.392.009l-.141-.01-1.448-.002.145-.006c-.729-.005-1.032.007-1.42.005-.042 0-.093-.007-.248-.008-.357 0-1.381-.003-1.504.004m-6.725-.022c-.567.008-.222.023-.36.035.825-.016 2.937.013 3.609-.006.043-.001-.355-.01.29-.024-.487.003-.832.005-.868.017l-.434-.011-.719.008c.025-.012.004-.01-.363-.003l-.504-.01-.214.016zm35.041.031h-.002c-.158 0-.871-.01-1.081.001.204.005 4.71.005 4.843.003.035 0-.014-.003 0-.004-1.053.006-2.55-.002-3.549-.004-.277 0-.196.004-.211.004m-16.04.002.865-.002c-.149-.006-.46 0-.574-.002.021-.001.151-.005-.072-.007zM46.096.458c.47-.013-1.154-.01-.865.001.042.002.824 0 .865 0m66.186-.027c.375.041-.858.004-.959.003-.484-.005-1.102.005-1.453.005-.302-.001-.482-.008-.694-.008-.724 0-1.866 0-2.025.018h1.72c.619 0 1.163.017 2.325-.006.287.003.186.015.22.016.134.003 3.963-.005 2.224-.03zM46.245.446c.003.004.473.003.541.004h.001c.028 0-.115.007.108.008l.791-.007c.03-.015-1.431-.01-1.44-.005m72.395.011h.002l.719-.008-.575-.008zM158.566.45c.31.003 1.776.004 2.271.006.064-.005-2.231-.01-2.455-.009.047.001.121.003.184.003M48.41.452h.866l-.146-.02zM33.812.442c-.819.01-1.225-.003-2.02.01h-.001l-.288-.01c.79-.001 1.45-.007 2.309 0M3.83.444l-.358.002 1.123-.01h.033l.38-.002.84-.007h.084zM156.308.441c-.499 0-1.846-.01-1.973.004.398.001 4.069.006 3.756 0-.159-.004-1.413-.003-1.783-.004M69.078.44l.408-.008-.554-.026zM10.98.435V.432c1.263-.001.64-.008 1.297-.003zM96.673.418l-.814.015c-2.654-.002-5.486-.008-8.05 0l-.38-.017zM16.76.409c-.269.015-2.86.013-4.043.02C13.34.42 14.303.42 14.98.419c1.31-.004.405-.006.627-.009.11-.001.853.006 1.153 0M6.285.425l-.353.002C7.266.417 8.618.407 7.946.409c-.613.003-1.565.015-1.66.016M23.264.419c-.357.002-.374-.004-.456-.004-.246 0-.459.003-.698.003.275-.014.86-.01 1.154.001m2.159-.006L24.857.41l-.434.006-.145-.01 1.235-.003zM19.797.405 17.92.413q.074-.002.146-.006.433 0 .865-.003l-.286-.006.425-.003zm7.346.006-.522.001-.32-.01q.578 0 1.154-.003zm4.79-.009c-.628-.004-1.196.01-1.298.01-.082-.002-.619-.018-1.229 0q-.686-.008-1.37-.013c.776.006 1.85-.005 2.23-.005.145 0 .173.005.288.005.663-.001 1.309-.016 1.38.003M55.877.397c.111.003.064.008.267.01l.062-.017h-.712c.014.004.284.004.384.007M11.411.396l-.63.004h-.21l.554-.007zm14.095-.02c.292.007.662.008.214.017-.554-.003-1.233.003-2.132.005h-.001c-.045 0-.125-.004-.27-.003-.128 0-2.551.01-2.362.004.94-.01 1.291 0 1.517-.016l.137.009c.904.003 1.162-.01 1.67-.016q-.005.004-.006.008l1.016-.002-.144-.005zM11.562.395h-.002C11.7.39 12.68.382 13.145.379c.019 0-.107.003.22.001.099 0 1.067-.016.856-.005zm5.49-.012-.842.005c-.06 0-.168-.006-.748.004L15.175.39a106 106 0 0 1 1.877-.008M159.68.386h.866l-.569-.005zM27.743.384c-.653 0-1.02.006-1.585 0L26.3.379c.194 0 1.772 0 1.443.005M156.36.366h-.002l1.445.01-.146-.013c-.734-.002-.366.006-1.297.003M14.953.372c-.449.003-.377-.004-.357-.006l.43-.002zM23.41.346l.867-.002c.36.009-1.545.018-1.724.017l-.298-.007.865-.004-.289-.006 1.012-.008zM151.445.335v.004c-.965-.005.236.01.865.008l.148.007.358-.004.505.007.58-.012c-.839-.008-1.733-.017-1.589-.001l-.577-.003c.162-.006.14-.008-.363-.015-.11.009-.631.001-1.226 0zm-125.95 0 .166.012L25 .352c-.155-.002.348-.019-.577-.018l2.02-.01zm73.638.003c.532.001 1.126.009 1.444-.006L99.492.324zM28.034.318l-.866.01.215-.01zM149.273.315c-.166-.004-.974.008-.718.012l.847-.002zM31.213.31l.144.014.434-.002.145-.013zM145.66.298c-.682.007-1.805-.005-1.588.013h.001c1.284-.006.49 0 1.877.005zM25.295.262l-5.35.04h-.003c-.028-.004.545-.008.869-.01L20.664.29c.69-.004 1.972-.012 2.025-.023.494-.006.276.007.435.007.063 0 .706-.011 1.22-.007l.368-.003.071-.013zm10.107.014c-.27.01-.608-.003-1.442.002v.016l.574-.012c.022.01.425.013.944.003zm84.388-.07c-1.109.013 1.045.039 1.307.037.034 0 .029-.01.246-.011.385-.002 2.542.014 3.209.01l.016.019.865-.018c.05.01.933-.003.725.022l.87-.024-.007-.007-.864.003-.004-.011c-.43.012-2.221 0-2.167-.013l-.288.017c-.857-.019-1.595-.004-2.529-.022l-.217.014-.141-.012zm-1.697.01.118.012c.512-.001.811-.007.721.007l.4-.003c-.108-.028-.251-.032-1.239-.015m-4.58-.033c-.951.016-.146.015-.146.03l.653-.012c.527.017.027.023.027.025h.001c-.001.004-.01.005.185.008l.485-.038c-.704-.005-.566.003-1.205-.013m1.662.028c.645-.013.904.004 1.054.005h-.001c.482.004.942.008 1.399.014L117.125.2h-1.932zM101.734.165c-.492.071 2.866 0 2.166.057h.002l.434-.002.07-.044c.408.036.935.003 1.735.03l.216-.015c.299.01 3.235.018 2.599-.005-.278-.01-.882.002-.935.002-.176-.002-.406-.014-.704-.014-.172 0-.534.014-.885.014-.786-.002-2.219-.044-3.251-.007l-.224-.014c-.766.002-.51.016-1.223-.002m-1.307-.003-.286.019c-1.847-.055-2.398.034.723.004h.001l.219.034c-.001-.029.528-.031-.22-.059zm10.991.016c-.051.024-.66.004-.938.005l-.218.007 1.442.021c.241-.01.349-.025-.285-.033zM88.511.18l-.219-.025c-.046 0-.944.018-.895.024A16 16 0 0 0 87 .169c-.398-.007-.944-.008-1.51-.009l-.23.014c.765-.01.244.004.472.013.132.004.535.015.682.022-.187-.01.124-.017.586-.02a196 196 0 0 1 1.722 0c.166.002.463.015.583.013l.217-.014c.087.016 1.422-.002 1.949-.01l.15.017.574-.006-.072.017.436-.02c.569-.008.218.023.646.013.474-.01-.301-.03-.29-.042a331 331 0 0 1-1.655.01c-.225 0 .03-.021-.94.004l-.638-.019zM82.227.15c.222.027-.803.026-.862.028l.354.027L83.02.178l.359.01c.464-.045-.481-.002-1.153-.038m28.033.047c-.02-.002-1.241-.016-1.01.003.119.01 1.056.002 1.01-.003M98.19.168c-.362-.001-.64.015-.502.02.255.01.974-.018.501-.02M96.816.16c-.84.008-1.368 0-1.154.027h.002l1.298-.002zM37.93.176l-.213.006c.649 0 1.643-.001 1.443-.016zM104.188.07c-.343.01-1.25.002-1.877.004.542.023 1.042.005 1.88.01q0-.007-.003-.014"/></svg>