<svg xmlns="http://www.w3.org/2000/svg" width="1344" height="1" fill="none" viewBox="0 0 1344 1"><path fill="#ebdfc7" d="M545.836.019c4.959 0 3.252-.013 8.31-.017 9.305-.007 5.385.005 6.758.02-.368-.015 10.602-.015 11.72-.013.666 0-2.253.02 4.466.013l-1.103-.018c3.061.007 11.376-.004 12.787-.002.649 0 4.114.046 7.286.009l1.148.017 10.566-.022 1.688.031h3.352L610.59.008c6.901.003 15.333-.012 16.755.02l4.434-.02 2.887.032c6.845-.003 6.958-.01 11.638-.021l-.549.024c3.452-.012 9.753-.022 14.735-.023 2.368-.001 6.435.01 6.993.008.356 0 2.688-.018 4.517-.021 1.078-.002 1.982 0 2.205.015 8.176-.017 11.776 0 15.094 0 2.154 0 3.138-.01 5.572-.01 3.485-.001 6.992.003 9.003.003 1.151 0 1.366-.01 2.159-.01 3.749-.001 1.553.008 5.506.008.365 0 3.255-.01 6.512-.009 1.821 0 6.53.014 6.946.014 1.843 0 .371-.025 6.671.004l-.549-.014c7.797-.01 9.028.01 10.603.012.202 0 2.1-.008 3.235-.006 1.918.002 2.692.013 3.117.013 1.498.002 6.538-.002 9.833.01-.692-.032 10.854-.041 13.412-.006l6.132-.018 2.774.017 1.687-.016 8.936.039.569-.037 2.502.005 1.953.03L799 .047l.774-.022c5.604-.006 2.725.06 13.402.004l4.983.018c1.876-.027 5.392-.009 8.229-.01 1.999-.002 1.89-.013 4.614-.013 2.725.001 2.629.011 2.841.011 2.221.002 3.896-.006 5.526-.004.246 0 .862.013 2.939.014s3.33-.011 6.423-.008c1.586.002 2.044.012 3.451.014 6.702.006 13.451-.04 18.477.02 1.133-.007 9.352-.03 12.869-.026 5.47.005 3.363.016 5.537.019.314 0 1.981-.003 6.568 0 .82 0 .631-.006.748-.006 5.35.002 15.739.012 21.615.016.525 0 3.274-.015 7.932.01 6.902-.013 19.905.03 29.009.01 1.261 0 2.793.007 3.352.007 4.814 0 3.05-.018 13.93.014-.88-.01 1.665-.015 5.26-.012 5.407.004 1.566.018 5.912.02V.107c9.996.02 11.985 0 22.019.007 3.6.003 8.93.016 9.79.017l4.66-.007c2.12.001 3.32.007 5.15.009 6.06.004 13.28-.003 11.97.02 1.67-.004 3.33-.009 5-.012 6.29.029 10.99 0 12.31.024l3.37-.012c26.97.025 53.95.05 80.92.078 1.07-.004 12.83.009 13.44.01 2.77.007-.16.016 5.49.019l1.88-.013c7.1.006 3.69.007 6.49.013 1.17 0 .79-.004 2.38-.002 8.6.007 26.24.026 35.64.036 1.9.002 1.61.005 2.2.006 1.62.002 4.82.001 8.07.005 20.09.023 48.56.06 68.79.087 1.38.001 1.55.003 2.47.005l5.51.005 3.45.005c6.23.008 14.62.018 21.28.029l7.71.011c.92.002-5.28-.002 4.92.01-9.12-.009-6.27-.003 5.57.007L1316.05.45l-.02.001c5.4.006 10.77.01 18.99.015h-.77c-7.26-.004-16.02-.008-21.55-.009 7.36.005 14.72.009 22.09.012l-14.58-.003c-10.35 0 4.26.002 6.99.003l-39.05-.005c.48.003 48.6.01 49.1.009h-12.27l5.47.002h-1.51l-20.71.006c20.99-.006 30.74-.007 35.77-.01l-1.71.002-37.41.015 14.49-.006c.6 0-1.5.003-.1.002 3.14 0 15.12-.007 16.9-.007l-31.29.021c11.42-.006 23.18-.013 34.63-.022-7.23.006-13.63.014-26.82.027l10.05-.006 12.27-.015h.03c-10.59.013-20.27.028-32.39.043.39.002 7.64-.008 11.16-.012-28.12.048-47.31.063-73.39.085-57.41.053-133.13.13-191.85.174-44.45.03-89.61.053-133.788.069-2.265 0-3.618-.007-4.645-.007-9.673.003-25.893.017-35.489.02-20.184.005-55.306.018-73.793.013-7.85-.002-15.902-.002-18.954-.023-2.868 0-4.434.02-5.183.02h-.026c-2.412.004-8.503-.009-9.848-.008-.201 0 1.036.015-2.226.011-.29 0-.023-.01-2.768-.01-.717 0-9.899.017-12.525.018C740.59.88 719.727.87 709.283.871c-1.597 0-2.517.007-4.204.007-.871 0-2.177-.006-2.445-.006-1.175 0-6.309.03-4.466-.028-5.356.004-3.783.023-3.901.035-5.818.002-8.623-.025-10.142.004L672 .88Q635.148.876 598.295.867l-.025.015c-8.433-.02-11.326.01-16.14-.017l-8.905.016C496.933.849 420.819.84 345.388.794c-3.184-.002-3.979-.01-9.229-.013-5.797-.003-13.95 0-21.59-.006-6.701-.004-16.588-.018-24.06-.024-1.686-.001-2.906.002-3.097.002-1.116-.001-1.173-.008-2.256-.009-1.295 0-2.862.004-4.358.002L268.401.737c-3.411-.003-4.165-.01-4.445-.01-3.795-.003-2.372.004-3.317.003-4.904-.006-8.37-.022-15.083-.014l.548-.015c-5.137-.006-1.744.01-2.794.011l-12.34-.01c-2.971-.004-3.051-.01-3.308-.01-.627-.001-8.098 0-11.93-.008-4.532-.01.802-.018-.323-.02-.19-.001-4.936-.004-5.573-.008-.694-.004 3.288-.001 3.338-.003-.045 0-6.859-.014-5.553-.018 1.05-.005 10.296.008 12.254.007.322 0-.286-.008 0-.008 1.156 0 22.45.012 23.425.014l-3.327.007 4.423.004-6.29.005c3.117.03 12.502.007 12.889-.008-.158-.007-5.414-.027-.23-.034l-2.436-.006-5.019.006 3.342.007-1.23.006-9.382.004c-1.608-.003-1.274-.007-2.379-.009-13.784-.02-4.793 0-13.817-.007l-3.865-.01c.451.011-3.545.002-8.378.004l1.733-.01C202.33.606 188.132.58 191.964.602l-4.815-.008-4.065.007-5.619-.004-.027-.005 4.482.002-3.363-.017-3.307.001c4.622.007-1.472.012-2.948.017-3.898 0-6.388-.01-7.696-.01-.614-.001-7.851.008-5.014-.005L148.42.578l-4.368-.006c3.16-.004-5.998-.016.749-.015 5.037 0 6.279.006 8.67.008 2.154 0 3.294-.002 5.639-.001 15.773.006 28.621.013 43.6.022 2.959.002 5.651 0 7.639.001 2.244.001-.568.007 2.292.007 3.002 0 3.652-.006 4.445-.006.494 0 2.057.006 3.496.007 5.915.002 14.582.001 15.422.002l18.477.013c.425.001-.455.022 3.231 0h3.45l-.558.014c6.813-.014 4.47-.006 11.038-.005 15.727.003 38.928.017 56.129.02 3.842.002 5.305-.004 9.849-.003 4.222 0 15.244.023 12.849-.004 9.393.026 10.904-.014 15.606.013l1.707-.011c5.105.017 6.68.004 12.253.004 2.402 0-.366.016 4.482-.002l2.778.005-.646.012c5.384-.002 5.731 0 5.117-.015l7.798.01.969-.015c-1.245-.01-60.266-.01-68.486-.009-9.64-.013-29.004-.006-36.791-.012-3.117-.002-4.493-.013-9.028-.015-4.534-.003-10.24.004-12.654.004-8.042-.002-46.145-.017-20.23-.019l-2.236-.014c-10.297.012-6.569.004-15.114 0-3.596-.002-12.149.004-11.675-.013 6.68-.002 13.777.006 19.585.008.576 0 7.453-.008 10.992-.004 3.193.003.996.021 7.943.002 5.159.022 8.142.003 9.505.002 2.355-.003 2.613.007 4.968.01 2.564.001 4.331-.006 4.681-.006 3.518.001 21.833.005 22.676.01l-2.209.005c4.757.005 3.763-.008 5.014-.009l2.794.001-1.108.007c5.619.001 1.32-.008 9.296-.006 5.064.002 10.295.012 10.787.011-.115-.001-1.261-.006.615-.007 3.418 0 9.327 0 9.988.01 1.673-.001 1.53-.01 1.753-.01h20.687c8.3 0 17.54.003 26.532.003.924 0 .335.006 1.261.006 1.488 0 9.124-.01 10.265-.01 2.847-.001 10.336.004 11.514.001-.144-.001-2.099-.01.585-.012 3.199-.002 1.477.01 1.651.01 6.511.005 10.623-.003 15.068-.004 1.441 0 4.099.009 6.132.006.233 0-.23-.008 0-.009 3.072-.004 5.946.013 7.275.014 3.252.003 1.481-.01 1.651-.01 2.166 0 5.083.005 8.378.005 14.689 0 26.676 0 42.292.002 1.96 0 4.289.009 4.589.009.926 0 .662-.01 3.342-.01l16.489.002c1.126 0 1.607.01 2.465.01 2.88 0 12.698-.024 12.869.008 5.718-.028 9.518-.003 14.12-.003 10.902 0 27.973-.005 38.841-.001 2.289 0 3.363.009 4.635.01 2.284 0 15.334-.003 16.017-.001 1.34.002.537.038 7.429.006 4.04-.002 3.563.014 4.399.015 6.512.006 12.847-.028 11.663.003 7.583-.008 12.497-.025 15.592.004.059-.014 3.585-.022 7.823-.017-4.401.024-3.856.04-14.499.034-.168 0 .152-.01-.016-.01-1.519-.001-4.69.004-7.28.004-2.59-.001-1.152-.008-2.188-.008-.95 0-.919.01-2.292.01-4.457 0-8.4.003-10.936.003-1.597 0-3.385-.008-4.625-.008-4.792 0-14.947.006-21.046.005-1.27 0-.737-.01-3.517-.011-.325 0-1.509.01-3.943.012-2.434.001-4.322-.004-5.885-.003-1.307 0-.761.01-3.441.01l-28.91-.01C544.609.64 543.669.63 542.463.63c-.212 0-.572.012-1.308.013-12.131.012-38.981-.007-52.843-.01-28.975-.003-55.707 0-84.939-.005l-1.563.005 8.864.002.056.014c3.989.002 3.468-.01 3.354-.016l4.435.01c1.276-.017 11.134-.003 16.216-.002 3.306 0 7.24-.006 8.983-.005 3.682.002 3.586.012 3.876.012.494 0 5.633-.007 9.341-.006 5.482.001 6.075.018 13.581.005 9.616.01 20.273.008 30.638.008-1.972.017 7.316.001 11.505.002 25.557.005 56.97.017 82.862.026 3.328 0 5.842.01 7.696.01 1.005 0 1.444-.012 2.841-.01.245 0 .417.011 3.014.013 6.468.005 22.577-.013 26.655.01L672 .7l30.064-.005 1.666.014c4.201-.024 20.808-.01 28.907-.012 14.252-.003 32.439-.012 44.927-.014 2.714 0 4.938.006 7.506.006 1.105 0 2.48-.01 3.63-.01 12.913-.001 30.396.005 43.409.003 29.546-.005 57.372-.01 87.308-.018C1020.26.638 1120.53.593 1220.51.544c1.34 0 1.28.003 2.31.002l26.76-.017c5.52-.002 14.27-.004 16.17-.008-19.6.005-40.31.015-60.72.022-1.45 0-1.63-.004-1.81-.004-3.3 0-1.22.005-6.01.007-1.6.001-16.39-.005-14.63.007-3.54-.004-28.51.003-33.33.007-1.46 0-.43.004-.72.005-1.26.001-1.83-.005-2.96-.004-3 0-10.65.008-12.1.008-3.34.002-13.36 0-17.77.003-4.04.003-3.28.01-6.78.012-2.76.002.25-.006-5.91-.006-3.05 0-13.71.008-16.31.009-2.59 0-5.47-.002-9.04-.001-5.15.002-16.35.008-21.59.012-.32 0-1.08.007-1.85.008-1.6 0-1.12-.009-2.32-.01l-25.65.008c-2.44 0-4.13.006-5.48.006-1.06 0-1.18-.007-2.26-.006-.33 0-3.19.008-6.03.008-2.7.001-12.915-.003-14.098-.003-.771 0 .074.006-2.204.006-2.077 0-3.441-.007-4.625-.007-2.747 0-5.818.008-8.732.01-8.377.001-7.946-.008-8.449-.009-1.393 0-1.952.009-2.409.01l-8.388.004c-2.144.001-3.053-.007-5.332-.007-1.698 0-5.128.01-9.003.011l-27.701.008c-2.558 0-2.95-.008-3.732-.008-4.11 0-6.411.01-7.583.01-8.367 0-23.291-.012-31.054-.012-3.162 0-17.002.009-24.81.009-.893 0-.056-.007-1.05-.006-2.378.003-2.158.017-3.364.017-.582 0-1.909-.008-3.604-.008-8.791-.003-14.837.004-18.847.004L713.738.64c-4.01 0-8.983.01-15.037 0l-.558-.014-.636.014c-6.858.002-9.45.008-16.452.003-.603 0-2.445-.022-3.584.005C672.709.634 673.009.64 672 .645c-.461.002-1.195.004-2.81.004-5.148.002-10.152-.004-15.144-.005-2.737-.01 8.746-.032 9.495-.032 1.206 0 2.458.014 3.619.015 1.75.001 3.47-.001 4.84-.002 1.322 0 2.318 0 2.697.005 4.444-.013-1.088-.006-.533-.018l8.9.014c1.515-.038 17.904.012 16.765-.018l3.912.018c5.718-.037 9.082-.01 16.709 0l-1.651-.015c.156-.002 6.887-.009 4.481.011 6.901-.026 6.611.017 12.797-.015 3.675-.004 1.465.015 8.044.014 3.898 0 8.737-.01 13.094-.01 1.004 0 1.44.01 2.333.01.892 0 1.329-.011 2.41-.012 2.234 0 5.13.007 6.526.006 1.251 0 3.04-.01 6.055-.011 10.531-.006 7.351.007 9.014.011 1.787.005 3.071-.012 6.634-.01.357 0-.567.01.594.01.937 0 1.409-.012 4.512-.014l23.343-.005c4.479 0 14.457.007 19.093.007 1.786 0 3.695-.01 5.593-.01l24.333-.001c7.182 0 19.789.017 23.722 0 10.085-.004 12.535.01 13.295.01 2.055 0 3.007-.01 5.599-.01 33.566-.01 77.767-.012 109.559-.02 73.74-.017 147.89-.04 221.89-.062l.6-.004-27.66.004c-11.53.002-28.63.014-37.09.002 3.43-.002 9 .002 8.92-.005l-18.39.002.55.01c-6.4.003-12.95.004-19.37.005-1.12 0-.33.004-1.3.004-.75 0-.63-.001-.55-.003-2.75.001-3.58.004-3.91.004-.86 0-.2-.003-2.68-.004-4.6 0-7.89.01-6.81-.006h-4.45l-1.16.014c-9.13-.016-13.35.017-18.39-.009l-5 .014-2.81-.014c-.18.005-.37.008-.55.012-8.97-.001-18.52.007-27.1.008h-12.7c-11.77.003-.08-.008-9.86-.017l1.53.017-4.86.008-3.39-.014c-5 .026-8.24.006-8.92.006-.55 0-2.44.016-8.36.004 2.45.021-4.52.001-5.08 0l-10.07.007c-2.17 0-6.8-.004-10.02-.003-2.852 0-2.56.009-2.77.009-3.509 0-1.311-.005-3.846-.005s-4.502.006-5.05.006c-.276 0 .644-.008-.615-.008-3.385-.002-9.507.005-13.382.006-1.374 0-3.105-.006-4.635-.006-2.345 0-3.441.009-4.804.009-.474 0-3.499-.014-7.259-.011-.716 0-2.818.03-5.61-.01q-.323.007-.645.017c-12.612.016-16.121-.032-21.729.011-9.157-.003-2.871-.02-3.876-.023-.65-.002-3.635.003-3.963.003-.58 0-.481-.006-1.117-.006-11.673.002-6.491.013-10.187.02-8.791.016-15.65-.018-.36-.01V.546c-3.765.003-13.321.003-10.131-.013C905.375.52 928.049.526 915.207.51c-2.915-.004-4.426.008-9.475-.014-3.338 0-3.819.028-8.34.017l2.229.03c-6.165.012-13.772-.004-18.508.002-1.609.002-7.406.05-6.054.002-2.706.003-15.448-.005-17.817 0-.569.001-1.311.027-9.552.019l-1.717-.01c7.537-.01-5.773-.019-2.159-.044 1.229.011 7.204.017 8.167.022 1.642.01-3.248.023 2.985.019 3.928-.042-7.304-.022-5.589-.062-8.183.019-9.001.002-10.854.001-7.918-.003-12.902.001-20.374-.004-1.82.009 11.706.02 13.381.017-6.166.03 4.447.03 8.926.013l1.128.026c-5.831-.004-11.518-.007-17.293.001l-1.128-.01 3.887-.014c-4.803-.008-1.923.017-8.321-.005l-.595.03-18.406-.01c-3.195.02-14.999.014-12.838-.012-4.765-.002 1.117.011-3.348.018-1.944.003-5.743.003-6.681-.004.404-.025 6.089-.028 7.809-.046-1.044-.005-27.479.014-25.122-.016-2.111-.004-1.141.011-4.947.015-10.668.011-27.192-.02-35.782.019 10.087.021 13.07-.001 20.8-.002 4.937 0 35.041-.005 28.317.022l3.317-.01 3.352.024-9.448.004-2.256-.024-1.041.017-3.978.003 1.117-.02-6.132-.003 1.652.027c-9.626.003-6.367-.003-11.706-.02-3.986-.002 2.748.015-5.685.02-9.807.005-3.373-.023-16.073-.017l-.549.014-8.377-.014 1.107.018c-5.764-.002-13.707.009-15.617-.014 5.842.011 5.785-.029 4.266-.036C700.202.491 686.102.491 672 .493L643.443.5c-11.482 0-20.161-.012-30.649.007 7.107.016 32.1.002 36.837.014.469 0 .337.038 3.353-.003 5.766.004 12.2.001 19.016-.001 4.671-.002 9.521-.004 14.458-.003l-1.112.032C678.965.526 672.989.56 672 .544c-.167-.003-.191-.007-.051-.013h-4.456v.022h-6.716V.53h-5.562l-.58.022c-5.553-.015-24.481.024-16.16-.018h-7.824l.026.015-3.364.002 1.108-.014c-5.137.008-10.008-.016-13.381 0l6.675.01c-4.268-.006-12.13.008-12.833.008-2.145 0-3.275-.01-5.599-.011-2.097 0-1.808.007-2.199.007C589.771.543 594.082.5 588.8.55l-1.687-.02-2.246.017-10.022-.002 3.343.025c-5.008.004-7.344-.013-7.83-.013-1.372-.001-2 .01-2.424.01-20.408-.002-8.014-.012-18.211-.052-3.637.015.042.032.558.048-4.835-.008-6.344-.004-11.448-.005-1.328 0-2.757-.009-3.595-.01-.726 0-2.995.01-4.737.01-2.904 0-6.77-.006-10.746-.006-3.307 0-13.428.005-20.487.005-3.012 0-2.314-.007-3.091-.007-.324 0-2.672.008-4.605.008-15.76-.001-31.913-.008-47.752-.01-11.159 0-22.498.006-33.679.004-2.379 0-1.12-.007-2.159-.007-.357 0-.786.01-4.465.006-1.329-.002.199-.008-1.108-.009-.636 0-.907.008-4.624.01-6.756.003-10.388-.01-10.992-.009-1.137 0-.805.008-2.313.008h-20.102L338.964.55c-2.602-.003-.181-.017-3.518-.017l-2.804.011 4.456.009c-4.089-.005-8.724 0-11.751-.001-.56 0-5.707-.007-8.332-.007l3.348-.007-1.184-.007c-5.25.003-10.802.002-16.186.001-1.941 0-1.285-.005-3.251-.006-11.447-.002-8.556.018-19.569-.02 3.719.004 17.285 0 19.257 0 1.374.002 6.702.036 4.747.002 10.991 0 1.445.019 11.71.016l-.616-.013c3.584-.003 6.231-.005 8.409.003.73-.021 12.906-.008 19.585-.009 9.651-.001 20.554-.006 30.116-.007 3.294 0 5.16.009 5.573.009.605 0 2.301-.008 3.507-.008 4.502 0 18.198.015 21.604-.008L323.706.487c3.365.01-23.722.01-25.102.01-1.271-.001-.202-.007-.58-.008-2.814-.003-5.217.006-6.111.006-.682 0-2.057-.004-4.48-.004-.445 0-.569.004-1.046.004h-9.454c-.194 0-.994-.007-1.795-.007-.803 0-1.596.007-1.799.007-2.536 0-6.883-.005-9.296-.005-.837 0-.257.004-1.194.004-2.882 0-1.933-.009-5.496-.007-1.195.001-1.118.008-3.405.007-1.62 0-1.445-.013-1.702-.013-.355 0-5.944.008-7.772 0 3.995-.02-4.37 0-3.968.008l-6.645-.007-2.266.006c-8.936-.01-14.388-.003-23.179-.006-.405 0-7.161-.005-7.485-.007 4.433-.005 8.857-.006 11.694.003 4.669-.017 4.749-.003 12.289-.005 2.524-.001 2.704-.006 2.994-.006 9.817-.003 25.542-.006 32.156.01 1.855-.004-4.811-.006-2.219-.01 1.413 0 35.43-.006 24.563.013l3.384-.002c1.129-.018 6.737-.014 6.101.004l1.594-.011c1.05-.003 2.293-.005 4.035-.006 6.674-.004 46.37.002 48.481-.001l.143-.014c-17.537-.004-34.55.008-53.673-.004l1.666.012-22.892-.015c8.076-.007 20.924-.016 29.402-.01 1.507 0 .403.007.749.008.905.001 1.878-.009 5.127-.01 3.252-.002 11.418.005 12.166.005 1.443 0 5.337-.013 7.793-.013 3.229 0 1.065.008 1.713.008 2.68 0 5.083-.004 7.183-.003 3.117 0 9.593.013 11.771-.007l-6.68-.002c12.075-.009 21.516.016 33.412-.005 2.703-.025-7.126-.02 1.184-.032l-4.527.002-1.061.015-7.798-.01 2.225.013c-9.215.005-18.521.011-21.738-.012l-.569.017c-8.556-.005-21.4.02-19-.011L321.383.4c-5.172-.005-2.963.008-4.906.01-.555 0-10.608-.006-6.153-.015-9.806-.005-6.783.022-9.484.024-6.278-.013-17.57.009-12.823-.013l-2.804-.002c-3.072.017-6.1-.001-9.429-.006H272.4l-2.266.016c-10.612-.023-7.252.043-12.1-.012l2.267-.01 5.373-.006h-21.672c-9.17-.011-14.387.006-24.573-.002l-2.862.005c.972-.011 4.672-.012-2.219-.014-.588-.007 4.067-.01 6.188-.005.51.001-3.84.01 1.051.008 3.325-.001-2.713-.009 7.25-.009l-1.108-.006h3.241l2.881.012c2.468-.007 3.854-.017 9.495-.018-1.53.004.546.013 3.338.012V.36c6.757-.005 4.425.007 10.044-.003l1.686.007c3.061-.012 14.329-.025 12.274-.006 3.161-.019 9.8-.014 12.269 0l.568-.011 3.944-.003 2.199.006 2.794-.008 1.686.012 4.492-.017 2.748.009c.094-.009 9.17-.013 11.705-.008l2.266-.009 1.108.013 1.686-.01 3.886.008c5.283-.022 5.454-.005 6.66-.005 2.236 0 9.853-.016 11.126-.016s1.886.008 2.912.008c16.922.008 9.966-.011 13.361-.015 1.831-.003 3.128.005 4.748.004C363.617.313 377.588.299 378.395.3c1.17.001-1.585.038 2.22.028.143-.02 8.26-.002 4.46-.028l10.054.004c-.378-.024 3.754-.01 8.255-.012 6.377-.003 20.731-.023 20.216.002l4.583-.019C438.637.28 448.891.27 459.268.267 490.064.259 523.475.26 554.126.262c1.473 0 1.262.01 2.323.01 5.575 0 20.063-.009 27.87-.007 2.501 0 3.719.01 4.512.01 2.691.002 2.056-.01 3.296-.01 1.956 0 12.3.01 15.863.011 1.764 0 3.851-.01 5.916-.006.178 0-.15.01 0 .01 3.765.001 1.501-.007 2.775-.006 9.08.002 18.787.002 28.638.003 2.446 0 6.19.009 8.29.01.801 0-.635-.008 2.133-.008.948 0 1.274.01 2.344.011 4.612.003 6.156-.03 10.12-.004H672c7.719-.004 18.226-.01 24.158-.01 1.652 0 2.456.006 4.03.006 1.117 0 3.083-.008 4.825-.008s4.493.008 7.843.007c3.529 0 7.916-.005 8.711-.005.961 0 1.409.011 2.37.011 2.904 0 10.68-.01 14.421-.01 4.021-.002 6.435.003 7.809.003 1.272 0 2.755-.008 3.337-.008.904 0 1.118.01 2.267.01 1.875 0 3.81-.007 6.624-.007 50.668.001 100.346.014 149.64.03 5.495.003 8.601-.003 16.698.002 3.283.002 1.9.01 4.455.01 1.14-.001.852-.008 2.292-.008 6.367 0 13.786.008 16.545.008 1.094 0 2.345-.008 4.588-.007 16.722.003 36.505.01 54.497.014 9.53.002 23.96.003 34.89.006 30.22.009 62.72.023 90.28.034 41.61.016 83.02.034 124.54.059-19.43-.016-45.88-.031-67.51-.043-62.46-.037-128.97-.058-192.984-.078-22.273-.008-50.357-.015-74.741-.026-1.106 0-3.398.006-5.788.004-.508 0-6.804-.014-8.926-.014 2.01.022-6.301 0-8.87 0-3.24 0-9.997.01-17.58.003-6.878-.008-4.985-.016-5.362-.017-2.434-.004-3.284.01-5.148.01-7.618.005-46.804-.01-57.74-.012-2.826 0-2.906-.01-3.543-.01-1.686-.001-4.087.009-6.788.008-4.87 0-10.479-.01-13.16-.01-6.412-.002-18.579.008-26.912.007-2.343 0-2.2-.01-3.261-.01-4.67 0-16.833.01-22.63.01-9.416 0-19.102-.008-28.675-.005l-1.82-.013-2.871.014C692.399.24 682.175.241 672 .244l-18.247.003c-1.855 0-11.033-.009-12.565-.009-1.274 0-2.528.012-4.416.01-2.644-.002-.155-.024-4.475-.017-1.162.001-.036.01-2.368.013-.771.001-15.731.006-16.535.005-1.34 0-2.535-.02-2.881-.02-1.798-.002-1.722.012-2.928.013-3.558.005-8.207-.005-8.787-.005-6.993.004-20.066.017-27.404.011-1.015 0-.894-.012-1.072-.013-1.15-.002-1.864.01-2.958.011-5.886.002-15.105-.005-21.025-.007-.682 0-2.122.007-3.338.006-6.881-.002-4.649-.012-5.04-.013-.927 0-2.558.01-5.024.011-6.356.003-18.544.004-25.358.004-5.104 0-5.028-.011-5.363-.012-.716 0-2.705.01-6.066.012-6.466.003-5.729-.007-8.387-.006-.223 0 .164.01-2.784.011-5.697.003-18.496-.003-24.594-.001-2.346 0-2.895.01-5.296.01-3.808 0-12.401-.006-13.079-.006-.19 0-.616.01-1.733.01-1.228 0-2.437-.004-3.353-.004-5.216.001-14.201.02-11.704-.014l-5.015.027c-10.925 0-21.537.007-32.361.011-2.435.001-4.467-.005-6.522-.004-2.054.001-11.118.014-12.633.015l-19.974.007c-3.731 0-7.35-.012-8.869-.009-1.218.002-.092.01-2.415.012-4.021.004-10.854-.002-12.084-.001-.525 0 .456.005-4.456.007-2.647 0-4.069-.004-5.03-.003-.298 0 .15.008-5.09.008-3.618 0-5.162-.005-5.542-.004-.571 0-1.947.007-4.236.007-5.351.002-15.133-.002-20.216 0-.982 0-.648.007-4.567.008-2.803 0-2.314-.006-3.363-.006-1.664 0-4.145.009-7.82.01-4.625.001-38.958.01-40.738.009-1.195 0-2.582 0-3.174-.003l1.523-.009c5.258.007 3.137-.003 4.532-.005 2.022-.002 9.641-.004 11.484-.008.657 0-.846-.007 2.682-.012 3.785-.006 5.47.006 6.977-.011 5.373.015 10.534-.007 4.313-.009-3.473-.001-37.543.014-44.502.018-5.641.003-16.207.015-23.144.018-4.076.003-14.114.009-13.694.002-3.618.002.21.006-.548.007-1.588.003-12.885.007-15.022.009-10.545.009-23.851.024-34.094.026l1.43-.005c2.301-.004 12.98-.009 14.186-.016l-66.844.06L71.414.4C82.358.394 81.377.386 88.727.384 91.718.38 90.816.379 92.29.377c14.675-.02.236.006 11.47-.007-3.382-.002 5.817-.012 9.94-.016.939-.002 13.26-.012 14.725-.013 8.221-.008 22.34-.025 30.506-.028 6.433-.005 9.975-.013 15.816-.02 4.434-.005 3.163 0 5.25-.002 4.379-.003 5.821-.018 8.624-.002l8.905-.014v.01l5.594-.006 1.646-.01c5.917 0 3.447.01 4.552.017h3.835q1.484-.013 2.969-.024L233.246.25l1.108.009.035-.01 28.998-.023c2.571-.008-12.917-.001-14.089 0-6.524.003-23.849.022-23.871.01-4.056.012-16.264.02-20.062.014l17.293-.014-.558-.01c7.182.009 8.233.008 15.617-.014l.02.016c5.149-.024 14.248.003 14.509-.022h8.224c5.919-.008-3.272-.02 19.903-.031 1.597 0 1.264.006 3.665.004.693 0 4.659-.014 12.243-.019 1.184 0 1.274.005 2.502.005 2.837 0 8.488-.016 5.922.006C315.941.17 311.284.157 314.77.148c2.322-.007 1.855.006 3.865.001 2.487-.005.662-.016 10.623-.017l-3.353.005 1.687.009c5.685-.013 5.148 0 7.829-.02 4.133.005 7.708.003 13.36-.002 10.98-.01 5.351-.029 17.883-.007l6.091-.016c3.337.007.638.02 5.619.02-3.898-.02 6.611-.019 8.388-.04l.559.014 3.337-.002.011-.012 4.445.006 3.343-.013 5.496.022h3.45l-1.091-.018 4.434.004c-1.72-.009-.639-.021 3.963-.023 3.798-.002-.48.02 7.686.007.569 0 1.578-.016 9.294-.022 9.256-.008 4.76.006 6.41.006.326 0 3.152-.01 5.797-.012 1.503-.001 2.95.004 3.149.004.927 0 1.197-.01 2.481-.01 3.261-.003 7.639 0 10.833-.003 1.453 0 2.818-.006 3.466-.006 1.006-.001 2.281.006 3.297.005 3.753-.001 9.45-.03 11.192.006 3.608-.036 11.166.003 10.613-.02 9.641.005 35.356-.033 34.601.008 5.461-.037 4.973-.012 7.26-.013C533.346.008 532.022 0 534.055 0h14.007zm127.2.838c1.329 0 3.372.01 3.686.011 1.154.002 5.869.005 5.301-.005l-6.131-.02zm46.911-.018c-5.375.004-15.767-.01-15.627.015L719.245.85zm-70.905-.1c-4.066.003-4.424.01-1.688.019-2.021.01-4.235-.006-6.669-.002-.201 0 .177.01 0 .01-12.589.007-11.92-.02-13.93-.02-1.419-.002-7.084.016-7.173.022-.109.008 11.672.041-6.777.04 9.538.024 20.382.002 13.371-.032 3.019.004 16.329-.003 17.179-.002 1.238.001.804.013 2.354.013.916 0 3.343-.028 10.593-.003l2.778-.013 2.605.011-5.363.041C662.568.81 667.876.831 672 .82q.827-.002 1.59-.006c3.727.002 5.538.005 3.937.017h3.358l2.2-.02-9.044-.01.153-.026 4.84.007 1.697-.012-6.008-.03L672 .743l-4.517.006 3.328.015c-5.898.005-4.614-.016-9.496-.025l-5.013.025zm36.288.074c4.902-.007 8.299.007 10.69.01 1.897 0 1.701-.007 1.845-.007h.021c4.445.003 5.821.01 9.182.011 8.523.002 13.394-.023 19.56-.003-3.955-.043-29.49.004-38.493-.033zm-37.852 0 2.676.01 5.05-.012-2.778-.012zM796.944.798l-1.102-.014-4.435.011-2.235-.023-2.246.027c7.137.015 6.892-.001 8.378-.001.753 0 1.23.005 1.497.008l.189.002c1.798 0 8.048-.016 7.788-.02q-3.899-.01-7.799-.017zM556.921.788q-.526.007-1.052.018l5.564-.02zM871.767.78q1.863.004 3.727.006l2.933-.013-3.984-.001zM393.283.775c-1.083.003-1.676.006-1.486.01 16.029-.003 6.915-.021 1.486-.01m489.64.01 6.681-.011L884.62.77zM713.826.728c-3.714.01 1.145.012 1.696.025.213.005-3.281.012 1.098.03 1.815.002.955-.006 1.112-.007 1.192 0 2.316.007 2.774.006 8.458-.014 2.833-.02 2.748-.022-.177-.008 2.043-.018-1.035-.028l-5.61.01zM697.63.774l12.264-.006L697.63.745zM353.842.72c.458.003-.042.015.348.016 2.287.01 6.283.011 6.342-.002zm-32.428.007 13.448.008c-1.999-.025-5.415-.004-9.167-.025l-4.158-.002h-.011zm-10.443-.02c-2.614-.001-5.551.01-.472.017 4.847.005 6.67-.014.472-.017m62.394-.03c-5.012.015-3.091.031 2.246.047 1.263-.012 4.355-.025 1.318-.038h-.011c-.562-.003-2.85-.005-3.553-.008m29.583.025c-3.249-.009-6.389.006-4.461.013 3.704.013 5.037-.011 4.461-.013M348.259.688c-.48 0 .489.01 1.404.013.57.002 10.066.012 10.859.011l-1.127-.017c-4.478.019-8.923-.012-11.136-.007m10.038-.015 3.363.023c7.786-.004-2.443-.014 1.098-.024zm-91.147.01c-4.276-.005-2.884.01-2.604.011 1.865.006 9.316-.004 2.604-.011M247.791.682c8.535.002 6.284.01 6.701.01 7.104.013 1.777-.032-6.701-.01M229.18.676h.01c-4.38.014 12.926.029 7.199-.001L233.83.67zm-7.06-.027-8.926-.006 5.645.03 3.271.003 1.108-.034zM145.047.6l-3.272.008c11.067.008 7.405.005 10.588 0l5.619.013h12.233l-2.774.005c6.143.01 4.437.006 7.798.002l.021.008c5.931-.002 7.087.006 8.383.008 2.658.002 6.046-.03 16.185.012 4.275-.013 4.178.02 6.691.005 7.236.025-6.525.007-13.038.001h-.01c-.491 0 .288.004-1.451.002-.179 0-.327-.005-1.753-.007L174.67.643c-8.835-.008-35.894-.024-39.062-.037-.659-.003.858-.009.589-.01-.787 0-5.312-.001-4.475-.005zm83.754.052c-4.098-.002-3.139.014-2.123.016 1.787.004 6.009.004 4.189-.005-.327-.001-4.533.002-2.066-.01M208.719.648l-1.118.007-3.913-.004.585-.008zM202.027.62c-11.348-.003-2.035.004-8.925.005v-.01zM178.849.616h-2.471l-2.256-.008 5.004-.002zm86.814-.028 2.19-.001c.245 0-.044.007 1.697.009 4.177.003 9.506-.016-3.907-.015zM120.586.544l1.148.006 3.282-.003c1.843.005 5.765.013 1.107.014l5.138.002 2.66-.004-1.395.008-10.869-.006c-.691-.002 1.538-.004 1.016-.005-.458-.001-7.338-.01-5.476-.014zm677.486.022h-7.793l7.783-.01zM924.251.555l-.076.01c-3.53.002-6.263 0-5.537-.011zM209.82.552l5.061-.008 1.666.004-2.22.002c18.168.014-5.013.016-9.807.002h-.016c-.42-.001.468-.007-.231-.009zM106.051.536c1.897 0 .493.002 1.718.003 3.16.002 10.342.004 7.085.01-1.172.002-3.889-.002-4.358-.002s-.724.01-5.603-.004h-4.425L99.324.534c5.707.005 6.313.001 6.727.001m86.907.01-5.978.002-2.804-.006h7.788q.497 0 .994.004M312.98.548 295.779.547 295.8.54h17.842zm-30.583-.03L279.07.53h-.015l-1.707-.01c-4.848.01-14.644.01-11.161-.01 5.238.01 8.615.002 16.21.009M84.237.526l1.696.004c-6.356-.007-4.392.007-9.92 0-.933-.002 1.772-.004-4.087-.005l.626.003-3.979-.003.625-.002C62.91.519 53.116.512 58.678.512q12.78.008 25.558.013M882.901.48c-5.281-.002-3.554.027-4.501.03-.29.002-3.593 0-4.189.002-7.443.024 9.451.01 10.228.01.838 0 11.262.012 11.865.005 1.906-.02-4.933-.011-7.225-.02-3.697-.012 1.74-.023-7.285-.015zm255.028.01c-4.57 0-5-.006-6.66-.006-1.08 0-.89.006-2.33.006-52.02.004-101.83.015-151.661.014-3.138 0-18.409-.015-21.672.009-2.466.018 8.503.003 10.331.003 1.374 0 1.433.009 2.349.009.971 0 .169-.006 1.297-.006h14.319C1026.29.51 1067.54.508 1109.7.504c5.11 0 4.06.004 4.32.004h.01c27.36-.004 58.62-.015 87.6-.016 20.42 0 40.83-.001 61.24-.004l1.78-.002c-39.38-.006-84.8-.002-126.72.002M923.18.502c1.544.036 21.976.01 31.176.016C956.043.5 942.67.509 939.515.508c-1.575 0-10.011-.02-16.422-.009zM242.161.505l-3.316.015-7.788-.011 4.46-.002-11.162-.009zm906.959.009c-.5 0-2.86.005-1.1.006l17.29-.01zM52.413.51h-2.748c-.905 0-.404 0-.795-.001h-.01C43.097.505 29.39.495 27.901.492 32.17.495 51.26.507 52.413.51M1189.87.507l1.78.003 29.47-.006c.82-.003-4.42-.002-6.16-.002-7.55 0-17.23.004-25.09.005m55.81-.002v.004h.01l12.25-.006zM817.042.497c-.614-.026-30.506.002-27.881.009 10.12-.004 18.442.009 27.881-.009m45.773-.002h.015c2.547.029 3.117 0 12.254.01l2.23-.014zM430.849.493c9.784.013 5.575-.005 15.617-.004.32-.009-14.344-.004-15.617.004M18.421.486c.95.001 3.164 0 8.332.007L16.488.485zM14.51.483l1.978.002-4.946-.003c2.285.003 13.545.01 2.968.001M703.218.334l.61.009 9.439-.007c2.636.038-5.908.027-9.829.032-.358 0-2.39.014-6.341.013-1.53 0-7.498-.021-8.639-.023-9.201-.01-2.436.02-11.438-.005 1.436.015-1.26.01-5.02.007h-3.66l-9.214.017c-3.272.003.29-.014-4.444-.01l-1.708.014h-3.307c-6.689-.041-8.245-.01-10.623-.007-.961.002.276-.01-2.215-.007-.938.001-1.978.01-4.501.011-7.896.002-10.577-.036-17.837.004l-3.343-.018-2.255.02c-5.752-.02-3.676.002-5.753.002-5.484 0-16.707-.004-17.693-.02-4.734.037-10.396-.005-12.263-.004l-3.329.014-3.911-.014c.63.037-6.116.002-6.767.001-.748 0-11.136.011-15.002.011-3.861 0-10.588-.01-11.182-.01-.681 0-7.253.01-12.391.011-4.496 0-31.131-.011-29.456.004 1.743.004 4.224.008 6.369.01 6.658.005 45.733.012 55.719.014 20.028.005 40.915.003 61.032.006 1.183 0 1.363.01 2.379.01 1.541 0 5.453-.009 6.972-.009l15.616.003c6.791 0 11.449.006 16.586.007 1.609 0 9.741-.012 15.315-.007l.866.002 2.164.006L672 .424c-3.509.004-8.925.009-11.735.01-5.204.001-7.918-.006-9.839-.006-1.608 0-9.829.008-13.572.009-1.161 0-1.399-.01-2.393-.01-5.395 0-12.501 0-17.181.01 1.909-.003-10.015-.01-10.643-.01-1.073 0-2.236.01-4.425.01-4.209 0-3.676-.02-8.937 0l-3.906-.016c-.08.026-16.536-.01-21.216.022.09.004 21.27.014 23.026.014 10.588.003 26.259-.004 36.535.001 3.093.001 12.814.018 13.55.018 1.183 0 .114-.01.626-.01 10.462-.007 5.243.011 6.633.016.939.004 4.649-.006 5.04-.006.72 0 .532.005.539.006 4.754 0 .368-.016 3.886-.02.604 0 8.866.007 12.228.007L672 .468h10.484c3.262 0 9.318-.012 14.679-.013 2.21 0 2.982.01 5.204.009 14.265-.002 42.346-.015 55.002-.009 3.127.002 6.108.015 7.762.014l3.912-.014c4.01.042 5.352.005 9.675.001 2.745-.002 4.029.01 4.398.01 2.446 0 3.653-.007 5.573-.008 2.156-.001 5.254.005 6.025.004.472 0-1.037-.017 7.326-.017 8.524 0 16.94.003 25.609.004-2.891-.047-5.381-.015-8.92-.013-.95 0-.348-.008-1.174-.007-2.335 0-6.804.008-8.737.006-2.086-.002-1.374-.02-4.019-.013-.134 0 .288.008-.334.009-6.255.012-8.303-.002-16.211-.002-5.24 0-37.063.007-38.155.002-5.696-.027 27.836-.026 31.756-.024 1.373.001-.066.008 1.185.01.533 0 5.298-.014 10.008-.016 5.697 0 17.144.01 22.573.01 46.669 0 92.691.01 139.316.014.993 0 2.303-.007 5.542-.007 60.451.006 123.111.017 184.331.023 13.35 0 26.59-.002 40.06.003l5.01-.007c-4.27.001-12.1-.007-12.82-.007-.26 0-1.88.002-4.49.002-3.67-.001-5.29-.004-5.59-.004-.93 0-.32.003-1.21.003l-17.92-.003c-6.9-.001-10.4-.01-15.43-.002l-1.71-.01c-3.75.013-26.11.008-35.17.006-2.86 0-2.36-.008-3.32-.008-.61 0-.37.009-7.85.006-3.76-.001-4.75-.008-6.64-.008-1.02 0-.86.006-2.33.006-8.52-.001-15.48-.004-23.83-.007-2.34 0-2.37-.007-2.89-.007-1.94 0-5.3.01-10.21.01-8.09-.002-24.21-.005-30.82-.01-.97-.001-1.78-.008-2.49-.008-1.08 0-1.51.007-1.7.007-3.616 0-1.44-.007-3.863-.005-1.307 0-2.669.009-5.706.01-4.01 0-3.221-.01-4.897-.01-.177 0-.23.008-1.876.008h-21.21c-1.697 0-2.96-.005-5.327-.006-4.769 0-31.879 0-34.104-.003.185-.003 1.79-.012-1.666-.012l-3.349.014-5.599-.024c-.085.028-10.91.031-10.801.002l-3.605-.004c-2.502.02-4.168.012-9.003.024l-2.261-.019-.569.013c-2.58-.023-6.81-.001-7.326-.001-1.976 0-3.462-.005-4.389-.005-3.462 0-10.958.008-15.002.004-.19 0-.003-.01-1.153-.012-2.075-.002-2.278.012-5.045-.006l-1.677.014-1.779-.007-10.5.002c3.183-.017-.48-.027-3.942-.014-1.172.005-.134.015-.523.017-.536.002-16.242-.004-17.283-.01l-2.231.009-1.128-.02-1.23.006c-4.087-.012-14.696.015-16.621.013-1.028-.001-.104-.03-5.03-.027l-.513.023-3.384.004c-2.116 0-5.196-.015-5.296-.024l-1.984.016c-1.777-.019-11.248-.013-15.058 0q-1.671-.01-3.342-.017-2.247.009-4.492.02c-3.467.001.194-.01-.543-.01-1.563-.003-9.531.017-9.008-.008h-3.261l-1.676.02c-1.866-.024-5.095-.015-11.716-.024l-1.666.016-6.141-.023-1.262.027-2.671.004c-1.809-.02-5.057.002-6.711-.007-2.413-.012-.547-.027 3.932-.03-.342-.015-13.679-.008-16.755-.007M11.542.482h-.114.01c-2.276-.003-1.557 0 .104 0m172.69-.014c1.552 0 1.945.007 2.179.008.922 0 9.062-.007 10.044-.002 2.783.012-30.281-.001-33.489 0 .175-.007 8.023 0 3.906-.01 3.932.006 14.802.002 17.36.004m-39.165.005-11.126.002 1.698-.005q4.714 0 9.428.003M2.902.47 0 .473 4.114.469zm1332.908 0h1.22-2.24zM937.648.45c-2.021.016 13.885.008 16.852.01 1.34 0 2.953.006 3.769.006.893 0 2.11-.008 4.286-.008.636 0 7.696.01 10.746.009l-1.082-.01-11.192-.002 1.128-.006c-5.635-.005-7.973.007-10.973.005-.324 0-.715-.007-1.916-.008-2.758 0-10.66-.003-11.618.004M885.707.428c-4.383.008-1.714.023-2.784.035 6.378-.016 22.697.013 27.881-.006.331-.001-2.744-.01 2.235-.024-3.762.003-6.419.005-6.701.017l-3.354-.01-5.562.008c.201-.012.054-.01-2.794-.003l-3.897-.01-1.651.016zm270.653.031h-.01c-1.22 0-6.73-.01-8.35.001 1.53.005 36.38.005 37.4.003.28 0-.11-.003 0-.004-8.13.006-19.69-.002-27.41-.004-2.14 0-1.51.004-1.63.004m-123.89.002 6.68-.002c-1.15-.006-3.55 0-4.43-.002.15-.001 1.16-.005-.56-.007zM356.052.458c3.629-.013-8.92-.01-6.676.001.325.002 6.385 0 6.676 0M867.286.431c2.892.041-6.627.004-7.409.003-3.741-.005-8.509.005-11.223.005-2.334-.001-3.72-.008-5.362-.008-5.592 0-14.426 0-15.643.018h13.285c4.78 0 8.984.017 17.964-.006 2.22.003 1.429.015 1.697.016 1.037.003 30.61-.005 17.171-.03zM357.205.446c.024.004 3.657.003 4.179.004h.01c.218 0-.892.007.835.008l6.112-.007c.223-.015-11.064-.01-11.136-.005m559.187.011h.01l5.563-.008-4.445-.008zM1224.79.45c2.39.003 13.72.004 17.54.006.49-.005-17.23-.01-18.97-.009.37.001.94.003 1.43.003M373.924.452h6.691l-1.128-.02zM261.162.442c-6.322.01-9.453-.003-15.597.01h-.009l-2.22-.01c6.098-.001 11.192-.007 17.826 0M29.588.444l-2.769.002 8.67-.01h.256l2.938-.002 6.49-.007h.651zM1207.34.441c-3.85 0-14.26-.01-15.24.004 3.07.001 31.43.006 29.02 0-1.22-.004-10.92-.003-13.78-.004M533.562.44l3.159-.008-4.286-.026zM84.825.435V.432C94.577.43 89.768.424 94.84.429zm661.89-.017-6.28.015c-20.509-.002-42.38-.008-62.185 0l-2.938-.017zM129.466.409c-2.055.015-22.085.013-31.234.02 4.804-.009 12.245-.008 17.484-.01 10.126-.004 3.126-.006 4.845-.009.849-.001 6.593.006 8.905 0m-80.92.016-2.722.002C56.128.417 66.57.407 61.38.409c-4.734.003-12.09.015-12.833.016M179.695.419c-2.756.002-2.891-.004-3.527-.004-1.898 0-3.54.003-5.383.003 2.123-.014 6.643-.01 8.91.001m16.679-.006L192.005.41l-3.359.006-1.118-.01 9.536-.003zM152.911.405l-14.499.008 1.139-.006q3.335 0 6.67-.003l-2.2-.006 3.282-.003zm56.745.006-4.034.001-2.467-.01L212.066.4zm37.007-.009c-4.858-.004-9.239.01-10.033.01-.622-.002-4.771-.018-9.49 0q-5.297-.008-10.593-.013c5.998.006 14.299-.005 17.237-.005 1.116 0 1.329.005 2.22.005 5.138-.001 10.134-.016 10.659.003M431.598.397h-.011c.86.003.492.008 2.056.01l.482-.017h-5.496c.103.004 2.197.004 2.969.007M88.143.396 83.277.4h-1.62l4.276-.007zm108.866-.02c2.256.007 5.116.008 1.655.017-4.278-.003-9.52.003-16.468.005h-.009c-.347 0-.961-.004-2.077-.003-.95 0-19.715.01-18.252.004 7.261-.01 9.973 0 11.715-.016l1.062.009c6.981.003 8.973-.01 12.893-.016l-.046.008 7.855-.002-1.108-.005zM89.307.395h-.011C90.379.39 97.944.382 101.529.379c.155 0-.827.003 1.707.001.762 0 8.252-.016 6.604-.005zm42.405-.012-6.507.005c-.469 0-1.291-.006-5.772.004l-2.22-.001c1.734-.004 16.543-.017 14.499-.008M1233.39.386h6.69l-4.4-.005zM214.291.384c-5.049 0-7.876.006-12.243 0l1.098-.005c1.497 0 13.69 0 11.145.005M1207.75.366h-.01l11.15.01-1.13-.013c-5.67-.002-2.82.006-10.01.003M115.5.372c-3.484.003-2.903-.004-2.758-.006q1.664 0 3.327-.002zm65.322-.026 6.697-.002c2.799.009-11.947.018-13.321.017l-2.297-.007 6.681-.004-2.235-.006 7.818-.008zM1169.79.335v.004c-7.46-.005 1.81.01 6.67.008l1.14.007 2.78-.004 3.9.007 4.48-.012c-6.49-.008-13.4-.017-12.28-.001l-4.46-.003c1.25-.006 1.08-.008-2.8-.015-.85.009-4.87.001-9.47 0zm-972.858 0 1.276.012-5.106.005c-1.196-.002 2.69-.019-4.456-.018l15.602-.01zm568.784.003c4.109.001 8.699.009 11.156-.006l-8.378-.008zM216.537.318l-6.69.01 1.661-.01zM1153.01.315c-1.28-.004-7.53.008-5.55.012l6.55-.002zM241.09.31l1.118.014 3.348-.002 1.128-.013zM1125.1.298c-5.27.007-13.94-.005-12.26.013h.01c9.92-.006 3.78 0 14.5.005zM195.378.262l-41.318.04h-.021c-.241-.004 4.2-.008 6.701-.01L159.612.29c5.34-.004 15.279-.012 15.648-.023 3.809-.006 2.125.007 3.353.007.483 0 5.453-.011 9.428-.007l2.836-.003.548-.013zm78.073.014c-2.089.01-4.695-.003-11.14.002v.016l4.439-.012c.17.01 3.272.013 7.28.003zm651.82-.07c-8.565.013 8.076.039 10.095.037.268 0 .227-.01 1.903-.011 2.975-.002 19.633.014 24.784.01l.133.019 6.669-.018c.358.011 7.222-.003 5.61.022l6.722-.024-.052-.007-6.681.003-.025-.011c-3.318.012-17.166 0-16.744-.013l-2.221.017C948.84.21 943.142.226 935.926.208l-1.677.014-1.092-.012zm-13.104.01.907.012c3.959-.001 6.269-.007 5.573.007q1.547 0 3.092-.003c-.838-.028-1.932-.032-9.572-.015M876.791.184c-7.35.016-1.128.015-1.128.03l5.04-.012c4.073.017.21.023.21.025h.011c-.003.004-.117.005 1.43.008l3.743-.038c-5.44-.005-4.37.003-9.306-.013m12.833.028c4.982-.013 6.985.004 8.147.005h-.016c3.73.004 7.284.008 10.813.014L904.692.2h-14.92zM785.809.165c-3.804.071 22.134 0 16.734.057h.01l3.353-.002.543-.044c3.15.036 7.22.003 13.397.03l1.676-.015c2.309.01 24.984.018 20.073-.005-2.144-.01-6.815.002-7.219.002-1.363-.002-3.14-.014-5.439-.014-1.33 0-4.132.014-6.845.014-6.066-.002-17.137-.044-25.113-.007l-1.722-.014c-5.918.002-3.943.016-9.448-.002M775.713.162l-2.215.019c-14.264-.055-18.516.034 5.589.004h.01l1.687.034c-.021-.029 4.094-.031-1.697-.059zm84.892.016c-.393.024-5.095.004-7.239.005L851.68.19l11.135.021c1.866-.01 2.704-.025-2.2-.033zM683.669.18l-1.687-.025c-.321-.001-7.291.018-6.921.024-.802-.005-1.842-.008-3.061-.011-3.078-.007-7.294-.008-11.669-.009l-1.764.014c5.907-.01 1.88.004 3.641.013 1.017.004 4.125.015 5.265.022-1.445-.01.963-.017 4.527-.02a9113 9113 0 0 1 13.3 0c1.285.002 3.574.015 4.501.013l1.686-.014c.666.016 10.984-.002 15.048-.01l1.149.017 4.445-.006-.559.017 3.364-.02c4.4-.008 1.686.023 4.993.013 3.675-.01-2.347-.03-2.236-.042-2.983.003-9.765.01-12.792.01-1.737 0 .232-.021-7.259.004l-4.927-.019zM635.132.15c1.715.027-6.199.026-6.654.028l2.732.027 10.054-.028 2.774.01c3.582-.045-3.713-.002-8.906-.038m216.527.047c-.156-.002-9.585-.016-7.799.003.917.01 8.188.002 7.799-.003m-93.228-.03c-2.793-.001-4.937.015-3.876.02 1.978.01 7.527-.018 3.876-.02M747.828.16c-6.488.008-10.575 0-8.911.027h.011l10.028-.002zM292.965.176l-1.641.006c5.016 0 12.698-.001 11.146-.016zM804.763.07c-2.649.01-9.653.002-14.499.004 4.188.023 8.046.005 14.524.01z"/></svg>