<svg width="16" height="16" viewBox="0 0 16 16" fill="none" xmlns="http://www.w3.org/2000/svg">
<g clip-path="url(#clip0_513_34454)">
<path d="M13.1338 4.79421C13.1463 4.80024 13.2919 4.93791 13.3018 4.97194C13.3109 5.0059 13.2464 4.97971 13.2627 5.03054C13.2691 5.04585 13.3798 5.20148 13.3858 5.21413C13.4257 5.30372 13.2052 5.09139 13.1895 5.07839C13.0447 4.96359 13.164 5.13924 13.167 5.15749C13.1795 5.23884 13.1194 5.23778 13.1241 5.30007C13.1277 5.34109 13.2682 5.486 13.2491 5.49636C13.1853 5.53082 12.9676 5.34783 13.0948 5.56765C13.1219 5.61464 13.289 5.76195 13.1299 5.67409C13.1196 5.66838 12.9812 5.58174 13.0372 5.66823C13.0442 5.67916 13.0896 5.72534 13.0909 5.73171C13.0986 5.77334 13.0509 5.74855 13.0498 5.78444C13.0489 5.82029 13.053 5.86863 13.0166 5.87429C12.9947 5.87771 12.8934 5.80816 12.8663 5.79323C12.789 5.75028 12.8687 5.86712 12.7852 5.80495C12.7015 5.74251 12.6114 5.61152 12.5362 5.59206C12.6539 5.71188 12.7739 5.83617 12.8916 5.95729C12.8259 6.01467 12.7266 6.03695 12.67 6.10378C12.6631 6.11216 12.7331 6.16769 12.7286 6.17897C12.704 6.22381 12.6283 6.2089 12.6104 6.26296C12.5968 6.30506 12.6341 6.40327 12.6221 6.44948C12.4687 6.33158 12.4712 6.42041 12.4278 6.43972C12.4125 6.44642 12.3762 6.40957 12.3565 6.40554C12.2836 6.39143 12.4179 6.4977 12.4288 6.52468C12.4739 6.63889 12.1994 6.37088 12.1651 6.41823C12.1632 6.42066 12.2811 6.59119 12.2872 6.60476C12.3229 6.68684 12.2323 6.55799 12.2071 6.56179C12.1611 6.56854 12.1088 6.55293 12.1202 6.62624C12.1237 6.64786 12.1917 6.7602 12.1045 6.70827C12.0933 6.70155 12.0481 6.65323 12.042 6.65065C11.9615 6.63759 12.1109 6.78934 12.1426 6.85964C12.1742 6.92972 12.0411 6.85528 12.0049 6.83132C11.9115 6.76964 11.9834 6.78607 11.9766 6.77761C11.8966 6.67758 11.8903 6.71486 11.8663 6.7239C11.7162 6.5786 11.7019 6.61057 11.8418 6.73366C11.8568 6.74637 11.8563 6.72051 11.8663 6.7239C11.9963 6.88305 11.9895 6.92662 11.8262 6.8196C11.7496 6.76933 11.6879 6.68323 11.6748 6.75026C11.6689 6.78066 11.7774 6.87544 11.7891 6.91921C11.8156 7.01898 11.6733 6.97196 11.6504 7.02468C11.6424 7.04383 11.7106 7.08581 11.7071 7.10085C11.6973 7.14077 11.6337 7.12116 11.6299 7.16726C11.6297 7.17151 11.6929 7.22378 11.6866 7.23269C11.6344 7.29835 11.546 7.31286 11.4834 7.37331C11.4534 7.40261 11.4326 7.48748 11.3956 7.51198C11.3314 7.55447 11.1803 7.53567 11.1553 7.60183C11.1394 7.64455 11.2035 7.69615 11.2305 7.74831C11.2829 7.84986 11.1015 7.75599 11.0743 7.7405C11.0735 7.7396 11.0854 7.70005 11.042 7.68386C10.972 7.62963 11.0743 7.73994 11.0743 7.7405C11.0564 7.73089 10.9924 7.76809 10.9932 7.78933C10.9938 7.80064 11.0498 7.85061 11.0518 7.85769C11.0329 7.97528 10.9787 8.05832 10.8838 8.10183C10.8815 8.10193 10.8213 8.0385 10.8165 8.03933C10.749 8.05195 10.7987 8.15284 10.8106 8.23073C10.8224 8.30865 10.7809 8.32012 10.6553 8.23366C10.6437 8.27197 10.5608 8.26103 10.5118 8.25319C10.4642 8.246 10.5775 8.36507 10.5811 8.37233C10.6006 8.50482 10.4991 8.46914 10.4297 8.51687C10.3966 8.53939 10.359 8.61215 10.3418 8.65554C10.3286 8.68989 10.2855 8.67654 10.2813 8.71608C10.2807 8.72147 10.3378 8.77269 10.3389 8.77565C10.3781 8.8637 10.2589 8.72168 10.2305 8.70339C10.1271 8.63676 10.0706 8.60268 10.0791 8.67409C10.0823 8.69186 10.2483 8.89995 10.2461 8.92409C10.2429 8.95505 10.1826 8.88161 10.1807 8.9153C10.1805 8.91818 10.222 8.95975 10.209 8.96901C10.1495 9.01249 10.0689 9.04418 10.0196 9.10183C10.0127 9.10951 10.0881 9.16634 10.0801 9.17897C10.0384 9.23641 9.98067 9.28855 9.90141 9.30593C9.88155 9.30905 9.84338 9.25548 9.82719 9.2444C9.72995 9.17835 9.82353 9.31625 9.82524 9.32644C9.79482 9.47296 9.61727 9.43226 9.57915 9.57448C9.57996 9.58685 9.667 9.74825 9.54106 9.65554C9.53252 9.6493 9.4031 9.55157 9.46586 9.64382C9.46981 9.6496 9.53781 9.69805 9.51372 9.71022C9.49 9.72277 9.49972 9.79016 9.41118 9.75124C9.38305 9.73889 9.25081 9.6444 9.31743 9.75808C9.3222 9.76592 9.48983 10.0071 9.33598 9.87917C9.31069 9.85808 9.16386 9.70664 9.21196 9.81081C9.22142 9.83101 9.26489 9.85499 9.27153 9.88991C9.28149 9.94312 9.21355 9.93216 9.25297 10.0247C9.26008 10.0411 9.34128 10.1623 9.24907 10.1018C9.23455 10.0923 9.1888 10.0375 9.17485 10.0403C9.10866 10.0536 9.10011 10.128 9.02543 10.1341C8.99911 10.1363 8.92635 10.0495 8.88969 10.0423C8.85323 10.0356 8.80232 10.0447 8.82329 10.0969C8.84438 10.1492 8.98846 10.26 8.97661 10.2942C8.91947 10.4404 8.74358 10.4665 8.6309 10.5569C8.61418 10.5703 8.67178 10.6041 8.65043 10.6272C8.57203 10.7126 8.47398 10.8965 8.30571 10.8704C8.17084 10.8492 8.18236 10.7185 8.10747 10.7298C8.0714 10.7356 8.19697 10.9066 8.19731 10.9173C8.19549 11.0145 8.09466 10.9833 8.07036 11.0481C8.06657 11.062 8.13466 11.1126 8.12993 11.1233C8.11365 11.1606 8.05876 11.1621 8.03813 11.1926C8.02961 11.2067 8.07659 11.2501 8.06254 11.2571C8.02935 11.2742 7.98764 11.2777 7.91997 11.2591C7.91374 11.2573 7.87149 11.1843 7.85063 11.2005C7.81709 11.2274 7.73684 11.2231 7.74614 11.302C7.75014 11.3264 7.85341 11.4306 7.75883 11.3801C7.73759 11.3678 7.61941 11.2383 7.70219 11.3723C7.71604 11.3949 7.82062 11.5858 7.70415 11.512C7.6736 11.4926 7.55585 11.4044 7.55864 11.4319C7.55955 11.4362 7.62297 11.4864 7.61821 11.5022C7.60046 11.5569 7.55666 11.5889 7.53715 11.6438C7.53207 11.6586 7.60585 11.7027 7.59672 11.7229C7.57078 11.7785 7.50456 11.8147 7.44633 11.8362C7.42475 11.844 7.38628 11.7848 7.37993 11.7805C7.27681 11.7118 7.38277 11.8384 7.38383 11.8508C7.38873 11.9267 7.30738 11.8994 7.28911 11.9466C7.28418 11.9595 7.34554 12.0082 7.34868 12.0149C7.34954 12.0169 7.34996 12.0191 7.35063 12.0208C6.91246 12.3502 6.30909 12.4588 5.97954 12.0208C5.92612 12.0422 6.0309 11.9623 6.03129 11.9397C6.02927 11.8757 5.98775 11.843 5.94731 11.8167C5.93235 11.8071 5.88187 11.8846 5.86918 11.8753C5.79303 11.8212 5.73148 11.7475 5.70317 11.6487C5.69796 11.6299 5.75492 11.5873 5.76372 11.5735C5.82484 11.478 5.69187 11.5603 5.67583 11.5647C5.60301 11.5849 5.63596 11.531 5.60454 11.5159C5.45021 11.4425 5.33862 11.273 5.24907 11.1477C5.13204 10.9847 5.0706 10.8287 4.92485 10.7073C4.91565 10.6995 4.85845 10.7737 4.84965 10.7678C4.73931 10.6892 4.67134 10.5711 4.55766 10.4954C4.54797 10.4901 4.49728 10.562 4.48051 10.554C4.44561 10.5378 4.41711 10.5019 4.41118 10.4563C4.40885 10.4341 4.47779 10.3974 4.47368 10.3762C4.46409 10.3269 4.43677 10.2911 4.39653 10.2708C4.37909 10.2629 4.3349 10.3454 4.31743 10.3294C4.1967 10.2213 4.07315 10.1193 4.04008 9.92116C4.03967 9.90586 4.16058 9.77163 4.11918 9.77956C4.0821 9.81412 4.03986 9.85607 4.00102 9.89382C3.81378 9.74795 3.69333 9.53849 3.53325 9.36452C3.52587 9.35846 3.47055 9.43749 3.45707 9.42409C3.3792 9.34419 3.28309 9.2868 3.27055 9.13796C3.26922 9.1233 3.39377 9.00697 3.35258 9.00124C3.34509 9.00041 3.29327 8.98128 3.25786 8.99831C3.25178 9.00224 3.2026 9.0633 3.1895 9.05397C3.11436 8.99596 3.05744 8.91269 3.02543 8.81179C3.02127 8.79512 3.09198 8.74677 3.08891 8.73464C3.06651 8.64885 2.9624 8.63544 2.96489 8.52956C2.96693 8.45821 3.0833 8.3669 3.16704 8.24636C3.17884 8.22934 3.15951 8.20533 3.21782 8.14479C3.36434 7.99257 3.53843 7.83951 3.6934 7.67604C3.72681 7.64083 3.66183 7.64917 3.76176 7.58327C3.76894 7.57892 3.81659 7.57187 3.84965 7.54909C3.87267 7.53322 3.92684 7.46611 3.95903 7.44851C3.99107 7.43104 3.94897 7.49007 3.99028 7.47292C4.03186 7.45526 4.09471 7.38131 4.127 7.39675C4.20146 7.43436 4.25543 7.52775 4.28422 7.61062C4.29323 7.63648 4.2474 7.6653 4.252 7.68483C4.26117 7.72264 4.30057 7.72655 4.30668 7.76687C4.30846 7.78039 4.24155 7.82941 4.24321 7.84304C4.26137 7.91354 4.31818 7.94097 4.35063 7.99831C4.51013 8.28233 4.70594 8.52316 4.90336 8.77468C4.96843 8.85745 5.00484 9.00089 5.10454 9.05397C5.11612 9.06002 5.1621 9.00412 5.16899 9.00026C5.26138 8.96114 5.148 9.05776 5.15141 9.08913C5.16526 9.21321 5.23685 9.29476 5.32329 9.34108C5.36026 9.36064 5.43594 9.22914 5.40629 9.31569C5.40357 9.32211 5.34199 9.3695 5.34379 9.38308C5.34809 9.41393 5.3912 9.43734 5.40043 9.45534C5.41791 9.49023 5.42227 9.49448 5.44633 9.51979C5.47891 9.55506 5.49219 9.62282 5.54106 9.64675C5.55165 9.65167 5.59805 9.58478 5.62016 9.58718C5.64221 9.58995 5.67032 9.62817 5.66801 9.65261C5.66526 9.67702 5.61687 9.71654 5.60844 9.72878C5.53878 9.83046 5.69336 9.75045 5.70317 9.75124C5.84242 9.78993 5.85109 9.93437 5.93461 10.0178C5.99839 10.081 6.08921 10.1272 6.14653 10.1907C6.2144 10.2665 6.24527 10.3576 6.32036 10.4221C6.32884 10.4279 6.38587 10.3543 6.39555 10.3626C6.49889 10.4504 6.58646 10.5526 6.63676 10.6926C6.64173 10.7067 6.57144 10.753 6.57231 10.7708C6.57417 10.7899 6.57451 10.8126 6.57622 10.8352C6.57746 10.8357 6.57838 10.8361 6.57915 10.8362C6.69747 10.8487 6.71086 10.7843 6.76176 10.7366C6.77188 10.7251 6.69408 10.673 6.70122 10.6594C6.74863 10.5928 6.81384 10.5391 6.89946 10.513C6.91852 10.5074 6.96401 10.575 6.97661 10.5764C7.02928 10.5768 6.92765 10.4633 6.97563 10.4612C6.98566 10.4607 7.0314 10.512 7.03813 10.5169C7.1378 10.5863 7.03102 10.4531 7.03227 10.4466C7.04551 10.3615 7.20265 10.4551 7.23247 10.3899C7.23575 10.3819 7.16041 10.3322 7.17387 10.3137C7.26318 10.1903 7.39305 10.0951 7.5479 10.0393C7.57192 10.0306 7.60752 10.0883 7.6143 10.093C7.71917 10.1648 7.61453 10.0387 7.61235 10.0257C7.6219 9.95091 7.76183 10.0117 7.6475 9.84011C7.87561 9.7112 7.97302 9.45329 8.27836 9.40456C8.28408 9.40636 8.33772 9.46685 8.34477 9.46511C8.43144 9.44413 8.3287 9.36232 8.252 9.21413C8.23296 9.17703 8.39684 9.2857 8.40922 9.29323C8.45485 9.32146 8.53395 9.418 8.54399 9.42214C8.62284 9.45232 8.32924 9.16669 8.36137 9.13308C8.36431 9.13434 8.41102 9.18871 8.41997 9.19265C8.44533 9.20078 8.4331 9.17089 8.46 9.18093C8.52207 9.20447 8.66982 9.3392 8.61723 9.2278C8.61026 9.21337 8.43929 9.05321 8.47661 9.03151C8.49162 9.023 8.54114 8.96801 8.56645 8.96413C8.59092 8.96077 8.63203 9.01965 8.63774 9.02468C8.74737 9.05583 8.7621 9.10035 8.88579 9.18483C9.00928 9.26901 8.75635 9.02744 8.73637 8.99147C8.71686 8.95593 8.80361 8.98514 8.8311 8.99831C8.85832 9.01142 8.88369 9.05352 8.90141 9.05886C9.01778 9.09188 8.79738 8.91773 8.77153 8.86452C8.71092 8.73928 8.91854 8.89684 8.96684 8.88601C8.97973 8.88285 8.93138 8.84726 8.93461 8.8362C8.94804 8.79311 9.02237 8.83303 9.002 8.74831C8.99728 8.7324 8.91569 8.59871 9.01274 8.66237C9.02695 8.67197 9.0657 8.72471 9.08793 8.72292C9.1212 8.72027 9.16368 8.69776 9.16801 8.66335C9.17098 8.63776 9.07917 8.57802 9.12016 8.58327C9.13863 8.58574 9.16825 8.64481 9.19926 8.64577C9.23007 8.64667 9.26625 8.60721 9.27934 8.59108C9.29205 8.57532 9.22959 8.52734 9.22465 8.52077C9.21019 8.49262 9.20969 8.43972 9.21196 8.43386C9.32915 8.30269 9.53997 8.28396 9.62895 8.13112C9.63601 8.11921 9.5699 8.0652 9.57036 8.06276C9.57784 8.00563 9.71278 8.19094 9.78911 8.22194C9.66332 8.10271 9.69861 8.11178 9.70805 8.07546C9.71215 8.05807 9.66064 8.01787 9.65532 8.01101C9.59983 7.92295 9.70311 8.00325 9.72563 8.01979C9.80644 8.07896 9.73612 7.98448 9.79008 8.0237C9.84391 8.0628 9.89597 8.14907 9.91704 8.12624C9.87933 8.07623 9.74805 7.97788 9.74614 7.94265C9.73881 7.80958 9.94603 7.7817 10.0059 7.7405C10.0655 7.6995 10.0741 7.67591 10.1192 7.66237C10.2008 7.63797 10.0971 7.57204 10.0909 7.50026C10.085 7.42836 10.2772 7.65304 10.3272 7.69362C10.3767 7.73385 10.336 7.68276 10.3663 7.70144C10.3966 7.72026 10.4148 7.76287 10.4375 7.75905C10.4604 7.75471 10.4182 7.63708 10.376 7.58522C10.2868 7.47572 10.1656 7.38861 10.2373 7.38894C10.2416 7.38904 10.2901 7.45044 10.3038 7.44851C10.409 7.42788 10.477 7.36467 10.5772 7.33913C10.5909 7.33577 10.6434 7.40278 10.6534 7.40358C10.745 7.39028 10.623 7.30575 10.5372 7.16237C10.6832 7.32138 10.7933 7.39854 10.834 7.35964C10.8575 7.33603 10.7872 7.27332 10.7559 7.2112C10.7474 7.19315 10.8084 7.22096 10.7803 7.18679C10.688 7.07447 10.558 6.97613 10.6446 6.98073C10.6485 6.9811 10.6974 7.04116 10.7081 7.0403C10.7705 7.02232 10.6689 6.91025 10.6993 6.85378C10.7232 6.80952 10.8491 6.81359 10.8985 6.78542C10.8997 6.78668 10.9012 6.78809 10.9024 6.78933H10.9034C11.0698 6.95616 11.0655 6.8813 10.9629 6.74929C10.993 6.72895 11.014 6.69478 11.0547 6.68679C11.0692 6.68527 11.1128 6.73917 11.1192 6.74343C11.218 6.81031 11.1178 6.6886 11.1163 6.67604C11.1313 6.57337 11.2661 6.61205 11.2373 6.47097C11.2363 6.4659 11.1207 6.34334 11.2227 6.4153C11.2303 6.42203 11.2657 6.49292 11.2959 6.47097C11.3269 6.4489 11.4394 6.46212 11.4209 6.37038C11.416 6.34747 11.3434 6.22913 11.4366 6.2864C11.4492 6.29425 11.4805 6.33138 11.503 6.34694C11.5748 6.39631 11.4607 6.26954 11.5762 6.35866C11.6916 6.44771 11.7951 6.49723 11.7618 6.38991C11.7609 6.38668 11.6744 6.28189 11.6875 6.27175C11.7086 6.25579 11.7545 6.2495 11.7735 6.22976C11.7824 6.22013 11.7173 6.16605 11.7178 6.16335C11.7472 6.06796 11.8448 6.07646 11.9346 6.03249C11.951 6.0243 11.9057 5.90842 11.9932 5.94851C12.0892 5.9924 12.353 6.30993 12.3438 6.18093C12.3403 6.12902 12.0018 5.72958 12.2364 5.87722C12.2733 5.74553 12.449 5.76476 12.4659 5.61257C12.4633 5.60192 12.3766 5.49105 12.3868 5.48366C12.4025 5.47328 12.4569 5.51292 12.4698 5.5071C12.524 5.48191 12.5198 5.4042 12.5645 5.37233C12.5817 5.36142 12.6256 5.41492 12.6456 5.40065C12.6656 5.38607 12.6119 5.30945 12.667 5.31765C12.7091 5.32441 12.8602 5.43952 12.8995 5.4319C12.7684 5.299 12.7874 5.28548 12.7813 5.22194C12.78 5.20965 12.7276 5.16958 12.7247 5.1614C12.7116 5.12713 12.7598 5.15521 12.7442 5.1194C12.7404 5.11075 12.6951 5.06555 12.6895 5.05593C12.6403 4.97267 12.769 5.04571 12.792 5.05886C12.8774 5.10731 12.8284 5.0404 12.8682 5.05202C12.9088 5.06429 12.9215 5.11894 12.9541 5.11843C13.0214 5.11709 13.0579 5.0652 13.0948 5.03249C13.109 5.01905 13.0394 4.96841 13.0401 4.96511C13.0537 4.92135 13.1467 4.95616 13.043 4.82058C13.373 5.11073 13.0306 4.77319 13.1338 4.79421ZM8.29497 9.50319C8.28823 9.49813 8.24761 9.52741 8.25102 9.53444C8.34227 9.66276 8.42601 9.60275 8.29497 9.50319ZM9.07133 8.98854C9.06788 8.98569 9.05427 8.99341 9.07231 9.01101C9.13033 9.06751 9.12917 9.03646 9.07133 8.98854ZM3.2686 8.28347C3.19334 8.34233 3.21826 8.37892 3.28129 8.303C3.28376 8.30002 3.27222 8.28237 3.2686 8.28347ZM10.0088 7.98952C10.0675 8.06439 10.1034 8.03899 10.0274 7.97585C10.0242 7.97343 10.0064 7.98638 10.0088 7.98952ZM12.5674 5.87722C12.4492 5.80889 12.5686 5.96336 12.6582 6.01784C12.7476 6.07206 12.6038 5.8987 12.5674 5.87722ZM12.9405 5.21999C12.8909 5.18855 12.9111 5.2609 12.9727 5.30007C13.0223 5.33147 13.0019 5.25919 12.9405 5.21999ZM13.2461 4.58425C13.2661 4.59367 13.3686 4.7642 13.3721 4.77956C13.2959 4.83188 13.0106 4.6245 13.1084 4.58229C13.1262 4.57466 13.1599 4.6879 13.1983 4.6946C13.2685 4.70569 13.1328 4.53131 13.2461 4.58425Z" fill="#494542"/>
</g>
<defs>
<clipPath id="clip0_513_34454">
<rect width="16" height="16" fill="white"/>
</clipPath>
</defs>
</svg>
