<svg width="1" height="78" viewBox="0 0 1 78" fill="none" xmlns="http://www.w3.org/2000/svg">
<path d="M0.995007 0.743083C1.00802 1.18015 0.993614 1.75303 0.974499 2.1884C0.968574 2.32459 0.94273 2.25595 0.93739 2.34953C0.92709 2.53368 0.939868 2.70565 0.927624 2.88761C0.923426 2.94795 0.881261 2.87317 0.87782 2.93644C0.85927 3.28314 0.870142 3.6116 0.861218 3.96281C0.817197 5.69267 0.801243 7.39342 0.782116 9.14445C0.775835 9.72167 0.738141 10.4232 0.754773 11.0195C0.756755 11.0891 0.793727 11.0482 0.796765 11.0614C0.843113 11.2688 0.768558 11.2003 0.758679 11.3359C0.719673 11.8742 0.716139 12.4731 0.730358 12.9911C0.736578 13.2109 0.809385 12.9905 0.768444 13.2118C0.765668 13.2272 0.726719 13.1719 0.722546 13.2323C0.71319 13.3694 0.719765 13.6289 0.716686 13.7353C0.710513 13.94 0.711273 13.9742 0.710827 14.1679C0.709877 14.4327 0.690242 14.7481 0.699108 15.0321C0.701303 15.0918 0.741037 15.0125 0.747936 15.1083C0.754748 15.2051 0.751522 15.4613 0.742077 15.5478C0.732616 15.6341 0.701452 15.5979 0.694225 15.6132C0.633446 15.739 0.717528 16.0351 0.719616 16.0732C0.755175 16.7678 0.706795 17.3635 0.706921 18.0155C0.707127 18.5107 0.722771 19.0405 0.720592 19.5116C0.71784 20.0728 0.696356 20.5485 0.700085 21.0937C0.700433 21.1512 0.747378 21.0841 0.747936 21.1542C0.753425 21.901 0.748527 22.6431 0.716686 23.3866C0.713305 23.4604 0.672578 23.365 0.666881 23.4394C0.632843 23.8955 0.551111 24.6167 0.731334 24.8876C0.724294 25.1966 0.716897 25.5721 0.680553 25.8486C0.657167 26.0265 0.61157 25.8538 0.630748 26.0722C0.635037 26.1216 0.675156 26.0577 0.6786 26.1318C0.693056 26.4435 0.679674 26.7843 0.700084 27.0927C0.704399 27.1552 0.739616 27.1384 0.745983 27.1562C0.797476 27.3056 0.713119 27.5541 0.70692 27.6083C0.660701 28.021 0.678752 28.3224 0.677623 28.707C0.677347 28.7961 0.724921 28.6909 0.726451 28.7763C0.733265 29.2215 0.728982 29.6831 0.707897 30.1191C0.703089 30.2161 0.662462 30.1274 0.658092 30.1737C0.639388 30.3779 0.715562 30.4233 0.699108 30.6191C0.695756 30.66 0.661502 30.6376 0.657115 30.6445C0.597487 30.7621 0.682174 30.8648 0.684459 30.8954C0.710004 31.2792 0.621218 31.5248 0.633678 31.8954C0.635265 31.9398 0.678769 31.8401 0.680553 31.9648C0.692665 32.7956 0.681466 33.6746 0.646373 34.497C0.640969 34.6234 0.607859 34.5344 0.603404 34.5409C0.540023 34.6719 0.624358 34.757 0.627818 34.7987C0.650869 35.1275 0.580387 35.4347 0.681529 35.6581C0.646371 37.051 0.702943 38.4379 0.612193 39.8193C0.611142 39.8368 0.569188 39.8057 0.567271 39.8407C0.543781 40.2625 0.608748 40.1817 0.688365 40.4609C0.708148 40.5311 0.612929 40.7435 0.605357 40.7636C0.579527 40.8322 0.518193 40.7621 0.512584 40.7841C0.473095 40.9752 0.678502 40.9443 0.678599 41.2021C0.678256 41.2101 0.640379 41.1765 0.636607 41.1982C0.62485 41.2652 0.639815 41.3318 0.626841 41.3974C0.596623 41.5479 0.496288 41.602 0.554576 41.832C0.562454 41.8608 0.679231 41.817 0.673716 42.0468C0.671426 42.139 0.673459 42.5441 0.665904 42.6581C0.658336 42.7718 0.62066 42.694 0.619029 42.7021C0.569211 43.0084 0.548255 42.8923 0.474498 43.0458C0.401279 43.199 0.577016 43.1571 0.596568 43.2196C0.615661 43.2829 0.574744 43.506 0.560435 43.5614C0.546179 43.6165 0.521714 43.5483 0.51356 43.5966C0.46077 43.9215 0.600742 43.7403 0.628795 43.8466C0.694658 44.0993 0.564382 44.2969 0.551646 44.5282C0.548378 44.59 0.578058 44.5397 0.580943 44.5946C0.591515 44.8154 0.550594 44.949 0.587779 45.2001C0.594263 45.2421 0.672186 45.4441 0.615123 45.5751C0.606863 45.5937 0.574574 45.541 0.567271 45.6347C0.556388 45.7751 0.548654 46.0285 0.559458 46.1796C0.567465 46.2911 0.620885 46.1636 0.60438 46.3036C0.596978 46.366 0.565879 46.2509 0.554576 46.3681C0.543303 46.4849 0.544709 46.783 0.545787 46.8964C0.546953 47.0062 0.585251 46.9504 0.589732 46.956C0.605273 47.0111 0.624734 47.2268 0.624888 47.248C0.62983 48.2166 0.562264 49.1105 0.584849 50.0536C0.586674 50.126 0.62792 50.0793 0.629771 50.0888C0.647657 50.3422 0.533972 50.1432 0.495982 50.3202C0.58258 50.2947 0.566581 50.3987 0.57606 50.5771C0.580648 50.662 0.613905 50.6176 0.618052 50.6239C0.668884 50.7512 0.603401 50.8401 0.589732 50.8632C0.540211 50.9477 0.598418 51.0401 0.565318 51.0976C0.532498 51.1541 0.484708 51.0232 0.48524 51.1933C0.51625 51.2413 0.597106 51.1151 0.61024 51.245C0.659839 51.7355 0.596335 52.6507 0.589732 53.0448C0.583146 53.4378 0.588212 53.5649 0.577036 53.7939C0.556785 54.2077 0.616875 54.0569 0.644419 54.3134C0.671937 54.5713 0.523878 54.4463 0.492075 54.4833C0.460653 54.5195 0.493456 54.5594 0.47645 54.6044C0.458995 54.6495 0.437133 54.5524 0.430552 54.6581C0.423998 54.7643 0.480307 55.0551 0.51356 55.0927C0.583986 55.1721 0.657692 55.0413 0.631724 55.3222C0.630184 55.3383 0.591797 55.2861 0.587778 55.3476C0.557832 55.839 0.555671 56.3499 0.529185 56.8407C0.525439 56.9078 0.482258 56.8481 0.47938 56.8866C0.451703 57.2957 0.525286 57.1498 0.606333 57.3739C0.498465 57.3236 0.432165 57.4482 0.431528 57.7587C0.431189 57.9447 0.478435 57.9128 0.511606 58.0331C0.521616 58.0693 0.489451 58.2016 0.511606 58.2255C0.583984 58.3043 0.664863 58.1804 0.6327 58.4999C0.631166 58.514 0.591156 58.47 0.588755 58.5185C0.573106 58.8319 0.64892 58.8699 0.658091 59.2089C0.665229 59.4748 0.618725 59.9474 0.611216 60.2499C0.490394 60.2442 0.517924 60.5296 0.60145 60.6454C0.598042 60.8416 0.603209 61.0535 0.591684 61.2431C0.587744 61.3084 0.55251 61.2661 0.548716 61.2743C0.489382 61.4005 0.570919 61.4859 0.574106 61.5282C0.60509 61.9876 0.543152 62.3622 0.603403 62.8007C0.606445 62.8163 0.688991 62.8423 0.627817 62.9589C0.622125 62.9595 0.585813 62.8263 0.582895 63.0273C0.579925 63.2335 0.534113 63.6227 0.57313 63.9091C0.582527 63.9784 0.650975 64.1541 0.597544 64.2948C0.590072 64.3128 0.565955 64.2934 0.552622 64.3202C0.510456 64.4073 0.595114 64.4552 0.523325 64.5575C0.451018 64.6603 0.396362 64.8743 0.446176 65.163C0.447627 65.1722 0.515603 65.2411 0.514536 65.3319C0.512762 65.4769 0.498475 65.6826 0.498911 65.8339C0.499146 65.9064 0.541113 65.8604 0.541879 65.873C0.565329 66.3602 0.527816 66.7073 0.511606 67.2294C0.508664 67.3254 0.565472 67.5999 0.520395 67.7851C0.470951 67.9885 0.265477 67.7798 0.31434 68.247C0.333941 68.4356 0.594874 68.6747 0.459848 69.0136C0.493352 69.671 0.423763 70.2792 0.471567 70.9384C0.473686 70.968 0.546762 71.0621 0.545786 71.1318C0.544173 71.2352 0.509942 71.2922 0.5077 71.3661C0.497462 71.6756 0.526878 71.9593 0.522348 72.2577C0.520638 72.3707 0.485251 72.3317 0.483285 72.4667C0.481457 72.6016 0.528111 72.692 0.505746 72.8749C0.488554 73.013 0.393734 73.1515 0.3827 73.3349C0.476128 73.3419 0.474268 73.4675 0.49891 73.6913C0.503697 73.7344 0.535984 73.6885 0.539926 73.7089C0.556688 73.7918 0.530465 73.8685 0.548715 73.9472C0.553198 73.9662 0.584356 73.9677 0.589731 73.9833C0.636507 74.1165 0.565112 74.3353 0.552621 74.373C0.505197 74.5172 0.54678 74.5847 0.528207 74.6952C0.509534 74.8057 0.485854 74.6411 0.474496 74.7694C0.451035 75.0371 0.456431 75.3814 0.454965 75.6532C0.454579 75.7611 0.496541 75.6886 0.497934 75.703C0.50874 75.9273 0.463847 76.1549 0.548715 76.2792C0.329331 76.4347 0.569055 76.4139 0.525277 76.7343C0.521727 76.7595 0.418564 76.7919 0.403207 76.6952C0.387987 76.5983 0.420119 76.4508 0.396371 76.3163C0.390346 76.2838 0.293848 76.1019 0.287973 76.0771C0.242551 75.8841 0.393919 75.8552 0.40516 75.8446C0.497076 75.7276 0.392868 75.504 0.385629 75.4452C0.352547 75.1769 0.374057 74.949 0.350473 74.7245C0.335172 74.5776 0.233106 74.5626 0.236215 74.4472C0.246525 74.0637 0.38836 73.9297 0.265512 73.5683C0.239213 73.491 0.128466 73.5675 0.215707 73.29C0.221719 73.2712 0.301198 73.0659 0.250864 72.9472C0.244396 72.9323 0.211584 72.9327 0.208871 72.913C0.191351 72.7809 0.217295 72.6927 0.204965 72.5487C0.192628 72.4048 0.174504 72.2317 0.185434 72.0673C0.191996 71.9682 0.25173 71.8403 0.266489 71.7929C0.308855 71.659 0.239507 71.5155 0.290903 71.4325C0.342646 71.3488 0.421533 71.5124 0.454965 71.2929C0.370912 71.2848 0.284613 71.2659 0.200082 71.2528C0.203052 70.772 0.230163 70.2988 0.22645 69.8163C0.225906 69.7566 0.180467 69.8175 0.178598 69.7538C0.171419 69.4832 0.204123 69.2464 0.191293 68.9657C0.181171 68.7486 0.133032 68.5102 0.120981 68.2831C0.217098 68.1443 0.184458 67.8072 0.193247 67.5624C0.196327 67.477 0.221961 67.4826 0.230356 67.4218C0.261354 67.1917 0.17635 67.2993 0.162973 67.2362C0.105943 66.9657 0.298586 66.942 0.293833 66.623C0.292265 66.6036 0.1908 66.3993 0.184458 66.371C0.143016 66.1908 0.219753 66.341 0.227426 66.2284C0.241271 66.0218 0.266223 65.878 0.236215 65.6357C0.227318 65.565 0.163334 65.395 0.212778 65.2577C0.219372 65.2399 0.252742 65.2497 0.25477 65.2353C0.287833 64.9723 0.181561 64.9653 0.145395 64.8153C0.109329 64.6649 0.182797 64.432 0.203989 64.3847C0.258753 64.2612 0.227941 64.4794 0.233286 64.4862C0.297256 64.5649 0.286501 64.3959 0.29188 64.2665C0.39601 64.2475 0.389553 64.0665 0.296762 64.1318C0.286606 64.1392 0.296651 64.2405 0.29188 64.2665C0.189486 64.153 0.175846 63.9538 0.271372 63.7343C0.316245 63.6314 0.368618 63.7282 0.349497 63.4159C0.340865 63.2743 0.269585 63.3286 0.249887 63.204C0.205175 62.9182 0.272103 62.5466 0.261606 62.2519C0.25777 62.1449 0.217751 62.2487 0.213755 62.1757C0.203072 61.9817 0.232791 61.81 0.217661 61.6152C0.215479 61.5989 0.175409 61.6403 0.174692 61.581C0.169907 61.1216 0.196422 60.7207 0.197153 60.2411C0.197459 60.0093 0.175009 59.5953 0.179575 59.3554C0.187257 58.9394 0.246859 58.4276 0.23231 58.0722C0.222997 57.8405 0.182265 57.891 0.154185 57.7919C0.099752 57.6002 0.196704 57.2604 0.211802 57.2148C0.212358 57.2146 0.221962 57.4127 0.243052 57.3066C0.286997 57.2447 0.211993 57.217 0.211802 57.2148C0.221497 57.182 0.231303 56.7876 0.223521 56.7079C0.219215 56.6649 0.180105 56.6883 0.178599 56.6659C0.143676 56.1333 0.133015 55.5997 0.151255 55.0595C0.15204 55.05 0.195468 55.0638 0.197153 55.0419C0.216573 54.7291 0.163448 54.5284 0.131724 54.2704C0.100026 54.0125 0.110528 53.8079 0.185435 53.6552C0.175995 53.4605 0.209265 53.1812 0.22938 53.0204C0.249466 52.86 0.164886 52.8373 0.162974 52.8232C0.109188 52.3822 0.157336 52.1272 0.164927 51.6698C0.168673 51.4523 0.156646 51.0207 0.147349 50.7851C0.139863 50.599 0.160049 50.4867 0.147349 50.3153C0.145676 50.2925 0.108935 50.3145 0.106333 50.3085C0.0610404 50.1171 0.153281 50.2084 0.16981 50.1689C0.22982 50.0258 0.261539 49.9372 0.233286 49.6923C0.2267 49.6357 0.0936566 49.4711 0.0858256 49.3681C0.0759422 49.2341 0.123708 49.2846 0.112193 49.1445C0.111246 49.1325 0.0815966 49.1344 0.0828959 49.0478C0.0885445 48.6459 0.106356 48.2076 0.103404 47.79C0.103029 47.7332 0.0557634 47.8059 0.0545756 47.7236C0.0490395 47.3368 0.0512627 46.9129 0.0731304 46.5361C0.0786486 46.4435 0.111177 46.5011 0.120982 46.4814C0.179774 46.3577 0.0942893 46.1822 0.0926616 46.1532C0.051621 45.4632 0.129467 44.9347 0.0926617 44.2314C0.0899673 44.1916 -0.00109783 43.8987 0.0770367 43.7675C0.0822589 43.7585 0.162055 43.6286 0.10731 43.5136C0.103873 43.5064 0.0630549 43.5867 0.0672711 43.4452C0.071414 43.3037 0.0433471 43.076 0.0887555 42.8818C0.103216 42.8201 0.183822 42.6745 0.120006 42.4911C0.114672 42.4775 -0.0290572 42.1956 0.0702009 42.0946C0.0866093 42.0782 0.192644 42.0951 0.13856 41.8759C0.12803 41.8348 0.104381 41.9097 0.0897321 41.7997C0.0671949 41.6308 0.09469 41.4067 0.04774 41.1991C0.0390211 41.1623 -0.0314419 41.0089 0.0223494 40.8857C0.0308395 40.8663 0.0661171 40.9025 0.0702009 40.8378C0.0891057 40.5271 0.0653664 40.2012 0.0897322 39.8857C0.0983177 39.7741 0.155522 39.8311 0.170787 39.7148C0.186038 39.5983 0.200709 39.363 0.174693 39.2411C0.148548 39.1199 0.0579318 39.2526 0.0506698 39.0702C0.019136 38.2762 0.0721806 37.4891 0.0799667 36.6962C0.081041 36.5793 0.0483557 36.6759 0.0477402 36.5028C0.0453135 35.8639 0.0149307 34.7613 0.0838731 34.207C0.139119 33.7628 0.181501 34.3214 0.20399 33.9823C0.214717 33.8185 0.109655 33.641 0.106334 33.6015C0.0726228 33.2154 0.118669 32.947 0.104381 32.5995C0.101412 32.5279 0.0587419 32.5975 0.0565294 32.537C0.0491147 32.3283 0.0688092 32.1085 0.0653185 31.9091C0.0636472 31.8197 0.0305762 31.8361 0.0330919 31.7538C0.0387464 31.5568 0.0522902 31.3824 0.0828967 31.1903C0.0858863 31.1736 0.126295 31.2906 0.127819 31.1454C0.130147 30.9097 0.160873 30.6169 0.129772 30.3456C0.1204 30.2652 0.0452856 30.2614 0.0965686 30.0888C0.107334 30.0525 0.19744 30.098 0.120006 29.8964C0.106559 29.8605 0.00330224 29.5241 0.0702014 29.3583C0.0879196 29.3145 0.160821 29.2022 0.149303 29.1054C0.147464 29.0923 0.107315 29.1446 0.103405 29.0644C0.0903394 28.7818 0.0944541 28.4856 0.0819202 28.1952C0.078488 28.1176 0.0378593 28.2327 0.0340687 28.1171C0.0235929 27.7993 0.0337894 27.4026 0.046764 27.0917C0.0515959 26.9779 0.0855973 27.0549 0.0897328 27.0478C0.150382 26.914 0.0685816 26.8346 0.0633656 26.79C0.0347091 26.5131 0.0735389 26.3019 0.0633656 26.0468C0.0606533 25.9764 0.0209578 26.0257 0.0174672 26.0116C-0.0163612 25.867 0.0536721 25.9747 0.0614125 25.8827C0.0833355 25.625 0.0810599 25.3377 0.076061 25.0771C0.0741666 24.9813 0.0284349 25.0887 0.0272329 25.0028C0.0194116 24.4941 0.0236961 23.9652 0.0487173 23.4687C0.0535114 23.3752 0.0885858 23.4335 0.0965689 23.414C0.152073 23.2797 0.0764743 23.0832 0.0692251 23.038C0.0360926 22.8321 0.0662052 22.7521 0.0604361 22.5702C0.0317216 21.6821 0.0526719 20.5854 0.065319 19.747C0.081596 18.6543 0.114969 17.8056 0.106335 16.7636C0.105647 16.6982 0.059762 16.7641 0.0584832 16.7079C0.0472743 15.9709 0.0650773 15.2443 0.0516474 14.5058C0.0504267 14.446 0.00690669 14.5325 0.00379583 14.4355C-0.00289557 14.2361 -0.000481076 13.9837 0.0135615 13.7821C0.020343 13.6838 0.0582896 13.8148 0.0643427 13.7157C0.0784902 13.4854 0.0811559 13.2385 0.0741084 13.0019C0.0710053 12.9011 0.025806 13.0528 0.0252803 12.9218C0.0208081 12.0293 0.0128158 11.1528 0.0711788 10.2509C0.0751883 10.1891 0.166875 10.1343 0.149304 10.0028C0.123991 9.99312 0.0942848 9.99346 0.0672726 9.98918C0.0526404 8.69007 0.0838416 7.40423 0.0887571 6.10148C0.0889536 6.0466 0.0408726 6.14091 0.0409056 6.03508C0.0416234 5.4195 0.0278081 4.82099 0.0760619 4.19133C0.0810958 4.12938 0.16602 4.16095 0.15321 3.97746C0.150853 3.94499 0.139524 3.66731 0.120984 3.59562C0.117521 3.5871 0.0791659 3.6353 0.0780151 3.54679C0.071973 3.02775 0.0810167 2.48388 0.105359 1.96574C0.109366 1.88208 0.150964 1.97064 0.154187 1.91105C0.176695 1.48845 0.144947 1.02872 0.183484 0.624919C0.209441 0.354807 0.283156 0.454905 0.355359 0.311443C0.36555 0.291124 0.367043 0.123811 0.40907 0.115154C0.51472 0.0930087 0.630449 0.173804 0.743054 0.140544C0.767195 0.133099 0.74112 -0.0906988 0.799695 0.0419116C0.803672 0.0517674 0.822816 0.213838 0.842664 0.253826C0.856396 0.281659 0.899232 0.231522 0.916882 0.288005C0.934469 0.344872 0.89913 0.407589 0.919812 0.501873C0.94076 0.596011 0.989253 0.554927 0.995007 0.743083ZM0.319224 52.2968C0.360055 52.148 0.210205 52.1261 0.245982 52.287C0.247883 52.2948 0.316867 52.3044 0.319224 52.2968ZM0.342661 70.3017C0.408621 70.1071 0.311571 69.974 0.260629 70.1112C0.209929 70.2483 0.322546 70.3606 0.342661 70.3017ZM0.391489 72.3193C0.443496 72.0919 0.231431 72.0562 0.274301 72.2997C0.278967 72.3138 0.387765 72.3321 0.391489 72.3193ZM0.37782 0.852458C0.330324 0.788381 0.326486 1.02874 0.375867 0.977458C0.377795 0.974464 0.379551 0.860639 0.37782 0.852458ZM0.443246 74.3212C0.471933 74.2502 0.438879 74.0455 0.403207 74.1337C0.374594 74.2046 0.40763 74.4086 0.443246 74.3212ZM0.47938 44.5341C0.48157 44.5296 0.483005 44.4455 0.470591 44.4472C0.430019 44.453 0.441897 44.5731 0.47938 44.5341ZM0.609262 77.4628C0.605685 77.562 0.553766 77.2497 0.537973 77.3759C0.509226 77.6067 0.619367 77.7604 0.560434 77.996C0.549274 78.0371 0.445868 77.7527 0.446176 77.7226C0.454322 77.2205 0.628902 76.9163 0.609262 77.4628ZM0.500864 52.0859C0.453387 52.0212 0.449521 52.2615 0.498911 52.2109C0.500851 52.2051 0.502753 52.0898 0.500864 52.0859ZM0.57606 39.207C0.498454 39.0624 0.489718 39.6223 0.571178 39.4999C0.575387 39.4933 0.579923 39.2165 0.57606 39.207Z" fill="#C2AE87"/>
</svg>