<svg width="60" height="1" viewBox="0 0 60 1" fill="none" xmlns="http://www.w3.org/2000/svg">
<path d="M0.571251 0.00499786C0.907474 -0.00802856 1.3486 0.00638819 1.68356 0.0255057C1.78822 0.0314541 1.73531 0.0573146 1.80758 0.062615C1.94931 0.0729202 2.08159 0.0601047 2.22164 0.0723807C2.26777 0.0766546 2.21019 0.118732 2.25875 0.122185C2.5254 0.140735 2.7777 0.129872 3.04781 0.138787C4.3786 0.182817 5.68707 0.19876 7.03414 0.217888C7.47817 0.224166 8.01788 0.261865 8.47652 0.245232C8.53008 0.243249 8.49856 0.206277 8.50875 0.20324C8.66831 0.156875 8.61539 0.231447 8.71969 0.241326C9.13384 0.280352 9.59455 0.283868 9.99313 0.269646C10.1623 0.263444 9.99261 0.190566 10.163 0.23156C10.1749 0.234336 10.1322 0.273285 10.1787 0.277459C10.284 0.286816 10.4834 0.28026 10.5654 0.283318C10.7229 0.289491 10.7494 0.288732 10.8984 0.289178C11.102 0.290127 11.344 0.309724 11.5625 0.300896C11.6091 0.298888 11.5478 0.258928 11.622 0.252068C11.6965 0.245254 11.8935 0.248474 11.9599 0.257928C12.0259 0.26733 11.9985 0.298299 12.0097 0.305779C12.1059 0.366472 12.3321 0.283283 12.3632 0.280388C12.8978 0.244789 13.3566 0.293221 13.8584 0.293084C14.2392 0.292876 14.6464 0.277239 15.0088 0.279412C15.4405 0.282163 15.8071 0.303657 16.2265 0.29992C16.27 0.299276 16.2188 0.252669 16.2724 0.252068C16.8468 0.24658 17.4173 0.251486 17.9892 0.283318C18.0466 0.286553 17.9729 0.327415 18.0302 0.333123C18.3811 0.367158 18.9361 0.448962 19.1445 0.26867C19.3822 0.27571 19.6711 0.283107 19.8838 0.319451C20.0203 0.34285 19.8876 0.388442 20.0556 0.369256C20.0936 0.364967 20.0446 0.324848 20.1015 0.321404C20.3413 0.306963 20.6036 0.320326 20.8408 0.29992C20.8879 0.295582 20.8759 0.261072 20.8886 0.254021C21.0035 0.202395 21.1956 0.286882 21.2373 0.293084C21.5546 0.339279 21.7864 0.321265 22.082 0.322381C22.1506 0.322662 22.0699 0.275047 22.1357 0.273553C22.4783 0.266738 22.8334 0.271008 23.1689 0.292107C23.2434 0.296946 23.1753 0.337544 23.2109 0.341912C23.3678 0.360494 23.403 0.284382 23.5537 0.300896C23.585 0.304509 23.5674 0.339095 23.5732 0.342888C23.6635 0.402124 23.7419 0.318118 23.7656 0.315545C24.0608 0.289995 24.2499 0.378823 24.5351 0.366326C24.5692 0.364741 24.4926 0.321365 24.5879 0.319451C25.2269 0.307339 25.9035 0.318537 26.5361 0.353631C26.6342 0.359061 26.5641 0.392539 26.5703 0.396599C26.6711 0.459969 26.7365 0.375388 26.7685 0.372185C27.0215 0.349142 27.2578 0.419781 27.4296 0.318474C28.5011 0.353634 29.5682 0.297046 30.6308 0.38781C30.6433 0.389823 30.62 0.430706 30.6464 0.432732C30.971 0.456254 30.9092 0.391268 31.124 0.311638C31.178 0.292162 31.3401 0.38655 31.3564 0.394646C31.4095 0.420615 31.3552 0.482391 31.373 0.48742C31.5197 0.526604 31.4961 0.321471 31.6943 0.321404C31.6988 0.323456 31.6748 0.359327 31.6904 0.363396C31.7421 0.375239 31.7941 0.360103 31.8447 0.373162C31.9602 0.40349 32.002 0.503657 32.1787 0.445428C32.2006 0.437079 32.1673 0.320785 32.3437 0.326287C32.4146 0.328578 32.7269 0.326529 32.8144 0.334099C32.9009 0.341677 32.8423 0.378891 32.8476 0.380974C33.0833 0.430794 32.9942 0.451748 33.1123 0.525506C33.2298 0.598427 33.1974 0.42353 33.2451 0.403435C33.2932 0.383971 33.4658 0.425197 33.5088 0.439568C33.5512 0.453857 33.4985 0.478342 33.5361 0.486443C33.7863 0.539294 33.6461 0.399037 33.7285 0.371209C33.9228 0.305376 34.0741 0.43552 34.2519 0.448357C34.3 0.45179 34.2612 0.42192 34.3037 0.41906C34.4733 0.408498 34.5757 0.449236 34.7685 0.412224C34.8001 0.406171 34.9565 0.327849 35.0576 0.384881C35.0719 0.393135 35.0317 0.425398 35.1035 0.432732C35.2116 0.44362 35.4072 0.451371 35.5234 0.440545C35.6084 0.432406 35.5107 0.379171 35.6181 0.395623C35.6661 0.403026 35.5778 0.434124 35.6679 0.445428C35.7579 0.456679 35.987 0.455293 36.0742 0.454217C36.1586 0.45305 36.1159 0.414767 36.1201 0.410271C36.1625 0.394706 36.3288 0.375211 36.3447 0.375115C37.0898 0.370173 37.7774 0.437739 38.5029 0.415154C38.5593 0.413266 38.5216 0.370932 38.5302 0.370232C38.7251 0.352355 38.5718 0.466032 38.708 0.504021C38.6883 0.417473 38.7682 0.433388 38.9052 0.423943C38.9702 0.419377 38.9369 0.386353 38.9414 0.381951C39.0395 0.331002 39.1083 0.396809 39.1259 0.410271C39.1909 0.459582 39.2614 0.401611 39.3056 0.434685C39.3494 0.467537 39.2483 0.515387 39.3798 0.514763C39.4161 0.483614 39.3192 0.402883 39.4189 0.389763C39.7961 0.340084 40.5004 0.403666 40.8037 0.410271C41.106 0.416859 41.2038 0.411795 41.3798 0.422967C41.6984 0.44323 41.5824 0.383105 41.7802 0.355584C41.9782 0.32825 41.8816 0.476141 41.9101 0.507928C41.938 0.539448 41.9691 0.506191 42.0039 0.523553C42.0386 0.541018 41.9634 0.562884 42.0449 0.569451C42.1265 0.576003 42.3498 0.5197 42.3789 0.486443C42.4401 0.415994 42.3395 0.342299 42.5556 0.368279C42.5678 0.369994 42.5278 0.40825 42.5752 0.412224C42.9532 0.442171 43.346 0.444332 43.7236 0.470818C43.7754 0.474543 43.7295 0.517979 43.7597 0.520623C44.0738 0.54818 43.9614 0.474672 44.1338 0.39367C44.095 0.501538 44.1908 0.567837 44.4296 0.568474C44.573 0.568848 44.5487 0.521584 44.6416 0.488396C44.67 0.478842 44.7707 0.510444 44.789 0.488396C44.8494 0.416054 44.7543 0.335163 45 0.367303C45.0107 0.368832 44.9769 0.40862 45.0136 0.411248C45.2549 0.42696 45.2842 0.351106 45.5449 0.341912C45.7493 0.334715 46.1129 0.381255 46.3457 0.388787C46.3413 0.509582 46.5613 0.482073 46.6504 0.398553C46.8013 0.401962 46.9644 0.396772 47.1103 0.408318C47.1602 0.412227 47.1281 0.447034 47.1338 0.451287C47.2307 0.510646 47.2964 0.429485 47.3291 0.425896C47.6825 0.394894 47.9713 0.456856 48.3086 0.396599C48.3206 0.392335 48.3407 0.311498 48.4296 0.372185C48.4307 0.377718 48.3276 0.41416 48.4824 0.417107C48.6411 0.420078 48.9408 0.465909 49.1611 0.426873C49.2145 0.417391 49.3489 0.349166 49.457 0.402459C49.4714 0.409714 49.4557 0.433936 49.4765 0.447381C49.5438 0.49018 49.5811 0.404378 49.6601 0.476678C49.7392 0.549011 49.9038 0.603733 50.1259 0.553826C50.1338 0.551171 50.1858 0.484628 50.2548 0.485467C50.3664 0.487228 50.5251 0.501531 50.6416 0.501092C50.6965 0.500843 50.6626 0.460032 50.6709 0.458123C51.0458 0.43464 51.3131 0.472182 51.7148 0.488396C51.7885 0.491424 52 0.434438 52.1425 0.479607C52.299 0.529101 52.1383 0.73467 52.498 0.685662C52.6431 0.666056 52.8271 0.404925 53.0879 0.540154C53.5935 0.506686 54.0612 0.576274 54.5683 0.528435C54.5912 0.526219 54.6632 0.453241 54.7168 0.454217C54.7962 0.455825 54.8398 0.4899 54.8964 0.492303C55.1346 0.502558 55.3533 0.473123 55.583 0.477654C55.6697 0.479382 55.6395 0.514713 55.7431 0.516717C55.847 0.518651 55.9168 0.471867 56.0576 0.494256C56.1638 0.511408 56.2701 0.60623 56.4111 0.617303C56.4165 0.523901 56.5134 0.525712 56.6855 0.501092C56.7186 0.496307 56.6836 0.464039 56.6992 0.460076C56.763 0.44331 56.8222 0.469538 56.8828 0.451287C56.8971 0.446429 56.8982 0.415605 56.9101 0.410271C57.0125 0.363356 57.1808 0.434828 57.2099 0.447381C57.3209 0.494825 57.3729 0.453191 57.458 0.471795C57.543 0.490488 57.4162 0.514162 57.5156 0.525506C57.7214 0.548934 57.9863 0.543571 58.1953 0.545037C58.2781 0.545287 58.2214 0.503 58.2334 0.502068C58.4059 0.491269 58.5801 0.53615 58.6757 0.451287C58.7953 0.670658 58.78 0.430983 59.0263 0.474724C59.0457 0.478277 59.0706 0.58156 58.9961 0.596795C58.9215 0.611957 58.8085 0.579895 58.705 0.603631C58.6805 0.609312 58.542 0.704985 58.5214 0.712029C58.3722 0.757828 58.3498 0.6048 58.3418 0.594842C58.2518 0.502956 58.0804 0.607072 58.0351 0.614373C57.8286 0.647517 57.6532 0.625936 57.4804 0.649529C57.3675 0.664811 57.356 0.766629 57.2675 0.763787C56.9725 0.75351 56.8688 0.611626 56.5908 0.73449C56.5317 0.760953 56.5902 0.871435 56.3769 0.784295C56.3626 0.778335 56.2046 0.698786 56.1132 0.749138C56.1018 0.755538 56.102 0.788414 56.0869 0.791131C55.9853 0.808622 55.9173 0.782702 55.8066 0.795037C55.6959 0.807372 55.5629 0.825482 55.4365 0.814568C55.3603 0.808011 55.2621 0.748334 55.2255 0.733513C55.1225 0.691026 55.0121 0.760389 54.9482 0.709099C54.8838 0.657356 55.0096 0.57847 54.8408 0.545037C54.8345 0.62906 54.8206 0.715418 54.8105 0.79992C54.4406 0.79696 54.0762 0.769848 53.705 0.773553C53.659 0.774097 53.7055 0.819655 53.6562 0.821404C53.4482 0.828529 53.2665 0.795889 53.0507 0.808709C52.8836 0.818812 52.7001 0.866967 52.5254 0.879021C52.4186 0.782998 52.1599 0.815492 51.9716 0.806756C51.9059 0.803728 51.9097 0.778106 51.8632 0.769646C51.6866 0.738718 51.7685 0.823365 51.7207 0.837029C51.5125 0.894103 51.4942 0.701543 51.249 0.70617C51.236 0.706356 51.0765 0.809158 51.0546 0.815545C50.9162 0.856929 51.0313 0.780409 50.9453 0.772576C50.7864 0.758737 50.6755 0.733834 50.4892 0.763787C50.4348 0.772684 50.3038 0.836668 50.1982 0.787224C50.1845 0.780573 50.1918 0.74721 50.1806 0.745232C49.9785 0.712304 49.973 0.818552 49.8574 0.854607C49.7422 0.890309 49.5647 0.81754 49.5273 0.796013C49.4335 0.741963 49.5949 0.771023 49.6045 0.766717C49.665 0.702693 49.5351 0.713533 49.4355 0.708123C49.4209 0.604075 49.2818 0.610497 49.332 0.70324C49.3377 0.713377 49.4153 0.703413 49.4355 0.708123C49.3481 0.810523 49.1952 0.824176 49.0263 0.728631C48.9472 0.683751 49.0216 0.631363 48.7812 0.650506C48.6724 0.659224 48.7143 0.730522 48.6181 0.750115C48.3982 0.794835 48.1124 0.727827 47.8857 0.738396C47.8035 0.742254 47.8833 0.78227 47.8271 0.786248C47.678 0.79686 47.5462 0.767223 47.3964 0.782342C47.3836 0.784251 47.4158 0.824547 47.3701 0.82531C47.0168 0.830095 46.7087 0.803586 46.3398 0.802849C46.1616 0.802515 45.8428 0.824988 45.6582 0.820428C45.3381 0.812752 44.9443 0.753137 44.6709 0.767693C44.4926 0.777016 44.5314 0.81774 44.455 0.845818C44.3076 0.900182 44.0468 0.803296 44.0117 0.788201C44.0106 0.787701 44.1639 0.778107 44.082 0.756951C44.0344 0.712887 44.0134 0.78801 44.0117 0.788201C43.9886 0.778448 43.6819 0.768604 43.6211 0.776482C43.5884 0.780845 43.6063 0.819324 43.5898 0.821404C43.18 0.856342 42.7691 0.866991 42.3535 0.848748C42.3462 0.84796 42.3569 0.804302 42.3398 0.802849C42.0991 0.783429 41.9445 0.836556 41.7461 0.868279C41.5479 0.899886 41.3908 0.889353 41.2734 0.814568C41.1237 0.824005 40.9088 0.79074 40.7851 0.770623C40.6615 0.750509 40.6437 0.835348 40.6328 0.837029C40.2938 0.890716 40.0978 0.842664 39.7461 0.835076C39.5787 0.83133 39.2466 0.843357 39.0654 0.852654C38.9223 0.860141 38.8359 0.839942 38.7041 0.852654C38.6862 0.854356 38.7037 0.892212 38.6982 0.89367C38.5514 0.938699 38.6221 0.846708 38.5918 0.830193C38.4815 0.77009 38.4131 0.738442 38.2246 0.766717C38.1807 0.773903 38.0546 0.906304 37.9755 0.914178C37.8726 0.924054 37.9112 0.87638 37.8037 0.88781C37.7945 0.888756 37.796 0.918375 37.7295 0.917107C37.4202 0.911464 37.083 0.893648 36.7617 0.896599C36.7179 0.896889 36.7739 0.944106 36.7109 0.945428C36.4133 0.950968 36.0868 0.94875 35.7968 0.926873C35.7257 0.92133 35.7702 0.888778 35.7548 0.879021C35.6602 0.820496 35.5261 0.904967 35.5029 0.907342C34.9721 0.948392 34.5654 0.870535 34.0244 0.907342C33.9948 0.909572 33.7681 1.00147 33.667 0.922967C33.6589 0.916862 33.5596 0.838092 33.4716 0.892693C33.4687 0.897431 33.5265 0.93683 33.4199 0.932732C33.3111 0.928527 33.1358 0.956637 32.9863 0.911248C32.9389 0.89693 32.8268 0.816103 32.6855 0.879998C32.6758 0.884819 32.4587 1.02887 32.3808 0.929803C32.3682 0.913404 32.3811 0.807589 32.2129 0.861443C32.1807 0.871917 32.2387 0.895576 32.1543 0.910271C32.0243 0.932901 31.8521 0.905394 31.6923 0.952263C31.6645 0.960581 31.5453 1.03193 31.4502 0.977654C31.4353 0.969143 31.4633 0.933744 31.413 0.929803C31.1742 0.910948 30.9241 0.934588 30.6816 0.910271C30.5956 0.90171 30.6394 0.844473 30.5498 0.829217C30.4601 0.813967 30.2793 0.799297 30.1855 0.82531C30.0923 0.85145 30.194 0.942081 30.0537 0.949334C29.4431 0.980825 28.8382 0.927833 28.2285 0.920037C28.138 0.918874 28.2124 0.951647 28.0791 0.952263C27.5875 0.954693 26.7388 0.985102 26.3125 0.916131C25.9717 0.860938 26.4006 0.818501 26.1406 0.796013C26.0149 0.785317 25.8785 0.889785 25.8476 0.89367C25.5505 0.927405 25.3436 0.881286 25.0761 0.895623C25.0212 0.898676 25.0752 0.941393 25.0283 0.943474C24.8679 0.950883 24.6992 0.931232 24.5459 0.934685C24.477 0.93635 24.4891 0.969432 24.4257 0.966912C24.2745 0.961256 24.1406 0.947634 23.9931 0.917107C23.9797 0.914318 24.0701 0.873697 23.958 0.872185C23.7766 0.869856 23.5514 0.839116 23.3427 0.870232C23.2809 0.879598 23.278 0.954534 23.1455 0.903435C23.1176 0.892678 23.1527 0.802873 22.998 0.879998C22.9719 0.892865 22.7108 0.997126 22.583 0.929803C22.5491 0.911932 22.463 0.839195 22.3886 0.850701C22.3792 0.852956 22.4188 0.892711 22.3574 0.896599C22.1399 0.90968 21.9119 0.905531 21.6884 0.918084C21.6288 0.921513 21.7174 0.962078 21.6289 0.965935C21.3844 0.976415 21.0789 0.966216 20.8398 0.95324C20.7516 0.948374 20.812 0.914011 20.8056 0.910271C20.7025 0.849633 20.6416 0.931854 20.6074 0.936638C20.3945 0.965289 20.2323 0.926479 20.0361 0.936638C19.9823 0.939332 20.0198 0.978585 20.0097 0.982537C19.898 1.01661 19.9806 0.946456 19.9101 0.938592C19.7118 0.916653 19.4906 0.918942 19.29 0.923943C19.2165 0.925834 19.2987 0.971404 19.2334 0.972771C18.842 0.980593 18.4346 0.97631 18.0527 0.951287C17.9809 0.946465 18.0257 0.911414 18.0107 0.903435C17.9075 0.848022 17.7566 0.923419 17.7216 0.930779C17.5634 0.96388 17.5018 0.933881 17.3623 0.939568C16.6789 0.968292 15.8344 0.947333 15.1894 0.934685C14.349 0.918407 13.6969 0.885039 12.8955 0.89367C12.8445 0.894175 12.8954 0.940489 12.8515 0.941521C12.2847 0.952714 11.7261 0.93493 11.1582 0.948357C11.1125 0.949669 11.1789 0.993078 11.1045 0.996209C10.951 1.00291 10.7567 1.0005 10.6015 0.986443C10.5258 0.979662 10.6269 0.941715 10.5507 0.935662C10.3734 0.921498 10.1831 0.918833 10.0009 0.925896C9.92389 0.929086 10.0401 0.974205 9.93941 0.974724C9.25299 0.979197 8.57839 0.987193 7.88473 0.928826C7.83733 0.924339 7.79515 0.833179 7.6943 0.850701C7.68683 0.875979 7.68781 0.905757 7.68453 0.932732C6.6851 0.947372 5.69555 0.916161 4.69332 0.911248C4.65113 0.911052 4.72371 0.959073 4.64254 0.959099C4.16907 0.958382 3.70887 0.972177 3.22457 0.923943C3.17652 0.919225 3.20107 0.833914 3.05953 0.846795C3.03455 0.849152 2.82074 0.860481 2.76559 0.879021C2.7606 0.883614 2.79538 0.920859 2.72848 0.92199C2.32911 0.928038 1.91035 0.919 1.51168 0.894646C1.44801 0.890544 1.51561 0.849262 1.47066 0.845818C1.14553 0.823283 0.791108 0.855066 0.48043 0.816521C0.272964 0.790525 0.349655 0.716834 0.239219 0.644646C0.222557 0.634589 0.0944785 0.632754 0.0878522 0.590935C0.0709024 0.485327 0.133932 0.369502 0.10836 0.256951C0.102733 0.232773 -0.06982 0.258892 0.0321881 0.20031C0.0393164 0.196389 0.164367 0.177217 0.195274 0.157342C0.216693 0.143604 0.17811 0.10076 0.221641 0.0831229C0.265333 0.0655564 0.31332 0.10072 0.385704 0.0801932C0.458163 0.0592647 0.426709 0.0107914 0.571251 0.00499786ZM40.2285 0.680779C40.1141 0.639969 40.0971 0.789597 40.2207 0.754021C40.2266 0.752135 40.234 0.684174 40.2285 0.680779ZM54.0781 0.657342C53.9284 0.591381 53.826 0.688431 53.9316 0.739373C54.0371 0.790199 54.1236 0.67735 54.0781 0.657342ZM55.6298 0.608513C55.4552 0.5568 55.428 0.768549 55.6152 0.725701C55.626 0.720731 55.6399 0.611497 55.6298 0.608513ZM0.655235 0.622185C0.605945 0.669681 0.791362 0.673519 0.751915 0.624138C0.748962 0.622169 0.657446 0.620233 0.655235 0.622185ZM57.1699 0.556756C57.1153 0.528069 56.9585 0.561123 57.0263 0.596795C57.0813 0.625138 57.2375 0.592344 57.1699 0.556756ZM34.2568 0.520623C34.2516 0.518479 34.1891 0.517166 34.1904 0.529412C34.1949 0.569973 34.2868 0.558103 34.2568 0.520623ZM59.5869 0.39074C59.663 0.394311 59.4235 0.446155 59.5195 0.462029C59.6971 0.490801 59.8158 0.38063 59.997 0.439568C60.0287 0.450742 59.8088 0.554425 59.7861 0.553826C59.4002 0.545531 59.1666 0.371084 59.5869 0.39074ZM40.0664 0.499138C40.0166 0.546615 40.201 0.550482 40.1621 0.501092C40.1564 0.499208 40.0725 0.49744 40.0664 0.499138ZM30.1591 0.423943C30.048 0.501519 30.4784 0.510181 30.3847 0.428826C30.3797 0.424617 30.1666 0.420083 30.1591 0.423943Z" fill="#C2AE87"/>
</svg>