<svg width="16" height="16" viewBox="0 0 16 16" fill="none" xmlns="http://www.w3.org/2000/svg">
<path d="M6.44515 4.03811C6.85089 4.06456 7.25761 4.08301 7.67073 4.10354C7.9244 4.11608 8.2329 4.19243 8.49495 4.15921C8.52555 4.15524 8.50769 4.0813 8.51351 4.07522C8.6046 3.98245 8.57455 4.13011 8.63362 4.15042C8.87015 4.22844 9.13351 4.23546 9.36116 4.20706C9.45804 4.19474 9.36127 4.04872 9.45882 4.13089C9.46486 4.13792 9.44133 4.21443 9.46761 4.22269C9.52767 4.24136 9.64133 4.22739 9.68831 4.23343C9.77829 4.24577 9.79366 4.24523 9.87874 4.24612C9.99511 4.24802 10.1338 4.28729 10.2586 4.26956C10.2849 4.26528 10.2499 4.18483 10.2918 4.17093C10.3344 4.1573 10.4472 4.16471 10.4852 4.18362C10.5231 4.20254 10.5068 4.26585 10.5135 4.2803C10.5686 4.4012 10.6979 4.2343 10.7157 4.22854C11.021 4.15735 11.2835 4.25421 11.5701 4.25394C11.7859 4.2535 12.0168 4.22188 12.2225 4.22561C12.2244 4.22564 12.2264 4.22558 12.2284 4.22561C12.5371 4.23421 12.7842 4.32988 13.0555 4.43265L13.0584 4.4346C13.0874 4.44604 13.0903 4.3441 13.1268 4.35843C13.3924 4.46507 13.6342 4.6335 13.8182 4.84964C13.904 4.95027 13.9775 5.06116 14.035 5.17874C14.0524 5.21556 13.956 5.22016 13.9686 5.25882C14.0101 5.38191 14.0314 5.54687 14.0838 5.67483C14.1334 5.79353 14.2141 5.88645 14.3992 5.91604C14.4274 6.08459 14.4348 6.29584 14.3612 6.44241C14.3606 6.44352 14.3598 6.44527 14.3592 6.44632C14.3119 6.51966 14.2245 6.44707 14.2625 6.54202C14.2715 6.56329 14.3499 6.53548 14.3573 6.56741C14.3862 6.70443 14.3604 6.85472 14.4012 6.99026C14.4099 7.01741 14.4796 7.01006 14.493 7.01761C14.5963 7.08326 14.4253 7.193 14.4129 7.21683C14.3207 7.39798 14.3575 7.5305 14.3553 7.69925C14.3547 7.73847 14.4491 7.69276 14.452 7.7305C14.4656 7.92613 14.458 8.12879 14.4159 8.32034C14.4063 8.36275 14.3257 8.32415 14.3162 8.34378C14.2787 8.43361 14.4313 8.45392 14.3983 8.54007C14.3913 8.55797 14.3235 8.54864 14.3153 8.55179C14.1963 8.60337 14.3636 8.64757 14.369 8.66116C14.42 8.82968 14.2428 8.93793 14.2674 9.10062C14.2706 9.12011 14.3586 9.07706 14.3621 9.13187C14.3863 9.49688 14.362 9.88288 14.2918 10.2442C14.2812 10.2994 14.2176 10.2616 14.2078 10.2637C14.0812 10.3212 14.2495 10.3586 14.2567 10.377C14.3028 10.5215 14.1605 10.6567 14.3631 10.7549C14.3067 11.2461 14.3686 11.7358 14.3016 12.2237C14.2851 12.3639 14.2466 12.501 14.1844 12.626C14.1806 12.634 14.1018 12.6028 14.0946 12.6182C14.0028 12.8009 14.138 12.7908 14.2391 12.9844C14.2485 13.0036 14.2201 13.0223 14.1815 13.0352C14.121 13.0558 14.0355 13.0622 14.0252 13.0635C13.9642 13.0716 13.8666 12.9882 13.8524 12.9932C13.7448 13.0328 14.119 13.2084 14.0496 13.3291C14.0469 13.3323 13.9905 13.2786 13.9784 13.2842C13.9409 13.3008 13.9479 13.3452 13.908 13.3584C13.8138 13.3885 13.6426 13.285 13.6659 13.4395C13.6679 13.4597 13.8634 13.5938 13.7733 13.6768C13.7635 13.6854 13.7455 13.7033 13.7235 13.7246C13.6642 13.7832 13.5676 13.8644 13.5262 13.8819C13.4715 13.9052 13.4577 13.8241 13.452 13.8213C13.2718 13.831 13.2928 13.763 13.1561 13.6778C13.0241 13.5872 13.2215 13.8762 13.2147 13.9258C13.2074 13.976 13.0706 13.9546 13.036 13.9385C13.0011 13.9233 13.009 13.8666 12.9823 13.8614C12.9345 13.8518 12.914 13.8601 12.908 13.8799C12.8915 13.9329 12.9842 14.067 12.9637 14.1192C12.8867 14.29 12.7088 14.0711 12.6043 14.0664C12.5744 14.0655 12.6089 14.1184 12.5838 14.1289C12.4815 14.1686 12.4121 14.0961 12.2967 14.1758C12.2871 14.1822 12.2589 14.2257 12.2225 14.252C12.1908 14.278 12.1536 14.2886 12.1248 14.2315C12.1168 14.2148 12.1398 14.1503 12.0985 14.1358C12.0366 14.1141 11.9255 14.0995 11.8592 14.1211C11.8105 14.1373 11.8661 14.2441 11.8045 14.211C11.7778 14.1959 11.8278 14.134 11.7772 14.1114C11.7259 14.0888 11.5946 14.0916 11.5448 14.0938C11.4958 14.0959 11.5214 14.174 11.5184 14.1817C11.4941 14.2129 11.3979 14.2521 11.3895 14.252C10.9639 14.2618 10.5714 14.1258 10.1571 14.1709C10.1251 14.1744 10.1455 14.2569 10.1414 14.2608C10.0302 14.2965 10.1173 14.0703 10.0399 13.9942C10.051 14.1669 10.005 14.1353 9.92659 14.1543C9.88897 14.1637 9.90953 14.2315 9.90608 14.2383C9.85032 14.3392 9.81081 14.2091 9.80062 14.1817C9.76349 14.0826 9.72334 14.199 9.69808 14.1328C9.67305 14.0672 9.73087 13.9697 9.65608 13.9707C9.63499 14.0327 9.69068 14.1954 9.63362 14.2217C9.41819 14.321 9.01597 14.194 8.84261 14.1807C8.66968 14.1675 8.6133 14.1787 8.51253 14.1563C8.33117 14.116 8.39745 14.236 8.28499 14.291C8.17164 14.3461 8.22609 14.05 8.2098 13.9864C8.19383 13.9233 8.17692 13.988 8.15706 13.9532C8.13751 13.9184 8.17946 13.8756 8.13362 13.8623C8.08704 13.8492 7.95912 13.9618 7.94222 14.0283C7.90727 14.1692 7.96482 14.3173 7.84163 14.2657C7.83453 14.2626 7.85711 14.1846 7.82991 14.1768C7.614 14.117 7.3893 14.1135 7.17366 14.0606C7.14471 14.0527 7.17056 13.9674 7.15413 13.961C6.97433 13.9056 7.03783 14.0518 6.93929 14.2139C6.96141 13.9982 6.9068 13.8656 6.77034 13.8643C6.6889 13.8638 6.70297 13.9582 6.65023 14.0244C6.63431 14.0445 6.57578 13.9801 6.56526 14.0244C6.53077 14.1691 6.58517 14.3306 6.44515 14.2666H6.44417C6.44201 14.2649 6.4437 14.2542 6.44515 14.2412C6.44687 14.2236 6.44906 14.201 6.44515 14.1885C6.44347 14.1837 6.44041 14.1807 6.43636 14.1797C6.28753 14.1446 6.25838 14.2956 6.07991 14.2862C5.96289 14.2791 5.79407 14.1679 5.67366 14.084C5.64976 14.0679 5.62742 14.0525 5.60628 14.0401C5.70711 13.8209 5.57653 13.8191 5.44222 13.9326C5.36317 13.8787 5.27199 13.8268 5.21468 13.751C5.19507 13.7249 5.25598 13.6832 5.25765 13.6748C5.28946 13.5476 5.15527 13.6436 5.1346 13.6338C5.11228 13.6224 5.09168 13.6092 5.07308 13.5948C4.92066 13.4732 4.89521 13.2984 4.71077 13.1885C4.70382 13.1846 4.54803 13.2524 4.62972 13.1426C4.63601 13.1361 4.73518 13.1627 4.69612 13.0713C4.6843 13.0426 4.67653 13.0021 4.66976 12.958C4.65421 12.8603 4.64536 12.747 4.5721 12.669C4.54636 12.6437 4.39367 12.5815 4.49007 12.4961C4.50327 12.4852 4.55205 12.4878 4.57698 12.4717C4.65693 12.4221 4.4853 12.4167 4.62581 12.3575C4.71004 12.3231 4.7808 12.2773 4.80452 12.2237C4.82026 12.1845 4.81396 12.1386 4.77425 12.0879C4.77135 12.0839 4.63647 12.0536 4.63851 12.0137C4.64203 11.95 4.66963 11.8595 4.66878 11.793C4.66831 11.7611 4.58438 11.781 4.58284 11.7754C4.5361 11.5615 4.61099 11.409 4.64339 11.1797C4.64946 11.1376 4.53547 11.017 4.62581 10.9356C4.72488 10.8464 5.13541 10.9376 5.03792 10.7325C4.99872 10.6496 4.47669 10.5445 4.7469 10.3955C4.67991 10.1067 4.81796 9.83946 4.72249 9.54983C4.71827 9.53685 4.57415 9.49547 4.57503 9.46487C4.57826 9.41939 4.64574 9.39383 4.65023 9.36136C4.67065 9.22536 4.61285 9.10089 4.6219 8.96976C4.62525 8.92002 4.69512 8.93734 4.69905 8.87796C4.70289 8.8186 4.61034 8.77871 4.65511 8.69827C4.68943 8.63755 4.87913 8.57672 4.9012 8.49612C4.71449 8.49305 4.71795 8.43812 4.66878 8.33987C4.65921 8.32095 4.59366 8.34101 4.58577 8.33206C4.55254 8.29575 4.60612 8.26204 4.57015 8.22757C4.56152 8.21928 4.49933 8.21852 4.48714 8.21194C4.39313 8.15344 4.53636 8.05662 4.56136 8.04007C4.65604 7.97678 4.57339 7.94694 4.61019 7.89847C4.64757 7.84988 4.69492 7.92202 4.71761 7.86526C4.76434 7.74776 4.75376 7.59688 4.75667 7.47757C4.75745 7.4299 4.6726 7.46193 4.67073 7.45511C4.64931 7.35663 4.73961 7.2568 4.57015 7.20218C5.0086 7.13388 4.52723 7.14286 4.61507 7.00198C4.62233 6.99089 4.82965 6.97701 4.86019 7.01956C4.89063 7.06217 4.82636 7.12646 4.87386 7.18558C4.88555 7.19974 5.07839 7.27994 5.09065 7.29104C5.18273 7.37676 4.87234 7.38905 4.8553 7.39358C4.67222 7.44504 4.88185 7.5426 4.89632 7.56839C4.96261 7.68641 4.91836 7.78705 4.96565 7.88577C4.99617 7.95017 5.19818 7.95656 5.19319 8.00686C5.17264 8.17545 4.88985 8.23472 5.13558 8.39358C5.18835 8.42741 5.40922 8.39391 5.23519 8.51565C5.22418 8.52332 5.06482 8.61466 5.16585 8.66702C5.17971 8.67329 5.24192 8.67326 5.24788 8.68167C5.28304 8.73979 5.23198 8.77851 5.25667 8.84183C5.28136 8.90512 5.31767 8.98148 5.29573 9.05374C5.28211 9.09725 5.16209 9.15306 5.13265 9.17386C5.04818 9.23261 5.18676 9.29558 5.0848 9.33206C4.98131 9.36885 4.82354 9.29712 4.75667 9.39358C4.92474 9.39715 5.09741 9.40542 5.26644 9.41116C5.26052 9.62256 5.20627 9.8309 5.2137 10.043C5.21555 10.0687 5.30495 10.0423 5.30843 10.0703C5.32274 10.1891 5.25858 10.2929 5.28401 10.416C5.30422 10.5115 5.40053 10.617 5.42464 10.7168C5.23226 10.7778 5.29769 10.9256 5.28011 11.0332C5.27404 11.0707 5.22294 11.0684 5.20589 11.0948C5.14389 11.1959 5.3139 11.1491 5.34065 11.1768C5.45378 11.2954 5.06944 11.3062 5.07894 11.4463C5.08332 11.4553 5.28504 11.5443 5.29769 11.5567C5.38042 11.6357 5.22663 11.5702 5.21077 11.6192C5.18309 11.7099 5.13424 11.7735 5.19417 11.8799C5.21196 11.911 5.3397 11.9856 5.24105 12.0459C5.22818 12.0538 5.16086 12.0495 5.15608 12.0557C5.12612 12.1081 5.15353 12.1377 5.19905 12.1602L5.37483 12.2334C5.44677 12.2695 5.30536 12.3388 5.26546 12.3604C5.16241 12.4101 5.21497 12.3382 5.20589 12.336C5.0762 12.3219 5.1016 12.3763 5.09749 12.4209C4.89179 12.4569 4.9163 12.5245 5.09456 12.4668C5.11379 12.4609 5.09006 12.4315 5.09749 12.4209C5.30634 12.431 5.33883 12.465 5.17366 12.585C5.09761 12.6425 4.9851 12.6425 5.0594 12.7383C5.08619 12.7708 5.1681 12.7349 5.22737 12.7276C5.2449 12.7253 5.26054 12.7258 5.2723 12.7305C5.38716 12.7734 5.32673 12.9364 5.40413 13.0039C5.43078 13.026 5.47306 12.9532 5.493 12.9649C5.5393 12.9931 5.53671 13.0582 5.58187 13.0869C5.58707 13.0902 5.59291 13.0928 5.59944 13.0948C5.6051 13.0963 5.6539 13.0291 5.66683 13.0401C5.76467 13.1194 5.82873 13.2279 5.95589 13.2891C5.9676 13.2946 5.98209 13.299 5.99788 13.3028C6.06459 13.3192 6.15474 13.3171 6.20589 13.335C6.27644 13.3605 6.35906 13.4235 6.44515 13.4522C6.51304 13.4681 6.57713 13.4762 6.63265 13.4658C6.73453 13.4472 6.71204 13.3648 6.75569 13.3086C6.83995 13.2 6.98953 13.3956 7.0096 13.4258C7.00689 13.4275 6.9237 13.4468 6.96956 13.4883C6.99592 13.5734 7.00802 13.4342 7.0096 13.4258C7.02462 13.4451 7.1968 13.4636 7.23226 13.4483C7.25115 13.4397 7.24096 13.3614 7.25081 13.3584C7.48494 13.2886 7.71941 13.2682 7.95687 13.3047C7.96104 13.3063 7.95487 13.3938 7.96468 13.3965C8.10218 13.4354 8.19014 13.3281 8.30355 13.2647C8.41692 13.2013 8.50694 13.2231 8.57405 13.3731C8.65961 13.3542 8.78272 13.4198 8.85335 13.46C8.92314 13.4997 8.93306 13.3341 8.93929 13.3272C9.13313 13.2196 9.246 13.3169 9.4471 13.3321C9.54282 13.3395 9.73238 13.3145 9.83577 13.2959C9.91732 13.2811 9.96666 13.3212 10.0418 13.2959C10.0518 13.2926 10.0422 13.2194 10.0448 13.2139C10.1287 13.1235 10.0892 13.3071 10.1063 13.3408C10.1692 13.461 10.2077 13.5251 10.3153 13.4688C10.3401 13.4559 10.4125 13.1907 10.4578 13.1739C10.5167 13.1541 10.495 13.2495 10.5565 13.2266C10.5617 13.2247 10.5608 13.1658 10.5985 13.168C10.7751 13.1793 10.9686 13.2139 11.1522 13.208C11.1764 13.2064 11.1451 13.1143 11.1805 13.1114C11.3505 13.1003 11.5373 13.1037 11.703 13.1475C11.7436 13.1585 11.7188 13.2235 11.7274 13.2432C11.7813 13.3598 11.8573 13.1934 11.8709 13.1875C11.9967 13.1535 12.1107 13.1597 12.2225 13.1739C12.3052 13.194 12.402 13.218 12.4862 13.1494C12.4981 13.1416 12.4949 12.9507 12.5789 13.085L12.5799 13.086C12.5895 13.1035 12.6792 13.2235 12.659 13.1153C12.6557 13.1067 12.6056 13.0431 12.6366 13.0362C12.6705 13.0284 12.6832 12.9579 12.7713 13.0069C12.7983 13.0243 12.9286 13.1251 12.8836 12.9961C12.8801 12.984 12.7915 12.8252 12.8241 12.8252C12.8333 12.8248 12.8524 12.8342 12.8856 12.8594C12.9113 12.8799 13.0629 13.0275 13.0213 12.9112C13.0118 12.8897 12.9644 12.8728 12.9588 12.834C12.9486 12.7765 13.0264 12.7648 12.9705 12.6758C12.9615 12.6587 12.8507 12.5653 12.9578 12.5938C12.9752 12.598 13.0341 12.6358 13.0477 12.626C13.0646 12.6137 13.0761 12.5982 13.0848 12.5811C13.1094 12.5323 13.1106 12.4768 13.1571 12.4317C13.1793 12.4093 13.288 12.4457 13.3241 12.42C13.3601 12.3945 13.3977 12.3285 13.3475 12.291C13.2971 12.2556 13.1147 12.279 13.1014 12.2383C13.0997 12.2334 13.098 12.2285 13.0965 12.2237C13.0448 11.8852 13.1459 11.5491 13.161 11.211C13.1632 11.1595 13.0977 11.2021 13.0965 11.126C13.0917 10.8453 13.0311 10.361 13.1688 10.1172C13.2793 9.92198 13.364 10.1668 13.409 10.0176C13.4293 9.94577 13.2194 9.86795 13.2127 9.85062C13.1453 9.68087 13.2385 9.56297 13.2098 9.41019C13.2038 9.37871 13.1183 9.40959 13.1141 9.38284C13.0993 9.29128 13.1375 9.19498 13.1307 9.10745C13.1274 9.06825 13.0626 9.0749 13.0672 9.03909C13.0785 8.95251 13.1056 8.87545 13.1668 8.79104C13.1727 8.78365 13.2535 8.83508 13.2567 8.77151C13.2613 8.66793 13.3217 8.53914 13.2596 8.41995C13.2408 8.38457 13.0913 8.38265 13.1942 8.30667C13.2157 8.29071 13.3949 8.3113 13.2401 8.22269C13.2136 8.20723 13.0061 8.05828 13.1405 7.98538C13.1762 7.96608 13.3218 7.91743 13.2996 7.87503C13.296 7.86926 13.2157 7.89174 13.2078 7.85647C13.1818 7.73229 13.19 7.60221 13.1649 7.47464C13.158 7.44054 13.0748 7.49128 13.0672 7.44046C13.0463 7.30071 13.0676 7.12593 13.0936 6.98929C13.1034 6.93976 13.1708 6.97353 13.1795 6.97073C13.3012 6.91178 13.1373 6.87604 13.1278 6.85647C13.0707 6.73493 13.1472 6.64238 13.1268 6.5303C13.1212 6.49958 13.0432 6.52171 13.036 6.51565C12.9678 6.45175 13.1084 6.49849 13.1239 6.45804C13.1254 6.45408 13.1273 6.4503 13.1287 6.44632C13.1677 6.38978 13.1552 6.32285 13.1346 6.26858C13.1266 6.24804 13.0419 6.28868 13.036 6.27151C13.0183 6.22439 13.0023 6.17741 12.9881 6.12894C12.9725 6.07563 12.9595 6.02019 12.95 5.95901C12.9466 5.93691 13.0113 5.90826 13.0223 5.89554C13.0946 5.80303 12.9408 5.85471 12.9246 5.85843C12.8627 5.86422 12.8704 5.83517 12.8582 5.81058C12.8548 5.80383 12.8497 5.79725 12.8416 5.793C12.7473 5.74426 12.6552 5.68726 12.5565 5.6387C12.465 5.59332 12.3674 5.55661 12.2772 5.53909C12.2588 5.53551 12.2406 5.53213 12.2225 5.52933C11.7932 5.4951 11.4423 5.43916 11.0194 5.45511C10.9909 5.45691 11.0199 5.54972 10.995 5.55179C10.671 5.5742 10.3518 5.53762 10.0272 5.56448C10.0012 5.56716 10.0389 5.65451 9.9969 5.66116C9.90921 5.67457 9.79748 5.66978 9.70882 5.64163C9.66586 5.62799 9.72356 5.55236 9.6805 5.54007C9.57914 5.51171 9.47016 5.50543 9.36605 5.51956C9.32201 5.52593 9.38842 5.61618 9.33089 5.61722C8.9387 5.62616 8.55339 5.64118 8.15706 5.52444C8.13 5.51576 8.10609 5.33399 8.04866 5.36819C8.04432 5.41896 8.04469 5.47895 8.0428 5.53323C7.50891 5.56061 6.97968 5.50735 6.44515 5.49222C6.4252 5.49117 6.4046 5.49062 6.3846 5.49124C6.37272 5.49318 6.39932 5.58752 6.37679 5.5889C6.24249 5.5997 6.14073 5.65657 5.97054 5.64456C5.95354 5.64393 5.87078 5.49379 5.84261 5.543C5.83607 5.55309 5.79153 5.61368 5.80159 5.65335C5.80426 5.65976 5.86178 5.71379 5.84749 5.72854C5.82773 5.74867 5.80745 5.76833 5.78694 5.78811C5.72014 5.85262 5.64929 5.91617 5.57112 5.9844C5.55445 5.99903 5.48932 5.94021 5.4764 5.9512C5.38245 6.03629 5.40544 6.1731 5.31331 6.26956C5.25129 6.33885 5.1094 6.29365 4.96077 6.33206C4.93976 6.33834 4.9329 6.39887 4.84944 6.40042C4.63793 6.4054 4.40804 6.35876 4.18245 6.36722C4.13308 6.36929 4.184 6.49819 4.06722 6.42093C4.05841 6.41355 4.02231 6.31809 3.98519 6.29104C3.95831 6.27264 3.87116 6.29836 3.8387 6.25979C3.80706 6.22017 3.88107 6.18672 3.84749 6.1221C3.81427 6.05617 3.71258 6.06946 3.72347 5.94046C3.7483 5.63945 3.91876 5.26985 4.10628 5.04104C4.1644 4.96891 4.18499 5.03658 4.22737 4.99026C4.31052 4.90131 4.35833 4.79592 4.45491 4.72171C4.48681 4.69852 4.51822 4.789 4.54964 4.7637C4.58982 4.73149 4.62837 4.69952 4.66585 4.66702C4.78822 4.56112 4.90469 4.45191 5.05062 4.37015C5.48432 4.12774 5.97099 4.01498 6.44515 4.03811ZM9.26351 14.003C9.2917 13.9083 9.18692 13.9007 9.20882 13.9991C9.21013 14.003 9.26225 14.0069 9.26351 14.003ZM12.6043 13.8994C12.5838 13.8214 12.5415 13.8538 12.5721 13.9239C12.5746 13.9279 12.6107 13.9237 12.6043 13.8994ZM14.1492 12.3223C13.9996 12.2513 13.9627 12.4936 14.1287 12.46C14.1386 12.4562 14.1575 12.3282 14.1492 12.3223ZM4.9803 9.82913C4.84882 9.91451 5.04247 9.97318 5.14437 9.91312C5.24614 9.85281 5.02029 9.80308 4.9803 9.82913ZM4.8846 8.94241C4.78059 9.04234 5.20471 9.05823 5.11898 8.9512C5.11409 8.94505 4.89531 8.93695 4.8846 8.94241ZM4.77913 8.06253C4.72202 8.0938 4.7889 8.18427 4.86019 8.14554C4.91723 8.11423 4.85042 8.02372 4.77913 8.06253ZM4.54671 6.44827C4.5679 6.42986 4.76816 6.55075 4.77425 6.56741C4.75828 6.78834 4.40854 6.92226 4.44808 6.68167C4.45552 6.63878 4.56 6.77574 4.59163 6.72073C4.64915 6.6193 4.42914 6.55175 4.54671 6.44827ZM4.94515 6.12503C5.03296 6.16712 5.05967 6.08598 4.9598 6.08011C4.95572 6.07994 4.94257 6.12066 4.94515 6.12503Z" fill="#7E766D"/>
<path d="M6.91166 1.68504C6.97337 1.67104 7.08274 1.76274 7.15287 1.77782C7.15139 2.02037 7.21775 1.96458 7.24466 1.79735C7.29012 1.80418 7.33937 1.79499 7.38334 1.81786C7.39847 1.82572 7.38929 1.89594 7.39115 1.90379C7.42046 2.02279 7.4399 1.86044 7.44974 1.85399C7.55638 1.79199 7.64289 1.91493 7.74466 1.79442C7.74828 1.78962 7.75465 1.62224 7.78177 1.74461C7.78353 1.75308 7.74985 1.83027 7.7974 1.83641C7.84528 1.84235 7.936 1.93206 8.00248 1.85399C8.01864 1.83456 8.05881 1.6993 8.09134 1.80516C8.09568 1.81963 8.09101 1.86807 8.0972 1.895C8.1175 1.98068 8.12901 1.81088 8.15287 1.95555C8.17673 2.09993 8.22659 2.20815 8.29349 2.10887C8.29563 2.10597 8.31147 1.971 8.33256 1.97313C8.36611 1.9767 8.41369 2.00412 8.44877 2.0034C8.46537 2.00294 8.45502 1.92108 8.45756 1.91747C8.57069 1.8705 8.65179 1.94558 8.77298 1.97801C8.79534 1.98357 8.85898 1.87028 8.90189 1.96043C8.94883 2.05995 8.90094 2.47032 9.00931 2.37254C9.05309 2.33334 9.10837 1.81117 9.18705 2.08153C9.33965 2.01451 9.48129 2.15281 9.63431 2.05711C9.64147 2.04887 9.66237 1.91014 9.67826 1.90965C9.70221 1.91287 9.71586 1.98005 9.73295 1.98485C9.80481 2.00536 9.87069 1.94747 9.93998 1.95653C9.96619 1.95995 9.95746 2.02974 9.98881 2.03368C9.9925 2.03404 9.99608 2.03364 9.99955 2.03172C10.0245 2.01747 10.0477 1.95144 10.0835 1.99266C10.1152 2.02877 10.126 2.21907 10.1538 2.24657C10.1828 2.06246 10.2093 2.06913 10.2701 2.0327C10.282 2.02574 10.2869 1.96072 10.2935 1.9536C10.322 1.92594 10.327 1.98294 10.356 1.9536C10.3631 1.9466 10.3818 1.88558 10.3892 1.87645C10.455 1.79787 10.4647 1.95574 10.4615 1.98192C10.4573 2.08315 10.5067 2.01485 10.5152 2.06102C10.521 2.10646 10.4653 2.12991 10.48 2.16356C10.5083 2.23183 10.5699 2.26338 10.6119 2.30418C10.6282 2.31968 10.672 2.24973 10.6773 2.24754C10.7323 2.26779 10.6997 2.36502 10.8462 2.27489C10.5387 2.59025 10.9009 2.27084 10.8824 2.39012C10.8802 2.39991 10.7187 2.52823 10.6822 2.53172C10.6466 2.53521 10.6778 2.47151 10.6245 2.48192C10.611 2.48315 10.4462 2.591 10.4361 2.59813C10.3524 2.64328 10.5621 2.42041 10.5738 2.40379C10.682 2.25264 10.506 2.37758 10.4917 2.38524C10.4151 2.40886 10.4087 2.35412 10.354 2.3784C10.3186 2.39493 10.2299 2.57774 10.2232 2.56786C10.2063 2.53754 10.2529 2.25503 10.149 2.48387C10.1278 2.53378 10.1003 2.75233 10.0992 2.57665C10.101 2.56565 10.0896 2.40296 10.063 2.50243C10.06 2.51523 10.0551 2.5789 10.0523 2.58446C10.034 2.6185 10.0249 2.56678 10.0044 2.59129C10.0029 2.59321 10.0012 2.59511 9.99955 2.59715C9.96783 2.62124 9.9312 2.65051 9.89603 2.63036C9.87303 2.61723 9.84357 2.49679 9.83256 2.46727C9.80152 2.38262 9.76784 2.52147 9.74857 2.41942C9.72915 2.31594 9.76726 2.15817 9.71634 2.09129C9.71446 2.25937 9.70961 2.43203 9.70658 2.60106C9.59511 2.59507 9.48541 2.54099 9.37357 2.54832C9.35975 2.54941 9.37346 2.63875 9.35892 2.64305C9.29624 2.65738 9.24127 2.59338 9.17631 2.61864C9.12589 2.63884 9.06984 2.73515 9.01713 2.75926C8.98492 2.56688 8.90696 2.63231 8.85013 2.61473C8.83041 2.60869 8.83168 2.55771 8.81791 2.54051C8.7645 2.47852 8.78958 2.64852 8.77494 2.67528C8.71224 2.78883 8.70628 2.40444 8.63236 2.41356C8.62844 2.41393 8.58037 2.61954 8.57377 2.63231C8.532 2.71499 8.5668 2.56053 8.54056 2.5454C8.49261 2.5177 8.45914 2.46872 8.40287 2.52879C8.38643 2.54676 8.34682 2.67447 8.31498 2.57567C8.3108 2.56265 8.31346 2.49467 8.31009 2.49071C8.24918 2.4249 8.24719 2.63706 8.21244 2.70946C8.17753 2.78159 8.1238 2.63465 8.11283 2.59227C8.08426 2.48295 8.13471 2.5454 8.13627 2.53465C8.15436 2.40744 8.11546 2.42894 8.08548 2.41844C8.08114 2.20957 8.03902 2.22175 8.05423 2.4077C8.05597 2.42801 8.07945 2.4089 8.08548 2.41844C8.05911 2.62312 8.01244 2.64893 7.96146 2.4575C7.93777 2.36801 7.96007 2.26374 7.88822 2.30125C7.85531 2.31854 7.86746 2.46322 7.83841 2.50243C7.77217 2.59106 7.68599 2.45728 7.61771 2.47801C7.59296 2.48566 7.61682 2.5644 7.60013 2.57274C7.55522 2.59405 7.51533 2.53522 7.47025 2.56493C7.46615 2.56777 7.47552 2.65079 7.46146 2.65184C7.35502 2.66124 7.26209 2.60838 7.15091 2.60692C7.09725 2.60635 7.00157 2.65185 6.94584 2.64305C6.8494 2.62772 6.73046 2.50794 6.64798 2.53661C6.59418 2.55524 6.60561 2.63767 6.58256 2.69383C6.53817 2.8023 6.45966 2.60851 6.44877 2.57762C6.44844 2.57663 6.49434 2.55711 6.47025 2.51512C6.45589 2.42696 6.44929 2.57724 6.44877 2.57762C6.4418 2.55812 6.34897 2.5394 6.3306 2.55516C6.32096 2.56483 6.326 2.64202 6.32084 2.645C6.19732 2.71468 6.07306 2.73421 5.94779 2.69774C5.94589 2.6922 5.94895 2.6085 5.94388 2.60594C5.8715 2.56772 5.82495 2.67445 5.76517 2.73778C5.70534 2.80115 5.65803 2.77999 5.62259 2.63036C5.57744 2.64923 5.51245 2.5827 5.47513 2.54247C5.43829 2.50273 5.43253 2.668 5.42923 2.67528C5.32689 2.78285 5.26782 2.68557 5.16166 2.6704C5.11125 2.66291 5.01131 2.68794 4.95658 2.70653C4.91337 2.72151 4.88701 2.68202 4.8472 2.7075C4.84224 2.71311 4.84687 2.78667 4.84525 2.78954C4.80115 2.87892 4.82218 2.6946 4.81302 2.66161C4.77978 2.54146 4.7595 2.47728 4.70267 2.53368C4.68959 2.54659 4.65141 2.81165 4.62748 2.8286C4.59649 2.8483 4.60782 2.75372 4.57572 2.77586C4.57294 2.77775 4.57324 2.83681 4.55326 2.83446C4.46 2.82318 4.35818 2.78855 4.26127 2.79442C4.24802 2.795 4.26478 2.88872 4.24564 2.8911C4.1559 2.90216 4.05768 2.89866 3.97025 2.85497C3.94877 2.84393 3.96214 2.77885 3.95756 2.75926C3.92888 2.64177 3.88814 2.8124 3.88138 2.8159C3.72122 2.898 3.59834 2.74327 3.43509 2.81688C3.42609 2.82295 3.36487 2.98367 3.33256 2.87059C3.33188 2.86388 3.33127 2.85587 3.3306 2.84715C3.33104 2.83644 3.31356 2.67631 3.30619 2.78661C3.30618 2.79391 3.31606 2.87544 3.30424 2.86766C3.29115 2.86142 3.28194 2.91567 3.25248 2.82957C3.24449 2.80184 3.19715 2.64747 3.2056 2.77586C3.2023 2.78575 3.25929 3.06951 3.19681 2.88036C3.18625 2.84886 3.12407 2.64803 3.13529 2.75829C3.13846 2.77947 3.15992 2.8212 3.16068 2.85204C3.16361 2.89905 3.12217 2.85574 3.14799 2.94774C3.152 2.96549 3.21009 3.09447 3.15189 3.0034C3.14236 2.98923 3.11068 2.92557 3.10209 2.92137C3.0599 2.90269 3.06328 2.95643 3.01224 2.93602C2.99345 2.9293 2.92434 2.83802 2.89408 2.82372C2.86401 2.80929 2.82162 2.80978 2.84818 2.85692C2.8764 2.90348 3.01464 3.02002 3.01517 3.04051C3.02356 3.12348 2.90713 3.11082 2.86674 3.1743C2.86134 3.18287 2.92511 3.19701 2.9224 3.20946C2.91514 3.24458 2.93839 3.29352 2.90482 3.33446C2.8917 3.38463 2.86881 3.43066 2.8306 3.46629C2.72027 3.56893 2.63631 3.43964 2.59134 3.51805C2.56989 3.55607 2.78099 3.59774 2.78763 3.60692C2.85445 3.69633 2.76096 3.75878 2.78959 3.83934C2.79573 3.8559 2.88118 3.83983 2.88529 3.85399C2.8999 3.90235 2.8627 3.95329 2.86966 3.9995C2.87358 4.01992 2.93816 4.01662 2.93314 4.03563C2.9218 4.08127 2.89367 4.12199 2.83256 4.16649C2.8245 4.1694 2.74606 4.14342 2.74271 4.17625C2.73805 4.23101 2.6784 4.29881 2.74076 4.3618C2.75954 4.38048 2.90802 4.38125 2.80521 4.42137C2.78368 4.4298 2.60451 4.41951 2.75931 4.46629C2.78505 4.47416 2.99357 4.55271 2.85892 4.59129C2.82289 4.60154 2.67774 4.62748 2.70072 4.64989C2.70752 4.65224 2.78389 4.64144 2.79154 4.65965C2.8177 4.72529 2.8094 4.79437 2.83451 4.8618C2.84227 4.87914 2.92463 4.85271 2.93216 4.87938C2.95312 4.95318 2.93176 5.0455 2.9058 5.11766C2.89578 5.14396 2.82732 5.1255 2.81986 5.12743C2.69839 5.15855 2.86302 5.17764 2.87259 5.18797C2.92906 5.25195 2.8524 5.30082 2.87259 5.35985C2.87799 5.3761 2.95566 5.36459 2.96341 5.36766C3.03163 5.40141 2.89102 5.37657 2.87552 5.39793C2.83165 5.45778 2.83818 5.52492 2.84818 5.58543C2.8531 5.60681 2.94202 5.58254 2.94486 5.60204C2.9605 5.72012 2.95194 5.84324 2.90189 5.95848C2.89207 5.97999 2.82212 5.96666 2.80619 5.97118C2.69492 6.00234 2.84735 6.04759 2.86185 6.05809C2.92772 6.10569 2.86628 6.12451 2.87748 6.16649C2.93489 6.37254 2.89399 6.62719 2.86869 6.82176C2.83615 7.07528 2.76946 7.27242 2.78666 7.51415C2.78767 7.52952 2.88127 7.51457 2.88334 7.52782C2.90566 7.69877 2.86919 7.86726 2.89603 8.03856C2.89869 8.05233 2.9865 8.03267 2.99271 8.05516C3.00595 8.10134 3.00114 8.15988 2.97318 8.20653C2.95962 8.22937 2.88372 8.19916 2.87162 8.22215C2.84344 8.27547 2.83714 8.33243 2.85111 8.38719C2.85729 8.41049 2.94696 8.37603 2.94877 8.40575C2.95771 8.61286 2.97268 8.81657 2.85599 9.02586C2.84799 9.04019 2.66549 9.05309 2.69974 9.08348C2.75051 9.08578 2.8105 9.08541 2.86478 9.08641C2.89405 9.38783 2.83071 9.68649 2.82084 9.98875C2.82046 10.0009 2.90824 9.98209 2.91654 10.0014C2.91693 9.99954 2.91753 10.0001 2.91752 10.0005C2.91717 10.0481 2.94714 10.0763 2.87162 10.1548C2.86097 10.1637 2.70265 10.2151 2.73392 10.2261C2.73968 10.2281 2.7725 10.248 2.80912 10.2388C2.81628 10.2362 2.88495 10.2007 2.89017 10.2065C2.89996 10.2181 2.90741 10.2305 2.91263 10.2446C2.92317 10.2733 2.92556 10.3089 2.9224 10.355C2.92168 10.3662 2.8539 10.4141 2.85111 10.4243C2.85093 10.4921 2.93085 10.4791 2.92338 10.5679C2.92079 10.6296 2.82733 10.7438 2.76908 10.8784C2.76115 10.8976 2.7858 10.9167 2.74466 10.9897C2.64152 11.1743 2.50372 11.3616 2.39506 11.5591C2.37165 11.602 2.46107 11.5935 2.36478 11.6733C2.35731 11.6787 2.29147 11.6841 2.25834 11.7095C2.23518 11.7274 2.20436 11.8093 2.16752 11.8276C2.13043 11.8451 2.15042 11.7735 2.09818 11.7876C2.045 11.8013 2.00114 11.8902 1.93314 11.854C1.77503 11.7693 1.62313 11.5828 1.5474 11.4233C1.52324 11.3734 1.58245 11.3619 1.56888 11.3266C1.5432 11.2582 1.48499 11.2183 1.46927 11.146C1.46478 11.1223 1.54929 11.1027 1.54447 11.0796C1.54165 11.0688 1.53895 11.0577 1.53568 11.0473C1.50092 10.9368 1.43883 10.8466 1.41263 10.7329C1.3569 10.4871 1.33929 10.2415 1.3599 10.0034C1.39134 9.76391 1.41228 9.52507 1.43509 9.2827C1.44771 9.14873 1.52406 8.98549 1.49076 8.84715C1.48598 8.83158 1.41403 8.84115 1.40677 8.83836C1.31378 8.79014 1.4622 8.8054 1.48197 8.77391C1.55992 8.64899 1.56704 8.51033 1.53861 8.39012C1.52625 8.339 1.38029 8.38987 1.46244 8.33836C1.47054 8.33549 1.5453 8.34782 1.55424 8.33446C1.573 8.30266 1.55881 8.24196 1.56498 8.21727C1.57732 8.16974 1.57678 8.16164 1.57767 8.11668C1.57967 8.05532 1.61875 7.9823 1.60111 7.91649C1.5971 7.90243 1.51624 7.92126 1.50248 7.89891C1.48885 7.87645 1.49626 7.81641 1.51517 7.79637C1.53438 7.77664 1.59746 7.78526 1.61185 7.78172C1.73204 7.75274 1.56701 7.68505 1.56009 7.67528C1.48893 7.51409 1.58566 7.3754 1.58549 7.22411C1.58507 7.10918 1.55281 6.9858 1.55716 6.87645C1.56271 6.74628 1.60663 6.63575 1.59916 6.50926C1.59784 6.49619 1.50408 6.5116 1.50248 6.49559C1.4915 6.32227 1.50227 6.14961 1.56595 5.97704C1.57366 5.96057 1.65512 5.98238 1.66654 5.96532C1.73459 5.85947 1.89792 5.69131 1.53763 5.6284C1.55168 5.55683 1.56581 5.46974 1.63822 5.40575C1.685 5.36438 1.77535 5.4048 1.73685 5.35399C1.72791 5.34279 1.65069 5.35702 1.6431 5.34032C1.6142 5.26802 1.63887 5.1892 1.59818 5.11766C1.58969 5.1031 1.51913 5.10616 1.50638 5.10204C1.40372 5.06736 1.57407 5.01011 1.58646 4.99754C1.67885 4.90181 1.64285 4.83183 1.64506 4.74266C1.64562 4.72195 1.55027 4.74599 1.5474 4.72606C1.53382 4.62277 1.54234 4.51567 1.58451 4.41454C1.59467 4.39247 1.67444 4.41255 1.68314 4.40184C1.72064 4.35442 1.56806 4.34382 1.60111 4.29833C1.60885 4.28906 1.67754 4.2942 1.68509 4.29247C1.80226 4.26551 1.63959 4.24225 1.63138 4.23485C1.58029 4.14578 1.7569 4.08846 1.73197 4.00243C1.72881 3.99218 1.64159 4.01511 1.63724 3.9868C1.61302 3.79402 1.63741 3.58974 1.70756 3.39891C1.71835 3.36923 1.78439 3.39004 1.79252 3.38817C1.89618 3.36326 1.80066 3.34536 1.75931 3.33446C1.75059 3.33172 1.7441 3.32966 1.74271 3.32762C1.69724 3.23145 1.84729 3.16611 1.65677 3.07372C1.77955 2.69489 1.92023 2.24906 2.33939 2.13622C2.34426 2.13487 2.39065 2.20239 2.40091 2.20165C2.5143 2.17166 2.41592 2.0835 2.39506 1.90477C2.39289 1.8597 2.54622 1.99068 2.55619 2.00145C2.59799 2.03743 2.64469 2.15393 2.65482 2.15965C2.73128 2.20617 2.52635 1.85045 2.59525 1.81395C2.5976 1.81357 2.62256 1.88604 2.63138 1.89012C2.65833 1.90304 2.66255 1.86795 2.68998 1.88426C2.75417 1.92233 2.83775 2.10362 2.85013 1.97508C2.85241 1.95845 2.76081 1.74171 2.82963 1.73094C2.85619 1.72619 2.97058 1.69218 3.00638 1.70165C3.04157 1.71018 3.03356 1.78878 3.03666 1.79149C3.13529 1.87481 3.11105 1.92146 3.16654 2.062C3.21722 2.20378 3.16829 1.85662 3.18119 1.8159C3.19464 1.77611 3.26077 1.85276 3.27494 1.88133C3.28972 1.90933 3.27448 1.95825 3.28666 1.97411C3.31636 2.01259 3.32723 1.99855 3.33256 1.96239C3.34087 1.9015 3.33065 1.77848 3.34623 1.74364C3.40485 1.6122 3.45076 1.87149 3.50443 1.89696C3.5186 1.90311 3.50719 1.84485 3.52006 1.83934C3.57102 1.81886 3.60159 1.89884 3.6597 1.82469C3.66949 1.81148 3.71624 1.65769 3.74662 1.77098C3.75094 1.78752 3.73943 1.85315 3.76127 1.86766C3.79395 1.88927 3.85233 1.90285 3.88724 1.88133C3.91312 1.86532 3.88401 1.75844 3.91654 1.79149C3.93102 1.80629 3.90398 1.86947 3.93119 1.89207C3.95829 1.91435 4.02673 1.9118 4.05326 1.90965C4.07954 1.90745 4.06578 1.82624 4.06791 1.82079C4.08076 1.78976 4.13029 1.75087 4.13529 1.75047C4.36011 1.74059 4.56777 1.87767 4.78666 1.8325C4.8035 1.8287 4.7921 1.74443 4.79447 1.74168C4.85328 1.70591 4.8071 1.93328 4.84818 2.00926C4.84225 1.83631 4.86646 1.86692 4.90775 1.84813C4.92747 1.83895 4.91699 1.77335 4.91849 1.76512C4.94809 1.66322 4.96885 1.79484 4.97416 1.82176C4.99374 1.92048 5.01551 1.80373 5.02884 1.86961C5.04218 1.93532 5.01158 2.03297 5.05131 2.03172C5.06242 1.96982 5.03315 1.80846 5.06302 1.78172C5.17683 1.68236 5.38949 1.80953 5.48099 1.82274C5.57202 1.83585 5.60168 1.82379 5.65482 1.84618C5.75092 1.88669 5.71532 1.76647 5.77494 1.71141C5.8348 1.65638 5.80637 1.95249 5.81498 2.0161C5.82342 2.07966 5.83279 2.01435 5.8433 2.0493C5.85357 2.08404 5.831 2.1268 5.85502 2.14012C5.87964 2.15322 5.94679 2.04063 5.9556 1.97411C5.97405 1.83335 5.94437 1.68531 6.00931 1.7368C6.01305 1.73987 6.00111 1.81722 6.01517 1.82567C6.12923 1.88556 6.24793 1.88988 6.36185 1.94286C6.37711 1.95099 6.36365 2.03587 6.37259 2.04149C6.46748 2.09681 6.43398 1.95152 6.48588 1.78954C6.47425 2.00501 6.50273 2.1369 6.57474 2.13817C6.61803 2.13896 6.61021 2.0444 6.63822 1.97801C6.64666 1.95836 6.67748 2.02257 6.68314 1.97899C6.70143 1.83439 6.67281 1.67216 6.74662 1.73582C6.74988 1.73889 6.74024 1.81891 6.7515 1.82372C6.82388 1.8543 6.83312 1.70335 6.91166 1.68504ZM2.66166 10.8569C2.72895 10.7892 2.70082 10.7575 2.64506 10.8393C2.64418 10.8436 2.65887 10.8596 2.66166 10.8569ZM10.8745 2.66649C10.8354 2.56738 11.0783 2.30436 11.1226 2.44481C11.1296 2.46927 11.0006 2.45962 10.9898 2.50243C10.9696 2.57819 11.1782 2.50002 11.104 2.60887C11.0895 2.62692 10.8852 2.67032 10.8745 2.66747V2.66649ZM9.48588 2.31493C9.44083 2.18387 9.41022 2.37715 9.44193 2.47899C9.47378 2.58076 9.49963 2.35492 9.48588 2.31493ZM2.3306 2.2534C2.32347 2.24797 2.26691 2.29186 2.27103 2.2993C2.35829 2.43092 2.46134 2.35293 2.3306 2.2534ZM10.3677 2.17918C10.375 2.11991 10.3116 2.16835 10.3052 2.24168C10.298 2.29898 10.3557 2.25115 10.3677 2.17918ZM3.4849 2.06004C3.48626 2.14116 3.51444 2.11834 3.50541 2.04344C3.50486 2.03899 3.48452 2.03489 3.4849 2.06004ZM5.25834 1.9995C5.24333 2.09441 5.29932 2.10204 5.28763 2.0034C5.28695 1.99947 5.25935 1.9957 5.25834 1.9995Z" fill="#7E766D"/>
</svg>
