<svg xmlns="http://www.w3.org/2000/svg" width="32" height="32" fill="none" viewBox="0 0 32 32"><g fill="#191a1c" clip-path="url(#a)"><path d="M21.793 9.223c-.007.069.14-.003.072.09-.05.07-.095.055-.123.084-.025.025-.02.06-.047.088a9 9 0 0 1-.526.512c-.036.033-.058.075-.083.097-.028.026-.02-.032-.048.008-.03.042-.017.07-.026.08-.007.005-.043.006-.06.023-.07.07-.154.189-.166.2a8 8 0 0 1-.24.201c-.006.004-.06-.072-.034.042l-.038.045-.033-.046c-.03.13-.03.075-.105.157-.178.197-.465.461-.665.67-.045.047-.047.081-.1.136-.049.051-.227.135-.134.172-.168.055-.089.171-.205.167l.006.046c-.098.023-.084.075-.146.146-.026.03-.034-.042-.046.06l-.043.024-.023-.038c-.055.072-.065.071-.022.1l-.112.073.025.048c.043.002.705-.73.792-.838.142-.088.34-.351.439-.438.04-.034.082-.025.139-.075s.1-.142.129-.172c.092-.099.551-.547.277-.206l.065.013c.078-.168.062-.095.168-.193.045-.04.118-.172.172-.106-.068.09-.172.156-.24.226-.008.007-.062.117-.111.151-.045.031-.076-.052-.094.095-.124-.001-.103.091-.113.114-.018.038-.052.01-.084.035-.034.026-.035.066-.039.071-.041.042-.253.26-.279.262l.01-.043c-.065.048-.022.067-.033.086l-.034.033-.006-.033c-.066.068.008.04-.088.134-.06.06-.148.098-.152.106.001.002.034 0 .013.026-.037.044-.108.115-.14.1-.015.023.008.044.006.047-.013.017-.2.22-.234.258-.096.102-.211.207-.314.317-.01.011-.018-.01-.029.002-.017.018-.083.13-.096.147-.03.038-.128.119-.136.139.006.001.045-.004.02.033-.032.044-.038-.002-.04 0-.087.068-.118.136-.167.192-.017.018-.068.03-.086.06-.002.004.021.016.02.02-.026.046-.094.046-.113.06-.044.033.002.038 0 .04-.024.027-.068.052-.106.092-.17.18-.311.325-.499.51-.023.022-.066.032-.072.036-.01.011.013.029-.02.06-.067.066-.129.13-.196.195-.013.013-.039 0-.05.01-.035.034-.102.2-.166.14-.013.123-.106.122-.16.177-.129.131-.32.345-.457.467-.029.026-.058.023-.074.037-.03.026-.172.187-.185.195-.021.011-.082-.068-.103.075-.044.052-.067.018-.078.027-.09.066-.101.205-.146.131-.074.107-.1.198-.191.18.027.027 0 .085-.06.126.007-.097-.03-.12.105-.24.002-.001.019.022.021.02.02-.017.048-.064.08-.093.03-.03.027 0 .038-.012.012-.012-.006-.03.01-.047.052-.054.093-.105.123-.136.02-.019.057-.024.072-.039.057-.057.164-.19.238-.261.016-.015.028.01.063-.022.004-.004 0-.037.024-.07.025-.032.057-.046.073-.067.014-.017-.009-.027.021-.06.026-.027.34-.317.36-.33.027-.02.062-.007.074-.024.001-.004-.018-.031-.01-.042.117-.172.467-.46.632-.625.345-.345.65-.676.992-1.03l.007-.031-.106.105-.034-.032c-.049.046-.016.065 0 .08l-.072.033c.022.053-.121.145-.181.206-.04.039-.071.1-.093.12-.046.041-.069.017-.073.02-.007.008-.047.088-.09.13-.067.065-.111.036-.17.156-.133.096-.251.231-.371.358-.01-.056-.09.086-.14.135-.307.301-.695.66-1.017.956-.04.038-.09.048-.111.07-.012.013.006.041-.014.055-.003.002-.027-.017-.06.01-.086.069-.241.296-.331.304l-.771.81-.047-.007c-.006.095-.229.266-.323.365-.166.173-.369.403-.516.553-.032.033-.07.047-.101.078-.013.014-.013.046-.026.06-.153.155-.378.346-.533.501-.35.353-.685.681-1.04 1.038-1.198 1.203-2.368 2.421-3.568 3.602-.016.015-.034-.003-.047.009-.074.072-.221.25-.304.332-.067.065-.199.14-.193.191.278-.189.52-.439.776-.669.018-.016.039 0 .042-.001.045-.033-.004-.035.052-.093.022-.02.25-.137.173-.173.065-.02.374-.304.424-.37.015-.02-.014-.025-.011-.03.011-.017.04-.002.054-.014.037-.034.11-.144.128-.162.04-.04.177-.14.225-.196.044-.052.011-.068.05-.112.032-.034.017.021.096-.046.04-.033.151-.175.182-.205.031-.031.08-.05.121-.094.06-.063.186-.204.244-.271.003-.004-.007-.033.002-.042.02-.018.038.011.055 0 .02-.017.262-.264.305-.306.029-.029.036-.063.052-.08.013-.011.034.007.047-.006.004-.004.02-.055.054-.088.033-.032.171-.137.185-.151.01-.01-.015-.014.012-.04.025-.025.06-.023.074-.037.033-.032.054-.084.089-.119.1-.1.117-.072.123-.078.02-.014.006-.04.01-.046.022-.025.075-.086.095-.107.024-.026.055-.018.082-.044.02-.02.042-.081.087-.128.102-.106.221-.233.324-.335.03-.03.053-.017.063-.026.05-.046.059-.092.073-.107.101-.097.31-.244.406-.334.039-.037.188-.216.284-.306.01-.01.015.013.024 0 .024-.034-.007-.06.008-.073.008-.006.04-.006.061-.025.113-.096.172-.18.22-.228.467-.45.944-.91 1.374-1.336.048-.047.09-.124.179-.18l.032.02-.018-.032c.077-.087.097-.13.191-.202.01-.006.07.012.034-.05.119-.047.037-.04.095-.104s.129-.112.19-.17c.05-.014-.043.162-.053.173-.015.014-.055.004-.07.017-.045.037-.064.095-.095.083-.03.076.024 0 .039.026l-.133.08c.053.09-.234.191-.167.233l-.08.014c.001.136-.087.128-.198.198l.046.006c.002.006-.064.1-.073.034-.032.132-.112.047-.126.18-.036.05-.045-.01-.122.069-.046.047-.085.123-.136.176-.011.012-.037-.003-.048.008-.01.01.005.036-.008.049-.025.027-.074.047-.09.065-.013.016-.017.055-.05.094-.115.134-.103.073-.13.083-.03.012-.014.06-.06.1-.005.003-.013-.027-.026-.013-.01.012.005.039-.028.08-.013.016-.236.249-.27.285-.053.054-.192.154-.247.21-.02.02-.026.06-.048.083l-.293.288c-.086.084-.274.195-.286.277-.116.125-.176.124-.185.133-.025.023-.017.054-.047.086-.388.411-.927.924-1.303 1.305-.875.881-1.747 1.775-2.636 2.648l.02.034c.11-.099.248-.206.354-.305.142-.132.308-.373.469-.414-.036.046-.125.09-.093.12l.225-.212-.05-.037c.073-.08.154-.156.229-.234.012-.014-.01-.018.001-.029.013-.013.018.009.02.007.033-.033.03-.056.034-.06.01-.01.016.011.049-.015.061-.048.067-.121.11-.052l.053-.052-.033-.061c.171-.046.113-.205.26-.178l.019-.1.08.012-.033-.045c.116-.097.214-.227.317-.327.072-.07.095-.082.157-.146.137-.142.026.023.17-.065l-.067-.031.04-.076h.08c-.008-.127.084-.112.093-.12.006-.006-.012-.07.094-.106-.086-.027.053-.054.06-.06s.074-.1.108-.132c.026-.025.094-.069.131-.108.033-.034.012-.049.013-.052.04-.043.03-.003.06-.032s.038-.07.046-.075c.004-.002.01.027.027.013.045-.035.103-.123.15-.169.016-.016.051-.021.07-.039.029-.027.022-.061.04-.077.008-.005.072-.011.111-.06.007-.01-.032-.1.094-.04l-.031-.047c.117-.182.266-.118.238-.278.12-.099.081.012.099.006.011-.005.036-.05.04-.053.008-.006.019.007.026 0 .137-.142.054-.102.084-.16.07-.139.227-.145.023.014l.02.02c.039-.052.155-.162.15-.09-.003.056-.29.308-.1.192.042-.026.036-.068.142-.082.043-.037-.012-.103.066-.133l-.09-.036c.047-.1.174-.155.218-.223.015-.023-.015-.192.068-.077.026-.038.197-.17.216-.208.005-.01-.04-.072.077-.151h.04c-.07.11.107-.03.115.064-.037-.008-.121.049-.145.05-.039 0-.007-.084-.074-.003.038.13.133-.042.193.058.06-.134.105-.108.129-.129.1-.088.152-.156.25-.235.005-.038-.18.099-.193.126.015-.132-.114-.008-.133.08l-.066-.04a.8.8 0 0 0 .206-.205l.034.006-.017.076c.073-.041-.012-.058.109-.089l-.053-.068.24-.199c-.002-.078.153-.203.179-.126.059-.052-.038-.01.002-.076.018-.028.063-.075.088-.073.044.054-.018.129-.004.183.026-.006.303-.35.332-.266.032-.018-.01-.037.028-.09.106-.148.36-.286.39-.462-.161.08-.153.159-.244.253-.058.06-.408.424-.38.293l-.02.058-.087-.006.107-.119.073.02-.02-.046.04-.053.026.052.08-.067-.073-.032c.11-.119.083-.07.179-.1.05-.044-.063.002.028-.107.107-.127.085.004.224-.159l-.02-.033.127-.072-.047-.021c.073-.064.147-.179.213-.16-.09.05-.014.124.018.12.067-.012.59-.587.695-.696.134-.139.262-.218.35-.38-.114.054-.386.374-.465.411-.007.004-.075-.066-.033.047-.13.103-.246.263-.392.405l-.047-.073c.13-.046.12-.22.186-.133l.053-.052-.04-.04.08-.08.04.04.066-.067-.032-.045c.093-.039.245-.338.225-.16l.094-.093-.03-.029.036-.044.013.04c.046-.078.15-.09.16-.16l-.1.06c.063-.038.13-.157.14-.166.025-.026.058-.02.087-.047.025-.024.008-.035.013-.04.15-.118.18.014.145-.145l.06.02-.006-.06q.061-.06.122-.117l-.088-.01c.05-.065.11-.062.118-.066.018-.015.006-.043.01-.048.245-.242.116-.076.316-.119.012-.074-.062-.061-.1-.086.073-.043.082-.07.144-.129.016-.015.051-.015.061-.025.009-.008.018-.053.038-.074.034-.034.092-.07.14-.117.039-.04.146-.174.23-.258.035-.035.043-.011.052-.02.004-.005.014-.05.036-.073.188-.189.392-.37.58-.56.132-.132.253-.282.388-.413.028-.027.026 0 .039-.012.004-.005-.013-.032.039-.066.02-.013.017.02.034.006.007-.007-.008-.03.031-.08.072-.088.142-.105.148-.112.011-.015-.008-.028.008-.046a22 22 0 0 1 .534-.55c.038-.025.044.039.082-.002l.008-.06-.074.034c.06-.038.1-.11.136-.145.008-.007.084-.052.114-.084l-.021.058.031.003c.054-.071.121-.137.186-.2.024-.022.029-.001.052-.024.14-.133.05-.155.286-.181-.054.035-.203.21-.23.23-.02.013-.17-.011-.055.056-.132.13-.069-.033-.18.1l.041.027c-.035.05-.062.086-.108.092.046.063-.13.176-.207.26-.11.12-.225.262-.337.378-.038.04-.082.042-.087.047-.007.008-.009.045-.022.06-.053.054-.248.186-.237.278l.957-.957c-.066.015.254-.31.272-.325.016-.014.022.016.027.013.041-.026.044-.08.055-.091.009-.008.037-.012.065-.04.005-.006-.007-.02-.001-.027l.113-.112c.002-.002.03.007.04-.002s0-.038.003-.04c.03-.03.093-.07.122-.098.01-.01-.01-.018.002-.029.034-.033.05.004.086-.045.01-.017-.01-.036.02-.06.02-.017.053.018.06.02.005-.003.043-.1.089-.097.016.11.055-.049.023-.07l.1-.059.007-.048c.136-.076.183-.159.297-.254.006-.005.11-.077.115-.064-.037.07-.089.123-.153.126.002.113-.045.069-.127.166-.027.031-.015.049-.017.053-.11.125-.29.319-.414.352-.01.034.074-.039.053 0-.012.021-.402.441-.325.26l-.037.044c.036.063-.041.118-.083.062l.01.05a.15.15 0 0 1-.031.063c-.07.09-.559.546-.577.578l.033.037c.222-.196.396-.428.657-.622l-.053-.013.319-.226a1.6 1.6 0 0 1-.33.37c-.02.015-.024-.013-.03-.01-.014.006 0 .043-.036.084-.036.04-.15.118-.16.129-.016.018-.032.096-.061.125-.039.037-.033-.006-.04 0-.034.03-.054.067-.08.09-.04.036-.15.08-.128.155l.087-.073c-.126.16-.3.211-.394.4.027.092.135-.032.061.092l.052-.058-.025-.049.12-.066-.06-.007c.102-.118.201-.24.299-.219l-.037-.05c.12-.084.212-.297.263-.19l.001-.027c.078-.045.02-.051.04-.078.005-.007.14-.11.111-.034.135-.098.025-.137.054-.173.111-.038.19-.226.192-.112l.04-.027c-.008-.082.08-.066.136-.089l.043-.037-.02-.073c.2-.053-.04-.214.187-.103l.003.057-.05.078.272-.244c.156-.062.167-.176.326-.26l.02-.046c.027.049-.022.087.076.023.034.02-.018.079-.064.083-.01 0 .02-.071-.039-.014-.04.039.064 0-.066.107l.032.006-.039.038-.08-.012c-.007.052.008.099-.066.16.008-.028-.046-.034-.079 0l.033.033c-.074.087-.079.028-.12.12l-.046-.007c0 .073-.11.231-.14.153.015.09-.088.145-.16.132l.027.04-.04.054-.046.007-.013.052-.054-.012-.014.093-.059.006c.021.024-.08.137-.126.152l-.008.047-.045-.02.006.046-.073.021c-.009.115-.057.072-.071.086-.026.027-.084.152-.1.165-.017.014-.044.002-.058.012-.231.171-.098.14-.13.189-.017.026-.05.023-.068.044-.03.036-.17.225-.183.234-.017.011-.07-.107-.094-.04.044.047-.098.098.01.116l-.136.103c.058.05-.025.065-.076.121-.072.08-.207.286-.256.225l-.017.093c-.142.107-.246.247-.369.37-.364.37-.774.756-1.15 1.11-.018.017-.033-.004-.046.008-.069.064-.228.25-.325.338-.03.029-.063.026-.074.034-.035.03-.004.046-.02.06-.025.023-.168.124-.213.164-.022.02-.028.064-.058.082-.003.002-.017-.02-.02-.02-.047.042-.005.032-.02.046-.115.102-.23.218-.351.331-.03.028-.088.06-.115.084-.01.008.021.006-.013.037-.011.01-.034-.003-.048.008-.06.05-.018.127-.113.126-.088.095-.231.268-.314.352-.02.02-.041.019-.06.038-.013.013-.019.053-.039.074s-.07.038-.11.078c-.04.043-.083.105-.093.115-.012.01-.037-.004-.048.007-.034.036-.106.148-.149.194-.045.05-.084.07-.1.086-.015.016-.015.05-.022.058-.01.01-.033-.006-.047.008-.022.022-.032.058-.065.092-.597.61-1.2 1.19-1.8 1.762-.068.063-.09.114-.194.204-.041.037-.046 0-.072.034-.012.015.007.028-.01.046-.072.079-.175.153-.208.186-.012.013-.01.046-.035.073-.197.2-.437.432-.648.65-.112.115-.275.295-.404.426-.356.363-.747.746-1.073 1.076-.493.498-.968 1.01-1.483 1.483.276-.186.588-.505.85-.758.758-.73 1.524-1.547 2.287-2.308.265-.265.597-.6.898-.88.014-.013.027-.054.057-.081.007-.006.107-.055.133-.08-.07-.022.07-.08.1-.112.036-.04.094-.144.197-.221.094-.07.09-.03.095-.033.036-.021.017-.06.037-.086.079-.102.562-.551.694-.68.033-.034.053-.017.06-.024.02-.02.031-.067.063-.099.058-.058.143-.107.175-.14.076-.075.2-.24.3-.34.027-.027.044-.008.056-.02.056-.056.18-.222.248-.292.112-.112.239-.215.346-.336l.048.004.007-.06c.2-.187.376-.402.569-.592.022-.022.148-.116.167-.134.014-.015.008-.051.033-.07.036-.028.048.043.088-.02.01-.017-.02-.021.002-.055a5 5 0 0 1 .19-.204c.017-.014.068.01.073.006.026-.017-.004-.045.008-.062.035-.05.11-.086.116-.094.078-.088.21-.266.311-.34.014-.01.033.01.037.01.018-.008.003-.042.015-.055.068-.073.193-.166.267-.232.009-.008.015-.037.03-.05.088-.076.08-.031.086-.035.013-.009.012-.048.04-.08.073-.078.221-.22.304-.3.062-.059.084-.035.088-.039.01-.008.015-.05.052-.091.073-.081.083-.055.114-.087.001-.003-.019-.017.013-.052.064-.072.234-.207.306-.28.027-.029.017-.052.045-.081.044-.045.163-.128.174-.138.002-.002-.012-.027 0-.04.015-.015.04-.02.05-.03.062-.063.134-.204.176-.103l.008-.114c.133-.126.252-.26.378-.391.028-.03.066-.04.09-.066.023-.025.108-.155.126-.174.031-.033.212-.219.237-.24.047-.04.118-.054.131-.078.01-.019-.019-.022.004-.054.04-.056.142-.117.156-.132.006-.006-.018-.008.04-.066.03-.032.06-.036.072-.047.004-.004-.024-.022.04-.08.046-.042.083-.042.088-.046.006-.008.004-.043.031-.07.065-.061.203-.155.266-.214.012-.012-.015-.032.034-.076.035-.032.048-.008.06-.02.022-.018.03-.07.074-.113.056-.054.482-.435.514-.454.018-.01.035-.026.052-.024l.01.047c-.095.03-.03.043-.045.062-.02.027-.117.112-.13.143-.005.01.034.014.002.066-.034.056-.09.04-.058.107-.12.009-.122.129-.033.07.052-.034.476-.419.561-.498.07-.065.181-.206.267-.284.051-.047.173-.163.194-.132.046-.04-.024-.02-.02-.032.012-.027.162-.143.188-.17.122-.129.251-.317.407-.406l.005.04c-.015.04-.16.148-.14.196l.556-.558c-.032-.025.2-.256.223-.253l.03.054c-.183.078-.102.135-.226.185-.037.035-.003.049-.016.07-.13.218-.05-.044-.163.11.073-.007-.024.114-.069.168-.01.012-.165.151-.182.17-.095.1-.244.286-.36.365-.078.074-.097.14-.161.215-.049.057-.05.025-.076.05-.052.05-.019.12-.123.081l-.08.133-.032-.032-.067.066.013.052c-.085.055-.083 0-.127-.018l-.052.039.038.108-.21.198-.047-.02.032.033-.338.351c-.013.049.186-.122.2-.135.084-.072.272-.295.312-.256.019-.078.17-.215.251-.226l-.212.2.047.032c-.139.033-.149.048-.187.186l-.053-.053c0 .123-.212.128-.14.207l-.115.08c-.061.079.106.028-.193.28-.02.018-.037-.006-.064.024-.008.009-.026.085-.12.172-.014.013-.032-.002-.049.01-.039.03-.073.129-.096.045-.15.117-.05.107-.073.166-.016.039-.043.002-.06.033-.02.038.033.049-.1.152l.034-.045-.046-.007c-.047.089-.072.052-.055.133a.44.44 0 0 0-.178.14c-.123.138-.004.123-.224.201l-.042.103c-.06.019-.055-.04-.12.014.099.006-.046.112-.02.18l-.04-.027-.04.04.027.026-.072.034-.015.065-.12.01-.045.038.052.026-.065.04c.041 0 .054.04-.001.093-.046.045-.04-.051-.119.065-.005.009.014.053-.072.149-.104.116-.074.04-.095.058-.004.004-.021.054-.05.087-.017.02-.047.024-.05.026-.01.012.005.034-.009.05-.037.04-.098.083-.135.122-.017.018-.023.044-.03.052-.012.012-.044.012-.056.024-.044.045-.057.168-.155.112.028.114-.147.117-.093.159-.132.096-.38.46-.451.372.003.133-.04.079-.067.107-.03.031-.001.028-.026.052-.058.055-.117.103-.173.159l-.007-.059c-.062.056-.016.061-.071.126-.102.12-.076.052-.121.04.032.023-.103.15-.12.16-.01.005-.012-.065-.08.026l.046.02c-.051.022-.13.14-.151.153-.01.006-.14-.042-.108.066l-.046-.02-.087.166-.08-.039-.038.04.079.026c-.09.075-.163.202-.24.16l-.02.085-.093-.024c-.076.086-.064.101-.099.178l-.04-.053a.7.7 0 0 1-.13.22c-.027.029-.096.056-.102.065-.005.008.012.158-.066.093-.066.13-.141.14-.18.18-.025.026-.02.055-.047.086-.039.044-.09.078-.112.103-.013.014 0 .033-.008.043-.042.047-.033.004-.08.052-.003.005-.016.06-.058.096-.023.02-.102.052-.108.058-.021.022.043.051-.086.072l.034.021c-.07.115-.126.09-.147.106-.003.003-.01.04-.025.052-.026.019-.056.008-.062.012-.021.014-.072.083-.132.102.068.051-.048.21-.146.174l-.033.112h-.067l.013.053-.178.034.065.08-.038.02-.08-.034-.027.048.033.051c-.05.083-.15-.084-.16.16q-.046.015-.093.026c.032.076-.042.086-.07.125-.02.028.003.048-.029.081s-.052.012-.054.015c-.028.024-.03.062-.052.078-.004.002-.035-.014-.062.009s-.015.064-.057.096c-.021.016-.047.002-.065.016-.089.07-.067.255-.249.192.002.03-.04.182-.086.22-.07.06-.07.011-.1.033-.005.005-.018.032-.072.083-.009.009.003.02.004.023-.064.063-.197.176-.27.244-.006.006-.001.078-.107.082-.045.12-.28.194-.332.358-.014.016-.045.022-.051.029-.053.061.008.082-.181.151.03.01.02.06-.025.1-.067.062-.06-.022-.108.033l.033.032c-.149.09-.126.16-.245.28-.043.043-.13.083-.14.093-.005.006-.025.077-.03.082-.024.026-.05.028-.072.05-.073.071-.124.192-.17.114l-.02.099c-.142.008-.106.155-.187.107v.08l-.984.943c.008.034-.14.167-.15.17-.047.018-.058-.061-.114.016l.037.082c-.078.091-.057.032-.104.051-.01.016.008.027-.009.047-.096.108-.306.319-.416.432-.023.023-.034.006-.04.012-.02.02-.04.076-.079.114-.24.24-.589.568-.845.793-.017.016-.036 0-.048.01-.017.015-.037.063-.055.078-.016.013-.038.011-.056.026-.081.067-.16.188-.277.229-.01.003-.161.017-.17.014-.038-.016-.006-.132-.167-.05.073-.143-.021-.171-.192-.06l.189-.235-.022-.022a.65.65 0 0 0-.278.175l-.01-.03c.053-.12.15-.23.17-.341l-.39.187-.001-.03c.032-.06.125-.169.15-.22.098-.195-.163.09-.149.017l.467-.462c-.018-.026-.67.506-.733.436l.133-.16-.116.014.003-.034.207-.285c-.237.263-.363.37-.555.297l.01-.031c.138.028.366-.253.485-.405-.052.003-.153.141-.193.152-.01.003-.003-.04-.028-.031-.066.021-.28.176-.28.122 0-.035.271-.356.332-.413-.168.104-.316.236-.491.334.032-.14.042-.283.196-.443.019-.074-.35.215-.375.21l.123-.222-.133.16-.017-.018c.1-.151.17-.313.317-.454-.034-.025-.117.063-.16.105.17-.498.574-.552.912-.834.745-.622 1.591-1.58 2.294-2.274.533-.526 1.082-1.052 1.618-1.569.027-.026.061-.024.074-.036.117-.113.294-.322.41-.434.245-.235.661-.656.898-.86.101-.085.2-.18.28-.172.035-.032.016-.09.022-.1.023-.036.12-.08.136-.098.002-.003-.04-.017.006-.047.005-.003.02.02.054-.013.008-.009.089-.147.118-.18.098-.11.37-.335.494-.46.019-.018.018-.042.037-.062.01-.01.04-.014.042-.017.014-.015.02-.13.107 0 .056-.07.003-.087-.02-.112.066-.072.15-.055.114-.127l1.041-1.003-.026-.026c.136-.065.11-.16.22-.165l.072-.141c.943-.873 1.808-1.821 2.706-2.719.037-.037.066-.028.129-.09.069-.069.143-.188.234-.278.08-.08.216-.18.307-.266.02-.019.024-.044.026-.048.014-.013.034.004.047-.008.016-.015.02-.047.04-.064.069-.063.138-.142.146-.15.042-.037.07-.028.073-.03.048-.044.014-.044.026-.054.064-.054.147-.054.187-.173l.04.053c.07-.052-.01-.053-.007-.073.003-.008.14-.135.15-.144.038-.033.06-.013.063-.016.008-.007.073-.12.136-.147.076-.033.055.073.076.068.004-.002.056-.062.077-.056s-.026.052-.021.058c.005.004.114-.048.118-.013.007.032-.127.117-.142.15 0 .005.029.021.028.026-.01.017-.265.27-.28.279l.006-.073-.056.05.05-.101c-.128-.054-.149.149-.108.199.019.023.14.009.11.103l.045-.012.032-.087-.056.023-.004-.034.081-.141c.024-.015.04.008.056-.002.209-.118.045-.069.16-.168l.076-.017c-.046-.035.026-.057.066-.132l.02.06c.076-.09.312-.191.194-.22l.075-.038.013-.085.07-.062.02.02-.053.052.1.02.03-.05c-.074.037-.033-.066-.042-.11.037-.056.102-.051.119-.065.008-.007.034-.153.066-.054l.108-.157zM9.81 23.337l.062-.043-.013-.067zm.223-.283.072.047c.056-.08-.009-.078.067-.173zm2.5-3.767c-.01-.07-.11.092-.132.113-.017.016-.037-.003-.048.008s.011.016-.001.029c-.056.058-.123.115-.174.168-.493.515-.988 1.004-1.492 1.504-.06.06-.064.032-.068.035l-.5.529c-.17.183-.343.368-.522.533l-.761.698-.01.033c.563-.375 1.072-.948 1.57-1.448.053-.054.08-.039.097-.06.012-.014-.006-.03.01-.047.617-.622 1.188-1.237 1.791-1.82.038-.037.255-.182.24-.275m-2.98 3.428c-.04.018-.169.158-.224.195.028.039.245-.167.26-.193-.01 0-.027-.005-.036-.002m1.097-.212-.02-.02c.09-.087-.06-.018-.092.066l-.04-.013-.007.06-.066.026.012.12c.092-.063.191-.127.114-.179l.053-.053c.012.041.023.048.086.02-.027-.048.04-.077.086-.14zm-1.864.235.16-.133-.027-.026zm1.148-.42c-.04.038-.373.371-.313.378.031.002.132-.128.167-.162.046-.045.206-.132.146-.216m-.736.141c-.053.014-.124.103-.18.14.056-.01.13-.092.18-.14m.439-.45-.353.35c.009.028.072-.034.094-.054.095-.084.202-.207.298-.298zm1.195.3.05.028c.024-.008.042-.14.007-.127zm7.413-8.217c-.093.067-.573.515-.697.629-.248.228-.496.48-.742.712-.015.013-.035-.002-.047.01-.019.017-.048.082-.066.1l-.19.18c-.082.08-.15.125-.213.184-.02.02-.094.138-.169.194l-.05.02c.028-.04.101-.145.141-.188.06-.064.107-.082.13-.105.019-.02.098-.134.142-.179.014-.014.037.002.049-.009.063-.065.148-.15.184-.225-.016.029.136-.1.145-.108.013-.013.008-.046.034-.072.05-.05.082-.006.107-.105l.079-.015c-.048-.051.215-.179.21-.295-.01-.004-.28.227-.302.247-.132.12-.306.319-.437.432-.038.034-.18.116-.194.128-.013.015.016.02.01.027-.11.137-.083.04-.11.047-.018.005-.042.069-.047.073-.008.008-.015-.004-.018-.006-.055.058.027.037-.008.085-.007.01-.119.092-.157.133-.06.063-.123.122-.146.146-.038.04-.087.136-.15.2-.026.027-.053.018-.08.045-.166.173-.475.533-.637.672-.04.034-.101.045-.119.066l-.02.075c-.127-.033-.072.054-.115.113-.028.037-.068.03-.072.034-.028.03-.032.054-.053.079-.024.028-.071.054-.078.065-.005.007.045.021-.055.12l-.31.3c.128.06.093-.036.131-.081.01-.012.019.01.028 0 .026-.03.064-.098.091-.117.029-.021.056.022.074-.023 0-.003-.018-.011-.013-.02.05-.099.1-.099.194-.192.063-.062.428-.455.45-.458.118-.017-.28.382-.331.424-.018.015-.016-.018-.034-.006-.008.005-.034.092-.087.15-.065.072-.223.188-.287.253-.549.562-1.115 1.092-1.67 1.646-.012.012-.01.045-.049.084-.72.719-1.48 1.45-2.2 2.188-.157.161-.298.337-.471.483l-.02.1c.04-.062.164-.125.173-.133.003-.005.008-.039.04-.068.044-.043.076-.049.08-.052.011-.011-.01-.018 0-.029.08-.079.138-.143.21-.216.083-.082.15-.098.182-.186l.052.012c-.002-.093.27-.354.38-.459.035-.032.047-.008.059-.02.007-.007-.02-.029.073-.113.047-.042.078-.035.1-.058.012-.013-.008-.03.01-.047.1-.101.19-.178.292-.274.029-.026.045-.013.05-.02.023-.023.038-.088.096-.146.096-.096.287-.288.379-.354.013-.01.041-.002.05-.01.011-.014 0-.037 0-.04.043-.043.035 0 .06-.034.012-.018.007-.055.04-.093.045-.051.062-.017.079-.04 0-.003-.015-.02.003-.04.072-.076.177-.189.247-.259.02-.02.047-.023.075-.05.057-.057.37-.384.405-.407.004-.002.002.053.047.006l.007-.072.12-.015c-.062-.06.06-.2.12-.136l.05-.036c-.013-.072.023-.077.055-.16l.066.013-.02-.032c.08.017.082-.082.088-.089.022-.024.052-.03.063-.041.04-.043.113-.149.169-.19.004.001.02.021.036.011.03-.02.002-.053.07-.05L14 18.358l.035-.008.117-.133c-.003.073.06.049.075-.02.004-.023-.03-.032-.028-.04.008-.015.2-.185.226-.185l.006-.046.053.026.002-.03c.071-.025.144-.204.172-.223.015-.008.06.057.112-.007l-.04-.052.033-.047c.026-.023.09-.033.11-.017l-.01-.056c.057.015.157-.111.18-.18l.073-.006.013-.093c.037-.046.017.02.027.013.023-.017.08-.146.12-.094l.04-.04-.02-.058c.067.023.09-.031.184-.094l-.011-.05.118-.029-.037-.068.024-.039c.06.017.057-.062.093-.066.052-.005.058.044.01.103.033.024.178-.148.212-.186l-.023-.01-.1.125c-.102-.04.02-.122.057-.178.003-.008.002-.057.05-.1.019-.018.13-.049.145-.06.128-.092-.01-.067.147-.125-.06-.016.033-.046.09-.117.01-.012.072-.137.077-.144.034-.042.025.033.073-.032l-.007-.047.04-.04c.157 0 .12-.077.14-.112.009-.014.014.02.04-.013.009-.013.004-.043.033-.075.09-.097.195-.056.206-.218l.073-.007q-.008-.033-.013-.066c.106-.03.042-.045.067-.07.067-.063.208-.19.252-.17-.016-.129.133-.114.152-.14l.013-.066q.037-.009.073-.02c-.079-.062.072-.073.08-.08.01-.008.113-.152.16-.198.045-.044.141-.104.152-.113.008-.008.067-.106.129-.167.053-.053.398-.344.346-.355a.5.5 0 0 0-.096.056m-7.865 7.62c-.038 0-.446.422-.449.444 0 .006.013.01.017.017.069-.125.24-.23.333-.32.026-.025.004-.032.005-.033.015-.015.116-.047.094-.107m.908.073c-.08.155-.038.052-.166.18q.044.015.086.032c.027-.1.154-.178.08-.212m-1.134-.296-.185.225.193-.192c.005-.008.016-.05-.008-.033m1.511-1.08c.031.003.043-.042.056-.05.004-.002 0 .032.028.013l-.01-.051zm1.907-.807c.066-.136-.175.012-.197.043-.002.004.02.027.004.051-.03.042-.25.217-.297.293l-.047-.043-.032.125c-.03-.02-.073.1-.114.02q-.007.072-.017.143l.017.017.067-.094.026.027c.007-.071.187-.222.213-.186l-.013-.066c.115-.043.144-.15.265-.2l-.012-.053.039.013zm-.685-.39c-.01-.058-.183.148-.22.182-.017.015-.05.02-.06.029-.011.01-.008.043-.034.069-.008.007-.114.07-.147.109l.036.01.137-.13v.026c.078-.055.079-.11.118-.142.005-.003.026.009.04-.005.035-.031.134-.119.13-.147m.773.188c-.042.052-.056.093-.08.054l-.027.047c.07.05.091.044.14-.089zm.298-.259c-.028.09-.084.081-.1.093q-.075.057-.151.106l.104.012.172-.183zm-1.015-.217c-.098-.06-.286.237-.41.332.02.06.161-.118.203-.151.022-.017.161-.077.214-.175zm1.139.128c-.079.016-.052-.043-.053-.049-.01-.01-.012-.013-.037-.001l.038.126c.073-.056.045-.06.134-.087.05-.125-.018-.046-.052-.08zm-1.008-.027.07-.035-.02-.047zm.435-.493c-.042.11-.298.243-.319.345 0 .006.052-.012.026.08.038-.052.063-.091.04-.12l.067-.013.047-.086c.023.027.023.024.039-.028l.066-.026-.013-.053.086.006c.036-.068-.025-.067-.039-.105m.755.277c0 .045.02.083.093.04-.045-.055.05-.071.073-.1q0-.018.004-.036zm-1.379-.05-.07.063-.022-.024c.039-.046.077-.072.092-.04m1.615-.166c-.03-.008-.096.096-.083.103.005.002.142-.086.083-.103m.74-.642c-.093-.183-.255.27-.304.094l-.035.044.08.095c-.107-.033-.088.082-.211.106l.006.047c-.047.008-.322.272-.219.259.045-.006.074-.088.08-.093.018-.014.064-.01.09-.039.014-.016.02-.08.052-.112.072-.072.283-.124.303-.294q.023.004.047.006c.065-.075.013-.08.112-.113m-1.728.377c.04-.138-.133.092-.142.101-.013.01-.163.105-.156.126.02.067.085-.031.128-.043.071-.017.03.07.12-.053l.015.04c.065-.06-.017-.102-.014-.12.003-.007.045-.04.049-.052m.523-.27c-.056.058-.14.074-.2.227-.032.021-.05-.014-.054-.012-.02.008-.35.376-.14.268l.12-.13c-.12-.051.07-.088.081-.095.053-.037.09-.114.123-.145.028-.026.06-.028.08-.048.064-.068.169-.172.149-.223zm-.398.164c-.03.01-.025.063-.124.126l.003.058.166-.18zm1.73-.039c-.091.008-.102.09-.186.16l.026.026c.01-.052.109-.122.16-.186m-2.594-.228.073-.045-.013-.054zm2.581-.183c.27-.07.15-.292-.073.06l-.086-.046c.056.055.013.11.133.092l.037-.043zm-2.43-.003-.01.06.053-.04.016-.049zm1.615-.44c-.113.128-.237.202-.315.349.06.043.359-.366.315-.35m1.02.198c-.04.006-.051.125-.006.086.036-.032.03-.09.007-.086m-.416-.153c-.05.048-.119.089-.12.146l.112-.086zm.491.093.059.032c.062-.092.124-.127.053-.159zm-1.3-.132-.02-.02.096-.088-.077.108m2.389-.932c-.052.088-.032.015-.068.02-.021.002-.077.02-.104.02.08.006-.104.195-.176.25-.017.012-.068.015-.077.029l.007.047c-.038-.022-.128.135-.16.2l-.047-.02-.04.066-.025-.04-.002.08c-.037.066-.065-.025-.086.033-.022.064.085.028.107.052.03-.042.096-.135.132-.172.02-.02.039.044.08-.092l.091-.026.055-.16.067.025c.006 0 .053-.116.039-.126.063-.004.137-.068.21-.14zm-1.51.59.047-.103c.248-.24.517-.491.739-.74l.067-.005zm-1.217-.26c-.116.054-.082.082-.1.1-.01.008-.025.003-.034.001l-.005-.001c-.022.02-.068.119-.057.129q.065-.03.13-.056l-.054-.054.04.013.033-.071.073.02zm2.926-.542-.052.013c.044.129.048-.04.178-.033-.072-.031.024-.124.026-.133q-.042-.008-.084-.02zm-2.043-.249c-.024.018.002.025 0 .027-.015.014-.04.014-.044.021-.075.127.006.074.01.076.017.014.01.057.064.039l.05-.084.06-.006c.025-.063-.038-.01-.07-.029-.012-.007.017-.06-.07-.044m.32-.424c-.046.07-.114.082-.147.106-.026.02-.01.033-.012.034-.058.047-.088.05-.13.089-.105.097-.117.2-.229.235.13.036.349-.353.525-.391zm-.21.375.19-.103-.054-.054zm-.268-.046.013.029c.058-.07.207-.168.16-.213zm1.344-1.19c-.155.071-.24.242-.096.221-.042.03-.184.203-.197.213-.017.011-.036-.017-.055 0-.01.011.014.094-.12.134l-.006.06-.053.009-.013-.142c-.056.112-.18.13-.187.225-.049.04-.075.056-.079.014l-.04.04.01.063.128-.088.047.052-.07.044.002.043.129-.016.065-.105-.065.013c.06-.08.085-.024.159-.066l.013-.107.134-.04c.04-.055.033-.071-.017-.057.004-.043.061-.038.082-.075.002-.003-.021-.019-.02-.021.137-.162.18-.104.206-.126.019-.017.052-.116.042-.13-.014-.016-.216.063.001-.158m-.867.654c-.017.01-.08.06-.056.071l.11-.036.011-.058c-.018.013-.06.02-.065.023m.4-.232-.037.083.056-.01.031-.086zm2.093-.607h.103l-.08-.053zm-.984-.397.05-.056-.024-.05zm2.369-.793c-.011-.007-.036.017-.051.02-.017.002-.025-.012-.048 0l.033.045zm-.252-.198c-.142.09-.054.078-.176.195.016.023.177-.162.176-.195m.692-.505.06.032q.008-.056.02-.113zm.294-.263c-.01-.007-.05.035-.06.039-.004.001-.005-.025-.029-.01l-.056.09c.034.038.158-.104.145-.12m1.53-.04c-.069.052-.174.13-.113.153l.106-.12zm-1.546-.003c-.01.074.135-.078.08-.08a.5.5 0 0 0-.08.08m-1.087-.078c-.07.018-.03.09-.02.086.055-.022.056-.095.02-.086m-.086-.245c-.167.214-.026.138.007.042q.01-.03-.007-.042m.318-.066c.012.042.012.113.075.105.012-.002.042-.026.058-.027.022-.097-.04-.111-.133-.079m.219-.114c-.075.108.062.005.046.072l.047-.059zm2.229-.031c-.033-.028-.081-.003-.107.066l.034.02c-.001-.05.075-.036.146-.119l-.046-.046zm-2.256-.022.054.026c.005-.102.127-.086.14-.126.001-.01-.033-.02-.049-.015-.01.005-.14.101-.145.115m.01-.14c-.047.006-.092.055-.063.086l.107-.053c-.013-.003-.035-.035-.043-.034m1.152-.24-.206.218-.011-.027.197-.21zm1.254.057.03.057.069-.064-.059-.032zm-2.195-.07c.084.037.066-.061.16-.056l.05-.05-.048-.05zm1.207-.16c.028-.087.143-.205.16-.107-.09.035-.108.098-.214.173l.008-.073q.022.004.046.006m.643-.167c-.073.072-.117.149-.222.202.05-.1.127-.099.163-.209zm.478-.16c-.098.044-.169.172-.205.205-.013.013-.034-.003-.045.007-.063.06-.08.16-.147.107.075-.04.086-.133.098-.14.01-.004.12.005.12-.107zm1.274-.214c.026.022-.03.07-.06.099h.027c-.069.06-.195.167-.153.219-.04.051-.061-.009-.08.001-.01.008-.045.086-.119.104l-.034.035.04.053-.104-.01zm-.923.445-.073.047.06-.1zm-2.394-.039c-.066.05-.035.125.039.051.03-.031.029-.102-.04-.05m2.372-.05c.042.106-.208.032-.046-.01.017-.005.042 0 .046.01m.155-.217c.022-.006.031.095.13.024l-.182.189.06-.114-.061-.03zm-1.69.09c-.005.002-.024-.024-.047-.006-.056.043-.057.168.086-.008l-.02-.02c-.005.008-.017.033-.019.034m.435.017c.117-.13.032.043-.018.055-.03.006.006-.042.018-.055m1.017-.105c-.024.013-.184.14-.166.099.066-.054.083-.105.162-.13zm-.086-.086-.107.105-.009-.066.048-.048zm-.826.103-.01-.089.126-.06-.047.06.16-.107zm1.443-.23-.08.079q.03 0 .057.003l-.084.103.01-.07-.09.07c-.074-.008.1-.186.12-.198.008-.001.054.012.067.012m-.056-.296c-.061.111-.132.106-.09.19l-.052-.028c-.106.06-.085.13-.114.193l-.03-.03-.097.09.034.007-.034.033c-.056-.002-.097.024-.086-.047.066-.035.113-.114.198-.194.005-.003.03.005.043-.007.015-.014.216-.25.228-.207m-.368.243-.12.107-.025-.04q.032-.021.065-.04l.02-.06zm-1.844-.01c-.036.009-.083.14.008.07.056-.043 0-.07-.008-.07m.206-.193c-.09.113-.094.056-.1.06-.11.059.082.124.1-.06m1.804-.03c.03.08-.05.11-.12.094.028-.039.053-.017.062-.024.026-.019.036-.049.058-.07m-.923-.12c.009 0 .018.03.034.029l-.093.04-.027.093-.032.006.02-.032c-.248.185-.005-.124.098-.136m.777-.21c.027.03-.095.094-.006.085-.069.025-.187.166-.224.19-.022.015-.053-.006-.056-.004-.015.01-.082.135-.11.13-.078-.013.36-.361.396-.402m-1.458.117c-.006-.109-.217.092-.066.106l.039-.023zm2.072-.062-.077.082.062.01-.028.05-.13.004q.082-.091.162-.183zm-2.028.047c-.03.012-.072.07-.024.076.008 0 .04-.068.058.009.048-.05-.016-.091-.034-.085m.021-.087.107.131-.014-.039.106-.106-.16-.025zm2.431-.068c-.003.039-.168.226-.182.163.026-.028.043-.057.072-.083.006-.005.055.022.071-.067zm.137.097c.038-.045.07 0 .08.013l-.041.04zm-1.779.043-.027-.006.053-.087.054-.014zm2.077-.369c.013.039-.065.14-.105.185-.002.002-.005-.024-.034.008-.01.01-.046.15-.085.071zm-.39-.178c-.012.102-.133.16-.196.221-.121.12-.01.065-.018.098-.006.016-.12.036-.119.092-.05-.1.24-.287.332-.411m-2.19.336-.06.045-.02-.045.053-.04zm.209-.058-.11.103c.122-.148.004-.044.067-.146zm.542-.827c.018.004.033.052.039.054.014-.005.051-.074.066-.04l-.159.157-.013-.091c-.122.14-.08.097-.08.173l-.111.022-.1.19v-.066c-.094.053-.061.046-.075.113l-.032-.032c-.044.097-.091.077-.107.092-.032.031.058.202-.193.193.012.113-.113-.014-.08.08-.155.015.034-.124.114-.199.005-.005-.014-.008.007-.027.003 0 .023.014.04-.001.064-.06.15-.134.195-.176.108-.103.398-.457.489-.442m.701.702-.128.097.122-.144zm1.235-.05-.027.075-.063-.01.05-.068zm-2.309.013-.041-.049.022-.037.053-.002zm1.254-.194c.01.085-.098.102-.146.171-.029-.027.119-.131.146-.171m-.545-.007c.199-.192.048.057-.088.116-.008-.01.07-.098.088-.116m1.282-.055c-.143.09-.018.1-.13.11q.054-.066.11-.13zm1.004-.376c.003.092-.039.066-.085.121-.002.003.01.013.01.014-.012.014-.038.013-.049.024-.02.022-.025.052-.064.09-.029.028-.05.01-.06.02-.008.009-.04.154-.12.185-.153.06.29-.402.326-.43zm-2.27-.013c.013-.002.008.045.02.044s.113-.06.125-.005l-.044.037-.043-.016-.012.066c-.045-.001-.122.015-.086-.06l-.056.067.003.066-.035-.069zm.338-.194c-.08.055-.057.094-.06.1-.02.026-.02-.006-.034.008-.038.037-.113.133-.12.048-.002-.03.045-.048.048-.056.001-.01-.062-.08.067-.066l.039-.067zm2.247-.048-.031.031c0-.063-.06.006-.107.053-.028-.032.084-.118.12-.171zm-2.113-.19c.007.002.01.082-.06.096s.022-.084.06-.096m.185-.16c.058-.09.168-.214.157-.093l-.29.32h-.04c.101-.051-.03-.137.066-.171.016-.006.022.064.068-.03l-.034-.019.055-.041.018.035m.505-.478c-.047.054-.266.291-.309.276l.01-.056c.01-.013.017.006.022.001.066-.072.216-.247.277-.221m.151-.241c.138.008-.036.113-.044.122-.01.013.014.09-.123.076l.149-.144c-.14.116-.033-.057.018-.054"/><path d="M24.543 27.83c.033-.028.119.084.172.12l-.087.018-.031-.031c.062 0-.006-.06-.054-.107m-.625-.545c-.059-.153.403.29.431.326l.024.042c-.092.003-.066-.039-.121-.085-.004-.002-.013.01-.015.01-.013-.012-.012-.038-.023-.049-.022-.02-.053-.025-.09-.064-.029-.029-.01-.05-.02-.06-.009-.008-.154-.04-.186-.12M10.216 10.662c.152.1.314.17.455.316.024-.033-.064-.116-.106-.158.5.17.553.573.835.911.622.745 1.579 1.591 2.274 2.294.525.533 1.052 1.082 1.569 1.618.026.027.024.061.036.074.113.117.322.293.434.41.235.245.656.661.859.898.086.101.18.2.173.279.032.036.09.017.1.024.035.022.08.12.098.135.003.002.017-.04.047.006.003.005-.02.02.013.054.008.008.146.089.18.118.11.098.334.37.46.494.018.019.041.018.062.037.01.01.013.04.017.042.014.014.13.02 0 .107.07.056.087.003.112-.02.072.066.055.15.127.114l1.003 1.041.026-.026c.065.136.16.11.165.22l.14.072c.874.943 1.822 1.808 2.72 2.706.037.037.027.066.09.129.068.069.188.143.278.234.08.08.18.216.266.307.018.02.044.024.048.026.013.014-.005.034.008.047.015.016.047.02.064.04.063.069.141.138.15.146.037.042.028.07.03.073.043.048.044.014.054.026.053.064.053.147.173.187l-.053.04c.052.07.053-.01.073-.007.007.003.135.14.144.15.032.038.013.06.016.063.006.008.119.073.147.136.033.076-.073.055-.068.076.002.004.062.056.056.077s-.052-.026-.058-.021c-.004.005.048.114.013.118-.033.007-.118-.127-.15-.141-.006-.001-.022.028-.026.027a5 5 0 0 1-.279-.28l.073.006-.05-.056.1.05c.054-.128-.148-.148-.198-.108-.023.019-.009.14-.103.11l.012.045.087.032-.024-.056.034-.004.142.081c.015.024-.008.04.001.056.119.209.07.045.168.16l.017.076c.036-.046.058.026.133.066l-.061.02c.09.076.192.312.22.194l.039.075.085.013.062.07-.02.02-.053-.053-.02.1.05.03c-.036-.074.067-.033.11-.042.057.037.052.102.066.119.007.008.153.034.053.066l.158.108.036.068c-.068-.007.004.14-.09.072-.069-.05-.054-.095-.083-.123-.026-.025-.06-.02-.088-.047a9 9 0 0 1-.512-.526c-.033-.036-.075-.058-.098-.083-.025-.028.032-.02-.007-.048-.042-.03-.07-.017-.08-.026-.006-.007-.006-.043-.023-.06-.07-.07-.189-.154-.2-.166a8 8 0 0 1-.201-.24c-.004-.006.072-.06-.042-.034l-.046-.038.047-.033c-.13-.03-.075-.03-.157-.105-.197-.178-.462-.465-.67-.665-.048-.045-.081-.047-.136-.1-.052-.049-.136-.227-.172-.134-.056-.168-.172-.089-.167-.205l-.047.006c-.023-.098-.075-.084-.146-.146-.03-.026.043-.034-.06-.046l-.023-.043.038-.023c-.072-.055-.072-.065-.1-.022q-.038-.055-.073-.112l-.049.025c-.001.043.73.705.839.792.088.142.351.34.438.439.034.04.024.082.075.139s.142.1.172.129c.099.092.547.551.206.277q-.008.032-.013.065c.167.078.095.062.192.168.041.045.172.118.107.172-.09-.068-.156-.172-.227-.24-.007-.008-.116-.062-.15-.111-.032-.045.051-.076-.096-.094.002-.124-.09-.103-.113-.113-.038-.018-.01-.052-.035-.084-.026-.034-.066-.035-.072-.039-.042-.041-.26-.253-.261-.279l.043.01c-.048-.065-.068-.022-.086-.033l-.033-.034.033-.006c-.069-.066-.04.008-.134-.088-.06-.06-.098-.148-.106-.152-.002.001 0 .034-.026.013-.044-.037-.115-.108-.1-.14-.023-.015-.044.008-.047.006-.017-.013-.221-.2-.258-.234-.102-.096-.207-.211-.318-.314-.01-.01.01-.018 0-.029-.02-.017-.131-.083-.148-.096-.038-.03-.119-.128-.14-.136 0 .006.005.045-.032.02-.045-.032.002-.038 0-.04-.068-.087-.136-.118-.193-.167-.018-.017-.03-.068-.06-.086-.003-.002-.015.021-.019.02-.046-.026-.047-.094-.06-.113-.033-.044-.038.002-.04 0-.027-.025-.052-.068-.093-.106-.18-.17-.325-.311-.509-.499-.022-.023-.033-.066-.036-.072-.011-.01-.029.013-.06-.02-.066-.067-.13-.129-.195-.196-.014-.013-.001-.039-.01-.05-.034-.035-.2-.102-.14-.166-.124-.013-.122-.106-.177-.16-.131-.129-.346-.32-.468-.457-.025-.029-.022-.058-.036-.074-.026-.03-.187-.172-.196-.185-.01-.021.07-.082-.074-.103-.052-.044-.019-.067-.027-.078-.066-.09-.205-.101-.132-.146-.106-.074-.198-.1-.18-.191-.026.027-.085 0-.126-.06.098.007.122-.03.24.105.002.002-.021.019-.02.021.018.02.065.048.094.08.03.03 0 .027.012.039.012.01.03-.008.047.009.053.052.105.093.135.123.02.02.024.057.04.072.056.057.19.164.261.238.015.016-.01.028.022.063.004.004.036 0 .07.024.032.025.046.057.067.073.017.014.027-.009.06.021.027.026.317.34.33.36.02.027.007.062.024.074.003.001.031-.018.042-.01.171.117.46.467.625.632.345.345.676.65 1.03.992l.03.007-.105-.106.033-.034c-.046-.049-.065-.016-.08 0l-.033-.072c-.054.022-.146-.121-.206-.181-.04-.04-.1-.071-.12-.093-.041-.046-.018-.069-.02-.073-.008-.007-.088-.047-.131-.09-.064-.067-.035-.111-.155-.17-.096-.133-.232-.251-.358-.371.055-.01-.086-.09-.135-.14a44 44 0 0 1-.956-1.017c-.038-.04-.048-.09-.07-.111-.013-.012-.042.006-.055-.014-.003-.003.017-.027-.01-.06-.07-.086-.296-.241-.304-.331l-.81-.771.007-.047c-.096-.006-.267-.229-.365-.323-.173-.166-.403-.369-.553-.516-.033-.032-.048-.07-.078-.101-.014-.013-.047-.013-.06-.026-.155-.153-.346-.378-.502-.533-.352-.35-.68-.685-1.037-1.04-1.203-1.198-2.421-2.368-3.602-3.568-.016-.016.003-.034-.01-.047-.072-.074-.25-.221-.331-.305-.065-.066-.14-.198-.191-.192.188.278.438.52.669.776.016.018 0 .039.001.041.033.046.034-.003.093.053.02.022.136.25.173.173.019.065.304.374.37.424.02.015.025-.014.03-.011.017.011.002.04.014.054.034.037.144.11.161.128.04.04.14.177.197.225.052.044.068.011.112.05.034.032-.021.017.045.096.034.04.175.151.206.182.03.031.05.08.094.121.063.06.204.186.27.244.005.003.034-.007.042.002.018.02-.01.038.002.055.016.02.262.262.304.305.03.029.064.036.08.052.012.013-.006.034.006.047.005.004.056.02.089.054.032.033.137.171.15.185.01.01.015-.015.041.012.025.025.023.06.037.074.032.033.084.054.118.089.1.1.073.117.078.123.015.02.041.006.047.01.025.022.086.075.107.095.026.024.017.055.044.082.02.02.08.042.128.087.106.102.233.221.334.324.03.03.018.053.027.063.045.05.092.059.106.073.098.101.245.31.335.406.037.039.216.188.306.284.01.01-.013.015 0 .024.033.023.06-.007.073.008.006.008.006.04.024.061.097.113.181.172.228.22.45.467.91.944 1.336 1.374.048.048.125.09.18.179l-.02.032.033-.018c.086.077.13.097.202.191.005.01-.012.07.05.034.047.119.039.037.104.095.064.058.112.128.169.19.014.05-.161-.043-.172-.053-.014-.015-.005-.055-.017-.07-.037-.045-.096-.064-.083-.095-.077-.03 0 .024-.026.039l-.081-.133c-.09.053-.19-.234-.232-.167l-.014-.08c-.137.001-.128-.087-.198-.199l-.007.047c-.005.002-.1-.064-.034-.073-.131-.032-.046-.112-.18-.126-.05-.036.01-.045-.068-.122-.047-.046-.123-.085-.176-.136-.012-.011.003-.037-.008-.048-.01-.01-.036.005-.05-.008-.027-.025-.046-.074-.064-.09-.016-.013-.055-.017-.094-.05-.134-.115-.073-.103-.083-.13-.013-.03-.06-.014-.1-.06-.003-.005.027-.013.012-.026-.011-.01-.038.005-.08-.028l-.284-.27c-.054-.053-.155-.192-.21-.247-.021-.02-.06-.026-.083-.048l-.288-.293c-.085-.086-.195-.274-.277-.286-.125-.116-.124-.176-.133-.185-.024-.025-.054-.017-.086-.047-.411-.388-.925-.927-1.305-1.304-.882-.873-1.775-1.746-2.648-2.635l-.034.02c.098.11.205.248.305.354.132.142.373.308.414.469-.046-.036-.09-.125-.12-.093l.212.225.037-.05c.08.073.155.154.234.229.013.012.017-.01.029.001.013.013-.01.018-.007.02.032.033.056.03.06.034.01.01-.012.016.014.049.048.061.122.067.052.11l.053.053.06-.033c.047.171.206.113.18.26l.098.019-.012.08.046-.033c.097.116.226.214.327.317.07.072.082.095.146.157.142.138-.023.026.065.17l.03-.067.076.04v.08c.128-.008.113.084.12.093.007.006.072-.012.107.094.027-.086.053.053.06.06s.099.074.131.108c.026.026.07.093.108.131.034.033.05.012.053.013.043.04.003.03.032.06s.07.038.074.046c.002.004-.026.01-.013.027.036.045.124.103.17.15.015.016.021.051.039.07.027.029.06.022.076.04.006.008.012.072.06.111.01.007.1-.032.04.094l.048-.031c.181.117.117.266.278.238.098.12-.013.081-.006.099.005.011.05.036.053.04.006.008-.007.019 0 .026.141.137.102.054.16.084.138.07.145.227-.014.023l-.02.02c.052.039.161.155.09.15-.056-.003-.308-.29-.193-.1.027.042.069.036.083.142.037.043.103-.012.132.066l.037-.09c.1.047.155.174.223.218.023.015.192-.016.076.068.039.026.172.197.209.216.009.005.071-.04.15.077v.04c-.108-.07.03.107-.063.115.008-.037-.05-.121-.05-.145 0-.039.084-.006.003-.074-.131.038.041.133-.059.193.135.06.109.105.13.129.088.1.155.151.235.25.038.005-.1-.18-.126-.193.131.015.008-.114-.08-.133l.04-.066c.06.079.122.151.205.206l-.006.034-.076-.017c.04.073.058-.012.089.109l.067-.053.2.24c.077-.002.202.153.126.179.052.059.01-.038.075.002.029.018.076.063.073.088-.054.044-.128-.017-.182-.004.006.026.35.303.266.332.018.032.036-.01.09.028.147.107.286.36.462.39-.08-.161-.16-.153-.253-.244-.06-.058-.425-.408-.293-.38l-.058-.02.006-.087.119.107-.02.073.046-.02.053.04-.052.026.066.08.033-.073c.119.11.07.083.1.179.044.05-.002-.063.107.028.127.107-.004.085.159.224l.032-.02.073.127.021-.047c.064.073.179.147.159.213-.049-.09-.123-.014-.119.018.011.067.587.59.696.695.139.134.218.262.38.35-.054-.114-.375-.386-.412-.464-.003-.008.067-.076-.047-.034-.102-.13-.262-.246-.404-.392l.072-.047c.047.13.22.12.133.186l.052.053.04-.04.08.08-.039.04.066.066.046-.032c.039.093.338.245.16.225l.093.094.028-.03.045.036-.04.013c.077.046.09.15.16.16l-.06-.1c.038.063.157.13.166.14.026.025.02.058.047.087.024.025.035.008.04.013.118.15-.014.18.145.145l-.02.06.06-.006.116.122.01-.088c.066.05.063.11.067.118.015.018.043.006.048.01.241.245.075.116.119.316.073.012.06-.062.086-.1.043.073.07.082.128.144.016.016.015.051.025.061.009.009.054.018.075.038.034.034.07.092.117.14.04.039.173.146.258.23.035.035.011.043.02.052.004.004.05.014.073.036.188.188.37.392.559.58.133.132.282.253.414.388.027.028 0 .026.012.039.004.004.032-.013.066.039.012.02-.021.017-.006.034.007.007.03-.008.079.031.088.072.105.142.113.148.015.012.028-.008.046.008a23 23 0 0 1 .55.534c.025.038-.039.044.002.082l.06.008-.034-.074c.037.06.109.1.145.137.006.007.051.083.084.113l-.059-.021-.002.031c.07.054.136.121.2.186.021.024.001.029.024.052.133.14.155.05.18.286-.034-.054-.21-.203-.23-.23-.013-.02.012-.17-.056-.056-.13-.13.033-.068-.1-.18l-.026.042c-.05-.035-.086-.062-.092-.108-.063.046-.176-.13-.26-.207-.12-.11-.262-.226-.378-.337-.04-.038-.042-.082-.047-.087-.008-.007-.046-.009-.06-.022-.054-.053-.187-.248-.279-.237l.957.957c-.014-.066.31.254.326.272.014.016-.017.022-.013.027.026.04.08.044.09.055.009.009.013.037.041.065.006.005.02-.007.026-.001l.112.113c.002.002-.007.03.003.04s.038 0 .04.003c.03.03.07.093.098.122.01.01.018-.01.029.002.033.034-.004.05.045.086.017.01.036-.01.06.02.017.02-.019.053-.02.059.003.006.099.044.097.09-.11.016.048.055.07.023l.059.1.048.007c.076.136.159.183.254.297.005.006.077.11.064.114-.07-.036-.123-.088-.127-.152-.112.002-.068-.045-.165-.127-.031-.027-.049-.015-.053-.017-.125-.11-.319-.29-.352-.414-.034-.01.039.073 0 .053-.022-.012-.442-.402-.26-.325l-.045-.037c-.063.036-.118-.041-.06-.083l-.05.01a.15.15 0 0 1-.064-.031c-.09-.07-.546-.559-.578-.577l-.037.033c.196.222.427.396.621.657l.013-.053.227.319a1.6 1.6 0 0 1-.37-.33c-.015-.02.013-.024.01-.03-.006-.014-.043 0-.084-.036-.04-.036-.118-.15-.129-.16-.018-.016-.096-.032-.125-.061-.038-.039.006-.033 0-.04-.03-.034-.068-.054-.091-.08-.035-.04-.08-.15-.154-.128l.073.087c-.16-.126-.212-.3-.4-.394-.092.027.032.135-.092.061l.057.052.05-.025.066.12.007-.06c.118.102.24.201.218.298l.05-.036c.084.12.298.212.19.263l.027.001c.046.078.052.02.078.04.008.005.111.14.034.111.099.135.138.025.174.054.037.111.226.19.111.192l.028.04c.082-.008.066.08.088.136l.038.043.073-.02c.053.2.214-.04.103.187l-.057.003-.079-.05.245.272c.062.156.176.167.26.326l.046.02c-.05.027-.088-.022-.023.076-.02.034-.079-.018-.083-.064-.001-.01.071.02.014-.039-.04-.04 0 .064-.107-.066l-.006.032-.038-.039.012-.08c-.052-.007-.099.008-.16-.066.028.008.034-.046 0-.079l-.033.033c-.088-.074-.028-.079-.12-.12l.006-.046c-.072 0-.23-.11-.152-.14-.09.015-.146-.088-.133-.16l-.04.027-.053-.04-.007-.046-.052-.013.012-.054-.093-.014-.006-.059c-.025.021-.137-.08-.153-.126l-.046-.008.02-.045-.046.006-.021-.073c-.116-.009-.073-.057-.086-.071-.027-.026-.152-.084-.166-.1-.013-.017-.001-.044-.011-.058-.172-.231-.14-.098-.19-.13-.025-.017-.023-.05-.043-.068-.037-.03-.225-.17-.235-.183-.01-.018.107-.07.04-.094-.046.044-.097-.098-.115.01l-.103-.136c-.05.058-.065-.025-.121-.076-.08-.072-.286-.207-.226-.256l-.092-.017c-.107-.142-.247-.246-.371-.369a46 46 0 0 1-1.11-1.15c-.016-.018.005-.033-.007-.046-.064-.069-.25-.228-.339-.325-.028-.03-.025-.063-.034-.074-.029-.035-.046-.004-.06-.02-.022-.025-.124-.168-.164-.213-.02-.022-.063-.028-.082-.058 0-.003.02-.017.021-.02-.042-.047-.032-.005-.047-.02-.101-.115-.217-.23-.33-.351-.029-.03-.06-.088-.084-.115-.009-.01-.006.021-.038-.013-.01-.011.004-.034-.007-.048-.05-.06-.128-.018-.127-.113-.094-.088-.268-.231-.351-.314-.02-.02-.019-.041-.038-.06-.014-.013-.053-.019-.074-.039s-.038-.07-.078-.11c-.043-.04-.105-.084-.115-.093-.01-.012.004-.037-.008-.048-.035-.034-.147-.106-.194-.149-.05-.045-.07-.084-.086-.1-.015-.015-.05-.015-.057-.022-.011-.01.006-.034-.008-.047-.022-.022-.058-.032-.092-.065-.61-.597-1.19-1.2-1.762-1.8-.064-.068-.115-.09-.204-.194-.037-.041 0-.046-.034-.073-.016-.011-.028.008-.046-.009-.079-.072-.153-.175-.186-.208-.013-.012-.046-.01-.073-.035-.201-.197-.432-.437-.65-.649-.115-.111-.295-.274-.427-.403-.363-.356-.745-.747-1.075-1.073-.498-.493-1.01-.968-1.483-1.483.186.277.505.588.758.85.729.758 1.547 1.524 2.308 2.287.265.265.6.597.88.898.013.014.054.027.081.057.006.007.054.107.08.133.022-.07.08.07.111.1.04.036.145.093.222.197.07.094.029.09.032.095.022.036.061.017.086.037.103.078.552.562.681.694.034.033.016.053.024.06.02.02.067.031.099.063.057.058.107.143.139.175.076.076.24.2.34.3.028.027.008.044.02.056.057.056.223.179.292.248.113.112.216.239.336.346l-.004.048.062.007c.185.2.4.376.59.569.023.022.117.148.135.167.015.014.05.008.07.033.027.036-.043.048.02.088.017.01.021-.02.054.002.015.012.197.178.205.19.013.017-.01.068-.007.073.017.026.046-.004.063.008.05.035.086.11.094.116.088.078.265.21.34.311.01.014-.011.033-.011.037.01.018.042.003.056.015.073.068.166.193.232.267.007.009.037.014.05.03.075.088.031.08.034.086.01.013.05.012.08.04.079.073.221.221.3.304.06.062.036.084.04.088.008.01.05.015.09.053.082.072.056.082.088.113.003.001.016-.019.052.013.071.064.206.234.28.306.028.027.052.017.08.045.046.044.129.163.139.174.002.002.027-.012.04 0 .015.015.02.04.03.05.063.062.204.134.103.176l.113.008c.127.133.26.252.392.378.03.028.04.066.065.09s.156.108.175.126c.033.031.218.212.24.237.04.047.054.118.077.131.02.01.023-.019.055.004.056.04.117.142.132.156.006.006.007-.018.066.04.032.03.036.06.047.072.004.004.022-.025.08.04.042.046.042.083.046.088.007.006.043.004.07.031.061.065.155.203.214.266.011.012.031-.015.076.034.032.035.007.048.02.06.018.022.07.03.112.074.055.056.435.482.455.514.01.018.026.035.023.052l-.047.01c-.029-.095-.042-.03-.06-.045-.028-.02-.114-.117-.144-.13-.01-.005-.014.034-.066.002-.057-.034-.04-.09-.107-.058-.01-.12-.129-.122-.07-.033.034.052.419.476.498.561.065.07.205.181.284.267.047.051.163.173.132.194.039.046.02-.024.032-.02.026.012.142.162.17.188.128.122.317.251.406.407q-.02.001-.04.005c-.04-.015-.148-.16-.196-.14l.557.556c.026-.032.256.2.254.223l-.055.03c-.077-.183-.134-.102-.184-.226-.035-.037-.049-.003-.07-.016-.218-.13.044-.05-.11-.163.006.073-.115-.024-.168-.069-.012-.01-.151-.165-.17-.182-.1-.095-.286-.244-.365-.36-.075-.078-.14-.097-.215-.161-.057-.049-.025-.05-.05-.076-.051-.052-.12-.019-.082-.123l-.132-.08.032-.032-.066-.067-.052.013c-.056-.085 0-.083.018-.127l-.04-.052-.107.037-.198-.21.02-.046-.033.032-.352-.338c-.048-.013.123.185.136.2.072.084.295.272.256.312.077.019.215.17.225.251l-.199-.212-.032.047c-.033-.139-.049-.149-.187-.187l.054-.053c-.123 0-.128-.212-.207-.14l-.08-.115c-.08-.061-.028.106-.28-.193-.018-.02.006-.037-.024-.064-.01-.008-.085-.026-.172-.12-.014-.014.002-.032-.01-.049-.03-.039-.13-.073-.045-.096-.118-.15-.108-.05-.166-.073-.04-.016-.002-.043-.033-.06-.038-.02-.05.033-.152-.1l.045.034.007-.046c-.089-.047-.052-.072-.133-.055a.44.44 0 0 0-.14-.178c-.138-.123-.123-.004-.201-.224l-.103-.042c-.019-.06.04-.055-.014-.12-.006.099-.113-.046-.18-.02l.027-.04-.04-.04-.026.027-.034-.072-.065-.015-.01-.12-.038-.045q-.015.026-.026.052l-.04-.065c-.001.041-.04.054-.093-.002-.045-.045.05-.04-.065-.118-.009-.005-.053.014-.149-.072-.116-.104-.04-.074-.058-.095-.004-.004-.054-.021-.088-.05-.019-.017-.023-.048-.026-.05-.011-.01-.033.005-.05-.009-.04-.037-.083-.098-.122-.135-.017-.017-.043-.023-.052-.03-.012-.012-.01-.044-.023-.056-.045-.044-.168-.057-.112-.155-.114.028-.118-.147-.159-.093-.097-.132-.46-.38-.372-.452-.134.004-.079-.04-.107-.066-.031-.03-.028-.001-.052-.026-.055-.058-.103-.117-.159-.173l.059-.007c-.056-.062-.062-.016-.127-.071-.12-.102-.051-.076-.039-.121-.023.032-.15-.103-.16-.12-.005-.01.065-.012-.026-.08l-.02.046c-.023-.051-.14-.13-.153-.151-.006-.01.041-.14-.066-.108l.019-.046-.165-.087.039-.08-.04-.039-.027.08c-.074-.09-.201-.163-.159-.24l-.085-.02.024-.093c-.086-.076-.101-.064-.178-.099l.053-.04a.7.7 0 0 1-.22-.13c-.029-.027-.056-.096-.065-.102s-.158.012-.094-.066c-.129-.066-.14-.141-.18-.18-.026-.025-.055-.02-.085-.047-.044-.039-.078-.09-.103-.112-.014-.013-.033 0-.043-.008-.047-.042-.004-.033-.052-.08-.005-.003-.06-.016-.097-.058-.02-.023-.052-.102-.057-.108-.022-.021-.051.043-.073-.086l-.02.034c-.116-.07-.09-.126-.106-.147-.003-.003-.04-.01-.052-.025-.02-.026-.008-.056-.012-.062-.014-.021-.084-.073-.103-.132-.05.067-.209-.048-.173-.146q-.056-.015-.112-.034V18.9l-.053.013-.034-.178-.08.065-.02-.038.034-.08-.049-.027-.05.033c-.083-.05.084-.15-.16-.16l-.027-.093c-.076.031-.085-.042-.125-.07-.028-.02-.048.003-.08-.029-.033-.032-.012-.052-.015-.054-.025-.028-.062-.03-.078-.052-.002-.004.014-.035-.009-.062s-.064-.015-.096-.057c-.016-.021-.002-.047-.016-.065-.071-.089-.255-.067-.193-.249-.03.002-.181-.04-.22-.086-.06-.07-.01-.07-.032-.1-.005-.005-.033-.018-.084-.072-.008-.009-.019.003-.022.004-.063-.064-.176-.197-.244-.27-.007-.006-.078-.001-.083-.107-.119-.046-.193-.28-.358-.332-.016-.014-.021-.045-.028-.051-.062-.053-.082.008-.151-.181-.011.03-.06.02-.1-.025-.062-.067.022-.06-.033-.108l-.033.033c-.09-.149-.16-.126-.28-.245-.043-.043-.082-.13-.092-.14-.006-.005-.078-.025-.082-.03-.026-.024-.028-.05-.05-.072-.071-.073-.192-.124-.114-.17l-.1-.02c-.007-.142-.155-.106-.106-.187h-.08l-.943-.984c-.034.008-.167-.14-.17-.15-.018-.047.06-.058-.017-.114l-.082.037c-.09-.078-.03-.057-.05-.104-.017-.01-.027.008-.047-.009-.109-.096-.32-.306-.433-.417-.022-.022-.005-.033-.011-.04-.02-.019-.076-.04-.115-.078-.239-.24-.567-.589-.793-.845-.015-.017 0-.036-.01-.048-.014-.017-.062-.037-.077-.055-.014-.016-.011-.038-.026-.056-.067-.081-.189-.16-.23-.277a2 2 0 0 1-.014-.17c.016-.038.133-.006.051-.168.143.074.17-.02.06-.19l.234.188.023-.022a.65.65 0 0 0-.175-.278l.03-.01c.12.053.23.15.341.17l-.187-.39.03-.001c.06.032.168.125.22.15.195.098-.09-.163-.017-.149l.462.467c.026-.018-.506-.67-.436-.733l.16.133-.014-.116.034.003.285.207c-.263-.237-.37-.363-.297-.555l.031.01c-.028.138.253.366.405.485-.003-.052-.142-.153-.152-.193-.003-.01.039-.003.03-.028-.02-.066-.175-.28-.121-.28.034 0 .356.271.412.332-.104-.168-.235-.316-.333-.491.14.032.283.042.443.197.074.018-.216-.35-.21-.375l.221.122-.159-.133zm13.54 16.264-.002.04-.075-.027.01-.062zm-.077-.066c-.039.013-.14-.065-.185-.105-.002-.002.023-.005-.008-.034-.011-.01-.15-.046-.072-.085zm1.963-.182c-.115-.14.057-.033.055.018-.008.138-.113-.036-.122-.044-.013-.01-.09.014-.076-.123zm-1.625-.05-.02.021c-.09-.143-.101-.018-.11-.13zm-.664-.066c.045.038 0 .07-.013.08l-.04-.041zm1.883-.315c.012.009-.006.016-.001.02.071.067.246.217.221.278-.054-.047-.291-.266-.276-.309q.027.006.056.01m-1.79-.11c.1-.05.286.24.411.332-.103-.011-.16-.132-.221-.195-.12-.121-.065-.01-.098-.018-.016-.006-.036-.12-.092-.119m-.076.177c.004.007-.023.056.066.072l.014.04c-.04-.003-.226-.17-.163-.183.027.026.056.042.083.072m-.661-.026c-.022.026-.07-.03-.1-.06v.027c-.058-.069-.167-.195-.218-.153-.051-.04.009-.061-.001-.08-.008-.01-.087-.045-.105-.119l-.035-.034-.052.04.01-.104zm2.043-.42c.05.1.136-.031.17.065.006.016-.064.022.03.068l.018-.034.042.055q-.018.008-.035.018c.091.058.214.168.094.157l-.32-.29zm-1.373.122-.038.01-.082-.076-.01.062-.05-.028-.003-.13q.09.082.183.162m.384-.224c.027-.029.132.118.172.146-.085.01-.103-.098-.172-.146m.959.029c-.014-.07.084.022.096.06-.002.007-.082.01-.096-.06m-2.127-.19c.008-.075.187.098.198.12.002.006-.011.053-.011.066l-.08-.08q-.001.03-.004.057l-.103-.084.07.01zm.073-.339c.036.066.114.113.194.198.004.005-.004.03.008.043.014.015.25.216.207.228-.112-.061-.107-.132-.19-.09l.027-.052c-.06-.106-.129-.085-.192-.114l.03-.03-.09-.097-.007.034-.034-.034c.003-.056-.023-.097.047-.086m1.082.46-.047.006-.096-.128zm.674-.219c.03-.002.047.045.056.048.01.001.08-.062.066.067l.066.039-.032.06c-.056-.08-.094-.057-.1-.06-.026-.02.006-.02-.008-.034-.038-.038-.133-.113-.049-.12m-1.855-.009c.007.022-.094.031-.023.13l-.189-.182.113.06.032-.061zm.404-.085c.038.028.017.053.023.062.02.025.05.036.07.058-.08.03-.11-.05-.093-.12m1.413-.03c.002.013-.045.008-.045.02.002.013.061.113.006.125l-.037-.044q.007-.022.016-.043-.033-.007-.067-.012c.002-.045-.014-.122.06-.086l-.066-.056-.067.003.07-.035zm-.56-.104c.01-.008.098.07.116.087.192.2-.057.049-.116-.087m-.83-.288c.013-.078.36.36.401.396-.03.027-.095-.095-.085-.006-.025-.069-.167-.187-.19-.224-.015-.022.005-.052.003-.056-.01-.015-.134-.082-.13-.11m-.188.296.058.02-.032.06-.107-.12.04-.025.04.065m-.491.065-.054.013-.047-.073zm.036-.009c-.106.042-.032-.208.01-.046.005.017 0 .042-.01.046m.116-.249c.054.066.105.083.129.162l-.03.004c-.013-.024-.141-.184-.099-.166m.194.012-.01.068-.104-.107.066-.01zm.898-.92c-.015-.155.123.034.198.114.006.005.009-.014.028.007 0 .003-.015.023.001.04.059.063.133.15.176.195.102.108.457.397.441.489-.003.018-.052.033-.053.039.004.014.074.051.04.066l-.157-.159.09-.013c-.14-.122-.096-.08-.172-.08l-.022-.111-.19-.1h.066c-.053-.094-.047-.061-.114-.075l.033-.032c-.097-.044-.077-.091-.092-.107-.031-.032-.202.058-.193-.193-.113.012.014-.113-.08-.08m-1.385.43c.04.076.133.087.14.1.004.01-.005.118.106.12l.073.178c-.045-.098-.172-.169-.206-.205-.012-.013.004-.034-.006-.045-.06-.063-.161-.08-.107-.148m-.295.295.063.069.033-.059-.04-.04zm1.522-.102.014.054-.107-.08.005-.027zm-1.896-.161c.05-.001.036.075.118.146l.047-.046-.08-.027c.029-.033.004-.081-.066-.107zm2.32-.01.001.054-.087-.034.048-.042zm-2.772.036c-.05-.069-.128-.174-.152-.113l.12.106zm1.996-.163c-.185-.247.124-.003.136.099 0 .009-.03.018-.03.034l-.04-.093-.092-.027-.006-.033zm-.351-.047-.06-.047.106.16-.195-.229.089-.01zm-.567-.15c.1.05.099.127.208.163l-.006.059c-.072-.073-.149-.117-.202-.222m1.343.066c.148.12.044.003.145.066l-.043.043zm-1.068-.155c-.007-.03.041.006.054.018.13.117-.043.032-.054-.018m1.153.028-.04.026-.045-.06.045-.02zm-.31-.152.038-.014.107.106.025-.16-.04-.039zm-1.15-.262.074.008-.007.046c.087.029.205.143.107.16-.035-.09-.098-.108-.173-.214m1.118.11c0 .008.068.04-.01.058.05.048.092-.016.086-.034-.012-.03-.07-.072-.076-.024m.061-.02c.109-.006-.092-.217-.107-.066l.024.039zm-.794-.168c-.044-.056-.168-.057.008.086l.02-.02c-.008-.005-.034-.017-.034-.02-.002-.004.024-.023.006-.046m.49-.133c-.058-.109-.123.083.06.1-.112-.09-.056-.093-.06-.1m-.961-.02-.02.019-.219-.206.028-.011zm.83-.085c-.01-.036-.14-.083-.071.008.043.056.07 0 .07-.008m-1.786-.395c-.074-.01.078.135.08.08a.5.5 0 0 0-.08-.08m-.16-.128c-.037.034.105.158.12.145.006-.01-.035-.05-.04-.06 0-.004.026-.005.01-.029zm1.406-.028c-.05-.066-.124-.035-.05.039.03.03.102.028.05-.04m-1.582-.061.114.019-.081-.08zm1.287-.224c-.037.084.062.066.057.16l.05.05.05-.048zm-.418-.167c.101.005.085.127.126.14.009.001.02-.033.015-.049a1 1 0 0 0-.115-.145zm-.027-.027c-.109-.075-.005.062-.072.046l.059.047zm.106-.08.054.107c.002-.013.035-.035.034-.043-.007-.048-.057-.093-.088-.064m-1.683-.068.065.066c.007-.011-.017-.036-.02-.051-.003-.017.012-.025-.001-.049zm1.463-.071c-.043.012-.114.012-.105.075.002.012.026.042.027.058.096.022.111-.04.078-.133m-1.396-.29c-.023.015.162.175.196.175-.09-.142-.079-.054-.196-.176m1 .037c.02.056.093.057.085.021-.018-.07-.09-.03-.086-.02m.33-.065c-.215-.167-.139-.026-.042.007q.03.01.042-.007M11 13.334c.062.04.125.164.133.173.004.003.038.008.068.04.042.044.048.076.052.08.01.011.018-.01.029 0 .078.08.143.138.216.21.082.083.098.15.186.182l-.012.052c.093-.002.353.27.458.38.033.035.009.047.02.059.007.007.03-.02.113.073.043.047.036.078.059.1.013.012.03-.008.047.01.101.1.177.19.273.292.027.029.013.045.02.05.024.023.089.038.147.096.096.096.288.287.354.379.01.013.002.041.01.05.014.011.036 0 .04 0 .043.043 0 .035.033.06.018.012.056.007.094.04.051.045.017.062.04.079.003 0 .02-.015.04.002.076.073.188.178.259.248.02.02.023.047.05.075.057.057.384.37.407.405.002.004-.053.002-.007.047l.073.007.014.12c.06-.062.2.06.137.12l.035.05c.073-.013.078.023.16.055l-.012.066.032-.02c-.017.08.082.082.089.088.024.022.03.052.041.063.043.04.149.113.189.169 0 .004-.02.02-.01.036.02.03.053.002.05.07l.046-.006.008.035.133.117c-.073-.003-.05.06.02.075.022.004.032-.03.04-.028.015.008.185.2.184.226l.047.006-.026.053.029.002c.026.072.205.145.224.171.008.016-.057.06.006.113l.052-.04.047.033c.024.026.034.09.017.11l.056-.01c-.015.057.112.157.18.18l.006.073.094.013c.045.037-.02.017-.013.027.017.023.146.08.094.12l.039.04.058-.02c-.022.067.032.09.094.184l.051-.011.029.118.067-.037.04.024c-.018.06.062.057.066.093.005.052-.044.058-.103.01-.024.033.147.178.186.212l.01-.023-.126-.1c.04-.102.123.02.179.057.008.003.057.002.1.05.017.019.049.13.06.145.091.128.067-.01.125.147.015-.06.046.033.117.09.012.01.136.072.143.077.043.034-.032.025.033.073l.047-.007.039.04c.001.157.077.12.113.14.014.009-.02.014.013.04.013.009.043.004.074.033.098.09.057.195.22.206q.002.037.006.073.033-.008.066-.013c.03.106.045.043.069.067.064.067.19.208.17.252.13-.016.115.133.14.152l.066.013.02.073c.063-.079.074.072.08.08.008.01.153.113.198.16.045.045.105.141.114.152.008.008.105.067.166.129.054.053.344.398.356.346a.5.5 0 0 0-.056-.096c-.068-.093-.515-.573-.629-.697-.228-.248-.48-.496-.712-.742-.013-.015.002-.035-.01-.047-.017-.019-.082-.048-.1-.066l-.18-.19c-.08-.082-.125-.15-.184-.213-.02-.02-.138-.094-.194-.169l-.021-.05c.04.028.145.101.189.141.064.06.082.107.105.13.02.019.134.098.179.142.013.014-.003.037.009.048.064.064.15.149.225.185-.029-.016.1.136.108.145.013.013.046.008.072.034.05.05.005.082.105.107l.014.079c.052-.048.18.215.296.21.004-.01-.227-.28-.247-.302-.12-.132-.32-.306-.433-.437-.033-.038-.115-.18-.127-.194-.015-.013-.02.016-.028.01-.136-.11-.04-.083-.046-.11-.005-.018-.069-.042-.073-.047-.009-.008.003-.015.006-.018-.058-.055-.037.027-.086-.008-.009-.007-.091-.119-.133-.157-.063-.06-.122-.123-.145-.146-.04-.038-.136-.087-.201-.15-.027-.026-.018-.053-.044-.08-.173-.166-.533-.475-.672-.637-.034-.04-.045-.101-.067-.119l-.074-.02c.032-.127-.054-.072-.113-.115-.037-.028-.03-.068-.034-.072-.03-.029-.055-.032-.08-.053-.027-.024-.053-.071-.064-.078-.007-.005-.021.045-.12-.055-.101-.102-.198-.205-.3-.31-.06.129.036.093.081.132.012.01-.01.018 0 .027.03.026.098.064.117.091.021.029-.022.056.022.074.003 0 .012-.018.021-.013.098.05.098.1.192.194.061.063.454.428.458.45.017.118-.382-.28-.425-.331-.014-.018.018-.017.007-.034-.005-.008-.092-.034-.151-.087-.071-.065-.187-.223-.253-.287-.561-.549-1.091-1.115-1.646-1.67-.011-.012-.044-.01-.083-.049-.72-.72-1.451-1.48-2.189-2.2-.16-.157-.336-.298-.483-.471zm7.86 7.794.053-.08-.053-.023zm-1.732-.924c-.13.044.039.048.032.178.032-.072.124.024.133.026l.02-.084-.172-.068zm2.185-.112.05-.025-.106-.026zm-3.07-.813c-.063-.022-.027.085-.051.107.041.03.135.096.172.132.02.02-.044.039.092.08l.026.091.16.055-.026.067c.002.006.117.053.127.039.004.063.068.137.139.21l.047-.003c-.088-.052-.015-.032-.02-.068-.003-.021-.02-.077-.02-.104-.006.08-.196-.104-.25-.176-.012-.017-.016-.068-.03-.077l-.046.007c.022-.038-.135-.128-.2-.16l.02-.047-.066-.04.04-.026h-.08c-.066-.038.025-.066-.033-.087m.199-.685c.24.248.49.517.74.739l.005.067-.848-.852zm1.395-.03.09.127-.053.047-.044-.07-.043.002.015.129.106.065-.013-.065c.08.06.024.085.066.159l.107.013.04.134q.08.059.056-.017c.044.004.04.061.076.082.003.002.018-.022.02-.02.163.137.105.18.127.206.017.018.115.051.129.042.017-.014-.062-.216.159.001-.072-.155-.243-.241-.222-.096-.03-.042-.202-.184-.212-.197-.012-.017.016-.036-.001-.055-.01-.01-.094.014-.133-.12l-.06-.006-.009-.053.142-.013c-.112-.056-.13-.18-.225-.187-.04-.049-.056-.075-.015-.079l-.039-.04zm-2.005.463c.093.061.128.124.16.053l-.127-.112zm2.348-.076.086.031-.013-.05-.083-.037zm-2.375-.057c-.006-.041-.126-.052-.086-.007.031.036.089.03.086.007m-.26-.365c-.055.056-.11.013-.092.133q.023.018.043.037l.064-.01c.07.27.291.149-.06-.074zm-.582.012c.052.01.122.109.186.16-.008-.091-.09-.102-.16-.186zm2.987-.065.036.11.057.011c-.013-.018-.019-.06-.022-.065-.01-.017-.06-.08-.072-.056m-3.214-.585c.006.045.088.074.092.08.014.018.01.064.04.09.016.015.08.02.111.052.072.072.125.283.295.303l-.007.047c.076.065.081.013.114.112.183-.094-.27-.256-.094-.305l-.045-.035-.095.08c.034-.107-.081-.088-.105-.212l-.047.007c-.008-.047-.272-.322-.259-.219m2.613.124c-.035.13.354.349.392.525l.073-.007c-.07-.046-.082-.114-.107-.147-.02-.026-.032-.01-.034-.012-.046-.058-.05-.088-.088-.13-.097-.105-.201-.117-.236-.229m.193.497.053-.053-.156-.135zm-1.645-.043.06.008c-.047-.05-.088-.119-.146-.12zm1.444-.3c-.126-.075-.073.006-.075.01-.014.017-.057.01-.04.064l.084.05.007.06c.063.025.01-.038.028-.07.008-.012.062.017.045-.07-.019-.024-.026.002-.028 0-.013-.015-.014-.04-.02-.044m.115-.1c.07.057.168.206.212.158l-.183-.172zm-1.802-.511c-.043.06.365.359.349.315-.128-.113-.203-.237-.35-.315m-1.018.193c-.002.005.086.142.103.083.007-.03-.097-.096-.103-.083m-.114-.153c-.044 0-.082.02-.039.093.055-.045.07.05.1.073q.017 0 .036.004zm1.583.146-.109-.077.02-.02zm-1.046-.629c-.009-.02-.376-.35-.268-.14l.13.12c.051-.12.087.07.095.081.036.053.113.09.145.123.026.029.028.06.048.08.067.064.172.169.222.149l-.157-.159c-.058-.056-.075-.14-.227-.2-.021-.032.014-.05.012-.054m-.856.249c.056.073.06.045.088.134.124.05.046-.018.08-.052l-.09-.03c-.017-.079.042-.052.047-.053.01-.01.014-.012.002-.037zm2.223-.1.054-.054-.014.04.072.033-.02.073.08-.026c-.054-.116-.082-.082-.099-.1-.008-.01-.004-.025-.001-.034l.001-.005c-.02-.022-.119-.068-.129-.057zm-2.446-.119q.09.087.183.172l.027-.025c-.089-.028-.08-.084-.092-.1q-.058-.075-.107-.151zm-.149-.258c-.05.07-.044.091.089.14l.011-.033c-.051-.042-.092-.056-.053-.08zm1.095-.037.18.166.004-.045c-.011-.03-.063-.025-.127-.124zm-1.845-.627.094.067-.028.026c.072.007.223.187.187.213l.066-.013c.043.115.15.144.2.265l.053-.012-.013.039.09.098c.136.066-.013-.175-.043-.197-.004-.003-.028.02-.051.004-.043-.03-.217-.25-.293-.297l.043-.047-.125-.032c.02-.03-.1-.073-.021-.114q-.071-.007-.142-.017zm1.374.301c-.006 0 .012.052-.08.026.052.038.09.063.12.04l.013.067.086.047c-.028.023-.024.023.027.039l.026.066.054-.013-.007.086c.069.036.067-.025.106-.039-.11-.042-.243-.298-.345-.319m.321.023c-.066.022.032.085.043.13.017.07-.07.029.054.12l-.04.014c.06.065.101-.017.12-.014.007.003.04.045.051.049.138.04-.092-.133-.101-.142-.01-.013-.106-.163-.127-.157m-.435-.07.047-.02-.082-.049zm1.202-.176.048.016-.028-.06-.06-.009zm-1.467-.434c-.06.02.117.16.15.203.018.022.077.161.175.215l.007-.008c.06-.098-.238-.286-.332-.41m-.356-.07.13.136h-.025c.055.078.11.079.141.118.004.005-.008.026.006.04.031.035.119.134.147.13.059-.01-.147-.183-.181-.22-.015-.017-.02-.05-.029-.06-.01-.011-.043-.008-.069-.034-.007-.008-.07-.114-.11-.147zm.814.33c.045.039.072.077.04.092l-.065-.07zm.888.053.054-.013-.1-.06zm-5.027-4.02c.375.562.947 1.07 1.448 1.569.054.053.039.08.06.097.014.012.03-.007.046.01.622.617 1.238 1.188 1.82 1.791.038.038.183.255.276.24.07-.01-.092-.11-.114-.132-.016-.017.003-.037-.007-.048-.012-.011-.016.011-.03-.002-.057-.055-.115-.122-.167-.173-.516-.494-1.004-.988-1.504-1.492-.06-.06-.032-.064-.035-.067l-.529-.5a10 10 0 0 1-.534-.523l-.698-.761zM12.924 15c-.004.03.04.042.049.055.002.004-.032 0-.013.028l.05-.01zm-1.59-.458c.1.027.18.154.213.08-.155-.08-.052-.038-.18-.166zm-.339-.325c.007.023.139.04.126.006l-.099-.057zm-.405-.446c.062.092.127.191.178.114l.054.053c-.042.012-.049.023-.02.086.048-.027.077.04.14.086l-.114-.126.021-.02c.086.09.018-.06-.066-.092l.013-.04-.06-.007-.026-.066zm.57-.49c.124.07.229.24.318.334.025.026.032.004.034.005.015.015.046.116.107.094.002-.038-.421-.446-.443-.449-.006 0-.01.013-.017.017m-.93.159c.08.055.078-.01.174.066l-.126-.14zm1.58.055c.007.007.05.017.033-.007l-.226-.185zm-1.174-.54c-.003.031.127.132.161.167.046.046.133.206.216.146-.037-.04-.37-.373-.377-.313m-.598.251.066-.013-.109-.05zm.935-.588c-.029.009.034.072.053.094.085.095.208.202.299.298l-.003-.04zm-.55.045c-.04.028.165.245.192.26 0-.01.005-.027.001-.036-.017-.04-.157-.169-.194-.224m.31-.31c.01.055.091.13.14.179-.014-.053-.103-.124-.14-.18m-.006-.074.026-.026-.159-.133z"/></g><defs><clipPath id="a"><path fill="#fff" d="M0 0h32v32H0z"/></clipPath></defs></svg>