<svg preserveAspectRatio="none" width="100%" height="100%" overflow="visible" style="display: block;" viewBox="0 0 84.0002 31.9997" fill="none" xmlns="http://www.w3.org/2000/svg">
<path id="Line 51 (Stroke)" d="M6.50017 31.7442C6.55282 31.7044 6.76148 31.8023 6.85173 31.7852C6.74915 32.2144 6.3127 31.8916 6.50017 31.7442ZM15.7824 0.573272C15.7074 0.679289 15.6328 0.785612 15.5578 0.891631C15.7711 0.960448 16.0581 0.88273 16.256 0.983428C16.2878 1.00148 16.2044 1.30694 16.2804 1.32132C16.3571 1.33495 16.3428 0.915063 16.4543 0.870147C16.5797 0.82147 17.1514 1.11335 17.3498 1.10647C18.0914 1.07813 18.84 0.83833 19.5832 1.01272C18.816 1.32339 19.589 1.63955 19.8039 1.50491C19.8512 1.47108 19.8451 0.693478 20.6135 0.889678C21.1025 1.01455 20.6508 2.13038 21.467 1.57132C20.8394 0.790721 21.4564 0.8453 21.9484 0.819365C22.0332 0.814771 22.7179 0.931927 23.0207 0.89749C23.1242 0.885465 23.2828 0.476581 23.4201 0.46585C23.5143 0.459444 23.5858 0.681997 23.7258 0.670928C24.3799 0.620547 25.0236 0.603184 25.6789 0.67874C25.2967 1.72738 25.9766 1.1293 26.0099 1.17679C26.166 1.46201 25.4607 1.54336 25.7394 1.72171C26.1297 1.68916 26.5201 1.6566 26.9103 1.62405C26.5905 1.4948 27.3349 0.739289 27.4718 1.08304C27.4116 0.154714 29.2505 1.89115 29.5304 1.58108C29.5883 1.51526 29.2076 1.05707 30.092 1.26663C30.1879 1.28996 30.152 1.57009 30.2023 1.54397C30.2325 1.52774 30.4144 0.638545 30.6086 1.12991C30.6795 1.30949 30.2264 1.89427 31.2228 1.65921C30.826 0.752992 32.6046 1.16843 32.9318 1.39554C32.8664 1.27379 32.8009 1.15205 32.7355 1.0303C33.0583 1.35802 33.117 1.05202 33.1896 1.06741C33.4833 1.13486 33.8877 1.44536 34.1613 1.41702C34.4811 1.38409 34.4826 0.820904 34.8556 1.04007C34.7671 0.915739 34.6785 0.791353 34.59 0.667022C34.8475 0.696942 35.105 0.726945 35.3625 0.756865C34.7668 1.50147 35.4894 0.794557 35.5392 0.776397C35.6155 0.749244 35.5064 1.05466 35.634 1.01663C35.6467 1.0074 35.6289 0.722588 35.8244 0.690459C36.235 0.623961 36.1705 0.985564 36.3429 0.981475C36.3574 0.975089 36.3057 0.71997 36.6008 0.659209C37.547 0.464104 36.5964 0.857629 36.5597 0.893584C36.512 0.940823 36.8363 2.02364 36.0324 1.63968C36.3023 1.76191 36.3301 2.24106 36.3605 2.25296C36.3904 2.26217 36.8553 2.19519 36.881 2.17874C37.1103 2.01593 36.9085 1.68856 36.9533 1.62991C36.9917 1.58431 37.5529 2.00767 37.6847 1.02444C37.9543 1.93267 37.5302 1.84981 37.0783 1.98929C37.0125 2.17525 37.506 2.35608 37.5343 2.35647C38.1748 2.35482 37.8201 1.60759 37.9601 1.12991C38.0337 0.880023 38.2948 1.38979 38.0539 0.719756C38.6351 0.649028 38.2829 1.03729 38.3205 1.09476C38.3771 1.17897 38.5797 0.987813 38.6056 1.01272C38.643 1.05058 38.5134 1.28246 38.6603 1.36429C38.6848 1.37617 38.9225 0.976977 38.6164 0.786162C39.0253 0.842889 38.9914 0.502704 39.1301 1.18851C39.4116 -0.10864 39.3348 1.95376 39.4455 2.02835C39.7403 2.21999 39.6546 1.20163 39.6701 1.1514C39.7774 0.832969 40.5948 1.18301 40.797 1.03616C40.7173 1.76981 40.1498 1.04491 40.0226 1.18655C39.5996 1.66022 40.6187 1.55367 40.3117 2.47562C40.4405 2.22245 40.5687 1.96901 40.6974 1.71585C40.9336 2.30876 40.5989 2.56727 41.2345 2.35062C41.3384 1.83907 40.7856 2.43143 40.8967 2.02835C40.9623 1.79197 41.3298 1.74093 41.3371 1.61624C41.3442 1.46628 41.0121 1.64399 41.0646 1.41312C41.1795 0.915132 42.3935 1.38922 41.4689 1.66116C41.7268 1.65282 41.8595 2.64371 42.0832 2.33499C42.2278 2.13454 41.4144 0.765887 42.6349 1.01663C42.6609 1.48397 42.1488 1.15602 42.134 1.19046C42.1152 1.24224 42.2075 2.29579 42.2238 2.35062C42.2807 2.52224 43.5275 1.95701 43.7912 2.48733C43.6871 1.87716 44.7338 2.3784 44.8478 2.19241C44.8777 2.14016 44.7647 1.76709 44.797 1.72757C44.9995 1.49243 45.5471 2.1595 45.8009 2.17679C46.0846 2.19602 46.0488 1.87344 46.0646 1.87405C46.1896 1.89214 46.0898 2.111 46.1662 2.11038C46.2819 2.10935 47.0756 2.1541 47.1154 2.10843C47.1253 2.09007 46.9981 1.72487 47.1701 1.6553C47.1999 1.64408 47.1817 2.08038 47.6935 1.89163C48.31 1.6644 47.2653 1.34767 47.5217 0.889678C47.9176 1.54118 47.9047 0.896673 48.0119 0.946319C48.0491 0.964803 48.3264 1.51428 48.6271 1.47952C48.4113 1.56869 48.1955 1.65793 47.9797 1.7471C48.1918 1.84332 48.6036 1.72437 48.7785 1.83304C48.8638 1.886 48.7937 2.33708 48.9787 2.32522C49.018 2.32018 49.174 1.22042 48.6886 1.7139C48.6499 1.32141 48.8813 1.57692 48.9884 1.46585C49.0049 1.44444 49.0689 0.793952 49.2052 1.20022C49.2381 1.30054 48.8805 3.21426 49.8029 1.82913C49.8322 1.78407 49.729 1.54479 49.758 1.49515C49.7778 1.46152 50.0129 1.55822 50.0392 1.52444C50.0658 1.48796 49.9529 1.22632 49.9845 1.17483C50.1469 0.910517 50.3594 1.94724 50.0246 1.86819C50.1365 1.99641 50.2486 2.12474 50.3605 2.25296C50.2408 1.47106 50.5367 2.03291 50.6916 2.00882C51.6837 1.85484 51.0191 1.34622 51.1896 1.08304C51.4641 0.660457 51.2548 1.99888 51.6623 1.59671C51.6991 1.55831 51.2082 0.991266 52.1691 1.31155C52.0272 1.33369 51.8853 1.35583 51.7433 1.37796C51.8252 2.13445 52.2561 1.32607 52.2892 1.31546C52.6665 1.21179 52.4114 1.48406 52.9718 1.09476C53.022 1.05978 53.1314 1.24648 53.2384 1.15335C53.6823 0.769743 52.6523 0.920541 52.6242 0.614287C52.6114 0.464343 53.719 0.50203 53.757 0.573272C53.9182 0.888974 53.2547 0.712538 53.381 1.10452C53.4272 1.24376 55.0058 0.957782 55.3224 1.11038C55.6878 1.28813 55.8523 2.31348 55.8547 1.16116C55.9578 2.29239 56.0491 1.52056 56.0959 1.52835C56.6604 1.63297 56.6616 1.64435 57.1457 1.53616C57.2526 1.51263 57.3432 1.85554 57.381 1.79788C57.403 1.76288 57.3621 1.39565 57.4699 1.28226C57.6198 1.12722 58.521 1.50498 58.5881 1.70804C58.655 1.91104 58.2073 1.79631 58.2873 2.12991C58.6111 2.16366 58.9222 2.08106 59.2482 2.11624C59.3832 2.13217 59.3138 2.3655 59.3722 2.37015C59.3972 2.37301 59.8647 2.16727 59.8449 2.08108C59.7979 1.88087 58.3548 2.0152 58.7345 1.60647C58.8079 1.52746 59.0677 2.0659 59.0265 1.41116C60.3162 1.55959 61.606 1.70805 62.8957 1.85647C62.1546 2.34619 61.3204 1.90822 60.5441 1.95413C60.4374 1.95969 60.0786 1.89702 60.1222 2.22757C60.7823 2.31318 61.6027 2.1409 62.2365 2.35647C62.2568 2.3636 62.1826 2.66021 62.258 2.70804C62.4 2.79595 62.8627 2.31682 62.9406 2.44046C62.9539 2.46934 62.6908 2.86128 62.7707 3.11038C62.9761 3.74962 63.0286 2.33384 63.2052 2.35062C63.3428 2.3651 64.26 3.04845 64.4884 2.61624C64.7309 2.15565 63.8112 2.34854 63.8791 1.97171C64.5011 1.59303 65.1312 1.99716 65.7189 1.95022C65.7293 1.94902 65.6399 1.65396 65.7707 1.61233C65.9988 1.54045 66.0591 1.95903 66.1701 2.0264C66.2899 2.09774 66.714 2.03775 66.7707 2.19046C66.7779 2.21042 66.6923 2.62351 66.6789 2.63772C66.4951 2.80823 66.4294 2.27436 66.4123 2.26272C66.3493 2.24232 66.2871 2.44783 66.2297 2.43655C66.1349 2.41604 66.0823 2.22493 65.9572 2.20804C65.871 2.1957 65.954 2.5619 65.8713 2.54593C65.8407 2.53828 65.5114 1.70045 65.4806 2.55569C65.4711 2.82544 68.1646 3.17182 68.4338 2.95608C68.2028 2.85322 67.9713 2.75036 67.7404 2.64749C68.2093 2.89788 68.7727 2.21458 68.8127 3.22562L74.0295 3.47366C74.34 3.55982 74.1701 4.20957 74.6808 4.02054C74.5489 3.81359 74.4173 3.60639 74.2853 3.39944C74.5476 3.54472 75.707 3.82839 75.8947 3.69437C75.919 3.67665 75.9529 3.08914 76.2424 3.03812C76.4995 2.99351 76.5414 3.43398 76.6789 3.51858C76.7941 3.5881 76.9236 3.47338 76.9582 3.4971C76.9845 3.51658 76.9955 3.78605 77.0588 3.83304C77.2582 3.97769 77.096 3.22028 77.2941 4.09085C77.2459 4.12401 77.1978 4.1573 77.1496 4.19046C77.3906 4.31652 77.7198 4.71201 77.3654 4.90726C77.3044 4.94095 77.3562 4.68025 77.3107 4.68069C75.5277 4.72916 76.9515 5.23593 77.5763 4.83108C77.7367 5.21697 78.6344 4.98228 78.6662 5.05765C78.7077 5.16791 78.5543 5.47662 78.756 5.74319C78.7985 5.79962 80.0003 5.58345 79.5676 6.09671C79.4782 6.20257 78.9022 6.09145 78.7629 6.10647C79.0898 6.92494 79.8559 5.75311 79.9426 5.78226C80.2903 5.90985 79.2747 6.49174 80.0578 6.58694C80.6602 6.65995 80.0947 6.11328 80.3263 5.87991C80.4568 5.74933 81.1388 6.35108 81.1203 5.57132C81.3536 5.48875 81.2174 5.90101 81.2463 5.93069C81.2758 5.95594 81.7335 5.72434 81.883 5.88772C81.9011 5.90814 81.845 6.31248 81.8634 6.34671C81.8999 6.4035 82.3437 6.32246 82.3615 6.28812C82.3717 6.26137 82.2674 5.90896 82.3107 5.82327C82.3623 5.72465 82.7882 5.80741 82.8117 5.70608C82.8441 5.55314 82.3177 5.65349 82.4054 5.25687C82.6484 5.3568 83.0439 5.092 83.2043 4.77249C83.165 4.86385 82.9296 4.87696 82.8478 4.84476C82.8864 4.26374 83.3917 4.27153 83.2189 4.73147C83.3288 4.48442 83.2547 4.35332 83.3166 4.12015C83.3333 4.06136 83.4887 4.04874 83.5187 3.94827C83.5215 3.92691 83.3616 3.7085 83.3937 3.59085C83.4523 3.37808 83.9239 3.42564 83.964 3.48147C84.0731 3.64004 83.6879 3.83211 83.6554 4.07718C83.6509 4.11475 83.9772 4.59352 83.9836 4.63772C84.0028 5.09293 83.6382 4.76522 83.6799 5.17483C83.7701 5.26133 83.8601 5.34811 83.9504 5.4346C83.6019 5.84963 82.9577 5.63668 82.7912 6.10843C83.3078 5.96802 83.8488 5.98504 83.8478 7.04788C83.8475 7.49529 83.6248 7.75805 83.633 7.8721C83.6658 8.27799 83.9729 7.84049 83.9865 7.85843C83.9959 7.88326 84.0002 7.90814 84.0002 7.93167C83.9998 8.16974 83.5605 8.34133 83.5373 8.45022C83.5002 8.64356 83.6955 9.43924 83.6955 9.61624C83.6886 9.65161 83.3751 9.84035 83.4806 10.1475C83.5873 10.4562 83.8596 10.4653 83.8722 10.4971C83.9247 10.6826 83.4455 10.8522 83.4299 10.9619C83.4223 11.0174 83.6802 11.3591 83.6877 11.4571C83.6935 11.5556 83.4983 11.7703 83.4211 12.0801C83.3637 12.3104 83.5316 12.4874 83.5021 12.5235C83.4809 12.5474 83.0264 12.5435 83.0041 12.584C82.9711 12.6443 83.0772 12.9195 83.0617 12.9883C83.0394 13.0868 82.8922 12.9881 82.9113 13.0899C82.9272 13.1682 83.4951 14.1158 83.4914 14.3692C83.4845 14.8009 82.882 13.8068 83.4426 15.5137C83.4473 15.524 83.5833 15.4036 83.5871 15.4141C83.671 15.7282 83.2342 16.2113 83.7687 16.127C82.774 16.6725 83.6454 16.7774 83.4982 17.5059C83.4412 17.7858 83.0547 17.9014 83.0529 17.9434C83.0904 18.2983 83.2143 18.0231 83.256 18.1973C83.2782 18.2951 82.9333 18.6705 83.0109 18.9141C83.0513 19.0396 83.4177 18.9951 83.4328 19.0196C83.5776 19.2508 83.4 19.4999 83.4318 19.6641C83.4532 19.7741 83.6741 19.7829 83.6799 19.8028C83.6883 19.8451 83.3888 20.2891 83.3263 20.4453C83.279 20.5657 83.4572 20.7542 83.424 20.8067C83.2241 21.12 82.7995 20.3204 83.2092 21.4414C83.2344 21.5099 83.3892 21.4824 83.3937 21.4961C83.4893 21.8138 83.2036 21.8415 83.1525 22.1016C83.0649 22.5498 83.475 22.3 83.134 22.6153C83.3899 22.9085 83.5328 22.8962 83.8322 22.8145C83.0031 23.0425 82.7106 24.2031 83.631 24.1739C83.3385 24.1558 83.3704 24.8095 83.2834 24.8223C83.229 24.8287 82.8046 24.1774 82.9992 25.6387C83.0236 25.8212 83.2811 25.5894 83.2004 25.9629C82.5819 25.8677 83.1864 26.2003 83.1877 26.25C83.1797 27.1108 81.6673 26.4058 81.4074 26.5039C81.1061 26.6179 80.8384 27.2951 80.7726 27.2969C80.557 27.2972 80.7359 26.9528 80.6877 26.8262C80.6387 26.7012 80.0279 27.3579 79.9953 27.3242C79.8766 27.1788 79.9966 26.7714 79.9845 26.75C79.8375 26.5001 79.0144 26.819 78.7834 26.7246C78.7905 26.9894 79.2529 27.0105 78.964 27.4356C78.6275 27.9313 78.6086 26.7643 78.5998 26.7129L73.9728 26.7461C73.992 27.367 75.0006 26.8988 75.0236 26.9805C75.1583 27.4644 73.4559 27.4554 73.2463 27.2364C73.4049 27.3704 73.5632 27.5047 73.7218 27.6387C73.4509 28.3525 72.8512 27.4253 72.4592 27.7403C72.3328 27.8422 72.5745 28.117 72.5705 28.1367C72.4282 28.414 72.1996 28.2004 72.3703 27.8282C72.0231 28.1844 72.0739 27.7917 71.8078 27.7617C71.7941 27.7605 71.908 28.0485 71.6974 28.168C71.5986 28.2237 71.0708 28.2247 71.0002 28.4766C70.9711 28.5827 71.2386 29.6998 71.2717 28.7383C71.8451 29.207 71.4551 28.3002 71.6779 28.3223C71.7121 28.3273 71.6335 28.864 72.1945 28.6114C72.0877 29.5784 71.4427 28.8569 71.3312 28.9727C71.1029 29.2136 72.0433 29.7134 72.216 28.959C72.1354 29.7137 72.2828 29.0617 72.4924 29.0918C72.7218 29.1255 72.6225 29.35 72.7463 29.3516C73.086 29.3572 72.9457 28.8243 73.2258 29.3047C72.9528 27.8176 73.7044 29.108 73.924 29.4981C73.5673 29.5736 73.2104 29.6491 72.8537 29.7246C72.8741 29.8027 72.8948 29.8809 72.9152 29.959C72.8212 29.9479 72.727 29.9369 72.633 29.9258C72.648 29.851 72.6628 29.776 72.6779 29.7012C72.1949 30.1862 72.0762 29.6445 72.0363 29.6348C71.5275 29.5713 70.9394 29.576 70.425 29.5742C70.3478 29.5741 70.4005 30.0609 69.8381 29.6797C69.6591 29.5582 69.828 29.18 69.6252 29.2364C69.3711 30.2642 69.3753 29.4471 69.3 29.4434C69.0831 29.4435 68.9501 29.6981 68.9299 29.7012C68.6618 29.741 68.2693 29.6985 67.9748 29.7364C67.9693 29.7402 68.1222 30.0565 67.9308 29.9629C67.8636 29.9295 67.2604 28.5795 66.7336 29.0196C66.8705 29.1106 67.0078 29.2019 67.1447 29.293C66.9825 29.1663 65.8552 29.5061 66.131 29.8672C66.3002 30.0881 66.7136 29.2182 66.759 30.0547C66.3832 29.8043 64.3072 30.1788 64.1457 29.9844C64.1246 29.955 64.2613 29.6851 64.2306 29.6504C64.2067 29.624 63.7313 29.6883 63.6681 29.584C63.6308 29.522 63.8405 29.3556 63.8234 29.2578C63.8075 29.1881 63.2149 29.0723 63.1808 29.4121C63.3266 29.2756 63.7362 29.395 63.5217 29.6817C63.4941 29.7172 63.3516 29.4993 63.3176 29.543C63.0063 29.9595 63.9347 29.8601 64.0802 29.8633C63.4954 30.2966 62.5908 29.7858 61.9133 30.0684C61.6402 29.7853 62.3196 29.635 62.0099 29.4004C61.3677 28.9143 61.8378 29.7909 61.8185 29.8282C61.6589 30.1139 61.1157 28.5828 61.1154 29.7481C60.8825 29.5727 60.9574 29.426 60.6291 29.5782C60.6723 29.6588 60.7148 29.7397 60.758 29.8203C60.3929 30.4955 59.621 28.7921 59.6789 28.6621C59.8343 28.3158 60.2344 28.8538 60.2707 28.8438C60.3216 28.8245 60.463 27.6416 61.0197 28.6992C61.2473 27.9063 60.1368 28.1636 60.6418 27.6231C60.3002 27.7114 58.898 27.1602 58.6955 27.5078C58.6714 27.5533 58.7835 28.3438 58.4367 27.9414C58.2721 27.7499 58.6692 27.7406 58.5939 27.5606C58.3622 27.008 55.2101 27.3613 54.6105 27.3907C54.5717 27.3915 54.5853 27.1462 54.547 27.1485C54.4292 27.1561 54.0019 27.521 53.7922 27.4082C54.2273 27.8623 53.3821 27.8976 53.1672 27.8477C52.8415 27.7713 52.8616 27.34 52.7209 27.2481C52.1777 26.8942 51.3353 27.9192 50.9133 26.961C50.9363 27.912 50.1836 26.4947 49.841 26.4864C49.5727 26.4799 49.184 27.109 49.5461 27.4922C49.0829 27.4484 48.5948 27.6258 48.1603 27.6836C48.0888 27.6929 48.1871 27.4121 48.0646 27.4375C48.0535 27.4454 48.0379 27.717 47.9338 27.7461C47.0651 27.9864 47.4869 27.4007 47.3244 27.2285C47.2336 27.1323 47.1666 27.0842 47.1174 27.0684C47.6237 27.0145 48.2083 26.9063 48.3644 26.8985C48.2312 26.2899 47.2421 27.0151 46.9523 26.8516C46.9423 26.8456 46.9762 26.5102 46.966 26.5078C46.8566 26.4824 46.1667 26.6063 46.3088 27.0059C46.347 27.1127 46.6649 27.1125 47.0422 27.0762C46.9403 27.1515 47.0162 27.527 46.9982 27.543C46.7796 27.7284 46.2449 27.3622 46.0549 27.3125C46.0114 27.3017 46.0141 27.5424 46.007 27.543C45.8345 27.4879 45.9049 26.8012 45.7277 27.5098C45.4151 26.6534 46.3145 27.3826 46.2511 26.8262C46.2022 26.3979 44.2054 26.628 44.2111 27.3028C44.2042 27.2306 44.1766 27.1409 44.1203 27.0391C43.9953 26.8129 43.4402 26.8836 43.3439 27.0078C43.3277 27.0323 43.3337 27.6873 43.3136 27.6934C43.2617 27.7069 42.5836 27.1954 42.3302 27.5821C42.4672 27.6738 42.6044 27.7657 42.7414 27.8575C41.9142 27.8632 42.042 28.0581 42.3176 28.2539C42.3312 28.2557 42.3446 28.2801 42.3576 28.2832C42.5711 28.4279 42.845 28.5674 42.8498 28.6192C42.8655 28.8163 41.4616 28.9261 41.7316 28.3184C41.7699 28.2357 42.4183 28.5057 42.0968 28.0723C42.0398 27.9969 41.6236 28.12 41.6017 28.0723C41.4555 27.7546 42.3664 27.3323 42.2551 26.8809C42.0339 27.3108 41.7499 27.0844 41.4963 27.1953C41.3809 27.2456 41.3523 27.5739 41.3381 27.5801C41.1257 27.6654 41.245 27.3215 41.174 27.3301C41.1357 27.3365 40.7169 28.0686 40.7961 27.0586C39.4148 27.8017 40.4136 27.801 41.2609 27.7442C40.9931 28.112 40.4681 27.9341 40.2326 28.0196C40.1485 28.0511 40.1983 28.3876 40.0558 28.4551C39.762 28.5938 38.3588 28.2066 37.9933 28.1153C38.2178 27.9961 38.1519 27.629 37.9787 27.6543C37.8058 27.6804 37.9509 28.17 37.9172 28.2227C37.8806 28.2771 37.068 28.0459 36.9328 28.1094C37.5447 27.9319 37.4071 27.5658 36.8879 27.5274C36.9629 27.422 37.0375 27.3163 37.1125 27.211C36.808 27.3587 36.1684 26.8009 35.9924 26.9668C35.9648 26.9935 36.0635 27.3014 36.048 27.3164C35.8935 27.4469 35.3684 27.1333 35.3439 27.2383C35.3232 27.3257 35.5476 27.5838 35.465 27.711C35.4477 27.7377 35.2314 27.322 35.0187 27.4239C34.9398 27.4615 34.9868 27.7527 34.967 27.7696C34.8015 27.9093 34.8992 27.4198 34.5968 27.4981C34.375 27.5564 34.2091 28.0358 33.9025 27.877C34.9093 28.4881 34.0627 28.2328 33.6418 28.418C33.5748 28.449 33.6321 28.9757 33.2297 28.7188C34.0872 27.7632 32.9844 28.2136 32.759 28.2032C32.7469 28.1927 32.7414 27.8513 32.632 27.8457C32.6229 27.8486 32.6356 28.0817 32.5334 28.0996C31.5588 28.2699 32.1821 28.0038 31.9972 27.7715C31.9185 27.6726 31.4449 28.005 31.3166 28.0137C31.2872 28.0145 31.3003 27.7697 31.1867 27.7793C30.9857 27.7969 30.8057 28.0575 30.673 28.0782C30.6576 28.0787 30.6567 27.6932 30.4054 27.8184C30.3348 27.8534 30.2555 27.9906 30.3556 28.1016C30.6886 28.4667 31.32 27.8353 31.6965 28.1992C32.0397 28.5312 30.9579 28.5625 30.9015 28.5645C30.8809 28.5657 31.0919 28.3739 30.8771 28.336C30.6937 28.3054 30.3592 28.9709 30.0861 28.8262C30.0653 28.8154 29.8465 28.2498 29.8566 28.2168C29.8669 28.1924 30.2011 28.0697 30.1525 27.9063C30.1461 27.8877 29.9332 27.8913 29.9054 27.7696C29.8714 27.6205 29.7801 26.1689 29.7345 26.1289C29.618 26.0389 29.6932 26.3695 29.6183 26.3477C29.4564 26.299 28.8945 25.8686 28.8761 26.3731C28.9689 26.403 29.0618 26.433 29.1545 26.4629C28.638 26.5148 28.8575 26.7296 28.7843 26.8242C28.7057 26.9261 28.7279 26.4831 28.5539 26.4414C28.5142 26.4326 27.788 26.5252 27.801 26.711C28.2037 26.4148 28.0548 26.9629 28.0734 26.9727C28.1439 27.0075 28.2338 26.7013 28.3283 26.7071C28.9939 26.7552 28.3235 27.2401 28.4797 27.3653C28.5338 27.4073 28.6422 27.1448 28.6652 27.1582C28.7396 27.2021 28.7406 27.5445 28.7902 27.5176C28.9064 27.4531 28.7712 26.9667 28.7804 26.9414C28.8843 26.6373 29.2904 27.0158 29.0373 27.545C29.1893 27.7357 29.2078 27.0925 29.3283 27.3496C29.5677 27.8584 29.209 27.7283 29.1115 27.8125C28.7627 28.1174 28.6589 27.8707 28.1652 27.9551C27.9874 27.9849 27.7761 28.2973 27.6935 28.3145C27.6393 28.3194 27.1513 27.243 27.1369 28.9395C26.9462 28.7749 26.6469 27.6552 26.4504 27.7051C26.2746 27.7517 26.3295 28.3494 26.3136 28.377C26.2884 28.4136 26.0743 28.3661 26.0021 28.4512C25.9176 28.5517 25.9596 28.7814 25.8254 28.875C25.4916 29.1069 25.5003 28.4931 25.466 28.4532C25.0678 27.9923 25.2419 28.8655 25.1535 28.9356C25.0699 28.9994 23.9176 28.6638 23.675 28.8848C23.7738 28.7617 23.873 28.6387 23.9718 28.5157C23.7951 28.1327 23.608 28.7574 23.6047 28.0703C23.5688 29.1793 23.2037 28.4388 23.0939 28.4668C23.0508 28.4786 23.054 28.6671 23.0002 28.6758C22.7889 28.709 22.312 28.5585 22.1974 28.6543C21.7024 29.067 22.9698 29.7535 23.0695 29.795C22.8699 29.7827 21.7401 30.0313 22.259 30.5645C22.3392 30.6468 22.4815 30.1503 22.5265 30.1309C22.8309 30.0034 22.5928 30.4461 22.6154 30.4903C22.6561 30.5585 22.8573 30.1288 22.9103 30.1797C22.928 30.1961 22.8141 30.5986 23.1047 30.6075C22.9615 30.998 22.1436 30.6798 22.0363 30.7715C21.9985 30.8055 22.2377 31.6381 21.5383 30.8282C21.5464 30.9056 21.5546 30.9832 21.5627 31.0606C21.1729 31.0925 20.7825 31.1244 20.3927 31.1563C20.4352 30.9778 20.6541 30.6197 20.3791 30.6953C20.2216 30.739 20.3358 31.1312 20.3234 31.1485C20.181 31.2579 17.661 31.1257 17.172 31.17C17.0059 31.1843 16.5423 31.5039 16.507 31.5098C16.2958 31.5416 15.5497 31.3344 15.3996 31.3789C15.3065 31.4078 15.3945 31.7395 15.3117 31.7246C15.2343 31.7097 15.3142 31.3885 15.2912 31.375C15.1004 31.2589 13.6561 31.6797 13.3127 31.377C13.5232 31.4672 14.5691 30.826 14.548 30.5996C14.5425 30.5678 14.2891 30.3251 14.2365 30.4434C14.1497 30.1658 13.8515 31.012 13.6896 30.8457C13.6723 30.8224 13.7424 30.3517 13.4552 30.2657C13.3557 30.2362 13.0946 30.6064 12.8322 30.1914C12.4524 30.3908 10.4561 29.7753 10.3185 30.2852C10.3145 30.3121 10.5953 30.4879 10.4054 30.6973C10.1529 30.9757 10.3795 30.038 10.0851 29.9571C10.0375 29.9453 9.22469 30.0398 9.19548 30.0977C8.94771 30.6234 9.6609 30.837 9.65251 30.8985C9.62756 31.0525 9.03313 31.1457 9.00896 31.1094C8.98812 31.0689 9.46939 30.3748 8.88786 30.6387C8.95452 30.7219 9.0214 30.8055 9.08806 30.8887C8.81422 31.0506 8.78822 30.5686 8.72185 30.5391C8.51549 30.4463 8.29171 31.1784 7.96111 30.2735C7.87393 30.0333 8.01892 29.7665 8.00798 29.7305C7.90295 29.408 7.76941 30.2719 7.6115 29.627C7.60044 29.5782 7.96619 29.1924 7.32439 29.1914C7.36858 29.2532 7.41301 29.3152 7.4572 29.377C7.3666 29.5151 6.71562 29.5971 6.6281 29.5645C6.37323 29.4687 6.59556 29.0254 6.33904 29.0782C6.50385 29.6866 5.72182 29.766 5.76677 29.2422C5.65763 29.9001 4.99386 29.3926 4.68181 29.377C4.48508 29.3681 4.08513 29.6536 4.02165 29.6211C3.94544 29.58 3.96785 29.1312 3.83025 29.0313C3.78947 29.0044 3.38044 29.3308 3.02165 28.8672C2.95187 28.7763 2.80634 28.0163 2.93572 27.8262C3.15745 27.501 3.57681 28.1138 3.57146 27.6641C3.56507 27.1831 2.99986 27.4691 2.84783 27.4063C2.1462 27.1158 2.55142 26.6043 2.53337 26.4492C2.48651 26.073 2.10309 26.0846 2.08708 26.0508C2.02081 25.9005 2.29294 25.6027 2.29704 25.3731C2.30195 25.0741 1.93188 24.5345 2.01579 24.4336C2.13586 24.2908 2.47444 24.7383 2.49724 24.7188C2.77765 24.4287 2.39321 23.7379 2.28728 23.3985C2.25524 23.294 2.38323 23.1224 2.35661 23.0918C1.95044 22.6275 2.27094 24.0616 2.00115 23.9668C1.76002 23.8814 2.06977 23.4276 2.06072 23.4024C2.04881 23.3749 1.76016 23.3501 1.71501 23.1895C1.69303 23.1088 2.44248 22.226 2.4113 21.8301C2.17216 21.9173 1.93267 22.0046 1.69353 22.0918C1.67478 21.5756 2.01928 21.9556 2.05486 21.9024C2.1264 21.7956 1.92628 21.5343 1.93474 21.3711C1.93934 21.2673 2.17385 20.8969 1.96208 20.7442C1.88926 20.6919 1.73671 21.053 1.47185 20.6836C2.39408 20.2115 1.75523 19.9212 1.72771 19.7383C1.70107 19.5555 2.14118 19.1251 1.60661 19.2012C1.58344 18.1965 1.61878 18.8836 1.77068 18.7071C1.95674 18.49 1.52642 18.1593 2.20622 18.4102C2.16753 17.9398 1.62093 17.9731 1.59197 17.9356C1.56701 17.9016 1.68855 17.6705 1.64568 17.5918C1.13327 16.683 1.48442 17.0978 1.33611 16.5176C1.32291 16.4657 0.839435 16.2506 1.20818 16.166C1.87967 16.0127 2.16072 16.6783 2.27361 15.2539C1.77713 14.6355 1.1753 15.5532 1.02361 15.5703C0.792723 15.5928 1.03081 15.3026 1.0031 15.2207C0.993251 15.1945 0.795741 15.2179 0.791185 15.1953C0.649138 14.1086 1.67799 15.1769 2.00212 14.9883C1.91532 14.8256 1.82818 14.6627 1.74138 14.5C1.85914 14.4935 1.97713 14.487 2.0949 14.4805C1.53372 14.1534 2.07495 14.3562 2.21501 13.4766C2.24642 13.2789 1.87801 13.6173 2.29802 13.0684C1.98812 12.9415 2.08666 12.7618 1.80583 13.0098C1.81308 12.6573 2.44489 12.2593 2.6945 12.0782C1.81407 11.682 2.31602 12.9754 1.55486 12.291C1.4141 12.7273 1.77686 12.6428 1.74724 12.7149C1.6408 12.973 1.39149 12.5631 1.09099 13.4707C1.04267 13.6203 1.24906 14.0783 0.943528 14.0567C0.909766 14.0535 0.71596 13.6643 0.716966 13.6328C0.742835 13.326 0.935148 13.4401 0.943528 13.3125C0.950988 13.1916 0.736989 13.2632 0.734544 13.2305C0.727925 12.8461 0.914388 13.0824 0.887864 12.9629C0.829345 12.7009 0.0532782 11.8727 1.0656 12.1153C0.225548 12.55 0.957683 12.54 1.28533 12.3731C1.36874 12.3312 1.39034 12.1016 1.50896 12.0215C1.66203 11.9182 1.84186 12.0285 1.92107 11.9864C2.0059 11.9396 1.522 11.3965 2.22185 11.5586C1.86557 11.0181 1.23589 11.5934 0.885911 11.2139C0.180968 10.4476 1.3777 10.2824 1.5031 10.208C1.53636 10.1879 1.42526 9.87745 1.44743 9.85843C1.48596 9.82993 2.16369 9.9723 2.23064 9.71585C2.29716 9.45973 1.9821 9.72757 1.96111 9.45999C1.94808 9.2797 2.76628 8.96003 2.32243 8.83694C2.01619 8.75342 1.45259 9.47645 1.35759 8.69827L2.70818 8.50491C2.4618 8.20873 2.21529 7.91242 1.96892 7.61624C2.47415 7.52242 2.91092 7.85669 3.39079 7.43265C2.23794 6.4836 3.76559 6.67512 3.7824 6.5596C3.78661 6.48848 3.33384 5.71985 3.26091 5.57913C3.66337 5.28284 4.88504 5.13777 4.17009 4.18655C4.29988 4.40137 4.61467 3.87111 4.61052 3.83108C4.57045 3.41101 3.88447 3.6833 3.99626 3.30374C4.12583 2.86341 4.30769 3.46084 4.507 3.41312C5.52966 3.16421 5.24926 0.970611 6.27458 1.31741C6.2542 1.23934 6.23442 1.16111 6.21404 1.08304C7.32862 1.20737 8.4432 1.33175 9.55779 1.45608C9.99387 0.786146 11.1545 0.378229 11.7248 0.452178C11.8396 0.466617 12.4039 0.818261 12.4465 0.879912C12.5248 0.997953 12.0919 1.04334 12.2873 1.26468C12.3286 1.31015 13.2833 1.45792 13.215 1.08304C13.1081 1.03957 12.7727 1.22801 12.7179 1.13968C12.3343 0.509661 15.2751 1.01277 15.4211 0.758819C15.3559 0.637123 15.2909 0.51528 15.2258 0.393584C15.4113 0.453445 15.5969 0.51341 15.7824 0.573272ZM7.25212 30.6817C7.14071 31.0578 6.86145 30.7753 6.69646 30.8809C6.46849 31.0292 6.08141 32.4769 6.24822 31.0254C6.58286 30.9109 6.91748 30.7962 7.25212 30.6817ZM12.1447 31.2422C11.9206 31.0399 12.0946 30.2299 12.2785 30.5664C12.2989 30.6047 12.4484 31.5142 12.1447 31.2422ZM9.79118 30.8575C9.80062 30.8467 9.99493 30.8682 10.0021 30.8809C10.1761 31.2064 9.59054 31.1399 9.79118 30.8575ZM21.1593 30.4414C20.9124 30.4769 21.0916 31.2134 21.2453 30.9102C21.2543 30.8877 21.1756 30.4397 21.1593 30.4414ZM20.9836 30.4219C20.7915 29.7625 20.4048 31.0992 20.7121 30.9649C20.7419 30.9513 20.9925 30.454 20.9836 30.4219ZM11.3449 30.92C11.3703 30.6674 11.6014 30.7891 11.7004 30.8496C11.6977 31.0804 11.442 30.892 11.3449 30.92ZM17.215 30.8496C17.2242 30.651 16.4206 30.662 16.3654 30.9239C16.4924 30.8127 17.2058 31.0284 17.215 30.8496ZM19.2795 30.5703C19.2585 30.5362 18.9816 30.5886 18.9894 30.7637C19.1251 30.9939 19.3713 30.726 19.2795 30.5703ZM23.382 30.5821C23.396 30.5329 23.1898 29.4234 23.6818 30.1563C23.7542 30.2639 23.4959 30.5557 23.5217 30.5957C23.5753 30.6735 23.6174 30.71 23.6515 30.7168C23.4219 30.8093 23.1834 30.8529 23.1603 30.7852C23.0522 30.4656 23.3753 30.6005 23.382 30.5821ZM25.5353 29.75C25.5828 29.5684 25.884 29.6653 25.9533 29.7403C25.9651 29.7544 25.914 30.2328 26.05 30.1973C26.1593 30.1677 25.9963 29.6774 26.2092 29.7559C26.4237 29.8344 26.1384 30.1824 26.1554 30.209C26.1806 30.2417 26.5133 30.0219 26.5031 30.3067C26.4954 30.5177 26.1395 30.3754 26.051 30.42C25.9381 30.4776 26.0746 30.8295 25.8859 30.7539C25.7677 30.706 25.8328 30.0879 25.8078 30.0567C25.7832 30.0352 25.374 30.3846 25.5363 29.752L25.5353 29.75ZM7.54021 30.5957C7.53822 30.3952 7.87935 30.381 7.90056 30.4102C8.01724 30.601 7.67136 30.8458 7.54021 30.5957ZM23.9269 30.1856C24.2683 30.3406 24.0174 30.5538 23.714 30.6895C23.8102 30.573 23.8127 30.1349 23.9269 30.1856ZM14.2365 30.4434C14.2509 30.4895 14.2597 30.5616 14.2609 30.6797C14.2231 30.5506 14.22 30.481 14.2365 30.4434ZM15.0324 30.6543C15.3052 30.2944 14.7509 30.309 14.7541 30.5664C14.7557 30.6637 15.0215 30.6686 15.0324 30.6543ZM21.4777 30.4766C21.4528 30.4414 21.8396 29.3541 21.2765 30.17C21.5769 30.298 21.2607 30.4166 21.2648 30.5117C21.2771 30.7853 21.7816 30.5227 21.8937 30.6407C21.9811 30.1513 21.5595 30.5927 21.4777 30.4766ZM28.9845 30.1914C29.0529 29.905 29.2698 29.9967 29.4162 30.0137C29.3478 30.3007 29.131 30.2083 28.9845 30.1914ZM67.7453 30.0547C66.7417 30.32 66.6113 29.1516 67.5295 29.6133C67.5474 29.623 67.8055 29.936 67.7453 30.0547ZM59.132 29.752C59.0375 29.2428 59.3503 29.1608 59.5558 29.3711C59.6024 29.4188 59.7736 29.9344 59.5773 30.0352C59.5835 29.4181 59.2806 29.1825 59.132 29.752ZM24.1203 29.8594C24.2197 29.5201 24.5255 29.7615 24.6867 29.8125C24.5883 30.0922 24.2628 29.9657 24.1203 29.8594ZM64.4474 29.4453C64.3417 29.4068 64.2701 29.8493 64.2883 29.8867C64.37 30.0559 64.5679 29.6976 64.4474 29.4453ZM23.133 29.8067C23.1193 29.6038 23.5236 29.4087 23.5519 29.9102C23.4651 29.874 23.143 29.934 23.133 29.8067ZM29.1408 29.8614C29.0779 29.7582 29.4036 29.5734 29.5021 29.6758C29.4942 29.8918 29.1821 29.9284 29.1408 29.8614ZM62.7443 29.5957C62.6496 29.5573 62.4123 29.5457 62.3859 29.7246C62.3534 29.9485 62.7012 29.8722 62.7443 29.5957ZM80.3693 29.209C80.3813 29.2895 80.0147 29.8695 79.8517 29.7227C79.5438 29.4424 80.3537 29.1534 80.3693 29.209ZM65.4484 29.2168C65.7471 29.6382 65.4159 29.2304 65.4289 29.6739C65.6302 29.6898 66.1289 29.7114 65.7853 29.2754C65.7182 29.1915 65.542 29.2455 65.4484 29.2168ZM65.173 29.0684C65.141 29.2121 64.9254 29.6653 65.1115 29.6328C65.1975 29.6172 65.3362 29.114 65.173 29.0684ZM78.0988 29.4063C77.8315 29.0137 79.0578 29.2241 79.0939 29.293C79.1125 29.3293 79.1251 29.3636 79.132 29.3926C79.1774 29.2684 79.4088 29.2461 79.4357 29.5606C79.3662 29.5346 79.1767 29.5622 79.1545 29.5274C79.145 29.5125 79.1379 29.4986 79.133 29.4844C79.0512 29.7578 78.1501 29.4808 78.0988 29.4063ZM76.0646 29.002C76.3701 28.4241 76.4254 29.4023 76.3996 29.4395C76.066 29.8428 76.2829 29.1161 76.2726 29.0821C76.2487 29.0268 76.0125 29.362 76.0656 29.002H76.0646ZM77.6818 29.2442C77.695 29.2315 77.9493 29.2618 77.9621 29.2774C78.1729 29.6085 77.4452 29.5237 77.6818 29.2442ZM27.1584 29.0606C27.3425 29.1585 27.1616 29.521 27.0392 29.3907C27.0289 29.3727 26.9972 28.9751 27.1584 29.0606ZM65.0256 29.166C64.9811 29.0973 63.8909 28.84 63.9562 29.3867C64.049 29.3221 65.2905 29.604 65.0256 29.166ZM56.8634 29.0332C57.0557 29.0379 56.8461 29.5538 56.7433 29.3614C56.7053 29.2898 56.8149 29.0325 56.8634 29.0332ZM22.5861 29.3379C22.3862 29.6215 22.4275 28.6706 22.6008 28.9961C22.6075 29.0089 22.594 29.3255 22.5861 29.3379ZM58.4015 29.3301C57.7376 29.6425 57.8955 28.006 58.759 28.5586C58.732 28.6314 58.7049 28.7045 58.6779 28.7774C59.6741 29.0228 58.7452 28.8928 58.5011 28.9844C58.4089 29.0198 58.4864 29.2925 58.4025 29.3321L58.4015 29.3301ZM55.8508 29.002C55.211 27.84 56.4321 28.5967 56.7824 28.4453C56.4428 28.9252 56.0006 28.8526 56.6017 29.3438C55.7233 29.4387 56.0882 28.9767 56.0539 28.9375C56.0124 28.8944 55.8781 29.0517 55.8508 29.002ZM57.5373 28.9942C57.5742 28.9603 57.8527 29.1963 57.9533 29.1582C57.813 29.5551 57.2921 29.2247 57.5373 28.9942ZM74.2326 28.8477C74.1647 29.0039 74.0246 29.1384 73.9328 29.2715C73.9559 28.9608 74.0131 28.732 74.2326 28.8477ZM7.04118 29.045C6.88977 29.0227 6.58844 28.9055 6.68083 29.2325C6.69095 29.2603 7.04072 29.2285 7.04118 29.045ZM61.8537 28.9141C61.8215 28.8759 60.9886 28.8505 61.2756 29.1934C61.3623 29.2969 62.1207 29.2529 61.8537 28.9141ZM66.1662 28.9532C66.0961 28.95 65.8143 29.0087 65.8078 29.0821C65.7886 29.3364 66.1357 29.1966 66.1662 28.9532ZM6.27751 28.7266C6.25757 28.6943 5.79507 28.7515 5.84587 28.9024C5.94236 29.1877 6.3456 28.8378 6.27751 28.7266ZM27.8283 28.3321C27.867 28.3206 27.9184 28.6584 27.9318 28.6621C27.9639 28.6668 28.6706 28.5374 28.4006 28.9707C28.3554 29.0434 27.3367 28.8769 27.2043 28.834C27.1532 28.3706 27.5887 28.8114 27.6945 28.7637C27.713 28.7515 27.7254 28.3665 27.8283 28.334V28.3321ZM74.6554 28.8946C74.4784 28.6862 74.8943 28.617 75.0168 28.709C75.0181 28.9074 74.6813 28.9251 74.6554 28.8946ZM64.7541 28.0996C64.7018 28.1047 64.7638 27.6994 64.5881 27.8516C64.5046 27.9238 64.7615 28.3536 64.7043 28.4375C64.6674 28.4896 64.4807 28.3286 64.4211 28.4629C64.4042 28.5056 64.5943 28.9094 64.6496 28.8926C64.7278 28.8693 64.6522 28.5513 64.7375 28.5489C65.021 28.542 65.2725 28.7687 65.5383 28.7637C65.5623 28.7626 65.3765 28.5379 65.5812 28.541C65.6129 28.5411 65.8031 28.8757 66.048 28.8262C66.5891 27.7898 66.9864 28.8071 67.673 28.4336C67.6463 28.3358 67.1339 28.0742 67.1037 28.0645C66.5296 27.894 65.5008 27.8753 64.8996 27.8731C64.7459 27.8726 64.8205 28.0916 64.7541 28.0996ZM7.12126 28.8203C7.04904 28.4148 6.79564 28.6714 6.63396 28.6504C6.69086 29.0163 6.96322 28.7307 7.12126 28.8203ZM70.9201 28.5801C70.839 28.5958 70.5875 28.4737 70.5666 28.5957C70.5398 28.7553 70.903 28.8559 70.9201 28.5801ZM31.8195 28.4473C31.8297 28.4368 32.0211 28.458 32.0295 28.4707C32.2037 28.7964 31.619 28.7297 31.8195 28.4473ZM36.4836 28.5254C36.6314 28.4753 36.7805 28.3488 36.8302 28.6778C36.7357 28.6278 36.4663 28.7545 36.4836 28.5254ZM42.9191 28.5157C42.8887 28.0847 43.3341 28.3637 43.4181 28.4024C43.387 28.594 42.9415 28.8263 42.9191 28.5157ZM73.9006 27.918C74.1726 27.9435 74.1155 27.2905 74.2883 27.586C74.3165 27.6359 74.4076 28.9959 74.1086 28.4864C74.0548 28.3947 74.2649 28.0715 73.9006 27.918ZM58.8996 28.5723C58.9688 28.2873 59.1851 28.3717 59.3312 28.3946C59.2985 28.6063 59.0039 28.5521 58.8996 28.5723ZM5.44158 28.4004C5.31387 27.998 4.72469 28.2965 4.87029 28.5625C4.89102 28.5972 5.35856 28.3854 5.44158 28.4004ZM24.8117 28.5586C25.0542 28.2416 24.5525 28.1436 24.3937 28.4532C24.466 28.4333 24.7949 28.5792 24.8117 28.5586ZM41.3732 28.2813C41.3849 28.2684 41.6397 28.2988 41.6535 28.3145C41.8643 28.6456 41.1366 28.5608 41.3732 28.2813ZM34.9504 28.002C35.0433 27.7415 35.6515 27.9518 35.7883 28.2129C35.6568 28.5945 34.8353 28.3279 34.9504 28.002ZM72.7814 28.1035C72.9754 28.0901 73.1598 28.1705 73.3381 28.2832C73.3005 28.5029 72.8019 28.2677 72.7814 28.1035ZM68.4367 27.9492C68.2743 27.8626 68.3075 28.2637 68.3176 28.2774C68.4399 28.4077 68.6205 28.0473 68.4367 27.9492ZM55.1652 28.2578C54.961 27.8639 55.7928 27.4064 55.9679 27.6602C55.9809 27.9036 55.1951 28.3118 55.1652 28.2578ZM6.93572 28.2227C6.8793 27.8597 6.60581 28.1409 6.44841 28.0547C6.49407 28.3417 6.80893 28.2608 6.93572 28.2227ZM56.3859 27.8262C56.4641 27.7398 56.646 28.0203 56.5822 28.1914C56.4999 28.4109 56.3657 27.8511 56.3859 27.8262ZM24.0588 28.0137C24.0423 27.7293 23.6936 28.0726 23.7677 28.2071C23.8148 28.2926 24.0685 28.1905 24.0588 28.0137ZM63.3957 27.5977C63.3615 27.5542 62.9022 27.8464 63.092 28.1367C63.2236 28.3383 63.2446 27.927 63.2756 27.9258C63.3152 27.9308 64.045 28.4275 63.3957 27.5977ZM50.508 28.0098C50.6813 27.9004 50.891 28.0274 51.0724 28.0196C50.9985 28.1956 50.5817 28.2436 50.508 28.0098ZM25.4054 27.9375C25.3632 27.8224 24.2167 27.7533 24.8674 28.1075C24.9053 28.1275 25.5333 28.2862 25.4054 27.9375ZM70.8107 27.875C70.8731 27.6679 70.5571 27.6124 70.464 27.7227C70.4354 27.9759 70.8021 27.904 70.8107 27.875ZM51.0861 27.7305C51.1906 27.6121 51.3806 27.7385 51.5099 27.7246C51.488 27.9173 51.1313 27.9262 51.0861 27.7305ZM43.7463 27.5137C43.9538 27.6282 44.2091 27.5755 44.2131 27.3399C44.2174 27.3767 44.2277 27.4159 44.2443 27.4551C44.2612 27.494 44.4836 27.3845 44.5802 27.4649C45.1586 27.9427 42.3472 27.7455 43.9767 27.0801C43.9 27.2246 43.823 27.3692 43.7463 27.5137ZM34.1252 27.4473C34.0074 27.1611 33.6781 27.5196 33.7629 27.6328C33.8225 27.7102 34.2431 27.7361 34.1252 27.4473ZM38.6584 27.2774C38.623 27.2264 38.3016 27.4271 38.2931 27.5782C38.4783 27.737 38.8187 27.5151 38.6584 27.2774ZM33.2199 27.1114C33.146 27.0683 33.052 27.5306 33.0607 27.5508C33.1359 27.7196 33.3441 27.3689 33.2199 27.1114ZM73.3371 26.6719C73.227 26.5396 72.8764 26.8743 72.8 27.1797C72.7857 27.1207 72.7471 27.0436 72.6769 26.9512H72.6779C72.5816 26.8278 69.7498 26.6933 71.6496 27.2813C71.7091 27.3001 71.6283 27.0261 71.8703 27.0742C71.8863 27.0778 71.8944 27.3007 71.9435 27.3125C72.0573 27.3362 72.6635 27.4771 72.7853 27.2969C72.7864 27.3383 72.7941 27.3779 72.8107 27.4141C72.9601 27.737 73.4224 26.774 73.3371 26.6719ZM39.297 27.2364C39.2322 27.1535 39.0274 27.2323 39.006 27.4297C39.108 27.5263 39.4474 27.4298 39.297 27.2364ZM25.3693 27.127C25.2371 26.9649 24.903 27.2683 25.0041 27.4297C25.0661 27.529 25.5216 27.3135 25.3693 27.127ZM76.842 27.42C76.7214 27.353 76.8633 26.7818 76.9963 27.0918C77.038 27.1903 76.9095 27.4562 76.842 27.42ZM82.2951 27.2422C82.1921 26.7355 82.6951 27.0332 82.4992 27.3809C82.4901 27.3926 82.3025 27.2615 82.2951 27.2422ZM78.4845 27.0352C78.4026 27.3803 78.3492 27.4213 78.1183 27.336C78.4601 27.2387 78.1432 26.9336 78.4845 27.0352ZM32.508 27.2012C32.4132 26.9089 32.1476 26.9304 32.2267 27.2246C32.2344 27.2519 32.4691 27.4172 32.508 27.2012ZM72.8 27.1797C72.8126 27.232 72.8062 27.266 72.7853 27.2969C72.7844 27.2579 72.7897 27.2209 72.8 27.1797ZM34.3459 27.2403C34.5775 26.8624 34.1019 26.9497 33.9347 26.9629C33.9252 27.1811 34.3297 27.2659 34.3459 27.2403ZM22.8918 27.1856C22.9556 27.0144 22.7736 26.7337 22.6955 26.8203C22.6751 26.8447 22.8094 27.4059 22.8918 27.1856ZM79.2687 26.8946C79.3967 26.8949 79.5772 26.8948 79.6105 27.1621C79.5247 27.1211 79.2661 27.0908 79.2687 26.8946ZM82.0978 26.875C81.9465 27.1895 81.6008 27.1886 81.3801 27.1367C81.3761 26.723 81.9558 26.9723 82.0978 26.875ZM73.6847 26.8262C73.6742 26.8094 73.3529 26.686 73.3967 26.9629C73.4607 27.3692 73.7752 26.9769 73.6847 26.8262ZM23.3195 27.1192C23.4629 26.9282 23.1321 26.3421 22.9806 26.795C22.9029 27.0269 23.2953 27.1511 23.3195 27.1192ZM31.6779 26.8184C31.4888 26.9787 31.958 27.2642 32.0236 26.9746C31.9361 26.9509 31.7451 26.7617 31.6779 26.8184ZM38.1261 26.5254C37.529 25.6899 37.8542 27.2141 37.9601 27.0801C37.9761 27.0573 38.14 26.5468 38.1261 26.5254ZM3.96013 26.7305C3.87559 26.8466 4.19083 27.2671 4.23161 26.9903C4.25665 26.8172 4.01438 26.6569 3.96013 26.7305ZM47.1174 27.0684C47.0922 27.0711 47.0669 27.0738 47.0422 27.0762C47.0607 27.0626 47.0854 27.0582 47.1174 27.0684ZM29.9582 25.6992C30.3785 26.8789 30.3347 25.9697 30.3713 25.9746C30.4504 25.9882 30.6339 26.3062 30.7824 26.2539C30.612 26.3868 30.441 26.5196 30.2707 26.6524C30.4053 26.7375 31.5743 27.1718 31.5988 26.9805C31.6338 26.7085 31.2676 26.7933 31.256 26.7696C31.2406 26.7354 31.1827 25.978 31.1486 25.9492C31.0922 25.9032 30.1148 25.8875 29.9582 25.6992ZM36.8771 26.6563C36.9731 26.7463 37.0005 27.0464 37.0451 26.9746C37.0602 26.9491 37.0626 26.6638 37.1144 26.5899C37.0353 26.612 36.9562 26.6342 36.8771 26.6563ZM29.2052 26.7598C29.0866 26.4107 29.6185 26.5427 29.6369 26.5821C29.7281 26.8191 29.3025 27.0455 29.2052 26.7598ZM33.7326 26.709C33.7126 26.6885 33.3036 26.5797 33.3068 26.7735C33.4152 26.9214 33.9629 26.9645 33.7326 26.709ZM23.8107 26.209C23.5441 25.5231 23.6704 26.3896 23.9064 26.6114C23.978 26.3032 23.8544 26.3207 23.8107 26.209ZM22.9572 25.6973C22.8827 25.5739 22.1189 25.7092 22.2355 26.0723C22.2771 26.2014 22.7157 25.8758 22.7365 25.9004C22.7672 25.9376 22.627 26.3394 22.8615 26.2598C22.8478 26.1236 22.9826 25.7385 22.9572 25.6973ZM23.59 25.7696C23.325 25.2478 23.2657 26.2103 23.465 26.2129C23.5429 26.2142 23.6278 25.8448 23.59 25.7696ZM24.672 25.8516C24.5763 25.7603 24.3234 25.6278 24.1486 25.9473C24.3829 25.9746 24.6175 26.002 24.8517 26.0293C24.8787 25.8481 24.7561 25.9318 24.672 25.8516ZM83.6906 24.4082C83.4802 24.1354 83.9646 24.0308 83.9855 24.0977C84.0465 24.3204 83.7848 24.5302 83.6906 24.4082ZM2.31462 17.9844C2.2561 17.8756 2.21784 17.5175 2.08904 17.7051C2.21858 17.9694 2.34816 18.2338 2.47771 18.4981C2.57837 17.8926 2.37864 18.1043 2.31462 17.9844ZM1.82048 15.7715C1.83854 15.7551 1.73856 14.8261 1.97478 15.4473C2.13406 15.867 1.26547 16.276 1.10857 15.8633C1.28184 15.6714 1.66294 15.8911 1.82048 15.7715ZM0.656419 11.6094C0.856504 11.8852 0.352498 12.1375 0.29802 11.7403C0.288003 11.666 0.618216 11.5571 0.656419 11.6094ZM1.35173 11.918C1.19694 11.7371 1.53958 11.6206 1.64177 11.7246C1.65109 11.8966 1.37838 11.9433 1.35173 11.918ZM81.5578 10.919C81.3903 10.2871 81.2405 11.6485 81.4982 11.3741C81.5109 11.3565 81.5649 10.9498 81.5578 10.919ZM0.621263 10.7998C0.776054 10.9807 0.432442 11.0973 0.330247 10.9932C0.321314 10.8207 0.596897 10.7737 0.621263 10.7998ZM81.4396 9.41116C81.218 8.9583 81.2954 10.4775 81.3234 10.5459C81.4379 10.7892 81.8311 10.1892 81.9113 10.0401C81.3236 10.2695 81.5443 9.6258 81.4396 9.41116ZM80.4142 10.3291C80.2079 10.4922 80.7355 10.8041 80.8361 10.378C80.7337 10.3983 80.4737 10.2828 80.4142 10.3291ZM79.1613 9.8389C79.0502 9.78412 78.7208 9.65383 78.6652 9.89358C78.7866 9.85058 79.1145 10.0862 79.1613 9.8389ZM78.9103 9.11819C78.737 8.79205 78.6947 9.74355 78.8947 9.45999C78.9025 9.44664 78.9167 9.1363 78.9103 9.11819ZM77.9347 8.77444C77.821 8.39691 77.6918 9.31795 77.8761 9.3428C77.9306 9.34617 77.9468 8.81776 77.9347 8.77444ZM81.1623 7.76663C80.9993 7.60401 80.789 8.26442 81.1369 8.33694C81.0147 8.43785 80.8919 8.53878 80.7697 8.63968C81.2254 9.00986 81.1926 8.094 81.3234 8.13187C81.5059 8.18632 81.4909 8.94116 81.4543 9.17874C81.6043 8.71594 82.2415 8.7083 82.6095 8.62015C82.286 8.42581 81.7607 8.08894 81.4416 7.96585C81.3506 7.93096 81.2623 8.13734 81.1847 8.11429C81.0601 8.07601 81.1708 7.77758 81.1623 7.76663ZM76.6535 8.76077C76.3192 8.33217 76.53 9.25787 76.7189 9.0928C76.7264 9.07785 76.6618 8.77121 76.6535 8.76077ZM0.177903 7.98538C0.624697 8.37252 0.299806 8.8856 1.23454 8.10647C0.842026 8.65779 1.21209 8.50361 1.13591 8.72562C1.07444 8.90156 0.844134 8.75642 0.977708 9.11038C0.801278 8.72503 0.0371604 8.83122 0.00309858 8.76858H0.00407514C-0.0157473 8.72509 0.0358837 7.86275 0.177903 7.98538ZM79.1593 7.41702C79.0478 6.29398 79.0046 8.07685 78.7853 7.14554C78.4934 8.49795 79.5916 7.14633 79.7248 8.28812C78.5318 8.15537 80.5126 9.42013 79.6799 7.70999C80.3659 8.33068 79.905 7.49821 80.0109 7.2803C80.1244 7.04871 80.512 7.30028 80.4924 6.88187H80.4914C80.2542 6.91115 80.0167 6.94047 79.7795 6.96976C80.0118 7.87273 79.527 7.60198 79.3625 6.86624C79.2949 7.04979 79.2269 7.23348 79.1593 7.41702ZM80.5031 8.26468C80.4781 8.24455 79.9639 8.3711 79.9963 8.55179C80.0652 8.66738 80.7984 8.52879 80.5031 8.26468ZM82.7746 8.06741C82.5893 8.06501 82.3034 7.88983 82.2023 8.22952C82.3877 8.23203 82.6737 8.40786 82.7746 8.06741ZM73.2306 8.00296C72.9944 8.28236 73.7223 8.36512 73.5119 8.03421C73.5012 8.01868 73.2439 7.99025 73.2306 8.00296ZM78.6222 7.58694C78.3823 7.24442 78.4961 8.33658 78.674 8.05179C78.6834 8.02929 78.6333 7.6025 78.6222 7.58694ZM0.539231 7.85257C0.55579 7.58553 1.20255 7.77242 1.31853 7.77054C1.25324 8.0195 0.520798 8.15961 0.539231 7.85257ZM83.0304 6.90921C82.6713 6.23717 82.2284 7.21325 82.1769 7.19046C82.1227 7.16495 82.2079 6.74471 82.1955 6.73343C82.1648 6.71015 81.5872 6.74523 81.5578 6.77444C81.5377 6.79729 81.6425 7.38876 81.5226 7.57522C81.7567 7.23918 82.8191 7.44937 82.8742 7.38382C82.9168 7.33127 82.5957 6.71029 83.1008 7.06546L83.0304 6.90921ZM81.6789 7.24905C81.4612 7.04475 82.021 7.03225 82.0402 7.06155C82.1854 7.30954 81.7774 7.34057 81.6789 7.24905ZM81.0607 6.83304C81.0137 6.77748 80.5947 6.72743 80.5588 7.00296C80.7574 7.36109 81.1662 6.96264 81.0607 6.83304ZM76.3908 6.87015C76.2816 6.90508 75.9824 6.69402 75.965 6.9346C76.0741 6.89941 76.3737 7.1114 76.3908 6.87015ZM2.75115 5.7471C2.57101 5.54557 2.99005 5.46296 3.11247 5.5596C3.11911 5.72052 2.76656 5.76444 2.75115 5.7471ZM78.5812 5.2803C78.5126 5.20793 77.2001 5.39018 77.0158 5.50296C77.1964 5.6854 78.5015 5.69942 78.5607 5.61038C78.5779 5.58205 78.5894 5.29181 78.5812 5.2803ZM81.4289 5.16897C81.5495 4.81421 81.6285 5.2398 81.6437 5.24515C81.793 5.29937 82.102 5.21982 82.0343 5.56155C81.7709 5.42372 81.1886 5.87433 81.4289 5.16897ZM76.298 5.26272C75.851 5.39456 76.7095 5.76882 76.5968 5.39749C76.5886 5.37471 76.3452 5.24983 76.298 5.26272ZM78.7287 5.17679C78.8278 4.89005 80.1443 5.1373 80.3556 5.13772C80.1663 5.66719 80.0133 5.26502 79.759 5.29202C79.6907 5.30051 79.7087 5.52019 79.7013 5.52054C79.5831 5.53037 79.6714 5.27717 79.5988 5.27249C79.5525 5.27075 78.5899 5.58123 78.7287 5.17679ZM81.4972 4.92288C81.5711 4.71932 82.3937 4.63248 82.4269 4.68655C82.6744 5.08906 81.5611 4.99378 81.4972 4.92288ZM78.6076 4.70608C78.7492 4.09109 79.4032 4.50288 78.9562 4.8096C78.9135 4.83751 78.7318 4.57077 78.6076 4.70608ZM76.3449 4.67679C76.3181 4.65765 75.8575 4.5371 75.8488 4.73147C75.9161 4.80756 76.5952 4.87582 76.3449 4.67679ZM76.5871 4.01468C76.5759 4.01937 76.6849 4.39588 76.467 4.34866C76.4488 4.34417 76.4143 3.92028 76.1398 4.07522C76.0842 4.10714 75.9982 4.38674 76.0041 4.4053C76.2901 5.07104 77.151 3.79626 76.5871 4.01468ZM81.5129 4.57913C81.4687 4.39989 81.5757 3.86879 81.672 4.13772C81.7133 4.2539 81.6359 4.57263 81.5129 4.57913ZM74.8674 4.50491C75.1381 4.18269 74.288 4.12172 74.2443 4.20413C74.2716 4.40492 74.8403 4.5364 74.8674 4.50491ZM3.3781 4.31937C3.11545 4.63484 2.30146 2.9795 3.17595 3.25882H3.17497C3.40285 3.33187 3.26196 3.60001 3.27263 3.60843C3.75795 4.00214 3.62934 3.39495 3.70525 3.32327C3.86772 3.16934 3.84196 3.90667 4.11638 3.60062C3.66265 4.0527 4.07499 3.86356 4.08806 4.12601C4.1389 5.19786 3.48456 3.62564 3.25798 3.84866C3.22647 3.87977 3.45851 4.2218 3.3781 4.31937ZM81.7463 4.09085C81.8523 3.77632 82.6532 4.08144 82.4406 4.34085C82.4056 4.38257 81.591 4.5497 81.7463 4.09085ZM44.2843 3.62601C44.4764 3.35361 44.0305 3.03362 43.9474 3.24515C43.9063 3.35085 44.1997 3.74564 44.2843 3.62601ZM41.1515 2.45999C40.9227 2.51638 40.6815 3.6512 40.966 3.47562C40.9963 3.45633 41.1778 2.61767 41.1515 2.45999ZM56.1906 3.04397C55.9518 2.6384 55.9657 3.39116 56.1408 3.38187C56.2028 3.37823 56.1981 3.05683 56.1906 3.04397ZM47.0636 3.14163C47.0397 3.11529 46.7628 3.16364 46.7726 3.33694C46.8748 3.44101 47.2183 3.32246 47.0636 3.14163ZM56.2668 2.93655C56.125 3.07259 56.3689 3.6185 56.5422 3.08499C56.4545 3.12855 56.2827 2.9247 56.2668 2.93655ZM78.1134 3.03812C77.9947 3.34805 77.6589 3.25439 77.466 3.30765C77.4454 2.90661 77.9752 3.11054 78.1134 3.03812ZM42.1242 2.91702C41.9074 3.20002 42.3719 3.4317 42.3293 3.05765C42.3225 3.03693 42.134 2.90605 42.1242 2.91702ZM63.9064 2.89554C63.7488 3.13506 64.2492 3.45716 64.1115 3.03616C64.1046 3.01903 63.9178 2.88467 63.9064 2.89554ZM66.091 3.03421C65.9712 2.95354 65.462 2.97837 65.6603 3.21194C65.6911 3.24785 66.082 3.2536 66.091 3.03421ZM3.71794 3.03421C3.65375 2.62238 4.02717 2.71996 4.08122 2.79202C4.10225 2.82201 3.80197 3.57087 3.71794 3.03421ZM54.6379 2.97952C54.5141 3.03112 54.1925 2.93314 54.1359 3.14944C54.2873 3.10465 54.6786 3.41058 54.6379 2.97952ZM43.1125 2.91507C42.9237 2.46714 42.6012 2.51137 42.6808 3.09671C43.0371 3.05747 42.6371 2.57065 43.1125 2.91507ZM57.0636 2.45413C56.9645 2.41998 56.8886 2.98115 56.8996 3.00882C57.0071 3.2609 57.1622 2.67295 57.0636 2.45413ZM49.6174 2.91702C49.6115 2.677 49.2939 2.78589 49.3361 2.94046C49.35 2.99239 49.622 3.11153 49.6174 2.91702ZM73.9484 2.9014C73.8027 2.68207 74.2473 2.46782 74.3791 2.72366C74.4431 3.09269 73.9668 2.92659 73.9484 2.9014ZM59.8146 2.59476C59.8293 2.23833 59.3329 2.43986 59.5285 2.73538C59.5775 2.80936 59.8094 2.71402 59.8146 2.59476ZM64.5744 2.16702C64.2409 2.59236 65.6415 2.8943 65.2736 2.36429C65.2473 2.32653 64.6038 2.13126 64.5744 2.16702ZM66.8615 2.43265C66.804 2.38529 66.8325 1.18785 67.0705 1.64944C67.1017 1.70938 66.9561 2.02616 66.9816 2.09866C66.9966 2.13996 67.5144 2.30828 67.5383 2.2803C67.5635 2.24669 67.5338 1.86429 67.5597 1.82132C67.5901 1.77473 67.9078 2.11061 68.0744 2.11429C68.3883 2.12053 68.4226 1.80193 68.4484 1.79983C68.5235 1.79772 68.6498 2.02435 68.8019 2.02444C69.5696 2.02189 70.744 1.75113 71.3527 2.42874C70.8112 2.15675 70.2949 2.44535 69.756 2.53421C69.9137 1.86702 68.9636 3.04842 69.5197 2.27835C69.2637 2.44534 67.0516 2.57876 66.8625 2.43265H66.8615ZM40.2482 2.12405C40.3886 1.7151 39.667 1.80709 39.6056 2.2803C39.701 2.34598 40.2308 2.17043 40.2482 2.12405ZM43.5783 1.12601C43.6453 1.05538 43.7092 0.25576 44.0607 0.661162H44.0617C44.1645 0.779621 44.0478 0.974506 44.0666 1.04397C44.0734 1.07233 44.3934 1.47022 44.1271 1.53421C43.7219 1.63185 44.0887 0.940109 43.8732 0.930694C43.8468 0.930038 43.4368 1.36267 43.4601 1.45804C43.4626 1.46911 43.5862 1.3776 43.6066 1.41702C43.683 1.56461 43.6462 1.81248 43.6564 1.82718C43.6919 1.85764 44.3405 1.43219 44.4347 1.80374C44.4653 1.92351 43.4033 2.19955 43.3605 2.13772C43.3343 2.09846 43.3447 1.40514 43.3176 1.33694C43.3022 1.30404 42.8759 1.56268 42.8205 1.49905C42.8044 1.48066 42.7924 1.46071 42.7834 1.44437C42.8481 1.65887 42.46 1.64343 42.4718 1.4014C42.4787 1.30657 42.7446 1.36122 42.7551 1.37796C42.7592 1.385 42.7634 1.3947 42.7668 1.4014C42.7116 1.13998 43.614 1.15178 43.4191 0.762725C43.6806 0.549899 43.3818 1.33308 43.5783 1.12601ZM44.3849 1.33499C44.6732 1.08294 44.5159 0.535401 44.8371 0.698272C44.8101 0.771113 44.783 0.844182 44.756 0.917022C45.2141 0.738941 45.743 1.08956 46.2707 1.08694C46.4039 1.08587 46.2506 0.640989 46.4259 0.762725C46.5665 0.860525 46.7218 1.27373 46.6457 1.36624C46.627 1.38924 46.3408 1.1202 46.1974 1.14749C45.7763 1.22897 45.88 1.60841 45.8566 1.6221C45.8293 1.63297 45.5626 1.36403 45.4172 1.37601C45.0516 1.40699 44.8844 1.64174 44.3849 1.33499ZM61.9152 1.51272C61.9327 1.27224 62.2321 1.48554 62.341 1.45022C62.3239 1.69129 62.0245 1.4779 61.9152 1.51272ZM17.2345 1.20022C17.1424 1.59524 17.8325 1.69305 17.6506 1.36429C17.6098 1.29137 17.3212 1.20303 17.2345 1.20022ZM20.3351 1.44046C20.4275 1.33126 20.0562 1.04702 20.0568 1.35257C20.0574 1.45031 20.3218 1.45451 20.3351 1.44046ZM50.759 1.08694C50.7764 1.07462 51.0284 1.16209 51.0383 1.18265C51.2065 1.60203 50.371 1.35962 50.759 1.08694ZM24.1047 0.954131C23.7835 1.2129 24.752 1.3251 24.4562 0.995147C24.4415 0.979068 24.1201 0.941548 24.1047 0.954131ZM25.4513 0.881865C25.3738 0.89547 25.0322 0.767462 25.0275 0.887725C25.0207 1.08219 25.4124 1.21506 25.4513 0.881865ZM57.1301 0.961944C57.093 0.517053 57.5453 0.853923 57.7023 0.797881C57.7396 1.24327 57.2871 0.905738 57.1301 0.961944ZM54.2785 0.633819C56.1831 0.282958 55.7633 1.23389 54.1652 0.850615C54.1629 0.565494 54.1587 0.655652 54.2785 0.633819ZM56.7179 0.686553C56.6487 0.971569 56.4324 0.887171 56.2863 0.864287C56.3127 0.666189 56.6125 0.737788 56.7179 0.686553ZM16.4123 0.588897C16.5317 0.228714 17.061 0.672741 16.967 0.821319C16.9451 0.853403 16.3685 0.786963 16.4123 0.588897ZM50.9191 0.706084C50.8748 0.273297 51.4466 0.449803 51.4904 0.545928C51.6667 0.932284 50.9662 0.61116 50.9191 0.706084ZM59.8332 0.581084C59.9342 0.242036 60.2219 0.416427 60.4064 0.420928C60.3224 0.710839 59.9897 0.587184 59.8332 0.581084ZM58.5021 0.315459C58.5154 0.302806 58.7709 0.333111 58.7824 0.348662C58.9932 0.679818 58.2655 0.595012 58.5021 0.315459ZM2.85954 0.00295918C2.86821 -0.00788689 3.06099 0.0136323 3.0695 0.0263967C3.24342 0.351914 2.65887 0.285401 2.85954 0.00295918Z" fill="var(--fill-0, #E8D3B5)"/>
</svg>
