<svg xmlns="http://www.w3.org/2000/svg" width="16" height="16" fill="none" viewBox="0 0 16 16"><path fill="#9aa2b1" d="M7.67 4.242c.254.01.562.067.824.042.03-.003.013-.057.019-.062.091-.07.06.041.12.056.237.059.5.063.728.042.096-.01 0-.119.097-.057.007.004-.018.063.009.069.06.014.174.003.22.008.09.009.106.009.191.01.117 0 .255.03.38.017.026-.003-.008-.063.033-.073a.5.5 0 0 1 .194.009c.038.014.021.06.028.072.055.09.184-.033.202-.038.306-.054.568.019.855.018.215 0 .446-.024.652-.021h.006c.293.007.53.09.789.19h.003c.027.011.022-.067.056-.053.251.102.48.26.657.461q.125.142.212.307c.018.034-.06.029-.046.065.046.113.079.267.13.391.048.115.115.21.257.246.03.16.04.359-.015.5l-.002.003c-.036.073-.101 0-.072.096.006.021.064-.006.07.025.022.137.002.288.033.423.006.027.06.02.07.027.077.066-.05.176-.06.2-.07.181-.043.313-.044.482 0 .04.07-.006.073.031.01.196.003.399-.028.59-.007.043-.067.004-.074.024-.029.09.086.11.061.196-.005.018-.057.008-.062.012-.089.05.034.095.04.109.038.169-.094.277-.076.44.003.019.068-.024.07.03.019.366.002.752-.051 1.113-.008.056-.058.016-.064.02-.095.057.033.095.038.113.034.144-.073.28.079.378-.043.49.004.98-.046 1.469a1.3 1.3 0 0 1-.098.391c-.005.007-.061-.019-.067-.004-.08.182.023.166.089.34.006.017-.017.036-.048.05-.049.024-.117.038-.125.04-.05.013-.12-.057-.131-.05-.09.048.193.177.126.292-.004 0-.043-.04-.053-.034-.032.019-.03.058-.064.074-.08.036-.212-.037-.21.099 0 .017.15.115.064.196l-.047.046a1 1 0 0 1-.187.152c-.052.026-.056-.042-.06-.042-.163.027-.137-.032-.254-.087-.112-.058.039.155.029.197-.012.041-.136.037-.167.027-.032-.009-.02-.054-.044-.056-.045-.003-.065.006-.072.022-.02.043.056.14.033.182-.084.139-.239-.02-.342-.018-.029 0 .003.04-.022.049-.1.034-.167-.019-.28.042-.01.005-.039.038-.074.057-.032.02-.069.027-.098-.015-.008-.013.015-.062-.026-.073a.6.6 0 0 0-.24-.01c-.048.012.008.092-.054.067-.026-.011.023-.057-.027-.074a1 1 0 0 0-.233-.014c-.05.002-.023.062-.026.067a.4.4 0 0 1-.13.052c-.425.008-.817-.095-1.232-.061-.032.002-.01.067-.015.068-.111.027-.024-.144-.102-.201.011.13-.034.107-.113.121-.038.007-.017.057-.02.063-.057.076-.096-.023-.106-.043-.037-.074-.077.013-.103-.037-.024-.049.033-.121-.041-.12-.022.046.034.167-.023.187-.215.074-.618-.02-.791-.03s-.23-.002-.33-.019c-.181-.03-.115.06-.228.102-.113.04-.058-.181-.075-.229-.016-.047-.033.001-.053-.024s.023-.059-.023-.069c-.047-.01-.174.074-.191.124-.035.106.022.217-.101.178-.007-.002.016-.06-.012-.066-.216-.045-.44-.047-.656-.087-.029-.006-.003-.07-.02-.075-.18-.042-.116.068-.214.189.022-.162-.033-.26-.17-.262-.08 0-.067.07-.12.12-.015.015-.074-.033-.084 0-.035.109.019.23-.121.182q-.002-.003 0-.018c.002-.014.004-.031 0-.04a.01.01 0 0 0-.008-.007c-.146-.027-.172.086-.343.073-.112-.01-.278-.103-.397-.179l-.067-.039c.077-.164-.05-.18-.161-.101-.078-.052-.166-.104-.226-.174-.02-.024.028-.051.03-.059.013-.104-.095-.038-.114-.049l-.057-.04c-.145-.123-.186-.284-.346-.404-.006-.004-.124.044-.068-.05.007-.004.084.027.046-.06a1 1 0 0 1-.03-.109c-.02-.094-.036-.204-.096-.284-.022-.027-.139-.092-.07-.17.01-.011.047-.007.066-.022.058-.047-.07-.056.033-.112.063-.032.116-.078.134-.132q.02-.06-.024-.136c-.002-.004-.103-.035-.101-.075.002-.063.024-.154.023-.22 0-.032-.063-.012-.064-.018-.035-.214.02-.366.045-.595.004-.043-.081-.163-.014-.245.074-.089.383.002.31-.203-.03-.083-.421-.188-.218-.337-.05-.288.053-.556-.019-.845-.003-.013-.112-.055-.111-.085.002-.046.053-.071.057-.104.015-.136-.029-.26-.022-.391.003-.05.056-.033.059-.092.003-.06-.067-.1-.034-.18.026-.06.168-.121.185-.202-.14-.003-.138-.058-.175-.156-.007-.02-.055 0-.061-.008-.025-.036.015-.07-.012-.105-.006-.008-.053-.009-.063-.015-.07-.059.037-.156.056-.172.071-.064.01-.093.037-.142.028-.048.063.024.08-.033.035-.117.027-.268.03-.388 0-.047-.063-.015-.065-.022-.016-.098.052-.198-.075-.253.328-.068-.033-.06.033-.2.006-.011.162-.025.185.017s-.026.107.01.166c.008.014.154.095.163.106.068.085-.164.098-.177.102-.138.052.019.15.03.175.05.118.017.219.053.318.023.064.174.07.17.12-.016.17-.227.229-.043.387.04.034.205 0 .074.122-.01.009-.127.1-.052.152.01.006.059.006.063.015.026.058-.013.096.006.16.018.063.045.14.029.212-.01.043-.1.099-.122.12-.064.058.04.121-.036.158-.078.037-.196-.035-.246.061l.382.018c-.004.211-.045.42-.04.632.002.026.07 0 .072.027.01.119-.038.223-.019.346.015.095.088.2.106.3-.145.062-.096.21-.109.317-.004.037-.043.035-.055.062-.047.1.08.054.1.082.086.118-.202.129-.195.27.005.01.152.097.163.11.062.079-.053.013-.065.062-.02.09-.057.154-.012.26.013.032.109.106.035.167-.01.008-.06.004-.064.01-.044.104.081.117.146.168l.018.011c.054.044-.05.121-.079.143-.075.05-.04-.025-.046-.03-.097-.019-.077.04-.078.087-.154.03-.132.1 0 .05.015-.005-.005-.04 0-.05.159.02.187.068.07.181-.054.054-.142.043-.075.147.024.036.085.009.131.008q.021 0 .036.01c.099.06.074.217.152.294.027.026.052-.038.072-.022.047.036.056.098.103.132l.018.011c.007 0 .039-.051.053-.039.11.094.195.201.338.27q.02.009.047.016c.073.023.174.03.233.048.082.025.177.077.273.099a.6.6 0 0 0 .187.01c.102-.014.08-.076.123-.118.084-.081.234.065.254.087 0 .001-.087.015-.04.047.027.066.039-.046.04-.047a.6.6 0 0 0 .223.017c.019-.007.008-.065.018-.068q.35-.08.706-.04c.004.002-.002.068.008.07.138.029.226-.051.339-.099.113-.047.203-.031.27.081.086-.014.21.035.28.066.068.029.08-.092.086-.1.194-.08.306-.008.508.003.095.005.285-.012.388-.027.082-.01.131.019.206 0 .01-.003 0-.06.003-.062.084-.068.045.07.062.096.063.09.101.138.209.095.024-.01.097-.207.142-.22.06-.015.037.056.099.039.005-.002.004-.045.042-.043.177.008.37.034.554.03.024-.002-.007-.07.028-.073.17-.009.357-.006.522.027.04.008.016.057.025.072.054.087.13-.039.143-.042.126-.026.24-.02.352-.01.101.015.213.027.32-.036.012-.009.04-.159.116-.065l.001.001c.01.013.09.097.085.01 0-.005-.047-.05-.01-.063.04-.012.07-.077.154-.053.025.008.138.076.12-.034-.002-.01-.054-.142-.02-.152q.013-.006.051.02c.02.014.134.126.119.02-.005-.02-.045-.026-.042-.064.005-.058.077-.086.047-.172-.004-.016-.079-.102.007-.093.014.001.057.034.07.02a.2.2 0 0 0 .04-.059c.028-.06.036-.127.077-.186.02-.028.1.006.129-.026.03-.032.06-.107.023-.148s-.174-.008-.184-.059l-.003-.018c-.04-.339.036-.675.047-1.013.002-.052-.047-.009-.047-.085-.004-.28-.05-.765.054-1.009.083-.195.146.05.18-.1.015-.071-.143-.15-.148-.167-.05-.17.02-.287-.002-.44-.004-.031-.068 0-.07-.027-.012-.092.016-.188.01-.276-.002-.039-.05-.032-.046-.068a.6.6 0 0 1 .074-.248c.004-.008.065.044.068-.02.003-.103.048-.232.002-.351-.014-.036-.126-.037-.048-.113.017-.016.15.003.034-.084-.02-.015-.176-.165-.075-.238.027-.02.136-.068.119-.11-.003-.006-.063.017-.069-.019-.02-.124-.013-.254-.032-.382-.005-.034-.067.017-.073-.034-.016-.14 0-.314.02-.45.007-.05.057-.017.064-.02.091-.058-.032-.094-.039-.114-.043-.121.015-.214 0-.326-.004-.03-.062-.009-.068-.015-.052-.063.054-.017.066-.057l.003-.012a.33.33 0 0 0-.004-.219c-.008-.025-.069.017-.075-.004l-.06-.185-.07-.205c-.008-.025.044-.042.05-.053.046-.08-.08-.059-.097-.06-.058-.008-.059-.038-.077-.066a.1.1 0 0 0-.02-.02 2.6 2.6 0 0 0-.35-.204 1.3 1.3 0 0 0-.353-.108l-.068-.009c-.43-.025-.78-.066-1.203-.054-.029.001 0 .07-.025.071-.324.017-.643-.01-.967.01-.026.002.011.067-.03.072a.9.9 0 0 1-.289-.015c-.042-.01.015-.066-.028-.075a1 1 0 0 0-.315-.015c-.044.004.023.072-.035.073-.392.006-.777.018-1.174-.07-.027-.006-.05-.143-.108-.117-.004.038-.004.083-.006.124-.534.02-1.063-.02-1.597-.031H6.37c-.015.001.015.07-.012.073-.169.014-.31.078-.497.104-.02.001-.078-.112-.116-.065-.007.009-.066.073-.064.109.003.007.048.042.03.06a6 6 0 0 0-.316.325c-.017.019-.06-.033-.074-.02-.091.105-.09.257-.166.373-.05.081-.155.037-.268.081-.016.007-.023.071-.085.073-.159.006-.33-.037-.5-.027-.037.002.001.123-.086.05-.006-.004-.033-.095-.06-.12-.02-.018-.087.008-.11-.028s.032-.067.008-.126c-.024-.06-.1-.046-.089-.163.027-.273.178-.61.344-.822.05-.066.062-.01.1-.053.073-.083.12-.178.205-.249.029-.022.047.053.076.029l.104-.093c.112-.1.222-.199.356-.277.398-.23.85-.342 1.294-.325q.607.028 1.225.049m1.593 9.759c.028-.071-.077-.077-.055-.003.003.003.05.005.055.003m3.345-.09c-.016-.057-.061-.031-.035.02.002.004.04 0 .035-.02m1.503-1.593c-.111-.069-.144.174-.019.136a.4.4 0 0 0 .019-.136M4.9 9.827c-.098.085.047.144.124.084.076-.06-.093-.11-.123-.084M4.83 8.94c-.078.1.24.116.176.009a1 1 0 0 0-.176-.009m-.078-.88c-.043.032.006.122.06.083.043-.03-.006-.12-.06-.083m-.005-1.495c-.012.221-.273.355-.244.115.006-.043.084.093.108.039.043-.102-.122-.17-.034-.273.016-.018.166.103.17.12m.139-.455c.064.039.09-.048.014-.047a.1.1 0 0 0-.014.047"/><path fill="#9aa2b1" d="M6.912 1.763c.062-.01.171.058.241.07-.001.18.065.14.092.015.046.005.095-.003.139.014.015.006.006.06.008.065.029.089.048-.032.058-.037.107-.047.193.045.295-.045.004-.003.01-.13.037-.037.002.006-.031.063.016.068.048.005.139.072.205.014.016-.014.056-.116.089-.037.004.01 0 .047.006.067.02.064.032-.063.055.045.024.108.074.19.141.115.002-.005.018-.103.04-.101.033.002.08.024.115.023.016 0 .007-.059.01-.064.112-.036.193.02.315.045.022.004.085-.082.128-.014.048.074 0 .383.108.31.044-.03.099-.421.178-.218.152-.05.294.053.447-.019.007-.005.028-.11.044-.111.024.002.037.053.054.056.072.016.138-.028.207-.021.027.002.018.056.05.059l.01-.002c.025-.011.048-.06.084-.029.032.028.048.172.08.194.021-.139.048-.133.107-.158.01-.004.012-.053.018-.058.026-.02.034.023.06.003.007-.007.02-.05.027-.057.057-.057.077.066.076.087.005.08.045.03.057.067.01.037-.04.05-.023.08.035.058.098.093.141.134.017.016.048-.042.052-.04.05.023.035.106.15.044-.225.243.046.002.043.107-.002.009-.12.106-.151.104-.03-.002-.012-.057-.058-.055a2 2 0 0 0-.15.078c-.07.025.084-.141.094-.156.075-.117-.063-.034-.079-.029-.07.008-.086-.04-.138-.028-.034.008-.101.145-.113.134-.032-.032-.006-.244-.104-.078-.02.036-.037.202-.054.068 0-.009-.02-.132-.047-.058-.003.01-.006.058-.01.062-.02.024-.032-.014-.056.003L10 2.447c-.032.018-.068.04-.103.025-.023-.01-.053-.1-.064-.122-.031-.064-.065.04-.084-.036-.02-.078.019-.196-.032-.247q-.004.192-.01.383c-.111-.004-.221-.045-.333-.04-.014.001 0 .069-.015.072-.062.01-.117-.038-.182-.019-.05.015-.107.087-.16.105-.032-.144-.11-.095-.166-.108-.02-.005-.019-.043-.033-.056-.053-.046-.028.08-.043.101-.062.086-.068-.202-.142-.195-.004 0-.052.152-.059.163-.042.062-.007-.053-.033-.065-.048-.02-.081-.057-.138-.012-.016.013-.056.109-.088.035-.004-.01-.001-.06-.004-.064-.061-.05-.063.11-.098.164s-.089-.056-.1-.088c-.028-.08.021-.036.024-.042.018-.096-.021-.08-.051-.088-.004-.157-.046-.148-.031-.008.001.015.025 0 .031.008-.026.153-.073.173-.124.029-.024-.067-.001-.145-.073-.116-.033.013-.021.12-.05.15-.066.066-.152-.034-.22-.018-.026.005-.002.065-.018.07-.045.017-.085-.027-.13-.005-.004.002.005.064-.009.064-.106.007-.2-.032-.31-.033-.054 0-.15.033-.206.027-.096-.012-.215-.101-.297-.08-.054.014-.043.077-.066.119-.044.08-.123-.066-.134-.088.003-.002.045-.017.022-.047-.014-.064-.02.04-.022.047-.008-.015-.1-.029-.118-.017-.01.007-.004.065-.01.068a.6.6 0 0 1-.373.04c-.002-.004.001-.067-.004-.069-.072-.029-.118.051-.178.099-.06.047-.107.03-.143-.081-.045.014-.11-.036-.147-.067-.037-.03-.043.098-.046.101-.102.08-.162.007-.268-.004a.8.8 0 0 0-.205.026c-.043.012-.07-.018-.11.001-.005.003 0 .06-.001.062-.044.067-.023-.071-.032-.096-.034-.09-.054-.138-.11-.095-.014.01-.052.207-.076.22-.031.015-.02-.056-.052-.039-.003.002-.002.046-.022.044-.093-.008-.195-.035-.292-.03-.013 0 .003.07-.016.072a.6.6 0 0 1-.275-.026c-.022-.009-.008-.058-.013-.073-.028-.087-.069.037-.076.042-.16.062-.283-.054-.446.001-.01.004-.07.126-.103.04l-.003-.016c0-.008-.02-.129-.033-.046 0 .005.012.067-.005.062s-.038.038-.071-.026c-.01-.02-.054-.134-.058-.035-.003.01.023.223-.03.084-.008-.023-.053-.175-.057-.088 0 .017.02.047.015.072-.007.039-.05.011-.041.085 0 .014.036.115-.014.05-.008-.01-.029-.057-.039-.06-.048-.005-.061.047-.114.042-.02-.001-.068-.071-.096-.078-.028-.006-.07.004-.055.044.017.04.126.121.12.145-.025.096-.138.126-.183.218-.006.012.042.017.038.036-.014.052-.003.13-.028.193a.3.3 0 0 1-.056.132c-.083.102-.146-.027-.18.052-.016.038.143.08.148.089.05.09-.02.151.002.232.005.016.068 0 .071.015.011.048-.017.099-.012.145.003.02.052.017.048.036a.24.24 0 0 1-.075.131c-.005.003-.065-.023-.067.01-.004.055-.049.123-.002.185.014.02.125.02.049.06-.017.008-.15-.002-.035.045.021.009.175.087.075.125-.027.01-.136.036-.12.059.003.003.064-.01.07.01.02.065.012.134.031.201.006.018.068-.009.073.018a.55.55 0 0 1-.02.238c-.007.027-.058.008-.064.01-.09.031.032.05.04.06.042.065-.015.113 0 .173.004.016.06.005.068.007.05.034-.054.01-.066.03-.033.06-.028.128-.02.188.004.021.07-.003.072.017a.9.9 0 0 1-.032.356c-.008.021-.06.009-.071.013-.084.031.03.076.04.087.05.047.004.066.012.108.043.206.013.46-.006.655-.024.254-.074.451-.061.693 0 .015.07 0 .071.013.017.171-.01.34.01.511.002.014.068-.006.072.017a.26.26 0 0 1-.014.151c-.01.023-.067-.007-.076.016a.3.3 0 0 0-.015.165c.004.023.072-.011.073.018.007.207.018.411-.07.62-.005.015-.143.028-.117.058.039.002.084.002.124.003.022.301-.025.6-.033.902 0 .013.065-.006.072.013 0 .072.029.127-.016.22-.004.01-.127.048-.1.066.005.004.036.033.065.03.004 0 .055-.03.062-.022l.032.056a.6.6 0 0 1 .042.133c.002.012-.053.045-.051.054.016.07.096.078.11.158.01.056-.065.137-.101.243-.006.015.021.034-.01.09-.076.139-.183.277-.263.426-.016.032.061.032-.018.088-.005.004-.064.004-.09.022-.019.013-.04.075-.07.086-.03.012-.018-.044-.062-.037-.044.008-.075.076-.135.042a1 1 0 0 1-.349-.381c-.022-.044.023-.049.01-.08-.025-.06-.075-.098-.093-.162-.004-.02.061-.031.056-.051l-.01-.029c-.035-.098-.089-.182-.115-.285a2.1 2.1 0 0 1-.061-.666c.023-.239.038-.477.055-.72.01-.134.067-.297.042-.435-.004-.015-.056-.007-.062-.009-.07-.048.042-.033.056-.064a.65.65 0 0 0 .042-.384c-.009-.051-.119 0-.057-.052.004-.003.062.01.07-.004.013-.032.002-.092.007-.117.01-.048.009-.056.01-.1.001-.062.03-.135.017-.2-.003-.015-.062.003-.073-.018a.15.15 0 0 1 .009-.103c.014-.02.061-.011.072-.015.09-.028-.03-.095-.038-.106-.053-.161.019-.3.019-.451 0-.115-.025-.239-.022-.348.004-.13.037-.24.031-.367 0-.013-.07.002-.072-.014a1.6 1.6 0 0 1 .048-.518c.006-.017.066.005.075-.012.051-.106.174-.274-.097-.337.01-.072.022-.159.077-.223.035-.04.102 0 .073-.051-.007-.011-.065.003-.07-.014-.022-.072-.003-.151-.034-.223-.006-.014-.06-.011-.07-.015-.075-.035.052-.092.061-.105.07-.095.042-.166.043-.255 0-.02-.07.004-.072-.016a.8.8 0 0 1 .028-.312c.007-.022.067-.002.074-.013.028-.047-.087-.058-.062-.103.006-.01.056-.004.063-.006.089-.027-.035-.05-.04-.057-.039-.09.094-.147.075-.233-.003-.01-.067.013-.07-.016-.019-.192 0-.397.052-.587.008-.03.058-.01.064-.011.077-.025.006-.043-.025-.054q-.01-.004-.012-.007c-.034-.09.08-.157-.06-.239.103-.364.252-.774.628-.91.004 0 .038.051.047.05.104-.038.027-.101.024-.244.002-.037.126.053.136.062.035.025.066.114.075.118.068.03-.088-.236-.023-.27.002 0 .02.055.027.057.024.008.03-.02.055-.01.056.026.12.16.142.06.002-.016-.066-.175-.002-.187.025-.006.133-.038.166-.032s.022.065.025.068c.092.06.067.096.118.2.046.104.008-.153.02-.186.014-.03.076.026.09.047.015.021 0 .058.012.07.03.028.04.018.045-.01.008-.045-.002-.137.014-.163.058-.099.104.096.158.115.014.004.003-.039.016-.043.05-.015.081.044.14-.01.009-.01.056-.127.086-.042.004.013-.007.062.015.073.032.016.09.026.126.01.026-.012-.004-.092.03-.067.013.011-.013.058.014.075s.095.014.122.013.012-.063.014-.067a.2.2 0 0 1 .068-.052c.225-.008.432.095.651.061.016-.003.006-.062.008-.067.059-.027.013.143.054.2-.006-.13.018-.107.06-.121.02-.007.008-.057.01-.063.03-.076.05.023.056.043.02.075.041-.013.054.036.014.05-.017.123.023.122.01-.047-.019-.168.012-.188.113-.074.326.02.418.03.09.01.12.002.173.019.096.03.06-.06.12-.102.06-.04.032.18.04.229.009.048.018-.001.029.025.01.026-.013.059.012.069.024.01.091-.075.1-.125.019-.106-.011-.217.054-.178.004.002-.008.06.006.066.114.045.232.048.346.088.016.006.002.07.011.074.095.042.061-.068.113-.19-.011.163.017.262.09.263.043 0 .035-.07.063-.12.008-.015.04.033.045 0 .018-.109-.01-.23.063-.182.003.002-.006.062.005.065.073.023.082-.09.16-.103m-4.288 9.14c.053-.048.022-.08-.017-.017-.001.003.015.02.017.017M10.9 2.651c-.045-.099.127-.31.177-.178.008.023-.099 0-.102.039-.008.068.153.017.104.11a.6.6 0 0 1-.18.03m-1.413-.416c-.045-.098-.075.047-.044.124.032.076.058-.094.044-.124m-7.13.043c-.006-.003-.059.039-.058.046.06.105.16.024.058-.046m8.023-.127c.002-.045-.057-.013-.057.043-.001.045.053.014.057-.043m-6.894-.107c.002.06.03.044.02-.013 0-.003-.02-.005-.02.013M5.26 2c-.015.071.04.076.03.002-.002-.003-.03-.005-.03-.002"/></svg>