<svg xmlns="http://www.w3.org/2000/svg" width="304" height="1" fill="none" viewBox="0 0 304 1"><path fill="#8d8268" d="M6.83.028c6.358-.075 10.7.022 16.599.044C36.415.12 53.54.117 66.823.139c10.054.016 20.27.035 30.262.052.512 0 .818.008 1.05.009 2.189.003 5.858.003 8.028.007 4.566.008 12.51.018 16.691.029 1.776.004 3.597.007 4.288.021.648.002 1.002-.009 1.171-.01h.006c.546 0 1.923.01 2.228.01.045 0-.234-.01.504-.007.065 0 .005.006.626.007.161 0 2.239-.005 2.833-.005 1.976.001 6.695.014 9.057.017l.951-.002c.197 0 .493.004.553.004.267 0 1.427-.014 1.01.016 1.212 0 .855-.01.883-.017 1.316 0 1.95.015 2.294.001l19.414.031.005-.007c1.907.011 2.562-.001 3.651.012l2.014-.005c17.256.031 34.473.045 51.535.07.72 0 .9.004 2.087.005l4.884.004c1.515.002 3.752.008 5.442.01h.7c.253 0 .265.003.51.003h.986l2.804.003c.772.001.942.004 1.006.004h.75c1.109.002 1.894.007 3.412.005l-.124.004c1.162.002.394-.003.632-.003l2.791.004c.672 0 .69.003.748.004.141 0 1.831 0 2.698.002 1.025.004-.18.005.073.006l1.261.002c.157.002-.738 0-.755.001.015 0 1.551.005 1.256.006-.237.001-2.328-.003-2.771-.003-.073 0 .064.003 0 .003l-5.299-.006.753-.002h-1.001l1.423-.002c-.705-.009-2.824-.003-2.915.001-.038.002 1.259.009.051.011l.551.002 1.136-.002-.756-.002.278-.002h2.122c.364 0 .289.002.538.002 3.118.007 1.084 0 3.125.003l.874.003c-.1-.004.804 0 1.896-.001l-.393.003c1.584 0 4.795.01 3.93.003l1.089.002.919-.002 1.271.002h.006-1.013l.76.005h.748c-1.046-.002.334-.004.667-.005.882 0 1.445.002 1.741.003.139 0 1.775-.002 1.134.002h2.527l.988.002c-.715 0 1.356.005-.17.005-1.139 0-1.42-.003-1.961-.003h-1.275l-9.862-.007-1.728-.001c-.507 0 .128-.002-.519-.002-.678 0-.825.002-1.005.002l-.791-.002-3.488-.001-4.18-.005c-.095 0 .103-.007-.73-.001h-.78l.126-.004c-1.541.004-1.011.002-2.496.001L229.861.425h-2.227c-.955 0-3.449-.008-2.906.001-2.125-.01-2.467.005-3.531-.005l-.385.003C219.657.418 219.3.422 218.04.422c-.543 0 .083-.005-1.014.001l-.629-.002.147-.005c-1.218 0-1.296 0-1.157.006l-1.765-.005-.219.006c.284.004 13.632.007 15.492.007 2.18.005 6.56.003 8.321.005.705 0 1.016.005 2.042.006L242.12.44l.796.002c-.92 0-1.914.004.998.004l-.005-.002h-.495c-.053 0 .005-.001-.34-.002 2.786.002 8.754.005 3.622.005l.506.004c2.329-.004 1.486 0 3.418 0 .814.001 2.749 0 2.641.005-1.511 0-3.116-.003-4.43-.003-.131 0-1.686.002-2.486 0-.722 0-.225-.006-1.796 0-1.167-.007-1.842-.002-2.151-.001-.532 0-.591-.003-1.124-.003-.58-.001-.979 0-1.058 0-.796 0-4.937 0-5.129-.002l.5-.002c-1.076-.002-.852.001-1.135.002h-.632l.251-.002c-1.271 0-.299.003-2.102.002-1.146 0-2.329-.005-2.441-.005-.031 0 .327.003-.138.003-.773 0-2.111 0-2.26-.004-.378 0-.346.004-.397.004l-4.678-.001-6.002-.002c-.209 0-.076-.003-.285-.003l-2.322.003h-2.604c.034 0 .473.003-.133.004-.723 0-.334-.004-.373-.004-1.473-.002-2.403 0-3.408 0-.326 0-.927-.002-1.387-.001-.053 0 .051.003 0 .003-.695.001-1.345-.005-1.645-.005-.662-.001-.406.002-.375.003L201.627.44c-3.323 0-6.034-.001-9.566-.003-.444 0-.971-.004-1.039-.004-.209 0-.149.004-.755.004l-3.73-.001c-.255 0-.363-.005-.558-.005-.651 0-2.874.01-2.911-.004-1.293.011-2.152 0-3.193 0-2.466 0-6.328 0-8.786-.002-.517 0-.76-.004-1.048-.005h-3.623c-.303 0-.122-.019-1.68-.004-.913 0-.806-.007-.995-.007-1.473-.004-2.906.011-2.639-.003-1.714.003-2.826.011-3.526-.003-.005.007-.806.01-1.769.008.995-.012.872-.02 3.279-.016.038 0-.034.005.004.005.344 0 1.061-.002 1.646-.001.586 0 .261.004.495.004.215 0 .208-.005.519-.005h2.474c.361 0 .765.005 1.045.005h4.76c.288 0 .167.004.796.005.074 0 .341-.005.892-.005l1.332.002c.295 0 .172-.004.777-.004l6.54.007c.447 0 .659.006.932.006.048 0 .129-.005.296-.005 2.744-.004 8.817.006 11.953.007 6.554.004 12.6.005 19.212.008l.353-.002h-2.005l-.012-.006c-.899-.001-.785.003-.759.005q-.502 0-1.003-.004c-.289.007-2.519.001-3.668 0-.747 0-1.637.002-2.031.001-.833 0-.812-.004-.877-.004l-2.113.002c-1.24-.001-1.375-.008-3.072-.003-2.175-.005-4.586-.005-6.93-.006.446-.007-1.655-.002-2.603-.002C182.26.4 175.155.392 169.299.385c-.753 0-1.321-.005-1.74-.006-.228 0-.327.005-.643.004-.055 0-.095-.004-.683-.006-1.463-.003-5.105.004-6.028-.007L145.2.363l-.377-.008c-.95.012-4.707.002-6.539 0h-10.162c-.614 0-1.116-.006-1.697-.006-.25 0-.561.005-.821.005-2.921-.002-6.875-.01-9.819-.012L96.037.328C73.227.31 50.547.306 27.932.286c-.303 0-.288-.01-.523-.01-1.387-.002-4.485.004-6.052.003C20.11.278 18.13.262 17.7.276 22.133.3 26.818.302 31.434.31c.328 0 .37.01.41.01.746.003.275-.01 1.358-.009.362 0 3.708.03 3.31.002.8.011 6.448.02 7.539.017.33-.001.097-.009.163-.01.285 0 .414.01.669.01.68.002 2.407-.007 2.736-.006.756 0 3.022.01 4.02.008.914 0 .743-.012 1.534-.012.623 0-.056.009 1.336.012.69.002 3.103-.003 3.69-.002.585 0 1.238.006 2.046.006 1.165 0 3.698-.001 4.883-.003.07 0 .244-.008.418-.007.36 0 .253.01.525.01.277.002 4.999.004 5.801.004.553 0 .935-.005 1.24-.005.24 0 .266.009.511.01.078 0 .721-.007 1.364-.007.61 0 2.921.008 3.189.008.174 0-.017-.005.498-.005.47 0 .779.008 1.047.008.62 0 1.315-.004 1.974-.004 1.895.001 1.798.01 1.911.01.316 0 .442-.007.545-.007L86.05.347c.485 0 .69.008 1.206.008.384 0 1.16-.006 2.036-.006 1.976 0 4.325 0 6.266.002.578 0 .668.007.844.007.93.001 1.45-.005 1.715-.005 1.893.002 5.269.015 7.025.017.716 0 3.845-.002 5.611 0 .202 0 .013.004.237.004.538-.002.488-.012.761-.011.132 0 .432.006.815.007 1.989.004 3.356 0 4.263 0 8.712.008 17.596.016 25.732.021.907 0 2.032-.003 3.401.002l.126.007.143-.007c1.552 0 2.138-.003 3.722.001.137 0 .553.011.811-.002 1.569.01.708 0 1.873 0 1.164 0 2.296.004 3.426.005.617.005-1.98.014-2.149.014-.273 0-.556-.007-.818-.007-.778-.002-1.531.003-1.705-.003-1.005.006.245.003.121.009l-2.014-.008c-.344.02-4.047-.009-3.792.007l-.885-.01c-1.293.02-2.054.006-3.779-.001l.374.007c-.035 0-1.558.004-1.014-.006-1.56.013-1.495-.01-2.894.007-.831.002-.332-.008-1.82-.009-.882 0-1.976.004-2.961.004-.227 0-.327-.006-.529-.006-.201 0-.3.006-.545.006-.505 0-1.16-.004-1.476-.004-.283 0-.688.005-1.369.006-2.382.002-1.663-.006-2.039-.009-.404-.003-.695.007-1.5.006-.081 0 .128-.006-.135-.006-.212 0-.319.007-1.021.008h-5.28c-1.013 0-3.27-.008-4.318-.008-.404 0-.836.005-1.265.005l-5.504-.003c-1.624 0-4.476-.016-5.366-.004-2.281 0-2.835-.01-3.007-.01-.465-.001-.68.005-1.266.005C90.513.388 80.515.38 73.324.377 56.644.37 39.872.367 23.134.356L23 .37c1.978.003 4.303.01 6.256.013 2.607.003 6.475-.012 8.388.017-.768.002-2.014-.01-2.017.005l4.16.005-.124-.02c1.448-.002 2.928 0 4.38 0 .253 0 .075-.007.295-.007.245 0 .079.007.125.007.621 0 .809-.006.885-.006.194 0 .043.006.604.008 1.04.003 1.785-.012 1.541.014h1.008l.26-.02c2.067.027 3.02-.02 4.162.018l1.129-.017.636.02.124-.017c2.029.005 4.19 0 6.13.001 1.35.001 1.675.003 2.873.003 2.662 0 .018.01 2.23.022L65.7.397 66.8.39l.765.017c1.132-.028 1.866-.005 2.02-.005.125 0 .553-.017 1.89-.002-.554-.023 1.023 0 1.149 0 .12 0 1.655-.004 2.278-.004.49 0 1.537.006 2.267.006.644 0 .579-.008.626-.008.793 0 .297.005.87.006.573 0 1.017-.006 1.142-.005.062 0-.146.007.14.008.765.002 2.15-.004 3.026-.003.31 0 .703.006 1.049.007.53 0 .778-.007 1.085-.007.108 0 .792.012 1.643.01.162 0 .637-.025 1.269.01l.146-.014C91.016.395 91.81.434 93.078.4c2.071.005.65.017.877.02l.897-.003c.131 0 .108.005.252.005 2.64 0 1.469-.008 2.304-.012 1.989-.012 3.54.016.082.006v.007c.852-.002 3.013 0 2.291.012-.569.01-5.696.002-2.792.016.66.003 1.001-.006 2.143.01.755.001.864-.02 1.887-.011l-.504-.023c1.394-.01 3.114.005 4.185.001.364-.001 1.676-.035 1.37 0 .612-.003 3.493.004 4.03.001.128 0 .297-.018 2.161-.012l.388.007c-1.704.006 1.305.013.489.03-.278-.008-1.63-.012-1.848-.016-.371-.007.735-.016-.675-.014-.889.029 1.652.016 1.264.043 1.851-.012 2.036 0 2.455 0 1.791.002 2.918 0 4.608.003a278 278 0 0 0-3.026-.012c1.394-.018-1.006-.02-2.02-.008l-.254-.018c1.318.004 2.605.005 3.912.001l.255.007-.879.009c1.085.005.434-.011 1.882.004l.134-.02 4.163.008c.723-.013 3.393-.007 2.904.009 1.078.001-.253-.007.758-.011.439-.002 1.298-.002 1.51.002-.091.015-1.376.017-1.765.027.243.004 6.214-.007 5.681.01.478.002.258-.007 1.119-.009 2.413-.006 6.151.011 8.094-.01-2.281-.012-2.957.001-4.705.001-1.117 0-7.925.002-6.404-.013l-.751.006-.758-.015 2.137-.002.51.015.236-.01.899-.002-.253.012q.695 0 1.388.002l-.374-.016c2.177 0 1.44.003 2.647.013.902 0-.621-.01 1.287-.012 2.218-.002.763.013 3.635.01l.124-.007 1.895.008-.25-.01c1.304.001 3.1-.003 3.532.009-1.321-.006-1.308.014-.965.018.71.008 11.187.001 13.219.001 2.597 0 4.56.006 6.933-.003-1.608-.007-7.261-.002-8.332-.007-.106-.001-.077-.018-.759.001-2.198-.003-4.826.001-7.572 0l.252-.015c1.688.012 3.25-.013 3.031.008h1.008V.44h1.518v.01l1.259.002.131-.011c1.256.007 5.537-.01 3.655.01h1.77l-.006-.007.76-.001-.25.006c1.162-.004 2.264.008 3.027 0l-1.51-.004c.965.003 2.741-.003 2.902-.003.485 0 .741.005 1.267.006.474 0 .41-.004.498-.004 2.558.004 1.584.023 2.778 0l.381.01.509-.007h2.267l-.756-.01c1.132-.001 1.66.006 1.77.006.311 0 .453-.004.549-.004 4.616.002 1.812.005 4.119.022.823-.006-.01-.012-.127-.02 1.094.004 1.436.002 2.59.003.3 0 .624.004.814.004.164 0 .677-.003 1.071-.003.657 0 1.531.003 2.431.003.748 0 3.037-.003 4.633-.002.682 0 .524.003.7.003.073 0 .604-.003 1.042-.003 3.564 0 7.218.004 10.8.005h7.618c.538 0 .254.002.489.003.08 0 .179-.004 1.01-.002.3 0-.045.002.25.003.143 0 .205-.003 1.045-.003 1.527-.001 2.349.003 2.487.003.257 0 .182-.002.523-.002h4.547l5.749.002c.588 0 .041.005.795.005l.635-.003-1.008-.003h2.658l1.884.003-.757.001.268.003h3.661c.439 0 .291.002.735.002 2.589.001 1.936-.005 4.427.007-.841-.001-3.911 0-4.357 0-.311-.001-1.515-.012-1.073 0-2.486-.001-.327-.007-2.648-.007l.138.005c-.81.001-1.408 0-1.901-.002-.165.007-2.92.003-4.431.003l-6.811.002-1.261-.003c-.137 0-.52.003-.793.003-1.018 0-4.115-.005-4.887.003l18.177.001c-.762-.003 5.367-.003 5.678-.003.287 0 .045.003.131.003.636.001 1.179-.002 1.382-.002l1.013.001h2.375l.407.001.407-.002 2.102.002c.189 0 .058-.002.27-.002.652 0 .437.003 1.243.002.27 0 .253-.002.771-.002.366 0 .326.004.384.004.081 0 1.344-.002 1.758 0-.859.006.81 0 .898-.002l1.503.002.512-.002c2.022.003 3.255.001 5.243.002.097 0 1.767.002 1.694.003-1.003.001-2.004 0-2.646-.002-1.056.005-1.074.001-2.779.002-.571 0-.612.002-.678.002-2.22 0-5.777.002-7.273-.003-.266 0 .243.001.502.002-.324 0-8.013.003-5.556-.003h-.766a52 52 0 0 1-1.379-.001l-.361.004h-.913c-1.51.002-10.488.001-10.966.002l-.032.005c3.967.001 7.815-.003 12.141 0q-.19 0-.377-.003l5.177.005a3699 3699 0 0 1-6.82 0c-.204 0-.425.003-1.159.004l-2.752-.002-1.763.005c-.73 0-.241-.003-.387-.003h-1.624c-.705 0-2.171-.003-2.663.004h1.511c-2.731.003-4.867-.005-7.557.002-.612.01 1.611.007-.269.011h1.025l.24-.006 1.763.003-.503-.004c2.084-.001 4.188-.003 4.916.004l.129-.006c1.936.002 4.841-.007 4.298.003l.276-.002c1.169.002.669-.002 1.109-.003.126 0 2.399.002 1.392.005 2.218.002 1.534-.007 2.145-.007 1.42.003 3.974-.003 2.901.003h.633c.695-.005 1.38 0 2.133.002h.766l.512-.004c2.4.006 1.641-.014 2.737.002l-.513.004-1.215.002h4.903c2.073.003 3.253-.003 5.557 0l.648-.002c-.22.004-1.057.004.502.004.132.002-.92.003-1.4.001.09 0 .736-.002-.238-.002-.752 0 .613.003-1.64.003l.251.002h-.733l-.652-.004c-.558.003-.871.006-2.147.006.345-.001-.125-.004-.756-.004v.004c-1.528.002-1.001-.002-2.271.001l-.382-.002c-.693.004-3.24.008-2.776.002-.715.006-2.216.005-2.775 0l-.129.004-.891.001-.499-.002-.631.003-.381-.004-1.017.006-.621-.003c-.021.003-2.074.004-2.647.003l-.513.003-.251-.004-.381.004-.879-.003c-1.195.007-1.234.002-1.507.002-.505 0-2.228.006-2.516.006s-.427-.003-.658-.003c-3.828-.002-2.255.004-3.023.006-.414 0-.708-.002-1.074-.001-.627 0-3.782.007-3.969.007-.265 0 .358-.014-.503-.01-.04.006-1.866.001-1.009.01L214.626.54c.083.008-.851.003-1.867.004-1.442.002-4.685.01-4.573.001l-1.037.007c-2.364-.001-4.684.004-7.031.006-6.966.006-14.523.01-21.456.012-.333 0-.285-.004-.525-.004-1.261 0-4.538.005-6.304.006-.565 0-.841-.004-1.021-.004-.608 0-.465.005-.746.005L166.479.57c-.399 0-.871.005-1.338.004-.04 0 .033-.005 0-.005-.852 0-.34.003-.628.003l-6.478.002L156.16.57c-.181 0 .143.004-.482.004-.215 0-.288-.005-.531-.005-1.043 0-1.392.015-2.289.003l-6.322.009c-.373 0-.556-.003-.912-.002-.253 0-.697.004-1.091.004s-1.016-.003-1.774-.002c-.798 0-1.791.003-1.971.003-.217 0-.318-.005-.535-.004-.657 0-2.416.007-3.263.008-.909.002-1.455 0-1.765 0-.288 0-.623.005-.755.005-.205 0-.254-.006-.513-.006-.424 0-.863.005-1.499.005-11.461.01-22.697.014-33.847.016-1.243 0-1.945.005-3.777.004-.742 0-.43-.008-1.008-.006-.257 0-.193.006-.518.007-1.44.002-3.119-.003-3.743-.002-.247 0-.53.007-1.037.008L76.2.627c-2.155.002-5.417.009-7.89.011-6.835.006-14.187.009-20.42.014-9.412.007-18.779.023-28.17.02 4.393.019 10.377.011 15.268.01C49.117.678 64.161.655 78.641.645 83.678.641 90.03.637 95.546.636c.25 0 .769-.005 1.31-.005.114 0 1.538.008 2.018.008-.453-.016 1.426-.003 2.007-.004.733 0 2.261-.01 3.976-.007 1.557.003 1.127.01 1.213.01.551.002.743-.008 1.164-.01 1.724-.005 10.587-.006 13.061-.007.638 0 .657.006.801.005.381 0 .925-.006 1.536-.006 1.101-.001 2.37.003 2.976.003 1.451-.002 4.203-.01 6.087-.011.53 0 .498.005.738.005 1.056-.001 3.808-.01 5.119-.011 2.13-.002 4.321 0 6.486-.004l.411.007.65-.008c3.66 0 7.387-.008 11.028-.01.419 0 2.496.002 2.843.001.288 0 .571-.006.998-.006.598.001.035.012 1.012.008.263 0 .009-.005.537-.007.178 0 3.554-.005 3.739-.004.303 0 .574.01.652.01.407 0 .39-.008.662-.009.805-.002 1.856.003 1.988.002 1.581-.002 4.538-.01 6.198-.008.229 0 .203.005.243.005.26.001.422-.005.669-.005 1.332-.002 3.417 0 4.756 0l.755-.002c1.208 0 1.174.002 1.139.004.21 0 .579-.005 1.137-.005L189.19.57c1.154 0 1.138.004 1.213.004.162 0 .612-.004 1.372-.005 1.463-.002 1.297.001 1.898 0 .05 0-.036-.003.63-.004 1.289-.002 4.183 0 5.562-.002.531 0 .655-.003 1.198-.004l2.958.001c.043 0 .14-.004.392-.004l.759.001c1.18 0 3.212-.008 2.647.004l1.135-.01c2.471-.001 4.871-.003 7.319-.006h1.476l2.857-.005 4.518-.003c.844 0 1.662.003 2.006.002.275-.001.021-.003.547-.004.909-.002 2.455 0 2.733 0 .118 0-.102-.002 1.008-.003h1.138c.066 0-.031-.002 1.151-.002h1.253c.129 0 .44-.002.958-.002h4.573c.222 0 .147-.003 1.033-.003h.761l1.769-.002 9.214-.004h.718l-.344.003c-1.19-.002-.71.001-1.026.002l-2.597.003c-.149 0 .191.002-.607.004-.856.002-1.237-.002-1.578.004-1.215-.005-2.383.001-.976.002L256.925.53c1.276-.001 3.665-.006 5.234-.007.922 0 3.191-.003 3.098-.001.818 0-.048-.002.124-.002l3.397-.003c2.385-.003 5.395-.008 7.712-.009l-.323.002c-.521.001-2.936.003-3.209.005l10.597-.013c.046 0 4.319-.005 4.523-.004h-.231c-2.476.002-2.254.004-3.916.004l-.806.002c-3.319.006-.054-.002-2.595.002.765 0-1.315.004-2.248.005l-3.331.004c-1.859.003-5.052.008-6.899.009l-3.578.007h-1.188c-.99.002-1.316.006-1.95.002l-2.015.004V.536h-1.264l-.373.004c-1.338 0-.78-.002-1.03-.004h-.867l-.672.006-3.873.005-.251-.003-.008.003-6.558.01c-.582.002 2.921-.002 3.186-.002 1.476-.001 5.392-.008 5.4-.005.917-.004 3.679-.006 4.538-.005l-3.912.005.127.004a445 445 0 0 0-3.534.005l-.003-.005c-1.165.008-3.224 0-3.283.008l-1.86.001c-1.338.003.74.005-4.502.01h-.829c-.158 0-1.054.004-2.769.007-.267 0-.288-.002-.566-.001h-.596l1.912-.004.371-.002c-.78 0-1.847.004-2.322.006-.577.001-1.122.004-.704-.001-2.541.001-1.489.005-2.277.008-.525.003-.42-.002-.874 0-.563.001-.15.006-2.403.007q.38 0 .758-.003l-.381-.002c-1.286.005-1.165 0-1.771.008-.935-.001-1.744 0-3.022.002-2.483.005-1.211.01-4.045.004l-1.377.007c-.755-.002-.145-.007-1.272-.006.882.006-1.493.007-1.896.015l-.127-.005h-.755l-.002.005-1.006-.001-.756.005-1.243-.007h-.78l.247.007-1.004-.001c.389.003.145.007-.896.008-.859.002.108-.007-1.739 0-.129 0-.358.005-2.102.01-2.093.004-1.077-.002-1.45-.002-.074 0-.713.004-1.311.005h-.712c-.21 0-.271.003-.562.004l-2.45.003c-.328 0-.638.003-.784.003l-.745-.002c-.849.001-2.138.014-2.532 0-.816.015-2.524.002-2.401.01-2.181 0-7.997.021-7.826.005-1.235.016-1.125.005-1.643.006-.578.002-.278.004-.738.004l-3.168.004.503-.008c-1.122.001-.735.006-1.88.01-2.104.004-1.218-.002-1.528-.008.083.006-2.399.01-2.651.01-.15-.001.508-.01-1.01-.005l.249.007c-.693-.002-2.572.005-2.892.005-.146 0-.931-.02-1.648-.003l-.26-.007-2.39.013-.381-.014-.758.001.503.013c-1.561 0-3.469.01-3.79-.005l-1.003.01-.654-.014c-1.548.004-1.573.007-2.632.014l.125-.012c-.781.007-2.207.014-3.333.017-.536 0-1.456-.004-1.583-.003-.128 0-1.384.025-1.52.006-1.849.01-2.664.003-3.414.004-.487.001-.71.007-1.26.008-.788.002-1.582.001-2.037.002-.26 0-.309.006-.488.006-.848.002-.351-.004-1.245-.002-.083 0-.736.007-1.473.007-.412 0-1.476-.005-1.571-.005-.417 0-.084.014-1.509.001l.124.007c-1.764.01-2.042-.002-2.399-.002-.046 0-.474.005-.731.005-.434 0-.609-.006-.705-.006-.339 0-1.479.004-2.225-.001.157.017-2.454.027-3.033.008l-1.387.014-.627-.008-.382.01-2.021-.02-.129.023-.566-.002-.442-.017-.708.005-.174.013c-1.268.007-.617-.036-3.032.005l-1.127-.01c-.424.018-1.219.01-1.861.012-.452.002-.428.01-1.044.01-.616.002-.594-.005-.642-.005-.503 0-.882.007-1.25.006-.056 0-.195-.008-.664-.008s-.754.01-1.454.009c-.358 0-.462-.007-.78-.007-1.516 0-3.043.037-4.18-.003-.256.006-2.115.027-2.911.027-1.237 0-.76-.009-1.252-.01-.07 0-.448.004-1.486.005-.185 0-.142.004-.169.004-1.21.002-3.56.002-4.889.003-.118 0-.74.015-1.794-.002-1.56.017-4.502-.01-6.561.015-.285.001-.632-.003-.759-.003-1.089.003-.69.019-3.15 0 .198.007-.378.015-1.19.016-1.223 0-.355-.016-1.338-.013V.82c-2.26-.008-2.71.01-4.98.014-.815.002-2.019-.007-2.215-.006L73.317.84c-.48.001-.75-.003-1.165-.003C70.783.84 69.15.856 69.444.83l-1.13.018C66.893.823 65.828.862 65.53.835l-.762.019-18.303.02c-.243.01-2.904.01-3.04.008-.626-.005.035-.027-1.243-.02l-.424.028c-1.607.006-.835-.005-1.469-.01-.265 0-.18.008-.538.01-1.945.005-5.934.012-8.061.016-.43 0-.365-.006-.499-.006-.366 0-1.089.01-1.824.012-4.545.007-10.986.011-15.561.01-.31 0-.35-.008-.559-.008-.29 0-.94.008-1.246.007-.288 0-.472-.006-.78-.006C9.81.913 7.916.927 6.407.909 6.28.907 4.7.874 4.664.872 4.454.858 5.858.833 3.552.815 5.613.795 4.97.764 2.292.75l4.03-.015.005-.01A293 293 0 0 0 2.032.7l.174-.01C3.848.67 5.83.666 7.08.642L1.577.592l.275-.01c.879-.007 2.8-.011 3.53-.018C8.17.538 2.942.544 3.8.529h8.834C12.712.52 1.41.489 1.526.454L4.303.446 3.065.419l.341-.008L8.09.392C3.343.397 1.137.392 0 .321L.386.316C1.414.36 6.269.348 8.849.34 8.323.328 6.052.336 5.57.33c-.136-.003.338-.011.024-.016C4.77.301 1.262.284 1.77.27 2.099.26 7.747.252 8.849.253 6.266.235 3.605.228 1.016.206 2.65.179 4.098.146 7.082.148c.91-.014-5.407-.041-5.554-.05l3.28-.021Q3.42.077 2.034.08L2.026.07C4.421.06 6.612.04 9.354.045 9.26.03 7.624.03 6.829.028M28.553.77c1.283-.007.639-.021 2.265-.027h.002L28.298.742zm-5.05-.009.996.003.519-.02h-.002zM37.01.734l-.882-.009-1.013.032c1.467.006 3.027.012 2.778-.018L38.9.738c-.282.012-.245.016.634.023.192-.017 1.101-.009 2.142-.013l-2.27-.001v-.01c1.686 0-.41-.017-1.51-.004l-.26-.013zm5.965.006.225.017c.291.004 1.703-.024 1.256-.028zm9.308-.024c-2.243.019-.854.004-3.28.006l.509.027c1.192-.018 3.154-.01 2.774-.033zm69.682.006.006.009c.599-.008 2.183-.005 3.279-.009-.947-.012-1.82 0-3.285 0M84.855.685c-.081-.01-1.633.007-1.27-.017l-1.52.027.012.006 1.51-.006.007.01c.75-.013 3.882-.011 3.787 0l.502-.015c1.498.012 2.788-.004 4.42.008l.379-.013.247.01h1.784C96.649.68 92.885.666 92.429.668c-.06 0-.052.01-.43.011-.673.003-4.441-.002-5.606.005l-.03-.018zM95.512.672c.19.022.438.024 2.165.007l-.205-.008c-.896.003-1.418.008-1.261-.004zm8.061.011c1.231.002.989-.004 2.106.006 1.661-.015.255-.012.255-.023l-1.141.011c-.92-.01-.047-.016-.047-.017h-.003c0-.004.03-.004-.323-.006zm-4.206.005 3.375-.006.033-.009c-1.126.012-1.58 0-1.842 0h.004C100.093.672 99.289.67 98.49.667zm9.473-.025c-.422.008-.612.018.497.022h.002c.089-.017 1.153-.004 1.638-.006l.381-.006zm12.872-.025-.123.028c-.713-.022-1.633 0-3.03-.014l-.379.009c-.522-.006-5.651-.004-4.54.01.485.006 1.542-.004 1.632-.004.309 0 .711.01 1.231.008.301 0 .934-.01 1.548-.011 1.372-.002 3.876.021 5.679-.004l.39.007c1.339-.003.892-.01 2.138-.001.86-.044-5.007.006-3.785-.03h-.002zm-10.349.03c.048 0 2.166.007 1.764-.005a100 100 0 0 0-1.764.004M127.395.63c.002.017-.925.02.383.035l.763-.002.501-.012c3.226.027 4.188-.026-1.264-.001h-.003zm7.199.012.255.013c1.467-.006 2.391-.003 2.015-.018h-.003zm-1.267 0c-.447-.006-1.703.012-.877.012.632 0 1.117-.01.877-.013M153.024.61c.724.01-2.837.015-4.032.013-.29 0-.809-.006-1.018-.005l-.382.007a319 319 0 0 0-3.404.01l-.259-.01-1.006.005.127-.01-.761.012c-.995.005-.382-.012-1.13-.006-.83.007.53.015.506.022.675-.002 2.209-.008 2.894-.009.392 0-.053.012 1.641-.003l1.115.008 2.045-.017.382.013c.074 0 1.65-.01 1.566-.014.638.008 1.95.007 3.332.006l.398-.007c-1.336.006-.425-.002-.823-.005-.23-.003-.933-.007-1.191-.01m5.928.01-.627-.004c-.81.022.839 0 2.014.016-.387-.012 1.403-.014 1.506-.015l-.618-.012zM156.17.478c-.161 0-.121-.002-.121-.003-1.076 0-.084.01-.88.01-.14.001-2.006-.003-2.766-.003h-2.774c-.738 0-2.108.007-3.32.008-.5 0-.675-.005-1.178-.005-3.227 0-9.578.008-12.441.005-.707-.001-1.381-.009-1.755-.008l-.885.009c-.907-.025-1.211-.004-2.189-.001-.621.001-.911-.006-.995-.006-.553 0-.825.004-1.26.005-.487 0-1.188-.003-1.363-.002-.106 0 .234.01-1.657.01l-5.792-.001c.654.03 1.217.01 2.018.008.214 0 .078.005.265.004.528 0 1.539-.006 1.976-.005.472.002.311.013.909.01.03-.001-.065-.006.076-.007 1.415-.007 1.878 0 3.666 0 1.185 0 8.384-.005 8.631-.003 1.288.015-6.297.017-7.184.016-.309 0 .016-.005-.267-.006-.121 0-1.199.009-2.264.01-1.288.001-3.877-.004-5.105-.004-10.556.004-20.966 0-31.512.002-.225 0-.521.007-1.254.007-13.674.003-27.846 0-41.694.007-3.02.001-6.014.01-9.06.005l-1.136.018c.967-.005 2.738.009 2.9.009.059 0 .425-.007 1.016-.007.832 0 1.197.006 1.265.006.211 0 .073-.007.275-.007l4.053-.002c1.561 0 2.353.01 3.49-.003l.385.015c.85-.022 5.908-.02 7.957-.02.646 0 .533.008.75.008.139 0 .084-.01 1.776-.009.851.001 1.075.009 1.502.008.231 0 .194-.008.527-.008 1.927 0 3.502.002 5.389.003.53 0 .536.006.655.006.437 0 1.198-.011 2.31-.012 1.829 0 5.474-.001 6.97.003.22.001.402.008.564.008.244 0 .34-.008.383-.008.819 0 .327.007.874.005.296 0 .604-.01 1.291-.01.907-.002.729.008 1.108.007.04 0 .052-.007.425-.008L85.52.54c.384 0 .67.005 1.206.004 1.078 0 7.207-.005 7.713-.002.054 0-.491.01.377.01l.758-.012 1.267.018c-.015-.022 2.458-.026 2.443-.004l.815.002c.566-.015.943-.01 2.037-.018l.51.013.129-.01c.584.017 1.541 0 1.658 0 .447 0 .783.004.993.003.783 0 2.478-.007 3.392-.004.043 0 .001.007.261.007.469.002.516-.008 1.142.003l.379-.008.402.004q1.188 0 2.375-.003c-.72.012.109.018.893.008.264-.003.029-.01.118-.01.128-.002 3.674 0 3.909.004l.504-.005.256.012.278-.005c.925.007 3.323-.01 3.759-.01.232.001.024.02 1.137.017l.117-.014.765-.003c.479 0 1.176.009 1.199.014l.448-.01c.401.01 2.544.006 3.406-.001l.756.01q.507-.008 1.016-.013c.784-.002-.044.005.123.005.353.001 2.152-.01 2.038.004h.737l.379-.012c.422.013 1.153.008 2.65.012l.377-.008 1.389.011.285-.014.605-.002c.409.01 1.143-.002 1.517.003.546.006.124.014-.889.016.041.004.717.001 1.497.001-.533-.019 1.366-.015 2.243-.017.081 0 .541-.008 1.434-.007.346 0 1.696.01 1.954.01 2.081.005.552-.01 2.587.003-.423-.01.747-.003 1.964-.005l2.084-.01c.74 0-.065.008 1.005.006l.387-.007.748-.001c1.512.02 1.864.005 2.402.003.217-.001-.062.004.501.003.212 0 .448-.005 1.019-.005 1.786-.002 2.392.016 4.034-.003l.756.008.51-.01c1.301.009.832-.001 1.301-.001 1.24 0 3.777.002 4.002.009 1.071-.017 2.352 0 2.775 0l.752-.006.885.006c-.143-.016 1.383-.001 1.531-.001.169 0 2.518-.006 3.393-.006.873 0 2.395.004 2.529.004.156 0 1.642-.005 2.803-.005 1.017 0 7.042.003 6.662-.003l-1.44-.004C189.96.511 181.122.51 178.863.51h-13.804c-.268 0-.309-.005-.538-.005-.349 0-1.234.005-1.578.005h-3.532c-1.535 0-2.589-.003-3.751-.004-.364 0-2.203.007-3.464.004l-.685-.004L154.654.5c1.177 0 1.791.003 2.226.002.364 0 2.222-.004 3.069-.004.263 0 .317.004.542.004 1.22 0 2.827 0 3.886-.004-.431.001 2.261.004 2.407.003.243 0 .506-.004 1.001-.004.952 0 .832.009 2.022 0l.883.007c.019-.011 3.741.004 4.799-.01-.001-.002-4.808-.006-5.208-.006-2.395-.002-5.939.002-8.263 0-.7 0-2.9-.01-3.066-.009-.267 0-.026.005-.141.005-2.366.003-1.187-.005-1.5-.008-.213-.002-1.053.003-1.141.003m-27.891.086 1.895.003.629-.009c-.93 0-1.968-.003-2.524.006M34.357.54c-.694 0-7.108.001-6.562.017.275.008 2.47 0 3.116 0 .872 0 3.227.016 3.446-.017M22.997.539c-.105.016 3.898.018 4.29.015-.083-.002-.211-.007-.322-.009C26.425.54 23.86.543 22.997.54m120.086.014h1.855l-.137-.005zm124.56-.021h.254a898 898 0 0 0-3.539.008c-.861.001-.481-.002-.758-.002l-2.133.002h-.642l-.124.004q-.447 0-.893-.003l9.345-.013h.005c.05.001-.951.003-1.515.004M243.664.54a90 90 0 0 0-1.647-.001l.131.002c.473-.003 1.063.002 2.52 0V.536q-.502 0-1.004.004m4.794-.014-.256.004 1.266-.001-.253-.004zm7.701 0h-1.138l1.514-.003zM261.33.52l-3.529.004 1.655-.004-.289-.003 1.155-.002c.271 0-.608.005 1.008.005m3.787-.006-1.511.001.506.002-1.768.002.756-.002h-1.515c-.632-.002 2.7-.005 3.013-.005zM97.985.493c.06.002.493.008-.505.018a45 45 0 0 0 1.515-.014l.759.01 1.258-.008c-.046.01-.012.009.632.002l.881.007.373-.011.763.016c.991-.006.389-.016.63-.025-1.443.012-5.133-.01-6.306.005M109.342.49c-.235-.002-6.924.005-3.884.022l2.37-.002c-.654-.029 1.499-.003 1.676-.003.846.003 1.925-.004 2.539-.004.528 0 .842.005 1.213.005 1.265 0 3.263 0 3.538-.012h-3.005c-1.081 0-2.032-.011-4.063.004-.502-.001-.324-.01-.384-.01M35.873.5c-.063.002.025.006 0 .008 1.84-.013 4.454.002 6.2.003.486 0 .341-.006.368-.007h.004c.277 0 1.523.016 1.889-.003a1766 1766 0 0 0-8.461 0m115.378.008-16.15.002 1.42-.008c4.638 0 9.585.002 14.065-.003zm54.554.002h1.243c-.028-.001-.497 0-.671-.002h.002c-.194 0-.111-.003-.465-.004q-.054.004-.109.006m72.694 0h-.753l.129-.003c.787 0 .657.002.624.002m-95.9-.012.969.01-.255-.013zm80.662.004c.215 0 4.456-.003 4.129 0-1.643.002-2.257 0-2.651.004l-.24-.003c-1.579 0-2.029.003-2.916.005q.006 0 .011-.003l-1.778.001.251.002h-.629c-.51-.002-1.156-.002-.374-.005.968.001 2.154 0 3.725-.002h.002c.078 0 .217.002.47.001m-5.21.005h-2.522c1.142 0 1.782-.002 2.77 0zm22.984-.002h-.386c-.172 0-1.866.004-1.494.001L283.8.5h.002c-.246.002-1.956.004-2.767.005M68.955.495c.26.008.802 0 1.002.002.047 0-.323.006.126.007l.382-.011q-.756 0-1.51.003M95.46.5l1.006.005.255-.011h-.002q-.63.002-1.259.006m159.56.003c-1.357-.001-3.235.002-3.9.002-.252 0-.3-.002-.502-.002-1.162 0-2.292.005-2.411 0 1.099 0 2.09-.004 2.27-.003.14 0 1.079.005 2.146 0zm19.188.002h1.472c.106 0 .292.001 1.305-.002h.502c-.393.002-3.741.005-3.279.002M86.279.493c-.144 0-1.74-.008-2.43-.007l.245.009h2.531L86.37.5c1.274.005 1.803-.005 2.482-.003.073 0 .161.005.433.005.624 0 2.412.003 2.628-.003.456-.013-3.14-.007-3.811-.007-.303 0-.669-.006-.853-.006-.202 0-.477.007-.97.007m186.156.006h-1.508l.497.001-.742.002L269.413.5l3.279-.002zM258.048.5l-2.016.001.546-.002.912-.001zm26.514.001h-.499l1.1-.002h.367zM261.583.5h-2.157l.156-.002h.988l.76-.001zM276.73.497h-2.014l2.742-.001zM265.37.496h-1.218c-.143 0-.174-.001-.798 0 .513.002 1.536.004 2.016 0m24.746 0c1.071 0 2.736-.003 2.904-.003l.762-.001L295.25.49h.46c-2.575.003-7.135.007-5.594.007M218.164.495l1.258-.007h-1.514zM248.96.49c-1.379 0-2.532.002-4.032 0 1.43-.003 2.138 0 3.527-.003h.003zm48.348-.002-1.377.002.042-.001c.96-.001 1.112 0 1.961-.002zm-76.623 0c.04.005 2.503.003 2.519 0h-.948c-.048 0 .201-.003-.189-.003zM303.344.48h-.605l-1.512.002L304 .48zm-36.205 0c-.041.002-1.815 0-.884.002L262.328.48l-.246-.001zm6.181 0h-2.132l2.516-.001zm-11.238 0c-1.552 0-2.789-.002-2.519 0 .223.001 2.065-.001 2.273-.001zm38.636-.003.697.001h-.002l-1.58-.001-1.884-.002zM101.265.44c-.432.015 1.115.009 1.633.015.837.01-.393.017 1.649.011l-.251.01c1.195.001.804-.02 1.018-.023h.948c1.682-.017-2.135-.008-2.314-.008-.189 0-2.546-.01-2.683-.005m196.424.035L292.145.47h.803zM251.737.47h-1.008l2.524.003-4.027-.002.75-.005zM119.193.464c.15.017 6.899 0 6.306-.005-2.289.003-4.171-.005-6.306.005m168.538.002h-.141.899l-.141.001-3.402-.001h-.384c1.438.001.994-.003 2.245 0zm-46.464 0c1.096-.004 3.312-.004 2.524.002-1.185-.003-1.949 0-3.667-.003q.377 0 .753-.004h.004zm-135.707 0 3.28-.002h-.004c-.576-.02-.705 0-2.772-.007zM280.274.46l1.001.001.259.002h-1.91c-.715-.001-2.339-.002-1.603-.004h.986c.106 0 .164-.003 1.267.001M17.949.421C26.855.47 37.13.454 46.61.455c1.034 0 1.133.008 1.507.007.245 0 .202-.007.528-.007C60.41.455 71.678.447 82.949.453c.711 0 4.164.014 4.902-.006.558-.016-1.924-.004-2.337-.004-.31 0-.325-.008-.532-.008-.219 0-.038.005-.293.005L81.45.438c-9.588.002-18.916 0-28.454-.003-1.154 0-.918-.007-.976-.007h-.001c-6.19-.002-13.26.013-19.817.006L18.351.416zm258.533.035c.156 0-.347.001-.229.002.106 0 1.659.002 1.238.003h-.766l-.26-.003-.742.001c-.417-.001-1.304-.003-.25-.003l-1.162-.001-.603.002.315-.003q1.23 0 2.459.002m-14.141.003L260.58.46l-.226-.002h1.353zm-4.602-.002h.004c.095 0-.105.002.052.002l-1.254-.002-1.145.001h-.376.501c-4.109-.005 1.133-.006 2.218-.001M88.134.44c-.382.015 2.644.008 3.357.01.357 0 2.264.016 3.714.007l-.02-.002c-.349-.03-4.97-.01-7.051-.015m148.964.016-.005.001h-4.035l.149-.002zm23.866-.03c1.162 0 2.696.003 3.527.004 1.999.003 8.12.008 8.836.012.148 0-.194.003-.134.003.178 0 1.201 0 1.013.002l-3.015-.004.741-.002c-2.503-.003-1.675-.002-2.395 0l-1.271-.004-2.767-.001.627-.001c-1.389-.003-1.003-.002-1.764-.001l-.004-.002c-1.341 0-1.603-.002-1.896-.003-.601 0-1.368.009-3.661-.004-.484.002-.72 0-.906-.002h2.672c.041 0 .075.002.397.002m3.651.014h-1.132l.063-.002h.559zm-21.541 0h-.158zm17.248-.003-2.018-.002c2.566.001.46-.001 2.018-.001zm-2.394-.01-.133.002-1.005-.002q.127 0 .253-.002zm-4.417.001.248-.002 2.018.002-1.276-.009h-.74zM125.246.423l-1.76.005-.003-.006zm126.534 0c.075 0 1.025-.001.467.002.927.001.71-.003.481-.004-.405-.001-1.36-.002-.948.001m.379-.005c.991-.003-2.923-.009-1.628 0l.579.002 1.052-.002zM94.961.406c.798-.001 1.416 0 1.252.01l-1.27-.001zM222.196.404c-1.761 0 .552.005-.249.008h1.01zM40.418.408h3.661c.114 0 .647-.006.25-.008zM219.04.393c-.286.004-.984.008-.298.013h.003c.128 0 .645.001.804.003 1.133-.005.698-.01-.509-.016m3.668.01c1.013-.005 2.019.006 2.52.005.107 0-.112-.004-.319-.005-.132 0-2.277-.006-2.456-.005zM27.795.395c-.186.009.998.01 1.392.01 1.708.004 3.9 0 5.675.002l-.401-.009zm205.974.004c-1.097-.002-1.51.004-.108.006.591 0 1.256-.004.108-.006m-5.511-.005c.452.009 1.225.001 2.073.009h.942l.026-.005zm-15.401.005c.735.003 1.445-.001 1.009-.004-.838-.005-1.139.003-1.009.004m9.594-.007 1.514.005c-.104-.001.009-.005-.079-.006a78 78 0 0 0-1.435.001M19.465.361l2.774.009V.357h-.003zM149.493.309l2.045.008-.034.013-1.095-.005-.384.006 1.359.016 1.637-.004-.751-.008c1.333 0 1.043.01 2.147.015l1.134-.01 1.642.012c.92-.001 1-.004.381-.009.457-.004.958.004 1.509.002.045 0-.04-.005 0-.005 2.848 0 2.697.012 3.151.013.322 0 1.602-.006 1.622-.009.025-.003-2.639-.022 1.534-.017-2.158-.013-4.611-.005-3.025.012-.682-.002-3.69-.002-3.886-.003-.279 0-.182-.006-.532-.006-.207 0-.756.012-2.396-.001l-.628.005-.59-.005 1.213-.019c-1.602.006-2.93-.01-3.905.001-.844-.002-1.253-.005-.891-.01h-.76zm27.517.037 1.02.001.238-.008zM141.028.313c-1.913.006-.64.01-.621.012.037.004-.46.009.234.014l1.269-.003.629.008c.84-.004-.259-.007-.384-.014.039-.003.684-.006-.248-.016-.328-.001-.269.002-.251.003-.269 0-.524-.004-.628-.004m5.175.025V.324h-2.774zm9.596-.023.629.007 1.119-.006-.606-.006zM139.644.289c.894.024 6.67.007 8.707.028l.634-.01c-1.108.001-1.877-.007-2.418-.009-.429-.001-.385.003-.418.003h-.004c-1.006-.002-1.317-.007-2.077-.009-1.927-.003-3.03.01-4.424-.003M121.967.284l1.763.013.009-.016.249.008 1.003-.005.506.015.508-.016C124.391.27 124.446.28 124.11.28c-.17 0-.278-.004-.339-.006l-.042-.001c-.407 0-1.821.006-1.762.01m27.765-.002 1.388.011.646-.005c-.301-.001-.764-.007-.834-.007a73 73 0 0 0-1.2 0m-8.577 0c1.216 0 3.567.01 3.534-.002l-3.376-.003zM105.309.26l.9.003.605-.005-.842-.006zM102.78.257l1.127.006.384-.01z"/></svg>