<svg width="25" height="31" viewBox="0 0 25 31" fill="none" xmlns="http://www.w3.org/2000/svg">
<path d="M23.7744 0.0224267C23.8042 -0.161294 23.8457 0.842569 23.8809 0.895474C24.0281 1.12803 24.0826 1.82455 24.2158 2.21969C24.4134 2.8067 25 1.48546 25 8.46872C25 8.53719 25.0001 8.60762 25 8.6777C24.9979 10.008 24.9478 11.4603 24.9404 12.9648C24.933 14.4698 24.939 24.1839 24.8682 24.7334C24.7655 25.4532 24.5187 22.9623 24.4639 23.0722C24.4265 23.1483 24.3809 24.0307 24.333 24.1884C24.1786 24.694 24.0971 24.0486 23.958 26.4482C23.9024 25.1837 23.8476 23.9188 23.792 22.6543C23.7194 23.2406 23.6086 21.5732 23.5645 21.665C23.5284 21.7439 23.5074 22.7407 23.4697 22.7871C23.4274 22.841 23.362 21.7654 23.2852 21.9277C23.1592 22.1904 23.1371 24.7968 23.0615 25.1289C22.9831 25.4716 22.8609 24.0544 22.7607 24.9716C22.7482 25.2586 22.7352 25.546 22.7227 25.833C22.7317 26.4819 22.741 27.1313 22.75 27.7802C22.6996 28.081 22.6782 26.7516 22.6318 26.7275C22.5774 26.6988 22.5494 27.9584 22.5127 27.9541C22.4827 27.9482 22.4422 26.9424 22.4033 27C22.3465 27.0871 22.3587 28.5464 22.3281 28.8203C22.3159 28.9264 22.0899 29.7325 22.0772 29.7441C21.9808 29.7967 21.9724 27.8062 21.8955 27.6289C21.6815 27.1523 21.4616 28.7667 21.2637 29.3769C21.1753 29.6499 21.0833 29.5334 20.9951 29.2138C21.1339 24.1 20.8265 20.1203 20.9414 28.122C20.8434 26.9846 20.7736 29.143 20.6807 28.7793C20.6206 28.5411 20.579 27.4316 20.4932 27.4599C20.3408 27.5186 20.1737 30.6724 20.1299 24.9716C19.9511 25.9766 19.7969 23.9092 19.7324 28.9414C19.6863 29.2487 19.5684 26.2537 19.5166 25.8447C19.4677 25.4611 19.0917 24.1068 19.0303 24.0312C18.9688 23.9558 18.8612 23.8747 18.8096 24.3154C18.7446 24.8617 18.6997 30.0807 18.584 23.9785C18.4495 24.4723 18.4014 24.2978 18.2764 23.5888C18.2538 23.4606 18.2514 22.5589 18.2383 22.5537C18.2111 22.5537 18.1648 23.2208 18.1162 23.3047C18.0362 23.4383 17.9901 21.5327 17.999 24.4443C17.9463 24.9323 17.8935 25.4202 17.8408 25.9082C17.8223 25.3464 17.8037 24.7844 17.7852 24.2226C17.757 24.8349 17.7294 25.4473 17.7012 26.0595C17.7343 21.8469 17.5352 24.3335 17.5996 26.7509C17.4974 25.8793 17.3952 25.0073 17.293 24.1357C17.3072 19.3473 17.0688 23.5828 17.0889 26.1865C17.0772 26.1827 17.0654 26.1795 17.0537 26.1757C16.9513 24.9032 16.8572 25.9433 16.7324 25.0898C16.6076 24.2356 16.619 23.7688 16.5811 21.5664C16.5517 21.6923 16.5225 21.8183 16.4932 21.9443C16.339 27.9824 16.3665 17.5289 16.1025 22.1601C16.0182 18.3655 15.8107 20.3591 15.6729 21.5097C15.6568 21.6439 15.6561 22.3804 15.6348 22.6074C15.5825 23.1526 15.4496 22.207 15.4541 24.582C15.408 23.8946 15.3616 23.2069 15.3154 22.5195C15.2777 22.9515 15.2399 23.3843 15.2022 23.8164C15.2023 24.5579 15.2029 25.2994 15.2031 26.041C15.1272 23.5132 15.0081 24.4842 14.9492 23.8798C14.9376 23.7556 14.9347 22.7355 14.8984 22.456C14.8559 22.1248 14.7763 22.427 14.7256 22.1074C14.7059 23.2408 14.6867 24.3744 14.667 25.5078C14.5764 26.1214 14.5444 23.1323 14.4912 22.8984C14.4816 22.858 14.3063 23.0728 14.2969 23.1367C14.2197 23.6429 14.2417 26.1913 14.0186 25.6455C13.979 25.5464 13.9469 24.6701 13.9111 24.6298C13.8477 24.5659 13.6566 26.5659 13.6416 28.414C13.5647 26.1011 13.3585 27.0461 13.2979 26.3779C13.2796 26.1725 13.275 24.6997 13.2188 24.3857C13.1732 24.1301 13.0559 25.3088 12.9981 25.1123C12.9368 24.8976 12.9152 23.6631 12.8877 23.5722C12.8617 23.4909 12.8372 24.4901 12.8018 24.4843C12.6913 24.4485 12.5913 22.8411 12.5039 22.8115C12.3776 22.7651 12.2659 25.7226 12.1602 27.0361C12.134 26.8449 12.1084 26.2154 12.0811 26.2041C11.7407 26.111 11.356 25.566 11.0147 24.9326C10.8562 24.6416 10.4622 20.6264 10.5674 27.3261C10.5123 28.4985 10.1123 25.7975 10.0361 25.7568C9.96006 25.718 9.89967 26.9188 9.83985 26.9365C9.65923 26.9888 9.53236 26.1228 9.31251 27.1689C9.25584 27.442 9.19481 28.8593 9.16114 28.8486C9.12064 28.8254 9.07689 27.4487 9.02442 27.3613C8.89931 27.1643 8.66586 27.6169 8.54591 27.3789C8.524 27.3324 8.51668 26.124 8.48536 25.7461C8.36333 24.27 8.22678 24.398 8.25098 28.2568C8.09466 26.0672 7.94956 28.0622 7.80469 28.1865C7.49823 28.4364 6.93985 27.536 6.67286 29.1572C6.50453 30.18 6.50853 31.9106 6.26075 30.4179C6.20573 30.0867 6.15072 29.6392 6.08399 29.2441C5.9276 28.3139 5.78426 25.1179 5.66505 28.9697C5.49135 27.971 5.3535 28.679 5.22462 25.3847C5.20943 26.1748 5.19391 26.9648 5.17872 27.7548C5.15742 27.7744 5.13556 27.7949 5.11426 27.8144C5.10762 27.0607 5.10138 26.3064 5.09473 25.5527C4.94217 25.3515 4.74827 28.4474 4.61915 28.4248C4.40233 28.3885 3.84489 27.1863 3.63966 26.1699C3.53065 25.6298 3.52531 27.2438 3.4629 23.9257C3.43852 24.1565 3.41403 24.3873 3.38966 24.6181C3.3744 25.3447 3.35902 26.0713 3.34376 26.7978C3.2039 26.8269 3.03754 25.6984 2.9043 25.7099C2.66155 25.7352 2.29739 27.7317 2.05372 26.4199C1.99272 26.0894 1.91626 24.5961 1.85645 24.6064C1.76943 24.6296 1.74794 27.111 1.6377 27.1631C1.44714 27.2386 1.09223 24.3504 0.912117 24.5713C0.858621 24.6352 0.832845 25.5603 0.795906 25.6591C0.641076 26.083 0.513721 26.0082 0.365242 27.4375C0.20577 25.0548 0.220324 21.9792 0.170906 18.8759C0.13345 16.5337 0.0182641 11.1051 0.00196043 9.05368C-0.00948748 7.61248 0.033633 5.7582 0.0175854 4.17184C0.208591 2.90579 0.288259 4.3001 0.443367 6.53122C0.729883 6.44229 1.0172 6.35354 1.30372 6.26461C1.32978 7.13041 1.35578 7.99647 1.38184 8.86227V8.86813C1.49185 9.86729 1.53834 7.63861 1.59766 7.1318C2.16571 2.28543 3.28372 6.07706 3.90919 6.62399C4.04396 6.74018 4.48273 5.57404 4.5752 6.98043C4.59913 7.34721 4.6054 8.68211 4.63087 8.7402C4.85845 7.94615 5.0859 7.15144 5.31348 6.35739C5.78147 8.43212 6.26576 6.71902 6.73731 6.39938C8.01309 5.53347 9.27637 4.48113 10.5313 4.80075C10.7737 4.86328 11.0811 3.86471 11.3184 4.50875C11.4175 4.77622 11.4587 6.92037 11.5889 5.32223C11.5902 5.8999 11.5914 6.47796 11.5928 7.05563C11.7064 6.35816 11.7799 5.04377 11.9072 4.91012C12.0146 4.79985 12.2978 4.71412 12.3926 4.93454C12.4417 5.04494 12.4239 6.12458 12.4697 6.11911C12.5483 6.09634 12.7152 4.61334 12.8232 4.60934C12.9213 4.60934 13.0867 5.85143 13.1621 5.67282C13.4337 5.03353 13.7301 3.19055 14.0195 3.68454C14.0994 3.82682 14.2025 5.22355 14.2275 5.18454C14.2764 5.10152 14.2904 3.74302 14.3232 3.56833C14.4901 2.68564 14.7505 4.3011 14.9141 4.3652C15.4469 4.57427 16.0115 3.98092 16.542 4.23043C16.8772 4.38731 17.4346 4.1485 17.7441 5.17086C17.8107 5.39115 17.7931 6.87432 17.8486 6.8818C17.9107 6.88148 17.9446 5.87685 17.9736 5.79391C18.1746 5.2244 18.6188 4.20712 18.8086 5.23532C18.8447 5.43281 18.8709 6.59991 18.8926 6.59567C18.9037 6.58219 18.9288 5.79846 18.9629 5.71774C19.2665 4.99766 19.4877 5.46222 19.7852 5.73532C20.355 6.25231 21.0156 4.77038 21.6143 5.57223C21.7447 5.74658 21.8342 8.05544 21.8525 8.03219C21.8928 7.9844 21.9185 6.43219 22 6.04879C22.271 4.78885 22.6358 6.44525 22.8936 5.66696C23.0209 5.28343 23.196 3.31211 23.3213 2.87594C23.4214 2.52769 23.6578 3.30044 23.7022 2.43551C23.7292 1.91266 23.7421 0.23266 23.7744 0.0224267ZM20.4014 26.164C20.4192 23.4793 20.2325 25.71 20.3027 27.1513C20.3186 27.4759 20.3968 26.861 20.4014 26.164ZM11.625 21.5019C11.6267 22.2688 11.6292 23.0358 11.6309 23.8027C11.6555 23.4837 11.6795 23.1647 11.7041 22.8457C11.6903 22.3846 11.6769 21.9229 11.6631 21.4619C11.6506 21.4751 11.6375 21.4887 11.625 21.5019Z" fill="#F3DFCC"/>
</svg>
