<svg width="14" height="12" viewBox="0 0 14 12" fill="none" xmlns="http://www.w3.org/2000/svg">
<g filter="url(#filter0_ii_500_34069)">
<path d="M5.9337 0.00479945C6.05676 -0.0478327 6.22366 0.348091 6.33126 0.426373C6.19455 1.41083 6.31061 1.1972 6.47534 0.530432C6.54669 0.570944 6.63618 0.551188 6.68879 0.658505C6.70662 0.695622 6.62842 0.97432 6.62476 1.00537C6.55859 1.48991 6.73947 0.847595 6.7635 0.8266C7.00418 0.627104 6.98683 1.14746 7.30781 0.73855C7.32417 0.708606 7.56575 0.0864185 7.43855 0.570455C7.42719 0.605365 7.26612 0.877317 7.33183 0.927991C7.402 0.981158 7.38319 1.37361 7.61199 1.12811C7.66557 1.0676 7.97754 0.596847 7.83345 1.01337C7.81315 1.06975 7.71695 1.24409 7.67602 1.3469C7.54361 1.67215 7.88184 1.06351 7.63867 1.60304C7.39515 2.14473 7.21954 2.55508 7.49725 2.24607C7.50507 2.2369 7.81051 1.77346 7.83345 1.79782C7.86775 1.83713 7.86294 1.97087 7.90549 1.99527C7.92802 2.00349 8.10664 1.71261 8.11361 1.70977C8.36834 1.65198 8.2945 1.98025 8.3404 2.19271C8.35452 2.22235 8.72911 1.94881 8.52984 2.26208C8.30185 2.60381 7.10457 3.7891 7.44923 3.56949C7.57753 3.47017 9.19581 2.06591 8.45246 2.89444C8.79982 2.87668 8.45686 3.36081 8.88738 3.30801C8.90602 3.30542 9.40986 3.02286 9.43436 3.03853C9.44306 3.07778 9.21629 3.24038 9.2129 3.27066C9.19283 3.39963 9.44527 3.36923 9.46104 3.47878C9.46636 3.51971 9.20354 3.63537 9.20489 3.68156C9.20838 3.72573 9.56591 3.59528 9.42368 3.72692C9.3152 3.82795 8.6142 4.1658 8.54585 4.23921C9.25839 3.95909 9.25973 3.9995 9.47438 3.99907C9.51611 3.9992 9.76146 3.89418 9.79456 3.88968C9.93408 3.87175 9.73521 3.97267 9.88528 3.95104C9.92152 3.94607 10.1697 3.86054 10.2135 3.85232C10.5952 3.78292 10.0656 4.04693 9.96799 4.08712C9.61045 4.24674 9.93996 4.17395 9.80523 4.25255C9.66723 4.32873 9.46824 4.32745 9.389 4.39129C9.22472 4.52041 9.28665 4.60677 9.29027 4.69013C9.29311 4.7221 9.6204 4.63936 9.63981 4.63944C9.74114 4.69989 9.38527 4.82377 10.0801 4.77018C8.30411 5.06073 10.2594 4.79333 9.91463 4.95428C9.88193 4.96737 9.04079 5.0575 8.91406 5.045C8.78771 5.03366 9.04595 4.96229 8.85002 4.95161C8.80329 4.94639 8.00692 5.02067 7.95885 5.02632C7.58472 5.05282 8.82567 4.83287 8.90072 4.81554C9.63682 4.65022 8.77945 4.74314 8.71928 4.74616C8.4419 4.73732 8.6014 4.64504 8.40177 4.6421C8.27143 4.64083 7.46947 4.8655 7.48925 4.84222C7.5631 4.77145 8.63566 4.35416 7.66802 4.63143C7.45922 4.69389 6.61964 5.02843 7.27046 4.73549C7.31278 4.71972 7.90397 4.43621 7.51593 4.57807C7.46702 4.59648 7.22258 4.70237 7.20109 4.70881C7.06314 4.75043 7.24959 4.65282 7.15039 4.67679C7.05064 4.70159 6.90786 4.75293 6.97696 4.69547C7.0199 4.66142 7.44629 4.41002 7.54795 4.34327C7.84051 4.15198 7.33189 4.41303 7.68936 4.18851C8.04501 3.9567 8.62339 3.66879 8.82601 3.47344C8.23411 3.82616 7.62655 4.1885 7.03299 4.54605C7.02262 4.48202 7.16587 4.29731 7.09703 4.25522C7.08828 4.2511 6.8115 4.47544 6.78485 4.48735C6.72039 4.50036 6.90133 4.30813 6.79819 4.3486C6.71659 4.38145 6.41315 4.6318 6.33126 4.69013C6.87767 4.12814 6.65868 4.27848 6.68346 4.20986C6.69187 4.18399 6.83198 4.02489 6.87023 3.96705C7.00855 3.7516 6.56807 4.29136 6.49135 4.36995C6.17303 4.71284 7.17113 3.49129 7.09169 3.47878C7.08077 3.48188 6.56036 4.12024 6.52337 4.16984C6.30459 4.43274 6.69255 3.93107 6.71548 3.871C6.7577 3.76135 6.84497 3.58018 6.67812 3.76427C6.62671 3.81781 6.33301 4.2514 6.5287 3.89768C6.55363 3.85173 6.69422 3.6207 6.7048 3.59884C6.80331 3.34169 6.36161 4.09435 6.20585 4.34594C6.05331 4.5975 6.31892 4.06094 6.38996 3.90035C6.57732 3.4949 6.49332 3.7322 6.51269 3.69757C6.76906 3.23949 6.69912 3.30271 6.6968 3.25198C7.07807 2.4864 7.01076 2.51196 6.69146 3.20395C6.65729 3.27734 6.70854 3.21672 6.6968 3.25198C6.298 3.99145 6.25187 4.0893 6.53938 3.35871C6.67196 3.01563 6.8622 2.63055 6.73415 2.74503C6.67689 2.79794 6.46368 3.34804 6.38462 3.48945C6.21229 3.81474 6.34601 3.28012 6.26455 3.34537C6.23731 3.37638 6.16178 3.68091 6.14182 3.71091C6.09226 3.78733 6.13206 3.54749 6.07244 3.66021C6.06639 3.67538 5.9908 3.99259 5.98173 4.00174C5.92441 4.02775 5.92012 3.80647 5.85632 3.79095C5.82487 3.78362 5.75522 3.96333 5.73092 3.92436C5.70264 3.88142 5.67101 3.66385 5.62686 3.54548C5.6033 3.48046 5.57844 3.44488 5.56015 3.48678C5.5269 3.56443 5.55062 3.90212 5.55215 4.13248C5.56448 4.57846 5.47152 3.78459 5.44542 3.66288C5.4453 3.65553 5.46354 3.5737 5.43208 3.40673C5.3871 3.0522 5.44375 3.64774 5.44542 3.66288C5.43393 3.58384 5.36303 3.51554 5.36004 3.58017C5.35886 3.616 5.40897 3.93309 5.40807 3.94571C5.38765 4.23847 5.37724 4.32365 5.28533 4.19385C5.27976 4.17757 5.18699 3.84341 5.18127 3.83364C5.09572 3.6926 5.19811 4.121 5.26665 4.37262C5.33309 4.62428 5.29933 4.54372 5.04786 3.98306C5.05679 4.06197 4.91782 3.82718 4.82373 3.68956C4.72918 3.5521 5.03422 4.17771 5.03986 4.19118C5.1995 4.60441 5.00042 4.25787 4.91979 4.23387C4.88311 4.2212 4.89853 4.33259 4.92512 4.4073C4.94669 4.46662 4.84073 4.34326 4.89044 4.43665C4.90081 4.45345 5.08913 4.69375 5.09589 4.70347C5.31304 5.00016 4.85143 4.40645 4.76237 4.30058C4.44329 3.92491 4.25726 3.73614 4.37815 3.9377C4.4034 3.98644 5.1033 4.80994 5.15192 4.86623C5.20107 4.9311 4.93798 4.64251 4.9945 4.71948C4.99947 4.72602 5.14637 4.88111 5.15459 4.89558C5.10681 4.8762 4.98552 4.80333 4.98382 4.84222C4.9965 4.85722 5.26541 5.08474 5.27999 5.10103C5.30474 5.14203 5.28969 5.14005 5.13324 5.053C5.0935 5.03104 4.87485 4.8764 4.80772 4.83155C4.40633 4.57173 4.96543 4.96597 4.98649 4.9783C5.255 5.18171 4.68628 4.90389 4.9358 5.08235C4.94861 5.09718 5.63681 5.39474 5.03986 5.1544C5.00092 5.13645 4.38396 4.90661 4.79972 5.07702C4.82607 5.08699 5.1436 5.20655 5.10923 5.19975C5.07696 5.19657 5.28554 5.27091 4.93046 5.16507C4.81883 5.12885 4.18572 4.95388 4.68232 5.11704C4.71499 5.13584 5.85651 5.45116 5.06654 5.24778C4.93632 5.21462 4.0984 5.00266 4.52223 5.12771C4.60516 5.15049 4.79593 5.19023 4.91178 5.22377C5.08912 5.27125 4.861 5.24052 5.2373 5.31715C5.30377 5.33299 5.8829 5.42817 5.44275 5.35985C5.3732 5.34983 5.08821 5.30295 5.05587 5.30115C4.9014 5.2962 5.0904 5.334 4.89044 5.33583C4.81965 5.33813 4.35429 5.30331 4.22873 5.30915C4.10342 5.31447 3.98252 5.34332 4.19404 5.36251C4.40643 5.37899 5.1469 5.38082 5.21062 5.3892C5.2181 5.39015 5.22562 5.39098 5.23197 5.39186C5.44384 5.41013 5.03378 5.45557 4.98116 5.51727C4.97289 5.52485 5.23401 5.47048 5.23997 5.47458C5.26798 5.5007 5.49751 5.41707 4.98382 5.65068C4.57907 5.85363 4.24262 5.94143 4.08731 6.04824C4.01709 6.10753 4.81265 5.76948 4.83707 5.75741C5.09483 5.65978 4.76206 5.84483 4.8771 5.81344C4.90042 5.80553 5.19795 5.63038 5.21862 5.62133C5.27454 5.59668 5.14652 5.6845 5.17593 5.67736C5.1954 5.66913 5.39586 5.53782 5.39739 5.53861C5.36135 5.56808 5.26847 5.63587 5.07187 5.79209C5.05058 5.80952 4.79168 5.98748 4.77837 6.01088C4.77304 6.03608 4.59783 6.21572 4.81039 6.07225C4.87467 6.02922 5.33907 5.63101 5.02652 5.91483C4.96098 5.9739 4.40993 6.45976 4.89577 6.05091C4.98199 5.98699 5.60862 5.40793 5.21596 5.79476C5.11174 5.89785 4.69611 6.32898 4.77037 6.2697C4.78292 6.25816 5.00777 6.02229 5.03452 6.00288C5.12249 5.93901 5.11252 5.97657 5.19194 5.90949C5.2129 5.89043 5.42776 5.62795 5.45076 5.60532C5.51104 5.54365 5.4604 5.61601 5.40807 5.70938C5.38498 5.74856 5.2253 5.97274 5.20795 5.99754C4.93259 6.41271 5.31987 5.86228 5.34136 5.82945C5.47816 5.63873 5.31377 5.90783 5.36804 5.84279C5.38318 5.82232 5.53831 5.55015 5.55482 5.52261C5.69535 5.28095 5.4071 5.78052 5.37872 5.83745C5.30042 5.99844 5.33145 5.98389 5.36004 5.95218C5.3765 5.92663 5.52396 5.61335 5.53347 5.59731C5.56919 5.54308 5.54959 5.574 5.49878 5.77341C5.48844 5.81371 5.40169 6.07966 5.38138 6.14429C5.25157 6.58186 5.45048 5.99721 5.46677 5.93617C5.54902 5.67803 5.48191 5.91939 5.50145 5.87747C5.58542 5.65577 5.5677 5.82257 5.61352 5.92817L5.72024 6.18431C5.75596 6.24684 5.79402 6.28253 5.82163 6.24301C5.82481 6.23781 5.73953 5.88256 5.73625 5.8588C5.73672 5.76472 5.80817 5.89671 5.79228 5.78409C5.79 5.77486 5.64956 5.44981 5.63753 5.42121C5.64533 5.4374 5.65616 5.46204 5.67222 5.49326C5.69891 5.54369 5.83587 5.81764 5.86166 5.86146C5.92245 5.96103 5.94739 5.97611 5.92836 5.92016C5.91521 5.88999 5.74086 5.59744 5.73092 5.57597C5.73086 5.53175 5.67302 5.49696 6.02442 5.82411C6.04784 5.84713 6.56407 6.38967 6.47801 6.2777C6.33433 6.12671 6.16271 5.95011 6.00841 5.78942C5.96025 5.66965 6.197 5.79332 6.27523 5.73606C6.27717 5.73407 5.92554 5.54987 5.92569 5.54662C5.94061 5.52964 5.83887 5.49224 6.21919 5.59998C6.25658 5.61001 6.9166 5.84096 6.82487 5.78942C6.80774 5.77996 6.72645 5.72531 6.58207 5.67736C6.55976 5.6703 6.24577 5.58014 6.23787 5.5733C6.19765 5.53497 6.27532 5.53471 6.47801 5.53061C6.51473 5.53038 6.85409 5.59082 6.8809 5.58931C7.06976 5.56843 6.81264 5.49735 7.12904 5.46924C7.34307 5.44448 7.9451 5.48172 8.53785 5.46657C8.62072 5.46366 8.63569 5.42386 8.9781 5.42388C9.84402 5.4228 10.7926 5.46419 11.7157 5.46124C11.9148 5.46029 11.7021 5.34429 12.1826 5.41321C12.215 5.41793 12.3728 5.50703 12.5348 5.53328C12.6471 5.55146 12.9996 5.52824 13.1431 5.5653C13.2851 5.60355 12.9922 5.63112 13.1591 5.69337C13.3282 5.75757 13.7273 5.75107 13.7675 5.87747C13.8578 6.17061 13.6996 6.54226 13.4953 6.78999C13.4318 6.86713 13.2265 6.78416 13.1725 6.83268C13.0684 6.92745 13.1495 7.05555 13.0257 7.14219C12.9818 7.16816 12.6667 7.04948 12.6255 7.07549C12.431 7.23362 12.4622 7.43681 12.3293 7.60646C11.6776 8.42385 11.1007 9.13155 10.3762 9.70098C10.1337 9.89209 9.67221 9.90135 9.53308 10.1893C9.51807 10.224 9.71328 10.4366 9.73052 10.4668C9.88273 10.8333 9.53153 10.3348 9.42902 10.312C9.02172 10.2236 8.7849 10.3472 8.6259 10.5735C8.55836 10.6703 8.94826 11.1397 8.6846 10.9017C8.66558 10.8818 8.53419 10.5919 8.49249 10.5761C8.39883 10.5419 8.31725 10.6483 8.26036 10.6482C8.15144 10.6462 8.13899 10.6559 8.0549 10.6909C7.93698 10.7363 7.74272 10.6445 7.64667 10.7576C7.62579 10.783 7.77835 11.0777 7.7534 11.1471C7.7279 11.2165 7.5964 11.2318 7.53194 11.1712C7.46755 11.1108 7.40516 10.8603 7.37985 10.8056C7.17664 10.3494 7.25 11.0369 7.2331 11.0671C6.9836 11.4395 6.60916 11.1127 6.31792 11.1471C6.09231 11.176 5.85131 11.3201 5.62686 11.3046L5.62152 11.3019C5.35228 11.2784 5.14499 11.0866 4.89311 11.0858C4.8662 11.0869 4.84777 11.4729 4.81306 11.4727C4.44309 11.4692 4.0743 11.3414 3.81783 10.9844C3.79274 10.9484 3.93888 10.6392 3.92189 10.5842C3.79965 10.2511 3.84066 9.54306 3.10542 10.8296C2.99493 10.7152 2.85736 10.577 2.89464 10.256C2.92024 10.05 3.17019 9.76772 3.01204 9.8584C2.97483 9.88243 2.83566 10.1711 2.79325 10.1786C2.61113 10.2076 2.53962 10.0372 2.32898 10.0932C2.28518 10.1053 2.12345 10.3464 2.08618 10.384C1.77912 10.6812 2.091 10.0482 2.10752 9.99181C2.1893 9.57626 1.99901 9.60978 1.87539 9.48486C1.84467 9.46121 1.61983 9.77513 1.58189 9.75701C1.38764 9.65349 1.25134 9.46405 1.24837 9.1967C1.25064 9.1362 1.52563 8.95008 1.5392 8.9112C1.59836 8.74775 1.10669 9.13086 1.15231 8.97524C1.16207 8.94301 1.39153 8.77325 1.41379 8.75111C1.76168 8.41314 1.21004 8.79188 1.17366 8.79914C0.897403 8.78167 1.42516 8.27422 1.25904 8.2068C1.23616 8.1994 0.961132 8.42819 0.917511 8.3909C0.631988 8.13014 0.529785 7.70327 0.674707 7.27293C0.696845 7.20625 0.965071 7.14682 0.994889 7.13152C1.45966 6.90522 0.808962 7.10858 0.768093 7.10217C0.541529 7.02689 1.06637 6.7479 0.242461 6.87804C0.33467 6.34691 0.0193197 5.88411 0.293156 5.39186C0.360811 5.27416 0.464842 5.16215 0.618675 5.06101C0.638641 5.05621 0.960213 5.08765 0.984216 5.07702C1.18823 4.93441 0.655526 4.92841 0.0210014 4.73015C-0.137419 4.67568 0.650408 4.68583 0.712061 4.69013C0.924857 4.69363 1.42085 4.79257 1.46983 4.79152C1.79913 4.7782 0.129062 4.52894 0.149074 4.40997C0.166522 4.41053 0.456669 4.47762 0.487934 4.47401C0.587256 4.46348 0.47198 4.41411 0.58132 4.4073C0.837103 4.39095 1.64296 4.54648 1.195 4.36194C1.1347 4.33637 0.197678 4.14046 0.266474 4.04977C0.293781 4.01487 0.327847 3.83649 0.402552 3.80696C0.475875 3.77881 0.749756 3.89561 0.773429 3.90035C1.19968 3.9052 1.34786 4.0031 1.93676 4.14582C2.52048 4.29713 1.16542 3.83986 1.0189 3.7616C0.876681 3.6838 1.22277 3.71529 1.33908 3.74026C1.45495 3.7636 1.62783 3.85659 1.69662 3.86566C2.13898 3.9252 1.05382 3.55395 0.858811 3.42808C0.405642 3.11814 1.41326 3.46394 1.54187 3.44142C1.57716 3.43303 1.35023 3.3451 1.33908 3.31602C1.30146 3.20046 1.61726 3.3093 1.39512 3.08122C1.35728 3.04662 0.842285 2.65632 1.27505 2.84375C1.33714 2.87188 1.55811 3.02263 1.62725 3.02252C1.73056 3.02207 1.82556 2.97577 1.782 2.8811C1.74586 2.80908 1.36124 2.61258 1.50451 2.64097C1.56977 2.65695 1.75639 2.83348 1.85671 2.84908C1.95687 2.86505 2.00987 2.76977 2.02748 2.73168C2.03742 2.69077 1.76319 2.51258 1.74732 2.49688C1.6575 2.4033 1.58692 2.23632 1.59256 2.23007C1.82087 1.87818 2.4601 2.02767 2.61181 1.66708C2.62492 1.6388 2.39982 1.38801 2.39035 1.37091C2.38081 1.19103 2.89807 1.96868 3.13744 2.1767C2.69473 1.62156 2.80169 1.69772 2.80925 1.59504C2.81142 1.54388 2.63681 1.33382 2.62248 1.30954C2.4196 0.942029 2.76644 1.35704 2.83594 1.44295C3.09527 1.75592 2.85097 1.34379 3.02271 1.55501C3.19001 1.76635 3.37713 2.11947 3.42027 2.08598C3.29376 1.86517 2.88577 1.34037 2.86795 1.22149C2.8162 0.763434 3.4184 1.02485 3.56969 1.01871C3.7305 1.00349 3.75812 0.942651 3.87386 0.994696C4.0802 1.09266 3.8494 0.651893 3.87653 0.402359C3.90905 0.153288 4.24662 1.32077 4.34346 1.56302C4.4361 1.80396 4.36364 1.54921 4.42084 1.67775C4.47778 1.80962 4.50625 1.98775 4.55158 2.02995C4.59392 2.07241 4.54265 1.6057 4.48487 1.33889C4.35737 0.775811 4.1453 0.205124 4.31411 0.378345C4.32354 0.388949 4.38662 0.702786 4.41817 0.727877C4.66055 0.917587 4.8465 0.898913 5.04786 1.09075C5.07498 1.11772 5.10178 1.46981 5.11723 1.49098C5.27235 1.70073 5.15362 1.11237 5.1786 0.442382C5.2413 1.32467 5.33116 1.85908 5.41607 1.85919C5.46782 1.85385 5.44 1.47424 5.46943 1.20281C5.47938 1.12029 5.5299 1.38181 5.53347 1.20015C5.54944 0.607577 5.49046 -0.0550995 5.62686 0.204913V0.525095C5.62822 0.544881 5.63157 0.558338 5.63486 0.56245C5.75361 0.692215 5.78013 0.0724282 5.9337 0.00479945ZM8.69794 5.63467C8.71398 5.6344 8.72973 5.60711 8.71395 5.60532C8.32778 5.5652 8.29407 5.61443 8.69794 5.63467ZM9.28227 5.30915C9.34843 5.17713 10.7635 4.94373 10.619 5.17574C10.5915 5.21424 10.1564 5.11653 10.0294 5.1704C9.7987 5.25582 10.6988 5.29391 10.2188 5.3892C10.1306 5.40054 9.2766 5.31314 9.2796 5.30915H9.28227ZM0.946861 5.20242C0.912487 5.20315 0.877154 5.305 0.906839 5.31182C1.54156 5.36962 1.615 5.18876 0.946861 5.20242ZM9.10617 4.32993C9.32444 4.24022 9.04557 4.26354 8.77531 4.37795C8.55883 4.46605 8.8336 4.43726 9.10617 4.32993ZM7.91616 3.75894C8.32571 3.40288 7.66971 3.8511 7.3505 4.12181C7.02641 4.38458 7.78852 3.86369 7.91616 3.75894ZM2.08351 3.69757C2.06672 3.69029 2.04049 3.71024 2.1342 3.7536C2.43466 3.89261 2.36511 3.81997 2.08351 3.69757ZM3.59904 1.82183C3.77432 2.16851 3.85143 2.15986 3.64173 1.81383C3.63258 1.80048 3.59194 1.80747 3.59904 1.82183Z" fill="url(#paint0_linear_500_34069)"/>
</g>
<defs>
<filter id="filter0_ii_500_34069" x="0" y="-1.5" width="13.793" height="15.9727" filterUnits="userSpaceOnUse" color-interpolation-filters="sRGB">
<feFlood flood-opacity="0" result="BackgroundImageFix"/>
<feBlend mode="normal" in="SourceGraphic" in2="BackgroundImageFix" result="shape"/>
<feColorMatrix in="SourceAlpha" type="matrix" values="0 0 0 0 0 0 0 0 0 0 0 0 0 0 0 0 0 0 127 0" result="hardAlpha"/>
<feOffset dy="4"/>
<feGaussianBlur stdDeviation="1.5"/>
<feComposite in2="hardAlpha" operator="arithmetic" k2="-1" k3="1"/>
<feColorMatrix type="matrix" values="0 0 0 0 0.05 0 0 0 0 0.03 0 0 0 0 0.01 0 0 0 0.75 0"/>
<feBlend mode="normal" in2="shape" result="effect1_innerShadow_500_34069"/>
<feColorMatrix in="SourceAlpha" type="matrix" values="0 0 0 0 0 0 0 0 0 0 0 0 0 0 0 0 0 0 127 0" result="hardAlpha"/>
<feOffset dy="-2"/>
<feGaussianBlur stdDeviation="0.75"/>
<feComposite in2="hardAlpha" operator="arithmetic" k2="-1" k3="1"/>
<feColorMatrix type="matrix" values="0 0 0 0 1 0 0 0 0 0.92 0 0 0 0 0.8 0 0 0 0.3 0"/>
<feBlend mode="normal" in2="effect2_innerShadow_500_34069" result="effect2_innerShadow_500_34069"/>
</filter>
<linearGradient id="paint0_linear_500_34069" x1="6.89674" y1="0" x2="6.89674" y2="11.4727" gradientUnits="userSpaceOnUse">
<stop stop-color="#9A6118"/>
<stop offset="1" stop-color="#573003"/>
</linearGradient>
</defs>
</svg>