<svg width="60" height="60" viewBox="0 0 60 60" fill="none" xmlns="http://www.w3.org/2000/svg">
<path d="M58.9325 29.7923L29.6042 59.1469L0.117438 29.6337L29.4721 0.331899L29.6042 0.173368L59.091 29.6602L58.9325 29.7923Z" fill="#D8BC6A"/>
<path d="M59.1309 29.7779L29.8045 59.1309L29.6451 59.2902L29.4857 59.1309L0.159383 29.7779L6.48492e-07 29.6186L0.159383 29.4592L29.5123 0.159383L29.6451 6.47912e-07L29.8045 0.159383L59.1309 29.4857L59.2902 29.6451L59.1309 29.7779ZM29.6451 58.6793L58.7058 29.6451L29.6451 0.584403L0.610966 29.6186L29.6451 58.6793Z" fill="#D8BC6A"/>
<path d="M58.7174 29.6456L56.7824 27.7109L54.8478 29.6459L56.7827 31.5806L58.7174 29.6456Z" fill="#D8BC6A"/>
<path d="M4.44002 29.6534L2.50508 27.7188L0.570411 29.6537L2.50535 31.5884L4.44002 29.6534Z" fill="#D8BC6A"/>
<path d="M31.6002 2.49326L29.6652 0.558595L27.7306 2.49354L29.6655 4.42821L31.6002 2.49326Z" fill="#D8BC6A"/>
<path d="M31.6002 56.9464L29.6652 55.0117L27.7306 56.9467L29.6655 58.8813L31.6002 56.9464Z" fill="#D8BC6A"/>
</svg>
