<svg width="60" height="60" viewBox="0 0 60 60" fill="none" xmlns="http://www.w3.org/2000/svg">
<g opacity="0.3">
<path d="M59.1309 29.7779L29.8045 59.1309L29.6451 59.2902L29.4857 59.1309L0.159383 29.7779L6.48492e-07 29.6186L0.159383 29.4592L29.5123 0.159383L29.6451 6.47912e-07L29.8045 0.159383L59.1309 29.4857L59.2902 29.6451L59.1309 29.7779ZM29.6451 58.6793L58.7058 29.6451L29.6451 0.584403L0.610966 29.6186L29.6451 58.6793Z" fill="#9B8E75"/>
<path d="M58.7174 29.6456L56.7824 27.707L54.8478 29.642L56.7827 31.5766L58.7174 29.6417Z" fill="#9B8E75"/>
<path d="M4.44783 29.6456L2.51289 27.7109L0.578223 29.6459L2.51317 31.5805L4.44783 29.6456Z" fill="#9B8E75"/>
<path d="M31.6002 2.50889L29.6652 0.57422L27.7306 2.50916L29.6655 4.44383L31.6002 2.50889Z" fill="#9B8E75"/>
<path d="M31.6002 56.7823L29.6652 54.8477L27.7306 56.7826L29.6655 58.7173L31.6002 56.7823Z" fill="#9B8E75"/>
</g>
</svg>
