<svg width="16" height="14" viewBox="0 0 16 14" fill="none" xmlns="http://www.w3.org/2000/svg">
  <!-- Background triangle (dark) - scaled to align with brush -->
  <g transform="matrix(1.0667, 0, 0, 1.0769, 0.5, -0.2)">
    <path d="M6.08993 0.672328L0.186792 10.5284C0.0650997 10.7391 0.000702521 10.978 5.7155e-06 11.2214C-0.00069109 11.4647 0.0623369 11.704 0.18282 11.9155C0.303304 12.1269 0.477044 12.3031 0.68676 12.4266C0.896476 12.55 1.13486 12.6164 1.3782 12.6191H13.1859C13.4292 12.6163 13.6674 12.5499 13.877 12.4265C14.0866 12.3031 14.2603 12.127 14.3808 11.9157C14.5012 11.7043 14.5643 11.4652 14.5637 11.2219C14.5631 10.9787 14.4988 10.7398 14.3773 10.5291L8.47419 0.6716C8.35 0.466603 8.17503 0.297096 7.96621 0.179452C7.75738 0.0618071 7.52174 0 7.28206 0C7.04237 0 6.80674 0.0618071 6.59791 0.179452C6.38909 0.297096 6.21412 0.466603 6.08993 0.6716" fill="#120C05"/>
  </g>

  <!-- Brush triangle (golden) - main caution shape, shifted up to align tip -->
  <g transform="translate(0, -2.5)">
    <path d="M7.54696 2.61373L1.64382 12.4698C1.52213 12.6805 1.45773 12.9194 1.45704 13.1628C1.45634 13.4061 1.51937 13.6454 1.63985 13.8569C1.76034 14.0683 1.93408 14.2445 2.14379 14.368C2.35351 14.4914 2.59189 14.5578 2.83523 14.5606H14.643C14.8862 14.5577 15.1244 14.4913 15.3341 14.3679C15.5437 14.2445 15.7173 14.0684 15.8378 13.8571C15.9583 13.6457 16.0213 13.4066 16.0207 13.1633C16.0201 12.9201 15.9559 12.6812 15.8344 12.4705L9.93122 2.61301C9.80703 2.40801 9.63206 2.2385 9.42324 2.12086C9.21441 2.00321 8.97878 1.94141 8.73909 1.94141C8.49941 1.94141 8.26377 2.00321 8.05494 2.12086C7.84612 2.2385 7.67116 2.40801 7.54696 2.61301" fill="#E5A947"/>
    <!-- Brush stroke texture details -->
    <path d="M8.24227 9.44167C8.26582 9.44195 8.25575 9.4599 8.26278 9.46803C8.24941 9.46596 8.23611 9.46328 8.22274 9.4612C8.22261 9.45956 8.22189 9.45796 8.22176 9.45632C8.24606 9.46204 8.24285 9.45023 8.24227 9.44167ZM8.81821 10.3121C8.83261 10.3116 8.83781 10.3258 8.86118 10.3258C8.88667 10.3254 8.9235 10.3105 8.95786 10.3141C8.98847 10.3171 9.03105 10.3379 9.06332 10.3473C9.16468 10.5602 8.46696 10.327 8.81821 10.3121Z" fill="#E5A947"/>
    <path d="M8.81821 10.3121C8.46696 10.327 8.16468 10.5602 7.97055 10.9019C7.99282 10.8865 7.99533 10.9021 8.0018 10.9361C8.16468 10.5602 8.46696 10.327 8.81821 10.3121ZM8.86118 11.9723C9.08902 11.9677 9.30228 11.8411 9.42661 11.6578C9.33237 12.2281 9.08902 12.2877 8.86118 12.2857C8.71759 12.2821 8.57216 12.2431 8.44614 12.1783C8.57216 12.2431 8.71759 12.2821 8.86118 11.9723Z" fill="#E5A947"/>
  </g>
</svg>