<svg width="15" height="13" viewBox="0 0 15 13" fill="none" xmlns="http://www.w3.org/2000/svg">
<path d="M6.08993 0.672328L0.186792 10.5284C0.0650997 10.7391 0.000702521 10.978 5.7155e-06 11.2214C-0.00069109 11.4647 0.0623369 11.704 0.18282 11.9155C0.303304 12.1269 0.477044 12.3031 0.68676 12.4266C0.896476 12.55 1.13486 12.6164 1.3782 12.6191H13.1859C13.4292 12.6163 13.6674 12.5499 13.877 12.4265C14.0866 12.3031 14.2603 12.127 14.3808 11.9157C14.5012 11.7043 14.5643 11.4652 14.5637 11.2219C14.5631 10.9787 14.4988 10.7398 14.3773 10.5291L8.47419 0.6716C8.35 0.466603 8.17503 0.297096 7.96621 0.179452C7.75738 0.0618071 7.52174 0 7.28206 0C7.04237 0 6.80674 0.0618071 6.59791 0.179452C6.38909 0.297096 6.21412 0.466603 6.08993 0.6716" fill="#120C05"/>
</svg>
