<svg width="16" height="16" viewBox="0 0 16 16" fill="none" xmlns="http://www.w3.org/2000/svg">
<path d="M5.85254 2.74641C5.90565 2.68175 5.8749 2.81886 5.88379 2.84406C5.91574 2.93597 5.93368 2.98497 5.99805 2.94758C6.01279 2.93701 6.07172 2.74456 6.10059 2.73469C6.13739 2.72362 6.11692 2.79371 6.15527 2.78059C6.15855 2.77911 6.16313 2.73491 6.18555 2.73957C6.28708 2.76016 6.39316 2.80235 6.49805 2.82063C6.50124 2.82118 6.50462 2.82207 6.50781 2.82258C6.52231 2.82436 6.51746 2.75293 6.53906 2.7552C6.64179 2.76771 6.75257 2.79687 6.83984 2.85578C6.86121 2.87048 6.83295 2.91352 6.83398 2.92902C6.84014 3.02246 6.92027 2.91331 6.92871 2.9134C7.12259 2.90981 7.21286 3.06705 7.40234 3.09016C7.41219 3.0908 7.54229 2.99862 7.52344 3.12043C7.52252 3.12867 7.5002 3.25125 7.56348 3.19074C7.5676 3.18485 7.57622 3.12277 7.60645 3.14484C7.63694 3.16712 7.71112 3.15886 7.72363 3.24348C7.72778 3.27092 7.70146 3.39239 7.79004 3.33332C7.79669 3.32717 7.97208 3.18201 7.91797 3.32356C7.9089 3.34692 7.82168 3.47825 7.91211 3.43977C7.92974 3.43231 7.93242 3.39202 7.96875 3.38898C8.02475 3.38476 8.05049 3.45169 8.13574 3.42512C8.15104 3.4197 8.24656 3.3572 8.22656 3.4427C8.22333 3.45605 8.18513 3.49306 8.19531 3.50813C8.24506 3.57908 8.33526 3.60384 8.37695 3.68488C8.39155 3.71348 8.32573 3.77027 8.33398 3.80695C8.3424 3.84364 8.37284 3.89934 8.42188 3.89094C8.47116 3.88269 8.53562 3.75787 8.5791 3.78156C8.64341 3.81809 8.69719 3.86728 8.74414 3.92219C8.83549 4.02905 8.90156 4.15739 8.9834 4.26887C9.00166 4.29283 9.02315 4.24278 9.05273 4.27766C9.16361 4.40569 9.37092 4.62906 9.35547 4.80988C9.34266 4.95207 9.21502 4.85945 9.22949 4.95148C9.2368 4.99423 9.39674 4.95803 9.40625 4.96516C9.49905 5.03079 9.46853 5.12588 9.52637 5.19856C9.53836 5.21368 9.5888 5.16983 9.59863 5.18293C9.63215 5.22892 9.62923 5.29433 9.6543 5.34113C9.6657 5.36214 9.70902 5.33969 9.71387 5.36164C9.72585 5.4139 9.72393 5.46519 9.69824 5.52863C9.69583 5.5343 9.62785 5.52642 9.63867 5.56281C9.65645 5.62208 9.63789 5.70772 9.70313 5.76106C9.7233 5.77629 9.82959 5.74554 9.76856 5.81086C9.7557 5.82467 9.6238 5.84954 9.74902 5.86848C9.76989 5.87076 9.94524 5.91992 9.85742 5.98762C9.83397 6.00559 9.73463 6.05818 9.75684 6.07844C9.76223 6.08 9.81606 6.05566 9.82617 6.07453C9.84106 6.10341 9.85122 6.13411 9.86035 6.16535C9.87271 6.20768 9.88348 6.25167 9.90137 6.29328C9.91049 6.31156 9.96578 6.27216 9.97656 6.30109C10.0059 6.38296 10.0036 6.49192 9.99219 6.57648C9.98786 6.6077 9.9351 6.59227 9.92969 6.59504C9.84215 6.6384 9.96648 6.64794 9.97461 6.65949C10.0229 6.72995 9.96874 6.78996 9.98633 6.85676C9.9913 6.87464 10.0464 6.86084 10.0537 6.86359C10.1057 6.9013 10.0011 6.87552 9.98926 6.89973C9.95798 6.96902 9.96215 7.0452 9.96777 7.11457C9.9705 7.13948 10.0389 7.11305 10.04 7.13606C10.0476 7.27338 10.0296 7.41717 9.97559 7.54426C9.96506 7.56742 9.91629 7.546 9.90332 7.54914C9.81588 7.57287 9.92081 7.63956 9.92969 7.65363C9.97024 7.71534 9.92125 7.72907 9.9209 7.77766C9.92194 8.01937 9.81211 8.29921 9.71582 8.50031C9.69176 8.55158 9.66714 8.59988 9.6416 8.64582C9.53521 8.83598 9.42434 8.989 9.32129 9.18293C9.31308 9.19811 9.38117 9.21892 9.37598 9.23274C9.28857 9.41035 9.15533 9.55428 9.04785 9.72004C9.03889 9.73357 9.10381 9.75629 9.0918 9.77961C9.06552 9.82805 9.0178 9.8786 8.96582 9.90559C8.94068 9.91872 8.9217 9.85513 8.89746 9.86848C8.84083 9.90025 8.79296 9.94494 8.75684 9.99738C8.74155 10.0198 8.81837 10.0381 8.79492 10.0638C8.63215 10.2396 8.45564 10.4076 8.20996 10.4788C8.19302 10.4838 8.10139 10.381 8.08887 10.4212C8.10881 10.4538 8.13463 10.4908 8.15723 10.5247C8.12802 10.5483 8.098 10.5706 8.06738 10.5921C7.81492 10.7694 7.52453 10.8779 7.23828 10.9837C7.22462 10.9888 7.27465 11.0477 7.24805 11.0579C7.09463 11.1165 6.94515 11.1866 6.76465 11.1595C6.74683 11.1562 6.72259 11.0307 6.68164 11.0609C6.67446 11.0665 6.60896 11.1001 6.59668 11.1312C6.59563 11.1368 6.62085 11.1906 6.59863 11.1976C6.46639 11.2363 6.32002 11.2478 6.18066 11.2279C6.15865 11.224 6.17382 11.1589 6.1582 11.1556C6.04701 11.1348 5.93221 11.1919 5.82617 11.138C5.75607 11.1015 5.77823 10.9906 5.74121 10.8831C5.73598 10.868 5.69574 10.866 5.69336 10.803C5.68745 10.6446 5.70396 10.4709 5.69531 10.3021C5.69354 10.2658 5.64847 10.3049 5.6748 10.2171C5.67669 10.2113 5.70861 10.1817 5.71582 10.1517C5.72084 10.131 5.71047 10.0669 5.7207 10.0404C5.73076 10.014 5.74394 10.067 5.76074 10.0355C5.77705 10.0033 5.76745 9.93126 5.80078 9.92121C5.87825 9.89851 5.98105 9.90963 6.06348 9.92707C6.08922 9.93248 6.08239 9.97425 6.10059 9.97981C6.13677 9.99014 6.16565 9.9657 6.20215 9.97785C6.21396 9.98317 6.21197 10.0462 6.22461 10.0491C6.2948 10.0643 6.35348 10.0358 6.42188 10.0325C6.76167 10.0158 7.08822 9.90443 7.39844 9.7425C7.42225 9.73008 7.44832 9.71871 7.47559 9.70734C7.56552 9.67012 7.66836 9.63024 7.72852 9.55695C7.73749 9.5459 7.69692 9.50906 7.69531 9.50324C7.683 9.42328 7.74377 9.51827 7.77441 9.51203C7.89536 9.487 7.99065 9.40457 8.04883 9.31379C8.07337 9.27504 7.96371 9.23156 8.03809 9.24152C8.04327 9.2421 8.07874 9.29115 8.0918 9.28645C8.12145 9.27562 8.15013 9.22844 8.16797 9.21516C8.2024 9.18991 8.20625 9.1836 8.23242 9.15363C8.26853 9.11296 8.33253 9.08 8.35742 9.02473C8.36192 9.01286 8.30505 8.98985 8.30859 8.96809C8.31244 8.94625 8.3466 8.90796 8.36816 8.90168C8.38981 8.89578 8.4238 8.92815 8.43457 8.93195C8.52508 8.96243 8.45489 8.83909 8.45605 8.83137C8.48884 8.68405 8.61118 8.61533 8.67188 8.49348C8.70523 8.4258 8.72645 8.34797 8.75 8.27668C8.75837 8.25141 8.76646 8.22667 8.77637 8.20344C8.82151 8.09772 8.88394 8.01434 8.90918 7.90363C8.91157 7.89208 8.83973 7.88633 8.84277 7.87238C8.87494 7.72396 8.9122 7.5801 8.97949 7.43488C8.98707 7.42103 9.04526 7.44818 9.05566 7.43391C9.11924 7.3479 9.25314 7.19279 8.98438 7.12629C8.9974 7.06364 9.00871 6.98771 9.06152 6.92902C9.09567 6.89084 9.165 6.92499 9.13477 6.87922C9.12798 6.86897 9.06947 6.88458 9.06348 6.86945C9.03937 6.80544 9.05331 6.73312 9.0166 6.67219C9.00899 6.65986 8.95616 6.66897 8.94629 6.66633C8.8668 6.64463 8.9875 6.57966 8.99512 6.56672C9.05203 6.47349 9.01608 6.41391 9.00195 6.33625L9.00098 6.3343C8.99731 6.31636 8.93236 6.35112 8.92676 6.3343C8.8986 6.24699 8.88259 6.15504 8.8877 6.05988C8.88915 6.03869 8.95252 6.03881 8.95605 6.02766C8.96965 5.97857 8.85796 6.00316 8.86914 5.95734C8.87137 5.94778 8.92049 5.9364 8.92676 5.93293C9.00381 5.88108 8.87752 5.9004 8.87207 5.89582C8.80993 5.83375 8.91608 5.73827 8.86816 5.67121C8.86227 5.66358 8.80938 5.70791 8.79688 5.68488C8.71312 5.5319 8.64672 5.36377 8.59961 5.18781C8.59217 5.16047 8.64413 5.15044 8.64844 5.14582C8.71291 5.0723 8.59986 5.12222 8.58789 5.11945C8.52149 5.0801 8.57015 4.96377 8.41895 5.01398C8.33877 4.84664 8.20412 4.7195 8.08496 4.58234C8.01288 4.49939 7.94518 4.41151 7.8916 4.30109C7.88976 4.2974 7.93449 4.25369 7.93066 4.24641C7.88094 4.16056 7.83266 4.24674 7.71387 4.30598C7.68517 4.32043 7.73397 4.18179 7.7373 4.16828C7.74816 4.12798 7.81606 4.06116 7.81641 4.05207C7.81586 3.97907 7.6414 4.23376 7.59766 4.20344C7.59851 4.20008 7.63285 4.16093 7.63379 4.15266C7.63205 4.12987 7.60812 4.13962 7.60742 4.11555C7.60667 4.05997 7.67694 3.92796 7.58691 3.97395C7.57413 3.98299 7.48916 4.1329 7.45312 4.1009C7.43839 4.0875 7.36399 4.04609 7.34863 4.02473C7.33412 4.00298 7.37524 3.96223 7.375 3.9593C7.35353 3.8619 7.39012 3.84659 7.41211 3.73274C7.4324 3.61943 7.31966 3.85594 7.29395 3.87629C7.26863 3.89593 7.25271 3.81905 7.25098 3.79426C7.24953 3.76963 7.27889 3.74358 7.27441 3.72785C7.24297 3.62567 7.18913 3.83206 7.15039 3.85969C7.06072 3.92607 7.10318 3.73165 7.0625 3.69367C7.05189 3.68436 7.04496 3.72865 7.03223 3.72785C6.98202 3.72418 6.97646 3.65698 6.90527 3.68977C6.89239 3.69614 6.81358 3.78952 6.81543 3.70051C6.81567 3.68755 6.84246 3.64549 6.82715 3.62824C6.80338 3.60269 6.75245 3.57454 6.71582 3.58039C6.68915 3.58524 6.69273 3.66949 6.6709 3.63703C6.6612 3.62254 6.69809 3.58541 6.67871 3.56184C6.65886 3.53816 6.59408 3.52247 6.56934 3.51789C6.54482 3.51363 6.54303 3.575 6.54004 3.57844C6.52282 3.59762 6.47259 3.61473 6.4668 3.61457C6.42566 3.60639 6.38577 3.59469 6.34668 3.58137C6.19343 3.52903 6.04237 3.44904 5.87598 3.46613C5.86009 3.46848 5.86676 3.53261 5.86426 3.53352C5.80921 3.55673 5.86073 3.39038 5.82422 3.33137C5.82421 3.46089 5.80206 3.43648 5.7627 3.44953C5.74371 3.45602 5.75283 3.50693 5.75098 3.51203C5.72217 3.58743 5.70524 3.48832 5.7002 3.46809C5.68224 3.39398 5.66106 3.48149 5.64844 3.43195C5.63549 3.38277 5.66477 3.3096 5.62598 3.31086C5.61592 3.35743 5.64487 3.47803 5.61719 3.49836C5.5142 3.57289 5.31481 3.49312 5.22656 3.49543C5.14048 3.49659 5.11443 3.50945 5.0625 3.50129C4.96784 3.48738 5.01612 3.57029 4.9707 3.62141C4.92587 3.67287 4.90564 3.45055 4.8877 3.40559C4.86964 3.36122 4.87081 3.41004 4.85547 3.38801C4.83965 3.36481 4.85392 3.32793 4.82812 3.32356C4.80149 3.31938 4.75609 3.41763 4.76074 3.46809C4.77005 3.57479 4.82541 3.67462 4.75781 3.65266C4.75383 3.65134 4.7489 3.59231 4.73438 3.59016C4.61905 3.57521 4.51044 3.6066 4.39453 3.60773C4.37898 3.6066 4.36887 3.54478 4.35938 3.54231C4.25739 3.53709 4.32722 3.62732 4.32812 3.75813C4.30853 3.69983 4.2871 3.65201 4.26465 3.61652C4.22806 3.55856 4.18768 3.53374 4.14648 3.55109C4.10668 3.56808 4.14241 3.6294 4.13867 3.68586C4.13765 3.70283 4.08927 3.67203 4.09863 3.70441C4.12963 3.81008 4.20645 3.90734 4.12402 3.89387C4.11963 3.89013 4.10253 3.83585 4.0918 3.83723C4.01993 3.84705 4.06464 3.95219 4.00879 3.99836C3.96496 4.03408 3.8435 4.02491 3.78223 4.05109C3.6861 3.89723 3.65353 3.96835 3.70312 4.08625C3.66493 4.10577 3.63136 4.13751 3.58789 4.14777C3.57313 4.15133 3.55013 4.10452 3.54492 4.09992C3.46967 4.04496 3.52607 4.15318 3.52246 4.1634C3.4716 4.2603 3.3482 4.24189 3.33594 4.37336C3.33664 4.37945 3.415 4.47516 3.33594 4.42414C3.33036 4.42062 3.31463 4.3562 3.27832 4.38313C3.24218 4.40941 3.13339 4.42094 3.13086 4.50715C3.13004 4.52831 3.17751 4.62593 3.09863 4.59309C3.08789 4.58854 3.06465 4.56053 3.0459 4.55109C2.9855 4.52164 3.07208 4.61514 2.97656 4.55891C2.88135 4.50286 2.78603 4.48785 2.7998 4.58723C2.80004 4.59033 2.86759 4.66738 2.85352 4.68195C2.83078 4.7053 2.78506 4.72862 2.76465 4.75617C2.75601 4.76942 2.81066 4.79884 2.81055 4.80207C2.77977 4.88952 2.71499 4.92487 2.64551 4.98176C2.63014 4.99439 2.61484 5.00827 2.59961 5.02375C2.58372 5.03977 2.62392 5.13654 2.54492 5.13703C2.45787 5.13884 2.21617 4.93978 2.22363 5.07551C2.22626 5.13245 2.54558 5.36126 2.33105 5.33723C2.30989 5.4925 2.16013 5.58124 2.17578 5.74934C2.17642 5.75694 2.27198 5.81355 2.26563 5.82746C2.25579 5.84808 2.20394 5.84408 2.19531 5.85871C2.15886 5.92047 2.18204 5.99459 2.1582 6.05695C2.14883 6.08005 2.1003 6.05837 2.08984 6.08723C2.07948 6.1165 2.14247 6.15249 2.10059 6.18488C2.06881 6.20917 1.9234 6.21061 1.89844 6.25031C2.03533 6.27935 2.0271 6.30723 2.05469 6.36359C2.06074 6.3741 2.10917 6.3728 2.11426 6.37824C2.13588 6.40059 2.09391 6.41031 2.11816 6.43195C2.12473 6.43718 2.17134 6.44496 2.17871 6.44953C2.24323 6.48852 2.13002 6.5204 2.11035 6.52668C2.03612 6.54919 2.09584 6.572 2.06543 6.59309C2.03481 6.61464 2.00353 6.5736 1.9834 6.6009C1.94189 6.65793 1.94291 6.73806 1.9375 6.80012C1.93597 6.82473 2.00074 6.81113 2.00195 6.81477C2.01542 6.86557 1.94643 6.91584 2.07324 6.94563C1.84286 6.96675 1.94987 6.97505 2.0127 7.00031C2.03949 7.01126 2.05823 7.02568 2.03906 7.04719C2.03373 7.05289 1.87734 7.06029 1.85449 7.0384C1.84382 7.02779 1.84974 7.01456 1.85449 7.00031C1.85947 6.9847 1.86331 6.96774 1.8457 6.95149C1.83744 6.94439 1.6945 6.89835 1.68359 6.89094C1.61658 6.84083 1.84489 6.84273 1.86133 6.84113C1.9996 6.82026 1.84769 6.76105 1.83691 6.74543C1.79157 6.67836 1.82913 6.62662 1.7998 6.56965C1.78094 6.53228 1.62943 6.50994 1.6377 6.48176C1.6661 6.38708 1.8806 6.39193 1.71484 6.27277C1.67948 6.24708 1.51309 6.23446 1.6543 6.19074C1.6633 6.18758 1.79097 6.1624 1.72363 6.1175C1.71512 6.11178 1.66792 6.10081 1.66504 6.09504C1.64695 6.05659 1.68888 6.04386 1.67969 6.00422C1.67051 5.96451 1.65545 5.91419 1.68262 5.87824C1.69889 5.85648 1.79422 5.85167 1.81934 5.84699C1.88977 5.83406 1.80098 5.76869 1.88086 5.77277C1.96088 5.77778 2.06149 5.85012 2.125 5.8177C2.00598 5.77603 1.88377 5.73044 1.76465 5.68684C1.80793 5.57239 1.88931 5.47629 1.93262 5.36359C1.93789 5.34957 1.8707 5.33652 1.87402 5.32063C1.89237 5.25278 1.96191 5.21882 1.97656 5.1468C1.98766 5.09088 1.95268 5.00252 1.96582 4.94172C2.10906 4.9802 2.10898 4.88374 2.15332 4.83723C2.1686 4.82118 2.19997 4.8423 2.21875 4.83625C2.28829 4.81268 2.16885 4.76705 2.15918 4.7425C2.14281 4.69224 2.19102 4.70035 2.24902 4.71613C2.31226 4.7332 2.38713 4.75829 2.40723 4.72297C2.40478 4.71434 2.31488 4.59059 2.31055 4.57746C2.28716 4.50341 2.35777 4.60236 2.38379 4.58625C2.43141 4.5567 2.48221 4.5512 2.48438 4.4759C2.48462 4.45405 2.43711 4.35972 2.5166 4.3802C2.52718 4.38318 2.56476 4.41719 2.56934 4.41633C2.64819 4.39828 2.52885 4.29388 2.51367 4.22883C2.49899 4.1634 2.62121 4.19308 2.65234 4.20637C2.73368 4.23956 2.66216 4.24743 2.66699 4.25422C2.72466 4.33319 2.74089 4.29124 2.76855 4.27375C2.88557 4.37729 2.90801 4.34021 2.79688 4.2552C2.7847 4.24607 2.77795 4.27348 2.76855 4.27375C2.67541 4.14843 2.69793 4.09621 2.83789 4.15949C2.90335 4.18952 2.94179 4.26134 2.97559 4.18879C2.99111 4.15602 2.90795 4.08701 2.91016 4.04426C2.91708 3.94586 3.05321 3.9587 3.09863 3.9007C3.11538 3.87939 3.05816 3.85059 3.06836 3.8343C3.09621 3.79077 3.1576 3.7988 3.18262 3.75129C3.18487 3.74692 3.13962 3.70513 3.15039 3.69465C3.23994 3.61771 3.34656 3.59106 3.44922 3.52668C3.49865 3.49536 3.57174 3.41106 3.62891 3.38703C3.7279 3.34412 3.88326 3.36649 3.9541 3.30988C4.00083 3.27292 3.96454 3.22205 3.9707 3.17316C3.97792 3.118 4.02837 3.129 4.07227 3.15168C4.10363 3.16779 4.1317 3.18965 4.13965 3.1966C4.13771 3.19904 4.10077 3.22969 4.13574 3.24836C4.17403 3.30265 4.14062 3.20139 4.13965 3.1966C4.15239 3.20685 4.24943 3.18386 4.26465 3.16633C4.27248 3.1567 4.24827 3.10531 4.25195 3.09992C4.36202 3.00421 4.49287 2.94756 4.63477 2.93977C4.63754 2.94167 4.64919 3.00158 4.65527 3.0052C4.73898 3.0142 4.77062 2.92573 4.82715 2.86555C4.88335 2.80579 4.94061 2.8118 4.99707 2.91633C5.04386 2.89426 5.12156 2.93319 5.16504 2.95832C5.20768 2.98298 5.20016 2.86078 5.20312 2.85383C5.30786 2.76137 5.38209 2.82806 5.49902 2.8343C5.55497 2.83729 5.6654 2.81771 5.72656 2.805C5.77481 2.79468 5.8028 2.82515 5.84766 2.80793C5.85369 2.80534 5.85061 2.74851 5.85254 2.74641ZM5.86816 10.845C5.85663 10.9168 5.91524 10.9192 5.89844 10.846C5.89724 10.8432 5.86868 10.8421 5.86816 10.845ZM1.93457 7.23078C1.99253 7.1433 2.19 7.10409 2.16406 7.21223C2.15848 7.23428 2.08029 7.16425 2.05664 7.1927C2.01413 7.2447 2.17813 7.27922 2.08984 7.33234C2.07257 7.34115 1.92075 7.2784 1.91895 7.27082L1.93457 7.23078ZM1.89648 6.44074C1.85135 6.4511 1.89435 6.50586 1.9502 6.4925C1.99444 6.4821 1.95226 6.42854 1.89648 6.44074ZM1.95117 5.45148C1.86784 5.4543 2.01464 5.54366 2.04785 5.54133C2.1562 5.53576 2.03459 5.4501 1.95117 5.45148ZM8.02832 4.34602C8.13034 4.28054 8.04316 4.18795 7.98438 4.29914C7.98341 4.30617 8.02209 4.34733 8.02832 4.34602ZM7.12695 3.58918C7.14965 3.53282 7.11709 3.53713 7.10352 3.59211C7.10273 3.59537 7.11979 3.6062 7.12695 3.58918ZM5.42578 3.34309C5.43593 3.271 5.3794 3.26902 5.39648 3.34211C5.39771 3.3449 5.42452 3.34585 5.42578 3.34309Z" fill="#555961"/>
<path d="M2.11426 9.92458C2.1815 9.90504 2.26992 9.92617 2.33691 9.95485C2.35725 9.96396 2.34747 10.0022 2.36133 10.0105C2.38965 10.026 2.41635 10.0068 2.44434 10.0252C2.45362 10.0315 2.44241 10.0942 2.45215 10.0994C2.50536 10.1271 2.55548 10.1115 2.60938 10.1248C2.87553 10.1908 3.13781 10.2142 3.40723 10.2429C3.49597 10.2525 3.6037 10.3098 3.69531 10.2849C3.70592 10.282 3.70029 10.2279 3.70215 10.2224C3.73411 10.1527 3.72327 10.2642 3.74414 10.2791C3.8269 10.3374 3.91939 10.3424 3.99902 10.3211C4.0322 10.3111 3.99855 10.2029 4.03223 10.2634C4.0346 10.2676 4.02683 10.3265 4.03613 10.3328C4.05729 10.3466 4.09699 10.336 4.11328 10.3406C4.14478 10.3499 4.14989 10.3497 4.17969 10.3504C4.22038 10.3518 4.26883 10.3811 4.3125 10.3679C4.32175 10.3649 4.30989 10.3056 4.32422 10.2947C4.33907 10.2845 4.37821 10.2894 4.3916 10.3035C4.40489 10.3177 4.39999 10.3649 4.40234 10.3757C4.42144 10.4657 4.46584 10.344 4.47266 10.3377C4.57949 10.2843 4.67121 10.3563 4.77148 10.3562C4.84766 10.3559 4.92947 10.3315 5.00195 10.3347C5.08821 10.3389 5.16131 10.3716 5.24512 10.366C5.25397 10.3655 5.24407 10.2945 5.25488 10.2937C5.3696 10.2855 5.48343 10.2939 5.59766 10.3416C5.60913 10.3464 5.59499 10.4082 5.60645 10.4168C5.67663 10.4679 5.78747 10.5902 5.8291 10.3201C5.8766 10.3306 5.93409 10.3418 5.97656 10.3963C6.00391 10.4314 5.9771 10.4983 6.01074 10.4695C6.01834 10.4631 6.00912 10.4044 6.02051 10.3992C6.06841 10.3776 6.12059 10.3965 6.16797 10.366C6.17762 10.3596 6.175 10.3062 6.17773 10.2966C6.20072 10.2199 6.23874 10.3479 6.24707 10.3572C6.31041 10.4264 6.35707 10.3986 6.41602 10.4002C6.42957 10.4006 6.41442 10.3317 6.42676 10.3279C6.49528 10.3177 6.5667 10.3236 6.63379 10.3552C6.64862 10.3626 6.63546 10.4229 6.64258 10.4295C6.67388 10.4571 6.68083 10.3432 6.71094 10.3679C6.71698 10.3738 6.7138 10.4239 6.71484 10.4304C6.73286 10.5195 6.74814 10.395 6.75293 10.3904C6.81199 10.3521 6.85017 10.4844 6.90723 10.4656C6.91314 10.461 6.89914 10.3979 6.91797 10.3953C7.0457 10.3772 7.18119 10.3954 7.30762 10.448C7.32658 10.4567 7.31323 10.5054 7.31445 10.5115C7.33439 10.6053 7.34704 10.4816 7.35352 10.4744C7.40412 10.4398 7.45195 10.5463 7.48633 10.3943C7.70045 10.4469 7.91362 10.3619 8.12598 10.4978C8.12862 10.4994 8.1241 10.5597 8.12891 10.5652C8.19382 10.6005 8.18166 10.503 8.22461 10.3836C8.23544 10.3536 8.26857 10.498 8.27148 10.5086C8.28193 10.5473 8.27112 10.6394 8.27441 10.6482C8.30381 10.7074 8.29921 10.3983 8.33887 10.3982C8.3401 10.3987 8.33456 10.456 8.33789 10.4617C8.34822 10.4793 8.35903 10.4568 8.36914 10.4763C8.39218 10.5219 8.40037 10.6711 8.43555 10.5847C8.44002 10.5734 8.43334 10.3977 8.46875 10.406C8.48294 10.4094 8.54473 10.4065 8.5625 10.4177C8.57994 10.4291 8.56817 10.4853 8.56934 10.4881C8.61639 10.5627 8.59862 10.5936 8.62207 10.7039C8.64568 10.8141 8.63979 10.5516 8.64941 10.5222C8.65912 10.4934 8.69363 10.5545 8.70215 10.5759C8.71055 10.5972 8.69991 10.6328 8.70703 10.6453C8.75707 10.7246 8.72961 10.5151 8.74609 10.4734C8.78494 10.375 8.81502 10.5695 8.85059 10.5886C8.85989 10.5934 8.8526 10.5513 8.86035 10.5457C8.89428 10.5298 8.91554 10.5904 8.9541 10.5349C8.96042 10.5258 8.9915 10.4084 9.01172 10.4939C9.01457 10.5063 9.0062 10.5551 9.02051 10.5662C9.04209 10.5825 9.08124 10.593 9.10449 10.5769C9.12165 10.5649 9.10243 10.4847 9.12402 10.5095C9.13337 10.5209 9.11583 10.5678 9.13379 10.5847C9.15191 10.6014 9.19748 10.599 9.21484 10.5974C9.23213 10.5956 9.22223 10.5351 9.22363 10.531C9.23199 10.5082 9.26417 10.4797 9.26855 10.4783C9.41746 10.4709 9.55522 10.5735 9.7002 10.5398C9.71118 10.5373 9.70498 10.4776 9.70605 10.4724C9.74503 10.4456 9.71398 10.6156 9.74121 10.6726C9.73728 10.5427 9.75379 10.5658 9.78125 10.5515C9.79419 10.5441 9.78688 10.4942 9.78809 10.489C9.80767 10.4131 9.82168 10.5118 9.8252 10.532C9.83818 10.606 9.85249 10.5185 9.86133 10.5681C9.8701 10.6174 9.84967 10.6902 9.87598 10.6892C9.88328 10.6426 9.86391 10.5216 9.88379 10.5017C9.95923 10.4272 10.1005 10.5221 10.1611 10.532C10.2214 10.5418 10.2412 10.5338 10.2764 10.5506C10.3398 10.5806 10.3169 10.4902 10.3564 10.449C10.3954 10.4099 10.3763 10.6294 10.3818 10.6775C10.3874 10.7252 10.3934 10.6767 10.4004 10.7029C10.4072 10.7291 10.3929 10.7614 10.4092 10.7713C10.4257 10.7802 10.4698 10.6959 10.4756 10.6463C10.4878 10.5408 10.4678 10.4302 10.5107 10.4685C10.5132 10.4708 10.5057 10.5278 10.5146 10.5349C10.5903 10.5798 10.6696 10.5831 10.7451 10.6228C10.7549 10.6298 10.746 10.6931 10.752 10.697C10.8148 10.7384 10.7927 10.6291 10.8271 10.5076C10.8194 10.6692 10.8381 10.7681 10.8857 10.7693C10.9145 10.7699 10.9101 10.699 10.9287 10.6492C10.9345 10.6353 10.9544 10.6822 10.958 10.6492C10.97 10.5408 10.9511 10.4197 11 10.4675C11.0022 10.4698 10.9955 10.5294 11.0029 10.533C11.0512 10.5565 11.0572 10.4432 11.1094 10.4295C11.1503 10.4191 11.2231 10.4876 11.2695 10.4988C11.2686 10.6805 11.3122 10.6395 11.3301 10.5144C11.3602 10.5195 11.3928 10.512 11.4219 10.5291C11.4319 10.5349 11.4256 10.5873 11.4268 10.5935C11.446 10.6819 11.4592 10.5635 11.4658 10.5564C11.5365 10.5099 11.5946 10.6019 11.6621 10.5115C11.6645 10.5038 11.6679 10.384 11.6855 10.4744C11.6867 10.4807 11.6649 10.538 11.6963 10.5427C11.728 10.5472 11.788 10.6147 11.832 10.5564C11.8427 10.5423 11.87 10.4399 11.8916 10.5193C11.8945 10.5301 11.8914 10.5665 11.8955 10.5867C11.9089 10.6508 11.9159 10.524 11.9316 10.6316C11.9475 10.7401 11.981 10.8217 12.0254 10.7468C12.0271 10.7414 12.0372 10.6449 12.0508 10.6453C12.073 10.6479 12.1047 10.6691 12.1279 10.6687C12.1386 10.6684 12.1326 10.6099 12.1338 10.6043C12.2087 10.5691 12.2625 10.6248 12.3428 10.6492C12.3575 10.6538 12.4002 10.5678 12.4287 10.6355C12.46 10.7097 12.428 11.0186 12.5 10.9451C12.529 10.9148 12.5651 10.5247 12.6172 10.7273C12.7183 10.677 12.8126 10.7805 12.9141 10.7088C12.9188 10.7036 12.9327 10.5962 12.9434 10.5974C12.9593 10.5998 12.9681 10.6506 12.9795 10.6541C13.027 10.6694 13.0704 10.6261 13.1162 10.6326C13.1336 10.635 13.1279 10.6879 13.1484 10.6912C13.1692 10.6941 13.1838 10.6244 13.2119 10.658C13.2332 10.6838 13.254 10.826 13.2822 10.8425C13.2833 10.7023 13.3025 10.7047 13.3369 10.6677C13.3434 10.6602 13.3367 10.6121 13.3398 10.6062C13.3526 10.5812 13.3649 10.6217 13.377 10.5945C13.3799 10.588 13.3795 10.541 13.3818 10.532C13.4023 10.4615 13.4366 10.5689 13.4424 10.5877C13.4645 10.6586 13.4742 10.5969 13.4912 10.6248C13.5082 10.6528 13.4831 10.6878 13.5029 10.7048C13.544 10.74 13.5969 10.732 13.6387 10.7341C13.6551 10.7347 13.6446 10.673 13.6465 10.6697C13.681 10.6535 13.7162 10.7213 13.7354 10.5945C13.7592 10.9228 13.7564 10.5622 13.8057 10.6277C13.8096 10.633 13.8137 10.7894 13.7988 10.8123C13.7839 10.834 13.7618 10.7867 13.7412 10.822C13.736 10.8322 13.7079 10.9763 13.7041 10.9851C13.6742 11.053 13.6696 10.8211 13.668 10.8084C13.65 10.6712 13.6166 10.8267 13.6074 10.8386C13.5661 10.8884 13.5307 10.8559 13.4961 10.8914C13.4736 10.9147 13.4709 11.066 13.4531 11.0613C13.3944 11.045 13.3738 10.8345 13.3184 11.0183C13.3065 11.058 13.318 11.2233 13.2754 11.0925C13.272 11.0815 13.2407 10.966 13.2227 11.0408C13.2204 11.0506 13.2208 11.0992 13.2178 11.1033C13.1975 11.1295 13.1833 11.0907 13.1611 11.1091C13.139 11.1277 13.1122 11.1549 13.0869 11.1384C13.0717 11.1274 13.0522 11.0383 13.0449 11.0164C13.0243 10.9527 13.002 11.0569 12.9893 10.9802C12.9764 10.9026 13.0015 10.7843 12.9678 10.7341C12.9665 10.8602 12.9639 10.9902 12.9619 11.117C12.888 11.1125 12.8153 11.0715 12.7412 11.0769C12.732 11.0777 12.7412 11.1452 12.7314 11.1482C12.6899 11.159 12.6534 11.1107 12.6104 11.1297C12.5769 11.1448 12.5398 11.217 12.5049 11.2351C12.4836 11.0913 12.4322 11.1395 12.3945 11.1267C12.3815 11.1222 12.3821 11.0841 12.373 11.0711C12.3376 11.0246 12.3535 11.1516 12.3438 11.1716C12.3022 11.2572 12.2989 10.97 12.25 10.9763C12.2474 10.9766 12.2156 11.1282 12.2109 11.1394C12.1833 11.2014 12.2061 11.0879 12.1895 11.075C12.1577 11.0542 12.135 11.0172 12.0977 11.0623C12.0868 11.0758 12.0611 11.1712 12.04 11.0974C12.0373 11.0878 12.0383 11.0374 12.0361 11.034C11.9957 10.9843 11.9948 11.1438 11.9717 11.198C11.9485 11.2521 11.9126 11.1419 11.9053 11.1101C11.8865 11.029 11.919 11.0737 11.9209 11.0672C11.933 10.9711 11.9066 10.9874 11.8867 10.9793C11.8838 10.8226 11.8561 10.832 11.8662 10.9715C11.8673 10.9866 11.8826 10.9725 11.8867 10.9793C11.8692 11.1329 11.8395 11.1522 11.8057 11.0086C11.79 10.9413 11.8039 10.8637 11.7559 10.8923C11.7347 10.9066 11.7425 11.0122 11.7236 11.0418C11.6797 11.1088 11.6225 11.0085 11.5771 11.0242C11.5607 11.0299 11.5767 11.0895 11.5654 11.0955C11.5357 11.1113 11.5094 11.0672 11.4795 11.0896C11.4768 11.0917 11.483 11.1533 11.4736 11.1541C11.4031 11.1611 11.3413 11.122 11.2676 11.1209C11.2319 11.1206 11.1687 11.154 11.1318 11.1472C11.0679 11.1357 10.9892 11.0468 10.9346 11.0681C10.8989 11.0821 10.9059 11.1442 10.8906 11.1863C10.8611 11.267 10.8098 11.121 10.8027 11.0984C10.8061 11.0959 10.8317 11.0811 10.8164 11.0515C10.8072 10.9878 10.8033 11.0915 10.8027 11.0984C10.7977 11.0839 10.7373 11.0704 10.7246 11.0818C10.718 11.0883 10.7212 11.1469 10.7178 11.1492C10.6359 11.2015 10.5538 11.2166 10.4707 11.1892C10.4693 11.1881 10.471 11.1249 10.4678 11.1209C10.4196 11.0917 10.3893 11.1719 10.3496 11.2195C10.31 11.2669 10.2784 11.2506 10.2549 11.1384C10.2249 11.1526 10.182 11.1022 10.1572 11.072C10.1326 11.0424 10.1291 11.1701 10.127 11.1726C10.0591 11.2533 10.0196 11.1801 9.94922 11.1687C9.9159 11.1631 9.84982 11.1812 9.81348 11.1951C9.78492 11.2063 9.76747 11.1773 9.74121 11.1961C9.73764 11.1986 9.74035 11.2554 9.73926 11.2576C9.71002 11.3248 9.72473 11.187 9.71875 11.1619C9.6967 11.0717 9.68225 11.0238 9.64453 11.0662C9.63563 11.079 9.61045 11.2753 9.59473 11.2869C9.57414 11.3016 9.58213 11.2305 9.56055 11.2478C9.55874 11.2497 9.5591 11.2936 9.5459 11.2918C9.48412 11.2833 9.41674 11.2571 9.35254 11.2615C9.34376 11.2619 9.35448 11.332 9.3418 11.3338C9.28235 11.342 9.21707 11.3402 9.15918 11.3074C9.14495 11.2991 9.15438 11.2499 9.15137 11.2351C9.13264 11.1483 9.10564 11.271 9.10059 11.2771C8.99442 11.3387 8.91289 11.2229 8.80469 11.2781C8.79855 11.2822 8.75359 11.4181 8.7334 11.3015C8.73202 11.2937 8.71201 11.1731 8.69434 11.2547C8.69324 11.2598 8.70536 11.3225 8.68359 11.3162C8.66183 11.3103 8.62742 11.3506 8.59766 11.283C8.58819 11.2615 8.56536 11.1412 8.53711 11.2371C8.5352 11.2441 8.49215 11.4599 8.47656 11.3113C8.47404 11.2867 8.47594 11.1285 8.44238 11.2088C8.43595 11.2245 8.44751 11.26 8.43066 11.282C8.40467 11.316 8.37082 11.2741 8.33887 11.3445C8.33329 11.357 8.30907 11.4641 8.29004 11.3826C8.28713 11.3696 8.29224 11.3172 8.28223 11.3113C8.23466 11.2834 8.18501 11.3179 8.13672 11.282C8.11963 11.2692 8.12784 11.1844 8.11035 11.1609C8.09243 11.138 8.05586 11.116 8.03711 11.155C8.01862 11.1945 8.03876 11.3297 8.01074 11.3406C7.88859 11.3879 7.76748 11.3083 7.64551 11.2966C7.62769 11.2952 7.64239 11.3432 7.61621 11.3445C7.51791 11.3481 7.34799 11.3933 7.2627 11.2898C7.19469 11.2071 7.28031 11.1439 7.22852 11.1101C7.20357 11.0942 7.17636 11.2497 7.16992 11.2576C7.11062 11.3081 7.06896 11.2384 7.01562 11.2595C7.00472 11.2639 7.01461 11.3262 7.00586 11.3308C6.97377 11.3419 6.93985 11.3139 6.90918 11.3191C6.89541 11.3216 6.89743 11.3707 6.88477 11.367C6.85463 11.3584 6.82822 11.3374 6.79883 11.2918C6.79615 11.2876 6.81382 11.2273 6.79199 11.2244C6.75574 11.2209 6.71066 11.1759 6.66895 11.2224C6.65657 11.2365 6.65548 11.3482 6.62891 11.2713C6.62332 11.2551 6.63063 11.1209 6.59961 11.2371C6.5938 11.2581 6.542 11.4116 6.5166 11.3113C6.50981 11.2842 6.49239 11.1749 6.47754 11.1922C6.47553 11.195 6.48402 11.2556 6.47168 11.2615C6.42827 11.2811 6.38249 11.2741 6.33789 11.2927C6.32606 11.2978 6.34322 11.3594 6.32617 11.366C6.27726 11.3817 6.2158 11.3659 6.16797 11.3465C6.15033 11.3392 6.16242 11.2876 6.16113 11.282C6.14051 11.191 6.12794 11.3139 6.12109 11.3211C6.07855 11.3638 6.04607 11.3067 6.00684 11.322C5.9968 11.3274 6.00377 11.3828 6.00195 11.3894C5.97977 11.4402 5.99597 11.337 5.98242 11.324C5.94286 11.2912 5.89843 11.296 5.8584 11.3035C5.8437 11.3063 5.85974 11.3737 5.84668 11.3757C5.76841 11.3875 5.68674 11.3811 5.61035 11.3435C5.59633 11.3361 5.60523 11.2849 5.60254 11.2722C5.58188 11.1885 5.55091 11.3024 5.54395 11.3132C5.51248 11.3625 5.50036 11.3168 5.47266 11.325C5.33606 11.368 5.16707 11.3381 5.03809 11.3191C4.86998 11.2947 4.73941 11.2446 4.5791 11.2576C4.56893 11.2584 4.57908 11.3273 4.57031 11.3289C4.45692 11.3457 4.34507 11.3185 4.23145 11.3386C4.22246 11.341 4.23557 11.4063 4.2207 11.4109C4.19001 11.421 4.15114 11.4174 4.12012 11.3963C4.1057 11.3855 4.125 11.3305 4.11035 11.3211C4.07487 11.2998 4.03644 11.2948 4 11.3054C3.98505 11.3107 4.00783 11.3773 3.98828 11.3787C3.85101 11.3854 3.71586 11.3968 3.57715 11.3093C3.56764 11.3033 3.55927 11.1659 3.53906 11.1922C3.53754 11.2303 3.53777 11.2754 3.53711 11.3162C3.33721 11.3381 3.13893 11.2903 2.93848 11.283C2.93046 11.2837 2.94452 11.3546 2.92871 11.3552C2.83401 11.3542 2.7414 11.3739 2.64453 11.3015C2.63544 11.2914 2.64005 11.1679 2.6123 11.1863C2.60732 11.1898 2.56386 11.2064 2.55273 11.2341C2.55124 11.2383 2.5595 11.2985 2.5459 11.3006C2.46616 11.3096 2.38235 11.2959 2.30273 11.2595C2.28986 11.2535 2.30311 11.1892 2.29395 11.1843C2.22898 11.1507 2.15777 11.1991 2.0957 11.1414C2.05444 11.1022 2.06991 10.9917 2.04785 10.8836C2.04431 10.8687 2.01894 10.8657 2.01758 10.8035C2.01416 10.645 2.02658 10.4714 2.02148 10.3025C2.0204 10.2662 1.98659 10.305 2.00684 10.2175C2.00826 10.2117 2.0329 10.1819 2.03906 10.1521C2.04332 10.1314 2.0352 10.0672 2.04395 10.0408C2.05269 10.0146 2.06266 10.0679 2.07715 10.0369C2.09141 10.0053 2.08552 9.9333 2.11426 9.92458ZM12.8154 10.9021C12.7855 10.8034 12.765 10.9488 12.7861 11.0252C12.8072 11.1015 12.8245 10.9321 12.8154 10.9021ZM2.13086 10.8504C2.12107 10.9214 2.15823 10.9272 2.15039 10.8533C2.15007 10.8503 2.1313 10.8474 2.13086 10.8504ZM13.4336 10.7517C13.4227 10.7087 13.3918 10.7578 13.4053 10.8113C13.4162 10.8543 13.447 10.8051 13.4336 10.7517ZM8.83789 10.7107C8.83879 10.7716 8.85757 10.7542 8.85156 10.698C8.85086 10.6947 8.83764 10.6921 8.83789 10.7107ZM13.917 10.5027C13.9322 10.5081 13.8849 10.5864 13.9043 10.6101C13.9397 10.6525 13.9628 10.4887 13.999 10.5769C14.0052 10.594 13.9616 10.7487 13.957 10.7478L13.9297 10.7322C13.8704 10.674 13.8439 10.4776 13.917 10.5027ZM10.0137 10.6658C10.0039 10.7366 10.04 10.7417 10.0322 10.6677C10.0301 10.665 10.0141 10.663 10.0137 10.6658ZM8.03223 10.5535C8.0102 10.6696 8.09605 10.6816 8.07715 10.5593C8.07574 10.5531 8.03361 10.5477 8.03223 10.5535Z" fill="#555961"/>
<path d="M11.957 12.5954C11.9913 12.5781 12.1926 12.7484 12.1436 12.7555C12.1345 12.7563 12.0954 12.6847 12.0723 12.6745C12.03 12.6558 12.1384 12.78 12.0645 12.7301C12.0513 12.7212 11.9608 12.6036 11.957 12.5954ZM12.5635 8.17936C12.5995 8.18813 12.6141 8.23262 12.6162 8.27507C12.6169 8.28835 12.5848 8.31346 12.584 8.3239C12.5828 8.34372 12.605 8.33905 12.6016 8.36101C12.6002 8.36855 12.5522 8.40978 12.5518 8.41667C12.55 8.45386 12.5774 8.45958 12.5859 8.48698C12.628 8.62236 12.6991 8.72652 12.7686 8.83659C12.7912 8.87295 12.7871 8.94856 12.835 8.96159C12.8406 8.96306 12.8779 8.92214 12.8818 8.9196C12.9413 8.88126 12.8598 8.95538 12.8555 8.97331C12.8417 9.04209 12.8687 9.07694 12.9102 9.08854C12.928 9.09331 12.9949 9.00451 12.9629 9.05925C12.9607 9.06296 12.9168 9.10126 12.915 9.10905C12.9122 9.12575 12.9318 9.1318 12.9346 9.1403C12.9385 9.15735 12.9407 9.15919 12.9502 9.1696C12.9628 9.18419 12.9585 9.22108 12.9824 9.22624C12.988 9.22665 13.0258 9.18107 13.0381 9.17839C13.0502 9.17614 13.06 9.19234 13.0547 9.20671C13.0491 9.22105 13.0141 9.25264 13.0068 9.2614C12.9486 9.33254 13.0534 9.25775 13.0576 9.25749C13.1305 9.25568 13.1101 9.33749 13.1436 9.37077C13.1691 9.3959 13.2135 9.40593 13.2354 9.43229C13.2612 9.46391 13.2623 9.51175 13.2939 9.53581C13.2973 9.53839 13.3445 9.48491 13.3486 9.48796C13.3926 9.52036 13.4252 9.56384 13.4297 9.63542C13.4301 9.64267 13.3811 9.68219 13.3789 9.69206C13.3662 9.75157 13.3164 9.87519 13.5215 9.69792C13.5299 9.72119 13.5408 9.7479 13.5166 9.80046C13.5009 9.83441 13.4449 9.8741 13.4766 9.86491C13.4841 9.86218 13.5218 9.81716 13.5293 9.81706C13.5605 9.8177 13.5645 9.84895 13.6016 9.84343C13.6093 9.84214 13.6466 9.80338 13.6543 9.79753C13.7156 9.75138 13.6398 9.85207 13.6348 9.86296C13.6069 9.93318 13.6416 9.92993 13.6602 9.95085C13.6645 9.95554 13.7099 9.90012 13.7158 9.903C13.7457 9.91864 13.7647 9.94635 13.7646 9.99089C13.7645 10.001 13.7171 10.0395 13.7148 10.0466C13.7059 10.0763 13.7879 9.99863 13.7812 10.0251C13.7798 10.0307 13.7423 10.0662 13.7383 10.071C13.6819 10.1393 13.773 10.0584 13.7793 10.0553C13.826 10.0479 13.7456 10.1547 13.7773 10.1608C13.7813 10.1614 13.8224 10.1101 13.8311 10.1139C13.8865 10.1437 13.9189 10.2015 13.9238 10.2809C13.9245 10.2933 13.8847 10.3231 13.8809 10.3278C13.8203 10.4018 13.9154 10.3164 13.9209 10.3151C13.962 10.3077 13.9027 10.3983 14.0215 10.3024C14.0489 10.3896 14.1387 10.4142 14.1602 10.5065C14.2707 10.5708 14.2244 10.7162 14.1602 10.8268C14.1374 10.8321 14.1102 10.8328 14.0771 10.8278C14.0742 10.8265 14.0321 10.7821 14.0283 10.7819C13.9821 10.7788 14.0549 10.8434 14.125 10.9421C14.1425 10.9668 14.0299 10.8753 14.0215 10.8688C13.9907 10.845 13.9296 10.7768 13.9219 10.7712C13.8703 10.7392 14.0888 10.9549 14.0771 10.9694C14.0764 10.9695 14.0373 10.9274 14.0322 10.9245C14.0166 10.9157 14.0289 10.9349 14.0117 10.9245C13.972 10.9002 13.8635 10.7967 13.9131 10.8698C13.9196 10.8793 14.0458 11.0014 14.0283 11.0075C14.0212 11.0098 14.0022 11.0321 13.9883 11.03C13.9743 11.0272 13.939 10.9849 13.9365 10.9831C13.868 10.9459 13.8517 10.9177 13.7656 10.8473C13.6807 10.7781 13.8677 10.9607 13.8857 10.985C13.9032 11.0089 13.8481 10.9768 13.8301 10.9645C13.8122 10.9522 13.7904 10.9239 13.7793 10.9176C13.7066 10.8783 13.8637 11.0174 13.8877 11.0524C13.9444 11.135 13.7968 11.0072 13.7715 11.0055C13.7658 11.0058 13.7988 11.034 13.7988 11.0397C13.7984 11.0617 13.7493 11.0262 13.7754 11.0778C13.7797 11.0863 13.8526 11.1796 13.7852 11.1257C13.7754 11.1178 13.743 11.0807 13.7305 11.0778C13.7119 11.0737 13.6918 11.0794 13.6953 11.0983C13.6981 11.1125 13.7611 11.1624 13.7363 11.152C13.7251 11.1468 13.6985 11.1083 13.6807 11.1022C13.6627 11.0962 13.6482 11.1138 13.6436 11.1208C13.6408 11.1287 13.6845 11.1668 13.6875 11.1706C13.7006 11.1891 13.71 11.2187 13.71 11.2223C13.6656 11.2771 13.5482 11.2512 13.5234 11.3229C13.5215 11.3285 13.5679 11.3703 13.5693 11.3727C13.5753 11.4047 13.4644 11.2741 13.415 11.2428C13.5079 11.3331 13.4865 11.3225 13.4873 11.3415C13.4878 11.3508 13.5261 11.3843 13.5293 11.3883C13.5764 11.4484 13.5034 11.3845 13.4873 11.3708C13.4304 11.3226 13.4873 11.3893 13.4492 11.3571C13.4114 11.3252 13.3665 11.2666 13.3584 11.276C13.3888 11.3114 13.482 11.3912 13.4893 11.4118C13.5161 11.4889 13.4024 11.469 13.375 11.4821C13.3478 11.4953 13.3469 11.5076 13.3232 11.5075C13.2811 11.5075 13.3522 11.5638 13.3682 11.6061C13.3832 11.6473 13.2338 11.4845 13.1982 11.4528C13.163 11.4212 13.1947 11.4573 13.1748 11.4421C13.154 11.4258 13.1354 11.3977 13.123 11.3962C13.1113 11.3954 13.1563 11.4695 13.1895 11.5065C13.2601 11.5853 13.3447 11.6574 13.3027 11.6442C13.2994 11.6423 13.2626 11.6 13.2549 11.5983C13.1979 11.5917 13.1695 11.6159 13.1162 11.613C13.1086 11.612 13.0667 11.5635 13.0615 11.5622C13.0112 11.5538 13.0955 11.6241 13.1699 11.7214C13.0584 11.6047 12.9825 11.5413 12.9658 11.5563C12.9558 11.5654 13.0071 11.6136 13.0361 11.655C13.0449 11.6674 13.0041 11.64 13.0264 11.6647C13.0991 11.7455 13.1913 11.8251 13.1406 11.8073C13.1381 11.8061 13.1 11.7641 13.0938 11.7624C13.0611 11.7618 13.1392 11.8435 13.1318 11.8708C13.1258 11.892 13.0518 11.8671 13.0283 11.8747C12.9005 11.7462 12.9155 11.79 12.998 11.8844C12.9843 11.8909 12.978 11.9075 12.9561 11.905C12.948 11.9032 12.9137 11.8647 12.9092 11.861C12.8402 11.8049 12.9203 11.8931 12.9229 11.9001C12.9322 11.9565 12.8475 11.9107 12.8887 11.9967C12.8902 11.9998 12.9785 12.0902 12.9072 12.0309C12.9013 12.0252 12.8689 11.9797 12.8555 11.987C12.8412 11.994 12.7742 11.9664 12.8008 12.0221C12.8072 12.0357 12.8705 12.1174 12.8066 12.068C12.798 12.0613 12.7735 12.034 12.7578 12.0212C12.7084 11.9807 12.7957 12.073 12.7139 12.0016C12.6319 11.9302 12.5635 11.8841 12.6016 11.9518C12.6043 11.9556 12.6677 12.0257 12.665 12.0319C12.6558 12.0374 12.6305 12.0336 12.623 12.0417C12.6196 12.0456 12.6658 12.0881 12.666 12.0895C12.6657 12.139 12.6083 12.1171 12.5645 12.1266C12.5577 12.13 12.6026 12.2027 12.5459 12.1647C12.4831 12.1227 12.2764 11.8944 12.3037 11.9694C12.3148 11.9999 12.5788 12.2898 12.418 12.1637C12.4194 12.2325 12.3151 12.1907 12.332 12.2751C12.3329 12.2789 12.402 12.3565 12.4014 12.363C12.3943 12.3666 12.3548 12.3332 12.3486 12.3346C12.3221 12.3398 12.3384 12.3857 12.3184 12.3962C12.3107 12.4001 12.2756 12.3611 12.2666 12.3659C12.2578 12.3709 12.3017 12.4242 12.2686 12.4098C12.2429 12.3982 12.1369 12.3064 12.1152 12.3034C12.2138 12.4027 12.2051 12.4074 12.2197 12.445C12.2229 12.4524 12.2583 12.4828 12.2627 12.4889C12.2762 12.511 12.2435 12.487 12.2588 12.5104C12.2625 12.5161 12.2969 12.5498 12.3018 12.5563C12.3443 12.6124 12.2579 12.5485 12.2422 12.5368C12.1844 12.4938 12.2247 12.5412 12.1992 12.527C12.1738 12.5128 12.1573 12.4797 12.1387 12.4743C12.1002 12.4632 12.0877 12.4863 12.0723 12.4987C12.0678 12.5046 12.1149 12.5439 12.1162 12.5466C12.1162 12.5695 12.0562 12.5333 12.1396 12.6296C11.8991 12.405 12.1548 12.6597 12.0918 12.6296C12.085 12.6254 11.975 12.5177 11.9639 12.4967C11.9536 12.4765 11.9947 12.5022 11.9766 12.4704C11.9699 12.4601 11.8807 12.3529 11.874 12.3434C11.8352 12.2846 12.0012 12.4472 12.0107 12.4557C12.1141 12.5471 12.0144 12.4244 12.0098 12.4137C11.9887 12.3654 12.0228 12.3764 12.0098 12.3405C12.0011 12.3167 11.8941 12.2074 11.9033 12.2048C11.9351 12.1976 12.0897 12.3391 11.9785 12.1911C11.9545 12.1592 11.8337 12.0454 11.9404 12.1237C11.9482 12.1295 12.0418 12.2021 11.9951 12.1432C11.9891 12.1357 11.954 12.1012 11.9521 12.0973C11.9406 12.0723 11.9725 12.0943 11.9668 12.0739C11.9611 12.0534 11.9508 12.0258 11.9707 12.029C11.9834 12.0315 12.0533 12.0881 12.0713 12.1012C12.1229 12.1392 12.0569 12.0582 12.1152 12.1081C12.1743 12.1586 12.2492 12.2507 12.2959 12.2751C12.2073 12.1856 12.1172 12.0928 12.0283 12.0026C12.0562 11.9813 12.1091 11.9853 12.1299 11.9567C12.1303 11.9516 12.0806 11.908 12.082 11.903C12.0885 11.8819 12.135 11.9036 12.1357 11.8757C12.1358 11.8535 12.0978 11.7906 12.0967 11.7663C12.2054 11.8608 12.1885 11.8099 12.21 11.8063C12.2176 11.8051 12.2448 11.8328 12.2568 11.8385C12.3014 11.8596 12.2067 11.7752 12.1953 11.7575C12.1487 11.6831 12.3537 11.8861 12.3652 11.8649C12.3659 11.8638 12.267 11.7442 12.2617 11.736C12.2269 11.6827 12.3016 11.7719 12.3154 11.7741C12.3407 11.7782 12.3739 11.7968 12.3545 11.7526C12.3482 11.739 12.2899 11.6639 12.3486 11.7087C12.3564 11.7146 12.3927 11.7512 12.3955 11.7526C12.443 11.7733 12.3314 11.6609 12.3008 11.6149C12.2702 11.5689 12.3599 11.6349 12.3848 11.655C12.4492 11.7068 12.4048 11.685 12.4102 11.6911C12.4738 11.7628 12.471 11.7428 12.4834 11.7419C12.5948 11.8513 12.5979 11.835 12.4961 11.7399C12.4851 11.7297 12.4894 11.7451 12.4834 11.7419C12.3806 11.6274 12.3766 11.6029 12.4893 11.693C12.5421 11.7354 12.5931 11.7958 12.5889 11.7594C12.5867 11.7428 12.5075 11.6694 12.4932 11.6423C12.4607 11.5805 12.5508 11.6324 12.5547 11.6061C12.5561 11.5967 12.5103 11.5609 12.5088 11.5524C12.5074 11.5311 12.5471 11.5531 12.541 11.527C12.5377 11.5224 12.4967 11.4852 12.4971 11.4801C12.5155 11.4515 12.5645 11.459 12.5898 11.4352C12.6021 11.4237 12.5991 11.3782 12.6162 11.3708C12.6457 11.3576 12.7354 11.3946 12.7383 11.361C12.7403 11.3392 12.6936 11.2982 12.6689 11.2633C12.6211 11.1958 12.7424 11.2819 12.7607 11.2956C12.7613 11.2982 12.7628 11.3177 12.7891 11.3337C12.8369 11.3754 12.7656 11.3008 12.7607 11.2956C12.7728 11.304 12.8031 11.2932 12.7988 11.2809C12.7961 11.2739 12.7534 11.2339 12.7529 11.2311C12.7433 11.1672 12.76 11.1293 12.8066 11.1208C12.808 11.1211 12.8532 11.1676 12.8564 11.1686C12.8931 11.1732 12.8466 11.1061 12.8262 11.0592C12.8058 11.0125 12.8279 11.0131 12.915 11.0846C12.9154 11.065 12.9647 11.0862 12.9941 11.0993C13.0228 11.1118 12.9365 11.0226 12.9336 11.0182C12.8992 10.9388 12.9635 10.9767 12.9951 10.9616C13.0102 10.9544 13.0193 10.9191 13.0215 10.8971C13.0231 10.8797 13.0506 10.8949 13.0459 10.8727C13.0453 10.8697 13.0031 10.8307 13.002 10.8288C12.9642 10.7716 13.0575 10.8737 13.0771 10.8893C13.1482 10.9457 13.1864 10.9749 13.1689 10.9323C13.1617 10.9191 13.0322 10.7728 13.0293 10.7594C13.026 10.7426 13.0741 10.795 13.0693 10.776C13.0689 10.7744 13.0371 10.743 13.043 10.7399C13.0696 10.7253 13.1106 10.7215 13.1289 10.6969C13.1312 10.6935 13.0781 10.6477 13.0811 10.6423C13.0845 10.6359 13.0899 10.6311 13.0947 10.6257C13.0555 10.6525 13.0053 10.6852 13.0498 10.6286C13.0663 10.6076 13.138 10.524 13.1211 10.5309C13.1185 10.5322 13.0787 10.5776 13.0703 10.5778C13.0419 10.5772 13.0311 10.5569 13.0029 10.5553C12.9951 10.5553 12.9572 10.6051 12.9473 10.6032C12.9199 10.598 12.9104 10.5664 12.9082 10.5368C12.9075 10.5257 12.9486 10.4933 12.9521 10.4889C13.0097 10.4176 12.9185 10.5008 12.9111 10.5036C12.8668 10.5196 12.8962 10.4683 12.873 10.4655C12.8668 10.4648 12.8295 10.5062 12.8232 10.5114C12.7798 10.54 12.858 10.4721 12.8623 10.4587C12.8723 10.4222 12.8546 10.4111 12.8359 10.403C12.8291 10.4001 12.788 10.4512 12.7812 10.4499C12.7469 10.4321 12.7235 10.4003 12.7246 10.3483C12.7257 10.3382 12.7644 10.3054 12.7725 10.2956C12.8245 10.2298 12.7355 10.2992 12.7246 10.3053C12.6789 10.3299 12.7069 10.2929 12.6914 10.2897C12.6157 10.2744 12.5813 10.1966 12.5518 10.1403C12.513 10.0671 12.5048 9.98832 12.4424 9.94401C12.4386 9.94123 12.3948 9.99081 12.3887 9.99186C12.339 9.96599 12.3205 9.91007 12.2686 9.8864C12.2644 9.88437 12.2223 9.9347 12.2139 9.93327C12.1965 9.93015 12.1858 9.9146 12.1904 9.88933C12.1931 9.87696 12.2395 9.84424 12.2412 9.83268C12.2444 9.80582 12.2345 9.78949 12.2148 9.78483C12.2057 9.78444 12.1664 9.83877 12.1592 9.83268C12.1087 9.79169 12.0556 9.75427 12.0713 9.64616C12.075 9.63621 12.1666 9.53972 12.1416 9.55143C12.1142 9.57787 12.0827 9.60978 12.0537 9.63835C11.9716 9.58725 11.9386 9.48674 11.877 9.41472C11.8722 9.41471 11.8274 9.46802 11.8223 9.46257C11.7915 9.43051 11.7468 9.41381 11.7656 9.33073C11.7674 9.32254 11.8596 9.23407 11.8369 9.23796C11.8328 9.23879 11.8065 9.23672 11.7832 9.25261C11.7798 9.25503 11.7413 9.29805 11.7344 9.29655C11.7013 9.27634 11.6824 9.23862 11.6816 9.1862C11.6821 9.1774 11.7311 9.13698 11.7314 9.13054C11.7334 9.08532 11.6762 9.09531 11.6963 9.03386C11.7103 8.99243 11.7933 8.92023 11.8623 8.83659C11.8721 8.82475 11.8652 8.81411 11.9092 8.76921C12.0201 8.65598 12.1469 8.53688 12.2646 8.41569C12.2899 8.38968 12.2515 8.40651 12.3203 8.35124C12.3249 8.34756 12.3538 8.33508 12.377 8.31608C12.3929 8.30295 12.4354 8.25477 12.457 8.23893C12.4785 8.22324 12.4444 8.26445 12.4707 8.24772C12.4977 8.23035 12.5477 8.17582 12.5635 8.17936ZM12.0957 12.3659C12.062 12.3395 12.0866 12.3854 12.1289 12.4186C12.1627 12.4451 12.138 12.3991 12.0957 12.3659ZM12.1514 12.0085C12.0904 11.9615 12.2042 12.0869 12.2285 12.1051C12.3084 12.1651 12.2124 12.0555 12.1514 12.0085ZM13.3213 11.3434C13.3235 11.3454 13.332 11.3408 13.3301 11.3385C13.2831 11.2849 13.2663 11.2937 13.3213 11.3434ZM13.6943 10.9284C13.697 10.9302 13.7024 10.9275 13.6895 10.9147C13.6463 10.8722 13.6526 10.8907 13.6943 10.9284ZM14.0693 10.7575C13.9946 10.6682 13.9574 10.6883 14.0498 10.7682C14.0546 10.7724 14.073 10.7621 14.0693 10.7575ZM13.1318 10.6003C13.1369 10.5992 13.1426 10.6004 13.1484 10.6003C13.1707 10.5767 13.1867 10.5578 13.1318 10.6003ZM13.5205 10.277C13.5362 10.2818 13.5924 10.3441 13.6143 10.3542C13.6364 10.3644 13.6639 10.3675 13.6426 10.3337C13.6213 10.3004 13.5237 10.2149 13.5205 10.195V10.277ZM11.9141 8.8405C11.8605 8.88751 11.8683 8.90327 11.918 8.84831C11.92 8.84609 11.9163 8.83856 11.9141 8.8405Z" fill="#555961"/>
</svg>
