<svg width="16" height="16" viewBox="0 0 16 16" fill="none" xmlns="http://www.w3.org/2000/svg">
<path d="M8.16912 1.43071C8.29312 1.43587 8.23409 1.49632 8.35759 1.51176C8.36685 1.51345 8.37679 1.48013 8.42888 1.49028C8.43314 1.49068 8.43776 1.49126 8.44255 1.49321C8.61973 1.56473 8.80775 1.6589 8.99627 1.72075C9.0213 1.7281 9.01273 1.65186 9.04998 1.66313C9.22584 1.71642 9.41473 1.78559 9.57244 1.87602C9.61106 1.89843 9.56958 1.93519 9.57341 1.95219C9.59919 2.05396 9.71802 1.96335 9.73357 1.96391C10.0631 2.01492 10.2616 2.20851 10.5949 2.26762C10.6144 2.26989 10.7911 2.18806 10.8107 2.31938C10.8124 2.33026 10.8302 2.4612 10.9084 2.40239C10.9133 2.39866 10.8982 2.32752 10.9592 2.35551C11.0204 2.38382 11.136 2.38158 11.2004 2.47661C11.2208 2.50692 11.2466 2.64234 11.3605 2.5811C11.3708 2.57446 11.5671 2.41843 11.5627 2.57426C11.5618 2.60015 11.5016 2.7465 11.6261 2.70512C11.6501 2.69691 11.6282 2.65091 11.6847 2.6475C11.7717 2.64219 11.8583 2.71824 11.9748 2.68461C11.9954 2.67836 12.0997 2.60158 12.1281 2.69731C12.1325 2.71241 12.0989 2.7566 12.1261 2.7725C12.2558 2.84823 12.4131 2.86694 12.5422 2.95122C12.5874 2.98105 12.5341 3.0519 12.5783 3.09184C12.6229 3.13183 12.7207 3.19043 12.7883 3.1729C12.8558 3.15531 12.8415 3.00586 12.9269 3.02446C13.0847 3.05885 13.2343 3.11449 13.381 3.17778C13.6679 3.28937 13.9047 3.50595 14.049 3.76664C14.11 3.87613 14.1556 3.99353 14.1857 4.1143C14.2086 4.22066 14.2403 4.12037 14.2668 4.28422C14.2801 4.38736 14.2846 4.5053 14.2697 4.62993C14.239 4.93092 14.2016 5.32735 14.0871 5.53227C13.9765 5.73009 13.9499 5.45914 13.8947 5.6143C13.8688 5.68877 14.0119 5.79246 14.0158 5.81254C14.0412 6.00114 13.9543 6.1187 13.9533 6.2852C13.9536 6.31902 14.0215 6.2952 14.0207 6.32426C14.0182 6.42376 13.9756 6.52287 13.9679 6.61723C13.9647 6.65967 14.0141 6.65908 14.0051 6.69731C13.984 6.78871 13.9524 6.86814 13.8947 6.95219C13.8882 6.95776 13.8369 6.89694 13.8254 6.96391C13.8068 7.07431 13.743 7.20603 13.7717 7.33989C13.7804 7.37968 13.8916 7.39682 13.8039 7.46782C13.7856 7.4827 13.6556 7.44273 13.757 7.55278C13.7739 7.57133 13.9075 7.7518 13.797 7.81645C13.7679 7.83349 13.6514 7.87206 13.6623 7.91997C13.665 7.92615 13.728 7.91001 13.7287 7.94829C13.73 8.08385 13.7043 8.22228 13.7043 8.36137C13.7044 8.39857 13.7734 8.35307 13.7717 8.40825C13.7668 8.55979 13.7259 8.74419 13.6867 8.88774C13.6721 8.94069 13.6254 8.89727 13.6193 8.90043C13.5215 8.95095 13.6366 9.00436 13.6418 9.02641C13.6666 9.16239 13.5962 9.25401 13.5949 9.37602C13.5944 9.40966 13.6559 9.39418 13.6603 9.40141C13.7016 9.47655 13.6039 9.41208 13.5861 9.45317C13.537 9.57005 13.5231 9.70642 13.5138 9.83012C13.5106 9.87548 13.585 9.83438 13.5812 9.87504C13.5602 10.1157 13.5203 10.3635 13.4513 10.5918C13.4382 10.6349 13.3893 10.6009 13.3761 10.6084C13.2852 10.6604 13.3859 10.7683 13.3937 10.7911C13.4295 10.8943 13.3783 10.9261 13.3752 11.0127C13.3742 11.0406 13.3729 11.0692 13.3713 11.0977C13.3528 11.2929 13.2839 11.4943 13.1672 11.67C13.0546 11.8402 12.8979 11.9861 12.7179 12.086C12.5185 12.1943 12.318 12.2945 12.1447 12.3829C11.6822 12.619 11.3081 12.7757 10.8849 13.0323C10.858 13.0485 10.9194 13.0927 10.8967 13.1075C10.6011 13.2956 10.2888 13.4434 9.99431 13.6348C9.97014 13.6504 10.0383 13.687 10.0011 13.7139C9.92387 13.7696 9.81746 13.8263 9.7238 13.8555C9.67843 13.8696 9.70446 13.7895 9.65935 13.8047C9.55371 13.8406 9.44903 13.895 9.35662 13.96C9.31811 13.9877 9.41359 14.0106 9.36052 14.042C9.13597 14.1751 8.91458 14.3083 8.68084 14.4229C8.47214 14.5341 8.23238 14.5849 8.00017 14.5665C7.90486 14.559 7.81064 14.5404 7.72088 14.5108C7.66392 14.4911 7.65511 14.3499 7.54509 14.334C7.52284 14.366 7.506 14.4075 7.4865 14.4434C7.43843 14.424 7.39125 14.4011 7.34588 14.376C6.82588 14.0968 6.33991 13.7686 5.82927 13.4688C5.80678 13.4556 5.80949 13.5408 5.7658 13.5157C5.51251 13.3697 5.25613 13.2464 5.0324 13.0352C5.01017 13.0144 5.08637 12.9114 5.00115 12.8848C4.98601 12.8802 4.86286 12.8297 4.81951 12.837C4.81342 12.8404 4.80382 12.9011 4.76677 12.8819C4.54832 12.7675 4.33041 12.6274 4.13494 12.4737C4.10441 12.4488 4.17166 12.4147 4.14959 12.3965C3.9921 12.2677 3.77858 12.201 3.6408 12.0557C3.54913 11.9584 3.64424 11.8865 3.63884 11.7588C3.63805 11.7408 3.57072 11.6992 3.59783 11.6426C3.6673 11.4997 3.7875 11.3675 3.85759 11.2129C3.87186 11.1799 3.76128 11.1611 3.85857 11.1163C3.86531 11.1133 3.94738 11.1259 3.97869 11.1094C4.00029 11.0978 4.01158 11.031 4.04802 11.0215C4.08453 11.0121 4.08361 11.0731 4.13787 11.0684C4.19228 11.0633 4.21127 10.9906 4.29314 11.0274C4.483 11.1134 4.70889 11.2662 4.8742 11.3936C4.92605 11.4335 4.87835 11.4514 4.91326 11.4805C4.98155 11.5373 5.06217 11.5613 5.1281 11.6202C5.14892 11.6399 5.08711 11.677 5.11052 11.6963C5.23968 11.8022 5.38348 11.8657 5.52166 11.96C6.20205 12.4247 6.89117 12.846 7.5988 13.2832C7.68492 13.3364 7.77524 13.3989 7.86736 13.4629C7.90177 13.4946 7.95023 13.5186 8.00017 13.5215C8.03314 13.5236 8.06623 13.5169 8.09295 13.501C8.10516 13.4935 8.07799 13.4452 8.0783 13.4395C8.07975 13.3767 8.10312 13.4383 8.13103 13.461C8.13993 13.4637 8.14962 13.4641 8.16033 13.461C8.41137 13.385 8.66136 13.248 8.86443 13.1075C8.95021 13.0476 8.80522 13.0047 8.92693 13.0059C8.93535 13.0059 8.94187 13.0704 8.9699 13.0616C9.03333 13.0415 9.13465 12.9704 9.18084 12.9493C9.26986 12.9091 9.28424 12.9006 9.36443 12.8555C9.47427 12.7945 9.61827 12.7454 9.72869 12.667C9.75192 12.6502 9.69005 12.6175 9.7238 12.586C9.75865 12.5543 9.8677 12.4983 9.91033 12.4903C9.95262 12.4827 9.96119 12.5314 9.97283 12.5372C10.0698 12.5867 10.1285 12.4078 10.1428 12.3956C10.4028 12.1855 10.6845 12.1079 10.9533 11.9541C11.1572 11.8373 11.3639 11.6922 11.5597 11.584C11.7932 11.4554 12.0057 11.3716 12.2277 11.2383C12.2294 11.2373 12.2308 11.2358 12.2316 11.2344C12.2346 11.2215 12.1948 11.1763 12.2053 11.168C12.2393 11.1444 12.2688 11.1147 12.2922 11.0811C12.3175 11.0445 12.3359 11.0026 12.3469 10.9581C12.3756 10.8029 12.41 10.6483 12.4523 10.4952C12.4622 10.4615 12.5172 10.5143 12.5304 10.4805C12.6103 10.2728 12.778 9.95012 12.5275 9.78618C12.5578 9.64223 12.5935 9.46746 12.6652 9.34477C12.7114 9.26565 12.7667 9.35598 12.7521 9.24907C12.7488 9.22513 12.6864 9.24705 12.6857 9.21196C12.6842 9.06234 12.7256 8.90418 12.715 8.75493C12.7125 8.72474 12.6589 8.7255 12.6506 8.71586C12.5835 8.63513 12.7258 8.53503 12.7385 8.51079C12.8336 8.32602 12.8264 8.18069 12.8527 8.00004C12.8587 7.95827 12.781 7.99774 12.7844 7.95707C12.8028 7.74626 12.8393 7.52993 12.8986 7.32914C12.9122 7.28507 12.9663 7.33439 12.9758 7.31352C13.0162 7.2215 12.9055 7.18448 12.9426 7.09575C12.9503 7.07702 13.0008 7.09558 13.007 7.09282C13.1034 7.04942 12.9834 6.98345 12.9826 6.96879C12.9693 6.78319 13.1169 6.68565 13.1222 6.50883C13.1227 6.48768 13.0508 6.52538 13.0558 6.46684C13.0911 6.07348 13.1658 5.6621 13.2707 5.28227C13.2869 5.22328 13.3305 5.27253 13.3371 5.26957C13.439 5.22079 13.3187 5.16383 13.3166 5.1436C13.3035 4.98431 13.4289 4.85414 13.2931 4.72856C13.3095 4.6536 13.3238 4.57827 13.3371 4.50297C13.3558 4.41153 13.3356 4.31269 13.2863 4.23247C13.2371 4.15148 13.1599 4.08891 13.0715 4.05473C12.8103 3.95671 12.5536 3.84715 12.3107 3.70024C12.3039 3.69539 12.3381 3.64203 12.3234 3.63383C12.1464 3.53402 12.1502 3.63859 11.9855 3.70707C11.9441 3.72391 11.8967 3.55401 11.8918 3.54106C11.8741 3.49366 11.9359 3.41766 11.9289 3.40629C11.863 3.32023 11.7738 3.61683 11.6584 3.57622C11.6549 3.57446 11.6896 3.52544 11.6818 3.51664C11.6577 3.4893 11.6198 3.50048 11.5969 3.47172C11.5446 3.40523 11.5704 3.255 11.4386 3.30082C11.4218 3.30692 11.3827 3.47978 11.2824 3.43559C11.2419 3.41768 11.06 3.35584 11.0129 3.32719C10.9659 3.29852 11.0196 3.25754 11.0168 3.25395C10.9047 3.13521 10.9665 3.12452 10.9347 2.99614C10.9027 2.86795 10.8339 3.12191 10.7961 3.13969C10.7582 3.15698 10.6789 3.06417 10.6613 3.0352C10.6437 3.00626 10.6861 2.98311 10.6681 2.96391C10.5492 2.83829 10.5609 3.06433 10.4992 3.08696C10.3533 3.14015 10.3297 2.92587 10.2326 2.87114C10.2063 2.85638 10.214 2.9063 10.1877 2.90141C10.0838 2.88139 10.0442 2.80258 9.91326 2.81547C9.89062 2.81848 9.76262 2.89523 9.73259 2.79399C9.72872 2.77926 9.76775 2.74188 9.72966 2.71684C9.67217 2.67923 9.56151 2.6297 9.48845 2.62114C9.43506 2.61536 9.46576 2.70963 9.4113 2.66411C9.38721 2.64381 9.45386 2.61846 9.4074 2.58403C9.36083 2.54962 9.22631 2.50473 9.17498 2.48832C9.12406 2.47212 9.13143 2.53792 9.12615 2.54106C9.09367 2.55435 8.98698 2.54808 8.97771 2.54497C8.69396 2.44992 8.44014 2.31537 8.17791 2.20122C8.06872 2.15062 7.933 2.14529 7.81951 2.19731C7.81633 2.19869 7.81297 2.19979 7.80974 2.20122C7.77746 2.21534 7.82031 2.26875 7.8156 2.27153C7.71152 2.33623 7.7438 2.14392 7.64568 2.11821C7.70041 2.23669 7.64566 2.23182 7.57048 2.27348C7.53498 2.29373 7.57228 2.33381 7.57048 2.33989C7.53875 2.43143 7.46633 2.35236 7.44939 2.33696C7.38688 2.28038 7.37446 2.3776 7.3322 2.33989C7.29051 2.30238 7.32522 2.21349 7.2492 2.24125C7.2437 2.29279 7.33977 2.38679 7.28826 2.42582C7.09351 2.57344 6.65277 2.62872 6.47283 2.68168C6.2935 2.73453 6.23911 2.76285 6.13103 2.78325C5.93547 2.82007 6.03321 2.88139 5.93181 2.96098C5.83037 3.04015 5.81186 2.812 5.77947 2.7725C5.7473 2.7333 5.74597 2.78518 5.71697 2.76762C5.68843 2.74995 5.72076 2.70447 5.67009 2.71196C5.61918 2.71993 5.51799 2.8456 5.51775 2.89848C5.51752 3.01052 5.61244 3.09393 5.47381 3.10161C5.46589 3.10175 5.46979 3.0394 5.4406 3.04301C5.2056 3.07837 4.97537 3.15715 4.74236 3.19731C4.71091 3.20207 4.71588 3.13223 4.69744 3.13383C4.50044 3.15938 4.60206 3.2396 4.54216 3.38969C4.51087 3.22936 4.42242 3.15533 4.28338 3.20317C4.19959 3.23209 4.23686 3.29434 4.19939 3.3604C4.18763 3.37977 4.1131 3.35571 4.11345 3.39067C4.1145 3.50542 4.21025 3.60056 4.05095 3.60551C4.04401 3.60516 4.04408 3.54254 4.02166 3.54594C3.87334 3.57332 3.89351 3.68638 3.74627 3.75297C3.63077 3.80509 3.39618 3.81538 3.25701 3.85258C3.19934 3.6802 3.0857 3.76405 3.07537 3.90043C3.01597 3.9178 2.95531 3.94213 2.8947 3.96C2.87053 3.96674 2.84654 3.97356 2.82244 3.97954C2.79822 3.98567 2.78687 3.93319 2.78142 3.92875C2.68696 3.87912 2.72312 4.00554 2.71599 4.01762C2.6756 4.07256 2.63659 4.11678 2.60173 4.16508C2.54236 4.24589 2.49655 4.35461 2.55584 4.45805C2.55957 4.46553 2.68409 4.46406 2.59685 4.51079C2.59099 4.51414 2.54268 4.47966 2.53338 4.52153C2.53233 4.52931 2.53225 4.5393 2.53338 4.5518C2.54219 4.64947 2.49995 4.84194 2.57634 4.96879C2.59487 4.9995 2.70777 5.06769 2.63787 5.14457C2.62829 5.15487 2.59068 5.1506 2.57244 5.16606C2.51495 5.21571 2.64392 5.22128 2.54314 5.28422C2.44245 5.34722 2.37568 5.45847 2.46795 5.58403C2.47069 5.58805 2.57554 5.60672 2.58025 5.64946C2.58693 5.71804 2.57867 5.81854 2.58904 5.88969C2.59436 5.9226 2.65181 5.89391 2.65545 5.89848C2.7216 6.12303 2.68805 6.2941 2.69744 6.54301C2.69904 6.58861 2.80205 6.7065 2.74724 6.80278C2.68679 6.90854 2.36705 6.85241 2.4699 7.06254C2.51185 7.14719 2.91451 7.2069 2.73552 7.3936C2.82737 7.69606 2.76376 7.99649 2.87713 8.29692C2.8844 8.31058 2.99555 8.3396 2.9992 8.37211C3.00344 8.42113 2.95678 8.45506 2.95818 8.49028C2.9628 8.63803 3.02389 8.7659 3.03631 8.90727C3.04079 8.96038 2.98677 8.94915 2.99236 9.01274C2.99814 9.07661 3.0722 9.10984 3.05095 9.20024C3.03446 9.26875 2.90228 9.35384 2.89763 9.44243C3.03693 9.42679 3.04295 9.48566 3.09392 9.58598C3.10367 9.60503 3.14743 9.57822 3.15545 9.58598C3.18558 9.62147 3.15119 9.66305 3.18279 9.69633C3.19052 9.70444 3.23812 9.6989 3.24724 9.70512C3.32564 9.75823 3.23313 9.87627 3.21697 9.89653C3.15609 9.97378 3.22178 9.99709 3.20134 10.0528C3.18065 10.1086 3.13473 10.0356 3.12615 10.0987C3.10845 10.2294 3.13823 10.3904 3.15349 10.5186C3.16 10.5694 3.21849 10.5261 3.22088 10.5332C3.25129 10.6366 3.19909 10.7527 3.33318 10.794C3.0244 10.9089 3.35716 10.8557 3.33123 11.002C3.33061 11.0051 3.32923 11.0085 3.3283 11.0118C3.32485 11.0214 3.19456 11.0633 3.15154 11.0264C3.14846 11.0243 3.14573 11.0215 3.14373 11.0186C3.11521 10.976 3.15338 10.9002 3.10955 10.8418C3.09724 10.8274 2.94426 10.7629 2.93279 10.752C2.85186 10.6696 3.08095 10.6248 3.09295 10.6182C3.22147 10.5446 3.0518 10.4608 3.03728 10.4346C2.97081 10.315 2.98815 10.2035 2.93865 10.1026C2.90648 10.0365 2.75491 10.0501 2.75213 9.99516C2.74279 9.81259 2.94425 9.72042 2.73845 9.57524C2.69389 9.54484 2.5354 9.60272 2.64666 9.45512C2.65371 9.4458 2.75949 9.33203 2.67693 9.28618C2.66657 9.28046 2.6183 9.28782 2.61248 9.27934C2.57789 9.22073 2.61064 9.17364 2.58318 9.10844C2.55562 9.04324 2.51697 8.96531 2.52263 8.88579C2.52603 8.83782 2.60823 8.76559 2.62713 8.74028C2.6814 8.66871 2.56869 8.61492 2.63982 8.56547C2.71138 8.51584 2.8386 8.57676 2.8742 8.46684C2.74874 8.48005 2.61884 8.48906 2.49236 8.50004C2.46591 8.27317 2.47608 8.04468 2.43963 7.8184C2.43498 7.79036 2.37212 7.82772 2.36541 7.79789C2.33752 7.67216 2.37021 7.55417 2.33318 7.42485C2.30415 7.32478 2.2172 7.22254 2.18474 7.11821C2.31875 7.03347 2.24896 6.88166 2.24627 6.76469C2.24528 6.72372 2.28362 6.72087 2.29216 6.69047C2.32335 6.57609 2.20378 6.64419 2.17986 6.61723C2.07804 6.50156 2.36266 6.45092 2.33513 6.3018C2.3299 6.29237 2.16795 6.21818 2.15642 6.2061C2.08304 6.12956 2.20773 6.18431 2.21209 6.12993C2.21941 6.02989 2.24592 5.95667 2.18572 5.84868C2.16715 5.81701 2.06278 5.75006 2.12713 5.67582C2.1359 5.66629 2.1854 5.66424 2.18865 5.65727C2.22092 5.52689 2.06259 5.54468 1.9992 5.48149C1.93594 5.41803 2.0303 5.29318 2.05877 5.26664C2.1305 5.1993 2.10078 5.30282 2.10759 5.30864C2.2078 5.33268 2.1811 5.25541 2.18084 5.1934C2.33442 5.1634 2.31349 5.07953 2.17986 5.12895C2.16533 5.13448 2.18591 5.17989 2.18084 5.1934C2.02125 5.1607 1.98914 5.0701 2.11736 4.94731C2.17745 4.89 2.26054 4.92432 2.21209 4.78129C2.1898 4.717 2.08705 4.75697 2.04998 4.70219C2.0278 4.66939 2.01694 4.63218 2.01189 4.59282C1.98712 4.41141 2.06516 4.22423 2.11248 4.07622C2.13711 4.0014 2.05354 4.05003 2.07048 3.99614C2.08502 3.95241 2.10607 3.91278 2.13103 3.877C2.18925 3.79409 2.26232 3.73126 2.3283 3.64848C2.33705 3.63742 2.26936 3.61487 2.30584 3.5811C2.41834 3.47864 2.54927 3.40931 2.68572 3.36821C2.80501 3.33663 2.92544 3.30936 3.05388 3.26469C3.15774 3.22855 3.33179 3.13122 3.44158 3.09965C3.63171 3.04472 3.89126 3.04852 4.04314 2.97172C4.14192 2.92202 4.09904 2.8717 4.12908 2.81645C4.1875 2.70954 4.38704 2.7921 4.41619 2.80668C4.41706 2.80717 4.33285 2.85312 4.3908 2.86625C4.44045 2.91868 4.41528 2.80731 4.41619 2.80668C4.43449 2.81573 4.61809 2.76589 4.64959 2.74223C4.66579 2.72883 4.63647 2.67852 4.64568 2.6729C4.86678 2.53925 5.10067 2.44053 5.35173 2.3809C5.35637 2.38085 5.37138 2.44244 5.38201 2.44243C5.53178 2.42042 5.59484 2.31325 5.69451 2.22758C5.79419 2.14194 5.8914 2.12517 5.99724 2.20707C6.07969 2.16294 6.22187 2.16595 6.30388 2.16899C6.38532 2.17156 6.35309 2.04762 6.35857 2.04301C6.5291 1.8973 6.6676 1.92587 6.87615 1.8643C6.97543 1.8352 7.16302 1.74966 7.26384 1.69926C7.34336 1.65935 7.40342 1.66917 7.4738 1.62407C7.48258 1.61762 7.45523 1.57059 7.45623 1.56547C7.51928 1.4712 7.52406 1.61656 7.54998 1.63383C7.58316 1.6558 7.6118 1.67381 7.63884 1.68461C7.71305 1.69678 7.77742 1.68577 7.89373 1.64555C7.92898 1.63043 8.06639 1.42726 8.16912 1.43071ZM3.87908 11.8565C3.81732 11.9033 3.91329 11.9651 3.92888 11.8887C3.92838 11.8851 3.88273 11.8554 3.87908 11.8565ZM3.3781 11.3038C3.38115 11.1726 3.48126 11.1219 3.53435 11.1983C3.54105 11.2069 3.54782 11.2172 3.55486 11.2295C3.56775 11.2516 3.50593 11.2392 3.4699 11.2413C3.45818 11.2424 3.44905 11.2468 3.44744 11.2569C3.44706 11.2595 3.44771 11.2631 3.44841 11.2666C3.48026 11.3806 3.63369 11.2985 3.66228 11.417C3.67437 11.4453 3.47544 11.5005 3.45818 11.4825H3.45916C3.40336 11.4298 3.37797 11.3601 3.3781 11.3038ZM3.05193 9.8936C3.08937 9.85424 3.02689 9.76505 2.97966 9.81352C2.94157 9.85274 3.00457 9.94242 3.05193 9.8936ZM2.8449 8.96196C2.90695 8.84476 2.59083 8.8708 2.67009 8.97661C2.6746 8.98278 2.84126 8.96882 2.8449 8.96196ZM2.64373 8.0225C2.72912 7.91767 2.57683 7.87536 2.50994 7.95024C2.44363 8.02496 2.61784 8.05441 2.64373 8.0225ZM12.6037 3.74516C12.7065 3.65825 12.4605 3.55871 12.4748 3.6934C12.4808 3.70207 12.5978 3.74913 12.6037 3.74516ZM10.3097 2.7686C10.3274 2.71028 10.267 2.70746 10.2658 2.76665C10.2664 2.77035 10.3042 2.78642 10.3097 2.7686ZM6.85759 2.40434C6.86255 2.32732 6.75366 2.36015 6.80095 2.42192C6.80682 2.42285 6.8573 2.40744 6.85759 2.40434Z" fill="#555961"/>
<path d="M7.78808 4.58766C7.85339 4.36378 8.11391 4.37604 8.21191 4.58766C8.2143 4.62925 8.21132 4.67291 8.20019 4.7195C8.19962 4.72243 8.1397 4.7399 8.13769 4.74587C8.1263 4.81592 8.21379 4.77115 8.33984 4.76735C8.37153 4.76644 8.2472 4.84601 8.23828 4.85231C8.20511 4.87536 8.11426 4.89828 8.10839 4.90407V4.90505H8.16699C8.24139 4.88647 8.35598 4.8519 8.36425 4.8738C8.36256 4.87548 8.30881 4.89041 8.30468 4.89528C8.30107 4.89957 8.30315 4.90234 8.30371 4.90505H8.63476C8.63141 5.02382 8.52172 5.10174 8.47167 5.2029C8.46405 5.2183 8.51427 5.22215 8.50683 5.24587C8.48757 5.304 8.47334 5.39524 8.43164 5.46266C8.4348 5.46376 8.43741 5.46761 8.4414 5.46852C8.45202 5.47095 8.57269 5.45751 8.49902 5.50563C8.48836 5.51253 8.43993 5.52215 8.43457 5.53884C8.42653 5.5637 8.42942 5.6019 8.45214 5.61696C8.46909 5.62798 8.53732 5.58243 8.52148 5.61013C8.51431 5.62251 8.46517 5.62351 8.45507 5.64528C8.44518 5.66718 8.46239 5.70748 8.46972 5.72243C8.47736 5.73699 8.53087 5.70699 8.53515 5.70681C8.55966 5.70632 8.59786 5.7253 8.5996 5.72829C8.65618 5.85807 8.60568 6.01651 8.68554 6.13356C8.69174 6.14278 8.74941 6.11383 8.75097 6.11501C8.78888 6.14021 8.61965 6.17244 8.57519 6.21657C8.69535 6.16753 8.67875 6.19035 8.70117 6.20974C8.71211 6.21905 8.75747 6.19484 8.76269 6.19411C8.83997 6.18496 8.75207 6.23176 8.73437 6.24196C8.6698 6.27933 8.75635 6.26163 8.71289 6.28688C8.66966 6.31197 8.59485 6.3195 8.60449 6.34255C8.65043 6.33264 8.75648 6.2729 8.78222 6.28298C8.8769 6.32376 8.83506 6.48205 8.8457 6.53981C8.85661 6.5971 8.87117 6.61193 8.86718 6.64919C8.86005 6.71633 8.93744 6.66368 8.98925 6.68434C9.03994 6.70515 8.82787 6.76589 8.78417 6.78786C8.7414 6.80958 8.78882 6.79786 8.7666 6.81325C8.74444 6.82856 8.70901 6.82671 8.70507 6.8445C8.70131 6.86247 8.79609 6.87249 8.84472 6.86013C8.94747 6.83393 9.04402 6.77732 9.02246 6.82888C9.02112 6.8319 8.96429 6.84569 8.96191 6.85622C8.94508 6.93907 8.96795 7.00968 8.95605 7.09059C8.95431 7.10177 8.89037 7.11703 8.88867 7.1238C8.8712 7.19375 8.96667 7.1358 9.09179 7.1238C8.93771 7.17372 8.85118 7.22553 8.86621 7.26833C8.87566 7.29341 8.93964 7.26447 8.99218 7.26345C9.0081 7.26313 8.9696 7.29821 9.00195 7.28981C9.10755 7.26249 9.21501 7.2031 9.18652 7.26345C9.1851 7.26615 9.12775 7.28089 9.12597 7.28884C9.11999 7.34001 9.22851 7.30589 9.25878 7.34743C9.28186 7.38021 9.24237 7.46817 9.24707 7.51345C9.07645 7.57643 9.1296 7.60117 9.25292 7.57302C9.25816 7.60154 9.27577 7.62809 9.26953 7.65993C9.26735 7.67088 9.21632 7.68406 9.21093 7.68727C9.13407 7.73574 9.25145 7.70488 9.25878 7.70876C9.32589 7.75526 9.25909 7.83873 9.36621 7.86696C9.37535 7.86598 9.48718 7.82871 9.40917 7.87575C9.40361 7.87902 9.34222 7.87919 9.34863 7.90895C9.35503 7.93872 9.31146 8.01531 9.38085 8.03395C9.39761 8.03848 9.50239 8.02661 9.43457 8.07399C9.42526 8.08038 9.39051 8.09057 9.37304 8.10134C9.31746 8.13582 9.43907 8.09802 9.34277 8.15016C9.24671 8.20225 9.18183 8.26002 9.2666 8.27321C9.26992 8.27348 9.36697 8.24759 9.37011 8.26052C9.37492 8.28129 9.36671 8.31629 9.375 8.33669C9.3789 8.34614 9.43129 8.31976 9.43652 8.31911C9.4945 8.3734 9.45986 8.44131 9.46386 8.52126C9.46558 8.53579 9.55851 8.5437 9.50488 8.59255C9.44504 8.64641 9.14666 8.72635 9.23925 8.76442C9.27645 8.77989 9.6556 8.67531 9.48339 8.79274C9.56345 8.86505 9.49781 8.98474 9.59863 9.04958C9.60447 9.05211 9.71072 9.0269 9.71289 9.03688C9.71521 9.05193 9.67026 9.07744 9.67089 9.08864C9.6724 9.13635 9.72835 9.15971 9.7373 9.2029C9.74079 9.2192 9.6896 9.23232 9.69335 9.25173C9.69756 9.27122 9.76717 9.25982 9.74511 9.29665C9.7274 9.3247 9.60344 9.39269 9.59667 9.4236C9.72766 9.37562 9.73144 9.39429 9.77734 9.41188C9.78627 9.41525 9.83033 9.39164 9.83691 9.39235C9.86406 9.39504 9.83081 9.41952 9.86035 9.42067C9.86817 9.42064 9.91261 9.40378 9.92089 9.40309C9.99298 9.39684 9.90329 9.46462 9.88769 9.47634C9.82914 9.52064 9.88993 9.50842 9.87011 9.53298C9.84953 9.55794 9.80813 9.54841 9.79882 9.57204C9.77981 9.62088 9.80454 9.66503 9.8164 9.7029C9.82142 9.71794 9.87777 9.68564 9.87988 9.68727C9.90586 9.71237 9.85468 9.7665 9.97949 9.73903C9.68001 9.87554 10.0157 9.74699 9.97167 9.81325C9.96798 9.81858 9.82324 9.87806 9.79687 9.87282C9.77103 9.86739 9.80867 9.82986 9.76855 9.82399C9.75833 9.82273 9.61303 9.84871 9.60351 9.84841C9.52933 9.84586 9.74541 9.76055 9.75683 9.75466C9.87959 9.69036 9.72118 9.71493 9.708 9.71071C9.64796 9.69141 9.66677 9.64887 9.62207 9.63063C9.59313 9.61863 9.45067 9.67003 9.44824 9.65309C9.443 9.59522 9.63445 9.50207 9.44335 9.51735C9.40195 9.52099 9.25138 9.5893 9.35937 9.50563C9.36623 9.50033 9.46767 9.42989 9.39062 9.4402C9.38082 9.44161 9.337 9.45848 9.33105 9.45778C9.29969 9.44899 9.33088 9.42317 9.30664 9.40993C9.28191 9.39673 9.24692 9.38254 9.2539 9.35427C9.25865 9.33706 9.33627 9.28839 9.35449 9.27419C9.40732 9.23348 9.30206 9.25015 9.37011 9.21169C9.43852 9.17306 9.5571 9.1538 9.59277 9.10622C9.47429 9.14938 9.35182 9.19239 9.23242 9.23513C9.21209 9.16792 9.2261 9.08906 9.19628 9.02516C9.19246 9.01728 9.13187 9.04948 9.12597 9.04177C9.10209 9.00865 9.13539 8.95914 9.10351 8.92751C9.07818 8.90312 8.9983 8.89558 8.96972 8.87087C9.09771 8.80123 9.03439 8.77226 9.03417 8.73415C9.03409 8.72083 9.07046 8.70783 9.0791 8.69509C9.11042 8.64777 8.99865 8.7066 8.97558 8.70583C8.88152 8.69888 9.14999 8.59364 9.12695 8.55251C9.12088 8.55124 8.97171 8.57637 8.96093 8.57595C8.8935 8.57316 9.00876 8.55333 9.01464 8.53395C9.02349 8.4984 9.04974 8.46535 8.99511 8.44802C8.9777 8.44335 8.8817 8.45329 8.94335 8.40895C8.95152 8.40308 8.99986 8.38661 9.00195 8.38356C9.03493 8.33015 8.88454 8.38513 8.82617 8.38356C8.7682 8.38184 8.8594 8.31133 8.88671 8.29372C8.95725 8.24803 8.92472 8.29466 8.93261 8.29274C9.02633 8.26981 9.00197 8.25176 9.00292 8.23122C9.14852 8.1737 9.13086 8.15294 9.0039 8.21071C8.99018 8.21701 9.00769 8.22516 9.00292 8.23122C8.85323 8.26963 8.82503 8.25017 8.94824 8.1697C9.00599 8.13202 9.08391 8.11737 9.04101 8.08474C9.02119 8.07029 8.9235 8.11494 8.88964 8.10817C8.81253 8.09259 8.88691 8.00728 8.85742 7.97243C8.84654 7.95982 8.79644 7.994 8.7871 7.9861C8.76276 7.96513 8.79477 7.92657 8.76367 7.90798C8.75959 7.907 8.70497 7.93347 8.70117 7.92556C8.67117 7.86539 8.68751 7.79701 8.66406 7.73122C8.65264 7.69935 8.59964 7.65415 8.59375 7.61891C8.58346 7.55798 8.64098 7.45671 8.60253 7.41579C8.57756 7.389 8.52206 7.41751 8.47753 7.41872C8.39154 7.42117 8.50984 7.32404 8.52929 7.30934C8.52992 7.30889 8.55391 7.3309 8.57812 7.30544C8.63686 7.27376 8.52968 7.30955 8.52929 7.30934C8.54141 7.30013 8.53456 7.24112 8.51953 7.23415C8.51127 7.23054 8.45736 7.254 8.4541 7.25173C8.37797 7.19737 8.33713 7.12991 8.33496 7.04665C8.33555 7.045 8.39229 7.02515 8.39746 7.02028C8.40869 6.96727 8.32341 6.96757 8.26562 6.94899C8.20819 6.93039 8.21324 6.89695 8.31054 6.83669C8.2873 6.81504 8.31885 6.75891 8.33886 6.72634C8.35876 6.69385 8.23858 6.73612 8.23535 6.73513C8.13733 6.7032 8.19227 6.64238 8.17968 6.57595C8.17379 6.54422 8.13451 6.49096 8.10937 6.46364C8.09325 6.44614 8.10327 6.42687 8.09375 6.41091C8.08794 6.45628 8.0571 6.50085 8.02539 6.53395C8.01242 6.54658 7.96854 6.51818 7.96289 6.51735C7.87203 6.50396 7.97998 6.55683 7.98632 6.56618C8.0123 6.61898 7.94837 6.62778 7.94921 6.66774C7.94941 6.6788 8.00655 6.69328 8.01074 6.69704C8.05092 6.73471 7.95797 6.68268 7.94238 6.69118C7.89858 6.71479 7.88818 6.75558 7.88183 6.79372C7.87958 6.8078 7.94885 6.8175 7.94628 6.82985C7.93118 6.90355 7.89752 6.97338 7.83691 7.02809C7.82544 7.03825 7.78014 7.01237 7.76757 7.01052C7.68224 6.99946 7.77923 7.06691 7.7871 7.07692C7.82231 7.12186 7.77614 7.11701 7.77441 7.14431C7.7692 7.28092 7.68381 7.42106 7.62304 7.52907C7.54423 7.66966 7.45438 7.76802 7.41308 7.91481C7.41039 7.92414 7.479 7.93967 7.47753 7.94802C7.45548 8.05472 7.39205 8.14463 7.37304 8.2527C7.37296 8.26148 7.4381 8.27309 7.4375 8.28786C7.43654 8.31849 7.42047 8.35175 7.39062 8.37184C7.37605 8.38173 7.32901 8.34391 7.31542 8.35427C7.28397 8.37825 7.26693 8.41018 7.26464 8.44606C7.26383 8.46148 7.33509 8.46498 7.3291 8.48317C7.28964 8.60751 7.25512 8.73145 7.12695 8.82399C7.11616 8.82945 6.98827 8.78979 7.00488 8.81618C7.04008 8.83093 7.08216 8.84717 7.12011 8.86208C7.07406 9.04729 6.96334 9.2062 6.88964 9.38161C6.88655 9.38902 6.95974 9.40229 6.9541 9.41677C6.92157 9.50052 6.90956 9.58951 6.80957 9.65016C6.79857 9.65556 6.68186 9.60671 6.69042 9.63845C6.69207 9.64412 6.69351 9.68819 6.71582 9.70778C6.71921 9.71056 6.77712 9.72435 6.77539 9.73708C6.75726 9.81128 6.71606 9.88117 6.65527 9.93923C6.64518 9.94836 6.59057 9.91423 6.583 9.92067C6.52974 9.96655 6.55111 10.0458 6.47656 10.0808C6.42629 10.1041 6.32841 10.0524 6.21972 10.034C6.20437 10.0314 6.19325 10.053 6.13378 10.032C5.98431 9.97941 5.82583 9.90805 5.66601 9.85329C5.63158 9.84148 5.65651 9.88565 5.58105 9.83669C5.57602 9.83336 5.55705 9.80091 5.53125 9.78493C5.51336 9.77388 5.45051 9.75803 5.42871 9.74098C5.40724 9.7241 5.46025 9.73423 5.43652 9.71071C5.41194 9.6868 5.3412 9.66624 5.34277 9.63747C5.34703 9.57097 5.39624 9.50033 5.44531 9.45095C5.46063 9.43541 5.49458 9.45811 5.50683 9.44802C5.53022 9.42824 5.52143 9.39798 5.54785 9.37966C5.55783 9.37461 5.61213 9.40594 5.62011 9.39919C5.66359 9.36159 5.66585 9.31153 5.69628 9.26833C5.84676 9.05506 5.95567 8.8306 6.07226 8.60134C6.11067 8.5257 6.20077 8.44945 6.208 8.35915C6.20876 8.34894 6.15795 8.33575 6.15136 8.33181C6.09671 8.2789 6.19693 8.3266 6.21777 8.31325C6.30015 8.2602 6.33615 8.18063 6.34277 8.10231C6.34542 8.06897 6.23134 8.06023 6.2998 8.05153C6.30449 8.05089 6.35724 8.07909 6.36621 8.07302C6.38603 8.05905 6.38975 8.02056 6.39941 8.00759C6.41852 7.98291 6.42019 7.97797 6.43066 7.95192C6.44556 7.91625 6.48901 7.88307 6.49121 7.83962C6.49149 7.83031 6.43092 7.82016 6.42578 7.80349C6.42117 7.78666 6.43932 7.75269 6.45703 7.74587C6.47482 7.73919 6.51741 7.76076 6.52832 7.76247C6.62012 7.77727 6.5166 7.6926 6.51562 7.6863C6.50136 7.57271 6.59948 7.51661 6.63281 7.42751C6.65791 7.3597 6.66322 7.27887 6.69042 7.21559C6.72307 7.14028 6.77708 7.08608 6.7998 7.00954C6.80041 7.0014 6.73349 6.9861 6.73632 6.97634C6.76691 6.87137 6.81171 6.77215 6.89453 6.68727C6.90343 6.67946 6.95582 6.71368 6.96777 6.70681C7.0389 6.66239 7.1907 6.60715 6.95214 6.47536C6.97788 6.43682 7.00704 6.38855 7.07226 6.36989C7.11413 6.35811 7.16778 6.40553 7.15234 6.36599C7.14888 6.35705 7.09182 6.34462 7.08984 6.33278C7.08551 6.28253 7.12027 6.24215 7.10742 6.18923C7.10362 6.17862 7.05616 6.16298 7.04687 6.157C6.98202 6.10938 7.11448 6.12013 7.12597 6.11599C7.21164 6.08396 7.20156 6.03304 7.22265 5.98122C7.22758 5.96926 7.15706 5.95843 7.1582 5.94606C7.17145 5.88163 7.20103 5.82073 7.25292 5.77224C7.26455 5.76159 7.31601 5.79416 7.32519 5.79079C7.36197 5.77276 7.25739 5.72596 7.29003 5.70778C7.29691 5.70391 7.34485 5.72536 7.35058 5.72634C7.43791 5.74121 7.33311 5.68629 7.32617 5.67849C7.31 5.61267 7.44527 5.62503 7.44726 5.56813C7.44731 5.56129 7.38217 5.55162 7.38476 5.53395C7.4077 5.4264 7.46067 5.32389 7.5371 5.2361C7.52956 5.22186 7.5194 5.20783 7.47851 5.20583C7.46497 5.20525 7.35677 5.2211 7.42675 5.17556C7.43872 5.16834 7.48905 5.15515 7.49121 5.14431C7.50174 5.09191 7.45169 5.05962 7.46972 5.00368C7.47631 4.98401 7.5583 4.96205 7.57421 4.93825C7.58031 4.92879 7.58276 4.91621 7.58398 4.90505H7.63964C7.68525 4.79749 7.71365 4.68382 7.78808 4.58766ZM9.91015 9.99098C9.89559 9.91808 10.1254 9.78393 10.126 9.86891C10.126 9.88435 10.0372 9.86971 10.0215 9.89528C9.99341 9.94174 10.1545 9.90441 10.084 9.96755C10.0714 9.97873 9.91943 9.99413 9.91015 9.99098ZM6.21582 9.94802C6.27904 9.98158 6.2965 9.95039 6.2246 9.93141C6.22159 9.93109 6.21323 9.94661 6.21582 9.94802ZM9.73242 9.52712C9.76907 9.5023 9.71159 9.49139 9.66601 9.52223C9.62975 9.54696 9.68692 9.55791 9.73242 9.52712ZM9.38476 9.03005C9.46737 8.96874 9.32433 9.0011 9.25976 9.04665C9.19536 9.09219 9.35957 9.0487 9.38476 9.03005ZM8.67285 6.45583C8.60303 6.47195 8.60948 6.50689 8.67578 6.47438C8.67827 6.47301 8.67564 6.45684 8.67285 6.45583ZM8.1748 6.26931C8.16789 6.26682 8.09941 6.27974 8.04003 6.29079C8.03517 6.31436 8.03074 6.33812 8.03222 6.36403C8.0327 6.37105 8.05348 6.37637 8.07128 6.38259C8.08798 6.3764 8.10343 6.37189 8.10937 6.36794C8.18619 6.31685 8.22654 6.28793 8.1748 6.26931ZM7.43554 4.90505C7.40585 4.91495 7.38127 4.92135 7.37304 4.91286C7.37057 4.91018 7.36751 4.9078 7.36523 4.90505H7.43554ZM7.55566 4.87087C7.58148 4.87269 7.58585 4.88796 7.58398 4.90505H7.43554C7.47814 4.89084 7.5305 4.86913 7.55566 4.87087ZM8.11718 4.65505C8.00073 4.67617 8.01772 4.75681 8.12597 4.69704C8.13124 4.69338 8.12305 4.65481 8.11718 4.65505Z" fill="#555961"/>
<path d="M6.69206 7.92458C6.70701 7.90504 6.72698 7.92617 6.74187 7.95485C6.74613 7.96443 6.74386 8.00168 6.74675 8.01051C6.75303 8.02591 6.75911 8.00712 6.76531 8.02516C6.76733 8.03134 6.7653 8.09228 6.76726 8.09938C6.77911 8.12721 6.79041 8.11138 6.80242 8.12477C6.86147 8.1907 6.9194 8.2143 6.97917 8.24293C6.99891 8.25234 7.02324 8.30992 7.04363 8.28493C7.04588 8.2812 7.04423 8.22873 7.0446 8.22243C7.05171 8.15268 7.04973 8.26424 7.05437 8.27907C7.07275 8.33733 7.09333 8.34236 7.11101 8.32106C7.11839 8.31109 7.1113 8.20246 7.11882 8.26344C7.11935 8.26759 7.1168 8.32607 7.11882 8.33278C7.12344 8.34666 7.13267 8.33643 7.1364 8.34059C7.1434 8.34985 7.14443 8.34969 7.15105 8.35036C7.16004 8.35177 7.17069 8.38056 7.18035 8.36793C7.18239 8.36496 7.18015 8.30596 7.18328 8.29469C7.18658 8.28447 7.19497 8.2893 7.19792 8.30348C7.20085 8.31778 7.20033 8.36493 7.20085 8.37575C7.20508 8.46539 7.21489 8.34499 7.21648 8.33766C7.24023 8.28426 7.26059 8.35642 7.28288 8.35622C7.29969 8.35566 7.31767 8.33162 7.33367 8.33473C7.35272 8.33883 7.3689 8.37103 7.38738 8.36598C7.38934 8.36546 7.3879 8.2945 7.39031 8.29372C7.41568 8.28573 7.44121 8.2941 7.46648 8.34157C7.46879 8.34823 7.46593 8.40835 7.46843 8.41676C7.48403 8.46783 7.508 8.59045 7.51726 8.32008C7.52782 8.33064 7.54101 8.34174 7.55046 8.39626C7.5565 8.4314 7.5508 8.49832 7.55828 8.4695C7.55977 8.46107 7.55776 8.40433 7.56023 8.39918C7.57088 8.37751 7.58192 8.39647 7.59245 8.36598C7.5946 8.35961 7.59478 8.30621 7.59538 8.29665C7.60049 8.22001 7.60916 8.34791 7.61101 8.35719C7.62506 8.42598 7.63502 8.39855 7.64812 8.40016C7.65045 8.39513 7.6477 8.33364 7.65007 8.3279C7.66528 8.31768 7.68107 8.32367 7.69597 8.35524C7.69925 8.36236 7.69647 8.4217 7.69792 8.42946C7.70491 8.45762 7.70685 8.34314 7.71355 8.36793C7.71492 8.37336 7.7143 8.4237 7.71453 8.43043C7.71856 8.52011 7.72228 8.3932 7.72331 8.3904C7.7364 8.35271 7.74484 8.48434 7.75749 8.46559C7.75864 8.45928 7.75547 8.39871 7.75945 8.39528C7.78785 8.37711 7.81825 8.39537 7.84636 8.44801C7.85046 8.45713 7.84707 8.50548 7.84734 8.51149C7.85176 8.60519 7.85468 8.48226 7.85613 8.47438C7.86737 8.43979 7.87778 8.54627 7.88542 8.3943C7.93301 8.447 7.98081 8.3621 8.028 8.49782C8.02859 8.49937 8.02787 8.56061 8.02898 8.5652C8.0434 8.60048 8.03994 8.503 8.04949 8.38356C8.05189 8.35365 8.05958 8.49799 8.06023 8.50856C8.06256 8.54734 8.06046 8.6396 8.06121 8.64821C8.06768 8.70687 8.06634 8.40417 8.07488 8.39821C8.07515 8.39872 8.07414 8.45603 8.07488 8.46168C8.07717 8.47906 8.07947 8.45682 8.08171 8.47633C8.08684 8.52173 8.08854 8.67108 8.09636 8.58473C8.09736 8.57338 8.0963 8.39774 8.10417 8.40602C8.10745 8.40933 8.12079 8.40655 8.12468 8.41774C8.12857 8.42909 8.12636 8.4856 8.12663 8.48805C8.13708 8.56263 8.13314 8.59364 8.13835 8.70387C8.1436 8.81409 8.14207 8.55157 8.14421 8.52223C8.14636 8.49327 8.15402 8.55434 8.15593 8.57594C8.1578 8.59716 8.15533 8.63278 8.15691 8.64528C8.16803 8.72456 8.16203 8.51513 8.1657 8.4734C8.17433 8.37467 8.18123 8.56954 8.18913 8.58864C8.19122 8.59366 8.18941 8.55164 8.19109 8.54567C8.19861 8.52986 8.20306 8.58988 8.2116 8.53493C8.213 8.52585 8.22077 8.40842 8.22527 8.49391C8.2259 8.50632 8.224 8.55529 8.22722 8.56618C8.23203 8.58239 8.24063 8.59306 8.24578 8.57692C8.24958 8.56491 8.2449 8.48486 8.24968 8.50954C8.25181 8.52064 8.24763 8.56778 8.25163 8.58473C8.25565 8.60149 8.26632 8.59904 8.27019 8.59743C8.27363 8.5927 8.27184 8.535 8.27214 8.53102C8.27406 8.50773 8.2812 8.47845 8.28191 8.47829C8.31496 8.47089 8.34544 8.5731 8.37761 8.53981C8.38005 8.53733 8.37933 8.47763 8.37956 8.47243C8.38823 8.4456 8.38133 8.61564 8.38738 8.67262C8.3865 8.54268 8.39006 8.56578 8.39617 8.55153C8.39893 8.54339 8.39688 8.4941 8.39714 8.48903C8.40149 8.41319 8.40515 8.51183 8.40593 8.532C8.40882 8.60598 8.41178 8.51852 8.41374 8.56813C8.41567 8.61667 8.41122 8.68799 8.41667 8.68922C8.4183 8.64265 8.41422 8.52168 8.41863 8.50172C8.43531 8.42757 8.46656 8.5213 8.48015 8.532C8.49358 8.54188 8.49772 8.53384 8.50554 8.55055C8.5197 8.58095 8.51433 8.49027 8.52312 8.44899C8.53182 8.40937 8.52774 8.62936 8.52898 8.67751C8.53022 8.72519 8.53231 8.67668 8.53386 8.7029C8.53536 8.72904 8.5322 8.76146 8.53581 8.77126C8.53956 8.77837 8.54919 8.69545 8.55046 8.64626C8.55318 8.54058 8.54867 8.42955 8.55828 8.46852C8.55882 8.47082 8.55718 8.52856 8.55925 8.53493C8.57605 8.57985 8.59325 8.58309 8.61003 8.62282C8.6122 8.62981 8.61066 8.69312 8.61199 8.69704C8.6259 8.73808 8.62094 8.62897 8.62859 8.50758C8.62687 8.6692 8.63069 8.76818 8.64128 8.7693C8.64766 8.76993 8.64692 8.69899 8.65105 8.64918C8.65232 8.63493 8.65609 8.68224 8.65691 8.64918C8.65958 8.54089 8.65583 8.41997 8.66667 8.46754C8.66715 8.46983 8.66606 8.5285 8.66765 8.53297C8.67837 8.55655 8.6795 8.44322 8.69109 8.42946C8.7001 8.41906 8.71591 8.4866 8.72624 8.49879C8.72603 8.6805 8.73594 8.63951 8.73992 8.51442C8.74655 8.51932 8.75401 8.51221 8.76042 8.52907C8.76264 8.53494 8.76114 8.58724 8.7614 8.59352C8.76565 8.68143 8.76872 8.56457 8.77019 8.55641C8.7859 8.50991 8.79914 8.60187 8.81413 8.51149C8.81467 8.50458 8.81507 8.38356 8.81902 8.47438C8.81926 8.48089 8.81491 8.5383 8.82195 8.54274C8.82907 8.54905 8.84161 8.61372 8.85124 8.55641C8.85361 8.54234 8.86011 8.43998 8.86492 8.5193C8.86555 8.53012 8.86499 8.56645 8.86589 8.58668C8.86888 8.65085 8.8702 8.52397 8.8737 8.63161C8.87722 8.74011 8.88434 8.8217 8.89421 8.74684C8.89456 8.74241 8.89711 8.64818 8.90007 8.64528C8.90503 8.64792 8.91247 8.66938 8.91765 8.66872C8.91998 8.66773 8.91835 8.60957 8.91863 8.60426C8.93529 8.56904 8.94765 8.62486 8.9655 8.64918C8.96908 8.64747 8.97796 8.57053 8.98406 8.63551C8.99101 8.70963 8.98375 9.01784 8.99968 8.94508C9.00613 8.91568 9.01446 8.52447 9.02605 8.72731C9.0485 8.6771 9.06897 8.78004 9.09148 8.70876C9.09248 8.70562 9.09594 8.5987 9.09831 8.59743C9.10173 8.59976 9.10372 8.64776 9.10613 8.65407C9.11671 8.66945 9.12717 8.62579 9.13738 8.63258C9.14121 8.63536 9.13961 8.68823 9.14421 8.69118C9.14881 8.69389 9.15166 8.62501 9.15788 8.65797C9.16261 8.68355 9.16725 8.82574 9.17351 8.84254C9.17375 8.70235 9.17855 8.70475 9.1862 8.66774C9.18754 8.65922 9.18552 8.61202 9.1862 8.60622C9.18903 8.58117 9.19231 8.6213 9.19499 8.5945C9.19564 8.58801 9.19546 8.54099 9.19597 8.532C9.20052 8.46149 9.20835 8.56891 9.20964 8.58766C9.21457 8.65874 9.2166 8.59674 9.22038 8.62477C9.22411 8.65278 9.21891 8.68787 9.22331 8.70485C9.23246 8.73976 9.24432 8.73195 9.25359 8.73415C9.25662 8.72991 9.25414 8.67269 9.25456 8.66969C9.26222 8.6535 9.26984 8.72124 9.2741 8.5945C9.27939 8.92228 9.27884 8.56377 9.28972 8.6277C9.29058 8.63303 9.29206 8.78942 9.28874 8.81227C9.28543 8.83422 9.28062 8.78661 9.27605 8.82204C9.27486 8.83314 9.2681 8.97638 9.26726 8.98512C9.26063 9.05286 9.2598 8.82112 9.25945 8.80836C9.25545 8.6706 9.24778 8.82778 9.24578 8.83864C9.2366 8.88819 9.22904 8.85589 9.22136 8.89137C9.21639 8.9152 9.21553 9.06594 9.2116 9.06129C9.19873 9.04279 9.19455 8.83557 9.1823 9.01833C9.17967 9.05803 9.18201 9.22325 9.17253 9.09254C9.17177 9.08142 9.16483 8.96606 9.16081 9.04079C9.16031 9.05054 9.16051 9.09922 9.15984 9.10329C9.15535 9.12896 9.15205 9.09071 9.14714 9.10915C9.14222 9.12766 9.13616 9.1549 9.13054 9.13844C9.12716 9.12736 9.12239 9.03834 9.12078 9.01637C9.1162 8.95269 9.1119 9.0568 9.10906 8.98024C9.1062 8.90262 9.11168 8.78429 9.10417 8.73415C9.1039 8.86024 9.10267 8.99015 9.10222 9.11696C9.08589 9.11208 9.06978 9.07139 9.05339 9.07692C9.05146 9.07925 9.05361 9.14562 9.05144 9.14821C9.04219 9.15894 9.03369 9.11044 9.0241 9.12965C9.01667 9.14481 9.0094 9.21704 9.00163 9.23512C8.99691 9.09127 8.98461 9.1395 8.97624 9.12672C8.97333 9.1222 8.9734 9.08392 8.97136 9.07106C8.96351 9.02469 8.96762 9.15107 8.9655 9.17165C8.95625 9.25728 8.95493 8.9692 8.94402 8.97633C8.94311 8.98494 8.93724 9.12787 8.9362 9.13942C8.93008 9.20135 8.93501 9.08799 8.93132 9.07497C8.92426 9.0542 8.9191 9.0173 8.91081 9.06227C8.9084 9.07561 8.90281 9.17142 8.89812 9.09743C8.89751 9.08785 8.89761 9.03815 8.89714 9.03395C8.88815 8.98433 8.88763 9.14386 8.88249 9.19801C8.87735 9.25209 8.86947 9.14196 8.86785 9.11012C8.86367 9.02883 8.87136 9.0739 8.87175 9.06715C8.87443 8.97135 8.86836 8.98724 8.86394 8.97926C8.8633 8.82262 8.85682 8.832 8.85906 8.97145C8.85931 8.98668 8.86305 8.97211 8.86394 8.97926C8.86005 9.13296 8.8529 9.15219 8.84538 9.00856C8.84191 8.94134 8.8453 8.8637 8.83464 8.89235C8.83 8.90697 8.83196 9.01205 8.82781 9.04176C8.81805 9.10877 8.80467 9.00865 8.7946 9.02418C8.79095 9.02994 8.79515 9.08951 8.79265 9.09547C8.78603 9.11127 8.77977 9.06703 8.77312 9.08961C8.77254 9.09167 8.77391 9.14928 8.77214 9.15407C8.75645 9.16124 8.74263 9.122 8.72624 9.12086C8.71832 9.12036 8.70418 9.15409 8.69597 9.14723C8.68178 9.13516 8.66413 9.04638 8.65203 9.06813C8.64414 9.08222 8.64565 9.14423 8.64226 9.18629C8.6357 9.26723 8.62429 9.12102 8.62273 9.0984C8.62152 9.08391 8.60785 9.07012 8.60515 9.0818C8.60369 9.08823 8.60492 9.14634 8.60417 9.14918C8.58602 9.20141 8.56789 9.21621 8.54949 9.18922C8.54917 9.18808 8.54917 9.12689 8.54851 9.12086C8.53781 9.09173 8.53096 9.17191 8.52214 9.2195C8.51337 9.26649 8.50586 9.25036 8.50066 9.13844C8.49401 9.15138 8.48462 9.10195 8.47917 9.07204C8.47375 9.04357 8.47282 9.17011 8.47234 9.17262C8.45733 9.25265 8.44884 9.18029 8.43328 9.16872C8.4259 9.16314 8.4111 9.18118 8.403 9.19508C8.39664 9.20632 8.39226 9.17695 8.3864 9.19606C8.38567 9.20029 8.38664 9.25543 8.3864 9.25758C8.37988 9.3252 8.38286 9.18679 8.38152 9.16188C8.37662 9.07172 8.37427 9.02376 8.36589 9.06618C8.36397 9.07657 8.3577 9.27202 8.35417 9.28688C8.34959 9.30171 8.35116 9.23046 8.34636 9.24782C8.34596 9.24981 8.34635 9.2935 8.34343 9.29176C8.3297 9.2833 8.31474 9.2571 8.30046 9.26149C8.29857 9.26191 8.30093 9.32803 8.29851 9.33376C8.28532 9.34204 8.27035 9.33995 8.25749 9.30739C8.25433 9.2991 8.25622 9.24977 8.25554 9.23512C8.25141 9.14892 8.24598 9.26935 8.2448 9.27711C8.22121 9.33869 8.20244 9.22288 8.17839 9.27809C8.17707 9.28152 8.16727 9.41845 8.16277 9.30153C8.16246 9.2937 8.15791 9.1731 8.15398 9.25465C8.15374 9.25977 8.15672 9.3215 8.15203 9.31618C8.14719 9.30987 8.13914 9.35113 8.13249 9.28297C8.13039 9.2615 8.12608 9.14127 8.1198 9.23708C8.11939 9.24376 8.10959 9.46013 8.10613 9.31129C8.10557 9.28673 8.10576 9.12873 8.09831 9.20876C8.09689 9.22443 8.0991 9.25994 8.09538 9.282C8.08961 9.31596 8.08198 9.27401 8.07488 9.3445C8.07361 9.3577 8.06835 9.46376 8.06413 9.38258C8.0635 9.36965 8.06531 9.3179 8.06316 9.31129C8.05256 9.28299 8.04072 9.31818 8.02996 9.282C8.02615 9.26921 8.02801 9.18423 8.0241 9.1609C8.02011 9.13803 8.01264 9.11602 8.00847 9.15504C8.00439 9.19434 8.0087 9.32856 8.00261 9.34059C7.97557 9.38771 7.94856 9.30879 7.92156 9.29665C7.91755 9.29491 7.92059 9.34335 7.91472 9.3445C7.89288 9.34812 7.85555 9.3933 7.8366 9.28981C7.8215 9.20706 7.84038 9.14382 7.82878 9.11012C7.8232 9.09545 7.81646 9.25262 7.81511 9.25758C7.80192 9.30802 7.79281 9.23804 7.78093 9.25954C7.77859 9.26429 7.78077 9.3247 7.77898 9.33083C7.77184 9.34195 7.76431 9.31387 7.75749 9.31911C7.75466 9.3224 7.75503 9.36662 7.75261 9.36696C7.74588 9.35848 7.73964 9.33764 7.73308 9.29176C7.73248 9.28758 7.73611 9.22665 7.73113 9.22438C7.72311 9.22005 7.71296 9.17616 7.70378 9.22243C7.70106 9.23713 7.70088 9.34791 7.69499 9.27126C7.69375 9.25511 7.69603 9.12093 7.68913 9.23708C7.68783 9.25819 7.67622 9.41155 7.67058 9.31129C7.66907 9.2843 7.66508 9.17574 7.66179 9.19215C7.66134 9.19491 7.66356 9.25562 7.66081 9.26149C7.65121 9.28083 7.6404 9.27427 7.63054 9.29274C7.62789 9.29789 7.63156 9.3603 7.62761 9.36598C7.61674 9.38164 7.60308 9.36591 7.59245 9.34645C7.58872 9.3383 7.59176 9.28755 7.59148 9.282C7.58693 9.19159 7.58422 9.31237 7.58269 9.32106C7.57322 9.36406 7.56602 9.30673 7.5573 9.32204C7.55511 9.32783 7.55672 9.38276 7.55632 9.38942C7.55138 9.44033 7.5545 9.33647 7.55144 9.32399C7.54262 9.29108 7.53301 9.29598 7.5241 9.30348C7.52115 9.30878 7.52405 9.37402 7.52117 9.37575C7.50387 9.38727 7.48629 9.38073 7.46941 9.34352C7.46625 9.3364 7.46806 9.2849 7.46745 9.27223C7.46287 9.18859 7.45632 9.30203 7.45476 9.31325C7.44775 9.36276 7.44432 9.31677 7.43816 9.32497C7.40779 9.36805 7.37015 9.33808 7.34148 9.31911C7.30412 9.29469 7.27554 9.24464 7.23992 9.25758C7.23796 9.26096 7.23951 9.32279 7.23796 9.32887C7.21286 9.34562 7.18791 9.31894 7.16277 9.33864C7.16072 9.34015 7.16294 9.40461 7.15984 9.4109C7.15302 9.42096 7.14427 9.41737 7.13738 9.39626C7.13435 9.38481 7.1386 9.33064 7.13542 9.32106C7.12754 9.29979 7.11911 9.29484 7.11101 9.30543C7.10772 9.311 7.11253 9.3779 7.10808 9.37868C7.07772 9.38539 7.04794 9.39636 7.01726 9.30934C7.01515 9.30333 7.01297 9.1658 7.00847 9.19215C7.00813 9.23029 7.00862 9.27542 7.00847 9.31618C6.96418 9.33807 6.92006 9.29056 6.87566 9.28297C6.87378 9.28268 6.87636 9.35544 6.87273 9.35524C6.85177 9.35434 6.83167 9.37361 6.81023 9.30153C6.80819 9.2918 6.80864 9.16714 6.80242 9.18629C6.80096 9.19035 6.79216 9.2072 6.78972 9.23415C6.78939 9.23834 6.79082 9.29881 6.78777 9.30055C6.77016 9.30933 6.75163 9.29559 6.73406 9.25954C6.7312 9.25353 6.73414 9.18918 6.7321 9.18434C6.71768 9.15092 6.70194 9.19907 6.68816 9.14137C6.67892 9.10244 6.68233 8.99191 6.67742 8.88356C6.67663 8.86871 6.67088 8.86568 6.67058 8.80348C6.66982 8.64505 6.67269 8.47138 6.67156 8.30251C6.67132 8.26618 6.66317 8.30487 6.66765 8.21754C6.66797 8.21166 6.67409 8.18195 6.67546 8.15211C6.67641 8.13142 6.6745 8.06716 6.67644 8.04079C6.67838 8.01496 6.68104 8.06781 6.68425 8.03688C6.68739 8.00535 6.68577 7.93373 6.69206 7.92458ZM9.06999 8.90211C9.06335 8.8033 9.05847 8.94877 9.06316 9.02516C9.06785 9.10148 9.07202 8.93211 9.06999 8.90211ZM6.69597 8.85036C6.69379 8.92148 6.70162 8.92723 6.69988 8.85329C6.69981 8.85031 6.69607 8.8474 6.69597 8.85036ZM9.20769 8.75172C9.20526 8.70874 9.19786 8.75785 9.20085 8.81129C9.20327 8.85422 9.21065 8.80508 9.20769 8.75172ZM8.18621 8.71071C8.18641 8.77157 8.19047 8.75424 8.18913 8.69801C8.18896 8.69475 8.18615 8.69219 8.18621 8.71071ZM9.31218 8.61012C9.32006 8.65284 9.32562 8.4886 9.33367 8.57692C9.33494 8.59443 9.32525 8.74204 9.3239 8.74782L9.31218 8.69997C9.3029 8.62236 9.30109 8.48048 9.31511 8.5027C9.31821 8.50935 9.30791 8.58665 9.31218 8.61012ZM8.44695 8.66579C8.44479 8.73655 8.45356 8.74166 8.45183 8.66774C8.45141 8.66493 8.44704 8.66298 8.44695 8.66579ZM8.00749 8.55348C8.00261 8.66958 8.02146 8.68155 8.01726 8.55934C8.0169 8.55307 8.0078 8.5477 8.00749 8.55348Z" fill="#555961"/>
</svg>
