<svg width="16" height="16" viewBox="0 0 16 16" fill="none" xmlns="http://www.w3.org/2000/svg">
<path d="M8.37207 1.49121C8.47848 1.41556 8.64379 1.57685 8.66407 1.60254C8.65725 1.60349 8.56322 1.60929 8.61231 1.64453C8.63678 1.7117 8.66166 1.60784 8.66407 1.60254C8.67828 1.61791 8.88064 1.65619 8.92286 1.65137C8.94577 1.64819 8.94221 1.58842 8.95411 1.58789C9.23697 1.57696 9.51954 1.62248 9.78516 1.72656C9.78855 1.7309 9.76473 1.78893 9.77442 1.79492C9.92211 1.86785 10.0447 1.82375 10.1895 1.82422C10.3338 1.82494 10.4312 1.88138 10.4619 2.01562C10.4669 2.01691 10.4725 2.01786 10.4775 2.01953C10.5733 2.05091 10.6778 2.14841 10.7363 2.20801C10.7973 2.26999 10.863 2.16447 10.8721 2.16309C11.1158 2.19438 11.2015 2.3246 11.3994 2.45801C11.4939 2.52148 11.6923 2.63068 11.8008 2.69238C11.887 2.74052 11.9171 2.79897 12 2.83887C12.0111 2.84369 12.0353 2.79376 12.04 2.79297C12.1619 2.8022 12.0387 2.88069 12.0391 2.91309C12.0416 3.03054 12.0454 3.09484 12.1689 3.14453C12.1971 3.15547 12.3932 3.06294 12.4424 3.0918C12.5052 3.12896 12.4372 3.16327 12.5029 3.20117C12.5085 3.2045 12.5382 3.17127 12.5703 3.2041C12.6066 3.24149 12.6431 3.28081 12.6787 3.32129C12.7901 3.44766 12.898 3.58548 13.0098 3.71094C13.0298 3.7332 13.058 3.65825 13.0879 3.69043C13.2287 3.84334 13.3662 4.02739 13.4541 4.21191C13.4755 4.25743 13.417 4.26025 13.4111 4.27734C13.3758 4.38014 13.5323 4.38629 13.543 4.39844C13.795 4.67672 13.8297 4.97964 14.0332 5.29492C14.0419 5.308 14.1583 5.36602 14.1709 5.44434C14.1744 5.46655 14.1697 5.49043 14.1514 5.51465C14.1459 5.52268 14.0596 5.62985 14.1572 5.65723C14.1634 5.65904 14.2067 5.59634 14.2275 5.66894C14.2482 5.74163 14.3279 5.84476 14.2949 5.96484C14.2843 6.00362 14.1941 6.11108 14.3125 6.17676C14.3266 6.18167 14.5685 6.27073 14.4385 6.36035C14.4165 6.37513 14.2617 6.40535 14.3672 6.49805C14.3875 6.51602 14.4135 6.46826 14.4482 6.52051C14.5015 6.60122 14.4845 6.7263 14.5732 6.82324C14.5897 6.84002 14.7089 6.90557 14.6387 6.98437C14.6272 6.99628 14.5729 6.98525 14.5723 7.02051C14.5688 7.18841 14.6221 7.35751 14.5977 7.52832C14.5889 7.58841 14.5028 7.56429 14.4834 7.62598C14.4644 7.68833 14.4464 7.81118 14.4863 7.87402C14.5264 7.93718 14.6618 7.86444 14.6738 7.96191C14.6753 7.9745 14.6766 7.9874 14.6777 8C14.7164 8.41629 14.6023 8.82299 14.5156 9.22266C14.5021 9.28404 14.5604 9.24239 14.543 9.33398C14.4847 9.67098 14.3492 10.26 14.1357 10.4941C14.1236 10.5079 14.1125 10.5195 14.1025 10.5283C13.9763 10.6379 14.0172 10.3956 13.9248 10.5342C13.8772 10.605 13.9814 10.7539 13.9775 10.7764C13.936 10.9845 13.8067 11.0804 13.7354 11.251C13.7211 11.286 13.7948 11.2856 13.7813 11.3154C13.7351 11.4183 13.6499 11.5043 13.5967 11.5967C13.5729 11.6382 13.6182 11.6574 13.5908 11.6924C13.5251 11.7764 13.4539 11.8425 13.3564 11.8984C13.3477 11.9008 13.3346 11.8179 13.2881 11.8779C13.2114 11.9768 13.0823 12.0698 13.0264 12.209C13.0099 12.2503 13.0934 12.3246 12.9746 12.3438C12.9495 12.3477 12.8651 12.2409 12.8809 12.3975C12.8845 12.4236 12.875 12.6641 12.7393 12.6572C12.7214 12.6563 12.682 12.6477 12.6445 12.6445C12.6077 12.6415 12.5726 12.6443 12.5606 12.668C12.5586 12.675 12.619 12.6988 12.5928 12.7324C12.4985 12.8512 12.3767 12.9523 12.2705 13.0664C12.2426 13.0969 12.3302 13.1052 12.2861 13.1494C12.1645 13.2717 11.9833 13.3901 11.835 13.4697C11.7804 13.4989 11.7852 13.4317 11.7783 13.4297C11.6686 13.3957 11.7027 13.5206 11.6865 13.54C11.5861 13.658 11.4584 13.6691 11.3486 13.751C11.3189 13.7735 11.3711 13.8111 11.3672 13.8193C11.3246 13.9021 11.3226 13.7825 11.2744 13.7959C11.138 13.8353 11.0043 13.9103 10.8818 13.9775C10.8371 14.0022 10.9182 14.039 10.8779 14.0605C10.779 14.1128 10.6751 14.1606 10.5693 14.2021C10.4153 14.2626 10.2559 14.3103 10.0986 14.3389C10.0489 14.3477 10.0621 14.2879 10.0488 14.2793C9.95629 14.2222 9.89048 14.3591 9.86914 14.3779C9.77681 14.4565 9.72194 14.4236 9.62989 14.4561C9.17801 14.6183 8.58022 14.6642 8.13184 14.6504C8.08713 14.6494 8.04323 14.6476 8 14.6455C7.47641 14.6172 7.0601 14.528 6.55957 14.4307C6.52507 14.4237 6.54385 14.5004 6.51368 14.4951C6.14449 14.4268 5.79835 14.2918 5.44727 14.1621C5.42742 14.1548 5.40761 14.147 5.3877 14.1396C5.35722 14.1284 5.37449 14.2079 5.32422 14.1914C5.2207 14.1578 5.09728 14.096 5.00879 14.0283C4.9657 13.9955 5.05425 13.9763 5.01075 13.9443C4.91001 13.87 4.79642 13.8041 4.68164 13.75C4.63256 13.7269 4.66895 13.8259 4.60743 13.791C4.18899 13.5537 3.79256 13.2752 3.4961 12.8828C3.4757 12.8557 3.54832 12.7355 3.48047 12.707C3.45038 12.7309 3.4195 12.7633 3.38965 12.791C3.35801 12.7624 3.32662 12.7336 3.2959 12.7041C2.82414 12.2505 2.46761 11.6985 2.167 11.1221C2.15337 11.0966 2.11354 11.1749 2.08692 11.125C1.98957 10.9393 1.89366 10.7555 1.8252 10.5576C1.78556 10.443 1.75513 10.3236 1.73926 10.1982C1.73502 10.1643 1.86153 10.138 1.8125 10.0527C1.8029 10.0366 1.74294 9.90475 1.70606 9.87598C1.70058 9.87218 1.65109 9.91488 1.63575 9.87012C1.54858 9.60653 1.49731 9.31668 1.49024 9.03906C1.48966 8.99507 1.55908 9.03096 1.55957 9C1.55877 8.77688 1.48598 8.54056 1.53321 8.32617C1.56574 8.18373 1.67909 8.23165 1.78516 8.15625C1.79989 8.14536 1.80075 8.06171 1.86328 8.05664C2.02169 8.04473 2.19645 8.08105 2.36524 8.06348C2.40077 8.0592 2.36243 7.95921 2.4502 8.01855C2.4564 8.02405 2.48561 8.09551 2.51563 8.1123C2.5365 8.1241 2.59999 8.10097 2.62696 8.125C2.65387 8.14881 2.60146 8.17718 2.63379 8.2168C2.66698 8.25615 2.73884 8.23541 2.75196 8.31445C2.7817 8.49791 2.7888 8.73991 2.79395 8.92773C2.79534 8.98603 2.75126 8.96466 2.75098 9.00586C2.75085 9.08675 2.78599 9.15491 2.78614 9.23535C2.78606 9.2622 2.71636 9.24536 2.71778 9.27344C2.7265 9.42774 2.78185 9.56247 2.81739 9.71289C2.8484 9.84381 2.88592 9.97306 2.92871 10.1006C3.12909 10.6971 3.45176 11.2505 3.86914 11.7461C3.92448 11.8118 3.98129 11.8848 4.042 11.958C4.16435 12.106 4.30318 12.2564 4.45411 12.3574C4.48035 12.3747 4.50031 12.3202 4.50782 12.3203C4.62366 12.3238 4.53018 12.3919 4.56934 12.4414C4.7259 12.637 4.95397 12.7955 5.16895 12.8945C5.26064 12.9363 5.22811 12.7918 5.28516 12.8945C5.28747 12.9024 5.2388 12.9404 5.25879 12.959C5.30666 13.0019 5.41758 13.0476 5.45899 13.0732C5.53859 13.1231 5.55302 13.1294 5.63282 13.167C5.6916 13.1948 5.75436 13.2323 5.81934 13.2656C5.87531 13.2943 5.93354 13.3204 5.99219 13.3359C6.01901 13.3425 6.00619 13.2736 6.05079 13.2793C6.09538 13.2853 6.20224 13.3281 6.23536 13.3535C6.2682 13.3792 6.23793 13.4192 6.24121 13.4316C6.26879 13.5363 6.43596 13.4557 6.45411 13.4561C6.77221 13.49 7.02284 13.6119 7.32129 13.6484C7.43335 13.6619 7.54994 13.6667 7.66504 13.668H8.00489C8.26058 13.6713 8.48148 13.6894 8.7295 13.6523C8.75558 13.6484 8.71654 13.5821 8.74805 13.5771C9.08258 13.5239 9.41034 13.4575 9.74805 13.3984C9.78123 13.3933 9.75903 13.4651 9.79395 13.4629C9.92113 13.4531 10.1002 13.4465 10.2275 13.377C10.3161 13.3288 10.3778 13.251 10.377 13.1289C10.5093 13.0796 10.6661 13.0113 10.8037 12.9961C10.8926 12.986 10.8568 13.0847 10.9307 13.0088C10.9473 12.9916 10.8921 12.9554 10.9189 12.9336C11.0315 12.842 11.1739 12.7727 11.2725 12.666C11.2922 12.6442 11.2548 12.6052 11.2559 12.5928C11.266 12.4915 11.4321 12.527 11.458 12.5186C11.6506 12.4577 11.7412 12.3454 11.8731 12.2275C11.9036 12.2 11.8203 12.1805 11.8477 12.1523C11.8975 12.1013 11.9484 12.0504 12 12C12.0955 11.9067 12.1934 11.8149 12.2939 11.7305C12.3282 11.7022 12.3474 11.7718 12.3662 11.7607C12.4494 11.7067 12.3755 11.6177 12.4502 11.5635C12.4659 11.5519 12.4997 11.5911 12.5068 11.5928C12.6115 11.6054 12.5409 11.489 12.5469 11.4766C12.6225 11.3139 12.7956 11.2971 12.875 11.1406C12.8841 11.122 12.8042 11.1251 12.833 11.0752C12.9953 10.7919 13.1619 10.4956 13.3213 10.2041C13.3492 10.1531 13.3768 10.1023 13.4043 10.0518C13.4328 9.99893 13.4646 10.0559 13.4717 10.0547C13.5827 10.0297 13.4767 9.94731 13.4785 9.92773C13.4967 9.773 13.6401 9.66445 13.5215 9.52344C13.7001 9.03451 13.7234 8.51322 13.7734 8C13.7858 7.87283 13.8 7.74495 13.8184 7.61523C13.8196 7.60694 13.883 7.61735 13.8848 7.60059C13.9047 7.39835 13.8102 7.44316 13.6777 7.3291C13.6445 7.30111 13.7743 7.1838 13.7832 7.17285C13.8169 7.13561 13.9125 7.15482 13.9199 7.14355C13.9648 7.04323 13.662 7.10463 13.6416 6.98828C13.6437 6.98493 13.7 6.99003 13.7041 6.97949C13.716 6.9454 13.6878 6.91865 13.7012 6.88477C13.732 6.80759 13.8737 6.74995 13.7647 6.66211C13.7503 6.65134 13.5847 6.71038 13.5674 6.60547C13.5611 6.56315 13.5084 6.38407 13.5029 6.33008C13.4984 6.27721 13.5613 6.29357 13.5645 6.29004C13.5926 6.13029 13.6382 6.17242 13.7197 6.06738C13.7998 5.96067 13.5579 6.06585 13.5205 6.04785C13.4835 6.02971 13.5045 5.90941 13.5147 5.87695C13.5252 5.84469 13.5704 5.86229 13.5732 5.83594C13.589 5.66135 13.428 5.82008 13.3701 5.79004C13.3651 5.78738 13.3598 5.78413 13.3555 5.78125C13.2445 5.70784 13.3743 5.55419 13.3447 5.44922C13.3365 5.42007 13.3062 5.46143 13.291 5.43945C13.2313 5.35296 13.2572 5.26765 13.1514 5.18945C13.1338 5.17609 12.9861 5.15158 13.0293 5.05566C13.0359 5.04197 13.0894 5.03889 13.0762 4.99512C13.0565 4.92942 13.0023 4.8209 12.9492 4.76953C12.9101 4.73181 12.8761 4.82566 12.8604 4.75684C12.8539 4.72672 12.9222 4.74596 12.9053 4.69043C12.8886 4.6346 12.8053 4.51888 12.7715 4.47656C12.7379 4.43409 12.7061 4.49426 12.7002 4.49316C12.6655 4.48541 12.5808 4.4229 12.5752 4.41602C12.4235 4.22879 12.2897 4.03852 12.1406 3.85937C12.0097 3.70223 11.8666 3.55366 11.6943 3.43457C11.6657 3.41548 11.6435 3.47909 11.6387 3.47656C11.5302 3.42375 11.7084 3.34912 11.6768 3.25195C11.6069 3.36167 11.5823 3.31246 11.5059 3.27344C11.469 3.25495 11.4572 3.3085 11.4512 3.31055C11.3581 3.33695 11.3822 3.2329 11.3848 3.20996C11.3947 3.12617 11.3089 3.17339 11.3145 3.11719C11.3193 3.06101 11.4131 3.03574 11.3438 2.99023C11.299 3.01618 11.2813 3.15051 11.2197 3.13379C10.9904 3.06651 10.6635 2.77753 10.4951 2.69141C10.3751 2.62735 10.3104 2.60335 10.2481 2.57227C10.2252 2.56096 10.2021 2.54911 10.1768 2.53418C10.0049 2.43487 10.0396 2.54472 9.91309 2.54297C9.78662 2.5428 9.91246 2.35169 9.91114 2.30078C9.90947 2.25011 9.87605 2.29032 9.86329 2.25879C9.8504 2.22714 9.90549 2.2108 9.85938 2.18555C9.81241 2.15972 9.65218 2.20063 9.6211 2.24414C9.55597 2.33583 9.58524 2.45912 9.46875 2.38769C9.46198 2.38353 9.50043 2.33242 9.47364 2.31934C9.25977 2.21746 9.0212 2.16806 8.79395 2.09766C8.76256 2.08787 8.79959 2.02692 8.78125 2.02051C8.58896 1.95513 8.64606 2.07308 8.5293 2.18359C8.56817 2.02503 8.5173 1.91872 8.36426 1.9082C8.27279 1.90249 8.28473 1.97416 8.22461 2.02148C8.20673 2.03566 8.1442 1.98552 8.13184 2.01855C8.09194 2.12657 8.14854 2.24828 8 2.19922V2.14062C7.99832 2.13689 7.99543 2.13444 7.99121 2.13379C7.84245 2.11146 7.82677 2.22536 7.6709 2.24707C7.54897 2.2638 7.32364 2.21575 7.18067 2.22559C7.15883 2.04465 7.02689 2.10686 6.99512 2.24023C6.90299 2.25105 6.806 2.27751 6.71485 2.28027C6.68373 2.28123 6.69136 2.22605 6.68653 2.2207C6.60733 2.14717 6.59512 2.27577 6.57715 2.28516C6.37924 2.38249 6.18108 2.34699 6.01563 2.50195C6.00966 2.50762 6.04228 2.62986 5.95899 2.5625C5.95429 2.55649 5.99619 2.4808 5.9043 2.51074C5.86414 2.524 5.8043 2.53282 5.74121 2.54785C5.65877 2.56741 5.57046 2.59852 5.51465 2.66113C5.49024 2.68794 5.46074 2.81508 5.36621 2.77344C5.35345 2.76773 5.34565 2.73105 5.3252 2.71875C5.25851 2.68056 5.29714 2.80348 5.20313 2.73047C5.10935 2.65769 4.97462 2.63766 4.89063 2.77441C4.88776 2.77866 4.91096 2.88291 4.87305 2.9043C4.8122 2.9383 4.71756 2.97425 4.65723 3.01562C4.62907 3.03498 4.67927 3.07318 4.67774 3.0791C4.5056 3.23906 4.34063 3.2929 4.13184 3.43652C4.09298 3.4631 4.05087 3.61316 3.94043 3.62402C3.81837 3.63747 3.67947 3.34095 3.56153 3.55957L3.56055 3.56055C3.51398 3.6534 3.71646 4.00013 3.45899 3.98633C3.28645 4.25785 3.02374 4.43472 2.90918 4.74609C2.90546 4.76164 2.97249 4.85673 2.95411 4.88379C2.92615 4.92446 2.86779 4.9212 2.84668 4.9502C2.75727 5.07133 2.73108 5.21304 2.66114 5.33789C2.63482 5.38528 2.59552 5.345 2.56446 5.40234C2.53356 5.46059 2.57791 5.52869 2.51172 5.5957C2.48256 5.62521 2.4178 5.64011 2.3584 5.66309C2.31575 5.67958 2.27534 5.70043 2.25489 5.7334C2.38409 5.78823 2.35865 5.84438 2.35645 5.95898C2.35651 5.9806 2.40933 5.97636 2.41211 5.9873C2.42236 6.03286 2.37236 6.05437 2.38575 6.09863C2.38901 6.1093 2.43342 6.12517 2.43946 6.13477C2.48627 6.21608 2.35325 6.28243 2.33008 6.29492C2.24222 6.34077 2.29284 6.38913 2.25196 6.43262C2.21103 6.47664 2.19767 6.39051 2.16504 6.44629C2.09718 6.56314 2.0668 6.73042 2.04004 6.86035C2.03033 6.91101 2.09805 6.88862 2.09961 6.89551C2.09558 7.0043 2.01198 7.10377 2.12989 7.18066C1.79384 7.21091 2.15107 7.2497 2.06934 7.39355C2.06085 7.40464 1.90661 7.40513 1.88868 7.35547C1.87099 7.30507 1.92763 7.23854 1.90137 7.16797C1.89479 7.1516 1.76459 7.03997 1.75782 7.02539C1.70532 6.91564 1.93789 6.94106 1.95118 6.93848C2.09543 6.90598 1.96265 6.77127 1.95801 6.73926C1.93682 6.59797 1.99614 6.49428 1.99121 6.37695C1.98839 6.30009 1.84408 6.25028 1.86524 6.19434C1.93778 6.00779 2.15881 6.01543 2.04883 5.78027C2.02545 5.72998 1.85659 5.70645 2.03028 5.62012C2.03662 5.61702 2.08929 5.59757 2.12403 5.56641C2.14961 5.54326 2.16572 5.5131 2.14649 5.47656C2.14005 5.46568 2.09635 5.44645 2.09668 5.43555C2.10016 5.36231 2.15414 5.33597 2.16895 5.26074C2.18383 5.18545 2.19899 5.09198 2.25293 5.02344C2.28551 4.98178 2.39674 4.96649 2.42774 4.95605C2.51605 4.92702 2.46164 4.81144 2.54981 4.81348C2.63803 4.81663 2.69882 4.94578 2.79688 4.87891C2.69082 4.8107 2.58445 4.73642 2.4795 4.66504C2.6128 4.45313 2.78487 4.27399 2.93262 4.07422C2.95096 4.04929 2.87797 4.03189 2.89649 4.00391C2.97548 3.88591 3.09152 3.82258 3.17383 3.70117C3.2374 3.60695 3.27061 3.46636 3.34278 3.36816C3.35403 3.37179 3.3654 3.37443 3.37598 3.37598C3.50974 3.39549 3.59548 3.2563 3.69239 3.18652C3.72859 3.16052 3.75232 3.19096 3.78418 3.17969C3.90327 3.13724 3.77904 3.07673 3.79102 3.04004C3.84573 2.88338 4.03773 3.09818 4.16016 2.99414C4.16598 2.98676 4.15812 2.80178 4.16504 2.78516C4.20448 2.67911 4.2096 2.819 4.26368 2.79394C4.36269 2.74877 4.44362 2.73751 4.52344 2.63184C4.54615 2.60023 4.57061 2.47273 4.66993 2.49902C4.68298 2.50301 4.70502 2.54817 4.71289 2.54687C4.85306 2.52039 4.77672 2.38205 4.81934 2.2959C4.86259 2.20948 5.0228 2.24997 5.0586 2.26758C5.1527 2.31165 5.03153 2.3211 5.03223 2.33008C5.04134 2.4332 5.10947 2.3786 5.17188 2.35644C5.25064 2.49202 5.32672 2.44406 5.23633 2.33301C5.22585 2.32175 5.18673 2.35688 5.17188 2.35644C5.15421 2.19341 5.24288 2.12808 5.4043 2.21289C5.47971 2.25325 5.46611 2.34416 5.59864 2.25684C5.60544 2.25241 5.61128 2.24675 5.61524 2.24121C5.64592 2.19751 5.59893 2.12247 5.64161 2.07715C5.75418 1.95977 5.96921 1.98966 6.10743 1.93066C6.15795 1.90902 6.09044 1.86845 6.12403 1.85156C6.21581 1.80689 6.31362 1.82531 6.40528 1.77832C6.4124 1.77282 6.37656 1.71961 6.40625 1.71094C6.63784 1.64536 6.85123 1.64355 7.09766 1.60937C7.21658 1.59224 7.42784 1.53518 7.55371 1.53418C7.69397 1.53178 7.85562 1.56608 8 1.58789C8.08 1.59985 8.15523 1.60805 8.22071 1.60254C8.34049 1.59314 8.31779 1.53055 8.37207 1.49121ZM1.83106 8.42383C1.75773 8.39668 1.76106 8.51792 1.83301 8.48633C1.83549 8.48176 1.83394 8.42502 1.83106 8.42383ZM1.9209 7.86426C1.94013 7.6154 2.2144 7.49385 2.16993 7.74805C2.16221 7.79414 2.09108 7.64321 2.06446 7.70117C2.01599 7.81081 2.17852 7.88739 2.08985 7.99805C2.07254 8.01789 1.91947 7.88046 1.91993 7.86426H1.9209ZM13.8877 7.76269C13.882 7.76785 13.8804 7.89584 13.8857 7.90137C14.0041 7.96932 14.0084 7.69831 13.8877 7.76269ZM2.15137 6.11719C2.09932 6.13763 2.1167 6.24892 2.18067 6.22266C2.23145 6.20208 2.2152 6.09308 2.15137 6.11719ZM13.4424 5.39941C13.4399 5.40188 13.455 5.44138 13.4717 5.43262C13.5255 5.40422 13.4848 5.35822 13.4424 5.39941ZM2.47071 5.27734C2.59034 5.2122 2.31603 5.04973 2.31739 5.19043C2.31787 5.19874 2.46054 5.27921 2.47071 5.27734ZM2.88282 4.22559C2.77912 4.23757 2.88389 4.3832 2.92578 4.37598C3.06203 4.35494 2.98576 4.21527 2.88282 4.22559ZM10.9629 2.78418C11.0255 2.73784 10.9268 2.67567 10.9121 2.75195C10.912 2.75509 10.9576 2.78396 10.9629 2.78418Z" fill="#555961"/>
<path d="M8.14356 5.48524C8.18839 5.40578 8.24569 5.55732 8.25098 5.58094C8.24805 5.58243 8.21201 5.59387 8.22852 5.62586C8.23367 5.6918 8.24995 5.58439 8.25098 5.58094C8.25555 5.59582 8.33082 5.61936 8.34766 5.61024C8.35671 5.60514 8.3606 5.54826 8.36524 5.54481C8.47834 5.50858 8.59227 5.51765 8.69043 5.5741C8.6907 5.57896 8.67193 5.63591 8.67481 5.64051C8.72553 5.68541 8.78633 5.62182 8.85254 5.59461C8.9185 5.56753 8.9552 5.59918 8.94043 5.71473C8.9819 5.71661 9.01249 5.78461 9.02735 5.82508C9.04228 5.86505 9.10267 5.75282 9.10645 5.75184C9.22282 5.71987 9.23672 5.81014 9.3086 5.86707C9.34323 5.89438 9.42566 5.92723 9.47266 5.94422C9.50979 5.95748 9.51073 5.99475 9.54981 6.00086C9.55607 5.99946 9.58446 5.95554 9.5879 5.95301C9.6613 5.92433 9.56122 6.02114 9.55176 6.04578C9.51823 6.13441 9.50002 6.18116 9.56348 6.17957C9.58018 6.17638 9.73444 6.05002 9.75879 6.05652C9.78943 6.06476 9.73355 6.11092 9.76661 6.11805C9.77065 6.11705 9.7987 6.08673 9.81055 6.09949C9.82404 6.11519 9.83696 6.1328 9.84961 6.15027C9.88914 6.20482 9.92623 6.26442 9.97168 6.31238C9.98074 6.3191 10.0225 6.26412 10.0352 6.27625C10.0952 6.33414 10.1502 6.40934 10.169 6.49402C10.1727 6.51462 10.1264 6.53214 10.1162 6.54383C10.0577 6.61424 10.1838 6.57271 10.1895 6.57703C10.3212 6.6684 10.273 6.82249 10.3828 6.93152C10.3888 6.93648 10.5407 6.94167 10.4424 7.01258C10.436 7.0177 10.334 7.08633 10.419 7.07899C10.4243 7.07864 10.4766 7.04079 10.4815 7.07117C10.486 7.1012 10.5415 7.13477 10.4893 7.1952C10.4727 7.21492 10.3676 7.277 10.4697 7.28602C10.4826 7.28522 10.6999 7.28929 10.5625 7.34754C10.5395 7.35717 10.3854 7.3918 10.4746 7.4159C10.4918 7.42067 10.5222 7.39767 10.5488 7.41492C10.5901 7.44255 10.5586 7.49707 10.6357 7.5282C10.6499 7.53326 10.7608 7.54916 10.6846 7.58875C10.6726 7.59482 10.619 7.59559 10.6152 7.61024C10.5972 7.67905 10.6399 7.74399 10.6084 7.81336C10.5972 7.83768 10.5107 7.83157 10.4893 7.85633C10.468 7.88122 10.4484 7.92749 10.4873 7.95106C10.5266 7.97502 10.6616 7.94584 10.6738 7.98426C10.6753 7.9893 10.6766 7.99483 10.6777 7.99988C10.7165 8.16805 10.626 8.32916 10.585 8.48524C10.5788 8.50925 10.6304 8.49825 10.624 8.53504C10.6032 8.66933 10.5733 8.91818 10.4307 8.98817C10.3188 9.0416 10.3043 8.91175 10.2471 8.96082C10.22 8.98334 10.3489 9.08155 10.3496 9.09168C10.3606 9.18672 10.2723 9.20542 10.2559 9.2782C10.2523 9.2934 10.3146 9.31221 10.3115 9.32508C10.2988 9.36957 10.2501 9.39518 10.2315 9.43348C10.2232 9.45086 10.266 9.47525 10.2529 9.48817C10.2223 9.5191 10.183 9.53894 10.1221 9.54481C10.1157 9.54332 10.0817 9.49002 10.0625 9.51258C10.0306 9.55002 9.95881 9.56839 9.95899 9.64051C9.95925 9.662 10.0439 9.73553 9.96192 9.71277C9.94459 9.708 9.85044 9.61198 9.90918 9.71961C9.91991 9.73684 9.98449 9.89794 9.88672 9.8534C9.87381 9.84736 9.84261 9.82897 9.81543 9.81531C9.78898 9.80209 9.76563 9.79367 9.76465 9.80652C9.76534 9.81082 9.81408 9.84536 9.80665 9.86121C9.77777 9.91661 9.72709 9.95383 9.69239 10.0077C9.68309 10.0223 9.74215 10.0546 9.72657 10.0751C9.68341 10.1314 9.60402 10.172 9.53809 10.1942C9.51391 10.2017 9.49888 10.1501 9.49415 10.1464C9.41934 10.0872 9.47499 10.1984 9.47071 10.2098C9.44458 10.2786 9.37482 10.2535 9.33594 10.2938C9.32519 10.3047 9.36166 10.3488 9.36329 10.3563C9.36105 10.4166 9.32955 10.3137 9.30665 10.3134C9.24257 10.3119 9.19128 10.3441 9.14454 10.3749C9.12851 10.3867 9.17769 10.4374 9.16211 10.4471C9.06699 10.5054 8.95436 10.543 8.84083 10.5409C8.8198 10.5397 8.81524 10.4865 8.80762 10.4764C8.7557 10.4058 8.75099 10.5266 8.74415 10.5399C8.71557 10.5996 8.68564 10.5591 8.6504 10.577C8.47568 10.6671 8.23082 10.6683 8.05274 10.6513C8.03486 10.6497 8.01727 10.6475 8 10.6454C7.79108 10.6186 7.63141 10.5592 7.4336 10.5282C7.41998 10.5259 7.41834 10.5961 7.40625 10.5956C7.24753 10.5764 7.10723 10.5022 6.95411 10.4589C6.94144 10.4551 6.9327 10.5236 6.91114 10.5194C6.86664 10.5112 6.81645 10.4839 6.78614 10.4452C6.77211 10.4264 6.82252 10.3885 6.80762 10.371C6.77314 10.3299 6.72953 10.301 6.68067 10.285C6.66007 10.2792 6.65448 10.3524 6.62989 10.3397C6.45938 10.2478 6.29078 10.1378 6.20801 9.94227C6.20258 9.92842 6.28815 9.82034 6.25098 9.82117C6.22311 9.84729 6.19202 9.88032 6.16309 9.90906C6.14989 9.89823 6.13669 9.88732 6.12403 9.87586C5.92978 9.69983 5.80793 9.46331 5.69336 9.23426C5.6874 9.2249 5.63358 9.27599 5.62305 9.25574C5.56223 9.13838 5.49012 9.02395 5.51368 8.87293C5.51601 8.85804 5.63945 8.82186 5.60938 8.79285C5.60382 8.78782 5.56982 8.73974 5.53907 8.73328C5.53347 8.73308 5.48061 8.75957 5.47364 8.74207C5.4338 8.63909 5.42139 8.52161 5.44043 8.40906C5.44365 8.39092 5.50883 8.3984 5.51172 8.38563C5.53174 8.2972 5.4751 8.20914 5.52832 8.12488C5.56477 8.06953 5.67578 8.0846 5.78321 8.05555C5.79832 8.05154 5.80048 8.02145 5.86329 8.01942C6.02164 8.01467 6.19548 8.02526 6.36426 8.01844C6.40052 8.01707 6.36192 7.98819 6.44922 8.00477C6.45507 8.00598 6.48478 8.02604 6.51465 8.03016C6.53533 8.03298 6.5994 8.02638 6.62598 8.03211C6.6525 8.03763 6.59944 8.0462 6.63086 8.05555C6.66274 8.06436 6.73396 8.05697 6.74415 8.07508C6.76607 8.11783 6.75247 8.17574 6.73243 8.22547C6.7262 8.241 6.6856 8.24136 6.67969 8.25281C6.66833 8.27549 6.69111 8.28992 6.67774 8.31336C6.67177 8.32116 6.60974 8.32768 6.60645 8.33582C6.58908 8.38149 6.61513 8.41495 6.61524 8.45789C6.61677 8.6726 6.70452 8.87658 6.83204 9.05945C6.84591 9.07942 6.85831 9.10355 6.8711 9.12879C6.8968 9.17992 6.9275 9.23476 6.97852 9.25477C6.98743 9.25818 7.01821 9.21243 7.02247 9.20985C7.0858 9.17174 7.01066 9.25209 7.01465 9.27527C7.03421 9.36462 7.10152 9.41575 7.17188 9.43152C7.2019 9.43804 7.2309 9.32868 7.22559 9.39637C7.22519 9.4012 7.19046 9.4484 7.19434 9.45789C7.20364 9.4792 7.23924 9.48654 7.25 9.49695C7.27059 9.51747 7.27548 9.51863 7.29883 9.53016C7.33058 9.54633 7.35994 9.59035 7.40137 9.59168C7.41007 9.58968 7.42131 9.53133 7.43653 9.52625C7.45204 9.5215 7.4809 9.53773 7.48731 9.55457C7.49352 9.57172 7.47503 9.61495 7.47364 9.62586C7.46283 9.71834 7.54003 9.6093 7.54493 9.60731C7.64742 9.58085 7.70893 9.66572 7.79883 9.67664C7.8655 9.68435 7.93751 9.66515 8 9.66785H8.00196C8.07678 9.67184 8.14406 9.70041 8.21778 9.68543C8.22505 9.68333 8.20806 9.61774 8.21583 9.61317C8.31195 9.59187 8.40578 9.57798 8.51563 9.59266C8.52676 9.59414 8.53335 9.65802 8.5459 9.66297C8.62004 9.6935 8.77565 9.76156 8.69532 9.49988C8.73727 9.49218 8.78658 9.47905 8.84668 9.5077C8.88547 9.52603 8.89813 9.597 8.91114 9.55652C8.914 9.54745 8.87637 9.50137 8.88184 9.4911C8.90783 9.45063 8.95817 9.44076 8.97559 9.39149C8.97897 9.38133 8.94599 9.33912 8.94239 9.32996C8.91297 9.25613 9.01518 9.33935 9.02735 9.34168C9.11447 9.36188 9.13071 9.31266 9.1709 9.2782C9.18023 9.2702 9.12301 9.22853 9.12891 9.21863C9.14183 9.20177 9.15533 9.18517 9.1709 9.17078C9.19965 9.14423 9.23372 9.12289 9.27442 9.10731C9.28853 9.10202 9.32674 9.1509 9.33594 9.15027C9.37616 9.14595 9.29229 9.06835 9.32813 9.06336C9.33574 9.06243 9.37293 9.09588 9.37891 9.09949C9.45986 9.14181 9.36908 9.05147 9.36915 9.04676C9.37019 8.98263 9.49814 9.03064 9.5127 8.97449C9.51411 8.96789 9.45089 8.9437 9.45801 8.92762C9.50481 8.82037 9.574 8.72342 9.66504 8.63172C9.67897 8.61775 9.71963 8.64646 9.72657 8.64832C9.82279 8.66292 9.70774 8.6064 9.70508 8.59949C9.68843 8.5448 9.80347 8.53041 9.66602 8.45887C9.74842 8.31726 9.72349 8.15523 9.77344 7.99988C9.78582 7.96077 9.80296 7.92077 9.82715 7.87879C9.82924 7.87612 9.89204 7.87647 9.89454 7.87098C9.92423 7.80437 9.82763 7.82369 9.70508 7.79871C9.67432 7.79326 9.81333 7.74406 9.82325 7.73914C9.86032 7.72342 9.95362 7.72026 9.96094 7.7157C10.0149 7.67627 9.71022 7.72873 9.70411 7.69422C9.70445 7.69299 9.76158 7.68753 9.76661 7.68348C9.78208 7.67079 9.7582 7.66523 9.7754 7.65223C9.81565 7.62254 9.96088 7.58214 9.86817 7.56629C9.85608 7.56463 9.6861 7.60992 9.68653 7.57703C9.6867 7.56311 9.66987 7.50953 9.67579 7.4911C9.6825 7.47267 9.7392 7.46647 9.74122 7.46473C9.7988 7.39924 9.83358 7.40592 9.93067 7.34754C10.026 7.28795 9.77972 7.38068 9.74903 7.38172C9.71931 7.38238 9.76552 7.33025 9.78223 7.31434C9.79904 7.29875 9.8359 7.29549 9.84473 7.28406C9.89911 7.20631 9.71584 7.31107 9.6709 7.31238C9.56615 7.31755 9.73314 7.21371 9.73438 7.17176C9.73414 7.16175 9.69937 7.18641 9.69141 7.18152C9.66277 7.15892 9.70691 7.11246 9.63965 7.10535C9.62843 7.10366 9.51277 7.1363 9.57715 7.07703C9.58643 7.06834 9.6327 7.05003 9.63477 7.03211C9.63787 7.00542 9.62574 6.96662 9.59961 6.95594C9.58024 6.94827 9.52434 7.00803 9.53321 6.97742C9.53721 6.96351 9.58552 6.95185 9.58985 6.92762C9.59395 6.90312 9.5656 6.86554 9.55372 6.85242C9.54182 6.83942 9.49828 6.88338 9.49415 6.88465C9.47096 6.8915 9.43049 6.88502 9.42676 6.8827C9.37742 6.82615 9.34971 6.75458 9.3125 6.68738C9.28013 6.62875 9.24039 6.57352 9.17872 6.54383C9.16852 6.53887 9.13447 6.59277 9.13184 6.59363C9.08622 6.59162 9.21562 6.4762 9.22852 6.41395C9.1521 6.51901 9.15329 6.49102 9.12305 6.48621C9.1084 6.48405 9.08411 6.52868 9.08008 6.53211C9.02042 6.58249 9.06761 6.4951 9.07618 6.47645C9.10821 6.40849 9.04658 6.47238 9.06739 6.42664C9.08751 6.38078 9.14665 6.33202 9.12305 6.31727C9.09119 6.35172 9.03983 6.46316 9.0127 6.46961C8.91376 6.4919 8.84623 6.34593 8.79395 6.31141C8.74441 6.2775 8.72308 6.27837 8.69727 6.24988C8.64955 6.19875 8.63832 6.29079 8.58985 6.31727C8.54186 6.34426 8.62934 6.1413 8.63965 6.09363C8.64913 6.04652 8.6268 6.09055 8.62793 6.06336C8.62891 6.03623 8.6544 6.01085 8.64063 5.99598C8.62603 5.98081 8.55485 6.04792 8.53614 6.09461C8.49578 6.19305 8.48514 6.30481 8.45606 6.25672C8.45476 6.25301 8.47684 6.19968 8.46973 6.19129C8.40887 6.12906 8.33153 6.11094 8.26075 6.06141C8.25091 6.0545 8.26847 5.99202 8.2627 5.98719C8.20118 5.93781 8.21188 6.04918 8.167 6.16688C8.18967 6.00704 8.17877 5.90605 8.12598 5.90125C8.09441 5.89884 8.09546 5.96948 8.07422 6.01844C8.06804 6.0332 8.0486 5.98433 8.04395 6.01746C8.02939 6.12577 8.04559 6.24729 8 6.1991V6.14051C7.99947 6.13678 7.99842 6.13433 7.99708 6.13367C7.9493 6.11058 7.9462 6.22396 7.89942 6.24012C7.86313 6.25271 7.78884 6.18993 7.74219 6.18543C7.71835 6.00529 7.67762 6.05399 7.68262 6.18055C7.65284 6.18052 7.62326 6.19315 7.5918 6.1825C7.58102 6.17893 7.57573 6.12701 7.57325 6.12098C7.53374 6.03842 7.54866 6.16078 7.54395 6.16688C7.48941 6.22826 7.40667 6.1571 7.37403 6.26453C7.37276 6.26847 7.41218 6.38809 7.36426 6.3075C7.36097 6.30059 7.36112 6.24056 7.33106 6.24695C7.30112 6.2534 7.21769 6.21495 7.20215 6.28699C7.19815 6.30485 7.21988 6.40735 7.16602 6.34559C7.15866 6.3372 7.14556 6.30324 7.13282 6.28699C7.09127 6.23603 7.14286 6.35206 7.07813 6.26356C7.01372 6.17542 6.94079 6.12299 6.93653 6.2118C6.93621 6.2145 6.97737 6.30539 6.96582 6.31336C6.94481 6.3231 6.90475 6.32352 6.88477 6.33777C6.87651 6.34535 6.91658 6.39188 6.91602 6.39442C6.87358 6.46599 6.7979 6.45266 6.71778 6.48817C6.70356 6.49669 6.72711 6.58602 6.66114 6.55652C6.58665 6.52493 6.40008 6.27626 6.38965 6.38953C6.3867 6.44014 6.64115 6.73067 6.45606 6.63563C6.42349 6.74808 6.27919 6.76776 6.2793 6.90027C6.28043 6.90713 6.3631 6.97642 6.35743 6.98524C6.34698 6.99758 6.29805 6.97865 6.28907 6.98719C6.25047 7.02239 6.26697 7.08312 6.24024 7.12195C6.23014 7.13683 6.18642 7.109 6.17383 7.12684C6.16163 7.14577 6.21821 7.18803 6.17579 7.20106C6.14346 7.21045 6.00486 7.17738 5.97657 7.20106C6.10623 7.25368 6.09577 7.27251 6.11817 7.31922C6.12297 7.32797 6.16905 7.33758 6.17481 7.34266C6.19414 7.36321 6.15285 7.36121 6.17481 7.38172C6.18097 7.3868 6.22396 7.40222 6.23145 7.40711C6.29207 7.44782 6.17994 7.44534 6.16016 7.44617C6.08611 7.44758 6.14266 7.47612 6.11133 7.48524C6.07967 7.49492 6.05217 7.45956 6.03028 7.47547C5.98499 7.50905 5.97924 7.56742 5.96875 7.61121C5.96482 7.62885 6.03036 7.62891 6.03125 7.63172C6.04023 7.66934 5.96822 7.69624 6.09082 7.73328C5.76196 7.71392 6.11948 7.75952 6.04883 7.80067C6.04098 7.80368 5.88705 7.79424 5.86622 7.77527C5.84544 7.75602 5.8966 7.73633 5.86524 7.70887C5.85762 7.70285 5.71976 7.64963 5.70997 7.64246C5.64762 7.59476 5.87783 7.62907 5.89063 7.62977C6.02868 7.63453 5.88388 7.57036 5.87403 7.55652C5.83509 7.49981 5.87644 7.4674 5.85254 7.41981C5.83734 7.38881 5.69319 7.3445 5.70215 7.3241C5.73894 7.25548 5.94672 7.30442 5.79688 7.1786C5.76523 7.15136 5.60446 7.10491 5.7461 7.10145C5.7552 7.10072 5.88029 7.11036 5.82032 7.06043C5.81268 7.05402 5.76783 7.03436 5.76563 7.02918C5.75212 6.9949 5.79372 6.9949 5.78907 6.9618C5.78429 6.92851 5.7753 6.88486 5.80469 6.86317C5.82262 6.84989 5.91485 6.87095 5.93848 6.87391C6.00536 6.88236 5.92836 6.80779 6.00293 6.83289C6.07731 6.85923 6.16465 6.94211 6.22657 6.93641C6.11928 6.87052 6.01034 6.80098 5.90332 6.73328C5.95655 6.65385 6.04211 6.60034 6.09473 6.52332C6.10021 6.51352 6.04206 6.48259 6.0459 6.47059C6.07112 6.42103 6.13887 6.41522 6.16114 6.36121C6.1779 6.31927 6.15857 6.23567 6.17872 6.18934C6.18757 6.19522 6.19636 6.19971 6.20411 6.20399C6.3029 6.25876 6.31725 6.18818 6.35938 6.16688C6.37503 6.15899 6.39985 6.18836 6.417 6.19031C6.4809 6.19644 6.38234 6.11323 6.37891 6.08973C6.36696 5.98897 6.55345 6.2089 6.59473 6.16785C6.59634 6.16563 6.53584 6.01946 6.53516 6.0077C6.52758 5.93613 6.57114 6.04683 6.59571 6.04383C6.64065 6.03727 6.68285 6.05229 6.69727 5.98914C6.70091 5.97059 6.67938 5.87158 6.74122 5.92078C6.74907 5.92724 6.7723 5.9688 6.77735 5.97254C6.84538 5.98973 6.76704 5.85138 6.76758 5.78895C6.76874 5.72654 6.8626 5.80163 6.88477 5.82606C6.94345 5.8882 6.88416 5.86605 6.88672 5.87391C6.91799 5.96523 6.93878 5.93614 6.96387 5.9325C7.03721 6.07074 7.06139 6.04862 6.99024 5.9286C6.9823 5.9155 6.97137 5.93673 6.96387 5.9325C6.91348 5.78579 6.94404 5.74919 7.04102 5.86317C7.08605 5.91681 7.10162 5.99499 7.14161 5.94715C7.16013 5.92545 7.10986 5.82906 7.1211 5.79285C7.14824 5.70987 7.25031 5.77969 7.29786 5.74891C7.31562 5.73739 7.27922 5.68654 7.29102 5.67664C7.32297 5.65018 7.3676 5.68446 7.39844 5.6532C7.40126 5.65031 7.37802 5.59367 7.38868 5.58875C7.47672 5.55924 7.56377 5.58246 7.65723 5.5702C7.70232 5.56385 7.78048 5.52149 7.82911 5.52527C7.88326 5.52891 7.94584 5.56606 8 5.58777C8.03014 5.59974 8.05826 5.60739 8.08301 5.60047C8.12803 5.58818 8.12148 5.52621 8.14356 5.48524ZM5.82129 8.1493C5.74974 8.14277 5.74728 8.18684 5.82032 8.17176C5.82323 8.17115 5.82425 8.1496 5.82129 8.1493ZM5.9209 7.95301C5.93675 7.86648 6.2002 7.84279 6.16602 7.92078C6.15945 7.93501 6.08434 7.88481 6.05957 7.90223C6.01469 7.93754 6.17833 7.96414 6.08985 7.99891C6.07345 8.00565 5.93125 7.9616 5.9209 7.95301ZM9.89161 7.92371C9.88552 7.925 9.88032 7.96647 9.88575 7.96863C10.0027 7.99001 10.0129 7.8992 9.89161 7.92371ZM5.95801 7.34266C5.914 7.34174 5.95066 7.39025 6.00586 7.39149C6.05034 7.39289 6.01347 7.34501 5.95801 7.34266ZM9.83301 7.12391C9.83018 7.1257 9.83361 7.13998 9.85059 7.13172C9.90511 7.10507 9.8808 7.09383 9.83301 7.12391ZM6.10157 6.60047C6.02476 6.57727 6.14975 6.69257 6.18067 6.70106C6.28079 6.73113 6.17816 6.62557 6.10157 6.60047ZM8.98731 6.26258C9.03188 6.20594 8.99929 6.18095 8.97071 6.24988C8.97012 6.25281 8.98496 6.2642 8.98731 6.26258Z" fill="#555961"/>
<path d="M8.05372 5.25773C8.08508 5.23839 8.12603 5.25939 8.15723 5.28801C8.16659 5.29732 8.16248 5.3354 8.16895 5.34367C8.18211 5.35905 8.19404 5.3404 8.20704 5.35832C8.21131 5.36453 8.20672 5.42594 8.21094 5.43254C8.23573 5.46025 8.25909 5.44485 8.28419 5.45793C8.40828 5.52392 8.53065 5.54743 8.65626 5.57609C8.69767 5.58549 8.74823 5.6429 8.79102 5.61808C8.79592 5.61517 8.79317 5.56197 8.79395 5.55558C8.80887 5.48584 8.80374 5.5974 8.81348 5.61223C8.85212 5.67072 8.89544 5.67552 8.93262 5.65422C8.94842 5.645 8.93245 5.53565 8.94825 5.5966C8.94936 5.60076 8.94586 5.65968 8.9502 5.66594C8.96003 5.67987 8.97868 5.66921 8.98634 5.67375C9.00104 5.68301 9.00368 5.68285 9.01759 5.68351C9.03646 5.68529 9.0589 5.71401 9.07911 5.70109C9.08343 5.6981 9.07823 5.63867 9.08497 5.62785C9.09192 5.61763 9.11002 5.62246 9.11622 5.63664C9.12236 5.65097 9.12001 5.69809 9.1211 5.70891C9.13004 5.7993 9.15124 5.67628 9.1543 5.67082C9.20402 5.6176 9.24633 5.68909 9.29298 5.68937C9.32836 5.68907 9.36669 5.66488 9.4004 5.66789C9.4407 5.67202 9.47551 5.70474 9.51466 5.69914C9.51834 5.69594 9.51377 5.62847 9.51856 5.62687C9.57216 5.61864 9.62535 5.627 9.67872 5.67473C9.68404 5.67955 9.67744 5.74081 9.68262 5.74992C9.71537 5.80097 9.76767 5.92369 9.78712 5.65324C9.80926 5.66377 9.8357 5.67508 9.85548 5.72941C9.86823 5.76452 9.85637 5.83151 9.87208 5.80266C9.87521 5.79438 9.87096 5.73814 9.87598 5.73234C9.89837 5.71065 9.92318 5.72976 9.94532 5.69914C9.94972 5.6922 9.94796 5.6393 9.94923 5.6298C9.95996 5.55299 9.97854 5.68106 9.98243 5.69035C10.0118 5.75884 10.0332 5.73198 10.0606 5.73332C10.067 5.73374 10.0602 5.66321 10.0664 5.66105C10.0983 5.65096 10.1309 5.65693 10.1621 5.6884C10.169 5.69552 10.163 5.7548 10.166 5.76262C10.1807 5.79078 10.1842 5.6763 10.1982 5.70109C10.2012 5.70621 10.1997 5.75683 10.2002 5.76359C10.2086 5.85263 10.2155 5.72808 10.2178 5.72355C10.2453 5.68522 10.2634 5.81753 10.29 5.79875C10.2926 5.79306 10.2863 5.73115 10.2949 5.72844C10.3546 5.71027 10.4175 5.72853 10.4766 5.78117C10.4856 5.78951 10.4789 5.83857 10.4795 5.84465C10.4888 5.93824 10.495 5.81578 10.4981 5.80754C10.5217 5.77295 10.5445 5.87943 10.5606 5.72746C10.6604 5.7799 10.7594 5.69553 10.8584 5.83098C10.8596 5.83253 10.858 5.89368 10.8604 5.89836C10.8907 5.93364 10.8852 5.83616 10.9053 5.71672C10.9104 5.68725 10.9254 5.83116 10.9268 5.84172C10.9316 5.8804 10.9262 5.97232 10.9277 5.98137C10.9414 6.04051 10.9396 5.73247 10.958 5.73137C10.9586 5.73188 10.9565 5.78918 10.958 5.79484C10.9628 5.81208 10.967 5.79001 10.9717 5.80949C10.9825 5.85479 10.9865 6.00425 11.0029 5.91789C11.005 5.90656 11.0021 5.73155 11.0186 5.73918C11.0251 5.74263 11.0543 5.73957 11.0625 5.7509C11.0707 5.76223 11.0649 5.81859 11.0654 5.82121C11.0874 5.89585 11.0799 5.92673 11.0908 6.03703C11.1018 6.14725 11.0981 5.88473 11.1025 5.85539C11.107 5.82626 11.1239 5.88756 11.1279 5.9091C11.1319 5.93033 11.1266 5.96595 11.1299 5.97844C11.1532 6.05772 11.1408 5.84829 11.1484 5.80656C11.1666 5.70801 11.1807 5.9027 11.1973 5.9218C11.2015 5.92558 11.1982 5.88292 11.2022 5.87883C11.2179 5.86315 11.2272 5.92314 11.2451 5.86808C11.2481 5.859 11.263 5.74154 11.2725 5.82707C11.2738 5.83947 11.2696 5.88845 11.2764 5.89933C11.2864 5.91559 11.3046 5.92614 11.3154 5.91008C11.3234 5.89808 11.3142 5.81817 11.3242 5.84269C11.3287 5.8538 11.3207 5.90094 11.3291 5.91789C11.3376 5.93457 11.3591 5.93219 11.3672 5.93058C11.3748 5.92711 11.3705 5.8682 11.3711 5.86418C11.3751 5.84079 11.3912 5.81137 11.3926 5.81144C11.462 5.80449 11.5262 5.90678 11.5938 5.87297C11.5987 5.86986 11.5952 5.8111 11.5957 5.80558C11.6139 5.77876 11.5996 5.94879 11.6123 6.00578C11.6105 5.87589 11.6181 5.8989 11.6309 5.88469C11.637 5.87771 11.6342 5.82734 11.6348 5.82219C11.6439 5.74642 11.6497 5.84499 11.6514 5.86516C11.6574 5.93921 11.6648 5.85167 11.669 5.90129C11.673 5.95057 11.6635 6.02332 11.6758 6.02238C11.6792 5.97589 11.6696 5.85524 11.6787 5.83488C11.7139 5.76036 11.7803 5.85525 11.8086 5.86516C11.8368 5.87499 11.8459 5.86692 11.8623 5.88371C11.8919 5.91384 11.881 5.82339 11.8994 5.78215C11.9177 5.7426 11.9095 5.96259 11.9121 6.01066C11.9147 6.05835 11.9167 6.00984 11.9199 6.03605C11.9231 6.06216 11.9163 6.09453 11.9238 6.10441C11.9315 6.11424 11.9524 6.0293 11.9551 5.97941C11.9608 5.87385 11.9516 5.76305 11.9717 5.80168C11.9728 5.80397 11.9694 5.86131 11.9736 5.86808C12.0089 5.913 12.0458 5.91625 12.0811 5.95598C12.0856 5.96293 12.0813 6.02567 12.084 6.03019C12.1134 6.0717 12.1031 5.96229 12.1191 5.84074C12.1156 6.00185 12.1244 6.10075 12.1465 6.10246C12.1599 6.10309 12.1583 6.03215 12.167 5.98234C12.1697 5.96826 12.179 6.01536 12.1807 5.98234C12.1863 5.87397 12.1774 5.75284 12.2002 5.8007C12.2012 5.80297 12.198 5.86081 12.2012 5.86613C12.2237 5.8897 12.2266 5.77638 12.251 5.76262C12.2699 5.75206 12.3035 5.81994 12.3252 5.83195C12.3247 6.01367 12.3462 5.97269 12.3545 5.84758C12.3683 5.85229 12.3831 5.84565 12.3965 5.86223C12.4012 5.8681 12.3989 5.92052 12.3994 5.92668C12.4083 6.01427 12.4139 5.89849 12.417 5.88957C12.45 5.84307 12.4773 5.93503 12.5088 5.84465C12.5099 5.83812 12.5122 5.71656 12.5205 5.80754C12.521 5.8142 12.5106 5.87147 12.5254 5.8759C12.5403 5.88123 12.5675 5.94724 12.5879 5.88957C12.5929 5.8755 12.6061 5.7731 12.6162 5.85246C12.6176 5.86328 12.6163 5.89961 12.6182 5.91984C12.6244 5.984 12.6274 5.85714 12.6348 5.96476C12.6422 6.07326 12.658 6.15486 12.6787 6.08C12.6795 6.07469 12.684 5.97725 12.6904 5.97844C12.7008 5.98108 12.7157 6.00252 12.7266 6.00187C12.7316 6.00153 12.7289 5.94255 12.7295 5.93742C12.7645 5.9022 12.7897 5.95802 12.8272 5.98234C12.8344 5.98335 12.8532 5.90268 12.8662 5.96867C12.8808 6.04276 12.866 6.35068 12.8994 6.27824C12.913 6.24883 12.9307 5.85762 12.9551 6.06047C13.0022 6.01025 13.0455 6.11327 13.0928 6.04191C13.0949 6.0388 13.1015 5.93336 13.1065 5.93058C13.1139 5.933 13.1187 5.98386 13.124 5.98723C13.1462 6.00253 13.1662 5.95946 13.1875 5.96574C13.1956 5.96821 13.1934 6.02138 13.2031 6.02433C13.2126 6.02526 13.2195 5.95812 13.2324 5.99113C13.2423 6.01665 13.2515 6.15845 13.2647 6.1757C13.2652 6.03551 13.2749 6.03791 13.291 6.0009C13.2938 5.99228 13.2906 5.94517 13.292 5.93937C13.2979 5.91449 13.303 5.95424 13.3086 5.92766C13.31 5.92117 13.3104 5.87416 13.3115 5.86516C13.3211 5.79465 13.3371 5.90207 13.3399 5.92082C13.3502 5.99188 13.3544 5.9299 13.3623 5.95793C13.3702 5.98596 13.3589 6.021 13.3682 6.03801C13.3874 6.07303 13.4122 6.06511 13.4316 6.0673C13.4393 6.06724 13.4344 6.00424 13.4356 6.00285C13.4516 5.98737 13.4677 6.05393 13.4766 5.92766C13.4877 6.25537 13.486 5.89705 13.5088 5.96086C13.5106 5.96619 13.5128 6.12258 13.5059 6.14543C13.4989 6.16711 13.4891 6.11982 13.4795 6.15519C13.477 6.1658 13.4637 6.30952 13.4619 6.31828C13.448 6.38614 13.4461 6.15428 13.4453 6.14152C13.4369 6.00391 13.4212 6.16059 13.417 6.1718C13.3977 6.22155 13.3814 6.18902 13.3652 6.22453C13.3547 6.24773 13.353 6.39911 13.3447 6.39445C13.3175 6.37738 13.3081 6.168 13.2822 6.35148C13.2767 6.39114 13.2816 6.55644 13.2617 6.4257C13.2601 6.41441 13.2457 6.29928 13.2373 6.37394C13.2362 6.38371 13.2358 6.43238 13.2344 6.43644C13.225 6.46174 13.2192 6.42415 13.209 6.4423C13.1986 6.46082 13.1856 6.48806 13.1738 6.4716C13.1668 6.46033 13.1577 6.37149 13.1543 6.34953C13.1447 6.28586 13.1349 6.38992 13.1289 6.3134C13.1229 6.23578 13.1339 6.11745 13.1182 6.0673C13.1176 6.1934 13.1162 6.32331 13.1152 6.45012C13.0809 6.44547 13.0472 6.40474 13.0127 6.41008C13.0084 6.41089 13.0124 6.47874 13.0078 6.48137C12.9884 6.49186 12.9713 6.44361 12.9512 6.46281C12.9356 6.478 12.9187 6.5502 12.9024 6.56828C12.8924 6.4243 12.8682 6.47277 12.8506 6.45988C12.8445 6.45537 12.8451 6.41718 12.8408 6.40422C12.8243 6.35782 12.8316 6.48435 12.8272 6.5048C12.8077 6.59044 12.8061 6.30236 12.7832 6.30949C12.7813 6.31751 12.7667 6.46205 12.7647 6.47258C12.7517 6.53475 12.7628 6.42041 12.7549 6.40812C12.7401 6.38735 12.7293 6.35037 12.7119 6.39543C12.7068 6.40915 12.6954 6.50435 12.6856 6.43059C12.6843 6.42099 12.6846 6.37116 12.6836 6.36711C12.6647 6.31748 12.6641 6.47702 12.6533 6.53117C12.6425 6.58527 12.6255 6.47507 12.6221 6.44328C12.6133 6.36205 12.6291 6.407 12.6299 6.40031C12.6355 6.30483 12.6235 6.32021 12.6143 6.31242C12.6129 6.15577 12.5998 6.16515 12.6045 6.30461C12.605 6.31984 12.6124 6.30526 12.6143 6.31242C12.6061 6.46612 12.592 6.48535 12.5762 6.34172C12.5689 6.27449 12.5751 6.19685 12.5527 6.22551C12.543 6.23999 12.5468 6.34514 12.5381 6.37492C12.5177 6.4416 12.4908 6.34301 12.4697 6.35734C12.4621 6.3631 12.4691 6.42266 12.4639 6.42863C12.45 6.44424 12.4378 6.40038 12.4238 6.42277C12.4226 6.4249 12.4253 6.48644 12.4209 6.48723C12.3881 6.4942 12.3595 6.45523 12.3252 6.45402C12.3086 6.45352 12.279 6.48703 12.2617 6.48039C12.2319 6.46888 12.1945 6.37945 12.169 6.40129C12.1526 6.41564 12.1565 6.47753 12.1494 6.51945C12.1357 6.60053 12.1107 6.45418 12.1074 6.43156C12.1083 6.42988 12.1216 6.41528 12.1143 6.38469C12.11 6.32084 12.1077 6.42505 12.1074 6.43156C12.1048 6.41709 12.077 6.40335 12.0713 6.41496C12.0682 6.42142 12.07 6.48008 12.0684 6.48234C12.0302 6.53469 11.9919 6.54961 11.9531 6.52238C11.9525 6.52124 11.9535 6.46037 11.9522 6.45402C11.9297 6.42489 11.915 6.50507 11.8965 6.55266C11.878 6.59975 11.8635 6.58354 11.8525 6.4716C11.8386 6.48576 11.8182 6.43537 11.8066 6.40519C11.7952 6.37638 11.793 6.50327 11.792 6.50578C11.7605 6.58558 11.7426 6.51358 11.71 6.50187C11.6945 6.4963 11.6635 6.51434 11.6465 6.52824C11.6331 6.53948 11.6246 6.51011 11.6123 6.52922C11.6107 6.53291 11.6128 6.58857 11.6123 6.59074C11.5986 6.65863 11.6044 6.51991 11.6016 6.49504C11.5913 6.40488 11.585 6.35692 11.5674 6.39934C11.5633 6.41122 11.5513 6.60691 11.544 6.62004C11.5343 6.63486 11.5384 6.56379 11.5283 6.58098C11.5275 6.58239 11.5276 6.62629 11.5215 6.62492C11.4926 6.61646 11.4607 6.59022 11.4307 6.59465C11.427 6.59708 11.4318 6.6616 11.4268 6.66691C11.399 6.67521 11.3679 6.67326 11.3408 6.64055C11.3342 6.63226 11.3384 6.58291 11.3369 6.56828C11.3282 6.48167 11.3159 6.60356 11.3135 6.61027C11.264 6.67178 11.2262 6.55647 11.1758 6.61125C11.173 6.61449 11.152 6.75163 11.1426 6.63469C11.1419 6.62686 11.1323 6.50629 11.124 6.58781C11.1235 6.59296 11.1292 6.6554 11.1191 6.64934C11.109 6.64303 11.0931 6.68415 11.0791 6.61613C11.0747 6.59466 11.064 6.47441 11.0508 6.57023C11.0499 6.57692 11.0297 6.79328 11.0225 6.64445C11.0213 6.61989 11.0225 6.462 11.0068 6.54191C11.0038 6.55758 11.0088 6.5931 11.001 6.61516C10.9888 6.64912 10.9729 6.60717 10.958 6.67766C10.9554 6.69062 10.9444 6.79703 10.9356 6.71574C10.9342 6.70276 10.9363 6.65034 10.9316 6.64445C10.9094 6.61629 10.8859 6.65149 10.8633 6.61516C10.8553 6.60239 10.8597 6.51753 10.8516 6.49406C10.8432 6.47118 10.8261 6.44918 10.8174 6.4882C10.8088 6.5277 10.8178 6.66289 10.8047 6.67375C10.7478 6.72073 10.6916 6.64158 10.6348 6.6298C10.6264 6.62807 10.6331 6.67593 10.6211 6.67766C10.5752 6.68128 10.4959 6.72645 10.4561 6.62297C10.4243 6.54021 10.4638 6.47698 10.4395 6.44328C10.4278 6.43001 10.4149 6.5858 10.4121 6.59074C10.3845 6.64092 10.3657 6.57186 10.3408 6.59269C10.3358 6.59707 10.3399 6.6587 10.3359 6.66398C10.321 6.67509 10.3053 6.64712 10.291 6.65226C10.2846 6.65476 10.2852 6.7039 10.2793 6.70012C10.2653 6.69155 10.253 6.67057 10.2393 6.62492C10.238 6.62077 10.2464 6.56068 10.2363 6.55754C10.2194 6.55404 10.1982 6.50881 10.1787 6.55559C10.173 6.56989 10.1725 6.68121 10.1602 6.60441C10.1576 6.58827 10.161 6.45408 10.1465 6.57023C10.1438 6.59139 10.1193 6.74469 10.1074 6.64445C10.1043 6.61741 10.0968 6.50919 10.0899 6.52531C10.0889 6.52807 10.0927 6.58878 10.0869 6.59465C10.0667 6.61407 10.0452 6.60739 10.0244 6.6259C10.0189 6.63105 10.0269 6.69345 10.0186 6.69914C9.99577 6.71484 9.96763 6.69904 9.94532 6.67961C9.93709 6.67231 9.94201 6.62076 9.94141 6.61516C9.9319 6.5252 9.92705 6.6447 9.92384 6.65422C9.90396 6.69722 9.88845 6.63989 9.87012 6.65519C9.86534 6.66022 9.86807 6.7162 9.86719 6.72258C9.85682 6.77342 9.8648 6.66984 9.85841 6.65715C9.83996 6.62435 9.81946 6.62918 9.80079 6.63664C9.79391 6.63948 9.8011 6.70714 9.79493 6.70891C9.75844 6.72058 9.72018 6.71417 9.68458 6.67668C9.6781 6.66905 9.68195 6.61789 9.68067 6.60539C9.67105 6.52178 9.65759 6.63512 9.6543 6.64641C9.63952 6.69611 9.63318 6.64947 9.62012 6.65812C9.55649 6.70103 9.4781 6.67123 9.41798 6.65226C9.33953 6.62785 9.27794 6.57779 9.20313 6.59074C9.19912 6.5957 9.20319 6.66053 9.19923 6.66203C9.14635 6.67876 9.094 6.65167 9.04102 6.6718C9.03693 6.67459 9.04299 6.73921 9.03614 6.74406C9.02182 6.75412 9.00375 6.75053 8.98927 6.72941C8.98273 6.71816 8.99139 6.6632 8.98438 6.65422C8.96785 6.63298 8.95059 6.62805 8.9336 6.63859C8.92636 6.64325 8.93715 6.71105 8.92774 6.71184C8.86373 6.71854 8.80102 6.72978 8.73634 6.6425C8.7319 6.63648 8.72722 6.49896 8.71778 6.52531C8.71707 6.56344 8.71711 6.60858 8.7168 6.64934C8.62382 6.67101 8.53173 6.6236 8.43848 6.61613C8.43459 6.61584 8.44076 6.68668 8.4336 6.6884C8.38941 6.68732 8.346 6.70707 8.30079 6.63469C8.29654 6.6245 8.2982 6.50034 8.28516 6.51945C8.28196 6.52362 8.2629 6.54045 8.25782 6.5673C8.25712 6.57148 8.26119 6.63148 8.25489 6.63371C8.21776 6.64275 8.17869 6.6289 8.14161 6.59269C8.13563 6.58671 8.14188 6.52277 8.1377 6.5175C8.10736 6.4837 8.07393 6.53235 8.04493 6.47453C8.02552 6.4356 8.03278 6.32506 8.02247 6.21672C8.02081 6.20185 8.00846 6.19886 8.00782 6.13664C8.00623 5.9782 8.01215 5.80454 8.00977 5.63566C8.00927 5.59933 7.99351 5.63805 8.00294 5.5507C8.0036 5.54482 8.01569 5.51511 8.01856 5.48527C8.02054 5.46455 8.01644 5.40031 8.02052 5.37394C8.02459 5.34805 8.02939 5.40098 8.03614 5.37004C8.04277 5.33837 8.04027 5.26632 8.05372 5.25773ZM13.0469 6.23527C13.0329 6.13656 13.0234 6.28193 13.0332 6.35832C13.0431 6.43465 13.0511 6.26527 13.0469 6.23527ZM8.06153 6.18351C8.05695 6.25466 8.07398 6.26038 8.07032 6.18644C8.07017 6.18347 8.06174 6.18056 8.06153 6.18351ZM13.3359 6.08488C13.3309 6.0419 13.316 6.09101 13.3223 6.14445C13.3274 6.18738 13.3422 6.13824 13.3359 6.08488ZM11.1914 6.04387C11.1918 6.10472 11.2001 6.0874 11.1973 6.03117C11.1969 6.02791 11.1913 6.02534 11.1914 6.04387ZM13.5615 5.83586C13.5683 5.84196 13.5467 5.91972 13.5557 5.94328C13.5722 5.98557 13.5827 5.82184 13.5996 5.91008C13.6023 5.92742 13.5828 6.07649 13.5801 6.08098L13.5674 6.06535C13.5396 6.00719 13.5272 5.80994 13.5615 5.83586ZM11.7393 5.99894C11.7347 6.06971 11.7517 6.07482 11.7481 6.0009C11.7469 5.99815 11.7395 5.99619 11.7393 5.99894ZM10.8145 5.88664C10.8042 6.00269 10.8448 6.01469 10.8359 5.8925C10.8352 5.88623 10.8151 5.88086 10.8145 5.88664Z" fill="#555961"/>
<path d="M6.87145 13.7919C6.89986 13.7667 7.13846 13.8792 7.09313 13.8984C7.08407 13.9006 7.02808 13.8437 7.00328 13.8398C6.95823 13.8329 7.09502 13.924 7.01012 13.8945C6.99382 13.8884 6.86991 13.7935 6.87145 13.7919ZM9.29821 8.80169C9.34163 8.80435 9.43359 8.86583 9.53258 8.91107C9.54648 8.91735 9.55504 8.90757 9.60973 8.93841C9.74779 9.01627 9.89484 9.10894 10.0423 9.19134C10.0741 9.20908 10.0484 9.17549 10.1195 9.22747C10.1243 9.23099 10.1439 9.25596 10.1683 9.27337C10.1852 9.28543 10.2432 9.31426 10.264 9.33099C10.2837 9.34705 10.2359 9.32449 10.2591 9.34564C10.2828 9.36702 10.3463 9.40075 10.348 9.41693C10.3492 9.45387 10.3104 9.47938 10.2699 9.49212C10.257 9.49551 10.2253 9.47169 10.2152 9.47357C10.1956 9.47742 10.2061 9.49774 10.1839 9.49993C10.1763 9.50054 10.1243 9.4644 10.1175 9.46575C10.081 9.4734 10.0831 9.50237 10.0589 9.51751C9.93982 9.59199 9.85846 9.68578 9.77086 9.78021C9.74202 9.81138 9.66726 9.82645 9.66735 9.87591C9.66742 9.88173 9.71661 9.90699 9.72008 9.91009C9.77247 9.9574 9.68019 9.89827 9.66149 9.89837C9.59153 9.90258 9.56498 9.93758 9.56481 9.9804C9.56489 9.99872 9.66791 10.0403 9.6068 10.0234C9.60265 10.0223 9.55406 9.98876 9.54625 9.98919C9.52916 9.99067 9.52868 10.0122 9.52086 10.0165C9.50552 10.0246 9.50492 10.0273 9.49743 10.039C9.48672 10.0547 9.45043 10.0598 9.45153 10.0839C9.45196 10.0892 9.50668 10.1148 9.51207 10.1259C9.51724 10.137 9.50393 10.1501 9.48864 10.1484C9.47325 10.1466 9.43314 10.1206 9.42321 10.1161C9.3402 10.0787 9.43944 10.1601 9.44078 10.164C9.46196 10.2336 9.37835 10.235 9.35485 10.2753C9.33735 10.3063 9.33843 10.3512 9.31871 10.3788C9.29499 10.4117 9.24945 10.4251 9.23473 10.4618C9.23388 10.466 9.29711 10.4972 9.29528 10.5019C9.27559 10.5523 9.24213 10.5948 9.17418 10.6171C9.16657 10.6186 9.1168 10.5816 9.1068 10.582C9.04612 10.5848 8.91478 10.5687 9.13903 10.7206C9.11879 10.7346 9.09558 10.7522 9.03844 10.7421C9.00168 10.7356 8.94912 10.6917 8.96618 10.7197C8.96997 10.7259 9.02393 10.7515 9.02575 10.7587C9.03326 10.7889 9.00446 10.8004 9.01989 10.8349C9.02316 10.842 9.06956 10.867 9.0775 10.873C9.13921 10.921 9.01915 10.8733 9.00914 10.872C8.93443 10.863 8.94719 10.8949 8.932 10.9179C8.92843 10.9232 8.99376 10.9525 8.99254 10.9589C8.98538 10.9917 8.96329 11.017 8.92028 11.0283C8.90982 11.0299 8.86113 10.9954 8.85387 10.9951C8.82313 10.9941 8.91951 11.0535 8.89196 11.0536C8.88607 11.0537 8.84151 11.0258 8.83629 11.0234C8.7546 10.986 8.86132 11.0562 8.86266 11.0595C8.88096 11.1017 8.75815 11.0516 8.7611 11.0839C8.76468 11.0889 8.82048 11.1139 8.81969 11.123C8.8056 11.1837 8.75808 11.23 8.68297 11.2548C8.67083 11.2578 8.63183 11.228 8.62633 11.2255C8.54027 11.1866 8.64549 11.2537 8.64977 11.2597C8.66792 11.2974 8.56426 11.2636 8.68785 11.3534C8.59218 11.4137 8.61609 11.5427 8.4486 11.5605C8.44638 11.5606 8.39658 11.5296 8.39 11.5283C8.34431 11.5368 8.43138 11.5801 8.52477 11.6572C8.54822 11.6765 8.41546 11.6183 8.40563 11.6142C8.36941 11.599 8.29092 11.5472 8.28356 11.5449C8.22677 11.5278 8.49471 11.6801 8.48571 11.6962C8.48497 11.6965 8.43684 11.6656 8.43102 11.664C8.41322 11.6593 8.42984 11.6746 8.41051 11.6689C8.36533 11.6552 8.23492 11.5847 8.30211 11.6425C8.31395 11.6516 8.46386 11.735 8.4486 11.7451C8.44229 11.7492 8.43023 11.7759 8.41637 11.7773C8.4024 11.7786 8.35628 11.7448 8.35387 11.7441C8.2784 11.7258 8.25548 11.7037 8.15465 11.6581C8.05369 11.6126 8.28285 11.7411 8.30602 11.7597C8.32818 11.7778 8.26689 11.7611 8.24645 11.7538C8.22592 11.7465 8.19714 11.7246 8.18492 11.7216C8.10525 11.7025 8.2933 11.7957 8.32555 11.8232C8.40126 11.8877 8.22768 11.8036 8.20153 11.8076C8.19481 11.8089 8.23509 11.8284 8.23668 11.8339C8.24166 11.8549 8.18495 11.8337 8.22399 11.8769C8.23164 11.8849 8.32409 11.9544 8.24547 11.9199C8.23406 11.9148 8.19384 11.8872 8.18102 11.8876C8.16202 11.8882 8.14368 11.8987 8.15172 11.9159C8.15812 11.9289 8.23201 11.9616 8.20543 11.9579C8.19321 11.9556 8.15776 11.9252 8.13903 11.9238C8.12046 11.9226 8.11158 11.942 8.10875 11.9501C8.10617 11.9578 8.15836 11.9838 8.16344 11.9872C8.18175 12.0024 8.19935 12.031 8.1986 12.0322C8.16998 12.0958 8.04982 12.1003 8.04528 12.1757C8.04485 12.1816 8.10239 12.2106 8.10289 12.2118C8.11642 12.2405 7.97588 12.1434 7.92028 12.1259C8.03336 12.1891 8.01026 12.1841 8.01598 12.2021C8.01893 12.2109 8.06454 12.2332 8.06871 12.2363C8.13001 12.2822 8.04112 12.2391 8.02282 12.2304C7.95545 12.1985 8.02784 12.2477 7.98278 12.2265C7.93809 12.2054 7.8797 12.1607 7.87438 12.1718C7.91278 12.1979 8.02237 12.2503 8.03551 12.2685C8.08218 12.3358 7.96835 12.3458 7.94469 12.3652C7.92201 12.3847 7.92445 12.3974 7.90172 12.4033C7.86053 12.4138 7.94356 12.4496 7.97008 12.4863C7.99605 12.5225 7.80972 12.4034 7.76696 12.3818C7.72436 12.3602 7.76492 12.3872 7.74059 12.3769C7.71668 12.3667 7.69246 12.3455 7.68004 12.3466C7.66775 12.3483 7.72999 12.4081 7.77184 12.4355C7.8605 12.4933 7.96118 12.541 7.91735 12.539C7.9125 12.5372 7.86589 12.5059 7.85875 12.5068C7.80245 12.5149 7.78178 12.5459 7.72985 12.5566C7.72251 12.5579 7.66828 12.5219 7.66344 12.5224C7.61351 12.5272 7.7129 12.5729 7.80992 12.6474C7.6717 12.5634 7.58166 12.5212 7.56969 12.54C7.56248 12.5512 7.62463 12.5848 7.66344 12.6171C7.67513 12.6269 7.62883 12.6108 7.6566 12.6288C7.74785 12.6881 7.85749 12.7415 7.80407 12.7372C7.80072 12.7363 7.7541 12.7053 7.74742 12.705C7.71591 12.7127 7.81113 12.7716 7.81188 12.7997C7.81169 12.8217 7.73485 12.8168 7.71422 12.83C7.55707 12.7388 7.58253 12.7777 7.68688 12.8476C7.6758 12.8573 7.67409 12.8737 7.6527 12.8769C7.64536 12.878 7.6025 12.8498 7.59606 12.8466C7.5144 12.8099 7.61641 12.8755 7.6195 12.8808C7.64326 12.9326 7.54935 12.91 7.61168 12.9824C7.61394 12.9849 7.7226 13.0492 7.63903 13.0107C7.63325 13.008 7.58778 12.9708 7.57653 12.9814C7.56398 12.9914 7.49361 12.9827 7.53356 13.0292C7.54388 13.041 7.62527 13.1024 7.55114 13.0712C7.54095 13.0668 7.51092 13.0474 7.49254 13.039C7.43375 13.0123 7.54235 13.079 7.44469 13.0312C7.34704 12.9833 7.26913 12.9563 7.3236 13.0117C7.32808 13.0152 7.41008 13.0684 7.40563 13.0732C7.39815 13.0809 7.37247 13.083 7.36754 13.0927C7.36526 13.0974 7.42082 13.1251 7.42223 13.1269C7.43522 13.1747 7.37415 13.1692 7.33434 13.1894C7.32693 13.193 7.39089 13.2528 7.32555 13.2304C7.25395 13.2059 6.99449 13.0386 7.04137 13.1044C7.06061 13.1312 7.39018 13.3409 7.2025 13.2607C7.22239 13.3266 7.11097 13.3132 7.14879 13.3896C7.15044 13.3929 7.23734 13.4505 7.23864 13.457C7.23293 13.4621 7.18783 13.4413 7.18102 13.4433C7.15659 13.4549 7.18393 13.4945 7.16735 13.5097C7.16114 13.5155 7.11714 13.4871 7.10973 13.4941C7.10299 13.5013 7.15889 13.5405 7.1234 13.5351C7.09625 13.5308 6.9696 13.4692 6.94762 13.4716C7.06834 13.5419 7.06157 13.5488 7.08532 13.581C7.0899 13.5871 7.13234 13.6085 7.13805 13.6132C7.15685 13.6309 7.11912 13.6161 7.14 13.6347C7.14518 13.6392 7.18571 13.6626 7.19274 13.6679C7.24861 13.7111 7.14987 13.6715 7.13121 13.664C7.06452 13.6374 7.11507 13.6729 7.08727 13.6659C7.05902 13.6588 7.03437 13.6303 7.015 13.6298C6.97509 13.6289 6.96899 13.6541 6.95739 13.6699C6.95299 13.6763 7.01142 13.7043 7.01207 13.706C7.01737 13.7276 6.95169 13.7082 7.057 13.7792C6.76666 13.6245 7.07878 13.8035 7.0111 13.7909C7.00557 13.7899 6.8692 13.7137 6.85289 13.6962C6.83696 13.679 6.88373 13.694 6.85778 13.6679C6.84972 13.6604 6.73358 13.5778 6.72594 13.5712C6.67314 13.5246 6.87564 13.6397 6.88707 13.6454C7.00859 13.706 6.88509 13.6161 6.87535 13.6054C6.84191 13.5638 6.87754 13.5658 6.85485 13.5341C6.83967 13.5134 6.7114 13.4376 6.71715 13.4316C6.74427 13.4154 6.93312 13.513 6.78649 13.3984C6.75445 13.3736 6.60935 13.2959 6.7318 13.3437C6.73958 13.3467 6.85076 13.3939 6.78942 13.3486C6.7812 13.3426 6.73948 13.3186 6.73668 13.3154C6.71913 13.2944 6.75522 13.308 6.7445 13.29C6.73363 13.2718 6.71652 13.247 6.73668 13.2451C6.75022 13.2447 6.83097 13.2808 6.85192 13.289C6.91196 13.3126 6.82698 13.2516 6.89684 13.2851C6.96704 13.3187 7.06336 13.3879 7.11461 13.3993C7.00575 13.3358 6.89384 13.2702 6.78453 13.206C6.80565 13.1783 6.85797 13.1685 6.87047 13.1357C6.86904 13.1305 6.81161 13.1021 6.8109 13.0966C6.81129 13.0744 6.86144 13.0836 6.85485 13.0566C6.84926 13.0354 6.79594 12.985 6.78844 12.9618C6.9179 13.0251 6.88879 12.9805 6.90856 12.9716C6.91558 12.9686 6.94919 12.9877 6.96227 12.9902C7.00986 12.9988 6.89629 12.9416 6.88121 12.9277C6.81746 12.8685 7.06566 13.0104 7.07262 12.9882C7.07298 12.987 6.94726 12.8972 6.93981 12.8906C6.8922 12.8481 6.98742 12.9154 7.00133 12.914C7.02666 12.9116 7.06334 12.9209 7.03356 12.8837C7.02454 12.8727 6.9478 12.8142 7.01696 12.8427C7.02706 12.8472 7.06958 12.8724 7.07262 12.873C7.12414 12.881 6.98607 12.8009 6.94469 12.7646C6.90384 12.7285 7.00718 12.7692 7.03649 12.7822C7.11214 12.8156 7.06392 12.8051 7.07067 12.8095C7.15101 12.8624 7.14298 12.8438 7.15465 12.8398C7.29069 12.9168 7.28926 12.9004 7.16637 12.8349C7.15309 12.8278 7.16127 12.8413 7.15465 12.8398C7.02562 12.7559 7.01554 12.7338 7.14782 12.7919C7.20961 12.8191 7.27333 12.8643 7.26012 12.831C7.25399 12.8157 7.15903 12.7646 7.13805 12.7421C7.09061 12.6912 7.18971 12.7177 7.18785 12.6923C7.18671 12.6828 7.13181 12.6588 7.12926 12.6513C7.12294 12.6317 7.16597 12.6432 7.15367 12.6201C7.15246 12.6179 7.09749 12.5891 7.09899 12.5849C7.10941 12.5529 7.15801 12.5477 7.17614 12.5185C7.18474 12.5042 7.17041 12.4616 7.18492 12.4501C7.20997 12.4301 7.3063 12.4431 7.30016 12.4101C7.29632 12.3887 7.24028 12.3611 7.20739 12.3339C7.14395 12.2814 7.28283 12.3333 7.30407 12.3417C7.30513 12.3434 7.3113 12.3621 7.34117 12.371C7.39956 12.3997 7.30767 12.3441 7.30407 12.3417C7.31779 12.347 7.3444 12.3291 7.33727 12.3183C7.33322 12.3124 7.2808 12.2847 7.27965 12.2822C7.25348 12.2229 7.26002 12.1819 7.30309 12.162C7.30446 12.162 7.36113 12.1957 7.36364 12.1952C7.39906 12.19 7.33793 12.1382 7.30602 12.0986C7.27409 12.0587 7.29493 12.0538 7.39782 12.1005C7.39256 12.0814 7.44497 12.0886 7.47692 12.0937C7.50831 12.0987 7.40279 12.0362 7.39782 12.0322C7.34376 11.9644 7.41647 11.9846 7.44274 11.9618C7.45531 11.951 7.45416 11.9151 7.45055 11.8935C7.44751 11.8763 7.47743 11.8843 7.46715 11.8642C7.46579 11.8615 7.41705 11.835 7.41442 11.8329C7.36245 11.7871 7.47942 11.8621 7.50231 11.872C7.58548 11.9082 7.62978 11.9269 7.60192 11.8906C7.59557 11.8822 7.43028 11.7729 7.42223 11.7597C7.41422 11.744 7.47378 11.7826 7.46422 11.7656C7.46343 11.7641 7.42544 11.7417 7.43004 11.7372C7.4518 11.7165 7.49017 11.702 7.50133 11.6738C7.50079 11.6692 7.43958 11.6397 7.44078 11.6337C7.44748 11.6055 7.46524 11.5802 7.50719 11.5732C7.51804 11.572 7.55839 11.6004 7.57164 11.6064C7.65161 11.6423 7.54733 11.5674 7.54625 11.5644C7.51775 11.4907 7.63717 11.5156 7.61461 11.4443C7.61082 11.4385 7.50615 11.3541 7.61168 11.4042C7.61985 11.4081 7.72738 11.4592 7.66051 11.4111C7.65553 11.4077 7.60099 11.3829 7.60973 11.3769C7.62025 11.3713 7.59302 11.3366 7.65856 11.3583C7.67937 11.3652 7.78868 11.4167 7.71227 11.3574C7.70533 11.3522 7.53094 11.2267 7.66344 11.2949C7.68582 11.3064 7.82063 11.3865 7.75914 11.3329C7.74703 11.3225 7.71372 11.3088 7.6986 11.2909C7.67545 11.2636 7.71989 11.2707 7.66637 11.2226C7.65654 11.2139 7.56937 11.1517 7.64391 11.1845C7.65566 11.1897 7.7009 11.2178 7.70836 11.2167C7.74343 11.2113 7.72515 11.1741 7.76793 11.1728C7.78352 11.1728 7.85403 11.218 7.87828 11.2226C7.90225 11.2268 7.93002 11.2232 7.90075 11.1962C7.87147 11.1693 7.74957 11.1099 7.74547 11.0927C7.73301 11.0197 7.83092 11.0102 7.8695 10.9667C7.8743 10.9601 7.82897 10.9417 7.83434 10.9306C7.8541 10.889 7.85476 10.7981 7.96422 10.8154C8.05189 10.8292 8.0869 10.8958 8.12828 10.8915C8.14625 10.8884 8.0169 10.7988 8.01403 10.7939C7.98412 10.7446 8.05435 10.7628 8.04821 10.7304C8.04603 10.7234 7.98911 10.6957 7.98864 10.6904C7.98705 10.6723 8.01901 10.6729 8.02184 10.6581C8.02289 10.6513 7.97948 10.6272 7.98571 10.624C8.00008 10.616 8.0243 10.616 8.07067 10.6269C8.0749 10.6279 8.12365 10.6656 8.13121 10.6581C8.14269 10.6452 8.19199 10.6494 8.16149 10.6093C8.15221 10.5973 8.05584 10.5407 8.12828 10.5683C8.14356 10.5741 8.25846 10.6446 8.16539 10.5742C8.14991 10.5624 8.02644 10.4629 8.1195 10.5029C8.14409 10.5134 8.24329 10.5615 8.2318 10.5468C8.2277 10.5436 8.17633 10.5174 8.17418 10.5097C8.16753 10.4826 8.18276 10.4675 8.17711 10.4404C8.17544 10.433 8.11734 10.4084 8.11657 10.3984C8.11454 10.371 8.14247 10.3543 8.17028 10.3447C8.18056 10.3412 8.22178 10.3709 8.22789 10.374C8.31109 10.411 8.20953 10.346 8.20348 10.3388C8.17618 10.3001 8.23394 10.3154 8.22985 10.2919C8.22821 10.2853 8.17624 10.2593 8.17223 10.2558C8.13327 10.2213 8.22003 10.2808 8.23375 10.2812C8.27145 10.2816 8.27776 10.2611 8.28063 10.2411C8.2816 10.2338 8.21904 10.2065 8.22008 10.2001C8.22816 10.1627 8.25304 10.1332 8.30309 10.121C8.31267 10.1188 8.35647 10.1485 8.36754 10.1533C8.44467 10.1867 8.35312 10.1177 8.34508 10.1093C8.30946 10.0717 8.35279 10.0897 8.35192 10.0742C8.3465 9.99756 8.41185 9.94488 8.45836 9.90228C8.51872 9.84655 8.59232 9.81824 8.61852 9.747C8.62021 9.74259 8.55962 9.71315 8.55797 9.70794C8.56987 9.6537 8.6202 9.62136 8.62926 9.56536C8.62747 9.55995 8.56952 9.53359 8.56871 9.52532C8.56717 9.50795 8.57949 9.49418 8.60485 9.49212C8.61716 9.49109 8.66165 9.52772 8.67321 9.5263C8.69986 9.5226 8.71289 9.50915 8.71227 9.48919C8.71186 9.4806 8.64769 9.45574 8.65172 9.4472C8.67789 9.38844 8.69994 9.32862 8.80797 9.31634C8.81821 9.31723 8.93517 9.37971 8.91832 9.35931C8.88565 9.33962 8.84605 9.31746 8.8109 9.29681C8.83852 9.20504 8.92669 9.14856 8.97985 9.07122C8.98055 9.06742 8.91613 9.03785 8.9193 9.03118C8.94233 8.99345 8.94632 8.94626 9.0316 8.94329C9.04096 8.94362 9.14915 9.00827 9.13903 8.98724C9.13699 8.98219 9.13236 8.95712 9.11168 8.93939C9.10847 8.93674 9.05668 8.91137 9.05602 8.90423C9.06679 8.8674 9.09854 8.84007 9.14879 8.82611C9.15801 8.82495 9.20896 8.86156 9.2152 8.86028C9.25931 8.85081 9.23409 8.79807 9.29821 8.80169ZM6.94567 13.537C6.90589 13.52 6.94115 13.5578 6.99059 13.579C7.03038 13.5961 6.99512 13.5583 6.94567 13.537ZM6.90465 13.1806C6.83374 13.151 6.97596 13.2424 7.00426 13.2538C7.09693 13.2912 6.97575 13.2103 6.90465 13.1806ZM7.8568 12.246C7.85964 12.2468 7.8659 12.2408 7.86364 12.2392C7.80428 12.1996 7.79082 12.2121 7.8568 12.246ZM8.10582 11.7529C8.1088 11.7544 8.11444 11.7515 8.09801 11.7421C8.04533 11.7122 8.05611 11.7273 8.10582 11.7529ZM8.42321 11.4951C8.32762 11.4279 8.29655 11.4563 8.4066 11.5097C8.41217 11.5124 8.42686 11.4989 8.42321 11.4951ZM9.53551 8.96771C9.53824 8.96884 9.54477 8.9625 9.54235 8.96087C9.48315 8.92146 9.46961 8.93391 9.53551 8.96771Z" fill="#555961"/>
<path d="M3.81273 4.11092C3.87901 4.08879 3.67888 4.20644 3.6682 4.21346C3.5539 4.28908 3.6949 4.2259 3.70824 4.22323C3.7608 4.21508 3.74121 4.24534 3.77953 4.24178C3.80468 4.23944 3.93763 4.16392 3.93773 4.17342C3.93805 4.205 3.75883 4.31901 3.93089 4.24959C3.96772 4.23476 4.10953 4.14732 4.00609 4.23006C3.99796 4.23648 3.904 4.30692 3.97289 4.27694C3.9817 4.27309 4.02431 4.24943 4.02855 4.24862C4.05578 4.24381 4.02595 4.26845 4.04711 4.26815C4.06821 4.26782 4.09804 4.26469 4.09007 4.2828C4.08511 4.29388 4.01088 4.34689 3.99339 4.36092C3.94297 4.40114 4.03874 4.35817 3.97484 4.40194C3.91064 4.4459 3.80241 4.49411 3.76683 4.5328C3.87633 4.47026 3.98955 4.40691 4.09984 4.34432C4.11326 4.37645 4.09527 4.42647 4.11742 4.4537C4.12305 4.45473 4.17645 4.41984 4.18089 4.42245C4.19963 4.434 4.16692 4.47225 4.19359 4.48006C4.21474 4.48582 4.28508 4.46523 4.30882 4.4703C4.18932 4.55076 4.24273 4.54734 4.24046 4.56893C4.2396 4.57654 4.20619 4.59596 4.1975 4.60604C4.16604 4.64315 4.27262 4.57308 4.29222 4.56698C4.37468 4.54162 4.12851 4.68544 4.14378 4.70272C4.14463 4.70363 4.28583 4.63933 4.29515 4.63631C4.35523 4.61653 4.25014 4.6656 4.24437 4.67831C4.23379 4.70147 4.20689 4.72856 4.25414 4.72127C4.26823 4.719 4.35738 4.68152 4.29808 4.72713C4.28977 4.73336 4.24683 4.75775 4.24437 4.76034C4.21083 4.80152 4.34934 4.7214 4.4016 4.7037C4.45311 4.6864 4.36709 4.75597 4.34105 4.77498C4.27492 4.82332 4.30643 4.7878 4.30003 4.79061C4.2151 4.8332 4.23349 4.83552 4.23168 4.84725C4.09668 4.92674 4.11129 4.93376 4.22972 4.85995C4.24265 4.85187 4.22641 4.85244 4.23168 4.84725C4.36864 4.7776 4.39292 4.78045 4.2766 4.86581C4.22199 4.90586 4.15067 4.93886 4.18675 4.94393C4.20357 4.94581 4.2946 4.8893 4.32445 4.88241C4.39254 4.86679 4.31871 4.94037 4.343 4.95077C4.35191 4.95444 4.39967 4.91796 4.40746 4.91952C4.42769 4.92378 4.3961 4.95661 4.42211 4.9576C4.42459 4.95763 4.47687 4.92395 4.47972 4.92733C4.50227 4.95232 4.48301 4.99661 4.49925 5.02694C4.50721 5.04157 4.55126 5.0506 4.55394 5.06893C4.55875 5.10045 4.49994 5.1763 4.5305 5.18807C4.55088 5.19548 4.60281 5.162 4.64281 5.14706C4.72033 5.11818 4.60626 5.21186 4.58812 5.22616C4.58752 5.22662 4.56773 5.22151 4.54418 5.24373C4.48936 5.28049 4.587 5.2266 4.58812 5.22616C4.57653 5.23534 4.57895 5.26718 4.59203 5.2662C4.59979 5.26514 4.64857 5.23488 4.6516 5.23495C4.71603 5.24186 4.7476 5.26786 4.74339 5.31502C4.73989 5.31772 4.68567 5.34885 4.6848 5.35116C4.67173 5.38443 4.74785 5.35692 4.79808 5.3492C4.84853 5.34146 4.84215 5.36257 4.75023 5.42831C4.76927 5.43345 4.73638 5.47554 4.71605 5.50057C4.69618 5.52531 4.80711 5.46287 4.8098 5.46248C4.89525 5.44967 4.8413 5.5026 4.84789 5.5367C4.85129 5.55284 4.88222 5.57006 4.90257 5.57772C4.91899 5.58368 4.89744 5.60591 4.92015 5.60702C4.92345 5.60701 4.97172 5.57739 4.97386 5.57674C5.03932 5.55479 4.91578 5.61854 4.89574 5.63338C4.82295 5.68726 4.78482 5.71649 4.83031 5.71053C4.84361 5.70766 5.01973 5.61915 5.03343 5.61971C5.05052 5.62082 4.9872 5.6538 5.00707 5.65389C5.00873 5.65393 5.04666 5.63191 5.04808 5.63827C5.05504 5.66746 5.04886 5.70738 5.06761 5.73104C5.07008 5.73433 5.12854 5.69458 5.13304 5.69881C5.15407 5.71871 5.16646 5.74692 5.1516 5.7867C5.14655 5.79674 5.10406 5.81727 5.09203 5.82577C5.02109 5.87682 5.13369 5.82567 5.13988 5.82479C5.21798 5.83691 5.13713 5.9278 5.21019 5.94393C5.21915 5.9427 5.34157 5.89584 5.24632 5.96151C5.23987 5.96598 5.14053 6.03408 5.21507 6.00057C5.2198 5.99844 5.27114 5.96225 5.27074 5.9742C5.27097 5.98581 5.31364 5.98011 5.26195 6.02596C5.24442 6.04125 5.14775 6.10901 5.23656 6.07284C5.24278 6.07024 5.4404 5.97917 5.31468 6.06014C5.29396 6.07347 5.15648 6.15153 5.23461 6.12459C5.24976 6.11924 5.27804 6.09749 5.30101 6.09334C5.33588 6.08721 5.30797 6.12144 5.37621 6.0992C5.38979 6.09452 5.48568 6.05219 5.42015 6.10018C5.40934 6.10789 5.36474 6.13088 5.36058 6.13827C5.34718 6.17176 5.38872 6.1746 5.36839 6.21248C5.36079 6.226 5.28534 6.26516 5.26976 6.28377C5.25426 6.30238 5.24384 6.32763 5.28148 6.316C5.31967 6.30406 5.43346 6.22806 5.44945 6.23397C5.51827 6.25982 5.47827 6.34785 5.49632 6.40291C5.49901 6.41102 5.53661 6.38177 5.54418 6.3912C5.57022 6.42907 5.6496 6.4751 5.58031 6.56112C5.52447 6.63018 5.44987 6.62764 5.43285 6.66561C5.42618 6.68299 5.56776 6.61486 5.57347 6.61483C5.63112 6.61356 5.58046 6.66549 5.61156 6.67635C5.6191 6.67737 5.66815 6.64472 5.67503 6.6451C5.69216 6.65252 5.67604 6.68024 5.68773 6.69002C5.69424 6.69317 5.73416 6.66915 5.73461 6.67538C5.73433 6.69182 5.72234 6.71292 5.68968 6.74764C5.68669 6.75082 5.62977 6.77456 5.63304 6.78475C5.63819 6.80124 5.60995 6.84173 5.65941 6.83553C5.67448 6.83351 5.77175 6.77743 5.71117 6.82674C5.69849 6.83707 5.58088 6.90157 5.68871 6.85604C5.70821 6.8479 5.85349 6.79179 5.77269 6.85213C5.75139 6.86805 5.66104 6.92911 5.67796 6.92733C5.68082 6.92677 5.73153 6.89402 5.73949 6.89608C5.76639 6.90391 5.77148 6.92553 5.79808 6.93416C5.80533 6.93641 5.85541 6.89759 5.86449 6.90194C5.88935 6.91383 5.88965 6.94622 5.88402 6.97518C5.88186 6.98575 5.83636 7.00643 5.83031 7.01034C5.75611 7.06429 5.86546 7.00823 5.87328 7.00741C5.92022 7.00322 5.87822 7.0451 5.90062 7.05331C5.90835 7.05408 5.95479 7.02313 5.96019 7.02108C6.00972 7.00454 5.91422 7.05056 5.90746 7.06209C5.88836 7.09447 5.90334 7.1102 5.91918 7.12264C5.9262 7.12593 5.97934 7.08671 5.98461 7.09041C6.01303 7.11618 6.02663 7.15308 6.01195 7.20272C6.00853 7.21223 5.96101 7.23463 5.9514 7.24178C5.88405 7.2918 5.99016 7.24734 6.00121 7.24471C6.05077 7.23293 6.0148 7.25983 6.02757 7.26717C6.09662 7.30079 6.10964 7.3843 6.12328 7.44588C6.14136 7.52603 6.12934 7.60436 6.17796 7.66268C6.18367 7.66418 6.23912 7.62677 6.24242 7.62948C6.28343 7.6669 6.28538 7.72644 6.32933 7.76229C6.33341 7.76478 6.38726 7.72638 6.39476 7.73006C6.41055 7.73744 6.41644 7.75492 6.4055 7.77791C6.40026 7.78905 6.34691 7.80916 6.34203 7.81991C6.33188 7.84488 6.33704 7.86321 6.35472 7.87264C6.36363 7.87489 6.41356 7.8344 6.42015 7.84041C6.458 7.89256 6.49974 7.94172 6.45628 8.04159C6.45125 8.04953 6.33795 8.1199 6.36351 8.11581C6.3969 8.09735 6.43645 8.0744 6.47191 8.05428C6.53743 8.12409 6.5419 8.22844 6.58226 8.31307C6.58514 8.31566 6.64408 8.2742 6.64769 8.28084C6.66888 8.31949 6.70711 8.34639 6.66722 8.42147C6.66333 8.42889 6.55204 8.491 6.57543 8.49276C6.58066 8.49345 6.60519 8.50194 6.63109 8.49276C6.63684 8.49003 6.68507 8.4579 6.68968 8.46248C6.71611 8.49023 6.72321 8.53119 6.71019 8.58163C6.70751 8.58995 6.64973 8.61655 6.64769 8.62264C6.63412 8.66542 6.69193 8.67036 6.65648 8.7242C6.63208 8.76044 6.53297 8.80875 6.44457 8.87166C6.43222 8.88056 6.43612 8.89247 6.38207 8.9244C6.24565 9.005 6.09257 9.08692 5.9475 9.17342C5.91624 9.19205 5.958 9.18657 5.87718 9.22225C5.87177 9.22461 5.84092 9.22945 5.81371 9.24178C5.79494 9.25032 5.74113 9.28463 5.71605 9.29452C5.69124 9.30414 5.73501 9.2744 5.70531 9.28377C5.67494 9.29355 5.61365 9.33148 5.59886 9.32479C5.56631 9.30741 5.56335 9.26165 5.5725 9.2203C5.57525 9.20759 5.61094 9.19206 5.61546 9.18221C5.62222 9.16308 5.59943 9.16156 5.60863 9.1412C5.61185 9.13444 5.66674 9.10836 5.67113 9.10116C5.68279 9.06568 5.6575 9.05254 5.65648 9.02401C5.6515 8.88369 5.61143 8.76618 5.57347 8.64315C5.56089 8.60254 5.5843 8.53004 5.54125 8.50545C5.53421 8.50437 5.48988 8.53334 5.48558 8.53475C5.41835 8.55644 5.51669 8.50468 5.52464 8.48885C5.55599 8.42613 5.53925 8.38638 5.50218 8.36483C5.48584 8.35636 5.39995 8.42437 5.44457 8.38045C5.44762 8.37741 5.50089 8.35121 5.50414 8.34432C5.51127 8.32899 5.49273 8.31802 5.49242 8.30916C5.49309 8.2918 5.49196 8.28932 5.48558 8.27694C5.47747 8.25971 5.49063 8.22542 5.46898 8.21444C5.46223 8.21398 5.41461 8.24754 5.40257 8.24666C5.39075 8.24535 5.38617 8.2277 5.39476 8.21541C5.40395 8.20295 5.44647 8.18077 5.45531 8.1744C5.52987 8.12092 5.40958 8.16641 5.4055 8.16561C5.33447 8.14905 5.37537 8.07518 5.35179 8.03475C5.33366 8.00441 5.29458 7.98341 5.2805 7.95272C5.26393 7.91575 5.27466 7.86957 5.25023 7.83846C5.24558 7.83687 5.18891 7.87459 5.18578 7.87069C5.15194 7.82842 5.13207 7.77858 5.14671 7.70858C5.14824 7.70153 5.2053 7.67651 5.21019 7.66756C5.23802 7.61369 5.31819 7.50733 5.07445 7.62557C5.0725 7.60113 5.06852 7.57223 5.1057 7.52791C5.12976 7.49934 5.19419 7.47631 5.16136 7.47713C5.15323 7.47797 5.10494 7.51136 5.09789 7.50936C5.06812 7.5008 5.07257 7.46943 5.03539 7.46541C5.02762 7.4647 4.98181 7.49299 4.97289 7.49666C4.90081 7.52589 5.00291 7.44609 5.00902 7.43807C5.0538 7.37816 5.01945 7.37281 5.00707 7.34823C5.00429 7.34259 4.9486 7.38277 4.94164 7.38045C4.9168 7.35787 4.90547 7.32574 4.91722 7.2828C4.92085 7.27307 4.9749 7.24913 4.97972 7.24276C4.99678 7.21597 4.89595 7.27027 4.91039 7.24569C4.91358 7.24052 4.95744 7.21631 4.96312 7.21248C5.03654 7.16032 4.92269 7.21785 4.91918 7.21737C4.87336 7.2122 4.97856 7.13056 4.94945 7.11678C4.94579 7.11521 4.89178 7.15445 4.885 7.14803C4.83965 7.10546 4.82404 7.04174 4.84007 6.96444C4.84275 6.95243 4.88881 6.9338 4.89378 6.93026C4.97141 6.87458 4.85745 6.9324 4.85179 6.93221C4.81059 6.92879 4.89148 6.85661 4.75218 6.91854C4.74766 6.80577 4.62435 6.76183 4.69261 6.60799C4.69603 6.60483 4.7471 6.57819 4.75023 6.57381C4.76563 6.52996 4.68389 6.58322 4.57054 6.62557C4.54226 6.63611 4.65715 6.55214 4.66722 6.54452C4.69848 6.52075 4.78261 6.47844 4.78832 6.47323C4.83203 6.43221 4.5662 6.58782 4.55687 6.57186C4.56172 6.56875 4.60765 6.54457 4.61156 6.54061C4.6238 6.52804 4.60231 6.53462 4.61644 6.52108C4.65029 6.48905 4.77854 6.41061 4.69457 6.44002C4.68167 6.44517 4.53449 6.53375 4.53246 6.5162C4.53215 6.50881 4.51531 6.48507 4.52074 6.47225C4.52649 6.45951 4.57848 6.43589 4.58031 6.43416C4.63402 6.37777 4.66482 6.36913 4.75511 6.30428C4.84494 6.23971 4.6187 6.37456 4.59105 6.38534C4.56453 6.39532 4.60973 6.35057 4.62621 6.33651C4.6429 6.32245 4.67611 6.30846 4.6848 6.2994C4.74116 6.24003 4.56653 6.35651 4.5266 6.37069C4.43221 6.40424 4.59356 6.29403 4.60179 6.2701C4.60344 6.26414 4.56731 6.28906 4.56175 6.28768C4.54066 6.28167 4.58762 6.24323 4.5305 6.25545C4.51918 6.25834 4.41362 6.30315 4.48265 6.25252C4.49277 6.24515 4.53618 6.22377 4.54222 6.21248C4.55128 6.19562 4.55183 6.17476 4.53246 6.17342C4.51807 6.1725 4.45377 6.22067 4.46996 6.19979C4.47733 6.19036 4.52198 6.17356 4.53246 6.1578C4.54265 6.14217 4.53011 6.12499 4.52464 6.11873C4.51915 6.11252 4.46895 6.14656 4.46507 6.14803C4.4438 6.15593 4.41273 6.15681 4.40941 6.15584C4.36824 6.09933 4.42467 5.99249 4.36156 5.95077C4.35668 5.94745 4.30233 5.98317 4.30101 5.98299C4.26984 5.98026 4.42415 5.90812 4.46703 5.86873C4.35541 5.93529 4.37152 5.91665 4.35277 5.91268C4.34353 5.91095 4.30184 5.93892 4.29711 5.941C4.22638 5.97126 4.30876 5.91639 4.32543 5.90487C4.38663 5.86253 4.30696 5.90006 4.34789 5.87166C4.3885 5.84346 4.4564 5.81543 4.44945 5.80526C4.40728 5.82569 4.30707 5.89431 4.28539 5.89608C4.2035 5.90279 4.25261 5.79886 4.2473 5.76913C4.24176 5.73978 4.23033 5.73597 4.23656 5.71346C4.24801 5.67254 4.1751 5.72633 4.13011 5.73104C4.08521 5.73563 4.28091 5.63346 4.32152 5.60702C4.36151 5.58091 4.31802 5.60243 4.3391 5.58651C4.36017 5.57072 4.39202 5.56086 4.39671 5.5494C4.40141 5.5379 4.31729 5.56198 4.27269 5.58456C4.17832 5.63244 4.08692 5.69573 4.11058 5.65877C4.11473 5.6554 4.16349 5.63149 4.16722 5.62459C4.18848 5.57158 4.1729 5.53826 4.18968 5.48788C4.19214 5.48092 4.2494 5.45256 4.25218 5.44784C4.27345 5.40164 4.18389 5.46544 4.07054 5.51229C4.21248 5.43452 4.29375 5.3768 4.28343 5.35702C4.27662 5.34587 4.21723 5.38264 4.17015 5.39998C4.15587 5.40523 4.19269 5.37331 4.16332 5.38827C4.0664 5.43767 3.9649 5.50562 3.99535 5.46151C3.99743 5.45921 4.05017 5.43327 4.05199 5.42831C4.06114 5.39701 3.96084 5.4513 3.93675 5.43709C3.91833 5.42566 3.96129 5.36186 3.96019 5.33748C4.11782 5.247 4.071 5.24977 3.95824 5.30526C3.9555 5.29065 3.94228 5.28067 3.95043 5.26034C3.95387 5.25312 4.00052 5.22949 4.00511 5.22616C4.07749 5.17391 3.96878 5.22933 3.96312 5.22909C3.90703 5.22349 3.97294 5.15456 3.87914 5.17245C3.87374 5.17427 3.76624 5.23404 3.84105 5.18123C3.84628 5.17759 3.90109 5.15819 3.89769 5.14315C3.89414 5.12809 3.93915 5.07016 3.87816 5.08163C3.86337 5.08442 3.76856 5.12419 3.83226 5.07577C3.84098 5.06918 3.87333 5.05237 3.88988 5.04061C3.94231 5.0031 3.83063 5.06368 3.92015 5.0035C4.01041 4.94287 4.07339 4.88837 3.99828 4.9078C3.99613 4.9083 3.91135 4.95207 3.90453 4.94881C3.90164 4.93859 3.91207 4.91513 3.90648 4.90584C3.90357 4.90151 3.85031 4.93535 3.84886 4.93514C3.80108 4.92241 3.83672 4.87325 3.8391 4.8287C3.83963 4.82045 3.75581 4.84578 3.80785 4.80038C3.86524 4.75047 4.13919 4.61009 4.05882 4.61776C4.02528 4.6215 3.67986 4.80053 3.843 4.67831C3.77595 4.66257 3.84342 4.57325 3.75804 4.56795C3.75426 4.5677 3.65751 4.61594 3.65453 4.6119C3.65293 4.60438 3.69399 4.57581 3.69554 4.56893C3.69775 4.542 3.64965 4.54592 3.64476 4.52401C3.64284 4.51577 3.68948 4.49199 3.68773 4.48202C3.6854 4.47217 3.62239 4.5013 3.64476 4.47323C3.66196 4.45184 3.77947 4.37188 3.78734 4.35213C3.66621 4.42148 3.664 4.41308 3.62425 4.41756C3.61649 4.41848 3.57542 4.44517 3.56957 4.44686C3.54499 4.45421 3.57681 4.42966 3.55101 4.43807C3.54466 4.44016 3.50318 4.46413 3.49535 4.46737C3.42951 4.49434 3.51464 4.42635 3.52953 4.41463C3.58574 4.37024 3.52983 4.39737 3.55004 4.37655C3.57035 4.35565 3.60634 4.34816 3.61644 4.33163C3.63727 4.29745 3.61846 4.28026 3.61058 4.26229C3.60721 4.25529 3.55521 4.2915 3.55296 4.29159C3.53088 4.28575 3.58167 4.23767 3.46703 4.29354C3.74645 4.11933 3.43417 4.30052 3.47972 4.24764C3.48503 4.24249 3.61773 4.16414 3.64086 4.15877C3.66352 4.1537 3.62728 4.18649 3.66234 4.17733C3.67072 4.17513 3.80418 4.11379 3.81273 4.11092ZM6.39476 8.84627C6.39226 8.84789 6.39405 8.85636 6.39671 8.85506C6.46026 8.82357 6.4568 8.80626 6.39476 8.84627ZM4.76195 6.61873C4.86797 6.56951 4.85854 6.5285 4.75707 6.59725C4.75185 6.60081 4.75661 6.62088 4.76195 6.61873ZM4.69652 6.21541C4.6939 6.21736 4.6945 6.22354 4.71019 6.21444C4.76269 6.18365 4.74381 6.18488 4.69652 6.21541ZM4.39476 5.75252C4.3924 5.75413 4.39424 5.76276 4.39671 5.76229C4.46071 5.73071 4.4571 5.71233 4.39476 5.75252ZM4.06175 4.46151C4.12281 4.41488 3.97231 4.49264 3.94847 4.51131C3.8698 4.57286 4.00051 4.50824 4.06175 4.46151ZM3.67308 4.33651C3.63869 4.36226 3.68861 4.35002 3.73168 4.31795C3.76641 4.29202 3.71626 4.30425 3.67308 4.33651ZM3.54125 4.1451C3.50533 4.19807 3.33968 4.30804 3.34496 4.26522C3.34722 4.25627 3.42577 4.23691 3.44164 4.21737C3.47054 4.18156 3.3218 4.25373 3.38988 4.19491C3.40264 4.18421 3.54163 4.12698 3.54808 4.12655L3.54125 4.1451Z" fill="#555961"/>
</svg>
