<svg width="16" height="16" viewBox="0 0 16 16" fill="none" xmlns="http://www.w3.org/2000/svg">
<path d="M12.0339 2.52783C12.2451 2.54793 12.3146 2.56131 12.4284 2.60986C12.6274 2.71011 12.5821 2.59984 12.7331 2.62549C12.8841 2.66122 12.7075 2.81798 12.7009 2.86865C12.6915 2.91792 12.7325 2.88697 12.737 2.92041C12.7401 2.95402 12.6848 2.95633 12.7194 2.9917C12.7531 3.02427 12.9104 3.04649 12.9596 3.02686C13.0621 2.98086 13.0922 2.84844 13.1725 2.99268C13.1766 3.00091 13.1142 3.01812 13.1315 3.04736C13.2715 3.2767 13.3817 3.53643 13.3698 3.79443C13.3674 3.82866 13.3006 3.80529 13.2985 3.82471C13.2923 3.87775 13.2918 3.90996 13.2995 3.93311C13.3207 3.9984 13.4035 3.98148 13.4928 4.06299C13.3312 4.0381 13.2322 4.09907 13.2311 4.25244C13.2305 4.34474 13.3005 4.32956 13.3503 4.38916C13.3652 4.40704 13.3175 4.47184 13.3503 4.48389C13.4588 4.52292 13.5801 4.46152 13.5319 4.61963C13.5296 4.62654 13.4706 4.60493 13.4665 4.62842C13.4429 4.78359 13.5571 4.80258 13.571 4.97021C13.5818 5.10173 13.5119 5.33609 13.5007 5.48584C13.3191 5.48284 13.3607 5.62377 13.486 5.68115C13.4809 5.77828 13.4877 5.88316 13.4704 5.97705C13.4646 6.00893 13.4138 5.98933 13.4069 5.99268C13.3176 6.05519 13.4392 6.09768 13.444 6.11865C13.4903 6.34569 13.3979 6.53086 13.488 6.74756C13.4912 6.75525 13.6177 6.76785 13.526 6.82568C13.5197 6.82943 13.4622 6.75813 13.4577 6.85986C13.4532 6.96195 13.3855 7.15467 13.444 7.29639C13.4583 7.33077 13.5602 7.41728 13.4801 7.48682C13.4692 7.49604 13.4329 7.48614 13.4128 7.49951C13.349 7.54271 13.4762 7.56686 13.3678 7.61768C13.2595 7.66859 13.1789 7.77376 13.2536 7.9165C13.2558 7.92106 13.3567 7.95554 13.3551 8.00049C13.3525 8.07216 13.3311 8.17373 13.3317 8.24854C13.3321 8.28441 13.395 8.26184 13.3962 8.26807C13.4313 8.50911 13.3756 8.68073 13.3512 8.93896C13.3467 8.9863 13.4324 9.12266 13.3649 9.21436C13.2907 9.31504 12.9818 9.21145 13.0553 9.44287C13.0847 9.5362 13.4757 9.65409 13.2731 9.82178C13.3234 10.1471 13.2199 10.4487 13.2917 10.7749C13.2964 10.7899 13.4035 10.8364 13.402 10.8706C13.3993 10.9214 13.3489 10.9495 13.3454 10.9858C13.33 11.139 13.3737 11.2795 13.3669 11.4272C13.3643 11.4832 13.3122 11.4639 13.3092 11.5308C13.3065 11.5975 13.375 11.6424 13.3415 11.7329C13.3154 11.8011 13.1744 11.8699 13.1579 11.9604C13.2212 11.962 13.2553 11.9758 13.277 12.0005C13.3031 12.0295 13.3111 12.0743 13.3249 12.1362C13.3297 12.1582 13.3807 12.141 13.3854 12.1519C13.4053 12.1982 13.3595 12.2308 13.3776 12.2759C13.382 12.2869 13.4276 12.2981 13.4342 12.3081C13.4875 12.3978 13.3468 12.4825 13.321 12.4917C13.2274 12.5343 13.2684 12.5903 13.2165 12.6284C13.1655 12.6627 13.1741 12.5753 13.1286 12.6216C13.0356 12.7151 12.9399 12.8428 12.8405 12.9243C12.8021 12.9561 12.8655 12.9823 12.8639 12.9888C12.7864 13.0747 12.6594 13.072 12.6618 13.2134C12.4472 12.9509 12.6169 13.2765 12.4313 13.27C12.4164 13.2689 12.3611 13.1238 12.3942 13.0894C12.4262 13.0554 12.5047 13.0766 12.5426 13.0181C12.554 13.0038 12.5478 12.8403 12.5485 12.8286C12.5697 12.7339 12.7137 12.9142 12.7262 12.9214C12.8536 12.9985 12.832 12.8086 12.8376 12.7847C12.8815 12.6693 12.9621 12.6107 12.9772 12.5112C12.9855 12.4465 12.8491 12.3766 12.8688 12.3433C12.9283 12.2382 13.152 12.2091 12.9801 12.0552C12.9493 12.0314 12.8364 12.0397 12.861 12.0005C12.8671 11.9852 12.8816 11.9646 12.9069 11.938C12.9152 11.9294 13.0354 11.827 12.9596 11.7681C12.9499 11.7607 12.9012 11.7612 12.8971 11.7515C12.8709 11.6861 12.9098 11.642 12.8913 11.5708C12.8728 11.4996 12.8446 11.4138 12.861 11.3325C12.8712 11.2835 12.9619 11.2212 12.9841 11.1978C13.0478 11.1315 12.943 11.0601 13.0202 11.019C13.0978 10.9776 13.2161 11.0583 13.2663 10.9497C13.1402 10.9457 13.0103 10.9366 12.8835 10.9302C12.8879 10.6922 12.9291 10.458 12.9235 10.2192C12.9227 10.1897 12.8548 10.2197 12.8522 10.188C12.8415 10.0542 12.889 9.93714 12.8698 9.79834C12.8546 9.69091 12.7834 9.57277 12.7653 9.46045C12.9094 9.39175 12.8605 9.22511 12.8737 9.104C12.8783 9.06183 12.9167 9.06453 12.9294 9.03467C12.9757 8.92127 12.8496 8.97326 12.8288 8.94287C12.7431 8.80894 13.0312 8.79706 13.0241 8.63916C13.0217 8.62956 12.8695 8.52815 12.86 8.51416C12.7984 8.42548 12.9141 8.49974 12.9255 8.44385C12.9462 8.34171 12.983 8.2706 12.9382 8.15088C12.9248 8.1159 12.8288 8.03131 12.903 7.96338C12.9134 7.95482 12.9634 7.95972 12.9665 7.95264C13.0161 7.82259 12.8567 7.81877 12.8024 7.74463C12.7483 7.67021 12.8585 7.55513 12.8903 7.53174C12.9717 7.47127 12.926 7.57681 12.9333 7.58154C13.0293 7.62045 13.0131 7.53718 13.0212 7.47314C13.1774 7.46378 13.1681 7.37451 13.029 7.40674C13.0137 7.41043 13.0283 7.46025 13.0212 7.47314C12.8675 7.41693 12.8473 7.31818 12.9909 7.20947C13.0582 7.15858 13.1368 7.20684 13.1081 7.05225C13.0951 6.98208 12.9871 7.0087 12.9577 6.94678C12.891 6.80538 12.9911 6.62175 12.9753 6.47607C12.9695 6.42346 12.9113 6.47432 12.905 6.43896C12.8889 6.34303 12.9334 6.25795 12.9108 6.16162C12.9087 6.15289 12.8462 6.17402 12.8454 6.14404C12.8382 5.91689 12.8784 5.71907 12.8796 5.48193C12.8801 5.36738 12.8455 5.16229 12.8522 5.04346C12.8637 4.83759 12.9541 4.58358 12.9323 4.40771C12.9182 4.29344 12.8562 4.31814 12.8141 4.26904C12.733 4.17423 12.8782 4.00668 12.901 3.98389C12.9018 3.9832 12.9172 4.08237 12.9489 4.02979C13.0145 3.99925 12.9013 3.985 12.901 3.98389C12.9053 3.97957 12.9102 3.95984 12.9137 3.93311C12.9232 3.89045 12.9188 3.81958 12.9069 3.80322C12.8982 3.79067 12.8424 3.80824 12.8385 3.80225C12.7571 3.658 12.6747 3.54351 12.5759 3.41162C12.5745 3.40877 12.6228 3.36333 12.6188 3.35693C12.5608 3.26559 12.454 3.29328 12.3669 3.30225C12.2776 3.31121 12.2372 3.28217 12.2155 3.16064C12.1519 3.15845 12.0676 3.09851 12.0094 3.06787C11.9512 3.03703 11.9479 3.16602 11.944 3.16846C11.9323 3.17586 11.9207 3.18231 11.9098 3.18799L11.9313 3.18604C11.7527 3.25991 11.6224 3.21363 11.4157 3.229C11.3081 3.23683 11.0989 3.28179 10.985 3.31006C10.8951 3.33262 10.8364 3.30993 10.7546 3.33936C10.7435 3.34331 10.7617 3.39827 10.7585 3.40088C10.6732 3.47953 10.7008 3.33612 10.6784 3.31396C10.5969 3.23338 10.5473 3.19143 10.4323 3.24854C10.4057 3.26252 10.3495 3.46991 10.3005 3.48779C10.2368 3.51053 10.2526 3.4369 10.1862 3.4624C10.1805 3.46455 10.1868 3.50778 10.1442 3.51123C9.94591 3.52749 9.72757 3.5291 9.52312 3.55908C9.49515 3.56302 9.53896 3.62842 9.4987 3.63525C9.30996 3.6672 9.10169 3.69055 8.91277 3.68115C8.86619 3.67861 8.88833 3.62602 8.87663 3.61279C8.80556 3.53398 8.7359 3.66935 8.72136 3.67529C8.39024 3.77873 8.11639 3.69657 7.778 3.79443C7.7596 3.8 7.63158 3.95404 7.55241 3.84521C7.54693 3.83786 7.46778 3.7262 7.42155 3.81494C7.41868 3.8205 7.4664 3.87699 7.39616 3.87939C7.32596 3.88191 7.21966 3.93687 7.11589 3.88135C7.083 3.86381 6.99592 3.75349 6.91765 3.85986C6.91183 3.86887 6.80007 4.09915 6.7321 3.95752C6.72103 3.93319 6.71014 3.77701 6.61296 3.87061C6.59455 3.88878 6.63591 3.91917 6.58464 3.94775C6.50599 3.99176 6.39072 3.9632 6.29753 4.04541C6.28129 4.06002 6.218 4.17632 6.14714 4.10303C6.13643 4.09104 6.1475 4.03651 6.11491 4.03467C5.95892 4.02568 5.80356 4.08086 5.64421 4.06396C5.58796 4.05801 5.60518 3.97038 5.54558 3.95459C5.48554 3.93904 5.36719 3.93182 5.31218 3.97803C5.25766 4.02429 5.33896 4.14998 5.25163 4.17236C4.86776 4.268 4.47135 4.23789 4.08073 4.2749C4.02278 4.28039 4.07586 4.32292 3.99089 4.33447C3.97795 4.33624 3.96452 4.33736 3.95085 4.33936C3.94755 4.33964 3.93769 4.34108 3.93425 4.34131C3.75807 4.35855 3.57045 4.51209 3.42058 4.55908C3.28384 4.60708 3.32336 4.4416 3.23698 4.50732C3.19234 4.54627 3.31132 4.66579 3.31316 4.67432C3.32163 4.78015 3.24194 4.82651 3.25944 4.92139C3.26311 4.93749 3.31168 4.92678 3.32683 4.93311C3.32904 4.93506 3.33025 4.9381 3.33073 4.94189C3.34184 5.04504 3.31387 5.15386 3.31902 5.25244C3.32151 5.29667 3.37055 5.28898 3.36687 5.32959C3.3584 5.42693 3.33745 5.51304 3.29167 5.60791C3.2875 5.61656 3.22676 5.55886 3.22429 5.63037C3.22079 5.74709 3.17557 5.89256 3.22234 6.02686C3.23671 6.0665 3.34824 6.06836 3.27116 6.15381C3.25502 6.17178 3.12083 6.14876 3.23698 6.24854C3.25739 6.26655 3.41175 6.43324 3.3112 6.51514C3.28435 6.53692 3.17495 6.59233 3.19206 6.64014C3.19482 6.64663 3.25553 6.62094 3.2614 6.66064C3.28094 6.80034 3.27389 6.94682 3.29265 7.09033C3.2978 7.12872 3.3602 7.07218 3.36589 7.12939C3.38157 7.28669 3.36582 7.48343 3.34636 7.63721C3.33884 7.69327 3.2875 7.65458 3.28191 7.65869C3.19163 7.72457 3.31244 7.76356 3.32097 7.78564C3.36397 7.92266 3.30664 8.02752 3.32194 8.15381C3.32611 8.18785 3.3825 8.16459 3.38933 8.17041C3.44049 8.24236 3.33552 8.18932 3.3239 8.23486C3.29104 8.36236 3.2959 8.50437 3.30339 8.6333C3.30623 8.68069 3.37389 8.62788 3.37566 8.67041C3.38737 8.92204 3.38094 9.18363 3.34343 9.4292C3.33624 9.47546 3.28411 9.4469 3.27214 9.45654C3.18858 9.52282 3.30175 9.61934 3.31316 9.64209C3.36281 9.74388 3.31633 9.78373 3.32487 9.87354C3.36119 10.244 3.34512 10.6882 3.3278 11.0669C3.32459 11.1001 3.32477 11.1324 3.32683 11.1626C3.34214 11.4041 3.50012 11.6507 3.79362 11.7212C3.81156 11.7244 3.81199 11.6535 3.82683 11.6558C3.86221 11.6614 3.89766 11.6655 3.93327 11.6685C3.93664 11.6689 3.94665 11.6699 3.94987 11.6704C4.24273 11.7042 4.53132 11.7553 4.8278 11.7759C4.85736 11.7778 4.82319 11.7076 4.87077 11.7085C4.96986 11.7108 5.09373 11.7299 5.19011 11.7632C5.23716 11.7793 5.16604 11.8272 5.21355 11.8423C5.32407 11.8775 5.44464 11.8978 5.56218 11.9019C5.61215 11.9034 5.54625 11.8276 5.61003 11.8345C6.04909 11.8826 6.48175 11.9246 6.91374 12.0669C6.94303 12.0778 6.95275 12.2156 7.02019 12.1978C7.02973 12.1606 7.03549 12.1158 7.04265 12.0757C7.68327 12.1336 8.30915 12.2599 8.94792 12.3472C8.97407 12.35 8.93715 12.2732 8.98894 12.2798C9.29104 12.3186 9.58719 12.3353 9.88737 12.4458C9.91711 12.4567 9.88551 12.5816 9.97819 12.5737C9.99457 12.5722 10.1329 12.5725 10.1716 12.5493C10.1769 12.5458 10.1597 12.4831 10.2038 12.4868C10.4598 12.5097 10.7254 12.5565 10.9753 12.6245C11.0155 12.6357 10.9642 12.6942 10.9928 12.7026C11.1961 12.7619 11.4278 12.7416 11.6188 12.8237C11.7466 12.879 11.6838 12.9828 11.7409 13.0991C11.7501 13.1154 11.8304 13.1283 11.8268 13.1909C11.8181 13.3494 11.7573 13.5165 11.7526 13.686C11.7515 13.7225 11.8663 13.6981 11.7907 13.7769C11.7854 13.7821 11.7017 13.8015 11.6784 13.8286C11.6622 13.8474 11.6783 13.9143 11.6471 13.937C11.6162 13.9588 11.5916 13.9024 11.5417 13.9272C11.492 13.9528 11.503 14.0269 11.4098 14.0239C11.1928 14.0165 10.914 13.9609 10.7038 13.9058C10.638 13.8886 10.6768 13.853 10.6315 13.8394C10.543 13.8128 10.4559 13.8219 10.3688 13.7925C10.3406 13.7822 10.3845 13.7243 10.3542 13.7153C10.1876 13.6666 10.0248 13.6622 9.85417 13.6274C9.01306 13.4558 8.18101 13.3278 7.32487 13.1919C7.0426 13.1471 6.70474 13.0475 6.40886 13.0356C6.3747 13.0343 6.38707 13.0903 6.38054 13.0952C6.26988 13.1517 6.31738 13.046 6.25261 13.0229C5.99555 12.9319 5.702 12.89 5.44499 12.8794C5.33629 12.8754 5.43086 12.9969 5.32976 12.9224C5.32275 12.9173 5.35683 12.8634 5.32878 12.853C5.26344 12.8307 5.13463 12.825 5.08269 12.814C4.9833 12.7922 4.96579 12.7904 4.87077 12.7778C4.74102 12.7601 4.58991 12.7118 4.4489 12.7075C4.41919 12.7072 4.45064 12.7717 4.40202 12.7759C4.35324 12.78 4.22911 12.759 4.18816 12.7397C4.14752 12.7204 4.17088 12.6753 4.16472 12.6636C4.11414 12.5658 3.95343 12.6735 3.93425 12.6743C3.89688 12.6754 3.85991 12.6747 3.8239 12.6733C3.45557 12.6598 3.15488 12.4648 2.89128 12.2349C2.66333 12.0391 2.46057 11.761 2.38835 11.4702C2.35296 11.3317 2.3428 11.1965 2.34929 11.0669C2.35898 10.9142 2.36923 10.7649 2.36589 10.604C2.36486 10.5762 2.29476 10.6089 2.29362 10.5747C2.28539 10.2052 2.29373 9.83809 2.34148 9.47021C2.34633 9.43332 2.4081 9.48068 2.41667 9.44385C2.46772 9.21816 2.59041 8.86111 2.31999 8.72705C2.33055 8.57417 2.34165 8.38824 2.39616 8.25146C2.43127 8.1638 2.49817 8.24915 2.46941 8.14111C2.46299 8.11674 2.40449 8.14806 2.39909 8.11182C2.3774 7.95757 2.3965 7.78882 2.36589 7.63623C2.35952 7.60519 2.30612 7.61378 2.29655 7.60498C2.21952 7.53123 2.34728 7.40854 2.3571 7.38135C2.42645 7.17712 2.39839 7.02764 2.40007 6.8374C2.40049 6.79338 2.33037 6.84501 2.3278 6.80322C2.31758 6.58285 2.3235 6.35397 2.35515 6.13818C2.3625 6.09074 2.42246 6.13416 2.42937 6.11182C2.45753 6.01069 2.34308 5.98808 2.36784 5.89111C2.37287 5.87087 2.42375 5.88181 2.43034 5.87842C2.51985 5.82015 2.39356 5.76951 2.3903 5.75439C2.35198 5.56446 2.48428 5.44277 2.4655 5.25928C2.46269 5.23789 2.39785 5.28659 2.39519 5.2251C2.39094 5.12892 2.38865 5.03121 2.38835 4.93311C2.38258 4.53732 2.58182 4.14223 2.86784 3.91455C2.92544 3.86844 2.92269 3.93951 2.93034 3.94092C3.04676 3.9599 2.99665 3.83692 3.01335 3.81689C3.14264 3.66836 3.33924 3.68683 3.40202 3.50049C3.54586 3.45498 3.69346 3.42478 3.84148 3.4126C4.3947 3.35514 4.94621 3.24944 5.51433 3.29053C5.52308 3.29101 5.51581 3.35435 5.53288 3.35596C5.7443 3.36507 5.69312 3.27371 5.81511 3.13818C5.84563 3.10443 5.96657 3.23119 5.97917 3.24268C6.01741 3.27669 5.99521 3.37226 6.00652 3.38037C6.10769 3.42742 6.05476 3.12285 6.18132 3.10693C6.18468 3.10945 6.17611 3.16524 6.18718 3.16943C6.22229 3.18274 6.25214 3.15699 6.28679 3.17236C6.36621 3.20825 6.41138 3.35323 6.51335 3.25244C6.52549 3.23764 6.48329 3.06908 6.59636 3.06299C6.64176 3.06079 6.84044 3.03244 6.89812 3.03662C6.9551 3.04089 6.92443 3.10158 6.92839 3.104C7.08795 3.15931 7.0349 3.19717 7.1237 3.29736C7.21272 3.39731 7.1601 3.13891 7.18718 3.10596C7.21478 3.07366 7.33231 3.12036 7.36198 3.13818C7.39145 3.15609 7.36202 3.19648 7.38737 3.20557C7.55691 3.26427 7.44149 3.06702 7.48894 3.01904C7.60074 2.90551 7.72163 3.08655 7.83757 3.09131C7.86878 3.09254 7.83844 3.05212 7.86491 3.04443C7.97132 3.01515 8.04443 3.06734 8.16081 2.99658C8.18012 2.98452 8.26549 2.85697 8.3405 2.93408C8.35021 2.94618 8.3317 2.99651 8.37859 3.00146C8.44966 3.009 8.57508 3.00338 8.64714 2.97803C8.70015 2.95918 8.62792 2.88776 8.69987 2.90381C8.73175 2.91106 8.68128 2.9645 8.74089 2.97412C8.80048 2.98363 8.94626 2.96411 9.00163 2.95557C9.05673 2.94687 9.01914 2.88987 9.02312 2.88525C9.04801 2.85858 9.15044 2.81702 9.15984 2.81592C9.63444 2.74915 10.0858 2.7951 10.5446 2.70361C10.58 2.6963 10.5485 2.63668 10.5534 2.63428C10.6745 2.59211 10.5981 2.77316 10.6921 2.81885C10.6636 2.69187 10.7176 2.70915 10.8034 2.68408C10.8445 2.67182 10.8148 2.62424 10.818 2.61865C10.8709 2.53546 10.927 2.62665 10.9411 2.646C10.9916 2.7143 11.026 2.62275 11.0602 2.66748C11.0945 2.71282 11.0391 2.79399 11.1227 2.78271C11.1405 2.73362 11.0634 2.6208 11.1247 2.59326C11.3047 2.51238 11.6238 2.5175 11.8483 2.51709C11.9253 2.51841 11.9866 2.52424 12.0339 2.52783ZM12.0251 13.2173C12.2054 13.2832 12.339 13.4575 12.0632 13.4497C12.0098 13.4448 12.178 13.3635 12.1091 13.3413C12.0152 13.3094 11.9376 13.4028 11.8454 13.3813L11.9196 13.3188C11.8999 13.3061 11.8749 13.2869 11.8522 13.2671C11.8526 13.2578 11.8598 13.2516 11.8688 13.2534C11.9061 13.2237 11.9396 13.1961 11.946 13.1968L12.0251 13.2173ZM11.4714 13.0991C11.5116 13.0324 11.3939 13.0118 11.4098 13.0884C11.4105 13.0915 11.4696 13.1019 11.4714 13.0991ZM13.1452 12.311C13.0967 12.3283 13.1129 12.4275 13.1764 12.4097C13.2295 12.3927 13.2078 12.2863 13.1452 12.311ZM13.1706 11.4575C13.2479 11.3452 12.9305 11.3273 12.9948 11.4478C13.0003 11.4547 13.1661 11.4641 13.1706 11.4575ZM13.0983 10.4595C13.1968 10.3634 13.0517 10.2974 12.9753 10.3647C12.8989 10.4326 13.0683 10.4888 13.0983 10.4595ZM5.36491 3.37158C5.36089 3.36571 5.2241 3.37697 5.22038 3.3833C5.16475 3.50718 5.44019 3.48522 5.36491 3.37158ZM7.85417 3.19971C7.85153 3.19675 7.81067 3.19926 7.81316 3.21729C7.82358 3.27731 7.88031 3.2531 7.85417 3.19971ZM11.5583 2.70361C11.5354 2.77825 11.6539 2.76913 11.6198 2.69873C11.6168 2.69625 11.5629 2.70058 11.5583 2.70361Z" fill="#555961"/>
<path d="M7.93458 12.6126C7.99246 12.5662 8.19002 12.5455 8.16407 12.6029C8.15717 12.6135 8.08007 12.5772 8.05665 12.5921C8.01395 12.6197 8.17817 12.6382 8.08985 12.6663C8.07197 12.6709 7.91806 12.6366 7.91895 12.6331L7.93458 12.6126ZM8.44923 3.3382C8.45511 3.33931 8.48482 3.3588 8.51466 3.3636C8.53533 3.36692 8.5996 3.3607 8.62598 3.3675C8.65201 3.3743 8.59892 3.38261 8.62989 3.39387C8.66156 3.40486 8.73345 3.39991 8.74219 3.42219C8.76173 3.47449 8.7406 3.54294 8.71192 3.59504C8.70301 3.61118 8.66451 3.60362 8.65626 3.61457C8.64081 3.63661 8.65999 3.65725 8.64161 3.67903C8.63533 3.68622 8.57296 3.67746 8.56739 3.68488C8.53956 3.72637 8.55539 3.7659 8.542 3.80793C8.47609 4.01466 8.45248 4.21782 8.42383 4.42707C8.41444 4.49609 8.35706 4.58037 8.38184 4.65168C8.38475 4.65984 8.43783 4.65528 8.44434 4.65656C8.51409 4.68142 8.40253 4.67354 8.3877 4.68977C8.3293 4.75415 8.3244 4.82606 8.34571 4.88801C8.35544 4.91402 8.46443 4.88801 8.40333 4.91438C8.3992 4.91621 8.34108 4.90939 8.33399 4.91633C8.31997 4.93266 8.33068 4.96406 8.32618 4.97688C8.31692 5.00138 8.31708 5.00546 8.31641 5.02863C8.31499 5.06032 8.28553 5.09816 8.29883 5.13215C8.30201 5.13926 8.36093 5.12995 8.37208 5.14094C8.3823 5.15252 8.37747 5.18334 8.36329 5.19367C8.34903 5.20395 8.30185 5.19966 8.29102 5.20149C8.20176 5.2162 8.32075 5.25038 8.32911 5.25617C8.3824 5.33915 8.31064 5.41073 8.31055 5.4886C8.31086 5.54785 8.33531 5.61191 8.33204 5.66828C8.32785 5.73535 8.29519 5.79256 8.30079 5.85774C8.30383 5.86395 8.37225 5.85633 8.37305 5.86457C8.38129 5.95393 8.37296 6.04318 8.3252 6.13215C8.31858 6.14024 8.2586 6.12933 8.25001 6.13801C8.19896 6.19259 8.07624 6.27942 8.34669 6.31184C8.33616 6.34873 8.32482 6.39315 8.27051 6.4261C8.23541 6.44738 8.16841 6.42725 8.19727 6.45344C8.2056 6.45871 8.26252 6.45159 8.26758 6.46027C8.28926 6.49757 8.27017 6.53861 8.30079 6.57551C8.30797 6.58277 8.36065 6.58024 8.37012 6.58235C8.44702 6.60023 8.31887 6.63055 8.30958 6.63703C8.24081 6.68616 8.2681 6.72216 8.26661 6.76789C8.26619 6.77855 8.33641 6.76653 8.33887 6.77668C8.3491 6.82997 8.34318 6.88563 8.31153 6.93781C8.30341 6.94875 8.24479 6.93855 8.23731 6.94367C8.20915 6.96813 8.32363 6.97393 8.29883 6.99738C8.2931 7.0021 8.24302 6.99951 8.23633 7.00031C8.14666 7.01443 8.27357 7.02696 8.27637 7.03059C8.31403 7.07638 8.18245 7.10544 8.20118 7.14973C8.20359 7.15503 8.26882 7.1436 8.27149 7.15852C8.28957 7.25784 8.27134 7.36295 8.21876 7.46125C8.21029 7.47622 8.16134 7.46518 8.15528 7.46613C8.06074 7.48173 8.18634 7.49237 8.19239 7.49738C8.22698 7.53674 8.1205 7.57318 8.27247 7.59992C8.21975 7.76653 8.30485 7.93274 8.16895 8.09797C8.16737 8.10007 8.10444 8.09671 8.10157 8.1009C8.0665 8.15127 8.16385 8.14174 8.28321 8.17512C8.31259 8.18358 8.16876 8.20899 8.15821 8.21125C8.11952 8.21936 8.02765 8.21069 8.01856 8.2132C7.95932 8.23607 8.26846 8.23314 8.26856 8.26399C8.26665 8.26481 8.21067 8.26045 8.20508 8.26301C8.18771 8.27102 8.20991 8.27861 8.19044 8.28645C8.14516 8.30444 7.99524 8.31174 8.08204 8.33918C8.09339 8.34266 8.26903 8.33703 8.26075 8.36457C8.25733 8.37568 8.26037 8.42422 8.24903 8.43781C8.23758 8.45127 8.18149 8.44179 8.17872 8.4427C8.1041 8.4793 8.07312 8.46547 7.9629 8.48371C7.85268 8.50208 8.1152 8.49771 8.14454 8.5052C8.17336 8.51274 8.1123 8.53958 8.09083 8.54621C8.06955 8.55276 8.03389 8.54451 8.02149 8.55012C7.94221 8.58904 8.15164 8.56757 8.19337 8.58039C8.29181 8.6106 8.09733 8.63379 8.07813 8.66145C8.07306 8.66881 8.11567 8.66314 8.1211 8.66926C8.13691 8.6956 8.07687 8.71164 8.13184 8.74153C8.14092 8.74643 8.25821 8.77072 8.17286 8.78645C8.16045 8.78868 8.11148 8.783 8.10059 8.79426C8.08447 8.81103 8.07405 8.84068 8.08985 8.85871C8.10187 8.87206 8.1821 8.85754 8.15723 8.87434C8.14592 8.8816 8.09899 8.8673 8.08204 8.88117C8.06514 8.89508 8.06773 8.93098 8.06934 8.94465C8.071 8.9582 8.13166 8.95137 8.13575 8.95246C8.15861 8.9591 8.18732 8.98341 8.18848 8.98664C8.19589 9.10253 8.09313 9.20975 8.12696 9.32258C8.12943 9.33109 8.18874 9.32571 8.19434 9.32649C8.22117 9.3568 8.05113 9.33363 7.99415 9.35481C8.12402 9.35175 8.10104 9.36374 8.11524 9.38508C8.12221 9.39537 8.17259 9.39 8.17774 9.39094C8.25357 9.40617 8.15494 9.41653 8.13477 9.41926C8.0607 9.42936 8.14826 9.44071 8.09864 9.44758C8.04936 9.45441 7.97661 9.43884 7.97755 9.4593C8.02416 9.46497 8.14518 9.44971 8.16505 9.46516C8.23957 9.52383 8.14468 9.6338 8.13477 9.68098C8.12502 9.72762 8.13275 9.74266 8.11622 9.76985C8.08582 9.8194 8.1765 9.80158 8.21778 9.83235C8.25782 9.8629 8.0374 9.8485 7.98926 9.85285C7.94158 9.85721 7.99009 9.86209 7.96387 9.8675C7.93779 9.87272 7.90539 9.86086 7.89551 9.87336C7.88569 9.88606 7.97062 9.92057 8.02051 9.92512C8.12619 9.93464 8.23722 9.91982 8.19825 9.95344C8.1948 9.95518 8.13768 9.94904 8.13184 9.95637C8.08695 10.0152 8.08367 10.0764 8.04395 10.1351C8.03703 10.1426 7.97486 10.1356 7.96973 10.14C7.92823 10.1889 8.03764 10.1718 8.15919 10.1986C7.99761 10.1925 7.89863 10.2074 7.89747 10.2445C7.89684 10.2668 7.96778 10.2632 8.01758 10.2777C8.03185 10.2821 7.98453 10.2973 8.01758 10.3001C8.12595 10.3095 8.24703 10.2953 8.19923 10.3333C8.19696 10.335 8.13902 10.3299 8.1338 10.3353C8.11022 10.3728 8.22355 10.3777 8.23731 10.4183C8.24782 10.45 8.17966 10.5061 8.16798 10.5423C7.98626 10.5415 8.02724 10.5763 8.15235 10.5902C8.14733 10.6135 8.15475 10.6389 8.1377 10.6614C8.13183 10.6692 8.07944 10.6644 8.07325 10.6654C7.98503 10.6803 8.10295 10.6905 8.11036 10.6956C8.15686 10.7506 8.0649 10.7955 8.15528 10.848C8.16176 10.8498 8.28337 10.8527 8.19239 10.8665C8.18603 10.8674 8.12848 10.8506 8.12403 10.8753C8.11918 10.9001 8.052 10.9466 8.11036 10.9808C8.12443 10.9891 8.22681 11.0099 8.14747 11.0267C8.13665 11.0289 8.10032 11.0265 8.08008 11.0296C8.01593 11.0401 8.14276 11.0457 8.03516 11.0579C7.92669 11.0702 7.84515 11.0956 7.91993 11.1302C7.9221 11.1313 8.02256 11.1399 8.02149 11.1507C8.01885 11.1681 7.99739 11.1931 7.99805 11.2113C7.99958 11.2192 8.05702 11.2142 8.06251 11.2152C8.09773 11.2735 8.04191 11.3158 8.01758 11.3782C8.01509 11.3901 8.09814 11.4227 8.03126 11.4446C7.95716 11.469 7.64918 11.4436 7.72169 11.4993C7.75109 11.5219 8.1423 11.5506 7.93946 11.5911C7.9897 11.6698 7.88647 11.7428 7.95801 11.8216C7.96119 11.8251 8.07083 11.8367 8.06934 11.845C8.0666 11.8571 8.01794 11.8639 8.0127 11.8724C7.99732 11.9094 8.04098 11.9441 8.03419 11.9798C8.03128 11.9931 7.9791 11.9885 7.97559 12.0042C7.9727 12.0203 8.04169 12.0313 8.0088 12.053C7.9832 12.0696 7.84079 12.0868 7.82423 12.1087C7.96442 12.1095 7.96202 12.1239 7.99903 12.1507C8.00653 12.1557 8.05467 12.1512 8.06055 12.1536C8.08522 12.1635 8.04537 12.1726 8.07227 12.182C8.07876 12.1842 8.12576 12.1841 8.13477 12.1859C8.20528 12.2018 8.09786 12.2282 8.07911 12.2327C8.00803 12.25 8.07 12.2576 8.042 12.2708C8.01396 12.284 7.97894 12.2651 7.96192 12.2806C7.92707 12.3126 7.93482 12.3536 7.93262 12.3861C7.93269 12.3988 7.99568 12.3901 7.99708 12.3919C8.01322 12.4187 7.94561 12.4454 8.07227 12.4603C7.74443 12.4788 8.10309 12.4769 8.03907 12.515C8.03374 12.518 7.87735 12.5217 7.8545 12.5101C7.83282 12.4985 7.8801 12.4811 7.84473 12.4652C7.83357 12.461 7.69039 12.4398 7.68165 12.4368C7.61344 12.4136 7.84565 12.4098 7.85841 12.4085C7.99614 12.3945 7.83899 12.3677 7.82813 12.3607C7.77871 12.3286 7.81086 12.3016 7.7754 12.2747C7.75193 12.2573 7.60082 12.2553 7.60548 12.2415C7.62136 12.1958 7.83251 12.1793 7.64844 12.1361C7.60858 12.1269 7.44362 12.136 7.57423 12.1029C7.58563 12.1001 7.7006 12.0759 7.62598 12.0618C7.61611 12.0601 7.56754 12.0603 7.56348 12.0579C7.53779 12.0422 7.57606 12.0311 7.55762 12.014C7.53911 11.9968 7.51193 11.976 7.52833 11.9564C7.53961 11.9446 7.62835 11.9298 7.6504 11.9241C7.71407 11.9081 7.61003 11.8911 7.68653 11.8812C7.7641 11.8712 7.88242 11.8908 7.93262 11.8646C7.80653 11.8636 7.67662 11.8613 7.54981 11.8597C7.55424 11.8023 7.5952 11.7454 7.58985 11.6878C7.58904 11.6807 7.52156 11.6876 7.51856 11.68C7.50779 11.6476 7.55636 11.6189 7.53712 11.5853C7.52172 11.5593 7.44973 11.5313 7.43165 11.5042C7.57593 11.4876 7.52686 11.4466 7.54005 11.4173C7.54504 11.4073 7.58305 11.4078 7.59571 11.4007C7.64221 11.3732 7.51519 11.3858 7.49512 11.3782C7.40956 11.3459 7.69757 11.3432 7.69044 11.305C7.68168 11.3018 7.53727 11.2781 7.52735 11.2747C7.4651 11.2532 7.57975 11.2714 7.5918 11.2581C7.61258 11.2334 7.64956 11.2159 7.6045 11.1868C7.59071 11.1783 7.49549 11.1583 7.56934 11.1419C7.57905 11.1398 7.62984 11.1407 7.63282 11.139C7.68231 11.1075 7.52297 11.1071 7.46876 11.0892C7.41467 11.0712 7.52483 11.0431 7.55665 11.0374C7.63818 11.0228 7.59254 11.0489 7.59962 11.0501C7.69491 11.0595 7.67983 11.0392 7.68751 11.0238C7.84415 11.0215 7.83476 10.9993 7.69532 11.0072C7.68009 11.008 7.69466 11.0206 7.68751 11.0238C7.5338 11.0102 7.51458 10.9856 7.65821 10.9593C7.72542 10.9471 7.80306 10.9585 7.77442 10.9212C7.76006 10.9048 7.65442 10.9106 7.62501 10.8958C7.55814 10.8617 7.65757 10.8178 7.64258 10.7825C7.63683 10.7697 7.57726 10.7815 7.5713 10.7728C7.556 10.7498 7.59941 10.7295 7.57716 10.7064C7.57502 10.7043 7.51349 10.7087 7.5127 10.7015C7.50577 10.6467 7.54481 10.5986 7.54591 10.5413C7.54608 10.5136 7.51279 10.4645 7.51954 10.4359C7.53102 10.3862 7.61991 10.3251 7.59864 10.2825C7.58466 10.2548 7.5226 10.2602 7.48048 10.2484C7.3996 10.2254 7.54575 10.1855 7.56837 10.18C7.57099 10.1829 7.58588 10.2025 7.61524 10.1907C7.67902 10.1836 7.57524 10.1804 7.56837 10.18C7.58292 10.176 7.59673 10.1279 7.58497 10.1185C7.57794 10.1135 7.51983 10.1163 7.51758 10.1136C7.46529 10.0499 7.45019 9.98582 7.47755 9.92121C7.47978 9.92016 7.54145 9.92168 7.54591 9.91926C7.57504 9.88182 7.49486 9.85834 7.44727 9.82746C7.4 9.79667 7.41619 9.77149 7.52833 9.75324C7.51491 9.72997 7.56472 9.69718 7.59473 9.67805C7.62445 9.65889 7.49667 9.65532 7.49415 9.65363C7.41407 9.60101 7.48671 9.5706 7.49805 9.51594C7.5036 9.49002 7.4856 9.43872 7.47169 9.41047C7.46045 9.3882 7.48982 9.37435 7.47071 9.35383C7.46696 9.35121 7.41135 9.35369 7.40919 9.35285C7.34167 9.33003 7.48006 9.34097 7.50489 9.33625C7.59505 9.31911 7.643 9.30894 7.60059 9.27961C7.59093 9.27288 7.39355 9.2529 7.37989 9.24055C7.36512 9.22458 7.43555 9.23073 7.41895 9.21418C7.41754 9.21275 7.37351 9.21267 7.37501 9.20246C7.38346 9.15445 7.40959 9.10197 7.40528 9.05207C7.40485 9.04536 7.337 9.05335 7.33301 9.04426C7.32471 8.99802 7.32666 8.94674 7.35938 8.90168C7.36768 8.89058 7.41706 8.89725 7.43165 8.89485C7.51892 8.8802 7.39461 8.85956 7.38966 8.85578C7.32815 8.7733 7.44346 8.71032 7.38868 8.62629C7.38544 8.62172 7.24829 8.58639 7.36524 8.57063C7.37306 8.56955 7.49355 8.5541 7.41212 8.54035C7.40696 8.5395 7.34427 8.54849 7.35059 8.53156C7.35633 8.51462 7.31601 8.48731 7.3838 8.46418C7.40546 8.4568 7.52543 8.43925 7.42969 8.41731C7.42128 8.41561 7.20727 8.38251 7.35548 8.37043C7.38005 8.36847 7.53821 8.37015 7.45801 8.34406C7.44236 8.33908 7.40683 8.3482 7.38477 8.33528C7.35081 8.31505 7.39276 8.28787 7.32227 8.26301C7.30904 8.25857 7.20302 8.24064 7.28419 8.2259C7.29702 8.22363 7.34903 8.22764 7.35548 8.22004C7.38382 8.18288 7.34833 8.14351 7.38477 8.10578C7.39758 8.09244 7.48273 8.09908 7.50587 8.08528C7.52874 8.07133 7.55075 8.04322 7.51173 8.02863C7.47214 8.01431 7.33703 8.02991 7.32618 8.00813C7.27906 7.91317 7.35845 7.81877 7.37012 7.72395C7.37083 7.71059 7.32354 7.72169 7.32227 7.70149C7.31865 7.62503 7.27347 7.49244 7.37696 7.4261C7.45964 7.37343 7.52297 7.44028 7.55665 7.39973C7.57234 7.38015 7.41416 7.35856 7.40919 7.35383C7.35879 7.30766 7.42872 7.27529 7.40723 7.23371C7.40182 7.22569 7.3413 7.23337 7.33594 7.22688C7.32484 7.20195 7.35276 7.17551 7.34766 7.15168C7.34519 7.14106 7.29693 7.1427 7.29981 7.13313C7.30829 7.10957 7.32918 7.0887 7.37501 7.06574C7.37919 7.06365 7.44012 7.07732 7.44239 7.05988C7.4461 7.0317 7.49099 6.99657 7.44434 6.96418C7.42962 6.95466 7.31901 6.95447 7.39551 6.93391C7.41166 6.92956 7.54584 6.9346 7.42969 6.91047C7.40836 6.90586 7.25531 6.86575 7.35548 6.84602C7.38262 6.84072 7.49183 6.82728 7.47462 6.81574C7.47178 6.81418 7.41114 6.82046 7.40528 6.81086C7.386 6.77726 7.39255 6.74186 7.37403 6.70735C7.36888 6.69806 7.30647 6.71142 7.30079 6.69758C7.28514 6.65955 7.30086 6.61171 7.32032 6.57453C7.32843 6.56142 7.37922 6.57064 7.38477 6.56965C7.4747 6.5538 7.35542 6.54473 7.34571 6.53938C7.30271 6.50624 7.36004 6.48007 7.34473 6.44953C7.33861 6.44196 7.28356 6.44709 7.27735 6.44563C7.22619 6.42823 7.33116 6.44102 7.34278 6.43C7.37551 6.39924 7.37075 6.36541 7.36329 6.3343C7.36048 6.32298 7.29436 6.33511 7.29102 6.32551C7.27931 6.26474 7.28588 6.20124 7.32325 6.14192C7.33037 6.13084 7.3819 6.13721 7.39454 6.13508C7.4782 6.11903 7.36469 6.09562 7.35352 6.09016C7.30418 6.0657 7.34961 6.05592 7.3418 6.03449C7.29879 5.92837 7.32869 5.79688 7.34766 5.6966C7.37208 5.56585 7.42214 5.46387 7.40919 5.33918C7.40754 5.33151 7.33944 5.33913 7.3379 5.33235C7.32111 5.24417 7.34827 5.15702 7.32813 5.06867C7.32526 5.06195 7.26166 5.07182 7.25587 5.06086C7.24581 5.03699 7.2494 5.00688 7.27051 4.98274C7.28073 4.9712 7.33579 4.98608 7.34571 4.97492C7.36698 4.94733 7.37193 4.91733 7.36133 4.88899C7.35636 4.87711 7.28887 4.89486 7.28809 4.87922C7.28138 4.77255 7.26999 4.66769 7.35743 4.55988C7.36343 4.5525 7.50049 4.54627 7.47462 4.53059C7.43648 4.5294 7.39135 4.52915 7.35059 4.52863C7.32867 4.37332 7.37636 4.21954 7.3838 4.06379C7.38409 4.05722 7.31133 4.06773 7.31153 4.055C7.31252 3.9815 7.29302 3.91047 7.36524 3.83528C7.37232 3.8278 7.49985 3.83094 7.48048 3.80891C7.47645 3.80389 7.45956 3.77258 7.43262 3.76399C7.42846 3.76283 7.36883 3.76848 7.36622 3.75813C7.35715 3.69609 7.37083 3.63061 7.40723 3.56867C7.41324 3.55866 7.47759 3.56897 7.48243 3.56184C7.51585 3.51139 7.46796 3.45672 7.5254 3.40852C7.56433 3.37617 7.67486 3.38762 7.78321 3.37043C7.79805 3.36766 7.80111 3.34805 7.86329 3.34699C8.02172 3.34434 8.19538 3.35389 8.36426 3.34992C8.40059 3.34908 8.36189 3.3225 8.44923 3.3382ZM7.85548 12.2044C7.81256 12.2129 7.86171 12.2372 7.91505 12.2269C7.95806 12.2184 7.90896 12.1939 7.85548 12.2044ZM7.64161 11.723C7.5655 11.7394 7.73467 11.7525 7.76466 11.7454C7.86347 11.7222 7.718 11.7066 7.64161 11.723ZM8.00098 9.56574C7.93021 9.55818 7.92511 9.58644 7.99903 9.58039C8.00177 9.57852 8.00374 9.56607 8.00098 9.56574ZM7.95606 8.65168C7.8952 8.65238 7.91253 8.6671 7.96876 8.66242C7.97204 8.66188 7.97467 8.65149 7.95606 8.65168ZM8.11329 8.02473C7.9972 8.00764 7.98522 8.07458 8.10743 8.05988C8.1137 8.05866 8.11907 8.0258 8.11329 8.02473ZM7.81641 3.43488C7.74534 3.42727 7.73958 3.4566 7.81348 3.45051C7.81646 3.45026 7.81937 3.43523 7.81641 3.43488Z" fill="#555961"/>
<path d="M2.76824 7.25781C2.82795 7.23829 2.90598 7.25946 2.9655 7.28808C2.98403 7.29691 2.9755 7.33541 2.98796 7.34375C3.01304 7.35913 3.03644 7.34044 3.06121 7.3584C3.06934 7.36461 3.06002 7.42597 3.06804 7.43262C3.11546 7.46045 3.16064 7.44462 3.20867 7.45801C3.44506 7.52399 3.6774 7.54751 3.91667 7.57617C3.99559 7.58557 4.09198 7.64304 4.17351 7.61816C4.18287 7.61524 4.17783 7.56181 4.17937 7.55566C4.20774 7.48602 4.19804 7.59721 4.21648 7.6123C4.29006 7.6708 4.37222 7.67558 4.44304 7.6543C4.47314 7.64507 4.44317 7.53562 4.47332 7.59668C4.47542 7.60084 4.46798 7.65975 4.47624 7.66601C4.49477 7.67991 4.52976 7.66959 4.5446 7.67383C4.57261 7.68309 4.57769 7.68292 4.60417 7.68359C4.64037 7.68502 4.6835 7.71444 4.72234 7.70117C4.73062 7.69816 4.71995 7.6383 4.73308 7.62793C4.74631 7.61771 4.78082 7.62255 4.79265 7.63672C4.80446 7.65091 4.79935 7.69814 4.80144 7.70898C4.81864 7.80042 4.85971 7.67403 4.86492 7.6709C4.95993 7.61753 5.04135 7.68966 5.13054 7.68945C5.19811 7.68911 5.27034 7.66479 5.33464 7.66797C5.4114 7.67209 5.47687 7.70482 5.55144 7.69922C5.55899 7.69786 5.5501 7.6289 5.55925 7.62695C5.66138 7.61872 5.76323 7.62704 5.86492 7.6748C5.87467 7.68033 5.86201 7.74085 5.87175 7.75C5.93413 7.80105 6.03294 7.92374 6.06999 7.65332C6.11225 7.66388 6.16403 7.67497 6.20183 7.72949C6.22589 7.76466 6.20224 7.83153 6.2321 7.80273C6.23839 7.7953 6.23035 7.73849 6.23992 7.73242C6.28255 7.71073 6.32958 7.72984 6.37175 7.69922C6.38021 7.69251 6.37812 7.63941 6.38054 7.62988C6.40098 7.55328 6.43466 7.68114 6.44207 7.69043C6.49846 7.75961 6.5399 7.7317 6.59246 7.7334C6.60462 7.73373 6.59048 7.66328 6.60222 7.66113C6.66306 7.65096 6.72625 7.65686 6.78582 7.68847C6.79856 7.69614 6.78689 7.75491 6.79265 7.76269C6.8206 7.79086 6.82737 7.67638 6.85417 7.70117C6.85954 7.70694 6.85621 7.7568 6.8571 7.76367C6.87305 7.8523 6.88696 7.72922 6.89128 7.72363C6.94378 7.6853 6.97827 7.81761 7.02898 7.79883C7.0337 7.79284 7.02152 7.73153 7.03777 7.72851C7.15138 7.71035 7.27199 7.72861 7.38445 7.78125C7.40142 7.78984 7.38921 7.83867 7.39031 7.84472C7.40808 7.93889 7.41972 7.81431 7.42546 7.80762C7.47044 7.77303 7.51209 7.87951 7.54265 7.72754C7.73307 7.78026 7.92315 7.69513 8.11199 7.83105C8.11436 7.83261 8.11038 7.89427 8.11492 7.89844C8.17262 7.93372 8.1617 7.83624 8.19988 7.7168C8.20952 7.68716 8.23831 7.83123 8.24089 7.8418C8.25021 7.88044 8.24092 7.97247 8.24382 7.98144C8.26996 8.04068 8.26619 7.73154 8.30144 7.73144C8.30244 7.73288 8.29753 7.78931 8.30046 7.79492C8.30963 7.81242 8.31884 7.79003 8.32781 7.80957C8.34834 7.85495 8.35606 8.0046 8.38738 7.91797C8.39136 7.90662 8.3852 7.73097 8.41667 7.73926C8.42935 7.74268 8.48512 7.73963 8.50066 7.75097C8.51583 7.76276 8.50542 7.81885 8.50652 7.82129C8.54825 7.89581 8.53254 7.92688 8.55339 8.03711C8.57438 8.14733 8.56828 7.88481 8.57683 7.85547C8.58539 7.82639 8.61603 7.88755 8.62371 7.90918C8.63118 7.93044 8.62221 7.96608 8.62859 7.97851C8.67307 8.05779 8.64812 7.84837 8.66277 7.80664C8.6972 7.70818 8.72405 7.90164 8.75554 7.92187C8.76408 7.92702 8.75776 7.8832 8.76531 7.8789C8.79548 7.86306 8.81401 7.92377 8.84832 7.86816C8.85393 7.85908 8.88112 7.74171 8.8991 7.82715C8.90163 7.83948 8.89433 7.88818 8.90691 7.89941C8.92613 7.91574 8.96144 7.92639 8.9821 7.91015C8.99719 7.89794 8.97967 7.81826 8.99871 7.84277C9.00724 7.85388 8.99147 7.90101 9.00749 7.91797C9.02349 7.93482 9.06426 7.93228 9.07976 7.93066C9.09524 7.92901 9.0873 7.86835 9.08855 7.86426C9.09613 7.84146 9.12382 7.81281 9.12761 7.81152C9.26001 7.80411 9.3825 7.90677 9.5114 7.87305C9.52114 7.87057 9.51537 7.81108 9.51628 7.80566C9.55093 7.77883 9.52431 7.94887 9.54851 8.00586C9.54501 7.87591 9.55926 7.89901 9.58367 7.88476C9.59484 7.87683 9.58847 7.82735 9.58953 7.82226C9.60693 7.74637 9.61961 7.84506 9.62273 7.86523C9.63427 7.93914 9.64613 7.85176 9.65398 7.90137C9.66181 7.95064 9.64425 8.02339 9.66765 8.02246C9.67414 7.97585 9.65683 7.85481 9.67449 7.83496C9.74149 7.7605 9.8666 7.8552 9.92058 7.86523C9.97437 7.87513 9.99178 7.867 10.0231 7.88379C10.0798 7.91418 10.0592 7.82351 10.0944 7.78222C10.1292 7.74265 10.1129 7.96271 10.1178 8.01074C10.1228 8.05842 10.1283 8.00992 10.1344 8.03613C10.1404 8.06227 10.1268 8.0947 10.1413 8.10449C10.1558 8.11409 10.1957 8.02932 10.2009 7.97949C10.2117 7.87385 10.1937 7.76289 10.2321 7.80176C10.2343 7.80407 10.2275 7.86227 10.236 7.86816C10.3032 7.91297 10.373 7.91636 10.4401 7.95605C10.4487 7.96302 10.4408 8.0259 10.446 8.03027C10.5019 8.07177 10.4818 7.96233 10.5124 7.84082C10.5055 8.00239 10.5228 8.10138 10.5651 8.10254C10.5906 8.10317 10.5867 8.03223 10.6032 7.98242C10.6083 7.96832 10.6263 8.01544 10.6296 7.98242C10.6402 7.87406 10.6232 7.75295 10.6667 7.80078C10.6686 7.80308 10.663 7.86261 10.6696 7.86621C10.7122 7.8892 10.7173 7.77672 10.7634 7.76269C10.7997 7.7519 10.8645 7.82067 10.9059 7.83203C10.9051 8.01371 10.9437 7.97271 10.9596 7.84765C10.9864 7.85277 11.0158 7.84519 11.0417 7.8623C11.0505 7.86815 11.0446 7.92021 11.0456 7.92676C11.0627 8.01505 11.0749 7.89687 11.0807 7.88965C11.1436 7.84314 11.1946 7.93511 11.2546 7.84472C11.2567 7.83962 11.2601 7.71611 11.276 7.80762C11.2771 7.81398 11.2576 7.87153 11.2858 7.87597C11.314 7.88042 11.3668 7.94766 11.4059 7.88965C11.4154 7.87558 11.4394 7.77337 11.4587 7.85254C11.4612 7.86336 11.459 7.89969 11.4626 7.91992C11.4745 7.98408 11.4808 7.85726 11.4948 7.96484C11.5089 8.07334 11.5383 8.15494 11.5778 8.08008C11.5792 8.07589 11.589 7.97693 11.6012 7.97851C11.621 7.98133 11.649 8.00259 11.6696 8.00195C11.6791 8.00161 11.6734 7.94311 11.6745 7.9375C11.7411 7.90232 11.7888 7.95805 11.86 7.98242C11.8731 7.987 11.9109 7.90138 11.9362 7.96875C11.964 8.04291 11.9358 8.35154 11.9997 8.27832C12.0255 8.24891 12.0578 7.8577 12.1042 8.06055C12.1941 8.01028 12.2777 8.11376 12.3678 8.04199C12.3719 8.03846 12.3847 7.92918 12.3942 7.93066C12.4083 7.93321 12.4163 7.98394 12.4264 7.9873C12.4687 8.00255 12.5077 7.95903 12.5485 7.96582C12.5636 7.96905 12.5585 8.02148 12.5768 8.02441C12.5952 8.02674 12.6076 7.958 12.6325 7.99121C12.6514 8.01674 12.67 8.15858 12.695 8.17578C12.696 8.03558 12.7132 8.03798 12.7438 8.00097C12.7496 7.99345 12.744 7.94534 12.7468 7.93945C12.758 7.91467 12.7683 7.95443 12.779 7.92773C12.7816 7.92125 12.7818 7.87425 12.7839 7.86523C12.8021 7.79472 12.8324 7.90215 12.8376 7.9209C12.8573 7.99192 12.8664 7.92998 12.8815 7.95801C12.8964 7.98596 12.8738 8.02107 12.8913 8.03808C12.9279 8.07326 12.9752 8.06519 13.0124 8.06738C13.0271 8.06796 13.0174 8.00558 13.0192 8.00293C13.0499 7.98673 13.0813 8.05456 13.0983 7.92773C13.1195 8.25537 13.1163 7.89726 13.1598 7.96094C13.1633 7.96627 13.1682 8.12265 13.155 8.14551C13.1417 8.16773 13.1215 8.11978 13.1032 8.15527C13.0985 8.16599 13.0734 8.3096 13.07 8.31836C13.0435 8.38588 13.0402 8.15435 13.0387 8.1416C13.0227 8.00379 12.9921 8.16102 12.9841 8.17187C12.9473 8.22155 12.9161 8.18911 12.8854 8.22461C12.8654 8.248 12.8631 8.39918 12.8473 8.39453C12.7951 8.37841 12.7766 8.16761 12.7272 8.35156C12.7167 8.39133 12.727 8.55644 12.6891 8.42578C12.6861 8.41453 12.6583 8.29934 12.6423 8.37402C12.6402 8.38386 12.6401 8.43246 12.6374 8.43652C12.6195 8.46199 12.6072 8.42397 12.5876 8.44238C12.5679 8.4609 12.5446 8.48809 12.5221 8.47168C12.5086 8.46167 12.4916 8.37199 12.485 8.34961C12.4667 8.28593 12.4466 8.39007 12.4352 8.31347C12.4238 8.23586 12.4457 8.11753 12.4157 8.06738C12.4146 8.19347 12.4126 8.32339 12.4108 8.45019C12.3451 8.44576 12.2804 8.40474 12.2145 8.41015C12.2064 8.41097 12.2144 8.47842 12.2057 8.48144C12.1689 8.49218 12.1365 8.44417 12.0983 8.46289C12.0686 8.47804 12.0356 8.55028 12.0046 8.56836C11.9856 8.42412 11.9394 8.4731 11.9059 8.45996C11.8942 8.45541 11.8947 8.41695 11.8864 8.4043C11.8549 8.3578 11.8696 8.48482 11.861 8.50488C11.8241 8.59022 11.8213 8.30416 11.778 8.30957C11.7757 8.30985 11.7469 8.46198 11.7428 8.47265C11.7181 8.53512 11.7388 8.41957 11.7233 8.4082C11.6951 8.38742 11.6754 8.35047 11.6423 8.39551C11.6326 8.40917 11.6092 8.50467 11.5905 8.43066C11.588 8.42091 11.5896 8.37025 11.5876 8.36719C11.5516 8.31755 11.5505 8.47714 11.53 8.53125C11.5094 8.58522 11.4778 8.47516 11.4714 8.44336C11.4547 8.36245 11.4832 8.40663 11.485 8.40039C11.4958 8.30435 11.4725 8.32061 11.4548 8.3125C11.4522 8.15584 11.4282 8.16522 11.4372 8.30469C11.4382 8.31978 11.4511 8.30581 11.4548 8.3125C11.4392 8.46615 11.4125 8.48541 11.3825 8.3418C11.3686 8.27457 11.3812 8.19693 11.3385 8.22558C11.3198 8.23987 11.3269 8.34523 11.3102 8.375C11.2711 8.4421 11.2197 8.34157 11.1794 8.35742C11.1651 8.36357 11.1794 8.42246 11.1696 8.42871C11.1431 8.44473 11.1191 8.40015 11.0925 8.42285C11.0902 8.42623 11.0958 8.48652 11.0876 8.4873C11.0249 8.4943 10.9704 8.45524 10.905 8.4541C10.8733 8.4536 10.8167 8.48723 10.7839 8.48047C10.727 8.46895 10.6567 8.37953 10.6081 8.40137C10.5765 8.41543 10.5836 8.47745 10.57 8.51953C10.5438 8.60066 10.4971 8.45426 10.4909 8.43164C10.4926 8.42991 10.5176 8.4153 10.5036 8.38476C10.4954 8.3209 10.4914 8.42509 10.4909 8.43164C10.4861 8.41715 10.4324 8.40338 10.4216 8.41504C10.4157 8.4215 10.4188 8.48016 10.4157 8.48242C10.3429 8.53475 10.2698 8.54983 10.196 8.52246C10.1947 8.52099 10.1966 8.46005 10.194 8.4541C10.1512 8.42497 10.1238 8.50515 10.0885 8.55273C10.0534 8.60005 10.0254 8.58373 10.0046 8.47168C9.97794 8.48584 9.93963 8.43544 9.91765 8.40527C9.89576 8.37558 9.89224 8.50334 9.89031 8.50586C9.83024 8.58602 9.79531 8.51358 9.73308 8.50195C9.70347 8.49636 9.64429 8.5144 9.61199 8.52832C9.58655 8.53955 9.57097 8.51026 9.54753 8.5293C9.54436 8.53185 9.54753 8.58863 9.54656 8.59082C9.5204 8.65864 9.53243 8.5199 9.52703 8.49512C9.50745 8.40504 9.49604 8.35717 9.46257 8.39941C9.45486 8.4091 9.43175 8.60751 9.41765 8.62012C9.39935 8.63492 9.40646 8.564 9.38738 8.58105C9.38574 8.58247 9.38555 8.62695 9.37371 8.625C9.31884 8.61647 9.25883 8.59031 9.20183 8.59472C9.1944 8.59627 9.20407 8.66484 9.19304 8.66699C9.14028 8.67528 9.08237 8.67318 9.03093 8.64062C9.01827 8.63234 9.02584 8.58302 9.02312 8.56836C9.00643 8.48132 8.98261 8.60476 8.9782 8.61035C8.88386 8.6719 8.81164 8.55625 8.7155 8.61133C8.71027 8.61456 8.67004 8.75175 8.65203 8.63476C8.6508 8.62694 8.63258 8.50622 8.61687 8.58789C8.6159 8.59303 8.62721 8.65535 8.60808 8.64941C8.58874 8.6431 8.55752 8.68433 8.53093 8.61621C8.52251 8.59473 8.50233 8.47447 8.47722 8.57031C8.47538 8.57816 8.43734 8.79291 8.42351 8.64453C8.42127 8.61996 8.42306 8.46174 8.39324 8.54199C8.38751 8.55772 8.39758 8.59319 8.38249 8.61523C8.35938 8.64918 8.32888 8.60725 8.30046 8.67773C8.29535 8.69121 8.27432 8.79687 8.25749 8.71582C8.25496 8.70284 8.26017 8.65126 8.25164 8.64453C8.20914 8.61617 8.16392 8.65178 8.12078 8.61523C8.10557 8.60226 8.1132 8.51708 8.09734 8.49414C8.08141 8.47126 8.04955 8.44926 8.03289 8.48828C8.01649 8.52781 8.03435 8.66297 8.00945 8.67383C7.90097 8.721 7.79355 8.64164 7.68523 8.62988C7.66921 8.62814 7.68219 8.67645 7.65886 8.67773C7.57149 8.68136 7.42023 8.72653 7.34441 8.62305C7.28408 8.54034 7.36039 8.47706 7.31414 8.44336C7.29174 8.42727 7.26681 8.58584 7.2614 8.59082C7.20869 8.64105 7.17216 8.57132 7.12468 8.59277C7.11486 8.59723 7.12425 8.66097 7.11589 8.66406C7.08737 8.67511 7.05721 8.64711 7.02996 8.65234C7.01828 8.65571 7.02015 8.70269 7.00945 8.70019C6.98253 8.69172 6.95853 8.67082 6.9323 8.625C6.92991 8.62081 6.94539 8.55988 6.92546 8.55762C6.89327 8.55379 6.85305 8.50909 6.81609 8.55566C6.80525 8.5707 6.80445 8.68122 6.78093 8.60449C6.77597 8.58834 6.78312 8.45416 6.75554 8.57031C6.75046 8.59105 6.70393 8.74494 6.68132 8.64453C6.6753 8.61753 6.6603 8.50928 6.64714 8.52539C6.64535 8.52815 6.65226 8.58886 6.64128 8.59472C6.60267 8.61422 6.5618 8.60717 6.52214 8.62597C6.51164 8.6313 6.52719 8.69354 6.5114 8.69922C6.46803 8.71476 6.41416 8.69908 6.37175 8.67969C6.35608 8.67239 6.36703 8.62084 6.36589 8.61523C6.34755 8.52406 6.33585 8.64712 6.32976 8.6543C6.29196 8.69702 6.26306 8.63998 6.2282 8.65527C6.21945 8.66099 6.22584 8.71577 6.22429 8.72265C6.20459 8.77334 6.21869 8.67044 6.20671 8.65722C6.17154 8.62439 6.13195 8.62925 6.09636 8.63672C6.08326 8.63956 6.09738 8.70722 6.08562 8.70898C6.01612 8.72066 5.94348 8.71425 5.87566 8.67676C5.86339 8.66907 5.87122 8.61805 5.86882 8.60547C5.85046 8.52169 5.82326 8.6356 5.81707 8.64648C5.78908 8.69582 5.77816 8.65019 5.75359 8.6582C5.63211 8.70129 5.48154 8.67131 5.36687 8.65234C5.21765 8.62794 5.10191 8.57801 4.95964 8.59082C4.95081 8.59156 4.95867 8.65746 4.95183 8.66211C4.85103 8.67892 4.75107 8.65173 4.65007 8.67187C4.64232 8.67444 4.65351 8.73774 4.64128 8.74414C4.614 8.7542 4.57903 8.7506 4.55144 8.72949C4.53845 8.71901 4.55554 8.66399 4.54265 8.6543C4.5112 8.63308 4.47731 8.62819 4.44499 8.63867C4.43133 8.64328 4.45136 8.71 4.43425 8.71191C4.3122 8.71862 4.19139 8.73015 4.06804 8.64258C4.05967 8.63473 4.05265 8.49954 4.03484 8.52539C4.03349 8.56353 4.03348 8.60865 4.03289 8.64941C3.8552 8.67137 3.67884 8.62358 3.50066 8.61621C3.494 8.61848 3.50615 8.68867 3.49187 8.68847C3.40772 8.68741 3.326 8.70712 3.23992 8.63476C3.23163 8.62595 3.23561 8.5003 3.21062 8.51953C3.20586 8.52318 3.16886 8.54 3.15886 8.56738C3.15754 8.57156 3.164 8.63148 3.15203 8.63379C3.08102 8.64287 3.00612 8.62931 2.93523 8.59277C2.92387 8.58672 2.93633 8.52289 2.92839 8.51758C2.87066 8.48381 2.80779 8.53209 2.75261 8.47461C2.71564 8.43568 2.72929 8.32515 2.70964 8.2168C2.70656 8.20186 2.68351 8.19905 2.6823 8.13672C2.67926 7.97829 2.69074 7.80462 2.68621 7.63574C2.68525 7.5994 2.65456 7.63819 2.67253 7.55078C2.6738 7.54489 2.69636 7.51518 2.70183 7.48535C2.70559 7.46458 2.69798 7.40037 2.70574 7.37402C2.7135 7.34793 2.72216 7.40109 2.73503 7.37012C2.74774 7.33857 2.74269 7.26656 2.76824 7.25781ZM12.2809 8.23535C12.2543 8.13641 12.2358 8.28198 12.2546 8.3584C12.2733 8.4346 12.289 8.26543 12.2809 8.23535ZM2.78289 8.18359C2.77418 8.25467 2.80743 8.26043 2.80046 8.18652C2.80018 8.18354 2.78328 8.18064 2.78289 8.18359ZM12.8298 8.08496C12.8201 8.04198 12.7924 8.0911 12.8044 8.14453C12.8141 8.18749 12.8417 8.13837 12.8298 8.08496ZM8.7448 8.04394C8.7456 8.1048 8.76186 8.08747 8.75652 8.03125C8.75567 8.02802 8.74458 8.02554 8.7448 8.04394ZM13.2604 7.83594C13.2726 7.84285 13.2308 7.91986 13.2477 7.94336C13.2793 7.98652 13.3005 7.82175 13.3327 7.91015C13.3379 7.92738 13.3007 8.07652 13.2956 8.08105L13.2712 8.06543C13.2183 8.00733 13.195 7.81001 13.2604 7.83594ZM9.78972 7.99902C9.78106 8.06983 9.81324 8.07491 9.80632 8.00097C9.80432 7.99821 9.79009 7.99625 9.78972 7.99902ZM8.028 7.88672C8.0085 8.00276 8.08484 8.01477 8.06804 7.89258C8.06628 7.88634 8.02922 7.88096 8.028 7.88672Z" fill="#555961"/>
</svg>
