<svg width="16" height="16" viewBox="0 0 16 16" fill="none" xmlns="http://www.w3.org/2000/svg">
<path d="M4.75651 9.17676C4.87893 9.15699 5.01785 9.24775 4.90299 9.3291C4.87712 9.34711 4.89134 9.22187 4.84635 9.2334C4.76467 9.25502 4.8463 9.40614 4.73112 9.39648C4.71716 9.3945 4.6944 9.31702 4.68131 9.26367C4.58361 9.35942 4.47173 9.45294 4.3776 9.55957C4.35347 9.58685 4.43101 9.60924 4.33952 9.6416C4.33328 9.64368 4.27584 9.62851 4.24577 9.64062C4.22498 9.64923 4.19106 9.70473 4.15983 9.71094C4.12842 9.71684 4.15211 9.66524 4.10905 9.66602C4.0657 9.66709 4.02358 9.72751 3.97526 9.69141C3.86341 9.60719 3.74992 9.46365 3.67253 9.3457C3.64841 9.30891 3.69096 9.29623 3.67545 9.26953C3.64502 9.2176 3.59284 9.19237 3.5651 9.13867C3.55727 9.12068 3.61755 9.09289 3.6071 9.0752C3.54911 8.97809 3.46436 8.91603 3.39518 8.82812C3.06873 8.41235 2.72048 8.02965 2.36491 7.63574C2.18404 7.47555 2.20472 7.21212 2.36491 7.03125C2.38269 7.0152 2.40079 6.99948 2.41862 6.9834C2.55478 6.86054 2.75272 6.74324 2.86881 6.5918C2.88195 6.57429 2.83508 6.54477 2.83366 6.53809C2.83094 6.44217 2.89431 6.53654 2.93522 6.5166C3.09727 6.43723 3.23453 6.30604 3.33561 6.1748C3.37852 6.11883 3.25202 6.09117 3.34538 6.08496C3.3523 6.08596 3.38037 6.13758 3.39811 6.12891C3.43876 6.10814 3.4901 6.0431 3.51725 6.02246C3.56973 5.98308 3.57685 5.97461 3.62077 5.93164C3.68116 5.87329 3.77253 5.82309 3.82682 5.75C3.83754 5.73426 3.77729 5.70945 3.79167 5.68066C3.80629 5.65169 3.8678 5.59818 3.89713 5.58887C3.92648 5.5797 3.95148 5.62173 3.96256 5.62598C4.05546 5.66248 4.03241 5.50588 4.03874 5.49512C4.15683 5.30158 4.34183 5.21868 4.48796 5.07227C4.5986 4.96112 4.70047 4.8259 4.80827 4.72266C4.93702 4.59973 5.06692 4.51582 5.18522 4.38965C5.19774 4.37639 5.13312 4.34154 5.14811 4.3252C5.30979 4.15188 5.48174 3.99042 5.68229 3.85742C5.70235 3.84514 5.72509 3.91001 5.74772 3.89941C5.88619 3.83324 6.13396 3.75767 6.00358 3.50586C6.08035 3.44403 6.17256 3.3672 6.27311 3.34375C6.33758 3.32888 6.34711 3.41549 6.37565 3.34668C6.38214 3.33114 6.32639 3.30343 6.33854 3.2832C6.39313 3.19794 6.4834 3.13477 6.53092 3.04395C6.54037 3.02536 6.49854 2.99121 6.49577 2.98047C6.4752 2.89285 6.6216 2.92745 6.6403 2.92188C6.78171 2.8783 6.83025 2.79105 6.91764 2.70605C6.93706 2.68636 6.86385 2.65937 6.88151 2.63867C6.97408 2.53171 7.08181 2.43277 7.20182 2.35742C7.22868 2.34076 7.25222 2.40322 7.26725 2.39746C7.33214 2.37128 7.26169 2.28031 7.32292 2.25391C7.33578 2.24823 7.36797 2.29062 7.3737 2.29297C7.46295 2.3294 7.39623 2.21678 7.40104 2.20801C7.46005 2.09497 7.60848 2.13341 7.67838 2.03711C7.68665 2.02548 7.61812 2.00154 7.64421 1.97168C7.69436 1.9141 7.74774 1.85729 7.80338 1.80273C7.84012 1.76172 7.94476 1.72513 7.99967 1.72168C8.1913 1.72356 8.3865 1.74383 8.57194 1.78125C8.61183 1.78962 8.58307 1.83865 8.58561 1.84473C8.62718 1.93976 8.65442 1.81242 8.66764 1.80762C8.77192 1.77316 8.86925 1.87945 8.9401 1.72754C9.38195 1.78028 9.82222 1.69491 10.2604 1.83105C10.2655 1.83412 10.256 1.89416 10.2663 1.89844C10.4001 1.93372 10.375 1.83624 10.4635 1.7168C10.486 1.68736 10.5532 1.83124 10.5592 1.8418C10.581 1.88063 10.559 1.97338 10.5661 1.98145C10.6267 2.04068 10.6171 1.73155 10.6989 1.73145C10.701 1.73371 10.6903 1.78917 10.6969 1.79492C10.7183 1.81269 10.7396 1.78998 10.7604 1.80957C10.8081 1.85485 10.8254 2.0047 10.8981 1.91797C10.9073 1.90662 10.8935 1.73097 10.9665 1.73926C10.9957 1.74269 11.1247 1.73962 11.1608 1.75098C11.1964 1.76258 11.1719 1.81885 11.1745 1.82129C11.1925 1.83514 11.2034 1.8497 11.2135 1.86133C11.2326 1.84808 11.2513 1.83453 11.2712 1.82324C11.2978 1.80836 11.3198 1.85652 11.3346 1.8623C11.3356 1.86268 11.3366 1.86295 11.3376 1.86328C11.3385 1.86027 11.3374 1.85712 11.3385 1.85547C11.3467 1.84371 11.3626 1.84805 11.3805 1.85742C11.3985 1.83222 11.3753 1.76677 11.3776 1.75879C11.4267 1.67124 11.494 1.61468 11.5632 1.5625L11.6901 1.87012C11.7108 1.89468 11.7317 1.91617 11.7536 1.92188C11.7733 1.92686 11.7574 1.88305 11.7751 1.87891C11.8449 1.86321 11.8871 1.92356 11.9665 1.86816C11.9714 1.86469 11.9838 1.84482 11.9997 1.82715C12.1724 1.82038 12.2391 1.99513 12.1217 2.12207C12.1238 2.16035 12.1169 2.20196 12.0612 2.18262C12.0482 2.17764 12.0254 2.13217 11.9967 2.14551C11.9537 2.16559 11.8903 2.21463 11.8678 2.25977C11.8514 2.29321 11.9358 2.32103 11.8874 2.33496C11.8852 2.33558 11.8835 2.33358 11.8815 2.33301L11.9997 2.61816C11.8913 2.60298 11.7842 2.58064 11.6598 2.61133C11.6523 2.61333 11.6131 2.66625 11.5749 2.67871C11.3871 2.83844 11.1788 2.96233 11.0251 3.15527C11.0107 3.17373 11.0659 3.20767 11.0641 3.21094C11.0262 3.28593 10.9506 3.12169 10.8708 3.12109C10.9682 3.20709 10.929 3.2138 10.8991 3.26367C10.8849 3.28766 10.9296 3.31263 10.9323 3.31836C10.9577 3.40101 10.8677 3.35094 10.8483 3.3418C10.7774 3.30875 10.8181 3.39131 10.7702 3.36914C10.7227 3.34696 10.7004 3.26572 10.6628 3.30469C10.6849 3.34834 10.8 3.40614 10.7848 3.44922C10.7275 3.61184 10.4545 3.74965 10.359 3.83105C10.264 3.91217 10.2415 3.94685 10.1784 3.98633C10.0642 4.05757 10.1614 4.08739 10.1335 4.17383C10.1048 4.26086 9.97532 4.0762 9.93327 4.05078C9.89173 4.02554 9.91698 4.06891 9.88835 4.06055C9.86015 4.05187 9.85916 4.00802 9.82878 4.02441C9.79801 4.04128 9.7922 4.16623 9.81901 4.20996C9.87589 4.30253 9.9838 4.35126 9.89323 4.38672C9.88795 4.38865 9.85853 4.336 9.84049 4.3457C9.69863 4.42411 9.58204 4.53619 9.44401 4.61816C9.42494 4.62937 9.39215 4.57017 9.38053 4.57617C9.2597 4.6385 9.37019 4.6833 9.40592 4.81934C9.30285 4.6937 9.20474 4.65184 9.13444 4.7207C9.09215 4.7621 9.14872 4.80494 9.1569 4.86719C9.15939 4.88592 9.09587 4.88133 9.11393 4.91016C9.17301 5.00462 9.28704 5.06302 9.18131 5.10059C9.17654 5.10211 9.14398 5.04938 9.13053 5.05762C9.04357 5.11127 9.11556 5.2004 9.04948 5.28613C8.9975 5.35338 8.84212 5.41079 8.76628 5.4707C8.63909 5.34068 8.60497 5.43414 8.66764 5.54883C8.61996 5.58925 8.57697 5.64156 8.52213 5.67188C8.50378 5.68208 8.47715 5.63805 8.47038 5.63379C8.37908 5.59906 8.44499 5.7036 8.43913 5.7168C8.36895 5.85274 8.21966 5.87191 8.18522 6.03418C8.18658 6.04255 8.26655 6.13405 8.17643 6.0957C8.17025 6.09285 8.16206 6.02 8.11296 6.0625C8.06353 6.10562 7.92778 6.14533 7.90495 6.25098C7.89948 6.27669 7.93251 6.38836 7.8444 6.36328C7.8325 6.35946 7.8118 6.32953 7.79167 6.32129C7.72661 6.29547 7.80551 6.39644 7.70573 6.34277C7.60606 6.2893 7.50077 6.27989 7.48893 6.39746C7.48897 6.40187 7.54444 6.48765 7.52311 6.50684C7.48872 6.53749 7.4277 6.56909 7.39421 6.60352C7.37901 6.61953 7.42986 6.65188 7.43131 6.65723C7.34697 6.79134 7.22954 6.82997 7.09538 6.92969C7.0707 6.94789 7.06924 7.07042 6.98014 7.06445C6.88207 7.05764 6.71083 6.79254 6.65788 6.94922C6.63636 7.01233 6.85879 7.34278 6.63932 7.27539C6.52742 7.45811 6.31852 7.52146 6.22135 7.71973C6.21695 7.72862 6.27222 7.82721 6.25553 7.8418C6.23054 7.86278 6.18264 7.84045 6.16374 7.85449C6.08341 7.91306 6.04995 8.00719 5.97819 8.06934C5.95111 8.09243 5.92259 8.04706 5.8903 8.0752C5.85843 8.10361 5.88654 8.17219 5.82194 8.18945C5.7726 8.20201 5.64131 8.1337 5.58854 8.16309C5.68602 8.26373 5.65656 8.28981 5.63249 8.36621C5.62806 8.38095 5.67194 8.40532 5.67155 8.41406C5.67038 8.44989 5.62499 8.4388 5.62663 8.47559C5.62698 8.48453 5.66056 8.5191 5.66276 8.52832C5.68233 8.60763 5.55748 8.58098 5.53581 8.57617C5.45339 8.55837 5.48179 8.61707 5.43717 8.62207C5.39313 8.62653 5.40478 8.56516 5.36393 8.58203C5.27925 8.61722 5.20758 8.69947 5.14518 8.75879C5.12044 8.7827 5.18185 8.81193 5.17936 8.81641C5.14037 8.87784 5.04216 8.88133 5.10417 8.99902C4.83675 8.80131 5.096 9.0515 4.97819 9.07715C4.96879 9.07904 4.85238 8.9767 4.8571 8.93848C4.86268 8.9007 4.92889 8.90152 4.93424 8.84668C4.93546 8.83377 4.87469 8.69227 4.87272 8.67773C4.86764 8.58516 5.03911 8.74328 5.05046 8.75C5.17354 8.82054 5.11235 8.65949 5.11784 8.63867C5.14291 8.54357 5.21743 8.51557 5.24284 8.44043C5.25957 8.39124 5.15507 8.27942 5.18424 8.25684C5.28123 8.18203 5.46099 8.30206 5.41178 8.09082C5.401 8.04555 5.26709 7.9454 5.42155 7.97559C5.4313 7.97751 5.56267 8.01585 5.53581 7.93555C5.53236 7.92541 5.49813 7.89109 5.49967 7.88379C5.51083 7.83585 5.55765 7.84315 5.57682 7.79785C5.59602 7.75246 5.61525 7.69417 5.66374 7.66895C5.69283 7.65377 5.78446 7.68909 5.8112 7.69434C5.88634 7.70938 5.84539 7.60268 5.91862 7.63867C5.99216 7.6749 6.03908 7.79501 6.1237 7.78125C6.03637 7.69028 5.9487 7.59454 5.86198 7.50195C5.97299 7.39725 6.10829 7.32016 6.21256 7.20801C6.22512 7.19409 6.16413 7.15992 6.17546 7.14355C6.22854 7.07524 6.31655 7.05604 6.36588 6.97949C6.40374 6.92001 6.4059 6.8156 6.44401 6.75195C6.57707 6.82282 6.61811 6.71264 6.68229 6.66699C6.70473 6.65099 6.73102 6.67954 6.75358 6.6748C6.83807 6.65607 6.72335 6.58986 6.72331 6.56152C6.72399 6.44122 6.93322 6.63902 6.99967 6.5625C7.00049 6.55241 6.94049 6.4035 6.9401 6.39062C6.93654 6.3062 6.98482 6.4212 7.01823 6.4043C7.07926 6.37264 7.1373 6.36649 7.15983 6.28027C7.16625 6.25498 7.13714 6.14925 7.22038 6.1709C7.23148 6.17411 7.26476 6.21195 7.27018 6.21094C7.3643 6.18702 7.25323 6.07199 7.2487 6C7.24452 5.92845 7.37362 5.95394 7.4069 5.96582C7.49279 5.99623 7.41051 6.01232 7.41471 6.01953C7.46485 6.10481 7.49137 6.05557 7.52604 6.03223C7.64077 6.13852 7.67486 6.09147 7.56217 6.00781C7.54973 5.99871 7.53693 6.03146 7.52604 6.03223C7.44284 5.89806 7.47382 5.83932 7.62467 5.8916C7.69517 5.9162 7.72928 5.99342 7.77897 5.90332C7.80161 5.86235 7.7131 5.79789 7.72038 5.74902C7.7372 5.63762 7.89109 5.62513 7.94596 5.54785C7.96548 5.52005 7.90175 5.50186 7.91276 5.48145C7.94495 5.4266 8.01499 5.41913 8.04264 5.35938C8.04496 5.35385 7.99162 5.31981 8.00456 5.30566C8.1025 5.19757 8.22044 5.13606 8.32878 5.0293C8.38108 4.9777 8.44979 4.86056 8.50846 4.81152C8.6098 4.72645 8.78773 4.67502 8.85221 4.58008C8.89433 4.5182 8.83921 4.48566 8.83171 4.43359C8.81705 4.33294 8.99686 4.36045 9.02311 4.36621C9.02153 4.37022 8.99132 4.42125 9.03581 4.41992C9.09506 4.45204 9.02596 4.37055 9.02311 4.36621C9.04024 4.36976 9.1397 4.28977 9.14909 4.26367C9.15328 4.24922 9.1076 4.2136 9.111 4.20703C9.19344 4.05057 9.30253 3.92015 9.44303 3.81836C9.44728 3.81877 9.48947 3.86685 9.49577 3.86328C9.58626 3.81365 9.5741 3.71156 9.59831 3.62012C9.62255 3.52882 9.6801 3.49399 9.79362 3.53906C9.82742 3.48556 9.92578 3.45805 9.98307 3.44336C10.0382 3.42854 9.95884 3.33761 9.95671 3.3291C9.99857 3.17311 10.1068 3.16686 10.2174 3.07227C10.2702 3.02741 10.3542 2.91813 10.3971 2.85547C10.4308 2.80595 10.4766 2.80147 10.5016 2.75C10.505 2.74299 10.4596 2.70724 10.4596 2.7041C10.4548 2.61391 10.5329 2.73256 10.5592 2.74121C10.6548 2.7727 10.7091 2.78671 10.734 2.70215C10.7355 2.69723 10.7263 2.68325 10.7174 2.66309C10.7114 2.66777 10.7039 2.67133 10.6979 2.67773C10.6864 2.69021 10.6376 2.79733 10.5983 2.71582C10.5922 2.70304 10.6034 2.65044 10.5827 2.64453C10.4842 2.61624 10.3809 2.65174 10.2809 2.61523C10.2456 2.60245 10.2635 2.5175 10.2272 2.49414C10.1903 2.47126 10.1155 2.44926 10.0768 2.48828C10.0383 2.52746 10.08 2.66295 10.0221 2.67383C9.7703 2.72108 9.52067 2.64156 9.26921 2.62988C9.2322 2.62831 9.26256 2.67681 9.20768 2.67773C9.00495 2.68141 8.65492 2.72647 8.47917 2.62305C8.33915 2.5403 8.51543 2.47705 8.40788 2.44336C8.40463 2.44243 8.40138 2.44302 8.39811 2.44336C8.39065 2.46251 8.44459 2.48952 8.43424 2.50488C8.39529 2.55956 8.32586 2.58926 8.28483 2.6377C8.26699 2.65952 8.30492 2.69032 8.28385 2.70605C8.23368 2.74422 8.17968 2.76869 8.10417 2.7793C8.09707 2.77797 8.08027 2.71162 8.04655 2.74219C7.99112 2.79248 7.89364 2.82614 7.86588 2.91992C7.8579 2.94799 7.93587 3.02755 7.84245 3.01172C7.82242 3.00757 7.73855 2.90396 7.77506 3.03027C7.78111 3.05152 7.8163 3.23814 7.70768 3.2041C7.67905 3.19514 7.57558 3.14281 7.56608 3.17676C7.56568 3.18189 7.6196 3.21236 7.60612 3.23438C7.55656 3.31168 7.48512 3.37366 7.43327 3.45215C7.41978 3.47315 7.48933 3.49157 7.46745 3.52148C7.40732 3.60368 7.30761 3.68142 7.22428 3.7373C7.19392 3.75752 7.17478 3.70586 7.16862 3.70215C7.07441 3.66787 7.14262 3.77137 7.13835 3.78711C7.10669 3.87948 7.01881 3.88631 6.97233 3.9541C6.95959 3.97252 7.01044 4.00239 7.01237 4.00977C7.01591 4.07816 6.96611 3.9811 6.93717 3.99219C6.85609 4.02674 6.79406 4.09443 6.74088 4.1582C6.72142 4.18168 6.79396 4.20604 6.77604 4.22656C6.67023 4.34897 6.54676 4.46303 6.40885 4.54785C6.38295 4.56338 6.3592 4.51416 6.34635 4.50977C6.25699 4.48065 6.29315 4.60519 6.29069 4.62305C6.27966 4.70423 6.22965 4.6897 6.19499 4.73633C6.0262 4.96604 5.75781 5.19057 5.55631 5.36523C5.29407 5.59294 5.06889 5.74841 4.8444 5.99121C4.83086 6.0067 4.89414 6.04085 4.88249 6.05469C4.7292 6.23167 4.54744 6.37505 4.39616 6.55469C4.38365 6.56935 4.4497 6.59696 4.43131 6.62207C4.39367 6.67393 4.33426 6.72847 4.27409 6.75879C4.24494 6.77336 4.23432 6.70396 4.20573 6.71973C4.13901 6.75641 4.08044 6.80855 4.03483 6.86914C4.0158 6.89498 4.09683 6.90858 4.06803 6.93848C3.9187 7.09506 3.77249 7.25019 3.5944 7.37793C3.64071 7.4284 3.68635 7.47986 3.73405 7.5293C3.74624 7.54109 3.77587 7.46954 3.79948 7.49316C3.93679 7.632 4.0854 7.75192 4.17545 7.94434C4.1836 7.96378 4.08747 8.04673 4.14225 8.07422C4.15363 8.08015 4.22609 8.12837 4.26139 8.125C4.26654 8.12422 4.29774 8.07103 4.31901 8.08984C4.44181 8.19983 4.55381 8.33163 4.64421 8.47363C4.65865 8.49654 4.59499 8.52131 4.60417 8.53809C4.67505 8.65676 4.81224 8.72602 4.86198 8.85742C4.89509 8.94559 4.79504 9.00151 4.75065 9.11035C4.74653 9.12191 4.76402 9.14613 4.75651 9.17676ZM4.57878 8.98242C4.57827 8.98596 4.60179 9.01307 4.60514 9.0127C4.66989 8.97669 4.61965 8.91854 4.57878 8.98242ZM5.43131 8.36426C5.38503 8.34987 5.37465 8.43023 5.43229 8.44824C5.47851 8.46253 5.48887 8.38229 5.43131 8.36426ZM6.18229 7.31055C6.09815 7.28785 6.19276 7.43253 6.22721 7.44043C6.34031 7.46641 6.26702 7.33377 6.18229 7.31055ZM10.4801 3.52148C10.4443 3.45716 10.3865 3.50692 10.4499 3.54785C10.4526 3.54928 10.4816 3.52421 10.4801 3.52148ZM10.0661 1.88672C10.0205 2.00297 10.1978 2.01485 10.1589 1.89258C10.1564 1.88627 10.0689 1.88091 10.0661 1.88672Z" fill="#555961"/>
<path d="M9.33301 6.99341C9.47503 6.98434 9.62195 6.99095 9.76074 7.02173C9.7923 7.0289 9.76375 7.08881 9.77832 7.09595C9.8452 7.12411 9.86066 7.00963 9.92481 7.03442C9.93763 7.04025 9.93047 7.09014 9.93262 7.09692C9.97105 7.1862 10.0046 7.06077 10.0147 7.05688C10.1402 7.01858 10.2206 7.15068 10.3418 7.13208C10.3563 7.12971 10.3241 7.06484 10.3643 7.06177C10.6361 7.0436 10.9243 7.06186 11.1934 7.1145C11.2348 7.12278 11.2054 7.1719 11.208 7.17798C11.2507 7.2725 11.2783 7.1463 11.292 7.14087C11.3996 7.10628 11.5001 7.21276 11.5732 7.06079C11.8003 7.08706 12.0269 7.08106 12.2529 7.08325C12.2605 7.0714 12.2655 7.05846 12.2656 7.04419C12.2657 7.04185 12.2641 7.03972 12.2637 7.03735L12.2822 7.08325C12.4105 7.08504 12.539 7.08897 12.667 7.10669C12.8928 7.09835 12.9799 7.32756 12.8262 7.49341C12.7544 7.54771 12.6786 7.59784 12.5967 7.64185C12.5915 7.64479 12.5541 7.59378 12.5439 7.59985C12.5287 7.60888 12.5161 7.61668 12.5068 7.62524L12.667 8.01099C12.5626 8.02705 12.4584 8.02146 12.3545 8.01099C12.3535 8.01931 12.3525 8.02668 12.3467 8.03247C12.3446 8.03177 12.334 8.01994 12.3242 8.00806C12.308 8.00623 12.2916 8.0062 12.2754 8.00415C12.2682 8.01275 12.2618 8.02186 12.2471 8.02271C12.1802 8.02549 12.0607 7.93209 12.0693 8.04712C12.0721 8.0629 12.2052 8.17575 12.1465 8.2229C12.1228 8.24169 12.0305 8.33741 11.9961 8.35571C11.9623 8.37353 11.9406 8.3181 11.9365 8.31665C11.8128 8.33468 11.8178 8.28515 11.7041 8.24243C11.5909 8.20011 11.7861 8.37577 11.793 8.41138C11.7992 8.44657 11.7027 8.45478 11.6748 8.45239C11.6474 8.44957 11.6378 8.40906 11.6182 8.41138C11.4872 8.43052 11.676 8.53664 11.6816 8.59106C11.693 8.71939 11.5094 8.62722 11.4424 8.66724C11.4248 8.6781 11.4679 8.69835 11.458 8.71411C11.4181 8.77611 11.3448 8.76416 11.3262 8.86157C11.3235 8.87849 11.358 9.00671 11.2676 8.97681C11.2546 8.97236 11.2324 8.92617 11.2031 8.9397C11.1592 8.96061 11.093 9.01151 11.0693 9.05786C11.052 9.09213 11.1377 9.11913 11.0879 9.13403C11.0657 9.14059 11.0592 9.08145 11.0205 9.09595C10.9815 9.11094 10.9138 9.18184 10.8887 9.20923C10.8639 9.23641 10.9204 9.26449 10.9219 9.26978C10.9255 9.29839 10.8972 9.36669 10.8916 9.37427C10.6727 9.60363 10.3935 9.73855 10.1992 9.98071C10.1844 9.999 10.2363 10.0312 10.2383 10.0364C10.1987 10.1138 10.125 9.94849 10.0439 9.94849C10.1412 10.0341 10.1005 10.0419 10.0693 10.093C10.0544 10.1178 10.1007 10.1432 10.1025 10.1487C10.1265 10.231 10.0382 10.1837 10.0176 10.1741C9.94558 10.1411 9.98569 10.224 9.9375 10.2024C9.88936 10.1808 9.86805 10.0987 9.8291 10.1389C9.8511 10.1829 9.96632 10.2395 9.9502 10.2834C9.88923 10.4495 9.60989 10.5938 9.51172 10.678C9.51083 10.6787 9.50967 10.6792 9.50879 10.6799C9.58041 10.7883 9.61006 10.6931 9.69727 10.7229C9.78505 10.7534 9.60157 10.8803 9.5752 10.9231C9.54993 10.9652 9.59289 10.9402 9.58496 10.969C9.57692 10.9978 9.53205 10.9986 9.54883 11.0295C9.56645 11.0611 9.69431 11.0688 9.73828 11.0422C9.8313 10.9859 9.87957 10.8775 9.91699 10.97C9.91738 10.976 9.86599 11.0045 9.87598 11.0227C9.95792 11.1681 10.0737 11.2883 10.1592 11.4299C10.1708 11.4495 10.1109 11.4815 10.1172 11.4934C10.1825 11.6173 10.2264 11.506 10.3643 11.4719C10.2382 11.5747 10.1964 11.6738 10.2676 11.7463C10.3102 11.7897 10.353 11.7322 10.416 11.7249C10.435 11.7226 10.4319 11.7877 10.4609 11.7698C10.5558 11.7112 10.6126 11.5965 10.6523 11.7043C10.654 11.7092 10.6017 11.7414 10.6104 11.7551C10.6663 11.8442 10.7556 11.7724 10.8438 11.8411C10.9128 11.8949 10.9732 12.053 11.0352 12.1311C10.9051 12.2582 11.0007 12.2954 11.1162 12.2336C11.158 12.2827 11.2125 12.3269 11.2441 12.3831C11.2541 12.4021 11.2082 12.4285 11.2051 12.4348C11.1712 12.5272 11.2778 12.4606 11.291 12.467C11.4301 12.5404 11.4511 12.6931 11.6162 12.7307C11.6221 12.732 11.7176 12.6484 11.6797 12.7405C11.6769 12.7467 11.6029 12.7541 11.6475 12.8049C11.692 12.8559 11.7342 12.994 11.8418 13.0188C11.8684 13.0245 11.9801 12.9934 11.9561 13.0823C11.952 13.0943 11.9231 13.1149 11.915 13.135C11.8899 13.2006 11.9909 13.1221 11.9385 13.2219C11.8855 13.3224 11.8773 13.4297 11.9971 13.4436C12.0029 13.4427 12.0873 13.3893 12.1074 13.4104C12.1374 13.4439 12.1698 13.501 12.2031 13.5364C12.2113 13.5375 12.2193 13.5388 12.2275 13.5393C12.2422 13.5285 12.2583 13.5068 12.2617 13.5061C12.274 13.514 12.284 13.5251 12.2949 13.5334C12.3643 13.5157 12.4405 13.4495 12.5127 13.4319C12.5438 13.5306 12.6056 13.5387 12.667 13.5383L12.5908 13.7209C12.5751 13.7101 12.555 13.7073 12.5244 13.7219C12.513 13.7275 12.501 13.7454 12.4883 13.7698C12.504 13.794 12.5202 13.8194 12.5391 13.845L12.3398 14.3264C12.3198 14.3066 12.2991 14.2876 12.2842 14.2668C12.2676 14.2438 12.2953 14.2176 12.29 14.1946C12.2695 14.1094 12.2045 14.2243 12.1758 14.2239C12.0575 14.2215 12.2364 14.0276 12.1777 13.9524C12.1663 13.953 12.1549 13.9523 12.1436 13.9524C12.0969 13.9682 12.0101 14.0005 11.999 14.0012C11.9316 14.003 11.9876 13.9735 12.0068 13.9446C11.8873 13.9324 11.768 13.9169 11.6436 13.9583C11.6335 13.9638 11.6036 14.069 11.5811 14.0686C11.5472 14.0662 11.5281 14.0153 11.5039 14.012C11.4027 13.9967 11.3095 14.0402 11.2119 14.0334C11.1754 14.0306 11.1876 13.9788 11.1436 13.9758C11.0996 13.9734 11.0704 14.0415 11.0107 14.0081C10.9656 13.9825 10.9202 13.8416 10.8604 13.8245C10.858 13.9643 10.8163 13.9614 10.7432 13.9983C10.7291 14.0055 10.744 14.0549 10.7373 14.0608C10.7103 14.0854 10.6849 14.0452 10.6592 14.0725C10.653 14.0796 10.6525 14.127 10.6475 14.135C10.6042 14.2048 10.5335 14.099 10.5205 14.0793C10.4734 14.0084 10.4511 14.0696 10.415 14.0422C10.379 14.0143 10.4322 13.9792 10.3906 13.9622C10.3032 13.927 10.1905 13.9341 10.1016 13.9319C10.0662 13.9313 10.0899 13.9956 10.085 13.9973C10.0116 14.0135 9.93718 13.9453 9.89649 14.0725C9.84562 13.7435 9.85197 14.1042 9.74707 14.0383C9.73886 14.0294 9.72942 13.8773 9.76074 13.8547C9.79242 13.8325 9.83998 13.8801 9.88379 13.845C9.89421 13.8366 9.95475 13.6907 9.96289 13.6819C10.0265 13.6136 10.0357 13.8459 10.0391 13.8586C10.0772 13.9951 10.1494 13.8404 10.1689 13.8284C10.2568 13.7786 10.3318 13.8111 10.4053 13.7756C10.4534 13.7527 10.4583 13.6001 10.4961 13.6047C10.6214 13.6204 10.6651 13.8326 10.7832 13.6487C10.8085 13.6094 10.7834 13.4432 10.874 13.5735C10.8797 13.5817 10.9473 13.7014 10.9863 13.6262C10.9912 13.6167 10.9916 13.5678 10.998 13.5637C11.0412 13.5376 11.0701 13.5763 11.1172 13.5579C11.1642 13.5394 11.2207 13.5114 11.2744 13.5276C11.3068 13.5374 11.3487 13.6285 11.3643 13.6506C11.4081 13.714 11.4553 13.6096 11.4824 13.6868C11.5098 13.7644 11.4565 13.8827 11.5283 13.9329C11.531 13.8068 11.5367 13.6769 11.541 13.55C11.5446 13.5502 11.5482 13.5509 11.5518 13.551C11.5542 13.5379 11.5572 13.5266 11.5596 13.5198C11.5891 13.4334 11.607 13.5171 11.6143 13.5129C11.6998 13.4634 11.6493 13.4362 11.625 13.4006C11.7314 13.2856 11.683 13.2499 11.5996 13.3635C11.5906 13.376 11.624 13.3896 11.625 13.4006C11.4902 13.4828 11.4298 13.4503 11.4805 13.2981C11.5043 13.2267 11.5825 13.1938 11.4902 13.1418C11.4483 13.1182 11.3847 13.2064 11.335 13.1985C11.2214 13.1798 11.2063 13.0231 11.127 12.9661C11.0982 12.9454 11.0807 13.0108 11.0596 12.9983C11.0034 12.9647 10.9947 12.8945 10.9336 12.8655C10.928 12.8629 10.8945 12.9161 10.8799 12.9026C10.7686 12.8014 10.7038 12.6813 10.5938 12.5696C10.5405 12.5157 10.4209 12.4434 10.3701 12.3831C10.282 12.2786 10.2266 12.0963 10.1289 12.0295C10.0656 11.9862 10.0332 12.0413 9.98047 12.0481C9.87935 12.0609 9.90357 11.8818 9.90918 11.8538C9.91286 11.8552 9.96598 11.8866 9.96387 11.8411C9.99589 11.7806 9.91035 11.8537 9.90918 11.8538C9.91258 11.8365 9.83046 11.734 9.80371 11.7239C9.7892 11.7185 9.75288 11.7656 9.7461 11.762C9.58588 11.6758 9.45229 11.5625 9.34668 11.4182C9.34532 11.4152 9.39441 11.372 9.39063 11.3655C9.33878 11.2728 9.23583 11.2831 9.14258 11.2571C9.04942 11.231 9.01363 11.1725 9.05762 11.0579C9.03668 11.0445 9.01908 11.0216 9.00488 10.9954C8.83036 10.799 8.80857 10.5127 9.00488 10.3381C9.04755 10.3151 9.09956 10.3001 9.13574 10.2903C9.19412 10.2745 9.10929 10.1796 9.11035 10.1741C9.15533 10.015 9.266 10.0072 9.37988 9.90942C9.43419 9.86306 9.52177 9.75015 9.56641 9.68579C9.60149 9.63519 9.6487 9.63039 9.67481 9.57739C9.67823 9.5705 9.63605 9.53783 9.63281 9.53247C9.62907 9.44014 9.70575 9.55924 9.73242 9.56763C9.82923 9.59819 9.88344 9.61132 9.91016 9.52466C9.91577 9.50391 9.81356 9.32524 9.8291 9.29321C9.84959 9.25224 9.88799 9.31372 9.90821 9.26978C9.90998 9.26599 9.87898 9.23472 9.90039 9.21606C9.99925 9.12922 10.1185 9.04611 10.2119 8.94653C10.2248 8.93302 10.1589 8.90046 10.1768 8.88013C10.2604 8.78476 10.3603 8.68825 10.4707 8.62427C10.4979 8.60917 10.5193 8.65673 10.5342 8.66235C10.6243 8.69556 10.5757 8.56639 10.5801 8.55688C10.6962 8.35377 10.8997 8.31311 11.0234 8.11157C11.03 8.10042 11.0015 7.93467 11.1152 7.98755C11.1215 7.99041 11.1945 8.02553 11.208 7.99634C11.1674 7.98637 11.1302 7.97428 11.0986 7.9563C10.9533 7.87341 11.1355 7.81034 11.0244 7.77661C10.9711 7.76151 10.9135 7.91818 10.9004 7.92407C10.774 7.97467 10.686 7.90455 10.5723 7.92603C10.5488 7.93048 10.5717 7.99414 10.5518 7.99731C10.4835 8.00842 10.4119 7.98044 10.3467 7.9856C10.3175 7.98808 10.3225 8.03682 10.2959 8.03345C10.2314 8.02497 10.1742 8.00415 10.1113 7.95825C10.1056 7.95407 10.1441 7.89327 10.0967 7.89087C10.0195 7.88738 9.92373 7.84228 9.83496 7.88892C9.80864 7.90297 9.80742 8.01451 9.75098 7.93774C9.7391 7.9216 9.75446 7.78741 9.68848 7.90356C9.68487 7.90978 9.66958 7.9277 9.65137 7.94849C9.66511 7.95975 9.67869 7.97242 9.66699 7.98853C9.60462 8.07312 9.50167 8.154 9.41602 8.21216C9.38496 8.2331 9.36661 8.18099 9.36035 8.177C9.2654 8.14373 9.3324 8.24752 9.32813 8.26392C9.29446 8.35839 9.20448 8.36689 9.15625 8.43677C9.14359 8.45587 9.19539 8.48535 9.19629 8.49243C9.19882 8.56216 9.14965 8.46305 9.12012 8.47583C9.03719 8.51221 8.97397 8.58207 8.91895 8.64771C8.89882 8.67184 8.97149 8.69495 8.95313 8.71606C8.84372 8.84206 8.7166 8.95976 8.5752 9.0481C8.54848 9.06464 8.5247 9.01397 8.51172 9.01001C8.42243 8.98251 8.45646 9.107 8.4541 9.12622C8.4416 9.20901 8.39045 9.19521 8.35449 9.24341C8.17942 9.47937 7.90369 9.71127 7.69629 9.89185C7.42628 10.1273 7.19477 10.2882 6.96289 10.5383C6.9481 10.5542 7.01309 10.5885 7.00098 10.6028C6.99266 10.6123 6.98308 10.6207 6.97461 10.6301C7.14075 10.7913 7.29908 10.9585 7.41602 11.1741C7.42519 11.1934 7.34179 11.302 7.39063 11.3137C7.41981 11.2891 7.45172 11.2575 7.48145 11.2297C7.79746 11.5148 8.06126 11.846 8.35742 12.1526C8.36993 12.1652 8.39943 12.0922 8.42383 12.1165C8.5655 12.2596 8.71799 12.3844 8.8125 12.5813C8.82083 12.6013 8.72455 12.6833 8.78028 12.7122C8.79024 12.7171 8.86591 12.7694 8.90235 12.7668C8.90756 12.7661 8.93903 12.7122 8.96094 12.7317C9.08732 12.8453 9.20387 12.9806 9.29785 13.1262C9.31253 13.1497 9.24668 13.1745 9.25684 13.1917C9.33073 13.3133 9.47185 13.3854 9.52442 13.5198C9.55929 13.6098 9.4584 13.6649 9.41504 13.7747C9.40955 13.7904 9.4456 13.8309 9.40332 13.8772C9.29643 13.9943 9.15467 14.0978 9.04297 14.2249C9.01889 14.2522 9.09832 14.2764 9.00586 14.3079C8.99958 14.3099 8.9416 14.2934 8.91113 14.3049C8.89013 14.3131 8.85601 14.3696 8.82422 14.3752C8.79249 14.3807 8.81579 14.3285 8.77246 14.3284C8.72847 14.3288 8.68635 14.3901 8.63672 14.3528C8.52178 14.2655 8.40372 14.1183 8.32324 13.9973C8.29806 13.9596 8.34181 13.9473 8.32617 13.9202C8.29452 13.8667 8.24105 13.8404 8.21192 13.7854C8.20241 13.767 8.26392 13.7392 8.25293 13.7209C8.1924 13.6212 8.10492 13.5567 8.0332 13.4661C7.67968 13.0192 7.3028 12.6092 6.91797 12.1838C6.79102 12.0436 6.66934 11.8403 6.51367 11.72C6.49575 11.7063 6.46687 11.7535 6.45996 11.7551C6.36277 11.7564 6.45692 11.6935 6.43653 11.6516C6.35334 11.4856 6.21798 11.3433 6.08301 11.2385C6.02553 11.1942 5.99899 11.3227 5.99121 11.2278C5.99138 11.221 6.04465 11.1924 6.03516 11.1741C6.01314 11.1325 5.94602 11.0798 5.92481 11.052C5.88406 10.9982 5.87536 10.9908 5.83106 10.9456C5.81391 10.9278 5.79781 10.9072 5.78125 10.886C5.65021 10.7695 5.66476 10.5786 5.78125 10.4475C5.83434 10.4061 5.8935 10.3643 5.9336 10.3108C5.94549 10.2946 5.88428 10.2701 5.89942 10.2405C5.91479 10.2109 5.9768 10.156 6.00684 10.1458C6.03685 10.1358 6.06204 10.1778 6.07324 10.1819C6.16662 10.2173 6.14597 10.0601 6.15235 10.0481C6.27536 9.84956 6.46447 9.76263 6.61524 9.61157C6.72945 9.49692 6.83511 9.35787 6.94629 9.25122C7.07908 9.12426 7.21275 9.03663 7.33496 8.90649C7.34701 8.8927 7.28261 8.85881 7.29785 8.84204C7.46482 8.66343 7.64184 8.49691 7.84766 8.35864C7.8683 8.34511 7.88985 8.41075 7.91309 8.39966C8.05472 8.33022 8.30824 8.25026 8.17969 7.99634C8.25864 7.93232 8.35355 7.8528 8.45606 7.82739C8.52197 7.81114 8.53033 7.89939 8.56055 7.82837C8.5674 7.8124 8.50996 7.7847 8.52344 7.76392C8.58023 7.67657 8.67298 7.6117 8.72266 7.5188C8.73264 7.49984 8.69136 7.4663 8.68848 7.45532C8.66842 7.36662 8.8142 7.39821 8.83496 7.39282C8.97953 7.34636 9.03092 7.25697 9.1211 7.16919C9.1405 7.14892 9.06686 7.12304 9.08496 7.10181C9.08752 7.09886 9.0902 7.09595 9.09278 7.09302C9.1374 7.04281 9.26575 6.99749 9.33301 6.99341ZM9.42383 13.9182C9.58832 13.9302 9.68792 14.194 9.50879 14.1643C9.47669 14.1588 9.57835 14.0805 9.53711 14.0569C9.46173 14.0142 9.41192 14.1781 9.33496 14.0901C9.32111 14.074 9.41298 13.9197 9.42383 13.9182ZM12.6406 13.9006C12.6645 13.9159 12.6846 13.9361 12.6826 13.9719C12.6823 13.9767 12.6811 13.9815 12.6797 13.9866C12.693 13.9989 12.685 14.0169 12.667 14.0178C12.6517 13.9904 12.6452 13.9468 12.6406 13.9006ZM10.5986 13.8557C10.5754 13.8127 10.5083 13.8618 10.5371 13.9153C10.5603 13.9582 10.6269 13.909 10.5986 13.8557ZM12.5908 13.7209C12.6275 13.7463 12.6331 13.8252 12.6406 13.9006C12.6042 13.8774 12.5557 13.868 12.5439 13.8528C12.5422 13.8504 12.5408 13.8473 12.5391 13.845L12.5908 13.7209ZM11.8613 13.7747C11.8823 13.8015 11.8991 13.8024 11.9121 13.7883C11.9033 13.7842 11.894 13.7787 11.8828 13.7756C11.8779 13.7744 11.8703 13.7744 11.8613 13.7747ZM9.23926 13.6418C9.23767 13.6444 9.26172 13.6728 9.26563 13.6731C9.33077 13.6376 9.27975 13.5779 9.23926 13.6418ZM6.49805 11.1184C6.48988 11.1279 6.51361 11.1429 6.52735 11.1584V11.0862C6.51775 11.097 6.50744 11.1073 6.49805 11.1184ZM9.63965 10.3616C9.60423 10.297 9.54543 10.3483 9.60938 10.3889C9.61405 10.3882 9.64101 10.3642 9.63965 10.3616ZM11.375 8.56274C11.3306 8.52107 11.3155 8.56034 11.3643 8.59106C11.3673 8.5927 11.3887 8.57565 11.375 8.56274ZM9.42871 7.85864C9.42648 7.86068 9.43018 7.88076 9.42969 7.89868L9.46485 7.88403C9.45277 7.86508 9.44087 7.85201 9.42871 7.85864ZM12.6992 7.46118C12.6502 7.34588 12.5121 7.46665 12.627 7.52466C12.6333 7.52727 12.7012 7.46737 12.6992 7.46118ZM12.251 7.00903C12.2193 6.96263 12.1469 6.9128 12.1738 6.87329C12.1783 6.86688 12.1829 6.86001 12.1875 6.85376L12.251 7.00903Z" fill="#555961"/>
</svg>
