<svg width="16" height="16" viewBox="0 0 16 16" fill="none" xmlns="http://www.w3.org/2000/svg">
<path d="M6.35288 5.25777C6.36408 5.23835 6.37786 5.2594 6.38901 5.28804C6.39234 5.29724 6.39166 5.33504 6.39389 5.34371C6.3986 5.35912 6.40291 5.34021 6.40756 5.35836C6.40908 5.36452 6.4071 5.42509 6.40854 5.43258C6.41739 5.46029 6.42594 5.44487 6.43491 5.45797C6.47918 5.52389 6.52291 5.54751 6.56772 5.57613C6.5825 5.58552 6.6003 5.64273 6.61557 5.61812C6.61732 5.61521 6.61627 5.562 6.61655 5.55562C6.62188 5.48588 6.62088 5.59744 6.62436 5.61226C6.63814 5.67046 6.6531 5.67552 6.66635 5.65426C6.672 5.64503 6.66656 5.53552 6.67221 5.59664C6.67261 5.60078 6.67071 5.65915 6.67221 5.66597C6.67569 5.67988 6.6831 5.66955 6.68588 5.67379C6.69113 5.68304 6.69166 5.68288 6.69663 5.68355C6.70341 5.68498 6.71181 5.71429 6.71909 5.70113C6.72063 5.69815 6.71869 5.63908 6.72104 5.62789C6.72352 5.61766 6.72957 5.62249 6.73178 5.63668C6.73397 5.65101 6.73335 5.69813 6.73374 5.70894C6.73689 5.79832 6.74423 5.67889 6.74545 5.67086C6.76326 5.61749 6.77855 5.68952 6.79526 5.68941C6.80784 5.6891 6.82135 5.66519 6.83335 5.66793C6.84774 5.67205 6.86038 5.70478 6.87436 5.69918C6.87564 5.69541 6.87364 5.62861 6.87534 5.62691C6.89449 5.61868 6.91389 5.627 6.93295 5.67476C6.93472 5.68095 6.93211 5.74091 6.93393 5.74996C6.94563 5.80101 6.96409 5.92371 6.97104 5.65328C6.97896 5.66384 6.98934 5.67493 6.99643 5.72945C7.00095 5.7646 6.99669 5.83151 7.00229 5.80269C7.0034 5.79425 7.00147 5.73815 7.00327 5.73238C7.01126 5.71069 7.01978 5.72975 7.02768 5.69918C7.02929 5.69281 7.02918 5.6394 7.02963 5.62984C7.03347 5.55316 7.03997 5.6811 7.04135 5.69039C7.05191 5.75935 7.05983 5.73167 7.06967 5.73336C7.07139 5.72721 7.06954 5.66314 7.07163 5.66109C7.08302 5.65097 7.09465 5.65686 7.10581 5.68843C7.1082 5.69614 7.10569 5.75503 7.10678 5.76265C7.11202 5.79082 7.11348 5.67634 7.1185 5.70113C7.11953 5.70653 7.11931 5.75691 7.11948 5.76363C7.1225 5.8533 7.12456 5.7264 7.12534 5.72359C7.13518 5.68537 7.14122 5.81756 7.15073 5.79879C7.15163 5.79329 7.14982 5.73309 7.15268 5.72847C7.17398 5.71031 7.19703 5.72857 7.21811 5.78121C7.2212 5.79027 7.21888 5.83867 7.21909 5.84468C7.22242 5.93872 7.22485 5.81458 7.22592 5.80758C7.23436 5.77299 7.24168 5.87947 7.24741 5.7275C7.28311 5.78021 7.31943 5.69514 7.35483 5.83101C7.35527 5.83256 7.35402 5.89328 7.35483 5.8984C7.36565 5.93368 7.3633 5.8362 7.37046 5.71676C7.37226 5.68692 7.37778 5.83119 7.37827 5.84176C7.38001 5.88052 7.37869 5.97275 7.37924 5.9814C7.38414 6.04064 7.38338 5.7315 7.38999 5.7314C7.39019 5.73192 7.38943 5.78922 7.38999 5.79488C7.3917 5.81214 7.39319 5.79004 7.39487 5.80953C7.39871 5.85497 7.39975 6.00428 7.40561 5.91793C7.40636 5.90658 7.40557 5.73093 7.41147 5.73922C7.41396 5.7425 7.42421 5.73969 7.4271 5.75093C7.42999 5.7624 7.42786 5.8188 7.42807 5.82125C7.43591 5.89584 7.43295 5.92683 7.43686 6.03707C7.4408 6.14729 7.44014 5.88477 7.44174 5.85543C7.44335 5.82649 7.4491 5.88755 7.45053 5.90914C7.45193 5.93039 7.45032 5.96603 7.45151 5.97847C7.45985 6.05776 7.45462 5.84832 7.45737 5.8066C7.46384 5.70798 7.46903 5.90221 7.47495 5.92183C7.47652 5.92688 7.47562 5.88461 7.4769 5.87886C7.48255 5.86304 7.48612 5.92321 7.49253 5.86812C7.49358 5.85904 7.49892 5.74164 7.50229 5.82711C7.50277 5.83951 7.50086 5.88849 7.50327 5.89937C7.50687 5.91567 7.51405 5.92632 7.51792 5.91011C7.52077 5.8981 7.51725 5.81794 7.52085 5.84273C7.52245 5.85384 7.51882 5.90097 7.52182 5.91793C7.5248 5.9345 7.53252 5.93222 7.53549 5.93062C7.5384 5.92897 7.53721 5.86831 7.53745 5.86422C7.53889 5.84083 7.54477 5.81141 7.54526 5.81148C7.56987 5.80551 7.59256 5.90617 7.61655 5.87301C7.61838 5.87053 7.61735 5.81099 7.61753 5.80562C7.62402 5.77879 7.61885 5.94883 7.62338 6.00582C7.62273 5.87587 7.62564 5.89897 7.63022 5.88472C7.63232 5.87686 7.631 5.82732 7.6312 5.82222C7.63446 5.7464 7.63647 5.84503 7.63706 5.86519C7.63922 5.93922 7.64242 5.85171 7.64389 5.90133C7.64533 5.94973 7.64181 6.02079 7.64585 6.02242C7.64706 5.97579 7.64447 5.85464 7.6478 5.83492C7.66034 5.7606 7.68354 5.85485 7.6937 5.86519C7.70376 5.87507 7.7064 5.86708 7.71225 5.88375C7.72287 5.91414 7.71933 5.82347 7.72592 5.78218C7.73243 5.74298 7.72988 5.96262 7.73081 6.0107C7.73174 6.05838 7.73258 6.00988 7.73374 6.03609C7.73486 6.06224 7.732 6.09465 7.73471 6.10445C7.73747 6.11333 7.74547 6.0291 7.74643 5.97945C7.74847 5.87378 7.74509 5.76275 7.75229 5.80172C7.75269 5.80418 7.7508 5.86103 7.75229 5.86812C7.76489 5.91304 7.77779 5.91628 7.79038 5.95601C7.79205 5.96236 7.79133 6.02629 7.79233 6.03023C7.80278 6.07142 7.79831 5.9622 7.80405 5.84078C7.80276 6.00252 7.80683 6.10154 7.81479 6.1025C7.81918 6.09959 7.81861 6.0309 7.82163 5.98238C7.82258 5.96808 7.8259 6.01544 7.82651 5.98238C7.82851 5.87409 7.82521 5.75318 7.83335 5.80074C7.8337 5.80299 7.83223 5.86031 7.83335 5.86617C7.84139 5.88974 7.84321 5.77641 7.8519 5.76265C7.85869 5.75266 7.87054 5.82011 7.87827 5.83199C7.8781 6.01369 7.88505 5.9727 7.88803 5.84761C7.89303 5.85261 7.89883 5.84536 7.90366 5.86226C7.90532 5.86814 7.90444 5.92048 7.90463 5.92672C7.90783 6.01487 7.91037 5.89717 7.91147 5.88961C7.92325 5.8431 7.93245 5.93507 7.9437 5.84468C7.9441 5.83808 7.94464 5.71663 7.9476 5.80758C7.94778 5.8141 7.94428 5.8715 7.94956 5.87593C7.95487 5.88123 7.96473 5.94753 7.97202 5.88961C7.97379 5.87554 7.97818 5.7732 7.98178 5.8525C7.98226 5.86332 7.98208 5.89965 7.98276 5.91988C7.985 5.98404 7.98599 5.85716 7.98862 5.9648C7.99126 6.0733 7.99684 6.1549 8.00424 6.08004C8.00451 6.07535 8.00597 5.98312 8.00815 5.97847C8.01187 5.98112 8.01794 6.00257 8.02182 6.00191C8.02355 6.00057 8.02259 5.94261 8.0228 5.93746C8.0353 5.90223 8.04359 5.95806 8.05698 5.98238C8.05945 5.98652 8.06689 5.90135 8.07163 5.96871C8.07684 6.04285 8.07138 6.35126 8.08335 6.27828C8.08818 6.24887 8.09418 5.85766 8.10288 6.06051C8.11973 6.01025 8.13578 6.11366 8.15268 6.04195C8.15344 6.03877 8.15578 5.92914 8.15756 5.93062C8.16013 5.93336 8.16161 5.9817 8.16342 5.98726C8.17125 6.00243 8.17835 5.96049 8.18588 5.96578C8.18879 5.96825 8.18828 6.02142 8.19174 6.02437C8.19501 6.02269 8.197 5.95932 8.20151 5.99117C8.20505 6.01677 8.2095 6.15917 8.21421 6.17574C8.21438 6.03554 8.21725 6.03794 8.22299 6.00093C8.224 5.99243 8.22248 5.94522 8.22299 5.93941C8.22511 5.91441 8.22782 5.95451 8.22983 5.92769C8.23031 5.9212 8.23042 5.87413 8.23081 5.86519C8.23422 5.79468 8.23961 5.90211 8.24057 5.92086C8.24427 5.99195 8.24555 5.92993 8.24838 5.95797C8.25119 5.98598 8.24703 6.02106 8.25034 6.03804C8.25707 6.07244 8.2659 6.06554 8.2728 6.06734C8.27558 6.06792 8.27435 6.00429 8.27475 6.00289C8.28049 5.98683 8.28621 6.05437 8.2894 5.92769C8.29338 6.2556 8.29295 5.89657 8.30112 5.9609C8.30177 5.96623 8.30263 6.12261 8.30014 6.14547C8.29766 6.16747 8.29381 6.11979 8.29038 6.15523C8.28949 6.16644 8.28515 6.30958 8.28452 6.31832C8.27954 6.38628 8.27795 6.15431 8.27768 6.14156C8.27468 6.0038 8.26942 6.16098 8.26792 6.17183C8.26103 6.22146 8.25512 6.18908 8.24936 6.22457C8.24582 6.24725 8.2451 6.38498 8.24253 6.39449C8.23279 6.37738 8.22929 6.16806 8.22006 6.35152C8.2181 6.39125 8.21936 6.55643 8.21225 6.42574C8.21167 6.41443 8.20647 6.29933 8.20346 6.37398C8.20308 6.38379 8.20299 6.43242 8.20249 6.43648C8.19913 6.4619 8.19737 6.42394 8.1937 6.44234C8.19001 6.46086 8.18522 6.48809 8.181 6.47164C8.17847 6.46027 8.17537 6.37154 8.17417 6.34957C8.17074 6.28589 8.16751 6.38999 8.16538 6.31343C8.16323 6.23582 8.1671 6.11749 8.16147 6.06734C8.16126 6.19343 8.16083 6.32335 8.16049 6.45015C8.14816 6.44571 8.13576 6.40454 8.12338 6.41011C8.12192 6.4121 8.12306 6.4788 8.12143 6.4814C8.11459 6.49111 8.109 6.44442 8.1019 6.46285C8.09633 6.478 8.09015 6.55024 8.08432 6.56832C8.08079 6.42513 8.07203 6.47208 8.06577 6.45992C8.06359 6.4554 8.06339 6.41714 8.06186 6.40426C8.05597 6.35785 8.05858 6.4844 8.05698 6.50484C8.05004 6.59048 8.04954 6.3024 8.04135 6.30953C8.04068 6.31799 8.03627 6.46117 8.03549 6.47261C8.03089 6.53469 8.03439 6.42075 8.03159 6.40816C8.02629 6.38739 8.02218 6.35041 8.01596 6.39547C8.01415 6.40889 8.00972 6.50466 8.0062 6.43062C8.00574 6.42104 8.00655 6.37129 8.0062 6.36715C7.99945 6.31753 7.99931 6.47703 7.99546 6.53121C7.9916 6.58528 7.98593 6.47518 7.98471 6.44332C7.98158 6.36216 7.98636 6.40692 7.98667 6.40035C7.98868 6.30431 7.98413 6.32057 7.98081 6.31246C7.97789 6.46615 7.97277 6.48538 7.96713 6.34176C7.96453 6.27454 7.96732 6.1969 7.95932 6.22554C7.95584 6.24019 7.95756 6.34524 7.95444 6.37496C7.94718 6.44138 7.93755 6.34398 7.93003 6.35738C7.92728 6.36314 7.92995 6.4227 7.92807 6.42867C7.92311 6.44449 7.9184 6.40036 7.91342 6.42281C7.91299 6.42486 7.91377 6.48242 7.91245 6.48726C7.90075 6.49439 7.89045 6.45568 7.87827 6.45406C7.87233 6.45356 7.86099 6.48728 7.85483 6.48043C7.84424 6.46723 7.83161 6.37984 7.8226 6.40133C7.81666 6.4153 7.81734 6.47737 7.81479 6.51949C7.80987 6.6004 7.80131 6.45421 7.80014 6.4316C7.79924 6.41713 7.7895 6.40344 7.78745 6.415C7.78635 6.42143 7.78704 6.47977 7.78647 6.48238C7.77285 6.53465 7.75927 6.54948 7.74546 6.52242C7.74522 6.52128 7.74497 6.45997 7.74448 6.45406C7.73646 6.42493 7.73156 6.50511 7.72495 6.55269C7.71837 6.59967 7.71322 6.58353 7.70932 6.47164C7.70433 6.48528 7.69683 6.43529 7.69272 6.40523C7.68865 6.37673 7.6882 6.50331 7.68784 6.50582C7.67661 6.58567 7.67015 6.51383 7.65854 6.50191C7.65299 6.49632 7.64116 6.51436 7.6351 6.52828C7.63033 6.53951 7.62778 6.51014 7.62338 6.52926C7.62282 6.53299 7.62356 6.58862 7.62338 6.59078C7.61849 6.65845 7.62049 6.52001 7.61948 6.49508C7.6158 6.40492 7.61405 6.35696 7.60776 6.39937C7.60631 6.41008 7.60161 6.60492 7.59897 6.62008C7.59553 6.63491 7.59671 6.56366 7.59311 6.58101C7.59281 6.58258 7.59322 6.62479 7.59116 6.62496C7.58094 6.61656 7.56956 6.59079 7.55893 6.59468C7.55751 6.59511 7.55884 6.66179 7.55698 6.66695C7.5471 6.67523 7.53634 6.67304 7.52671 6.64058C7.52433 6.6323 7.52526 6.58296 7.52475 6.56832C7.52165 6.48208 7.51782 6.60265 7.51694 6.61031C7.49925 6.67187 7.48516 6.5562 7.46713 6.61129C7.46615 6.61452 7.45879 6.75172 7.45542 6.63472C7.45519 6.6269 7.4525 6.50637 7.44956 6.58785C7.44938 6.59292 7.45098 6.65335 7.4476 6.64937C7.44398 6.64306 7.43794 6.68429 7.43296 6.61617C7.43138 6.59469 7.4279 6.47445 7.42319 6.57027C7.42288 6.57696 7.41505 6.79335 7.41245 6.64449C7.41203 6.61993 7.41315 6.46201 7.40756 6.54195C7.4065 6.55759 7.40837 6.59313 7.40561 6.61519C7.40128 6.64916 7.39531 6.60721 7.38999 6.67769C7.38904 6.69068 7.38534 6.79706 7.38217 6.71578C7.38169 6.70279 7.38189 6.65038 7.38022 6.64449C7.37227 6.6162 7.36388 6.65129 7.35581 6.61519C7.35296 6.60242 7.35482 6.51755 7.3519 6.4941C7.34891 6.47122 7.34233 6.44922 7.33921 6.48824C7.33615 6.52762 7.33988 6.6619 7.3353 6.67379C7.31508 6.72077 7.29494 6.64234 7.27475 6.62984C7.27174 6.6281 7.27334 6.67677 7.26889 6.67769C7.25245 6.68201 7.22439 6.72557 7.2103 6.62301C7.199 6.5403 7.21313 6.477 7.20444 6.44332C7.20027 6.43029 7.19568 6.58584 7.19467 6.59078C7.18479 6.64122 7.17818 6.57145 7.16928 6.59273C7.16749 6.59708 7.16869 6.65802 7.16733 6.66402C7.16199 6.67511 7.15681 6.64725 7.1517 6.6523C7.1495 6.6547 7.14964 6.69985 7.1478 6.70015C7.14275 6.69167 7.13807 6.67084 7.13315 6.62496C7.13271 6.62083 7.13569 6.5613 7.13217 6.55758C7.12613 6.55408 7.11862 6.50885 7.11167 6.55562C7.10961 6.56994 7.10925 6.68122 7.10483 6.60445C7.1039 6.5883 7.10512 6.45412 7.09995 6.57027C7.09897 6.59147 7.09051 6.74471 7.08628 6.64449C7.08514 6.61747 7.08191 6.50873 7.07944 6.52535C7.0791 6.52811 7.08052 6.58882 7.07846 6.59468C7.07129 6.61372 7.06337 6.60749 7.056 6.62593C7.05402 6.63107 7.05698 6.69324 7.05405 6.69918C7.0459 6.7149 7.03565 6.69912 7.02768 6.67965C7.02485 6.67166 7.02692 6.62075 7.0267 6.61519C7.02328 6.52454 7.02101 6.64622 7.01987 6.65426C7.01277 6.69725 7.00786 6.63992 7.00131 6.65523C6.99969 6.66126 7.00064 6.71605 7.00034 6.72261C6.99664 6.77338 6.99967 6.67012 6.99741 6.65718C6.9908 6.62427 6.98261 6.62917 6.97592 6.63668C6.97386 6.64332 6.9761 6.70723 6.97397 6.70894C6.961 6.72036 6.94756 6.71401 6.93491 6.67672C6.93254 6.6696 6.93439 6.61809 6.93393 6.60543C6.93049 6.52166 6.92533 6.63553 6.92417 6.64644C6.91897 6.69536 6.91696 6.65132 6.91245 6.65816C6.88967 6.70125 6.86071 6.67127 6.8392 6.6523C6.8112 6.62788 6.78974 6.57783 6.76303 6.59078C6.76166 6.59547 6.76319 6.65575 6.76206 6.66207C6.74324 6.6788 6.72426 6.65222 6.70542 6.67183C6.7039 6.67333 6.70569 6.73682 6.70346 6.7441C6.69835 6.75416 6.69203 6.75056 6.68686 6.72945C6.68455 6.71831 6.68729 6.66398 6.68491 6.65426C6.67899 6.63298 6.67243 6.62803 6.66635 6.63863C6.66394 6.64462 6.66772 6.7111 6.6644 6.71187C6.64163 6.71859 6.61905 6.7296 6.59604 6.64254C6.59446 6.63652 6.59355 6.49902 6.59018 6.52535C6.58993 6.56348 6.58932 6.60862 6.5892 6.64937C6.556 6.67081 6.5229 6.62351 6.4896 6.61617C6.48844 6.61986 6.49029 6.68863 6.48764 6.68843C6.47201 6.68775 6.45676 6.70643 6.44077 6.63472C6.43925 6.62452 6.43956 6.50038 6.43491 6.51949C6.43378 6.52362 6.42696 6.54047 6.42514 6.56734C6.42489 6.57154 6.42646 6.632 6.42417 6.63375C6.41098 6.64247 6.39729 6.62869 6.38413 6.59273C6.38198 6.58672 6.3837 6.52237 6.38217 6.51754C6.37136 6.48431 6.3593 6.53221 6.34897 6.47457C6.34206 6.43556 6.34484 6.32502 6.34116 6.21676C6.34056 6.20191 6.3365 6.19886 6.33628 6.13668C6.33571 5.97824 6.3381 5.80458 6.33725 5.6357C6.33707 5.59937 6.33096 5.63809 6.33432 5.55074C6.33456 5.54485 6.33916 5.51515 6.34018 5.48531C6.34089 5.46461 6.3397 5.40036 6.34116 5.37398C6.34261 5.34823 6.34363 5.40099 6.34604 5.37008C6.34841 5.33842 6.34807 5.26636 6.35288 5.25777ZM6.35483 6.18355C6.3532 6.25466 6.36004 6.26041 6.35874 6.18648C6.35868 6.1835 6.3549 6.1806 6.35483 6.18355ZM8.23862 6.08492C8.2368 6.04193 8.23149 6.09105 8.23374 6.14449C8.23555 6.18742 8.24084 6.13829 8.23862 6.08492ZM7.47299 6.0439C7.47314 6.10476 7.47595 6.08743 7.47495 6.03121C7.47481 6.02795 7.47295 6.0254 7.47299 6.0439ZM8.31772 5.94332C8.32363 5.98596 8.32731 5.82181 8.33335 5.91011C8.33431 5.92746 8.32755 6.07459 8.32651 6.08101L8.31772 6.03316C8.31075 5.95556 8.30915 5.81367 8.31967 5.8359C8.322 5.84252 8.31451 5.91984 8.31772 5.94332ZM7.66928 5.99898C7.66766 6.06977 7.67351 6.07486 7.67221 6.00093C7.67189 5.99813 7.66935 5.99618 7.66928 5.99898ZM7.33823 5.88668C7.33457 6.00275 7.34919 6.01474 7.34604 5.89254C7.34576 5.88627 7.33846 5.8809 7.33823 5.88668Z" fill="#555961"/>
<path d="M2.6823 5.25783C2.69164 5.23829 2.70425 5.25942 2.71355 5.2881C2.71623 5.29756 2.71468 5.33486 2.71648 5.34377C2.7204 5.35915 2.72433 5.34041 2.7282 5.35841C2.72946 5.36457 2.72798 5.42504 2.72917 5.43263C2.73658 5.46044 2.74414 5.4447 2.75164 5.45802C2.78852 5.52392 2.82466 5.54758 2.86199 5.57619C2.87432 5.58559 2.88929 5.64305 2.90203 5.61818C2.90349 5.61526 2.90277 5.56198 2.903 5.55568C2.90744 5.48594 2.90596 5.59749 2.90886 5.61232C2.92034 5.67054 2.93297 5.67552 2.94402 5.65431C2.94872 5.64509 2.94419 5.53561 2.9489 5.59669C2.94923 5.60086 2.94859 5.65977 2.94988 5.66603C2.95278 5.67984 2.9583 5.66961 2.96062 5.67384C2.96499 5.6831 2.96527 5.68294 2.96941 5.68361C2.97504 5.68503 2.98191 5.71408 2.98796 5.70119C2.98925 5.69821 2.98795 5.63913 2.98992 5.62794C2.99199 5.61772 2.99686 5.62255 2.99871 5.63673C3.00053 5.65108 3.00033 5.69819 3.00066 5.709C3.00329 5.79851 3.00942 5.67858 3.01042 5.67091C3.02521 5.61774 3.03757 5.68906 3.05144 5.68947C3.06202 5.68916 3.0736 5.66473 3.08367 5.66798C3.09566 5.67211 3.1062 5.70484 3.11785 5.69923C3.11889 5.69479 3.11737 5.62773 3.11882 5.62697C3.1347 5.61895 3.15087 5.62731 3.16667 5.67482C3.16812 5.68145 3.16611 5.74137 3.16765 5.75002C3.1774 5.80106 3.19311 5.92379 3.1989 5.65334C3.20548 5.66384 3.21354 5.67533 3.21941 5.72951C3.22318 5.76466 3.21865 5.83156 3.22332 5.80275C3.22427 5.79463 3.22373 5.73768 3.22527 5.73244C3.23193 5.71074 3.23919 5.72985 3.24578 5.69923C3.24709 5.69246 3.24638 5.63941 3.24675 5.6299C3.24995 5.55321 3.25536 5.68116 3.25652 5.69044C3.26525 5.75892 3.27184 5.73216 3.27996 5.73341C3.2814 5.72782 3.28029 5.66494 3.28191 5.66115C3.29142 5.65094 3.30091 5.65685 3.31023 5.68849C3.31224 5.69599 3.31029 5.75511 3.31121 5.76271C3.31557 5.79087 3.31678 5.67639 3.32097 5.70119C3.32183 5.70658 3.32181 5.75697 3.32195 5.76369C3.32447 5.85336 3.32618 5.72645 3.32683 5.72365C3.33502 5.68559 3.3404 5.81761 3.34832 5.79884C3.34903 5.79282 3.34695 5.73343 3.34929 5.72853C3.36704 5.71036 3.38641 5.72862 3.40398 5.78127C3.40656 5.7903 3.40479 5.83873 3.40496 5.84474C3.40772 5.93838 3.40894 5.81556 3.40984 5.80763C3.41687 5.77304 3.42362 5.87952 3.42839 5.72755C3.45813 5.78024 3.48777 5.69545 3.51726 5.83107C3.51763 5.83262 3.51755 5.89367 3.51824 5.89845C3.52725 5.93374 3.52497 5.83626 3.53093 5.71681C3.53244 5.687 3.53736 5.83125 3.53777 5.84181C3.53922 5.88055 3.53731 5.97263 3.53777 5.98146C3.54185 6.0407 3.54203 5.73156 3.54753 5.73146C3.54771 5.732 3.5461 5.78928 3.54656 5.79494C3.54799 5.81231 3.55004 5.79008 3.55144 5.80959C3.55464 5.85504 3.55534 6.00435 3.56023 5.91798C3.56085 5.90664 3.56019 5.73099 3.56511 5.73927C3.5672 5.74254 3.5754 5.73977 3.57781 5.75099C3.58024 5.76234 3.57861 5.81886 3.57878 5.8213C3.58532 5.89591 3.58334 5.92687 3.5866 6.03712C3.58988 6.14734 3.58917 5.88483 3.5905 5.85548C3.59184 5.82657 3.59614 5.88759 3.59734 5.90919C3.59851 5.93043 3.59732 5.96607 3.59832 5.97853C3.60527 6.05781 3.60091 5.84838 3.6032 5.80666C3.60859 5.70808 3.61292 5.90211 3.61785 5.92189C3.61916 5.92694 3.61873 5.88459 3.6198 5.87892C3.6245 5.8631 3.62716 5.92322 3.6325 5.86818C3.63337 5.8591 3.6375 5.74173 3.64031 5.82716C3.64071 5.83957 3.64025 5.88855 3.64226 5.89943C3.64526 5.91559 3.64978 5.92606 3.653 5.91017C3.65538 5.89817 3.65295 5.81815 3.65593 5.84279C3.65727 5.85389 3.65538 5.90103 3.65789 5.91798C3.66041 5.9346 3.66622 5.93229 3.66863 5.93068C3.67083 5.92656 3.66941 5.86827 3.6696 5.86427C3.67081 5.84088 3.67603 5.81147 3.67644 5.81154C3.697 5.80511 3.71598 5.90634 3.73601 5.87306C3.73753 5.87059 3.73684 5.81101 3.73699 5.80568C3.7424 5.77885 3.73809 5.94889 3.74187 6.00587C3.74132 5.87593 3.74392 5.89903 3.74773 5.88478C3.74946 5.8767 3.74854 5.82736 3.74871 5.82228C3.75142 5.7465 3.7531 5.84509 3.75359 5.86525C3.75539 5.93925 3.75724 5.85177 3.75847 5.90138C3.75967 5.94961 3.75711 6.02037 3.76042 6.02248C3.76144 5.97593 3.75866 5.85504 3.7614 5.83498C3.77186 5.7606 3.79201 5.85504 3.80046 5.86525C3.80887 5.87515 3.81119 5.86699 3.81609 5.8838C3.82493 5.91414 3.82134 5.82351 3.82683 5.78224C3.83226 5.74286 3.82996 5.96265 3.83074 6.01076C3.83151 6.05844 3.8327 6.00994 3.83367 6.03615C3.8346 6.0623 3.83239 6.09471 3.83464 6.10451C3.83695 6.11298 3.84263 6.02905 3.84343 5.97951C3.84513 5.87395 3.84234 5.76317 3.84832 5.80177C3.84866 5.80406 3.84804 5.86125 3.84929 5.86818C3.85979 5.9131 3.87103 5.91634 3.88152 5.95607C3.88286 5.96328 3.88167 6.02638 3.8825 6.03029C3.89121 6.07154 3.88748 5.96229 3.89226 5.84084C3.89119 6.00258 3.89442 6.1016 3.90105 6.10255C3.90483 6.10098 3.90437 6.03146 3.90691 5.98244C3.9077 5.96812 3.91031 6.0155 3.91082 5.98244C3.91248 5.87415 3.9099 5.75324 3.91667 5.8008C3.91697 5.80305 3.91574 5.86049 3.91667 5.86623C3.92338 5.8898 3.92505 5.77647 3.9323 5.76271C3.93793 5.75291 3.94734 5.81972 3.95378 5.83205C3.95365 6.01375 3.96009 5.97276 3.96257 5.84767C3.96668 5.85225 3.97131 5.84567 3.97527 5.86232C3.97666 5.86819 3.97608 5.92055 3.97625 5.92677C3.9789 6.01457 3.98021 5.89809 3.98113 5.88966C3.99095 5.84316 3.9991 5.93513 4.00847 5.84474C4.00881 5.83825 4.00991 5.71664 4.01238 5.80763C4.01253 5.81421 4.00896 5.87156 4.01335 5.87599C4.01776 5.88061 4.0258 5.94785 4.03191 5.88966C4.03339 5.87559 4.03769 5.77323 4.0407 5.85255C4.0411 5.86337 4.04014 5.8997 4.0407 5.91994C4.04256 5.9841 4.04437 5.8572 4.04656 5.96486C4.04875 6.07336 4.05308 6.15495 4.05925 6.08009C4.05947 6.07533 4.06037 5.98354 4.06218 5.97853C4.06517 5.98108 4.06973 6.00118 4.07292 6.00197C4.07442 6.00163 4.07373 5.94289 4.0739 5.93752C4.08432 5.90229 4.09204 5.95812 4.1032 5.98244C4.1053 5.98521 4.111 5.90196 4.11492 5.96877C4.11926 6.04289 4.11472 6.35113 4.12468 6.27834C4.12871 6.24893 4.13404 5.85772 4.14128 6.06056C4.15532 6.01033 4.16822 6.11348 4.1823 6.04201C4.18292 6.03888 4.18472 5.93253 4.18621 5.93068C4.18837 5.93305 4.19054 5.98205 4.19207 5.98732C4.19861 6.00253 4.20432 5.9602 4.21062 5.96584C4.21304 5.9683 4.21261 6.02148 4.2155 6.02443C4.21817 6.02105 4.22058 5.95958 4.22429 5.99123C4.22725 6.01682 4.23014 6.15923 4.23406 6.1758C4.23421 6.0356 4.23611 6.038 4.24089 6.00099C4.24174 5.99263 4.24144 5.94529 4.24187 5.93947C4.24363 5.91456 4.24508 5.95449 4.24675 5.92775C4.24716 5.92126 4.24741 5.87422 4.24773 5.86525C4.25057 5.79474 4.25474 5.90216 4.25554 5.92091C4.25863 5.99204 4.26001 5.92999 4.26238 5.95802C4.26471 5.98604 4.26158 6.02112 4.26433 6.0381C4.26993 6.07243 4.27714 6.0656 4.28289 6.0674C4.28517 6.06797 4.28359 6.00608 4.28386 6.00294C4.28865 5.98675 4.2939 6.05451 4.29656 5.92775C4.29987 6.25561 4.29951 5.89676 4.30632 5.96095C4.30686 5.96628 4.30742 6.12267 4.30535 6.14552C4.30327 6.16743 4.30039 6.11987 4.29753 6.15529C4.29679 6.16654 4.29318 6.30964 4.29265 6.31837C4.2885 6.3863 4.28799 6.15437 4.28777 6.14162C4.28527 6.00383 4.28023 6.16103 4.27898 6.17189C4.27324 6.22154 4.26815 6.18913 4.26335 6.22462C4.2604 6.24733 4.25965 6.38525 4.2575 6.39455C4.24943 6.37656 4.24661 6.16856 4.23894 6.35158C4.2373 6.39131 4.239 6.55648 4.23308 6.4258C4.2326 6.41468 4.22778 6.29931 4.22527 6.37404C4.22495 6.38383 4.22471 6.43248 4.22429 6.43654C4.22149 6.46198 4.21954 6.42399 4.21648 6.4424C4.21341 6.46091 4.21022 6.48812 4.20671 6.47169C4.20461 6.46062 4.20186 6.37165 4.20085 6.34962C4.198 6.28594 4.19482 6.39007 4.19304 6.31349C4.19125 6.23588 4.1948 6.11755 4.19011 6.0674C4.18994 6.19349 4.18942 6.3234 4.18914 6.45021C4.17897 6.44582 4.16906 6.40561 4.15886 6.41017C4.15758 6.41099 4.15828 6.47884 4.15691 6.48146C4.15117 6.49169 4.14625 6.44424 4.14031 6.46291C4.13567 6.47806 4.13051 6.55029 4.12566 6.56837C4.12271 6.42479 4.11526 6.4725 4.11003 6.45998C4.10822 6.45546 4.10837 6.4172 4.1071 6.40431C4.1022 6.35792 4.10453 6.4844 4.1032 6.5049C4.09759 6.58794 4.09675 6.31947 4.0905 6.30959C4.08995 6.31765 4.08528 6.46146 4.08464 6.47267C4.0808 6.5348 4.08406 6.42064 4.08171 6.40822C4.0773 6.38745 4.0742 6.35048 4.06902 6.39552C4.06751 6.40886 4.06414 6.50471 4.06121 6.43068C4.06082 6.42106 4.06053 6.37105 4.06023 6.3672C4.05461 6.31758 4.05465 6.47711 4.05144 6.53127C4.04823 6.58534 4.04366 6.47522 4.04265 6.44337C4.04004 6.36218 4.04435 6.40703 4.0446 6.40041C4.04629 6.30437 4.04249 6.32063 4.03972 6.31252C4.03729 6.46621 4.03367 6.48544 4.02898 6.34181C4.02681 6.27459 4.02881 6.19695 4.02214 6.2256C4.01922 6.23989 4.01987 6.34529 4.01726 6.37502C4.01118 6.44179 4.00304 6.34279 3.99675 6.35744C3.99447 6.36319 3.99636 6.42276 3.9948 6.42873C3.99069 6.44385 3.98722 6.40038 3.98308 6.42287C3.98271 6.42494 3.98326 6.48359 3.9821 6.48732C3.97234 6.49412 3.96399 6.45521 3.95378 6.45412C3.94881 6.4541 3.94032 6.48729 3.93523 6.48048C3.92636 6.46849 3.91545 6.37981 3.90789 6.40138C3.90293 6.41536 3.90415 6.47742 3.90203 6.51955C3.89793 6.60057 3.89031 6.45428 3.88933 6.43166C3.88858 6.41719 3.88031 6.40353 3.87859 6.41505C3.87767 6.4215 3.87809 6.47993 3.87761 6.48244C3.86626 6.53472 3.85495 6.54958 3.84343 6.52248C3.84324 6.52133 3.84287 6.46 3.84246 6.45412C3.83577 6.42499 3.83137 6.50516 3.82585 6.55275C3.82037 6.59965 3.81641 6.58354 3.81316 6.47169C3.809 6.48509 3.8029 6.4353 3.79949 6.40529C3.7961 6.37678 3.79588 6.50337 3.79558 6.50587C3.78624 6.58563 3.78081 6.51404 3.77117 6.50197C3.76655 6.49639 3.75669 6.51443 3.75164 6.52834C3.74766 6.53957 3.74554 6.5102 3.74187 6.52931C3.7414 6.53282 3.74202 6.58867 3.74187 6.59084C3.73779 6.65851 3.73978 6.52012 3.73894 6.49513C3.73588 6.40497 3.73344 6.35702 3.7282 6.39943C3.72699 6.41081 3.72356 6.60489 3.72136 6.62013C3.7185 6.63496 3.71948 6.56373 3.71648 6.58107C3.71622 6.58249 3.71637 6.62677 3.71453 6.62502C3.70606 6.61667 3.69697 6.5912 3.68816 6.59474C3.68697 6.59517 3.68777 6.66206 3.68621 6.66701C3.67797 6.67529 3.66885 6.67317 3.66082 6.64064C3.65884 6.63235 3.66026 6.58303 3.65984 6.56837C3.65726 6.48212 3.65374 6.60274 3.653 6.61037C3.63828 6.67186 3.62699 6.55664 3.61199 6.61134C3.61117 6.61458 3.60504 6.75175 3.60222 6.63478C3.60203 6.62696 3.59882 6.50638 3.59636 6.58791C3.59621 6.59293 3.59811 6.65238 3.59539 6.64943C3.59236 6.64312 3.58685 6.68437 3.58269 6.61623C3.58138 6.59475 3.5788 6.47449 3.57488 6.57033C3.57462 6.57701 3.56826 6.7934 3.56609 6.64455C3.56574 6.61998 3.56586 6.46195 3.56121 6.54201C3.56032 6.55766 3.56253 6.59319 3.56023 6.61525C3.55662 6.64921 3.551 6.60726 3.54656 6.67775C3.54577 6.69093 3.54333 6.79702 3.5407 6.71584C3.5403 6.70295 3.54107 6.65114 3.53972 6.64455C3.53311 6.61629 3.52593 6.65117 3.51921 6.61525C3.51684 6.60248 3.51774 6.51758 3.51531 6.49416C3.51282 6.47128 3.50815 6.44927 3.50554 6.4883C3.50299 6.52763 3.50546 6.66201 3.50164 6.67384C3.48471 6.72104 3.46776 6.64186 3.45085 6.6299C3.44838 6.62818 3.45043 6.67549 3.44695 6.67775C3.4333 6.68137 3.40899 6.72655 3.39714 6.62306C3.38774 6.54038 3.40048 6.47705 3.39324 6.44337C3.38975 6.42894 3.38529 6.58588 3.38445 6.59084C3.3762 6.64136 3.37039 6.57129 3.36296 6.59279C3.36149 6.59736 3.36309 6.65761 3.36199 6.66408C3.35753 6.6752 3.35258 6.64712 3.34832 6.65236C3.34657 6.65602 3.3469 6.69994 3.34539 6.70021C3.34118 6.69173 3.33679 6.67092 3.33269 6.62502C3.33232 6.62081 3.33483 6.5599 3.33171 6.55763C3.32672 6.55292 3.32082 6.50965 3.31511 6.55568C3.3134 6.57013 3.31293 6.68125 3.30925 6.60451C3.30848 6.58836 3.30966 6.45418 3.30535 6.57033C3.30453 6.59155 3.29715 6.74476 3.29363 6.64455C3.29269 6.61752 3.2908 6.50906 3.28875 6.52541C3.28846 6.52816 3.28948 6.58888 3.28777 6.59474C3.2818 6.61378 3.27534 6.60771 3.26921 6.62599C3.26756 6.63112 3.26968 6.69306 3.26726 6.69923C3.26047 6.71496 3.25242 6.69918 3.24578 6.6797C3.24334 6.67227 3.24498 6.62085 3.2448 6.61525C3.24195 6.52471 3.23989 6.64594 3.23894 6.65431C3.23302 6.69731 3.22877 6.63998 3.22332 6.65529C3.22197 6.66141 3.22259 6.71615 3.22234 6.72267C3.21925 6.77359 3.22133 6.66967 3.21941 6.65724C3.2139 6.62433 3.20838 6.62923 3.20281 6.63673C3.20098 6.64211 3.20265 6.70727 3.20085 6.709C3.19001 6.72068 3.17922 6.71412 3.16863 6.67677C3.16665 6.66965 3.16706 6.61812 3.16667 6.60548C3.16381 6.52171 3.15983 6.63561 3.15886 6.6465C3.15451 6.69561 3.15289 6.65089 3.1491 6.65822C3.13019 6.70114 3.10644 6.67134 3.08855 6.65236C3.06521 6.62795 3.04733 6.57793 3.02507 6.59084C3.02388 6.59476 3.02504 6.65568 3.0241 6.66212C3.00837 6.67892 2.99201 6.65188 2.97625 6.67189C2.97498 6.67338 2.9771 6.73661 2.97527 6.74416C2.97101 6.75421 2.96591 6.75062 2.9616 6.72951C2.95966 6.71846 2.96162 6.66409 2.95964 6.65431C2.95472 6.63304 2.94908 6.62809 2.94402 6.63869C2.94203 6.64472 2.94569 6.71012 2.94304 6.71193C2.92398 6.71864 2.90469 6.73009 2.88542 6.64259C2.8841 6.63658 2.88335 6.49905 2.88054 6.52541C2.88033 6.56354 2.88063 6.60867 2.88054 6.64943C2.85278 6.67139 2.8244 6.62359 2.79656 6.61623C2.79562 6.62051 2.79778 6.68868 2.79558 6.68849C2.78244 6.68746 2.76996 6.70709 2.75652 6.63478C2.75525 6.62487 2.75552 6.50041 2.75164 6.51955C2.75077 6.5235 2.74536 6.54033 2.74382 6.5674C2.74362 6.57158 2.74473 6.63174 2.74285 6.6338C2.73179 6.64285 2.71971 6.62905 2.70867 6.59279C2.70688 6.58678 2.70896 6.52243 2.70769 6.51759C2.69868 6.4842 2.68896 6.53229 2.68035 6.47462C2.67457 6.43569 2.67658 6.32516 2.67351 6.21681C2.67302 6.20196 2.66979 6.19893 2.6696 6.13673C2.66913 5.9783 2.67031 5.80464 2.6696 5.63576C2.66945 5.59943 2.66485 5.63815 2.66765 5.5508C2.66785 5.54491 2.67168 5.5152 2.67253 5.48537C2.67313 5.46466 2.67132 5.40041 2.67253 5.37404C2.67375 5.3482 2.67541 5.40107 2.67742 5.37013C2.67937 5.33875 2.67842 5.26745 2.6823 5.25783ZM2.68523 6.18361C2.68387 6.25474 2.68827 6.26048 2.68718 6.18654C2.68714 6.18356 2.68529 6.18066 2.68523 6.18361ZM3.61687 6.04396C3.617 6.10482 3.61868 6.08749 3.61785 6.03127C3.61773 6.02801 3.61684 6.02546 3.61687 6.04396ZM4.32 5.94337C4.32492 5.9862 4.32864 5.82183 4.33367 5.91017C4.33446 5.92757 4.32868 6.0745 4.32781 6.08107L4.31609 5.9424C4.31459 5.87905 4.31611 5.82115 4.32195 5.83595C4.32389 5.84256 4.31732 5.9199 4.32 5.94337ZM3.77996 5.99904C3.77861 6.06982 3.78299 6.07492 3.78191 6.00099C3.78162 5.99821 3.78001 5.99625 3.77996 5.99904ZM3.50457 5.88673C3.50151 6.00282 3.51305 6.0148 3.51042 5.89259C3.51019 5.88633 3.50476 5.88096 3.50457 5.88673Z" fill="#555961"/>
<path d="M7.95052 5.88571C7.97857 5.88872 7.93062 5.91338 7.96419 5.92185C7.99895 5.93009 8.06786 5.90401 8.08529 5.93454C8.12503 6.00599 8.13218 6.11241 8.12533 6.19626C8.12305 6.22227 8.08161 6.2207 8.07845 6.23923C8.07236 6.27546 8.09896 6.30034 8.09017 6.33689C8.08699 6.34906 8.02337 6.3529 8.02083 6.36521C8.01055 6.43327 8.04137 6.48668 8.04525 6.55173C8.06421 6.87226 8.12303 7.17677 8.17904 7.49118C8.19745 7.59474 8.17639 7.73223 8.22884 7.83005C8.23504 7.84147 8.28631 7.82014 8.29134 7.82126C8.36739 7.83919 8.25814 7.85638 8.24935 7.88376C8.2186 7.99351 8.24209 8.10034 8.28744 8.18552C8.30686 8.22167 8.40231 8.15418 8.35384 8.20896C8.35058 8.21273 8.29111 8.21832 8.28744 8.23044C8.2804 8.25817 8.30345 8.30142 8.30404 8.32126C8.30489 8.35948 8.30715 8.3653 8.31576 8.39939C8.32702 8.44615 8.31377 8.50937 8.34017 8.55564C8.34663 8.56481 8.39994 8.53571 8.41439 8.54978C8.42888 8.56405 8.43664 8.61002 8.42708 8.62888C8.41759 8.64754 8.37103 8.65367 8.36068 8.65915C8.27907 8.70488 8.4124 8.72346 8.41927 8.72946C8.504 8.83717 8.4631 8.96093 8.49447 9.07517C8.51844 9.1618 8.56691 9.24863 8.58626 9.332C8.60899 9.43127 8.59979 9.52323 8.63119 9.61716C8.63439 9.62696 8.69767 9.59764 8.70345 9.60837C8.74708 9.73706 8.77552 9.86981 8.76497 10.0127C8.76286 10.0265 8.70039 10.0262 8.69466 10.041C8.66722 10.1343 8.58337 10.293 8.85677 10.2695C8.86135 10.3264 8.86881 10.3952 8.82943 10.458C8.80415 10.4983 8.73135 10.4862 8.76888 10.5166C8.77745 10.5235 8.83164 10.4971 8.84017 10.5088C8.87597 10.5576 8.87413 10.622 8.91829 10.6679C8.92737 10.6772 8.97709 10.6607 8.98763 10.6611C9.06905 10.6669 8.95893 10.7433 8.9515 10.7558C8.90436 10.8463 8.94546 10.8922 8.96224 10.9599C8.96608 10.9756 9.0287 10.9393 9.03548 10.9531C9.06663 11.0284 9.08326 11.1115 9.07357 11.1963C9.0704 11.2145 9.0095 11.2151 9.00423 11.2246C8.98683 11.2678 9.09984 11.2462 9.08529 11.2871C9.08171 11.2955 9.03154 11.3047 9.02572 11.3076C8.9453 11.3516 9.071 11.3365 9.0765 11.3408C9.13177 11.3979 9.01561 11.4761 9.05111 11.5361C9.05551 11.5432 9.11454 11.5086 9.12337 11.5293C9.1806 11.6701 9.20517 11.8293 9.19369 11.9873C9.19188 12.0116 9.14009 12.0088 9.13411 12.0117C9.04943 12.0592 9.17288 12.0414 9.18197 12.0468C9.23105 12.0954 9.14284 12.1776 9.30013 12.1767C9.3146 12.4146 9.44005 12.6205 9.40853 12.8691C9.431 12.868 9.45029 12.8651 9.45931 12.8574C9.46864 12.8491 9.42481 12.839 9.42513 12.8281C9.42717 12.7853 9.49169 12.7878 9.45931 12.7236C9.45348 12.7127 9.36252 12.6314 9.45052 12.6445C9.46323 12.6465 9.50395 12.6752 9.52083 12.664C9.54606 12.6473 9.57432 12.6097 9.57064 12.5781C9.5679 12.5548 9.48568 12.5434 9.5179 12.5302C9.53263 12.5244 9.56701 12.5622 9.59115 12.5498C9.61524 12.5373 9.63601 12.4872 9.6429 12.4677C9.64945 12.4483 9.58932 12.4338 9.58626 12.4306C9.56941 12.4124 9.55908 12.3666 9.5599 12.3613C9.62458 12.1975 9.78398 12.0902 9.82259 11.9199C9.82477 11.9066 9.76315 11.889 9.76302 11.8867C9.75724 11.8338 9.89805 11.9358 9.96322 11.9297C9.84278 11.8812 9.87225 11.8733 9.8724 11.8379C9.87195 11.8209 9.8228 11.808 9.81869 11.8047C9.75829 11.7525 9.85519 11.7778 9.87533 11.7822C9.94891 11.7981 9.87563 11.7482 9.92513 11.7588C9.97425 11.7692 10.0313 11.8202 10.0433 11.792C10.0043 11.7651 9.8838 11.7366 9.87533 11.707C9.84341 11.5954 9.99826 11.4823 10.0365 11.4209C10.0744 11.3598 10.0757 11.3348 10.1077 11.3037C10.166 11.2474 10.073 11.2359 10.054 11.1767C10.0353 11.1172 10.2294 11.228 10.2757 11.2412C10.3213 11.2542 10.2798 11.2273 10.307 11.2304C10.3342 11.2336 10.3566 11.2633 10.3734 11.25C10.3902 11.2363 10.3341 11.1534 10.2913 11.1269C10.2007 11.0709 10.0897 11.0473 10.1458 11.0166C10.1491 11.0149 10.1973 11.0465 10.2083 11.04C10.2856 10.9767 10.3263 10.8924 10.3988 10.8271C10.409 10.8184 10.4635 10.8545 10.4701 10.8496C10.5381 10.7986 10.4278 10.7786 10.3333 10.6924C10.4772 10.7662 10.5772 10.7854 10.6009 10.7343C10.6146 10.7038 10.5476 10.6806 10.5111 10.6406C10.5 10.6285 10.5543 10.6258 10.5257 10.6084C10.4323 10.5512 10.3123 10.5227 10.3802 10.4892C10.386 10.4898 10.4337 10.5186 10.4408 10.5127C10.4854 10.4702 10.3844 10.4173 10.3968 10.3554C10.4069 10.307 10.5049 10.2565 10.5374 10.2109C10.5386 10.2114 10.5402 10.2114 10.5413 10.2119C10.4863 10.1616 10.491 10.1321 10.5804 10.1513C10.5994 10.1209 10.6084 10.0829 10.638 10.0586C10.6482 10.0501 10.6937 10.0791 10.6995 10.08C10.7894 10.0951 10.6865 10.0321 10.6839 10.0224C10.6753 9.92728 10.7869 9.90243 10.7367 9.79294C10.7305 9.78709 10.6238 9.73449 10.7142 9.75192C10.7206 9.75325 10.7633 9.79998 10.7826 9.76755C10.8024 9.73523 10.8919 9.69789 10.8597 9.62692C10.8515 9.60943 10.7714 9.53963 10.8548 9.5488C10.8663 9.55031 10.898 9.56758 10.9183 9.57126C10.983 9.58266 10.8703 9.52378 10.9769 9.55075C11.0835 9.57769 11.1734 9.57435 11.1263 9.49606C11.1213 9.49153 11.0382 9.44083 11.0462 9.42673C11.0595 9.40396 11.0932 9.3786 11.1038 9.35349C11.1089 9.34131 11.0483 9.32284 11.0482 9.32028C11.0521 9.22553 11.1282 9.19058 11.1888 9.11423C11.2001 9.1002 11.1425 9.01883 11.2181 9.0156C11.3009 9.01201 11.5665 9.17221 11.5345 9.0654C11.5215 9.02215 11.1817 8.82351 11.3919 8.84958C11.3945 8.72007 11.5338 8.66095 11.5169 8.52243C11.5162 8.51625 11.4245 8.45666 11.43 8.44528C11.4398 8.42919 11.4904 8.44022 11.4993 8.42966C11.5362 8.38452 11.517 8.31922 11.5452 8.27243C11.5559 8.25477 11.6019 8.2829 11.6146 8.26169C11.6267 8.24046 11.5704 8.19745 11.6136 8.18064C11.6472 8.16808 11.7881 8.20241 11.8167 8.17868C11.6891 8.12058 11.7012 8.10101 11.6839 8.0488C11.6805 8.03874 11.6322 8.02626 11.6283 8.02048C11.612 7.99689 11.6538 8.00039 11.6351 7.97653C11.6305 7.97073 11.5872 7.95134 11.5804 7.94528C11.5258 7.89455 11.6406 7.90193 11.6605 7.90329C11.7356 7.90811 11.6844 7.8712 11.7181 7.86423C11.7516 7.85775 11.7713 7.89904 11.7962 7.88474C11.8481 7.85461 11.8669 7.7942 11.889 7.74997C11.8964 7.73269 11.8357 7.71923 11.8333 7.71579C11.8351 7.67204 11.9135 7.66192 11.807 7.58981C12.1185 7.69742 11.7876 7.55375 11.8714 7.52731C11.8799 7.52612 12.0218 7.58301 12.0365 7.60837C12.0502 7.63371 11.9945 7.63907 12.0169 7.67575C12.0222 7.68437 12.1409 7.77235 12.1488 7.78122C12.1975 7.84164 11.9825 7.75247 11.9701 7.74899C11.8361 7.71269 11.9621 7.81269 11.9681 7.82712C11.9937 7.89175 11.9477 7.91629 11.9632 7.96774C11.9733 8.00126 12.1099 8.06528 12.099 8.08298C12.0566 8.14038 11.8527 8.07704 11.9945 8.21189C12.0255 8.24078 12.1814 8.29503 12.0423 8.28806C12.0335 8.2876 11.9086 8.27364 11.9691 8.32419C11.9772 8.33059 12.0186 8.34901 12.0228 8.35446C12.0371 8.38712 11.996 8.38651 12.0023 8.41794C12.0086 8.44933 12.0206 8.48918 11.9935 8.50974C11.9769 8.52202 11.8854 8.50697 11.8617 8.50583C11.7936 8.50217 11.878 8.568 11.8021 8.55075C11.725 8.53312 11.6287 8.45754 11.5667 8.4736C11.6814 8.52616 11.7985 8.58204 11.9134 8.63571C11.8739 8.71374 11.8013 8.77601 11.7708 8.85837C11.7684 8.86865 11.8335 8.88582 11.8314 8.89743C11.8213 8.94662 11.7605 8.96635 11.7572 9.02048C11.755 9.06269 11.8023 9.13168 11.8021 9.17673C11.6604 9.14134 11.6798 9.21665 11.6497 9.25192C11.6393 9.26421 11.6054 9.24827 11.5892 9.2529C11.5297 9.27221 11.6536 9.30655 11.6673 9.32517C11.7252 9.40447 11.4622 9.29203 11.4437 9.34665C11.4427 9.34956 11.5669 9.4457 11.5745 9.45505C11.6183 9.51044 11.523 9.43893 11.5042 9.4531C11.4701 9.47877 11.4265 9.48763 11.4495 9.54587C11.4565 9.56302 11.5314 9.63035 11.4535 9.62302C11.4432 9.62195 11.3984 9.59982 11.3939 9.60056C11.3291 9.62406 11.4746 9.69035 11.513 9.73728C11.5514 9.78421 11.4333 9.77847 11.4007 9.77341C11.3165 9.76054 11.3754 9.74264 11.3685 9.73825C11.2876 9.68695 11.2893 9.72097 11.2728 9.73923C11.1283 9.67875 11.1232 9.71304 11.2552 9.75876C11.2697 9.76371 11.2643 9.74064 11.2728 9.73923C11.4048 9.8205 11.4075 9.86168 11.2601 9.83981C11.1911 9.82944 11.127 9.78226 11.1302 9.84567C11.1324 9.87433 11.2333 9.90887 11.2513 9.94138C11.2915 10.0161 11.1726 10.0374 11.1654 10.0927C11.1634 10.1126 11.2239 10.1193 11.224 10.1338C11.2243 10.1725 11.1717 10.183 11.1781 10.2246C11.1807 10.2288 11.2384 10.2466 11.2347 10.2568C11.2074 10.3358 11.1412 10.3858 11.1048 10.4648C11.0873 10.5031 11.0878 10.586 11.0638 10.623C11.0226 10.6873 10.9032 10.7359 10.8968 10.8037C10.8925 10.8478 10.9526 10.8648 10.9837 10.8984C11.0439 10.9632 10.8862 10.9606 10.8617 10.959C10.8609 10.9589 10.8621 10.9193 10.8255 10.9238C10.7605 10.9072 10.8616 10.9585 10.8617 10.959C10.8461 10.958 10.804 11.0182 10.8089 11.0361C10.8126 11.046 10.8671 11.0657 10.8675 11.0703C10.8761 11.1799 10.8503 11.275 10.7855 11.3535C10.7837 11.3546 10.7245 11.3252 10.721 11.3281C10.6714 11.3682 10.7298 11.4339 10.7542 11.4961C10.7787 11.5582 10.749 11.5857 10.6351 11.5654C10.6337 11.6035 10.5671 11.6301 10.5277 11.6445C10.4898 11.6592 10.6036 11.7144 10.6048 11.7177C10.6457 11.8234 10.56 11.8359 10.516 11.9072C10.4948 11.9411 10.4805 12.0207 10.4759 12.0654C10.4723 12.1006 10.4369 12.1074 10.4417 12.1435C10.445 12.149 10.4951 12.1666 10.4974 12.1689C10.5452 12.2281 10.4259 12.1573 10.3997 12.1533C10.307 12.1405 10.2564 12.1359 10.2767 12.1933C10.2814 12.2067 10.4523 12.316 10.4554 12.3379C10.4585 12.3653 10.3975 12.3286 10.4027 12.3584C10.4031 12.3609 10.4431 12.379 10.4349 12.3925C10.3975 12.4557 10.3415 12.5178 10.3148 12.5888C10.311 12.5985 10.3808 12.6154 10.3763 12.6299C10.3554 12.6973 10.3216 12.7663 10.264 12.8154C10.2497 12.8273 10.2098 12.7989 10.1947 12.7959C10.105 12.7806 10.2092 12.8614 10.2093 12.8672C10.2146 13.0066 10.0691 13.0474 10.0677 13.1865C10.0691 13.1953 10.1707 13.2983 10.054 13.2724C10.0432 13.2701 9.92819 13.2443 9.99349 13.2959C9.99767 13.2991 10.0603 13.3111 10.0443 13.332C10.0281 13.3529 10.0491 13.4073 9.97298 13.4121C9.94885 13.4136 9.82828 13.3889 9.90169 13.458C9.90692 13.4627 10.0839 13.5986 9.93978 13.5547C9.91562 13.5471 9.77369 13.4797 9.83138 13.5488C9.84012 13.5591 9.86492 13.5625 9.88119 13.5761C9.59499 14.1331 8.88577 14.1035 8.75521 13.4912C8.74911 13.4911 8.74256 13.4893 8.73665 13.4863C8.69654 13.4655 8.72616 13.4153 8.64876 13.3974C8.63501 13.3944 8.52387 13.3955 8.59603 13.3525C8.60742 13.3458 8.66083 13.3382 8.66341 13.3252C8.67566 13.2636 8.62608 13.2159 8.64583 13.1513C8.65288 13.1284 8.7387 13.1153 8.75521 13.0888C8.7716 13.0624 8.78094 13.0159 8.73763 13.0049C8.6939 12.9941 8.56933 13.0525 8.55013 13.0234C8.4667 12.8967 8.50643 12.7376 8.47982 12.5957C8.4756 12.5752 8.43356 12.6045 8.42415 12.5752C8.39014 12.4642 8.29335 12.2825 8.36654 12.1582C8.42527 12.0585 8.5133 12.1396 8.52962 12.0713C8.53663 12.0386 8.37615 12.0485 8.36947 12.0429C8.30228 11.9886 8.35694 11.9234 8.31966 11.8681C8.31193 11.8567 8.2533 11.8858 8.2474 11.8759C8.22677 11.8423 8.24341 11.7962 8.22884 11.7627C8.22159 11.7482 8.17542 11.7633 8.17513 11.748C8.17398 11.7114 8.18603 11.6754 8.22103 11.6299C8.2248 11.6258 8.28803 11.6303 8.28353 11.6045C8.27563 11.5622 8.30545 11.4991 8.2474 11.4638C8.23001 11.4534 8.12236 11.4819 8.18783 11.4316C8.20167 11.421 8.33393 11.3934 8.21224 11.3886C8.19158 11.3877 8.02524 11.37 8.11458 11.3144C8.13826 11.2997 8.23841 11.2507 8.21712 11.2383C8.21259 11.2373 8.15814 11.2614 8.14876 11.249C8.11652 11.2047 8.10844 11.1513 8.0765 11.1054C8.06786 11.0932 8.01361 11.1295 8.00228 11.1113C7.97191 11.0597 7.96808 10.9854 7.97201 10.9258C7.97398 10.904 8.02756 10.9043 8.03255 10.9013C8.11367 10.854 7.99082 10.8721 7.98177 10.8662C7.92779 10.829 7.97341 10.7769 7.94662 10.7363C7.93941 10.7252 7.88597 10.7485 7.87923 10.748C7.82293 10.736 7.93003 10.7272 7.93685 10.708C7.95602 10.6543 7.93793 10.6051 7.91829 10.5615C7.91098 10.5455 7.84989 10.582 7.84408 10.5674C7.80855 10.4814 7.78962 10.3867 7.80208 10.29C7.80529 10.2721 7.85795 10.2682 7.86849 10.2617C7.9422 10.2164 7.82458 10.212 7.81087 10.207C7.75308 10.184 7.79373 10.1575 7.77669 10.1279C7.6928 9.98362 7.66954 9.78364 7.64779 9.63181C7.61912 9.43391 7.62707 9.27193 7.56478 9.09274C7.56042 9.08171 7.49672 9.11109 7.49251 9.10153C7.44121 8.97692 7.43291 8.8427 7.37826 8.71872C7.3739 8.70854 7.31447 8.74101 7.30501 8.72556C7.28584 8.69335 7.27688 8.64819 7.28744 8.60739C7.29255 8.58748 7.35372 8.59491 7.35775 8.57517C7.36715 8.52928 7.35971 8.48489 7.33822 8.44626C7.32863 8.43027 7.27099 8.47382 7.264 8.45114C7.21491 8.29665 7.16211 8.14574 7.20345 7.96481C7.20884 7.95188 7.33572 7.90661 7.30501 7.8906C7.26789 7.89886 7.2243 7.91092 7.1849 7.92087C7.1017 7.6991 7.0857 7.46154 7.0306 7.23142C7.02826 7.22171 6.96225 7.25694 6.95736 7.23825C6.92897 7.13024 6.88153 7.03057 6.92122 6.90134C6.92718 6.88843 7.04841 6.86074 7.02279 6.83396C7.01782 6.8292 6.98761 6.78451 6.95736 6.77927C6.95223 6.77899 6.89784 6.80316 6.89193 6.78806C6.85838 6.69948 6.84532 6.60038 6.85579 6.49997C6.8583 6.48421 6.92177 6.48288 6.92513 6.47165C6.93754 6.38869 6.86912 6.32033 6.9056 6.23435C6.93037 6.17686 7.04142 6.16493 7.139 6.1113C7.15218 6.10329 7.14766 6.07353 7.20736 6.05564C7.35914 6.01009 7.53043 5.97893 7.69173 5.92868C7.72647 5.91789 7.67808 5.88859 7.76888 5.88864C7.775 5.88872 7.81143 5.90999 7.84212 5.90915C7.86345 5.90846 7.9223 5.88291 7.95052 5.88571ZM9.38021 13.29C9.3795 13.2977 9.38836 13.3042 9.41244 13.3086C9.41759 13.3089 9.43999 13.303 9.46712 13.2968L9.38021 13.29ZM9.36068 13.1259C9.38024 13.1318 9.4026 13.1383 9.43197 13.1445C9.4459 13.1426 9.45976 13.141 9.47298 13.1396C9.4603 13.1313 9.43914 13.1193 9.41536 13.1074C9.39929 13.1139 9.37989 13.1214 9.36068 13.1259ZM9.33529 12.9541C9.32427 13.0202 9.37874 13.0115 9.46615 13.0127C9.45336 12.995 9.39584 12.9691 9.35189 12.9482C9.34341 12.9507 9.33649 12.9519 9.33529 12.9541ZM9.5599 12.9004C9.55655 12.8999 9.54816 12.9126 9.56478 12.9199C9.62082 12.9436 9.61415 12.9167 9.5599 12.9004ZM9.31673 12.8398C9.20993 12.8446 9.21043 12.9258 9.29232 12.9043C9.28229 12.8832 9.29808 12.8783 9.32454 12.875C9.32317 12.8597 9.32047 12.8399 9.31673 12.8398ZM10.0872 11.6338C10.1475 11.6733 10.1703 11.6359 10.099 11.6142C10.096 11.6135 10.0848 11.6321 10.0872 11.6338ZM11.6468 8.707C11.5428 8.69935 11.6656 8.77974 11.7454 8.78806C11.8253 8.79628 11.6786 8.70935 11.6468 8.707ZM11.806 7.97849C11.7614 7.97279 11.7916 8.02706 11.847 8.03415C11.8915 8.03981 11.8613 7.98564 11.806 7.97849ZM11.9173 7.29782C11.935 7.29736 12.0536 7.40469 12.054 7.41208H12.0531C12.0047 7.49031 11.7427 7.43414 11.8099 7.35544C11.8221 7.34123 11.8707 7.42443 11.9017 7.41403C11.9582 7.39324 11.8192 7.30102 11.9173 7.29782ZM7.19662 6.19724C7.12521 6.20487 7.13163 6.2491 7.20052 6.22067C7.20315 6.21912 7.19957 6.19697 7.19662 6.19724Z" fill="#555961"/>
<path d="M4.27702 5.85548C4.30498 5.85636 4.25743 5.8824 4.29167 5.88771C4.32627 5.89265 4.39306 5.86437 4.41081 5.89064C4.45113 5.95292 4.45949 6.04935 4.45378 6.12599C4.45155 6.1495 4.41074 6.151 4.40788 6.16798C4.40242 6.20121 4.42976 6.22215 4.42155 6.25587C4.41857 6.2671 4.35596 6.27487 4.35319 6.28615C4.34389 6.34869 4.37488 6.39525 4.37956 6.45412C4.40252 6.74408 4.46449 7.01689 4.52409 7.29884C4.54369 7.39171 4.52456 7.51813 4.5778 7.60353C4.584 7.61334 4.63307 7.59085 4.63933 7.59083C4.7161 7.60211 4.60668 7.62572 4.59929 7.65138C4.57032 7.75299 4.59534 7.84757 4.64128 7.92189C4.66103 7.95349 4.75441 7.88615 4.70671 7.93947C4.70341 7.94314 4.64522 7.95256 4.64226 7.96388C4.63582 7.98954 4.65802 8.02699 4.65886 8.04494C4.6602 8.07943 4.6626 8.08491 4.67155 8.11525C4.6832 8.15695 4.67127 8.21469 4.69792 8.2549C4.7038 8.26344 4.75758 8.23315 4.77214 8.24513C4.78643 8.25756 4.79398 8.29881 4.78483 8.31642C4.77523 8.33378 4.72948 8.34204 4.7194 8.34767C4.63846 8.39503 4.7741 8.40322 4.77897 8.40822C4.86408 8.50034 4.82471 8.61523 4.8571 8.71681C4.88198 8.79398 4.93155 8.86984 4.95183 8.94435C4.97566 9.03303 4.96835 9.11696 5.00065 9.20021C5.00401 9.20903 5.06771 9.17776 5.07194 9.18849C5.1168 9.30243 5.14694 9.42041 5.13835 9.55079C5.1371 9.56382 5.07346 9.56786 5.06901 9.58204C5.04299 9.66871 4.962 9.81805 5.23308 9.77833C5.23835 9.82974 5.24588 9.89154 5.20769 9.95119C5.1831 9.98963 5.11071 9.9834 5.14909 10.0088C5.15838 10.0138 5.21047 9.98666 5.2194 9.99611C5.25556 10.0382 5.25402 10.0979 5.29851 10.1367C5.30801 10.1441 5.35601 10.1256 5.36687 10.125C5.44761 10.1248 5.33998 10.2019 5.33269 10.2139C5.2872 10.2991 5.32782 10.3382 5.34538 10.3985C5.34941 10.4125 5.41231 10.375 5.41862 10.3877C5.45046 10.4541 5.46717 10.5279 5.45866 10.6055C5.45659 10.6228 5.39425 10.6275 5.3903 10.6367C5.37427 10.6767 5.48522 10.6495 5.47136 10.6875C5.46755 10.6955 5.41778 10.7071 5.41276 10.71C5.33488 10.7546 5.45517 10.7344 5.46355 10.7373C5.51913 10.7856 5.40575 10.8639 5.44206 10.916C5.44661 10.9221 5.5031 10.8874 5.51237 10.9053C5.5709 11.0294 5.59783 11.1722 5.58855 11.3164C5.58719 11.3386 5.5362 11.3398 5.52995 11.3428C5.44572 11.3921 5.57115 11.367 5.5778 11.3721C5.62707 11.4129 5.54104 11.4927 5.69694 11.4815C5.71584 11.7147 5.86528 11.9055 5.80437 12.1621C5.80373 12.1653 5.74189 12.1802 5.74089 12.1865C5.72858 12.2625 5.81774 12.2203 5.94499 12.2276C5.97706 12.2294 5.85061 12.3073 5.84147 12.3135C5.80819 12.3356 5.71861 12.3522 5.70964 12.3584C5.66277 12.4061 5.95445 12.3081 5.96843 12.3477C5.96834 12.3491 5.91322 12.361 5.90788 12.3662C5.89429 12.3821 5.91935 12.3862 5.90397 12.4024C5.86829 12.4396 5.72772 12.4935 5.82194 12.5029C5.8342 12.504 5.99907 12.444 6.00261 12.4824C6.00416 12.4983 6.02722 12.5599 6.02214 12.5811C6.01713 12.6016 5.96277 12.6073 5.95769 12.6094C5.9017 12.6798 5.866 12.6711 5.76823 12.7285C5.67114 12.7857 5.91751 12.6999 5.94987 12.7002C5.98087 12.7011 5.93338 12.7554 5.91569 12.7705C5.89788 12.7854 5.86032 12.7856 5.85124 12.7969C5.79459 12.8685 5.96861 12.787 6.02214 12.7842C6.03028 12.7537 6.1592 12.8386 6.2194 12.835C6.09892 12.7878 6.12713 12.7813 6.12565 12.749C6.12479 12.7333 6.0752 12.72 6.07097 12.7168C6.00945 12.6678 6.10565 12.6938 6.12565 12.6983C6.19888 12.7146 6.12497 12.6662 6.17351 12.6768C6.22251 12.6875 6.28149 12.7361 6.29167 12.71C6.25205 12.6846 6.13335 12.6561 6.12272 12.6289C6.08595 12.526 6.2313 12.4256 6.26628 12.3701C6.30076 12.3148 6.30147 12.2916 6.33171 12.2637C6.38584 12.2136 6.29363 12.2012 6.27214 12.1465C6.25087 12.0915 6.44623 12.1975 6.49284 12.211C6.53902 12.2243 6.49708 12.1987 6.52409 12.2022C6.55097 12.2059 6.57466 12.2328 6.5905 12.2207C6.6053 12.2079 6.54671 12.1317 6.50358 12.1065C6.41159 12.0529 6.3012 12.0289 6.35515 12.002C6.3593 12.0012 6.40787 12.0308 6.41765 12.0244C6.49062 11.9682 6.52625 11.8922 6.5944 11.834C6.60377 11.8261 6.65864 11.86 6.66569 11.8565C6.73024 11.8112 6.6204 11.7897 6.52312 11.708C6.66849 11.7793 6.76774 11.8002 6.78874 11.7539C6.80136 11.7261 6.73396 11.7028 6.69597 11.6651C6.68476 11.6537 6.73761 11.6524 6.70866 11.6358C6.61401 11.5812 6.49446 11.5525 6.55925 11.5235C6.56227 11.5222 6.61433 11.5518 6.62077 11.5459C6.66183 11.508 6.56079 11.4577 6.56999 11.4014C6.57746 11.3572 6.6709 11.3135 6.70085 11.2725C6.86764 11.3451 6.84772 11.2856 6.73991 11.2188C6.75726 11.1913 6.76462 11.1565 6.79265 11.1348C6.80229 11.1273 6.84841 11.1543 6.85417 11.1553C6.94327 11.1712 6.83867 11.1115 6.83562 11.1026C6.82251 11.0151 6.93139 10.9951 6.87663 10.8936C6.87464 10.8899 6.76083 10.8358 6.85319 10.8545C6.86017 10.8567 6.90335 10.9001 6.92058 10.8711C6.93847 10.842 7.02472 10.8099 6.98991 10.7442C6.98143 10.7282 6.89838 10.6615 6.98112 10.6719C6.99264 10.6737 7.02453 10.6905 7.0446 10.6943C7.10863 10.7063 6.99505 10.6486 7.10124 10.6758C7.20756 10.703 7.29593 10.7028 7.24577 10.6299C7.24112 10.6259 7.15558 10.5773 7.16276 10.5645C7.17466 10.5437 7.20735 10.521 7.21648 10.4981C7.21971 10.487 7.16008 10.4691 7.15983 10.4668C7.15914 10.38 7.23283 10.3499 7.28874 10.2813C7.29911 10.2687 7.23844 10.1928 7.31218 10.1914C7.39348 10.19 7.66398 10.3435 7.62663 10.2442C7.61178 10.2042 7.26757 10.0143 7.47526 10.043C7.47148 9.92424 7.60607 9.87357 7.58269 9.74611C7.58168 9.74039 7.48796 9.68277 7.49382 9.67287C7.50341 9.65887 7.55342 9.66987 7.5612 9.66017C7.59495 9.61964 7.57289 9.55974 7.59831 9.51759C7.60789 9.50151 7.65426 9.52799 7.66569 9.5088C7.67613 9.48946 7.61938 9.44882 7.66179 9.43458C7.6948 9.42418 7.83403 9.45952 7.86101 9.43849C7.7326 9.38221 7.74288 9.36374 7.72331 9.31544C7.71886 9.30629 7.67281 9.29453 7.66765 9.28908C7.64988 9.26669 7.69164 9.27069 7.67155 9.24806C7.666 9.24237 7.62321 9.22327 7.61687 9.21779C7.56096 9.1702 7.67278 9.17989 7.69304 9.18165C7.76753 9.18796 7.71554 9.15328 7.74773 9.14747C7.78063 9.14188 7.80286 9.18071 7.82683 9.16798C7.87619 9.14159 7.89134 9.08687 7.91081 9.04689C7.91829 9.03091 7.8554 9.01672 7.85417 9.01369C7.85374 8.97354 7.93093 8.96634 7.82194 8.89747C8.13416 9.00361 7.80229 8.86435 7.88249 8.84181C7.88901 8.84011 8.03434 8.89627 8.04948 8.91994C8.06421 8.94352 8.00979 8.94718 8.03386 8.98146C8.0416 8.99089 8.16217 9.07391 8.16862 9.08107C8.21937 9.13754 8.00329 9.05037 7.99089 9.04689C7.85705 9.01038 7.98665 9.10605 7.99284 9.11915C8.02106 9.17902 7.97674 9.20035 7.9948 9.24806C8.00641 9.27922 8.1452 9.3419 8.13347 9.35744C8.09367 9.40817 7.89183 9.34549 8.03679 9.47169C8.06792 9.49884 8.22584 9.55276 8.08757 9.54298C8.076 9.54197 7.9571 9.52709 8.01823 9.57423C8.02655 9.5804 8.07046 9.59996 8.07292 9.60451C8.08801 9.63432 8.04781 9.63244 8.05534 9.66115C8.06303 9.68996 8.07658 9.72675 8.05144 9.74513C8.036 9.75617 7.94399 9.73987 7.92058 9.73829C7.85404 9.73361 7.94013 9.79623 7.86394 9.77833C7.78726 9.76026 7.68974 9.68993 7.62956 9.70314C7.74484 9.75399 7.86258 9.80751 7.97819 9.85939C7.94314 9.92988 7.8754 9.98498 7.84929 10.0596C7.84618 10.0689 7.91254 10.087 7.91081 10.0977C7.90317 10.1426 7.84287 10.1592 7.84245 10.209C7.84251 10.2476 7.89292 10.3113 7.89519 10.3526C7.75406 10.3168 7.77747 10.3873 7.74968 10.419C7.73999 10.43 7.70471 10.4139 7.68913 10.418C7.6316 10.4343 7.75564 10.468 7.77019 10.4854C7.83144 10.5598 7.56449 10.4502 7.55046 10.501C7.55388 10.5065 7.6774 10.5956 7.68425 10.6035C7.72995 10.6553 7.63363 10.5871 7.61589 10.5996C7.58347 10.6225 7.54032 10.6294 7.56608 10.6836C7.57414 10.6997 7.65068 10.7624 7.5739 10.7539C7.56404 10.7528 7.51984 10.7325 7.51433 10.7324C7.45187 10.7524 7.59694 10.8164 7.63737 10.8604C7.6774 10.9043 7.56124 10.896 7.52898 10.8906C7.44576 10.8769 7.50275 10.8626 7.49577 10.8584C7.41287 10.8089 7.41675 10.8402 7.40105 10.8565C7.25626 10.7978 7.2532 10.829 7.38542 10.874C7.39979 10.8789 7.3931 10.8579 7.40105 10.8565C7.53499 10.9341 7.5404 10.9718 7.39421 10.9483C7.32587 10.9372 7.26027 10.8923 7.26628 10.9502C7.26905 10.9767 7.37134 11.0116 7.3903 11.042C7.43318 11.1112 7.3179 11.1273 7.31315 11.1777C7.31156 11.1959 7.37055 11.2038 7.37273 11.2168C7.37493 11.2522 7.32396 11.261 7.33171 11.2988C7.33253 11.3023 7.39213 11.3206 7.38933 11.3301C7.36629 11.4021 7.30409 11.4468 7.27214 11.5186C7.25674 11.5533 7.26072 11.6287 7.23894 11.6621C7.2015 11.7202 7.08652 11.7621 7.08366 11.8242C7.08162 11.8646 7.14121 11.8816 7.17351 11.9131C7.23606 11.9741 7.08007 11.9669 7.05632 11.9649C7.05551 11.9613 7.05301 11.9295 7.01921 11.9326C6.95583 11.9163 7.05204 11.9624 7.05632 11.9649C7.04092 11.9637 7.00271 12.0186 7.00847 12.0352C7.01262 12.0441 7.06382 12.0626 7.06706 12.0674C7.08085 12.1681 7.06053 12.2547 7.00065 12.3252C6.99898 12.3262 6.94089 12.299 6.9362 12.3008C6.88924 12.3364 6.95012 12.3985 6.97722 12.4561C7.00406 12.5134 6.97597 12.5379 6.86296 12.5166C6.86341 12.5515 6.79949 12.5736 6.7614 12.586C6.72381 12.5982 6.8374 12.6514 6.8405 12.6553C6.88612 12.7532 6.80341 12.7632 6.76335 12.8272C6.74422 12.8576 6.73257 12.9297 6.73015 12.9707C6.72847 13.0032 6.69436 13.0087 6.70085 13.042C6.70169 13.0465 6.75384 13.0651 6.75651 13.0674C6.80656 13.1229 6.68533 13.0547 6.65983 13.0508C6.56772 13.0368 6.51752 13.0314 6.54069 13.085C6.54724 13.098 6.71923 13.2007 6.72331 13.2207C6.72815 13.2465 6.66648 13.2113 6.67253 13.2383C6.67306 13.2407 6.71409 13.2583 6.70671 13.2705C6.673 13.3277 6.62118 13.3837 6.59831 13.4483C6.59596 13.457 6.66351 13.4734 6.66081 13.4863C6.65027 13.5238 6.63451 13.5619 6.61198 13.5957C6.29954 14.2088 5.52966 14.2033 5.36491 13.5352C5.36168 13.5094 5.36201 13.4828 5.36687 13.4561C5.37017 13.4391 5.42038 13.4334 5.43327 13.4258C5.51096 13.3798 5.38039 13.3905 5.37663 13.3867C5.28379 13.2978 5.36731 13.1809 5.27995 13.0879C5.27497 13.0829 5.13008 13.0785 5.23503 13.0225C5.24205 13.0187 5.35052 12.9617 5.26628 12.9688C5.25968 12.9701 5.20604 12.9998 5.20476 12.9766C5.20375 12.9526 5.15335 12.929 5.20866 12.8779C5.22677 12.8615 5.33285 12.8034 5.23308 12.8037C5.22611 12.8039 5.00577 12.8248 5.14323 12.7637C5.16733 12.7533 5.31625 12.7088 5.22917 12.6992C5.21215 12.6975 5.18235 12.7193 5.15593 12.709C5.11517 12.6929 5.14357 12.6458 5.06608 12.6348C5.05072 12.6331 4.94348 12.6403 5.01433 12.5967C5.02557 12.5899 5.07591 12.5801 5.07976 12.5684C5.09135 12.5113 5.04204 12.4705 5.0612 12.4102C5.06853 12.389 5.15169 12.3717 5.16765 12.3467C5.18364 12.3216 5.19327 12.2787 5.15007 12.2715C5.10679 12.2643 4.98397 12.326 4.96452 12.3008C4.8801 12.1912 4.91658 12.0442 4.88835 11.917C4.88376 11.8988 4.84309 11.928 4.83366 11.9014C4.79845 11.8028 4.70011 11.6442 4.77116 11.5264C4.82805 11.4326 4.91595 11.5004 4.93132 11.4375C4.93845 11.4074 4.78154 11.427 4.77214 11.4229C4.70474 11.3779 4.75814 11.3143 4.72038 11.2666C4.71248 11.2569 4.65506 11.2869 4.64909 11.2783C4.6283 11.2491 4.64443 11.2063 4.62956 11.1768C4.62244 11.1639 4.57633 11.1809 4.57585 11.167C4.57423 11.1338 4.58568 11.1004 4.6198 11.0567C4.62303 11.0527 4.68627 11.0527 4.68132 11.0293C4.67294 10.9915 4.70213 10.9315 4.64421 10.9033C4.6268 10.895 4.51956 10.9284 4.58464 10.8779C4.59894 10.8673 4.72832 10.8342 4.60808 10.8379C4.58801 10.8385 4.42177 10.8329 4.50944 10.7764C4.53257 10.7615 4.63208 10.7111 4.61101 10.7012C4.60775 10.7 4.55374 10.726 4.54362 10.7158C4.51088 10.6777 4.50178 10.6295 4.4694 10.5899C4.46064 10.5793 4.40732 10.6159 4.39616 10.5996C4.36542 10.5548 4.36082 10.488 4.36394 10.4336C4.3652 10.4135 4.41858 10.4102 4.42351 10.4072C4.50337 10.3588 4.38177 10.3837 4.37272 10.3789C4.31846 10.3487 4.36283 10.2978 4.33562 10.2627C4.32737 10.2538 4.27484 10.2789 4.26921 10.2783C4.21351 10.2712 4.31902 10.2561 4.32585 10.2383C4.34437 10.1882 4.32538 10.1448 4.30534 10.1065C4.29788 10.0924 4.23805 10.1291 4.2321 10.1162C4.19578 10.0405 4.17608 9.9559 4.18718 9.8672C4.18973 9.85056 4.2422 9.84358 4.25261 9.83693C4.32551 9.79065 4.20663 9.79479 4.19401 9.79103C4.13707 9.77397 4.17703 9.74737 4.15983 9.72169C4.07473 9.59622 4.04959 9.41588 4.02605 9.27931C3.99506 9.1014 4.00028 8.95361 3.9362 8.79494C3.93182 8.78513 3.86921 8.81604 3.86491 8.80763C3.81249 8.69793 3.80237 8.57672 3.74675 8.46779C3.74228 8.45879 3.68279 8.49229 3.67351 8.47853C3.6541 8.45051 3.64496 8.40986 3.65495 8.37208C3.65974 8.35373 3.72005 8.35681 3.72429 8.33888C3.73309 8.29652 3.72555 8.25638 3.70378 8.22267C3.6944 8.20844 3.63836 8.25171 3.63054 8.23244C3.57983 8.09519 3.52449 7.96126 3.56315 7.79396C3.56781 7.78198 3.69338 7.73327 3.66276 7.72072C3.62594 7.73073 3.58266 7.74419 3.54362 7.75587C3.45818 7.55978 3.44016 7.34424 3.38249 7.13869C3.37922 7.1307 3.31528 7.16695 3.31022 7.1504C3.28069 7.05407 3.23156 6.96682 3.26921 6.84669C3.27285 6.8348 3.39642 6.80119 3.36882 6.77833C3.3634 6.77372 3.33406 6.73628 3.30437 6.73341C3.29992 6.73317 3.2457 6.75884 3.23894 6.74611C3.2045 6.66783 3.19079 6.57831 3.19987 6.48634C3.20147 6.47147 3.26659 6.46585 3.26823 6.45509C3.2793 6.379 3.21076 6.3217 3.24577 6.24122C3.26976 6.1875 3.37935 6.16942 3.47526 6.11427C3.48853 6.1063 3.48334 6.07993 3.54265 6.05958C3.69254 6.0081 3.86189 5.96754 4.02116 5.91115C4.05509 5.899 4.00712 5.87607 4.09733 5.87013C4.10361 5.86993 4.13931 5.88657 4.1696 5.8838C4.19058 5.8819 4.24894 5.85477 4.27702 5.85548ZM6.0612 13.2969C6.06732 13.3113 6.10672 13.2939 6.12175 13.2881L6.05632 13.2842C6.05813 13.2892 6.05983 13.2936 6.0612 13.2969ZM6.05827 12.8076C6.04505 12.8397 5.95661 12.895 5.95183 12.9248C5.95034 12.9359 5.99004 12.9145 5.99675 12.9219C6.01201 12.9392 6.00142 12.9599 6.00261 12.9785C6.03732 12.9307 6.06937 12.8824 6.08073 12.8233C6.08174 12.8182 6.07061 12.8131 6.05827 12.8076ZM5.83171 12.9492C5.77401 12.9686 5.79667 12.9821 5.84831 12.959C5.85104 12.957 5.84908 12.9434 5.83171 12.9492ZM6.32683 12.5664C6.38811 12.6042 6.40893 12.5704 6.33757 12.5488C6.33451 12.5488 6.32508 12.5641 6.32683 12.5664ZM5.72136 12.084C5.60358 12.0969 5.61977 12.1871 5.73015 12.1309C5.73538 12.1268 5.72727 12.0836 5.72136 12.084ZM7.7194 9.91798C7.61663 9.90852 7.74198 9.9857 7.82097 9.99513C7.89901 10.0042 7.75074 9.92087 7.7194 9.91798ZM7.8405 9.25392C7.7964 9.24766 7.82866 9.29782 7.88347 9.30568C7.92757 9.31194 7.89531 9.26177 7.8405 9.25392ZM7.91667 8.63185C7.934 8.6318 8.05482 8.73293 8.05632 8.74025L8.03093 8.76076C7.95271 8.79625 7.75964 8.74446 7.81413 8.68263C7.82546 8.66982 7.87797 8.74796 7.90788 8.73829C7.96173 8.72037 7.82074 8.6326 7.91667 8.63185ZM3.53386 6.18849C3.46304 6.20014 3.4698 6.23942 3.53776 6.209C3.54018 6.20701 3.53675 6.18805 3.53386 6.18849Z" fill="#555961"/>
<path d="M10.9792 3.38567C10.9819 3.37123 10.9873 3.2591 11.0348 3.33098C11.0418 3.34315 11.0475 3.39393 11.0612 3.39739C11.1281 3.40992 11.1858 3.36471 11.2497 3.39446C11.2713 3.40536 11.27 3.49073 11.2917 3.51164C11.3138 3.53253 11.3526 3.55212 11.3708 3.51262C11.3897 3.47277 11.363 3.33756 11.3962 3.3261C11.403 3.32381 11.4098 3.32191 11.4167 3.32024C11.5324 3.28617 11.6467 3.36695 11.7614 3.39739C11.7795 3.40222 11.7726 3.35234 11.8005 3.35637C11.9013 3.36835 12.1037 3.38016 12.153 3.51457C12.1886 3.61957 12.0808 3.64238 12.1159 3.69426C12.1311 3.71822 12.2223 3.59118 12.2331 3.58684C12.3151 3.57076 12.3228 3.65454 12.3835 3.66692C12.3962 3.66899 12.4194 3.61034 12.4303 3.61223C12.4681 3.62298 12.4848 3.66886 12.5163 3.68547C12.5306 3.6924 12.5574 3.65196 12.5671 3.66399C12.5903 3.69232 12.6019 3.72877 12.5973 3.78508C12.5968 3.7901 12.5424 3.82419 12.5593 3.84172C12.5871 3.87049 12.5909 3.93472 12.655 3.93352C12.6748 3.93185 12.7554 3.85765 12.7194 3.93157C12.7112 3.94761 12.6078 4.03175 12.7155 3.97844C12.7326 3.96819 12.8916 3.91293 12.8307 3.99895C12.8147 4.02169 12.7403 4.10193 12.7614 4.10442C12.7649 4.10446 12.8083 4.06131 12.821 4.06828C12.8647 4.09394 12.8863 4.13728 12.9274 4.16692C12.9385 4.17478 12.9817 4.12536 12.9968 4.1386C13.0384 4.17567 13.0568 4.2416 13.0622 4.29485C13.0636 4.31442 13.0133 4.32616 13.0085 4.33C12.9368 4.38962 13.0507 4.34539 13.0612 4.34856C13.1188 4.369 13.0806 4.42417 13.1091 4.45305C13.1168 4.46122 13.1663 4.43267 13.1735 4.43157C13.2295 4.43314 13.1264 4.45808 13.1208 4.47551C13.1053 4.52473 13.1244 4.56148 13.1442 4.59563C13.1519 4.60773 13.2106 4.5712 13.2165 4.58293C13.2523 4.65166 13.2681 4.72986 13.2487 4.80754C13.2449 4.82233 13.1913 4.82641 13.1803 4.83196C13.1039 4.87001 13.221 4.86866 13.2331 4.87297C13.2876 4.89016 13.245 4.91145 13.2585 4.9345C13.3252 5.04668 13.3145 5.19881 13.3044 5.30852C13.2924 5.44499 13.2491 5.54695 13.2555 5.66692C13.2559 5.67498 13.2569 5.68314 13.2575 5.69133C13.2585 5.70107 13.3274 5.6924 13.3288 5.7011C13.3437 5.81449 13.3071 5.92224 13.3093 6.0341C13.3105 6.04306 13.3764 6.04119 13.3786 6.05657C13.3833 6.08854 13.3722 6.1269 13.3454 6.15227C13.332 6.16389 13.2813 6.13348 13.2692 6.14543C13.2413 6.17438 13.2285 6.20821 13.2301 6.24407C13.232 6.25899 13.3022 6.25471 13.2985 6.27336C13.2715 6.4023 13.239 6.53023 13.111 6.61028C13.1022 6.61583 12.9727 6.56891 12.9899 6.59465C13.0245 6.61085 13.066 6.62883 13.1032 6.64543C13.0537 6.81608 12.9329 6.94104 12.8493 7.07024C12.8457 7.07578 12.9135 7.10224 12.9069 7.11321C12.869 7.17616 12.8507 7.24601 12.7536 7.26653C12.7431 7.26777 12.638 7.19962 12.6432 7.22551C12.6444 7.23045 12.6438 7.26437 12.6637 7.28508C12.6673 7.2883 12.7189 7.31399 12.7175 7.32317C12.6978 7.37319 12.6596 7.41112 12.6071 7.43059C12.5986 7.4336 12.5473 7.39725 12.5397 7.39836C12.4923 7.41429 12.5202 7.46502 12.4596 7.46086C12.4182 7.45883 12.3182 7.41088 12.2135 7.38078C12.1988 7.37702 12.1917 7.3883 12.1325 7.36809C12.0873 7.3529 12.0415 7.33487 11.9948 7.31731C11.9575 7.31073 11.9223 7.30713 11.9186 7.30559L11.9284 7.29289C11.8408 7.25945 11.7513 7.22497 11.6618 7.19524C11.6275 7.18407 11.6514 7.23378 11.5759 7.18352C11.5707 7.18006 11.5531 7.14163 11.528 7.12395C11.51 7.11172 11.4479 7.09792 11.4274 7.07805C11.4073 7.05742 11.46 7.0672 11.4391 7.03996C11.4169 7.01201 11.3469 6.98838 11.3532 6.95305C11.3587 6.92451 11.3695 6.89799 11.3835 6.87395C11.3784 6.8537 11.3715 6.83443 11.3561 6.82121C11.352 6.81782 11.3052 6.86653 11.2995 6.86418C11.2766 6.85383 11.2969 6.80612 11.2653 6.80071C11.2404 6.79669 11.1739 6.83198 11.1462 6.83C11.2388 6.71859 11.1808 6.72939 11.1725 6.70305C11.1697 6.69372 11.1966 6.66655 11.2009 6.65325C11.216 6.60375 11.1354 6.70273 11.1169 6.71282C11.0379 6.75573 11.2352 6.5454 11.2057 6.52727C11.1996 6.53006 11.0825 6.62308 11.0739 6.62785C11.0172 6.65983 11.109 6.58678 11.1081 6.57024C11.1063 6.54003 11.1199 6.50329 11.07 6.5175C11.0552 6.52187 10.9752 6.57787 11.0153 6.5136C11.021 6.50477 11.0564 6.46898 11.0573 6.46575C11.0698 6.41089 10.9599 6.52434 10.9098 6.55168C10.8598 6.57857 10.9168 6.48051 10.9352 6.45403C10.9817 6.38661 10.9678 6.43521 10.9733 6.43157C11.0463 6.36924 11.0222 6.36739 11.0173 6.35149C11.1254 6.23826 11.1041 6.23057 11.0114 6.33489C11.0013 6.34633 11.0202 6.34432 11.0173 6.35149C10.9005 6.45227 10.869 6.44848 10.9528 6.32903C10.9922 6.2733 11.0554 6.22681 11.0104 6.2216C10.9899 6.2191 10.9169 6.29873 10.8854 6.30852C10.8134 6.33026 10.8553 6.22848 10.82 6.21282C10.807 6.207 10.7721 6.25516 10.7614 6.25285C10.7333 6.24542 10.752 6.20048 10.7194 6.19621C10.7163 6.19587 10.6724 6.23979 10.6667 6.2343C10.6226 6.19312 10.6197 6.1271 10.5827 6.07512C10.5646 6.0501 10.5045 6.02237 10.4919 5.99016C10.4692 5.934 10.5109 5.82908 10.4694 5.7968C10.4423 5.77518 10.3905 5.80935 10.3464 5.81535C10.2603 5.82554 10.3705 5.71586 10.3893 5.70207C10.3899 5.70171 10.4154 5.72081 10.4382 5.69426C10.4938 5.65999 10.3898 5.70234 10.3893 5.70207C10.4006 5.69226 10.3923 5.63656 10.3776 5.62981C10.3694 5.62653 10.3155 5.65156 10.3122 5.64934C10.2349 5.59631 10.1946 5.51888 10.2018 5.4345C10.204 5.4326 10.2662 5.41963 10.2682 5.41594C10.2857 5.36538 10.2021 5.35568 10.1481 5.3261C10.0943 5.29678 10.1049 5.25957 10.2135 5.22356C10.1958 5.19832 10.24 5.1534 10.2682 5.12883C10.2964 5.10445 10.1694 5.11028 10.1667 5.10832C10.0856 5.05339 10.1476 5.01302 10.1628 4.95305C10.1634 4.95072 10.1643 4.94765 10.1647 4.94524C10.1701 4.91517 10.1539 4.85447 10.1423 4.82024C10.1327 4.79277 10.163 4.77906 10.1462 4.75285C10.1408 4.7495 10.0876 4.74721 10.0856 4.74602C10.021 4.71111 10.1564 4.73818 10.1823 4.73528C10.2739 4.72434 10.3228 4.7198 10.2858 4.68157C10.2771 4.67328 10.0827 4.6198 10.0739 4.60149C10.0632 4.57888 10.1322 4.59808 10.1188 4.57414C10.117 4.57201 10.0734 4.56458 10.0778 4.55168C10.0978 4.49114 10.1394 4.42959 10.155 4.36321C10.1554 4.35424 10.0869 4.34563 10.0885 4.33196C10.1 4.2664 10.1297 4.19463 10.1882 4.14543C10.2027 4.13355 10.2426 4.16291 10.2575 4.16594C10.346 4.18436 10.2441 4.10133 10.2448 4.09465C10.2517 3.94951 10.4054 3.92605 10.4596 3.78606C10.4602 3.77763 10.4115 3.63506 10.5134 3.7011C10.523 3.70653 10.6186 3.77594 10.5837 3.69914C10.5788 3.69248 10.5295 3.65818 10.5563 3.64348C10.5838 3.62894 10.6016 3.5636 10.6755 3.5966C10.6996 3.60645 10.7858 3.69316 10.7702 3.5927C10.7659 3.58697 10.7239 3.36293 10.8112 3.48723C10.8254 3.50783 10.8882 3.65213 10.8942 3.56145C10.8958 3.54368 10.8679 3.51752 10.8805 3.48821C10.9012 3.44262 10.9587 3.4656 10.9792 3.38567ZM12.2009 7.3261C12.2629 7.36085 12.2767 7.34524 12.2087 7.31731C12.2059 7.31621 12.1983 7.32465 12.2009 7.3261ZM11.5173 6.73821C11.5786 6.66 11.4618 6.74573 11.4128 6.80559C11.3631 6.86471 11.498 6.76185 11.5173 6.73821ZM11.6432 6.75676C11.6488 6.75962 11.652 6.76352 11.654 6.76262C11.6584 6.76055 11.661 6.75622 11.6647 6.75383C11.6838 6.73773 11.7005 6.72362 11.7087 6.70891C11.6872 6.72507 11.6649 6.74049 11.6432 6.75676ZM11.2262 4.03996C11.1919 3.98744 11.2717 4.2856 11.2575 4.28996C11.2561 4.2868 11.243 4.23425 11.2399 4.22942C11.2298 4.21399 11.2313 4.23734 11.2204 4.22063C11.1957 4.18126 11.1357 4.04315 11.1481 4.13274C11.1514 4.14624 11.2197 4.30173 11.2057 4.30266C11.1989 4.3018 11.1776 4.31524 11.1657 4.3095C11.1537 4.30296 11.1292 4.25584 11.1266 4.25188C11.0662 4.20194 11.0565 4.17111 10.9801 4.08977C10.9009 4.0111 11.0599 4.21924 11.0739 4.24602C11.0878 4.27203 11.0346 4.23504 11.0163 4.22258C10.9985 4.20946 10.98 4.1787 10.9684 4.17278C10.8903 4.13698 11.0461 4.27901 11.068 4.31535C11.1241 4.39718 10.9749 4.27164 10.944 4.27825C10.9386 4.28054 10.9732 4.30413 10.9733 4.31047C10.9738 4.33475 10.9176 4.30899 10.9499 4.3593C10.9546 4.36841 11.0449 4.44455 10.9665 4.40813C10.9548 4.40288 10.9158 4.374 10.902 4.3759C10.8814 4.3787 10.86 4.39566 10.8678 4.41594C10.8738 4.43073 10.9499 4.45557 10.9235 4.45598C10.9111 4.45626 10.8734 4.42607 10.8532 4.42864C10.8329 4.43148 10.8226 4.46054 10.82 4.4716C10.8185 4.48272 10.8762 4.4995 10.8796 4.50188C10.8992 4.51556 10.9201 4.54336 10.9196 4.54485C10.8987 4.62391 10.7796 4.68899 10.8024 4.78801C10.8044 4.7955 10.8689 4.79754 10.8698 4.79875C10.8933 4.82496 10.7261 4.78847 10.6676 4.80168C10.7973 4.81106 10.7729 4.81997 10.7858 4.83879C10.7925 4.8474 10.8403 4.84656 10.8473 4.84758C10.9222 4.86471 10.8256 4.86669 10.8044 4.86809C10.7297 4.87255 10.8161 4.88599 10.7663 4.88957C10.7168 4.89353 10.6449 4.87684 10.6452 4.89543C10.6916 4.90183 10.8133 4.89294 10.8327 4.90618C10.8526 4.91954 10.8598 4.93639 10.86 4.95305C10.8602 4.999 10.8117 5.05251 10.8073 5.08293C10.8011 5.12262 10.811 5.1335 10.7975 5.15813C10.7743 5.2035 10.8603 5.17496 10.905 5.19035C10.9498 5.2049 10.7303 5.23705 10.6843 5.24993C10.6385 5.26321 10.687 5.25747 10.6628 5.2675C10.6382 5.27781 10.6045 5.2743 10.5973 5.28801C10.5903 5.30259 10.6798 5.31552 10.7292 5.30657C10.8336 5.28834 10.938 5.24861 10.9069 5.28313C10.9051 5.28521 10.8476 5.29637 10.8434 5.30364C10.8131 5.36151 10.8265 5.41071 10.8093 5.47258C10.8068 5.48121 10.7439 5.50033 10.7419 5.50578C10.7214 5.56331 10.8168 5.50633 10.9362 5.47551C10.7871 5.53822 10.7021 5.59171 10.7175 5.62493C10.7265 5.64443 10.7876 5.60935 10.8376 5.59758C10.8526 5.59389 10.8168 5.62864 10.8473 5.61516C10.9464 5.57039 11.0466 5.5018 11.0192 5.55071C11.0179 5.55301 10.9649 5.57883 10.9635 5.58489C10.9588 5.62353 11.0574 5.56881 11.0856 5.58684C11.1072 5.60095 11.0751 5.67567 11.0837 5.70696C10.9366 5.8138 10.9893 5.81483 11.0954 5.747C11.1032 5.76558 11.1221 5.77795 11.1208 5.80364C11.1199 5.81268 11.0768 5.84237 11.0729 5.8466C11.0128 5.91376 11.1125 5.84266 11.1188 5.8427C11.184 5.84763 11.1418 5.93871 11.2389 5.91008C11.2452 5.90646 11.3342 5.82531 11.277 5.89543C11.273 5.90043 11.2206 5.92968 11.2321 5.94817C11.2431 5.96672 11.2242 6.04346 11.2868 6.02336C11.3023 6.01835 11.3861 5.95807 11.3405 6.02532C11.3342 6.03452 11.3076 6.05877 11.2956 6.07512C11.2574 6.12749 11.35 6.04032 11.2829 6.12493C11.215 6.2103 11.1753 6.28532 11.2497 6.25285C11.2545 6.24956 11.3262 6.18546 11.3327 6.19231C11.3421 6.20487 11.3439 6.23523 11.3561 6.24602C11.362 6.25112 11.4022 6.20198 11.404 6.20207C11.4655 6.21253 11.4548 6.27873 11.4782 6.33489C11.4824 6.34523 11.5635 6.30491 11.5309 6.36711C11.4946 6.43538 11.2632 6.64116 11.3483 6.622C11.3819 6.61353 11.6783 6.35759 11.5593 6.52434C11.6439 6.5408 11.6091 6.65672 11.7067 6.66399C11.7143 6.66193 11.8012 6.60536 11.8063 6.61125C11.8069 6.6124 11.8037 6.6135 11.8034 6.61516C11.9198 6.50964 12.0065 6.40359 12.0856 6.29192C12.1164 6.24873 12.1948 6.21141 12.1901 6.15227C12.1874 6.14528 12.1372 6.13071 12.1325 6.12785C12.0732 6.08713 12.176 6.13029 12.194 6.12395C12.2651 6.09899 12.2865 6.04699 12.277 5.99797C12.2718 5.97726 12.1623 5.96878 12.2262 5.96575C12.2311 5.96564 12.2863 5.984 12.2936 5.98039C12.3101 5.97209 12.305 5.94767 12.3112 5.93938C12.3239 5.92385 12.324 5.92065 12.3278 5.90422C12.3334 5.88178 12.367 5.85876 12.3571 5.83196C12.3548 5.82638 12.2941 5.82555 12.2848 5.81633C12.2758 5.80722 12.283 5.78728 12.2975 5.78118C12.3123 5.77529 12.3599 5.78249 12.3708 5.78215C12.4623 5.77854 12.3377 5.74183 12.3346 5.73918C12.3136 5.7125 12.3143 5.69009 12.3219 5.66692C12.3322 5.63066 12.3553 5.59567 12.3542 5.5595C12.3524 5.50997 12.3262 5.46055 12.3259 5.41496C12.3258 5.36166 12.3531 5.31211 12.3405 5.26067C12.3387 5.2555 12.2699 5.27092 12.2682 5.26457C12.2508 5.19801 12.2465 5.13133 12.277 5.05559C12.2801 5.04784 12.3412 5.04184 12.3493 5.03313C12.3896 4.9811 12.4848 4.87038 12.2204 4.93352C12.2218 4.90418 12.2213 4.87166 12.2624 4.82805C12.2888 4.80002 12.3574 4.7889 12.3229 4.78118C12.3149 4.77973 12.2628 4.80761 12.2555 4.80364C12.2254 4.78725 12.2297 4.75255 12.1911 4.74309C12.183 4.74128 12.1358 4.76728 12.1266 4.77043C12.0537 4.79608 12.1573 4.71898 12.1628 4.70989C12.2054 4.64568 12.1677 4.63663 12.151 4.61028C12.1473 4.60418 12.0955 4.64986 12.0885 4.64739C12.0605 4.62565 12.0448 4.59708 12.0456 4.55168C12.0458 4.54131 12.0942 4.50423 12.0964 4.497C12.1041 4.46547 12.0212 4.54288 12.028 4.51555C12.0293 4.50972 12.0664 4.47319 12.07 4.46868C12.1238 4.39795 12.0335 4.48122 12.028 4.4843C11.9815 4.49382 12.0506 4.37899 12.0124 4.37395C12.0081 4.3737 11.9765 4.42959 11.9665 4.42766C11.9033 4.40439 11.8568 4.35852 11.8093 4.2841C11.802 4.27248 11.8262 4.22946 11.8278 4.22356C11.8491 4.12995 11.7972 4.24739 11.7926 4.2509C11.7562 4.27357 11.7571 4.16403 11.6999 4.30559C11.6185 4.24157 11.5161 4.27459 11.4167 4.22746C11.3924 4.2151 11.3689 4.19737 11.3415 4.1718C11.3397 4.16701 11.3361 4.10874 11.3327 4.10539C11.289 4.07496 11.3066 4.17214 11.3093 4.29289C11.3108 4.32107 11.2661 4.18743 11.2604 4.17571C11.2458 4.13969 11.2303 4.04898 11.2262 4.03996ZM10.6686 4.99211C10.5974 4.98657 10.5922 5.01377 10.6657 5.00578C10.6686 5.00537 10.6715 4.99238 10.6686 4.99211ZM10.86 4.20793C10.8628 4.20986 10.8714 4.20456 10.8571 4.19231C10.8108 4.15282 10.8141 4.1753 10.86 4.20793ZM11.3932 4.11418C11.4054 3.99724 11.3445 3.98722 11.3649 4.10832C11.3662 4.11443 11.392 4.1197 11.3932 4.11418Z" fill="#555961"/>
<path d="M8.37207 1.49121C8.47848 1.41556 8.64379 1.57685 8.66407 1.60254C8.65725 1.60349 8.56322 1.60929 8.61231 1.64453C8.63678 1.7117 8.66166 1.60784 8.66407 1.60254C8.67828 1.61791 8.88064 1.65619 8.92286 1.65137C8.94577 1.64819 8.94221 1.58842 8.95411 1.58789C9.23697 1.57696 9.51954 1.62248 9.78516 1.72656C9.78855 1.7309 9.76473 1.78893 9.77442 1.79492C9.92211 1.86785 10.0447 1.82375 10.1895 1.82422C10.3338 1.82494 10.4312 1.88138 10.4619 2.01562C10.4669 2.01691 10.4725 2.01786 10.4775 2.01953C10.5733 2.05091 10.6778 2.14841 10.7363 2.20801C10.7973 2.26999 10.863 2.16447 10.8721 2.16309C11.1158 2.19438 11.2015 2.3246 11.3994 2.45801C11.4939 2.52148 11.6923 2.63068 11.8008 2.69238C11.887 2.74052 11.9171 2.79897 12 2.83887C12.0111 2.84369 12.0353 2.79376 12.04 2.79297C12.1619 2.8022 12.0387 2.88069 12.0391 2.91309C12.0416 3.03054 12.0454 3.09484 12.1689 3.14453C12.1971 3.15547 12.3932 3.06294 12.4424 3.0918C12.5052 3.12896 12.4372 3.16327 12.5029 3.20117C12.5085 3.2045 12.5382 3.17127 12.5703 3.2041C12.6066 3.24149 12.6431 3.28081 12.6787 3.32129C12.7901 3.44766 12.898 3.58548 13.0098 3.71094C13.0298 3.7332 13.058 3.65825 13.0879 3.69043C13.2287 3.84334 13.3662 4.02739 13.4541 4.21191C13.4755 4.25743 13.417 4.26025 13.4111 4.27734C13.3758 4.38014 13.5323 4.38629 13.543 4.39844C13.795 4.67672 13.8297 4.97964 14.0332 5.29492C14.0419 5.308 14.1583 5.36602 14.1709 5.44434C14.1744 5.46655 14.1697 5.49043 14.1514 5.51465C14.1459 5.52268 14.0596 5.62985 14.1572 5.65723C14.1634 5.65904 14.2067 5.59634 14.2275 5.66894C14.2482 5.74163 14.3279 5.84476 14.2949 5.96484C14.2843 6.00362 14.1941 6.11108 14.3125 6.17676C14.3266 6.18167 14.5685 6.27073 14.4385 6.36035C14.4165 6.37513 14.2617 6.40535 14.3672 6.49805C14.3875 6.51602 14.4135 6.46826 14.4482 6.52051C14.5015 6.60122 14.4845 6.7263 14.5732 6.82324C14.5897 6.84002 14.7089 6.90557 14.6387 6.98437C14.6272 6.99628 14.5729 6.98525 14.5723 7.02051C14.5688 7.18841 14.6221 7.35751 14.5977 7.52832C14.5889 7.58841 14.5028 7.56429 14.4834 7.62598C14.4644 7.68833 14.4464 7.81118 14.4863 7.87402C14.5264 7.93718 14.6618 7.86444 14.6738 7.96191C14.6753 7.9745 14.6766 7.9874 14.6777 8C14.7164 8.41629 14.6023 8.82299 14.5156 9.22266C14.5021 9.28404 14.5604 9.24239 14.543 9.33398C14.4847 9.67098 14.3492 10.26 14.1357 10.4941C14.1236 10.5079 14.1125 10.5195 14.1025 10.5283C13.9763 10.6379 14.0172 10.3956 13.9248 10.5342C13.8772 10.605 13.9814 10.7539 13.9775 10.7764C13.936 10.9845 13.8067 11.0804 13.7354 11.251C13.7211 11.286 13.7948 11.2856 13.7813 11.3154C13.7351 11.4183 13.6499 11.5043 13.5967 11.5967C13.5729 11.6382 13.6182 11.6574 13.5908 11.6924C13.5251 11.7764 13.4539 11.8425 13.3564 11.8984C13.3477 11.9008 13.3346 11.8179 13.2881 11.8779C13.2114 11.9768 13.0823 12.0698 13.0264 12.209C13.0099 12.2503 13.0934 12.3246 12.9746 12.3438C12.9495 12.3477 12.8651 12.2409 12.8809 12.3975C12.8845 12.4236 12.875 12.6641 12.7393 12.6572C12.7214 12.6563 12.682 12.6477 12.6445 12.6445C12.6077 12.6415 12.5726 12.6443 12.5606 12.668C12.5586 12.675 12.619 12.6988 12.5928 12.7324C12.4985 12.8512 12.3767 12.9523 12.2705 13.0664C12.2426 13.0969 12.3302 13.1052 12.2861 13.1494C12.1645 13.2717 11.9833 13.3901 11.835 13.4697C11.7804 13.4989 11.7852 13.4317 11.7783 13.4297C11.6686 13.3957 11.7027 13.5206 11.6865 13.54C11.5861 13.658 11.4584 13.6691 11.3486 13.751C11.3189 13.7735 11.3711 13.8111 11.3672 13.8193C11.3246 13.9021 11.3226 13.7825 11.2744 13.7959C11.138 13.8353 11.0043 13.9103 10.8818 13.9775C10.8371 14.0022 10.9182 14.039 10.8779 14.0605C10.779 14.1128 10.6751 14.1606 10.5693 14.2021C10.4153 14.2626 10.2559 14.3103 10.0986 14.3389C10.0489 14.3477 10.0621 14.2879 10.0488 14.2793C9.95629 14.2222 9.89048 14.3591 9.86914 14.3779C9.77681 14.4565 9.72194 14.4236 9.62989 14.4561C9.17801 14.6183 8.58022 14.6642 8.13184 14.6504C8.08713 14.6494 8.04323 14.6476 8 14.6455C7.47641 14.6172 7.0601 14.528 6.55957 14.4307C6.52507 14.4237 6.54385 14.5004 6.51368 14.4951C6.14449 14.4268 5.79835 14.2918 5.44727 14.1621C5.42742 14.1548 5.40761 14.147 5.3877 14.1396C5.35722 14.1284 5.37449 14.2079 5.32422 14.1914C5.2207 14.1578 5.09728 14.096 5.00879 14.0283C4.9657 13.9955 5.05425 13.9763 5.01075 13.9443C4.91001 13.87 4.79642 13.8041 4.68164 13.75C4.63256 13.7269 4.66895 13.8259 4.60743 13.791C4.18899 13.5537 3.79256 13.2752 3.4961 12.8828C3.4757 12.8557 3.54832 12.7355 3.48047 12.707C3.45038 12.7309 3.4195 12.7633 3.38965 12.791C3.35801 12.7624 3.32662 12.7336 3.2959 12.7041C2.82414 12.2505 2.46761 11.6985 2.167 11.1221C2.15337 11.0966 2.11354 11.1749 2.08692 11.125C1.98957 10.9393 1.89366 10.7555 1.8252 10.5576C1.78556 10.443 1.75513 10.3236 1.73926 10.1982C1.73502 10.1643 1.86153 10.138 1.8125 10.0527C1.8029 10.0366 1.74294 9.90475 1.70606 9.87598C1.70058 9.87218 1.65109 9.91488 1.63575 9.87012C1.54858 9.60653 1.49731 9.31668 1.49024 9.03906C1.48966 8.99507 1.55908 9.03096 1.55957 9C1.55877 8.77688 1.48598 8.54056 1.53321 8.32617C1.56574 8.18373 1.67909 8.23165 1.78516 8.15625C1.79989 8.14536 1.80075 8.06171 1.86328 8.05664C2.02169 8.04473 2.19645 8.08105 2.36524 8.06348C2.40077 8.0592 2.36243 7.95921 2.4502 8.01855C2.4564 8.02405 2.48561 8.09551 2.51563 8.1123C2.5365 8.1241 2.59999 8.10097 2.62696 8.125C2.65387 8.14881 2.60146 8.17718 2.63379 8.2168C2.66698 8.25615 2.73884 8.23541 2.75196 8.31445C2.7817 8.49791 2.7888 8.73991 2.79395 8.92773C2.79534 8.98603 2.75126 8.96466 2.75098 9.00586C2.75085 9.08675 2.78599 9.15491 2.78614 9.23535C2.78606 9.2622 2.71636 9.24536 2.71778 9.27344C2.7265 9.42774 2.78185 9.56247 2.81739 9.71289C2.8484 9.84381 2.88592 9.97306 2.92871 10.1006C3.12909 10.6971 3.45176 11.2505 3.86914 11.7461C3.92448 11.8118 3.98129 11.8848 4.042 11.958C4.16435 12.106 4.30318 12.2564 4.45411 12.3574C4.48035 12.3747 4.50031 12.3202 4.50782 12.3203C4.62366 12.3238 4.53018 12.3919 4.56934 12.4414C4.7259 12.637 4.95397 12.7955 5.16895 12.8945C5.26064 12.9363 5.22811 12.7918 5.28516 12.8945C5.28747 12.9024 5.2388 12.9404 5.25879 12.959C5.30666 13.0019 5.41758 13.0476 5.45899 13.0732C5.53859 13.1231 5.55302 13.1294 5.63282 13.167C5.6916 13.1948 5.75436 13.2323 5.81934 13.2656C5.87531 13.2943 5.93354 13.3204 5.99219 13.3359C6.01901 13.3425 6.00619 13.2736 6.05079 13.2793C6.09538 13.2853 6.20224 13.3281 6.23536 13.3535C6.2682 13.3792 6.23793 13.4192 6.24121 13.4316C6.26879 13.5363 6.43596 13.4557 6.45411 13.4561C6.77221 13.49 7.02284 13.6119 7.32129 13.6484C7.43335 13.6619 7.54994 13.6667 7.66504 13.668H8.00489C8.26058 13.6713 8.48148 13.6894 8.7295 13.6523C8.75558 13.6484 8.71654 13.5821 8.74805 13.5771C9.08258 13.5239 9.41034 13.4575 9.74805 13.3984C9.78123 13.3933 9.75903 13.4651 9.79395 13.4629C9.92113 13.4531 10.1002 13.4465 10.2275 13.377C10.3161 13.3288 10.3778 13.251 10.377 13.1289C10.5093 13.0796 10.6661 13.0113 10.8037 12.9961C10.8926 12.986 10.8568 13.0847 10.9307 13.0088C10.9473 12.9916 10.8921 12.9554 10.9189 12.9336C11.0315 12.842 11.1739 12.7727 11.2725 12.666C11.2922 12.6442 11.2548 12.6052 11.2559 12.5928C11.266 12.4915 11.4321 12.527 11.458 12.5186C11.6506 12.4577 11.7412 12.3454 11.8731 12.2275C11.9036 12.2 11.8203 12.1805 11.8477 12.1523C11.8975 12.1013 11.9484 12.0504 12 12C12.0955 11.9067 12.1934 11.8149 12.2939 11.7305C12.3282 11.7022 12.3474 11.7718 12.3662 11.7607C12.4494 11.7067 12.3755 11.6177 12.4502 11.5635C12.4659 11.5519 12.4997 11.5911 12.5068 11.5928C12.6115 11.6054 12.5409 11.489 12.5469 11.4766C12.6225 11.3139 12.7956 11.2971 12.875 11.1406C12.8841 11.122 12.8042 11.1251 12.833 11.0752C12.9953 10.7919 13.1619 10.4956 13.3213 10.2041C13.3492 10.1531 13.3768 10.1023 13.4043 10.0518C13.4328 9.99893 13.4646 10.0559 13.4717 10.0547C13.5827 10.0297 13.4767 9.94731 13.4785 9.92773C13.4967 9.773 13.6401 9.66445 13.5215 9.52344C13.7001 9.03451 13.7234 8.51322 13.7734 8C13.7858 7.87283 13.8 7.74495 13.8184 7.61523C13.8196 7.60694 13.883 7.61735 13.8848 7.60059C13.9047 7.39835 13.8102 7.44316 13.6777 7.3291C13.6445 7.30111 13.7743 7.1838 13.7832 7.17285C13.8169 7.13561 13.9125 7.15482 13.9199 7.14355C13.9648 7.04323 13.662 7.10463 13.6416 6.98828C13.6437 6.98493 13.7 6.99003 13.7041 6.97949C13.716 6.9454 13.6878 6.91865 13.7012 6.88477C13.732 6.80759 13.8737 6.74995 13.7647 6.66211C13.7503 6.65134 13.5847 6.71038 13.5674 6.60547C13.5611 6.56315 13.5084 6.38407 13.5029 6.33008C13.4984 6.27721 13.5613 6.29357 13.5645 6.29004C13.5926 6.13029 13.6382 6.17242 13.7197 6.06738C13.7998 5.96067 13.5579 6.06585 13.5205 6.04785C13.4835 6.02971 13.5045 5.90941 13.5147 5.87695C13.5252 5.84469 13.5704 5.86229 13.5732 5.83594C13.589 5.66135 13.428 5.82008 13.3701 5.79004C13.3651 5.78738 13.3598 5.78413 13.3555 5.78125C13.2445 5.70784 13.3743 5.55419 13.3447 5.44922C13.3365 5.42007 13.3062 5.46143 13.291 5.43945C13.2313 5.35296 13.2572 5.26765 13.1514 5.18945C13.1338 5.17609 12.9861 5.15158 13.0293 5.05566C13.0359 5.04197 13.0894 5.03889 13.0762 4.99512C13.0565 4.92942 13.0023 4.8209 12.9492 4.76953C12.9101 4.73181 12.8761 4.82566 12.8604 4.75684C12.8539 4.72672 12.9222 4.74596 12.9053 4.69043C12.8886 4.6346 12.8053 4.51888 12.7715 4.47656C12.7379 4.43409 12.7061 4.49426 12.7002 4.49316C12.6655 4.48541 12.5808 4.4229 12.5752 4.41602C12.4235 4.22879 12.2897 4.03852 12.1406 3.85937C12.0097 3.70223 11.8666 3.55366 11.6943 3.43457C11.6657 3.41548 11.6435 3.47909 11.6387 3.47656C11.5302 3.42375 11.7084 3.34912 11.6768 3.25195C11.6069 3.36167 11.5823 3.31246 11.5059 3.27344C11.469 3.25495 11.4572 3.3085 11.4512 3.31055C11.3581 3.33695 11.3822 3.2329 11.3848 3.20996C11.3947 3.12617 11.3089 3.17339 11.3145 3.11719C11.3193 3.06101 11.4131 3.03574 11.3438 2.99023C11.299 3.01618 11.2813 3.15051 11.2197 3.13379C10.9904 3.06651 10.6635 2.77753 10.4951 2.69141C10.3751 2.62735 10.3104 2.60335 10.2481 2.57227C10.2252 2.56096 10.2021 2.54911 10.1768 2.53418C10.0049 2.43487 10.0396 2.54472 9.91309 2.54297C9.78662 2.5428 9.91246 2.35169 9.91114 2.30078C9.90947 2.25011 9.87605 2.29032 9.86329 2.25879C9.8504 2.22714 9.90549 2.2108 9.85938 2.18555C9.81241 2.15972 9.65218 2.20063 9.6211 2.24414C9.55597 2.33583 9.58524 2.45912 9.46875 2.38769C9.46198 2.38353 9.50043 2.33242 9.47364 2.31934C9.25977 2.21746 9.0212 2.16806 8.79395 2.09766C8.76256 2.08787 8.79959 2.02692 8.78125 2.02051C8.58896 1.95513 8.64606 2.07308 8.5293 2.18359C8.56817 2.02503 8.5173 1.91872 8.36426 1.9082C8.27279 1.90249 8.28473 1.97416 8.22461 2.02148C8.20673 2.03566 8.1442 1.98552 8.13184 2.01855C8.09194 2.12657 8.14854 2.24828 8 2.19922V2.14062C7.99832 2.13689 7.99543 2.13444 7.99121 2.13379C7.84245 2.11146 7.82677 2.22536 7.6709 2.24707C7.54897 2.2638 7.32364 2.21575 7.18067 2.22559C7.15883 2.04465 7.02689 2.10686 6.99512 2.24023C6.90299 2.25105 6.806 2.27751 6.71485 2.28027C6.68373 2.28123 6.69136 2.22605 6.68653 2.2207C6.60733 2.14717 6.59512 2.27577 6.57715 2.28516C6.37924 2.38249 6.18108 2.34699 6.01563 2.50195C6.00966 2.50762 6.04228 2.62986 5.95899 2.5625C5.95429 2.55649 5.99619 2.4808 5.9043 2.51074C5.86414 2.524 5.8043 2.53282 5.74121 2.54785C5.65877 2.56741 5.57046 2.59852 5.51465 2.66113C5.49024 2.68794 5.46074 2.81508 5.36621 2.77344C5.35345 2.76773 5.34565 2.73105 5.3252 2.71875C5.25851 2.68056 5.29714 2.80348 5.20313 2.73047C5.10935 2.65769 4.97462 2.63766 4.89063 2.77441C4.88776 2.77866 4.91096 2.88291 4.87305 2.9043C4.8122 2.9383 4.71756 2.97425 4.65723 3.01562C4.62907 3.03498 4.67927 3.07318 4.67774 3.0791C4.5056 3.23906 4.34063 3.2929 4.13184 3.43652C4.09298 3.4631 4.05087 3.61316 3.94043 3.62402C3.81837 3.63747 3.67947 3.34095 3.56153 3.55957L3.56055 3.56055C3.51398 3.6534 3.71646 4.00013 3.45899 3.98633C3.28645 4.25785 3.02374 4.43472 2.90918 4.74609C2.90546 4.76164 2.97249 4.85673 2.95411 4.88379C2.92615 4.92446 2.86779 4.9212 2.84668 4.9502C2.75727 5.07133 2.73108 5.21304 2.66114 5.33789C2.63482 5.38528 2.59552 5.345 2.56446 5.40234C2.53356 5.46059 2.57791 5.52869 2.51172 5.5957C2.48256 5.62521 2.4178 5.64011 2.3584 5.66309C2.31575 5.67958 2.27534 5.70043 2.25489 5.7334C2.38409 5.78823 2.35865 5.84438 2.35645 5.95898C2.35651 5.9806 2.40933 5.97636 2.41211 5.9873C2.42236 6.03286 2.37236 6.05437 2.38575 6.09863C2.38901 6.1093 2.43342 6.12517 2.43946 6.13477C2.48627 6.21608 2.35325 6.28243 2.33008 6.29492C2.24222 6.34077 2.29284 6.38913 2.25196 6.43262C2.21103 6.47664 2.19767 6.39051 2.16504 6.44629C2.09718 6.56314 2.0668 6.73042 2.04004 6.86035C2.03033 6.91101 2.09805 6.88862 2.09961 6.89551C2.09558 7.0043 2.01198 7.10377 2.12989 7.18066C1.79384 7.21091 2.15107 7.2497 2.06934 7.39355C2.06085 7.40464 1.90661 7.40513 1.88868 7.35547C1.87099 7.30507 1.92763 7.23854 1.90137 7.16797C1.89479 7.1516 1.76459 7.03997 1.75782 7.02539C1.70532 6.91564 1.93789 6.94106 1.95118 6.93848C2.09543 6.90598 1.96265 6.77127 1.95801 6.73926C1.93682 6.59797 1.99614 6.49428 1.99121 6.37695C1.98839 6.30009 1.84408 6.25028 1.86524 6.19434C1.93778 6.00779 2.15881 6.01543 2.04883 5.78027C2.02545 5.72998 1.85659 5.70645 2.03028 5.62012C2.03662 5.61702 2.08929 5.59757 2.12403 5.56641C2.14961 5.54326 2.16572 5.5131 2.14649 5.47656C2.14005 5.46568 2.09635 5.44645 2.09668 5.43555C2.10016 5.36231 2.15414 5.33597 2.16895 5.26074C2.18383 5.18545 2.19899 5.09198 2.25293 5.02344C2.28551 4.98178 2.39674 4.96649 2.42774 4.95605C2.51605 4.92702 2.46164 4.81144 2.54981 4.81348C2.63803 4.81663 2.69882 4.94578 2.79688 4.87891C2.69082 4.8107 2.58445 4.73642 2.4795 4.66504C2.6128 4.45313 2.78487 4.27399 2.93262 4.07422C2.95096 4.04929 2.87797 4.03189 2.89649 4.00391C2.97548 3.88591 3.09152 3.82258 3.17383 3.70117C3.2374 3.60695 3.27061 3.46636 3.34278 3.36816C3.35403 3.37179 3.3654 3.37443 3.37598 3.37598C3.50974 3.39549 3.59548 3.2563 3.69239 3.18652C3.72859 3.16052 3.75232 3.19096 3.78418 3.17969C3.90327 3.13724 3.77904 3.07673 3.79102 3.04004C3.84573 2.88338 4.03773 3.09818 4.16016 2.99414C4.16598 2.98676 4.15812 2.80178 4.16504 2.78516C4.20448 2.67911 4.2096 2.819 4.26368 2.79394C4.36269 2.74877 4.44362 2.73751 4.52344 2.63184C4.54615 2.60023 4.57061 2.47273 4.66993 2.49902C4.68298 2.50301 4.70502 2.54817 4.71289 2.54687C4.85306 2.52039 4.77672 2.38205 4.81934 2.2959C4.86259 2.20948 5.0228 2.24997 5.0586 2.26758C5.1527 2.31165 5.03153 2.3211 5.03223 2.33008C5.04134 2.4332 5.10947 2.3786 5.17188 2.35644C5.25064 2.49202 5.32672 2.44406 5.23633 2.33301C5.22585 2.32175 5.18673 2.35688 5.17188 2.35644C5.15421 2.19341 5.24288 2.12808 5.4043 2.21289C5.47971 2.25325 5.46611 2.34416 5.59864 2.25684C5.60544 2.25241 5.61128 2.24675 5.61524 2.24121C5.64592 2.19751 5.59893 2.12247 5.64161 2.07715C5.75418 1.95977 5.96921 1.98966 6.10743 1.93066C6.15795 1.90902 6.09044 1.86845 6.12403 1.85156C6.21581 1.80689 6.31362 1.82531 6.40528 1.77832C6.4124 1.77282 6.37656 1.71961 6.40625 1.71094C6.63784 1.64536 6.85123 1.64355 7.09766 1.60937C7.21658 1.59224 7.42784 1.53518 7.55371 1.53418C7.69397 1.53178 7.85562 1.56608 8 1.58789C8.08 1.59985 8.15523 1.60805 8.22071 1.60254C8.34049 1.59314 8.31779 1.53055 8.37207 1.49121ZM1.83106 8.42383C1.75773 8.39668 1.76106 8.51792 1.83301 8.48633C1.83549 8.48176 1.83394 8.42502 1.83106 8.42383ZM1.9209 7.86426C1.94013 7.6154 2.2144 7.49385 2.16993 7.74805C2.16221 7.79414 2.09108 7.64321 2.06446 7.70117C2.01599 7.81081 2.17852 7.88739 2.08985 7.99805C2.07254 8.01789 1.91947 7.88046 1.91993 7.86426H1.9209ZM13.8877 7.76269C13.882 7.76785 13.8804 7.89584 13.8857 7.90137C14.0041 7.96932 14.0084 7.69831 13.8877 7.76269ZM2.15137 6.11719C2.09932 6.13763 2.1167 6.24892 2.18067 6.22266C2.23145 6.20208 2.2152 6.09308 2.15137 6.11719ZM13.4424 5.39941C13.4399 5.40188 13.455 5.44138 13.4717 5.43262C13.5255 5.40422 13.4848 5.35822 13.4424 5.39941ZM2.47071 5.27734C2.59034 5.2122 2.31603 5.04973 2.31739 5.19043C2.31787 5.19874 2.46054 5.27921 2.47071 5.27734ZM2.88282 4.22559C2.77912 4.23757 2.88389 4.3832 2.92578 4.37598C3.06203 4.35494 2.98576 4.21527 2.88282 4.22559ZM10.9629 2.78418C11.0255 2.73784 10.9268 2.67567 10.9121 2.75195C10.912 2.75509 10.9576 2.78396 10.9629 2.78418Z" fill="#555961"/>
</svg>
