<svg width="16" height="16" viewBox="0 0 16 16" fill="none" xmlns="http://www.w3.org/2000/svg">
<path d="M2.11426 13.2578C2.1815 13.2383 2.26992 13.2594 2.33691 13.2881C2.35725 13.2972 2.34747 13.3354 2.36133 13.3438C2.38965 13.3592 2.41635 13.3401 2.44434 13.3584C2.45362 13.3647 2.44241 13.4275 2.45215 13.4326C2.50536 13.4603 2.55548 13.4448 2.60938 13.458C2.87553 13.5241 3.13781 13.5475 3.40723 13.5762C3.49597 13.5857 3.6037 13.6431 3.69531 13.6182C3.70592 13.6152 3.70029 13.5612 3.70215 13.5557C3.73411 13.4859 3.72327 13.5975 3.74414 13.6123C3.8269 13.6707 3.91939 13.6756 3.99902 13.6543C4.0322 13.6443 3.99855 13.5361 4.03223 13.5967C4.0346 13.6009 4.02683 13.6598 4.03613 13.666C4.05729 13.6798 4.09699 13.6692 4.11328 13.6738C4.14478 13.6831 4.14989 13.6829 4.17969 13.6836C4.22038 13.685 4.26883 13.7144 4.3125 13.7012C4.32175 13.6982 4.30989 13.6389 4.32422 13.6279C4.33907 13.6177 4.37821 13.6226 4.3916 13.6367C4.40489 13.6509 4.39999 13.6982 4.40234 13.709C4.42144 13.799 4.46584 13.6772 4.47266 13.6709C4.57949 13.6175 4.67121 13.6896 4.77148 13.6895C4.84766 13.6892 4.92947 13.6647 5.00195 13.668C5.08821 13.6721 5.16131 13.7048 5.24512 13.6992C5.25397 13.6987 5.24407 13.6277 5.25488 13.627C5.3696 13.6188 5.48343 13.6272 5.59766 13.6748C5.60913 13.6797 5.59499 13.7415 5.60645 13.75C5.67663 13.8012 5.78747 13.9235 5.8291 13.6533C5.8766 13.6639 5.93409 13.6751 5.97656 13.7295C6.00391 13.7646 5.9771 13.8316 6.01074 13.8027C6.01834 13.7963 6.00912 13.7376 6.02051 13.7324C6.06841 13.7109 6.12059 13.7298 6.16797 13.6992C6.17762 13.6929 6.175 13.6395 6.17773 13.6299C6.20072 13.5531 6.23874 13.6812 6.24707 13.6904C6.31041 13.7596 6.35707 13.7319 6.41602 13.7334C6.42957 13.7338 6.41442 13.665 6.42676 13.6611C6.49528 13.6509 6.5667 13.6568 6.63379 13.6885C6.64862 13.6958 6.63546 13.7562 6.64258 13.7627C6.67388 13.7903 6.68083 13.6764 6.71094 13.7012C6.71698 13.707 6.7138 13.7571 6.71484 13.7637C6.73286 13.8527 6.74814 13.7282 6.75293 13.7236C6.81199 13.6853 6.85017 13.8176 6.90723 13.7988C6.91314 13.7943 6.89914 13.7312 6.91797 13.7285C7.0457 13.7104 7.18119 13.7287 7.30762 13.7813C7.32658 13.79 7.31323 13.8387 7.31445 13.8447C7.33439 13.9385 7.34704 13.8149 7.35352 13.8076C7.40412 13.773 7.45195 13.8795 7.48633 13.7276C7.70045 13.7801 7.91362 13.6952 8.12598 13.8311C8.12862 13.8326 8.1241 13.893 8.12891 13.8985C8.19382 13.9337 8.18166 13.8363 8.22461 13.7168C8.23544 13.6869 8.26857 13.8312 8.27148 13.8418C8.28193 13.8806 8.27112 13.9727 8.27441 13.9815C8.30381 14.0407 8.29921 13.7316 8.33887 13.7315C8.3401 13.732 8.33456 13.7893 8.33789 13.7949C8.34822 13.8126 8.35903 13.79 8.36914 13.8096C8.39218 13.8551 8.40037 14.0044 8.43555 13.918C8.44002 13.9066 8.43334 13.731 8.46875 13.7393C8.48294 13.7427 8.54473 13.7398 8.5625 13.751C8.57994 13.7623 8.56817 13.8185 8.56934 13.8213C8.61639 13.8959 8.59862 13.9269 8.62207 14.0371C8.64568 14.1473 8.63979 13.8848 8.64941 13.8555C8.65912 13.8267 8.69363 13.8877 8.70215 13.9092C8.71055 13.9304 8.69991 13.9661 8.70703 13.9785C8.75707 14.0578 8.72961 13.8484 8.74609 13.8067C8.78494 13.7082 8.81502 13.9028 8.85059 13.9219C8.85989 13.9266 8.8526 13.8845 8.86035 13.8789C8.89428 13.8631 8.91554 13.9237 8.9541 13.8682C8.96042 13.8591 8.9915 13.7416 9.01172 13.8272C9.01457 13.8395 9.0062 13.8884 9.02051 13.8994C9.04209 13.9157 9.08124 13.9263 9.10449 13.9102C9.12165 13.8982 9.10243 13.8179 9.12402 13.8428C9.13337 13.8541 9.11583 13.9011 9.13379 13.918C9.15191 13.9347 9.19748 13.9323 9.21484 13.9307C9.23213 13.9288 9.22223 13.8684 9.22363 13.8643C9.23199 13.8415 9.26417 13.8129 9.26855 13.8115C9.41746 13.8041 9.55522 13.9067 9.7002 13.8731C9.71118 13.8706 9.70498 13.8108 9.70605 13.8057C9.74503 13.7789 9.71398 13.9489 9.74121 14.0059C9.73728 13.8759 9.75379 13.899 9.78125 13.8848C9.79419 13.8774 9.78688 13.8274 9.78809 13.8223C9.80767 13.7463 9.82168 13.8451 9.8252 13.8652C9.83818 13.9392 9.85249 13.8518 9.86133 13.9014C9.8701 13.9507 9.84967 14.0234 9.87598 14.0225C9.88328 13.9759 9.86391 13.8548 9.88379 13.835C9.95923 13.7605 10.1005 13.8553 10.1611 13.8652C10.2214 13.8751 10.2412 13.867 10.2764 13.8838C10.3398 13.9138 10.3169 13.8235 10.3564 13.7822C10.3954 13.7432 10.3763 13.9626 10.3818 14.0108C10.3874 14.0584 10.3934 14.0099 10.4004 14.0361C10.4072 14.0623 10.3929 14.0947 10.4092 14.1045C10.4257 14.1135 10.4698 14.0292 10.4756 13.9795C10.4878 13.874 10.4678 13.7634 10.5107 13.8018C10.5132 13.8041 10.5057 13.861 10.5146 13.8682C10.5903 13.9131 10.6696 13.9163 10.7451 13.9561C10.7549 13.9631 10.746 14.0264 10.752 14.0303C10.8148 14.0717 10.7927 13.9624 10.8271 13.8408C10.8194 14.0024 10.8381 14.1014 10.8857 14.1026C10.9145 14.1032 10.9101 14.0322 10.9287 13.9824C10.9345 13.9685 10.9544 14.0154 10.958 13.9824C10.97 13.8741 10.9511 13.7529 11 13.8008C11.0022 13.8031 10.9955 13.8626 11.0029 13.8662C11.0512 13.8898 11.0572 13.7765 11.1094 13.7627C11.1503 13.7524 11.2231 13.8208 11.2695 13.832C11.2686 14.0138 11.3122 13.9728 11.3301 13.8477C11.3602 13.8527 11.3928 13.8452 11.4219 13.8623C11.4319 13.8682 11.4256 13.9205 11.4268 13.9268C11.446 14.0151 11.4592 13.8967 11.4658 13.8897C11.5365 13.8432 11.5946 13.9351 11.6621 13.8447C11.6645 13.8371 11.6679 13.7172 11.6855 13.8076C11.6867 13.814 11.6649 13.8713 11.6963 13.876C11.728 13.8804 11.788 13.9479 11.832 13.8897C11.8427 13.8756 11.87 13.7731 11.8916 13.8526C11.8945 13.8634 11.8914 13.8997 11.8955 13.9199C11.9089 13.9841 11.9159 13.8573 11.9316 13.9649C11.9475 14.0734 11.981 14.155 12.0254 14.0801C12.0271 14.0747 12.0372 13.9782 12.0508 13.9785C12.073 13.9812 12.1047 14.0024 12.1279 14.002C12.1386 14.0016 12.1326 13.9432 12.1338 13.9375C12.2087 13.9023 12.2625 13.9581 12.3428 13.9824C12.3575 13.987 12.4002 13.9011 12.4287 13.9688C12.46 14.043 12.428 14.3519 12.5 14.2783C12.529 14.248 12.5651 13.858 12.6172 14.0606C12.7183 14.0103 12.8126 14.1138 12.9141 14.042C12.9188 14.0369 12.9327 13.9294 12.9434 13.9307C12.9593 13.9331 12.9681 13.9839 12.9795 13.9873C13.027 14.0027 13.0704 13.9593 13.1162 13.9658C13.1336 13.9683 13.1279 14.0211 13.1484 14.0244C13.1692 14.0273 13.1838 13.9576 13.2119 13.9912C13.2332 14.0171 13.254 14.1592 13.2822 14.1758C13.2833 14.0356 13.3025 14.038 13.3369 14.001C13.3434 13.9934 13.3367 13.9454 13.3398 13.9395C13.3526 13.9144 13.3649 13.9549 13.377 13.9277C13.3799 13.9213 13.3795 13.8743 13.3818 13.8652C13.4023 13.7947 13.4366 13.9022 13.4424 13.9209C13.4645 13.9918 13.4742 13.9301 13.4912 13.958C13.5082 13.9861 13.4831 14.0211 13.5029 14.0381C13.544 14.0732 13.5969 14.0653 13.6387 14.0674C13.6551 14.068 13.6446 14.0063 13.6465 14.0029C13.681 13.9868 13.7162 14.0545 13.7354 13.9277C13.7592 14.2561 13.7564 13.8954 13.8057 13.961C13.8096 13.9663 13.8137 14.1227 13.7988 14.1455C13.7839 14.1673 13.7618 14.1199 13.7412 14.1553C13.736 14.1654 13.7079 14.3096 13.7041 14.3184C13.6742 14.3863 13.6696 14.1544 13.668 14.1416C13.65 14.0044 13.6166 14.16 13.6074 14.1719C13.5661 14.2216 13.5307 14.1891 13.4961 14.2246C13.4736 14.2479 13.4709 14.3992 13.4531 14.3945C13.3944 14.3782 13.3738 14.1677 13.3184 14.3516C13.3065 14.3912 13.318 14.5565 13.2754 14.4258C13.272 14.4147 13.2407 14.2993 13.2227 14.374C13.2204 14.3838 13.2208 14.4325 13.2178 14.4365C13.1975 14.4627 13.1833 14.4239 13.1611 14.4424C13.139 14.4609 13.1122 14.4881 13.0869 14.4717C13.0717 14.4607 13.0522 14.3716 13.0449 14.3496C13.0243 14.286 13.002 14.3902 12.9893 14.3135C12.9764 14.2359 13.0015 14.1175 12.9678 14.0674C12.9665 14.1935 12.9639 14.3234 12.9619 14.4502C12.888 14.4457 12.8153 14.4047 12.7412 14.4102C12.732 14.411 12.7412 14.4784 12.7314 14.4815C12.6899 14.4922 12.6534 14.4439 12.6104 14.4629C12.5769 14.4781 12.5398 14.5503 12.5049 14.5684C12.4836 14.4245 12.4322 14.4728 12.3945 14.46C12.3815 14.4555 12.3821 14.4173 12.373 14.4043C12.3376 14.3578 12.3535 14.4848 12.3438 14.5049C12.3022 14.5904 12.2989 14.3032 12.25 14.3096C12.2474 14.3099 12.2156 14.4615 12.2109 14.4727C12.1833 14.5346 12.2061 14.4212 12.1895 14.4082C12.1577 14.3874 12.135 14.3505 12.0977 14.3955C12.0868 14.409 12.0611 14.5045 12.04 14.4307C12.0373 14.421 12.0383 14.3707 12.0361 14.3672C11.9957 14.3176 11.9948 14.4771 11.9717 14.5313C11.9485 14.5854 11.9126 14.4752 11.9053 14.4434C11.8865 14.3622 11.919 14.407 11.9209 14.4004C11.933 14.3044 11.9066 14.3206 11.8867 14.3125C11.8838 14.1559 11.8561 14.1653 11.8662 14.3047C11.8673 14.3198 11.8826 14.3058 11.8867 14.3125C11.8692 14.4662 11.8395 14.4854 11.8057 14.3418C11.79 14.2746 11.8039 14.1969 11.7559 14.2256C11.7347 14.2399 11.7425 14.3455 11.7236 14.375C11.6797 14.4421 11.6225 14.3417 11.5771 14.3574C11.5607 14.3632 11.5767 14.4228 11.5654 14.4287C11.5357 14.4445 11.5094 14.4004 11.4795 14.4229C11.4768 14.425 11.483 14.4865 11.4736 14.4873C11.4031 14.4944 11.3413 14.4552 11.2676 14.4541C11.2319 14.4539 11.1687 14.4872 11.1318 14.4805C11.0679 14.469 10.9892 14.38 10.9346 14.4014C10.8989 14.4154 10.9059 14.4774 10.8906 14.5195C10.8611 14.6003 10.8098 14.4543 10.8027 14.4317C10.8061 14.4292 10.8317 14.4143 10.8164 14.3848C10.8072 14.3211 10.8033 14.4247 10.8027 14.4317C10.7977 14.4172 10.7373 14.4037 10.7246 14.4151C10.718 14.4215 10.7212 14.4802 10.7178 14.4824C10.6359 14.5348 10.5538 14.5498 10.4707 14.5225C10.4693 14.5213 10.471 14.4581 10.4678 14.4541C10.4196 14.425 10.3893 14.5052 10.3496 14.5527C10.31 14.6001 10.2784 14.5838 10.2549 14.4717C10.2249 14.4859 10.182 14.4355 10.1572 14.4053C10.1326 14.3756 10.1291 14.5034 10.127 14.5059C10.0591 14.5865 10.0196 14.5134 9.94922 14.502C9.9159 14.4964 9.84982 14.5144 9.81348 14.5283C9.78492 14.5395 9.76747 14.5105 9.74121 14.5293C9.73764 14.5319 9.74035 14.5886 9.73926 14.5908C9.71002 14.658 9.72473 14.5203 9.71875 14.4951C9.6967 14.405 9.68225 14.357 9.64453 14.3994C9.63563 14.4122 9.61045 14.6085 9.59473 14.6201C9.57414 14.6349 9.58213 14.5637 9.56055 14.5811C9.55874 14.583 9.5591 14.6268 9.5459 14.625C9.48412 14.6166 9.41674 14.5904 9.35254 14.5947C9.34376 14.5952 9.35448 14.6652 9.3418 14.667C9.28235 14.6753 9.21707 14.6734 9.15918 14.6406C9.14495 14.6324 9.15438 14.5831 9.15137 14.5684C9.13264 14.4815 9.10564 14.6042 9.10059 14.6104C8.99442 14.6719 8.91289 14.5561 8.80469 14.6113C8.79855 14.6155 8.75359 14.7514 8.7334 14.6348C8.73202 14.627 8.71201 14.5063 8.69434 14.5879C8.69324 14.5931 8.70536 14.6558 8.68359 14.6494C8.66183 14.6436 8.62742 14.6839 8.59766 14.6162C8.58819 14.5947 8.56536 14.4745 8.53711 14.5703C8.5352 14.5773 8.49215 14.7932 8.47656 14.6445C8.47404 14.62 8.47594 14.4617 8.44238 14.542C8.43595 14.5577 8.44751 14.5932 8.43066 14.6152C8.40467 14.6492 8.37082 14.6074 8.33887 14.6777C8.33329 14.6902 8.30907 14.7973 8.29004 14.7158C8.28713 14.7028 8.29224 14.6504 8.28223 14.6445C8.23466 14.6166 8.18501 14.6512 8.13672 14.6152C8.11963 14.6025 8.12784 14.5176 8.11035 14.4942C8.09243 14.4713 8.05586 14.4493 8.03711 14.4883C8.01862 14.5278 8.03876 14.663 8.01074 14.6738C7.88859 14.7211 7.76748 14.6416 7.64551 14.6299C7.62769 14.6284 7.64239 14.6765 7.61621 14.6777C7.51791 14.6814 7.34799 14.7265 7.2627 14.6231C7.19469 14.5404 7.28031 14.4771 7.22852 14.4434C7.20357 14.4274 7.17636 14.5829 7.16992 14.5908C7.11062 14.6413 7.06896 14.5717 7.01562 14.5928C7.00472 14.5972 7.01461 14.6595 7.00586 14.6641C6.97377 14.6752 6.93985 14.6472 6.90918 14.6524C6.89541 14.6549 6.89743 14.704 6.88477 14.7002C6.85463 14.6917 6.82822 14.6706 6.79883 14.625C6.79615 14.6209 6.81382 14.5606 6.79199 14.5576C6.75574 14.5541 6.71066 14.5092 6.66895 14.5557C6.65657 14.5697 6.65548 14.6815 6.62891 14.6045C6.62332 14.5884 6.63063 14.4542 6.59961 14.5703C6.5938 14.5913 6.542 14.7449 6.5166 14.6445C6.50981 14.6175 6.49239 14.5082 6.47754 14.5254C6.47553 14.5282 6.48402 14.5889 6.47168 14.5947C6.42827 14.6143 6.38249 14.6073 6.33789 14.626C6.32606 14.6311 6.34322 14.6927 6.32617 14.6992C6.27726 14.715 6.2158 14.6992 6.16797 14.6797C6.15033 14.6724 6.16242 14.6209 6.16113 14.6152C6.14051 14.5242 6.12794 14.6471 6.12109 14.6543C6.07855 14.6971 6.04607 14.64 6.00684 14.6553C5.9968 14.6607 6.00377 14.7161 6.00195 14.7227C5.97977 14.7734 5.99597 14.6703 5.98242 14.6572C5.94286 14.6244 5.89843 14.6293 5.8584 14.6367C5.8437 14.6396 5.85974 14.7069 5.84668 14.709C5.76841 14.7207 5.68674 14.7143 5.61035 14.6768C5.59633 14.6694 5.60523 14.6182 5.60254 14.6055C5.58188 14.5217 5.55091 14.6356 5.54395 14.6465C5.51248 14.6957 5.50036 14.65 5.47266 14.6582C5.33606 14.7013 5.16707 14.6713 5.03809 14.6524C4.86998 14.6279 4.73941 14.5779 4.5791 14.5908C4.56893 14.5916 4.57908 14.6605 4.57031 14.6621C4.45692 14.6789 4.34507 14.6517 4.23145 14.6719C4.22246 14.6742 4.23557 14.7395 4.2207 14.7442C4.19001 14.7542 4.15114 14.7506 4.12012 14.7295C4.1057 14.7188 4.125 14.6638 4.11035 14.6543C4.07487 14.633 4.03644 14.6281 4 14.6387C3.98505 14.6439 4.00783 14.7105 3.98828 14.7119C3.85101 14.7186 3.71586 14.7301 3.57715 14.6426C3.56764 14.6366 3.55927 14.4992 3.53906 14.5254C3.53754 14.5635 3.53777 14.6087 3.53711 14.6494C3.33721 14.6714 3.13893 14.6236 2.93848 14.6162C2.93046 14.617 2.94452 14.6879 2.92871 14.6885C2.83401 14.6874 2.7414 14.7072 2.64453 14.6348C2.63544 14.6247 2.64005 14.5011 2.6123 14.5195C2.60732 14.5231 2.56386 14.5397 2.55273 14.5674C2.55124 14.5716 2.5595 14.6318 2.5459 14.6338C2.46616 14.6429 2.38235 14.6292 2.30273 14.5928C2.28986 14.5868 2.30311 14.5224 2.29395 14.5176C2.22898 14.484 2.15777 14.5324 2.0957 14.4746C2.05444 14.4355 2.06991 14.3249 2.04785 14.2168C2.04431 14.2019 2.01894 14.1989 2.01758 14.1367C2.01416 13.9783 2.02658 13.8046 2.02148 13.6358C2.0204 13.5994 1.98659 13.6383 2.00684 13.5508C2.00826 13.5449 2.0329 13.5152 2.03906 13.4854C2.04332 13.4647 2.0352 13.4004 2.04395 13.374C2.05269 13.3479 2.06266 13.4011 2.07715 13.3701C2.09141 13.3386 2.08552 13.2666 2.11426 13.2578ZM12.8154 14.2354C12.7855 14.1367 12.765 14.282 12.7861 14.3584C12.8072 14.4347 12.8245 14.2654 12.8154 14.2354ZM2.13086 14.1836C2.12107 14.2547 2.15823 14.2605 2.15039 14.1865C2.15007 14.1836 2.1313 14.1807 2.13086 14.1836ZM13.4336 14.085C13.4227 14.042 13.3918 14.0911 13.4053 14.1445C13.4162 14.1875 13.447 14.1384 13.4336 14.085ZM8.83789 14.044C8.83879 14.1048 8.85757 14.0875 8.85156 14.0313C8.85086 14.028 8.83764 14.0254 8.83789 14.044ZM13.917 13.836C13.9322 13.8413 13.8849 13.9197 13.9043 13.9434C13.9397 13.9858 13.9628 13.8219 13.999 13.9102C14.0052 13.9273 13.9616 14.082 13.957 14.0811L13.9297 14.0654C13.8704 14.0072 13.8439 13.8108 13.917 13.836ZM10.0137 13.999C10.0039 14.0699 10.04 14.0749 10.0322 14.001C10.0301 13.9982 10.0141 13.9963 10.0137 13.999ZM8.03223 13.8867C8.0102 14.0029 8.09605 14.0148 8.07715 13.8926C8.07574 13.8863 8.03361 13.8809 8.03223 13.8867Z" fill="#555961"/>
<path d="M6.00684 4.59108C6.01057 4.57154 6.01483 4.59268 6.01855 4.62135C6.01964 4.63082 6.01978 4.66828 6.02051 4.67702C6.02208 4.69241 6.02287 4.67365 6.02441 4.69167C6.02492 4.69783 6.02491 4.75849 6.02539 4.76588C6.02834 4.79362 6.03119 4.77813 6.03418 4.79127C6.04891 4.85705 6.06322 4.8809 6.07813 4.90944C6.08305 4.91883 6.08866 4.9762 6.09375 4.95143C6.09433 4.94851 6.09463 4.89521 6.09473 4.88893C6.0965 4.81919 6.09552 4.93075 6.09668 4.94557C6.10128 5.00387 6.10691 5.00886 6.11133 4.98756C6.11318 4.9778 6.1114 4.869 6.11328 4.92995C6.11341 4.93411 6.11277 4.99296 6.11328 4.99928C6.11441 5.01281 6.11622 5.00372 6.11719 5.0071C6.11893 5.01634 6.11945 5.0162 6.12109 5.01686C6.12335 5.01828 6.12649 5.04734 6.12891 5.03444C6.12942 5.03147 6.12813 4.97261 6.12891 4.9612C6.12973 4.95097 6.13207 4.9558 6.13281 4.96999C6.13354 4.98436 6.13366 5.03145 6.13379 5.04225C6.13484 5.13166 6.13729 5.01211 6.1377 5.00417C6.14363 4.95077 6.14872 5.02293 6.1543 5.02272C6.15847 5.02164 6.16303 4.99802 6.16699 5.00124C6.17179 5.00536 6.176 5.03809 6.18066 5.03249C6.18109 5.02847 6.18008 4.96098 6.18066 4.96022C6.18701 4.95224 6.19388 4.96061 6.2002 5.00807C6.20078 5.01458 6.19958 5.07449 6.2002 5.08327C6.20409 5.13432 6.21058 5.25704 6.21289 4.98659C6.21553 4.99713 6.21834 5.00832 6.2207 5.06276C6.22221 5.0979 6.22079 5.16483 6.22266 5.136C6.22303 5.12771 6.22302 5.07114 6.22363 5.06569C6.2263 5.04399 6.22881 5.0631 6.23145 5.03249C6.23198 5.0259 6.23227 4.97269 6.23242 4.96315C6.2337 4.88649 6.23587 5.01441 6.23633 5.0237C6.23975 5.09076 6.24196 5.06647 6.24512 5.06667C6.24568 5.06077 6.24549 4.99949 6.24609 4.9944C6.2499 4.98418 6.25409 4.99009 6.25781 5.02174C6.25861 5.02946 6.25745 5.08845 6.25781 5.09596C6.25956 5.12412 6.26004 5.00964 6.26172 5.03444C6.26206 5.03981 6.26166 5.09017 6.26172 5.09694C6.26273 5.18661 6.26341 5.0597 6.26367 5.0569C6.26695 5.01875 6.26929 5.15087 6.27246 5.1321C6.27275 5.12605 6.27243 5.06498 6.27344 5.06178C6.28054 5.04361 6.28789 5.06188 6.29492 5.11452C6.29596 5.12349 6.29485 5.17197 6.29492 5.17799C6.29603 5.27191 6.29749 5.14819 6.29785 5.14088C6.30066 5.1063 6.30278 5.21278 6.30469 5.06081C6.31658 5.11351 6.32902 5.02858 6.34082 5.16432C6.34097 5.16587 6.34055 5.22673 6.34082 5.2317C6.34443 5.26699 6.34332 5.16951 6.3457 5.05006C6.34631 5.0203 6.34847 5.1645 6.34863 5.17506C6.34921 5.21383 6.34845 5.306 6.34863 5.31471C6.35027 5.37395 6.35034 5.06481 6.35254 5.06471C6.35261 5.06523 6.35235 5.12253 6.35254 5.12819C6.35311 5.14547 6.35296 5.12335 6.35352 5.14284C6.3548 5.18827 6.35547 5.33764 6.35742 5.25124C6.35767 5.23989 6.35741 5.06424 6.35938 5.07252C6.36022 5.07574 6.3633 5.07304 6.36426 5.08424C6.36523 5.09568 6.36517 5.15211 6.36523 5.15456C6.36785 5.22913 6.36686 5.26014 6.36816 5.37038C6.36948 5.4806 6.36861 5.21808 6.36914 5.18874C6.36968 5.15977 6.37159 5.22084 6.37207 5.24245C6.37254 5.26369 6.37265 5.29932 6.37305 5.31178C6.37583 5.39106 6.37408 5.18163 6.375 5.13991C6.37716 5.04124 6.37888 5.23588 6.38086 5.25514C6.38115 5.25073 6.38049 5.21743 6.38086 5.21217C6.38274 5.19635 6.38458 5.25649 6.38672 5.20143C6.38707 5.19235 6.38853 5.07497 6.38965 5.16042C6.38981 5.17282 6.38884 5.2218 6.38965 5.23268C6.39085 5.24893 6.39324 5.25944 6.39453 5.24342C6.39548 5.23142 6.39431 5.15139 6.39551 5.17604C6.39604 5.18714 6.39548 5.23428 6.39648 5.25124C6.39749 5.26791 6.39943 5.26554 6.40039 5.26393C6.40126 5.25951 6.40129 5.20151 6.40137 5.19752C6.40185 5.17414 6.40413 5.14472 6.4043 5.14479C6.41238 5.14164 6.41984 5.23921 6.42773 5.20631C6.42834 5.20384 6.42768 5.1443 6.42773 5.13893C6.4299 5.1121 6.42817 5.28214 6.42969 5.33913C6.42947 5.20918 6.43109 5.23228 6.43262 5.21803C6.43331 5.21004 6.43255 5.16062 6.43262 5.15553C6.4337 5.07973 6.43438 5.17834 6.43457 5.1985C6.43529 5.2725 6.43603 5.18502 6.43652 5.23463C6.437 5.28226 6.43625 5.35196 6.4375 5.35573C6.43791 5.30913 6.43737 5.18811 6.43848 5.16823C6.44261 5.09467 6.44969 5.18659 6.45313 5.1985C6.45649 5.2084 6.458 5.20025 6.45996 5.21706C6.46349 5.24729 6.46167 5.15675 6.46387 5.11549C6.46604 5.07631 6.46551 5.29592 6.46582 5.34401C6.46613 5.39169 6.46641 5.34319 6.4668 5.3694C6.46717 5.39555 6.46589 5.42796 6.4668 5.43776C6.46772 5.44654 6.47038 5.36238 6.4707 5.31276C6.47138 5.20715 6.47026 5.09625 6.47266 5.13502C6.47279 5.13731 6.47216 5.19437 6.47266 5.20143C6.47686 5.24635 6.48116 5.24959 6.48535 5.28932C6.4859 5.29612 6.486 5.35962 6.48633 5.36354C6.48982 5.40493 6.48832 5.29559 6.49023 5.17409C6.4898 5.33583 6.49149 5.43485 6.49414 5.43581C6.4956 5.43274 6.49509 5.36415 6.49609 5.31569C6.49641 5.30135 6.49784 5.34876 6.49805 5.31569C6.49871 5.2074 6.49729 5.0865 6.5 5.13405C6.50012 5.13631 6.49962 5.19399 6.5 5.19948C6.50267 5.22299 6.50298 5.11017 6.50586 5.09596C6.50811 5.08529 6.51206 5.15287 6.51465 5.1653C6.51459 5.347 6.51756 5.30601 6.51855 5.18092C6.52018 5.18515 6.52187 5.17916 6.52344 5.19557C6.52399 5.20144 6.52337 5.25375 6.52344 5.26002C6.5245 5.34798 6.526 5.23096 6.52637 5.22292C6.53029 5.17641 6.53336 5.26838 6.53711 5.17799C6.53724 5.17135 6.5371 5.04995 6.53809 5.14088C6.53815 5.14741 6.5373 5.20481 6.53906 5.20924C6.54084 5.21511 6.54348 5.28052 6.5459 5.22292C6.54649 5.20885 6.5486 5.10649 6.5498 5.18581C6.54996 5.19662 6.54958 5.23295 6.5498 5.25319C6.55055 5.31735 6.55088 5.19047 6.55176 5.29811C6.55264 5.40661 6.55417 5.48821 6.55664 5.41335C6.55673 5.40859 6.55783 5.3102 6.55859 5.31178C6.5598 5.31491 6.56124 5.33495 6.5625 5.33522C6.5631 5.33488 6.56341 5.27604 6.56348 5.27077C6.56764 5.23554 6.56976 5.29137 6.57422 5.31569C6.57505 5.31931 6.57753 5.23489 6.5791 5.30202C6.58084 5.37614 6.57902 5.68445 6.58301 5.61159C6.58462 5.58218 6.58695 5.19097 6.58984 5.39381C6.59546 5.34358 6.60081 5.4468 6.60645 5.37526C6.6067 5.37208 6.6078 5.26282 6.6084 5.26393C6.60926 5.26628 6.60975 5.31471 6.61035 5.32057C6.61291 5.33543 6.61473 5.29572 6.61719 5.29909C6.61815 5.30153 6.61803 5.35372 6.61914 5.35768C6.62029 5.36058 6.62149 5.29137 6.62305 5.32448C6.62423 5.35008 6.62538 5.49248 6.62695 5.50905C6.62701 5.36885 6.62797 5.37125 6.62988 5.33424C6.63022 5.32576 6.62971 5.27853 6.62988 5.27272C6.63059 5.24778 6.63117 5.28773 6.63184 5.261C6.632 5.25451 6.63268 5.20748 6.63281 5.1985C6.63395 5.12799 6.63542 5.23541 6.63574 5.25417C6.63698 5.32527 6.63773 5.26324 6.63867 5.29127C6.6396 5.31928 6.63757 5.35438 6.63867 5.37135C6.6409 5.40553 6.64419 5.39895 6.64648 5.40065C6.64727 5.39713 6.64735 5.33846 6.64746 5.3362C6.64938 5.32 6.65128 5.38776 6.65234 5.261C6.65367 5.58888 6.65353 5.22995 6.65625 5.2942C6.65647 5.29953 6.6561 5.45592 6.65527 5.47877C6.65444 5.50068 6.65349 5.45312 6.65234 5.48854C6.65205 5.49987 6.6506 5.64289 6.65039 5.65163C6.64873 5.71948 6.64853 5.48762 6.64844 5.47487C6.64744 5.33709 6.64503 5.49429 6.64453 5.50514C6.64224 5.55473 6.64059 5.52239 6.63867 5.55788C6.63749 5.58053 6.63757 5.71776 6.63672 5.7278C6.63349 5.70969 6.63197 5.50187 6.62891 5.68483C6.62825 5.72458 6.62835 5.88972 6.62598 5.75905C6.62578 5.74779 6.62405 5.63262 6.62305 5.70729C6.62292 5.71708 6.62322 5.76573 6.62305 5.76979C6.62193 5.79529 6.62134 5.75724 6.62012 5.77565C6.61889 5.79417 6.61762 5.82139 6.61621 5.80495C6.61537 5.7938 6.61368 5.70487 6.61328 5.68288C6.61214 5.6192 6.61106 5.72332 6.61035 5.64674C6.60964 5.56913 6.61125 5.4508 6.60938 5.40065C6.60931 5.52674 6.60949 5.65665 6.60938 5.78346C6.60526 5.77902 6.6008 5.73785 6.59668 5.74342C6.59617 5.74426 6.59625 5.81209 6.5957 5.81471C6.59341 5.82488 6.59222 5.77768 6.58984 5.79616C6.58799 5.81131 6.58593 5.88354 6.58398 5.90163C6.58281 5.7584 6.57924 5.80542 6.57715 5.79323C6.57642 5.78871 6.57668 5.75047 6.57617 5.73756C6.57421 5.69117 6.57475 5.81766 6.57422 5.83815C6.57199 5.92082 6.57181 5.65496 6.56934 5.64284C6.56911 5.65113 6.56764 5.79461 6.56738 5.80592C6.56585 5.86797 6.56734 5.75415 6.56641 5.74147C6.56464 5.7207 6.56262 5.68372 6.56055 5.72877C6.55994 5.74212 6.55879 5.83798 6.55762 5.76393C6.55746 5.75434 6.55774 5.70453 6.55762 5.70045C6.55537 5.65083 6.555 5.81036 6.55371 5.86452C6.55243 5.91859 6.55119 5.80847 6.55078 5.77663C6.5499 5.70828 6.55034 5.72925 6.55078 5.73366C6.55145 5.63762 6.54993 5.65388 6.54883 5.64577C6.54786 5.79946 6.5468 5.81869 6.54492 5.67506C6.54405 5.60785 6.54466 5.5302 6.54199 5.55885C6.54083 5.57354 6.54108 5.67863 6.54004 5.70827C6.53761 5.77489 6.53474 5.67657 6.53223 5.69069C6.53131 5.69644 6.53188 5.75601 6.53125 5.76198C6.5296 5.77732 6.52802 5.73362 6.52637 5.75612C6.52622 5.75817 6.52681 5.81565 6.52637 5.82057C6.52244 5.82775 6.51875 5.78847 6.51465 5.78737C6.51264 5.78885 6.50883 5.82038 6.50684 5.81374C6.50331 5.80042 6.49909 5.71308 6.49609 5.73463C6.49413 5.7488 6.49499 5.81078 6.49414 5.8528C6.4925 5.93377 6.48965 5.78753 6.48926 5.76491C6.48896 5.75042 6.48506 5.7367 6.48438 5.74831C6.48401 5.75476 6.48457 5.81343 6.48438 5.81569C6.47983 5.86801 6.47531 5.88292 6.4707 5.85573C6.47062 5.85459 6.47087 5.79344 6.4707 5.78737C6.46803 5.75824 6.46607 5.83842 6.46387 5.886C6.46167 5.93296 6.46029 5.91682 6.45898 5.80495C6.45732 5.81843 6.45449 5.76857 6.45313 5.73854C6.45177 5.71001 6.45129 5.83662 6.45117 5.83913C6.44741 5.91935 6.44531 5.84657 6.44141 5.83522C6.43956 5.82975 6.43561 5.84771 6.43359 5.86159C6.432 5.87282 6.43115 5.84345 6.42969 5.86256C6.4295 5.86635 6.42975 5.92193 6.42969 5.92409C6.42806 5.99172 6.42905 5.85334 6.42871 5.82838C6.42749 5.73822 6.4269 5.69027 6.4248 5.73268C6.42432 5.74372 6.42275 5.9379 6.42188 5.95338C6.42073 5.9682 6.42112 5.89714 6.41992 5.91432C6.41982 5.91573 6.41967 5.95942 6.41895 5.95827C6.41552 5.94983 6.41176 5.92379 6.4082 5.92799C6.40773 5.92841 6.4088 5.99439 6.4082 6.00026C6.40491 6.00854 6.40067 6.00638 6.39746 5.97389C6.39667 5.96561 6.39763 5.91629 6.39746 5.90163C6.39643 5.81534 6.39483 5.93607 6.39453 5.94362C6.38864 6.00513 6.38393 5.88977 6.37793 5.9446C6.3776 5.94783 6.37515 6.08502 6.37402 5.96803C6.37395 5.96021 6.37305 5.83965 6.37207 5.92116C6.37201 5.92627 6.37227 5.98795 6.37109 5.98268C6.36989 5.97637 6.36787 6.01761 6.36621 5.94948C6.36568 5.928 6.36485 5.80774 6.36328 5.90358C6.36318 5.91036 6.36024 6.12662 6.35938 5.9778C6.35924 5.95324 6.36026 5.79527 6.3584 5.87526C6.35804 5.89091 6.35835 5.92644 6.35742 5.9485C6.35598 5.98247 6.35432 5.94052 6.35254 6.011C6.35222 6.02402 6.35066 6.13035 6.34961 6.04909C6.34945 6.0361 6.34919 5.98383 6.34863 5.9778C6.34599 5.94953 6.34351 5.9845 6.34082 5.9485C6.33987 5.93573 6.34082 5.85085 6.33984 5.82741C6.33885 5.80453 6.336 5.78252 6.33496 5.82155C6.33394 5.86095 6.33552 5.9954 6.33398 6.0071C6.32721 6.05433 6.32024 5.97499 6.31348 5.96315C6.31271 5.96654 6.31292 6.01013 6.31152 6.011C6.30602 6.01615 6.29663 6.0577 6.29199 5.95631C6.28823 5.87361 6.29294 5.8103 6.29004 5.77663C6.28876 5.78826 6.28742 5.91956 6.28711 5.92409C6.28381 5.97466 6.28129 5.90458 6.27832 5.92604C6.27773 5.93036 6.27876 5.99076 6.27832 5.99733C6.27654 6.00845 6.27417 5.98037 6.27246 5.98561C6.27176 5.98927 6.27209 6.03337 6.27148 6.03346C6.2698 6.02498 6.26824 6.00415 6.2666 5.95827C6.26645 5.95415 6.26776 5.89481 6.2666 5.89088C6.26459 5.88739 6.26209 5.84216 6.25977 5.88893C6.25908 5.90332 6.25831 6.01451 6.25684 5.93776C6.25653 5.92161 6.25758 5.78743 6.25586 5.90358C6.25553 5.92476 6.25239 6.07802 6.25098 5.9778C6.25065 5.95464 6.24975 5.87153 6.24902 5.85866C6.24891 5.86142 6.24873 5.92213 6.24805 5.92799C6.24566 5.94691 6.24366 5.94103 6.24121 5.95924C6.24055 5.96435 6.24118 6.02588 6.24023 6.03249C6.23752 6.04821 6.2341 6.03243 6.23145 6.01295C6.23049 6.00521 6.23152 5.95408 6.23145 5.9485C6.23031 5.85796 6.2289 5.9792 6.22852 5.98756C6.22615 6.03056 6.22484 5.97323 6.22266 5.98854C6.22212 5.99482 6.22276 6.04936 6.22266 6.05592C6.22142 6.10674 6.22244 6.00328 6.22168 5.99049C6.21948 5.95758 6.2161 5.96248 6.21387 5.96999C6.21318 5.97646 6.21455 6.03947 6.21387 6.04225C6.20952 6.05398 6.20444 6.04754 6.2002 6.01002C6.1994 6.00291 6.20035 5.95139 6.2002 5.93874C6.19905 5.85497 6.19765 5.96883 6.19727 5.97975C6.19581 6.02085 6.19444 5.99632 6.19336 5.99147C6.18583 6.03421 6.17609 6.00461 6.16895 5.98561C6.15961 5.9612 6.15246 5.91114 6.14355 5.92409C6.14309 5.92851 6.14296 5.98928 6.14258 5.99538C6.13632 6.01208 6.13029 5.98575 6.12402 6.00514C6.12352 6.00663 6.12379 6.07003 6.12305 6.07741C6.12134 6.08747 6.11989 6.08387 6.11816 6.06276C6.1174 6.05159 6.11797 5.9974 6.11719 5.98756C6.11522 5.96629 6.11335 5.96134 6.11133 5.97194C6.11048 5.97686 6.11147 6.0444 6.11035 6.04518C6.10279 6.0519 6.09554 6.06258 6.08789 5.97585C6.08746 5.97092 6.08668 5.8777 6.08594 5.85866C6.08585 5.89679 6.085 5.94193 6.08496 5.98268C6.07393 6.00367 6.06283 5.9568 6.05176 5.94948C6.05138 5.95324 6.05259 6.02036 6.05176 6.02174C6.0465 6.02067 6.04151 6.04041 6.03613 5.96803C6.03563 5.95794 6.03573 5.83368 6.03418 5.8528C6.03384 5.85673 6.03089 5.87354 6.03027 5.90065C6.03019 5.90484 6.03104 5.96531 6.03027 5.96706C6.02589 5.97556 6.02097 5.96193 6.0166 5.92604C6.01589 5.92003 6.01711 5.85568 6.0166 5.85085C6.013 5.81751 6.00833 5.86556 6.00488 5.80788C6.00258 5.7689 6.00416 5.65837 6.00293 5.55006C6.00273 5.53521 6.00105 5.53218 6.00098 5.46999C6.00079 5.31155 6.00126 5.13789 6.00098 4.96901C6.00092 4.93268 5.99888 4.97139 6 4.88405C6.00008 4.87816 6.00161 4.84845 6.00195 4.81862L6.00293 4.70729C6.00323 4.71361 6.0035 4.71903 6.00391 4.70338C6.00469 4.67184 6.00526 4.6001 6.00684 4.59108ZM6.00684 5.51686C6.00629 5.58798 6.00922 5.59372 6.00879 5.51979C6.00877 5.51681 6.00686 5.51391 6.00684 5.51686ZM6.66699 5.24342C6.66731 5.26082 6.6644 5.40865 6.66406 5.41432L6.66309 5.25026C6.66399 5.22241 6.66589 5.19487 6.66699 5.24342ZM6.44531 5.33229C6.44477 5.40307 6.44672 5.40817 6.44629 5.33424C6.44618 5.33144 6.44534 5.32949 6.44531 5.33229ZM6.33496 5.21999C6.33374 5.33607 6.33894 5.34805 6.33789 5.22585C6.3378 5.21958 6.33504 5.21421 6.33496 5.21999ZM6.66309 5.25026C6.66234 5.27309 6.66202 5.29593 6.66113 5.27663C6.66006 5.25314 6.66289 5.17578 6.66211 5.1692L6.66309 5.25026Z" fill="#555961"/>
<path d="M6.00684 9.92458C6.01057 9.90504 6.01483 9.92617 6.01855 9.95485C6.01964 9.96431 6.01978 10.0018 6.02051 10.0105C6.02208 10.0259 6.02287 10.0071 6.02441 10.0252C6.02492 10.0313 6.02491 10.092 6.02539 10.0994C6.02834 10.1271 6.03119 10.1116 6.03418 10.1248C6.04891 10.1906 6.06322 10.2144 6.07813 10.2429C6.08305 10.2523 6.08866 10.3097 6.09375 10.2849C6.09433 10.282 6.09463 10.2287 6.09473 10.2224C6.0965 10.1527 6.09552 10.2642 6.09668 10.2791C6.10128 10.3374 6.10691 10.3424 6.11133 10.3211C6.11318 10.3113 6.1114 10.2025 6.11328 10.2634C6.11341 10.2676 6.11277 10.3265 6.11328 10.3328C6.11441 10.3463 6.11622 10.3372 6.11719 10.3406C6.11893 10.3498 6.11945 10.3497 6.12109 10.3504C6.12335 10.3518 6.12649 10.3808 6.12891 10.3679C6.12942 10.365 6.12813 10.3061 6.12891 10.2947C6.12973 10.2845 6.13207 10.2893 6.13281 10.3035C6.13354 10.3179 6.13366 10.3649 6.13379 10.3757C6.13484 10.4652 6.13729 10.3456 6.1377 10.3377C6.14363 10.2843 6.14872 10.3564 6.1543 10.3562C6.15847 10.3551 6.16303 10.3315 6.16699 10.3347C6.17179 10.3389 6.176 10.3716 6.18066 10.366C6.18109 10.362 6.18008 10.2945 6.18066 10.2937C6.18701 10.2857 6.19388 10.2941 6.2002 10.3416C6.20078 10.3481 6.19958 10.408 6.2002 10.4168C6.20409 10.4678 6.21058 10.5905 6.21289 10.3201C6.21553 10.3306 6.21834 10.3418 6.2207 10.3963C6.22221 10.4314 6.22079 10.4983 6.22266 10.4695C6.22303 10.4612 6.22302 10.4046 6.22363 10.3992C6.2263 10.3775 6.22881 10.3966 6.23145 10.366C6.23198 10.3594 6.23227 10.3062 6.23242 10.2966C6.2337 10.22 6.23587 10.3479 6.23633 10.3572C6.23975 10.4243 6.24196 10.4 6.24512 10.4002C6.24568 10.3943 6.24549 10.333 6.24609 10.3279C6.2499 10.3177 6.25409 10.3236 6.25781 10.3552C6.25861 10.363 6.25745 10.4219 6.25781 10.4295C6.25956 10.4576 6.26004 10.3431 6.26172 10.3679C6.26206 10.3733 6.26166 10.4237 6.26172 10.4304C6.26273 10.5201 6.26341 10.3932 6.26367 10.3904C6.26695 10.3522 6.26929 10.4844 6.27246 10.4656C6.27275 10.4595 6.27243 10.3985 6.27344 10.3953C6.28054 10.3771 6.28789 10.3954 6.29492 10.448C6.29596 10.457 6.29485 10.5055 6.29492 10.5115C6.29603 10.6054 6.29749 10.4817 6.29785 10.4744C6.30066 10.4398 6.30278 10.5463 6.30469 10.3943C6.31658 10.447 6.32902 10.3621 6.34082 10.4978C6.34097 10.4994 6.34055 10.5602 6.34082 10.5652C6.34443 10.6005 6.34332 10.503 6.3457 10.3836C6.34631 10.3538 6.34847 10.498 6.34863 10.5086C6.34921 10.5473 6.34845 10.6395 6.34863 10.6482C6.35027 10.7074 6.35034 10.3983 6.35254 10.3982C6.35261 10.3987 6.35235 10.456 6.35254 10.4617C6.35311 10.479 6.35296 10.4568 6.35352 10.4763C6.3548 10.5218 6.35547 10.6711 6.35742 10.5847C6.35767 10.5734 6.35741 10.3977 6.35938 10.406C6.36022 10.4092 6.3633 10.4065 6.36426 10.4177C6.36523 10.4292 6.36517 10.4856 6.36523 10.4881C6.36785 10.5626 6.36686 10.5936 6.36816 10.7039C6.36948 10.8141 6.36861 10.5516 6.36914 10.5222C6.36968 10.4933 6.37159 10.5543 6.37207 10.5759C6.37254 10.5972 6.37265 10.6328 6.37305 10.6453C6.37583 10.7246 6.37408 10.5151 6.375 10.4734C6.37716 10.3747 6.37888 10.5694 6.38086 10.5886C6.38115 10.5842 6.38049 10.5509 6.38086 10.5457C6.38274 10.5299 6.38458 10.59 6.38672 10.5349C6.38707 10.5258 6.38853 10.4085 6.38965 10.4939C6.38981 10.5063 6.38884 10.5553 6.38965 10.5662C6.39085 10.5824 6.39324 10.5929 6.39453 10.5769C6.39548 10.5649 6.39431 10.4849 6.39551 10.5095C6.39604 10.5206 6.39548 10.5678 6.39648 10.5847C6.39749 10.6014 6.39943 10.599 6.40039 10.5974C6.40126 10.593 6.40129 10.535 6.40137 10.531C6.40185 10.5076 6.40413 10.4782 6.4043 10.4783C6.41238 10.4751 6.41984 10.5727 6.42773 10.5398C6.42834 10.5373 6.42768 10.4778 6.42773 10.4724C6.4299 10.4456 6.42817 10.6156 6.42969 10.6726C6.42947 10.5427 6.43109 10.5658 6.43262 10.5515C6.43331 10.5435 6.43255 10.4941 6.43262 10.489C6.4337 10.4132 6.43438 10.5118 6.43457 10.532C6.43529 10.606 6.43603 10.5185 6.43652 10.5681C6.437 10.6158 6.43625 10.6855 6.4375 10.6892C6.43791 10.6426 6.43737 10.5216 6.43848 10.5017C6.44261 10.4282 6.44969 10.5201 6.45313 10.532C6.45649 10.5419 6.458 10.5337 6.45996 10.5506C6.46349 10.5808 6.46167 10.4902 6.46387 10.449C6.46604 10.4098 6.46551 10.6294 6.46582 10.6775C6.46613 10.7252 6.46641 10.6767 6.4668 10.7029C6.46717 10.729 6.46589 10.7615 6.4668 10.7713C6.46772 10.78 6.47038 10.6959 6.4707 10.6463C6.47138 10.5406 6.47026 10.4297 6.47266 10.4685C6.47279 10.4708 6.47216 10.5279 6.47266 10.5349C6.47686 10.5798 6.48116 10.5831 6.48535 10.6228C6.4859 10.6296 6.486 10.6931 6.48633 10.697C6.48982 10.7384 6.48832 10.6291 6.49023 10.5076C6.4898 10.6693 6.49149 10.7683 6.49414 10.7693C6.4956 10.7662 6.49509 10.6976 6.49609 10.6492C6.49641 10.6348 6.49784 10.6823 6.49805 10.6492C6.49871 10.5409 6.49729 10.42 6.5 10.4675C6.50012 10.4698 6.49962 10.5275 6.5 10.533C6.50267 10.5565 6.50298 10.4437 6.50586 10.4295C6.50811 10.4188 6.51206 10.4864 6.51465 10.4988C6.51459 10.6805 6.51756 10.6395 6.51855 10.5144C6.52018 10.5186 6.52187 10.5127 6.52344 10.5291C6.52399 10.5349 6.52337 10.5872 6.52344 10.5935C6.5245 10.6815 6.526 10.5645 6.52637 10.5564C6.53029 10.5099 6.53336 10.6019 6.53711 10.5115C6.53724 10.5049 6.5371 10.3834 6.53809 10.4744C6.53815 10.4809 6.5373 10.5383 6.53906 10.5427C6.54084 10.5486 6.54348 10.614 6.5459 10.5564C6.54649 10.5423 6.5486 10.44 6.5498 10.5193C6.54996 10.5301 6.54958 10.5664 6.5498 10.5867C6.55055 10.6508 6.55088 10.524 6.55176 10.6316C6.55264 10.7401 6.55417 10.8217 6.55664 10.7468C6.55673 10.7421 6.55783 10.6437 6.55859 10.6453C6.5598 10.6484 6.56124 10.6684 6.5625 10.6687C6.5631 10.6684 6.56341 10.6095 6.56348 10.6043C6.56764 10.569 6.56976 10.6249 6.57422 10.6492C6.57505 10.6528 6.57753 10.5684 6.5791 10.6355C6.58084 10.7096 6.57902 11.0179 6.58301 10.9451C6.58462 10.9157 6.58695 10.5245 6.58984 10.7273C6.59546 10.6771 6.60081 10.7803 6.60645 10.7088C6.6067 10.7056 6.6078 10.5963 6.6084 10.5974C6.60926 10.5998 6.60975 10.6482 6.61035 10.6541C6.61291 10.6689 6.61473 10.6292 6.61719 10.6326C6.61815 10.635 6.61803 10.6872 6.61914 10.6912C6.62029 10.6941 6.62149 10.6249 6.62305 10.658C6.62423 10.6836 6.62538 10.826 6.62695 10.8425C6.62701 10.7023 6.62797 10.7047 6.62988 10.6677C6.63022 10.6593 6.62971 10.612 6.62988 10.6062C6.63059 10.5813 6.63117 10.6212 6.63184 10.5945C6.632 10.588 6.63268 10.541 6.63281 10.532C6.63395 10.4615 6.63542 10.5689 6.63574 10.5877C6.63698 10.6588 6.63773 10.5967 6.63867 10.6248C6.6396 10.6528 6.63757 10.6879 6.63867 10.7048C6.6409 10.739 6.64419 10.7324 6.64648 10.7341C6.64727 10.7306 6.64735 10.672 6.64746 10.6697C6.64938 10.6535 6.65128 10.7213 6.65234 10.5945C6.65367 10.9224 6.65353 10.5634 6.65625 10.6277C6.65647 10.633 6.6561 10.7894 6.65527 10.8123C6.65444 10.8342 6.65349 10.7866 6.65234 10.822C6.65205 10.8334 6.6506 10.9764 6.65039 10.9851C6.64873 11.053 6.64853 10.8211 6.64844 10.8084C6.64744 10.6706 6.64503 10.8278 6.64453 10.8386C6.64224 10.8882 6.64059 10.8559 6.63867 10.8914C6.63749 10.914 6.63757 11.0513 6.63672 11.0613C6.63349 11.0432 6.63197 10.8354 6.62891 11.0183C6.62825 11.0581 6.62835 11.2232 6.62598 11.0925C6.62578 11.0813 6.62405 10.9661 6.62305 11.0408C6.62292 11.0506 6.62322 11.0992 6.62305 11.1033C6.62193 11.1288 6.62134 11.0907 6.62012 11.1091C6.61889 11.1277 6.61762 11.1549 6.61621 11.1384C6.61537 11.1273 6.61368 11.0384 6.61328 11.0164C6.61214 10.9527 6.61106 11.0568 6.61035 10.9802C6.60964 10.9026 6.61125 10.7843 6.60938 10.7341C6.60931 10.8602 6.60949 10.9902 6.60938 11.117C6.60526 11.1125 6.6008 11.0713 6.59668 11.0769C6.59617 11.0778 6.59625 11.1456 6.5957 11.1482C6.59341 11.1584 6.59222 11.1112 6.58984 11.1297C6.58799 11.1448 6.58593 11.217 6.58398 11.2351C6.58281 11.0919 6.57924 11.1389 6.57715 11.1267C6.57642 11.1222 6.57668 11.084 6.57617 11.0711C6.57421 11.0247 6.57475 11.1512 6.57422 11.1716C6.57199 11.2543 6.57181 10.9885 6.56934 10.9763C6.56911 10.9846 6.56764 11.1281 6.56738 11.1394C6.56585 11.2015 6.56734 11.0876 6.56641 11.075C6.56464 11.0542 6.56262 11.0172 6.56055 11.0623C6.55994 11.0756 6.55879 11.1715 6.55762 11.0974C6.55746 11.0878 6.55774 11.038 6.55762 11.034C6.55537 10.9843 6.555 11.1439 6.55371 11.198C6.55243 11.2521 6.55119 11.142 6.55078 11.1101C6.5499 11.0418 6.55034 11.0627 6.55078 11.0672C6.55145 10.9711 6.54993 10.9874 6.54883 10.9793C6.54786 11.133 6.5468 11.1522 6.54492 11.0086C6.54405 10.9413 6.54466 10.8637 6.54199 10.8923C6.54083 10.907 6.54108 11.0121 6.54004 11.0418C6.53761 11.1084 6.53474 11.0101 6.53223 11.0242C6.53131 11.0299 6.53188 11.0895 6.53125 11.0955C6.5296 11.1108 6.52802 11.0671 6.52637 11.0896C6.52622 11.0917 6.52681 11.1491 6.52637 11.1541C6.52244 11.1612 6.51875 11.122 6.51465 11.1209C6.51264 11.1223 6.50883 11.1539 6.50684 11.1472C6.50331 11.1339 6.49909 11.0466 6.49609 11.0681C6.49413 11.0823 6.49499 11.1443 6.49414 11.1863C6.4925 11.2673 6.48965 11.121 6.48926 11.0984C6.48896 11.0839 6.48506 11.0702 6.48438 11.0818C6.48401 11.0883 6.48457 11.1469 6.48438 11.1492C6.47983 11.2015 6.47531 11.2164 6.4707 11.1892C6.47062 11.1881 6.47087 11.1269 6.4707 11.1209C6.46803 11.0917 6.46607 11.1719 6.46387 11.2195C6.46167 11.2665 6.46029 11.2503 6.45898 11.1384C6.45732 11.1519 6.45449 11.1021 6.45313 11.072C6.45177 11.0435 6.45129 11.1701 6.45117 11.1726C6.44741 11.2528 6.44531 11.1801 6.44141 11.1687C6.43956 11.1632 6.43561 11.1812 6.43359 11.1951C6.432 11.2063 6.43115 11.1769 6.42969 11.1961C6.4295 11.1998 6.42975 11.2554 6.42969 11.2576C6.42806 11.3252 6.42905 11.1868 6.42871 11.1619C6.42749 11.0717 6.4269 11.0238 6.4248 11.0662C6.42432 11.0772 6.42275 11.2714 6.42188 11.2869C6.42073 11.3017 6.42112 11.2306 6.41992 11.2478C6.41982 11.2492 6.41967 11.2929 6.41895 11.2918C6.41552 11.2833 6.41176 11.2573 6.4082 11.2615C6.40773 11.2619 6.4088 11.3279 6.4082 11.3338C6.40491 11.342 6.40067 11.3399 6.39746 11.3074C6.39667 11.2991 6.39763 11.2498 6.39746 11.2351C6.39643 11.1488 6.39483 11.2696 6.39453 11.2771C6.38864 11.3386 6.38393 11.2233 6.37793 11.2781C6.3776 11.2813 6.37515 11.4185 6.37402 11.3015C6.37395 11.2937 6.37305 11.1731 6.37207 11.2547C6.37201 11.2598 6.37227 11.3214 6.37109 11.3162C6.36989 11.3099 6.36787 11.3511 6.36621 11.283C6.36568 11.2615 6.36485 11.1412 6.36328 11.2371C6.36318 11.2439 6.36024 11.4601 6.35938 11.3113C6.35924 11.2867 6.36026 11.1288 6.3584 11.2088C6.35804 11.2244 6.35835 11.2599 6.35742 11.282C6.35598 11.316 6.35432 11.274 6.35254 11.3445C6.35222 11.3575 6.35066 11.4638 6.34961 11.3826C6.34945 11.3696 6.34919 11.3173 6.34863 11.3113C6.34599 11.283 6.34351 11.318 6.34082 11.282C6.33987 11.2692 6.34082 11.1843 6.33984 11.1609C6.33885 11.138 6.336 11.116 6.33496 11.155C6.33394 11.1944 6.33552 11.3289 6.33398 11.3406C6.32721 11.3878 6.32024 11.3085 6.31348 11.2966C6.31271 11.3 6.31292 11.3436 6.31152 11.3445C6.30602 11.3496 6.29663 11.3912 6.29199 11.2898C6.28823 11.2071 6.29294 11.1438 6.29004 11.1101C6.28876 11.1218 6.28742 11.2531 6.28711 11.2576C6.28381 11.3082 6.28129 11.2381 6.27832 11.2595C6.27773 11.2639 6.27876 11.3243 6.27832 11.3308C6.27654 11.3419 6.27417 11.3139 6.27246 11.3191C6.27176 11.3228 6.27209 11.3669 6.27148 11.367C6.2698 11.3585 6.26824 11.3376 6.2666 11.2918C6.26645 11.2876 6.26776 11.2283 6.2666 11.2244C6.26459 11.2209 6.26209 11.1757 6.25977 11.2224C6.25908 11.2368 6.25831 11.348 6.25684 11.2713C6.25653 11.2551 6.25758 11.1209 6.25586 11.2371C6.25553 11.2583 6.25239 11.4115 6.25098 11.3113C6.25065 11.2881 6.24975 11.205 6.24902 11.1922C6.24891 11.1949 6.24873 11.2556 6.24805 11.2615C6.24566 11.2804 6.24366 11.2745 6.24121 11.2927C6.24055 11.2978 6.24118 11.3594 6.24023 11.366C6.23752 11.3817 6.2341 11.3659 6.23145 11.3465C6.23049 11.3387 6.23152 11.2876 6.23145 11.282C6.23031 11.1915 6.2289 11.3127 6.22852 11.3211C6.22615 11.3641 6.22484 11.3067 6.22266 11.322C6.22212 11.3283 6.22276 11.3829 6.22266 11.3894C6.22142 11.4402 6.22244 11.3368 6.22168 11.324C6.21948 11.2911 6.2161 11.296 6.21387 11.3035C6.21318 11.31 6.21455 11.373 6.21387 11.3757C6.20952 11.3875 6.20444 11.381 6.2002 11.3435C6.1994 11.3364 6.20035 11.2849 6.2002 11.2722C6.19905 11.1885 6.19765 11.3023 6.19727 11.3132C6.19581 11.3543 6.19444 11.3298 6.19336 11.325C6.18583 11.3677 6.17609 11.3381 6.16895 11.3191C6.15961 11.2947 6.15246 11.2446 6.14355 11.2576C6.14309 11.262 6.14296 11.3228 6.14258 11.3289C6.13632 11.3456 6.13029 11.3192 6.12402 11.3386C6.12352 11.3401 6.12379 11.4035 6.12305 11.4109C6.12134 11.421 6.11989 11.4174 6.11816 11.3963C6.1174 11.3851 6.11797 11.3309 6.11719 11.3211C6.11522 11.2998 6.11335 11.2948 6.11133 11.3054C6.11048 11.3104 6.11147 11.3779 6.11035 11.3787C6.10279 11.3854 6.09554 11.3961 6.08789 11.3093C6.08746 11.3044 6.08668 11.2112 6.08594 11.1922C6.08585 11.2303 6.085 11.2754 6.08496 11.3162C6.07393 11.3372 6.06283 11.2903 6.05176 11.283C6.05138 11.2867 6.05259 11.3539 6.05176 11.3552C6.0465 11.3542 6.04151 11.3739 6.03613 11.3015C6.03563 11.2914 6.03573 11.1672 6.03418 11.1863C6.03384 11.1902 6.03089 11.207 6.03027 11.2341C6.03019 11.2383 6.03104 11.2988 6.03027 11.3006C6.02589 11.3091 6.02097 11.2954 6.0166 11.2595C6.01589 11.2535 6.01711 11.1892 6.0166 11.1843C6.013 11.151 6.00833 11.1991 6.00488 11.1414C6.00258 11.1024 6.00416 10.9919 6.00293 10.8836C6.00273 10.8687 6.00105 10.8657 6.00098 10.8035C6.00079 10.645 6.00126 10.4714 6.00098 10.3025C6.00092 10.2662 5.99888 10.3049 6 10.2175C6.00008 10.2117 6.00161 10.1819 6.00195 10.1521L6.00293 10.0408C6.00323 10.0471 6.0035 10.0525 6.00391 10.0369C6.00469 10.0053 6.00526 9.9336 6.00684 9.92458ZM6.00684 10.8504C6.00629 10.9215 6.00922 10.9272 6.00879 10.8533C6.00877 10.8503 6.00686 10.8474 6.00684 10.8504ZM6.66699 10.5769C6.66731 10.5943 6.6644 10.7422 6.66406 10.7478L6.66309 10.5838C6.66399 10.5559 6.66589 10.5284 6.66699 10.5769ZM6.44531 10.6658C6.44477 10.7366 6.44672 10.7417 6.44629 10.6677C6.44618 10.6649 6.44534 10.663 6.44531 10.6658ZM6.33496 10.5535C6.33374 10.6696 6.33894 10.6815 6.33789 10.5593C6.3378 10.5531 6.33504 10.5477 6.33496 10.5535ZM6.66309 10.5838C6.66234 10.6066 6.66202 10.6294 6.66113 10.6101C6.66006 10.5866 6.66289 10.5093 6.66211 10.5027L6.66309 10.5838Z" fill="#555961"/>
<path d="M9.34017 4.59108C9.3439 4.57154 9.34817 4.59268 9.35189 4.62135C9.35297 4.63082 9.35311 4.66828 9.35384 4.67702C9.35541 4.69241 9.3562 4.67365 9.35775 4.69167C9.35825 4.69783 9.35824 4.75849 9.35872 4.76588C9.36168 4.79362 9.36452 4.77813 9.36751 4.79127C9.38224 4.85705 9.39655 4.8809 9.41146 4.90944C9.41639 4.91883 9.42199 4.9762 9.42708 4.95143C9.42767 4.94851 9.42796 4.89521 9.42806 4.88893C9.42984 4.81919 9.42885 4.93075 9.43001 4.94557C9.43461 5.00387 9.44024 5.00886 9.44466 4.98756C9.44652 4.9778 9.44473 4.869 9.44661 4.92995C9.44675 4.93411 9.4461 4.99296 9.44661 4.99928C9.44774 5.01281 9.44955 5.00372 9.45052 5.0071C9.45227 5.01634 9.45278 5.0162 9.45443 5.01686C9.45668 5.01828 9.45982 5.04734 9.46224 5.03444C9.46275 5.03147 9.46146 4.97261 9.46224 4.9612C9.46307 4.95097 9.46541 4.9558 9.46615 4.96999C9.46687 4.98436 9.46699 5.03145 9.46712 5.04225C9.46817 5.13166 9.47062 5.01211 9.47103 5.00417C9.47697 4.95077 9.48205 5.02293 9.48763 5.02272C9.4918 5.02164 9.49637 4.99802 9.50032 5.00124C9.50512 5.00536 9.50934 5.03809 9.514 5.03249C9.51442 5.02847 9.51341 4.96098 9.514 4.96022C9.52034 4.95224 9.52721 4.96061 9.53353 5.00807C9.53411 5.01458 9.53291 5.07449 9.53353 5.08327C9.53743 5.13432 9.54391 5.25704 9.54622 4.98659C9.54886 4.99713 9.55168 5.00832 9.55404 5.06276C9.55555 5.0979 9.55412 5.16483 9.55599 5.136C9.55636 5.12771 9.55636 5.07114 9.55697 5.06569C9.55963 5.04399 9.56214 5.0631 9.56478 5.03249C9.56531 5.0259 9.5656 4.97269 9.56575 4.96315C9.56703 4.88649 9.5692 5.01441 9.56966 5.0237C9.57308 5.09076 9.57529 5.06647 9.57845 5.06667C9.57901 5.06077 9.57882 4.99949 9.57943 4.9944C9.58323 4.98418 9.58742 4.99009 9.59115 5.02174C9.59194 5.02946 9.59078 5.08845 9.59115 5.09596C9.59289 5.12412 9.59338 5.00964 9.59505 5.03444C9.59539 5.03981 9.59499 5.09017 9.59505 5.09694C9.59606 5.18661 9.59675 5.0597 9.597 5.0569C9.60028 5.01875 9.60263 5.15087 9.60579 5.1321C9.60609 5.12605 9.60576 5.06498 9.60677 5.06178C9.61387 5.04361 9.62123 5.06188 9.62825 5.11452C9.62929 5.12349 9.62819 5.17197 9.62825 5.17799C9.62936 5.27191 9.63082 5.14819 9.63118 5.14088C9.634 5.1063 9.63611 5.21278 9.63802 5.06081C9.64992 5.11351 9.66235 5.02858 9.67415 5.16432C9.6743 5.16587 9.67388 5.22673 9.67415 5.2317C9.67776 5.26699 9.67665 5.16951 9.67904 5.05006C9.67964 5.0203 9.6818 5.1645 9.68197 5.17506C9.68255 5.21383 9.68178 5.306 9.68197 5.31471C9.6836 5.37395 9.68367 5.06481 9.68587 5.06471C9.68594 5.06523 9.68569 5.12253 9.68587 5.12819C9.68644 5.14547 9.68629 5.12335 9.68685 5.14284C9.68813 5.18827 9.6888 5.33764 9.69075 5.25124C9.691 5.23989 9.69074 5.06424 9.69271 5.07252C9.69356 5.07574 9.69663 5.07304 9.69759 5.08424C9.69856 5.09568 9.6985 5.15211 9.69857 5.15456C9.70118 5.22913 9.70019 5.26014 9.7015 5.37038C9.70281 5.4806 9.70194 5.21808 9.70247 5.18874C9.70301 5.15977 9.70492 5.22084 9.7054 5.24245C9.70587 5.26369 9.70598 5.29932 9.70638 5.31178C9.70916 5.39106 9.70742 5.18163 9.70833 5.13991C9.71049 5.04124 9.71222 5.23588 9.71419 5.25514C9.71448 5.25073 9.71382 5.21743 9.71419 5.21217C9.71607 5.19635 9.71792 5.25649 9.72005 5.20143C9.7204 5.19235 9.72186 5.07497 9.72298 5.16042C9.72314 5.17282 9.72218 5.2218 9.72298 5.23268C9.72418 5.24893 9.72657 5.25944 9.72786 5.24342C9.72882 5.23142 9.72765 5.15139 9.72884 5.17604C9.72937 5.18714 9.72882 5.23428 9.72982 5.25124C9.73082 5.26791 9.73276 5.26554 9.73372 5.26393C9.7346 5.25951 9.73462 5.20151 9.7347 5.19752C9.73518 5.17414 9.73747 5.14472 9.73763 5.14479C9.74571 5.14164 9.75317 5.23921 9.76107 5.20631C9.76168 5.20384 9.76101 5.1443 9.76107 5.13893C9.76323 5.1121 9.76151 5.28214 9.76302 5.33913C9.7628 5.20918 9.76442 5.23228 9.76595 5.21803C9.76665 5.21004 9.76588 5.16062 9.76595 5.15553C9.76704 5.07973 9.76771 5.17834 9.7679 5.1985C9.76862 5.2725 9.76937 5.18502 9.76986 5.23463C9.77033 5.28226 9.76958 5.35196 9.77083 5.35573C9.77124 5.30913 9.77071 5.18811 9.77181 5.16823C9.77595 5.09467 9.78302 5.18659 9.78646 5.1985C9.78982 5.2084 9.79133 5.20025 9.79329 5.21706C9.79683 5.24729 9.795 5.15675 9.7972 5.11549C9.79937 5.07631 9.79884 5.29592 9.79915 5.34401C9.79946 5.39169 9.79974 5.34319 9.80013 5.3694C9.8005 5.39555 9.79923 5.42796 9.80013 5.43776C9.80105 5.44654 9.80371 5.36238 9.80404 5.31276C9.80472 5.20715 9.80359 5.09625 9.80599 5.13502C9.80613 5.13731 9.80549 5.19437 9.80599 5.20143C9.81019 5.24635 9.81449 5.24959 9.81868 5.28932C9.81923 5.29612 9.81933 5.35962 9.81966 5.36354C9.82315 5.40493 9.82165 5.29559 9.82357 5.17409C9.82314 5.33583 9.82482 5.43485 9.82747 5.43581C9.82893 5.43274 9.82842 5.36415 9.82943 5.31569C9.82974 5.30135 9.83118 5.34876 9.83138 5.31569C9.83205 5.2074 9.83062 5.0865 9.83333 5.13405C9.83345 5.13631 9.83295 5.19399 9.83333 5.19948C9.83601 5.22299 9.83631 5.11017 9.83919 5.09596C9.84144 5.08529 9.84539 5.15287 9.84798 5.1653C9.84793 5.347 9.85089 5.30601 9.85189 5.18092C9.85351 5.18515 9.85521 5.17916 9.85677 5.19557C9.85732 5.20144 9.85671 5.25375 9.85677 5.26002C9.85783 5.34798 9.85933 5.23096 9.8597 5.22292C9.86363 5.17641 9.86669 5.26838 9.87044 5.17799C9.87058 5.17135 9.87043 5.04995 9.87142 5.14088C9.87148 5.14741 9.87064 5.20481 9.8724 5.20924C9.87417 5.21511 9.87681 5.28052 9.87923 5.22292C9.87982 5.20885 9.88194 5.10649 9.88314 5.18581C9.8833 5.19662 9.88291 5.23295 9.88314 5.25319C9.88388 5.31735 9.88421 5.19047 9.88509 5.29811C9.88597 5.40661 9.8875 5.48821 9.88997 5.41335C9.89006 5.40859 9.89116 5.3102 9.89193 5.31178C9.89313 5.31491 9.89457 5.33495 9.89583 5.33522C9.89643 5.33488 9.89674 5.27604 9.89681 5.27077C9.90098 5.23554 9.90309 5.29137 9.90755 5.31569C9.90838 5.31931 9.91086 5.23489 9.91243 5.30202C9.91417 5.37614 9.91236 5.68445 9.91634 5.61159C9.91795 5.58218 9.92028 5.19097 9.92318 5.39381C9.92879 5.34358 9.93415 5.4468 9.93978 5.37526C9.94003 5.37208 9.94114 5.26282 9.94173 5.26393C9.94259 5.26628 9.94308 5.31471 9.94368 5.32057C9.94624 5.33543 9.94806 5.29572 9.95052 5.29909C9.95148 5.30153 9.95136 5.35372 9.95247 5.35768C9.95363 5.36058 9.95482 5.29137 9.95638 5.32448C9.95756 5.35008 9.95872 5.49248 9.96029 5.50905C9.96035 5.36885 9.9613 5.37125 9.96322 5.33424C9.96355 5.32576 9.96304 5.27853 9.96322 5.27272C9.96392 5.24778 9.9645 5.28773 9.96517 5.261C9.96533 5.25451 9.96602 5.20748 9.96615 5.1985C9.96728 5.12799 9.96875 5.23541 9.96907 5.25417C9.97031 5.32527 9.97106 5.26324 9.972 5.29127C9.97294 5.31928 9.9709 5.35438 9.972 5.37135C9.97423 5.40553 9.97752 5.39895 9.97982 5.40065C9.98061 5.39713 9.98068 5.33846 9.98079 5.3362C9.98271 5.32 9.98461 5.38776 9.98568 5.261C9.987 5.58888 9.98686 5.22995 9.98958 5.2942C9.9898 5.29953 9.98943 5.45592 9.98861 5.47877C9.98778 5.50068 9.98682 5.45312 9.98568 5.48854C9.98538 5.49987 9.98393 5.64289 9.98372 5.65163C9.98206 5.71948 9.98186 5.48762 9.98177 5.47487C9.98077 5.33709 9.97837 5.49429 9.97786 5.50514C9.97557 5.55473 9.97392 5.52239 9.972 5.55788C9.97083 5.58053 9.97091 5.71776 9.97005 5.7278C9.96683 5.70969 9.96531 5.50187 9.96224 5.68483C9.96158 5.72458 9.96168 5.88972 9.95931 5.75905C9.95912 5.74779 9.95738 5.63262 9.95638 5.70729C9.95625 5.71708 9.95655 5.76573 9.95638 5.76979C9.95526 5.79529 9.95467 5.75724 9.95345 5.77565C9.95222 5.79417 9.95095 5.82139 9.94954 5.80495C9.9487 5.7938 9.94702 5.70487 9.94661 5.68288C9.94547 5.6192 9.94439 5.72332 9.94368 5.64674C9.94297 5.56913 9.94458 5.4508 9.94271 5.40065C9.94264 5.52674 9.94282 5.65665 9.94271 5.78346C9.9386 5.77902 9.93414 5.73785 9.93001 5.74342C9.9295 5.74426 9.92958 5.81209 9.92904 5.81471C9.92675 5.82488 9.92555 5.77768 9.92318 5.79616C9.92132 5.81131 9.91926 5.88354 9.91732 5.90163C9.91614 5.7584 9.91257 5.80542 9.91048 5.79323C9.90975 5.78871 9.91001 5.75047 9.9095 5.73756C9.90754 5.69117 9.90808 5.81766 9.90755 5.83815C9.90532 5.92082 9.90514 5.65496 9.90267 5.64284C9.90244 5.65113 9.90097 5.79461 9.90072 5.80592C9.89918 5.86797 9.90067 5.75415 9.89974 5.74147C9.89797 5.7207 9.89595 5.68372 9.89388 5.72877C9.89328 5.74212 9.89212 5.83798 9.89095 5.76393C9.8908 5.75434 9.89107 5.70453 9.89095 5.70045C9.8887 5.65083 9.88833 5.81036 9.88704 5.86452C9.88576 5.91859 9.88452 5.80847 9.88411 5.77663C9.88324 5.70828 9.88367 5.72925 9.88411 5.73366C9.88479 5.63762 9.88327 5.65388 9.88216 5.64577C9.88119 5.79946 9.88013 5.81869 9.87825 5.67506C9.87739 5.60785 9.87799 5.5302 9.87532 5.55885C9.87416 5.57354 9.87441 5.67863 9.87337 5.70827C9.87095 5.77489 9.86807 5.67657 9.86556 5.69069C9.86465 5.69644 9.86521 5.75601 9.86458 5.76198C9.86294 5.77732 9.86136 5.73362 9.8597 5.75612C9.85955 5.75817 9.86014 5.81565 9.8597 5.82057C9.85577 5.82775 9.85208 5.78847 9.84798 5.78737C9.84597 5.78885 9.84216 5.82038 9.84017 5.81374C9.83664 5.80042 9.83243 5.71308 9.82943 5.73463C9.82746 5.7488 9.82832 5.81078 9.82747 5.8528C9.82583 5.93377 9.82298 5.78753 9.82259 5.76491C9.82229 5.75042 9.81839 5.7367 9.81771 5.74831C9.81734 5.75476 9.8179 5.81343 9.81771 5.81569C9.81316 5.86801 9.80865 5.88292 9.80404 5.85573C9.80396 5.85459 9.8042 5.79344 9.80404 5.78737C9.80136 5.75824 9.79941 5.83842 9.7972 5.886C9.79501 5.93296 9.79362 5.91682 9.79232 5.80495C9.79065 5.81843 9.78782 5.76857 9.78646 5.73854C9.7851 5.71001 9.78462 5.83662 9.7845 5.83913C9.78074 5.91935 9.77865 5.84657 9.77474 5.83522C9.77289 5.82975 9.76895 5.84771 9.76693 5.86159C9.76534 5.87282 9.76449 5.84345 9.76302 5.86256C9.76283 5.86635 9.76308 5.92193 9.76302 5.92409C9.76139 5.99172 9.76238 5.85334 9.76204 5.82838C9.76082 5.73822 9.76023 5.69027 9.75814 5.73268C9.75765 5.74372 9.75609 5.9379 9.75521 5.95338C9.75406 5.9682 9.75445 5.89714 9.75325 5.91432C9.75315 5.91573 9.753 5.95942 9.75228 5.95827C9.74885 5.94983 9.74509 5.92379 9.74154 5.92799C9.74106 5.92841 9.74214 5.99439 9.74154 6.00026C9.73824 6.00854 9.73401 6.00638 9.73079 5.97389C9.73 5.96561 9.73096 5.91629 9.73079 5.90163C9.72976 5.81534 9.72816 5.93607 9.72786 5.94362C9.72197 6.00513 9.71727 5.88977 9.71126 5.9446C9.71094 5.94783 9.70848 6.08502 9.70736 5.96803C9.70728 5.96021 9.70638 5.83965 9.7054 5.92116C9.70534 5.92627 9.7056 5.98795 9.70443 5.98268C9.70322 5.97637 9.70121 6.01761 9.69954 5.94948C9.69902 5.928 9.69818 5.80774 9.69661 5.90358C9.69651 5.91036 9.69357 6.12662 9.69271 5.9778C9.69257 5.95324 9.69359 5.79527 9.69173 5.87526C9.69137 5.89091 9.69168 5.92644 9.69075 5.9485C9.68931 5.98247 9.68765 5.94052 9.68587 6.011C9.68556 6.02402 9.684 6.13035 9.68294 6.04909C9.68278 6.0361 9.68252 5.98383 9.68197 5.9778C9.67932 5.94953 9.67684 5.9845 9.67415 5.9485C9.6732 5.93573 9.67415 5.85085 9.67318 5.82741C9.67218 5.80453 9.66934 5.78252 9.66829 5.82155C9.66727 5.86095 9.66885 5.9954 9.66732 6.0071C9.66054 6.05433 9.65358 5.97499 9.64681 5.96315C9.64604 5.96654 9.64625 6.01013 9.64486 6.011C9.63935 6.01615 9.62997 6.0577 9.62532 5.95631C9.62156 5.87361 9.62627 5.8103 9.62337 5.77663C9.62209 5.78826 9.62075 5.91956 9.62044 5.92409C9.61714 5.97466 9.61462 5.90458 9.61165 5.92604C9.61106 5.93036 9.61209 5.99076 9.61165 5.99733C9.60987 6.00845 9.6075 5.98037 9.60579 5.98561C9.60509 5.98927 9.60542 6.03337 9.60482 6.03346C9.60313 6.02498 9.60158 6.00415 9.59993 5.95827C9.59979 5.95415 9.6011 5.89481 9.59993 5.89088C9.59792 5.88739 9.59542 5.84216 9.5931 5.88893C9.59241 5.90332 9.59164 6.01451 9.59017 5.93776C9.58986 5.92161 9.59092 5.78743 9.58919 5.90358C9.58887 5.92476 9.58572 6.07802 9.58431 5.9778C9.58399 5.95464 9.58308 5.87153 9.58236 5.85866C9.58224 5.86142 9.58207 5.92213 9.58138 5.92799C9.579 5.94691 9.57699 5.94103 9.57454 5.95924C9.57389 5.96435 9.57451 6.02588 9.57357 6.03249C9.57085 6.04821 9.56744 6.03243 9.56478 6.01295C9.56382 6.00521 9.56485 5.95408 9.56478 5.9485C9.56364 5.85796 9.56223 5.9792 9.56185 5.98756C9.55948 6.03056 9.55817 5.97323 9.55599 5.98854C9.55545 5.99482 9.55609 6.04936 9.55599 6.05592C9.55475 6.10674 9.55577 6.00328 9.55501 5.99049C9.55281 5.95758 9.54943 5.96248 9.5472 5.96999C9.54651 5.97646 9.54788 6.03947 9.5472 6.04225C9.54285 6.05398 9.53777 6.04754 9.53353 6.01002C9.53274 6.00291 9.53368 5.95139 9.53353 5.93874C9.53238 5.85497 9.53099 5.96883 9.5306 5.97975C9.52914 6.02085 9.52778 5.99632 9.52669 5.99147C9.51916 6.03421 9.50942 6.00461 9.50228 5.98561C9.49294 5.9612 9.48579 5.91114 9.47689 5.92409C9.47642 5.92851 9.47629 5.98928 9.47591 5.99538C9.46965 6.01208 9.46363 5.98575 9.45736 6.00514C9.45685 6.00663 9.45712 6.07003 9.45638 6.07741C9.45467 6.08747 9.45322 6.08387 9.4515 6.06276C9.45073 6.05159 9.45131 5.9974 9.45052 5.98756C9.44855 5.96629 9.44669 5.96134 9.44466 5.97194C9.44381 5.97686 9.4448 6.0444 9.44368 6.04518C9.43612 6.0519 9.42887 6.06258 9.42122 5.97585C9.42079 5.97092 9.42001 5.8777 9.41927 5.85866C9.41919 5.89679 9.41833 5.94193 9.41829 5.98268C9.40726 6.00367 9.39616 5.9568 9.38509 5.94948C9.38471 5.95324 9.38593 6.02036 9.38509 6.02174C9.37983 6.02067 9.37485 6.04041 9.36947 5.96803C9.36896 5.95794 9.36907 5.83368 9.36751 5.8528C9.36717 5.85673 9.36422 5.87354 9.36361 5.90065C9.36352 5.90484 9.36437 5.96531 9.36361 5.96706C9.35922 5.97556 9.35431 5.96193 9.34993 5.92604C9.34922 5.92003 9.35044 5.85568 9.34993 5.85085C9.34633 5.81751 9.34166 5.86556 9.33822 5.80788C9.33591 5.7689 9.33749 5.65837 9.33626 5.55006C9.33606 5.53521 9.33439 5.53218 9.33431 5.46999C9.33412 5.31155 9.33459 5.13789 9.33431 4.96901C9.33425 4.93268 9.33221 4.97139 9.33333 4.88405C9.33341 4.87816 9.33494 4.84845 9.33529 4.81862L9.33626 4.70729C9.33656 4.71361 9.33683 4.71903 9.33724 4.70338C9.33803 4.67184 9.33859 4.6001 9.34017 4.59108ZM9.34017 5.51686C9.33962 5.58798 9.34256 5.59372 9.34212 5.51979C9.3421 5.51681 9.34019 5.51391 9.34017 5.51686ZM10.0003 5.24342C10.0006 5.26082 9.99773 5.40865 9.9974 5.41432L9.99642 5.25026C9.99733 5.22241 9.99922 5.19487 10.0003 5.24342ZM9.77865 5.33229C9.7781 5.40307 9.78005 5.40817 9.77962 5.33424C9.77951 5.33144 9.77867 5.32949 9.77865 5.33229ZM9.66829 5.21999C9.66707 5.33607 9.67227 5.34805 9.67122 5.22585C9.67113 5.21958 9.66837 5.21421 9.66829 5.21999ZM9.99642 5.25026C9.99567 5.27309 9.99535 5.29593 9.99447 5.27663C9.9934 5.25314 9.99622 5.17578 9.99544 5.1692L9.99642 5.25026Z" fill="#555961"/>
<path d="M9.34017 7.25783C9.3439 7.23829 9.34817 7.25942 9.35189 7.2881C9.35297 7.29756 9.35311 7.33503 9.35384 7.34377C9.35541 7.35916 9.3562 7.3404 9.35775 7.35841C9.35825 7.36458 9.35824 7.42524 9.35872 7.43263C9.36168 7.46037 9.36452 7.44488 9.36751 7.45802C9.38224 7.5238 9.39655 7.54765 9.41146 7.57619C9.41639 7.58558 9.42199 7.64295 9.42708 7.61818C9.42767 7.61526 9.42796 7.56196 9.42806 7.55568C9.42984 7.48594 9.42885 7.59749 9.43001 7.61232C9.43461 7.67061 9.44024 7.67561 9.44466 7.65431C9.44652 7.64455 9.44473 7.53575 9.44661 7.59669C9.44675 7.60086 9.4461 7.65971 9.44661 7.66603C9.44774 7.67956 9.44955 7.67046 9.45052 7.67384C9.45227 7.68309 9.45278 7.68295 9.45443 7.68361C9.45668 7.68503 9.45982 7.71409 9.46224 7.70119C9.46275 7.69821 9.46146 7.63936 9.46224 7.62794C9.46307 7.61772 9.46541 7.62255 9.46615 7.63673C9.46687 7.65111 9.46699 7.6982 9.46712 7.709C9.46817 7.79841 9.47062 7.67886 9.47103 7.67091C9.47697 7.61751 9.48205 7.68967 9.48763 7.68947C9.4918 7.68839 9.49637 7.66477 9.50032 7.66798C9.50512 7.67211 9.50934 7.70484 9.514 7.69923C9.51442 7.69522 9.51341 7.62773 9.514 7.62697C9.52034 7.61899 9.52721 7.62736 9.53353 7.67482C9.53411 7.68133 9.53291 7.74123 9.53353 7.75002C9.53743 7.80106 9.54391 7.92378 9.54622 7.65334C9.54886 7.66388 9.55168 7.67507 9.55404 7.72951C9.55555 7.76464 9.55412 7.83158 9.55599 7.80275C9.55636 7.79446 9.55636 7.73789 9.55697 7.73244C9.55963 7.71074 9.56214 7.72985 9.56478 7.69923C9.56531 7.69265 9.5656 7.63944 9.56575 7.6299C9.56703 7.55323 9.5692 7.68116 9.56966 7.69044C9.57308 7.75751 9.57529 7.73321 9.57845 7.73341C9.57901 7.72752 9.57882 7.66624 9.57943 7.66115C9.58323 7.65093 9.58742 7.65684 9.59115 7.68849C9.59194 7.6962 9.59078 7.7552 9.59115 7.76271C9.59289 7.79087 9.59338 7.67639 9.59505 7.70119C9.59539 7.70656 9.59499 7.75692 9.59505 7.76369C9.59606 7.85336 9.59675 7.72645 9.597 7.72365C9.60028 7.6855 9.60263 7.81762 9.60579 7.79884C9.60609 7.79279 9.60576 7.73173 9.60677 7.72853C9.61387 7.71036 9.62123 7.72862 9.62825 7.78127C9.62929 7.79024 9.62819 7.83872 9.62825 7.84474C9.62936 7.93866 9.63082 7.81494 9.63118 7.80763C9.634 7.77304 9.63611 7.87952 9.63802 7.72755C9.64992 7.78026 9.66235 7.69533 9.67415 7.83107C9.6743 7.83262 9.67388 7.89348 9.67415 7.89845C9.67776 7.93374 9.67665 7.83626 9.67904 7.71681C9.67964 7.68705 9.6818 7.83125 9.68197 7.84181C9.68255 7.88058 9.68178 7.97275 9.68197 7.98146C9.6836 8.0407 9.68367 7.73156 9.68587 7.73146C9.68594 7.73198 9.68569 7.78928 9.68587 7.79494C9.68644 7.81222 9.68629 7.79009 9.68685 7.80959C9.68813 7.85501 9.6888 8.00439 9.69075 7.91798C9.691 7.90664 9.69074 7.73099 9.69271 7.73927C9.69356 7.74249 9.69663 7.73979 9.69759 7.75099C9.69856 7.76242 9.6985 7.81886 9.69857 7.8213C9.70118 7.89588 9.70019 7.92689 9.7015 8.03712C9.70281 8.14734 9.70194 7.88483 9.70247 7.85548C9.70301 7.82652 9.70492 7.88759 9.7054 7.90919C9.70587 7.93044 9.70598 7.96607 9.70638 7.97853C9.70916 8.05781 9.70742 7.84838 9.70833 7.80666C9.71049 7.70798 9.71222 7.90263 9.71419 7.92189C9.71448 7.91748 9.71382 7.88418 9.71419 7.87892C9.71607 7.8631 9.71792 7.92324 9.72005 7.86818C9.7204 7.8591 9.72186 7.74172 9.72298 7.82716C9.72314 7.83957 9.72218 7.88855 9.72298 7.89943C9.72418 7.91568 9.72657 7.92619 9.72786 7.91017C9.72882 7.89817 9.72765 7.81814 9.72884 7.84279C9.72937 7.85389 9.72882 7.90103 9.72982 7.91798C9.73082 7.93465 9.73276 7.93229 9.73372 7.93068C9.7346 7.92626 9.73462 7.86826 9.7347 7.86427C9.73518 7.84088 9.73747 7.81147 9.73763 7.81154C9.74571 7.80839 9.75317 7.90596 9.76107 7.87306C9.76168 7.87059 9.76101 7.81105 9.76107 7.80568C9.76323 7.77885 9.76151 7.94889 9.76302 8.00587C9.7628 7.87593 9.76442 7.89903 9.76595 7.88478C9.76665 7.87679 9.76588 7.82736 9.76595 7.82228C9.76704 7.74647 9.76771 7.84509 9.7679 7.86525C9.76862 7.93925 9.76937 7.85177 9.76986 7.90138C9.77033 7.94901 9.76958 8.01871 9.77083 8.02248C9.77124 7.97588 9.77071 7.85486 9.77181 7.83498C9.77595 7.76142 9.78302 7.85333 9.78646 7.86525C9.78982 7.87515 9.79133 7.86699 9.79329 7.8838C9.79683 7.91404 9.795 7.8235 9.7972 7.78224C9.79937 7.74306 9.79884 7.96267 9.79915 8.01076C9.79946 8.05844 9.79974 8.00994 9.80013 8.03615C9.8005 8.0623 9.79923 8.09471 9.80013 8.10451C9.80105 8.11329 9.80371 8.02913 9.80404 7.97951C9.80472 7.8739 9.80359 7.763 9.80599 7.80177C9.80613 7.80406 9.80549 7.86112 9.80599 7.86818C9.81019 7.9131 9.81449 7.91634 9.81868 7.95607C9.81923 7.96286 9.81933 8.02637 9.81966 8.03029C9.82315 8.07167 9.82165 7.96234 9.82357 7.84084C9.82314 8.00258 9.82482 8.1016 9.82747 8.10255C9.82893 8.09949 9.82842 8.0309 9.82943 7.98244C9.82974 7.9681 9.83118 8.01551 9.83138 7.98244C9.83205 7.87415 9.83062 7.75325 9.83333 7.8008C9.83345 7.80306 9.83295 7.86074 9.83333 7.86623C9.83601 7.88974 9.83631 7.77691 9.83919 7.76271C9.84144 7.75204 9.84539 7.81962 9.84798 7.83205C9.84793 8.01375 9.85089 7.97276 9.85189 7.84767C9.85351 7.8519 9.85521 7.84591 9.85677 7.86232C9.85732 7.86819 9.85671 7.9205 9.85677 7.92677C9.85783 8.01473 9.85933 7.89771 9.8597 7.88966C9.86363 7.84316 9.86669 7.93513 9.87044 7.84474C9.87058 7.8381 9.87043 7.7167 9.87142 7.80763C9.87148 7.81416 9.87064 7.87155 9.8724 7.87599C9.87417 7.88186 9.87681 7.94727 9.87923 7.88966C9.87982 7.87559 9.88194 7.77324 9.88314 7.85255C9.8833 7.86337 9.88291 7.8997 9.88314 7.91994C9.88388 7.9841 9.88421 7.85722 9.88509 7.96486C9.88597 8.07336 9.8875 8.15495 9.88997 8.08009C9.89006 8.07534 9.89116 7.97695 9.89193 7.97853C9.89313 7.98166 9.89457 8.00169 9.89583 8.00197C9.89643 8.00163 9.89674 7.94279 9.89681 7.93752C9.90098 7.90229 9.90309 7.95812 9.90755 7.98244C9.90838 7.98606 9.91086 7.90163 9.91243 7.96877C9.91417 8.04289 9.91236 8.35119 9.91634 8.27834C9.91795 8.24893 9.92028 7.85772 9.92318 8.06056C9.92879 8.01033 9.93415 8.11355 9.93978 8.04201C9.94003 8.03883 9.94114 7.92956 9.94173 7.93068C9.94259 7.93303 9.94308 7.98146 9.94368 7.98732C9.94624 8.00218 9.94806 7.96247 9.95052 7.96584C9.95148 7.96828 9.95136 8.02047 9.95247 8.02443C9.95363 8.02733 9.95482 7.95812 9.95638 7.99123C9.95756 8.01682 9.95872 8.15923 9.96029 8.1758C9.96035 8.0356 9.9613 8.038 9.96322 8.00099C9.96355 7.99251 9.96304 7.94528 9.96322 7.93947C9.96392 7.91453 9.9645 7.95448 9.96517 7.92775C9.96533 7.92126 9.96602 7.87422 9.96615 7.86525C9.96728 7.79474 9.96875 7.90216 9.96907 7.92091C9.97031 7.99202 9.97106 7.92999 9.972 7.95802C9.97294 7.98603 9.9709 8.02112 9.972 8.0381C9.97423 8.07228 9.97752 8.0657 9.97982 8.0674C9.98061 8.06388 9.98068 8.0052 9.98079 8.00294C9.98271 7.98675 9.98461 8.05451 9.98568 7.92775C9.987 8.25563 9.98686 7.8967 9.98958 7.96095C9.9898 7.96628 9.98943 8.12267 9.98861 8.14552C9.98778 8.16743 9.98682 8.11987 9.98568 8.15529C9.98538 8.16661 9.98393 8.30964 9.98372 8.31837C9.98206 8.38623 9.98186 8.15437 9.98177 8.14162C9.98077 8.00384 9.97837 8.16103 9.97786 8.17189C9.97557 8.22148 9.97392 8.18914 9.972 8.22462C9.97083 8.24728 9.97091 8.38451 9.97005 8.39455C9.96683 8.37644 9.96531 8.16862 9.96224 8.35158C9.96158 8.39133 9.96168 8.55647 9.95931 8.4258C9.95912 8.41453 9.95738 8.29936 9.95638 8.37404C9.95625 8.38383 9.95655 8.43248 9.95638 8.43654C9.95526 8.46204 9.95467 8.42398 9.95345 8.4424C9.95222 8.46092 9.95095 8.48814 9.94954 8.47169C9.9487 8.46055 9.94702 8.37162 9.94661 8.34962C9.94547 8.28594 9.94439 8.39007 9.94368 8.31349C9.94297 8.23588 9.94458 8.11755 9.94271 8.0674C9.94264 8.19349 9.94282 8.3234 9.94271 8.45021C9.9386 8.44577 9.93414 8.4046 9.93001 8.41017C9.9295 8.41101 9.92958 8.47884 9.92904 8.48146C9.92675 8.49162 9.92555 8.44443 9.92318 8.46291C9.92132 8.47806 9.91926 8.55029 9.91732 8.56837C9.91614 8.42515 9.91257 8.47217 9.91048 8.45998C9.90975 8.45546 9.91001 8.41722 9.9095 8.40431C9.90754 8.35792 9.90808 8.4844 9.90755 8.5049C9.90532 8.58757 9.90514 8.32171 9.90267 8.30959C9.90244 8.31788 9.90097 8.46135 9.90072 8.47267C9.89918 8.53472 9.90067 8.4209 9.89974 8.40822C9.89797 8.38745 9.89595 8.35047 9.89388 8.39552C9.89328 8.40887 9.89212 8.50472 9.89095 8.43068C9.8908 8.42108 9.89107 8.37128 9.89095 8.3672C9.8887 8.31758 9.88833 8.47711 9.88704 8.53127C9.88576 8.58534 9.88452 8.47522 9.88411 8.44337C9.88324 8.37503 9.88367 8.396 9.88411 8.40041C9.88479 8.30437 9.88327 8.32063 9.88216 8.31252C9.88119 8.46621 9.88013 8.48544 9.87825 8.34181C9.87739 8.27459 9.87799 8.19695 9.87532 8.2256C9.87416 8.24028 9.87441 8.34537 9.87337 8.37502C9.87095 8.44164 9.86807 8.34332 9.86556 8.35744C9.86465 8.36319 9.86521 8.42276 9.86458 8.42873C9.86294 8.44407 9.86136 8.40037 9.8597 8.42287C9.85955 8.42492 9.86014 8.4824 9.8597 8.48732C9.85577 8.4945 9.85208 8.45521 9.84798 8.45412C9.84597 8.4556 9.84216 8.48713 9.84017 8.48048C9.83664 8.46717 9.83243 8.37983 9.82943 8.40138C9.82746 8.41555 9.82832 8.47752 9.82747 8.51955C9.82583 8.60052 9.82298 8.45427 9.82259 8.43166C9.82229 8.41717 9.81839 8.40344 9.81771 8.41505C9.81734 8.42151 9.8179 8.48018 9.81771 8.48244C9.81316 8.53476 9.80865 8.54967 9.80404 8.52248C9.80396 8.52133 9.8042 8.46018 9.80404 8.45412C9.80136 8.42499 9.79941 8.50516 9.7972 8.55275C9.79501 8.59971 9.79362 8.58357 9.79232 8.47169C9.79065 8.48518 9.78782 8.43532 9.78646 8.40529C9.7851 8.37676 9.78462 8.50337 9.7845 8.50587C9.78074 8.5861 9.77865 8.51331 9.77474 8.50197C9.77289 8.4965 9.76895 8.51446 9.76693 8.52834C9.76534 8.53957 9.76449 8.5102 9.76302 8.52931C9.76283 8.5331 9.76308 8.58868 9.76302 8.59084C9.76139 8.65847 9.76238 8.52009 9.76204 8.49513C9.76082 8.40497 9.76023 8.35702 9.75814 8.39943C9.75765 8.41047 9.75609 8.60464 9.75521 8.62013C9.75406 8.63495 9.75445 8.56389 9.75325 8.58107C9.75315 8.58248 9.753 8.62617 9.75228 8.62502C9.74885 8.61658 9.74509 8.59054 9.74154 8.59474C9.74106 8.59516 9.74214 8.66113 9.74154 8.66701C9.73824 8.67529 9.73401 8.67313 9.73079 8.64064C9.73 8.63236 9.73096 8.58304 9.73079 8.56837C9.72976 8.48209 9.72816 8.60282 9.72786 8.61037C9.72197 8.67188 9.71727 8.55652 9.71126 8.61134C9.71094 8.61458 9.70848 8.75176 9.70736 8.63478C9.70728 8.62696 9.70638 8.50639 9.7054 8.58791C9.70534 8.59302 9.7056 8.6547 9.70443 8.64943C9.70322 8.64312 9.70121 8.68436 9.69954 8.61623C9.69902 8.59475 9.69818 8.47449 9.69661 8.57033C9.69651 8.57711 9.69357 8.79337 9.69271 8.64455C9.69257 8.61998 9.69359 8.46202 9.69173 8.54201C9.69137 8.55766 9.69168 8.59319 9.69075 8.61525C9.68931 8.64921 9.68765 8.60726 9.68587 8.67775C9.68556 8.69077 9.684 8.7971 9.68294 8.71584C9.68278 8.70284 9.68252 8.65058 9.68197 8.64455C9.67932 8.61628 9.67684 8.65125 9.67415 8.61525C9.6732 8.60248 9.67415 8.5176 9.67318 8.49416C9.67218 8.47128 9.66934 8.44927 9.66829 8.4883C9.66727 8.5277 9.66885 8.66215 9.66732 8.67384C9.66054 8.72108 9.65358 8.64174 9.64681 8.6299C9.64604 8.63329 9.64625 8.67688 9.64486 8.67775C9.63935 8.68289 9.62997 8.72445 9.62532 8.62306C9.62156 8.54036 9.62627 8.47705 9.62337 8.44337C9.62209 8.455 9.62075 8.5863 9.62044 8.59084C9.61714 8.64141 9.61462 8.57132 9.61165 8.59279C9.61106 8.59711 9.61209 8.65751 9.61165 8.66408C9.60987 8.6752 9.6075 8.64712 9.60579 8.65236C9.60509 8.65602 9.60542 8.70012 9.60482 8.70021C9.60313 8.69173 9.60158 8.6709 9.59993 8.62502C9.59979 8.62089 9.6011 8.56156 9.59993 8.55763C9.59792 8.55414 9.59542 8.50891 9.5931 8.55568C9.59241 8.57007 9.59164 8.68126 9.59017 8.60451C9.58986 8.58836 9.59092 8.45418 9.58919 8.57033C9.58887 8.59151 9.58572 8.74477 9.58431 8.64455C9.58399 8.62139 9.58308 8.53828 9.58236 8.52541C9.58224 8.52816 9.58207 8.58888 9.58138 8.59474C9.579 8.61366 9.57699 8.60778 9.57454 8.62599C9.57389 8.6311 9.57451 8.69263 9.57357 8.69923C9.57085 8.71496 9.56744 8.69918 9.56478 8.6797C9.56382 8.67196 9.56485 8.62083 9.56478 8.61525C9.56364 8.52471 9.56223 8.64595 9.56185 8.65431C9.55948 8.69731 9.55817 8.63998 9.55599 8.65529C9.55545 8.66157 9.55609 8.71611 9.55599 8.72267C9.55475 8.77349 9.55577 8.67003 9.55501 8.65724C9.55281 8.62433 9.54943 8.62923 9.5472 8.63673C9.54651 8.64321 9.54788 8.70622 9.5472 8.709C9.54285 8.72073 9.53777 8.71429 9.53353 8.67677C9.53274 8.66965 9.53368 8.61813 9.53353 8.60548C9.53238 8.52172 9.53099 8.63558 9.5306 8.6465C9.52914 8.6876 9.52778 8.66307 9.52669 8.65822C9.51916 8.70096 9.50942 8.67136 9.50228 8.65236C9.49294 8.62794 9.48579 8.57788 9.47689 8.59084C9.47642 8.59526 9.47629 8.65603 9.47591 8.66212C9.46965 8.67883 9.46363 8.6525 9.45736 8.67189C9.45685 8.67338 9.45712 8.73678 9.45638 8.74416C9.45467 8.75421 9.45322 8.75062 9.4515 8.72951C9.45073 8.71833 9.45131 8.66415 9.45052 8.65431C9.44855 8.63304 9.44669 8.62809 9.44466 8.63869C9.44381 8.6436 9.4448 8.71115 9.44368 8.71193C9.43612 8.71865 9.42887 8.72932 9.42122 8.64259C9.42079 8.63767 9.42001 8.54445 9.41927 8.52541C9.41919 8.56354 9.41833 8.60867 9.41829 8.64943C9.40726 8.67042 9.39616 8.62355 9.38509 8.61623C9.38471 8.61999 9.38593 8.68711 9.38509 8.68849C9.37983 8.68741 9.37485 8.70716 9.36947 8.63478C9.36896 8.62469 9.36907 8.50043 9.36751 8.51955C9.36717 8.52348 9.36422 8.54029 9.36361 8.5674C9.36352 8.57159 9.36437 8.63206 9.36361 8.6338C9.35922 8.64231 9.35431 8.62868 9.34993 8.59279C9.34922 8.58678 9.35044 8.52243 9.34993 8.51759C9.34633 8.48425 9.34166 8.53231 9.33822 8.47462C9.33591 8.43565 9.33749 8.32511 9.33626 8.21681C9.33606 8.20196 9.33439 8.19893 9.33431 8.13673C9.33412 7.9783 9.33459 7.80464 9.33431 7.63576C9.33425 7.59943 9.33221 7.63814 9.33333 7.5508C9.33341 7.54491 9.33494 7.5152 9.33529 7.48537L9.33626 7.37404C9.33656 7.38036 9.33683 7.38578 9.33724 7.37013C9.33803 7.33859 9.33859 7.26685 9.34017 7.25783ZM9.34017 8.18361C9.33962 8.25473 9.34256 8.26047 9.34212 8.18654C9.3421 8.18356 9.34019 8.18066 9.34017 8.18361ZM10.0003 7.91017C10.0006 7.92757 9.99773 8.0754 9.9974 8.08107L9.99642 7.91701C9.99733 7.88916 9.99922 7.86162 10.0003 7.91017ZM9.77865 7.99904C9.7781 8.06982 9.78005 8.07492 9.77962 8.00099C9.77951 7.99819 9.77867 7.99624 9.77865 7.99904ZM9.66829 7.88673C9.66707 8.00282 9.67227 8.0148 9.67122 7.89259C9.67113 7.88633 9.66837 7.88095 9.66829 7.88673ZM9.99642 7.91701C9.99567 7.93983 9.99535 7.96268 9.99447 7.94337C9.9934 7.91989 9.99622 7.84253 9.99544 7.83595L9.99642 7.91701Z" fill="#555961"/>
<path d="M9.34017 9.92458C9.3439 9.90504 9.34817 9.92617 9.35189 9.95485C9.35297 9.96431 9.35311 10.0018 9.35384 10.0105C9.35541 10.0259 9.3562 10.0071 9.35775 10.0252C9.35825 10.0313 9.35824 10.092 9.35872 10.0994C9.36168 10.1271 9.36452 10.1116 9.36751 10.1248C9.38224 10.1906 9.39655 10.2144 9.41146 10.2429C9.41639 10.2523 9.42199 10.3097 9.42708 10.2849C9.42767 10.282 9.42796 10.2287 9.42806 10.2224C9.42984 10.1527 9.42885 10.2642 9.43001 10.2791C9.43461 10.3374 9.44024 10.3424 9.44466 10.3211C9.44652 10.3113 9.44473 10.2025 9.44661 10.2634C9.44675 10.2676 9.4461 10.3265 9.44661 10.3328C9.44774 10.3463 9.44955 10.3372 9.45052 10.3406C9.45227 10.3498 9.45278 10.3497 9.45443 10.3504C9.45668 10.3518 9.45982 10.3808 9.46224 10.3679C9.46275 10.365 9.46146 10.3061 9.46224 10.2947C9.46307 10.2845 9.46541 10.2893 9.46615 10.3035C9.46687 10.3179 9.46699 10.3649 9.46712 10.3757C9.46817 10.4652 9.47062 10.3456 9.47103 10.3377C9.47697 10.2843 9.48205 10.3564 9.48763 10.3562C9.4918 10.3551 9.49637 10.3315 9.50032 10.3347C9.50512 10.3389 9.50934 10.3716 9.514 10.366C9.51442 10.362 9.51341 10.2945 9.514 10.2937C9.52034 10.2857 9.52721 10.2941 9.53353 10.3416C9.53411 10.3481 9.53291 10.408 9.53353 10.4168C9.53743 10.4678 9.54391 10.5905 9.54622 10.3201C9.54886 10.3306 9.55168 10.3418 9.55404 10.3963C9.55555 10.4314 9.55412 10.4983 9.55599 10.4695C9.55636 10.4612 9.55636 10.4046 9.55697 10.3992C9.55963 10.3775 9.56214 10.3966 9.56478 10.366C9.56531 10.3594 9.5656 10.3062 9.56575 10.2966C9.56703 10.22 9.5692 10.3479 9.56966 10.3572C9.57308 10.4243 9.57529 10.4 9.57845 10.4002C9.57901 10.3943 9.57882 10.333 9.57943 10.3279C9.58323 10.3177 9.58742 10.3236 9.59115 10.3552C9.59194 10.363 9.59078 10.4219 9.59115 10.4295C9.59289 10.4576 9.59338 10.3431 9.59505 10.3679C9.59539 10.3733 9.59499 10.4237 9.59505 10.4304C9.59606 10.5201 9.59675 10.3932 9.597 10.3904C9.60028 10.3522 9.60263 10.4844 9.60579 10.4656C9.60609 10.4595 9.60576 10.3985 9.60677 10.3953C9.61387 10.3771 9.62123 10.3954 9.62825 10.448C9.62929 10.457 9.62819 10.5055 9.62825 10.5115C9.62936 10.6054 9.63082 10.4817 9.63118 10.4744C9.634 10.4398 9.63611 10.5463 9.63802 10.3943C9.64992 10.447 9.66235 10.3621 9.67415 10.4978C9.6743 10.4994 9.67388 10.5602 9.67415 10.5652C9.67776 10.6005 9.67665 10.503 9.67904 10.3836C9.67964 10.3538 9.6818 10.498 9.68197 10.5086C9.68255 10.5473 9.68178 10.6395 9.68197 10.6482C9.6836 10.7074 9.68367 10.3983 9.68587 10.3982C9.68594 10.3987 9.68569 10.456 9.68587 10.4617C9.68644 10.479 9.68629 10.4568 9.68685 10.4763C9.68813 10.5218 9.6888 10.6711 9.69075 10.5847C9.691 10.5734 9.69074 10.3977 9.69271 10.406C9.69356 10.4092 9.69663 10.4065 9.69759 10.4177C9.69856 10.4292 9.6985 10.4856 9.69857 10.4881C9.70118 10.5626 9.70019 10.5936 9.7015 10.7039C9.70281 10.8141 9.70194 10.5516 9.70247 10.5222C9.70301 10.4933 9.70492 10.5543 9.7054 10.5759C9.70587 10.5972 9.70598 10.6328 9.70638 10.6453C9.70916 10.7246 9.70742 10.5151 9.70833 10.4734C9.71049 10.3747 9.71222 10.5694 9.71419 10.5886C9.71448 10.5842 9.71382 10.5509 9.71419 10.5457C9.71607 10.5299 9.71792 10.59 9.72005 10.5349C9.7204 10.5258 9.72186 10.4085 9.72298 10.4939C9.72314 10.5063 9.72218 10.5553 9.72298 10.5662C9.72418 10.5824 9.72657 10.5929 9.72786 10.5769C9.72882 10.5649 9.72765 10.4849 9.72884 10.5095C9.72937 10.5206 9.72882 10.5678 9.72982 10.5847C9.73082 10.6014 9.73276 10.599 9.73372 10.5974C9.7346 10.593 9.73462 10.535 9.7347 10.531C9.73518 10.5076 9.73747 10.4782 9.73763 10.4783C9.74571 10.4751 9.75317 10.5727 9.76107 10.5398C9.76168 10.5373 9.76101 10.4778 9.76107 10.4724C9.76323 10.4456 9.76151 10.6156 9.76302 10.6726C9.7628 10.5427 9.76442 10.5658 9.76595 10.5515C9.76665 10.5435 9.76588 10.4941 9.76595 10.489C9.76704 10.4132 9.76771 10.5118 9.7679 10.532C9.76862 10.606 9.76937 10.5185 9.76986 10.5681C9.77033 10.6158 9.76958 10.6855 9.77083 10.6892C9.77124 10.6426 9.77071 10.5216 9.77181 10.5017C9.77595 10.4282 9.78302 10.5201 9.78646 10.532C9.78982 10.5419 9.79133 10.5337 9.79329 10.5506C9.79683 10.5808 9.795 10.4902 9.7972 10.449C9.79937 10.4098 9.79884 10.6294 9.79915 10.6775C9.79946 10.7252 9.79974 10.6767 9.80013 10.7029C9.8005 10.729 9.79923 10.7615 9.80013 10.7713C9.80105 10.78 9.80371 10.6959 9.80404 10.6463C9.80472 10.5406 9.80359 10.4297 9.80599 10.4685C9.80613 10.4708 9.80549 10.5279 9.80599 10.5349C9.81019 10.5798 9.81449 10.5831 9.81868 10.6228C9.81923 10.6296 9.81933 10.6931 9.81966 10.697C9.82315 10.7384 9.82165 10.6291 9.82357 10.5076C9.82314 10.6693 9.82482 10.7683 9.82747 10.7693C9.82893 10.7662 9.82842 10.6976 9.82943 10.6492C9.82974 10.6348 9.83118 10.6823 9.83138 10.6492C9.83205 10.5409 9.83062 10.42 9.83333 10.4675C9.83345 10.4698 9.83295 10.5275 9.83333 10.533C9.83601 10.5565 9.83631 10.4437 9.83919 10.4295C9.84144 10.4188 9.84539 10.4864 9.84798 10.4988C9.84793 10.6805 9.85089 10.6395 9.85189 10.5144C9.85351 10.5186 9.85521 10.5127 9.85677 10.5291C9.85732 10.5349 9.85671 10.5872 9.85677 10.5935C9.85783 10.6815 9.85933 10.5645 9.8597 10.5564C9.86363 10.5099 9.86669 10.6019 9.87044 10.5115C9.87058 10.5049 9.87043 10.3834 9.87142 10.4744C9.87148 10.4809 9.87064 10.5383 9.8724 10.5427C9.87417 10.5486 9.87681 10.614 9.87923 10.5564C9.87982 10.5423 9.88194 10.44 9.88314 10.5193C9.8833 10.5301 9.88291 10.5664 9.88314 10.5867C9.88388 10.6508 9.88421 10.524 9.88509 10.6316C9.88597 10.7401 9.8875 10.8217 9.88997 10.7468C9.89006 10.7421 9.89116 10.6437 9.89193 10.6453C9.89313 10.6484 9.89457 10.6684 9.89583 10.6687C9.89643 10.6684 9.89674 10.6095 9.89681 10.6043C9.90098 10.569 9.90309 10.6249 9.90755 10.6492C9.90838 10.6528 9.91086 10.5684 9.91243 10.6355C9.91417 10.7096 9.91236 11.0179 9.91634 10.9451C9.91795 10.9157 9.92028 10.5245 9.92318 10.7273C9.92879 10.6771 9.93415 10.7803 9.93978 10.7088C9.94003 10.7056 9.94114 10.5963 9.94173 10.5974C9.94259 10.5998 9.94308 10.6482 9.94368 10.6541C9.94624 10.6689 9.94806 10.6292 9.95052 10.6326C9.95148 10.635 9.95136 10.6872 9.95247 10.6912C9.95363 10.6941 9.95482 10.6249 9.95638 10.658C9.95756 10.6836 9.95872 10.826 9.96029 10.8425C9.96035 10.7023 9.9613 10.7047 9.96322 10.6677C9.96355 10.6593 9.96304 10.612 9.96322 10.6062C9.96392 10.5813 9.9645 10.6212 9.96517 10.5945C9.96533 10.588 9.96602 10.541 9.96615 10.532C9.96728 10.4615 9.96875 10.5689 9.96907 10.5877C9.97031 10.6588 9.97106 10.5967 9.972 10.6248C9.97294 10.6528 9.9709 10.6879 9.972 10.7048C9.97423 10.739 9.97752 10.7324 9.97982 10.7341C9.98061 10.7306 9.98068 10.672 9.98079 10.6697C9.98271 10.6535 9.98461 10.7213 9.98568 10.5945C9.987 10.9224 9.98686 10.5634 9.98958 10.6277C9.9898 10.633 9.98943 10.7894 9.98861 10.8123C9.98778 10.8342 9.98682 10.7866 9.98568 10.822C9.98538 10.8334 9.98393 10.9764 9.98372 10.9851C9.98206 11.053 9.98186 10.8211 9.98177 10.8084C9.98077 10.6706 9.97837 10.8278 9.97786 10.8386C9.97557 10.8882 9.97392 10.8559 9.972 10.8914C9.97083 10.914 9.97091 11.0513 9.97005 11.0613C9.96683 11.0432 9.96531 10.8354 9.96224 11.0183C9.96158 11.0581 9.96168 11.2232 9.95931 11.0925C9.95912 11.0813 9.95738 10.9661 9.95638 11.0408C9.95625 11.0506 9.95655 11.0992 9.95638 11.1033C9.95526 11.1288 9.95467 11.0907 9.95345 11.1091C9.95222 11.1277 9.95095 11.1549 9.94954 11.1384C9.9487 11.1273 9.94702 11.0384 9.94661 11.0164C9.94547 10.9527 9.94439 11.0568 9.94368 10.9802C9.94297 10.9026 9.94458 10.7843 9.94271 10.7341C9.94264 10.8602 9.94282 10.9902 9.94271 11.117C9.9386 11.1125 9.93414 11.0713 9.93001 11.0769C9.9295 11.0778 9.92958 11.1456 9.92904 11.1482C9.92675 11.1584 9.92555 11.1112 9.92318 11.1297C9.92132 11.1448 9.91926 11.217 9.91732 11.2351C9.91614 11.0919 9.91257 11.1389 9.91048 11.1267C9.90975 11.1222 9.91001 11.084 9.9095 11.0711C9.90754 11.0247 9.90808 11.1512 9.90755 11.1716C9.90532 11.2543 9.90514 10.9885 9.90267 10.9763C9.90244 10.9846 9.90097 11.1281 9.90072 11.1394C9.89918 11.2015 9.90067 11.0876 9.89974 11.075C9.89797 11.0542 9.89595 11.0172 9.89388 11.0623C9.89328 11.0756 9.89212 11.1715 9.89095 11.0974C9.8908 11.0878 9.89107 11.038 9.89095 11.034C9.8887 10.9843 9.88833 11.1439 9.88704 11.198C9.88576 11.2521 9.88452 11.142 9.88411 11.1101C9.88324 11.0418 9.88367 11.0627 9.88411 11.0672C9.88479 10.9711 9.88327 10.9874 9.88216 10.9793C9.88119 11.133 9.88013 11.1522 9.87825 11.0086C9.87739 10.9413 9.87799 10.8637 9.87532 10.8923C9.87416 10.907 9.87441 11.0121 9.87337 11.0418C9.87095 11.1084 9.86807 11.0101 9.86556 11.0242C9.86465 11.0299 9.86521 11.0895 9.86458 11.0955C9.86294 11.1108 9.86136 11.0671 9.8597 11.0896C9.85955 11.0917 9.86014 11.1491 9.8597 11.1541C9.85577 11.1612 9.85208 11.122 9.84798 11.1209C9.84597 11.1223 9.84216 11.1539 9.84017 11.1472C9.83664 11.1339 9.83243 11.0466 9.82943 11.0681C9.82746 11.0823 9.82832 11.1443 9.82747 11.1863C9.82583 11.2673 9.82298 11.121 9.82259 11.0984C9.82229 11.0839 9.81839 11.0702 9.81771 11.0818C9.81734 11.0883 9.8179 11.1469 9.81771 11.1492C9.81316 11.2015 9.80865 11.2164 9.80404 11.1892C9.80396 11.1881 9.8042 11.1269 9.80404 11.1209C9.80136 11.0917 9.79941 11.1719 9.7972 11.2195C9.79501 11.2665 9.79362 11.2503 9.79232 11.1384C9.79065 11.1519 9.78782 11.1021 9.78646 11.072C9.7851 11.0435 9.78462 11.1701 9.7845 11.1726C9.78074 11.2528 9.77865 11.1801 9.77474 11.1687C9.77289 11.1632 9.76895 11.1812 9.76693 11.1951C9.76534 11.2063 9.76449 11.1769 9.76302 11.1961C9.76283 11.1998 9.76308 11.2554 9.76302 11.2576C9.76139 11.3252 9.76238 11.1868 9.76204 11.1619C9.76082 11.0717 9.76023 11.0238 9.75814 11.0662C9.75765 11.0772 9.75609 11.2714 9.75521 11.2869C9.75406 11.3017 9.75445 11.2306 9.75325 11.2478C9.75315 11.2492 9.753 11.2929 9.75228 11.2918C9.74885 11.2833 9.74509 11.2573 9.74154 11.2615C9.74106 11.2619 9.74214 11.3279 9.74154 11.3338C9.73824 11.342 9.73401 11.3399 9.73079 11.3074C9.73 11.2991 9.73096 11.2498 9.73079 11.2351C9.72976 11.1488 9.72816 11.2696 9.72786 11.2771C9.72197 11.3386 9.71727 11.2233 9.71126 11.2781C9.71094 11.2813 9.70848 11.4185 9.70736 11.3015C9.70728 11.2937 9.70638 11.1731 9.7054 11.2547C9.70534 11.2598 9.7056 11.3214 9.70443 11.3162C9.70322 11.3099 9.70121 11.3511 9.69954 11.283C9.69902 11.2615 9.69818 11.1412 9.69661 11.2371C9.69651 11.2439 9.69357 11.4601 9.69271 11.3113C9.69257 11.2867 9.69359 11.1288 9.69173 11.2088C9.69137 11.2244 9.69168 11.2599 9.69075 11.282C9.68931 11.316 9.68765 11.274 9.68587 11.3445C9.68556 11.3575 9.684 11.4638 9.68294 11.3826C9.68278 11.3696 9.68252 11.3173 9.68197 11.3113C9.67932 11.283 9.67684 11.318 9.67415 11.282C9.6732 11.2692 9.67415 11.1843 9.67318 11.1609C9.67218 11.138 9.66934 11.116 9.66829 11.155C9.66727 11.1944 9.66885 11.3289 9.66732 11.3406C9.66054 11.3878 9.65358 11.3085 9.64681 11.2966C9.64604 11.3 9.64625 11.3436 9.64486 11.3445C9.63935 11.3496 9.62997 11.3912 9.62532 11.2898C9.62156 11.2071 9.62627 11.1438 9.62337 11.1101C9.62209 11.1218 9.62075 11.2531 9.62044 11.2576C9.61714 11.3082 9.61462 11.2381 9.61165 11.2595C9.61106 11.2639 9.61209 11.3243 9.61165 11.3308C9.60987 11.3419 9.6075 11.3139 9.60579 11.3191C9.60509 11.3228 9.60542 11.3669 9.60482 11.367C9.60313 11.3585 9.60158 11.3376 9.59993 11.2918C9.59979 11.2876 9.6011 11.2283 9.59993 11.2244C9.59792 11.2209 9.59542 11.1757 9.5931 11.2224C9.59241 11.2368 9.59164 11.348 9.59017 11.2713C9.58986 11.2551 9.59092 11.1209 9.58919 11.2371C9.58887 11.2583 9.58572 11.4115 9.58431 11.3113C9.58399 11.2881 9.58308 11.205 9.58236 11.1922C9.58224 11.1949 9.58207 11.2556 9.58138 11.2615C9.579 11.2804 9.57699 11.2745 9.57454 11.2927C9.57389 11.2978 9.57451 11.3594 9.57357 11.366C9.57085 11.3817 9.56744 11.3659 9.56478 11.3465C9.56382 11.3387 9.56485 11.2876 9.56478 11.282C9.56364 11.1915 9.56223 11.3127 9.56185 11.3211C9.55948 11.3641 9.55817 11.3067 9.55599 11.322C9.55545 11.3283 9.55609 11.3829 9.55599 11.3894C9.55475 11.4402 9.55577 11.3368 9.55501 11.324C9.55281 11.2911 9.54943 11.296 9.5472 11.3035C9.54651 11.31 9.54788 11.373 9.5472 11.3757C9.54285 11.3875 9.53777 11.381 9.53353 11.3435C9.53274 11.3364 9.53368 11.2849 9.53353 11.2722C9.53238 11.1885 9.53099 11.3023 9.5306 11.3132C9.52914 11.3543 9.52778 11.3298 9.52669 11.325C9.51916 11.3677 9.50942 11.3381 9.50228 11.3191C9.49294 11.2947 9.48579 11.2446 9.47689 11.2576C9.47642 11.262 9.47629 11.3228 9.47591 11.3289C9.46965 11.3456 9.46363 11.3192 9.45736 11.3386C9.45685 11.3401 9.45712 11.4035 9.45638 11.4109C9.45467 11.421 9.45322 11.4174 9.4515 11.3963C9.45073 11.3851 9.45131 11.3309 9.45052 11.3211C9.44855 11.2998 9.44669 11.2948 9.44466 11.3054C9.44381 11.3104 9.4448 11.3779 9.44368 11.3787C9.43612 11.3854 9.42887 11.3961 9.42122 11.3093C9.42079 11.3044 9.42001 11.2112 9.41927 11.1922C9.41919 11.2303 9.41833 11.2754 9.41829 11.3162C9.40726 11.3372 9.39616 11.2903 9.38509 11.283C9.38471 11.2867 9.38593 11.3539 9.38509 11.3552C9.37983 11.3542 9.37485 11.3739 9.36947 11.3015C9.36896 11.2914 9.36907 11.1672 9.36751 11.1863C9.36717 11.1902 9.36422 11.207 9.36361 11.2341C9.36352 11.2383 9.36437 11.2988 9.36361 11.3006C9.35922 11.3091 9.35431 11.2954 9.34993 11.2595C9.34922 11.2535 9.35044 11.1892 9.34993 11.1843C9.34633 11.151 9.34166 11.1991 9.33822 11.1414C9.33591 11.1024 9.33749 10.9919 9.33626 10.8836C9.33606 10.8687 9.33439 10.8657 9.33431 10.8035C9.33412 10.645 9.33459 10.4714 9.33431 10.3025C9.33425 10.2662 9.33221 10.3049 9.33333 10.2175C9.33341 10.2117 9.33494 10.1819 9.33529 10.1521L9.33626 10.0408C9.33656 10.0471 9.33683 10.0525 9.33724 10.0369C9.33803 10.0053 9.33859 9.9336 9.34017 9.92458ZM9.34017 10.8504C9.33962 10.9215 9.34256 10.9272 9.34212 10.8533C9.3421 10.8503 9.34019 10.8474 9.34017 10.8504ZM10.0003 10.5769C10.0006 10.5943 9.99773 10.7422 9.9974 10.7478L9.99642 10.5838C9.99733 10.5559 9.99922 10.5284 10.0003 10.5769ZM9.77865 10.6658C9.7781 10.7366 9.78005 10.7417 9.77962 10.6677C9.77951 10.6649 9.77867 10.663 9.77865 10.6658ZM9.66829 10.5535C9.66707 10.6696 9.67227 10.6815 9.67122 10.5593C9.67113 10.5531 9.66837 10.5477 9.66829 10.5535ZM9.99642 10.5838C9.99567 10.6066 9.99535 10.6294 9.99447 10.6101C9.9934 10.5866 9.99622 10.5093 9.99544 10.5027L9.99642 10.5838Z" fill="#555961"/>
<path d="M4.514 1.70792C4.53461 1.71143 4.52774 1.76281 4.53158 1.76944C4.594 1.85396 4.6369 1.72651 4.65365 1.72355C4.65788 1.72267 4.66216 1.72227 4.66634 1.72159C4.81846 1.69185 4.91925 1.81708 5.06868 1.79874C5.08579 1.79527 5.046 1.73107 5.09701 1.72843C5.43979 1.71028 5.80264 1.72854 6.14193 1.78116C6.19414 1.78944 6.15717 1.83856 6.16048 1.84464C6.21405 1.93848 6.24862 1.81425 6.26595 1.80753C6.40168 1.77294 6.5292 1.87942 6.62142 1.72745C7.19613 1.78013 7.76825 1.69486 8.33822 1.83097C8.34546 1.83255 8.33255 1.89548 8.347 1.89835C8.52107 1.93361 8.48766 1.83614 8.60286 1.71671C8.63195 1.68697 8.72006 1.83115 8.72786 1.84171C8.75623 1.88071 8.72713 1.97382 8.73665 1.98136C8.81536 2.04029 8.80246 1.73197 8.90853 1.73136C8.91186 1.73187 8.89862 1.78918 8.90755 1.79484C8.93514 1.81207 8.96259 1.79 8.98958 1.80948C9.05151 1.85488 9.07381 2.00447 9.16829 1.91788C9.1803 1.90654 9.16229 1.73102 9.25716 1.73917C9.29503 1.74262 9.46311 1.73953 9.51009 1.75089C9.55634 1.7624 9.52457 1.81842 9.52767 1.8212C9.6539 1.89582 9.60635 1.92678 9.66927 2.03702C9.7326 2.14724 9.71572 1.88472 9.74154 1.85538C9.76756 1.82678 9.85894 1.88746 9.88216 1.90909C9.90477 1.93039 9.87734 1.96606 9.89681 1.97843C10.031 2.05771 9.9561 1.84828 10.0003 1.80655C10.1046 1.70784 10.1861 1.90269 10.2816 1.92179C10.3069 1.9265 10.2862 1.88309 10.3089 1.87882C10.4 1.86296 10.4553 1.92385 10.5589 1.86808C10.5762 1.85841 10.6591 1.7419 10.7132 1.82706C10.7209 1.83947 10.6998 1.88845 10.7386 1.89933C10.7967 1.91558 10.901 1.92627 10.9632 1.91007C11.0088 1.89788 10.9564 1.81807 11.014 1.84269C11.0397 1.85378 10.9922 1.9009 11.0404 1.91788C11.0884 1.93479 11.2111 1.93219 11.2581 1.93058C11.3049 1.92892 11.2798 1.86826 11.2835 1.86417C11.2927 1.85486 11.3125 1.84477 11.3333 1.83585C11.368 1.82253 11.4067 1.81438 11.4134 1.81437C11.8053 1.83062 12.1181 2.0584 12.3607 2.30558C12.4066 2.3521 12.4519 2.40032 12.4964 2.45011C12.5181 2.474 12.5545 2.42217 12.5599 2.42277C12.651 2.5045 12.4598 2.5267 12.4535 2.62003C12.5564 2.541 12.5626 2.59168 12.6126 2.65519C12.6364 2.68568 12.6714 2.64545 12.6781 2.64542C12.7741 2.66549 12.7009 2.74639 12.6859 2.76261C12.6319 2.82545 12.7283 2.8327 12.6898 2.87394C12.6507 2.91278 12.5652 2.88411 12.5872 2.95011C12.6379 2.95604 12.7369 2.86665 12.7728 2.91788C12.8391 3.0138 12.8647 3.17805 12.849 3.33292C12.8334 3.47691 12.8063 3.61744 12.8011 3.70109C12.7912 3.86338 12.7993 3.91612 12.7826 4.01066C12.7522 4.18156 12.8428 4.11938 12.8841 4.2255C12.9249 4.33153 12.7034 4.27962 12.6556 4.29484C12.608 4.30983 12.6572 4.32696 12.6312 4.34562C12.6051 4.36418 12.5728 4.32398 12.5628 4.3671C12.553 4.41083 12.6369 4.53088 12.6868 4.54679C12.7925 4.57962 12.9036 4.52557 12.8646 4.64152C12.861 4.64743 12.804 4.62704 12.7982 4.65226C12.7534 4.85478 12.7509 5.06522 12.7113 5.26749C12.7057 5.29533 12.6401 5.27086 12.6361 5.28702C12.5946 5.45574 12.704 5.39593 12.8255 5.48819C12.6641 5.46757 12.5649 5.51857 12.5638 5.6464C12.5632 5.72342 12.6341 5.71084 12.6839 5.76066C12.6985 5.77582 12.6508 5.82992 12.6839 5.83976C12.7925 5.8722 12.914 5.82101 12.8656 5.95304C12.8625 5.95843 12.8044 5.94057 12.8001 5.95987C12.7766 6.08928 12.8898 6.10524 12.9036 6.24503C12.9144 6.35469 12.8456 6.54983 12.8343 6.67472C12.6524 6.67209 12.6942 6.78995 12.8197 6.8378C12.8145 6.91885 12.8214 7.00654 12.804 7.08487C12.7981 7.11183 12.7453 7.09417 12.7396 7.09757C12.651 7.14943 12.7719 7.1845 12.7777 7.20206C12.8242 7.39165 12.7313 7.54652 12.8216 7.72745C12.8249 7.73387 12.951 7.74451 12.8587 7.79288C12.8508 7.79389 12.7947 7.73754 12.7904 7.8212C12.7859 7.90636 12.7182 8.06729 12.7767 8.18546C12.7911 8.21417 12.8933 8.28576 12.8138 8.34366C12.8029 8.35139 12.7666 8.34328 12.7464 8.35441C12.6822 8.3905 12.81 8.41062 12.7015 8.45304C12.5931 8.49542 12.5119 8.58308 12.5863 8.70206C12.5884 8.70586 12.6894 8.73489 12.6878 8.77237C12.6851 8.8322 12.6647 8.91704 12.6654 8.97941C12.6658 9.00897 12.7278 8.99024 12.7298 8.99503C12.765 9.19605 12.7083 9.33935 12.6839 9.5546C12.6793 9.59407 12.7651 9.70762 12.6976 9.78409C12.6234 9.86806 12.3145 9.78249 12.388 9.9755C12.4175 10.0533 12.8096 10.152 12.6068 10.2919C12.6569 10.563 12.5527 10.814 12.6243 11.0859C12.6275 11.0981 12.7372 11.1372 12.7357 11.1659C12.733 11.2084 12.6824 11.2322 12.679 11.2626C12.6638 11.3901 12.7072 11.5068 12.7005 11.6298C12.6981 11.6766 12.6449 11.6609 12.6419 11.7167C12.6394 11.7722 12.7086 11.8093 12.6751 11.8847C12.6496 11.9416 12.5075 11.9986 12.4906 12.0741C12.6306 12.077 12.6285 12.1293 12.6654 12.2216C12.6725 12.2394 12.721 12.221 12.7269 12.2294C12.7519 12.2636 12.7123 12.2946 12.7396 12.3271C12.7461 12.335 12.7939 12.3353 12.8021 12.3417C12.8726 12.3966 12.7642 12.4873 12.7454 12.5028C12.6743 12.5624 12.7373 12.591 12.7093 12.6366C12.6813 12.6821 12.6453 12.6136 12.6283 12.6669C12.5931 12.7772 12.6011 12.9191 12.599 13.0312C12.5984 13.0744 12.6581 13.0478 12.6634 13.0517C12.6796 13.1442 12.6123 13.2386 12.7396 13.29C12.4106 13.3541 12.7707 13.3454 12.7054 13.4775C12.7001 13.4878 12.5455 13.5013 12.5218 13.4618C12.499 13.4219 12.5472 13.361 12.512 13.3056C12.5038 13.2926 12.3607 13.2185 12.349 13.2069C12.2803 13.1269 12.5097 13.1146 12.5247 13.1103C12.6623 13.0621 12.5059 12.9707 12.4945 12.9462C12.4448 12.8355 12.478 12.7409 12.4427 12.6484C12.4198 12.5878 12.2676 12.5815 12.2718 12.5341C12.2872 12.3758 12.4999 12.3199 12.3158 12.1708C12.2765 12.1388 12.1097 12.1711 12.2406 12.0566C12.2488 12.0494 12.3681 11.9641 12.2923 11.915C12.2821 11.9089 12.2348 11.9084 12.2308 11.9003C12.2047 11.8459 12.2424 11.8093 12.224 11.7499C12.2055 11.6906 12.1783 11.6193 12.1947 11.5517C12.2045 11.5108 12.2944 11.4581 12.3167 11.4384C12.3805 11.3831 12.2766 11.3242 12.3538 11.29C12.4314 11.2556 12.5488 11.3225 12.599 11.2323C12.473 11.229 12.3438 11.2211 12.2171 11.2157C12.2216 11.0173 12.2617 10.822 12.2562 10.623C12.2554 10.5983 12.1875 10.6231 12.1849 10.5966C12.1742 10.485 12.2227 10.3871 12.2035 10.2714C12.1881 10.1819 12.117 10.0837 12.099 9.99015C12.2428 9.93281 12.1942 9.79326 12.2074 9.6923C12.2122 9.65739 12.2505 9.65974 12.263 9.63468C12.3094 9.53997 12.182 9.5841 12.1615 9.55851C12.0758 9.44681 12.3649 9.43629 12.3577 9.3046C12.3536 9.29575 12.2031 9.21268 12.1937 9.20109C12.1314 9.1267 12.2473 9.18854 12.2591 9.14249C12.2799 9.05721 12.3159 8.99743 12.2708 8.89737C12.2572 8.86811 12.1617 8.79768 12.2357 8.74112C12.2452 8.73379 12.2947 8.73792 12.2992 8.73234C12.3488 8.62374 12.1892 8.62056 12.1351 8.55851C12.0818 8.49672 12.1907 8.40184 12.223 8.38175C12.3052 8.33071 12.2589 8.42 12.2669 8.42277C12.3627 8.45506 12.3457 8.38533 12.3538 8.33194C12.5105 8.32421 12.5011 8.2502 12.3617 8.27726C12.3471 8.2809 12.3607 8.32111 12.3538 8.33194C12.2005 8.28503 12.181 8.20282 12.3245 8.11222C12.3918 8.07007 12.4704 8.11011 12.4417 7.98136C12.4288 7.92284 12.3207 7.94511 12.2913 7.89347C12.2245 7.77552 12.3248 7.62244 12.3089 7.50089C12.3031 7.45686 12.2447 7.49958 12.2386 7.46964C12.2226 7.38957 12.2662 7.31861 12.2435 7.23819C12.2392 7.23195 12.1798 7.24808 12.179 7.22355C12.1719 7.03428 12.2111 6.8694 12.2122 6.67179C12.2127 6.57616 12.179 6.40464 12.1859 6.30558C12.1975 6.13393 12.2868 5.92289 12.265 5.77628C12.251 5.68062 12.1899 5.70106 12.1478 5.66007C12.0664 5.58107 12.2118 5.44191 12.2347 5.42277C12.2362 5.42671 12.251 5.50265 12.2816 5.46085C12.3469 5.43563 12.2377 5.42394 12.2347 5.42277C12.2493 5.41038 12.2631 5.24546 12.2513 5.2128C12.2443 5.19557 12.1865 5.20526 12.1839 5.1962C12.1315 4.97642 12.1165 4.75602 12.1439 4.53312C12.1451 4.52919 12.2113 4.53454 12.2132 4.5253C12.2421 4.39637 12.1621 4.31334 12.1146 4.20694C12.0672 4.10059 12.0832 4.01602 12.1956 3.95304C12.1816 3.87272 12.2309 3.75757 12.2611 3.69132C12.2904 3.62637 12.1684 3.61613 12.1615 3.61027C12.1135 3.50209 12.1197 3.42052 12.1351 3.33292C12.1455 3.29726 12.158 3.25759 12.1556 3.20987C12.1545 3.15278 12.105 3.04924 12.0667 3.00284C12.0376 2.96612 12.0501 2.92682 12.0111 2.9003C12.0059 2.89692 11.9627 2.93043 11.9583 2.93155C11.8781 2.93336 12.0041 2.87294 12.0189 2.8505C12.0709 2.76865 12.089 2.71171 12.0091 2.68839C12.003 2.68732 11.9827 2.69593 11.9574 2.7089C11.898 2.73845 11.8139 2.7955 11.7972 2.79191C11.7658 2.78435 11.8191 2.7357 11.7826 2.72941C11.7795 2.72892 11.7539 2.76434 11.7396 2.75284C11.6735 2.69565 11.5899 2.62973 11.4945 2.61319C11.4824 2.61249 11.4826 2.68104 11.4661 2.68058C11.423 2.67639 11.3781 2.67279 11.3333 2.66788C11.257 2.66369 11.1812 2.65562 11.1097 2.64054C11.0716 2.63215 11.0955 2.58284 11.0872 2.56827C11.0369 2.48127 10.9658 2.60458 10.9525 2.61027C10.6679 2.67181 10.4495 2.55625 10.1595 2.61124C10.1437 2.61448 10.0214 2.75198 9.96712 2.63468C9.96341 2.62685 9.91004 2.50617 9.86263 2.5878C9.85968 2.59296 9.89269 2.65565 9.83431 2.64933C9.77591 2.64319 9.68199 2.68418 9.60189 2.61612C9.57643 2.59445 9.51645 2.47449 9.44075 2.57023C9.43534 2.57782 9.3184 2.79326 9.27669 2.64444C9.26993 2.61984 9.27715 2.46106 9.18685 2.54191C9.16958 2.55762 9.20096 2.59311 9.1556 2.61515C9.08585 2.64911 8.9933 2.60716 8.90755 2.67765C8.89234 2.69069 8.82857 2.79699 8.77767 2.71573C8.77003 2.70253 8.78492 2.65032 8.75814 2.64444C8.62997 2.61613 8.4957 2.65165 8.36556 2.61515C8.31957 2.60234 8.34282 2.5172 8.29525 2.49405C8.24717 2.47118 8.15024 2.44917 8.09993 2.48819C8.04971 2.52729 8.10399 2.66285 8.02865 2.67374C7.70107 2.72094 7.37625 2.64147 7.04915 2.6298C7.00124 2.6283 7.0409 2.67657 6.97005 2.67765C6.70638 2.68127 6.2506 2.72645 6.02181 2.62296C5.83902 2.54014 6.06905 2.47698 5.92904 2.44327C5.86152 2.42774 5.7881 2.58576 5.77181 2.59073C5.61267 2.64108 5.502 2.57128 5.35872 2.59269C5.32909 2.59715 5.35757 2.66089 5.33236 2.66398C5.24633 2.67498 5.15576 2.64703 5.07357 2.65226C5.03706 2.65494 5.04354 2.70345 5.01009 2.70011C4.9289 2.69164 4.8568 2.67069 4.77767 2.62491C4.77045 2.62073 4.81829 2.5598 4.75814 2.55753C4.72941 2.55646 4.69832 2.55166 4.66634 2.54679C4.62189 2.53505 4.56841 2.52761 4.52865 2.56827C4.51146 2.5863 4.53556 2.69358 4.48079 2.62882C4.46952 2.61535 4.44086 2.48257 4.42806 2.60831C4.42135 2.63204 4.41881 2.79721 4.34603 2.72355C4.32604 2.70335 4.24805 2.62207 4.23568 2.6503C4.23668 2.65607 4.2762 2.69806 4.26497 2.7128C4.2311 2.75302 4.1909 2.78527 4.16048 2.82706C4.15216 2.83852 4.14412 2.85026 4.13802 2.86319C4.13096 2.87906 4.19362 2.90265 4.18294 2.92374C4.15457 2.98076 4.10242 3.03594 4.06087 3.0878C4.04552 3.10669 4.00317 3.07383 3.9974 3.07316C3.90114 3.07028 4.01133 3.12908 4.01595 3.13859C4.04115 3.20403 3.97829 3.23518 3.98958 3.29191C3.99383 3.30609 4.0506 3.29887 4.05697 3.30167C4.10702 3.3308 4.00258 3.30722 3.99056 3.32609C3.98908 3.32847 3.98699 3.33048 3.98568 3.33292C3.95747 3.4355 3.96289 3.54857 3.97005 3.65128C3.97293 3.69063 4.04019 3.64663 4.04232 3.68155C4.05405 3.8915 4.04763 4.11045 4.01009 4.31534C4.00273 4.35293 3.95158 4.3297 3.9388 4.33683C3.85502 4.39224 3.96893 4.47439 3.97982 4.49308C4.02915 4.57772 3.98301 4.61067 3.99154 4.68546C4.0346 5.05189 4.00465 5.50451 3.98568 5.8505C3.96126 6.30143 3.9112 6.65193 3.92415 7.08194C3.92519 7.109 3.9939 7.08187 3.99544 7.10538C4.01223 7.40947 3.98507 7.70888 4.00521 8.01359C4.0068 8.03853 4.0728 8.00276 4.07747 8.04288C4.0875 8.12519 4.08392 8.22923 4.06283 8.31241C4.05264 8.35299 3.99671 8.29889 3.98763 8.33976C3.96639 8.43489 3.96141 8.53697 3.97201 8.63468C3.97685 8.67574 4.04408 8.61376 4.04525 8.66691C4.05195 9.03516 4.06342 9.39731 3.97591 9.76944C3.9699 9.79496 3.83237 9.81773 3.85872 9.87198C3.89686 9.87606 3.942 9.87606 3.98275 9.87784C4.00467 10.4139 3.95691 10.9448 3.94954 11.4823C3.94975 11.5045 4.02201 11.4659 4.02181 11.5097C4.02074 11.7636 4.04046 12.0106 3.9681 12.2704C3.95968 12.2956 3.83388 12.283 3.85286 12.3583C3.85638 12.3716 3.87314 12.4853 3.90072 12.5155C3.90491 12.5196 3.96538 12.4992 3.96712 12.536C3.97619 12.7502 3.96258 12.9746 3.92611 13.1884C3.92011 13.2228 3.85605 13.1867 3.85091 13.2109C3.81711 13.3853 3.86576 13.5754 3.80794 13.7421C3.76897 13.8535 3.65843 13.8117 3.55013 13.871C3.535 13.8798 3.53267 13.9484 3.47005 13.9521C3.31161 13.9612 3.13796 13.9286 2.96908 13.9423C2.93271 13.9452 2.97179 14.0368 2.88411 13.9823C2.87823 13.9785 2.8485 13.912 2.81868 13.8954C2.79806 13.8839 2.73376 13.9042 2.70736 13.8808C2.68149 13.8574 2.73439 13.8317 2.70345 13.7929C2.67197 13.7542 2.59977 13.7708 2.59115 13.6933C2.57161 13.5129 2.59274 13.2763 2.62142 13.0966C2.63038 13.0407 2.66909 13.0688 2.67708 13.0302C2.69251 12.9543 2.67349 12.8835 2.69173 12.8085C2.69803 12.7836 2.76079 12.8141 2.76595 12.788C2.79375 12.6451 2.77803 12.5099 2.79134 12.3651C2.85738 11.6513 2.88082 10.9491 2.90951 10.2265C2.91891 9.98819 2.97649 9.69818 2.9515 9.45206C2.94835 9.42412 2.89525 9.44002 2.889 9.43546C2.8193 9.34978 2.93069 9.378 2.94564 9.32218C3.00418 9.09999 3.00896 8.85241 2.98763 8.63859C2.97819 8.54822 2.86885 8.63881 2.93001 8.54777C2.93418 8.5414 2.99309 8.56392 2.99935 8.53898C3.01327 8.48251 3.00263 8.37598 3.00716 8.33194C3.01642 8.24748 3.01626 8.23308 3.01693 8.15323C3.01835 8.04401 3.04777 7.91399 3.03451 7.79679C3.03149 7.77176 2.9715 7.80447 2.96126 7.76456C2.95112 7.72454 2.95594 7.61963 2.97005 7.5839C2.98424 7.54826 3.03148 7.56286 3.04232 7.55655C3.13314 7.50477 3.00811 7.38342 3.00423 7.3671C2.95084 7.0804 3.02297 6.83446 3.02279 6.56534C3.02248 6.36108 2.99806 6.14253 3.0013 5.94816C3.00543 5.71651 3.03816 5.51987 3.03255 5.29484C3.03181 5.27139 2.96168 5.29875 2.96029 5.27042C2.95205 4.96225 2.96038 4.65539 3.00814 4.34855C3.01353 4.31861 3.07481 4.35765 3.08333 4.32706C3.13438 4.13884 3.25702 3.84121 2.98665 3.72941C2.9972 3.60204 3.00846 3.44696 3.06283 3.33292L3.07747 3.30753C3.11405 3.26404 3.16058 3.3184 3.13997 3.22648C3.13477 3.20312 3.07375 3.229 3.07161 3.1923C3.06338 3.03488 3.1224 2.87288 3.15267 2.71866C3.15825 2.68728 3.10607 2.67429 3.10091 2.66202C3.06158 2.55584 3.23876 2.49685 3.26107 2.48136C3.37999 2.38098 3.45266 2.29425 3.53743 2.20402C3.57257 2.16703 3.61019 2.13058 3.65365 2.09562C3.68853 2.06803 3.60283 2.04566 3.63607 2.01652C3.81066 1.8656 4.03864 1.76223 4.26204 1.73917C4.31143 1.73449 4.28222 1.8036 4.30599 1.8046C4.40712 1.81084 4.41118 1.69413 4.514 1.70792ZM12.5863 13.8857C12.5983 13.6783 12.8599 13.5526 12.8304 13.7782C12.825 13.8191 12.7467 13.6902 12.723 13.7421C12.6799 13.8373 12.845 13.9009 12.7572 13.998C12.7411 14.0155 12.5863 13.8991 12.5853 13.8857H12.5863ZM3.51986 13.5966C3.51688 13.5974 3.51397 13.6472 3.51693 13.6484C3.58803 13.6746 3.5938 13.5755 3.51986 13.5966ZM12.5218 12.4042C12.4788 12.4335 12.5288 12.5178 12.5824 12.4814C12.6249 12.4519 12.5752 12.3679 12.5218 12.4042ZM12.5033 11.6552C12.581 11.5615 12.2636 11.5471 12.3275 11.6474C12.3311 11.6532 12.4987 11.6607 12.5033 11.6552ZM12.431 10.8232C12.5299 10.7429 12.3844 10.6874 12.3079 10.7441C12.2319 10.8005 12.4004 10.8472 12.431 10.8232ZM12.6683 3.30558C12.6302 3.29249 12.6114 3.31389 12.6126 3.33292C12.6139 3.3505 12.6308 3.36709 12.6654 3.35734C12.6667 3.35605 12.6686 3.34457 12.6693 3.33292C12.67 3.32033 12.6697 3.30703 12.6683 3.30558ZM10.2835 2.03116C10.2808 2.02795 10.2477 2.0255 10.2484 2.04386C10.2508 2.10472 10.2996 2.08739 10.2835 2.03116ZM8.08529 1.88663C8.02635 2.00272 8.25707 2.0147 8.20638 1.89249C8.20269 1.8862 8.089 1.88083 8.08529 1.88663Z" fill="#555961"/>
</svg>
