<svg width="16" height="16" viewBox="0 0 16 16" fill="none" xmlns="http://www.w3.org/2000/svg">
<path d="M8.16537 3.14005C8.25837 3.1159 8.18177 3.2839 8.24155 3.34318C8.23798 3.21308 8.27373 3.23708 8.33822 3.22697C8.36916 3.2221 8.35687 3.1721 8.35971 3.16642C8.41176 3.09342 8.43668 3.19445 8.44272 3.21525C8.46588 3.29153 8.50644 3.20843 8.52182 3.25919C8.53647 3.31043 8.48332 3.37838 8.54233 3.38419C8.5647 3.34001 8.53348 3.2136 8.58237 3.19962C8.77067 3.14435 9.08199 3.30792 9.21225 3.3588C9.3451 3.40761 9.39135 3.41457 9.46322 3.45744C9.5918 3.5371 9.57293 3.43433 9.67612 3.43107C9.7792 3.43009 9.64928 3.61649 9.64291 3.66544C9.63593 3.71347 9.66841 3.67427 9.67221 3.70451C9.6757 3.73468 9.6318 3.75126 9.66049 3.77482C9.68894 3.79787 9.81444 3.76325 9.84897 3.72501C9.92117 3.64314 9.92939 3.52227 10.0033 3.60392C10.0074 3.60868 9.96376 3.65184 9.9808 3.6674C10.1162 3.78892 10.2692 3.8874 10.3871 4.02091C10.4027 4.03927 10.3486 4.07889 10.3568 4.09025C10.4455 4.20737 10.4697 4.08992 10.6087 4.04435C10.5612 4.09195 10.5291 4.138 10.513 4.18009C10.4907 4.23978 10.5002 4.29128 10.5462 4.33146C10.5936 4.37312 10.632 4.313 10.6966 4.30412C10.7159 4.30218 10.717 4.36821 10.7455 4.35002C10.8401 4.2904 10.8921 4.17049 10.9427 4.28752C10.9447 4.29274 10.892 4.32332 10.9017 4.3383C10.9641 4.43499 11.0553 4.36696 11.1497 4.45255C11.2241 4.51999 11.2796 4.7004 11.3324 4.79728C11.1829 4.90027 11.2716 4.95737 11.3997 4.92619C11.4339 4.98904 11.4802 5.05174 11.4984 5.12052C11.5046 5.14399 11.4517 5.15613 11.4476 5.16154C11.3907 5.24289 11.5107 5.21248 11.5228 5.22404C11.6405 5.35275 11.608 5.51158 11.7455 5.63029C11.7503 5.63433 11.873 5.60263 11.7992 5.67326C11.7936 5.67745 11.7239 5.64628 11.7425 5.71818C11.7619 5.79168 11.733 5.94199 11.8109 6.0297C11.8298 6.05036 11.9439 6.09571 11.8734 6.16056C11.8637 6.16906 11.8262 6.16724 11.808 6.18009C11.7497 6.22062 11.8788 6.21952 11.7767 6.27091C11.6742 6.32261 11.6027 6.39922 11.6839 6.49064C11.6918 6.49415 11.7885 6.51109 11.7884 6.5424C11.7884 6.59351 11.7689 6.66567 11.7689 6.71818C11.769 6.74339 11.8322 6.72842 11.8333 6.73283C11.865 6.9074 11.7979 7.02929 11.7445 7.20451C11.737 7.22904 11.7714 7.29889 11.7523 7.35392C11.7924 7.45834 11.7511 7.69802 11.8968 7.63224C11.9625 7.60189 12.0456 7.2119 12.1634 7.41447C12.2292 7.40002 12.294 7.39761 12.3578 7.4008C12.5139 7.40939 12.6556 7.46215 12.8216 7.44474C12.8324 7.44207 12.887 7.34466 12.9115 7.35099C12.9472 7.36216 12.954 7.41706 12.9779 7.42716C13.0772 7.47091 13.1856 7.46303 13.2806 7.51115C13.3159 7.52949 13.2821 7.57201 13.3226 7.59416C13.3629 7.61638 13.4233 7.56835 13.4642 7.62834C13.4951 7.67442 13.4634 7.82044 13.5033 7.86564C13.5802 7.74903 13.6152 7.77347 13.6996 7.78849C13.7157 7.7914 13.7312 7.74352 13.7406 7.74162C13.7527 7.74065 13.7612 7.74532 13.7679 7.75138C13.7826 7.7647 13.79 7.78657 13.8167 7.78361C13.8263 7.78236 13.8561 7.74439 13.8656 7.74162C13.9486 7.71746 13.9422 7.854 13.9388 7.87638C13.9299 7.96332 13.9883 7.93405 13.9974 7.98185C14.0052 8.02887 13.9407 8.0137 13.9603 8.05705C14.0004 8.14606 14.0821 8.22737 14.1361 8.30216C14.1578 8.33123 14.1933 8.27346 14.1976 8.27677C14.2584 8.33044 14.2444 8.43211 14.3753 8.40177C14.1232 8.62051 14.4283 8.42457 14.4271 8.559C14.4267 8.56975 14.2932 8.65111 14.2581 8.63419C14.224 8.61738 14.2418 8.55166 14.1888 8.53263C14.176 8.52725 14.024 8.55794 14.0111 8.55802C13.9221 8.54953 14.1054 8.40758 14.1136 8.39689C14.2023 8.28373 14.0305 8.31899 14.0111 8.31291C13.9187 8.27813 13.8935 8.20316 13.8177 8.17814C13.7681 8.16263 13.6611 8.27108 13.64 8.24552C13.5855 8.18063 13.6311 8.05119 13.5609 8.03166C13.5404 8.02625 13.51 8.03144 13.4662 8.05216C13.4245 8.07188 13.352 8.22148 13.3578 8.06974C13.3592 8.05796 13.367 7.92683 13.2992 7.97502C13.2905 7.98206 13.2683 8.02155 13.2611 8.02384C13.216 8.02914 13.2113 7.98409 13.1663 7.98283C13.1216 7.98175 13.0676 7.98737 13.0316 7.95548C13.0104 7.93623 13.0076 7.84 13.0013 7.81388C12.9838 7.74025 12.9113 7.82671 12.9095 7.7465C12.9055 7.66477 12.9903 7.56538 12.933 7.49748C12.8977 7.61848 12.8581 7.74197 12.8226 7.86369C12.6945 7.82563 12.5662 7.76605 12.4271 7.76603C12.41 7.76623 12.4244 7.83429 12.4066 7.83634C12.3895 7.83828 12.3731 7.83759 12.3568 7.83537C12.2883 7.82789 12.2219 7.8021 12.1468 7.81681C12.0712 7.83197 11.9876 7.9042 11.9085 7.92228C11.8674 7.79928 11.7765 7.81618 11.6976 7.81584C11.3783 7.79838 11.16 7.56123 11.2464 7.25334C11.249 7.24218 11.2522 7.23103 11.2562 7.22111C11.2661 7.19774 11.3029 7.20643 11.3187 7.19084C11.3769 7.13073 11.2453 7.14018 11.2288 7.11857C11.1574 7.02913 11.4437 7.06336 11.4476 6.96134C11.4422 6.95252 11.3004 6.87943 11.2913 6.8715C11.2326 6.8146 11.3451 6.86642 11.3587 6.83341C11.3826 6.77279 11.4202 6.72803 11.3744 6.6547C11.3608 6.63274 11.2643 6.58669 11.3353 6.5424C11.3447 6.53645 11.3961 6.53626 11.3988 6.53166C11.4428 6.44743 11.2832 6.45793 11.2249 6.4213C11.1669 6.38511 11.2664 6.30443 11.2953 6.28459C11.3682 6.23642 11.3367 6.3033 11.3421 6.30802C11.4405 6.31825 11.4173 6.26914 11.4183 6.22794C11.5719 6.19584 11.5514 6.13804 11.4183 6.18498C11.4044 6.19037 11.424 6.21874 11.4183 6.22794C11.2608 6.21825 11.2324 6.17015 11.3568 6.07169C11.4146 6.02521 11.4982 6.03515 11.4447 5.94474C11.4194 5.90512 11.3215 5.95048 11.2826 5.92228C11.1941 5.85928 11.2511 5.72066 11.2005 5.64103C11.1824 5.61291 11.1405 5.66492 11.1263 5.64689C11.0889 5.5999 11.1067 5.53454 11.0599 5.49162C11.0541 5.48942 11.006 5.52648 10.9974 5.51115C10.9298 5.39424 10.9035 5.2712 10.8216 5.15177C10.7822 5.09368 10.6795 5.01691 10.638 4.95841C10.568 4.85685 10.5215 4.68098 10.4242 4.62248C10.3618 4.58505 10.3325 4.64241 10.2826 4.6547C10.2277 4.66864 10.21 4.61852 10.2035 4.56681C10.1984 4.52743 10.2003 4.48742 10.2015 4.47599C10.2018 4.47507 10.2595 4.50167 10.2533 4.45646C10.2788 4.39241 10.2021 4.47611 10.2015 4.47599C10.2033 4.45831 10.1138 4.37491 10.0863 4.37052C10.0718 4.36825 10.0447 4.41918 10.0374 4.41837C9.87497 4.36974 9.73264 4.30373 9.59897 4.20744C9.59764 4.20404 9.63039 4.14796 9.62533 4.14298C9.55117 4.07453 9.46022 4.123 9.37143 4.1381C9.28231 4.1532 9.23285 4.11882 9.22494 3.99748C9.16447 3.99109 9.09848 3.91793 9.05795 3.87541C9.01727 3.83269 8.97669 3.95515 8.97201 3.95646C8.82338 4.00099 8.76615 3.91447 8.62924 3.88029C8.56455 3.86377 8.43182 3.86584 8.35971 3.87443C8.30278 3.88109 8.2701 3.84887 8.21713 3.86564C8.21011 3.86825 8.21446 3.92508 8.21225 3.92716C8.15346 3.9922 8.18496 3.85655 8.17416 3.83048C8.1332 3.73935 8.10422 3.69017 8.02768 3.73283C8.00927 3.74266 7.96297 3.94325 7.93393 3.95646C7.89512 3.97292 7.90656 3.90073 7.86557 3.92033C7.86219 3.92245 7.86522 3.96519 7.84018 3.96525C7.72173 3.96442 7.58883 3.95496 7.46713 3.98087C7.4506 3.98424 7.48358 4.04911 7.4603 4.05509C7.35105 4.08317 7.23226 4.10853 7.11752 4.10783C7.08914 4.10747 7.09121 4.05569 7.08139 4.04337C7.06646 4.02505 7.05421 4.01941 7.04428 4.02189C7.01396 4.02961 7.00666 4.10902 7.00131 4.11271C6.83121 4.23394 6.64236 4.18767 6.48276 4.33341C6.4733 4.34483 6.46648 4.50063 6.37631 4.41935C6.37052 4.41365 6.27567 4.32961 6.2894 4.4174C6.29044 4.42283 6.34234 4.46368 6.30502 4.4799C6.26678 4.49634 6.23552 4.56595 6.15072 4.5424C6.12411 4.53448 6.01749 4.46325 6.03158 4.57267C6.03132 4.58108 6.10353 4.79938 5.98764 4.70158C5.96838 4.6852 5.87101 4.56116 5.87338 4.66447C5.87435 4.6844 5.91427 4.69725 5.90463 4.73478C5.89072 4.79173 5.81369 4.80459 5.82065 4.89591C5.82161 4.9124 5.86849 5.01783 5.78647 4.98576C5.77338 4.98034 5.74289 4.93685 5.72592 4.94572C5.64418 4.99071 5.61019 5.08349 5.5267 5.13127C5.49704 5.14825 5.43974 5.0836 5.40072 5.09709C5.36161 5.1107 5.30267 5.15631 5.31479 5.20841C5.32726 5.25986 5.46012 5.30365 5.44174 5.35197C5.36312 5.55954 5.19899 5.71583 5.11752 5.92423C5.1058 5.95473 5.15997 5.94432 5.14682 5.98966C5.13227 6.04096 5.12024 6.10543 5.10873 6.17326C5.02552 6.46809 4.74371 6.72726 4.43783 6.71037C4.27889 6.71741 4.10587 6.73638 3.98764 6.68498C3.8494 6.62649 3.99531 6.53524 3.89096 6.52091C3.83906 6.51536 3.82368 6.67668 3.81479 6.68791C3.72181 6.76299 3.62981 6.71899 3.5433 6.77287C3.52682 6.78459 3.56675 6.83743 3.55209 6.84611C3.50251 6.87632 3.43524 6.87223 3.38705 6.89982C3.36593 6.91247 3.39022 6.9553 3.3685 6.96134C3.31673 6.97648 3.2655 6.97955 3.19662 6.96525C3.19047 6.96193 3.1903 6.89511 3.15365 6.91251C3.09376 6.94182 2.99587 6.94795 2.95737 7.03068C2.94605 7.05557 3.01021 7.14743 2.92612 7.11271C2.90867 7.10556 2.8384 6.98981 2.86166 7.11759C2.86403 7.14042 2.89058 7.31712 2.79233 7.26994C2.76625 7.25736 2.66939 7.19657 2.65951 7.22794C2.65865 7.23245 2.7095 7.26694 2.6976 7.28654C2.6526 7.35444 2.5898 7.40915 2.55014 7.48185C2.53984 7.50119 2.60649 7.51924 2.59018 7.5463C2.54569 7.6202 2.46971 7.69323 2.40658 7.75138C2.38318 7.77275 2.3519 7.72638 2.34604 7.72502C2.24988 7.70542 2.33949 7.79097 2.34018 7.80509C2.33682 7.8908 2.2584 7.91084 2.23959 7.9799C2.23482 7.99839 2.29195 8.01307 2.29623 8.01896C2.32452 8.07584 2.24381 8.00362 2.22201 8.01994C2.16149 8.06786 2.13354 8.14351 2.11557 8.21232C2.10979 8.2372 2.18333 8.23448 2.17709 8.25627C2.14164 8.38583 2.10035 8.51525 2.04135 8.63908C2.0301 8.66244 1.98078 8.63875 1.96811 8.64201C1.87952 8.66601 1.98583 8.73692 1.99545 8.74943C2.03795 8.80943 1.99029 8.82572 1.99545 8.87541C2.00066 8.91933 2.00468 8.9646 2.00815 9.01115C2.02258 9.21897 2.03431 9.44662 2.07162 9.62931C2.13095 9.9165 2.19548 10.1564 2.37729 10.3861C2.38886 10.4006 2.43416 10.3443 2.44467 10.3559C2.57678 10.5051 2.69626 10.6677 2.86655 10.7797C2.88034 10.7872 2.90329 10.7227 2.92612 10.7348C2.97357 10.7598 3.0244 10.8024 3.05697 10.85C3.07301 10.8732 3.01249 10.8996 3.02963 10.9223C3.07045 10.9754 3.12739 11.0166 3.18979 11.0395C3.21588 11.048 3.21329 10.9693 3.24447 10.9858C3.46016 11.096 3.67763 11.1664 3.90268 11.3041C3.91793 11.3135 3.90672 11.4509 3.94955 11.432C3.95924 11.3951 3.96645 11.3507 3.97494 11.311C4.12925 11.3296 4.28286 11.347 4.43881 11.3549C4.69427 11.3649 4.95097 11.382 5.20932 11.3861C5.22834 11.3863 5.19576 11.3137 5.23276 11.3139C5.44693 11.3149 5.65528 11.2953 5.87436 11.3676C5.89563 11.3759 5.88506 11.5027 5.94858 11.4838C5.95987 11.4803 6.05633 11.4627 6.08139 11.435C6.08476 11.4308 6.06743 11.3718 6.09799 11.3695C6.2787 11.3605 6.46837 11.3741 6.64877 11.4106C6.6779 11.4166 6.64756 11.4799 6.6683 11.4848C6.81527 11.5184 6.97513 11.4701 7.11557 11.5277C7.20969 11.5667 7.17493 11.6772 7.22494 11.7856C7.23226 11.8007 7.2903 11.8037 7.2933 11.8666C7.30096 12.025 7.27294 12.1988 7.28451 12.3676C7.28749 12.4033 7.36474 12.3649 7.31869 12.4526C7.31454 12.4588 7.25956 12.4876 7.24545 12.517C7.23575 12.5376 7.25256 12.6019 7.23276 12.6283C7.21297 12.6546 7.19134 12.6012 7.15854 12.6322C7.12588 12.6637 7.14 12.7369 7.07455 12.7455C6.92248 12.765 6.72313 12.7439 6.57162 12.7152C6.52411 12.7064 6.54778 12.6665 6.51498 12.6586C6.4509 12.6432 6.39081 12.6624 6.32748 12.644C6.30725 12.6369 6.33276 12.5749 6.31088 12.5697C6.19022 12.5419 6.07569 12.5577 5.95346 12.5444C5.44659 12.4888 4.9468 12.4637 4.43783 12.4399C4.3285 12.4352 4.22059 12.4258 4.11264 12.4115C3.88525 12.3826 3.62782 12.2749 3.39975 12.2309C3.37283 12.2258 3.37189 12.2837 3.36557 12.2865C3.26597 12.328 3.32532 12.2306 3.28061 12.1996C3.1003 12.0769 2.89549 11.9787 2.7103 11.8988C2.6323 11.8656 2.65195 12.0027 2.60776 11.9057C2.60502 11.8989 2.65291 11.8595 2.63608 11.8422C2.59768 11.8034 2.5082 11.759 2.4769 11.7319C2.41715 11.6799 2.40627 11.673 2.34701 11.6283C2.26611 11.5663 2.19161 11.4669 2.10287 11.4037C2.08384 11.3914 2.06597 11.4558 2.03158 11.4379C1.99667 11.42 1.92836 11.3461 1.91537 11.3119C1.90223 11.278 1.94585 11.2553 1.94955 11.2436C1.98248 11.1474 1.81694 11.1493 1.80307 11.1391C1.58599 10.9685 1.51267 10.7312 1.39584 10.5121C1.30625 10.3445 1.20481 10.1637 1.15268 9.98771C1.09111 9.77787 1.08453 9.59075 1.05405 9.38419C1.05014 9.36311 0.983936 9.39642 0.979826 9.36955C0.963439 9.25094 0.956692 9.13085 0.960295 9.01115C0.965494 8.83828 0.99344 8.66602 1.04819 8.50236C1.05797 8.47544 1.11333 8.52106 1.12631 8.49455C1.20359 8.32711 1.38918 8.11947 1.17123 7.93205C1.22076 7.82221 1.2886 7.69086 1.38412 7.62052C1.44555 7.57574 1.47706 7.66439 1.48862 7.57951C1.49147 7.56032 1.42821 7.55361 1.43588 7.52677C1.47248 7.41144 1.55654 7.30987 1.59799 7.19572C1.60601 7.17239 1.55891 7.14727 1.55502 7.13615C1.52596 7.04299 1.6878 7.0402 1.70737 7.03068C1.85916 6.94959 1.91342 6.84908 2.01791 6.7465C2.04174 6.72302 1.96366 6.7009 1.98569 6.67619C2.10126 6.54833 2.24362 6.43651 2.3978 6.36466C2.43211 6.34896 2.44031 6.41831 2.45834 6.41349C2.53608 6.39278 2.48671 6.28825 2.56283 6.26798C2.57884 6.26381 2.59934 6.31252 2.60483 6.31584C2.6891 6.36816 2.65576 6.24127 2.6644 6.23185C2.77192 6.12403 2.91641 6.19904 3.03158 6.12541C3.04544 6.11635 2.98425 6.07193 3.02572 6.05021C3.30509 5.90489 3.63925 5.82831 3.94955 5.8383C3.99759 5.83981 3.97107 5.89421 3.97494 5.89982C4.03414 5.98728 4.04943 5.85752 4.06479 5.85099C4.11715 5.83014 4.16881 5.83786 4.21713 5.84025C4.35555 5.40066 4.52404 4.9541 4.89389 4.66935C4.89903 4.66525 4.94253 4.71272 4.95248 4.70451C5.07376 4.60769 4.97921 4.57039 4.95737 4.41252C4.95309 4.37259 5.10971 4.40993 5.12436 4.41349C5.16949 4.42184 5.22009 4.5029 5.23178 4.50334C5.3204 4.49609 5.09024 4.28907 5.15951 4.22013C5.1634 4.22109 5.19307 4.26854 5.20248 4.26701C5.23227 4.2623 5.23432 4.22857 5.26498 4.22599C5.3368 4.22083 5.45073 4.32017 5.45444 4.20158C5.45506 4.18624 5.32727 4.06323 5.39877 4.01408C5.42732 3.9938 5.54402 3.89855 5.5853 3.88322C5.62559 3.86763 5.63596 3.92857 5.63998 3.93009C5.77389 3.92583 5.75802 3.97676 5.86459 4.03751C5.96852 4.09858 5.81163 3.88964 5.81381 3.85197C5.81691 3.81464 5.9188 3.8231 5.94662 3.83146C5.97453 3.83953 5.97249 3.88276 5.9935 3.88419C6.1313 3.89415 5.9702 3.7456 5.98276 3.68986C6.01548 3.55815 6.17279 3.69445 6.25326 3.67619C6.27551 3.67094 6.24004 3.63893 6.25619 3.62638C6.32099 3.57753 6.389 3.61314 6.44955 3.52677C6.45893 3.51281 6.48391 3.37562 6.5599 3.43791C6.5706 3.44709 6.57057 3.49917 6.6058 3.49748C6.65833 3.4948 6.74625 3.47538 6.79233 3.44377C6.82654 3.42018 6.75894 3.3573 6.81479 3.36564C6.83954 3.36957 6.81392 3.42712 6.85873 3.43107C6.86055 3.43123 6.8626 3.43102 6.86459 3.43107C6.91155 3.43193 7.00617 3.40378 7.0433 3.39298C7.08029 3.38157 7.04678 3.3304 7.04721 3.32365C7.06051 3.29607 7.13038 3.24928 7.13803 3.24748C7.48466 3.16329 7.81622 3.23506 8.1517 3.20744C8.17695 3.20482 8.16247 3.14428 8.16537 3.14005ZM7.03647 11.8188C7.0584 11.7479 6.97596 11.7422 6.9935 11.8158C6.99421 11.8188 7.03547 11.8217 7.03647 11.8188ZM14.4486 8.85783C14.4555 8.71401 14.6042 8.57099 14.6517 8.7465C14.6601 8.78167 14.5447 8.70574 14.5404 8.75724C14.5309 8.84752 14.7058 8.8454 14.6478 8.95548C14.6362 8.97271 14.4646 8.92849 14.4554 8.91935L14.4486 8.85783ZM13.8167 7.98673C13.8265 7.93844 13.7421 7.93288 13.7308 7.99259C13.7211 8.03999 13.8032 8.046 13.8167 7.98673ZM12.5853 7.60197C12.5335 7.49704 12.4797 7.63994 12.515 7.71916C12.5472 7.7984 12.5995 7.63385 12.5853 7.60197ZM4.87436 4.79923C4.86773 4.79725 4.80797 4.87267 4.80893 4.88127C4.87699 4.98749 4.998 4.8353 4.87436 4.79923ZM6.30405 3.77287C6.30088 3.77082 6.27451 3.78132 6.28256 3.79728C6.31181 3.85063 6.34088 3.81734 6.30405 3.77287ZM8.8519 3.40861C8.81663 3.47401 8.89579 3.49524 8.89389 3.41935C8.89159 3.41589 8.85342 3.40594 8.8519 3.40861Z" fill="#555961"/>
<path d="M13.7952 11.1927C13.7895 11.1996 13.7134 11.2908 13.7708 11.2415C13.7786 11.2347 13.8122 11.2007 13.8157 11.1985C13.8384 11.1848 13.8149 11.2151 13.8323 11.2073C13.8504 11.1991 13.8755 11.1852 13.8694 11.2024C13.8652 11.2134 13.8062 11.2809 13.7923 11.2981C13.752 11.3475 13.8309 11.2793 13.7796 11.3362C13.7276 11.3939 13.6387 11.4719 13.6107 11.5149C13.7001 11.4261 13.7921 11.3346 13.8821 11.2454C13.8953 11.2648 13.883 11.3095 13.9027 11.3225C13.9052 11.324 13.9501 11.2759 13.9554 11.2747C13.9723 11.2763 13.9468 11.3187 13.97 11.3147C13.9886 11.3109 14.0473 11.2689 14.0677 11.2639C13.9704 11.3707 14.0159 11.3478 14.015 11.3655C14.0136 11.3724 13.9874 11.3987 13.9808 11.4094C13.956 11.4499 14.041 11.3568 14.0579 11.344C14.1272 11.2931 13.928 11.4945 13.9407 11.5032C13.9415 11.5036 14.058 11.4026 14.0657 11.3968C14.1158 11.359 14.0289 11.4356 14.0247 11.4475C14.0171 11.4693 13.9954 11.4994 14.0355 11.4759C14.0473 11.4688 14.1209 11.4074 14.0735 11.4641C14.0674 11.4714 14.0327 11.5061 14.0296 11.51C14.0035 11.554 14.1159 11.4418 14.1595 11.4085C14.2029 11.3754 14.1335 11.4615 14.1126 11.4856C14.0597 11.5468 14.0832 11.5082 14.0784 11.512C14.0078 11.5772 14.0251 11.5721 14.0237 11.5823C13.9139 11.6934 13.9266 11.6927 14.0228 11.5921C14.0331 11.5813 14.0204 11.5876 14.0237 11.5823C14.1363 11.4775 14.1569 11.4703 14.0628 11.5794C14.0188 11.6304 13.9606 11.6827 13.9915 11.6731C14.0061 11.6681 14.0799 11.5899 14.1048 11.5735C14.1614 11.5364 14.104 11.6187 14.1243 11.6184C14.1319 11.618 14.1696 11.5745 14.1771 11.5716C14.195 11.5669 14.17 11.6034 14.1927 11.594C14.1971 11.5906 14.237 11.5486 14.2396 11.5501C14.2601 11.5608 14.2465 11.6023 14.262 11.6194C14.2703 11.6271 14.3075 11.6182 14.3109 11.6311C14.3162 11.6541 14.2712 11.7336 14.2982 11.7307C14.316 11.7288 14.3578 11.6829 14.3909 11.6565C14.4552 11.6053 14.3634 11.721 14.3489 11.7385C14.3399 11.75 14.3439 11.7733 14.3548 11.7678C14.3606 11.7648 14.3991 11.7252 14.4036 11.7219C14.4589 11.7031 14.4875 11.7105 14.4866 11.7483C14.4836 11.7519 14.4404 11.7941 14.4388 11.7971C14.4289 11.8284 14.493 11.779 14.5355 11.7542C14.5777 11.7296 14.5734 11.7478 14.4993 11.8323C14.5153 11.8296 14.4897 11.874 14.4739 11.9007C14.4592 11.9262 14.5465 11.8398 14.5511 11.8362C14.6228 11.7944 14.5812 11.8543 14.5882 11.8782C14.5917 11.8896 14.6201 11.8917 14.638 11.8899C14.6516 11.8888 14.6349 11.9127 14.6536 11.9055C14.6562 11.9046 14.6938 11.8659 14.6976 11.8626C14.7521 11.8211 14.6513 11.9159 14.6351 11.9348C14.5763 12.0034 14.5451 12.0403 14.5833 12.0188C14.5921 12.0139 14.7395 11.8781 14.7513 11.8733C14.7655 11.8681 14.7138 11.9159 14.7308 11.9085C14.734 11.906 14.7629 11.8776 14.765 11.8811C14.7727 11.9008 14.7692 11.9343 14.7864 11.9456C14.7887 11.9472 14.8356 11.8958 14.8402 11.8968C14.8593 11.9041 14.872 11.9202 14.8616 11.9563C14.8587 11.9655 14.8224 11.9981 14.8128 12.0091C14.7556 12.0746 14.8484 11.9937 14.8538 11.9905C14.921 11.9706 14.8571 12.0699 14.9202 12.055C14.9265 12.0517 15.0298 11.9687 14.9525 12.055C14.9472 12.0608 14.8659 12.1503 14.928 12.096C14.9319 12.0926 14.9736 12.0466 14.9739 12.0559C14.9754 12.0641 15.0105 12.0444 14.97 12.0979C14.957 12.1152 14.8765 12.2053 14.9505 12.1438C14.9565 12.1387 15.1179 11.9969 15.0159 12.1057C14.9978 12.125 14.8879 12.2337 14.9515 12.1848C14.964 12.1752 14.9868 12.1479 15.0062 12.136C15.0359 12.1178 15.0138 12.1552 15.0706 12.1126C15.0807 12.105 15.162 12.0342 15.1087 12.096C15.1005 12.1055 15.0632 12.1403 15.0599 12.1477C15.0505 12.1783 15.0864 12.1651 15.0716 12.2014C15.0663 12.2143 15.0037 12.2731 14.9915 12.2932C14.9794 12.3133 14.9719 12.3368 15.0032 12.3137C15.035 12.2903 15.127 12.1892 15.1409 12.1878C15.1426 12.1876 15.1443 12.1878 15.1458 12.1878C15.2975 12.5398 15.4978 12.9941 15.1458 13.1458C15.1469 13.1994 15.068 13.1726 15.0335 13.1907C15.0284 13.1934 15.0643 13.2233 15.0609 13.2307C15.0416 13.2551 15.0356 13.3257 14.9437 13.2718C14.8699 13.2283 14.8444 13.1639 14.8089 13.1516C14.7922 13.146 14.8958 13.2621 14.8997 13.2688C14.9223 13.3178 14.8642 13.2779 14.8675 13.305C14.8703 13.3121 14.9153 13.3535 14.9153 13.3577C14.9158 13.3723 14.8882 13.3599 14.8851 13.3704C14.8846 13.3758 14.9188 13.4093 14.9134 13.4094C14.9006 13.41 14.8797 13.4009 14.8411 13.3753C14.8358 13.3706 14.7987 13.3261 14.7923 13.3294C14.7817 13.3349 14.7402 13.3135 14.764 13.3557C14.7727 13.3698 14.849 13.4467 14.7894 13.3987C14.7767 13.3885 14.6829 13.2921 14.7581 13.3811C14.7709 13.3963 14.8697 13.5175 14.7933 13.4524C14.7732 13.4353 14.6922 13.3624 14.6995 13.3762C14.701 13.3786 14.7446 13.4182 14.7474 13.426C14.7516 13.4496 14.7372 13.4556 14.7405 13.4788C14.7415 13.4851 14.7893 13.5255 14.7894 13.5335C14.7894 13.5551 14.7648 13.5571 14.7405 13.554C14.7315 13.5527 14.6969 13.5137 14.6927 13.51C14.6243 13.4508 14.7087 13.5406 14.7122 13.5471C14.7327 13.5864 14.6848 13.5531 14.6868 13.5725C14.6873 13.5777 14.7289 13.6158 14.7337 13.6214C14.7649 13.6625 14.6944 13.5845 14.6829 13.5794C14.6508 13.5649 14.6445 13.5788 14.6409 13.593C14.6426 13.6003 14.6914 13.6427 14.6898 13.6468C14.6807 13.6723 14.6578 13.6854 14.6146 13.676C14.6063 13.6742 14.571 13.6351 14.5618 13.6272C14.498 13.5726 14.5723 13.66 14.5784 13.6692C14.6063 13.711 14.5713 13.6821 14.5706 13.6936C14.5707 13.7545 14.5111 13.7702 14.4691 13.7854C14.4145 13.8054 14.35 13.7993 14.3235 13.844C14.3218 13.8468 14.3742 13.8947 14.3734 13.8977C14.3599 13.9345 14.316 13.9404 14.305 13.9798C14.3074 13.9854 14.3523 14.0251 14.3538 14.0325C14.3541 14.0464 14.3424 14.0532 14.3206 14.0452C14.3101 14.0414 14.2751 13.9971 14.265 13.9934C14.242 13.9863 14.2304 13.9915 14.2298 14.0071C14.2303 14.0142 14.2825 14.0568 14.2786 14.0618C14.2529 14.097 14.2307 14.1348 14.138 14.1038C14.1313 14.1013 14.0331 14.0065 14.0472 14.0296C14.0738 14.0568 14.1055 14.0886 14.1341 14.1175C14.1053 14.1773 14.0276 14.1877 13.9778 14.2268C13.9758 14.2285 14.03 14.2767 14.0267 14.2805C14.0049 14.3008 13.9984 14.3353 13.9261 14.3059C13.919 14.3031 13.8305 14.2127 13.8362 14.2307C13.8376 14.2343 13.8405 14.2565 13.8577 14.2786C13.861 14.2824 13.9034 14.3214 13.9027 14.3264C13.8913 14.3506 13.863 14.3598 13.8196 14.3518C13.8126 14.3505 13.7712 14.3035 13.765 14.301C13.7266 14.2916 13.7452 14.3406 13.6907 14.3137C13.654 14.2955 13.5789 14.2145 13.4974 14.1428C13.486 14.1329 13.4783 14.1368 13.4339 14.093C13.3211 13.9817 13.201 13.8559 13.0804 13.7376C13.0544 13.7121 13.0742 13.7473 13.0169 13.6809C13.0131 13.6765 12.9976 13.6497 12.9778 13.6272C12.964 13.6115 12.9173 13.5677 12.9007 13.5471C12.8846 13.5272 12.9242 13.5624 12.9056 13.5374C12.8865 13.5119 12.833 13.462 12.8333 13.4495C12.8345 13.4208 12.8695 13.4158 12.9046 13.4212C12.9155 13.423 12.9405 13.4534 12.9495 13.4563C12.9668 13.461 12.9596 13.4407 12.9788 13.4475C12.9858 13.4507 13.0256 13.4952 13.0325 13.4983C13.0638 13.5061 13.0642 13.4845 13.0853 13.4817C13.1911 13.4693 13.2668 13.4275 13.347 13.388C13.3736 13.3752 13.4371 13.3907 13.4398 13.3528C13.4379 13.3467 13.3995 13.3105 13.3968 13.3069C13.3553 13.2513 13.4315 13.3323 13.4466 13.3382C13.506 13.361 13.5297 13.3443 13.5325 13.3118C13.5335 13.2977 13.4491 13.227 13.5003 13.263C13.5042 13.2659 13.5421 13.3086 13.5491 13.3118C13.5638 13.3171 13.5657 13.3004 13.5726 13.3001C13.586 13.2996 13.5871 13.2983 13.5941 13.2923C13.6041 13.2842 13.6356 13.2936 13.636 13.2747C13.636 13.2705 13.5902 13.2305 13.5862 13.22C13.5824 13.2096 13.5949 13.2043 13.6077 13.2112C13.6207 13.2183 13.6532 13.2528 13.6614 13.26C13.7304 13.3204 13.6506 13.2206 13.6497 13.2171C13.6361 13.1561 13.7077 13.1867 13.7298 13.1643C13.7464 13.1471 13.7476 13.1117 13.7659 13.0979C13.788 13.082 13.8274 13.0889 13.8421 13.0667C13.8437 13.0643 13.7914 13.0159 13.7933 13.013C13.813 12.9818 13.8437 12.9617 13.9027 12.97C13.9086 12.9709 13.9497 13.0182 13.9583 13.0218C14.0101 13.0424 14.1204 13.1037 13.9388 12.9036C13.9568 12.9005 13.9777 12.896 14.0257 12.9251C14.0566 12.9439 14.0982 12.9969 14.0853 12.969C14.0809 12.9616 14.0385 12.9233 14.0374 12.9173C14.0327 12.8913 14.0583 12.8928 14.0472 12.8606C14.044 12.8533 14.0064 12.8171 14.0003 12.8098C13.9509 12.7502 14.0494 12.8324 14.0579 12.8372C14.1208 12.872 14.1122 12.8424 14.1263 12.8303C14.1296 12.8277 14.0785 12.7828 14.0775 12.7766C14.0855 12.7542 14.1056 12.7428 14.1429 12.7503C14.1519 12.753 14.1914 12.798 14.1976 12.801C14.2233 12.813 14.1451 12.7307 14.1693 12.7415C14.1751 12.7446 14.2099 12.7817 14.2142 12.7854C14.2804 12.8437 14.198 12.7539 14.1946 12.7483C14.1807 12.7083 14.2813 12.7928 14.2816 12.7678C14.2814 12.7647 14.232 12.7217 14.2337 12.7151C14.2493 12.6739 14.2925 12.6562 14.3577 12.6653C14.3638 12.6661 14.3768 12.6816 14.388 12.6936C14.3908 12.6908 14.3931 12.6875 14.3958 12.6848C14.391 12.6793 14.3876 12.6752 14.387 12.6741C14.3751 12.6419 14.4425 12.6926 14.3831 12.6184C14.3748 12.6263 14.3693 12.6343 14.3646 12.638C14.3202 12.6725 14.3414 12.6403 14.3704 12.6028C14.3669 12.5986 14.3638 12.593 14.3597 12.5882C14.3718 12.5867 14.3811 12.5812 14.39 12.5764C14.4056 12.5562 14.4205 12.5391 14.4222 12.5325C14.4224 12.5285 14.3961 12.5579 14.39 12.5608C14.3712 12.5645 14.4091 12.5177 14.3616 12.5481C14.3538 12.5531 14.2634 12.629 14.3196 12.5637C14.3278 12.5544 14.3638 12.522 14.3685 12.511C14.3752 12.4947 14.3742 12.4785 14.3577 12.4846C14.3454 12.4893 14.2932 12.55 14.306 12.5276C14.3124 12.5173 14.3489 12.4887 14.3568 12.4729C14.3647 12.4571 14.353 12.4484 14.348 12.4456C14.343 12.4429 14.3031 12.4871 14.2991 12.4905C14.2807 12.5052 14.2519 12.5186 14.2513 12.5178C14.2131 12.4898 14.2547 12.3865 14.1985 12.3782C14.1928 12.3793 14.1508 12.4247 14.1497 12.4251C14.1224 12.4351 14.2492 12.322 14.2835 12.2757C14.1931 12.3678 14.2055 12.3481 14.1898 12.3518C14.1819 12.3538 14.1478 12.3914 14.1439 12.3948C14.0859 12.4441 14.1512 12.3724 14.1653 12.3567C14.215 12.3013 14.1498 12.3596 14.1829 12.3225C14.2157 12.2859 14.272 12.2391 14.2659 12.2337C14.2314 12.2649 14.1496 12.355 14.1312 12.3645C14.0617 12.4005 14.0976 12.302 14.0911 12.2815C14.0847 12.2613 14.0746 12.2627 14.0784 12.2434C14.0858 12.2078 14.0275 12.2767 13.9896 12.2971C13.9518 12.3173 14.1124 12.1642 14.1448 12.1292C14.1773 12.0943 14.1415 12.1278 14.1585 12.1077C14.1754 12.0878 14.2018 12.0685 14.2054 12.0579C14.2087 12.0473 14.1384 12.0971 14.1019 12.1311C14.0245 12.2031 13.9501 12.2855 13.9681 12.2483C13.9701 12.2453 14.0129 12.2067 14.015 12.2005C14.0297 12.1522 14.0145 12.1328 14.0257 12.0882C14.0273 12.0819 14.075 12.0376 14.0765 12.0335C14.0915 11.9906 14.0194 12.0726 13.9261 12.1507C14.042 12.0381 14.1079 11.9637 14.098 11.9524C14.0915 11.9464 14.0423 11.9977 14.0032 12.0286C13.9926 12.0366 14.0214 11.9994 13.9974 12.0218C13.918 12.0958 13.8366 12.1858 13.8597 12.1409C13.8608 12.1388 13.9018 12.0998 13.9046 12.094C13.9105 12.0666 13.8293 12.1456 13.8079 12.1438C13.7913 12.1424 13.8237 12.0775 13.8216 12.0589C13.9504 11.9305 13.9112 11.9498 13.8187 12.0344C13.8155 12.0242 13.8032 12.0219 13.8089 12.0032C13.811 11.9966 13.8501 11.9606 13.8538 11.9563C13.911 11.8907 13.8258 11.9707 13.8187 11.9749C13.7701 11.992 13.822 11.9136 13.7435 11.9622C13.7406 11.9639 13.6503 12.0526 13.7112 11.9837C13.7155 11.9789 13.7611 11.9431 13.7571 11.9329C13.7535 11.9223 13.7876 11.8614 13.7366 11.8928C13.724 11.9007 13.6459 11.9668 13.6976 11.9055C13.7046 11.8973 13.731 11.8729 13.7444 11.8577C13.7868 11.8093 13.6953 11.8972 13.7679 11.8177C13.8411 11.7374 13.8912 11.6721 13.8284 11.7151C13.8244 11.7184 13.7532 11.7857 13.7513 11.7815C13.7483 11.7747 13.7558 11.7532 13.7503 11.7483C13.7476 11.7461 13.7047 11.7919 13.7034 11.7923C13.6619 11.8005 13.6894 11.7492 13.6888 11.7141C13.6888 11.7076 13.6189 11.7586 13.6605 11.7044C13.706 11.6449 13.9311 11.4343 13.8636 11.47C13.8363 11.4843 13.5511 11.7529 13.6829 11.5979C13.6251 11.6109 13.6775 11.5175 13.6048 11.5452C13.6015 11.5464 13.5202 11.6199 13.5189 11.6165C13.5188 11.6098 13.5512 11.5734 13.5511 11.5686C13.5512 11.5473 13.5116 11.568 13.5062 11.553C13.5059 11.5461 13.5418 11.5117 13.5394 11.5052C13.5356 11.4999 13.4856 11.5438 13.5023 11.5149C13.5156 11.4921 13.6121 11.3864 13.6175 11.3684C13.5182 11.4673 13.5155 11.4613 13.4818 11.4798C13.4752 11.4834 13.4417 11.5192 13.4368 11.5227C13.4167 11.5372 13.4422 11.5061 13.4202 11.5227C13.415 11.5267 13.3823 11.5597 13.3753 11.5657C13.3209 11.611 13.3897 11.5275 13.4017 11.513C13.4466 11.4582 13.4003 11.4994 13.4163 11.4759C13.4323 11.4524 13.4633 11.4337 13.471 11.4173C13.4867 11.3832 13.469 11.3764 13.4612 11.3655C13.457 11.3627 13.4149 11.409 13.4134 11.4094C13.3952 11.4124 13.4346 11.3586 13.3411 11.4436C13.5684 11.2058 13.3133 11.4611 13.3489 11.4036C13.353 11.3978 13.4613 11.2885 13.4808 11.2757C13.5002 11.2629 13.4708 11.3018 13.5003 11.2815C13.5073 11.2767 13.6172 11.1795 13.6243 11.1741C13.6789 11.1328 13.5158 11.2975 13.5071 11.3069C13.4138 11.4083 13.5326 11.3048 13.5423 11.2991C13.5865 11.2733 13.5711 11.3038 13.6038 11.2864C13.6245 11.2755 13.7268 11.1747 13.7337 11.1751C13.7359 11.1991 13.591 11.3546 13.7337 11.2366C13.7644 11.2112 13.8782 11.0907 13.7952 11.1927ZM13.4925 14.1009C13.5404 14.1531 13.5524 14.1484 13.4984 14.0979C13.496 14.0963 13.4906 14.0988 13.4925 14.1009ZM14.5667 12.7093C14.573 12.6851 14.5487 12.7036 14.5071 12.7395V12.8264C14.5066 12.8084 14.5102 12.7864 14.5198 12.7581C14.5204 12.7564 14.5659 12.7125 14.5667 12.7093ZM14.5794 12.7395C14.6664 12.6623 14.6558 12.6352 14.5735 12.7259C14.5699 12.7309 14.5751 12.7432 14.5794 12.7395ZM14.4144 12.7171C14.4421 12.7405 14.4335 12.7301 14.4193 12.7132C14.4177 12.7146 14.4159 12.7157 14.4144 12.7171ZM14.5931 12.6184C14.6108 12.5939 14.5605 12.6408 14.5071 12.6907V12.7044C14.5374 12.6721 14.5892 12.6237 14.5931 12.6184ZM14.511 12.6282C14.5103 12.6288 14.5088 12.6296 14.5071 12.6311V12.6507C14.5341 12.6191 14.5509 12.5974 14.511 12.6282ZM14.555 12.5012C14.5956 12.4548 14.5546 12.4939 14.5071 12.5403V12.554C14.5206 12.5395 14.5365 12.5224 14.555 12.5012ZM14.4993 12.4553C14.4974 12.4578 14.4985 12.462 14.511 12.4495C14.5539 12.4063 14.5378 12.4143 14.4993 12.4553ZM14.2161 12.2141C14.2142 12.2164 14.2159 12.222 14.2181 12.22C14.2706 12.1719 14.2668 12.16 14.2161 12.2141ZM13.3987 11.2874C13.4001 11.319 13.2343 11.5057 13.2357 11.468C13.2361 11.4609 13.3023 11.4159 13.3148 11.3948C13.3373 11.3565 13.2154 11.4673 13.2698 11.3968C13.2805 11.3837 13.383 11.2991 13.3987 11.2874ZM13.8568 11.3499C13.906 11.2913 13.7823 11.4066 13.763 11.43C13.6997 11.5066 13.8074 11.4086 13.8568 11.3499ZM13.5677 11.3635C13.5957 11.3307 13.5537 11.3588 13.5189 11.3997C13.4913 11.4321 13.533 11.4041 13.5677 11.3635Z" fill="#555961"/>
<path d="M10.9014 11.0326C10.9397 11.0421 10.9219 10.9919 10.9766 11.019C11.0134 11.0374 11.0875 11.1192 11.1689 11.1909C11.1803 11.2008 11.188 11.1969 11.2324 11.2407C11.3452 11.352 11.4654 11.4778 11.5859 11.5961C11.6119 11.6216 11.592 11.5864 11.6494 11.6528C11.6532 11.6572 11.6689 11.6831 11.6885 11.7055C11.702 11.721 11.7487 11.7649 11.7656 11.7856C11.7822 11.8061 11.7428 11.771 11.7607 11.7953C11.7797 11.8208 11.8333 11.8717 11.833 11.8842C11.8315 11.9125 11.7975 11.9168 11.7627 11.9116C11.7518 11.9099 11.7257 11.8799 11.7168 11.8774C11.6997 11.8728 11.7071 11.8925 11.6885 11.8862C11.682 11.8838 11.6396 11.8359 11.6338 11.8344C11.6024 11.8267 11.6024 11.8494 11.581 11.852C11.4752 11.8644 11.4004 11.9062 11.3203 11.9457C11.294 11.9588 11.2295 11.9422 11.2266 11.9799C11.2263 11.9843 11.2659 12.0214 11.2695 12.0258C11.3117 12.0822 11.2348 12.0014 11.2197 11.9955C11.1602 11.9727 11.1364 11.9892 11.1338 12.0219C11.1328 12.036 11.2181 12.1057 11.167 12.0698C11.1635 12.0673 11.1239 12.0245 11.1172 12.0219C11.1025 12.0166 11.1007 12.0333 11.0937 12.0336C11.0805 12.0341 11.0793 12.0353 11.0723 12.0414C11.062 12.0492 11.0315 12.04 11.0312 12.059C11.033 12.0645 11.0762 12.1034 11.0801 12.1137C11.0837 12.1241 11.0715 12.1285 11.0586 12.1215C11.0454 12.1141 11.0141 12.0799 11.0059 12.0727C10.9381 12.0134 11.013 12.1089 11.0166 12.1157C11.0306 12.1771 10.9597 12.147 10.9375 12.1694C10.9208 12.1865 10.9188 12.221 10.9004 12.2348C10.8783 12.2508 10.84 12.2448 10.8252 12.267C10.8236 12.2693 10.8729 12.3145 10.874 12.3198C10.8543 12.3511 10.8229 12.3711 10.7637 12.3627C10.7567 12.3603 10.7182 12.3166 10.709 12.3119C10.6573 12.2915 10.5458 12.2289 10.7275 12.4291C10.7095 12.4322 10.6886 12.4377 10.6406 12.4086C10.6098 12.3898 10.5685 12.3364 10.581 12.3637C10.5839 12.3699 10.6278 12.4103 10.6289 12.4164C10.6333 12.4421 10.6091 12.4401 10.6201 12.4721C10.6224 12.4786 10.6589 12.5146 10.666 12.5229C10.7157 12.5827 10.6168 12.5012 10.6084 12.4965C10.5453 12.4617 10.5544 12.4914 10.54 12.5034C10.5396 12.5082 10.5902 12.5527 10.5889 12.5571C10.5809 12.5793 10.5613 12.5907 10.5244 12.5834C10.5161 12.5817 10.4767 12.5367 10.4697 12.5326C10.4428 12.5197 10.5222 12.602 10.498 12.5912C10.493 12.5891 10.4564 12.5521 10.4521 12.5483C10.385 12.4891 10.4717 12.5824 10.4726 12.5854C10.4859 12.6247 10.3842 12.54 10.3848 12.5659C10.385 12.5691 10.435 12.6124 10.4326 12.6186C10.417 12.6597 10.3738 12.6765 10.3086 12.6674C10.3023 12.6662 10.2894 12.651 10.2783 12.6391C10.2753 12.6421 10.2724 12.6451 10.2695 12.6479C10.2749 12.6541 10.2799 12.6586 10.2803 12.6596C10.2914 12.6909 10.2248 12.6412 10.2832 12.7143C10.2915 12.7064 10.298 12.6994 10.3027 12.6957C10.3469 12.6613 10.324 12.6924 10.2949 12.7299C10.2986 12.7343 10.3022 12.7395 10.3066 12.7446C10.2941 12.7461 10.2845 12.7513 10.2754 12.7563C10.26 12.7761 10.2461 12.7935 10.2441 12.8002C10.2426 12.806 10.2725 12.7729 10.2773 12.7719C10.2956 12.7686 10.2579 12.8163 10.3057 12.7856C10.3135 12.7806 10.403 12.7046 10.3467 12.77C10.3381 12.7797 10.3023 12.8119 10.2978 12.8227C10.2912 12.8389 10.293 12.8553 10.3096 12.8491C10.3222 12.8437 10.3732 12.7839 10.3613 12.8051C10.3556 12.8151 10.3185 12.8448 10.3105 12.8608C10.3027 12.8765 10.3132 12.8853 10.3184 12.8881C10.3234 12.8908 10.3649 12.8458 10.3682 12.8432C10.3866 12.8286 10.4144 12.8151 10.415 12.8159C10.4533 12.8438 10.4116 12.9462 10.4678 12.9545C10.4719 12.9552 10.5124 12.9124 10.5166 12.9086C10.5442 12.8983 10.417 13.0117 10.3828 13.058C10.4738 12.9653 10.4614 12.9849 10.4775 12.9809C10.4861 12.9776 10.5175 12.9435 10.5225 12.9389C10.5809 12.8892 10.5145 12.9619 10.501 12.977C10.4515 13.0323 10.5162 12.9735 10.4834 13.0102C10.4506 13.0468 10.3944 13.0945 10.4004 13.1C10.4349 13.0688 10.5167 12.9777 10.5351 12.9682C10.6046 12.9323 10.5687 13.0317 10.5752 13.0522C10.5816 13.0723 10.5919 13.0707 10.5879 13.0903C10.5806 13.1258 10.6388 13.0572 10.6767 13.0366C10.7147 13.0162 10.5543 13.1683 10.5215 13.2035C10.489 13.2385 10.5248 13.2059 10.5078 13.226C10.4909 13.2459 10.4654 13.2653 10.4619 13.2758C10.4586 13.2864 10.5278 13.2365 10.5644 13.2026C10.6417 13.1307 10.7158 13.0478 10.6982 13.0844C10.6972 13.0865 10.656 13.1248 10.6523 13.1323C10.6374 13.1808 10.6529 13.2007 10.6416 13.2455C10.64 13.2517 10.5926 13.294 10.5898 13.2993C10.5745 13.3426 10.6476 13.2604 10.7412 13.1821C10.6251 13.2948 10.5594 13.369 10.5693 13.3803C10.5759 13.3862 10.624 13.336 10.6631 13.3051C10.6746 13.296 10.6451 13.3341 10.6689 13.3119C10.7484 13.2379 10.8307 13.1479 10.8076 13.1928C10.8065 13.1949 10.7626 13.2355 10.7617 13.2397C10.7559 13.2668 10.8366 13.1888 10.8584 13.1899C10.8751 13.1913 10.8423 13.2565 10.8447 13.2748C10.7161 13.403 10.755 13.383 10.8476 13.2983C10.8507 13.3086 10.8632 13.3118 10.8574 13.3305C10.8541 13.3378 10.8181 13.3713 10.8135 13.3764C10.7547 13.4438 10.8438 13.3608 10.8486 13.3588C10.897 13.3418 10.845 13.4194 10.9238 13.3705C10.9311 13.3643 11.0146 13.2827 10.9551 13.35C10.95 13.3554 10.9053 13.3907 10.9092 13.4008C10.9123 13.4119 10.879 13.4712 10.9297 13.4399C10.9425 13.4319 11.02 13.3664 10.9687 13.4272C10.9617 13.4355 10.9352 13.4608 10.9219 13.476C10.8795 13.5243 10.9715 13.4359 10.8984 13.516C10.8252 13.5963 10.7751 13.6607 10.8379 13.6176C10.8429 13.6134 10.9081 13.5535 10.915 13.5522C10.9178 13.5592 10.9106 13.5805 10.916 13.5854C10.9186 13.5875 10.9584 13.5454 10.9629 13.5414C11.0045 13.5332 10.9769 13.5845 10.9775 13.6196C10.9791 13.6247 11.047 13.5757 11.0059 13.6293C10.9598 13.6891 10.7366 13.8983 10.8027 13.8637C10.83 13.8494 11.1152 13.5808 10.9834 13.7358C11.0414 13.7227 10.9892 13.8167 11.0625 13.7885C11.0665 13.7865 11.145 13.7139 11.1475 13.7162C11.1493 13.7215 11.1151 13.7602 11.1152 13.7651C11.1155 13.7858 11.1556 13.765 11.1611 13.7797C11.1633 13.7853 11.1244 13.8218 11.1269 13.8285C11.131 13.8335 11.1813 13.7893 11.1641 13.8188C11.1506 13.8417 11.0552 13.9473 11.0498 13.9653C11.1487 13.8668 11.1511 13.8722 11.1846 13.8539C11.1911 13.8504 11.2242 13.8149 11.2295 13.811C11.2501 13.796 11.224 13.8267 11.2461 13.81C11.2517 13.8056 11.2858 13.7722 11.292 13.767C11.3453 13.7228 11.2784 13.8043 11.2656 13.8198C11.2203 13.8749 11.2656 13.8337 11.25 13.8569C11.234 13.8804 11.204 13.9 11.1963 13.9164C11.1807 13.9501 11.1972 13.9566 11.2051 13.9672C11.2084 13.9713 11.2514 13.9237 11.2529 13.9233C11.2716 13.9199 11.2322 13.9755 11.3262 13.8901C11.099 14.1278 11.3522 13.8725 11.3174 13.9291C11.3145 13.9337 11.2069 14.0442 11.1865 14.058C11.1671 14.0709 11.1958 14.0316 11.166 14.0522C11.1575 14.0584 11.05 14.1542 11.043 14.1596C10.9881 14.2013 11.1481 14.0386 11.1592 14.0268C11.2521 13.9259 11.1358 14.0279 11.125 14.0346C11.0806 14.0606 11.0953 14.0289 11.0625 14.0463C11.0412 14.0575 10.9333 14.1649 10.9326 14.1576C10.9315 14.1327 11.0756 13.9797 10.9336 14.0971C10.9031 14.1222 10.788 14.2422 10.8711 14.1401C10.8781 14.1315 10.9534 14.0434 10.8965 14.0922C10.8891 14.0986 10.8541 14.132 10.8506 14.1342C10.8277 14.148 10.8519 14.1183 10.834 14.1264C10.816 14.1345 10.7912 14.1482 10.7969 14.1313C10.8004 14.1209 10.86 14.0519 10.874 14.0346C10.9139 13.9856 10.836 14.0538 10.8877 13.9965C10.9397 13.9388 11.0287 13.8616 11.0566 13.8188C10.9672 13.9077 10.8743 13.9981 10.7842 14.0873C10.7712 14.0676 10.7839 14.0227 10.7637 14.0102C10.761 14.0087 10.715 14.0594 10.7109 14.059C10.6941 14.0574 10.7201 14.0152 10.6973 14.019C10.6792 14.0223 10.6203 14.0646 10.5996 14.0698C10.6969 13.963 10.6504 13.9859 10.6514 13.9682C10.6518 13.9619 10.6797 13.9352 10.6865 13.9243C10.7113 13.8837 10.6247 13.9777 10.6084 13.9897C10.5389 14.0407 10.7415 13.8354 10.7256 13.8295C10.7231 13.8307 10.6101 13.9304 10.6016 13.9369C10.5512 13.9749 10.6384 13.8981 10.6426 13.8862C10.6502 13.8644 10.6709 13.8333 10.6309 13.8569C10.619 13.8639 10.545 13.9257 10.5928 13.8686C10.5989 13.8612 10.6352 13.8271 10.6377 13.8237C10.6638 13.7796 10.5502 13.8921 10.5068 13.9252C10.4637 13.9581 10.5338 13.8721 10.5547 13.8481C10.6084 13.7859 10.5829 13.8262 10.5889 13.8207C10.659 13.7559 10.6413 13.7615 10.6426 13.7514C10.7527 13.64 10.7399 13.6408 10.6435 13.7416C10.6334 13.7524 10.6467 13.7455 10.6426 13.7514C10.5301 13.8561 10.5095 13.8634 10.6035 13.7543C10.6475 13.7034 10.7061 13.6513 10.6758 13.6606C10.6619 13.6649 10.5881 13.742 10.5625 13.7592C10.5053 13.7969 10.5632 13.7132 10.542 13.7143C10.5343 13.7147 10.496 13.7604 10.4892 13.7621C10.4716 13.7667 10.4964 13.7301 10.4746 13.7387C10.4725 13.7396 10.4294 13.7851 10.4267 13.7836C10.4065 13.7728 10.4205 13.7315 10.4053 13.7143C10.3977 13.706 10.3588 13.7156 10.3555 13.7026C10.3497 13.6799 10.3957 13.5997 10.3682 13.603C10.3503 13.6052 10.3084 13.6499 10.2754 13.6762C10.2112 13.7273 10.3027 13.613 10.3174 13.5951C10.3267 13.5838 10.3226 13.5602 10.3115 13.5659C10.3045 13.5701 10.265 13.6109 10.2627 13.6118C10.2076 13.6305 10.1789 13.623 10.1797 13.5854C10.1802 13.5842 10.2269 13.5377 10.2275 13.5356C10.2368 13.505 10.1741 13.5548 10.1318 13.5795C10.0894 13.6043 10.0936 13.5862 10.168 13.5014C10.1513 13.5048 10.1765 13.4599 10.1924 13.433C10.2079 13.4068 10.121 13.4917 10.1152 13.4965C10.0431 13.5385 10.0857 13.4782 10.0781 13.4545C10.0743 13.4434 10.047 13.442 10.0293 13.4438C10.015 13.4454 10.0321 13.4205 10.0127 13.4282C10.0092 13.4301 9.97051 13.4698 9.96874 13.4711C9.91443 13.5124 10.016 13.4177 10.0322 13.3989C10.091 13.3303 10.1214 13.2933 10.083 13.3149C10.072 13.3219 9.92885 13.4545 9.91601 13.4604C9.90094 13.4663 9.95261 13.4168 9.93554 13.4243C9.9329 13.4261 9.90291 13.4558 9.90136 13.4516C9.89389 13.4318 9.897 13.3992 9.87987 13.3881C9.87761 13.3865 9.83024 13.4385 9.82616 13.4369C9.80719 13.4296 9.79453 13.4132 9.80468 13.3774C9.80735 13.3684 9.84343 13.336 9.85351 13.3246C9.91164 13.2581 9.81521 13.3425 9.81249 13.3432C9.74575 13.3628 9.80909 13.2628 9.74608 13.2778C9.73988 13.2809 9.63719 13.3653 9.71483 13.2787C9.72006 13.2729 9.80017 13.1827 9.73827 13.2368C9.73438 13.2402 9.69371 13.2871 9.69335 13.2778C9.69288 13.2686 9.65575 13.2896 9.69726 13.2348C9.71115 13.2166 9.78935 13.1288 9.71581 13.1899C9.7056 13.1987 9.54985 13.3353 9.65038 13.228C9.66758 13.2097 9.77956 13.0991 9.71483 13.1489C9.70228 13.1586 9.67949 13.1859 9.66015 13.1977C9.63067 13.2156 9.6525 13.1785 9.59569 13.2211C9.58467 13.2296 9.50557 13.2991 9.55858 13.2377C9.56706 13.2279 9.60547 13.1914 9.60741 13.185C9.61643 13.1549 9.58099 13.1684 9.59569 13.1323C9.60093 13.1194 9.66217 13.0609 9.6748 13.0405C9.68699 13.0203 9.69484 12.9965 9.66308 13.02C9.63123 13.0435 9.53932 13.1445 9.52538 13.1459C9.52377 13.1461 9.52199 13.1459 9.5205 13.1459C9.36883 12.7939 9.1689 12.3398 9.5205 12.1879C9.5194 12.1342 9.59946 12.1613 9.63378 12.143C9.6384 12.1398 9.6012 12.1085 9.60644 12.102C9.62551 12.0774 9.63121 12.0083 9.72265 12.0619C9.79612 12.1052 9.8222 12.1684 9.85741 12.1811C9.87417 12.1868 9.7713 12.0725 9.76659 12.0649C9.74402 12.0159 9.80308 12.0558 9.7998 12.0287C9.7991 12.0232 9.7516 11.9807 9.75097 11.976C9.75024 11.9611 9.77791 11.9736 9.78124 11.9633C9.78253 11.9585 9.74743 11.9244 9.75292 11.9243C9.76565 11.9236 9.78635 11.9317 9.82519 11.9575C9.82869 11.9598 9.86661 12.0062 9.87401 12.0043C9.88454 11.9987 9.92702 12.0202 9.90331 11.978C9.89612 11.9653 9.81668 11.8865 9.87694 11.935C9.8896 11.9452 9.98343 12.0416 9.90819 11.9526C9.89551 11.9375 9.79702 11.8156 9.87401 11.8813C9.89474 11.899 9.97566 11.9719 9.96679 11.9565C9.96371 11.9527 9.92129 11.9134 9.91991 11.9067C9.91579 11.8834 9.92987 11.8777 9.92675 11.8549C9.92576 11.8486 9.87834 11.8084 9.87792 11.8002C9.87767 11.7782 9.90235 11.7756 9.92675 11.7787C9.93614 11.7807 9.96903 11.8186 9.97362 11.8227C10.0422 11.8821 9.95988 11.7944 9.95507 11.7866C9.93424 11.7469 9.98104 11.78 9.97948 11.7612C9.97901 11.7559 9.93583 11.7155 9.93261 11.7114C9.9023 11.6713 9.97052 11.7463 9.98339 11.7534C10.0155 11.7678 10.0227 11.7549 10.0264 11.7407C10.0266 11.7347 9.97586 11.6911 9.97753 11.6869C9.98664 11.6613 10.0092 11.6481 10.0527 11.6576C10.0615 11.6604 10.0954 11.6986 10.1045 11.7065C10.1683 11.7611 10.095 11.6728 10.0889 11.6635C10.0609 11.6216 10.0956 11.6514 10.0957 11.6391C10.0958 11.5786 10.1553 11.5625 10.1973 11.5473C10.2519 11.5272 10.3163 11.5335 10.3428 11.4887C10.3421 11.484 10.2931 11.4389 10.2939 11.436C10.3073 11.3991 10.3513 11.3934 10.3623 11.3539C10.3626 11.3503 10.3134 11.3068 10.3135 11.3002C10.3133 11.2865 10.3241 11.2806 10.3457 11.2885C10.3563 11.2923 10.3925 11.3372 10.4023 11.3403C10.4249 11.3472 10.4368 11.3419 10.4375 11.3266C10.4376 11.3199 10.3847 11.2769 10.3887 11.2719C10.4144 11.2367 10.4359 11.199 10.5283 11.2299C10.5347 11.232 10.6334 11.3263 10.6201 11.3041C10.5936 11.2769 10.5618 11.2451 10.5332 11.2162C10.5621 11.1563 10.6397 11.1462 10.6894 11.1069C10.6915 11.1052 10.6368 11.0567 10.6406 11.0532C10.6623 11.0329 10.6686 10.9982 10.7412 11.0278C10.7501 11.0326 10.8374 11.1217 10.8301 11.102C10.8287 11.0978 10.8255 11.0768 10.8086 11.0551C10.8056 11.0515 10.7643 11.0133 10.7637 11.0073C10.775 10.9831 10.8041 10.9738 10.8476 10.9819C10.8556 10.9847 10.8947 11.0296 10.9014 11.0326ZM11.4307 13.8657C11.4298 13.8731 11.3649 13.9179 11.3525 13.9389C11.3299 13.9773 11.4509 13.8654 11.3965 13.936C11.3863 13.949 11.2707 14.0467 11.2666 14.0483L11.2891 14.0034C11.3345 13.9392 11.4323 13.8359 11.4307 13.8657ZM10.9033 13.9037C10.9666 13.8272 10.8599 13.9251 10.8105 13.9838C10.7615 14.0422 10.8831 13.9279 10.9033 13.9037ZM11.1475 13.934C11.1755 13.9012 11.1334 13.9293 11.0986 13.9701C11.0708 14.0029 11.1127 13.9748 11.1475 13.934ZM10.4482 13.1127C10.3958 13.1608 10.3998 13.1733 10.4502 13.1196C10.4522 13.1174 10.4504 13.111 10.4482 13.1127ZM10.1553 12.8842C10.1125 12.9274 10.1286 12.9194 10.167 12.8784C10.1693 12.8759 10.1686 12.8708 10.1553 12.8842ZM10.1113 12.8315C10.0701 12.8787 10.1121 12.8384 10.1601 12.7914V12.7778C10.1464 12.7926 10.1303 12.8098 10.1113 12.8315ZM10.0742 12.7143C10.0557 12.7396 10.1063 12.6923 10.1601 12.642V12.6264C10.1308 12.658 10.0801 12.7072 10.0742 12.7143ZM10.1601 12.6801C10.1323 12.7126 10.1147 12.7369 10.1553 12.7055C10.1561 12.7049 10.1576 12.703 10.1601 12.7006V12.6801ZM10.0879 12.5932C10.0006 12.6706 10.0105 12.6986 10.0928 12.6078C10.0969 12.6033 10.0922 12.5905 10.0879 12.5932ZM10.1475 12.5756C10.147 12.5773 10.1039 12.6181 10.1006 12.6235C10.0939 12.6485 10.1174 12.6283 10.1601 12.5912V12.5073C10.1607 12.5253 10.1571 12.5475 10.1475 12.5756ZM10.251 12.6157C10.2251 12.5939 10.2326 12.6034 10.2461 12.6196C10.2476 12.6181 10.2495 12.617 10.251 12.6157ZM11.168 11.2348C11.1701 11.2368 11.1763 11.235 11.1748 11.2328C11.1267 11.1803 11.114 11.1843 11.168 11.2348Z" fill="#555961"/>
</svg>
