<svg width="16" height="16" viewBox="0 0 16 16" fill="none" xmlns="http://www.w3.org/2000/svg">
<path d="M9.95032 2.50985C9.98622 2.51938 9.92538 2.56891 9.9884 2.58406C9.99075 2.58468 9.99362 2.58543 9.99622 2.58602C10.0631 2.59706 10.2067 2.62305 10.2599 2.64559C10.3151 2.66596 10.3097 2.59894 10.3156 2.59676C10.3537 2.5849 10.4791 2.62495 10.4904 2.63485C10.5295 2.66184 10.5659 2.69304 10.5988 2.72664C10.8886 3.02787 11.1063 3.36412 11.4191 3.63289C11.445 3.65519 11.473 3.59691 11.4786 3.59676C11.5826 3.66279 11.3961 3.71682 11.4152 3.81649C11.4985 3.71602 11.5161 3.76767 11.5861 3.81746C11.6198 3.84138 11.6403 3.79015 11.6466 3.78914C11.7425 3.77818 11.7033 3.87583 11.6964 3.89852C11.6722 3.97938 11.765 3.94862 11.7491 4.00301C11.7335 4.05699 11.6378 4.06464 11.6954 4.12117C11.7444 4.10438 11.7883 3.97627 11.8458 4.00594C12.0629 4.11792 12.3027 4.49174 12.4279 4.63094C12.5528 4.76991 12.6011 4.8068 12.6661 4.89559C12.7836 5.05601 12.7968 4.94106 12.9122 4.99813C13.0279 5.05546 12.829 5.17071 12.8077 5.21688C12.7866 5.26231 12.8342 5.2413 12.8312 5.27449C12.8278 5.30805 12.7719 5.29881 12.7999 5.3409C12.8286 5.38347 12.9864 5.42115 13.0343 5.39852C13.1357 5.35049 13.1707 5.22794 13.2374 5.34969C13.2412 5.35672 13.1823 5.38052 13.1984 5.40535C13.3314 5.60195 13.5013 5.77514 13.6378 5.96785C13.6565 5.99441 13.5904 6.02023 13.6007 6.03621C13.7085 6.20275 13.7366 6.07635 13.8976 6.06551C13.8365 6.1109 13.7979 6.15968 13.7843 6.20906C13.7679 6.26552 13.7769 6.3163 13.8107 6.37313C13.8463 6.43841 13.903 6.39546 13.9708 6.43172C13.9921 6.44425 13.9623 6.51876 13.9962 6.52254C14.1075 6.5418 14.2278 6.44926 14.1925 6.65242C14.1903 6.66064 14.1308 6.63581 14.1271 6.66317C14.0935 6.83484 14.2055 6.88244 14.1241 7.08992C14.095 7.15446 14.0332 7.22891 13.9552 7.28817C13.8695 7.34829 13.772 7.40975 13.7081 7.46492C13.5811 7.33497 13.5154 7.45981 13.5656 7.58699C13.4965 7.64954 13.4311 7.72657 13.3556 7.7784C13.3296 7.79628 13.3057 7.74447 13.299 7.74324C13.194 7.72339 13.2516 7.8374 13.2413 7.85555C13.1211 8.04314 12.9299 8.10427 12.8478 8.31551C12.8449 8.32304 12.9265 8.42061 12.8224 8.39559C12.8153 8.39367 12.8221 8.30473 12.7501 8.37117C12.6779 8.43754 12.5003 8.52083 12.4464 8.65828C12.4333 8.69157 12.4478 8.82344 12.3439 8.81453C12.3299 8.81311 12.3106 8.78052 12.2872 8.77547C12.2131 8.76027 12.2871 8.86585 12.1759 8.8243C12.0645 8.78277 11.9359 8.79746 11.8927 8.94735C11.8912 8.95198 11.9398 9.04674 11.9083 9.07625C11.8581 9.12315 11.7747 9.17727 11.7247 9.2286C11.7011 9.25301 11.7598 9.28166 11.7579 9.28719C11.6203 9.47636 11.4641 9.55396 11.2726 9.71297C11.2374 9.74234 11.2067 9.89542 11.0968 9.91024C10.9762 9.92653 10.8265 9.63931 10.7228 9.84871C10.6813 9.93353 10.8792 10.2881 10.6222 10.2598C10.4387 10.5168 10.1623 10.6494 9.99329 10.922C9.98565 10.9342 10.0313 11.043 10.007 11.0655C9.97071 11.0984 9.91578 11.0821 9.88879 11.1046C9.77462 11.1982 9.71094 11.3241 9.60657 11.42C9.56701 11.4565 9.54241 11.4059 9.49524 11.4493C9.44813 11.4928 9.4677 11.5723 9.38293 11.6104C9.31874 11.639 9.17192 11.5861 9.09875 11.6358C9.19607 11.7368 9.15109 11.7774 9.10266 11.879C9.0934 11.8986 9.14432 11.9178 9.14172 11.9288C9.13186 11.9743 9.07723 11.9719 9.07043 12.0177C9.06918 12.0289 9.10182 12.0623 9.10266 12.0733C9.10837 12.1678 8.95864 12.1666 8.93274 12.1661C8.83432 12.1649 8.85577 12.2305 8.79895 12.2481C8.74227 12.2656 8.77207 12.1853 8.71692 12.2169C8.60267 12.2824 8.49369 12.4041 8.40149 12.4942C8.36489 12.5304 8.43497 12.5505 8.43079 12.5567C8.39451 12.6066 8.33793 12.6369 8.30579 12.6788C8.7943 12.6803 9.28112 12.711 9.77258 12.7169C9.79768 12.7163 9.75367 12.6444 9.80383 12.6446C10.0958 12.6457 10.3792 12.626 10.6779 12.6983C10.7075 12.7054 10.6923 12.8326 10.7794 12.8136C10.7948 12.81 10.927 12.7935 10.9611 12.7657C10.9653 12.7609 10.9417 12.7022 10.9835 12.7003C11.2299 12.6912 11.4886 12.7048 11.7345 12.7413C11.7735 12.7477 11.7317 12.8107 11.7599 12.8155C11.9604 12.8493 12.1786 12.8007 12.3702 12.8585C12.4984 12.8974 12.4505 13.008 12.5187 13.1163C12.5284 13.1315 12.608 13.1338 12.6124 13.1964C12.623 13.3547 12.5841 13.5285 12.5997 13.6973C12.6031 13.7337 12.7096 13.6953 12.6466 13.7833C12.6403 13.7897 12.5648 13.8183 12.546 13.8477C12.5328 13.8684 12.5564 13.9327 12.5294 13.9591C12.5025 13.9848 12.4734 13.9322 12.4288 13.963C12.3842 13.9943 12.4034 14.0665 12.3146 14.0753C12.1072 14.0948 11.8346 14.0747 11.6281 14.046C11.5638 14.037 11.5963 13.9973 11.5519 13.9893C11.4646 13.9739 11.3832 13.993 11.297 13.9747C11.2684 13.9684 11.3035 13.9057 11.2736 13.9005C11.1092 13.8727 10.9537 13.8884 10.7872 13.8751C9.96647 13.809 9.15905 13.7856 8.32825 13.7569C8.05436 13.7475 7.72146 13.6899 7.4386 13.7149C7.40557 13.7179 7.42535 13.7738 7.41907 13.7784C7.32081 13.8478 7.35319 13.7358 7.28918 13.7208C7.03376 13.6622 6.74887 13.6575 6.50305 13.6788C6.39926 13.6883 6.50362 13.7979 6.39856 13.7364C6.39125 13.7322 6.41747 13.6733 6.38879 13.6671C6.32382 13.6531 6.20105 13.6638 6.15051 13.6593C6.05348 13.65 6.03703 13.6502 5.94543 13.6495C5.85977 13.6485 5.76272 13.6345 5.66711 13.63C5.60729 13.6324 5.49781 13.5821 5.45422 13.5411C5.42467 13.5079 5.3943 13.4759 5.36145 13.4483C5.3392 13.4299 5.32264 13.4991 5.28333 13.4737C5.24389 13.4481 5.16219 13.3576 5.14368 13.3184C5.12546 13.2794 5.17114 13.2589 5.17395 13.2462C5.19739 13.1405 5.01215 13.1279 4.99426 13.1173C4.72554 12.9191 4.57898 12.6663 4.36243 12.4454C4.1979 12.2778 4.00473 12.1152 3.85071 11.9532C3.66736 11.76 3.53277 11.5755 3.34778 11.3946C3.32836 11.3759 3.30029 11.4476 3.27649 11.4249C3.04267 11.1969 2.82017 10.9603 2.62024 10.7013C2.59512 10.6714 2.57012 10.6383 2.54797 10.6036C2.52062 10.5592 2.60913 10.5741 2.58704 10.5294C2.51127 10.3787 2.49083 10.1688 2.4884 9.99617C2.48354 9.85168 2.47962 9.72208 2.40344 9.59188C2.45517 9.48585 2.53429 9.37815 2.63098 9.29891C2.69175 9.25346 2.7539 9.21403 2.81555 9.18856C2.90015 9.15358 2.89046 9.25898 2.94348 9.16512C2.95476 9.14411 2.89212 9.12317 2.91321 9.09481C3.00239 8.97517 3.13034 8.87493 3.21204 8.75008C3.2285 8.72466 3.18493 8.69262 3.18372 8.67977C3.17908 8.57524 3.3524 8.58184 3.37805 8.57039C3.56549 8.481 3.64737 8.36024 3.77747 8.2325C3.80767 8.20289 3.72213 8.18757 3.74915 8.15731C3.89132 8.00067 4.05117 7.85056 4.21985 7.72664C4.25732 7.69957 4.27004 7.77156 4.29016 7.76082C4.37864 7.71217 4.31332 7.61569 4.39661 7.56746C4.41411 7.55826 4.44283 7.6021 4.44934 7.6036C4.55172 7.62715 4.49728 7.50418 4.505 7.49129C4.60665 7.33546 4.78255 7.34663 4.89368 7.20906C4.90684 7.19254 4.82705 7.17929 4.86633 7.13582C5.13217 6.84429 5.43998 6.56196 5.75305 6.32332C5.80167 6.28615 5.80659 6.35198 5.8136 6.3536C5.9235 6.37644 5.86394 6.26027 5.87317 6.24129C5.95899 6.10659 6.13777 6.07865 6.10559 5.89656C6.61014 5.4666 7.01469 4.94047 7.57434 4.57332C7.5813 4.56858 7.61506 4.62306 7.62903 4.61434C7.79552 4.49774 7.69991 4.45554 7.70911 4.27742C7.71164 4.23286 7.88376 4.26245 7.89856 4.26375C7.94924 4.26816 7.99192 4.35894 8.005 4.35653C8.11015 4.33392 7.88158 4.1256 7.9679 4.03914C7.97096 4.03685 7.99947 4.08764 8.01086 4.08504C8.04584 4.07509 8.05246 4.03682 8.08801 4.0284C8.17057 4.00995 8.29535 4.09803 8.31067 3.95906C8.31063 3.94024 8.17442 3.83172 8.25696 3.76082C8.29086 3.73169 8.4236 3.59489 8.46985 3.56453C8.51558 3.5347 8.52972 3.59943 8.5343 3.59969C8.68991 3.54976 8.67313 3.61006 8.80286 3.6368C8.93195 3.66312 8.73273 3.49223 8.73254 3.45028C8.73288 3.40866 8.85088 3.37662 8.88489 3.37313C8.91856 3.36979 8.92138 3.41811 8.94641 3.41024C9.11085 3.35722 8.9023 3.27055 8.90833 3.20516C8.92323 3.05054 9.12679 3.12179 9.2179 3.0577C9.24247 3.04037 9.19443 3.02656 9.21008 3.00496C9.27292 2.9197 9.36059 2.91771 9.4054 2.79403C9.40766 2.78709 9.40775 2.76674 9.41028 2.74324C9.4214 2.68701 9.46322 2.60861 9.54016 2.62801C9.5558 2.63291 9.55795 2.68848 9.60754 2.67098C9.68162 2.6435 9.80944 2.60918 9.88782 2.58406C9.94661 2.56494 9.86696 2.49208 9.95032 2.50985ZM12.2628 13.1495C12.2926 13.0787 12.1792 13.0728 12.2032 13.1466C12.2042 13.1495 12.2615 13.1524 12.2628 13.1495ZM9.99622 3.20321C9.98519 3.20385 9.98663 3.27377 9.98743 3.27742C9.98135 3.30723 9.97917 3.29985 9.96204 3.29793C9.84041 3.39814 9.71413 3.49451 9.60657 3.64461C9.59602 3.65974 9.59428 3.85562 9.46692 3.81649C9.45837 3.81397 9.3296 3.77299 9.34875 3.86922C9.35 3.87526 9.42119 3.89265 9.36926 3.93563C9.31749 3.97866 9.27033 4.08345 9.15735 4.10067C9.12155 4.10613 8.98742 4.07041 8.99329 4.1993C8.994 4.20804 9.0519 4.45663 8.91223 4.38485C8.88855 4.37186 8.78377 4.25663 8.7677 4.3868C8.7654 4.41153 8.81439 4.41166 8.79309 4.46395C8.76018 4.54435 8.65568 4.58977 8.63586 4.70906C8.63262 4.73032 8.65656 4.85783 8.55774 4.84188C8.54228 4.83936 8.5173 4.78967 8.49133 4.80672C8.36705 4.8909 8.28219 5.02556 8.15051 5.10555C8.10411 5.13329 8.06303 5.05442 8.00793 5.07723C7.9527 5.10013 7.8582 5.16307 7.84485 5.23153C7.83155 5.30003 7.97264 5.352 7.91907 5.42098C7.68621 5.72063 7.36606 5.92804 7.09192 6.18563C7.05127 6.22381 7.11791 6.22561 7.06067 6.28426C6.84893 6.50112 6.51122 6.90379 6.25208 7.01668C6.04445 7.10709 6.18667 6.8749 6.04895 6.96492C5.9832 7.0089 6.03524 7.17961 6.02551 7.19637C5.93171 7.36169 5.79197 7.40243 5.69055 7.53426C5.67027 7.56129 5.73838 7.58302 5.72083 7.60555C5.65867 7.68343 5.5643 7.73709 5.5011 7.8077C5.47325 7.83933 5.51338 7.86878 5.48352 7.89363C5.4115 7.95367 5.3381 7.99742 5.24133 8.02938C5.2325 8.03229 5.22835 7.94986 5.17786 7.99715C5.09625 8.07367 4.96624 8.13985 4.90833 8.26375C4.89126 8.30071 4.9693 8.38145 4.85657 8.38485C4.83278 8.38514 4.75324 8.27543 4.7677 8.42488C4.7699 8.45191 4.76682 8.67331 4.64075 8.65828C4.60727 8.6542 4.49122 8.61374 4.47083 8.65828C4.46837 8.66464 4.52875 8.68972 4.50598 8.72078C4.42504 8.82945 4.32154 8.92456 4.23743 9.03524C4.21504 9.0649 4.29759 9.07055 4.26282 9.11336C4.16726 9.23111 4.02246 9.35293 3.90442 9.44344C3.86159 9.47592 3.8516 9.41502 3.84485 9.41219C3.73542 9.39269 3.79502 9.50631 3.78528 9.52645C3.72279 9.64974 3.61105 9.68 3.53625 9.77645C3.51624 9.80283 3.57436 9.82765 3.57336 9.83602C3.56079 9.92044 3.52244 9.81055 3.48352 9.83211C3.41914 9.86919 3.35985 9.9193 3.30579 9.97274C3.30501 9.97361 3.30548 9.97728 3.30676 9.98055C3.30753 9.98174 3.32056 9.98838 3.33411 9.99617C3.31996 10.0062 3.291 10.0274 3.28333 10.0333C3.25416 10.0584 3.2617 10.0624 3.27551 10.0538C3.31803 10.0707 3.3663 10.0692 3.37903 10.0733C3.48273 10.1083 3.47687 10.1672 3.54309 10.2227C3.86864 10.4937 4.21098 10.8871 4.47571 11.1847C4.82093 11.5722 5.0669 11.8952 5.422 12.2393C5.44447 12.2605 5.47233 12.1899 5.49231 12.2081C5.62371 12.33 5.74649 12.4584 5.86926 12.587C5.95349 12.5827 6.04893 12.5862 6.12805 12.6036C6.17473 12.6138 6.11231 12.6707 6.1593 12.6798C6.26863 12.701 6.38587 12.705 6.49817 12.6944C6.54599 12.6898 6.47413 12.622 6.53625 12.6212C6.9597 12.6145 7.37593 12.6029 7.80383 12.6905C7.83307 12.6972 7.85882 12.834 7.92102 12.8077C7.92569 12.7696 7.92581 12.7244 7.92786 12.6837C7.98649 12.6816 8.04511 12.6826 8.10364 12.6817C8.1086 12.6737 8.11552 12.6663 8.11829 12.6563C8.1225 12.6384 8.08014 12.4756 8.08215 12.461C8.09831 12.3471 8.27276 12.5014 8.28528 12.5069C8.4221 12.5642 8.38474 12.3781 8.39661 12.3507C8.45089 12.2252 8.55004 12.1711 8.59973 12.0704C8.63237 12.0047 8.52961 11.8931 8.57141 11.8575C8.71029 11.7391 8.90588 11.843 8.89563 11.5919C8.89355 11.5381 8.7495 11.4471 8.93469 11.4454C8.94638 11.4453 9.10101 11.4596 9.08704 11.3663C9.08524 11.3545 9.05015 11.3201 9.05383 11.3106C9.07927 11.2478 9.13618 11.2452 9.17102 11.1837C9.20592 11.1221 9.24409 11.044 9.31067 11.0001C9.35084 10.9737 9.45785 10.9947 9.48938 10.9942C9.57889 10.9935 9.55263 10.8725 9.63489 10.8985C9.71799 10.9249 9.74769 11.0623 9.85657 11.0235C9.76965 10.9321 9.68355 10.8349 9.59778 10.7413C9.76141 10.5822 9.94854 10.4509 10.1056 10.2843C10.1241 10.2635 10.0559 10.2363 10.0753 10.213C10.1579 10.1142 10.2718 10.0691 10.3517 9.96102C10.4134 9.87709 10.4421 9.74566 10.505 9.65633C10.6537 9.71079 10.7314 9.56363 10.8224 9.49031C10.8542 9.46459 10.88 9.49326 10.9093 9.48153C11.0186 9.43664 10.8918 9.38309 10.8986 9.34774C10.928 9.19627 11.1409 9.39104 11.2423 9.2784C11.2469 9.26972 11.2082 9.09818 11.2101 9.07918C11.226 8.97452 11.2582 9.10552 11.3038 9.07625C11.3875 9.02116 11.462 8.99831 11.5109 8.88485C11.5249 8.85155 11.5135 8.72706 11.6115 8.7325C11.6242 8.73323 11.6566 8.7712 11.6642 8.76961C11.7872 8.71578 11.6769 8.60154 11.6886 8.51278C11.7003 8.4243 11.8547 8.42343 11.8937 8.42977C11.9934 8.44588 11.8874 8.48626 11.8907 8.49422C11.9327 8.58819 11.9776 8.5195 12.0265 8.48153C12.1441 8.58536 12.1982 8.51744 12.0773 8.44149C12.064 8.43329 12.0402 8.47779 12.0265 8.48153C11.9552 8.33526 12.0077 8.25461 12.1827 8.28133C12.2649 8.29398 12.2884 8.38144 12.3722 8.25594C12.4102 8.19912 12.3157 8.14191 12.3361 8.07918C12.3837 7.93561 12.58 7.88109 12.6671 7.77059C12.6987 7.73046 12.6216 7.72327 12.6417 7.69442C12.695 7.61795 12.7833 7.59131 12.8322 7.50985C12.8365 7.50239 12.7783 7.47322 12.798 7.45223C12.9461 7.29228 13.1079 7.18543 13.2687 7.02449C13.3224 6.97072 13.3933 6.87553 13.4601 6.79696C13.4676 6.78459 13.4735 6.77454 13.4806 6.76766C13.5053 6.74496 13.5581 6.71492 13.5802 6.66317C13.5932 6.63412 13.5948 6.6013 13.5792 6.58016C13.5508 6.54417 13.497 6.58098 13.4552 6.5909C13.4119 6.60372 13.4269 6.58514 13.4406 6.55086C13.4279 6.49822 13.4266 6.44519 13.4269 6.43074C13.4331 6.4343 13.503 6.48342 13.4904 6.42781C13.5153 6.36261 13.4327 6.4274 13.4269 6.43074C13.4272 6.41034 13.3026 6.26631 13.2677 6.24813C13.2486 6.23912 13.2152 6.28819 13.2062 6.28231C12.9904 6.14065 12.8007 5.97216 12.6388 5.77156C12.6364 5.76754 12.6879 5.72577 12.6818 5.71688C12.5974 5.59133 12.4738 5.58033 12.3536 5.52742C12.2335 5.47451 12.1759 5.39452 12.2042 5.26375C12.1291 5.20845 12.0708 5.08019 12.0382 5.00496C12.0056 4.92972 11.907 5.01183 11.9005 5.00887C11.696 4.91797 11.6621 4.78062 11.5167 4.61922C11.4477 4.54232 11.2902 4.41103 11.2013 4.34188C11.131 4.28741 11.114 4.22867 11.0431 4.18465C11.0336 4.1787 11.0014 4.22597 10.9972 4.22567C10.8849 4.20949 11.0134 4.1422 11.0177 4.11141C11.0334 3.99965 11.0381 3.9361 10.9259 3.88387C10.9001 3.87177 10.7031 3.95803 10.6603 3.93172C10.6051 3.89728 10.6727 3.86298 10.6134 3.82821C10.608 3.82581 10.5774 3.85739 10.5499 3.82723C10.4211 3.68642 10.2928 3.52083 10.1495 3.38387C10.1302 3.36513 10.1051 3.43879 10.0763 3.41317C10.0485 3.38777 10.0202 3.36104 9.99231 3.33406C9.99223 3.33819 10.0014 3.33357 9.99915 3.30672C9.9981 3.29829 10.0037 3.24905 10.004 3.23446C10.0034 3.21254 9.99935 3.20363 9.99622 3.20321ZM8.85364 11.9278C8.7994 11.9216 8.7666 12.0255 8.83411 12.0333C8.88834 12.0395 8.92108 11.9357 8.85364 11.9278ZM9.44641 11.3028C9.57712 11.2807 9.36294 11.0451 9.32727 11.172C9.32513 11.1793 9.43876 11.3041 9.44641 11.3028ZM10.0441 10.421C9.94427 10.4136 10.0263 10.5695 10.0675 10.5714C10.2027 10.5753 10.1441 10.4286 10.0441 10.421ZM3.37903 9.99617C3.38236 10.0037 3.37814 10.0132 3.37024 10.0167C3.36889 10.0171 3.3508 10.0058 3.33411 9.99617C3.33731 9.9939 3.33965 9.99208 3.34094 9.99129C3.3592 9.98121 3.37511 9.98694 3.37903 9.99617ZM7.51086 4.72371C7.50402 4.72178 7.41039 4.80785 7.40833 4.81746C7.44217 4.94831 7.63863 4.76897 7.51086 4.72371ZM12.0118 4.4034C11.9402 4.43215 12.0165 4.51655 12.0519 4.44735C12.053 4.44425 12.0149 4.40228 12.0118 4.4034ZM9.29797 3.13387C9.29484 3.1323 9.26398 3.15813 9.27747 3.17098C9.32234 3.21193 9.35023 3.1606 9.29797 3.13387Z" fill="#555961"/>
<path d="M8.12811 4.54555C8.18744 4.50722 8.02429 4.67267 8.01581 4.68226C7.92476 4.7859 8.04779 4.68691 8.05878 4.68226C8.10842 4.66155 8.09774 4.69723 8.13495 4.68422C8.15911 4.67588 8.26778 4.56924 8.27069 4.57875C8.28 4.61061 8.13772 4.76757 8.28729 4.65687C8.31948 4.63297 8.43219 4.51142 8.35468 4.61879C8.34928 4.6262 8.27687 4.72091 8.33612 4.67445C8.34352 4.66863 8.37688 4.63561 8.38202 4.63246C8.40779 4.62093 8.38558 4.65244 8.40643 4.64711C8.42714 4.64179 8.45567 4.63207 8.45331 4.65199C8.45168 4.66429 8.39414 4.73534 8.38104 4.75355C8.34338 4.80561 8.42478 4.73994 8.37518 4.79847C8.32483 4.85783 8.23287 4.93283 8.20917 4.98012C8.29873 4.89143 8.3913 4.80048 8.48163 4.71156C8.50432 4.74052 8.5008 4.79486 8.53046 4.81703C8.5342 4.81963 8.5778 4.77011 8.58417 4.77015C8.60625 4.77708 8.58537 4.82389 8.61346 4.82582C8.63585 4.8268 8.69971 4.78838 8.72479 4.78773C8.63024 4.89723 8.68285 4.88144 8.68671 4.90394C8.68745 4.91212 8.661 4.93878 8.65546 4.95082C8.63521 4.99568 8.7185 4.90068 8.73651 4.8893C8.81128 4.84354 8.61109 5.04625 8.63104 5.06019C8.63215 5.06091 8.75262 4.96387 8.76093 4.95863C8.81446 4.92448 8.7238 4.99823 8.72186 5.01234C8.71818 5.0381 8.70061 5.07109 8.7453 5.05238C8.75855 5.04675 8.83527 4.98864 8.79022 5.04847C8.7838 5.0567 8.74988 5.09033 8.74725 5.09437C8.72632 5.14364 8.83957 5.03079 8.88593 5.00062C8.93163 4.97112 8.86675 5.0616 8.84686 5.08656C8.79629 5.15021 8.8158 5.10737 8.81073 5.11097C8.73859 5.17465 8.75969 5.17249 8.76093 5.18519C8.65121 5.29693 8.66692 5.29991 8.7619 5.19789C8.77227 5.18671 8.75726 5.19165 8.76093 5.18519C8.87551 5.08285 8.89942 5.07969 8.80975 5.19301C8.76776 5.24595 8.7076 5.29593 8.74432 5.29262C8.76112 5.29109 8.83495 5.21194 8.86249 5.19789C8.92458 5.16641 8.87445 5.25587 8.90057 5.26137C8.9104 5.26306 8.9471 5.21575 8.95526 5.21547C8.97668 5.21486 8.95518 5.25518 8.98163 5.24965C8.98624 5.24644 9.02297 5.20569 9.0285 5.2057C9.05825 5.22532 9.05248 5.27476 9.07733 5.3014C9.08945 5.31424 9.13566 5.31293 9.14374 5.3307C9.15789 5.36118 9.1225 5.45139 9.15643 5.4557C9.1788 5.4583 9.21993 5.41178 9.25507 5.38734C9.32282 5.34014 9.23891 5.46083 9.22479 5.48012C9.22434 5.48072 9.20338 5.4806 9.18671 5.50844C9.14328 5.55853 9.22447 5.4802 9.22479 5.48012C9.21606 5.49208 9.2278 5.52327 9.24042 5.51918C9.24853 5.5153 9.28748 5.47464 9.29022 5.47426C9.35575 5.466 9.39476 5.48448 9.40448 5.53285C9.40148 5.53668 9.35844 5.57772 9.35663 5.58168C9.35289 5.61902 9.42044 5.57418 9.46796 5.55433C9.51546 5.5346 9.51571 5.55654 9.44452 5.64418C9.46451 5.64514 9.44444 5.69539 9.43182 5.72523C9.42024 5.7537 9.50819 5.66785 9.51288 5.66469C9.59336 5.63151 9.55635 5.69634 9.57245 5.72914C9.58014 5.74473 9.61628 5.75555 9.63885 5.75844C9.65682 5.76052 9.64247 5.78713 9.66522 5.78285C9.6703 5.7799 9.7073 5.74101 9.70917 5.73988C9.76673 5.70276 9.66414 5.79534 9.64862 5.81508C9.59261 5.88652 9.56351 5.92557 9.60663 5.90883C9.61654 5.905 9.76664 5.77189 9.78046 5.76918C9.79813 5.76593 9.74501 5.81393 9.76483 5.80922C9.76828 5.80692 9.79779 5.77799 9.80096 5.78383C9.81657 5.81146 9.82225 5.85336 9.84784 5.87269C9.85353 5.87217 9.897 5.82176 9.90253 5.82484C9.92907 5.83978 9.94928 5.86463 9.94647 5.90785C9.9456 5.91869 9.90792 5.95012 9.89862 5.96156C9.84374 6.02956 9.94047 5.95232 9.94647 5.94984C10.0272 5.94346 9.97405 6.05355 10.051 6.05238C10.0588 6.04952 10.1665 5.97269 10.092 6.06117C10.0869 6.0672 10.009 6.16012 10.0734 6.10804C10.0776 6.10454 10.1157 6.05696 10.1193 6.06801C10.1225 6.08006 10.1645 6.06346 10.1271 6.12172C10.1153 6.14022 10.0378 6.23331 10.1154 6.17543C10.1221 6.17027 10.2884 6.03359 10.1887 6.14418C10.1721 6.16246 10.0599 6.27373 10.1291 6.22816C10.1425 6.21908 10.1634 6.18989 10.1848 6.18031C10.2174 6.16586 10.2001 6.2071 10.2609 6.16859C10.2731 6.1605 10.3551 6.09537 10.3049 6.15883C10.297 6.1687 10.2591 6.20298 10.257 6.21156C10.2537 6.24824 10.2958 6.24138 10.2873 6.28383C10.2843 6.2988 10.2218 6.35572 10.2111 6.37855C10.2013 6.40093 10.1978 6.42945 10.2316 6.40883C10.2658 6.38778 10.3557 6.28462 10.3732 6.28676C10.4486 6.29643 10.435 6.39399 10.4689 6.44496C10.474 6.45252 10.5038 6.41297 10.5139 6.42152C10.5508 6.45334 10.6419 6.48078 10.5988 6.58363C10.5641 6.66616 10.4892 6.68115 10.4836 6.72328C10.4819 6.74252 10.603 6.64068 10.6086 6.6393C10.6649 6.62452 10.6304 6.68852 10.6642 6.69203C10.6723 6.69098 10.7126 6.64407 10.718 6.64515C10.7369 6.64865 10.7289 6.68013 10.7433 6.68715C10.7505 6.68913 10.7835 6.65497 10.7853 6.66176C10.7899 6.67829 10.7848 6.70231 10.7629 6.74476C10.7609 6.74866 10.7107 6.78609 10.717 6.79555C10.7271 6.81079 10.7114 6.85792 10.759 6.83949C10.7738 6.83319 10.8519 6.75532 10.8068 6.81898C10.7974 6.83235 10.7003 6.92527 10.7932 6.85414C10.8086 6.84232 10.9374 6.74955 10.8752 6.82972C10.8588 6.85088 10.7874 6.93439 10.8049 6.92738C10.8103 6.92279 10.8475 6.88132 10.8557 6.88148C10.8844 6.88303 10.8962 6.90358 10.925 6.9059C10.9334 6.9053 10.9705 6.85586 10.9807 6.85805C11.0088 6.86411 11.0187 6.89691 11.0217 6.92738C11.0222 6.93888 10.9822 6.97084 10.9787 6.97523C10.9215 7.04684 11.0132 6.96424 11.0207 6.96156C11.0655 6.94646 11.0362 6.99771 11.0607 7.00062C11.0678 7.00087 11.1061 6.95765 11.1105 6.95472C11.1544 6.92646 11.0738 6.99526 11.0705 7.00844C11.0612 7.04547 11.0805 7.05733 11.0998 7.06605C11.107 7.06916 11.1496 7.0158 11.1555 7.01918C11.1909 7.03831 11.2148 7.07158 11.215 7.12465C11.2145 7.13499 11.1745 7.1689 11.1672 7.17836C11.1155 7.24452 11.2069 7.17385 11.217 7.16859C11.2626 7.14502 11.2343 7.18251 11.2502 7.18617C11.3285 7.20355 11.3659 7.28386 11.3976 7.34242C11.4392 7.41852 11.4496 7.49957 11.5148 7.54652C11.519 7.54924 11.5627 7.49913 11.5685 7.49867C11.6201 7.52647 11.6405 7.58447 11.6945 7.61C11.7 7.6105 11.7408 7.56122 11.7492 7.56312C11.767 7.56677 11.7776 7.58243 11.7736 7.60805C11.7717 7.62054 11.7249 7.65391 11.7238 7.66566C11.7212 7.69303 11.731 7.71016 11.7512 7.71547C11.7599 7.7176 11.8002 7.66111 11.8078 7.66762C11.8605 7.7108 11.9157 7.74999 11.9025 7.86C11.9016 7.86758 11.8075 7.96824 11.8332 7.95668C11.8607 7.93027 11.8921 7.89832 11.9211 7.86976C12.0064 7.9241 12.0419 8.02685 12.1066 8.10219C12.1094 8.10535 12.1567 8.04944 12.1623 8.05531C12.1947 8.08893 12.241 8.10732 12.2238 8.19203C12.2216 8.20092 12.13 8.28858 12.1535 8.2848C12.1591 8.28429 12.1855 8.2864 12.2082 8.27113C12.2137 8.26625 12.2512 8.2247 12.257 8.22816C12.2911 8.24967 12.3105 8.28811 12.3127 8.34144C12.3129 8.35006 12.2646 8.38955 12.2629 8.39711C12.2617 8.44377 12.3211 8.43506 12.3019 8.49769C12.2887 8.53979 12.2056 8.61187 12.1369 8.69594C12.1272 8.70784 12.1341 8.71925 12.09 8.7643C11.9792 8.87747 11.8521 8.99569 11.7346 9.11683C11.7093 9.14287 11.749 9.12736 11.6799 9.18226C11.6752 9.18592 11.6455 9.19754 11.6223 9.21644C11.6062 9.22951 11.5639 9.2779 11.5422 9.29359C11.5205 9.30918 11.5545 9.26794 11.5275 9.2848C11.5002 9.30216 11.4509 9.35522 11.4348 9.35121C11.3977 9.34129 11.3813 9.29614 11.3781 9.25258C11.3771 9.23894 11.4088 9.21443 11.4094 9.20375C11.4103 9.18294 11.3876 9.18745 11.3908 9.16469C11.392 9.15698 11.4404 9.11608 11.4406 9.10902C11.4414 9.07117 11.413 9.06475 11.4035 9.03676C11.357 8.8969 11.2822 8.78806 11.2082 8.67347C11.1839 8.63577 11.1863 8.55829 11.1369 8.54359C11.131 8.54195 11.094 8.58308 11.09 8.58558C11.0299 8.6235 11.1115 8.54913 11.1154 8.5309C11.1278 8.46051 11.0988 8.42457 11.0558 8.41176C11.0373 8.40691 10.9717 8.49532 11.0031 8.44008C11.0052 8.43631 11.0496 8.39808 11.051 8.39027C11.0535 8.37293 11.0329 8.36608 11.0305 8.35707C11.0261 8.33987 11.0235 8.33827 11.0139 8.32777C11.0006 8.31251 11.0034 8.27507 10.9787 8.26918C10.9718 8.27047 10.9352 8.31391 10.923 8.31605C10.9107 8.31805 10.9004 8.30135 10.9055 8.28676C10.9108 8.2722 10.946 8.24089 10.9533 8.23207C11.0112 8.16061 10.9058 8.23384 10.9016 8.23402C10.8264 8.23436 10.8449 8.15185 10.8098 8.11683C10.7829 8.0904 10.7381 8.07809 10.715 8.05043C10.6877 8.01729 10.6849 7.96841 10.6516 7.94301C10.6473 7.94159 10.6042 7.99105 10.5978 7.99086C10.5518 7.95648 10.5172 7.91131 10.5109 7.83754C10.5103 7.83009 10.5587 7.79096 10.5607 7.7809C10.5723 7.72014 10.6198 7.5957 10.4142 7.77211C10.4051 7.74803 10.3936 7.71994 10.4172 7.66664C10.4324 7.63231 10.489 7.59378 10.4572 7.60219C10.45 7.60408 10.4111 7.64939 10.4035 7.64906C10.3715 7.64755 10.3665 7.6157 10.3283 7.62074C10.32 7.62261 10.2847 7.65931 10.2766 7.66566C10.214 7.71217 10.2898 7.60955 10.2941 7.59926C10.3209 7.52807 10.2853 7.53123 10.2658 7.50941C10.2614 7.50443 10.2188 7.55768 10.2111 7.55726C10.18 7.54055 10.1586 7.51116 10.1574 7.46547C10.1573 7.45531 10.2037 7.41777 10.2072 7.4098C10.2161 7.37892 10.1331 7.45716 10.1398 7.42933C10.1412 7.42354 10.1789 7.38809 10.1828 7.38344C10.2399 7.31368 10.1444 7.39773 10.1408 7.39808C10.0934 7.40425 10.1737 7.29761 10.1408 7.29066C10.1368 7.28997 10.0963 7.34105 10.0871 7.33754C10.0295 7.30565 9.99455 7.24521 9.98749 7.16371C9.98701 7.15092 10.0266 7.12154 10.0305 7.11683C10.0893 7.04423 9.99991 7.12366 9.99042 7.12855C9.94826 7.1353 10.0072 7.04402 9.88788 7.1393C9.85017 7.027 9.71463 7.0121 9.73651 6.84144C9.73856 6.83776 9.78324 6.79645 9.78339 6.79262C9.78522 6.7458 9.72045 6.81911 9.62128 6.88832C9.59658 6.90553 9.68425 6.79464 9.69257 6.78383C9.7164 6.75257 9.78711 6.68982 9.7912 6.68324C9.82157 6.63247 9.60624 6.85089 9.59198 6.83754C9.59567 6.83342 9.63421 6.7985 9.6369 6.79359C9.64571 6.77756 9.62564 6.78947 9.63593 6.77211C9.6599 6.73196 9.76325 6.62356 9.68964 6.6725C9.68005 6.67896 9.55848 6.80501 9.55194 6.78676C9.54922 6.77928 9.52466 6.75983 9.52655 6.74574C9.52843 6.73176 9.57213 6.6969 9.5744 6.69398C9.61075 6.62464 9.6392 6.6086 9.70917 6.52211C9.77812 6.43671 9.5948 6.62366 9.5705 6.64125C9.54643 6.65856 9.57784 6.60274 9.59003 6.58461C9.6023 6.56652 9.63196 6.54501 9.63788 6.53383C9.67586 6.46102 9.53736 6.61853 9.50214 6.64222C9.41876 6.6984 9.54601 6.55002 9.54706 6.52406C9.54698 6.51761 9.51889 6.55127 9.51288 6.5514C9.48982 6.55073 9.52537 6.50043 9.47284 6.52601C9.4642 6.53023 9.37041 6.60256 9.42401 6.5348C9.43178 6.52503 9.46923 6.49288 9.47186 6.48012C9.47564 6.46113 9.46885 6.44066 9.4494 6.44398C9.43439 6.44757 9.38576 6.50893 9.39569 6.48402C9.40098 6.47259 9.43975 6.44642 9.4455 6.42836C9.4512 6.41009 9.43322 6.39524 9.42596 6.39027C9.4187 6.38557 9.38034 6.43084 9.37616 6.43422C9.35661 6.44781 9.32343 6.45679 9.32245 6.4557C9.26524 6.40872 9.28962 6.28822 9.21503 6.26137C9.20924 6.2592 9.16681 6.30685 9.16522 6.30726C9.13263 6.31259 9.26327 6.20283 9.29413 6.15297C9.20406 6.24577 9.2149 6.22394 9.1955 6.22426C9.18593 6.22456 9.15268 6.26303 9.14862 6.26625C9.08779 6.31335 9.15316 6.23879 9.1662 6.22328C9.21388 6.16651 9.14692 6.22335 9.17889 6.18519C9.21065 6.14725 9.26885 6.10293 9.25897 6.09437C9.22343 6.12493 9.14539 6.21677 9.12421 6.22426C9.04511 6.25055 9.06323 6.13335 9.04901 6.10512C9.03488 6.07711 9.0212 6.07643 9.02069 6.05238C9.01989 6.00873 8.96504 6.0797 8.92206 6.09535C8.87898 6.11065 9.04267 5.96116 9.0744 5.92543C9.10615 5.88976 9.06905 5.92199 9.08514 5.90101C9.10125 5.88008 9.1298 5.86192 9.13104 5.84926C9.13036 5.83816 9.05556 5.88186 9.01874 5.91469C8.93981 5.98508 8.8687 6.07051 8.88104 6.02797C8.88181 6.02546 8.9261 5.98664 8.92694 5.97914C8.93211 5.92124 8.90683 5.89177 8.90839 5.83754C8.90868 5.82998 8.9575 5.78679 8.95819 5.78187C8.96529 5.73096 8.89594 5.81648 8.79803 5.89027C8.91516 5.77857 8.97814 5.70161 8.9621 5.68422C8.95229 5.67412 8.90408 5.72492 8.86249 5.75355C8.84992 5.76222 8.87751 5.72158 8.85272 5.74379C8.7717 5.81634 8.69217 5.90852 8.70917 5.85707C8.71098 5.85392 8.75326 5.81594 8.75409 5.81019C8.75387 5.77663 8.67173 5.85485 8.64374 5.84633C8.62219 5.8392 8.6452 5.76504 8.6369 5.74086C8.76588 5.61257 8.72109 5.62716 8.62616 5.70961C8.61921 5.6954 8.60264 5.68814 8.60468 5.66566C8.6063 5.6574 8.64494 5.62332 8.64862 5.61879C8.70494 5.54886 8.61425 5.63038 8.60858 5.63148C8.5511 5.63956 8.59607 5.55441 8.50897 5.59437C8.50584 5.59584 8.41522 5.68412 8.47382 5.61293C8.4779 5.60802 8.5267 5.57444 8.51874 5.56019C8.51114 5.5455 8.53719 5.47771 8.48065 5.50355C8.46695 5.50979 8.38473 5.57263 8.43378 5.50844C8.44046 5.49973 8.46785 5.47532 8.48065 5.45961C8.52094 5.40992 8.42812 5.49683 8.49921 5.41469C8.57033 5.33248 8.61649 5.26404 8.54803 5.3014C8.54502 5.30335 8.47071 5.36989 8.46698 5.3639C8.46112 5.35427 8.4646 5.32882 8.45624 5.32094C8.45209 5.31728 8.40988 5.36377 8.40839 5.3639C8.35753 5.36245 8.37815 5.30464 8.36737 5.25941C8.36546 5.25102 8.29043 5.29674 8.32831 5.2389C8.36981 5.17549 8.59884 4.96796 8.52167 4.99476C8.49054 5.00557 8.20124 5.26966 8.32635 5.10805C8.2555 5.10818 8.29596 5.0023 8.21014 5.01722C8.20639 5.01786 8.12758 5.08672 8.12128 5.08558C8.11748 5.07842 8.14908 5.04015 8.14862 5.03285C8.14283 5.0053 8.09641 5.02053 8.08514 4.99965C8.08129 4.99154 8.12058 4.95623 8.11542 4.94691C8.10956 4.93844 8.05615 4.98169 8.06952 4.94887C8.08017 4.92333 8.17307 4.81526 8.17499 4.79359C8.07589 4.89191 8.07138 4.88411 8.03339 4.89808C8.02613 4.90079 7.9946 4.93584 7.98846 4.94008C7.96624 4.95338 7.99047 4.92115 7.96698 4.93617C7.9614 4.93973 7.92842 4.97243 7.92108 4.97816C7.86406 5.02085 7.92841 4.9329 7.93964 4.91762C7.98174 4.86005 7.93469 4.90027 7.94843 4.87465C7.96225 4.84897 7.99588 4.83299 8.00116 4.8141C8.01163 4.7748 7.9869 4.76096 7.97382 4.74476C7.96714 4.74092 7.92858 4.7875 7.92596 4.78871C7.90243 4.78809 7.93772 4.72785 7.841 4.81117C8.06529 4.57014 7.81191 4.82592 7.841 4.76234C7.84341 4.75722 7.95126 4.64561 7.97284 4.63441C7.99417 4.62351 7.96799 4.66581 8.00018 4.64808C8.00773 4.64393 8.11839 4.55226 8.12811 4.54555ZM12.0793 8.68226C12.0773 8.68448 12.0819 8.69299 12.0842 8.69105C12.1378 8.64423 12.1288 8.62719 12.0793 8.68226ZM9.80878 6.83558C9.89852 6.7612 9.87685 6.72304 9.79706 6.81605C9.79378 6.82144 9.80429 6.83912 9.80878 6.83558ZM9.62421 6.44594C9.62197 6.44843 9.62461 6.45548 9.63788 6.44203C9.6803 6.39894 9.66166 6.40437 9.62421 6.44594ZM9.18964 6.05433C9.18774 6.05662 9.19229 6.06504 9.19452 6.06312C9.2483 6.01628 9.23928 5.99924 9.18964 6.05433ZM8.47772 4.83754C8.52409 4.77642 8.39918 4.8902 8.38104 4.91469C8.32155 4.99512 8.43108 4.89896 8.47772 4.83754ZM7.87225 4.62465C7.88972 4.66104 7.72156 4.86147 7.71307 4.81117C7.71411 4.80118 7.78337 4.763 7.79315 4.73988C7.81051 4.69779 7.68735 4.80551 7.73651 4.73109C7.74554 4.71753 7.86824 4.62386 7.87225 4.62367V4.62465ZM8.11053 4.77211C8.13667 4.73827 8.0908 4.76282 8.0578 4.80531C8.0316 4.8392 8.07753 4.81459 8.11053 4.77211Z" fill="#555961"/>
</svg>
