<svg width="16" height="16" viewBox="0 0 16 16" fill="none" xmlns="http://www.w3.org/2000/svg">
<path d="M8.10515 6.15011C8.13955 6.07084 8.17918 6.21964 8.1823 6.24386C8.18232 6.24457 8.15291 6.25676 8.16472 6.28976C8.16665 6.35632 8.18184 6.24411 8.1823 6.24386C8.18524 6.2586 8.2387 6.27976 8.25164 6.27023C8.25856 6.26472 8.26371 6.20558 8.26726 6.20382C8.352 6.16345 8.43729 6.16708 8.50749 6.21554C8.50717 6.22086 8.4894 6.27927 8.49187 6.28195C8.52654 6.3218 8.57735 6.25403 8.63054 6.22238C8.68307 6.19118 8.70844 6.21883 8.68621 6.33078C8.71803 6.32849 8.73572 6.3906 8.74285 6.42746C8.74988 6.4642 8.80908 6.35162 8.81218 6.35031C8.90727 6.30783 8.90892 6.39103 8.95964 6.43527C8.98415 6.45659 9.04777 6.47648 9.08464 6.48605C9.11357 6.49357 9.10952 6.52754 9.14128 6.52804C9.14636 6.52655 9.17586 6.4834 9.17937 6.48019C9.24463 6.44523 9.14862 6.54462 9.13738 6.56808C9.09785 6.65186 9.07525 6.69535 9.12859 6.68527C9.14038 6.68255 9.29071 6.54865 9.31121 6.55148C9.33673 6.55482 9.28265 6.60222 9.31023 6.60421C9.31334 6.60346 9.34278 6.57204 9.35124 6.58273C9.36088 6.59476 9.36983 6.60824 9.37859 6.62179C9.40605 6.66426 9.43024 6.71082 9.46453 6.74582C9.47065 6.75232 9.51708 6.6978 9.52703 6.70675C9.57353 6.7487 9.61344 6.80594 9.62078 6.87375C9.62234 6.89059 9.57727 6.91171 9.56707 6.92257C9.50479 6.98752 9.6257 6.93812 9.63054 6.94113C9.74175 7.00147 9.68081 7.13024 9.77507 7.2048C9.78519 7.20741 9.92318 7.19922 9.8239 7.26242C9.81663 7.26751 9.71376 7.33028 9.79656 7.31711C9.80344 7.31521 9.85507 7.28243 9.8571 7.30539C9.85941 7.32818 9.91001 7.34996 9.85515 7.40011C9.83789 7.41655 9.72926 7.47181 9.82878 7.4714C9.83543 7.46987 10.0571 7.45864 9.91667 7.51242C9.89346 7.52119 9.7394 7.5564 9.82585 7.56906C9.84259 7.57157 9.87385 7.55267 9.8991 7.56418C9.93821 7.58293 9.90448 7.62504 9.97917 7.64523C9.99242 7.64831 10.103 7.65709 10.026 7.69015C10.0139 7.6952 9.96003 7.69752 9.95574 7.70871C9.93532 7.76104 9.97584 7.80855 9.94304 7.86105C9.93136 7.87935 9.8457 7.87672 9.8239 7.89523C9.80223 7.91393 9.78184 7.94761 9.82097 7.96457C9.86035 7.98204 9.99633 7.9597 10.0075 7.98898C10.0088 7.99257 10.0103 7.99612 10.0114 7.99972C10.0501 8.12647 9.96277 8.24662 9.92937 8.36203C9.92415 8.37999 9.97499 8.37434 9.97039 8.40207C9.95586 8.50257 9.9437 8.69429 9.81316 8.73703C9.71031 8.76851 9.68387 8.66612 9.63347 8.69894C9.61148 8.71365 9.73928 8.79982 9.7448 8.81027C9.76483 8.88685 9.68273 8.89323 9.67546 8.94992C9.67448 8.96188 9.73524 8.98389 9.73308 8.99386C9.72589 9.02871 9.68331 9.04449 9.67058 9.07394C9.66577 9.08733 9.70721 9.11163 9.69695 9.12082C9.67213 9.14299 9.63851 9.15449 9.58367 9.15207C9.57877 9.15172 9.54018 9.10207 9.52507 9.11789C9.50074 9.14522 9.43846 9.15161 9.44792 9.21261C9.45097 9.23082 9.53593 9.30412 9.45964 9.27414C9.44359 9.2679 9.34742 9.17407 9.41374 9.27414C9.42572 9.29012 9.50245 9.43751 9.41082 9.38644C9.39869 9.37949 9.36969 9.35979 9.34441 9.34445C9.31956 9.32943 9.29863 9.3187 9.29949 9.3298C9.30208 9.33465 9.34717 9.37093 9.34246 9.38351C9.32444 9.42819 9.28609 9.45501 9.26335 9.49875C9.25797 9.51081 9.31085 9.5458 9.30046 9.56222C9.27053 9.60777 9.2083 9.63536 9.15593 9.64816C9.13651 9.65281 9.11732 9.60313 9.11296 9.59933C9.04438 9.53647 9.10353 9.64484 9.10124 9.655C9.08747 9.7155 9.02769 9.68497 9.00066 9.71847C8.99342 9.72799 9.02929 9.77436 9.02996 9.78C9.03437 9.83571 8.99786 9.73694 8.97917 9.73312C8.92711 9.72476 8.8893 9.74937 8.85515 9.77414C8.8429 9.78348 8.88756 9.8378 8.87566 9.84543C8.80529 9.89181 8.71957 9.91834 8.63152 9.90793C8.61508 9.90533 8.60789 9.85286 8.60124 9.8425C8.55621 9.76975 8.56083 9.8875 8.55632 9.90011C8.53838 9.95663 8.5137 9.91614 8.48796 9.93136C8.3595 10.0094 8.17282 10.0027 8.03972 9.98507C8.02633 9.98347 8.01259 9.98134 7.99968 9.97921C7.84349 9.95267 7.72685 9.89766 7.57976 9.87765C7.56955 9.87613 7.56362 9.94653 7.55437 9.94601C7.4343 9.93555 7.33113 9.87317 7.21453 9.84543C7.20489 9.84433 7.19206 9.91002 7.17546 9.90793C7.14085 9.90394 7.10328 9.88218 7.08269 9.84836C7.07281 9.83197 7.11731 9.79036 7.1071 9.77511C7.0837 9.73976 7.05208 9.71733 7.01433 9.70773C6.99803 9.70366 6.98544 9.77451 6.96648 9.76437C6.83733 9.69673 6.70796 9.61456 6.66082 9.45187C6.65953 9.43864 6.74435 9.3349 6.71257 9.34054C6.68514 9.36697 6.65436 9.39957 6.62566 9.42843C6.61554 9.42057 6.60502 9.41245 6.59539 9.40402C6.44759 9.27426 6.36444 9.09068 6.28093 8.91964C6.27501 8.91434 6.22105 8.95893 6.21257 8.94504C6.16715 8.85686 6.10745 8.77126 6.14226 8.65207C6.14568 8.64038 6.26792 8.60339 6.24187 8.58371C6.23691 8.58033 6.20802 8.54559 6.17839 8.54269C6.17393 8.5424 6.11865 8.5675 6.11296 8.55441C6.08098 8.47808 6.07482 8.38859 6.09832 8.30343C6.10283 8.28997 6.16721 8.29346 6.17058 8.2839C6.19431 8.21779 6.13985 8.1542 6.19402 8.09152C6.23114 8.05063 6.34215 8.0602 6.44988 8.03879C6.46502 8.03585 6.46716 8.01493 6.52996 8.01339C6.68834 8.00984 6.86212 8.01649 7.03093 8.01144C7.06722 8.01044 7.02858 7.99312 7.11589 8.00265C7.12175 8.00337 7.15147 8.0144 7.18132 8.01632C7.20198 8.01765 7.26618 8.01362 7.29265 8.01632C7.31897 8.01879 7.26568 8.02376 7.29656 8.02804C7.32817 8.032 7.40072 8.02744 7.40984 8.03586C7.43039 8.05524 7.41263 8.08235 7.38835 8.1091C7.38033 8.11726 7.34144 8.12122 7.33464 8.12765C7.3214 8.14063 7.34246 8.14595 7.32683 8.15988C7.32101 8.1647 7.25867 8.17449 7.25457 8.17941C7.23271 8.20707 7.2545 8.22366 7.24871 8.24875C7.22104 8.37525 7.26151 8.4979 7.32585 8.61105C7.33294 8.6235 7.33757 8.6405 7.34246 8.65793C7.35204 8.69282 7.36491 8.73138 7.3991 8.738C7.40506 8.73905 7.43691 8.69486 7.44109 8.69113C7.49559 8.64623 7.42461 8.72861 7.42253 8.74777C7.41924 8.81939 7.45931 8.85329 7.50554 8.85519C7.52527 8.85582 7.56405 8.75185 7.54851 8.8132C7.54756 8.81742 7.51521 8.86676 7.51628 8.87472C7.51917 8.89245 7.54289 8.8932 7.54851 8.90109C7.5593 8.91678 7.56273 8.91727 7.57683 8.92453C7.59547 8.93486 7.60862 8.9721 7.63542 8.96847C7.64115 8.9674 7.65703 8.90807 7.66765 8.90109C7.67822 8.89478 7.69396 8.90627 7.69597 8.9216C7.69768 8.93747 7.68153 8.98129 7.67937 8.99191C7.66219 9.08214 7.72333 8.96805 7.72624 8.96554C7.79275 8.92898 7.82269 9.00833 7.87761 9.01535C7.91806 9.01994 7.96232 8.99908 7.99968 9.00168H8.00066C8.04547 9.00568 8.08771 9.03546 8.13249 9.02414C8.13638 9.02066 8.12238 8.95334 8.12761 8.95187C8.18395 8.93593 8.23844 8.93181 8.31023 8.95871C8.31743 8.96138 8.32887 9.02109 8.33757 9.02902C8.38833 9.06692 8.50815 9.15057 8.41472 8.89523C8.4416 8.89446 8.47301 8.89055 8.52019 8.92648C8.5508 8.94937 8.57096 9.01572 8.5739 8.98117C8.57449 8.97349 8.54108 8.9266 8.54265 8.91769C8.55428 8.88564 8.5887 8.88548 8.59246 8.84543C8.59302 8.83716 8.56168 8.79446 8.5573 8.78586C8.5216 8.71704 8.6117 8.80887 8.62175 8.8132C8.69154 8.84704 8.69632 8.80741 8.72136 8.78683C8.72522 8.78076 8.67189 8.73542 8.67546 8.72921C8.68222 8.71806 8.69033 8.70828 8.69988 8.69992C8.71749 8.6845 8.74047 8.67474 8.77117 8.67062C8.78187 8.66927 8.82316 8.71428 8.83074 8.71554C8.86381 8.71957 8.7789 8.64354 8.8073 8.64621C8.81342 8.64669 8.85321 8.68123 8.85808 8.68429C8.93429 8.73103 8.84154 8.64666 8.83953 8.6423C8.82789 8.59427 8.94835 8.65281 8.95183 8.613C8.94853 8.60719 8.89276 8.58016 8.89617 8.57004C8.91896 8.50042 8.96626 8.4456 9.04167 8.39523C9.05336 8.3874 9.09727 8.41225 9.1032 8.41379C9.19628 8.43477 9.07925 8.38342 9.07585 8.37863C9.0532 8.34048 9.16394 8.34201 9.02312 8.28195C9.08968 8.19809 9.05707 8.09558 9.1071 7.99972C9.11942 7.97549 9.1369 7.95065 9.16179 7.92355C9.16325 7.92178 9.22615 7.92033 9.22917 7.91671C9.26119 7.87217 9.1639 7.88685 9.04265 7.87668C9.0138 7.87477 9.15022 7.83824 9.16277 7.83371C9.20037 7.82158 9.2943 7.81459 9.30144 7.81125C9.35585 7.78227 9.05383 7.83264 9.04851 7.81222C9.05231 7.81107 9.10335 7.80438 9.11003 7.80148C9.12643 7.79226 9.10367 7.79059 9.12175 7.78097C9.16373 7.75918 9.30893 7.72127 9.21843 7.7175C9.20642 7.71746 9.03982 7.75975 9.0407 7.73996C9.04225 7.73135 9.02993 7.69803 9.03777 7.68527C9.04549 7.67285 9.09788 7.66269 9.1032 7.66086C9.16577 7.61088 9.19891 7.61174 9.29851 7.56125C9.39719 7.50914 9.15039 7.59903 9.12078 7.60324C9.09142 7.6075 9.14201 7.56661 9.15984 7.55343C9.17787 7.54056 9.21387 7.53426 9.22332 7.52511C9.284 7.46364 9.0971 7.55957 9.05437 7.56613C8.9552 7.58376 9.12462 7.4908 9.13249 7.45968C9.13442 7.45176 9.09661 7.47549 9.0905 7.47238C9.06749 7.46031 9.11505 7.41979 9.05437 7.42453C9.04416 7.42479 8.93364 7.46698 9.00164 7.41379C9.01142 7.40596 9.05657 7.38536 9.06121 7.37179C9.06803 7.35156 9.06248 7.3238 9.0407 7.32004C9.02393 7.31847 8.96531 7.37157 8.9782 7.34738C8.98405 7.33624 9.02897 7.31959 9.03679 7.3005C9.04435 7.28123 9.02548 7.25699 9.01726 7.24875C9.00913 7.24082 8.96609 7.28063 8.96062 7.2839C8.93953 7.29306 8.90574 7.29467 8.90203 7.29367C8.86978 7.25893 8.85999 7.20738 8.84148 7.1589C8.82547 7.11658 8.80189 7.07697 8.75847 7.06222C8.75036 7.06171 8.71504 7.11288 8.71355 7.113C8.6793 7.11891 8.79965 6.99741 8.81999 6.94113C8.74288 7.04482 8.74841 7.02057 8.72624 7.02121C8.71534 7.02179 8.68904 7.06516 8.68523 7.06906C8.63078 7.12387 8.68248 7.03917 8.69207 7.02121C8.72765 6.9561 8.66966 7.02228 8.69304 6.97824C8.71576 6.93412 8.7686 6.88141 8.75261 6.87179C8.72277 6.90781 8.66545 7.01655 8.64421 7.02609C8.56731 7.06268 8.54327 6.94063 8.51042 6.91476C8.48022 6.88991 8.4652 6.89321 8.45085 6.86984C8.4238 6.82671 8.40445 6.91596 8.36882 6.94699C8.33454 6.97718 8.4156 6.77155 8.42742 6.72531C8.43864 6.67918 8.41924 6.72388 8.42253 6.69796C8.42576 6.67152 8.44667 6.64373 8.43816 6.63058C8.429 6.61725 8.37307 6.68885 8.35613 6.73605C8.3199 6.83546 8.30227 6.94556 8.28777 6.90207C8.28687 6.89944 8.30573 6.84385 8.30144 6.83664C8.26613 6.78135 8.21612 6.76832 8.17156 6.72238C8.16563 6.71524 8.18012 6.65262 8.17644 6.64816C8.13673 6.60146 8.13904 6.71189 8.10613 6.83078C8.12617 6.67022 8.12215 6.57036 8.08562 6.56711C8.06414 6.56549 8.06426 6.63611 8.04949 6.68527C8.04518 6.69938 8.03233 6.65128 8.02898 6.68429C8.01867 6.79268 8.0282 6.91424 7.99968 6.86593V6.80734C7.99938 6.80408 7.99939 6.80149 7.99871 6.8005C7.96773 6.77717 7.9658 6.89073 7.93718 6.90597C7.91508 6.91717 7.86706 6.85256 7.8366 6.84543C7.81247 6.66573 7.78554 6.71158 7.79656 6.83664C7.77734 6.83503 7.75931 6.84554 7.73796 6.83273C7.73056 6.82779 7.7224 6.77655 7.72039 6.77121C7.68807 6.68867 7.70654 6.80414 7.70476 6.8132C7.67417 6.86868 7.61089 6.79231 7.60027 6.89132C7.59979 6.89496 7.64093 7.01425 7.59929 6.93234C7.59623 6.92673 7.58917 6.86842 7.56902 6.87082C7.54947 6.87336 7.48576 6.82604 7.48406 6.89132C7.48327 6.90723 7.51397 7.00594 7.46648 6.94015C7.45991 6.93102 7.44474 6.89823 7.43328 6.88156C7.39627 6.82909 7.45077 6.94371 7.39128 6.85324C7.33166 6.76225 7.26802 6.70388 7.27703 6.78488C7.27712 6.78732 7.3215 6.87596 7.31414 6.88156C7.2998 6.88722 7.2698 6.8817 7.25652 6.89132C7.25042 6.89584 7.28716 6.94288 7.28874 6.94699C7.26793 7.00383 7.20775 6.97933 7.1491 6.99679C7.13868 7.00158 7.17315 7.08223 7.11394 7.04562C7.04722 7.00619 6.85352 6.76547 6.86101 6.86105C6.86527 6.90456 7.1288 7.18545 6.95574 7.07687C6.94662 7.16301 6.82225 7.1567 6.84148 7.25949C6.84428 7.26552 6.92805 7.32994 6.92449 7.33566C6.91698 7.34325 6.87012 7.3219 6.86296 7.32687C6.83275 7.34781 6.85631 7.39513 6.8366 7.41964C6.82913 7.42916 6.78419 7.40274 6.77507 7.41476C6.766 7.42712 6.8248 7.46432 6.78679 7.46847C6.75768 7.47127 6.62057 7.43106 6.59636 7.44601C6.72605 7.4982 6.71857 7.51043 6.7448 7.54562C6.74999 7.55239 6.79758 7.56505 6.80242 7.56906C6.82299 7.58531 6.78305 7.57895 6.80632 7.59543C6.81269 7.59957 6.85654 7.61483 6.86394 7.61886C6.92687 7.6528 6.81773 7.63951 6.79851 7.63839C6.72694 7.63246 6.78407 7.65741 6.75457 7.66086C6.72445 7.66481 6.69458 7.63797 6.67449 7.64718C6.63304 7.66692 6.63149 7.70759 6.62371 7.73703C6.62188 7.74873 6.68516 7.75263 6.68621 7.75461C6.69745 7.78045 6.62758 7.79538 6.75164 7.82589C6.42418 7.79828 6.77885 7.8438 6.71257 7.86789C6.70703 7.86977 6.55149 7.85838 6.52996 7.84445C6.50858 7.8303 6.55819 7.81903 6.52507 7.79855C6.51393 7.79325 6.3774 7.75012 6.36882 7.74484C6.30484 7.70749 6.53482 7.74359 6.54753 7.74484C6.68497 7.75576 6.53594 7.70231 6.52703 7.69211C6.48516 7.64951 6.52285 7.62943 6.49578 7.59347C6.47703 7.56982 6.33348 7.52663 6.34246 7.51242C6.37338 7.46357 6.57793 7.51937 6.42156 7.41183C6.38841 7.38847 6.22931 7.33789 6.36589 7.34836C6.37681 7.34889 6.49497 7.36786 6.4323 7.32394C6.42422 7.31826 6.37992 7.30003 6.37664 7.29562C6.36007 7.26763 6.40136 7.27116 6.39324 7.24484C6.38515 7.21846 6.37151 7.1834 6.39714 7.16964C6.41311 7.16139 6.50078 7.1879 6.52312 7.19308C6.58745 7.2083 6.50628 7.13966 6.57878 7.16867C6.65098 7.1989 6.74258 7.27583 6.79851 7.28C6.69083 7.21438 6.58087 7.14505 6.47332 7.07785C6.51314 7.02058 6.58497 6.98877 6.62175 6.93234C6.62624 6.92525 6.56868 6.89099 6.57097 6.88156C6.58719 6.84348 6.64648 6.84793 6.65886 6.80539C6.66819 6.77211 6.64002 6.6966 6.65203 6.6589C6.66048 6.66515 6.66819 6.67078 6.67546 6.6755C6.76854 6.73623 6.77124 6.67691 6.80437 6.66379C6.81668 6.65925 6.84148 6.68815 6.85613 6.69211C6.9107 6.70633 6.81622 6.61965 6.81023 6.59836C6.78698 6.5066 6.97289 6.72755 7.00066 6.69699C7.00149 6.69524 6.9321 6.55515 6.93035 6.54464C6.91501 6.47892 6.96545 6.5858 6.98503 6.58566C7.02082 6.58569 7.05673 6.60439 7.06023 6.54855C7.06024 6.53107 7.03151 6.43837 7.0866 6.49093C7.09364 6.49774 7.11755 6.54016 7.12175 6.54367C7.17757 6.56807 7.09816 6.4304 7.09148 6.37179C7.08546 6.31311 7.16921 6.39406 7.18914 6.41964C7.24169 6.48458 7.19311 6.45691 7.19597 6.46457C7.23085 6.55376 7.2436 6.52973 7.26238 6.52902C7.33478 6.66759 7.35 6.64971 7.28191 6.52804C7.27433 6.51478 7.26863 6.53387 7.26238 6.52902C7.20653 6.38504 7.22793 6.3526 7.31414 6.4714C7.35415 6.52733 7.37444 6.60388 7.3991 6.56222C7.41041 6.54334 7.36317 6.44674 7.36785 6.41281C7.38077 6.33534 7.46443 6.41199 7.49675 6.38546C7.50867 6.37545 7.47829 6.32416 7.48601 6.31515C7.50801 6.29171 7.54342 6.32731 7.56414 6.29855C7.56488 6.29331 7.54516 6.23944 7.55242 6.23507C7.61642 6.21161 7.68185 6.23865 7.74968 6.23019C7.78229 6.22586 7.83879 6.18588 7.87468 6.19015C7.91438 6.19478 7.96062 6.23287 7.99968 6.25461C8.02149 6.26658 8.04227 6.27348 8.06023 6.26632C8.09262 6.25323 8.08821 6.19122 8.10515 6.15011ZM6.48699 8.10421C6.41531 8.10093 6.41166 8.13221 6.48503 8.11984C6.48786 8.11927 6.48955 8.10523 6.48699 8.10421ZM6.5866 7.96847C6.60079 7.90849 6.86426 7.90111 6.83171 7.94992C6.824 7.95808 6.74926 7.92526 6.72527 7.93625C6.68098 7.95918 6.84497 7.97761 6.75652 7.99972C6.73874 8.00432 6.58557 7.97286 6.58562 7.96847H6.5866ZM9.22527 7.95089C9.21912 7.95184 9.21395 7.97787 9.21941 7.97921C9.33623 7.99285 9.34701 7.93279 9.22527 7.95089ZM6.59343 7.54757C6.54973 7.54267 6.58993 7.58014 6.64421 7.58566C6.68714 7.59055 6.64715 7.55455 6.59343 7.54757ZM9.23113 7.41183C9.22863 7.41397 9.23033 7.42265 9.24675 7.41476C9.30159 7.38833 9.27993 7.38353 9.23113 7.41183ZM6.63835 6.99582C6.56571 6.96658 6.69434 7.07765 6.72332 7.08859C6.8173 7.12712 6.71053 7.02682 6.63835 6.99582ZM8.65789 6.8425C8.69943 6.78416 8.67809 6.76513 8.64714 6.83273C8.64605 6.83536 8.65566 6.84397 8.65789 6.8425Z" fill="#555961"/>
<path d="M8.35059 3.83206C8.39348 3.75795 8.41461 3.85837 8.41993 3.87894C8.44007 3.95414 8.47375 3.86918 8.48731 3.91995C8.50024 3.97037 8.45587 4.03994 8.50587 4.043C8.52385 3.99795 8.49604 3.87451 8.53614 3.85745C8.69107 3.79402 8.95719 3.92567 9.07032 3.95706C9.18468 3.98736 9.22438 3.98706 9.28809 4.01761C9.40218 4.07344 9.37808 3.97625 9.46388 3.95413C9.54979 3.93345 9.45877 4.13866 9.45802 4.18753C9.45669 4.23634 9.48002 4.19204 9.48634 4.22074C9.49205 4.2492 9.45741 4.27294 9.48438 4.29007C9.51128 4.30705 9.61496 4.24783 9.63966 4.20316C9.69119 4.10828 9.68405 3.9907 9.75489 4.05179C9.7589 4.05539 9.72715 4.10714 9.74317 4.1182C9.87154 4.20342 10.0149 4.25523 10.1367 4.34476C10.1529 4.35714 10.1139 4.41025 10.1221 4.41898C10.2179 4.50132 10.2182 4.38364 10.3272 4.29691C10.2512 4.44068 10.2479 4.54548 10.3291 4.58206C10.378 4.60425 10.3982 4.53653 10.4512 4.50589C10.4671 4.49722 10.4818 4.55633 10.502 4.53031C10.5692 4.44201 10.5876 4.31577 10.6543 4.4014C10.6571 4.40528 10.6203 4.45176 10.6309 4.46195C10.7046 4.52434 10.7661 4.42835 10.8643 4.4639C10.9414 4.49206 11.0346 4.62347 11.1065 4.67972C11.0123 4.83525 11.1044 4.8419 11.2002 4.75394C11.2475 4.78925 11.3055 4.81833 11.3438 4.86429C11.3564 4.88016 11.3165 4.91679 11.3154 4.92288C11.2978 5.01728 11.3853 4.93139 11.3994 4.93363C11.54 4.9728 11.5763 5.11288 11.7354 5.12015C11.7419 5.11908 11.8236 5.02546 11.7959 5.11917C11.7937 5.12555 11.7247 5.14551 11.7705 5.18656C11.8164 5.22797 11.865 5.35308 11.9668 5.36234C11.9916 5.36442 12.0979 5.32014 12.0781 5.40824C12.0753 5.42015 12.0471 5.44434 12.04 5.46488C12.018 5.52968 12.1122 5.44356 12.0635 5.54495C12.0148 5.64643 12.0061 5.74699 12.1182 5.74906C12.1216 5.74923 12.2046 5.68901 12.2236 5.70804C12.2529 5.73891 12.283 5.79566 12.3154 5.8262C12.3311 5.84008 12.3647 5.78637 12.3682 5.78812C12.4966 5.86429 12.5291 5.9773 12.6162 6.1055C12.6319 6.12883 12.7505 6.13119 12.7373 6.21781C12.7214 6.31204 12.4531 6.4716 12.5947 6.52249C12.6513 6.54241 12.9958 6.34215 12.9043 6.54886C13.0669 6.66522 13.0959 6.86962 13.2676 6.97952C13.2753 6.98451 13.3794 6.94145 13.3906 6.95902C13.407 6.9852 13.3756 7.0292 13.3858 7.04886C13.4266 7.13092 13.5105 7.17322 13.5557 7.25003C13.5728 7.27912 13.5233 7.29901 13.543 7.33304C13.5628 7.36699 13.635 7.35012 13.6377 7.41312C13.6392 7.46123 13.5434 7.57471 13.5586 7.62796C13.6768 7.55259 13.695 7.58411 13.7617 7.61917C13.7746 7.6259 13.8082 7.58804 13.8164 7.58988C13.8506 7.59684 13.8291 7.63749 13.8643 7.64261C13.8728 7.64386 13.9134 7.61875 13.9229 7.6182C14.0037 7.61404 13.9479 7.72687 13.9375 7.74613C13.8995 7.81973 13.9628 7.80417 13.9561 7.84671C13.9489 7.8886 13.8941 7.86618 13.8994 7.90726C13.9033 7.93689 13.9142 7.96556 13.9268 7.99417C13.9091 8.02206 13.8921 8.04956 13.876 8.07425C13.8589 8.10098 13.925 8.11653 13.9238 8.12113C13.9029 8.18571 13.8098 8.20604 13.8975 8.30472C13.5956 8.1675 13.9035 8.35512 13.7969 8.39945C13.7883 8.40285 13.6524 8.32612 13.6484 8.29007C13.6447 8.25422 13.7083 8.24442 13.6992 8.19241C13.6972 8.18001 13.6025 8.05753 13.5986 8.04691C13.5696 7.96314 13.7717 8.07892 13.7842 8.08304C13.7994 8.08788 13.8116 8.09018 13.8213 8.09085C13.7924 8.05503 13.7744 8.01675 13.7334 7.9932C13.6918 7.96912 13.5613 8.04473 13.5469 8.01566C13.5029 7.91615 13.6591 7.76675 13.4483 7.78031C13.403 7.78368 13.2764 7.89175 13.3428 7.75491C13.348 7.74501 13.4133 7.6309 13.332 7.64456C13.3217 7.64634 13.2809 7.67331 13.2744 7.67093C13.2322 7.6544 13.25 7.61191 13.2119 7.5889C13.1738 7.56599 13.1227 7.54177 13.1094 7.49417C13.1017 7.46546 13.1548 7.3844 13.165 7.36038C13.1947 7.29212 13.0861 7.32016 13.1348 7.25589C13.1833 7.19076 13.3071 7.15983 13.3096 7.07816C13.2065 7.15071 13.0985 7.22291 12.9941 7.29495C12.9173 7.18275 12.8685 7.05239 12.7793 6.94925C12.7682 6.93668 12.7263 6.99135 12.7129 6.97952C12.6578 6.92788 12.6519 6.8445 12.5869 6.79691C12.5365 6.76056 12.4386 6.7567 12.3838 6.72171C12.467 6.59759 12.3678 6.55947 12.3311 6.50003C12.3184 6.47943 12.3477 6.45463 12.3457 6.43363C12.3358 6.35469 12.263 6.46381 12.2363 6.46488C12.1233 6.46968 12.3275 6.26557 12.2588 6.20511C12.251 6.20366 12.1048 6.26814 12.0928 6.26956C12.0137 6.27824 12.1255 6.22557 12.1113 6.19534C12.0853 6.14021 12.0808 6.0856 12.001 6.07132C11.9773 6.0671 11.8779 6.1047 11.9004 6.02445C11.9033 6.01394 11.9391 5.97889 11.9385 5.97366C11.9175 5.88677 11.8088 6.00381 11.7422 6.01663C11.6758 6.02963 11.7014 5.90503 11.7119 5.8721C11.7397 5.78746 11.755 5.86323 11.7617 5.85843C11.8417 5.80084 11.7949 5.78095 11.7725 5.75101C11.8703 5.62911 11.824 5.60241 11.7481 5.72074C11.7401 5.73349 11.7709 5.74096 11.7725 5.75101C11.6477 5.84644 11.5944 5.82736 11.6387 5.67777C11.6592 5.60764 11.73 5.564 11.6426 5.53031C11.6031 5.51565 11.5483 5.60838 11.5029 5.61038C11.4001 5.61459 11.3777 5.47186 11.3018 5.43656C11.2746 5.42453 11.2629 5.48932 11.2432 5.48245C11.1908 5.46422 11.1771 5.4002 11.1201 5.3887C11.1144 5.38965 11.09 5.44524 11.0762 5.43753C10.969 5.37349 10.8986 5.28113 10.7861 5.21292C10.7321 5.18019 10.6183 5.15439 10.5645 5.1182C10.4719 5.05501 10.3856 4.91277 10.2871 4.89163C10.2235 4.87804 10.2104 4.94014 10.169 4.96781C10.0903 5.02135 10.0643 4.85198 10.0606 4.8262C10.0657 4.82601 10.1149 4.83069 10.1016 4.793C10.1106 4.72797 10.0647 4.81895 10.0606 4.8262C10.0576 4.80905 9.96194 4.7571 9.93751 4.76077C9.92431 4.7632 9.90975 4.81938 9.90333 4.81937C9.75067 4.81813 9.61272 4.78832 9.48145 4.72269C9.48097 4.71691 9.5012 4.65871 9.4961 4.65531C9.42223 4.60455 9.3488 4.66897 9.27149 4.69925C9.19379 4.72956 9.14559 4.70253 9.12794 4.58402C9.07392 4.58711 9.00894 4.52445 8.97071 4.48734C8.93243 4.45081 8.90544 4.57533 8.90138 4.57718C8.77222 4.63802 8.71695 4.55686 8.59474 4.53226C8.53737 4.52032 8.41897 4.5297 8.35548 4.54007C8.30525 4.54823 8.27636 4.51639 8.2295 4.53324C8.22327 4.5355 8.22635 4.59069 8.22462 4.59476C8.17125 4.66072 8.20119 4.52341 8.19142 4.49808C8.1557 4.40679 8.13078 4.35784 8.06251 4.39945C8.051 4.40727 8.02387 4.51262 8.00001 4.57523C7.99069 4.59951 7.98128 4.61784 7.97364 4.62113C7.93877 4.63519 7.95125 4.56432 7.91407 4.58206C7.91099 4.58426 7.91144 4.62752 7.88868 4.62601C7.78274 4.61948 7.66468 4.59919 7.5547 4.61234C7.53965 4.61397 7.56438 4.68204 7.54298 4.68558C7.44283 4.70203 7.33344 4.71197 7.23145 4.69339C7.20639 4.68861 7.21419 4.63799 7.20704 4.62406C7.16151 4.54145 7.13369 4.67516 7.12696 4.67874C6.95985 4.76832 6.80034 4.68396 6.6338 4.78421C6.62411 4.79051 6.58736 4.94139 6.52247 4.83792C6.51694 4.82882 6.45073 4.72672 6.44532 4.81351C6.44646 4.8206 6.48265 4.87239 6.4463 4.87699C6.40899 4.88196 6.36568 4.9388 6.29591 4.89066C6.27411 4.87537 6.19727 4.77415 6.1836 4.88089C6.18199 4.88847 6.18984 5.11656 6.11231 4.98636C6.09949 4.96458 6.04623 4.81626 6.02149 4.91312C6.01729 4.9318 6.04879 4.95724 6.03028 4.98831C6.00215 5.03619 5.93056 5.02013 5.90919 5.10648C5.90547 5.12293 5.91257 5.23504 5.85059 5.17484C5.84072 5.16532 5.82759 5.11254 5.80958 5.11429C5.72332 5.12276 5.66277 5.19233 5.57227 5.19827C5.54012 5.20055 5.51392 5.11718 5.47559 5.11136C5.43726 5.10565 5.37021 5.1177 5.36036 5.168C5.35146 5.21815 5.44747 5.31823 5.41212 5.35159C5.2563 5.49477 5.04078 5.53908 4.86134 5.65433C4.83519 5.67125 4.88493 5.6959 4.84864 5.72366C4.71242 5.8265 4.51747 6.04498 4.3379 6.06839C4.1929 6.08723 4.26382 5.93813 4.17188 5.97562C4.12731 5.99461 4.19864 6.14447 4.19434 6.15531C4.15318 6.26274 4.0517 6.26456 4.00001 6.34671C3.99015 6.36375 4.04846 6.3954 4.03907 6.40921C4.00741 6.45678 3.94486 6.47946 3.91114 6.52249C3.89632 6.54175 3.93493 6.57244 3.917 6.58597C3.87451 6.61878 3.82728 6.63915 3.75782 6.64749C3.75126 6.64738 3.72784 6.58317 3.69923 6.61136C3.6532 6.65706 3.5657 6.68831 3.55177 6.7764C3.54807 6.80273 3.63231 6.87631 3.54298 6.86234C3.52403 6.85913 3.42967 6.76328 3.48243 6.87991C3.49089 6.89975 3.55328 7.07061 3.4463 7.043C3.41812 7.03561 3.31312 6.99075 3.30958 7.02249C3.30948 7.02705 3.36559 7.05328 3.35645 7.07425C3.32349 7.14725 3.26727 7.20951 3.23438 7.28421C3.22561 7.30438 3.29386 7.31698 3.27931 7.34574C3.23927 7.42472 3.162 7.50412 3.09669 7.56253C3.07241 7.58369 3.043 7.53559 3.03712 7.53421C2.94121 7.51217 3.02852 7.60206 3.02735 7.61624C3.01794 7.70428 2.93848 7.71838 2.91114 7.78616C2.90371 7.80436 2.95771 7.82544 2.96192 7.83206C2.98189 7.89391 2.91183 7.81082 2.8877 7.82523C2.83011 7.86118 2.79386 7.91672 2.76368 7.97269C2.91808 8.15582 3.05432 8.40077 3.16895 8.58597C3.32845 8.84339 3.43727 9.0585 3.63575 9.26663C3.64839 9.2799 3.6887 9.22072 3.7002 9.23148C3.8448 9.37063 3.9611 9.53421 4.1172 9.65921C4.13003 9.66918 4.15976 9.60542 4.18165 9.62015C4.22696 9.65041 4.27286 9.69905 4.29786 9.75101C4.31031 9.77646 4.24534 9.7945 4.2588 9.81937C4.2902 9.87736 4.33671 9.92494 4.39161 9.95902C4.41512 9.97341 4.42916 9.89561 4.45606 9.918C4.64016 10.0693 4.82629 10.2013 4.97267 10.4092C4.98153 10.4244 4.91736 10.5442 4.96095 10.543C4.9845 10.5129 5.00947 10.4756 5.03321 10.4424C5.32956 10.6158 5.60168 10.8213 5.91407 10.9639C5.92715 10.9698 5.93371 10.8933 5.95899 10.9043C6.10587 10.9679 6.25478 11.0025 6.38868 11.1211C6.40204 11.1327 6.35608 11.2513 6.40821 11.2481C6.41753 11.2474 6.49365 11.2522 6.51954 11.2305C6.52313 11.2272 6.52689 11.1662 6.54981 11.1709C6.68276 11.1991 6.81714 11.2445 6.94434 11.3067C6.96426 11.317 6.9296 11.3744 6.94337 11.3828C7.04868 11.4377 7.17784 11.4096 7.27833 11.4805C7.34599 11.5281 7.30604 11.6339 7.33399 11.7461C7.33813 11.7619 7.38554 11.7694 7.38184 11.8321C7.37253 11.9905 7.33053 12.161 7.32325 12.3301C7.32194 12.3663 7.39575 12.3347 7.34571 12.418C7.34225 12.4236 7.28749 12.4474 7.27149 12.4756C7.26054 12.4954 7.26919 12.5608 7.24806 12.585C7.2269 12.6082 7.21253 12.5531 7.17872 12.5801C7.14469 12.6075 7.14937 12.6819 7.08692 12.6826C6.94061 12.6833 6.75484 12.6301 6.62013 12.5723C6.57844 12.5543 6.60852 12.5201 6.58009 12.5059C6.52469 12.4782 6.46556 12.485 6.41212 12.4532C6.3945 12.4423 6.43272 12.3869 6.41407 12.377C6.31237 12.3231 6.20695 12.3095 6.10255 12.2637C5.59001 12.0378 5.10851 11.7893 4.65626 11.4756C4.50616 11.3719 4.35836 11.2027 4.19532 11.1123C4.17632 11.1023 4.15347 11.1541 4.14747 11.1553C4.05479 11.1717 4.13763 11.096 4.11427 11.0586C4.0167 10.9106 3.8793 10.7906 3.74513 10.7012C3.68803 10.6635 3.66657 10.7907 3.65626 10.6993C3.65615 10.6927 3.70684 10.6605 3.69727 10.6436C3.67538 10.6055 3.60989 10.56 3.58888 10.5342C3.54906 10.4845 3.54141 10.4779 3.49903 10.4366C3.44144 10.3795 3.39397 10.2915 3.32423 10.2393C3.30912 10.2282 3.28299 10.2876 3.25489 10.2735C3.2266 10.2591 3.17557 10.1987 3.16798 10.17C3.16073 10.1415 3.20184 10.1174 3.20704 10.1065C3.24763 10.0164 3.09455 10.0362 3.08399 10.0293C2.90181 9.9091 2.8369 9.72273 2.7129 9.57034C2.61803 9.45395 2.50161 9.34222 2.41895 9.22562C2.32105 9.08688 2.26462 8.95127 2.167 8.81839C2.15686 8.80446 2.10924 8.86081 2.09669 8.84378C1.96303 8.66218 1.84742 8.46672 1.77247 8.25199C1.76493 8.23029 1.83231 8.22276 1.82813 8.19925C1.8231 8.173 1.8188 8.14312 1.81349 8.11234C1.77452 8.05608 1.78218 7.94858 1.81349 7.88773C1.9239 7.80117 2.03842 7.69517 1.88868 7.51956C1.94795 7.4458 2.01835 7.35911 2.11036 7.31937C2.16926 7.29425 2.19637 7.37439 2.20899 7.30472C2.21192 7.28892 2.15236 7.27128 2.16017 7.25003C2.19452 7.16045 2.26883 7.08679 2.29786 6.9932C2.30313 6.97413 2.25758 6.94742 2.25294 6.93753C2.21699 6.85606 2.36195 6.86998 2.38087 6.86234C2.51115 6.80189 2.54287 6.7158 2.61622 6.62406C2.63308 6.60311 2.55783 6.58431 2.5713 6.56253C2.64616 6.45005 2.74046 6.34361 2.84962 6.2637C2.87396 6.24614 2.90299 6.30594 2.917 6.29984C2.9782 6.2714 2.90021 6.18498 2.95802 6.15628C2.97009 6.15018 3.00495 6.19037 3.01075 6.19241C3.09998 6.22425 3.02845 6.12084 3.03028 6.10941C3.0788 5.99743 3.22804 6.03079 3.29005 5.93851C3.2975 5.92722 3.22887 5.90322 3.25294 5.87406C3.41374 5.67882 3.6209 5.50517 3.84278 5.38187C3.8772 5.3626 3.88864 5.41731 3.89454 5.42093C3.98658 5.46713 3.92307 5.35378 3.9297 5.34183C3.98331 5.25109 4.12139 5.27597 4.08009 5.11527C4.44183 4.8953 4.757 4.58623 5.19337 4.51175C5.19878 4.5107 5.21983 4.5707 5.23048 4.56839C5.3589 4.54193 5.29261 4.46642 5.31739 4.32132C5.32406 4.28468 5.44483 4.38713 5.45411 4.39456C5.48921 4.42121 5.50911 4.51431 5.51856 4.51859C5.59418 4.549 5.45782 4.27197 5.53028 4.23929C5.53274 4.23878 5.54639 4.29535 5.5547 4.29788C5.58036 4.30583 5.59013 4.27701 5.61622 4.28714C5.67641 4.31097 5.74785 4.44342 5.77833 4.33695C5.78164 4.3222 5.70467 4.16548 5.77345 4.14749C5.80104 4.1401 5.91598 4.09363 5.95313 4.09281C5.9897 4.092 5.98611 4.15363 5.98927 4.15531C6.10104 4.19573 6.07778 4.23665 6.15528 4.32718C6.23187 4.41807 6.13938 4.17147 6.14845 4.13773C6.15816 4.10462 6.24103 4.14331 6.2627 4.15921C6.28442 4.17511 6.27564 4.21523 6.29298 4.22269C6.40643 4.27122 6.29684 4.0852 6.31642 4.03616C6.36437 3.92052 6.47353 4.0935 6.54395 4.09574C6.56289 4.09599 6.53754 4.05585 6.55274 4.04788C6.61364 4.01693 6.66585 4.06776 6.72755 3.99808C6.73731 3.98668 6.7754 3.85874 6.83106 3.93558C6.83888 3.94672 6.83261 3.99749 6.86231 4.00296C6.9068 4.01106 6.9825 4.00932 7.02442 3.98636C7.05523 3.96917 7.00514 3.89603 7.05079 3.91409C7.07033 3.92273 7.04411 3.97392 7.08106 3.98538C7.11833 3.99656 7.205 3.98213 7.23829 3.97659C7.27042 3.97084 7.24719 3.91598 7.24806 3.90921C7.26165 3.88388 7.32438 3.84715 7.33009 3.84671C7.56096 3.81674 7.78084 3.8692 8.00001 3.87894C8.05858 3.88155 8.11744 3.88054 8.17677 3.87503C8.19854 3.87252 8.18607 3.8086 8.18946 3.80765C8.26617 3.78387 8.20084 3.952 8.25099 4.01077C8.24844 3.88067 8.27897 3.90509 8.33302 3.89359C8.35899 3.88789 8.34799 3.83708 8.35059 3.83206ZM7.17774 11.7608C7.20538 11.6927 7.13892 11.6776 7.14259 11.753C7.14437 11.7561 7.17553 11.7631 7.17774 11.7608ZM13.5781 8.54105C13.6894 8.47896 13.8832 8.54397 13.7832 8.64847C13.7624 8.6699 13.7485 8.54954 13.708 8.56741C13.6345 8.5998 13.7454 8.73059 13.6328 8.73831C13.6122 8.73839 13.5317 8.58168 13.5371 8.57523L13.5781 8.54105ZM13.8301 8.08988C13.8749 8.08695 13.8478 8.0322 13.8301 7.99613V8.08988ZM13.9443 8.03324C13.9377 8.02053 13.9325 8.00719 13.9268 7.99417C13.9325 7.98507 13.9382 7.97582 13.9443 7.96683V8.03324ZM13.791 7.82034C13.8166 7.78041 13.7424 7.75558 13.7109 7.8057C13.6858 7.84645 13.7592 7.87033 13.791 7.82034ZM2.56251 7.76077C2.53321 7.80382 2.56127 7.81683 2.59376 7.8223V7.74124C2.58066 7.74894 2.56627 7.75543 2.56251 7.76077ZM13.002 6.94925C13.0451 6.84428 12.907 6.90455 12.8711 6.98245C12.8356 7.05927 12.9887 6.981 13.002 6.94925ZM5.1377 4.61038C5.13142 4.60656 5.05711 4.64103 5.05763 4.64749C5.07741 4.76953 5.22765 4.70039 5.1377 4.61038ZM6.5713 4.2012C6.5687 4.19851 6.54484 4.20202 6.54981 4.21976C6.56631 4.27809 6.59567 4.25303 6.5713 4.2012ZM8.76856 4.04593C8.74123 4.11401 8.80938 4.12862 8.8047 4.05374C8.80423 4.05066 8.76977 4.04309 8.76856 4.04593Z" fill="#555961"/>
<path d="M14.0361 11.5033C14.0464 11.5235 14.0053 11.4978 14.0234 11.5297C14.0301 11.5399 14.1193 11.6472 14.126 11.6566C14.1648 11.7155 13.9988 11.5528 13.9893 11.5443C13.8859 11.453 13.9856 11.5756 13.9902 11.5863C14.0113 11.6347 13.9772 11.6236 13.9902 11.6596C13.9989 11.6833 14.1059 11.7927 14.0967 11.7953C14.0649 11.8024 13.9103 11.6609 14.0215 11.809C14.0455 11.8409 14.1663 11.9546 14.0596 11.8763C14.0518 11.8706 13.9582 11.798 14.0049 11.8568C14.0109 11.8643 14.046 11.8988 14.0479 11.9027C14.0594 11.9278 14.0275 11.9057 14.0332 11.9262C14.0389 11.9466 14.0492 11.9743 14.0293 11.9711C14.0166 11.9685 13.9467 11.9119 13.9287 11.8988C13.8771 11.8609 13.9431 11.9418 13.8848 11.892C13.8257 11.8415 13.7508 11.7494 13.7041 11.725C13.7927 11.8145 13.8828 11.9072 13.9717 11.9974C13.9438 12.0187 13.8909 12.0147 13.8701 12.0433C13.8697 12.0485 13.9194 12.092 13.918 12.0971C13.9115 12.1182 13.865 12.0965 13.8643 12.1244C13.8642 12.1465 13.9022 12.2094 13.9033 12.2338C13.7946 12.1392 13.8115 12.1901 13.79 12.1937C13.7824 12.1949 13.7552 12.1673 13.7432 12.1615C13.6986 12.1405 13.7933 12.2248 13.8047 12.2426C13.8513 12.317 13.6463 12.114 13.6348 12.1351C13.6341 12.1362 13.733 12.2558 13.7383 12.264C13.7731 12.3174 13.6984 12.2282 13.6846 12.226C13.6593 12.2218 13.6261 12.2032 13.6455 12.2474C13.6518 12.2611 13.7101 12.3361 13.6514 12.2914C13.6436 12.2854 13.6073 12.2488 13.6045 12.2474C13.557 12.2267 13.6686 12.3392 13.6992 12.3851C13.7298 12.4311 13.6401 12.3652 13.6152 12.3451C13.5508 12.2933 13.5952 12.315 13.5898 12.309C13.5262 12.2373 13.529 12.2573 13.5166 12.2582C13.4052 12.1487 13.4021 12.1651 13.5039 12.2601C13.5149 12.2704 13.5106 12.255 13.5166 12.2582C13.6194 12.3726 13.6234 12.3971 13.5107 12.307C13.4579 12.2647 13.4069 12.2043 13.4111 12.2406C13.4133 12.2572 13.4925 12.3306 13.5068 12.3578C13.5393 12.4195 13.4492 12.3677 13.4453 12.3939C13.4439 12.4034 13.4897 12.4391 13.4912 12.4476C13.4926 12.4689 13.4529 12.447 13.459 12.473C13.4623 12.4776 13.5033 12.5148 13.5029 12.5199C13.4845 12.5485 13.4355 12.541 13.4102 12.5648C13.3979 12.5764 13.4009 12.6218 13.3838 12.6293C13.3543 12.6425 13.2646 12.6054 13.2617 12.639C13.2597 12.6608 13.3064 12.7018 13.3311 12.7367C13.3789 12.8042 13.2576 12.7181 13.2393 12.7045C13.2387 12.7019 13.2372 12.6824 13.2109 12.6664C13.1631 12.6246 13.2344 12.6992 13.2393 12.7045C13.2272 12.6961 13.1969 12.7068 13.2012 12.7191C13.2039 12.7262 13.2466 12.7662 13.2471 12.7689C13.2567 12.8329 13.24 12.8708 13.1934 12.8793C13.192 12.8789 13.1468 12.8325 13.1436 12.8314C13.1069 12.8269 13.1534 12.8939 13.1738 12.9408C13.1942 12.9876 13.1721 12.9869 13.085 12.9154C13.0846 12.935 13.0353 12.9138 13.0059 12.9008C12.9772 12.8883 13.0635 12.9774 13.0664 12.9818C13.1008 13.0613 13.0365 13.0233 13.0049 13.0385C12.9898 13.0456 12.9807 13.081 12.9785 13.1029C12.9769 13.1204 12.9494 13.1051 12.9541 13.1273C12.9547 13.1303 12.9969 13.1694 12.998 13.1713C13.0358 13.2285 12.9425 13.1263 12.9229 13.1107C12.8518 13.0543 12.8136 13.0252 12.8311 13.0678C12.8383 13.081 12.9678 13.2272 12.9707 13.2406C12.974 13.2575 12.9259 13.2051 12.9307 13.224C12.9311 13.2256 12.9629 13.2571 12.957 13.2601C12.9304 13.2747 12.8894 13.2786 12.8711 13.3031C12.8688 13.3066 12.9219 13.3523 12.9189 13.3578C12.905 13.3835 12.8814 13.4037 12.8389 13.3998C12.828 13.398 12.7964 13.3611 12.7852 13.3519C12.7165 13.296 12.7986 13.3956 12.7988 13.3988C12.8065 13.4771 12.6982 13.4225 12.7012 13.4974C12.7019 13.5022 12.7828 13.6134 12.6934 13.5375C12.6874 13.5324 12.5951 13.4538 12.6475 13.5179C12.6507 13.5219 12.6981 13.5614 12.6875 13.5648C12.6758 13.5676 12.6929 13.6079 12.6348 13.5697C12.6161 13.5574 12.5238 13.481 12.582 13.558C12.5876 13.5651 12.7245 13.7301 12.6143 13.6303C12.596 13.6137 12.4851 13.5011 12.5312 13.5697C12.5404 13.583 12.5692 13.6043 12.5791 13.6254C12.5939 13.6575 12.5529 13.6395 12.5918 13.6996C12.5988 13.7103 12.6665 13.7939 12.6025 13.7426C12.592 13.7338 12.5572 13.6955 12.5498 13.6947C12.5141 13.6907 12.5221 13.7324 12.4805 13.723C12.4657 13.7197 12.4079 13.6561 12.3857 13.6459C12.3636 13.6357 12.3361 13.6326 12.3574 13.6664C12.3791 13.7003 12.4809 13.7883 12.4805 13.806C12.4732 13.8802 12.3761 13.8645 12.3271 13.8969C12.3201 13.9017 12.3595 13.9312 12.3516 13.9408C12.3214 13.9761 12.2967 14.0644 12.1953 14.0199C12.1141 13.9841 12.0977 13.9114 12.0566 13.9047C12.0372 13.9017 12.136 14.0187 12.1406 14.0277C12.1565 14.0831 12.0939 14.048 12.0908 14.0804C12.0903 14.0873 12.1396 14.1298 12.1387 14.1351C12.1355 14.1532 12.1041 14.1447 12.0977 14.1586C12.096 14.1657 12.1298 14.1981 12.123 14.1996C12.107 14.2036 12.0832 14.1987 12.041 14.1762C12.0366 14.1732 12.0002 14.1244 11.9912 14.1303C11.9765 14.1397 11.9301 14.1234 11.9492 14.1703C11.9559 14.1851 12.0329 14.2629 11.9707 14.2181C11.9574 14.2086 11.8647 14.111 11.9365 14.2035C11.9497 14.2206 12.0409 14.3457 11.9619 14.2836C11.9409 14.2671 11.8573 14.1954 11.8643 14.2123C11.8655 14.2149 11.911 14.2547 11.9111 14.2631C11.9105 14.2914 11.8903 14.3022 11.8887 14.3304C11.8887 14.3382 11.9384 14.3762 11.9365 14.3861C11.9313 14.4134 11.8998 14.423 11.8701 14.4252C11.8591 14.4259 11.8267 14.3848 11.8223 14.3812C11.751 14.3237 11.8341 14.4149 11.8369 14.4222C11.853 14.4665 11.8016 14.4372 11.7988 14.4603C11.7981 14.4666 11.8395 14.5039 11.8447 14.5101C11.8456 14.5114 11.847 14.513 11.8477 14.514C11.492 14.7206 11.0259 14.8697 10.8193 14.514C10.7839 14.5365 10.8589 14.4709 10.8623 14.4584C10.8723 14.422 10.8546 14.4108 10.8359 14.4027C10.8289 14.4003 10.7883 14.4513 10.7812 14.4506C10.7469 14.4328 10.7236 14.4008 10.7246 14.349C10.7249 14.3392 10.7646 14.305 10.7725 14.2953C10.8243 14.2298 10.7361 14.2985 10.7246 14.3051C10.6789 14.3296 10.7069 14.2926 10.6914 14.2894C10.6157 14.2741 10.5813 14.1963 10.5518 14.14C10.5131 14.0668 10.5049 13.988 10.4424 13.9437C10.4386 13.941 10.395 13.9901 10.3887 13.9916C10.339 13.9657 10.3206 13.9098 10.2686 13.8861C10.2644 13.8841 10.2225 13.935 10.2139 13.934C10.1966 13.9309 10.186 13.9151 10.1904 13.89C10.1926 13.8778 10.2399 13.8439 10.2412 13.8324C10.2444 13.8056 10.2344 13.7892 10.2148 13.7846C10.2057 13.7842 10.1664 13.8385 10.1592 13.8324C10.1088 13.7915 10.0557 13.7547 10.0713 13.6469C10.0724 13.6394 10.1667 13.5395 10.1416 13.5512C10.1142 13.5776 10.0827 13.6095 10.0537 13.6381C9.97155 13.587 9.93856 13.4874 9.87695 13.4154C9.87225 13.4154 9.82744 13.4687 9.82227 13.4633C9.79146 13.431 9.74675 13.4139 9.76562 13.3304C9.7689 13.321 9.85917 13.234 9.83691 13.2377C9.83277 13.2385 9.80647 13.2366 9.7832 13.2523C9.77979 13.2548 9.74107 13.2982 9.73438 13.2963C9.70133 13.2761 9.68239 13.2383 9.68164 13.1859C9.68304 13.1767 9.72927 13.1387 9.73145 13.1312C9.73367 13.0857 9.6763 13.0959 9.69629 13.0346C9.70995 12.9932 9.79306 12.9203 9.8623 12.8363C9.87207 12.8245 9.86505 12.8139 9.90918 12.7689C10.02 12.6558 10.147 12.5375 10.2646 12.4164C10.29 12.3903 10.2513 12.4063 10.3203 12.351C10.3252 12.3472 10.3539 12.3347 10.377 12.3158C10.393 12.3026 10.4355 12.2544 10.457 12.2387C10.4785 12.223 10.4441 12.2644 10.4707 12.2474C10.4977 12.2301 10.5477 12.1765 10.5635 12.1801C10.5993 12.1889 10.6141 12.2325 10.6162 12.2748C10.6169 12.2881 10.5848 12.3132 10.584 12.3236C10.5826 12.3439 10.6052 12.3394 10.6016 12.3617C10.5987 12.3702 10.5523 12.4095 10.5518 12.4164C10.5499 12.4538 10.5773 12.4594 10.5859 12.4867C10.628 12.6221 10.699 12.7262 10.7686 12.8363C10.7914 12.8726 10.7868 12.9494 10.835 12.9623C10.8406 12.9638 10.8779 12.9219 10.8818 12.9193C10.9414 12.881 10.859 12.9566 10.8555 12.974C10.8419 13.0425 10.8688 13.0767 10.9102 13.0883C10.928 13.093 10.9946 13.0047 10.9629 13.059C10.9608 13.0626 10.9179 13.1003 10.915 13.1088C10.9121 13.1258 10.9324 13.1323 10.9346 13.141C10.9385 13.1578 10.9409 13.1591 10.9502 13.1693C10.9628 13.1839 10.9584 13.2208 10.9824 13.226C10.9879 13.2265 11.0258 13.1806 11.0381 13.1781C11.0503 13.1758 11.0603 13.1929 11.0547 13.2074C11.049 13.2217 11.0144 13.2521 11.0068 13.2611C10.9486 13.3323 11.0534 13.2584 11.0576 13.2582C11.1304 13.2564 11.1103 13.3371 11.1436 13.3705C11.1692 13.3957 11.2135 13.4065 11.2354 13.433C11.2609 13.4646 11.2625 13.5115 11.2939 13.5355C11.2973 13.5381 11.3445 13.4846 11.3486 13.4877C11.368 13.502 11.3839 13.5194 11.3975 13.5394C11.4218 13.5365 11.4893 13.5811 11.4941 13.556C11.4947 13.5521 11.4434 13.5109 11.4473 13.5023C11.477 13.4469 11.5349 13.4145 11.6143 13.4096C11.6266 13.4089 11.6564 13.4486 11.6611 13.4525C11.7352 13.5131 11.6497 13.418 11.6484 13.4125C11.6411 13.3714 11.7316 13.4307 11.6357 13.3119C11.7445 13.2778 11.7557 13.1468 11.9229 13.1722C11.9258 13.1736 11.9679 13.2179 11.9717 13.2181C12.0179 13.2213 11.9451 13.1566 11.875 13.058C11.8575 13.0333 11.9701 13.1247 11.9785 13.1312C12.0093 13.1551 12.0704 13.2233 12.0781 13.2289C12.1297 13.2609 11.9112 13.0452 11.9229 13.0306C11.9236 13.0306 11.9627 13.0727 11.9678 13.0756C11.9834 13.0844 11.9711 13.0651 11.9883 13.0756C12.028 13.0999 12.1365 13.2033 12.0869 13.1303C12.0804 13.1207 11.9542 12.9987 11.9717 12.9926C11.9788 12.9903 11.9978 12.9679 12.0117 12.9701C12.0257 12.9729 12.061 13.0152 12.0635 13.017C12.132 13.0541 12.1483 13.0824 12.2344 13.1527C12.3193 13.2219 12.1323 13.0394 12.1143 13.015C12.0968 12.9911 12.1519 13.0232 12.1699 13.0355C12.1878 13.0478 12.2096 13.0761 12.2207 13.0824C12.2934 13.1218 12.1363 12.9826 12.1123 12.9476C12.0556 12.865 12.2032 12.9929 12.2285 12.9945C12.2342 12.9942 12.2012 12.9661 12.2012 12.9603C12.2016 12.9383 12.2507 12.9739 12.2246 12.9222C12.2203 12.9137 12.1474 12.8205 12.2148 12.8744C12.2246 12.8822 12.257 12.9194 12.2695 12.9222C12.2881 12.9264 12.3082 12.9206 12.3047 12.9017C12.3019 12.8875 12.2389 12.8376 12.2637 12.848C12.2749 12.8533 12.3015 12.8918 12.3193 12.8978C12.3373 12.9038 12.3518 12.8862 12.3564 12.8793C12.3592 12.8713 12.3155 12.8332 12.3125 12.8295C12.2994 12.811 12.29 12.7813 12.29 12.7777C12.3344 12.7229 12.4518 12.7488 12.4766 12.6771C12.4785 12.6716 12.4321 12.6298 12.4307 12.6273C12.4247 12.5954 12.5356 12.726 12.585 12.7572C12.4921 12.667 12.5135 12.6775 12.5127 12.6586C12.5122 12.6492 12.4739 12.6157 12.4707 12.6117C12.4236 12.5516 12.4966 12.6156 12.5127 12.6293C12.5696 12.6775 12.5127 12.6108 12.5508 12.6429C12.5886 12.6749 12.6335 12.7334 12.6416 12.724C12.6112 12.6887 12.518 12.6089 12.5107 12.5883C12.4839 12.5111 12.5976 12.531 12.625 12.5179C12.6522 12.5048 12.6531 12.4924 12.6768 12.4926C12.7189 12.4926 12.6478 12.4362 12.6318 12.3939C12.6168 12.3528 12.7662 12.5155 12.8018 12.5472C12.837 12.5788 12.8053 12.5427 12.8252 12.558C12.846 12.5742 12.8646 12.6024 12.877 12.6039C12.8887 12.6046 12.8437 12.5305 12.8105 12.4935C12.7399 12.4148 12.6553 12.3427 12.6973 12.3558C12.7006 12.3578 12.7374 12.4 12.7451 12.4017C12.8021 12.4083 12.8305 12.3842 12.8838 12.3871C12.8914 12.388 12.9333 12.4365 12.9385 12.4379C12.9888 12.4462 12.9045 12.376 12.8301 12.2787C12.9416 12.3953 13.0175 12.4587 13.0342 12.4437C13.0442 12.4346 12.9929 12.3865 12.9639 12.3451C12.9551 12.3326 12.9959 12.3601 12.9736 12.3353C12.9009 12.2545 12.8087 12.1749 12.8594 12.1928C12.8619 12.194 12.9 12.236 12.9062 12.2377C12.9389 12.2383 12.8608 12.1566 12.8682 12.1293C12.8742 12.108 12.9482 12.1329 12.9717 12.1254C13.0995 12.2538 13.0845 12.2101 13.002 12.1156C13.0157 12.1092 13.022 12.0926 13.0439 12.0951C13.052 12.0969 13.0863 12.1354 13.0908 12.139C13.1598 12.1952 13.0797 12.1069 13.0771 12.1C13.0678 12.0436 13.1525 12.0894 13.1113 12.0033C13.1098 12.0002 13.0215 11.9099 13.0928 11.9691C13.0987 11.9748 13.1311 12.0204 13.1445 12.0131C13.1588 12.0061 13.2258 12.0337 13.1992 11.9779C13.1928 11.9644 13.1295 11.8826 13.1934 11.932C13.202 11.9387 13.2265 11.966 13.2422 11.9789C13.2916 12.0194 13.2043 11.9271 13.2861 11.9984C13.3681 12.0698 13.4365 12.1159 13.3984 12.0482C13.3957 12.0444 13.3323 11.9744 13.335 11.9681C13.3442 11.9626 13.3695 11.9664 13.377 11.9584C13.3804 11.9544 13.3342 11.912 13.334 11.9105C13.3343 11.861 13.3917 11.883 13.4355 11.8734C13.4423 11.87 13.3974 11.7974 13.4541 11.8353C13.5169 11.8773 13.7236 12.1057 13.6963 12.0306C13.6852 12.0002 13.4212 11.7103 13.582 11.8363C13.5806 11.7676 13.6849 11.8094 13.668 11.725C13.6671 11.7212 13.598 11.6435 13.5986 11.6371C13.6057 11.6335 13.6452 11.6668 13.6514 11.6654C13.6779 11.6603 13.6616 11.6144 13.6816 11.6039C13.6893 11.6 13.7244 11.639 13.7334 11.6342C13.7422 11.6292 13.6983 11.5759 13.7314 11.5902C13.7571 11.6018 13.8631 11.6937 13.8848 11.6967C13.7862 11.5974 13.7949 11.5927 13.7803 11.5551C13.7771 11.5477 13.7417 11.5173 13.7373 11.5111C13.7238 11.4891 13.7565 11.513 13.7412 11.4896C13.7375 11.4839 13.7031 11.4502 13.6982 11.4437C13.6557 11.3876 13.7421 11.4515 13.7578 11.4633C13.8156 11.5062 13.7753 11.4589 13.8008 11.473C13.8262 11.4872 13.8427 11.5204 13.8613 11.5258C13.8998 11.5368 13.9123 11.5137 13.9277 11.5013C13.9322 11.4954 13.8851 11.4561 13.8838 11.4535C13.8838 11.4305 13.9438 11.4667 13.8604 11.3705C14.1009 11.5951 13.8452 11.3403 13.9082 11.3705C13.915 11.3747 14.025 11.4823 14.0361 11.5033ZM11.4238 13.6078C11.4384 13.6178 11.4321 13.6098 11.4219 13.5961C11.4228 13.5999 11.4231 13.6038 11.4238 13.6078ZM11.9502 13.2318C11.9454 13.2277 11.927 13.238 11.9307 13.2426C12.0054 13.3319 12.0426 13.3118 11.9502 13.2318ZM12.3057 13.0717C12.303 13.0698 12.2976 13.0726 12.3105 13.0853C12.3537 13.1279 12.3474 13.1094 12.3057 13.0717ZM9.91406 12.8402C9.86051 12.8872 9.86851 12.9036 9.91797 12.849C9.91996 12.8468 9.91631 12.8384 9.91406 12.8402ZM12.6699 12.6615C12.7169 12.7151 12.7337 12.7064 12.6787 12.6566C12.6765 12.6547 12.668 12.6593 12.6699 12.6615ZM13.7715 11.8949C13.6916 11.8349 13.7876 11.9446 13.8486 11.9916C13.9096 12.0385 13.7958 11.9131 13.7715 11.8949ZM13.8711 11.5814C13.8373 11.555 13.862 11.6009 13.9043 11.6342C13.938 11.6605 13.9134 11.6147 13.8711 11.5814ZM13.8564 11.2445C13.8655 11.2438 13.9046 11.3153 13.9277 11.3256C13.97 11.3442 13.8616 11.22 13.9355 11.2699C13.9487 11.2789 14.0392 11.3964 14.043 11.4047C14.0087 11.422 13.8074 11.2516 13.8564 11.2445Z" fill="#555961"/>
</svg>
