<svg width="16" height="16" viewBox="0 0 16 16" fill="none" xmlns="http://www.w3.org/2000/svg">
<path d="M9.78254 2.00391C9.78842 2.00467 9.81813 2.01723 9.84797 2.02051C9.86863 2.02278 9.9329 2.01879 9.9593 2.02344C9.98518 2.02808 9.93226 2.03333 9.9632 2.04102C9.99468 2.04854 10.0663 2.04551 10.0755 2.06055C10.095 2.0963 10.0739 2.14309 10.0452 2.17871C10.0364 2.18976 9.99792 2.18495 9.98957 2.19238C9.97414 2.20743 9.99319 2.22146 9.97492 2.23633C9.96871 2.2412 9.90738 2.23544 9.9007 2.24024C9.87287 2.2686 9.88869 2.29549 9.87531 2.32422C9.80927 2.46572 9.78584 2.60481 9.75715 2.74805C9.74775 2.79526 9.69024 2.8526 9.71516 2.90137C9.71809 2.90698 9.77174 2.90433 9.77766 2.90528C9.8474 2.92227 9.73584 2.91664 9.72102 2.92774C9.66291 2.97166 9.65781 3.02024 9.67902 3.0625C9.68825 3.08052 9.79794 3.06297 9.73664 3.08106C9.73252 3.08231 9.67446 3.07731 9.6673 3.08203C9.65322 3.09325 9.66414 3.11533 9.65949 3.12403C9.65031 3.14065 9.65039 3.14338 9.64973 3.15918C9.64813 3.18073 9.61917 3.20639 9.63215 3.22949C9.63515 3.23444 9.69492 3.22852 9.70539 3.23633C9.71561 3.24424 9.71077 3.26442 9.6966 3.27149C9.68241 3.27855 9.63518 3.2761 9.62434 3.27735C9.53516 3.2874 9.65399 3.31048 9.66242 3.31446C9.71579 3.37126 9.64374 3.42032 9.64387 3.47363C9.64417 3.514 9.66842 3.55726 9.66535 3.59571C9.66122 3.64162 9.6285 3.68098 9.6341 3.72559C9.63576 3.73009 9.70559 3.72477 9.70637 3.73047C9.71459 3.79154 9.70626 3.85228 9.65852 3.91309C9.65275 3.91884 9.5926 3.91123 9.58332 3.91699C9.53227 3.95431 9.40955 4.01397 9.68 4.03613C9.66947 4.06137 9.65818 4.09172 9.60383 4.11426C9.56871 4.12877 9.50174 4.11492 9.53059 4.13281C9.53868 4.13647 9.59582 4.13175 9.6009 4.1377C9.62255 4.16316 9.6037 4.19063 9.6341 4.21582C9.64047 4.22095 9.69387 4.22023 9.70344 4.22168C9.78004 4.23391 9.65218 4.25436 9.64289 4.25879C9.57404 4.29246 9.60161 4.31724 9.59992 4.34863C9.60303 4.35479 9.66705 4.34755 9.67219 4.35352C9.68241 4.38995 9.67649 4.4282 9.64484 4.46387C9.63743 4.47156 9.57866 4.46438 9.57062 4.46778C9.54246 4.4845 9.65694 4.48885 9.63215 4.50488C9.62648 4.50812 9.57637 4.50629 9.56965 4.50684C9.47998 4.51649 9.60688 4.52486 9.60969 4.52735C9.6478 4.55872 9.51572 4.57906 9.53449 4.60938C9.54049 4.61221 9.60222 4.60535 9.6048 4.61524C9.6093 4.6322 9.61163 4.64967 9.61164 4.66699C9.61161 4.69702 9.59505 4.72784 9.56477 4.76953C9.55858 4.77824 9.50955 4.7853 9.50324 4.78711C9.4129 4.81857 9.53818 4.79255 9.54328 4.79297C9.5804 4.79981 9.48723 4.85517 9.63312 4.81153C9.61595 4.88145 9.68488 4.9042 9.68879 4.97852C9.69046 4.99767 9.68897 5.02156 9.68488 5.05274C9.68249 5.05711 9.64381 5.10183 9.64387 5.10547C9.64502 5.15142 9.70194 5.07132 9.78156 4.98145C9.79962 4.95953 9.73 5.08421 9.7259 5.09473C9.70875 5.12999 9.65438 5.20664 9.65168 5.21387C9.63435 5.27152 9.79426 5.00818 9.80402 5.01367C9.80213 5.01758 9.77447 5.06306 9.77277 5.06836C9.76764 5.08535 9.78164 5.06798 9.7757 5.08692C9.76121 5.13099 9.69907 5.26661 9.75227 5.19531C9.7598 5.18332 9.82856 5.03243 9.83723 5.03809C9.84002 5.04318 9.85953 5.0483 9.86164 5.06055C9.86345 5.0731 9.84193 5.12482 9.84113 5.12793C9.83555 5.20484 9.81938 5.23229 9.79914 5.3418C9.78173 5.45122 9.85015 5.19716 9.86164 5.16992C9.87277 5.14333 9.87184 5.20674 9.87141 5.22852C9.8704 5.25032 9.85769 5.28428 9.85871 5.29688C9.86806 5.37856 9.8958 5.1721 9.91047 5.13184C9.94105 5.03723 9.92008 5.23044 9.93684 5.25196C9.94078 5.25756 9.94245 5.21274 9.9466 5.20899C9.96171 5.19579 9.96799 5.25551 9.98664 5.20117C9.98849 5.19572 9.99518 5.15043 10.0003 5.13477C10.0052 5.1247 10.0098 5.12733 10.014 5.16113C10.0154 5.17391 10.0115 5.22109 10.0189 5.23242C10.0304 5.24876 10.0514 5.25941 10.0638 5.24317C10.0726 5.23069 10.0624 5.15241 10.0736 5.17578C10.0787 5.18689 10.0698 5.23402 10.0794 5.25098C10.089 5.26785 10.1131 5.26627 10.1224 5.26465C10.1314 5.26298 10.1268 5.20475 10.1273 5.19824C10.1315 5.17618 10.1475 5.14855 10.1507 5.14551C10.2299 5.1381 10.3031 5.23962 10.3802 5.20606C10.3861 5.20353 10.3824 5.14196 10.3831 5.13867C10.4038 5.11186 10.3882 5.28179 10.4027 5.33887C10.4006 5.2101 10.4088 5.23233 10.4232 5.21875C10.4301 5.21191 10.4266 5.16292 10.4271 5.15625C10.4375 5.08007 10.4447 5.17763 10.4466 5.19824C10.4535 5.27243 10.4614 5.18513 10.4661 5.23438C10.4708 5.28366 10.4599 5.35738 10.4739 5.35645C10.4779 5.30993 10.4672 5.18767 10.4779 5.16797C10.518 5.09364 10.5931 5.18932 10.6253 5.19922C10.6574 5.20906 10.6681 5.20003 10.6868 5.2168C10.7206 5.24713 10.708 5.15761 10.7288 5.11621C10.7499 5.07494 10.7395 5.29703 10.7425 5.34473C10.7455 5.39182 10.7495 5.34299 10.7532 5.36914C10.7569 5.39522 10.7487 5.42749 10.7571 5.4375C10.7658 5.44733 10.7902 5.36238 10.7933 5.3125C10.7997 5.20707 10.789 5.09634 10.8118 5.13477C10.8132 5.13708 10.8087 5.19625 10.8138 5.20215C10.8539 5.24678 10.8958 5.24943 10.9359 5.28906C10.9413 5.29457 10.9367 5.3582 10.9398 5.36328C10.9732 5.4048 10.9615 5.29541 10.9798 5.17383C10.9757 5.33563 10.9857 5.43459 11.0111 5.43555C11.0261 5.43556 11.0238 5.36597 11.0335 5.31641C11.0365 5.30142 11.0472 5.34932 11.0491 5.31641C11.0556 5.20777 11.0454 5.08634 11.0716 5.13477C11.0725 5.14012 11.0688 5.1965 11.0726 5.2002C11.0982 5.22374 11.1016 5.10971 11.1292 5.09571C11.1509 5.08495 11.1894 5.15436 11.2142 5.16602C11.2137 5.34756 11.2379 5.30597 11.2474 5.18067C11.2633 5.18557 11.2808 5.17909 11.2962 5.19629C11.3011 5.20349 11.2977 5.2523 11.2982 5.25977C11.3085 5.34904 11.3162 5.22744 11.3196 5.22266C11.3571 5.17672 11.3874 5.26823 11.4232 5.17871C11.4244 5.17546 11.4263 5.04899 11.4359 5.14063C11.4365 5.14696 11.4252 5.2041 11.4417 5.20899C11.4586 5.21344 11.4906 5.28121 11.514 5.22266C11.5197 5.20795 11.5338 5.10668 11.5452 5.18653C11.5467 5.19759 11.545 5.23384 11.5472 5.25391C11.5543 5.31761 11.5583 5.19046 11.5667 5.29883C11.5751 5.40726 11.5929 5.48792 11.6165 5.41309C11.6175 5.40549 11.6231 5.31157 11.6302 5.31153C11.642 5.31415 11.6588 5.33533 11.6712 5.33496C11.677 5.33462 11.6733 5.27404 11.6741 5.27051C11.714 5.23533 11.7428 5.29106 11.7855 5.31543C11.7933 5.32001 11.8162 5.23471 11.8314 5.30176C11.848 5.37593 11.8302 5.68472 11.8685 5.61133C11.8839 5.58192 11.9042 5.19071 11.932 5.39356C11.9857 5.34359 12.0353 5.44671 12.0892 5.375C12.0917 5.3688 12.0992 5.26319 12.1048 5.26465C12.1132 5.26744 12.1183 5.31794 12.1243 5.32129C12.1494 5.33603 12.1724 5.29337 12.1966 5.29981C12.2059 5.30228 12.2031 5.35447 12.2142 5.35742C12.2252 5.35991 12.2324 5.29171 12.2474 5.3252C12.2586 5.35177 12.2705 5.4923 12.2855 5.50879C12.2861 5.36931 12.2956 5.37157 12.3138 5.33496C12.3173 5.32778 12.3141 5.27838 12.3157 5.27246C12.3225 5.24811 12.3289 5.28798 12.3353 5.26074C12.3368 5.254 12.3369 5.2063 12.3382 5.19824C12.3491 5.12797 12.3673 5.23466 12.3704 5.25391C12.3822 5.32512 12.3877 5.26297 12.3968 5.29102C12.4058 5.31904 12.3921 5.35407 12.4027 5.3711C12.4246 5.40629 12.4527 5.39917 12.4749 5.40137C12.4835 5.40096 12.4776 5.33733 12.4788 5.33594C12.4971 5.32024 12.5156 5.38758 12.5257 5.26074C12.5384 5.58978 12.5366 5.22904 12.5628 5.29492C12.5649 5.30296 12.5677 5.45588 12.5599 5.47852C12.552 5.50123 12.5396 5.45269 12.5286 5.48828C12.5259 5.49762 12.5111 5.64257 12.5091 5.65137C12.4932 5.72008 12.4914 5.48738 12.4905 5.47461C12.481 5.33764 12.4622 5.49351 12.4573 5.50488C12.4354 5.55461 12.4171 5.52221 12.3987 5.55762C12.3868 5.58036 12.3855 5.73026 12.3763 5.72852C12.3449 5.7131 12.3336 5.50037 12.304 5.68457C12.2977 5.72385 12.3042 5.89025 12.2816 5.75977C12.2801 5.75152 12.263 5.63169 12.2532 5.70703C12.252 5.71659 12.2519 5.76546 12.2503 5.76953C12.2396 5.79541 12.2327 5.75766 12.221 5.77539C12.2092 5.7939 12.1944 5.82205 12.181 5.80567C12.1729 5.79582 12.1624 5.70476 12.1585 5.68262C12.1476 5.61958 12.136 5.72357 12.1292 5.64649C12.1224 5.56887 12.1364 5.45054 12.1185 5.40039C12.1178 5.52649 12.1156 5.6564 12.1146 5.78321C12.0754 5.77867 12.0367 5.73777 11.9974 5.74317C11.9926 5.74396 11.9971 5.80879 11.9925 5.81446C11.9704 5.82522 11.951 5.77765 11.928 5.79688C11.9103 5.81203 11.89 5.88329 11.8714 5.90137C11.8601 5.75722 11.8328 5.80615 11.8128 5.79297C11.8058 5.78831 11.8061 5.74986 11.8011 5.73731C11.7825 5.69139 11.7913 5.8163 11.7864 5.83789C11.7643 5.92353 11.7618 5.63545 11.7357 5.64258C11.7338 5.64792 11.7174 5.79723 11.7152 5.80664C11.7005 5.8681 11.7127 5.75255 11.7034 5.74121C11.6867 5.72047 11.6752 5.68426 11.6556 5.72852C11.6498 5.74186 11.6356 5.83784 11.6243 5.76367C11.6229 5.75336 11.6236 5.70315 11.6224 5.7002C11.601 5.65132 11.6004 5.80986 11.5882 5.86426C11.5759 5.91836 11.5569 5.80816 11.553 5.77637C11.543 5.69451 11.5603 5.74146 11.5609 5.7334C11.5673 5.63739 11.5539 5.65362 11.5433 5.64551C11.5417 5.48931 11.5272 5.49864 11.5325 5.6377C11.5331 5.65273 11.541 5.63899 11.5433 5.64551C11.534 5.79916 11.5173 5.81925 11.4993 5.67578C11.4909 5.60853 11.4994 5.53013 11.4739 5.5586C11.4623 5.57156 11.4666 5.67958 11.4564 5.70899C11.433 5.77566 11.4023 5.67557 11.3782 5.69141C11.37 5.6982 11.378 5.75508 11.3724 5.76172C11.3566 5.77767 11.3423 5.73385 11.3265 5.75586C11.325 5.75799 11.3285 5.8205 11.3236 5.82129C11.286 5.82843 11.2533 5.78832 11.2142 5.78711C11.1954 5.78661 11.1616 5.82066 11.1419 5.81446C11.1079 5.80295 11.0655 5.71273 11.0364 5.73438C11.0175 5.74834 11.0221 5.81042 11.014 5.85254C10.9984 5.93388 10.97 5.78912 10.9661 5.76563C10.966 5.76488 10.9827 5.74951 10.9739 5.71778C10.9689 5.65266 10.9663 5.76534 10.9661 5.76563C10.9637 5.75116 10.9321 5.73695 10.9251 5.74805C10.9217 5.75441 10.9229 5.8115 10.9212 5.81543C10.8777 5.8678 10.8345 5.88276 10.7904 5.85547C10.7897 5.852 10.7902 5.78904 10.7884 5.78711C10.7628 5.75814 10.747 5.83819 10.7259 5.88574C10.7048 5.93331 10.6876 5.91716 10.6751 5.80469C10.6592 5.81877 10.6365 5.76944 10.6234 5.73926C10.6102 5.70909 10.6079 5.83635 10.6068 5.83887C10.5707 5.9193 10.5503 5.84643 10.513 5.83496C10.4952 5.82935 10.46 5.84837 10.4407 5.86231C10.4255 5.87354 10.4157 5.8432 10.4017 5.86231C10.3998 5.86484 10.4021 5.91922 10.4017 5.92383C10.386 5.99177 10.3932 5.85292 10.39 5.82813C10.3783 5.73821 10.3709 5.69023 10.3509 5.73242C10.3463 5.74214 10.333 5.94241 10.3245 5.9541C10.3137 5.96836 10.3173 5.89732 10.306 5.91406C10.305 5.91548 10.3052 5.95996 10.2982 5.95801C10.2654 5.9495 10.2297 5.92437 10.1956 5.92871C10.191 5.92915 10.1965 5.99919 10.1898 6.00098C10.1582 6.00918 10.1238 6.00621 10.0931 5.97363C10.0855 5.96534 10.0898 5.91594 10.0882 5.90137C10.0781 5.81372 10.0642 5.9419 10.0618 5.94434C10.04 5.96813 10.0198 5.96519 10.0003 5.95606C9.94036 5.94136 9.88821 5.90792 9.81769 5.93164C9.8129 5.93445 9.73907 6.06158 9.74055 5.94141C9.74013 5.93169 9.74695 5.81302 9.71223 5.8877C9.70983 5.89241 9.70762 5.95681 9.68684 5.94531C9.66668 5.9343 9.61872 5.963 9.60969 5.88867C9.60609 5.8648 9.62568 5.74532 9.56769 5.8252C9.56568 5.8318 9.44045 6.01591 9.48273 5.8711C9.48992 5.84712 9.55564 5.70402 9.49348 5.76465C9.48111 5.77625 9.47648 5.81356 9.45148 5.82617C9.41251 5.84462 9.4007 5.79139 9.33723 5.83594C9.32655 5.84427 9.24869 5.9233 9.27277 5.84278C9.27676 5.83022 9.30982 5.78793 9.30402 5.77735C9.27754 5.72741 9.21423 5.72599 9.19758 5.66602C9.19204 5.645 9.25237 5.58389 9.25422 5.55567C9.25582 5.52742 9.2472 5.49051 9.20832 5.50684C9.1686 5.52292 9.08886 5.63603 9.05988 5.62305C9.05622 5.62137 9.05265 5.61906 9.04914 5.61719C8.92988 5.55249 8.91075 5.40111 8.86359 5.29102C8.85578 5.27475 8.82098 5.31081 8.80695 5.28613C8.75342 5.19874 8.64849 5.02895 8.73469 4.91992C8.8035 4.83784 8.88084 4.90737 8.90559 4.85449C8.91765 4.83146 8.76209 4.82751 8.75227 4.82129C8.69491 4.76668 8.76182 4.71898 8.74055 4.66699C8.73608 4.66112 8.67235 4.66613 8.66926 4.66113C8.65831 4.64412 8.68606 4.62662 8.68098 4.61035C8.67851 4.60311 8.63045 4.60416 8.63312 4.59766C8.6416 4.58156 8.6625 4.56745 8.70832 4.55176C8.71249 4.55033 8.77306 4.5596 8.7757 4.54785C8.7792 4.52856 8.82443 4.50462 8.77766 4.48242C8.76347 4.47585 8.65187 4.47506 8.72883 4.46094C8.74498 4.45797 8.87916 4.46181 8.76301 4.44531C8.74168 4.44216 8.58862 4.41486 8.68879 4.40137C8.71584 4.39776 8.82452 4.38874 8.80793 4.38086C8.80517 4.37979 8.74449 4.38449 8.73859 4.37793C8.71906 4.35491 8.72586 4.3303 8.70734 4.30664C8.70219 4.3003 8.63979 4.30927 8.6341 4.29981C8.61846 4.27381 8.63418 4.24123 8.65363 4.21582C8.66158 4.20677 8.71252 4.21357 8.71809 4.21289C8.80874 4.20198 8.68728 4.19506 8.67902 4.19141C8.63603 4.16876 8.69335 4.15174 8.67805 4.13086C8.67374 4.12526 8.61738 4.12891 8.61066 4.12793C8.55969 4.11608 8.66386 4.12458 8.67609 4.11719C8.70887 4.09618 8.70405 4.07302 8.6966 4.05176C8.69376 4.04393 8.6261 4.05196 8.62434 4.04492C8.61274 4.00344 8.61921 3.9604 8.65656 3.91992C8.66369 3.91235 8.71527 3.91651 8.72785 3.91504C8.81148 3.90408 8.69806 3.88851 8.68684 3.88477C8.63759 3.86808 8.68269 3.86127 8.67512 3.84668C8.63204 3.77403 8.662 3.68382 8.68098 3.61524C8.70539 3.52585 8.75545 3.45633 8.7425 3.3711C8.73907 3.36643 8.67742 3.37087 8.67121 3.36719C8.6544 3.30691 8.68157 3.24693 8.66144 3.18653C8.65992 3.18158 8.59425 3.1885 8.58918 3.18067C8.57912 3.16434 8.58272 3.14346 8.60383 3.12696C8.61517 3.11966 8.66946 3.12971 8.67902 3.12207C8.70029 3.10321 8.70525 3.08286 8.69465 3.06348C8.68959 3.0554 8.62218 3.06733 8.62141 3.05664C8.6147 2.98384 8.6036 2.91244 8.69074 2.83887C8.69676 2.83381 8.83429 2.82912 8.80793 2.81836C8.76979 2.81755 8.72466 2.81774 8.68391 2.81738C8.66194 2.7111 8.70974 2.60561 8.71711 2.49903C8.71657 2.49478 8.64713 2.50208 8.64484 2.49414C8.64592 2.44379 8.62617 2.39428 8.69855 2.34278C8.70853 2.33792 8.83292 2.34007 8.81379 2.3252C8.80985 2.32189 8.79306 2.2998 8.76594 2.29395C8.76174 2.29315 8.70127 2.29735 8.69953 2.29004C8.69056 2.24776 8.70432 2.20335 8.74055 2.16113C8.74656 2.15429 8.81091 2.16113 8.81574 2.15625C8.84919 2.12173 8.801 2.08376 8.85871 2.05078C8.89779 2.02879 9.00833 2.03713 9.11652 2.02539C9.13137 2.0235 9.13442 2.01049 9.1966 2.00977C9.35503 2.00795 9.5287 2.01443 9.69758 2.01172C9.73392 2.01115 9.6951 1.99315 9.78254 2.00391ZM12.0364 5.56836C12.0206 5.4704 12.0106 5.61505 12.0218 5.69141C12.033 5.76774 12.0413 5.59835 12.0364 5.56836ZM12.3655 5.41797C12.3598 5.37508 12.3429 5.42424 12.3499 5.47754C12.3557 5.52056 12.3727 5.47147 12.3655 5.41797ZM12.6224 5.16895C12.6305 5.1743 12.6055 5.25243 12.6155 5.27637C12.6344 5.31953 12.6471 5.15478 12.6663 5.24317C12.6698 5.25933 12.6463 5.41555 12.6439 5.41504C12.6028 5.4031 12.5781 5.14085 12.6224 5.16895ZM9.9173 5.37207C9.91067 5.43259 9.92376 5.41666 9.92609 5.36035C9.92566 5.35719 9.91935 5.35457 9.9173 5.37207ZM10.5472 5.33203C10.5419 5.40307 10.561 5.40878 10.557 5.33496C10.5567 5.332 10.5474 5.32909 10.5472 5.33203ZM9.61945 5.06738C9.53051 5.14367 9.55575 5.18417 9.62922 5.08594C9.63285 5.08103 9.62399 5.06473 9.61945 5.06738ZM9.14973 2.06934C9.07863 2.06413 9.07288 2.08425 9.1468 2.08008C9.14978 2.07991 9.15268 2.06957 9.14973 2.06934Z" fill="#555961"/>
<path d="M4.70639 1.71674C4.74155 1.68674 4.84927 1.83117 4.85873 1.84174C4.89264 1.88059 4.85762 1.97286 4.8685 1.98139C4.96402 2.04061 4.94866 1.73158 5.07748 1.73139C5.08151 1.7319 5.06471 1.7892 5.07553 1.79486C5.10907 1.81247 5.14231 1.78999 5.17514 1.80951C5.25031 1.85478 5.27735 2.0046 5.39193 1.91791C5.40647 1.90657 5.38469 1.73131 5.49936 1.7392C5.54523 1.74265 5.74908 1.73955 5.806 1.75092C5.86225 1.76246 5.82344 1.81879 5.82748 1.82123C5.98046 1.89588 5.92291 1.92664 5.99936 2.03705C6.07608 2.14727 6.05499 1.88475 6.08627 1.85541C6.11781 1.82662 6.22939 1.88763 6.25717 1.90912C6.28464 1.93048 6.25079 1.96618 6.27475 1.97846C6.43729 2.0577 6.34633 1.84845 6.39975 1.80658C6.52607 1.70779 6.62492 1.90271 6.74057 1.92182C6.77135 1.92664 6.74626 1.88314 6.77377 1.87885C6.88413 1.86299 6.95095 1.92388 7.0765 1.8681C7.0973 1.85863 7.19843 1.7415 7.264 1.82709C7.27331 1.83949 7.24724 1.88847 7.29428 1.89935C7.36449 1.91559 7.49035 1.92617 7.56576 1.9101C7.62152 1.89808 7.55807 1.81785 7.62826 1.84271C7.65942 1.85383 7.6019 1.90096 7.66049 1.91791C7.71898 1.93475 7.86748 1.93222 7.92416 1.9306C7.98077 1.92895 7.94986 1.86829 7.95443 1.8642C7.98194 1.84109 8.08794 1.81215 8.09994 1.81146C8.52588 1.80494 8.92311 1.88389 9.33334 1.87982C9.35713 1.87891 9.40083 1.8988 9.4183 1.91498C9.45843 1.95432 9.50025 1.99293 9.5433 2.03021C9.57117 2.05379 9.59913 1.99182 9.60385 1.99506C9.71158 2.06548 9.52151 2.11517 9.5433 2.21771C9.62603 2.117 9.64692 2.17058 9.72006 2.22357C9.75527 2.24873 9.7742 2.1971 9.78061 2.19623C9.87904 2.18744 9.84178 2.28745 9.83529 2.31049C9.81264 2.39282 9.90658 2.36359 9.89193 2.41889C9.8774 2.47402 9.77912 2.47921 9.84018 2.539C9.89004 2.52308 9.93167 2.39176 9.99154 2.42377C10.2175 2.54451 10.4734 2.93558 10.6058 3.08197C10.7379 3.22807 10.7886 3.26735 10.8578 3.36029C10.9826 3.52804 10.9927 3.41112 11.1126 3.4726C11.2328 3.53451 11.0321 3.64636 11.0111 3.6933C10.9903 3.73974 11.0387 3.71974 11.0365 3.75385C11.0339 3.78824 10.9771 3.77715 11.0072 3.82123C11.0378 3.86572 11.2008 3.90862 11.2494 3.88666C11.3521 3.84002 11.3846 3.71589 11.4564 3.84271C11.4581 3.85048 11.4009 3.87282 11.4183 3.89838C11.5603 4.10383 11.7387 4.28664 11.8841 4.48822C11.9034 4.5158 11.8376 4.53994 11.848 4.55658C11.9632 4.73048 11.9886 4.60247 12.1537 4.59564C12.0217 4.6922 11.9958 4.80561 12.1048 4.91596C12.1703 4.9823 12.2087 4.92131 12.2865 4.92865C12.3099 4.93084 12.3229 5.01205 12.3548 4.99701C12.4593 4.94799 12.5015 4.81848 12.5804 4.96576C12.5813 4.97297 12.5264 4.99823 12.5404 5.01752C12.6281 5.13627 12.7152 5.08652 12.8314 5.16791C12.8652 5.1992 12.8978 5.28674 12.8997 5.33295C12.9015 5.3432 12.9027 5.35459 12.9037 5.36615C12.9144 5.49907 12.8456 5.73542 12.8343 5.88666C12.6524 5.88348 12.6942 6.02595 12.8197 6.08392C12.8145 6.18212 12.8214 6.28882 12.804 6.38373C12.7978 6.41582 12.7453 6.39428 12.7396 6.39838C12.6507 6.46129 12.772 6.50405 12.7777 6.52533C12.8242 6.75505 12.7312 6.94282 12.8216 7.16205C12.8263 7.16984 12.9504 7.1829 12.8587 7.24115C12.8507 7.24227 12.7947 7.17406 12.7904 7.27533C12.7859 7.37838 12.7185 7.57263 12.7767 7.71576C12.7908 7.75041 12.894 7.83877 12.8138 7.90912C12.8028 7.91832 12.7665 7.90833 12.7464 7.92182C12.6826 7.96543 12.8094 7.98872 12.7015 8.03998C12.5931 8.09133 12.5118 8.1985 12.5863 8.34271C12.5884 8.34731 12.6894 8.38226 12.6878 8.42767C12.6851 8.50015 12.6647 8.60308 12.6654 8.67865C12.666 8.71457 12.7287 8.6919 12.7298 8.69818C12.7649 8.94164 12.7082 9.11501 12.6839 9.37592C12.6793 9.42377 12.7654 9.56159 12.6976 9.65424C12.6232 9.75552 12.3151 9.65162 12.388 9.88471C12.4174 9.97902 12.8096 10.099 12.6068 10.2685C12.6569 10.597 12.5527 10.901 12.6244 11.2304C12.6275 11.2452 12.7371 11.2922 12.7357 11.3271C12.7333 11.3788 12.6824 11.4073 12.679 11.4443C12.6637 11.5989 12.7072 11.7405 12.7005 11.8896C12.6981 11.9462 12.645 11.9268 12.6419 11.9941C12.639 12.0616 12.7086 12.1068 12.6751 12.1982C12.6495 12.2673 12.5071 12.3369 12.4906 12.4287C12.6308 12.4321 12.6284 12.4954 12.6654 12.6074C12.6729 12.6279 12.72 12.6061 12.7269 12.6152C12.7375 12.6326 12.7364 12.6503 12.7337 12.6669C12.73 12.6909 12.7231 12.7137 12.7376 12.7382C12.7437 12.7486 12.7916 12.7525 12.7992 12.7617C12.8651 12.8427 12.7371 12.9496 12.7142 12.9619C12.6289 13.0193 12.6787 13.0677 12.6341 13.1142C12.589 13.1576 12.5836 13.0692 12.5462 13.122C12.4691 13.2311 12.3945 13.3754 12.3089 13.4736C12.2763 13.5117 12.3441 13.5265 12.3431 13.5331C12.3247 13.5622 12.2989 13.5862 12.2738 13.6074C12.2158 13.6563 12.162 13.692 12.179 13.79C11.9224 13.5683 12.1449 13.86 11.9603 13.8867C11.9454 13.8882 11.865 13.7561 11.8919 13.7158C11.9183 13.6762 12.0005 13.6828 12.0287 13.6181C12.0375 13.6021 12.0048 13.4433 12.0033 13.4296C12.0074 13.3859 12.0396 13.3925 12.0785 13.412C12.1282 13.4375 12.1871 13.4864 12.1947 13.4902C12.3343 13.5452 12.2815 13.3589 12.2835 13.3349C12.3085 13.2127 12.3791 13.141 12.3783 13.039C12.3768 12.9726 12.2312 12.9259 12.2454 12.8886C12.2786 12.7971 12.4017 12.7504 12.389 12.6669C12.3841 12.6315 12.363 12.5923 12.3158 12.5458C12.2765 12.5071 12.1096 12.545 12.2406 12.4062C12.2495 12.3969 12.3679 12.2947 12.2923 12.2353C12.2826 12.2279 12.2349 12.2275 12.2308 12.2177C12.2044 12.1516 12.2425 12.1071 12.224 12.0351C12.2055 11.9632 12.1783 11.8768 12.1947 11.7949C12.2045 11.7455 12.2941 11.6821 12.3167 11.6581C12.3805 11.5912 12.2766 11.519 12.3538 11.4775C12.4314 11.436 12.5488 11.5172 12.599 11.4081C12.473 11.4041 12.3438 11.3942 12.2171 11.3876C12.2216 11.1474 12.2617 10.9109 12.2562 10.6699C12.2554 10.6399 12.1875 10.6697 12.1849 10.6376C12.1743 10.5025 12.2227 10.3842 12.2035 10.2441C12.1882 10.1356 12.1171 10.0167 12.099 9.90326C12.2429 9.83385 12.1942 9.66525 12.2074 9.54291C12.2119 9.50012 12.2504 9.50287 12.263 9.4726C12.3095 9.35768 12.1818 9.41112 12.1615 9.37982C12.0758 9.24453 12.3648 9.23263 12.3578 9.07318C12.3575 9.06474 12.2035 8.96158 12.1937 8.94721C12.1313 8.85693 12.2474 8.93198 12.2591 8.87592C12.2799 8.7726 12.3159 8.70026 12.2708 8.57904C12.2572 8.5436 12.1622 8.45901 12.2357 8.39057C12.2454 8.38153 12.2962 8.38611 12.2992 8.37885C12.3487 8.24737 12.1892 8.24405 12.1351 8.16889C12.0814 8.0939 12.1909 7.97812 12.223 7.95404C12.3052 7.89221 12.2589 8.00147 12.2669 8.00482C12.3626 8.04379 12.3457 7.95911 12.3538 7.89447C12.5105 7.8851 12.5011 7.7943 12.3617 7.82709C12.3467 7.83116 12.361 7.88153 12.3538 7.89447C12.2005 7.83766 12.1811 7.7386 12.3246 7.62885C12.3918 7.57745 12.4703 7.62557 12.4417 7.46967C12.4288 7.39877 12.3208 7.42579 12.2913 7.36322C12.2244 7.22039 12.3246 7.03492 12.3089 6.88764C12.3032 6.83426 12.2448 6.88567 12.2386 6.84955C12.2226 6.75255 12.2662 6.6667 12.2435 6.56928C12.2404 6.56105 12.1798 6.58173 12.179 6.5517C12.1719 6.32221 12.2111 6.12234 12.2122 5.88275C12.2127 5.77057 12.1817 5.5725 12.1859 5.45111C12.1273 5.36654 12.0684 5.28831 12.0042 5.23822C11.9125 5.16629 11.8865 5.22793 11.8216 5.2226C11.6963 5.21235 11.6802 4.98912 11.68 4.95697C11.6848 4.95955 11.7602 5.01417 11.7454 4.956C11.7692 4.89009 11.6864 4.95326 11.68 4.95697C11.6791 4.93544 11.5483 4.78513 11.5121 4.76557C11.4923 4.75521 11.4591 4.80508 11.4496 4.79877C11.2242 4.64751 11.0255 4.46904 10.8538 4.25873C10.8513 4.25453 10.9024 4.21334 10.8958 4.20404C10.8058 4.07287 10.6779 4.05849 10.5531 4.00092C10.4286 3.94336 10.3675 3.85981 10.3929 3.7265C10.3142 3.66773 10.2507 3.53415 10.2152 3.45599C10.1797 3.37785 10.0813 3.45921 10.0746 3.45599C9.86196 3.35714 9.8229 3.21552 9.66928 3.04584C9.59621 2.96491 9.43124 2.82521 9.33822 2.75189C9.27053 2.69878 9.2482 2.64476 9.18783 2.59955C9.17791 2.61031 9.1691 2.61795 9.16049 2.62006C9.14869 2.62267 9.14024 2.6199 9.13314 2.6181C9.12877 2.62325 9.12646 2.62814 9.12533 2.62787C9.07407 2.61912 9.07118 2.60085 9.08432 2.58099C9.07595 2.57758 9.06456 2.57694 9.04818 2.58099C9.0423 2.58287 9.04331 2.62682 9.00033 2.62494C8.79939 2.61648 8.58024 2.59025 8.37143 2.59467C8.34292 2.5951 8.37925 2.66502 8.33822 2.66693C8.14489 2.67524 7.93284 2.67334 7.74447 2.64057C7.69826 2.6323 7.72688 2.58307 7.71713 2.5683C7.65557 2.48048 7.56808 2.60682 7.55307 2.61029C7.20805 2.67187 6.94378 2.55606 6.59213 2.61127C6.57268 2.61486 6.42541 2.75197 6.35971 2.63471C6.35521 2.62687 6.29023 2.50581 6.23275 2.58783C6.22919 2.59298 6.26978 2.65544 6.19955 2.64935C6.12883 2.64304 6.01454 2.68433 5.91732 2.61615C5.88651 2.59454 5.81375 2.47448 5.72201 2.57025C5.71529 2.57809 5.5743 2.79301 5.52377 2.64447C5.51557 2.61986 5.52389 2.46093 5.41439 2.54193C5.39346 2.55766 5.43146 2.59314 5.37631 2.61517C5.29186 2.64904 5.1803 2.60736 5.0765 2.67767C5.05839 2.69015 4.98114 2.79727 4.91928 2.71576C4.90961 2.70297 4.92752 2.65038 4.89486 2.64447C4.82003 2.63085 4.7432 2.63201 4.66635 2.63275C4.62286 2.63359 4.58082 2.63733 4.53451 2.62689C4.50234 2.62028 4.5002 2.53313 4.45932 2.51947C4.41884 2.5053 4.33609 2.51125 4.31674 2.56342C4.29965 2.61465 4.39128 2.72123 4.3558 2.75189C4.30616 2.79623 4.25787 2.83465 4.20932 2.87592C4.11231 2.95755 4.01058 3.06272 3.97592 3.20111C3.96929 3.23082 4.01973 3.21464 4.01498 3.25678C4.01281 3.27988 4.01323 3.30567 4.01498 3.33295C4.0251 3.65406 4.04444 4.08906 3.95639 4.32514C3.87354 4.54711 3.81044 4.26827 3.7767 4.43744C3.76065 4.51912 3.91837 4.60779 3.92416 4.62787C3.97473 4.82086 3.90476 4.9552 3.92611 5.12885C3.93056 5.16458 3.99377 5.13029 3.9974 5.1601C4.00852 5.26445 3.98045 5.37484 3.98568 5.47455C3.98841 5.51883 4.03715 5.51085 4.03354 5.5517C4.02505 5.65019 4.00425 5.73791 3.95834 5.83392C3.95285 5.84096 3.8932 5.78441 3.89096 5.85639C3.8874 5.9742 3.84241 6.1203 3.889 6.2558C3.90307 6.29606 4.01514 6.29816 3.93783 6.38471C3.92162 6.40283 3.78753 6.37963 3.90365 6.48041C3.9243 6.49888 4.07832 6.66727 3.97787 6.74994C3.9508 6.77202 3.84172 6.82771 3.85873 6.87592C3.86149 6.88248 3.9222 6.85631 3.92807 6.89642C3.94766 7.0377 3.94053 7.18585 3.95932 7.331C3.96446 7.36978 4.02687 7.31225 4.03256 7.37006C4.04828 7.52897 4.03249 7.72732 4.01303 7.88275C4.00573 7.94007 3.95418 7.90104 3.94857 7.90521C3.85783 7.97217 3.98046 8.01188 3.98764 8.03412C4.03049 8.17243 3.97332 8.27769 3.98861 8.40521C3.99268 8.44043 4.05076 8.41578 4.056 8.42279C4.10707 8.49541 4.00219 8.44124 3.99057 8.48725C3.95768 8.61614 3.96256 8.76023 3.97006 8.89057C3.97334 8.93741 4.04013 8.88466 4.04232 8.9267C4.05406 9.18106 4.04763 9.44604 4.0101 9.69428C4.00284 9.74081 3.95083 9.71196 3.93881 9.72162C3.85531 9.78854 3.9683 9.88605 3.97982 9.90912C4.02953 10.0121 3.98289 10.0526 3.99154 10.1435C4.03459 10.5874 4.00465 11.1355 3.98568 11.5546C3.96743 11.963 3.93496 12.3037 3.92514 12.6669C3.92186 12.735 3.92985 12.8057 3.95346 12.8749C3.95934 12.892 4.01947 12.8562 4.0267 12.8681C4.06836 12.9675 4.12041 13.0613 4.19467 13.1386C4.24774 13.1939 4.31209 13.2395 4.3851 13.2646C4.399 13.2693 4.40855 13.2021 4.43002 13.206C4.47439 13.2147 4.52423 13.2335 4.56576 13.2617C4.58662 13.2753 4.54685 13.326 4.56967 13.3388C4.59917 13.3546 4.63248 13.3641 4.66635 13.3662C4.72202 13.3679 4.77855 13.3662 4.83334 13.3613C4.88311 13.3564 4.80801 13.2888 4.87338 13.288C5.31944 13.2813 5.75757 13.2698 6.20834 13.3574C6.23926 13.3634 6.26663 13.5009 6.33236 13.4745C6.33731 13.4364 6.33704 13.3913 6.3392 13.3505C6.98858 13.3286 7.63135 13.3763 8.28256 13.3837C8.30996 13.384 8.26321 13.3116 8.31576 13.3115C8.62353 13.3125 8.92283 13.2928 9.23764 13.3652C9.2687 13.3726 9.25314 13.4998 9.34506 13.4804C9.36238 13.4768 9.49949 13.4601 9.53549 13.4326C9.54036 13.4284 9.51523 13.3679 9.5599 13.3662C9.81948 13.3571 10.0918 13.3706 10.3509 13.4072C10.3922 13.4134 10.3483 13.4771 10.3773 13.4824C10.5886 13.5162 10.8189 13.4675 11.0208 13.5253C11.1559 13.5643 11.1063 13.6748 11.1781 13.7831C11.1896 13.798 11.2713 13.801 11.2757 13.8632C11.2868 14.0217 11.2465 14.1953 11.263 14.3642C11.2665 14.4005 11.3784 14.3619 11.3128 14.4492C11.3082 14.455 11.2264 14.4848 11.2064 14.5146C11.1926 14.5353 11.2172 14.5995 11.1888 14.6259C11.1605 14.6516 11.1293 14.5989 11.0824 14.6298C11.0356 14.6613 11.0558 14.7334 10.9622 14.7421C10.7438 14.7617 10.4573 14.7405 10.2396 14.7119C10.1715 14.703 10.2054 14.6642 10.1585 14.6562C10.0664 14.6407 9.98003 14.66 9.889 14.6415C9.85968 14.6348 9.89631 14.5729 9.86557 14.5673C9.69222 14.5395 9.52749 14.5553 9.35189 14.5419C8.48723 14.4759 7.63729 14.4524 6.76205 14.4238C6.47337 14.4144 6.12175 14.3568 5.82357 14.3818C5.7893 14.3849 5.80926 14.4391 5.80307 14.4443C5.69936 14.5139 5.73374 14.4027 5.66635 14.3876C5.39716 14.3291 5.09728 14.3243 4.83822 14.3456C4.72836 14.355 4.8384 14.4646 4.72787 14.4033C4.72019 14.3991 4.74775 14.3406 4.71811 14.3339C4.70345 14.3309 4.68528 14.3292 4.66635 14.3281C4.57996 14.3247 4.46924 14.3186 4.4183 14.3066C4.29443 14.2762 4.27387 14.2717 4.15951 14.2363C4.00251 14.1849 3.84262 14.0722 3.69662 13.9794C3.66492 13.9594 3.66857 14.038 3.61361 14.0087C3.57538 13.9883 3.50504 13.9282 3.45932 13.874C3.43864 13.8498 3.42261 13.827 3.41439 13.8115C3.38835 13.7613 3.43995 13.7476 3.44174 13.7333C3.46065 13.6205 3.2592 13.5509 3.2435 13.5273C3.04166 13.2688 2.99409 12.9563 3.01205 12.6669C3.01816 12.586 3.02283 12.5042 3.02279 12.4208C3.02248 12.1734 2.99806 11.9083 3.00131 11.6728C3.00543 11.3923 3.03813 11.1543 3.03256 10.8818C3.03204 10.8531 2.96143 10.8862 2.96029 10.8515C2.95206 10.4781 2.96038 10.107 3.00814 9.73529C3.01309 9.69821 3.07473 9.74601 3.08334 9.70892C3.13439 9.48088 3.25711 9.11976 2.98666 8.98432C2.99721 8.83002 3.00846 8.64292 3.06283 8.50482C3.09791 8.41574 3.1649 8.50187 3.13607 8.39252C3.12964 8.36783 3.07093 8.39927 3.06576 8.36225C3.04418 8.20662 3.06305 8.0367 3.03256 7.88275C3.02619 7.85139 2.97278 7.85941 2.96322 7.85053C2.88656 7.77603 3.01383 7.65249 3.02377 7.62494C3.09313 7.41855 3.06504 7.2674 3.06674 7.07514C3.06711 7.0306 2.99663 7.0829 2.99447 7.03998C2.98428 6.81745 2.99019 6.58697 3.02182 6.36908C3.02903 6.32058 3.08948 6.36491 3.09604 6.34174C3.12406 6.23966 3.00973 6.21704 3.03451 6.11908C3.03956 6.09869 3.0903 6.10976 3.09701 6.10639C3.18668 6.0474 3.05978 5.99558 3.05697 5.98041C3.01899 5.78892 3.15068 5.66639 3.13217 5.48139C3.12979 5.45921 3.06452 5.50858 3.06186 5.44623C3.0437 5.0309 3.06196 4.5917 3.11459 4.1806C3.12269 4.11668 3.17197 4.16217 3.17807 4.15814C3.27299 4.09264 3.14576 4.05007 3.14096 4.02924C3.10646 3.86485 3.21281 3.71125 3.06088 3.59955C3.0676 3.51073 3.07255 3.42166 3.07553 3.33295C3.08549 2.91714 3.24709 2.50101 3.54916 2.21576C3.76828 2.0063 4.06039 1.87425 4.35287 1.8642C4.36275 1.86372 4.35916 1.92872 4.37826 1.92767C4.58129 1.92408 4.55775 1.86027 4.66635 1.7558C4.67787 1.74338 4.6911 1.72983 4.70639 1.71674ZM11.5462 13.915C11.7396 13.9406 11.9027 14.0868 11.6331 14.1337C11.5797 14.14 11.7276 14.0261 11.6556 14.0185C11.5348 14.0023 11.4679 14.1764 11.3353 14.0898C11.3187 14.0732 11.4523 13.9162 11.4632 13.912L11.5462 13.915ZM10.9076 13.8163C10.9393 13.7453 10.8194 13.7394 10.8451 13.8134C10.8485 13.8163 10.9062 13.8192 10.9076 13.8163ZM12.513 12.8105C12.4683 12.8358 12.4993 12.9317 12.5589 12.9042C12.6088 12.8787 12.5711 12.7757 12.513 12.8105ZM12.5033 11.9208C12.5813 11.8072 12.2632 11.7893 12.3275 11.9111C12.3316 11.9181 12.4955 11.9271 12.5033 11.9208ZM12.431 10.912C12.5299 10.8148 12.3844 10.7487 12.3079 10.8173C12.2327 10.8857 12.4007 10.9414 12.431 10.912ZM10.1732 2.83685C10.1 2.86434 10.1807 2.95393 10.2152 2.88373C10.2162 2.88067 10.1781 2.83817 10.1732 2.83685ZM4.19955 1.97064C4.19372 1.96397 4.05137 2.01523 4.05014 2.02435C4.03358 2.15642 4.2954 2.0624 4.19955 1.97064ZM6.7435 2.03119C6.7416 2.02789 6.69876 2.02521 6.69955 2.04389C6.70248 2.10474 6.76301 2.08742 6.7435 2.03119Z" fill="#555961"/>
<path d="M7.9668 11.3021C8.0444 11.2881 8.18629 11.2849 8.16407 11.306C8.15735 11.3106 8.0801 11.2947 8.05665 11.3011C8.0136 11.3129 8.17824 11.3212 8.08985 11.3333C8.072 11.3353 7.91806 11.3202 7.91895 11.3187L7.9668 11.3021ZM8.51466 7.34601C8.53532 7.34744 8.59959 7.34505 8.62598 7.34797C8.65183 7.35088 8.59895 7.35389 8.62989 7.35871C8.66141 7.36344 8.73318 7.36191 8.74219 7.3714C8.76173 7.39382 8.7406 7.42329 8.71192 7.44562C8.70264 7.45216 8.66519 7.44909 8.65626 7.45343C8.64081 7.46288 8.65997 7.47242 8.64161 7.48176C8.63545 7.48478 8.57487 7.48083 8.56739 7.48371C8.53964 7.50144 8.55519 7.51849 8.542 7.53644C8.47602 7.62507 8.45249 7.71236 8.42383 7.80207C8.41443 7.83168 8.35685 7.86816 8.38184 7.89875C8.38598 7.90207 8.4382 7.90014 8.44434 7.9007C8.51409 7.91136 8.40253 7.90742 8.3877 7.91437C8.32936 7.94193 8.32448 7.9728 8.34571 7.99933C8.35494 8.01063 8.46451 7.99973 8.40333 8.01105C8.39916 8.01184 8.34025 8.00893 8.33399 8.01203C8.32029 8.0189 8.33005 8.03175 8.32618 8.03742C8.31692 8.04792 8.31708 8.04995 8.31641 8.05988C8.315 8.07336 8.28624 8.08934 8.29883 8.10383C8.3018 8.10689 8.36052 8.10312 8.37208 8.10773C8.3823 8.1127 8.37747 8.12577 8.36329 8.13019C8.34908 8.13462 8.30186 8.13332 8.29102 8.1341C8.20156 8.14042 8.32129 8.15511 8.32911 8.15754C8.38247 8.19315 8.31044 8.22372 8.31055 8.25715C8.31086 8.28254 8.33531 8.31013 8.33204 8.33429C8.32771 8.36294 8.2952 8.38749 8.30079 8.41535C8.30486 8.4179 8.37229 8.41477 8.37305 8.41828C8.38122 8.45651 8.37288 8.49447 8.3252 8.53254C8.31943 8.53618 8.25858 8.5317 8.25001 8.53547C8.19896 8.55886 8.07624 8.59579 8.34669 8.60968C8.33613 8.62552 8.32498 8.64435 8.27051 8.65851C8.2354 8.66762 8.16842 8.65901 8.19727 8.67023C8.20527 8.6725 8.26151 8.66961 8.26758 8.67316C8.28928 8.68915 8.27017 8.70715 8.30079 8.72297C8.30781 8.7261 8.36063 8.72499 8.37012 8.7259C8.44681 8.73356 8.31886 8.74656 8.30958 8.74933C8.24123 8.77027 8.26781 8.78555 8.26661 8.805C8.26619 8.80948 8.33408 8.80497 8.33887 8.8089C8.3491 8.83174 8.34318 8.85588 8.31153 8.87824C8.30344 8.88299 8.24399 8.87884 8.23731 8.88117C8.20915 8.89165 8.32363 8.89358 8.29883 8.90363C8.29336 8.90568 8.24313 8.90427 8.23633 8.90461C8.14717 8.91062 8.2722 8.91571 8.27637 8.9173C8.3147 8.93699 8.1824 8.95004 8.20118 8.96906C8.20709 8.97085 8.2689 8.96676 8.27149 8.97297C8.28944 9.01548 8.27127 9.06078 8.21876 9.10285C8.20951 9.10895 8.16128 9.1044 8.15528 9.1048C8.06177 9.11142 8.18415 9.11533 8.19239 9.1175C8.22698 9.13436 8.1205 9.15096 8.27247 9.16242C8.22 9.23375 8.30461 9.30457 8.16895 9.37531C8.16741 9.37619 8.10674 9.37466 8.10157 9.37629C8.06629 9.39792 8.16377 9.3942 8.28321 9.40851C8.31282 9.41213 8.16877 9.42317 8.15821 9.42414C8.11937 9.42763 8.02702 9.42399 8.01856 9.42511C7.95932 9.43491 8.26846 9.43338 8.26856 9.4466C8.26768 9.447 8.21072 9.44452 8.20508 9.44562C8.18762 9.44906 8.20997 9.453 8.19044 9.45636C8.14498 9.46405 7.99554 9.46709 8.08204 9.47883C8.09339 9.48032 8.26903 9.47776 8.26075 9.48957C8.25739 9.49443 8.26033 9.51501 8.24903 9.52082C8.23767 9.52664 8.18119 9.52236 8.17872 9.52277C8.1041 9.53846 8.07314 9.53253 7.9629 9.54035C7.85268 9.54822 8.1152 9.54691 8.14454 9.55011C8.17341 9.55334 8.11236 9.56483 8.09083 9.56769C8.06963 9.57049 8.03402 9.56632 8.02149 9.56867C7.94221 9.58535 8.15164 9.57685 8.19337 9.58234C8.29169 9.59526 8.09815 9.6047 8.07813 9.61652C8.07305 9.61968 8.11583 9.61777 8.1211 9.62043C8.13693 9.63173 8.07661 9.63885 8.13184 9.65168C8.14092 9.65378 8.25826 9.66349 8.17286 9.67023C8.16048 9.67118 8.11161 9.66838 8.10059 9.67316C8.0843 9.68035 8.07378 9.69373 8.08985 9.70148C8.10187 9.7072 8.1821 9.70112 8.15723 9.70832C8.14602 9.71148 8.09896 9.70525 8.08204 9.71125C8.06536 9.71729 8.06773 9.7328 8.06934 9.73859C8.07381 9.74381 8.13176 9.74106 8.13575 9.74152C8.15896 9.7444 8.18812 9.75505 8.18848 9.75617C8.19588 9.80573 8.09379 9.85148 8.12696 9.89972C8.12943 9.90337 8.18889 9.90133 8.19434 9.90168C8.22117 9.91467 8.05113 9.90432 7.99415 9.9134C8.12409 9.91208 8.10099 9.91792 8.11524 9.92707C8.12299 9.9313 8.17264 9.92862 8.17774 9.92902C8.25362 9.93555 8.15494 9.94054 8.13477 9.94172C8.06077 9.94605 8.14825 9.95049 8.09864 9.95343C8.05003 9.95633 7.97857 9.95007 7.97755 9.95832C8.02411 9.96075 8.1451 9.95464 8.16505 9.96125C8.23957 9.98639 8.14468 10.0338 8.13477 10.054C8.12505 10.074 8.13297 10.0804 8.11622 10.0921C8.08603 10.1133 8.17653 10.1053 8.21778 10.1185C8.25731 10.1315 8.03739 10.1254 7.98926 10.1273C7.94158 10.1291 7.99009 10.1308 7.96387 10.1331C7.93772 10.1354 7.90532 10.1306 7.89551 10.1361C7.88589 10.1415 7.97068 10.1566 8.02051 10.1585C8.1261 10.1626 8.23695 10.1559 8.19825 10.1702C8.19597 10.171 8.13931 10.1683 8.13184 10.1712C8.08692 10.1964 8.08368 10.2232 8.04395 10.2484C8.037 10.2516 7.97431 10.2484 7.96973 10.2503C7.92822 10.2713 8.03764 10.2642 8.15919 10.2757C7.9976 10.2731 7.89861 10.2793 7.89747 10.2952C7.89684 10.3048 7.96778 10.3037 8.01758 10.3099C8.03174 10.3118 7.98456 10.3184 8.01758 10.3196C8.12589 10.3236 8.24684 10.317 8.19923 10.3333C8.19696 10.334 8.13881 10.332 8.1338 10.3343C8.11029 10.3503 8.223 10.3522 8.23731 10.3695C8.24809 10.3831 8.17946 10.4076 8.16798 10.4232C8.16645 10.4232 8.16458 10.4232 8.16309 10.4232C8.23433 10.4298 8.2427 10.4384 8.15333 10.4437H8.15235C8.14766 10.4536 8.15446 10.4644 8.1377 10.4739C8.13182 10.4773 8.07942 10.4755 8.07325 10.4759C7.9853 10.4823 8.1023 10.4864 8.11036 10.4886C8.15686 10.5122 8.0649 10.5315 8.15528 10.554C8.16201 10.5548 8.28329 10.5559 8.19239 10.5618C8.1859 10.5622 8.12847 10.5552 8.12403 10.5657C8.11871 10.5764 8.05246 10.5961 8.11036 10.6107C8.12443 10.6142 8.22673 10.623 8.14747 10.6302C8.13664 10.6311 8.10032 10.6308 8.08008 10.6321C8.01592 10.6366 8.1428 10.6386 8.03516 10.6439C7.92666 10.6491 7.84507 10.6603 7.91993 10.6751C7.92484 10.6757 8.02307 10.6793 8.02149 10.6839C8.01851 10.6913 7.99768 10.7016 7.99805 10.7093C7.99839 10.7129 8.05715 10.7108 8.06251 10.7112C8.09767 10.7362 8.04197 10.7539 8.01758 10.7806C8.013 10.7855 8.09886 10.8004 8.03126 10.8099C7.95711 10.8203 7.64856 10.8094 7.72169 10.8333C7.75109 10.843 8.1423 10.855 7.93946 10.8724C7.98968 10.9061 7.88659 10.9372 7.95801 10.971C7.96114 10.9725 8.06727 10.9772 8.06934 10.9808C8.06693 10.9861 8.01644 10.9897 8.0127 10.9935C7.99749 11.0092 8.0398 11.0233 8.03419 11.0384C8.03176 11.0441 7.98002 11.0426 7.97559 11.0491C7.9727 11.0561 8.04201 11.0613 8.0088 11.0706C7.9832 11.0777 7.84079 11.0846 7.82423 11.0941C7.96442 11.0944 7.96202 11.1011 7.99903 11.1126C8.00759 11.1146 8.05475 11.1126 8.06055 11.1136C8.08537 11.1178 8.04559 11.1213 8.07227 11.1253C8.07876 11.1263 8.12578 11.1265 8.13477 11.1273C8.20528 11.1341 8.09786 11.1458 8.07911 11.1478C8.00807 11.1552 8.07003 11.1577 8.042 11.1634C8.01397 11.169 7.97892 11.1607 7.96192 11.1673C7.92674 11.181 7.93482 11.1993 7.93262 11.2132C7.93416 11.2183 7.99366 11.2145 7.99708 11.2152C8.01327 11.2266 7.94549 11.239 8.07227 11.2454C7.74422 11.2534 8.10383 11.2525 8.03907 11.2689C8.03374 11.2702 7.87735 11.2709 7.8545 11.2659C7.83278 11.261 7.88011 11.2542 7.84473 11.2474C7.83394 11.2456 7.6904 11.236 7.68165 11.2347C7.6138 11.2247 7.84565 11.2235 7.85841 11.223C7.99619 11.217 7.83899 11.2055 7.82813 11.2025C7.77846 11.1887 7.8109 11.1769 7.7754 11.1653C7.75162 11.1579 7.60083 11.1566 7.60548 11.1507C7.62388 11.1314 7.83125 11.1242 7.64844 11.1058C7.60864 11.1018 7.44358 11.1063 7.57423 11.0921C7.58523 11.091 7.70075 11.0806 7.62598 11.0745C7.61626 11.0738 7.56755 11.0736 7.56348 11.0726C7.53787 11.0659 7.57598 11.0614 7.55762 11.054C7.53911 11.0466 7.51187 11.0371 7.52833 11.0286C7.54 11.0236 7.62849 11.0174 7.6504 11.015C7.71408 11.0081 7.60994 11.0007 7.68653 10.9964C7.76415 10.9921 7.88247 11.0008 7.93262 10.9896C7.80653 10.9892 7.67662 10.9883 7.54981 10.9876C7.55425 10.9629 7.59542 10.9381 7.58985 10.9134C7.58702 10.9106 7.52122 10.9137 7.51856 10.9105C7.50785 10.8967 7.55549 10.8847 7.53712 10.8704C7.52196 10.8593 7.44973 10.8469 7.43165 10.8353C7.57513 10.8282 7.52762 10.8107 7.54005 10.7982C7.54455 10.7938 7.58271 10.7943 7.59571 10.7913C7.64207 10.7796 7.51575 10.7847 7.49512 10.7816C7.41002 10.7678 7.69387 10.7664 7.69044 10.7503C7.68312 10.749 7.5383 10.7382 7.52735 10.7366C7.4653 10.7274 7.57914 10.7354 7.5918 10.7298C7.61256 10.7192 7.64941 10.7119 7.6045 10.6995C7.59116 10.6959 7.49532 10.687 7.56934 10.68C7.57891 10.6791 7.62846 10.6797 7.63282 10.679C7.68242 10.6655 7.52297 10.6652 7.46876 10.6575C7.41468 10.6498 7.52482 10.6375 7.55665 10.6351C7.6377 10.6288 7.59318 10.6393 7.59962 10.64C7.69526 10.644 7.67962 10.6358 7.68751 10.6292C7.84416 10.6283 7.83477 10.619 7.69532 10.6224C7.68009 10.6228 7.69466 10.6279 7.68751 10.6292C7.5338 10.6234 7.51458 10.6131 7.65821 10.6019C7.72543 10.5967 7.80307 10.6013 7.77442 10.5853C7.75985 10.5783 7.65465 10.5808 7.62501 10.5745C7.55812 10.5599 7.65765 10.5408 7.64258 10.5257C7.63683 10.5202 7.57726 10.5255 7.5713 10.5218C7.55579 10.5119 7.59934 10.5034 7.57716 10.4935C7.5751 10.4926 7.51733 10.4942 7.5127 10.4915C7.50552 10.468 7.54481 10.4468 7.54591 10.4222C7.54556 10.4102 7.51277 10.3894 7.51954 10.3773C7.53127 10.356 7.61973 10.33 7.59864 10.3118C7.58466 10.2999 7.5226 10.3023 7.48048 10.2972C7.39945 10.2873 7.54575 10.2702 7.56837 10.2679C7.58285 10.2661 7.59651 10.2456 7.58497 10.2415C7.57857 10.2393 7.52086 10.2407 7.51758 10.2396C7.46517 10.2122 7.45016 10.1843 7.47755 10.1566C7.47869 10.1561 7.54042 10.1566 7.54591 10.1556C7.57504 10.1395 7.49486 10.1298 7.44727 10.1165C7.40024 10.1034 7.41642 10.0931 7.52833 10.0853C7.51417 10.0753 7.56456 10.0603 7.59473 10.0521C7.62313 10.0439 7.49666 10.043 7.49415 10.0423C7.41383 10.0197 7.4867 10.0062 7.49805 9.98273C7.50326 9.97158 7.4855 9.94986 7.47169 9.93781C7.46045 9.92826 7.48982 9.92219 7.47071 9.9134C7.46674 9.91229 7.41134 9.91375 7.40919 9.9134C7.34151 9.90361 7.47983 9.90856 7.50489 9.90656C7.59505 9.89921 7.64301 9.89374 7.60059 9.88117C7.58843 9.87823 7.39376 9.86982 7.37989 9.86457C7.3651 9.85771 7.43574 9.86094 7.41895 9.85383C7.41757 9.85323 7.37528 9.85306 7.37501 9.84894C7.38341 9.82847 7.40928 9.80578 7.40528 9.78449C7.40485 9.78159 7.33589 9.78465 7.33301 9.78058C7.32474 9.76082 7.32693 9.73931 7.35938 9.72004C7.36767 9.71529 7.41698 9.71812 7.43165 9.71711C7.51775 9.71092 7.39767 9.7023 7.38966 9.70051C7.32817 9.66517 7.44331 9.63786 7.38868 9.60187C7.38544 9.59991 7.24822 9.58421 7.36524 9.57746C7.37306 9.577 7.49364 9.57065 7.41212 9.56476C7.40696 9.5644 7.34427 9.56811 7.35059 9.56086C7.35604 9.55359 7.31629 9.54242 7.3838 9.53254C7.40527 9.52938 7.52554 9.52145 7.42969 9.51203C7.4223 9.51137 7.20691 9.49769 7.35548 9.4925C7.38004 9.49166 7.53806 9.49195 7.45801 9.48078C7.44235 9.47864 7.40683 9.48243 7.38477 9.47687C7.35081 9.4682 7.39276 9.45725 7.32227 9.4466C7.30953 9.44473 7.20279 9.43633 7.28419 9.43C7.2972 9.42903 7.34959 9.43041 7.35548 9.42707C7.38343 9.41123 7.34905 9.3953 7.38477 9.37922C7.39753 9.37352 7.48233 9.37625 7.50587 9.37043C7.52874 9.36445 7.55075 9.35226 7.51173 9.34601C7.47251 9.33989 7.33848 9.34631 7.32618 9.33722C7.27888 9.2965 7.35844 9.25581 7.37012 9.21515C7.37185 9.20915 7.3235 9.21416 7.32227 9.20539C7.31865 9.17262 7.27347 9.11566 7.37696 9.08722C7.45964 9.06465 7.52297 9.09386 7.55665 9.07648C7.57222 9.06815 7.41618 9.05906 7.40919 9.05695C7.35866 9.03717 7.42845 9.02299 7.40723 9.00519C7.40292 9.00163 7.34266 9.00488 7.33594 9.00226C7.32491 8.99165 7.35232 8.9802 7.34766 8.97004C7.34517 8.96545 7.29603 8.96547 7.29981 8.96125C7.30837 8.95121 7.32936 8.94272 7.37501 8.93293C7.37912 8.93205 7.43821 8.93787 7.44239 8.93097C7.44588 8.91888 7.49105 8.90387 7.44434 8.88996C7.43029 8.88583 7.31862 8.88514 7.39551 8.87629C7.41166 8.87442 7.54584 8.87686 7.42969 8.86652C7.40851 8.86456 7.25525 8.84764 7.35548 8.83918C7.3825 8.83691 7.4917 8.83045 7.47462 8.82551C7.47186 8.82483 7.41115 8.82767 7.40528 8.82355C7.38629 8.80925 7.39223 8.7943 7.37403 8.77961C7.36897 8.77569 7.30815 8.78116 7.30079 8.7757C7.28509 8.75942 7.30089 8.7389 7.32032 8.72297C7.32762 8.71709 7.37916 8.72046 7.38477 8.72004C7.47505 8.71322 7.35456 8.70963 7.34571 8.70734C7.30271 8.69314 7.36004 8.68234 7.34473 8.66926C7.3396 8.66587 7.28397 8.66791 7.27735 8.6673C7.22638 8.65987 7.33052 8.66509 7.34278 8.66047C7.37569 8.64724 7.37079 8.63282 7.36329 8.61945C7.35935 8.61477 7.2931 8.61985 7.29102 8.61554C7.27929 8.58945 7.28571 8.5619 7.32325 8.53644C7.33082 8.53181 7.38191 8.53539 7.39454 8.53449C7.47823 8.52761 7.36461 8.51729 7.35352 8.51496C7.30384 8.5044 7.35042 8.49986 7.3418 8.49054C7.29879 8.44506 7.32869 8.38899 7.34766 8.34601C7.37208 8.28998 7.42214 8.24613 7.40919 8.19269C7.40426 8.18982 7.3394 8.1926 7.3379 8.18976C7.32124 8.15212 7.3479 8.11517 7.32813 8.07746C7.32663 8.0744 7.26238 8.07816 7.25587 8.07355C7.24581 8.06332 7.2494 8.05069 7.27051 8.04035C7.2814 8.03559 7.33632 8.04134 7.34571 8.03644C7.36692 8.02465 7.37182 8.01243 7.36133 8.00031C7.35675 7.99522 7.29076 8.00261 7.28809 7.9964C7.28138 7.95063 7.26986 7.90496 7.35743 7.85871C7.36365 7.85554 7.50095 7.85275 7.47462 7.84601C7.43648 7.84551 7.39135 7.84623 7.35059 7.84601C7.32863 7.77938 7.37643 7.71264 7.3838 7.64582C7.37965 7.64357 7.31207 7.64803 7.31153 7.64289C7.31261 7.61132 7.29286 7.58045 7.36524 7.54816C7.37544 7.54513 7.49959 7.54673 7.48048 7.53742C7.4767 7.53551 7.45991 7.5216 7.43262 7.51789C7.42843 7.51739 7.36796 7.51954 7.36622 7.51496C7.35738 7.48847 7.37097 7.46034 7.40723 7.4339C7.41324 7.42961 7.47759 7.43403 7.48243 7.43097C7.51553 7.40937 7.46784 7.38618 7.5254 7.36554C7.56433 7.35168 7.67486 7.35631 7.78321 7.34894C7.79804 7.34775 7.80113 7.33963 7.86329 7.33918C8.02172 7.33804 8.19538 7.34185 8.36426 7.34015C8.40059 7.33979 8.36189 7.32854 8.44923 7.33527C8.45511 7.33575 8.48482 7.34396 8.51466 7.34601ZM7.85548 11.1351C7.81255 11.1387 7.86169 11.1493 7.91505 11.1448C7.95804 11.1412 7.90893 11.1306 7.85548 11.1351ZM7.64161 10.929C7.56542 10.9361 7.73467 10.9418 7.76466 10.9388C7.86354 10.9288 7.71801 10.922 7.64161 10.929ZM8.00098 10.0042C7.93021 10.001 7.92511 10.0136 7.99903 10.0111C8.00185 10.0105 8.0038 10.0044 8.00098 10.0042ZM7.95606 9.61261C7.8952 9.61292 7.91253 9.6195 7.96876 9.6175C7.97203 9.61725 7.97465 9.61253 7.95606 9.61261ZM8.11329 9.34406C7.9972 9.33673 7.98522 9.36501 8.10743 9.35871C8.11368 9.35813 8.11906 9.34452 8.11329 9.34406ZM7.81641 7.37726C7.74528 7.37399 7.73953 7.38574 7.81348 7.38312C7.81646 7.38302 7.81937 7.37741 7.81641 7.37726Z" fill="#555961"/>
<path d="M6.03809 8.5912C6.06051 8.57166 6.08998 8.5928 6.11231 8.62147C6.11885 8.63076 6.11578 8.66821 6.12012 8.67714C6.12956 8.69259 6.13911 8.67343 6.14844 8.69179C6.15147 8.69795 6.14752 8.75853 6.1504 8.76601C6.16813 8.79376 6.18517 8.77821 6.20313 8.7914C6.29175 8.85737 6.37905 8.88091 6.46875 8.90956C6.49837 8.91897 6.53485 8.97655 6.56543 8.95155C6.56876 8.94741 6.56682 8.8952 6.56739 8.88905C6.57804 8.81931 6.5741 8.93087 6.58106 8.94569C6.60862 9.00404 6.63949 9.00891 6.66602 8.98769C6.67731 8.97846 6.66642 8.86888 6.67774 8.93007C6.67853 8.93423 6.67562 8.99314 6.67872 8.9994C6.68559 9.01311 6.69844 9.00335 6.70411 9.00722C6.71461 9.01648 6.71664 9.01631 6.72657 9.01698C6.74005 9.0184 6.75603 9.04715 6.77051 9.03456C6.77357 9.03159 6.7698 8.97287 6.77442 8.96132C6.77938 8.9511 6.79245 8.95592 6.79688 8.97011C6.8013 8.98431 6.8 9.03154 6.80079 9.04237C6.80711 9.13183 6.8218 9.0121 6.82422 9.00429C6.85984 8.95092 6.89041 9.02296 6.92383 9.02284C6.94923 9.02253 6.97682 8.99809 7.00098 9.00136C7.02962 9.00569 7.05418 9.03819 7.08204 9.03261C7.08458 9.02854 7.08146 8.9611 7.08497 8.96034C7.1232 8.95218 7.16116 8.96051 7.19922 9.00819C7.20286 9.01397 7.19839 9.07481 7.20215 9.08339C7.22554 9.13444 7.26248 9.25716 7.27637 8.98671C7.29221 8.99726 7.31104 9.00841 7.3252 9.06288C7.3343 9.09799 7.3257 9.16497 7.33692 9.13612C7.33919 9.12813 7.33629 9.07189 7.33985 9.06581C7.35584 9.04412 7.37384 9.06323 7.38965 9.03261C7.39278 9.02559 7.39168 8.97276 7.39258 8.96327C7.40025 8.88658 7.41324 9.01453 7.41602 9.02382C7.43696 9.09217 7.45223 9.06559 7.47168 9.06679C7.47617 9.0672 7.47166 8.99931 7.47559 8.99452C7.49843 8.9843 7.52256 8.99022 7.54493 9.02187C7.54967 9.02996 7.54553 9.08941 7.54786 9.09608C7.55834 9.12425 7.56026 9.00977 7.57032 9.03456C7.57236 9.04003 7.57095 9.09026 7.57129 9.09706C7.57731 9.18623 7.5824 9.0612 7.58399 9.05702C7.60367 9.01869 7.61673 9.151 7.63575 9.13222C7.63754 9.12631 7.63345 9.06449 7.63965 9.0619C7.68217 9.04396 7.72747 9.06213 7.76954 9.11464C7.77564 9.12388 7.77108 9.17212 7.77149 9.17812C7.77811 9.27162 7.78202 9.14924 7.78418 9.14101C7.80105 9.10642 7.81765 9.2129 7.82911 9.06093C7.90044 9.1134 7.97125 9.02878 8.042 9.16444C8.04288 9.16599 8.04135 9.22666 8.04297 9.23183C8.06461 9.26711 8.06088 9.16963 8.0752 9.05019C8.07882 9.02058 8.08985 9.16463 8.09083 9.17519C8.09431 9.21403 8.09068 9.30637 8.0918 9.31483C8.1016 9.37407 8.10007 9.06493 8.11329 9.06483C8.11368 9.06571 8.1112 9.12267 8.11231 9.12831C8.11575 9.14578 8.11969 9.12343 8.12305 9.14296C8.13074 9.18842 8.13378 9.33786 8.14551 9.25136C8.14701 9.24001 8.14445 9.06436 8.15625 9.07265C8.16111 9.07601 8.1817 9.07306 8.1875 9.08437C8.19333 9.09573 8.18904 9.1522 8.18946 9.15468C8.20514 9.2293 8.19922 9.26025 8.20704 9.3705C8.21491 9.48072 8.21359 9.2182 8.2168 9.18886C8.22003 9.15999 8.23152 9.22103 8.23438 9.24257C8.23718 9.26377 8.233 9.29938 8.23536 9.3119C8.25204 9.39119 8.24353 9.18175 8.24903 9.14003C8.26194 9.04171 8.27139 9.23525 8.28321 9.25526C8.28637 9.26034 8.28446 9.21757 8.28711 9.2123C8.29841 9.19647 8.30553 9.25678 8.31836 9.20155C8.32047 9.19248 8.33018 9.07513 8.33692 9.16054C8.33787 9.17291 8.33507 9.22178 8.33985 9.2328C8.34704 9.2491 8.36042 9.25962 8.36817 9.24355C8.37389 9.23153 8.36781 9.15129 8.375 9.17616C8.37817 9.18738 8.37193 9.23443 8.37793 9.25136C8.38397 9.26804 8.39949 9.26566 8.40528 9.26405C8.4105 9.25958 8.40775 9.20163 8.40821 9.19765C8.41108 9.17444 8.42173 9.14527 8.42286 9.14491C8.47241 9.13752 8.51817 9.23961 8.56641 9.20644C8.57006 9.20396 8.56802 9.1445 8.56836 9.13905C8.58136 9.11222 8.57101 9.28226 8.58008 9.33925C8.57877 9.2093 8.5846 9.23241 8.59375 9.21815C8.59799 9.2104 8.59531 9.16075 8.59571 9.15565C8.60224 9.07978 8.60723 9.17846 8.6084 9.19862C8.61273 9.27262 8.61718 9.18514 8.62012 9.23476C8.62301 9.28337 8.61676 9.35482 8.625 9.35585C8.62744 9.30928 8.62133 9.1883 8.62793 9.16835C8.65308 9.09383 8.70049 9.18872 8.72071 9.19862C8.74071 9.20835 8.74708 9.20043 8.75879 9.21718C8.77997 9.24736 8.77198 9.15686 8.78516 9.11562C8.79821 9.07608 8.79209 9.296 8.79395 9.34413C8.79582 9.39181 8.79749 9.34331 8.79981 9.36952C8.80207 9.39568 8.79732 9.42807 8.80274 9.43788C8.8082 9.44751 8.82326 9.36272 8.8252 9.31288C8.82928 9.20729 8.82256 9.09644 8.83692 9.13515C8.83773 9.13742 8.83496 9.19409 8.8379 9.20155C8.8631 9.24647 8.88987 9.24971 8.91504 9.28944C8.91827 9.2964 8.91508 9.35909 8.917 9.36366C8.93797 9.40517 8.9309 9.29576 8.94239 9.17421C8.93981 9.3358 8.94603 9.43479 8.96192 9.43593C8.97149 9.43656 8.97038 9.36562 8.97657 9.31581C8.97847 9.30166 8.98511 9.34884 8.98633 9.31581C8.99033 9.20751 8.98373 9.08656 9 9.13417C9.00072 9.13644 8.99865 9.19458 9.00098 9.1996C9.01702 9.2231 9.01889 9.11039 9.03614 9.09608C9.04974 9.08531 9.07433 9.15393 9.08985 9.16542C9.08952 9.34713 9.1044 9.30615 9.11036 9.18105C9.12025 9.18573 9.13108 9.17894 9.14063 9.19569C9.14396 9.20157 9.14219 9.25398 9.14258 9.26015C9.14897 9.3481 9.15307 9.2311 9.15528 9.22304C9.17884 9.17653 9.19822 9.2685 9.22071 9.17812C9.22151 9.17139 9.2226 9.05011 9.22852 9.14101C9.22889 9.1475 9.22186 9.20493 9.23243 9.20937C9.24306 9.21469 9.26277 9.28093 9.27735 9.22304C9.2809 9.20897 9.28967 9.10666 9.29688 9.18593C9.29784 9.19675 9.29748 9.23308 9.29883 9.25331C9.30331 9.31747 9.3053 9.1906 9.31055 9.29823C9.31582 9.40673 9.32699 9.48833 9.3418 9.41347C9.34235 9.40855 9.346 9.31033 9.35059 9.3119C9.35796 9.31489 9.36832 9.33572 9.37598 9.33534C9.37956 9.335 9.37752 9.27625 9.37793 9.27089C9.40289 9.23572 9.42057 9.29143 9.44727 9.31581C9.45218 9.32039 9.46706 9.23454 9.47657 9.30214C9.487 9.37629 9.47606 9.68484 9.5 9.61171C9.50968 9.5823 9.52168 9.19109 9.53907 9.39394C9.57276 9.34371 9.60392 9.4468 9.6377 9.37538C9.6392 9.37225 9.64391 9.26612 9.64747 9.26405C9.65275 9.26646 9.65639 9.31695 9.66016 9.32069C9.67586 9.3359 9.68996 9.29359 9.70508 9.29921C9.7108 9.30164 9.70928 9.35337 9.71583 9.3578C9.72274 9.3607 9.72795 9.29139 9.73731 9.3246C9.7444 9.3502 9.75134 9.4926 9.76075 9.50917C9.76111 9.36897 9.76781 9.37137 9.7793 9.33437C9.7813 9.32581 9.77925 9.27864 9.78028 9.27284C9.78451 9.24802 9.78798 9.28781 9.792 9.26112C9.79297 9.25464 9.79318 9.20762 9.79395 9.19862C9.80078 9.12811 9.81253 9.23554 9.81446 9.25429C9.82185 9.32533 9.82441 9.26337 9.83008 9.2914C9.83572 9.31942 9.82737 9.35448 9.83399 9.37147C9.84771 9.40666 9.86595 9.39857 9.87989 9.40077C9.88495 9.39924 9.88122 9.33973 9.88184 9.33632C9.89333 9.32013 9.90573 9.38791 9.91211 9.26112C9.92007 9.58917 9.91918 9.22957 9.93555 9.29433C9.93685 9.29966 9.93759 9.45605 9.93262 9.4789C9.92765 9.50062 9.92092 9.45328 9.91407 9.48866C9.91231 9.49946 9.90264 9.643 9.90137 9.65175C9.89142 9.7196 9.89018 9.48774 9.88965 9.47499C9.88365 9.3372 9.87216 9.49441 9.86915 9.50526C9.85538 9.55493 9.84355 9.5225 9.83204 9.558C9.82457 9.58177 9.82328 9.73257 9.81739 9.72792C9.79808 9.70952 9.79085 9.50214 9.77247 9.68495C9.76854 9.72475 9.773 9.88982 9.75879 9.75917C9.75766 9.74817 9.74724 9.63264 9.74122 9.70741C9.74045 9.71714 9.74027 9.76585 9.73926 9.76991C9.73254 9.79552 9.72805 9.75741 9.72071 9.77577C9.71332 9.79429 9.70375 9.82153 9.69532 9.80507C9.69027 9.7934 9.68405 9.70491 9.68165 9.683C9.67479 9.61932 9.66735 9.72346 9.66309 9.64687C9.6588 9.56925 9.66751 9.45092 9.65625 9.40077C9.65584 9.52686 9.65497 9.65678 9.6543 9.78358C9.62964 9.77914 9.60483 9.73797 9.58008 9.74355C9.57725 9.74637 9.58038 9.81218 9.57715 9.81483C9.56335 9.82554 9.5514 9.7779 9.53711 9.79628C9.52597 9.81144 9.51361 9.88367 9.50196 9.90175C9.49488 9.75827 9.47739 9.80578 9.46485 9.79335C9.4605 9.78884 9.46103 9.75068 9.45801 9.73769C9.44625 9.69132 9.45142 9.81765 9.44825 9.83827C9.43445 9.92337 9.43307 9.63953 9.417 9.64296C9.41571 9.65027 9.40485 9.79509 9.40333 9.80605C9.39411 9.8681 9.40208 9.75425 9.39649 9.74159C9.3859 9.72084 9.37863 9.68399 9.36622 9.7289C9.36259 9.74224 9.35372 9.83808 9.34668 9.76405C9.34577 9.75449 9.3464 9.70493 9.34571 9.70058C9.33222 9.65097 9.33192 9.81043 9.32422 9.86464C9.31651 9.91872 9.30419 9.80858 9.30176 9.77675C9.29551 9.69569 9.30601 9.74021 9.30665 9.73378C9.31066 9.63814 9.30253 9.65377 9.2959 9.64589C9.29494 9.48924 9.28571 9.49862 9.28907 9.63808C9.28945 9.65331 9.29457 9.63873 9.2959 9.64589C9.29008 9.79959 9.27983 9.81882 9.26856 9.67519C9.26334 9.60797 9.26795 9.53032 9.25196 9.55897C9.24498 9.57355 9.24747 9.67874 9.24122 9.70839C9.2266 9.77527 9.20748 9.67575 9.19239 9.69081C9.1869 9.69657 9.19223 9.75613 9.18848 9.7621C9.1786 9.77761 9.17008 9.73405 9.16016 9.75624C9.15929 9.7583 9.16087 9.81606 9.15821 9.82069C9.13465 9.82787 9.11347 9.78859 9.08887 9.78749C9.07691 9.78783 9.05611 9.82063 9.04395 9.81386C9.0227 9.80213 8.99671 9.71367 8.97852 9.73476C8.96663 9.74873 8.96897 9.8108 8.96387 9.85292C8.95404 9.93394 8.93692 9.78765 8.93458 9.76503C8.93282 9.75055 8.91233 9.73689 8.90821 9.74843C8.90602 9.75483 8.90735 9.81253 8.90625 9.81581C8.87893 9.86823 8.85096 9.88324 8.82325 9.85585C8.82277 9.8547 8.82328 9.79298 8.82227 9.78749C8.80623 9.75836 8.79644 9.83854 8.78321 9.88612C8.77004 9.93315 8.75977 9.91697 8.75196 9.80507C8.74198 9.81923 8.727 9.76883 8.71875 9.73866C8.71063 9.71027 8.70971 9.83674 8.70899 9.83925C8.68641 9.91957 8.67286 9.84669 8.64942 9.83534C8.63827 9.83014 8.61655 9.8479 8.6045 9.86171C8.59495 9.87294 8.58888 9.84358 8.58008 9.86269C8.57897 9.86666 8.58044 9.92205 8.58008 9.92421C8.57029 9.99188 8.57525 9.85357 8.57325 9.82851C8.5659 9.73835 8.56043 9.69039 8.54786 9.7328C8.54492 9.74496 8.53651 9.93964 8.53125 9.95351C8.5244 9.96829 8.52763 9.89766 8.52051 9.91444C8.51991 9.91583 8.51974 9.95812 8.51563 9.95839C8.49515 9.94998 8.47247 9.92412 8.45118 9.92812C8.44827 9.92855 8.45133 9.99751 8.44727 10.0004C8.42751 10.0087 8.40599 10.0065 8.38672 9.97401C8.38197 9.96573 8.38481 9.91642 8.38379 9.90175C8.3776 9.81565 8.36898 9.93573 8.36719 9.94374C8.33186 10.0052 8.30455 9.89009 8.26856 9.94472C8.2666 9.94795 8.2509 10.0852 8.24415 9.96815C8.24368 9.96033 8.23734 9.83976 8.23145 9.92128C8.23108 9.92644 8.2348 9.98913 8.22754 9.9828C8.22028 9.97736 8.20911 10.0171 8.19922 9.9496C8.19607 9.92812 8.18813 9.80786 8.17872 9.9037C8.17806 9.91109 8.16438 10.1265 8.15918 9.97792C8.15834 9.95336 8.15864 9.79533 8.14747 9.87538C8.14533 9.89104 8.14912 9.92657 8.14356 9.94862C8.13489 9.98259 8.12394 9.94064 8.11329 10.0111C8.11141 10.0239 8.10302 10.1306 8.09668 10.0492C8.09572 10.0362 8.09709 9.98381 8.09375 9.97792C8.07791 9.94996 8.06199 9.98435 8.0459 9.94862C8.04021 9.93586 8.04293 9.85107 8.03711 9.82753C8.03114 9.80465 8.01895 9.78265 8.0127 9.82167C8.00657 9.86088 8.013 9.99492 8.00391 10.0072C7.96319 10.0545 7.9225 9.97495 7.88184 9.96327C7.87583 9.96155 7.88084 10.0099 7.87207 10.0111C7.83931 10.0147 7.78234 10.0599 7.75391 9.95644C7.73134 9.87375 7.76055 9.81042 7.74317 9.77675C7.73483 9.76118 7.72574 9.91722 7.72364 9.92421C7.70386 9.97474 7.68967 9.90495 7.67188 9.92616C7.66832 9.93048 7.67157 9.99073 7.66895 9.99745C7.65833 10.0085 7.64688 9.98108 7.63672 9.98573C7.63214 9.98823 7.63216 10.0374 7.62793 10.0336C7.6179 10.025 7.60941 10.004 7.59961 9.95839C7.59873 9.95428 7.60455 9.89519 7.59766 9.89101C7.58557 9.88751 7.57056 9.84235 7.55665 9.88905C7.55252 9.90311 7.55183 10.0148 7.54297 9.93788C7.54111 9.92173 7.54355 9.78755 7.53321 9.9037C7.53125 9.92488 7.51432 10.0781 7.50586 9.97792C7.5036 9.95089 7.49714 9.8417 7.49219 9.85878C7.49152 9.86154 7.49435 9.92225 7.49024 9.92812C7.47593 9.94711 7.46098 9.94116 7.44629 9.95937C7.44238 9.96443 7.44785 10.0252 7.44239 10.0326C7.42611 10.0483 7.40559 10.0325 7.38965 10.0131C7.38377 10.0058 7.38715 9.95423 7.38672 9.94862C7.3799 9.85834 7.37632 9.97884 7.37403 9.98769C7.35983 10.0307 7.34903 9.97335 7.33594 9.98866C7.33256 9.99379 7.3346 10.0494 7.33399 10.056C7.32656 10.107 7.33178 10.0029 7.32715 9.99062C7.31393 9.9577 7.29951 9.9626 7.28614 9.97011C7.28146 9.97405 7.28654 10.0403 7.28223 10.0424C7.25614 10.0541 7.22859 10.0477 7.20313 10.0101C7.1985 10.0026 7.20208 9.95148 7.20118 9.93886C7.1943 9.85516 7.18398 9.96879 7.18165 9.97987C7.17109 10.0296 7.16655 9.98298 7.15723 9.99159C7.11175 10.0346 7.05568 10.0047 7.0127 9.98573C6.95666 9.96132 6.91282 9.91126 6.85938 9.92421C6.85651 9.92914 6.85928 9.994 6.85645 9.9955C6.81881 10.0122 6.78186 9.98549 6.74415 10.0053C6.74109 10.0068 6.74485 10.071 6.74024 10.0775C6.73001 10.0876 6.71738 10.084 6.70704 10.0629C6.70228 10.052 6.70803 9.99708 6.70313 9.98769C6.69134 9.96648 6.67911 9.96158 6.667 9.97206C6.6619 9.97665 6.6693 10.0426 6.66309 10.0453C6.61732 10.052 6.57165 10.0635 6.5254 9.97597C6.52223 9.96974 6.51944 9.83244 6.5127 9.85878C6.51219 9.89691 6.51292 9.94205 6.5127 9.9828C6.44607 10.0048 6.37932 9.95697 6.3125 9.9496C6.31026 9.95375 6.31472 10.0213 6.30957 10.0219C6.27801 10.0208 6.24714 10.0405 6.21485 9.96815C6.21182 9.95796 6.21342 9.83381 6.20411 9.85292C6.2022 9.85669 6.18829 9.87349 6.18457 9.90077C6.18408 9.90497 6.18623 9.96544 6.18165 9.96718C6.15516 9.97601 6.12702 9.96242 6.10059 9.92616C6.0963 9.92015 6.10072 9.8558 6.09766 9.85097C6.07605 9.81787 6.05287 9.86556 6.03223 9.808C6.01837 9.76907 6.023 9.65854 6.01563 9.55019C6.01444 9.53536 6.00632 9.53226 6.00586 9.47011C6.00472 9.31167 6.00854 9.13801 6.00684 8.96913C6.00648 8.9328 5.99523 8.9715 6.00196 8.88417C6.00243 8.87828 6.01065 8.84858 6.0127 8.81874C6.01412 8.79807 6.01174 8.7338 6.01465 8.70741C6.01756 8.68156 6.02057 8.73444 6.0254 8.70351C6.03013 8.67198 6.0286 8.60021 6.03809 8.5912ZM9.60547 9.56874C9.5955 9.46986 9.58867 9.61538 9.59571 9.69179C9.60274 9.76797 9.60851 9.59873 9.60547 9.56874ZM6.04395 9.51698C6.04068 9.58812 6.05243 9.59386 6.04981 9.51991C6.0497 9.51693 6.0441 9.51403 6.04395 9.51698ZM9.81153 9.41835C9.80789 9.37536 9.79727 9.42447 9.80176 9.47792C9.80539 9.52085 9.81597 9.47171 9.81153 9.41835ZM8.2793 9.37733C8.2796 9.43819 8.28619 9.42086 8.28418 9.36464C8.28394 9.36136 8.27922 9.35875 8.2793 9.37733ZM9.97266 9.16933C9.97729 9.17605 9.96137 9.25329 9.96778 9.27675C9.97961 9.31979 9.98793 9.15516 10 9.24355C10.002 9.2614 9.98686 9.41534 9.98536 9.41444L9.96875 9.36659C9.95482 9.28899 9.95162 9.14711 9.97266 9.16933ZM8.6709 9.33241C8.66766 9.40318 8.68033 9.40829 8.67774 9.33437C8.67714 9.33154 8.67104 9.32959 8.6709 9.33241ZM8.01075 9.22011C8.00342 9.3362 8.03169 9.34817 8.0254 9.22597C8.02482 9.21971 8.01121 9.21434 8.01075 9.22011Z" fill="#555961"/>
</svg>
