<svg width="16" height="16" viewBox="0 0 16 16" fill="none" xmlns="http://www.w3.org/2000/svg">
<path d="M2.70478 1.92445C2.72719 1.90491 2.75667 1.92605 2.779 1.95473C2.78554 1.96401 2.78246 2.00146 2.78681 2.01039C2.79625 2.02584 2.8058 2.00668 2.81513 2.02504C2.81816 2.0312 2.81421 2.09178 2.81708 2.09926C2.83481 2.12701 2.85186 2.11146 2.86982 2.12465C2.95844 2.19062 3.04574 2.21416 3.13544 2.24281C3.16505 2.25222 3.20154 2.3098 3.23212 2.28481C3.23545 2.28067 3.23351 2.22845 3.23407 2.22231C3.24473 2.15256 3.24079 2.26412 3.24775 2.27895C3.27531 2.33729 3.30618 2.34216 3.33271 2.32094C3.344 2.31171 3.33311 2.20214 3.34443 2.26332C3.34522 2.26748 3.3423 2.3264 3.3454 2.33266C3.35227 2.34636 3.36512 2.3366 3.37079 2.34047C3.38129 2.34973 3.38332 2.34957 3.39325 2.35023C3.40673 2.35165 3.42271 2.3804 3.4372 2.36781C3.44026 2.36485 3.43649 2.30613 3.44111 2.29457C3.44607 2.28435 3.45914 2.28918 3.46357 2.30336C3.46799 2.31757 3.46669 2.36479 3.46747 2.37563C3.47379 2.46508 3.48848 2.34535 3.49091 2.33754C3.52652 2.28417 3.5571 2.35621 3.59052 2.35609C3.61591 2.35578 3.64351 2.33134 3.66767 2.33461C3.69631 2.33894 3.72087 2.37144 3.74872 2.36586C3.75127 2.36179 3.74814 2.29435 3.75165 2.29359C3.78988 2.28543 3.82784 2.29376 3.86591 2.34145C3.86955 2.34722 3.86507 2.40806 3.86884 2.41664C3.89223 2.46769 3.92917 2.59041 3.94306 2.31996C3.9589 2.33051 3.97772 2.34167 3.99189 2.39613C4.00099 2.43125 3.99239 2.49823 4.00361 2.46938C4.00588 2.46138 4.00298 2.40514 4.00654 2.39906C4.02252 2.37737 4.04052 2.39648 4.05634 2.36586C4.05947 2.35884 4.05836 2.30601 4.05927 2.29652C4.06693 2.21983 4.07993 2.34778 4.08271 2.35707C4.10364 2.42542 4.11892 2.39884 4.13837 2.40004C4.14286 2.40045 4.13834 2.33256 4.14228 2.32777C4.16512 2.31755 4.18925 2.32347 4.21161 2.35512C4.21636 2.36321 4.21222 2.42266 4.21454 2.42934C4.22503 2.4575 4.22695 2.34302 4.237 2.36781C4.23905 2.37329 4.23764 2.42352 4.23798 2.43031C4.244 2.51948 4.24909 2.39445 4.25068 2.39027C4.27036 2.35195 4.28342 2.48425 4.30243 2.46547C4.30422 2.45956 4.30014 2.39774 4.30634 2.39516C4.34885 2.37721 4.39415 2.39538 4.43622 2.44789C4.44233 2.45713 4.43777 2.50537 4.43818 2.51137C4.44479 2.60487 4.4487 2.4825 4.45087 2.47426C4.46774 2.43967 4.48433 2.54615 4.49579 2.39418C4.56713 2.44665 4.63794 2.36203 4.70868 2.4977C4.70957 2.49924 4.70803 2.55991 4.70966 2.56508C4.7313 2.60036 4.72757 2.50288 4.74189 2.38344C4.7455 2.35383 4.75654 2.49788 4.75751 2.50844C4.761 2.54728 4.75737 2.63962 4.75849 2.64809C4.76829 2.70732 4.76675 2.39819 4.77997 2.39809C4.78037 2.39897 4.77789 2.45592 4.779 2.46156C4.78243 2.47903 4.78638 2.45668 4.78974 2.47621C4.79743 2.52167 4.80047 2.67111 4.8122 2.58461C4.81369 2.57326 4.81114 2.39761 4.82294 2.4059C4.8278 2.40926 4.84839 2.40632 4.85419 2.41762C4.86002 2.42898 4.85573 2.48546 4.85614 2.48793C4.87183 2.56255 4.8659 2.59351 4.87372 2.70375C4.88159 2.81397 4.88028 2.55145 4.88349 2.52211C4.88672 2.49324 4.89821 2.55428 4.90107 2.57582C4.90386 2.59702 4.89969 2.63263 4.90204 2.64516C4.91872 2.72444 4.91022 2.51501 4.91572 2.47328C4.92863 2.37496 4.93808 2.5685 4.94989 2.58852C4.95306 2.5936 4.95115 2.55082 4.9538 2.54555C4.9651 2.52972 4.97222 2.59004 4.98505 2.53481C4.98716 2.52573 4.99687 2.40838 5.00361 2.49379C5.00456 2.50617 5.00175 2.55503 5.00654 2.56606C5.01372 2.58235 5.0271 2.59287 5.03486 2.5768C5.04058 2.56478 5.03449 2.48455 5.04169 2.50941C5.04485 2.52063 5.03862 2.56769 5.04462 2.58461C5.05066 2.60129 5.06618 2.59891 5.07197 2.59731C5.07719 2.59284 5.07444 2.53489 5.07489 2.5309C5.07777 2.50769 5.08842 2.47853 5.08954 2.47816C5.1391 2.47077 5.18486 2.57286 5.2331 2.53969C5.23675 2.53722 5.23471 2.47776 5.23505 2.47231C5.24804 2.44548 5.23769 2.61551 5.24677 2.6725C5.24546 2.54256 5.25129 2.56566 5.26044 2.55141C5.26467 2.54365 5.262 2.49401 5.26239 2.48891C5.26892 2.41303 5.27392 2.51171 5.27509 2.53188C5.27942 2.60588 5.28386 2.51839 5.28681 2.56801C5.2897 2.61662 5.28345 2.68807 5.29169 2.6891C5.29413 2.64254 5.28801 2.52155 5.29462 2.5016C5.31977 2.42708 5.36718 2.52197 5.38739 2.53188C5.4074 2.5416 5.41377 2.53368 5.42548 2.55043C5.44666 2.58061 5.43867 2.49012 5.45185 2.44887C5.46489 2.40933 5.45878 2.62926 5.46064 2.67738C5.4625 2.72507 5.46417 2.67656 5.4665 2.70277C5.46875 2.72893 5.464 2.76133 5.46943 2.77113C5.47488 2.78076 5.48995 2.69597 5.49189 2.64613C5.49596 2.54054 5.48924 2.4297 5.50361 2.4684C5.50442 2.47067 5.50165 2.52734 5.50458 2.53481C5.52978 2.57972 5.55656 2.58297 5.58173 2.6227C5.58496 2.62965 5.58176 2.69234 5.58368 2.69691C5.60466 2.73842 5.59759 2.62901 5.60907 2.50746C5.6065 2.66905 5.61272 2.76804 5.62861 2.76918C5.63818 2.76981 5.63706 2.69887 5.64325 2.64906C5.64516 2.63491 5.6518 2.68209 5.65302 2.64906C5.65702 2.54076 5.65042 2.41981 5.66669 2.46742C5.6674 2.46969 5.66534 2.52783 5.66767 2.53285C5.68371 2.55635 5.68558 2.44364 5.70282 2.42934C5.71643 2.41856 5.74101 2.48718 5.75654 2.49867C5.75621 2.68038 5.77108 2.6394 5.77704 2.5143C5.78694 2.51899 5.79776 2.51219 5.80732 2.52895C5.81065 2.53482 5.80888 2.58723 5.80927 2.5934C5.81565 2.68135 5.81976 2.56435 5.82197 2.55629C5.84553 2.50979 5.86491 2.60175 5.88739 2.51137C5.8882 2.50464 5.88929 2.38336 5.89521 2.47426C5.89557 2.48075 5.88855 2.53818 5.89911 2.54262C5.90974 2.54794 5.92946 2.61419 5.94404 2.55629C5.94758 2.54222 5.95636 2.43992 5.96357 2.51918C5.96452 2.53 5.96417 2.56633 5.96552 2.58656C5.97 2.65073 5.97198 2.52385 5.97724 2.63148C5.98251 2.73998 5.99368 2.82158 6.00849 2.74672C6.00904 2.7418 6.01269 2.64358 6.01728 2.64516C6.02465 2.64814 6.035 2.66897 6.04267 2.66859C6.04625 2.66826 6.0442 2.6095 6.04462 2.60414C6.06958 2.56898 6.08725 2.62468 6.11396 2.64906C6.11886 2.65364 6.13375 2.56779 6.14325 2.63539C6.15368 2.70954 6.14275 3.01809 6.16669 2.94496C6.17637 2.91555 6.18837 2.52434 6.20575 2.72719C6.23944 2.67697 6.27061 2.78006 6.30439 2.70863C6.30588 2.70551 6.3106 2.59938 6.31415 2.59731C6.31944 2.59971 6.32308 2.65021 6.32685 2.65395C6.34255 2.66916 6.35665 2.62684 6.37177 2.63246C6.37749 2.63489 6.37596 2.68662 6.38251 2.69106C6.38943 2.69395 6.39464 2.62464 6.404 2.65785C6.41109 2.68345 6.41802 2.82586 6.42743 2.84242C6.42779 2.70223 6.4345 2.70463 6.44599 2.66762C6.44799 2.65906 6.44594 2.6119 6.44697 2.60609C6.45119 2.58127 6.45467 2.62106 6.45868 2.59438C6.45965 2.58789 6.45986 2.54087 6.46064 2.53188C6.46746 2.46137 6.47921 2.56879 6.48114 2.58754C6.48854 2.65858 6.49109 2.59662 6.49677 2.62465C6.5024 2.65267 6.49406 2.68773 6.50068 2.70473C6.5144 2.73991 6.53264 2.73182 6.54657 2.73402C6.55164 2.73249 6.54791 2.67298 6.54853 2.66957C6.56002 2.65338 6.57242 2.72116 6.5788 2.59438C6.58676 2.92243 6.58587 2.56282 6.60224 2.62758C6.60353 2.63291 6.60428 2.7893 6.59931 2.81215C6.59434 2.83387 6.58761 2.78653 6.58075 2.82191C6.579 2.83271 6.56932 2.97625 6.56806 2.985C6.55811 3.05285 6.55687 2.821 6.55634 2.80824C6.55034 2.67045 6.53884 2.82766 6.53583 2.83852C6.52206 2.88819 6.51024 2.85575 6.49872 2.89125C6.49126 2.91503 6.48997 3.06582 6.48407 3.06117C6.46477 3.04277 6.45754 2.83539 6.43915 3.0182C6.43522 3.058 6.43969 3.22307 6.42548 3.09242C6.42435 3.08142 6.41393 2.96589 6.4079 3.04066C6.40714 3.05039 6.40696 3.0991 6.40595 3.10316C6.39923 3.12877 6.39474 3.09067 6.38739 3.10902C6.38001 3.12754 6.37044 3.15478 6.362 3.13832C6.35695 3.12665 6.35074 3.03816 6.34833 3.01625C6.34147 2.95257 6.33404 3.05671 6.32978 2.98012C6.32549 2.9025 6.3342 2.78417 6.32294 2.73402C6.32253 2.86012 6.32166 2.99003 6.32099 3.11684C6.29632 3.1124 6.27152 3.07123 6.24677 3.0768C6.24394 3.07962 6.24707 3.14543 6.24384 3.14809C6.23004 3.15879 6.21809 3.11115 6.2038 3.12953C6.19266 3.14469 6.18029 3.21692 6.16864 3.235C6.16157 3.09152 6.14407 3.13903 6.13154 3.1266C6.12719 3.1221 6.12772 3.08393 6.1247 3.07094C6.11293 3.02458 6.11811 3.1509 6.11493 3.17152C6.10114 3.25663 6.09976 2.97278 6.08368 2.97621C6.0824 2.98352 6.07153 3.12835 6.07001 3.1393C6.0608 3.20135 6.06876 3.0875 6.06318 3.07484C6.05259 3.05409 6.04532 3.01724 6.0329 3.06215C6.02928 3.07549 6.02041 3.17133 6.01337 3.09731C6.01246 3.08774 6.01309 3.03818 6.01239 3.03383C5.99891 2.98422 5.99861 3.14368 5.99091 3.19789C5.9832 3.25197 5.97088 3.14183 5.96845 3.11C5.9622 3.02895 5.97269 3.07346 5.97333 3.06703C5.97735 2.97139 5.96922 2.98702 5.96259 2.97914C5.96163 2.82249 5.95239 2.83187 5.95575 2.97133C5.95614 2.98656 5.96126 2.97198 5.96259 2.97914C5.95676 3.13284 5.94651 3.15207 5.93525 3.00844C5.93003 2.94122 5.93463 2.86358 5.91864 2.89223C5.91166 2.9068 5.91416 3.012 5.9079 3.04164C5.89329 3.10852 5.87417 3.009 5.85907 3.02406C5.85359 3.02982 5.85892 3.08938 5.85517 3.09535C5.84529 3.11086 5.83677 3.06731 5.82685 3.08949C5.82597 3.09155 5.82756 3.14932 5.82489 3.15395C5.80134 3.16112 5.78015 3.12184 5.75556 3.12074C5.7436 3.12108 5.72279 3.15388 5.71064 3.14711C5.68938 3.13538 5.6634 3.04692 5.64521 3.06801C5.63332 3.08198 5.63565 3.14405 5.63056 3.18617C5.62072 3.26719 5.6036 3.1209 5.60126 3.09828C5.59951 3.0838 5.57902 3.07014 5.57489 3.08168C5.57271 3.08808 5.57404 3.14578 5.57294 3.14906C5.54562 3.20148 5.51765 3.21649 5.48993 3.1891C5.48946 3.18795 5.48996 3.12623 5.48896 3.12074C5.47291 3.09161 5.46313 3.17179 5.44989 3.21938C5.43673 3.26641 5.42645 3.25022 5.41864 3.13832C5.40866 3.15248 5.39368 3.10209 5.38544 3.07191C5.37732 3.04352 5.3764 3.16999 5.37568 3.1725C5.3531 3.25282 5.33955 3.17994 5.31611 3.16859C5.30496 3.16339 5.28323 3.18115 5.27118 3.19496C5.26164 3.2062 5.25557 3.17683 5.24677 3.19594C5.24566 3.19991 5.24713 3.25531 5.24677 3.25746C5.23698 3.32514 5.24194 3.18682 5.23993 3.16176C5.23259 3.0716 5.22712 3.02364 5.21454 3.06606C5.21161 3.07821 5.2032 3.27289 5.19794 3.28676C5.19109 3.30155 5.19432 3.23091 5.1872 3.2477C5.1866 3.24908 5.18643 3.29137 5.18232 3.29164C5.16184 3.28323 5.13916 3.25737 5.11786 3.26137C5.11496 3.2618 5.11802 3.33076 5.11396 3.33363C5.0942 3.34191 5.07268 3.33971 5.05341 3.30727C5.04866 3.29898 5.0515 3.24967 5.05048 3.235C5.04429 3.1489 5.03567 3.26898 5.03388 3.27699C4.99854 3.33848 4.97124 3.22334 4.93525 3.27797C4.93329 3.28121 4.91759 3.41843 4.91083 3.30141C4.91037 3.29358 4.90403 3.17301 4.89814 3.25453C4.89777 3.25969 4.90149 3.32238 4.89423 3.31606C4.88697 3.31061 4.87579 3.35036 4.86591 3.28285C4.86275 3.26138 4.85482 3.14111 4.8454 3.23695C4.84474 3.24434 4.83106 3.45973 4.82587 3.31117C4.82503 3.28661 4.82532 3.12858 4.81415 3.20863C4.81201 3.2243 4.8158 3.25982 4.81025 3.28188C4.80158 3.31584 4.79063 3.27389 4.77997 3.34438C4.7781 3.35712 4.76971 3.46385 4.76337 3.38246C4.7624 3.36944 4.76378 3.31706 4.76044 3.31117C4.7446 3.28322 4.72868 3.3176 4.71259 3.28188C4.7069 3.26912 4.70962 3.18432 4.7038 3.16078C4.69783 3.1379 4.68564 3.1159 4.67939 3.15492C4.67326 3.19414 4.67969 3.32817 4.6706 3.34047C4.62988 3.38777 4.58919 3.3082 4.54853 3.29652C4.54252 3.2948 4.54753 3.34315 4.53876 3.34438C4.506 3.348 4.44903 3.39317 4.4206 3.28969C4.39802 3.207 4.42723 3.14367 4.40986 3.11C4.40152 3.09443 4.39243 3.25047 4.39032 3.25746C4.37054 3.30799 4.35636 3.2382 4.33857 3.25941C4.33501 3.26373 4.33826 3.32398 4.33564 3.3307C4.32502 3.34174 4.31357 3.31433 4.30341 3.31898C4.29882 3.32148 4.29884 3.37062 4.29462 3.36684C4.28458 3.35828 4.2761 3.33728 4.2663 3.29164C4.26542 3.28753 4.27124 3.22844 4.26435 3.22426C4.25225 3.22076 4.23725 3.1756 4.22333 3.22231C4.21921 3.23636 4.21851 3.34803 4.20966 3.27113C4.2078 3.25499 4.21024 3.1208 4.19989 3.23695C4.19794 3.25813 4.18101 3.4114 4.17255 3.31117C4.17029 3.28414 4.16383 3.17495 4.15888 3.19203C4.15821 3.19479 4.16104 3.2555 4.15693 3.26137C4.14262 3.28036 4.12767 3.27442 4.11298 3.29262C4.10907 3.29768 4.11454 3.3585 4.10907 3.36586C4.0928 3.38156 4.07227 3.36576 4.05634 3.34633C4.05046 3.33903 4.05384 3.28748 4.05341 3.28188C4.04659 3.1916 4.04301 3.31209 4.04072 3.32094C4.02652 3.36394 4.01572 3.30661 4.00263 3.32191C3.99924 3.32704 4.00128 3.38267 4.00068 3.3893C3.99325 3.44027 3.99847 3.33613 3.99384 3.32387C3.98062 3.29095 3.9662 3.29586 3.95282 3.30336C3.94815 3.3073 3.95323 3.37355 3.94892 3.37563C3.92283 3.38736 3.89528 3.38093 3.86982 3.3434C3.86519 3.33583 3.86876 3.28473 3.86786 3.27211C3.86098 3.18842 3.85067 3.30204 3.84833 3.31313C3.83778 3.36281 3.83324 3.31623 3.82392 3.32484C3.77844 3.36786 3.72236 3.33796 3.67939 3.31898C3.62335 3.29457 3.5795 3.24451 3.52607 3.25746C3.5232 3.26239 3.52597 3.32725 3.52314 3.32875C3.4855 3.34541 3.44855 3.31875 3.41083 3.33852C3.40777 3.34002 3.41154 3.40427 3.40693 3.41078C3.39669 3.42084 3.38407 3.41725 3.37372 3.39613C3.36897 3.38525 3.37471 3.33033 3.36982 3.32094C3.35802 3.29973 3.3458 3.29483 3.33368 3.30531C3.32859 3.3099 3.33599 3.37588 3.32978 3.37856C3.28401 3.38526 3.23834 3.39679 3.19208 3.30922C3.18891 3.30299 3.18612 3.1657 3.17939 3.19203C3.17888 3.23017 3.17961 3.2753 3.17939 3.31606C3.11276 3.33802 3.04601 3.29022 2.97919 3.28285C2.97694 3.287 2.98141 3.35458 2.97626 3.35512C2.94469 3.35404 2.91383 3.37379 2.88154 3.30141C2.8785 3.29121 2.88011 3.16706 2.87079 3.18617C2.86889 3.18994 2.85498 3.20674 2.85126 3.23402C2.85076 3.23822 2.85291 3.29869 2.84833 3.30043C2.82185 3.30927 2.79371 3.29567 2.76728 3.25941C2.76299 3.2534 2.7674 3.18905 2.76435 3.18422C2.74274 3.15112 2.71955 3.19881 2.69892 3.14125C2.68505 3.10232 2.68968 2.99179 2.68232 2.88344C2.68112 2.86861 2.67301 2.86551 2.67255 2.80336C2.67141 2.64493 2.67523 2.47126 2.67353 2.30238C2.67317 2.26605 2.66192 2.30476 2.66864 2.21742C2.66912 2.21154 2.67733 2.18183 2.67939 2.15199C2.68081 2.13133 2.67843 2.06705 2.68134 2.04066C2.68425 2.01481 2.68726 2.06769 2.69208 2.03676C2.69682 2.00524 2.69528 1.93347 2.70478 1.92445ZM6.27216 2.90199C6.26219 2.80311 6.25536 2.94863 6.26239 3.02504C6.26943 3.10122 6.2752 2.93198 6.27216 2.90199ZM2.71064 2.85023C2.70737 2.92137 2.71911 2.92712 2.7165 2.85316C2.71639 2.85019 2.71078 2.84728 2.71064 2.85023ZM6.47822 2.7516C6.47458 2.70861 6.46396 2.75772 6.46845 2.81117C6.47208 2.8541 6.48265 2.80496 6.47822 2.7516ZM4.94599 2.71059C4.94629 2.77144 4.95287 2.75412 4.95087 2.69789C4.95063 2.69461 4.94591 2.692 4.94599 2.71059ZM6.63935 2.50258C6.64398 2.5093 6.62806 2.58654 6.63447 2.61C6.6463 2.65304 6.65461 2.48841 6.66669 2.5768C6.66865 2.59465 6.65355 2.74859 6.65204 2.7477L6.63544 2.69984C6.62151 2.62224 6.61831 2.48036 6.63935 2.50258ZM5.33759 2.66566C5.33435 2.73644 5.34702 2.74154 5.34443 2.66762C5.34383 2.66479 5.33773 2.66284 5.33759 2.66566ZM4.67743 2.55336C4.67011 2.66945 4.69838 2.68143 4.69208 2.55922C4.6915 2.55296 4.67789 2.54759 4.67743 2.55336Z" fill="#555961"/>
<path d="M9.3714 1.92445C9.39382 1.90491 9.42329 1.92605 9.44562 1.95473C9.45216 1.96401 9.44909 2.00146 9.45343 2.01039C9.46288 2.02584 9.47242 2.00668 9.48176 2.02504C9.48478 2.0312 9.48083 2.09178 9.48371 2.09926C9.50144 2.12701 9.51849 2.11146 9.53644 2.12465C9.62507 2.19062 9.71236 2.21416 9.80207 2.24281C9.83168 2.25222 9.86816 2.3098 9.89875 2.28481C9.90207 2.28067 9.90014 2.22845 9.9007 2.22231C9.91136 2.15256 9.90742 2.26412 9.91437 2.27895C9.94193 2.33729 9.9728 2.34216 9.99933 2.32094C10.0106 2.31171 9.99973 2.20214 10.0111 2.26332C10.0118 2.26748 10.0089 2.3264 10.012 2.33266C10.0189 2.34636 10.0317 2.3366 10.0374 2.34047C10.0479 2.34973 10.0499 2.34957 10.0599 2.35023C10.0734 2.35165 10.0893 2.3804 10.1038 2.36781C10.1069 2.36485 10.1031 2.30613 10.1077 2.29457C10.1127 2.28435 10.1258 2.28918 10.1302 2.30336C10.1346 2.31757 10.1333 2.36479 10.1341 2.37563C10.1404 2.46508 10.1551 2.34535 10.1575 2.33754C10.1931 2.28417 10.2237 2.35621 10.2571 2.35609C10.2825 2.35578 10.3101 2.33134 10.3343 2.33461C10.3629 2.33894 10.3875 2.37144 10.4153 2.36586C10.4179 2.36179 10.4148 2.29435 10.4183 2.29359C10.4565 2.28543 10.4945 2.29376 10.5325 2.34145C10.5362 2.34722 10.5317 2.40806 10.5355 2.41664C10.5589 2.46769 10.5958 2.59041 10.6097 2.31996C10.6255 2.33051 10.6444 2.34167 10.6585 2.39613C10.6676 2.43125 10.659 2.49823 10.6702 2.46938C10.6725 2.46138 10.6696 2.40514 10.6732 2.39906C10.6891 2.37737 10.7071 2.39648 10.723 2.36586C10.7261 2.35884 10.725 2.30601 10.7259 2.29652C10.7336 2.21983 10.7466 2.34778 10.7493 2.35707C10.7703 2.42542 10.7855 2.39884 10.805 2.40004C10.8095 2.40045 10.805 2.33256 10.8089 2.32777C10.8317 2.31755 10.8559 2.32347 10.8782 2.35512C10.883 2.36321 10.8788 2.42266 10.8812 2.42934C10.8917 2.4575 10.8936 2.34302 10.9036 2.36781C10.9057 2.37329 10.9043 2.42352 10.9046 2.43031C10.9106 2.51948 10.9157 2.39445 10.9173 2.39027C10.937 2.35195 10.95 2.48425 10.9691 2.46547C10.9708 2.45956 10.9668 2.39774 10.973 2.39516C11.0155 2.37721 11.0608 2.39538 11.1028 2.44789C11.109 2.45713 11.1044 2.50537 11.1048 2.51137C11.1114 2.60487 11.1153 2.4825 11.1175 2.47426C11.1344 2.43967 11.151 2.54615 11.1624 2.39418C11.2338 2.44665 11.3046 2.36203 11.3753 2.4977C11.3762 2.49924 11.3747 2.55991 11.3763 2.56508C11.3979 2.60036 11.3942 2.50288 11.4085 2.38344C11.4121 2.35383 11.4232 2.49788 11.4241 2.50844C11.4276 2.54728 11.424 2.63962 11.4251 2.64809C11.4349 2.70732 11.4334 2.39819 11.4466 2.39809C11.447 2.39897 11.4445 2.45592 11.4456 2.46156C11.4491 2.47903 11.453 2.45668 11.4564 2.47621C11.4641 2.52167 11.4671 2.67111 11.4788 2.58461C11.4803 2.57326 11.4778 2.39761 11.4896 2.4059C11.4944 2.40926 11.515 2.40632 11.5208 2.41762C11.5266 2.42898 11.5224 2.48546 11.5228 2.48793C11.5385 2.56255 11.5325 2.59351 11.5403 2.70375C11.5482 2.81397 11.5469 2.55145 11.5501 2.52211C11.5533 2.49324 11.5648 2.55428 11.5677 2.57582C11.5705 2.59702 11.5663 2.63263 11.5687 2.64516C11.5853 2.72444 11.5768 2.51501 11.5823 2.47328C11.5953 2.37496 11.6047 2.5685 11.6165 2.58852C11.6197 2.5936 11.6178 2.55082 11.6204 2.54555C11.6317 2.52972 11.6388 2.59004 11.6517 2.53481C11.6538 2.52573 11.6635 2.40838 11.6702 2.49379C11.6712 2.50617 11.6684 2.55503 11.6732 2.56606C11.6804 2.58235 11.6937 2.59287 11.7015 2.5768C11.7072 2.56478 11.7011 2.48455 11.7083 2.50941C11.7115 2.52063 11.7052 2.56769 11.7112 2.58461C11.7173 2.60129 11.7328 2.59891 11.7386 2.59731C11.7438 2.59284 11.7411 2.53489 11.7415 2.5309C11.7444 2.50769 11.755 2.47853 11.7562 2.47816C11.8057 2.47077 11.8515 2.57286 11.8997 2.53969C11.9034 2.53722 11.9013 2.47776 11.9017 2.47231C11.9147 2.44548 11.9043 2.61551 11.9134 2.6725C11.9121 2.54256 11.9179 2.56566 11.9271 2.55141C11.9313 2.54365 11.9286 2.49401 11.929 2.48891C11.9355 2.41303 11.9405 2.51171 11.9417 2.53188C11.946 2.60588 11.9505 2.51839 11.9534 2.56801C11.9563 2.61662 11.9501 2.68807 11.9583 2.6891C11.9608 2.64254 11.9546 2.52155 11.9612 2.5016C11.9864 2.42708 12.0338 2.52197 12.054 2.53188C12.074 2.5416 12.0804 2.53368 12.0921 2.55043C12.1133 2.58061 12.1053 2.49012 12.1185 2.44887C12.1315 2.40933 12.1254 2.62926 12.1273 2.67738C12.1291 2.72507 12.1308 2.67656 12.1331 2.70277C12.1354 2.72893 12.1306 2.76133 12.1361 2.77113C12.1415 2.78076 12.1566 2.69597 12.1585 2.64613C12.1626 2.54054 12.1559 2.4297 12.1702 2.4684C12.171 2.47067 12.1683 2.52734 12.1712 2.53481C12.1964 2.57972 12.2232 2.58297 12.2484 2.6227C12.2516 2.62965 12.2484 2.69234 12.2503 2.69691C12.2713 2.73842 12.2642 2.62901 12.2757 2.50746C12.2731 2.66905 12.2793 2.76804 12.2952 2.76918C12.3048 2.76981 12.3037 2.69887 12.3099 2.64906C12.3118 2.63491 12.3184 2.68209 12.3196 2.64906C12.3236 2.54076 12.317 2.41981 12.3333 2.46742C12.334 2.46969 12.332 2.52783 12.3343 2.53285C12.3503 2.55635 12.3522 2.44364 12.3695 2.42934C12.3831 2.41856 12.4076 2.48718 12.4232 2.49867C12.4228 2.68038 12.4377 2.6394 12.4437 2.5143C12.4536 2.51899 12.4644 2.51219 12.4739 2.52895C12.4773 2.53482 12.4755 2.58723 12.4759 2.5934C12.4823 2.68135 12.4864 2.56435 12.4886 2.55629C12.5122 2.50979 12.5315 2.60175 12.554 2.51137C12.5548 2.50464 12.5559 2.38336 12.5618 2.47426C12.5622 2.48075 12.5552 2.53818 12.5657 2.54262C12.5764 2.54794 12.5961 2.61419 12.6107 2.55629C12.6142 2.54222 12.623 2.43992 12.6302 2.51918C12.6311 2.53 12.6308 2.56633 12.6321 2.58656C12.6366 2.65073 12.6386 2.52385 12.6439 2.63148C12.6491 2.73998 12.6603 2.82158 12.6751 2.74672C12.6757 2.7418 12.6793 2.64358 12.6839 2.64516C12.6913 2.64814 12.7016 2.66897 12.7093 2.66859C12.7129 2.66826 12.7108 2.6095 12.7112 2.60414C12.7362 2.56898 12.7539 2.62468 12.7806 2.64906C12.7855 2.65364 12.8004 2.56779 12.8099 2.63539C12.8203 2.70954 12.8094 3.01809 12.8333 2.94496C12.843 2.91555 12.855 2.52434 12.8724 2.72719C12.9061 2.67697 12.9372 2.78006 12.971 2.70863C12.9725 2.70551 12.9772 2.59938 12.9808 2.59731C12.9861 2.59971 12.9897 2.65021 12.9935 2.65395C13.0092 2.66916 13.0233 2.62684 13.0384 2.63246C13.0441 2.63489 13.0426 2.68662 13.0491 2.69106C13.0561 2.69395 13.0613 2.62464 13.0706 2.65785C13.0777 2.68345 13.0846 2.82586 13.0941 2.84242C13.0944 2.70223 13.1011 2.70463 13.1126 2.66762C13.1146 2.65906 13.1126 2.6119 13.1136 2.60609C13.1178 2.58127 13.1213 2.62106 13.1253 2.59438C13.1263 2.58789 13.1265 2.54087 13.1273 2.53188C13.1341 2.46137 13.1458 2.56879 13.1478 2.58754C13.1552 2.65858 13.1577 2.59662 13.1634 2.62465C13.169 2.65267 13.1607 2.68773 13.1673 2.70473C13.181 2.73991 13.1993 2.73182 13.2132 2.73402C13.2183 2.73249 13.2145 2.67298 13.2152 2.66957C13.2266 2.65338 13.239 2.72116 13.2454 2.59438C13.2534 2.92243 13.2525 2.56282 13.2689 2.62758C13.2702 2.63291 13.2709 2.7893 13.2659 2.81215C13.261 2.83387 13.2542 2.78653 13.2474 2.82191C13.2456 2.83271 13.236 2.97625 13.2347 2.985C13.2247 3.05285 13.2235 2.821 13.223 2.80824C13.217 2.67045 13.2055 2.82766 13.2025 2.83852C13.1887 2.88819 13.1769 2.85575 13.1653 2.89125C13.1579 2.91503 13.1566 3.06582 13.1507 3.06117C13.1314 3.04277 13.1242 2.83539 13.1058 3.0182C13.1018 3.058 13.1063 3.22307 13.0921 3.09242C13.091 3.08142 13.0806 2.96589 13.0745 3.04066C13.0738 3.05039 13.0736 3.0991 13.0726 3.10316C13.0659 3.12877 13.0614 3.09067 13.054 3.10902C13.0466 3.12754 13.0371 3.15478 13.0286 3.13832C13.0236 3.12665 13.0174 3.03816 13.015 3.01625C13.0081 2.95257 13.0007 3.05671 12.9964 2.98012C12.9921 2.9025 13.0008 2.78417 12.9896 2.73402C12.9892 2.86012 12.9883 2.99003 12.9876 3.11684C12.9629 3.1124 12.9381 3.07123 12.9134 3.0768C12.9106 3.07962 12.9137 3.14543 12.9105 3.14809C12.8967 3.15879 12.8847 3.11115 12.8704 3.12953C12.8593 3.14469 12.8469 3.21692 12.8353 3.235C12.8282 3.09152 12.8107 3.13903 12.7982 3.1266C12.7938 3.1221 12.7943 3.08393 12.7913 3.07094C12.7796 3.02458 12.7847 3.1509 12.7816 3.17152C12.7678 3.25663 12.7664 2.97278 12.7503 2.97621C12.749 2.98352 12.7382 3.12835 12.7366 3.1393C12.7274 3.20135 12.7354 3.0875 12.7298 3.07484C12.7192 3.05409 12.7119 3.01724 12.6995 3.06215C12.6959 3.07549 12.687 3.17133 12.68 3.09731C12.6791 3.08774 12.6797 3.03818 12.679 3.03383C12.6655 2.98422 12.6652 3.14368 12.6575 3.19789C12.6498 3.25197 12.6375 3.14183 12.6351 3.11C12.6288 3.02895 12.6393 3.07346 12.64 3.06703C12.644 2.97139 12.6358 2.98702 12.6292 2.97914C12.6283 2.82249 12.619 2.83187 12.6224 2.97133C12.6228 2.98656 12.6279 2.97198 12.6292 2.97914C12.6234 3.13284 12.6131 3.15207 12.6019 3.00844C12.5967 2.94122 12.6013 2.86358 12.5853 2.89223C12.5783 2.9068 12.5808 3.012 12.5745 3.04164C12.5599 3.10852 12.5408 3.009 12.5257 3.02406C12.5202 3.02982 12.5255 3.08938 12.5218 3.09535C12.5119 3.11086 12.5034 3.06731 12.4935 3.08949C12.4926 3.09155 12.4942 3.14932 12.4915 3.15395C12.468 3.16112 12.4468 3.12184 12.4222 3.12074C12.4102 3.12108 12.3894 3.15388 12.3773 3.14711C12.356 3.13538 12.33 3.04692 12.3118 3.06801C12.2999 3.08198 12.3023 3.14405 12.2972 3.18617C12.2873 3.26719 12.2702 3.1209 12.2679 3.09828C12.2661 3.0838 12.2456 3.07014 12.2415 3.08168C12.2393 3.08808 12.2407 3.14578 12.2396 3.14906C12.2122 3.20148 12.1843 3.21649 12.1566 3.1891C12.1561 3.18795 12.1566 3.12623 12.1556 3.12074C12.1395 3.09161 12.1298 3.17179 12.1165 3.21938C12.1034 3.26641 12.0931 3.25022 12.0853 3.13832C12.0753 3.15248 12.0603 3.10209 12.0521 3.07191C12.0439 3.04352 12.043 3.16999 12.0423 3.1725C12.0197 3.25282 12.0062 3.17994 11.9827 3.16859C11.9716 3.16339 11.9499 3.18115 11.9378 3.19496C11.9283 3.2062 11.9222 3.17683 11.9134 3.19594C11.9123 3.19991 11.9138 3.25531 11.9134 3.25746C11.9036 3.32514 11.9086 3.18682 11.9066 3.16176C11.8992 3.0716 11.8937 3.02364 11.8812 3.06606C11.8782 3.07821 11.8698 3.27289 11.8646 3.28676C11.8577 3.30155 11.8609 3.23091 11.8538 3.2477C11.8532 3.24908 11.8531 3.29137 11.8489 3.29164C11.8285 3.28323 11.8058 3.25737 11.7845 3.26137C11.7816 3.2618 11.7846 3.33076 11.7806 3.33363C11.7608 3.34191 11.7393 3.33971 11.72 3.30727C11.7153 3.29898 11.7181 3.24967 11.7171 3.235C11.7109 3.1489 11.7023 3.26898 11.7005 3.27699C11.6652 3.33848 11.6379 3.22334 11.6019 3.27797C11.5999 3.28121 11.5842 3.41843 11.5775 3.30141C11.577 3.29358 11.5707 3.17301 11.5648 3.25453C11.5644 3.25969 11.5681 3.32238 11.5609 3.31606C11.5536 3.31061 11.5424 3.35036 11.5325 3.28285C11.5294 3.26138 11.5214 3.14111 11.512 3.23695C11.5114 3.24434 11.4977 3.45973 11.4925 3.31117C11.4917 3.28661 11.492 3.12858 11.4808 3.20863C11.4786 3.2243 11.4824 3.25982 11.4769 3.28188C11.4682 3.31584 11.4573 3.27389 11.4466 3.34438C11.4447 3.35712 11.4363 3.46385 11.43 3.38246C11.429 3.36944 11.4304 3.31706 11.4271 3.31117C11.4112 3.28322 11.3953 3.3176 11.3792 3.28188C11.3735 3.26912 11.3762 3.18432 11.3704 3.16078C11.3645 3.1379 11.3523 3.1159 11.346 3.15492C11.3399 3.19414 11.3463 3.32817 11.3372 3.34047C11.2965 3.38777 11.2558 3.3082 11.2152 3.29652C11.2091 3.2948 11.2142 3.34315 11.2054 3.34438C11.1726 3.348 11.1157 3.39317 11.0872 3.28969C11.0646 3.207 11.0939 3.14367 11.0765 3.11C11.0681 3.09443 11.0591 3.25047 11.057 3.25746C11.0372 3.30799 11.023 3.2382 11.0052 3.25941C11.0016 3.26373 11.0049 3.32398 11.0023 3.3307C10.9916 3.34174 10.9802 3.31433 10.97 3.31898C10.9654 3.32148 10.9655 3.37062 10.9612 3.36684C10.9512 3.35828 10.9427 3.33728 10.9329 3.29164C10.932 3.28753 10.9379 3.22844 10.931 3.22426C10.9189 3.22076 10.9039 3.1756 10.89 3.22231C10.8858 3.23636 10.8851 3.34803 10.8763 3.27113C10.8744 3.25499 10.8769 3.1208 10.8665 3.23695C10.8646 3.25813 10.8476 3.4114 10.8392 3.31117C10.8369 3.28414 10.8305 3.17495 10.8255 3.19203C10.8248 3.19479 10.8277 3.2555 10.8236 3.26137C10.8092 3.28036 10.7943 3.27442 10.7796 3.29262C10.7757 3.29768 10.7812 3.3585 10.7757 3.36586C10.7594 3.38156 10.7389 3.36576 10.723 3.34633C10.7171 3.33903 10.7205 3.28748 10.72 3.28188C10.7132 3.1916 10.7096 3.31209 10.7073 3.32094C10.6931 3.36394 10.6823 3.30661 10.6693 3.32191C10.6659 3.32704 10.6679 3.38267 10.6673 3.3893C10.6599 3.44027 10.6651 3.33613 10.6605 3.32387C10.6472 3.29095 10.6328 3.29586 10.6195 3.30336C10.6148 3.3073 10.6199 3.37355 10.6155 3.37563C10.5895 3.38736 10.5619 3.38093 10.5364 3.3434C10.5318 3.33583 10.5354 3.28473 10.5345 3.27211C10.5276 3.18842 10.5173 3.30204 10.515 3.31313C10.5044 3.36281 10.4999 3.31623 10.4905 3.32484C10.4451 3.36786 10.389 3.33796 10.346 3.31898C10.29 3.29457 10.2461 3.24451 10.1927 3.25746C10.1898 3.26239 10.1926 3.32725 10.1898 3.32875C10.1521 3.34541 10.1152 3.31875 10.0775 3.33852C10.0744 3.34002 10.0782 3.40427 10.0736 3.41078C10.0633 3.42084 10.0507 3.41725 10.0403 3.39613C10.0356 3.38525 10.0413 3.33033 10.0364 3.32094C10.0247 3.29973 10.0124 3.29483 10.0003 3.30531C9.99522 3.3099 10.0026 3.37588 9.9964 3.37856C9.95063 3.38526 9.90496 3.39679 9.85871 3.30922C9.85554 3.30299 9.85275 3.1657 9.84601 3.19203C9.84551 3.23017 9.84623 3.2753 9.84601 3.31606C9.77938 3.33802 9.71264 3.29022 9.64582 3.28285C9.64357 3.287 9.64803 3.35458 9.64289 3.35512C9.61132 3.35404 9.58045 3.37379 9.54816 3.30141C9.54513 3.29121 9.54673 3.16706 9.53742 3.18617C9.53551 3.18994 9.5216 3.20674 9.51789 3.23402C9.51739 3.23822 9.51954 3.29869 9.51496 3.30043C9.48847 3.30927 9.46034 3.29567 9.4339 3.25941C9.42961 3.2534 9.43403 3.18905 9.43097 3.18422C9.40937 3.15112 9.38618 3.19881 9.36554 3.14125C9.35168 3.10232 9.35631 2.99179 9.34894 2.88344C9.34775 2.86861 9.33963 2.86551 9.33918 2.80336C9.33804 2.64493 9.34185 2.47126 9.34015 2.30238C9.33979 2.26605 9.32854 2.30476 9.33527 2.21742C9.33575 2.21154 9.34396 2.18183 9.34601 2.15199C9.34744 2.13133 9.34505 2.06705 9.34797 2.04066C9.35088 2.01481 9.35389 2.06769 9.35871 2.03676C9.36344 2.00524 9.36191 1.93347 9.3714 1.92445ZM12.9388 2.90199C12.9288 2.80311 12.922 2.94863 12.929 3.02504C12.9361 3.10122 12.9418 2.93198 12.9388 2.90199ZM9.37726 2.85023C9.37399 2.92137 9.38574 2.92712 9.38312 2.85316C9.38302 2.85019 9.37741 2.84728 9.37726 2.85023ZM13.1448 2.7516C13.1412 2.70861 13.1306 2.75772 13.1351 2.81117C13.1387 2.8541 13.1493 2.80496 13.1448 2.7516ZM11.6126 2.71059C11.6129 2.77144 11.6195 2.75412 11.6175 2.69789C11.6173 2.69461 11.6125 2.692 11.6126 2.71059ZM13.306 2.50258C13.3106 2.5093 13.2947 2.58654 13.3011 2.61C13.3129 2.65304 13.3212 2.48841 13.3333 2.5768C13.3353 2.59465 13.3202 2.74859 13.3187 2.7477L13.3021 2.69984C13.2881 2.62224 13.2849 2.48036 13.306 2.50258ZM12.0042 2.66566C12.001 2.73644 12.0136 2.74154 12.0111 2.66762C12.0105 2.66479 12.0044 2.66284 12.0042 2.66566ZM11.3441 2.55336C11.3367 2.66945 11.365 2.68143 11.3587 2.55922C11.3581 2.55296 11.3445 2.54759 11.3441 2.55336Z" fill="#555961"/>
<path d="M4.98405 4.88895C5.04188 4.81921 5.02344 4.93077 5.0612 4.94559C5.14879 4.97974 5.24246 4.99527 5.33366 4.99833C5.41453 5.00047 5.49424 5.00232 5.56999 5.00419C5.64729 5.00653 5.58857 4.88603 5.65691 4.96024C5.66145 4.96534 5.63149 5.01947 5.65105 5.02958C5.69514 5.05175 5.78408 5.06457 5.81804 5.08036C5.8828 5.11054 5.89395 5.11376 5.95573 5.13895C6.04048 5.17475 6.12266 5.24966 6.21062 5.29032C6.22955 5.29819 6.23896 5.23233 6.27312 5.24247C6.30791 5.25243 6.3787 5.31149 6.39323 5.34208C6.40813 5.37234 6.36864 5.40066 6.36589 5.41239C6.33957 5.50795 6.49555 5.48021 6.50847 5.48954L6.50945 5.49051C6.71964 5.62799 6.77841 5.85337 6.86003 6.05594C6.92379 6.21243 6.98741 6.38839 6.9948 6.55301C6.99662 6.59183 6.99539 6.6295 6.99284 6.6663C6.98257 6.78508 6.96297 6.89445 6.96745 7.0159C6.96797 7.03186 7.0384 7.01331 7.03972 7.03251C7.04795 7.24026 7.03956 7.44674 6.99187 7.6536C6.98705 7.67421 6.92593 7.64833 6.91667 7.66825C6.86563 7.79519 6.74304 7.99614 7.01335 8.07157C7.00279 8.15756 6.99168 8.26221 6.93718 8.33915C6.90209 8.38875 6.83506 8.34071 6.86394 8.40165C6.87073 8.41511 6.9291 8.39771 6.93425 8.41825C6.95592 8.50501 6.93684 8.6 6.96745 8.68583C6.97418 8.70303 7.02727 8.69848 7.03679 8.7034C7.11349 8.745 6.98553 8.81431 6.97624 8.82938C6.90712 8.94412 6.93496 9.02811 6.93327 9.13505C6.93297 9.15978 7.00339 9.13069 7.00554 9.15458C7.01574 9.27848 7.00983 9.40728 6.9782 9.5286C6.97042 9.55482 6.91061 9.53053 6.90398 9.54325C6.87581 9.60014 6.99029 9.61271 6.9655 9.66727C6.96042 9.67856 6.90997 9.67229 6.903 9.67411C6.81333 9.70695 6.94023 9.73597 6.94304 9.74442C6.98111 9.85114 6.84907 9.91959 6.86784 10.0227C6.87117 10.0343 6.93494 10.0076 6.93816 10.0413C6.95632 10.2725 6.93805 10.5175 6.88542 10.7464C6.87733 10.782 6.82804 10.7568 6.82195 10.7591C6.72792 10.7952 6.85216 10.8187 6.85905 10.8304C6.89364 10.9219 6.78716 11.0074 6.93913 11.0696C6.89681 11.3807 6.94351 11.6913 6.89323 12.0003C6.88086 12.0892 6.85422 12.1764 6.81316 12.2561C6.80792 12.2599 6.75049 12.2408 6.74577 12.2503C6.68648 12.367 6.78746 12.3612 6.87566 12.4856C6.89528 12.5186 6.73861 12.5372 6.72527 12.5374C6.6816 12.5429 6.60292 12.4886 6.59245 12.4915C6.51784 12.5179 6.80589 12.6304 6.76921 12.7102C6.76759 12.7124 6.72075 12.6781 6.71257 12.6819C6.68771 12.6933 6.69763 12.7226 6.67058 12.7317C6.60676 12.7529 6.47187 12.686 6.50847 12.7893C6.51368 12.8034 6.6673 12.8887 6.61589 12.9466C6.59626 12.9699 6.51174 13.0756 6.47624 13.094C6.44201 13.1131 6.41941 13.0556 6.4157 13.0559C6.40704 13.0572 6.39872 13.0575 6.39128 13.0579C6.2959 13.0618 6.29164 13.0184 6.19402 12.969C6.0912 12.9125 6.27036 13.1047 6.27409 13.1399C6.27717 13.1753 6.18414 13.1693 6.15886 13.1604C6.13322 13.1523 6.12847 13.1115 6.11003 13.1097C5.99142 13.0951 6.14853 13.2408 6.14323 13.2942C6.12352 13.4226 5.97154 13.2822 5.90495 13.2903C5.88614 13.293 5.91694 13.3274 5.90398 13.3382C5.84698 13.3791 5.78991 13.3349 5.73308 13.4095C5.72528 13.4214 5.68886 13.5526 5.62956 13.4768C5.62159 13.4658 5.62772 13.4151 5.59831 13.4095C5.55377 13.4016 5.47875 13.4002 5.43523 13.4192C5.40309 13.4336 5.44688 13.511 5.40202 13.4886C5.38254 13.4782 5.41503 13.4299 5.37956 13.4143C5.36837 13.4093 5.35187 13.4067 5.33366 13.4046C5.29689 13.4 5.25168 13.4015 5.23015 13.4026C5.19866 13.4043 5.21605 13.4648 5.21355 13.469C5.19813 13.4925 5.13686 13.5218 5.13152 13.5218C4.86208 13.5291 4.61358 13.4264 4.35124 13.4602C4.33146 13.4627 4.34329 13.522 4.34148 13.5276C4.27095 13.5545 4.32629 13.3844 4.27702 13.3274C4.28414 13.4574 4.25444 13.4343 4.20476 13.4485C4.18151 13.4561 4.19423 13.5059 4.19206 13.511C4.15664 13.5869 4.13201 13.4882 4.12566 13.4681C4.10216 13.394 4.07622 13.4815 4.06023 13.4319C4.04441 13.3827 4.08109 13.3101 4.03386 13.3108C4.02058 13.3574 4.05536 13.4786 4.01921 13.4983C4.01301 13.5017 4.00634 13.5054 3.99968 13.5081C3.83519 13.5703 3.5782 13.4267 3.48112 13.3733C3.37314 13.3205 3.3355 13.308 3.28288 13.26C3.19154 13.17 3.18352 13.2695 3.09148 13.2561C2.9991 13.2389 3.16692 13.0879 3.18718 13.0432C3.20875 12.9996 3.1705 13.0314 3.17741 13.0032C3.18491 12.9754 3.22438 12.9667 3.20964 12.9417C3.19661 12.9199 3.1027 12.9275 3.05241 12.9475C3.04766 12.9496 3.04347 12.952 3.03972 12.9544C2.94834 13.0117 2.89589 13.1185 2.86296 13.0257C2.86343 13.0197 2.91472 12.9936 2.90691 12.9759C2.84101 12.8351 2.76225 12.7044 2.74089 12.5579C2.73857 12.5381 2.80407 12.5274 2.80339 12.5159C2.79987 12.3983 2.71423 12.4768 2.57683 12.4495C2.73544 12.4141 2.81695 12.3514 2.80046 12.2757C2.79082 12.2289 2.72365 12.2505 2.66862 12.2259C2.65194 12.218 2.69414 12.1745 2.66081 12.1722C2.55065 12.1628 2.43199 12.2149 2.47136 12.1077C2.47486 12.1036 2.53426 12.1128 2.53679 12.0979C2.54487 12.0523 2.52477 12.0272 2.49968 12.0003C2.47164 11.9736 2.43662 11.9465 2.42937 11.8968C2.41882 11.8229 2.48726 11.6918 2.4987 11.6077C2.6804 11.6095 2.63941 11.5297 2.51433 11.4973C2.51946 11.4427 2.51164 11.3832 2.52898 11.3304C2.53512 11.3127 2.58677 11.3245 2.59343 11.3225C2.6827 11.2874 2.5611 11.2631 2.55632 11.2513C2.50988 11.1235 2.60152 11.0197 2.5114 10.8977C2.50814 10.8934 2.38202 10.8854 2.47429 10.8528C2.48127 10.8513 2.53813 10.891 2.54265 10.8343C2.5471 10.7769 2.61441 10.6688 2.55632 10.5891C2.54225 10.5699 2.43995 10.5208 2.51921 10.4817C2.53006 10.4765 2.5664 10.4814 2.58659 10.4739C2.65075 10.4496 2.52397 10.437 2.63152 10.4085C2.74002 10.3799 2.82161 10.3199 2.74675 10.2395C2.74223 10.2366 2.64361 10.2176 2.64519 10.1927C2.64785 10.1523 2.66925 10.0951 2.66862 10.053C2.66828 10.0335 2.60889 10.0447 2.60417 10.0423C2.56895 9.9066 2.62477 9.80969 2.64909 9.66434C2.65308 9.63749 2.56827 9.56146 2.63542 9.51005C2.7096 9.45341 3.01842 9.51127 2.94499 9.38114C2.91558 9.32863 2.52437 9.26261 2.72722 9.16825C2.67696 8.98527 2.78037 8.8156 2.70866 8.63212C2.70549 8.62388 2.59624 8.5978 2.59734 8.5784C2.59975 8.5496 2.65061 8.53354 2.65398 8.51297C2.66932 8.42683 2.6257 8.34799 2.63249 8.26493C2.635 8.23356 2.68776 8.24439 2.69109 8.20731C2.69399 8.16971 2.6243 8.14401 2.65788 8.09305C2.68354 8.05458 2.82589 8.01619 2.84245 7.96512C2.70226 7.96318 2.70466 7.92787 2.66765 7.86551C2.6596 7.85424 2.61197 7.86623 2.60612 7.86063C2.58144 7.83763 2.6217 7.81607 2.59441 7.79422C2.58777 7.78895 2.54042 7.78873 2.53191 7.78446C2.4614 7.74741 2.56882 7.68655 2.58757 7.67606C2.65864 7.63592 2.59665 7.61702 2.62468 7.58622C2.65269 7.55581 2.68778 7.60158 2.70476 7.56571C2.73993 7.49121 2.73185 7.39527 2.73405 7.31962C2.7344 7.28988 2.67187 7.30988 2.6696 7.30594C2.65341 7.24358 2.72117 7.18043 2.59441 7.14579C2.92267 7.10259 2.56238 7.10784 2.62761 7.01883C2.63294 7.0118 2.78933 7.00259 2.81218 7.02958C2.83494 7.05656 2.78634 7.09762 2.82195 7.13505C2.83136 7.14421 2.97623 7.19455 2.98503 7.20145C3.05383 7.25568 2.82104 7.26401 2.80827 7.26688C2.67114 7.29933 2.8266 7.3606 2.83855 7.37723C2.8883 7.452 2.85577 7.51586 2.89128 7.5784C2.91443 7.61921 3.06586 7.62346 3.0612 7.65555C3.0456 7.7622 2.83403 7.79913 3.01823 7.89969C3.05758 7.92125 3.22338 7.90053 3.09245 7.97782C3.08114 7.98411 2.96618 8.03987 3.0407 8.07255C3.05025 8.07671 3.09912 8.07682 3.1032 8.08231C3.12943 8.11906 3.09057 8.14382 3.10905 8.18387C3.12754 8.2239 3.15465 8.27195 3.13835 8.31766C3.12854 8.34517 3.03874 8.38054 3.01628 8.39383C2.95261 8.43107 3.05669 8.4713 2.98015 8.49442C2.90253 8.51772 2.7842 8.47239 2.73405 8.53348C2.86015 8.53575 2.99006 8.54059 3.11687 8.54422C3.11243 8.67811 3.07126 8.81029 3.07683 8.94462C3.07804 8.96102 3.1455 8.94439 3.14812 8.96219C3.15873 9.03733 3.11051 9.10303 3.12956 9.18094C3.14472 9.24141 3.21695 9.30815 3.23503 9.37137C3.09091 9.40995 3.13966 9.50343 3.12663 9.57157C3.12211 9.59525 3.08384 9.59407 3.07097 9.61063C3.02461 9.67449 3.1509 9.64517 3.17155 9.66239C3.25719 9.73773 2.96911 9.74447 2.97624 9.83329C2.98141 9.83959 3.1297 9.89574 3.13933 9.9036C3.2018 9.95394 3.08624 9.91214 3.07487 9.94364C3.05412 10.0009 3.01755 10.0405 3.06218 10.1077C3.07552 10.1274 3.17133 10.175 3.09734 10.2132C3.08762 10.2182 3.03684 10.216 3.03386 10.22C2.98481 10.2929 3.14367 10.2946 3.19792 10.3362C3.25202 10.3781 3.14182 10.4432 3.11003 10.4563C3.02868 10.4904 3.07389 10.4311 3.06706 10.428C2.97103 10.4061 2.98729 10.4535 2.97917 10.4895C2.82252 10.4948 2.83191 10.5449 2.97136 10.5266C2.98651 10.5246 2.97229 10.497 2.97917 10.4895C3.13283 10.5212 3.15209 10.5758 3.00847 10.637C2.9412 10.6655 2.86357 10.639 2.89226 10.7259C2.90522 10.7653 3.01226 10.7506 3.04167 10.7854C3.10871 10.865 3.00829 10.9681 3.02409 11.0501C3.02985 11.0799 3.08941 11.0512 3.09538 11.0716C3.11105 11.1253 3.06709 11.1728 3.08952 11.2268C3.09164 11.2317 3.15257 11.2201 3.15398 11.2366C3.16115 11.3645 3.12187 11.4762 3.12077 11.6097C3.12032 11.6741 3.15382 11.7889 3.14714 11.8557C3.14264 11.901 3.12614 11.9511 3.10905 12.0003C3.08233 12.051 3.05978 12.109 3.07976 12.1487C3.10125 12.1907 3.16114 12.1682 3.20573 12.1761C3.29026 12.1872 3.16713 12.2814 3.15007 12.3001C3.14907 12.3005 3.12285 12.2689 3.09929 12.2981C3.04124 12.3309 3.14976 12.3 3.15007 12.3001C3.13748 12.3105 3.15352 12.3864 3.17155 12.3948C3.18123 12.3989 3.22992 12.3707 3.23503 12.3723C3.32304 12.4337 3.38236 12.49 3.42741 12.5725L3.42839 12.5755C3.42872 12.5774 3.38263 12.6207 3.38249 12.6263C3.40432 12.6882 3.48772 12.652 3.54851 12.637C3.60989 12.6225 3.62368 12.6488 3.59538 12.761C3.63208 12.7648 3.6568 12.8302 3.67644 12.8694C3.69602 12.9083 3.74007 12.7918 3.74382 12.7874C3.83808 12.7322 3.85722 12.8104 3.93816 12.8294C3.95365 12.8329 3.97628 12.8314 3.99968 12.8274C4.05214 12.8219 4.10899 12.8131 4.14714 12.805C4.19891 12.7937 4.23033 12.823 4.278 12.804C4.28445 12.8014 4.27801 12.7448 4.27995 12.7425C4.33324 12.6745 4.30801 12.8134 4.31902 12.8382C4.35889 12.9283 4.3836 12.9763 4.45183 12.9339C4.46775 12.9222 4.51312 12.726 4.54167 12.7132C4.57897 12.6983 4.56511 12.7696 4.60417 12.7522C4.60745 12.7505 4.60686 12.7067 4.63054 12.7083C4.74243 12.7168 4.86485 12.743 4.98112 12.7386C4.9968 12.7378 4.97678 12.6681 4.99968 12.6663C5.10717 12.658 5.22501 12.66 5.32976 12.6927C5.33093 12.693 5.33266 12.6941 5.33366 12.6946C5.34442 12.7063 5.3375 12.7511 5.3405 12.7649C5.36297 12.853 5.3868 12.7228 5.38933 12.72C5.47932 12.6513 5.58839 12.7404 5.66569 12.6409C5.67191 12.6342 5.63593 12.4972 5.71355 12.5862C5.71795 12.5927 5.80374 12.6807 5.77116 12.6028C5.76881 12.5981 5.72389 12.554 5.74382 12.5472C5.76412 12.5388 5.76124 12.49 5.8278 12.5198C5.83706 12.5239 5.8601 12.5387 5.88054 12.5472C5.90829 12.5589 5.93256 12.5574 5.903 12.5081C5.90193 12.4995 5.7577 12.3344 5.88347 12.4153C5.90455 12.4288 6.03075 12.5239 5.98601 12.4466C5.97665 12.4322 5.94131 12.4218 5.9323 12.3958C5.91748 12.3573 5.97139 12.3483 5.92155 12.2903C5.91317 12.2792 5.82325 12.2187 5.90398 12.2366C5.91733 12.2395 5.96334 12.2644 5.97234 12.2581C6.01594 12.2257 5.99552 12.1703 6.03972 12.1321C6.05552 12.1179 6.13801 12.1408 6.16374 12.1243C6.1895 12.1079 6.2154 12.0659 6.17741 12.0423C6.13901 12.0202 6.00433 12.0352 5.99284 12.01C5.99154 12.0069 5.99008 12.0034 5.98894 12.0003C5.95015 11.7859 6.02545 11.5729 6.03679 11.3587C6.03835 11.3262 5.98986 11.3531 5.98894 11.305C5.98531 11.1272 5.94029 10.8206 6.04362 10.6663C6.12651 10.5426 6.18958 10.6973 6.22331 10.6028C6.23801 10.5574 6.08081 10.5083 6.07585 10.4973C6.02526 10.3898 6.0954 10.3148 6.0739 10.2181C6.06893 10.1985 6.00568 10.2174 6.00261 10.2005C5.99171 10.1426 6.0194 10.0819 6.01433 10.0266C6.01183 10.0017 5.9627 10.0056 5.96648 9.9827C5.97498 9.92803 5.99592 9.87976 6.04167 9.82645C6.04585 9.82158 6.10672 9.85422 6.10905 9.81376C6.11255 9.74811 6.15774 9.66663 6.11101 9.5911C6.09696 9.56871 5.98544 9.56781 6.06218 9.51981C6.07833 9.5097 6.21251 9.52222 6.09636 9.4661C6.07539 9.45561 5.92183 9.36167 6.02214 9.31571C6.04945 9.30337 6.15848 9.27221 6.14128 9.2454C6.13719 9.24222 6.07776 9.2567 6.07195 9.23465C6.05233 9.15597 6.0595 9.0733 6.0407 8.99247C6.03556 8.97091 5.97334 9.00287 5.96745 8.97098C5.95173 8.88247 5.96751 8.7714 5.98698 8.68485C5.99464 8.65355 6.04585 8.67544 6.05144 8.67313C6.14251 8.63581 6.01955 8.61325 6.01237 8.60087C5.9697 8.52401 6.02651 8.46567 6.0114 8.39481C6.00739 8.3755 5.95072 8.38838 5.94402 8.38505C5.8929 8.34461 5.99767 8.37441 6.00945 8.34891C6.04236 8.27714 6.03746 8.19688 6.02995 8.1243C6.0266 8.0982 5.95944 8.12763 5.95769 8.1038C5.94598 7.96227 5.95242 7.81515 5.98991 7.67704C5.99707 7.65113 6.04894 7.66663 6.0612 7.66141C6.14498 7.62403 6.03107 7.56953 6.02019 7.55692C5.97069 7.49975 6.01698 7.4775 6.00847 7.42704C5.96695 7.18875 5.99338 6.89609 6.01237 6.6663C6.01306 6.66202 6.01374 6.6578 6.01433 6.6536C6.03476 6.5009 6.0355 6.34716 5.92839 6.22196C5.92174 6.21437 5.87285 6.2634 5.86589 6.25907C5.84411 6.23856 5.82383 6.21739 5.80339 6.19657C5.75309 6.14517 5.6978 6.09313 5.62566 6.07352C5.61765 6.07132 5.59852 6.13593 5.58562 6.13505C5.55913 6.13353 5.53321 6.11882 5.5153 6.0911C5.50652 6.07743 5.53943 6.02857 5.52898 6.0159C5.50383 5.98624 5.46769 5.97316 5.4323 5.9788C5.41795 5.98226 5.42888 6.05159 5.41179 6.05008C5.38562 6.04829 5.35958 6.04831 5.33366 6.04911C5.14286 6.05186 4.9524 6.04351 4.75847 5.97587C4.74139 5.96835 4.72644 5.8327 4.69011 5.85868C4.68735 5.89681 4.68741 5.94194 4.6862 5.9827C4.45671 5.99664 4.22834 5.9821 3.99968 5.96805C3.93083 5.95997 3.85869 5.96242 3.78972 5.98075C3.78304 5.98426 3.81606 6.04892 3.80241 6.05301C3.72113 6.07903 3.66707 6.13002 3.55241 6.13114C3.54064 6.131 3.46169 6.03013 3.45085 6.06571C3.44987 6.06936 3.44186 6.08605 3.43816 6.10477C3.43543 6.11835 3.43484 6.13333 3.44011 6.14481C3.44382 6.14973 3.49049 6.18405 3.48308 6.19462C3.43871 6.25662 3.38643 6.31247 3.32097 6.37137C3.31028 6.38102 3.25709 6.3427 3.2487 6.34989C3.18838 6.40597 3.21406 6.49366 3.14812 6.55497C3.10361 6.59854 2.99669 6.56977 2.8864 6.59403C2.87066 6.59774 2.8663 6.63699 2.80339 6.63797C2.64477 6.64112 2.47155 6.6111 2.30241 6.61649C2.26632 6.61841 2.3046 6.69923 2.21745 6.65067C2.21137 6.64737 2.18356 6.58608 2.15495 6.56864C2.13502 6.5566 2.0698 6.5734 2.0446 6.54911C2.01976 6.52394 2.07521 6.50227 2.04851 6.46122C2.02177 6.41929 1.94555 6.42804 1.9489 6.34598C1.9566 6.15464 2.05404 5.91647 2.16374 5.76395C2.19775 5.71588 2.22056 5.76072 2.24577 5.72977C2.29525 5.67006 2.31574 5.59902 2.3737 5.54715C2.39297 5.53051 2.42729 5.59126 2.44597 5.57352C2.52811 5.49599 2.59058 5.41191 2.67058 5.33719C2.68958 5.31949 2.70993 5.30241 2.73112 5.28641C3.1051 5.00397 3.556 4.86212 3.99968 4.88309C4.14904 4.89245 4.29944 4.90055 4.45085 4.90946C4.61157 4.91887 4.80731 4.97644 4.97331 4.95145C4.99179 4.94799 4.98113 4.8956 4.98405 4.88895ZM3.78581 13.3177C3.81405 13.2503 3.75325 13.2338 3.75261 13.3089C3.75526 13.3122 3.78303 13.3197 3.78581 13.3177ZM5.87468 13.1702C5.84769 13.1158 5.82731 13.1435 5.85905 13.1907C5.86098 13.1936 5.88308 13.1872 5.87468 13.1702ZM6.77898 12.0628C6.66553 12.0178 6.64239 12.171 6.76628 12.1497C6.77334 12.1465 6.78494 12.0667 6.77898 12.0628ZM2.90202 8.80985C2.80358 8.86392 2.94871 8.90071 3.02507 8.86258C3.1014 8.82439 2.93202 8.79335 2.90202 8.80985ZM2.75163 7.69071C2.70861 7.71046 2.7577 7.767 2.8112 7.74247C2.85416 7.72275 2.80503 7.66649 2.75163 7.69071ZM2.57683 6.66825C2.59275 6.65657 2.74375 6.73314 2.74773 6.74344L2.7321 6.79325C2.67406 6.90101 2.47668 6.94896 2.50261 6.81571C2.50849 6.78906 2.58643 6.87511 2.61003 6.84012C2.65273 6.77597 2.48852 6.73376 2.57683 6.66825ZM2.86784 6.46317C2.93524 6.48996 2.9513 6.43756 2.87663 6.43387C2.87351 6.43463 2.86572 6.46057 2.86784 6.46317Z" fill="#555961"/>
<path d="M10.4671 4.89973C10.5086 4.82553 10.5039 4.93829 10.5355 4.95051C10.5794 4.96755 10.623 4.98004 10.6663 4.9886C10.7308 5.00459 10.7965 5.00151 10.8558 4.98762C10.8945 4.97839 10.856 4.86865 10.8948 4.93C10.8975 4.93412 10.8877 4.99206 10.8978 4.99934C10.9218 5.01337 10.9678 5.00262 10.9866 5.00715C11.0226 5.01641 11.0288 5.01625 11.0628 5.01692C11.1092 5.01837 11.1644 5.04751 11.2142 5.0345C11.2248 5.03151 11.2115 4.97217 11.2279 4.96125C11.2448 4.95105 11.2897 4.95592 11.305 4.97004C11.3202 4.98424 11.314 5.03147 11.3167 5.04231C11.3388 5.13363 11.3911 5.00736 11.3978 5.00422C11.5199 4.95085 11.6249 5.02298 11.7396 5.02278C11.8258 5.02239 11.9182 4.9985 12.0003 5.00129H12.0023C12.1263 5.00611 12.2258 5.05023 12.3411 5.06868C12.3532 5.06963 12.354 4.99871 12.3695 5.00129C12.5347 5.0293 12.6943 5.09943 12.8128 5.22102C12.8245 5.23321 12.7761 5.2771 12.7855 5.29231C12.8483 5.38583 12.8755 5.55867 13.095 5.3929C13.121 5.42317 13.1502 5.45766 13.1693 5.49739C13.1832 5.52643 13.1913 5.55843 13.1907 5.59211C13.1894 5.64347 13.1156 5.66153 13.1663 5.6761C13.178 5.67873 13.214 5.63149 13.2279 5.63997C13.2872 5.67701 13.3151 5.74657 13.3763 5.78547C13.3895 5.7924 13.4316 5.76181 13.4417 5.76008C13.526 5.74847 13.4441 5.86267 13.4407 5.87629C13.422 5.98698 13.4708 6.03035 13.4984 6.10774C13.5045 6.12565 13.5641 6.08007 13.5726 6.097C13.6156 6.18556 13.6366 6.28853 13.6214 6.38704C13.6178 6.40878 13.5546 6.40004 13.5491 6.41047C13.5279 6.4558 13.6425 6.45042 13.6234 6.49543C13.6192 6.50481 13.5664 6.50595 13.5609 6.50813C13.4752 6.5403 13.6025 6.55005 13.6058 6.55696C13.6281 6.59762 13.6033 6.63325 13.5765 6.66633C13.5511 6.69287 13.5254 6.71968 13.5345 6.75129C13.5381 6.75847 13.6015 6.74187 13.6048 6.76301C13.623 6.90905 13.6047 7.06377 13.5521 7.20833C13.5439 7.23076 13.4947 7.21472 13.4886 7.21614C13.3951 7.2388 13.5172 7.25361 13.5257 7.26106C13.5603 7.31887 13.4538 7.37315 13.6058 7.41243C13.5635 7.60889 13.6102 7.80518 13.5599 8.00032C13.5475 8.05642 13.526 8.11164 13.4935 8.16243C13.4905 8.1653 13.431 8.15282 13.4261 8.15852C13.3813 8.23304 13.4795 8.22901 13.5862 8.30891C13.6128 8.3305 13.4625 8.34397 13.4515 8.34407C13.4109 8.34793 13.3249 8.31319 13.3148 8.31477C13.2493 8.33272 13.5494 8.40461 13.5345 8.45833C13.531 8.45848 13.4828 8.43807 13.4749 8.43977C13.4541 8.44762 13.4712 8.46733 13.4486 8.47395C13.3956 8.48933 13.2522 8.44554 13.3187 8.51594C13.3271 8.52531 13.4936 8.5813 13.4671 8.62336C13.4568 8.64034 13.4233 8.71828 13.4017 8.73372C13.3806 8.74931 13.3383 8.70886 13.3353 8.7093C13.2411 8.72649 13.2245 8.69065 13.1155 8.65852C13.0086 8.62417 13.2367 8.75461 13.2552 8.78059C13.2727 8.80652 13.1975 8.81012 13.1741 8.80598C13.1509 8.8023 13.1286 8.77194 13.1136 8.7718C13.0158 8.77264 13.2047 8.86873 13.2259 8.91047C13.2728 9.01196 13.0946 8.92262 13.053 8.93977C13.0414 8.94501 13.0806 8.96814 13.0765 8.97883C13.0658 9.00482 13.0377 9.0058 13.0198 9.01985C13.0091 9.02832 13.0013 9.04129 13.0023 9.06868C13.0036 9.08005 13.0513 9.19556 12.9749 9.14778C12.9642 9.14063 12.9399 9.09778 12.9193 9.1009C12.8885 9.10569 12.8461 9.12536 12.8323 9.15461C12.8222 9.17662 12.8878 9.22844 12.8509 9.22395C12.8348 9.22119 12.8258 9.17073 12.7982 9.16926C12.7708 9.16814 12.7257 9.19855 12.7083 9.21028C12.6919 9.22258 12.7311 9.26941 12.7318 9.27376C12.7341 9.29898 12.7117 9.34359 12.7073 9.347C12.5332 9.44538 12.3362 9.3968 12.1654 9.45051C12.1518 9.45455 12.1675 9.51475 12.1663 9.51887C12.1184 9.55066 12.1403 9.37759 12.1038 9.32356C12.1188 9.45213 12.0978 9.43119 12.0648 9.44661C12.0487 9.45426 12.0592 9.50487 12.0579 9.51008C12.0347 9.58672 12.0141 9.48822 12.0101 9.46809C12.0068 9.4535 12.0035 9.44508 12.0003 9.44075C11.9882 9.42352 11.9762 9.4717 11.9681 9.43196C11.958 9.38268 11.9806 9.30993 11.9505 9.31086C11.9422 9.35756 11.9645 9.4787 11.9417 9.49836C11.8555 9.57272 11.6946 9.47799 11.6253 9.46809C11.5563 9.45824 11.5337 9.46633 11.4935 9.44954C11.421 9.4195 11.4478 9.50987 11.4027 9.5511C11.3576 9.59178 11.3788 9.37072 11.3724 9.32258C11.366 9.2749 11.3589 9.32341 11.3509 9.29719C11.3433 9.27109 11.3605 9.23867 11.3421 9.22883C11.3235 9.21901 11.2726 9.30394 11.2659 9.35383C11.252 9.45951 11.2743 9.57054 11.2249 9.53157C11.2224 9.5281 11.2313 9.47191 11.221 9.46516C11.1346 9.42024 11.0446 9.417 10.9583 9.37727C10.9467 9.37144 10.957 9.30817 10.9505 9.30305C10.8786 9.26154 10.9039 9.37096 10.8646 9.49251C10.8734 9.33092 10.8516 9.23193 10.7972 9.23079C10.7644 9.23016 10.7696 9.3011 10.7484 9.3509C10.7418 9.36501 10.7193 9.31789 10.7152 9.3509C10.7014 9.45938 10.7224 9.58074 10.6663 9.53254V9.47395C10.6657 9.47046 10.6649 9.46796 10.6634 9.46711C10.6038 9.44276 10.5919 9.55598 10.5198 9.56379C10.4627 9.56959 10.3777 9.48632 10.3236 9.46126C10.365 9.28435 10.3096 9.31351 10.2523 9.42708C10.2169 9.4115 10.1743 9.40465 10.1458 9.37532C10.1371 9.36486 10.1619 9.32105 10.1634 9.31379C10.1742 9.22357 10.1168 9.32674 10.1058 9.3304C10.0042 9.33744 9.98557 9.22341 9.8675 9.2552C9.86349 9.25647 9.78998 9.35989 9.82062 9.26985C9.82316 9.26388 9.87746 9.23117 9.84699 9.2054C9.81551 9.17849 9.79995 9.0829 9.72199 9.09211C9.70317 9.09507 9.60806 9.14616 9.64289 9.06868C9.64826 9.05814 9.67564 9.03475 9.68586 9.01692C9.70584 8.98209 9.67787 9.00088 9.6673 8.99934C9.66104 8.99813 9.66216 8.98837 9.68683 8.95442C9.75073 8.86472 9.78914 8.78824 9.70246 8.80012C9.69996 8.8005 9.61389 8.85517 9.6048 8.84114C9.59073 8.81906 9.58601 8.77753 9.57062 8.75618C9.56313 8.74589 9.51522 8.78862 9.51301 8.78743C9.4332 8.7318 9.44857 8.64458 9.43293 8.5511C9.43045 8.53483 9.33093 8.51884 9.38312 8.46321C9.44146 8.40476 9.74288 8.33609 9.65461 8.29719C9.62048 8.28578 9.22801 8.33433 9.41535 8.23372C9.36434 8.15982 9.40228 8.07662 9.40168 8.00032C9.40139 7.97004 9.39466 7.93879 9.37531 7.90754C9.37053 7.90225 9.26483 7.88645 9.26398 7.87434C9.2664 7.85615 9.31726 7.84534 9.32062 7.83235C9.33578 7.77806 9.29241 7.72845 9.29914 7.6761C9.30161 7.65618 9.35478 7.66275 9.35773 7.63899C9.3599 7.61548 9.2915 7.59961 9.32453 7.5677C9.35013 7.5434 9.49253 7.5189 9.5091 7.48665C9.36891 7.48542 9.3713 7.46352 9.3343 7.42415C9.32671 7.41683 9.27897 7.42467 9.27277 7.42122C9.24772 7.4067 9.2878 7.393 9.26105 7.37922C9.25453 7.37588 9.20719 7.37508 9.19855 7.37239C9.12805 7.34899 9.23547 7.31065 9.25422 7.30403C9.32525 7.27868 9.2633 7.26684 9.29133 7.24739C9.3193 7.22823 9.3544 7.25717 9.37141 7.23469C9.40653 7.18774 9.39855 7.12716 9.4007 7.07942C9.40127 7.06071 9.33989 7.07274 9.33625 7.07063C9.32006 7.03124 9.38786 6.99094 9.26105 6.96907C9.58923 6.94179 9.22916 6.94517 9.29426 6.88899C9.29959 6.88455 9.45598 6.87878 9.47883 6.89583C9.50133 6.91287 9.45304 6.93863 9.48859 6.96223C9.49793 6.968 9.64288 6.99986 9.65168 7.00422C9.72027 7.03844 9.48769 7.04343 9.47492 7.04524C9.33706 7.06581 9.49434 7.10523 9.50519 7.11555C9.55494 7.16277 9.52242 7.20301 9.55793 7.2425C9.58134 7.26819 9.73251 7.27109 9.72785 7.29133C9.71188 7.35853 9.50086 7.38219 9.68488 7.44563C9.72459 7.45913 9.8898 7.44573 9.7591 7.49446C9.7483 7.49828 9.6325 7.53432 9.70734 7.555C9.71723 7.55759 9.76579 7.55741 9.76984 7.56086C9.79567 7.58397 9.75725 7.60008 9.7757 7.62532C9.79421 7.65056 9.82132 7.68053 9.805 7.7093C9.79516 7.72672 9.70507 7.74979 9.68293 7.75813C9.61952 7.78163 9.7232 7.80604 9.6468 7.82063C9.56918 7.83534 9.45085 7.80744 9.4007 7.84602C9.5268 7.84745 9.65671 7.85056 9.78351 7.85286C9.78088 7.90217 9.76511 7.95133 9.75422 8.00032C9.74655 8.02401 9.74224 8.04859 9.74641 8.07258C9.7478 8.07972 9.81447 8.06753 9.81769 8.07454C9.83071 8.10299 9.787 8.13667 9.81183 8.16536C9.83148 8.18748 9.90708 8.19599 9.93098 8.21223C9.79701 8.26606 9.85573 8.29101 9.85383 8.32063C9.85323 8.33146 9.81766 8.34601 9.80891 8.35774C9.77783 8.40187 9.88935 8.33888 9.91047 8.33723C9.99851 8.32729 9.74102 8.45355 9.76789 8.49055C9.76963 8.49332 9.91322 8.44084 9.92512 8.43684C9.98915 8.4222 9.88084 8.46808 9.87824 8.48567C9.87348 8.51743 9.85496 8.55367 9.90851 8.55208C9.92495 8.552 10.0121 8.50914 9.96418 8.5677C9.95725 8.5759 9.91926 8.60587 9.9173 8.60969C9.90096 8.66788 10.0232 8.56421 10.0736 8.53938C10.1101 8.52143 10.0853 8.56604 10.0638 8.60286C10.0559 8.61607 10.0481 8.628 10.0433 8.63508C10.0069 8.68897 10.0072 8.66954 10.0062 8.66047C10.0059 8.65796 10.0056 8.65643 10.0042 8.65754C9.96751 8.68718 9.95449 8.70328 9.95246 8.71418C9.95065 8.72513 9.95963 8.73072 9.9632 8.73958C9.85692 8.85465 9.88427 8.86747 9.97101 8.75813C9.98058 8.74626 9.96083 8.74723 9.9632 8.73958C10.0807 8.63939 10.1051 8.6355 10.0355 8.76399C10.0035 8.82443 9.94399 8.87755 9.99738 8.88313C10.0217 8.88517 10.0796 8.79455 10.1097 8.77961C10.1761 8.74492 10.1606 8.85347 10.2034 8.85872C10.2182 8.86008 10.2348 8.80222 10.2454 8.8011C10.2726 8.79774 10.2721 8.84547 10.303 8.8343C10.3064 8.83102 10.3257 8.77606 10.3323 8.77668C10.3813 8.7898 10.4117 8.84146 10.4661 8.85579C10.4927 8.86279 10.5451 8.8376 10.5706 8.847C10.5992 8.85773 10.632 8.89954 10.6663 8.92122C10.6934 8.93314 10.7193 8.93959 10.7415 8.93196C10.7823 8.91798 10.7739 8.85592 10.7913 8.81379C10.825 8.73289 10.8849 8.87907 10.8929 8.90168C10.8921 8.90283 10.8579 8.9173 10.8763 8.94856C10.8868 9.01256 10.8923 8.90788 10.8929 8.90168C10.8994 8.91615 10.968 8.92997 10.9818 8.91829C10.9892 8.91194 10.985 8.85496 10.9886 8.8509C11.0823 8.79849 11.1768 8.78348 11.2718 8.81086C11.2734 8.81329 11.271 8.87599 11.2747 8.87922C11.3297 8.90835 11.3651 8.82818 11.4105 8.78059C11.4556 8.73359 11.4911 8.7498 11.5179 8.86165C11.5521 8.84748 11.6019 8.89788 11.6302 8.92805C11.6581 8.95667 11.6619 8.82998 11.6644 8.82747C11.7419 8.74689 11.7871 8.82001 11.8675 8.83137C11.8995 8.83599 11.958 8.82408 12.0003 8.81184C12.0053 8.80947 12.01 8.80635 12.014 8.80403C12.033 8.79301 12.047 8.82215 12.0638 8.80208C12.066 8.79942 12.0588 8.74569 12.0589 8.74055C12.0712 8.6713 12.0757 8.81001 12.0823 8.8343C12.1068 8.92219 12.1263 8.96843 12.1497 8.92219C12.1562 8.91134 12.1381 8.71078 12.1439 8.69758C12.1529 8.681 12.1644 8.7518 12.1741 8.73176C12.1746 8.72904 12.1647 8.68799 12.1722 8.68684C12.2102 8.68612 12.2593 8.69664 12.2952 8.6761C12.3001 8.6735 12.2659 8.61244 12.2718 8.60774C12.2996 8.58623 12.3317 8.57166 12.3782 8.5804C12.3899 8.58268 12.4126 8.6269 12.4222 8.63801C12.4811 8.70278 12.4263 8.59231 12.4241 8.58528C12.434 8.53002 12.479 8.53347 12.5169 8.51692C12.5386 8.50756 12.5569 8.49139 12.557 8.4593C12.5578 8.45289 12.4645 8.35085 12.5657 8.41145C12.5754 8.41769 12.6768 8.47272 12.6165 8.41731C12.6102 8.41284 12.5582 8.38522 12.5696 8.37825C12.5824 8.3705 12.5573 8.33292 12.6253 8.3509C12.6463 8.35729 12.7603 8.3993 12.6839 8.33918C12.6796 8.33301 12.4927 8.22118 12.6321 8.27375C12.6552 8.28236 12.8009 8.34495 12.7347 8.29231C12.7215 8.28266 12.6859 8.27685 12.6693 8.25911C12.6432 8.23282 12.6903 8.22604 12.6282 8.18782C12.6174 8.18045 12.5176 8.14065 12.598 8.15168C12.6105 8.15319 12.6597 8.16887 12.6683 8.16536C12.7028 8.14376 12.6737 8.10768 12.7132 8.08333C12.7272 8.0742 12.8122 8.08994 12.8362 8.07942C12.8602 8.06901 12.8836 8.04163 12.845 8.02668C12.8064 8.01254 12.6707 8.02229 12.6595 8.00618C12.6582 8.00422 12.6567 8.00226 12.6556 8.00032C12.6168 7.86493 12.6921 7.7303 12.7034 7.59504C12.7051 7.57449 12.6565 7.59129 12.6556 7.56086C12.6519 7.44851 12.6069 7.25492 12.7103 7.15754C12.7931 7.07972 12.8563 7.17714 12.89 7.1175C12.9039 7.08886 12.7476 7.05803 12.7425 7.0511C12.692 6.98335 12.7616 6.93623 12.7405 6.87532C12.7361 6.8627 12.6723 6.87434 12.6693 6.8636C12.6583 6.82695 12.6862 6.78826 12.681 6.75325C12.6778 6.73791 12.6294 6.74027 12.6331 6.7259C12.6382 6.70521 12.6478 6.6857 12.6644 6.66633C12.6755 6.65986 12.6902 6.65353 12.7083 6.64583C12.714 6.6442 12.7739 6.65371 12.7757 6.63899C12.7786 6.61564 12.8201 6.57878 12.7698 6.55696C12.7535 6.55073 12.6451 6.56804 12.7181 6.53938C12.7346 6.53332 12.8655 6.51338 12.7484 6.51497C12.7284 6.51321 12.57 6.52208 12.6634 6.48274C12.6881 6.47228 12.7903 6.42946 12.7708 6.42415C12.7678 6.42374 12.7114 6.44741 12.7034 6.44172C12.6766 6.4218 12.6723 6.39256 12.6439 6.37532C12.6351 6.37221 12.5836 6.40615 12.5745 6.39973C12.5495 6.38235 12.5484 6.34695 12.5501 6.31379C12.5513 6.30165 12.5964 6.27973 12.6019 6.27571C12.6698 6.21548 12.5677 6.27444 12.557 6.27766C12.5084 6.2829 12.5422 6.23457 12.5159 6.2259C12.5088 6.2238 12.4674 6.26493 12.4622 6.2679C12.4162 6.29274 12.5004 6.23021 12.5042 6.21614C12.5091 6.19546 12.5048 6.18078 12.4964 6.17024C12.4889 6.16083 12.4778 6.15467 12.4671 6.14973C12.4581 6.14773 12.4213 6.20206 12.4144 6.19954C12.3752 6.18049 12.3468 6.15181 12.3284 6.09797C12.325 6.08774 12.3551 6.04496 12.3597 6.03352C12.3887 5.9539 12.3169 6.04415 12.3089 6.05305C12.2706 6.08934 12.2844 6.04523 12.2659 6.04622C12.1782 6.05469 12.0987 6.00677 12.0218 5.98567C12.0145 5.98361 12.0075 5.98091 12.0003 5.97883C11.8286 5.95317 11.688 5.91219 11.5189 5.92415C11.5077 5.92585 11.519 5.99366 11.5091 5.99543C11.3796 6.01224 11.2521 5.98513 11.1224 6.0052C11.1117 6.00673 11.1268 6.07275 11.1097 6.07747C11.0746 6.08752 11.0299 6.08393 10.9945 6.06282C10.9782 6.05193 11.0002 5.9973 10.9837 5.98762C10.9432 5.96635 10.8994 5.9614 10.8577 5.972C10.8401 5.97663 10.8665 6.04378 10.8441 6.04524C10.7848 6.04777 10.7252 6.05082 10.6663 6.04915C10.6211 6.0465 10.5772 6.03464 10.5159 5.9925C10.5092 5.98627 10.4728 5.8554 10.4652 5.88411C10.4736 5.92123 10.4846 5.96472 10.4945 6.00422C10.39 6.05377 10.266 6.06792 10.1693 6.14973C10.1654 6.15303 10.2218 6.20016 10.2152 6.20637C10.2136 6.2078 10.2117 6.2088 10.2103 6.21028C10.1744 6.24726 10.1599 6.29059 10.0726 6.30012C10.0636 6.3013 9.95571 6.23189 9.96223 6.25911C9.96337 6.26409 9.96417 6.29777 9.98566 6.31672C9.98896 6.31939 10.0432 6.34254 10.0423 6.3509C10.0288 6.39777 9.99882 6.43728 9.95051 6.47688C9.94271 6.48326 9.88497 6.45928 9.87726 6.46321C9.83271 6.5007 9.87192 6.55711 9.81086 6.59602C9.76974 6.6239 9.6603 6.60503 9.55109 6.62043C9.53594 6.6231 9.53249 6.64814 9.47004 6.64875C9.31146 6.65075 9.13812 6.63168 8.96906 6.63508C8.93255 6.6359 8.97153 6.68725 8.8841 6.65657C8.87813 6.65447 8.84901 6.61579 8.81965 6.60481C8.79919 6.59728 8.73522 6.60748 8.7093 6.59211C8.68352 6.57619 8.7377 6.56251 8.70832 6.53645C8.67867 6.51006 8.60473 6.51526 8.6009 6.46321C8.59241 6.34179 8.64375 6.18783 8.70539 6.0843C8.72454 6.0519 8.75681 6.08106 8.7718 6.05989C8.80115 6.01893 8.79859 5.9704 8.83332 5.93293C8.84487 5.92093 8.89507 5.96112 8.90656 5.94954C8.96495 5.88024 8.9862 5.79995 9.04133 5.73079C9.14579 5.60048 9.25985 5.4844 9.38312 5.38313C9.579 5.22228 9.80028 5.09833 10.0394 5.02571C10.1694 4.9855 10.3361 5.00279 10.4652 4.96321C10.4798 4.95766 10.4646 4.90456 10.4671 4.89973ZM11.7943 9.3343C11.8054 9.26353 11.7629 9.25843 11.7718 9.33235C11.7733 9.33523 11.7938 9.33717 11.7943 9.3343ZM12.971 8.84797C12.9248 8.80902 12.9244 8.83496 12.97 8.8675C12.9728 8.86946 12.9855 8.86017 12.971 8.84797ZM13.4466 8.03938C13.3313 8.01091 13.3148 8.10851 13.4378 8.09504C13.4444 8.09295 13.4524 8.04169 13.4466 8.03938ZM9.56867 8.01594C9.47034 8.04773 9.61727 8.06137 9.69269 8.03938C9.76798 8.02019 9.59857 8.00766 9.56867 8.01594ZM9.41828 7.31379C9.37527 7.32626 9.42437 7.36147 9.47785 7.34602C9.52082 7.33356 9.4717 7.29846 9.41828 7.31379ZM9.24348 6.66731C9.26088 6.66066 9.40984 6.70854 9.41437 6.71516L9.39875 6.74641C9.3408 6.81451 9.14336 6.84521 9.16926 6.76106C9.17461 6.74366 9.25286 6.7986 9.27668 6.77668C9.31984 6.7361 9.15507 6.70872 9.24348 6.66731ZM9.52375 6.53743C9.59335 6.55444 9.60354 6.52126 9.52961 6.51887C9.52674 6.51878 9.52173 6.53513 9.52375 6.53743Z" fill="#555961"/>
</svg>
