<svg width="16" height="16" viewBox="0 0 16 16" fill="none" xmlns="http://www.w3.org/2000/svg">
<path d="M6.33429 6.88904V7.00427C6.33431 7.01354 6.33525 7.02285 6.33527 7.02283V7.03259L6.33624 7.06677V7.23181L6.33722 7.08435V7.16833C6.33726 7.09471 6.33816 7.18684 6.3382 7.19861V7.1781C6.3382 7.17154 6.33916 7.05003 6.33917 7.14099V7.22302L6.34015 7.23181V7.72791C6.34014 7.72303 6.33918 7.70526 6.33917 7.68494V7.70837C6.33916 7.69637 6.33821 7.68537 6.3382 7.6908V7.83533C6.33818 7.83115 6.33724 7.84026 6.33722 7.85095V7.96326C6.33721 7.96074 6.33625 7.9563 6.33624 7.94861V7.9281C6.33622 7.94598 6.33529 7.9417 6.33527 7.95642L6.33429 7.92419V8.02185L6.33331 7.96814V6.81873L6.33429 6.88904Z" fill="#555961"/>
<path d="M9.66766 6.88904V7.00427C9.66768 7.01354 9.66862 7.02285 9.66864 7.02283V7.03259L9.66962 7.06677V7.23181L9.67059 7.08435V7.16833C9.67063 7.09471 9.67154 7.18684 9.67157 7.19861V7.1781C9.67157 7.17154 9.67254 7.05003 9.67255 7.14099V7.22302L9.67352 7.23181V7.72791C9.67351 7.72303 9.67255 7.70526 9.67255 7.68494V7.70837C9.67254 7.69637 9.67158 7.68537 9.67157 7.6908V7.83533C9.67156 7.83115 9.67061 7.84026 9.67059 7.85095V7.96326C9.67059 7.96074 9.66962 7.9563 9.66962 7.94861V7.9281C9.66959 7.94598 9.66866 7.9417 9.66864 7.95642L9.66766 7.92419V8.02185L9.66669 7.96814V6.81873L9.66766 6.88904Z" fill="#555961"/>
<path d="M6.88019 9.49707C6.90391 9.49315 6.90277 9.52101 6.89386 9.55176C6.89115 9.56115 6.86365 9.58809 6.85968 9.59668C6.85385 9.61228 6.87111 9.60258 6.86358 9.62012C6.86091 9.6262 6.81654 9.67142 6.81476 9.67676C6.80559 9.7055 6.82442 9.7017 6.8255 9.71973C6.83021 9.81126 6.86824 9.87122 6.90753 9.9336C6.92017 9.95419 6.91194 10.0168 6.94562 10.0088C6.95013 10.0066 6.97791 9.96054 6.98077 9.95704C7.02498 9.90261 6.96264 9.99532 6.95929 10.0107C6.94609 10.0716 6.96558 10.0889 6.99444 10.0811C7.00737 10.0758 7.05375 9.9792 7.03058 10.0361C7.02902 10.0401 6.99741 10.09 6.9964 10.0967C6.9944 10.1114 7.0086 10.1081 7.01007 10.1143C7.01277 10.1261 7.01521 10.1264 7.02179 10.1309C7.0301 10.1379 7.02803 10.1688 7.04425 10.1631C7.04784 10.1616 7.07291 10.1076 7.08136 10.0996C7.08956 10.0924 7.09651 10.102 7.09308 10.1162C7.08926 10.1308 7.06621 10.1718 7.06183 10.1816C7.02517 10.2645 7.0944 10.1575 7.09698 10.1553C7.14542 10.121 7.13555 10.1959 7.16046 10.207C7.17911 10.2152 7.20847 10.202 7.22491 10.2119V10.2129C7.24421 10.2256 7.25065 10.2626 7.27374 10.2656C7.27614 10.266 7.29915 10.1989 7.30206 10.1992C7.3328 10.2022 7.35751 10.219 7.3714 10.2734C7.3728 10.279 7.3496 10.3376 7.34991 10.3467C7.35152 10.4012 7.34845 10.5271 7.43585 10.2715C7.44487 10.2852 7.45661 10.3002 7.45343 10.3555C7.45143 10.3912 7.42616 10.4546 7.44269 10.4297C7.4464 10.4241 7.45972 10.3672 7.46417 10.3623C7.48238 10.3447 7.49116 10.3665 7.51104 10.3398C7.51514 10.334 7.5276 10.2825 7.53058 10.2734C7.55447 10.2004 7.53343 10.3254 7.53351 10.3359C7.53431 10.4067 7.55341 10.3842 7.56866 10.3887C7.57221 10.3899 7.58326 10.3209 7.58722 10.3184C7.60706 10.3121 7.62407 10.3211 7.63604 10.3555C7.6387 10.3633 7.62357 10.4229 7.62433 10.4297C7.62814 10.4579 7.64998 10.3464 7.65362 10.3721C7.65413 10.3785 7.6447 10.4271 7.64386 10.4336C7.63403 10.5206 7.65873 10.4048 7.66144 10.3965C7.68312 10.3615 7.67309 10.492 7.69171 10.4775C7.69393 10.4755 7.6998 10.4091 7.70538 10.4072C7.74241 10.3945 7.77555 10.4172 7.80597 10.4727C7.81048 10.4818 7.80228 10.5301 7.80206 10.5361C7.79943 10.6304 7.81444 10.5062 7.81671 10.5C7.83352 10.4668 7.83965 10.5742 7.85968 10.4238C7.9044 10.4689 7.95346 10.4244 8.0003 10.4746C8.01194 10.487 8.02407 10.5049 8.03644 10.5313C8.03724 10.5328 8.03675 10.5958 8.03839 10.5986C8.05829 10.6335 8.05255 10.5357 8.06085 10.416C8.06279 10.387 8.07704 10.5305 8.07843 10.541C8.08288 10.5801 8.08297 10.6732 8.08429 10.6807C8.09558 10.7385 8.08247 10.4303 8.09308 10.4297C8.09345 10.4305 8.09385 10.4876 8.09503 10.4932C8.09871 10.5103 8.10105 10.4881 8.10479 10.5068C8.11345 10.5518 8.12444 10.7019 8.13019 10.6143C8.13082 10.603 8.11877 10.4324 8.12823 10.4356C8.13233 10.4388 8.14989 10.4344 8.15558 10.4453C8.16126 10.4563 8.1619 10.5132 8.16241 10.5156C8.18164 10.5889 8.1794 10.6201 8.19562 10.7295C8.21229 10.8386 8.1876 10.5776 8.1878 10.5479C8.18801 10.5187 8.2036 10.5782 8.20831 10.5996C8.21281 10.6206 8.21276 10.6569 8.21612 10.6689C8.23908 10.7464 8.21059 10.5381 8.21124 10.4961C8.21213 10.3978 8.24112 10.5907 8.25421 10.6084C8.25647 10.6084 8.25033 10.5686 8.25226 10.5645C8.2602 10.5482 8.27332 10.6069 8.27765 10.5508C8.2785 10.5415 8.27231 10.4243 8.28937 10.5088C8.29185 10.5216 8.2955 10.5687 8.30108 10.5791C8.30961 10.5944 8.32297 10.603 8.32745 10.5859C8.33027 10.5721 8.31283 10.4961 8.32257 10.5195C8.32691 10.5306 8.32945 10.5769 8.33722 10.5928C8.34506 10.6086 8.3587 10.604 8.36358 10.6016C8.36714 10.5955 8.35522 10.541 8.35479 10.5361C8.3535 10.5126 8.35886 10.4815 8.35968 10.4814C8.39937 10.4682 8.45897 10.5601 8.49347 10.5176C8.49608 10.5142 8.47971 10.4529 8.47979 10.4512C8.48453 10.4226 8.51437 10.5896 8.53546 10.6436C8.50469 10.5177 8.51431 10.5392 8.51886 10.5234C8.52057 10.515 8.50733 10.469 8.50616 10.4629C8.49362 10.3878 8.52052 10.4808 8.52667 10.501C8.54824 10.5722 8.53161 10.4867 8.5462 10.5342C8.5608 10.5813 8.57267 10.6533 8.58038 10.6504C8.57106 10.6048 8.53568 10.4883 8.53644 10.4678C8.53858 10.3907 8.60101 10.4723 8.6214 10.4766C8.64114 10.481 8.64463 10.4704 8.65948 10.4834C8.68638 10.5066 8.65288 10.4236 8.65069 10.3809C8.64845 10.3382 8.71146 10.5509 8.72784 10.5957C8.74424 10.6402 8.73127 10.593 8.74151 10.6172C8.7518 10.6414 8.75785 10.674 8.76593 10.6816C8.77319 10.6857 8.75967 10.6035 8.74542 10.5566C8.71485 10.4557 8.67371 10.3526 8.69757 10.3848C8.699 10.3867 8.71645 10.4426 8.72101 10.4473C8.75658 10.4823 8.77948 10.4771 8.81476 10.5059C8.81966 10.5099 8.83976 10.5716 8.84308 10.5752C8.87642 10.6069 8.83126 10.5065 8.7962 10.3897C8.85307 10.5407 8.89453 10.6314 8.90948 10.627C8.91831 10.6241 8.89083 10.559 8.87726 10.5107C8.87313 10.4963 8.89642 10.5384 8.88507 10.5078C8.84691 10.4061 8.7951 10.2958 8.82647 10.335C8.82699 10.3356 8.83051 10.3432 8.83429 10.3525C8.83923 10.3647 8.84594 10.3803 8.84991 10.3887C8.85135 10.3917 8.8522 10.3939 8.85284 10.3945C8.8751 10.4107 8.83248 10.3055 8.84015 10.2871C8.84668 10.2741 8.89234 10.3271 8.90948 10.332L8.91046 10.334C8.88677 10.2692 8.89007 10.26 8.93194 10.3379V10.3389C8.94194 10.3397 8.9472 10.3292 8.96222 10.3408C8.9674 10.3448 8.98942 10.3919 8.99249 10.3975C9.03646 10.474 8.98741 10.3671 8.98565 10.3594C8.98323 10.3088 9.04104 10.3825 9.0169 10.2939C9.01605 10.2907 8.95781 10.1783 9.00519 10.2568C9.00851 10.2623 9.03005 10.3169 9.04034 10.3164C9.05116 10.3172 9.09812 10.3656 9.08136 10.3086C9.07668 10.2934 9.03423 10.2029 9.07843 10.2686C9.08447 10.2775 9.10156 10.3091 9.11261 10.3262C9.14795 10.38 9.08674 10.2686 9.14483 10.3604C9.20278 10.4519 9.25318 10.5165 9.22784 10.4453C9.22717 10.4433 9.18145 10.359 9.18292 10.3535C9.19012 10.3523 9.20931 10.3647 9.21515 10.3604C9.21604 10.3559 9.18301 10.306 9.18292 10.3047C9.18369 10.2631 9.22696 10.3027 9.26104 10.3096C9.26703 10.3101 9.23146 10.232 9.27569 10.2832C9.32491 10.3395 9.48743 10.6023 9.4671 10.5273C9.4596 10.4969 9.24681 10.169 9.3753 10.3252C9.37248 10.2669 9.45786 10.3321 9.44073 10.2559C9.43999 10.2524 9.37678 10.1629 9.38019 10.1621C9.38537 10.1613 9.41711 10.1979 9.42315 10.2002C9.44406 10.2033 9.42835 10.1614 9.44269 10.1572C9.44837 10.1558 9.48069 10.1981 9.48761 10.1963C9.49407 10.1939 9.45392 10.138 9.48175 10.1582C9.50302 10.1738 9.59952 10.2786 9.61749 10.2852C9.52742 10.1777 9.53379 10.1757 9.51788 10.1406C9.51399 10.1332 9.48104 10.0989 9.47784 10.0938C9.46439 10.0722 9.49383 10.1001 9.47882 10.0772C9.47523 10.0717 9.44408 10.0365 9.43878 10.0293C9.39714 9.97238 9.47443 10.0464 9.48858 10.0596C9.54069 10.1086 9.50228 10.0596 9.52472 10.0772C9.54719 10.0945 9.56446 10.1261 9.58038 10.1348C9.61303 10.1521 9.62121 10.1355 9.63214 10.1279C9.63643 10.1247 9.59054 10.0797 9.59015 10.0781C9.58733 10.0597 9.64105 10.1007 9.55792 10.0049C9.79034 10.238 9.54092 9.97745 9.59698 10.0147C9.6015 10.0177 9.71157 10.1286 9.72394 10.1484C9.73531 10.1673 9.69731 10.1386 9.71612 10.168C9.72078 10.175 9.81289 10.2854 9.81964 10.2949C9.85915 10.3526 9.69881 10.1838 9.68976 10.1748C9.5922 10.0787 9.69025 10.2002 9.69562 10.2109C9.71907 10.257 9.68842 10.2412 9.70343 10.2754C9.71399 10.2985 9.81288 10.4113 9.80499 10.4121C9.77737 10.4135 9.63608 10.2591 9.74054 10.4111C9.76292 10.4439 9.87315 10.5683 9.77667 10.4785C9.77049 10.4729 9.68559 10.3881 9.72882 10.4502C9.73428 10.4581 9.76516 10.4962 9.7669 10.5C9.77753 10.5245 9.74977 10.4982 9.75519 10.5176C9.7606 10.537 9.76978 10.5645 9.75226 10.5576C9.74168 10.5535 9.6805 10.4879 9.66437 10.4717C9.61924 10.4261 9.67711 10.5128 9.62628 10.4551C9.57531 10.3967 9.50936 10.2989 9.47003 10.2656C9.54681 10.3655 9.62462 10.4687 9.70147 10.5693C9.677 10.5822 9.63203 10.566 9.61358 10.5859C9.61138 10.5885 9.65272 10.6398 9.65265 10.6455C9.64629 10.6634 9.60675 10.6324 9.60479 10.6572C9.60368 10.6769 9.63287 10.7428 9.63214 10.7656C9.54438 10.6511 9.55552 10.7025 9.53644 10.6992C9.52949 10.6971 9.5089 10.6657 9.49933 10.6572C9.46338 10.6255 9.53793 10.7278 9.5462 10.7471C9.57921 10.8273 9.42294 10.5877 9.41144 10.6006C9.41095 10.6012 9.48308 10.738 9.48663 10.7471C9.5108 10.8054 9.45718 10.703 9.44562 10.6963C9.42478 10.6848 9.39863 10.6576 9.41046 10.7031C9.41438 10.717 9.45481 10.8035 9.41046 10.7441C9.40463 10.7363 9.37946 10.6916 9.37726 10.6895C9.34 10.6545 9.42022 10.7926 9.43976 10.8438C9.45895 10.8946 9.39221 10.8057 9.37433 10.7793C9.3279 10.7116 9.36139 10.7465 9.35772 10.7393C9.31378 10.6539 9.31409 10.6726 9.30401 10.6689C9.22597 10.5333 9.22295 10.5462 9.29425 10.666C9.30185 10.6786 9.29946 10.6639 9.30401 10.6689C9.37455 10.8056 9.37329 10.8289 9.29327 10.709C9.25605 10.653 9.22274 10.5822 9.22198 10.6143C9.22166 10.6291 9.27536 10.7225 9.28351 10.752C9.30108 10.8186 9.23586 10.7398 9.22882 10.7607C9.2262 10.7686 9.25807 10.819 9.25714 10.8262C9.25431 10.8446 9.22658 10.8102 9.22687 10.835C9.22691 10.8372 9.25489 10.8882 9.25421 10.8936C9.23359 10.9118 9.19531 10.8861 9.17022 10.8965C9.15818 10.9016 9.15052 10.9431 9.13507 10.9424C9.11791 10.9416 9.08648 10.9113 9.06378 10.8975C9.05114 10.8898 9.04099 10.8876 9.03741 10.8975C9.03094 10.9155 9.0563 10.9716 9.06671 11.0127C9.08648 11.0925 9.01452 10.9637 9.00421 10.9434C9.00436 10.9411 9.00778 10.9235 8.99151 10.8975C8.96519 10.8393 9.00269 10.9389 9.00421 10.9434C8.9972 10.9305 8.97097 10.9259 8.97101 10.9385C8.97171 10.9467 8.99289 10.9994 8.99249 11.002C8.98234 11.0616 8.95777 11.086 8.91925 11.0703C8.91727 11.0659 8.89759 11.0073 8.89581 11.0059C8.87001 10.9844 8.88398 11.0634 8.88409 11.1133C8.88419 11.1632 8.86793 11.1518 8.82647 11.0469C8.81995 11.0637 8.78983 11.0216 8.77276 10.9951C8.7558 10.9688 8.79024 11.0904 8.79034 11.0938C8.78793 11.1781 8.75306 11.1131 8.72491 11.1084C8.71135 11.1062 8.69106 11.1297 8.68097 11.1465C8.67306 11.1599 8.65996 11.1328 8.6546 11.1533C8.65386 11.1561 8.66818 11.2116 8.66827 11.2139C8.67247 11.2821 8.64681 11.1457 8.63897 11.1221C8.61058 11.0362 8.59521 10.9908 8.59112 11.0352C8.59088 11.0481 8.62375 11.2401 8.62042 11.2549C8.6156 11.2711 8.6035 11.201 8.59894 11.2197C8.59935 11.2247 8.60714 11.2645 8.60187 11.2637C8.57654 11.2603 8.54632 11.2398 8.52276 11.2481C8.51952 11.2491 8.53554 11.3159 8.53155 11.3203C8.50977 11.3327 8.48299 11.3345 8.45538 11.3057C8.44861 11.2984 8.44413 11.25 8.44073 11.2354C8.42078 11.1514 8.42905 11.2709 8.42804 11.2793C8.39516 11.3463 8.34903 11.236 8.31378 11.2949C8.31211 11.2984 8.308 11.4368 8.28839 11.3203C8.28665 11.3106 8.26796 11.1945 8.26886 11.2764C8.26897 11.282 8.27896 11.3424 8.26983 11.3369C8.2609 11.3327 8.25058 11.3732 8.2337 11.3076C8.22814 11.2865 8.21015 11.1673 8.20636 11.2637C8.20641 11.2758 8.20347 11.4852 8.1878 11.3389C8.18522 11.3144 8.17611 11.1565 8.16827 11.2383C8.16688 11.2543 8.17356 11.2894 8.16827 11.3115C8.1599 11.3452 8.14447 11.3043 8.13507 11.375C8.13352 11.3879 8.12844 11.495 8.11749 11.4141C8.11581 11.4014 8.11577 11.3489 8.11163 11.3428C8.09187 11.3151 8.07283 11.3507 8.05304 11.3145C8.0463 11.3007 8.04833 11.216 8.04132 11.1934C8.03418 11.1707 8.02074 11.1496 8.01397 11.1885C8.00714 11.2278 8.0152 11.3625 8.00421 11.374C8.00287 11.3753 8.00164 11.3768 8.0003 11.3779C7.95247 11.4167 7.90606 11.3406 7.86065 11.3272C7.85376 11.3253 7.85728 11.3728 7.84698 11.374C7.80816 11.3759 7.73473 11.416 7.71124 11.3096C7.69329 11.2247 7.73182 11.1654 7.71612 11.1299C7.70882 11.1131 7.68245 11.2662 7.67901 11.2734C7.65032 11.3211 7.64245 11.2503 7.61944 11.2686C7.6146 11.2724 7.60987 11.3363 7.60577 11.3389C7.59166 11.3481 7.5823 11.318 7.56964 11.3213C7.56389 11.323 7.55753 11.3717 7.55304 11.3672C7.54232 11.357 7.53474 11.3349 7.53058 11.2881C7.53023 11.2838 7.54652 11.2243 7.53839 11.2207C7.52527 11.2143 7.51609 11.1681 7.49249 11.2109C7.48541 11.224 7.46543 11.3338 7.46905 11.2559C7.47014 11.2381 7.49688 11.1095 7.46417 11.2207C7.4585 11.2408 7.40896 11.388 7.41827 11.2881C7.42078 11.2615 7.43597 11.1522 7.42706 11.168C7.42572 11.1707 7.41632 11.2293 7.41046 11.2344C7.38993 11.2502 7.37399 11.2404 7.35284 11.2549C7.34715 11.2589 7.34048 11.3206 7.33233 11.3252C7.30966 11.3362 7.28853 11.3155 7.27472 11.292C7.26964 11.2832 7.28754 11.2341 7.28839 11.2285C7.30274 11.1381 7.2675 11.2564 7.263 11.2627C7.23609 11.2996 7.23787 11.2412 7.21905 11.252C7.21364 11.2577 7.2018 11.3109 7.19952 11.3164C7.17734 11.3633 7.21156 11.2639 7.20929 11.251C7.2029 11.2154 7.18543 11.2151 7.16827 11.2178C7.16189 11.2189 7.14848 11.2859 7.14288 11.2861C7.1094 11.2885 7.0791 11.2725 7.06183 11.2275C7.05862 11.2189 7.0787 11.17 7.08136 11.1582C7.10003 11.0764 7.05359 11.1807 7.04718 11.1904C7.01933 11.2335 7.02916 11.1879 7.01593 11.1924C6.95036 11.2152 6.89726 11.162 6.85772 11.125C6.85374 11.1213 6.84972 11.1172 6.84601 11.1133C6.80119 11.0666 6.77545 11.0095 6.71905 10.9951C6.71516 10.9941 6.6877 11.0587 6.6839 11.0586C6.63587 11.0537 6.60902 11.0088 6.55987 11.0049C6.5559 11.0046 6.52994 11.0631 6.52179 11.0664C6.50605 11.0692 6.49319 11.0585 6.49249 11.0342C6.49217 11.0224 6.52717 10.977 6.52667 10.9658C6.52494 10.9404 6.51415 10.9288 6.4964 10.9307C6.48849 10.9327 6.46272 10.9946 6.45538 10.9912C6.40453 10.9691 6.35036 10.949 6.35284 10.8457C6.35299 10.8386 6.42655 10.7226 6.40558 10.7402C6.38395 10.7714 6.35906 10.8083 6.33624 10.8418C6.25797 10.8156 6.22171 10.7309 6.16534 10.6768C6.16021 10.6791 6.12229 10.7345 6.11749 10.7305C6.08872 10.7063 6.04685 10.6977 6.06476 10.6182C6.0665 10.6103 6.1515 10.5151 6.13116 10.5225C6.12742 10.5239 6.10392 10.5259 6.08233 10.5439C6.07912 10.5467 6.04165 10.5931 6.03644 10.5908C6.00705 10.5768 5.99104 10.5446 5.99347 10.4971C5.99396 10.4894 6.04031 10.4472 6.04229 10.4404C6.04784 10.3992 5.99566 10.4149 6.01983 10.3574C6.03664 10.3189 6.11844 10.2456 6.18976 10.1641C6.19985 10.1526 6.19503 10.144 6.23956 10.0996C6.35184 9.98771 6.47864 9.86868 6.59796 9.74903C6.62348 9.72343 6.58933 9.74425 6.65558 9.68653C6.66004 9.68268 6.68512 9.66643 6.70733 9.64649C6.7227 9.63269 6.76725 9.58651 6.78741 9.56934C6.80747 9.55219 6.7712 9.59161 6.79522 9.57227C6.81953 9.55252 6.8692 9.49973 6.88019 9.49707ZM8.26397 10.7295C8.271 10.7899 8.27418 10.7724 8.26593 10.7168C8.26544 10.7135 8.26183 10.7109 8.26397 10.7295ZM8.00909 10.5869C8.00275 10.7032 8.02987 10.715 8.02276 10.5928C8.02218 10.5865 8.00947 10.5812 8.00909 10.5869ZM8.61554 10.6162C8.63127 10.6857 8.64352 10.6879 8.6214 10.6172C8.62013 10.6146 8.61492 10.6135 8.61554 10.6162ZM9.53058 10.4297C9.46404 10.3566 9.54483 10.477 9.59601 10.5342C9.64752 10.591 9.55104 10.4519 9.53058 10.4297ZM9.59503 10.1836C9.56449 10.1541 9.58993 10.198 9.62823 10.2354C9.65894 10.265 9.63362 10.2208 9.59503 10.1836ZM6.23272 10.1592C6.18042 10.2075 6.18577 10.2208 6.23565 10.166C6.23766 10.1638 6.2349 10.1572 6.23272 10.1592ZM9.53253 9.90235C9.53949 9.90297 9.58495 9.96753 9.60577 9.98047C9.64406 10.0033 9.53143 9.88306 9.60187 9.9375C9.61495 9.94743 9.71325 10.0616 9.71515 10.0664L9.67022 10.0439C9.60642 9.99819 9.50427 9.89937 9.53253 9.90235Z" fill="#555961"/>
<path d="M5.4616 1.45801C6.39092 1.52405 7.30509 1.54748 8.24578 1.57617C8.55576 1.58561 8.93245 1.64308 9.25261 1.61816C9.28962 1.61522 9.26863 1.5612 9.27507 1.55566C9.38668 1.48592 9.34967 1.59748 9.42254 1.6123C9.71157 1.6708 10.033 1.67559 10.3112 1.6543C10.4295 1.64507 10.3116 1.53539 10.4303 1.59668C10.4386 1.60083 10.409 1.65954 10.4411 1.66602C10.4994 1.67716 10.5993 1.6728 10.6667 1.67285C10.8515 1.66624 10.9872 1.81513 10.9938 2C10.9938 2.01762 10.9938 2.03306 10.9928 2.04492C10.9836 2.15492 10.9838 2.1733 10.9831 2.27734C10.9817 2.41953 10.9522 2.58865 10.9655 2.74121C10.9685 2.77367 11.0282 2.73112 11.0387 2.78223C11.0472 2.82513 11.0418 2.92622 11.0329 2.98633C11.1342 2.99005 11.234 2.99821 11.3337 3.00586C11.4657 3.01463 11.596 3.0336 11.7292 3.05664C12.0313 3.10709 12.3529 3.2101 12.5993 3.375C12.744 3.47113 12.8624 3.58126 12.9684 3.69824C13.0771 3.81858 13.1735 3.94618 13.2682 4.08789C13.2879 4.11773 13.3249 4.04459 13.3493 4.08203C13.5891 4.45169 13.7085 4.90028 13.6686 5.33301C13.6656 5.36219 13.6624 5.39171 13.6589 5.4209C13.654 5.46087 13.5924 5.40966 13.5837 5.44922C13.5326 5.69424 13.4099 6.08202 13.6803 6.22754C13.6698 6.39336 13.6586 6.59472 13.6042 6.74316C13.5691 6.8389 13.5011 6.74665 13.53 6.86426C13.5367 6.89023 13.5959 6.85615 13.6012 6.89551C13.6229 7.06298 13.6038 7.24644 13.6344 7.41211C13.6411 7.4454 13.6933 7.43677 13.7028 7.44629C13.7798 7.52626 13.6533 7.65873 13.6432 7.68848C13.5739 7.91023 13.601 8.07272 13.5993 8.2793C13.5991 8.32683 13.6703 8.27049 13.6725 8.31641C13.6828 8.55565 13.6768 8.80383 13.6452 9.03809C13.6378 9.08982 13.5765 9.04252 13.57 9.06738C13.5424 9.17671 13.6572 9.20152 13.6325 9.30664C13.6271 9.32853 13.5747 9.31627 13.569 9.32031C13.4801 9.38357 13.6072 9.4388 13.61 9.45508C13.6482 9.66109 13.5151 9.79309 13.5339 9.99219C13.5365 10.0157 13.6025 9.96244 13.6052 10.0293C13.6225 10.4567 13.6069 10.9076 13.5593 11.333C13.5572 11.3538 13.5542 11.375 13.5514 11.3955C13.5406 11.4705 13.4936 11.4148 13.487 11.4189C13.3888 11.4888 13.5113 11.5459 13.5134 11.5723C13.5257 11.7743 13.3766 11.9163 13.4753 12.0908C13.3431 12.4019 13.1619 12.6892 12.9255 12.9258C12.5798 13.2761 12.0956 13.5038 11.612 13.4873C11.5857 13.5362 11.5003 13.6062 11.4919 13.6143C11.4529 13.6513 11.3588 13.6126 11.3512 13.625C11.2921 13.7276 11.6021 13.7112 11.6022 13.8496C11.6017 13.8539 11.5444 13.836 11.5387 13.8477C11.5211 13.8837 11.5437 13.9198 11.5241 13.9551C11.5146 13.9719 11.5005 13.9864 11.485 14C11.4881 14.0855 11.4191 14.1482 11.3337 14.1514C11.2819 14.0927 11.2428 14.0129 11.1452 14.082C11.1296 14.0934 11.1536 14.269 11.03 14.2607C10.9804 14.2573 10.7634 14.2603 10.7018 14.249C10.6416 14.2378 10.6815 14.1826 10.6784 14.1787C10.5141 14.1041 10.5757 14.0731 10.4938 13.9629C10.4114 13.8527 10.4337 14.1152 10.4001 14.1445C10.3664 14.1735 10.2465 14.1124 10.2165 14.0908C10.1868 14.0694 10.2233 14.0336 10.1969 14.0215C10.0225 13.9424 10.1205 14.1514 10.0632 14.1934C9.92743 14.2922 9.82121 14.0972 9.69695 14.0781C9.66377 14.0733 9.69067 14.117 9.66082 14.1211C9.54251 14.1368 9.47116 14.0764 9.3366 14.1318C9.31454 14.1409 9.20504 14.2587 9.13445 14.1729C9.12445 14.1604 9.15276 14.1115 9.10222 14.1006C9.0268 14.0843 8.89132 14.0737 8.81023 14.0898C8.75032 14.1019 8.81826 14.1821 8.74285 14.1572C8.71 14.1459 8.77144 14.0989 8.70867 14.082C8.646 14.0652 8.48657 14.0677 8.42547 14.0693C8.36464 14.071 8.39718 14.1317 8.39226 14.1357C8.36201 14.159 8.24703 14.1883 8.23601 14.1885C7.7157 14.1959 7.23576 14.0931 6.72918 14.127C6.68942 14.1295 6.71571 14.1933 6.70964 14.1943C6.57365 14.2211 6.68068 14.0511 6.58562 13.9941C6.59935 14.124 6.54367 14.101 6.44793 14.1152C6.40173 14.1222 6.42675 14.1726 6.42254 14.1777C6.35408 14.2539 6.30591 14.1549 6.29363 14.1348C6.24832 14.0609 6.19948 14.1481 6.16863 14.0986C6.13781 14.0494 6.20824 13.9768 6.11687 13.9775C6.09113 14.024 6.15873 14.145 6.08953 14.165C5.82631 14.2395 5.33474 14.1448 5.12273 14.1348C4.91138 14.1249 4.84257 14.133 4.71941 14.1162C4.69954 14.1135 4.68207 14.1122 4.66668 14.1113C4.60401 14.1136 4.55759 14.0627 4.55535 14C4.56458 13.8433 4.48648 13.8992 4.4489 13.7734C4.4083 13.6357 4.62934 13.7022 4.67742 13.6826C4.7251 13.6631 4.6766 13.6415 4.70281 13.6172C4.72894 13.5937 4.76134 13.6454 4.77117 13.5889C4.77384 13.5734 4.76816 13.5508 4.75945 13.5254L4.66668 13.4326C4.6904 13.4398 4.71309 13.4503 4.73406 13.4658C4.70738 13.4144 4.67232 13.3661 4.64617 13.3555C4.59081 13.3331 4.53366 13.3414 4.49773 13.333L4.66668 13.502C4.65856 13.5344 4.63362 13.5505 4.55535 13.5283C4.54709 13.5245 4.57862 13.47 4.54461 13.4619C4.26801 13.4018 3.98798 13.3221 3.76238 13.166C3.73188 13.1446 3.78957 13.102 3.77312 13.0889C3.60332 12.9494 3.61966 13.0821 3.44402 13.1133C3.55865 12.9942 3.55594 12.8791 3.43718 12.7783C3.36613 12.7157 3.33128 12.779 3.24968 12.7695C3.24569 12.769 3.24164 12.7658 3.23797 12.7617C3.21885 12.7405 3.20501 12.6836 3.17742 12.6943C3.0687 12.7342 3.0212 12.8708 2.93816 12.6934C2.93495 12.6855 2.99743 12.6687 2.98308 12.6445C2.89564 12.4878 2.78854 12.5334 2.67839 12.3594C2.59099 12.2216 2.55944 11.9302 2.5407 11.7568C2.71815 11.7225 2.65221 11.5854 2.52312 11.5283C2.52023 11.465 2.51562 11.3982 2.51726 11.333C2.51855 11.2853 2.5214 11.2382 2.52898 11.1934C2.53483 11.1586 2.58682 11.1806 2.59343 11.1768C2.68255 11.109 2.56151 11.0629 2.55632 11.04C2.50982 10.7932 2.60179 10.592 2.5114 10.3564C2.50659 10.3481 2.38263 10.334 2.47429 10.2715C2.48111 10.2682 2.53823 10.3446 2.54265 10.2344C2.54719 10.1235 2.61484 9.9145 2.55632 9.76074C2.54198 9.7234 2.43936 9.62916 2.51922 9.55371C2.53009 9.54365 2.56642 9.55451 2.5866 9.54004C2.65082 9.49308 2.52338 9.46726 2.63152 9.41211C2.74002 9.35688 2.82161 9.24207 2.74675 9.08691C2.74108 9.08092 2.64395 9.04484 2.64519 8.99707C2.64783 8.91918 2.66929 8.80789 2.66863 8.72656C2.66779 8.68827 2.60532 8.71279 2.60418 8.70605C2.56899 8.4443 2.62478 8.25799 2.6491 7.97754C2.65363 7.92608 2.56768 7.77823 2.63543 7.67871C2.70962 7.56945 3.01842 7.68177 2.945 7.43066C2.91559 7.32933 2.52438 7.20066 2.72722 7.01855C2.67707 6.66562 2.78025 6.33926 2.70867 5.98535C2.70549 5.96942 2.59585 5.9183 2.59734 5.88086C2.59993 5.82571 2.65024 5.79523 2.65398 5.75586C2.66754 5.60929 2.63571 5.47289 2.6325 5.33301C2.63207 5.31392 2.63212 5.29462 2.63347 5.27539C2.63837 5.21389 2.68948 5.23757 2.69793 5.16699C2.70721 5.097 2.64461 5.03799 2.69597 4.94629C2.73594 4.87663 2.8899 4.84191 2.93328 4.76367C2.80189 4.71717 2.82279 4.65458 2.8366 4.53027C2.83941 4.50615 2.78476 4.50867 2.78386 4.49609C2.78003 4.44373 2.83492 4.423 2.83074 4.37207C2.82982 4.35967 2.78817 4.33699 2.78484 4.3252C2.75892 4.22207 2.92024 4.16962 2.94695 4.16504C3.05023 4.13983 3.02237 4.0745 3.08269 4.04395C3.14241 4.01556 3.11304 4.10564 3.16961 4.06445C3.21121 4.03455 3.25337 3.99937 3.29558 3.96289C3.37274 3.89591 3.45326 3.82501 3.528 3.77246C3.57397 3.74009 3.5057 3.70993 3.5114 3.7041C3.60213 3.61963 3.73782 3.62192 3.74187 3.47852C3.96043 3.73942 3.79295 3.41378 3.98699 3.41113C4.00243 3.41141 4.06684 3.55266 4.02996 3.59082C3.99326 3.62832 3.90632 3.61216 3.86101 3.67383C3.84852 3.68858 3.84015 3.85826 3.8366 3.87109C3.79777 3.9719 3.66447 3.78929 3.65007 3.77832C3.52259 3.69581 3.52066 3.89376 3.50847 3.91895C3.47412 3.97847 3.43417 4.021 3.39617 4.0625C3.35666 4.10572 3.31948 4.14837 3.29851 4.20215C3.27187 4.27171 3.38963 4.36825 3.35711 4.40527C3.2551 4.52621 3.03124 4.49619 3.1364 4.7207C3.16071 4.76811 3.32615 4.7922 3.1657 4.85938C3.1547 4.8622 3.01489 4.91919 3.07781 4.98828C3.08584 4.99669 3.13303 5.00672 3.13543 5.01562C3.15035 5.07466 3.10622 5.10534 3.11785 5.16797C3.12774 5.21931 3.14557 5.277 3.14324 5.33301C3.14273 5.34824 3.14116 5.36384 3.13836 5.37891C3.12843 5.43193 3.03883 5.4997 3.01629 5.52539C2.95257 5.5973 3.057 5.67512 2.98015 5.71973C2.90254 5.76469 2.78421 5.67702 2.73406 5.79492C2.86015 5.79929 2.99006 5.80939 3.11687 5.81641C3.11239 6.07464 3.07126 6.32879 3.07683 6.58789C3.07776 6.61976 3.14496 6.58738 3.14812 6.62109C3.15889 6.76646 3.11032 6.89417 3.12957 7.04492C3.14479 7.1615 3.21694 7.28924 3.23504 7.41113C3.09075 7.48566 3.13982 7.6673 3.12664 7.79883C3.12191 7.84438 3.0836 7.84159 3.07097 7.87402C3.02454 7.99747 3.15123 7.94004 3.17156 7.97363C3.25716 8.11896 2.96939 8.13154 2.97625 8.30273C2.97653 8.31181 3.12957 8.42307 3.13933 8.43848C3.2018 8.53563 3.08625 8.45483 3.07488 8.51562C3.0541 8.62646 3.01717 8.70387 3.06218 8.83398C3.07591 8.87211 3.17094 8.96261 3.09734 9.03613C3.08763 9.04583 3.03684 9.04102 3.03386 9.04883C2.9844 9.19 3.1438 9.19372 3.19793 9.27441C3.25203 9.35521 3.14182 9.48047 3.11004 9.50586C3.02925 9.571 3.07349 9.45787 3.06707 9.45117C2.97103 9.40891 2.98729 9.4998 2.97918 9.56934C2.82256 9.5794 2.83199 9.67675 2.97136 9.6416C2.98656 9.6376 2.97215 9.58347 2.97918 9.56934C3.13283 9.63038 3.15209 9.73745 3.00847 9.85547C2.94125 9.91014 2.86361 9.85889 2.89226 10.0264C2.90553 10.1018 3.01207 10.0731 3.04168 10.1396C3.10876 10.2932 3.00829 10.4931 3.0241 10.6514C3.02985 10.7088 3.08942 10.6531 3.09539 10.6924C3.11131 10.7965 3.06685 10.8886 3.08953 10.9932C3.09225 11.0023 3.15302 10.9795 3.15398 11.0117C3.15722 11.123 3.1512 11.2279 3.14324 11.333C3.13364 11.4303 3.13016 11.5313 3.15105 11.6387C3.16782 11.7349 3.25391 11.8868 3.2907 11.9766C3.34757 12.1326 3.40476 12.3646 3.53191 12.459C3.53353 12.4602 3.53521 12.4618 3.53679 12.4629C3.61396 12.5163 3.64076 12.4572 3.69695 12.4521C3.80345 12.439 3.82609 12.6322 3.83464 12.6631C3.82945 12.6622 3.75765 12.6312 3.77703 12.6807C3.76424 12.7482 3.82885 12.6695 3.83464 12.6631C3.8376 12.6845 3.97922 12.7771 4.01629 12.7783C4.03547 12.7799 4.04992 12.724 4.05925 12.7246C4.26946 12.7612 4.46291 12.7847 4.66668 12.8076C4.96384 12.8183 5.20253 13.0359 5.19207 13.333C5.19099 13.3462 5.19038 13.3598 5.18914 13.373C5.18796 13.3781 5.12313 13.371 5.12078 13.3828C5.10667 13.4642 5.11829 13.5313 5.13933 13.5947C5.22164 13.6197 5.2334 13.4982 5.24089 13.4941C5.47782 13.4134 5.61521 13.4867 5.86101 13.498C5.97774 13.5036 6.20902 13.4856 6.33562 13.4717C6.43562 13.4604 6.49641 13.4898 6.58855 13.4707C6.60087 13.4679 6.58866 13.4114 6.59246 13.4092C6.69481 13.3417 6.64568 13.4798 6.66668 13.5049C6.74357 13.595 6.79115 13.6428 6.92254 13.6006C6.95291 13.5909 7.04197 13.3916 7.09734 13.3799C7.16931 13.3651 7.14209 13.4363 7.21746 13.4189C7.22389 13.4174 7.22274 13.3731 7.26922 13.375C7.48512 13.3835 7.72065 13.4097 7.945 13.4053C7.97528 13.4046 7.93648 13.3351 7.98015 13.333C8.18797 13.3247 8.41636 13.3266 8.61882 13.3594C8.66834 13.3678 8.63732 13.4171 8.64812 13.4316C8.7142 13.5193 8.80767 13.3933 8.8239 13.3896C9.19453 13.3281 9.4784 13.4438 9.85613 13.3887C9.87668 13.3854 10.0354 13.2478 10.1061 13.3652C10.111 13.3731 10.1802 13.4936 10.2419 13.4121C10.2457 13.407 10.203 13.3443 10.279 13.3506C10.355 13.3567 10.4774 13.3157 10.5817 13.3838C10.6039 13.3984 10.6461 13.4553 10.7009 13.4639C10.7008 13.4205 10.7004 13.3766 10.7009 13.333C10.7138 12.9754 10.976 12.6874 11.3337 12.7002C11.3773 12.7009 11.4209 12.7025 11.4655 12.7119C11.5081 12.7205 11.4961 12.8077 11.5456 12.8242C11.5949 12.8411 11.6966 12.8426 11.7341 12.791C11.77 12.74 11.6845 12.6246 11.7438 12.5947C11.9294 12.4974 12.119 12.4212 12.2887 12.2881C12.3479 12.2414 12.4033 12.1882 12.4499 12.1279C12.4752 12.0939 12.4166 12.0954 12.4489 12.0439C12.5652 11.8692 12.6239 11.544 12.6823 11.333C12.6899 11.2971 12.6991 11.2637 12.7096 11.2334C12.7925 10.9948 12.8556 11.2946 12.8893 11.1123C12.9049 11.0244 12.7478 10.9294 12.7428 10.9082C12.6923 10.7008 12.7623 10.5567 12.7409 10.3701C12.7364 10.3316 12.6717 10.3688 12.6686 10.3359C12.6576 10.2239 12.6866 10.106 12.6813 9.99902C12.6787 9.95124 12.6299 9.95993 12.6335 9.91602C12.642 9.81019 12.6628 9.71644 12.7087 9.61328C12.7131 9.60423 12.7738 9.66698 12.7761 9.58887C12.7796 9.46219 12.8247 9.30491 12.778 9.15918C12.7639 9.11594 12.6521 9.11435 12.7292 9.02148C12.7453 9.00198 12.8795 9.02628 12.7634 8.91797C12.7431 8.89864 12.5881 8.71795 12.6882 8.62891C12.7147 8.60538 12.8252 8.54514 12.8083 8.49316C12.8055 8.48613 12.7452 8.51414 12.7389 8.47168C12.7193 8.31977 12.7255 8.15998 12.7067 8.00391C12.7014 7.96251 12.6392 8.02396 12.6335 7.96191C12.6178 7.79117 12.6345 7.57803 12.654 7.41113C12.6613 7.3497 12.7128 7.39217 12.7184 7.3877C12.8091 7.31582 12.6867 7.27292 12.6794 7.24902C12.6364 7.10028 12.6937 6.98671 12.6784 6.84961C12.674 6.81236 12.6153 6.83856 12.61 6.83105C12.5596 6.75364 12.6648 6.81106 12.6764 6.76172C12.7093 6.62331 12.7044 6.46905 12.6969 6.3291C12.6941 6.27767 12.6264 6.33523 12.6247 6.28906C12.613 6.01585 12.6194 5.73148 12.6569 5.46484C12.6643 5.41549 12.7158 5.4464 12.7282 5.43652C12.7643 5.40543 12.764 5.36737 12.7507 5.33301C12.733 5.30064 12.6919 5.27451 12.6852 5.26562C12.6316 5.19507 12.6733 5.16363 12.654 5.09961C12.5792 4.85652 12.456 4.58581 12.278 4.38867C12.2322 4.33694 12.1837 4.29063 12.1354 4.25C11.893 4.04928 11.6311 3.93243 11.3337 3.92285C11.2274 3.92107 11.1184 3.92122 11.0055 3.92383C10.9701 3.92458 11.0052 3.99393 10.9753 3.99609C10.8722 4.00047 10.7691 4.00194 10.6667 4.00195C10.2888 3.98843 9.98518 3.71086 9.99871 3.33301C9.99868 3.12682 10.0008 2.92141 9.99871 2.71484C9.61348 2.71868 9.23083 2.7133 8.83953 2.64258C8.8064 2.63603 8.77719 2.49909 8.70672 2.52539C8.7014 2.56352 8.7022 2.60866 8.69988 2.64941C8.00202 2.67137 7.31083 2.62359 6.61101 2.61621C6.5815 2.61592 6.63201 2.68868 6.57488 2.68848C6.36558 2.6878 6.16025 2.69319 5.95183 2.68066C5.94489 2.76925 5.93684 2.85761 5.92547 2.94434C5.91928 2.9889 5.85607 2.94168 5.85125 2.97363C5.83391 3.09043 5.83809 3.21248 5.83855 3.33301C5.82833 3.61855 5.61915 3.8489 5.33367 3.83887C5.22013 3.8393 5.10774 3.83562 5.00261 3.80762C4.8574 3.76869 4.91081 3.65912 4.83367 3.55078C4.82275 3.53549 4.73285 3.53277 4.7282 3.46973C4.72114 3.37571 4.73236 3.27628 4.73992 3.17578L4.66472 3.25195C4.65507 3.2892 4.53655 3.41654 4.5241 3.41992L4.4323 3.41406C4.22402 3.38099 4.07517 3.21948 4.35613 3.19141C4.4114 3.18845 4.24957 3.29393 4.3239 3.30566C4.42647 3.32348 4.49501 3.21833 4.58855 3.21973C4.59481 3.08175 4.60618 2.94328 4.62078 2.82422C4.62972 2.75116 4.6695 2.78787 4.67742 2.7373C4.69279 2.63845 4.67367 2.54595 4.69207 2.44824C4.69882 2.41669 4.76088 2.45624 4.76629 2.42285C4.78771 2.27945 4.78295 2.14176 4.78582 2C4.77475 1.69064 5.0243 1.4642 5.33367 1.45312C5.37583 1.45398 5.4184 1.45495 5.4616 1.45801ZM5.63738 14.001C5.67144 13.9301 5.54284 13.9251 5.57 13.999C5.5739 14.0019 5.63587 14.0039 5.63738 14.001ZM9.74089 13.9561C9.73775 13.8952 9.67305 13.9125 9.69402 13.9688C9.69688 13.972 9.74174 13.9746 9.74089 13.9561ZM11.9128 13.3662C11.9561 13.2358 11.6617 13.2958 11.7497 13.3994C11.7554 13.406 11.908 13.3748 11.9128 13.3662ZM2.90203 6.32715C2.80322 6.43158 2.94864 6.50321 3.02507 6.42969C3.10141 6.35597 2.93202 6.29531 2.90203 6.32715ZM2.83172 5.25098C2.80186 5.29044 2.82545 5.31967 2.86394 5.33301C2.89932 5.34678 2.947 5.34734 2.97918 5.33301C3.0089 5.32165 3.02492 5.30149 3.00652 5.26758C3.00065 5.26132 2.8365 5.24477 2.83172 5.25098ZM3.06707 4.2793C3.00999 4.28661 2.99899 4.40361 3.06804 4.3916C3.12193 4.38332 3.13596 4.27212 3.06707 4.2793ZM5.12468 3.5166C5.09026 3.58785 5.21961 3.5936 5.19207 3.51953C5.19052 3.51664 5.12937 3.51404 5.12468 3.5166Z" fill="#555961"/>
</svg>
