<svg width="16" height="16" viewBox="0 0 16 16" fill="none" xmlns="http://www.w3.org/2000/svg">
<path d="M3.33301 2.79424C4.2137 2.85789 5.08071 2.88124 5.97266 2.90947C6.27148 2.91888 6.63469 2.97641 6.94336 2.95146C6.97897 2.94852 6.95872 2.89464 6.96484 2.88896C7.07239 2.81922 7.0372 2.93078 7.10742 2.9456C7.38601 3.00405 7.6958 3.00892 7.96387 2.98759C8.0778 2.97834 7.9638 2.86875 8.07812 2.92998C8.0861 2.93414 8.05757 2.99305 8.08887 2.99931C8.15987 3.01336 8.29463 3.00248 8.34961 3.00713C8.45543 3.01637 8.47304 3.01622 8.57324 3.01689C8.71029 3.01833 8.87348 3.04777 9.02051 3.03447C9.05157 3.03125 9.01058 2.97145 9.06055 2.96123C9.11071 2.9511 9.24216 2.95594 9.28711 2.97002C9.33181 2.98421 9.31338 3.03144 9.32129 3.04228C9.38642 3.13351 9.53986 3.00733 9.55957 3.0042C9.91916 2.95087 10.2279 3.02296 10.5654 3.02275C10.8215 3.02242 11.0952 2.99804 11.3389 3.00127C11.6293 3.00539 11.876 3.0381 12.1582 3.03252C12.1879 3.032 12.1535 2.96138 12.1895 2.96025C12.3488 2.95686 12.5083 2.95654 12.667 2.96025C12.9565 2.96505 13.2427 3.05598 13.4746 3.21806C13.5136 3.24573 13.4307 3.26974 13.4658 3.30009C13.557 3.37768 13.6516 3.49002 13.7383 3.59502C13.861 3.74094 13.9707 3.87302 14.1572 3.89287C14.2431 4.07496 14.3003 4.31963 14.2617 4.49736C14.2359 4.6097 14.162 4.50939 14.1963 4.63799C14.2031 4.6652 14.2564 4.63135 14.2666 4.66631C14.2671 4.6679 14.2673 4.67022 14.2676 4.67217C14.2892 4.83348 14.2702 5.00967 14.3008 5.16924C14.3071 5.20171 14.3606 5.19324 14.3701 5.20244C14.4466 5.27958 14.3195 5.40732 14.3096 5.43584C14.2402 5.64953 14.2683 5.8061 14.2666 6.00517C14.2663 6.05114 14.3367 5.99689 14.3389 6.04131C14.3491 6.27179 14.3432 6.51094 14.3115 6.73662C14.3041 6.78595 14.2443 6.74076 14.2373 6.76396C14.2091 6.86977 14.3236 6.89393 14.2988 6.99541C14.2932 7.01597 14.243 7.00465 14.2363 7.0081C14.1468 7.06909 14.2732 7.1222 14.2764 7.13799C14.3147 7.33664 14.1825 7.46368 14.2012 7.65556C14.2036 7.67853 14.2688 7.62714 14.2715 7.6917C14.2896 8.12171 14.2714 8.57661 14.2188 9.00224C14.2106 9.06819 14.1614 9.02152 14.1553 9.02568C14.0609 9.09327 14.187 9.13688 14.1924 9.15849C14.227 9.32875 14.1205 9.48812 14.2725 9.60381C14.2302 10.1823 14.2768 10.7587 14.2266 11.3333C14.2143 11.4988 14.1682 11.6603 14.0928 11.803C14.0878 11.8118 14.0343 11.7757 14.0254 11.7933C13.9086 11.9992 14.0155 11.9894 14.0303 12.2015C14.0313 12.2582 13.8382 12.2779 13.8223 12.2767C13.7675 12.2822 13.7214 12.1928 13.707 12.1966C13.6341 12.2214 13.7177 12.3147 13.7451 12.4114C13.7586 12.4587 13.7578 12.5073 13.7178 12.5423C13.7136 12.5441 13.6922 12.4897 13.6787 12.4925C13.6371 12.5052 13.6194 12.5482 13.5762 12.556C13.4749 12.5724 13.3773 12.4604 13.3096 12.595C13.3004 12.6128 13.4048 12.7595 13.2695 12.8089C13.2174 12.8321 12.9754 12.9039 12.9033 12.8978C12.8355 12.896 12.871 12.8374 12.8682 12.8323C12.6839 12.7768 12.7484 12.7369 12.667 12.6292C12.5878 12.5193 12.6091 12.7803 12.5771 12.8108C12.5447 12.8401 12.428 12.7786 12.3994 12.7571C12.3712 12.7357 12.4062 12.6999 12.3809 12.6878C12.2131 12.609 12.307 12.8176 12.252 12.8597C12.1212 12.9585 12.0192 12.7635 11.8994 12.7444C11.8671 12.7394 11.8931 12.7842 11.8643 12.7884C11.7502 12.804 11.6816 12.7434 11.5518 12.7991C11.5305 12.8082 11.4254 12.9251 11.3574 12.8392C11.3478 12.8268 11.3749 12.7778 11.3262 12.7669C11.2534 12.7506 11.1221 12.7399 11.0439 12.7561C10.9867 12.7683 11.0526 12.8481 10.9805 12.8235C10.9482 12.8125 11.0073 12.7664 10.9473 12.7493C10.887 12.7324 10.7328 12.734 10.6738 12.7356C10.6159 12.7373 10.6464 12.7967 10.6426 12.802C10.6139 12.8255 10.5014 12.8548 10.4912 12.8548C9.98979 12.8622 9.52727 12.7594 9.03906 12.7933C9.00085 12.7959 9.02635 12.8606 9.02051 12.8616C8.88945 12.8884 8.99297 12.7174 8.90137 12.6604C8.91461 12.7904 8.85997 12.7673 8.76758 12.7815C8.72349 12.7887 8.74722 12.8389 8.74316 12.844C8.67724 12.9201 8.63195 12.8212 8.62012 12.8011C8.57642 12.7271 8.52875 12.8145 8.49902 12.7649C8.46961 12.7157 8.53704 12.6432 8.44922 12.6438C8.42443 12.6902 8.48929 12.8112 8.42285 12.8313C8.16903 12.9059 7.69432 12.811 7.49023 12.8011C7.28693 12.7912 7.22113 12.7993 7.10254 12.7825C6.8884 12.7522 6.96669 12.8428 6.83398 12.8841C6.70052 12.9253 6.76523 12.7034 6.74609 12.6556C6.72726 12.6079 6.70605 12.6574 6.68262 12.6311C6.65927 12.605 6.71007 12.5726 6.65527 12.5628C6.60045 12.553 6.45076 12.6369 6.43066 12.6868C6.38948 12.7925 6.45696 12.9035 6.31152 12.8645C6.30381 12.8614 6.32997 12.8044 6.29883 12.7981C6.04444 12.7532 5.77947 12.751 5.52539 12.7112C5.49087 12.7055 5.52173 12.6405 5.50195 12.636C5.29018 12.5945 5.36509 12.7039 5.24902 12.8255C5.27493 12.6639 5.21127 12.5648 5.05078 12.5638C4.95421 12.5631 4.97058 12.6341 4.9082 12.6839C4.88946 12.6989 4.82098 12.6507 4.80859 12.6839C4.76786 12.7925 4.83165 12.9139 4.66602 12.8655C4.65988 12.8614 4.68192 12.8036 4.65723 12.8001C4.49485 12.7765 4.47533 12.8898 4.2998 12.9036C4.16221 12.9144 3.91739 12.8455 3.76074 12.8343C3.76404 12.6524 3.61667 12.6942 3.55664 12.8196C3.4841 12.816 3.40668 12.8183 3.33301 12.8138C3.30024 12.8119 3.2679 12.808 3.2373 12.8011C3.20091 12.7924 3.2289 12.7416 3.22461 12.7356C3.16575 12.642 3.10727 12.7544 3.08105 12.7552C2.81044 12.7502 2.65679 12.579 2.40918 12.5003C2.39959 12.4994 2.30687 12.5844 2.31445 12.469C2.31688 12.462 2.41467 12.4733 2.33203 12.3919C2.32341 12.3831 2.3137 12.373 2.30469 12.3616C2.22509 12.2644 2.15557 12.0906 2.04688 11.9876C2.0173 11.9622 1.87849 11.9053 1.92871 11.8001C1.93613 11.7868 1.97382 11.7862 1.98828 11.7659C2.03543 11.703 1.90503 11.7097 1.99805 11.6302C2.08732 11.5544 2.14697 11.4593 2.08984 11.3333C2.08693 11.3262 2.08371 11.3191 2.08008 11.3118C2.07791 11.3071 1.97757 11.2717 1.97852 11.2249C1.98116 11.1498 2.00261 11.0425 2.00195 10.9642C2.0013 10.9278 1.94098 10.9498 1.9375 10.9446C1.90229 10.6924 1.95809 10.5126 1.98242 10.2425C1.987 10.1929 1.90112 10.0503 1.96875 9.95439C2.04293 9.84907 2.35179 9.95718 2.27832 9.71513C2.24891 9.61748 1.8577 9.49414 2.06055 9.31865C2.01028 8.9783 2.11376 8.66288 2.04199 8.32158C2.03745 8.3059 1.92919 8.25781 1.93066 8.22197C1.93308 8.16848 1.98382 8.13905 1.9873 8.10088C2.00269 7.9406 1.95902 7.79349 1.96582 7.63896C1.96846 7.58079 2.0213 7.60094 2.02441 7.53154C2.02732 7.46161 1.95763 7.41439 1.99121 7.31963C2.01693 7.2481 2.15922 7.17629 2.17578 7.08135C2.03559 7.07772 2.03798 7.01274 2.00098 6.89677C1.99354 6.87487 1.94536 6.89849 1.93945 6.88799C1.91439 6.84521 1.95459 6.80555 1.92773 6.76494C1.92124 6.75515 1.8742 6.75419 1.86523 6.74638C1.79474 6.67748 1.90213 6.56376 1.9209 6.54424C1.99211 6.46951 1.92996 6.43456 1.95801 6.37724C1.98599 6.3202 2.02104 6.40524 2.03809 6.33916C2.07328 6.2006 2.06518 6.02187 2.06738 5.88115C2.06779 5.82597 2.0057 5.86267 2.00293 5.85576C1.98674 5.73979 2.05444 5.62233 1.92773 5.55791C2.25631 5.4775 1.8952 5.48741 1.96094 5.32158C1.96627 5.30851 2.12266 5.2919 2.14551 5.34209C2.16822 5.39228 2.11968 5.46879 2.15527 5.53838C2.16564 5.55588 2.30874 5.64815 2.31836 5.66142C2.38741 5.76238 2.15438 5.77717 2.1416 5.78252C2.0042 5.84293 2.16027 5.95781 2.17188 5.98857C2.22163 6.12763 2.1891 6.24628 2.22461 6.3626C2.24776 6.43824 2.3984 6.44591 2.39453 6.50517C2.37912 6.70371 2.1674 6.77319 2.35156 6.96025C2.39087 7.00037 2.55673 6.96102 2.42578 7.10478C2.41559 7.1155 2.29895 7.22142 2.37402 7.28252C2.38415 7.29006 2.43248 7.28997 2.43652 7.3001C2.4626 7.36834 2.4239 7.41414 2.44238 7.48857C2.46089 7.56306 2.48805 7.65255 2.47168 7.7376C2.46187 7.78875 2.3721 7.85446 2.34961 7.8792C2.28586 7.94853 2.39056 8.02372 2.31348 8.0667C2.23586 8.11002 2.11753 8.02535 2.06738 8.13896C2.19348 8.14317 2.32339 8.15271 2.4502 8.15947C2.44573 8.40825 2.40463 8.65303 2.41016 8.90263C2.41097 8.93361 2.47882 8.90264 2.48145 8.93584C2.49209 9.07572 2.4437 9.19798 2.46289 9.34306C2.47805 9.45551 2.55028 9.579 2.56836 9.69658C2.42407 9.7684 2.47315 9.94288 2.45996 10.0696C2.45538 10.114 2.41686 10.1113 2.4043 10.1429C2.35798 10.2618 2.48478 10.206 2.50488 10.2386C2.59052 10.3787 2.30244 10.3908 2.30957 10.556C2.31225 10.5661 2.46079 10.6698 2.47266 10.6858C2.535 10.7793 2.41995 10.7021 2.4082 10.7601C2.38743 10.867 2.35045 10.9422 2.39551 11.0677C2.40942 11.1045 2.50455 11.1922 2.43066 11.263C2.42064 11.2722 2.37015 11.2672 2.36719 11.2747C2.35884 11.2977 2.3563 11.3169 2.3584 11.3333C2.36942 11.393 2.48846 11.396 2.53711 11.429C2.59431 11.4659 2.50398 11.5565 2.47949 11.5843C2.4143 11.6495 2.43548 11.5633 2.42871 11.5608C2.32846 11.5547 2.3586 11.6153 2.36816 11.6663C2.22173 11.7239 2.26157 11.7989 2.37988 11.719C2.39259 11.7107 2.36503 11.6788 2.36816 11.6663C2.52933 11.6608 2.56353 11.6972 2.48242 11.8421C2.44676 11.9103 2.35578 11.9231 2.45898 12.0149C2.50729 12.0543 2.57595 11.9675 2.62891 11.9827C2.6432 11.9866 2.6561 11.9917 2.66797 11.9983C2.75307 12.046 2.80492 12.177 2.90332 12.2093C2.94192 12.2212 2.93283 12.1509 2.95898 12.1565C3.02584 12.1695 3.07017 12.2309 3.14355 12.2239C3.14989 12.2231 3.14928 12.1592 3.16895 12.1624C3.22536 12.1708 3.2785 12.1807 3.33301 12.1868C3.47238 12.1968 3.61077 12.2115 3.76465 12.2122C3.88456 12.2127 4.09934 12.179 4.22363 12.1858C4.43887 12.1973 4.70372 12.2866 4.8877 12.2649C5.00757 12.251 4.98201 12.1899 5.0332 12.1478C5.13243 12.0661 5.30838 12.212 5.33203 12.2347C5.33204 12.2355 5.22959 12.25 5.28418 12.2815C5.31622 12.3477 5.33087 12.235 5.33203 12.2347C5.34894 12.2492 5.55392 12.263 5.59473 12.2513C5.61658 12.2444 5.60466 12.1861 5.61621 12.1839C5.89192 12.1315 6.16861 12.1165 6.44824 12.1438C6.45284 12.1464 6.44558 12.2112 6.45703 12.2132C6.61889 12.2422 6.72292 12.1621 6.85645 12.1145C6.98989 12.0671 7.09579 12.0832 7.1748 12.1956C7.27549 12.1815 7.41973 12.2309 7.50293 12.261C7.58612 12.2912 7.59815 12.1639 7.60547 12.1614C7.83366 12.0808 7.96551 12.1529 8.20215 12.1644C8.31468 12.17 8.53817 12.1519 8.66016 12.138C8.75645 12.1268 8.81464 12.156 8.90332 12.137C8.91533 12.1345 8.90356 12.0777 8.90723 12.0755C9.00595 12.008 8.95912 12.1463 8.97949 12.1712C9.05362 12.2613 9.09886 12.3092 9.22559 12.2669C9.25479 12.2572 9.34018 12.0586 9.39356 12.0462C9.46293 12.0314 9.43713 12.1026 9.50977 12.0853C9.51583 12.0832 9.51506 12.0403 9.55957 12.0423C9.76764 12.0508 9.99473 12.076 10.2109 12.0716C10.24 12.0708 10.2026 12.0011 10.2451 11.9993C10.4454 11.991 10.6653 11.9938 10.8604 12.0267C10.9076 12.0352 10.8784 12.0833 10.8887 12.0979C10.9522 12.1855 11.0416 12.0603 11.0576 12.056C11.4148 11.9944 11.6886 12.1102 12.0527 12.055C12.0727 12.0515 12.225 11.9148 12.293 12.0325C12.2979 12.0409 12.3654 12.1606 12.4248 12.0784C12.4285 12.0733 12.3867 12.0115 12.46 12.0179C12.5133 12.0223 12.5904 12.0013 12.667 12.0159C12.6816 12.0214 12.6962 12.0317 12.7119 12.0491C12.7272 12.0698 12.7931 12.1846 12.8301 12.0784C12.8389 12.0651 12.8432 11.8473 12.915 11.9759C12.9271 11.9971 12.9841 12.1472 13.0137 12.0442C13.0178 12.0247 12.9829 12.0026 13 11.969C13.0239 11.9187 13.1021 11.9174 13.0977 11.8274C13.0968 11.8169 13.0783 11.771 13.083 11.7503C13.086 11.7386 13.0973 11.7339 13.126 11.7454C13.1386 11.7503 13.1715 11.7932 13.1875 11.7845C13.2652 11.7378 13.2802 11.6433 13.3428 11.5755C13.365 11.5501 13.4406 11.5926 13.4736 11.5638C13.5067 11.5347 13.5446 11.4565 13.5088 11.4124C13.4729 11.3707 13.3349 11.3987 13.3262 11.3509C13.325 11.345 13.3234 11.3392 13.3223 11.3333C13.2835 10.9346 13.3588 10.5392 13.3701 10.1409C13.3718 10.0803 13.3233 10.1304 13.3223 10.0413C13.3186 9.71056 13.2735 9.13885 13.377 8.85185C13.4598 8.6225 13.5229 8.91128 13.5566 8.73564C13.5724 8.65091 13.4142 8.55883 13.4092 8.53838C13.3588 8.33862 13.4287 8.19968 13.4072 8.01982C13.4027 7.98278 13.3392 8.01903 13.3359 7.9876C13.3248 7.87955 13.3529 7.76564 13.3477 7.6624C13.345 7.61643 13.2961 7.62479 13.2998 7.58232C13.3083 7.48034 13.3291 7.38974 13.375 7.29033C13.3803 7.28276 13.4401 7.34157 13.4424 7.26689C13.446 7.14485 13.4911 6.99317 13.4443 6.85283C13.4298 6.81143 13.3184 6.80941 13.3955 6.72002C13.4117 6.70122 13.5458 6.72576 13.4297 6.62138C13.4101 6.60351 13.2546 6.42805 13.3555 6.34209C13.3823 6.31929 13.4919 6.26126 13.4746 6.21123C13.4719 6.20443 13.4111 6.23128 13.4053 6.18974C13.3857 6.04349 13.3928 5.88978 13.374 5.73955C13.3686 5.7001 13.3065 5.75919 13.3008 5.69951C13.2851 5.53494 13.3008 5.32915 13.3203 5.16826C13.3278 5.10953 13.3792 5.15011 13.3848 5.1458C13.4757 5.07644 13.3529 5.03504 13.3457 5.01201C13.3072 4.8831 13.3499 4.78158 13.3477 4.66631C13.3474 4.65989 13.3464 4.6533 13.3447 4.64677C13.3398 4.62861 13.2817 4.6443 13.2764 4.64092C13.2234 4.60987 13.3302 4.62862 13.3398 4.60381C13.3666 4.5329 13.3425 4.45292 13.3076 4.39189C13.2947 4.36962 13.2438 4.42222 13.2334 4.40361C13.1967 4.34091 13.1543 4.28242 13.1084 4.2249C13.0759 4.18421 13.0418 4.14409 13.0049 4.10381C12.988 4.08549 13.0268 4.04745 13.0283 4.03447C13.0341 3.94088 12.9294 4.02023 12.917 4.02763C12.8501 4.05476 12.8452 4.00613 12.7959 4.0042C12.7536 4.00381 12.7103 4.00465 12.667 4.0081C12.2641 4.02402 11.8173 4.00121 11.4609 3.98564C10.8953 3.96123 10.4564 3.91117 9.91699 3.92412C9.88283 3.92497 9.91723 3.99386 9.8877 3.99541C9.50617 4.01221 9.13034 3.98503 8.74805 4.00517C8.71714 4.007 8.76188 4.07264 8.71191 4.07744C8.60863 4.0875 8.47748 4.0839 8.37305 4.06279C8.32263 4.05247 8.39005 3.99666 8.33887 3.98759C8.21971 3.96641 8.09211 3.96142 7.96973 3.97197C7.91754 3.97662 7.99556 4.04443 7.92773 4.04521C7.46583 4.05192 7.0117 4.06342 6.54492 3.97588C6.51309 3.96875 6.48475 3.83245 6.41699 3.85869C6.41188 3.89682 6.41239 3.94197 6.41016 3.98271C5.7376 4.00467 5.0719 3.95688 4.39746 3.94951C4.36908 3.94921 4.41784 4.0217 4.36328 4.02177C4.04468 4.0207 3.73507 4.0404 3.40918 3.96806C3.38162 3.96203 3.38901 3.86849 3.33301 3.85283C3.32712 3.85022 3.31993 3.84978 3.31152 3.85283C3.3005 3.85563 3.21568 3.8803 3.2002 3.9124C3.1984 3.91699 3.22193 3.97299 3.19922 3.97978C3.06767 4.01448 2.9377 4.06808 2.8125 4.1458C2.80771 4.14877 2.80262 4.15155 2.79785 4.15459C2.77682 4.16807 2.74855 4.1056 2.73242 4.11552C2.61311 4.19554 2.58566 4.3484 2.5 4.46025C2.44245 4.54062 2.34161 4.48768 2.22559 4.53252C2.20873 4.53932 2.2003 4.61173 2.1377 4.61357C1.97868 4.61943 1.80742 4.5645 1.6377 4.57451C1.60032 4.57772 1.63721 4.72807 1.55078 4.63799C1.54418 4.63184 1.51992 4.51673 1.49414 4.48467C1.47543 4.46273 1.40832 4.49299 1.38672 4.44756C1.36573 4.40096 1.42502 4.36191 1.4082 4.28642C1.39283 4.20975 1.31139 4.22486 1.34375 4.07646C1.41054 3.77279 1.62937 3.42335 1.87988 3.21318C1.91423 3.18338 1.94835 3.15547 1.98242 3.13017C2.07053 3.06654 2.05425 3.13227 2.11621 3.09306C2.23755 3.01894 2.34116 2.93269 2.47559 2.88799C2.51934 2.87448 2.49544 2.95489 2.54004 2.93974C2.78244 2.8596 3.01484 2.78818 3.27246 2.79228C3.29264 2.79269 3.3129 2.79321 3.33301 2.79424ZM7.9873 12.6683C8.02078 12.597 7.89565 12.5912 7.92188 12.6653C7.92341 12.6683 7.98566 12.6712 7.9873 12.6683ZM11.9414 12.6224C11.9382 12.5619 11.8764 12.579 11.8965 12.6351C11.8977 12.6384 11.9423 12.6413 11.9414 12.6224ZM14.1094 11.4495C14.0034 11.3664 13.9527 11.6505 14.0801 11.6116C14.0889 11.6098 14.1163 11.4573 14.1094 11.4495ZM2.23535 8.65166C2.13641 8.75236 2.28199 8.82134 2.3584 8.75029C2.43467 8.67927 2.26535 8.62099 2.23535 8.65166ZM2.16309 7.60771C2.08569 7.72519 2.40313 7.74345 2.33887 7.61748C2.33359 7.61016 2.16759 7.60087 2.16309 7.60771ZM2.08496 6.57158C2.04199 6.60827 2.09111 6.71345 2.14453 6.66826C2.18757 6.63151 2.13848 6.52586 2.08496 6.57158ZM1.91016 4.66924C1.9262 4.64735 2.0793 4.79245 2.08105 4.80986L2.06543 4.90166C2.0076 5.10239 1.8101 5.19243 1.83594 4.94463C1.8413 4.89331 1.91967 5.05487 1.94336 4.98955C1.98629 4.87016 1.82194 4.79109 1.91016 4.66924ZM2.24609 4.29326C2.30408 4.3412 2.34357 4.24877 2.26758 4.2415C2.26344 4.24349 2.2435 4.29103 2.24609 4.29326Z" fill="#555961"/>
<path d="M4.38737 6.00005C4.36447 5.72113 4.65148 5.62078 4.86491 5.80181C4.88762 5.82144 4.90875 5.84279 4.94206 5.84966C4.95326 5.85185 4.98906 5.81254 4.99772 5.80767C5.0677 5.76946 5.00484 5.88541 5.00358 5.89849C4.99859 5.99153 5.04969 6.00476 5.08952 6.04693C5.09874 6.05675 5.1384 5.99534 5.14909 6.00298C5.16919 6.0178 5.18591 6.03624 5.2028 6.05474L5.33659 6.00005C5.33175 6.02325 5.31226 6.04505 5.32194 6.06939C5.32674 6.07949 5.38255 6.07251 5.38932 6.07427C5.44023 6.09611 5.33637 6.08027 5.32389 6.0938C5.29098 6.13272 5.29588 6.17652 5.30339 6.21587L5.30534 6.21685C5.30906 6.21688 5.31109 6.21842 5.31315 6.22076C5.33273 6.22369 5.37382 6.21678 5.37565 6.22662C5.38462 6.28531 5.38199 6.34565 5.36393 6.40435C5.3666 6.41706 5.37193 6.42783 5.38346 6.43365C5.38986 6.43669 5.42582 6.37965 5.44108 6.39068C5.54258 6.46649 5.62395 6.57332 5.67448 6.6983C5.6817 6.71762 5.63787 6.74297 5.63444 6.7481C5.5813 6.8292 5.68031 6.74803 5.68815 6.74908C5.74727 6.76001 5.70467 6.86756 5.83561 6.78423C5.88614 6.86861 5.9564 6.93338 6.02311 7.00103C6.04811 7.0154 6.07119 7.03053 6.07585 7.03326C6.11071 7.05342 6.1695 7.1269 6.17741 7.12994C6.23969 7.15143 6.01813 6.93584 6.04557 6.90826C6.04842 6.90984 6.08336 6.95153 6.08952 6.95318C6.1091 6.95851 6.10041 6.93602 6.12077 6.94244C6.16888 6.95842 6.2811 7.05907 6.24382 6.97271C6.23776 6.96065 6.1118 6.84381 6.1403 6.82427C6.15253 6.81692 6.19433 6.77077 6.21452 6.76666C6.23389 6.76319 6.26363 6.80734 6.26823 6.81158C6.35376 6.83173 6.36405 6.86593 6.45866 6.92779C6.55248 6.989 6.36364 6.80977 6.34831 6.7813C6.33436 6.75404 6.4012 6.77297 6.42253 6.78228C6.44344 6.7915 6.46148 6.82447 6.47526 6.82818C6.56584 6.84949 6.39917 6.72096 6.38053 6.67974C6.33764 6.58292 6.49664 6.69971 6.53483 6.68853C6.54494 6.68541 6.50839 6.65931 6.51139 6.65044C6.52378 6.61577 6.58067 6.64438 6.56803 6.57818C6.56566 6.56686 6.50512 6.46315 6.57975 6.50982C6.59052 6.51677 6.6187 6.55544 6.63639 6.55376C6.66284 6.55033 6.69795 6.5314 6.7028 6.50396C6.70621 6.48356 6.63605 6.43983 6.66862 6.44244C6.68312 6.4442 6.70385 6.48983 6.72819 6.48931C6.75238 6.48876 6.78243 6.45589 6.79362 6.44244C6.79717 6.43813 6.79425 6.43115 6.78874 6.42388C6.78629 6.42203 6.78324 6.42089 6.78092 6.419C6.7713 6.41111 6.76553 6.40279 6.76139 6.39556C6.75748 6.39213 6.75441 6.38984 6.75358 6.38873C6.74325 6.36694 6.7447 6.32476 6.74674 6.32037C6.79009 6.27239 6.84732 6.2407 6.90397 6.21001C6.87353 6.20396 6.82928 6.2015 6.8278 6.20025C6.74729 6.13375 6.82035 6.09544 6.83171 6.02642C6.83296 6.01904 6.83256 6.00999 6.83171 6.00005L7.06413 6.09576C7.07281 6.08572 7.0823 6.07618 7.08952 6.06451C7.09541 6.05508 7.04802 6.01681 7.04557 6.01275C7.05362 5.96688 7.15235 6.10691 7.21159 6.12896C7.11758 6.04031 7.145 6.04568 7.15397 6.01666C7.15817 6.00272 7.11858 5.97287 7.11491 5.96783C7.07458 5.90035 7.15358 5.95968 7.17057 5.97173C7.23211 6.01524 7.18011 5.94374 7.22135 5.97271C7.26225 6.0015 7.29948 6.0668 7.31706 6.04791C7.28911 6.00994 7.19076 5.93813 7.1901 5.91021C7.19005 5.89439 7.19338 5.87994 7.19987 5.86724C7.32168 5.72363 7.50573 5.81238 7.52116 6.00005C7.54552 6.07654 7.47585 6.18398 7.46745 6.23443C7.46576 6.24461 7.46534 6.25368 7.46452 6.26177L7.68815 6.35455C7.66609 6.38075 7.64338 6.42215 7.63151 6.44927C7.6196 6.47706 7.58654 6.46833 7.58171 6.50005C7.58105 6.50426 7.62246 6.54053 7.62467 6.544C7.65229 6.61247 7.56342 6.50458 7.54167 6.49126C7.51141 6.47272 7.4856 6.45952 7.46647 6.45123C7.45407 6.45137 7.44118 6.45135 7.42839 6.45123C7.42547 6.45645 7.42274 6.46345 7.4235 6.47466C7.42385 6.48011 7.44693 6.51094 7.47233 6.54693C7.52364 6.54788 7.55465 6.55202 7.5319 6.5772C7.53055 6.57862 7.5098 6.57735 7.49186 6.5772C7.52021 6.61783 7.54684 6.65711 7.54557 6.66607C7.54154 6.69034 7.49651 6.63499 7.49382 6.66216C7.49624 6.6668 7.52432 6.69564 7.51432 6.70318C7.47238 6.73485 7.42016 6.76213 7.37956 6.79888C7.37838 6.80121 7.37885 6.80437 7.3776 6.80669C7.37668 6.80839 7.37344 6.80689 7.36979 6.80767C7.36655 6.81094 7.36205 6.813 7.35905 6.81646C7.35405 6.82267 7.40103 6.85929 7.40104 6.87212C7.4289 6.87584 7.46073 6.87881 7.49284 6.88775C7.45518 6.88598 7.42071 6.88567 7.3903 6.88677C7.36154 6.92196 7.3268 6.95349 7.2819 6.97173C7.30359 6.97548 7.32886 6.97865 7.35026 6.98638C7.36525 6.99184 7.31739 7.01201 7.35026 7.01568C7.4589 7.02759 7.58033 7.00936 7.5319 7.05767C7.52623 7.05918 7.47046 7.0527 7.46647 7.05962C7.4429 7.10697 7.5572 7.11294 7.57096 7.16412C7.58175 7.20423 7.51192 7.27568 7.50065 7.32134C7.31913 7.32043 7.36073 7.36341 7.486 7.38091C7.48087 7.41055 7.48771 7.44309 7.47038 7.47173C7.46324 7.48069 7.41439 7.47477 7.4069 7.47564C7.31763 7.49471 7.43923 7.50831 7.44401 7.5147C7.48995 7.5838 7.39831 7.64015 7.48796 7.70611C7.49121 7.70846 7.61792 7.71287 7.52604 7.73052C7.5197 7.73166 7.46241 7.70954 7.45768 7.74029C7.45323 7.77141 7.38562 7.82988 7.44401 7.8731C7.45811 7.88356 7.56029 7.91046 7.48014 7.93169C7.46905 7.93444 7.43282 7.93154 7.41276 7.9356C7.34918 7.94876 7.47618 7.95624 7.36784 7.97173C7.25944 7.98726 7.17877 8.01899 7.25358 8.06255C7.26054 8.06434 7.35521 8.07475 7.35514 8.08794C7.3525 8.10983 7.33105 8.14127 7.33171 8.16412C7.33229 8.17497 7.39501 8.16808 7.39616 8.16998C7.43133 8.24351 7.37555 8.29627 7.35124 8.37505C7.3483 8.38981 7.43102 8.43035 7.36491 8.45806C7.29072 8.48877 6.98182 8.45779 7.05534 8.52837C7.08585 8.55682 7.47563 8.59253 7.27311 8.64361C7.32338 8.74283 7.2199 8.83512 7.29167 8.93462C7.29778 8.93931 7.40348 8.95355 7.40202 8.96392C7.39874 8.97927 7.34871 8.98803 7.34538 8.99908C7.3302 9.04572 7.37365 9.08886 7.36686 9.13384C7.36355 9.1504 7.31217 9.14487 7.30924 9.16509C7.30655 9.18543 7.37501 9.19903 7.34147 9.22662C7.31514 9.24737 7.17477 9.26843 7.15788 9.29595C7.29752 9.29703 7.29496 9.31601 7.33171 9.34966C7.33889 9.35616 7.38829 9.34952 7.39421 9.35259C7.41862 9.36504 7.37868 9.3769 7.40592 9.38873C7.4129 9.39156 7.46019 9.39128 7.46842 9.39361C7.5388 9.41366 7.4318 9.4474 7.41276 9.45318C7.34176 9.4749 7.40306 9.48441 7.37565 9.50103C7.34761 9.51771 7.31259 9.49326 7.29557 9.51275C7.26047 9.55303 7.26744 9.60459 7.2653 9.64556C7.26472 9.66193 7.32933 9.65103 7.33073 9.65337C7.34688 9.68721 7.27876 9.72152 7.40592 9.74029C7.07694 9.76375 7.4375 9.76029 7.37174 9.80865C7.36642 9.81246 7.211 9.81742 7.18815 9.80279C7.16579 9.78816 7.21382 9.76638 7.17839 9.74615C7.17003 9.74134 7.02414 9.71377 7.0153 9.71001C6.94625 9.68058 7.17928 9.67642 7.19206 9.67486C7.32926 9.65719 7.17271 9.62318 7.16178 9.61431C7.1121 9.57382 7.14434 9.53978 7.10905 9.50591C7.08612 9.48376 6.93376 9.48129 6.93815 9.46392C6.95357 9.40604 7.16635 9.38565 6.9821 9.33111C6.94281 9.31942 6.77624 9.33097 6.9069 9.28912C6.91515 9.28649 7.03506 9.25534 6.95964 9.23736C6.95008 9.2351 6.90121 9.23545 6.89714 9.23248C6.87097 9.21264 6.90906 9.19931 6.89128 9.17779C6.87277 9.15607 6.84462 9.12935 6.861 9.10455C6.87085 9.08959 6.96191 9.07069 6.98405 9.06353C7.04736 9.04333 6.94304 9.02135 7.02018 9.00884C7.0978 8.99621 7.21613 9.02146 7.26628 8.98834C7.14018 8.98711 7.01027 8.98347 6.88346 8.9815C6.88802 8.90904 6.92906 8.83741 6.9235 8.7647C6.9215 8.75622 6.85661 8.76483 6.85221 8.75591C6.84144 8.71507 6.88904 8.67912 6.86979 8.63677C6.85452 8.60402 6.78336 8.5675 6.7653 8.53326C6.90942 8.51231 6.86052 8.4618 6.8737 8.42486C6.87836 8.41198 6.91681 8.41256 6.92936 8.40337C6.97512 8.36906 6.8504 8.38504 6.82878 8.37603C6.74318 8.3352 7.03093 8.33135 7.02409 8.28326C7.02381 8.28071 6.86961 8.24947 6.86003 8.24517C6.79837 8.21813 6.91393 8.24065 6.92546 8.22369C6.94621 8.19252 6.98308 8.17039 6.93815 8.13384C6.9248 8.12317 6.82883 8.09792 6.90299 8.0772C6.91323 8.07456 6.96352 8.07547 6.96647 8.0733C7.01505 8.03388 6.85657 8.03239 6.80241 8.00982C6.74831 7.98712 6.85851 7.9525 6.8903 7.94537C6.97215 7.92684 6.92521 7.95998 6.93327 7.96099C7.02892 7.9728 7.01322 7.94729 7.02116 7.92779C7.17736 7.92493 7.16802 7.89746 7.02897 7.90728C7.01381 7.9084 7.02809 7.92378 7.02116 7.92779C6.86749 7.91064 6.84737 7.87989 6.99089 7.84673C7.0582 7.83121 7.13679 7.84604 7.10807 7.79888C7.09452 7.77775 6.98699 7.78548 6.95768 7.76666C6.89136 7.72354 6.99108 7.6675 6.97526 7.6231C6.96876 7.60777 6.91188 7.62265 6.90495 7.61236C6.88895 7.58313 6.93323 7.55674 6.91081 7.5274C6.9087 7.52476 6.8474 7.53124 6.84538 7.52251C6.83952 7.46599 6.86163 7.41443 6.87174 7.35845C6.86561 7.35726 6.85822 7.35771 6.85026 7.35455C6.8285 7.34593 6.72787 7.27695 6.77604 7.36431C6.782 7.37404 6.90069 7.55252 6.78581 7.45904C6.76665 7.44339 6.65613 7.32946 6.6901 7.41021C6.69676 7.42579 6.73022 7.44245 6.73405 7.46978C6.74003 7.51183 6.68587 7.50617 6.71354 7.57818C6.71903 7.59161 6.77771 7.68251 6.70768 7.63873C6.69667 7.63182 6.66343 7.59073 6.65202 7.59283C6.59881 7.60593 6.58848 7.66606 6.52897 7.67388C6.50772 7.6759 6.45392 7.61032 6.42546 7.6065C6.39689 7.60276 6.35638 7.61196 6.37077 7.6524C6.38536 7.69301 6.49584 7.7756 6.48405 7.80279C6.48258 7.80616 6.48078 7.80933 6.47917 7.81255C6.176 8.04718 5.75585 8.1156 5.52116 7.81255C5.42654 7.76528 5.38881 7.66062 5.33366 7.57427C5.33297 7.65292 5.32428 7.73131 5.33854 7.8106C5.34006 7.81968 5.40531 7.80715 5.41081 7.82134C5.42086 7.85145 5.41727 7.88953 5.39616 7.91998C5.38594 7.93456 5.33077 7.91555 5.32096 7.92974C5.29969 7.96454 5.29474 8.00239 5.30534 8.03814C5.31052 8.05293 5.37757 8.03035 5.37858 8.04986C5.38529 8.18456 5.39681 8.31706 5.30924 8.45318C5.30312 8.4625 5.16593 8.47048 5.19206 8.49029C5.23019 8.49178 5.27532 8.49159 5.31608 8.49224C5.33804 8.68828 5.29026 8.88257 5.28288 9.07916C5.28259 9.08738 5.35415 9.0735 5.35514 9.08892C5.35407 9.18182 5.37381 9.27222 5.30143 9.36724C5.29398 9.37659 5.16739 9.37189 5.1862 9.39947C5.18972 9.40434 5.20649 9.44601 5.23405 9.45709C5.23824 9.45855 5.29871 9.45141 5.30046 9.4649C5.30947 9.54308 5.29582 9.62513 5.25944 9.70318C5.25343 9.7158 5.18908 9.70298 5.18424 9.71197C5.15089 9.77558 5.19869 9.84455 5.14128 9.90533C5.10235 9.94613 4.99181 9.9315 4.88346 9.95318C4.86861 9.95667 4.86557 9.98114 4.80339 9.98248C4.64495 9.98583 4.47129 9.97357 4.30241 9.97857C4.26609 9.97963 4.3047 10.014 4.21745 9.99419C4.21156 9.99279 4.18185 9.96801 4.15202 9.96197C4.13138 9.95777 4.06709 9.96469 4.04069 9.95611C4.01514 9.94756 4.06767 9.93805 4.03678 9.92388C4.00508 9.90998 3.93306 9.91598 3.92448 9.88775C3.905 9.8218 3.92609 9.73565 3.95475 9.66998C3.96358 9.64954 4.00205 9.65928 4.01042 9.64556C4.02582 9.61786 4.00699 9.59187 4.02507 9.56451C4.03136 9.55541 4.09404 9.56621 4.09928 9.55669C4.12705 9.50449 4.11145 9.45527 4.12467 9.4024C4.19071 9.14136 4.21415 8.8844 4.24284 8.62017C4.25225 8.53303 4.30982 8.42697 4.28483 8.33697C4.28183 8.32673 4.22888 8.33272 4.22233 8.33111C4.15259 8.29975 4.26415 8.30959 4.27897 8.28912C4.33731 8.20794 4.34227 8.11722 4.32096 8.03912C4.31094 8.00655 4.20217 8.03919 4.26335 8.00591C4.26751 8.00359 4.32642 8.01211 4.33268 8.00298C4.34667 7.98227 4.33585 7.94282 4.34049 7.92681C4.34965 7.89624 4.34961 7.89114 4.35026 7.86236C4.35169 7.8224 4.38113 7.77437 4.36784 7.7315C4.36483 7.72237 4.30505 7.73421 4.2946 7.71978C4.28437 7.70517 4.2892 7.6664 4.30339 7.65337C4.31784 7.6406 4.36487 7.6459 4.37565 7.64361C4.46663 7.62467 4.34134 7.58021 4.33757 7.57427C4.28418 7.46944 4.35629 7.37971 4.35612 7.2813C4.35581 7.20666 4.33143 7.12676 4.33464 7.05572C4.33876 6.97101 4.37149 6.89875 4.36589 6.81646C4.36398 6.80825 4.29464 6.81808 4.29362 6.80767C4.28921 6.74725 4.29101 6.68714 4.29948 6.62701C4.2783 6.60188 4.26058 6.57176 4.2487 6.54302C4.24198 6.52562 4.28665 6.49806 4.28971 6.49322C4.3399 6.4144 4.24388 6.49289 4.23405 6.49322C4.21214 6.49348 4.20057 6.48518 4.19303 6.47369L4.48698 6.35162C4.49626 6.3073 4.46483 6.26609 4.31999 6.24419C4.33055 6.19757 4.34164 6.1404 4.39616 6.09869C4.43135 6.07223 4.49818 6.09841 4.4694 6.06548C4.46225 6.05841 4.40498 6.06739 4.39909 6.05669C4.39065 6.03839 4.38876 6.01913 4.38737 6.00005ZM7.25163 9.95806C7.26384 9.8823 7.52707 9.83658 7.49772 9.919C7.49236 9.93396 7.41399 9.88726 7.3903 9.9063C7.34743 9.9411 7.51158 9.96357 7.4235 9.99908C7.40732 10.0055 7.25073 9.96252 7.25163 9.95806ZM4.85026 9.87115C4.92142 9.88079 4.92715 9.8449 4.85319 9.85259C4.85021 9.8529 4.84731 9.87071 4.85026 9.87115ZM7.18913 9.41705C7.14608 9.42776 7.19517 9.45773 7.2487 9.44439C7.29163 9.4337 7.2425 9.40395 7.18913 9.41705ZM6.97526 8.80962C6.89893 8.83033 7.06831 8.84689 7.09831 8.83794C7.19627 8.80869 7.05163 8.78905 6.97526 8.80962ZM5.97721 7.20416C5.97143 7.20125 5.93986 7.22509 5.94206 7.23052C6.00898 7.3283 6.07685 7.27754 5.97721 7.20416ZM6.61296 6.7647C6.61026 6.76273 6.59879 6.77027 6.61198 6.78326C6.65564 6.82567 6.65688 6.80029 6.61296 6.7647ZM7.05534 6.10748C7.05137 6.1068 7.04553 6.12065 7.04069 6.12017C7.04547 6.11581 7.05084 6.11215 7.05534 6.10748ZM7.33464 6.08892C7.26367 6.07926 7.25795 6.11598 7.33171 6.10845C7.33467 6.108 7.33758 6.08935 7.33464 6.08892Z" fill="#555961"/>
<path d="M10.8118 6.06735C10.8343 6.07232 10.7862 6.07902 10.8216 6.08591C10.83 6.08754 10.9759 6.09732 10.9847 6.0986C11.0536 6.1086 10.8207 6.10979 10.8079 6.11032C10.6717 6.11628 10.8255 6.12772 10.8382 6.13083C10.8879 6.1446 10.8555 6.15642 10.8909 6.16794C10.9139 6.17547 11.0665 6.17667 11.0618 6.18258C11.0454 6.20213 10.8342 6.20902 11.0179 6.22751C11.0572 6.23148 11.2236 6.22697 11.0931 6.24118C11.0849 6.24207 10.9651 6.25264 11.0404 6.25876C11.0499 6.25952 11.0988 6.2597 11.1029 6.26071C11.1289 6.26744 11.091 6.27196 11.1087 6.27926C11.1272 6.28664 11.1552 6.29624 11.139 6.30466C11.1292 6.30974 11.0381 6.31589 11.0159 6.31833C10.9528 6.32519 11.0569 6.33263 10.9798 6.33688C10.9022 6.34117 10.7839 6.33246 10.7337 6.34372C10.8598 6.34413 10.9897 6.345 11.1165 6.34567C11.1121 6.37034 11.0709 6.39514 11.0765 6.41989C11.0781 6.42281 11.143 6.41983 11.1478 6.42282C11.1586 6.4367 11.111 6.44847 11.1302 6.46286C11.1455 6.47394 11.2164 6.48642 11.2347 6.49801C11.0907 6.50512 11.1393 6.52257 11.1263 6.53512C11.1218 6.53951 11.0833 6.53886 11.0706 6.54196C11.0245 6.55367 11.1497 6.54865 11.1712 6.55173C11.2562 6.5655 10.9734 6.56697 10.9759 6.58298C10.9762 6.58384 11.1304 6.59519 11.14 6.59665C11.2014 6.60582 11.0859 6.59769 11.0745 6.60348C11.0538 6.61404 11.0174 6.62139 11.0618 6.63376C11.0752 6.63738 11.1712 6.64625 11.097 6.65329C11.0867 6.65418 11.0365 6.65352 11.0335 6.65426C10.9844 6.6677 11.1431 6.6681 11.1976 6.67575C11.2517 6.68346 11.1415 6.69579 11.1097 6.69821C11.0279 6.7045 11.0748 6.69367 11.0667 6.69333C10.9707 6.6893 10.987 6.69743 10.9788 6.70407C10.8226 6.70504 10.832 6.71424 10.971 6.71091C10.9861 6.71053 10.9723 6.70548 10.9788 6.70407C11.1325 6.70989 11.1525 6.72015 11.0091 6.73141C10.9418 6.73669 10.8632 6.73199 10.8919 6.74801C10.9055 6.75519 11.013 6.75236 11.0423 6.75876C11.1089 6.77341 11.0089 6.79249 11.0247 6.80758C11.0316 6.81275 11.0888 6.80787 11.0951 6.81149C11.111 6.82137 11.0676 6.8299 11.0892 6.83981C11.0913 6.84071 11.1531 6.83874 11.1546 6.84176C11.1618 6.86532 11.1215 6.8865 11.1204 6.9111C11.1208 6.92301 11.1542 6.94384 11.1478 6.95602C11.1363 6.97723 11.0473 7.00324 11.0677 7.02145C11.0817 7.03334 11.1438 7.03101 11.1859 7.0361C11.2671 7.04588 11.1228 7.06291 11.099 7.0654C11.0845 7.06692 11.0703 7.08738 11.0814 7.09176C11.0876 7.0939 11.1434 7.09274 11.1488 7.09372C11.2012 7.12104 11.2162 7.14901 11.1888 7.17673C11.1844 7.17714 11.1224 7.17659 11.1204 7.1777C11.0915 7.19372 11.1715 7.20354 11.2191 7.21676C11.2665 7.22998 11.2504 7.24019 11.138 7.24801C11.1522 7.25798 11.1028 7.27297 11.0726 7.28122C11.0426 7.28941 11.1682 7.29026 11.1722 7.29098C11.2529 7.3136 11.1797 7.32709 11.1683 7.35055C11.1632 7.36182 11.1818 7.38353 11.1956 7.39548C11.2067 7.40497 11.1768 7.41114 11.1956 7.41989C11.1981 7.42105 11.2526 7.4196 11.2572 7.41989C11.3251 7.42971 11.1863 7.4247 11.1615 7.42673C11.0715 7.43406 11.0235 7.43957 11.0658 7.45212C11.0755 7.45502 11.2757 7.46343 11.2874 7.46872C11.3007 7.47533 11.2318 7.47255 11.2474 7.47946C11.2488 7.48006 11.2909 7.48026 11.2913 7.48434C11.2829 7.50486 11.2579 7.52747 11.262 7.5488C11.2625 7.55172 11.3325 7.54847 11.3343 7.5527C11.3425 7.57246 11.3395 7.59401 11.307 7.61325C11.2987 7.61801 11.2493 7.61515 11.2347 7.61618C11.147 7.62252 11.2752 7.6313 11.2777 7.63278C11.339 7.66814 11.2235 7.69536 11.2786 7.73141C11.287 7.73385 11.4163 7.74922 11.3011 7.75583C11.2933 7.75629 11.1728 7.76262 11.2552 7.76852C11.2616 7.76878 11.322 7.76526 11.3158 7.77243C11.311 7.7797 11.3496 7.79094 11.2826 7.80075C11.2604 7.80392 11.1417 7.81189 11.2367 7.82126C11.2433 7.82187 11.4603 7.8356 11.3109 7.84079C11.2863 7.84163 11.1282 7.84127 11.2093 7.85251C11.2251 7.8546 11.2606 7.85078 11.2826 7.85641C11.3158 7.86506 11.2742 7.87608 11.3441 7.88669C11.3566 7.88854 11.4637 7.89694 11.3822 7.90329C11.3686 7.9042 11.3167 7.90291 11.3109 7.90622C11.2833 7.92206 11.3176 7.93799 11.2816 7.95407C11.2688 7.95979 11.1836 7.95694 11.1605 7.96286C11.1376 7.96883 11.1156 7.98102 11.1546 7.98727C11.1932 7.99345 11.3266 7.98717 11.3402 7.99606C11.3875 8.03678 11.3079 8.07747 11.2962 8.11813C11.2949 8.12401 11.3427 8.11923 11.3441 8.1279C11.3477 8.16064 11.3936 8.21761 11.2904 8.24606C11.2078 8.26874 11.1445 8.23988 11.1107 8.2568C11.0949 8.26506 11.2471 8.2741 11.2572 8.27633C11.3075 8.29606 11.2385 8.31038 11.2591 8.32809C11.2635 8.33175 11.3275 8.32799 11.3314 8.33102C11.3424 8.3416 11.3143 8.35312 11.3187 8.36325C11.3212 8.36784 11.3703 8.36782 11.3665 8.37204C11.3579 8.38201 11.3368 8.39061 11.2913 8.40036C11.2854 8.401 11.2275 8.39536 11.224 8.40231C11.2205 8.41438 11.1758 8.42944 11.222 8.44333C11.2361 8.44746 11.3481 8.44812 11.2708 8.457C11.2542 8.45884 11.1208 8.45645 11.2367 8.46676C11.2565 8.46857 11.4118 8.48559 11.3118 8.49411C11.2854 8.49634 11.1762 8.50284 11.1917 8.50778C11.1945 8.50845 11.2552 8.50562 11.2611 8.50973C11.2805 8.52419 11.2745 8.53883 11.2933 8.55368C11.2984 8.55766 11.3608 8.55167 11.3665 8.55758C11.3823 8.57389 11.3655 8.59437 11.346 8.61032C11.3383 8.61607 11.2872 8.61282 11.2816 8.61325C11.1928 8.61999 11.3097 8.62364 11.3206 8.62594C11.3636 8.64012 11.3066 8.65097 11.3216 8.66403C11.3257 8.66764 11.3847 8.66526 11.39 8.66598C11.4402 8.67336 11.3352 8.66811 11.3236 8.67282C11.2909 8.686 11.2956 8.7005 11.3031 8.71383C11.3059 8.71866 11.3713 8.71375 11.3753 8.71774C11.3871 8.74383 11.3806 8.77138 11.3431 8.79684C11.3347 8.80132 11.2838 8.79783 11.2718 8.7988C11.1888 8.80562 11.3001 8.81588 11.3128 8.81833C11.3625 8.82889 11.3169 8.83342 11.3255 8.84274C11.3681 8.88821 11.3376 8.94438 11.3187 8.98727C11.2957 9.04004 11.2516 9.08153 11.2572 9.13083C11.2611 9.13488 11.2646 9.13822 11.2669 9.14059C11.2771 9.14099 11.2935 9.14253 11.307 9.14255C11.295 9.13042 11.285 9.12033 11.2796 9.11423C11.2364 9.06534 11.2837 9.10566 11.3255 9.14255C11.3277 9.14274 11.3292 9.14314 11.3294 9.14352V9.14645C11.3492 9.16391 11.3666 9.18027 11.3724 9.18356C11.3771 9.18614 11.3451 9.15522 11.3431 9.15133C11.3366 9.13736 11.3808 9.17698 11.346 9.13376C11.3403 9.12664 11.2609 9.04044 11.3236 9.0986C11.3326 9.10697 11.3656 9.14179 11.3753 9.14841C11.3891 9.15743 11.4011 9.16086 11.3929 9.14743C11.3863 9.13703 11.327 9.08244 11.347 9.09762C11.356 9.10461 11.3867 9.1393 11.4007 9.14938C11.4147 9.15937 11.4185 9.15246 11.4193 9.14938C11.4186 9.14506 11.3761 9.10453 11.3734 9.10153C11.3584 9.08474 11.3421 9.06166 11.3411 9.05954C11.3525 9.03775 11.4397 9.09465 11.432 9.05466C11.4314 9.05157 11.3856 9.00676 11.3851 9.00583C11.3714 8.98362 11.4872 9.10606 11.5306 9.14352C11.4386 9.05239 11.4566 9.06679 11.4495 9.05368C11.4447 9.04616 11.41 9.01244 11.4066 9.00876C11.3551 8.95294 11.4261 9.02125 11.4408 9.03512C11.4946 9.08608 11.4343 9.02283 11.4701 9.05661C11.5059 9.09047 11.5557 9.14418 11.5579 9.14059C11.5258 9.10684 11.4378 9.02295 11.4261 9.0068C11.3821 8.94599 11.4651 8.99775 11.4788 8.99801C11.492 8.9981 11.4886 8.99013 11.5042 8.99801C11.5325 9.01224 11.4666 8.95153 11.4417 8.91794C11.417 8.88439 11.5712 9.04275 11.6058 9.07614C11.6401 9.10917 11.6062 9.07423 11.6253 9.09176C11.6446 9.10952 11.6664 9.13447 11.6751 9.13962C11.6817 9.14238 11.6281 9.07927 11.5941 9.04391C11.5209 8.96798 11.4402 8.89172 11.472 8.91403C11.4739 8.91539 11.5146 8.95779 11.5199 8.96091C11.5598 8.9841 11.5705 8.97752 11.6068 8.99704C11.6118 8.9998 11.6566 9.04623 11.6605 9.0488C11.6968 9.07116 11.6166 8.99602 11.5345 8.90622C11.6481 9.02149 11.7209 9.08956 11.7269 9.08493C11.7281 9.08027 11.6792 9.03246 11.6468 8.99606C11.6368 8.98483 11.6728 9.01606 11.6497 8.99216C11.5744 8.91419 11.4865 8.83099 11.5257 8.85934C11.5276 8.86073 11.5692 8.90352 11.5726 8.90524C11.5943 8.91635 11.5159 8.83648 11.5111 8.82028C11.508 8.8081 11.5653 8.84873 11.5784 8.85153C11.7068 8.98005 11.6817 8.94606 11.5951 8.85544C11.602 8.85571 11.6012 8.84653 11.6165 8.85544C11.6218 8.85845 11.6574 8.89552 11.6624 8.90036C11.7277 8.96132 11.6426 8.87419 11.64 8.87008C11.6149 8.82935 11.6866 8.88778 11.6302 8.81637C11.6238 8.8094 11.5414 8.72655 11.6068 8.78805C11.612 8.79316 11.65 8.83531 11.6566 8.83493C11.6644 8.83562 11.717 8.87476 11.681 8.82907C11.6716 8.81725 11.6031 8.7433 11.6615 8.79684C11.6694 8.80414 11.6945 8.82982 11.7093 8.84372C11.7562 8.88765 11.6671 8.79718 11.7454 8.87204C11.8239 8.947 11.8852 9.00022 11.8372 8.94235C11.8326 8.93734 11.7687 8.87182 11.7679 8.86813C11.7722 8.86753 11.7909 8.87874 11.7933 8.87594C11.7943 8.87446 11.749 8.8301 11.7484 8.82907C11.7323 8.79645 11.777 8.82942 11.8031 8.83786C11.8079 8.83946 11.7523 8.77484 11.8031 8.8193C11.859 8.86828 12.0736 9.09022 12.0296 9.03024C12.0118 9.00598 11.7402 8.72506 11.889 8.86227C11.8652 8.81612 11.9477 8.87903 11.9085 8.81735C11.9068 8.81464 11.8338 8.73815 11.8333 8.73532C11.8368 8.73526 11.8746 8.77034 11.8783 8.77145C11.8938 8.77648 11.8684 8.74147 11.8783 8.74118C11.8835 8.74286 11.9189 8.77851 11.9232 8.77829C11.9236 8.77438 11.8808 8.72822 11.9066 8.74801C11.9272 8.76394 12.0294 8.8625 12.0443 8.87106C11.9453 8.77181 11.9494 8.77118 11.9271 8.74118C11.9222 8.73493 11.8884 8.70219 11.8841 8.69723C11.8677 8.67803 11.8972 8.70524 11.8792 8.68454C11.8745 8.67921 11.8421 8.64594 11.8363 8.63962C11.7887 8.58748 11.8683 8.6602 11.8822 8.67282C11.9346 8.72036 11.8921 8.67574 11.9134 8.69333C11.9351 8.71126 11.9578 8.73917 11.972 8.74899C12.001 8.7689 12.002 8.75793 12.0081 8.75485C12.0097 8.75293 11.9667 8.71183 11.9632 8.70798C11.9556 8.69268 12.0072 8.73664 11.9193 8.6445C12.1544 8.87429 11.8993 8.62081 11.9505 8.6611C11.9547 8.66444 12.0659 8.77414 12.0804 8.79196C12.0942 8.80907 12.0583 8.77796 12.0804 8.80466C12.0858 8.81111 12.1859 8.9181 12.1917 8.92477C12.2365 8.97615 12.0755 8.815 12.0638 8.80368C11.9644 8.70823 12.0707 8.82323 12.0775 8.832C12.108 8.87169 12.0818 8.85212 12.1029 8.88083C12.1166 8.89957 12.2234 9.00813 12.2181 9.0068C12.1989 9.00052 12.049 8.85568 12.1722 8.99118C12.1986 9.02027 12.3179 9.13625 12.221 9.0488C12.2149 9.04326 12.1265 8.96193 12.1781 9.01755C12.1845 9.02449 12.2165 9.05636 12.221 9.06149C12.2374 9.08239 12.2095 9.05672 12.2201 9.07223C12.2306 9.08772 12.2469 9.11003 12.2327 9.10153C12.2241 9.09626 12.1574 9.03434 12.1409 9.0195C12.0941 8.97726 12.1646 9.05305 12.1087 8.99997C12.0524 8.94649 11.9721 8.8607 11.9329 8.82907C12.0218 8.91825 12.1131 9.0098 12.2025 9.09958C12.191 9.10456 12.154 9.08448 12.1497 9.09665C12.15 9.09885 12.1988 9.14547 12.1995 9.14841C12.2016 9.15956 12.1645 9.13029 12.1732 9.14841C12.1802 9.16282 12.2267 9.21761 12.2357 9.23434C12.1317 9.13508 12.16 9.17468 12.1468 9.16989C12.1421 9.16813 12.1147 9.14063 12.1048 9.13278C12.0684 9.1042 12.1601 9.19273 12.1732 9.20798C12.2286 9.27264 12.0242 9.06956 12.0238 9.08005C12.0251 9.08204 12.1298 9.19295 12.1361 9.20016C12.1763 9.24647 12.0972 9.1623 12.0872 9.15622C12.069 9.14506 12.0412 9.12142 12.0687 9.15719C12.0769 9.16784 12.1411 9.23854 12.0863 9.18844C12.0782 9.18095 12.0441 9.14674 12.0413 9.1445C12.0017 9.1139 12.115 9.22671 12.1507 9.26755C12.1862 9.30812 12.1037 9.23451 12.0804 9.21286C12.0208 9.15745 12.057 9.1859 12.0521 9.18063C11.9863 9.11218 11.9941 9.12512 11.9867 9.12204C12.0933 9.23261 12.1036 9.25008 11.9984 9.15231C11.9491 9.10656 11.8949 9.04992 11.9095 9.07516C11.9162 9.08667 11.9927 9.16102 12.012 9.18454C12.0543 9.23653 11.9787 9.17336 11.9837 9.18844C11.986 9.19434 12.0296 9.23473 12.0326 9.2402C12.0404 9.25465 12.0062 9.22672 12.0189 9.24606C12.0215 9.24922 12.0615 9.28794 12.0638 9.29196C12.0611 9.30471 12.0274 9.28441 12.0179 9.29098C12.0136 9.29459 12.0298 9.32591 12.0208 9.32516C12.0046 9.32305 11.934 9.27022 11.9427 9.29098C11.9486 9.30481 11.9937 9.3474 12.0218 9.37887C12.0762 9.4398 11.9675 9.34255 11.9505 9.32712C11.9397 9.31728 11.923 9.31448 11.93 9.32419C11.9348 9.33035 11.9751 9.36952 11.9769 9.37204C12.0048 9.41821 12.0055 9.43783 11.9769 9.4277C11.9723 9.42338 11.9298 9.38081 11.9281 9.37985C11.9026 9.36508 11.9555 9.42491 11.9847 9.46286C12.0139 9.5009 11.9995 9.4929 11.9173 9.41598C11.924 9.42932 11.8838 9.39942 11.8597 9.38083C11.8362 9.36265 11.9218 9.44834 11.9271 9.45407C11.9766 9.51867 11.9205 9.47186 11.9046 9.47165C11.8972 9.47174 11.9027 9.49206 11.9085 9.50583C11.9132 9.51677 11.8908 9.49797 11.9007 9.51364C11.9021 9.51584 11.9432 9.55592 11.9447 9.55758C11.9892 9.60868 11.8925 9.509 11.8743 9.49216C11.8084 9.43111 11.7728 9.39893 11.7982 9.43258C11.8041 9.44041 11.9426 9.58426 11.9495 9.59469C11.9577 9.60747 11.9074 9.55659 11.9173 9.57126C11.9193 9.57361 11.9494 9.60338 11.9466 9.60348C11.9338 9.60419 11.9091 9.5939 11.9046 9.60348C11.904 9.60477 11.9546 9.65355 11.9544 9.65622C11.9536 9.66855 11.9446 9.67364 11.9154 9.65719C11.9079 9.65291 11.8733 9.61735 11.8626 9.60739C11.8002 9.54908 11.8815 9.63576 11.887 9.64255C11.9188 9.69788 11.8278 9.62566 11.8548 9.67673C11.8585 9.68189 11.9481 9.78017 11.8636 9.70016C11.8579 9.69478 11.7705 9.61195 11.8265 9.67184C11.83 9.67558 11.8744 9.71805 11.8685 9.71676C11.8616 9.71472 11.8866 9.74777 11.8353 9.70309C11.8191 9.68897 11.7318 9.60602 11.7962 9.67673C11.8007 9.68165 11.9488 9.83954 11.8421 9.7363C11.8244 9.71917 11.7123 9.60683 11.7659 9.66794C11.7764 9.67979 11.8031 9.70323 11.8167 9.72067C11.8376 9.74731 11.8041 9.72151 11.8499 9.77438C11.8581 9.78382 11.9312 9.86311 11.8714 9.80758C11.862 9.79884 11.8266 9.76167 11.8206 9.75778C11.7953 9.74306 11.8145 9.77315 11.7835 9.7529C11.7725 9.74573 11.7128 9.68408 11.6947 9.66989C11.6765 9.65577 11.6575 9.64422 11.6829 9.6738C11.7084 9.70337 11.8055 9.79703 11.8109 9.80856C11.8307 9.85541 11.7617 9.81341 11.7396 9.81833C11.7363 9.8191 11.7722 9.85182 11.7699 9.85544C11.7618 9.86923 11.774 9.91979 11.6917 9.85641C11.6256 9.80543 11.5905 9.75043 11.5609 9.73239C11.55 9.72708 11.6557 9.83957 11.6585 9.84372C11.6875 9.88591 11.6336 9.84114 11.6429 9.86227C11.6459 9.8676 11.6916 9.91084 11.6927 9.91403C11.6964 9.92484 11.6729 9.90894 11.6732 9.91598C11.6746 9.92026 11.7083 9.95321 11.7044 9.95212C11.6951 9.94949 11.6775 9.93814 11.6419 9.90915C11.6387 9.90649 11.5972 9.86138 11.5931 9.86227C11.5859 9.86307 11.5504 9.83679 11.5784 9.87399C11.5872 9.88545 11.6657 9.96414 11.6087 9.91305C11.5967 9.90227 11.5022 9.80649 11.5804 9.89157C11.5935 9.9058 11.6986 10.0226 11.6243 9.95407C11.6048 9.93598 11.5258 9.86104 11.5355 9.87399C11.5372 9.87617 11.5806 9.91828 11.5833 9.9238C11.5922 9.94227 11.5829 9.94281 11.5911 9.96091C11.5934 9.96583 11.6391 10.007 11.6419 10.0136C11.6476 10.0301 11.6297 10.026 11.6107 10.0175C11.6036 10.0143 11.5679 9.97645 11.5638 9.97262C11.4975 9.9109 11.5827 9.99883 11.5872 10.0049C11.6127 10.0397 11.569 10.0034 11.5745 10.0175C11.5762 10.0216 11.6182 10.0618 11.6224 10.0664C11.656 10.1049 11.5837 10.0294 11.5736 10.0224C11.5459 10.0036 11.5444 10.0117 11.5452 10.0215C11.547 10.0262 11.5953 10.0715 11.5951 10.0742C11.5945 10.0909 11.5811 10.0951 11.5462 10.0771C11.5392 10.0731 11.5032 10.0354 11.4945 10.0273C11.4335 9.97093 11.511 10.055 11.5179 10.0634C11.5492 10.1017 11.5149 10.0708 11.5179 10.08C11.533 10.1255 11.4929 10.1221 11.4652 10.123C11.4292 10.1244 11.3791 10.1039 11.3704 10.1308C11.3699 10.1325 11.4198 10.1794 11.4212 10.1826C11.4205 10.2071 11.3884 10.2006 11.39 10.2275C11.3911 10.2306 11.436 10.2726 11.4398 10.2793C11.4435 10.2898 11.4367 10.2917 11.4183 10.2802C11.409 10.2742 11.3717 10.2322 11.3636 10.2275C11.3447 10.2165 11.3367 10.2179 11.3402 10.2295C11.3421 10.2347 11.3914 10.2784 11.3909 10.2822C11.3804 10.3022 11.3734 10.3257 11.2962 10.2793C11.2909 10.2761 11.1933 10.1797 11.2093 10.2002C11.2361 10.2272 11.2675 10.2592 11.2962 10.2881C11.2895 10.3258 11.2339 10.314 11.2064 10.331C11.2053 10.3318 11.2581 10.3821 11.2562 10.3838C11.2453 10.3937 11.2487 10.4175 11.1878 10.3779C11.1818 10.374 11.0925 10.2833 11.1019 10.2988C11.1038 10.3018 11.111 10.319 11.1292 10.3398C11.132 10.3429 11.1754 10.3849 11.1751 10.3877C11.1724 10.4025 11.1536 10.4023 11.1195 10.3857C11.1139 10.383 11.0719 10.3384 11.0658 10.334C11.0347 10.3173 11.0606 10.3589 11.013 10.3252C10.9809 10.3023 10.9046 10.2226 10.8255 10.1484C10.8144 10.1379 10.8097 10.1391 10.765 10.0947C10.7326 10.0625 10.6999 10.0289 10.6663 9.99508C10.6364 10.0227 10.6076 10.0506 10.6048 10.0527C10.6048 10.047 10.6271 10.0231 10.6536 9.99313C10.6452 9.99308 10.6367 9.99319 10.6283 9.99313C10.5943 10.0272 10.552 10.0714 10.5413 10.08C10.5238 10.0943 10.556 10.0583 10.5286 10.081C10.5222 10.0864 10.4152 10.1865 10.4085 10.1924C10.3579 10.2364 10.5198 10.0736 10.5296 10.0634C10.6251 9.96395 10.51 10.0714 10.5013 10.0781C10.4621 10.1082 10.4809 10.0817 10.4525 10.1025C10.4339 10.1161 10.3275 10.2215 10.3265 10.2187C10.3308 10.2013 10.4786 10.0487 10.3421 10.1728C10.3125 10.1998 10.197 10.3176 10.2845 10.2207C10.29 10.2145 10.3712 10.1263 10.3158 10.1777C10.3088 10.1841 10.2758 10.2183 10.2718 10.2216C10.251 10.238 10.2763 10.2094 10.2611 10.2197C10.2455 10.2303 10.2229 10.2468 10.2318 10.2324C10.2372 10.2236 10.299 10.157 10.3138 10.1406C10.3557 10.0941 10.2803 10.1652 10.3333 10.1093C10.3656 10.0753 10.4077 10.0304 10.4447 9.99313H10.4427C10.3729 10.0626 10.3033 10.1339 10.2337 10.2031C10.2286 10.1917 10.2488 10.1547 10.2367 10.1504C10.2331 10.152 10.1878 10.1984 10.1849 10.1992C10.1736 10.2014 10.2028 10.1644 10.1849 10.1728C10.1705 10.1798 10.1158 10.2262 10.099 10.2353C10.1984 10.1311 10.1583 10.16 10.1634 10.1465C10.1656 10.1414 10.1928 10.1143 10.2005 10.1045C10.2286 10.0686 10.1405 10.1598 10.1253 10.1728C10.0602 10.2287 10.2638 10.0248 10.2533 10.0244C10.2468 10.03 10.1402 10.1296 10.1331 10.1357C10.0865 10.1762 10.171 10.0968 10.1771 10.0869C10.1883 10.0687 10.2115 10.0411 10.1761 10.0683C10.1655 10.0766 10.0948 10.1417 10.1449 10.0869C10.1517 10.0795 10.187 10.0433 10.1888 10.041C10.219 10.0019 10.1066 10.1147 10.0658 10.1504C10.025 10.186 10.0986 10.1045 10.1204 10.081C10.1765 10.0208 10.1468 10.0573 10.1527 10.0517C10.1882 10.0175 10.2012 10.003 10.2064 9.99606C10.2046 9.99567 10.2026 9.99554 10.2005 9.99508C10.0988 10.0929 10.0862 10.1001 10.181 9.99801C10.1827 9.99616 10.1841 9.99401 10.1859 9.99216C10.1816 9.99135 10.1769 9.99091 10.1722 9.9902C10.1623 9.99963 10.1543 10.0081 10.1488 10.0127C10.0964 10.0552 10.1592 9.98012 10.1429 9.9863C10.142 9.98628 10.141 9.98631 10.14 9.9863C10.128 9.99662 10.098 10.0294 10.0931 10.0322C10.0785 10.0402 10.1066 10.0058 10.0872 10.0185C10.0852 10.0199 10.0439 10.0638 10.0413 10.0644C10.0285 10.0617 10.0493 10.0268 10.0423 10.0175C10.0387 10.0133 10.0078 10.03 10.0081 10.0215C10.0086 10.0139 10.0215 9.9922 10.0326 9.9736C10.0258 9.97279 10.0178 9.97214 10.0091 9.97165C9.99202 9.98759 9.97124 10.0064 9.95443 10.0215C9.90626 10.0644 9.95665 10.0057 9.98763 9.97067C9.98101 9.97036 9.97444 9.9691 9.9681 9.96872C9.96426 9.9725 9.96209 9.97586 9.96126 9.97653C9.91518 10.0044 9.89561 10.0059 9.9056 9.97751C9.90587 9.9771 9.91285 9.96831 9.9222 9.95895C9.91932 9.95488 9.91792 9.95065 9.91732 9.94626C9.90189 9.9586 9.88483 9.97426 9.87044 9.98532C9.83271 10.0143 9.84058 9.9989 9.91732 9.91696C9.90406 9.9236 9.93386 9.88445 9.95247 9.86032C9.97049 9.83697 9.88624 9.92021 9.87923 9.92673C9.81524 9.97578 9.86058 9.92168 9.86165 9.90524C9.86191 9.89756 9.84136 9.90235 9.82747 9.90817C9.81638 9.91292 9.83588 9.89095 9.81966 9.90133C9.81748 9.90273 9.77816 9.94207 9.77572 9.9443C9.7244 9.98907 9.82429 9.8922 9.84115 9.87399C9.90227 9.80798 9.93485 9.77303 9.90072 9.7988C9.89286 9.80473 9.75018 9.94114 9.73861 9.94919C9.72583 9.95738 9.77671 9.90806 9.76204 9.91794C9.7582 9.92144 9.73119 9.94847 9.72982 9.94723C9.72894 9.93448 9.73968 9.90858 9.72982 9.90426C9.72853 9.9036 9.67975 9.95422 9.67708 9.95407C9.66473 9.95326 9.6595 9.94443 9.67611 9.91501C9.68036 9.9076 9.71572 9.8741 9.72591 9.86325C9.78567 9.79929 9.6944 9.88508 9.69075 9.88766C9.63542 9.91941 9.70764 9.82842 9.65657 9.85544C9.64874 9.86156 9.55425 9.94651 9.63314 9.86325C9.63943 9.8566 9.72067 9.77083 9.66146 9.82614C9.65769 9.82966 9.61448 9.87502 9.61654 9.86813C9.61811 9.86171 9.58562 9.88612 9.63021 9.83493C9.64438 9.81865 9.72695 9.73175 9.65657 9.79587C9.65164 9.80039 9.49343 9.9488 9.597 9.84176C9.61412 9.82409 9.72623 9.7122 9.66536 9.76559C9.65353 9.77599 9.6301 9.80267 9.61263 9.81637C9.58581 9.83744 9.61166 9.80392 9.55892 9.84958C9.54949 9.85777 9.47065 9.93133 9.52572 9.87204C9.53441 9.86268 9.57246 9.82558 9.57552 9.82028C9.59023 9.79495 9.55996 9.8144 9.5804 9.78317C9.58779 9.77199 9.64925 9.71244 9.66341 9.6943C9.67743 9.67628 9.68879 9.65744 9.6595 9.68258C9.62981 9.70811 9.53556 9.80691 9.52474 9.81149C9.47785 9.83125 9.52027 9.76102 9.51497 9.73923C9.51106 9.74007 9.48128 9.77168 9.47786 9.7695C9.46389 9.76158 9.41406 9.77399 9.47689 9.69235C9.5279 9.62615 9.58286 9.59114 9.60091 9.56149C9.60938 9.54743 9.49378 9.6563 9.48958 9.65915C9.44791 9.68768 9.49211 9.63429 9.47103 9.64352C9.46461 9.64782 9.42241 9.69124 9.41927 9.69235C9.40826 9.69627 9.42438 9.67253 9.41732 9.67282C9.41333 9.67387 9.37993 9.7081 9.38118 9.70407C9.38396 9.69465 9.39533 9.67689 9.42415 9.64157C9.42672 9.63842 9.469 9.59999 9.47103 9.59372C9.46947 9.58722 9.49685 9.54982 9.45931 9.57809C9.44799 9.58666 9.36877 9.66575 9.42025 9.60837C9.43104 9.59633 9.52731 9.50234 9.44173 9.58102C9.42733 9.59424 9.31073 9.69817 9.37923 9.62399C9.39768 9.60402 9.47313 9.52558 9.45931 9.5361C9.45597 9.53907 9.41494 9.58122 9.4095 9.58395C9.39123 9.59262 9.39053 9.58348 9.3724 9.59176C9.36695 9.59472 9.32657 9.63829 9.31966 9.64157C9.3031 9.64725 9.3073 9.62941 9.31575 9.61032C9.31921 9.60305 9.35633 9.56899 9.36068 9.56442C9.42232 9.49824 9.33574 9.58112 9.32845 9.58688C9.29343 9.61246 9.33053 9.56907 9.31575 9.57516C9.31176 9.5768 9.27223 9.61712 9.26693 9.62204C9.22827 9.65573 9.30423 9.583 9.31087 9.57321C9.32961 9.54567 9.32159 9.54404 9.31185 9.54489C9.30751 9.54609 9.26181 9.59589 9.25911 9.59567C9.24234 9.59514 9.23822 9.58071 9.25618 9.54587C9.26083 9.53827 9.29792 9.50379 9.30599 9.49508C9.36293 9.43355 9.27833 9.51062 9.26986 9.51755C9.23132 9.54906 9.26248 9.51551 9.25325 9.51852C9.20802 9.53344 9.2112 9.49248 9.21029 9.46481C9.209 9.42899 9.22903 9.37989 9.20247 9.37106C9.20084 9.37048 9.15467 9.41865 9.15072 9.42087C9.12623 9.42016 9.13266 9.388 9.10579 9.38962C9.10324 9.39019 9.05989 9.43765 9.05404 9.4404C9.04351 9.4441 9.04158 9.43631 9.05306 9.41794C9.05965 9.40829 9.10114 9.37123 9.10579 9.36325C9.11664 9.34456 9.1153 9.33737 9.10384 9.34079C9.09762 9.34392 9.05428 9.39169 9.05111 9.39059C9.0311 9.38008 9.00753 9.3732 9.05404 9.29587C9.05807 9.28974 9.15286 9.19366 9.13314 9.20895C9.106 9.23575 9.07415 9.26809 9.04525 9.29684C9.00771 9.2902 9.01895 9.23463 9.00228 9.207C9.00155 9.20585 8.95148 9.25846 8.94954 9.2568C8.9398 9.24554 8.91524 9.24913 8.9554 9.18747C8.95931 9.18145 9.04934 9.09281 9.0345 9.10153C9.03145 9.10348 9.01438 9.11141 8.99349 9.12985C8.98987 9.13317 8.94838 9.17507 8.94564 9.17477C8.93084 9.17201 8.93088 9.15333 8.94759 9.11911C8.95038 9.11349 8.99601 9.07064 8.99935 9.0654C9.01603 9.03427 8.97416 9.06045 9.00814 9.01266C9.0311 8.98048 9.11078 8.90419 9.1849 8.82516C9.19516 8.81416 9.19471 8.80981 9.23861 8.76559C9.35028 8.65316 9.47422 8.53111 9.5931 8.4111C9.61868 8.38528 9.5876 8.40917 9.65169 8.34958C9.656 8.34559 9.67979 8.32789 9.7015 8.30758C9.7165 8.29353 9.76083 8.24732 9.7806 8.22946C9.80022 8.21178 9.76389 8.25076 9.78743 8.23044C9.81131 8.20976 9.86211 8.15715 9.87142 8.15426C9.89216 8.14841 9.88705 8.17268 9.87435 8.20016C9.87039 8.20878 9.84124 8.23591 9.83724 8.24313C9.82946 8.25721 9.84617 8.24653 9.83626 8.26266C9.83228 8.26863 9.78705 8.31168 9.7845 8.31637C9.77106 8.34162 9.78795 8.33612 9.7845 8.35153C9.76744 8.42766 9.77975 8.47325 9.78939 8.52341C9.79259 8.53986 9.76402 8.59191 9.79134 8.58493C9.79463 8.58402 9.83379 8.54398 9.83724 8.54098C9.88931 8.49595 9.80925 8.57313 9.80111 8.58591C9.76894 8.63647 9.77619 8.65072 9.80013 8.6445C9.81116 8.64077 9.8836 8.56032 9.84407 8.60739C9.84126 8.61071 9.79919 8.65029 9.79525 8.65622C9.78772 8.66838 9.79933 8.666 9.79818 8.67087C9.79513 8.68091 9.79631 8.68173 9.79915 8.68551C9.80201 8.69161 9.78806 8.71635 9.80208 8.71188C9.80714 8.70859 9.84617 8.66653 9.85482 8.6611C9.86365 8.65559 9.86433 8.66426 9.85579 8.67575C9.84684 8.68754 9.81341 8.71957 9.80599 8.72751C9.74344 8.79435 9.83828 8.70954 9.84115 8.70798C9.89014 8.68256 9.85 8.74341 9.86068 8.75485C9.86936 8.7631 9.89595 8.75523 9.90169 8.76559C9.90822 8.77818 9.89334 8.80907 9.90657 8.81442C9.90994 8.81276 9.95531 8.76546 9.95833 8.76462C9.97688 8.77154 9.98411 8.78965 9.96322 8.83591C9.96106 8.84061 9.91526 8.88327 9.91048 8.89059C9.88213 8.93454 9.80852 9.0331 10.0042 8.84665C10.002 8.8594 9.99997 8.87369 9.96615 8.91696C9.94436 8.94478 9.8945 8.98999 9.91829 8.9736C9.92366 8.96991 9.96385 8.92655 9.96907 8.9238C9.98974 8.91378 9.98219 8.93334 10.0091 8.91696C10.015 8.91322 10.0519 8.87554 10.0589 8.86911C10.116 8.8171 10.0304 8.91239 10.0247 8.91989C9.98356 8.97493 10.0062 8.96178 10.012 8.96872C10.0132 8.97049 10.0595 8.92164 10.0648 8.91891C10.0796 8.9193 10.0835 8.93125 10.0687 8.96091C10.0653 8.96759 10.0215 9.00853 10.0169 9.01462C10.0005 9.03802 10.0819 8.9576 10.0677 8.97848C10.0646 8.98294 10.0277 9.01925 10.0238 9.02341C9.96257 9.08863 10.0545 9.00045 10.057 8.99899C10.0898 8.97919 10.0013 9.0772 10.0208 9.07028C10.024 9.06846 10.0661 9.02319 10.0716 9.02145C10.0987 9.02281 10.1006 9.05025 10.0775 9.10153C10.0733 9.1099 10.0377 9.14303 10.0335 9.14743C9.96882 9.21661 10.0607 9.12765 10.0648 9.12497C10.0937 9.10721 10.0247 9.18675 10.1351 9.08395C10.1219 9.1447 10.2057 9.10877 10.1331 9.22848C10.1296 9.23253 10.0876 9.27379 10.0863 9.27633C10.0688 9.30814 10.1359 9.23768 10.2249 9.15817C10.2473 9.13816 10.1491 9.24412 10.1419 9.25192C10.1154 9.28074 10.0485 9.34456 10.0433 9.35055C10.0047 9.39571 10.2234 9.17727 10.2279 9.18161C10.2264 9.18325 10.1873 9.22051 10.1829 9.22555C10.1716 9.23916 10.1883 9.22483 10.1761 9.23923C10.1466 9.27385 10.041 9.3811 10.1068 9.32321C10.1163 9.31466 10.2386 9.19139 10.2367 9.20114C10.2362 9.2051 10.2446 9.2099 10.2386 9.21969C10.2325 9.22969 10.1914 9.26861 10.1898 9.27048C10.1423 9.32843 10.1178 9.34792 10.0423 9.42868C9.96729 9.50894 10.1512 9.32453 10.1742 9.30368C10.1959 9.28406 10.1561 9.33152 10.1419 9.34762C10.1276 9.36373 10.1008 9.38807 10.0931 9.39743C10.0439 9.45762 10.1875 9.30728 10.2191 9.27926C10.2933 9.21373 10.1593 9.35555 10.1497 9.37301C10.1523 9.37186 10.1784 9.34455 10.182 9.34274C10.1956 9.33652 10.1563 9.38043 10.1995 9.34567C10.2071 9.33955 10.2924 9.26106 10.2347 9.32321C10.2262 9.3323 10.191 9.36664 10.1849 9.37594C10.1759 9.38969 10.1723 9.40093 10.1859 9.39255C10.1963 9.38597 10.2506 9.32692 10.2357 9.34665C10.2289 9.35557 10.1939 9.38734 10.1839 9.40133C10.1742 9.41509 10.1809 9.4191 10.1839 9.41989C10.1878 9.41963 10.2272 9.37834 10.2318 9.37399C10.248 9.35949 10.2704 9.34364 10.2738 9.34176C10.2894 9.34986 10.2647 9.39658 10.264 9.41989C10.2706 9.41921 10.2761 9.42006 10.2786 9.41891C10.3372 9.3913 10.342 9.36052 10.3206 9.33395C10.311 9.32276 10.2025 9.33359 10.264 9.32223C10.2706 9.32165 10.3251 9.3241 10.3324 9.32126C10.3464 9.31426 10.3367 9.30136 10.3411 9.29587C10.3504 9.28537 10.3493 9.28332 10.3499 9.27341C10.3514 9.25988 10.3805 9.24399 10.3675 9.22946C10.3645 9.22637 10.3052 9.23035 10.2943 9.22555C10.2841 9.22062 10.2891 9.20761 10.3031 9.20309C10.3172 9.19869 10.3641 9.19993 10.3753 9.19919C10.4664 9.19277 10.3414 9.17781 10.3372 9.17575C10.2839 9.14014 10.3559 9.10956 10.3558 9.07614C10.3555 9.05075 10.332 9.02315 10.3353 8.99899C10.3397 8.97039 10.3711 8.94576 10.3656 8.91794C10.3595 8.91562 10.295 8.91846 10.2943 8.91501C10.2861 8.87675 10.2935 8.83884 10.3411 8.80075C10.3459 8.79697 10.4067 8.8014 10.4163 8.79782C10.4674 8.77443 10.5901 8.73749 10.3197 8.7236C10.3302 8.70778 10.3415 8.68894 10.3958 8.67477C10.4308 8.66566 10.4984 8.67415 10.4701 8.66305C10.4636 8.66052 10.4039 8.66392 10.3988 8.66012C10.3771 8.64414 10.3962 8.62613 10.3656 8.61032C10.3576 8.60735 10.3073 8.60824 10.2972 8.60739C10.2198 8.59973 10.3475 8.58673 10.3568 8.58395C10.4255 8.56295 10.3995 8.54779 10.4007 8.52829C10.4011 8.52374 10.3305 8.52862 10.3275 8.52438C10.3173 8.50154 10.3232 8.47741 10.3548 8.45505C10.362 8.45007 10.4235 8.45449 10.43 8.45212C10.456 8.44184 10.3437 8.43957 10.3675 8.42966C10.3726 8.42754 10.4253 8.42907 10.431 8.42868C10.5199 8.42264 10.3928 8.41754 10.39 8.41598C10.3522 8.39637 10.4844 8.38317 10.4661 8.36423C10.4638 8.36195 10.3975 8.36671 10.3949 8.36032C10.377 8.31784 10.3951 8.27247 10.4476 8.23044C10.4562 8.22417 10.5044 8.22881 10.5111 8.22848C10.6061 8.22178 10.4794 8.21793 10.474 8.21579C10.4394 8.19893 10.5464 8.18232 10.3949 8.17087C10.4469 8.09959 10.3625 8.02866 10.4984 7.95798C10.5034 7.95724 10.563 7.95874 10.5658 7.957C10.6004 7.93552 10.5023 7.93906 10.3831 7.92477C10.355 7.92113 10.4966 7.91019 10.5081 7.90915C10.5471 7.90561 10.6412 7.90936 10.6488 7.90817C10.7057 7.89846 10.3979 7.89987 10.3978 7.88669C10.3983 7.88628 10.4549 7.88872 10.4613 7.88766C10.479 7.88422 10.4566 7.88029 10.4759 7.87692C10.5212 7.8692 10.6716 7.86624 10.5843 7.85446C10.573 7.85297 10.398 7.85544 10.4056 7.84372C10.409 7.83905 10.4062 7.81848 10.4173 7.81247C10.4284 7.80678 10.4827 7.81072 10.4876 7.81051C10.5624 7.7948 10.5938 7.80081 10.7044 7.79294C10.8142 7.78508 10.5511 7.78638 10.5218 7.78317C10.4937 7.77989 10.5552 7.76841 10.5765 7.76559C10.598 7.76288 10.6338 7.76711 10.6458 7.76462C10.7246 7.74799 10.5147 7.75644 10.473 7.75094C10.3758 7.7381 10.567 7.72851 10.5882 7.71676C10.5934 7.71355 10.5494 7.71572 10.5452 7.71286C10.5296 7.70156 10.5902 7.69447 10.5345 7.68161C10.5254 7.6795 10.4084 7.66979 10.4945 7.66305C10.5072 7.66218 10.5543 7.66471 10.5658 7.66012C10.5821 7.65292 10.5927 7.63955 10.5765 7.6318C10.564 7.62623 10.4851 7.63203 10.5091 7.62497C10.5202 7.62177 10.5673 7.62802 10.5843 7.62204C10.6013 7.61606 10.5996 7.60051 10.598 7.59469C10.5953 7.58924 10.538 7.59206 10.5316 7.59176C10.5094 7.58907 10.4816 7.57901 10.4788 7.57712C10.4714 7.52751 10.5729 7.48186 10.5394 7.43356C10.5369 7.42982 10.4749 7.43209 10.472 7.43161C10.4452 7.41863 10.615 7.4289 10.6722 7.41989C10.5432 7.42119 10.5658 7.41527 10.5521 7.40622C10.5452 7.40189 10.4963 7.40456 10.4896 7.40426C10.4134 7.39774 10.511 7.39276 10.5316 7.39157C10.6057 7.38724 10.5185 7.3828 10.5677 7.37985C10.6164 7.37694 10.6891 7.38331 10.6898 7.37497C10.6433 7.37251 10.521 7.3787 10.5013 7.37204C10.4272 7.34688 10.5227 7.29946 10.5326 7.27926C10.5421 7.25952 10.5336 7.25278 10.5501 7.24118C10.5805 7.21998 10.4909 7.2279 10.4495 7.21481C10.4083 7.20159 10.6304 7.20792 10.6781 7.20602C10.7251 7.20416 10.6765 7.20248 10.7025 7.20016C10.7285 7.19787 10.7607 7.20249 10.7708 7.19723C10.7807 7.19179 10.6957 7.1767 10.6458 7.17477C10.5406 7.17073 10.4303 7.17727 10.4681 7.16305C10.4704 7.16222 10.5296 7.16525 10.5355 7.16208C10.5803 7.1369 10.5827 7.11007 10.6224 7.08493C10.6279 7.08155 10.6902 7.08474 10.6966 7.08298C10.7381 7.062 10.6287 7.06908 10.5072 7.05758C10.6687 7.06016 10.7676 7.05392 10.7689 7.03805C10.7695 7.02851 10.6995 7.02954 10.6497 7.02341C10.6347 7.02155 10.6827 7.01488 10.6497 7.01364C10.5411 7.00959 10.4197 7.01638 10.4681 6.99997C10.4735 6.99943 10.53 7.00141 10.5335 6.99899C10.5558 6.98309 10.4427 6.98115 10.429 6.96383C10.4182 6.9502 10.4881 6.92564 10.4993 6.91012C10.5007 6.91013 10.502 6.90915 10.5033 6.90915C10.4323 6.90248 10.4243 6.89492 10.514 6.88962C10.5188 6.87963 10.5125 6.86897 10.5296 6.85934C10.5365 6.85625 10.5857 6.85769 10.5931 6.85739C10.6824 6.85091 10.5608 6.84687 10.556 6.84469C10.5096 6.82117 10.6018 6.80171 10.512 6.77926C10.5088 6.77847 10.3823 6.77745 10.474 6.77145C10.4803 6.77106 10.5379 6.77812 10.5423 6.76755C10.5472 6.75694 10.6143 6.73726 10.556 6.72262C10.5412 6.71904 10.44 6.71028 10.5199 6.70309C10.5309 6.70216 10.5672 6.70252 10.5872 6.70114C10.6508 6.69667 10.5238 6.69468 10.6322 6.68942C10.7406 6.68415 10.8212 6.67298 10.7464 6.65817C10.7386 6.65753 10.6433 6.6539 10.6449 6.64938C10.6477 6.642 10.6687 6.6317 10.6683 6.62399C10.6679 6.62032 10.6065 6.6226 10.6038 6.62204C10.5687 6.59713 10.6243 6.57932 10.6488 6.5527C10.6533 6.5478 10.5681 6.53291 10.6351 6.52341C10.7093 6.51297 11.0182 6.52395 10.9447 6.49997C10.9138 6.4903 10.5245 6.47825 10.7269 6.46091C10.6766 6.42719 10.7801 6.39608 10.7083 6.36227C10.7033 6.36077 10.6048 6.35599 10.598 6.35251C10.6004 6.3472 10.6513 6.3436 10.6546 6.33981C10.6691 6.32415 10.6271 6.31 10.6331 6.29489C10.6355 6.28921 10.6856 6.29051 10.6908 6.28415C10.6937 6.27722 10.6249 6.27205 10.6585 6.26266C10.6852 6.25564 10.8247 6.24853 10.8421 6.23923C10.7024 6.23886 10.7051 6.23212 10.6683 6.22067C10.6611 6.21846 10.6117 6.22074 10.6058 6.21969C10.5815 6.21547 10.6213 6.21199 10.5941 6.20798C10.5875 6.20699 10.5397 6.20682 10.5316 6.20602C10.4613 6.19922 10.5679 6.18751 10.5872 6.18551C10.6583 6.17813 10.5969 6.17554 10.6243 6.16989C10.6522 6.16425 10.6873 6.17241 10.7044 6.16598C10.7396 6.15226 10.7325 6.13403 10.7347 6.12008C10.734 6.11476 10.6707 6.11892 10.6693 6.11813C10.6531 6.10663 10.7213 6.09424 10.5941 6.08786C10.9231 6.07989 10.5624 6.08086 10.6283 6.06442C10.6379 6.06314 10.7893 6.06245 10.8118 6.06735ZM10.8109 10.1152C10.8602 10.1667 10.868 10.1667 10.8148 10.1152C10.8126 10.1133 10.809 10.1132 10.8109 10.1152ZM10.4984 10.0361C10.4691 10.0678 10.5079 10.0364 10.5443 9.99704C10.5734 9.96547 10.5347 9.99681 10.4984 10.0361ZM10.4622 10.0449C10.4839 10.0233 10.5014 10.0063 10.515 9.99313C10.5124 9.99311 10.5098 9.99315 10.5072 9.99313C10.4852 10.0173 10.4658 10.0388 10.4622 10.0449ZM10.3304 9.99313C10.2981 10.0269 10.2811 10.0463 10.3031 10.0302C10.3079 10.0267 10.3222 10.0116 10.3421 9.99313C10.3382 9.99315 10.3343 9.99311 10.3304 9.99313ZM10.5736 9.99313C10.5714 10.0021 10.5764 10.0037 10.5784 10.0078C10.579 10.0086 10.5849 10.0012 10.5931 9.99313C10.5866 9.99308 10.5801 9.99318 10.5736 9.99313ZM10.2249 9.55563C10.1735 9.60483 10.1736 9.61359 10.2249 9.56051C10.2269 9.55847 10.2268 9.55424 10.2249 9.55563ZM10.2884 9.45114C10.2563 9.48599 10.3082 9.43733 10.2767 9.47067C10.2692 9.47862 10.2609 9.48745 10.2523 9.49606H10.2542C10.2658 9.48434 10.278 9.47329 10.2884 9.46286C10.2899 9.45885 10.2885 9.45507 10.2884 9.45114ZM10.2318 9.48532L10.2337 9.48727C10.2764 9.44533 10.2692 9.45575 10.2796 9.45016C10.2811 9.44926 10.2829 9.44561 10.2865 9.44235C10.2855 9.44019 10.2862 9.43665 10.2845 9.43454C10.2838 9.43415 10.2825 9.43381 10.2806 9.43356C10.2646 9.44958 10.2481 9.4687 10.2318 9.48532ZM10.0618 9.45798C10.0193 9.50074 10.0336 9.49049 10.0726 9.45016C10.0748 9.44776 10.075 9.44474 10.0618 9.45798ZM10.0843 9.2568C9.99949 9.33668 9.9999 9.35421 10.0843 9.26559C10.0885 9.26098 10.0885 9.25297 10.0843 9.2568ZM11.4574 9.27145C11.5005 9.31436 11.4909 9.29974 11.4505 9.26071C11.4481 9.25839 11.444 9.25813 11.4574 9.27145ZM11.4134 9.27633C11.4183 9.28096 11.4236 9.28591 11.429 9.29098C11.4644 9.32403 11.4465 9.30804 11.4154 9.27633H11.4134ZM11.3333 9.19137C11.3329 9.19495 11.3328 9.19854 11.3324 9.20212C11.3495 9.21837 11.3689 9.23487 11.3939 9.25876C11.3952 9.25879 11.3965 9.2587 11.3978 9.25876C11.3762 9.23685 11.3525 9.21086 11.3333 9.19137ZM11.3363 9.24508L11.3353 9.24313L11.3363 9.24508ZM11.3343 9.16989C11.3344 9.17381 11.3346 9.17769 11.3343 9.18161C11.339 9.18562 11.3439 9.18862 11.347 9.19137C11.3631 9.20559 11.3874 9.23246 11.3968 9.2402C11.4382 9.27407 11.3832 9.21885 11.3343 9.16989ZM11.556 9.10837C11.6052 9.15983 11.6131 9.15989 11.5599 9.10837C11.5578 9.10654 11.5543 9.10643 11.556 9.10837ZM9.2181 8.81051C9.16668 8.85974 9.16677 8.86845 9.2181 8.8154C9.22011 8.81332 9.22005 8.80888 9.2181 8.81051ZM11.9964 8.78903C11.9654 8.76048 11.9973 8.79875 12.0365 8.83493C12.068 8.86401 12.0357 8.82534 11.9964 8.78903ZM11.9495 8.63766C11.9825 8.66282 11.8705 8.5451 11.9359 8.60251C11.9478 8.61304 12.0508 8.72496 12.0531 8.72848C12.0361 8.72861 11.846 8.54955 11.8743 8.55954C11.8798 8.56164 11.9306 8.62307 11.9495 8.63766ZM10.5589 7.97458C10.5528 7.97561 10.5474 7.98877 10.5531 7.98923C10.6695 7.99662 10.6812 7.96827 10.5589 7.97458ZM10.7103 7.72067C10.771 7.72037 10.7544 7.71384 10.6986 7.71579C10.6952 7.71591 10.6918 7.7207 10.7103 7.72067ZM10.6654 7.32907C10.7364 7.33236 10.7421 7.31967 10.6683 7.32223C10.6653 7.32239 10.6624 7.32892 10.6654 7.32907ZM10.9017 6.3945C10.8036 6.40444 10.9483 6.41125 11.0247 6.40426C11.1011 6.39723 10.9317 6.39146 10.9017 6.3945ZM10.7513 6.18844C10.7084 6.19207 10.7575 6.20263 10.8109 6.19821C10.8539 6.19457 10.8048 6.18394 10.7513 6.18844ZM10.7484 6.01462C10.7361 6.04036 10.4727 6.05536 10.5023 6.02731C10.5076 6.02225 10.5857 6.03847 10.6097 6.03219C10.6529 6.02035 10.4881 6.01205 10.5765 5.99997C10.5927 5.99779 10.7493 6.0131 10.7484 6.01462Z" fill="#555961"/>
</svg>
