<svg width="16" height="16" viewBox="0 0 16 16" fill="none" xmlns="http://www.w3.org/2000/svg">
<path d="M7.90788 1.83592C7.9541 1.80656 8.04335 1.81174 8.09245 1.83592C8.20834 1.91602 8.31738 2.01752 8.38542 2.06248C8.50053 2.13855 8.54349 2.15319 8.60514 2.20701C8.71684 2.30472 8.71528 2.19975 8.81413 2.20799C8.91278 2.21656 8.76574 2.38849 8.75358 2.4365C8.74133 2.48432 8.77798 2.44884 8.77897 2.47947C8.77956 2.50975 8.73425 2.52123 8.76139 2.54783C8.78903 2.57466 8.91977 2.55065 8.95573 2.51365C9.03167 2.43523 9.04624 2.31622 9.11296 2.39842C9.11662 2.40328 9.07215 2.445 9.08757 2.46092C9.21577 2.58457 9.37106 2.6749 9.50163 2.79393C9.51911 2.81049 9.46913 2.85699 9.47917 2.86717C9.58363 2.97325 9.59331 2.8525 9.72135 2.78514C9.6268 2.91728 9.6157 3.02477 9.70964 3.07908C9.76638 3.11173 9.79187 3.04509 9.85319 3.02244C9.87155 3.0161 9.88826 3.08041 9.91178 3.05564C9.98908 2.97454 10.0106 2.84719 10.0846 2.94432C10.0878 2.94874 10.0452 2.99338 10.0583 3.00486C10.1424 3.07878 10.2098 2.98611 10.32 3.03221C10.4065 3.0685 10.5172 3.21058 10.6042 3.27244C10.5131 3.4298 10.6206 3.4427 10.7174 3.3535C10.775 3.39174 10.8437 3.42196 10.8932 3.46971C10.91 3.48615 10.871 3.52487 10.8708 3.53123C10.8658 3.63032 10.9522 3.53886 10.9674 3.54197C11.1304 3.5806 11.1995 3.72499 11.3776 3.72166C11.384 3.7215 11.4534 3.61621 11.444 3.71678C11.4417 3.72393 11.3721 3.74914 11.4323 3.78807C11.4932 3.82763 11.5789 3.95293 11.695 3.95115C11.7234 3.95044 11.827 3.89254 11.8307 3.98631C11.8307 3.99916 11.807 4.02681 11.8053 4.04881C11.8006 4.1198 11.8777 4.01709 11.8561 4.12889C11.8344 4.24113 11.86 4.34857 11.985 4.33299C11.9924 4.32858 12.0591 4.25785 12.0856 4.27342C12.1286 4.30063 12.1816 4.35437 12.2282 4.37986C12.2496 4.3915 12.2659 4.3349 12.2712 4.33104C12.4374 4.38413 12.5161 4.49255 12.6637 4.6035C12.6908 4.62395 12.8171 4.59655 12.8405 4.68748C12.866 4.78723 12.6518 5.01978 12.8307 5.03611C12.8373 5.03664 12.8448 5.03313 12.8542 5.02928C12.8555 5.01948 12.8573 5.00972 12.859 4.99998L12.8717 5.02244C12.9728 4.96777 13.1677 4.77681 13.1715 4.97752C13.2119 4.98992 13.2491 5.00744 13.2848 5.02635C13.2791 5.19166 13.2387 5.35272 13.2917 5.52342C13.2958 5.53393 13.4027 5.56649 13.402 5.5908C13.3996 5.62694 13.3491 5.64708 13.3454 5.67283C13.33 5.78142 13.3737 5.88161 13.3669 5.98631C13.364 6.02549 13.3122 6.01232 13.3092 6.05955C13.3068 6.10671 13.375 6.1381 13.3415 6.20213C13.3159 6.2505 13.175 6.29913 13.1579 6.36326C13.2978 6.36577 13.2947 6.41071 13.3317 6.48924C13.3392 6.50401 13.3883 6.48798 13.3942 6.4951C13.4188 6.52399 13.379 6.55066 13.4059 6.57811C13.4125 6.58479 13.46 6.58539 13.4684 6.5908C13.5385 6.63722 13.4324 6.71365 13.4128 6.72752C13.3417 6.77807 13.4033 6.80208 13.3757 6.8408C13.3476 6.87957 13.3126 6.82188 13.2956 6.86717C13.2604 6.96098 13.2675 7.08143 13.2653 7.17674C13.2647 7.21465 13.3289 7.1891 13.3307 7.19432C13.3469 7.27298 13.2786 7.35285 13.4059 7.39646C13.0769 7.45099 13.4376 7.44419 13.3717 7.55662C13.3622 7.56541 13.2107 7.57548 13.1882 7.54197C13.1657 7.50797 13.2139 7.45622 13.1784 7.40916C13.1682 7.39734 13.0241 7.33385 13.0153 7.32518C12.9471 7.25701 13.1793 7.24774 13.1921 7.24412C13.3286 7.20331 13.1743 7.12563 13.1618 7.10447C13.112 7.01025 13.1446 6.92937 13.109 6.85057C13.0856 6.79936 12.9335 6.79427 12.9382 6.75389C12.9536 6.61939 13.1664 6.57206 12.9821 6.44529C12.9426 6.41825 12.7761 6.44494 12.9069 6.34764C12.9157 6.34117 13.0352 6.26919 12.9596 6.22752C12.9501 6.22227 12.9012 6.22272 12.8971 6.2158C12.8709 6.16947 12.9098 6.13836 12.8913 6.08787C12.8728 6.03736 12.8445 5.97659 12.861 5.91893C12.8709 5.88417 12.9619 5.83986 12.984 5.82322C13.0476 5.77626 12.943 5.72536 13.0202 5.69627C13.0978 5.66699 13.2161 5.72439 13.2663 5.64744C13.1402 5.64459 13.0103 5.63835 12.8835 5.63377C12.8863 5.52617 12.9028 5.41943 12.9137 5.31248C12.8453 5.30439 12.7623 5.31376 12.6989 5.2949C12.7271 5.1455 12.6003 5.13065 12.5319 5.07713C12.5079 5.05841 12.5288 5.02533 12.5163 5.00389C12.4687 4.9238 12.439 5.05389 12.4098 5.06053C12.2858 5.08807 12.4194 4.83313 12.319 4.78416C12.3137 4.78151 12.1764 4.87935 12.1618 4.88377C12.0759 4.90712 12.1781 4.83111 12.1491 4.80174C12.0964 4.74822 12.0702 4.69185 11.9743 4.68943C11.946 4.68907 11.8472 4.74309 11.8415 4.65525C11.8407 4.64368 11.8689 4.60078 11.8659 4.59568C11.8098 4.50742 11.7294 4.64568 11.6569 4.66697C11.5845 4.68801 11.5679 4.55141 11.569 4.51561C11.5716 4.42425 11.6141 4.50022 11.6208 4.49607C11.6919 4.42591 11.6319 4.41114 11.5964 4.38182C11.6674 4.2421 11.6076 4.21884 11.5592 4.35154C11.5541 4.3661 11.5919 4.37111 11.5964 4.38182C11.4865 4.49591 11.4165 4.47887 11.4196 4.31639C11.4212 4.24006 11.4889 4.18787 11.3796 4.15916C11.3299 4.14607 11.2936 4.24977 11.2409 4.25389C11.1206 4.2632 11.0565 4.11109 10.9587 4.0742C10.9233 4.06089 10.9259 4.12958 10.901 4.12303C10.8339 4.10363 10.8028 4.03618 10.7321 4.02244C10.7257 4.02127 10.7089 4.08121 10.6901 4.07225C10.5462 3.99951 10.4426 3.89591 10.2965 3.81248C10.2258 3.77226 10.0823 3.73074 10.0124 3.68357C9.89106 3.60193 9.77897 3.43567 9.65983 3.39354C9.58227 3.36591 9.56704 3.42846 9.51628 3.44822C9.41783 3.48636 9.38545 3.30154 9.38249 3.27342C9.38243 3.27252 9.45025 3.29399 9.43327 3.24803C9.44677 3.17976 9.38333 3.27354 9.38249 3.27342C9.3805 3.25558 9.26652 3.17477 9.236 3.17088C9.21977 3.16912 9.19815 3.224 9.1901 3.22264C9.00161 3.17672 8.83109 3.09813 8.67936 2.98143C8.67703 2.97876 8.71356 2.92351 8.70768 2.91795C8.62639 2.83894 8.5256 2.8749 8.4235 2.87205C8.32132 2.86914 8.26661 2.81958 8.27507 2.69529C8.20866 2.67418 8.14731 2.58323 8.11296 2.52928C8.10988 2.52445 8.10577 2.52195 8.10221 2.51951C8.03278 2.56081 7.94034 2.6271 7.88737 2.6699C7.83616 2.71134 7.78772 2.7051 7.74479 2.75096C7.73895 2.75717 7.77323 2.80252 7.77214 2.80564C7.74694 2.89769 7.70751 2.76106 7.68327 2.74607C7.59526 2.69213 7.54406 2.66598 7.48991 2.7451C7.47833 2.76567 7.52497 2.96487 7.49967 2.99314C7.46603 3.02906 7.44607 2.9582 7.41178 2.99705C7.40882 3.00035 7.43117 3.03848 7.40397 3.05174C7.27693 3.11348 7.13009 3.16647 7.00456 3.24217C6.98746 3.25241 7.04449 3.30164 7.02018 3.31736C6.90601 3.39112 6.77451 3.46183 6.64323 3.49803C6.61119 3.50615 6.60471 3.45351 6.59147 3.44432C6.51048 3.38878 6.52001 3.53097 6.51237 3.53807C6.33163 3.71029 6.11336 3.70009 5.92546 3.86912C5.91534 3.87873 5.89221 4.04812 5.7946 3.96873C5.78801 3.96345 5.6891 3.88075 5.69401 3.97166C5.69435 3.97737 5.74958 4.01823 5.70378 4.03709C5.65744 4.05591 5.60719 4.13046 5.51432 4.10447C5.48427 4.09552 5.38193 4.01777 5.37272 4.13182C5.37234 4.13971 5.392 4.37755 5.28776 4.26463C5.27056 4.24571 5.19874 4.10559 5.17155 4.21385C5.16678 4.23459 5.20651 4.25227 5.18425 4.29002C5.14923 4.34869 5.05988 4.35106 5.03092 4.44822C5.02614 4.46656 5.03073 4.58407 4.95378 4.53514C4.94164 4.52737 4.92669 4.47582 4.90397 4.48143C4.7951 4.51014 4.71264 4.59671 4.59831 4.61912C4.55798 4.62712 4.53352 4.54339 4.48698 4.54295C4.44017 4.54304 4.35771 4.56422 4.33952 4.61912C4.32139 4.67411 4.4281 4.76963 4.3776 4.81053C4.15807 4.98824 3.87861 5.0545 3.63053 5.18064C3.59425 5.19928 3.64698 5.22444 3.59538 5.25486C3.50717 5.30638 3.39225 5.38059 3.27409 5.44822C3.27179 5.52929 3.2445 5.60081 3.25944 5.68553C3.26408 5.71035 3.32699 5.68625 3.33073 5.70701C3.34185 5.78022 3.31377 5.85776 3.31901 5.92771C3.32181 5.95856 3.37005 5.95318 3.36686 5.98143C3.35838 6.05052 3.33758 6.11231 3.29167 6.17967C3.28673 6.18511 3.22653 6.14453 3.22428 6.19529C3.22079 6.27796 3.17576 6.38044 3.22233 6.47557C3.2364 6.50381 3.34847 6.50567 3.27116 6.56639C3.25475 6.57904 3.12097 6.56216 3.23698 6.63279C3.25696 6.64522 3.41191 6.7641 3.3112 6.82225C3.28419 6.83773 3.17482 6.87725 3.19206 6.91111C3.19578 6.91527 3.25534 6.89717 3.26139 6.92479C3.28102 7.02398 3.27381 7.12855 3.29264 7.23045C3.2981 7.2572 3.36022 7.21735 3.36589 7.25779C3.38152 7.36925 3.36581 7.50824 3.34635 7.61717C3.33906 7.65738 3.28751 7.62987 3.2819 7.63279C3.19174 7.67941 3.31207 7.70697 3.32096 7.72264C3.36393 7.81969 3.30674 7.89394 3.32194 7.98338C3.32601 8.00808 3.38409 7.99116 3.38932 7.99607C3.44034 8.04697 3.33568 8.00888 3.32389 8.041C3.29098 8.13143 3.29588 8.23274 3.30339 8.3242C3.30686 8.35686 3.37371 8.31983 3.37565 8.34959C3.38738 8.52798 3.38093 8.71357 3.34342 8.88768C3.33626 8.92036 3.28433 8.90057 3.27214 8.90721C3.18836 8.95431 3.30227 9.02316 3.31315 9.03904C3.36268 9.11115 3.31622 9.13937 3.32487 9.20311C3.36792 9.51464 3.33798 9.89929 3.31901 10.1933C3.31012 10.3328 3.29621 10.4608 3.28483 10.5849C3.49148 10.6918 3.68267 10.8212 3.89518 10.9199C3.9143 10.9285 3.91999 10.8567 3.95182 10.8691C4.01775 10.8947 4.09386 10.941 4.14518 10.9941C4.16956 11.0198 4.1021 11.0464 4.1276 11.0713C4.18767 11.1295 4.26093 11.1765 4.33854 11.208C4.37155 11.2211 4.35868 11.1363 4.39909 11.1582C4.67508 11.3057 4.94865 11.4464 5.18132 11.6777C5.19681 11.6942 5.14692 11.8226 5.19987 11.8222C5.22154 11.7908 5.24307 11.7515 5.26432 11.7168C5.67229 11.9211 6.04248 12.1836 6.43717 12.414C6.45365 12.4229 6.46058 12.3439 6.49284 12.3623C6.68044 12.469 6.87299 12.5543 7.02995 12.7256C7.04557 12.7425 6.97307 12.8484 7.03874 12.8633C7.0504 12.8658 7.14381 12.8986 7.17936 12.8867C7.18459 12.883 7.19851 12.8242 7.22624 12.8379C7.38927 12.9192 7.54868 13.0246 7.68913 13.1455C7.7117 13.1651 7.65415 13.2052 7.6696 13.2197C7.78218 13.3218 7.94653 13.3588 8.04167 13.4785C8.10518 13.5589 8.02071 13.6378 8.01139 13.7568C8.01011 13.7736 8.06016 13.8049 8.0319 13.8613C7.96098 14.0033 7.85066 14.1409 7.778 14.2939C7.76329 14.3265 7.8496 14.3312 7.76628 14.3847C7.75856 14.388 7.69699 14.3866 7.67057 14.4053C7.65194 14.4184 7.63547 14.4828 7.60514 14.4961C7.5749 14.5092 7.58176 14.4511 7.53776 14.4619C7.49365 14.4732 7.47054 14.5443 7.40885 14.5195C7.26566 14.4614 7.10115 14.344 6.9821 14.2441C6.94476 14.2129 6.98454 14.1901 6.95964 14.167C6.91097 14.1222 6.84888 14.1097 6.80241 14.0625C6.78741 14.0465 6.84067 14.0046 6.82389 13.9892C6.73163 13.9055 6.6238 13.863 6.52311 13.791C6.02663 13.436 5.51801 13.123 4.99675 12.7969C4.82489 12.6894 4.63853 12.5182 4.44401 12.4375C4.42185 12.4287 4.40751 12.4815 4.40104 12.4853C4.30334 12.5104 4.3786 12.4249 4.3444 12.3887C4.20854 12.2452 4.02782 12.1378 3.85905 12.0674C3.78739 12.0379 3.80095 12.1709 3.76335 12.0791C3.76222 12.0718 3.80645 12.0313 3.79167 12.0156C3.75666 11.9798 3.67148 11.9442 3.64128 11.9219C3.58334 11.8787 3.57218 11.8737 3.51335 11.8398C3.43321 11.7931 3.35169 11.713 3.25846 11.6758C3.23848 11.668 3.23332 11.734 3.19889 11.7265C3.16441 11.7188 3.08875 11.6708 3.06901 11.6435C3.04972 11.6165 3.08349 11.5816 3.08464 11.5693C3.09101 11.4688 2.94087 11.5261 2.92546 11.5234C2.75764 11.4721 2.63475 11.3752 2.50749 11.2832C2.41871 11.2395 2.34788 11.0988 2.34245 11C2.34994 10.9344 2.35615 10.8684 2.35612 10.8008C2.35581 10.6271 2.33137 10.4406 2.33464 10.2754C2.33879 10.0786 2.37149 9.91184 2.36589 9.72068C2.3653 9.70055 2.2944 9.72384 2.29362 9.6992C2.28541 9.43746 2.29376 9.17758 2.34147 8.91697C2.34631 8.89091 2.40775 8.92402 2.41667 8.89842C2.46772 8.73844 2.59044 8.48465 2.31999 8.38963C2.33054 8.28133 2.3417 8.14955 2.39616 8.05271C2.43131 7.99085 2.49822 8.05122 2.4694 7.97459C2.46278 7.95755 2.40466 7.9795 2.39909 7.95408C2.37742 7.84485 2.39637 7.72525 2.36589 7.61717C2.35952 7.59517 2.30611 7.60094 2.29655 7.59471C2.21949 7.5423 2.3478 7.45453 2.3571 7.43553C2.42615 7.29106 2.39841 7.18539 2.40007 7.05076C2.40049 7.01955 2.33035 7.05598 2.3278 7.02635C2.31758 6.87014 2.32349 6.70762 2.35514 6.55467C2.36279 6.52142 2.42272 6.55217 2.42936 6.53611C2.45752 6.46444 2.3431 6.44859 2.36784 6.37986C2.37284 6.36558 2.42337 6.37337 2.43034 6.37107C2.5193 6.33002 2.39502 6.29414 2.3903 6.28318C2.35197 6.14855 2.48428 6.06169 2.4655 5.93162C2.46163 5.9175 2.39811 5.95091 2.39518 5.90818C2.37701 5.61679 2.39528 5.30795 2.44792 5.01951C2.44977 5.00964 2.45367 5.00351 2.45866 4.99998C2.45519 4.93669 2.51065 4.85255 2.56413 4.81834C2.57551 4.82374 2.58027 4.83875 2.58268 4.85057C2.53858 4.87866 2.49194 4.94777 2.49479 4.99998C2.5027 5.00252 2.50947 5.00478 2.51139 5.00389C2.51417 5.00254 2.5168 5.0013 2.51921 4.99998C2.51676 4.95527 2.55663 4.89625 2.5944 4.87205C2.67073 4.91932 2.63755 4.802 2.64714 4.79002C2.73072 4.70332 2.87696 4.74313 2.87077 4.57225C3.32244 4.37869 3.70497 4.06612 4.19401 3.94725C4.20035 3.94689 4.22104 4.00545 4.23307 4.00291C4.37936 3.96111 4.30687 3.8894 4.33366 3.73729C4.34072 3.69936 4.477 3.78797 4.48796 3.79393C4.52748 3.816 4.55125 3.90731 4.56217 3.91209C4.64963 3.93086 4.48928 3.66744 4.56803 3.62303C4.57191 3.62698 4.58839 3.67754 4.59733 3.67869C4.62649 3.68251 4.63602 3.65145 4.66569 3.65721C4.73387 3.67105 4.82379 3.79207 4.85124 3.67674C4.85457 3.66184 4.75533 3.51671 4.82975 3.48436C4.8598 3.47137 4.98169 3.39943 5.02214 3.38963C5.06246 3.37997 5.06631 3.4426 5.06999 3.44334C5.20017 3.45579 5.18004 3.5023 5.28092 3.57225C5.38187 3.64192 5.24005 3.4201 5.24479 3.38377C5.24986 3.34785 5.34784 3.36287 5.37565 3.37205C5.40288 3.38121 5.4 3.42418 5.42057 3.42674C5.55886 3.43991 5.4005 3.28819 5.41276 3.23338C5.44155 3.10389 5.59729 3.23973 5.67741 3.21678C5.69907 3.21051 5.66145 3.18018 5.67643 3.16697C5.73614 3.1152 5.8067 3.14549 5.85612 3.05369C5.86417 3.03788 5.86978 2.9019 5.95182 2.95408C5.96346 2.96205 5.97093 3.01304 6.00456 3.00682C6.05536 2.99692 6.13805 2.9628 6.17643 2.92283C6.20457 2.89325 6.12697 2.84543 6.18132 2.84275C6.20583 2.8417 6.19381 2.90184 6.23796 2.89646C6.28192 2.89117 6.37204 2.83828 6.40592 2.81736C6.43963 2.79644 6.39146 2.75414 6.39225 2.749C6.3978 2.71959 6.44715 2.65884 6.45475 2.6533C6.74723 2.48028 7.07076 2.41531 7.34245 2.22361C7.36308 2.20903 7.31977 2.16433 7.31999 2.15916C7.38422 2.09228 7.40709 2.27439 7.48893 2.29393C7.41757 2.18529 7.46098 2.18743 7.50846 2.14451C7.53116 2.1238 7.49354 2.08825 7.49284 2.08201C7.49436 1.99347 7.5697 2.06444 7.58659 2.07811C7.64854 2.12789 7.63363 2.03603 7.67546 2.06932C7.71713 2.10235 7.71265 2.18812 7.76432 2.15818C7.75597 2.10946 7.65872 2.02587 7.68815 1.98631C7.7348 1.92489 7.8179 1.87611 7.90788 1.83592ZM7.82975 13.6933C7.88382 13.6424 7.81325 13.5966 7.79264 13.6699C7.79458 13.6743 7.82752 13.6953 7.82975 13.6933ZM13.2526 7.90232C13.2652 7.72649 13.527 7.62012 13.4977 7.8115C13.4924 7.84627 13.414 7.73698 13.3903 7.78123C13.3472 7.86213 13.5114 7.91552 13.4235 7.99803C13.4073 8.01299 13.2517 7.91269 13.2526 7.90232ZM13.1891 6.64354C13.1461 6.6684 13.1953 6.74062 13.2487 6.70994C13.2916 6.68513 13.2424 6.61339 13.1891 6.64354ZM13.0983 5.29979C13.1903 5.23609 13.0694 5.19179 12.9909 5.22557L13.0339 5.29979C13.0614 5.30475 13.088 5.30692 13.0983 5.29979ZM3.22526 5.1826C3.17401 5.1908 3.13435 5.1144 3.11003 5.20018C3.1025 5.22706 3.13434 5.25381 3.1696 5.27732L3.22526 5.1826ZM13.3112 5.04002C13.3027 5.03515 13.2935 5.03094 13.2848 5.02635C13.2851 5.01755 13.2877 5.00881 13.2878 4.99998L13.3112 5.04002ZM4.12663 4.05564C4.12155 4.0513 4.035 4.09348 4.03385 4.10057C4.04674 4.22688 4.22396 4.1411 4.12663 4.05564ZM5.73307 3.3115C5.73072 3.309 5.70306 3.32081 5.71257 3.33689C5.74415 3.38886 5.77235 3.35373 5.73307 3.3115ZM8.02702 2.01365C7.97242 2.06458 8.0433 2.11035 8.06413 2.03709C8.06273 2.03301 8.02927 2.01164 8.02702 2.01365Z" fill="#555961"/>
<path d="M13.1797 5.00298C13.3514 5.28333 13.1743 4.97112 13.2275 5.0147C13.2319 5.01838 13.3109 5.15317 13.3154 5.17681C13.3199 5.20024 13.2857 5.16408 13.2939 5.20025C13.2971 5.21135 13.3548 5.34305 13.3574 5.35162C13.3775 5.41831 13.2628 5.21683 13.2559 5.20611C13.1803 5.09046 13.2419 5.23638 13.2432 5.2481C13.2491 5.30156 13.2178 5.28205 13.2197 5.32134C13.2209 5.34681 13.293 5.47816 13.2842 5.48052C13.2504 5.48184 13.1367 5.30243 13.2021 5.47662C13.2161 5.51382 13.3035 5.65567 13.2207 5.55279C13.2155 5.54626 13.1419 5.44994 13.1709 5.52056C13.1747 5.52974 13.1986 5.57194 13.1992 5.57623C13.2028 5.60337 13.1788 5.5741 13.1777 5.59478C13.177 5.61641 13.1783 5.64752 13.1592 5.6397C13.1476 5.63494 13.0942 5.56049 13.0801 5.54302C13.0402 5.49348 13.0815 5.5893 13.0381 5.52545C12.9943 5.46103 12.9478 5.35174 12.9082 5.31646C12.9695 5.42666 13.0315 5.54041 13.0928 5.65142C13.0577 5.66605 13.0049 5.64854 12.9746 5.67193C12.971 5.67487 13.0069 5.72926 13.0059 5.73638C12.9926 5.75617 12.9521 5.72348 12.9424 5.75103C12.935 5.7726 12.9539 5.8447 12.9473 5.8692C12.867 5.74878 12.8679 5.80389 12.8447 5.80181C12.8365 5.8003 12.8178 5.76734 12.8076 5.75884C12.7699 5.7281 12.8392 5.83469 12.8447 5.85455C12.8678 5.93883 12.7254 5.68869 12.707 5.70709C12.706 5.70798 12.7678 5.84999 12.7705 5.85943C12.7886 5.92042 12.742 5.81493 12.7285 5.80865C12.7042 5.79849 12.6761 5.77177 12.6816 5.82037C12.6834 5.83472 12.7186 5.92465 12.6729 5.86529C12.6665 5.85686 12.6431 5.81262 12.6406 5.8106C12.5986 5.77776 12.6759 5.91657 12.6924 5.96978C12.7086 6.02255 12.6392 5.93641 12.6201 5.91021C12.5713 5.84329 12.609 5.87551 12.6055 5.86822C12.5643 5.78268 12.5604 5.80245 12.5479 5.80084C12.4698 5.66511 12.4615 5.68006 12.5342 5.79888C12.5422 5.81187 12.5426 5.7956 12.5479 5.80084C12.6153 5.9389 12.6108 5.96338 12.5254 5.84673C12.4856 5.79219 12.4537 5.72055 12.4463 5.75689C12.4429 5.77364 12.5 5.86609 12.5059 5.89654C12.519 5.9656 12.444 5.8929 12.4316 5.91802C12.4286 5.92825 12.463 5.9746 12.4609 5.98248C12.4552 6.00304 12.4221 5.97199 12.4199 5.99908C12.4208 6.00307 12.453 6.0526 12.4502 6.0567C12.4223 6.08062 12.3751 6.06167 12.3418 6.07916C12.3257 6.08772 12.3137 6.13254 12.2939 6.1358C12.2598 6.14147 12.1817 6.08402 12.168 6.11627C12.159 6.13731 12.1921 6.18906 12.2061 6.22955C12.233 6.30808 12.1383 6.19382 12.124 6.17584C12.124 6.17402 12.1291 6.15452 12.1074 6.13189C12.0713 6.0774 12.1226 6.17286 12.124 6.17584C12.1148 6.1643 12.0808 6.16746 12.0811 6.18072C12.0813 6.188 12.1118 6.23843 12.1113 6.24127C12.1006 6.30732 12.0708 6.34103 12.0205 6.33795C12.0189 6.33658 11.9899 6.28141 11.9863 6.27837C11.9508 6.26506 11.9757 6.34221 11.9814 6.39361C11.9871 6.44497 11.965 6.43979 11.8994 6.34771C11.8924 6.36642 11.8498 6.33444 11.8242 6.31451C11.7984 6.29439 11.8591 6.40649 11.8594 6.40923C11.8687 6.49612 11.8161 6.44285 11.7793 6.45025C11.7617 6.45372 11.7407 6.48665 11.7314 6.50787C11.7241 6.52426 11.7025 6.50331 11.7002 6.52642C11.7016 6.53207 11.7289 6.57802 11.7295 6.58013C11.7496 6.64639 11.6877 6.52208 11.6729 6.50201C11.619 6.4291 11.5898 6.39054 11.5937 6.43658C11.5946 6.44722 11.681 6.62848 11.6797 6.64263C11.6773 6.65898 11.6467 6.59631 11.6455 6.61627C11.6454 6.61796 11.6668 6.65634 11.6602 6.65826C11.6285 6.66634 11.586 6.66081 11.5596 6.68072C11.5559 6.68326 11.5944 6.74014 11.5908 6.74615C11.5685 6.76821 11.5378 6.78252 11.4961 6.76861C11.4858 6.76498 11.4657 6.72056 11.457 6.70806C11.4063 6.63731 11.454 6.74957 11.4551 6.75689C11.4381 6.8371 11.3452 6.75691 11.3242 6.83209C11.3246 6.84005 11.3694 6.96533 11.3037 6.8692C11.2982 6.86121 11.2317 6.76387 11.2637 6.83892C11.2657 6.84367 11.3014 6.8943 11.2891 6.89459C11.2763 6.89453 11.281 6.93958 11.2344 6.88775C11.2197 6.87143 11.1506 6.77273 11.1846 6.86236C11.187 6.86865 11.2745 7.06871 11.1943 6.94244C11.1811 6.92162 11.1041 6.78322 11.1289 6.86236C11.1338 6.87767 11.1569 6.90532 11.1602 6.92877C11.1652 6.96486 11.1291 6.93659 11.1494 7.00591C11.1531 7.01818 11.1948 7.11787 11.1465 7.05181C11.139 7.04152 11.116 6.99462 11.1084 6.99127C11.0733 6.9785 11.0678 7.02173 11.0283 7.00201C11.0143 6.99439 10.9772 6.91957 10.958 6.90337C10.9388 6.88792 10.9121 6.87737 10.9229 6.91607C10.9338 6.95495 11.0091 7.06852 11.002 7.08502C10.9708 7.15638 10.8783 7.11771 10.8184 7.13775C10.8095 7.14075 10.8395 7.17908 10.8281 7.18658C10.7862 7.21431 10.7332 7.29646 10.6445 7.22759C10.5737 7.17247 10.5807 7.09652 10.541 7.08013C10.5219 7.07241 10.5872 7.21685 10.5869 7.22271C10.5853 7.28145 10.5328 7.23089 10.5195 7.26275C10.5168 7.2694 10.5534 7.32314 10.5508 7.32818C10.5419 7.34542 10.5132 7.32941 10.502 7.34087C10.4971 7.34641 10.5211 7.3877 10.5146 7.38873C10.497 7.38891 10.4751 7.37739 10.4395 7.34478C10.4362 7.34184 10.4145 7.28575 10.4033 7.28814C10.3855 7.29417 10.3433 7.26624 10.3477 7.31744C10.3498 7.33383 10.4029 7.42949 10.3535 7.3692C10.3426 7.35552 10.2805 7.23868 10.3232 7.34673C10.3304 7.36486 10.3841 7.51429 10.3232 7.43267C10.3069 7.41067 10.2462 7.32021 10.248 7.33892C10.2501 7.34415 10.2809 7.39247 10.2783 7.40045C10.2685 7.4281 10.2459 7.4345 10.2354 7.46197C10.2337 7.47048 10.2707 7.5191 10.2656 7.52837C10.2516 7.55426 10.2163 7.55585 10.1855 7.55084C10.1742 7.54869 10.155 7.5016 10.1514 7.49615C10.0975 7.4218 10.1518 7.53209 10.1523 7.54009C10.1545 7.58822 10.1115 7.54623 10.1016 7.56939C10.1001 7.5771 10.1312 7.62493 10.1328 7.62994C10.1478 7.6797 10.1038 7.58379 10.0918 7.5772C10.0581 7.55849 10.0405 7.57335 10.0264 7.5899C10.0213 7.59598 10.0614 7.65026 10.0576 7.6563C10.0286 7.68607 9.9888 7.7011 9.93652 7.68755C9.92661 7.68488 9.90466 7.6367 9.89746 7.62701C9.84722 7.55917 9.89034 7.66656 9.89258 7.67779C9.90263 7.7284 9.87438 7.69161 9.86621 7.70611C9.82658 7.77766 9.7365 7.79295 9.66992 7.80865C9.58324 7.8294 9.50045 7.81881 9.43555 7.87017C9.43291 7.87518 9.46989 7.93114 9.4668 7.93462C9.42464 7.97758 9.36189 7.98243 9.32129 8.02837C9.3197 8.03401 9.3562 8.08558 9.35254 8.0938C9.34383 8.11024 9.32395 8.11714 9.2998 8.1065C9.28811 8.10084 9.26995 8.04642 9.25879 8.04205C9.23259 8.03238 9.21315 8.03835 9.20215 8.0567C9.19779 8.06479 9.24056 8.11706 9.23242 8.1231C9.17468 8.16328 9.12023 8.2077 9.01562 8.16607C9.00804 8.16244 8.93749 8.04536 8.94141 8.0733C8.95942 8.1069 8.9813 8.14602 9.00098 8.1817C8.92291 8.25063 8.81137 8.25914 8.71875 8.30279C8.71822 8.30863 8.75709 8.36445 8.75 8.36822C8.70749 8.39098 8.67606 8.43143 8.59766 8.39263C8.58933 8.38759 8.52944 8.27604 8.52637 8.29986C8.52563 8.30468 8.51581 8.32987 8.52441 8.3565C8.5258 8.36053 8.55799 8.41111 8.55273 8.41607C8.5217 8.44369 8.47794 8.45234 8.4248 8.44048C8.41616 8.43816 8.3915 8.38101 8.38477 8.37798C8.33929 8.36478 8.33135 8.42456 8.27539 8.3897C8.23786 8.36616 8.19076 8.26661 8.12793 8.17779C8.11905 8.16525 8.10669 8.16892 8.0752 8.11431C7.99597 7.97702 7.91615 7.82278 7.83105 7.67681C7.81274 7.64539 7.81626 7.68824 7.78223 7.6065C7.77998 7.60082 7.77646 7.56946 7.76465 7.54205C7.75644 7.523 7.72195 7.46862 7.71289 7.44341C7.70405 7.41861 7.73433 7.46229 7.72559 7.4317C7.71637 7.40054 7.67796 7.33898 7.68652 7.32427C7.70683 7.29043 7.75695 7.28673 7.80078 7.29498C7.81422 7.29801 7.82865 7.334 7.83887 7.33795C7.85901 7.34432 7.86144 7.32122 7.88281 7.33013C7.89 7.33329 7.91587 7.39012 7.92285 7.39263C7.96004 7.40351 7.97458 7.37711 8.00488 7.37505C8.15555 7.36608 8.28416 7.3217 8.41797 7.27935C8.4621 7.26552 8.53794 7.28785 8.56641 7.24322C8.56888 7.23722 8.54048 7.19353 8.53809 7.18755C8.51812 7.11883 8.56838 7.21779 8.58496 7.22564C8.6504 7.25592 8.69377 7.23771 8.71875 7.19927C8.72929 7.18274 8.66067 7.09551 8.70605 7.14068C8.70978 7.14523 8.73412 7.19717 8.74121 7.20025C8.75727 7.20694 8.76982 7.18784 8.7793 7.18755C8.79771 7.18775 8.80015 7.18649 8.81348 7.17974C8.83225 7.17081 8.86791 7.18357 8.88086 7.16119C8.88353 7.15623 8.84899 7.10645 8.85059 7.0938C8.85263 7.0816 8.87207 7.07632 8.88477 7.08502C8.89754 7.094 8.91829 7.1363 8.9248 7.14556C8.978 7.22012 8.93684 7.10007 8.9375 7.09478C8.95879 7.02166 9.03457 7.06115 9.0791 7.03619C9.11281 7.01687 9.13806 6.97529 9.17187 6.96002C9.21216 6.94233 9.26053 6.95252 9.29492 6.92681C9.2986 6.92414 9.25925 6.86477 9.26367 6.86138C9.31065 6.82554 9.3653 6.80349 9.43945 6.81646C9.44693 6.81782 9.47118 6.87632 9.48047 6.88091C9.53678 6.90801 9.64608 6.98596 9.53223 6.74029C9.5584 6.7376 9.58949 6.73305 9.63477 6.76959C9.66415 6.79331 9.68571 6.85884 9.68652 6.82525C9.68558 6.81649 9.65325 6.76946 9.65527 6.76177C9.66592 6.73098 9.69884 6.73447 9.70508 6.69634C9.70625 6.68838 9.67925 6.64189 9.67578 6.63287C9.64872 6.56113 9.72552 6.65984 9.73535 6.66802C9.79732 6.71241 9.80519 6.67756 9.83203 6.66412C9.83834 6.66105 9.79694 6.60289 9.80176 6.59771C9.82712 6.57185 9.86117 6.55971 9.90625 6.57037C9.91642 6.57292 9.94088 6.62894 9.94727 6.63287C9.97447 6.64878 9.92178 6.54755 9.94727 6.56158C9.95249 6.56439 9.9755 6.6092 9.97949 6.61529C10.0302 6.68706 9.97949 6.58011 9.97754 6.57134C9.98496 6.52343 10.0653 6.62772 10.082 6.59869C10.0839 6.59491 10.0457 6.5415 10.0527 6.53423C10.1006 6.48651 10.1691 6.46833 10.251 6.48248C10.2636 6.4846 10.2814 6.53059 10.2852 6.53619C10.3397 6.61265 10.2868 6.50385 10.2852 6.4942C10.2907 6.45142 10.3637 6.5324 10.3047 6.39166C10.4257 6.38405 10.4788 6.2562 10.6396 6.32134C10.6416 6.32204 10.671 6.3778 10.6748 6.37896C10.7206 6.39321 10.6673 6.31188 10.6279 6.19732C10.618 6.16847 10.7035 6.28552 10.71 6.294C10.7334 6.32478 10.7729 6.40687 10.7793 6.41509C10.8212 6.45919 10.6695 6.1938 10.6855 6.1817C10.6875 6.18425 10.7109 6.23062 10.7158 6.23638C10.7291 6.24923 10.7234 6.22707 10.7373 6.24127C10.7698 6.27495 10.8472 6.40395 10.8203 6.31939C10.8167 6.30838 10.7273 6.15696 10.7471 6.15533C10.755 6.1548 10.7816 6.13711 10.7949 6.14263C10.8083 6.14888 10.8303 6.2004 10.832 6.2022C10.8895 6.25549 10.8972 6.28656 10.9619 6.37701C11.0263 6.46695 10.8954 6.24087 10.8848 6.21197C10.8747 6.18409 10.9202 6.22857 10.9346 6.24517C10.9488 6.26173 10.9614 6.29603 10.9707 6.30474C11.0316 6.36115 10.9171 6.18679 10.9033 6.14556C10.8722 6.04974 10.9817 6.21203 11.0068 6.21978C11.0119 6.21987 10.9875 6.18438 10.9893 6.17877C10.9966 6.15665 11.0355 6.20451 11.0254 6.14654C11.0237 6.13705 10.9803 6.02727 11.0312 6.09673C11.0386 6.10683 11.0595 6.15141 11.0713 6.15728C11.0888 6.16594 11.1109 6.16531 11.1133 6.14556C11.115 6.13083 11.0674 6.06618 11.0889 6.08209C11.0985 6.08931 11.1137 6.13391 11.1299 6.14459C11.1462 6.15487 11.1659 6.14157 11.1729 6.1358C11.1784 6.12896 11.1472 6.0819 11.1445 6.07623C11.1368 6.05367 11.1373 6.01929 11.1387 6.01861C11.2013 5.97525 11.3125 6.02962 11.3604 5.96392C11.3629 5.95739 11.3288 5.9047 11.3291 5.90337C11.3338 5.872 11.4035 6.02644 11.4434 6.06939C11.3781 5.95738 11.3971 5.97343 11.4023 5.95416C11.4038 5.94412 11.3778 5.90445 11.375 5.89849C11.3463 5.82703 11.4006 5.90903 11.4121 5.92584C11.4542 5.98717 11.4175 5.90797 11.4453 5.9483C11.4734 5.98904 11.5005 6.05823 11.5117 6.05084C11.4922 6.00845 11.4236 5.90699 11.4229 5.88482C11.4202 5.80151 11.5298 5.84935 11.5615 5.84283C11.5929 5.83631 11.5973 5.82436 11.6211 5.83013C11.6643 5.84069 11.6101 5.76761 11.6074 5.72173C11.6048 5.6759 11.7044 5.87363 11.7305 5.91412C11.7562 5.95405 11.7355 5.91048 11.751 5.93072C11.7667 5.95155 11.7762 5.98321 11.7881 5.98834C11.8002 5.99282 11.7787 5.90828 11.7568 5.86334C11.7105 5.76828 11.6475 5.67639 11.6855 5.69927C11.6878 5.70066 11.7125 5.75384 11.7197 5.75689C11.7754 5.77714 11.8122 5.7597 11.8652 5.77545C11.873 5.77926 11.8997 5.83682 11.9043 5.83892C11.9526 5.85937 11.889 5.76894 11.8447 5.65435C11.9206 5.79731 11.9783 5.87933 12 5.86822C12.0124 5.86103 11.9761 5.80073 11.96 5.75298C11.9551 5.73855 11.987 5.77553 11.9727 5.74615C11.9249 5.64865 11.8573 5.54701 11.9023 5.57623C11.9044 5.57767 11.93 5.63017 11.9355 5.63287C11.9685 5.64134 11.9153 5.54077 11.9316 5.51568C11.9445 5.49614 12.0106 5.53856 12.0371 5.53716C12.1257 5.6957 12.1248 5.64796 12.0713 5.53423C12.0872 5.53117 12.0988 5.51682 12.1201 5.52447C12.1274 5.52709 12.1507 5.57398 12.1543 5.57916C12.2066 5.65191 12.1521 5.5435 12.1523 5.53716C12.161 5.47896 12.2321 5.54492 12.2178 5.44927C12.2152 5.44218 12.1586 5.33665 12.2109 5.41119C12.2151 5.41842 12.2331 5.4718 12.249 5.46783C12.2657 5.46431 12.3245 5.50709 12.3154 5.44537C12.3127 5.42923 12.2757 5.33556 12.3242 5.39947C12.331 5.40865 12.3468 5.44074 12.3584 5.45709C12.3958 5.50965 12.3375 5.39615 12.3975 5.48638C12.4577 5.57699 12.5121 5.63989 12.4951 5.56353C12.4938 5.55952 12.4501 5.47088 12.457 5.4688C12.4684 5.46586 12.492 5.47513 12.502 5.4688C12.5059 5.46509 12.4763 5.41794 12.4736 5.41216C12.4897 5.36282 12.5403 5.39724 12.5879 5.39849C12.5967 5.39881 12.5742 5.31433 12.6201 5.36627C12.6707 5.42417 12.8068 5.69908 12.8027 5.61724C12.8 5.58226 12.6259 5.23531 12.748 5.39849C12.7684 5.3294 12.8612 5.39558 12.8711 5.30767C12.8694 5.29956 12.8247 5.20551 12.8301 5.20416C12.8386 5.20302 12.8674 5.24411 12.874 5.2442C12.9023 5.24536 12.9005 5.19732 12.9238 5.19146C12.9327 5.18927 12.956 5.23643 12.9668 5.23443C12.9774 5.23177 12.9499 5.16772 12.9785 5.18951C13.0005 5.2065 13.0799 5.32568 13.1006 5.33306C13.0324 5.21064 13.0419 5.20788 13.0391 5.16705C13.0385 5.15918 13.0125 5.11867 13.0107 5.11236C13.0041 5.08728 13.0285 5.11953 13.0205 5.09283C13.0186 5.08642 12.9954 5.04538 12.9922 5.03716C12.9667 4.97059 13.0351 5.05547 13.0469 5.07037C13.0915 5.12667 13.0658 5.07009 13.0869 5.0899C13.1081 5.11001 13.1138 5.14726 13.1309 5.15728C13.1664 5.17764 13.1864 5.15802 13.2061 5.14947C13.2138 5.1458 13.1774 5.09269 13.1777 5.09087C13.1851 5.06816 13.2336 5.11869 13.1797 5.00298ZM8.14844 8.12701C8.17897 8.19154 8.19797 8.18758 8.1582 8.12505C8.15662 8.12257 8.1475 8.12438 8.14844 8.12701ZM10.625 6.39263C10.6722 6.49956 10.7165 6.48931 10.6484 6.38775C10.645 6.38261 10.6239 6.38733 10.625 6.39263ZM11.0605 6.32916C11.0907 6.38178 11.0907 6.36196 11.0605 6.31451C11.0587 6.31172 11.0512 6.31281 11.0605 6.32916ZM11.5605 5.99517C11.591 6.05973 11.6101 6.05584 11.5703 5.99322C11.5685 5.99109 11.5602 5.99272 11.5605 5.99517ZM12.9229 5.50103C12.861 5.42228 12.9229 5.55494 12.9697 5.61627C13.016 5.67657 12.9416 5.52503 12.9229 5.50103ZM13.123 5.2149C13.0974 5.18081 13.1077 5.23143 13.1396 5.27447C13.1656 5.30926 13.1553 5.25815 13.123 5.2149ZM13.2158 4.87798C13.2252 4.87885 13.2425 4.95875 13.2627 4.97466C13.2996 5.0034 13.2296 4.85394 13.2891 4.92193C13.3001 4.93572 13.3536 5.0728 13.3545 5.08111C13.3143 5.08999 13.1647 4.87399 13.2158 4.87798Z" fill="#555961"/>
<path d="M7.93457 13.9648C7.99283 13.9351 8.18997 13.9222 8.16406 13.959C8.15726 13.9659 8.08008 13.9425 8.05664 13.9521C8.01397 13.9698 8.17816 13.9819 8.08984 14C8.07188 14.0029 7.91805 13.9807 7.91895 13.9785L7.93457 13.9648ZM8.51465 8.0195C8.53534 8.02163 8.5996 8.01806 8.62598 8.02243C8.65169 8.02679 8.59897 8.03181 8.62988 8.03903C8.66159 8.04612 8.7336 8.0432 8.74219 8.05759C8.76146 8.09118 8.74051 8.13454 8.71191 8.16794C8.70314 8.1783 8.66492 8.17382 8.65625 8.18064C8.6409 8.19471 8.6594 8.20775 8.6416 8.22165C8.63544 8.22619 8.57485 8.22124 8.56738 8.22556C8.53961 8.25217 8.55522 8.27771 8.54199 8.30466C8.476 8.43762 8.45249 8.56851 8.42383 8.7031C8.41442 8.74751 8.35688 8.80176 8.38184 8.84763C8.38475 8.85288 8.4379 8.84972 8.44434 8.85056C8.51408 8.86654 8.40252 8.86161 8.3877 8.87204C8.32947 8.91335 8.32452 8.95924 8.3457 8.999C8.35493 9.01594 8.46461 8.99957 8.40332 9.01657C8.39919 9.01775 8.34095 9.01306 8.33398 9.01755C8.31999 9.02803 8.33062 9.04835 8.32617 9.05661C8.31691 9.07236 8.31708 9.07492 8.31641 9.08982C8.31498 9.11014 8.28573 9.13441 8.29883 9.15622C8.30181 9.16084 8.36089 9.15501 8.37207 9.16208C8.38229 9.16953 8.37747 9.18962 8.36328 9.19626C8.34881 9.20276 8.3018 9.19997 8.29102 9.20114C8.20144 9.21064 8.32161 9.23271 8.3291 9.2363C8.38247 9.28972 8.31043 9.33558 8.31055 9.38571C8.31086 9.4238 8.3353 9.46471 8.33203 9.50095C8.32788 9.5441 8.29518 9.58109 8.30078 9.62302C8.30505 9.62676 8.37106 9.62191 8.37305 9.62693C8.38128 9.68437 8.37296 9.7416 8.3252 9.7988C8.31998 9.80438 8.2592 9.79722 8.25 9.80271C8.19895 9.83779 8.07627 9.89319 8.34668 9.91403C8.33612 9.9378 8.32502 9.96699 8.27051 9.98825C8.23538 10.0019 8.16843 9.98901 8.19727 10.0058C8.20558 10.0092 8.26127 10.0045 8.26758 10.0097C8.28927 10.0337 8.27016 10.0602 8.30078 10.084C8.30719 10.0888 8.36056 10.0875 8.37012 10.0888C8.44682 10.1003 8.31886 10.1198 8.30957 10.124C8.24087 10.1556 8.26813 10.1786 8.2666 10.208C8.26618 10.2148 8.33671 10.2072 8.33887 10.2138C8.349 10.248 8.34295 10.2829 8.31152 10.3164C8.30434 10.3238 8.24421 10.3178 8.2373 10.3213C8.20914 10.337 8.32362 10.3404 8.29883 10.3554C8.29325 10.3585 8.24303 10.3569 8.23633 10.3574C8.14666 10.3665 8.27356 10.3746 8.27637 10.3769C8.3139 10.4063 8.18276 10.4247 8.20117 10.4531C8.20355 10.4565 8.26882 10.4494 8.27148 10.459C8.2896 10.5228 8.27136 10.5901 8.21875 10.6533C8.21065 10.6631 8.16137 10.6566 8.15527 10.6572C8.06145 10.6672 8.18495 10.6735 8.19238 10.6767C8.22697 10.702 8.12049 10.7259 8.27246 10.7431C8.21976 10.8503 8.30508 10.9572 8.16895 11.0634C8.16726 11.0648 8.1068 11.062 8.10156 11.0644C8.06628 11.0969 8.16376 11.0908 8.2832 11.1123C8.313 11.1177 8.16877 11.1343 8.1582 11.1357C8.11929 11.141 8.02667 11.136 8.01855 11.1377C7.95973 11.1523 8.26421 11.1495 8.26855 11.1689C8.26804 11.1695 8.21074 11.1673 8.20508 11.1689C8.18767 11.1741 8.20995 11.1795 8.19043 11.1845C8.14496 11.1961 7.99563 11.2002 8.08203 11.2177C8.09338 11.22 8.26903 11.2166 8.26074 11.2343C8.25735 11.2415 8.2603 11.2725 8.24902 11.2812C8.23767 11.29 8.18116 11.2845 8.17871 11.2851C8.1042 11.3086 8.07311 11.2998 7.96289 11.3115C7.85267 11.3233 8.11519 11.3194 8.14453 11.3242C8.1736 11.329 8.11248 11.3462 8.09082 11.3506C8.06959 11.3548 8.03396 11.3499 8.02148 11.3535C7.9422 11.3785 8.15164 11.3648 8.19336 11.373C8.29162 11.3924 8.09853 11.4071 8.07813 11.4248C8.07299 11.4296 8.11657 11.4264 8.12109 11.4306C8.13691 11.4476 8.07691 11.4573 8.13184 11.4765C8.14091 11.4797 8.25832 11.4957 8.17285 11.5058C8.16045 11.5073 8.11147 11.5035 8.10059 11.5107C8.08438 11.5216 8.07368 11.5411 8.08984 11.5527C8.10222 11.5611 8.18149 11.5508 8.15723 11.5615C8.14612 11.5663 8.09899 11.5574 8.08203 11.5664C8.06513 11.5754 8.06772 11.5987 8.06934 11.6074C8.07147 11.616 8.13167 11.6116 8.13574 11.6123C8.15912 11.6166 8.18855 11.6333 8.18848 11.6347C8.19558 11.7091 8.09312 11.7781 8.12695 11.8506C8.13067 11.8558 8.18883 11.852 8.19434 11.8525C8.22116 11.872 8.05113 11.8575 7.99414 11.8711C8.12408 11.8691 8.10098 11.8769 8.11523 11.8906C8.12286 11.897 8.17263 11.8939 8.17773 11.8945C8.25347 11.9043 8.15493 11.9103 8.13477 11.9121C8.06069 11.9186 8.14826 11.9262 8.09863 11.9306C8.05 11.935 7.97849 11.9251 7.97754 11.9375C8.02416 11.9411 8.14536 11.9324 8.16504 11.9424C8.23904 11.9799 8.14531 12.0495 8.13477 12.08C8.1249 12.1102 8.13282 12.1201 8.11621 12.1377C8.08582 12.1695 8.17649 12.1579 8.21777 12.1777C8.25776 12.1973 8.03737 12.1886 7.98926 12.1914C7.94158 12.1942 7.99008 12.1967 7.96387 12.2002C7.93778 12.2035 7.90541 12.196 7.89551 12.2041C7.88568 12.2122 7.97062 12.2353 8.02051 12.2383C8.12618 12.2444 8.23721 12.2342 8.19824 12.2558C8.19525 12.257 8.1377 12.2531 8.13184 12.2578C8.08694 12.2956 8.08366 12.3343 8.04395 12.372C8.03839 12.3772 7.97369 12.3729 7.96973 12.3759C7.92835 12.4074 8.03769 12.3958 8.15918 12.4131C7.99744 12.4092 7.89842 12.4195 7.89746 12.4433C7.89818 12.4572 7.96825 12.4546 8.01758 12.4638C8.0321 12.4667 7.98446 12.4767 8.01758 12.4785C8.12591 12.4845 8.2469 12.4755 8.19922 12.5C8.19697 12.501 8.13978 12.4976 8.13379 12.5009C8.11022 12.5251 8.22354 12.5286 8.2373 12.5547C8.24777 12.5751 8.17922 12.6115 8.16797 12.6347C8.16645 12.6347 8.16458 12.6347 8.16309 12.6347C8.23434 12.6447 8.24269 12.657 8.15332 12.665H8.15234C8.14733 12.68 8.15469 12.6964 8.1377 12.7109C8.13181 12.7159 8.07928 12.7132 8.07324 12.7138C7.98397 12.7236 8.10557 12.7301 8.11035 12.7334C8.1568 12.7687 8.0649 12.7973 8.15527 12.831C8.16219 12.8322 8.2832 12.8339 8.19238 12.8427C8.18594 12.8433 8.12847 12.8328 8.12402 12.8486C8.11869 12.8645 8.05247 12.8941 8.11035 12.916C8.12442 12.9213 8.22668 12.9345 8.14746 12.9453C8.13665 12.9467 8.10032 12.9452 8.08008 12.9472C8.01592 12.954 8.14278 12.9579 8.03516 12.9658C7.92666 12.9737 7.84506 12.9904 7.91992 13.0127C7.92491 13.0135 8.02186 13.0185 8.02148 13.0254C8.01884 13.0365 7.99739 13.0528 7.99805 13.0644C7.99951 13.0696 8.05752 13.0667 8.0625 13.0674C8.09772 13.1048 8.0419 13.1317 8.01758 13.1718C8.01608 13.1795 8.09744 13.1998 8.03125 13.2138C7.95708 13.2295 7.64835 13.214 7.72168 13.25C7.75109 13.2645 8.1423 13.2825 7.93945 13.3086C7.98972 13.3591 7.88624 13.4063 7.95801 13.457C7.96135 13.4593 8.07025 13.4663 8.06934 13.4717C8.06699 13.4794 8.01855 13.4838 8.0127 13.4892C7.99731 13.513 8.04098 13.5356 8.03418 13.5586C8.03114 13.5671 7.9789 13.564 7.97559 13.5742C7.97269 13.5846 8.04172 13.5914 8.00879 13.6054C7.98319 13.6161 7.84079 13.6275 7.82422 13.6416C7.96441 13.6421 7.96202 13.6517 7.99902 13.6689C8.00766 13.6719 8.05475 13.6684 8.06055 13.6699C8.08551 13.6762 8.0454 13.6824 8.07227 13.6884C8.07877 13.6899 8.12592 13.6902 8.13477 13.6914C8.20527 13.7016 8.09785 13.7178 8.0791 13.7207C8.00792 13.7318 8.07003 13.7376 8.04199 13.7461C8.01399 13.7544 7.97888 13.742 7.96191 13.7519C7.92716 13.7724 7.93475 13.7985 7.93262 13.8193C7.93204 13.8275 7.99414 13.8222 7.99707 13.8232C8.01326 13.8404 7.94555 13.8576 8.07227 13.8672C7.74449 13.8791 8.10294 13.8778 8.03906 13.9023C8.03373 13.9043 7.87734 13.9068 7.85449 13.8994C7.83263 13.8919 7.88014 13.8804 7.84473 13.8701C7.83291 13.8674 7.69036 13.8544 7.68164 13.8525C7.61345 13.8376 7.84564 13.8347 7.8584 13.834C7.99615 13.825 7.83898 13.8082 7.82813 13.8037C7.77839 13.783 7.8109 13.7653 7.77539 13.748C7.75172 13.7368 7.60082 13.7354 7.60547 13.7265C7.62225 13.6973 7.83206 13.6869 7.64844 13.6592C7.60871 13.6532 7.44353 13.659 7.57422 13.6377C7.58539 13.6359 7.70068 13.6203 7.62598 13.6113C7.61619 13.6102 7.56754 13.6099 7.56348 13.6084C7.53812 13.5983 7.57574 13.592 7.55762 13.581C7.5391 13.5699 7.51186 13.5566 7.52832 13.5439C7.53832 13.5363 7.62824 13.5261 7.65039 13.5224C7.71406 13.5121 7.60999 13.5015 7.68652 13.4951C7.76414 13.4887 7.88247 13.5012 7.93262 13.4843C7.80652 13.4837 7.67661 13.4824 7.5498 13.4814C7.55424 13.4444 7.59541 13.4072 7.58984 13.3701C7.58653 13.3659 7.52113 13.37 7.51855 13.3652C7.50852 13.3445 7.55624 13.3261 7.53711 13.3047C7.52176 13.288 7.44976 13.2703 7.43164 13.2529C7.5753 13.2423 7.52744 13.2161 7.54004 13.1972C7.54455 13.1907 7.58276 13.191 7.5957 13.1865C7.64212 13.1688 7.51552 13.1766 7.49512 13.1718C7.40949 13.151 7.69745 13.1495 7.69043 13.125C7.68286 13.123 7.53856 13.1077 7.52734 13.1054C7.46532 13.0916 7.57905 13.1031 7.5918 13.0947C7.61257 13.0788 7.64955 13.0675 7.60449 13.0488C7.59115 13.0434 7.49521 13.0301 7.56934 13.0195C7.57887 13.0181 7.62818 13.0196 7.63281 13.0185C7.68245 12.9983 7.52286 12.9969 7.46875 12.9853C7.41477 12.9738 7.52475 12.9568 7.55664 12.9531C7.63805 12.9437 7.59269 12.9601 7.59961 12.9609C7.69564 12.967 7.67939 12.9533 7.6875 12.9433C7.84415 12.9419 7.83477 12.9285 7.69531 12.9336C7.68011 12.9341 7.69454 12.9413 7.6875 12.9433C7.53381 12.9346 7.51457 12.9192 7.6582 12.9023C7.72542 12.8945 7.80306 12.9019 7.77441 12.8779C7.75996 12.8674 7.65483 12.8716 7.625 12.8623C7.55837 12.8404 7.65673 12.8116 7.64258 12.789C7.63685 12.7808 7.57776 12.7886 7.57129 12.7832C7.55527 12.7682 7.59984 12.7542 7.57715 12.7392C7.57394 12.738 7.51703 12.7413 7.5127 12.7373C7.50552 12.7019 7.5448 12.6707 7.5459 12.6338C7.54616 12.6159 7.5127 12.5838 7.51953 12.5654C7.53174 12.5335 7.62036 12.494 7.59863 12.4668C7.58433 12.4492 7.52242 12.4529 7.48047 12.4453C7.39957 12.4305 7.54574 12.4048 7.56836 12.4013C7.57081 12.403 7.58563 12.4158 7.61523 12.4082C7.67902 12.4036 7.57507 12.4016 7.56836 12.4013C7.58283 12.3987 7.59645 12.3685 7.58496 12.3623C7.5786 12.359 7.52144 12.3609 7.51758 12.3593C7.46519 12.3184 7.45022 12.2769 7.47754 12.2353C7.47868 12.2346 7.53959 12.2358 7.5459 12.2343C7.57503 12.2103 7.49485 12.1946 7.44727 12.1748C7.40015 12.155 7.4163 12.1386 7.52832 12.1269C7.51517 12.112 7.56477 12.0904 7.59473 12.0781C7.62298 12.0659 7.49665 12.0645 7.49414 12.0634C7.41376 12.0296 7.48666 12.0097 7.49805 11.9746C7.50366 11.9579 7.48562 11.9243 7.47168 11.9062C7.46044 11.8919 7.48981 11.8833 7.4707 11.8701C7.46644 11.8685 7.41133 11.8706 7.40918 11.8701C7.34142 11.8554 7.47985 11.8624 7.50488 11.8593C7.59504 11.8483 7.643 11.8411 7.60059 11.8222C7.58892 11.8179 7.39552 11.8057 7.37988 11.7978C7.36506 11.7875 7.43625 11.791 7.41895 11.7802C7.41753 11.7793 7.37305 11.7791 7.375 11.7724C7.38357 11.7416 7.40968 11.7078 7.40527 11.6758C7.40293 11.6717 7.33477 11.6771 7.33301 11.6709C7.32475 11.6412 7.32696 11.6089 7.35938 11.58C7.36767 11.5729 7.41702 11.5767 7.43164 11.5752C7.51983 11.5657 7.39209 11.552 7.38965 11.5498C7.32817 11.4967 7.44378 11.4564 7.38867 11.4023C7.38544 11.3994 7.24832 11.3773 7.36523 11.3672C7.37306 11.3665 7.49353 11.3565 7.41211 11.3476C7.40695 11.3471 7.34426 11.3527 7.35059 11.3418C7.35672 11.3309 7.31584 11.3137 7.38379 11.2988C7.40527 11.2941 7.52553 11.2827 7.42969 11.2685C7.42282 11.2676 7.20671 11.246 7.35547 11.2383C7.38003 11.237 7.53788 11.2384 7.45801 11.2217C7.44237 11.2184 7.40683 11.2241 7.38477 11.2158C7.3508 11.2028 7.39275 11.1849 7.32227 11.1689C7.309 11.1661 7.20303 11.155 7.28418 11.1455C7.29699 11.144 7.34882 11.1464 7.35547 11.1416C7.38374 11.1177 7.34877 11.0925 7.38477 11.0683C7.39757 11.0598 7.48264 11.0635 7.50586 11.0547C7.52874 11.0457 7.55074 11.0279 7.51172 11.0185C7.47251 11.0094 7.3388 11.0194 7.32617 11.0058C7.27898 10.9449 7.35815 10.8841 7.37012 10.8232C7.37186 10.8142 7.32319 10.8209 7.32227 10.8076C7.31846 10.7584 7.27371 10.6734 7.37695 10.6308C7.45961 10.597 7.52297 10.6403 7.55664 10.6142C7.57203 10.6017 7.41554 10.5881 7.40918 10.5849C7.35866 10.5553 7.42838 10.5345 7.40723 10.5078C7.40287 10.5024 7.34161 10.5071 7.33594 10.5029C7.32482 10.4868 7.35289 10.4694 7.34766 10.4541C7.34348 10.4476 7.2961 10.4486 7.2998 10.4424C7.3083 10.4272 7.32921 10.4141 7.375 10.3994C7.37918 10.398 7.44012 10.4067 7.44238 10.3955C7.44627 10.3774 7.49087 10.3547 7.44434 10.334C7.42954 10.3278 7.31891 10.3277 7.39551 10.3144C7.41166 10.3116 7.54584 10.3153 7.42969 10.2998C7.40854 10.2968 7.25523 10.2715 7.35547 10.2588C7.38231 10.2554 7.4904 10.2466 7.47461 10.2392C7.47185 10.2382 7.41114 10.2415 7.40527 10.2353C7.38619 10.2138 7.39249 10.191 7.37402 10.1689C7.36892 10.163 7.30739 10.1716 7.30078 10.1631C7.28505 10.1386 7.30084 10.1079 7.32031 10.084C7.32772 10.0752 7.37916 10.0817 7.38477 10.081C7.47568 10.0707 7.35338 10.0639 7.3457 10.0605C7.30272 10.0392 7.35999 10.0235 7.34473 10.0039C7.34072 9.99854 7.28404 10.0019 7.27734 10.0009C7.22654 9.98984 7.32995 9.998 7.34277 9.99118C7.37569 9.97135 7.37078 9.94874 7.36328 9.92868C7.35805 9.92205 7.29275 9.92931 7.29102 9.92282C7.27947 9.88389 7.28603 9.84363 7.32324 9.80564C7.33037 9.79851 7.38195 9.80213 7.39453 9.80075C7.47811 9.79045 7.36486 9.77596 7.35352 9.77243C7.30408 9.75668 7.34983 9.75013 7.3418 9.7363C7.29871 9.66797 7.32869 9.58303 7.34766 9.51853C7.3721 9.4346 7.42212 9.36911 7.40918 9.28903C7.40433 9.28483 7.34214 9.28889 7.33789 9.28513C7.32112 9.22858 7.34798 9.17284 7.32813 9.11618C7.32661 9.11156 7.2615 9.11751 7.25586 9.11032C7.2458 9.09498 7.2494 9.07604 7.27051 9.06052C7.28102 9.05312 7.33666 9.06225 7.3457 9.05466C7.36696 9.03692 7.37192 9.01819 7.36133 8.99997C7.35608 8.99248 7.28938 9.00393 7.28809 8.99411C7.28138 8.92546 7.26985 8.85744 7.35742 8.78806C7.36475 8.78333 7.50083 8.77956 7.47461 8.7695C7.43647 8.76874 7.39134 8.76886 7.35059 8.76853C7.32865 8.66872 7.37632 8.56979 7.38379 8.4697C7.38408 8.46547 7.31132 8.47202 7.31152 8.46384C7.31249 8.41661 7.29303 8.37055 7.36523 8.32224C7.37542 8.31769 7.49958 8.31961 7.48047 8.30564C7.4764 8.30235 7.45959 8.28181 7.43262 8.27634C7.42842 8.27559 7.36795 8.27931 7.36621 8.27243C7.35736 8.23273 7.37103 8.19097 7.40723 8.15134C7.41322 8.14493 7.47718 8.15192 7.48242 8.14743C7.51623 8.11492 7.46757 8.07889 7.52539 8.04782C7.56442 8.02711 7.67496 8.03543 7.7832 8.02439C7.7981 8.02263 7.80101 8.00944 7.86328 8.00876C8.02172 8.00705 8.19538 8.01326 8.36426 8.01071C8.40058 8.01017 8.3619 7.99281 8.44922 8.0029C8.4551 8.00361 8.48481 8.01642 8.51465 8.0195ZM7.85547 13.7021C7.81253 13.7076 7.86167 13.7234 7.91504 13.7168C7.95801 13.7113 7.9089 13.6954 7.85547 13.7021ZM7.6416 13.3935C7.56549 13.4041 7.73466 13.4127 7.76465 13.4082C7.86359 13.3932 7.71801 13.383 7.6416 13.3935ZM8.00098 12.0068C7.93018 12.0019 7.92509 12.0205 7.99902 12.0166C8.00187 12.0158 8.00382 12.007 8.00098 12.0068ZM7.95605 11.4189C7.8952 11.4194 7.91253 11.4288 7.96875 11.4258C7.97202 11.4254 7.9746 11.4188 7.95605 11.4189ZM8.11328 11.0156C7.99722 11.0046 7.98523 11.0475 8.10742 11.0381C8.11367 11.0371 8.11904 11.0163 8.11328 11.0156ZM7.81641 8.0654C7.74529 8.0605 7.73954 8.07909 7.81348 8.07517C7.81646 8.07501 7.81936 8.06562 7.81641 8.0654Z" fill="#555961"/>
<path d="M3.19792 4.80954C3.19506 4.8174 3.14976 4.92946 3.19499 4.86813C3.20069 4.86038 3.22484 4.81819 3.22819 4.8154C3.25014 4.79752 3.23758 4.83478 3.25651 4.82419C3.27527 4.81366 3.29991 4.79649 3.30339 4.81637C3.30532 4.82869 3.27025 4.91185 3.26237 4.93356C3.24028 4.99426 3.30125 4.9092 3.26921 4.97946C3.23688 5.05033 3.16746 5.14704 3.15788 5.19919C3.22025 5.0896 3.28524 4.97718 3.34831 4.86716C3.37902 4.88952 3.39168 4.94329 3.42741 4.957C3.43192 4.95847 3.46066 4.89768 3.46647 4.89743C3.49025 4.89845 3.48277 4.94931 3.51139 4.94333C3.53372 4.93836 3.58566 4.88589 3.61003 4.87887C3.54885 5.00984 3.59584 4.98004 3.60612 5.00094C3.60917 5.00873 3.58955 5.0415 3.58757 5.05466C3.5805 5.10403 3.63591 4.98866 3.65007 4.9736C3.71053 4.90941 3.57104 5.16188 3.59635 5.16794C3.60107 5.16339 3.6875 5.04223 3.69401 5.03512C3.73672 4.988 3.66939 5.08338 3.67155 5.09762C3.67532 5.12361 3.66752 5.16031 3.70573 5.13083C3.71711 5.12191 3.77567 5.04528 3.7487 5.1152C3.74454 5.12525 3.72038 5.16694 3.7194 5.17087C3.71306 5.22425 3.79197 5.08529 3.82878 5.04391C3.86543 5.00282 3.82745 5.10816 3.8151 5.13766C3.7835 5.21339 3.79109 5.1645 3.78678 5.17087C3.73457 5.25117 3.75348 5.24401 3.75846 5.25583C3.68307 5.39289 3.70046 5.39157 3.76432 5.26755C3.77102 5.25432 3.75689 5.26285 3.75846 5.25583C3.84149 5.12638 3.86538 5.1168 3.81022 5.24997C3.78425 5.31259 3.73866 5.37722 3.77409 5.36423C3.79005 5.35841 3.83885 5.26367 3.86198 5.24216C3.91427 5.19481 3.89107 5.29579 3.91862 5.29391C3.9287 5.29302 3.95062 5.23829 3.95866 5.23532C3.97965 5.22886 3.96993 5.2732 3.99382 5.26169C3.99601 5.26054 4.02255 5.20699 4.02799 5.20602C4.06281 5.2174 4.07119 5.26754 4.10319 5.28708C4.11879 5.29643 4.16435 5.28261 4.17741 5.29782C4.20021 5.32386 4.19123 5.42232 4.22624 5.41696C4.2489 5.41341 4.27602 5.35699 4.30339 5.32419C4.35586 5.26161 4.30745 5.40134 4.29948 5.42282C4.29833 5.42371 4.27834 5.42924 4.27018 5.45993C4.24222 5.51946 4.29829 5.4245 4.29948 5.42282C4.29438 5.43667 4.31462 5.46398 4.32585 5.457C4.33188 5.45307 4.35882 5.4026 4.36198 5.40036C4.4239 5.37525 4.4673 5.38246 4.49089 5.42673C4.49095 5.42809 4.45956 5.48242 4.45866 5.48727C4.46577 5.5247 4.51925 5.46316 4.56022 5.43161C4.60117 5.40009 4.60687 5.42147 4.56217 5.52536C4.58243 5.5205 4.5777 5.57491 4.57389 5.60739C4.57042 5.63912 4.6342 5.52896 4.63639 5.52731C4.70564 5.47453 4.68787 5.54771 4.71354 5.57516C4.72586 5.58824 4.76395 5.58899 4.78678 5.58591C4.80496 5.58332 4.79798 5.61347 4.81901 5.60348C4.82185 5.60215 4.84769 5.55149 4.84928 5.54977C4.89556 5.49806 4.82192 5.6151 4.81217 5.63864C4.77793 5.72234 4.76065 5.76792 4.79753 5.74118C4.80609 5.73493 4.91437 5.56892 4.92839 5.56051C4.94477 5.55277 4.90677 5.61277 4.92448 5.60348C4.926 5.60271 4.94783 5.56427 4.9528 5.5693C4.97599 5.59218 4.99348 5.63137 5.02409 5.64352C5.02859 5.64423 5.05767 5.58137 5.06413 5.58298C5.09459 5.59064 5.12184 5.60929 5.13151 5.65231C5.13352 5.66329 5.10608 5.70327 5.10026 5.71676C5.06591 5.79738 5.13838 5.69584 5.14323 5.69235C5.22051 5.66526 5.20022 5.7863 5.27507 5.76559C5.27927 5.76424 5.3668 5.6559 5.31803 5.76364C5.31478 5.77088 5.2649 5.88082 5.31315 5.81344C5.31639 5.80863 5.34036 5.754 5.34733 5.76266C5.35391 5.7736 5.38985 5.74668 5.36979 5.81344C5.36347 5.83453 5.31513 5.9446 5.37467 5.86813C5.38341 5.85618 5.50221 5.68783 5.43717 5.8193C5.42622 5.8414 5.34833 5.9791 5.40299 5.91696C5.41357 5.90486 5.42566 5.8704 5.44401 5.85544C5.47175 5.8331 5.46689 5.87816 5.5153 5.82516C5.5239 5.81568 5.58684 5.72787 5.55534 5.80368C5.55022 5.81569 5.52351 5.85849 5.52409 5.86716C5.53141 5.90373 5.57006 5.8861 5.57389 5.92966C5.57523 5.9451 5.53052 6.01732 5.52702 6.04196C5.52377 6.06638 5.52885 6.09472 5.55632 6.0654C5.58379 6.03583 5.64092 5.91313 5.65885 5.91012C5.73634 5.89944 5.75099 5.99933 5.79948 6.04001C5.80672 6.04554 5.82434 5.99999 5.83659 6.00583C5.88219 6.02703 5.97901 6.02977 5.96647 6.14059C5.95621 6.22992 5.88753 6.26415 5.89421 6.30661C5.89866 6.32468 5.98636 6.19575 5.99186 6.19235C6.04287 6.16323 6.02744 6.23417 6.0612 6.22946C6.0683 6.22833 6.09554 6.16926 6.10124 6.16891C6.12075 6.16751 6.1222 6.20097 6.13835 6.20407C6.14609 6.20378 6.16784 6.16257 6.17155 6.16891C6.18084 6.18389 6.18287 6.20847 6.1735 6.25583C6.17149 6.26148 6.1355 6.30892 6.14421 6.31637C6.1582 6.32907 6.15681 6.37865 6.19792 6.3486C6.21085 6.33823 6.26481 6.24288 6.23893 6.31637C6.2328 6.3329 6.16483 6.44624 6.23503 6.35348C6.24681 6.33797 6.34637 6.21421 6.30827 6.30856C6.29832 6.33322 6.25322 6.43235 6.26725 6.42282C6.2695 6.42092 6.296 6.36625 6.30436 6.36423C6.33314 6.35818 6.35056 6.37531 6.37956 6.37008C6.38756 6.36765 6.40997 6.30907 6.42057 6.30856C6.44983 6.30726 6.46943 6.33641 6.48112 6.3652C6.48538 6.37597 6.454 6.41859 6.45182 6.4238C6.41707 6.50677 6.48145 6.40555 6.48893 6.39938C6.52872 6.37271 6.51534 6.43051 6.53971 6.4277C6.54652 6.42687 6.57232 6.37313 6.57585 6.36911C6.61032 6.33079 6.55246 6.41724 6.55241 6.43161C6.5539 6.47019 6.57583 6.47694 6.59733 6.48044C6.60527 6.48164 6.6316 6.41812 6.63835 6.41989C6.67878 6.42927 6.71169 6.45606 6.72721 6.50778C6.72951 6.51812 6.70046 6.56114 6.69596 6.57223C6.66423 6.65009 6.73315 6.55889 6.74186 6.55075C6.78031 6.51535 6.76327 6.55813 6.77995 6.55758C6.86147 6.55445 6.92149 6.62315 6.9694 6.67184C7.03215 6.73515 7.06563 6.812 7.14323 6.84079C7.1482 6.84221 7.17699 6.78127 7.18229 6.78024C7.2409 6.79393 7.27724 6.84553 7.33756 6.85641C7.34239 6.8574 7.36829 6.79794 7.3776 6.79587C7.39618 6.79477 7.41225 6.80779 7.41569 6.83395C7.41684 6.84692 7.38052 6.89046 7.38249 6.90231C7.38783 6.92972 7.40309 6.94345 7.42448 6.94333C7.43389 6.94144 7.45628 6.87848 7.46549 6.88278C7.52977 6.91123 7.59521 6.93494 7.61393 7.04587C7.61473 7.05429 7.55206 7.17504 7.57389 7.15719C7.59323 7.12438 7.61518 7.08505 7.63542 7.04977C7.73486 7.08062 7.79911 7.17196 7.88444 7.22848C7.888 7.23082 7.9168 7.16571 7.92448 7.16794C7.96604 7.19255 8.01749 7.19785 8.02506 7.28512C8.02587 7.2937 7.96099 7.4043 7.98307 7.3945C7.98801 7.39259 8.01479 7.38812 8.03288 7.36716C8.03563 7.3638 8.06108 7.30957 8.06803 7.31149C8.10797 7.32356 8.1384 7.35641 8.15592 7.40817C8.15849 7.41682 8.12102 7.46906 8.12272 7.47555C8.13521 7.52087 8.19083 7.49668 8.1901 7.56247C8.18931 7.60688 8.12884 7.699 8.08561 7.7988C8.07952 7.81289 8.08955 7.82166 8.05924 7.87692C7.98307 8.01588 7.89172 8.164 7.8112 8.31247C7.79427 8.34394 7.82903 8.3193 7.77702 8.39059C7.77341 8.39541 7.74747 8.41407 7.73014 8.43844C7.71814 8.45533 7.69034 8.51327 7.6735 8.53415C7.65668 8.55495 7.67856 8.50585 7.6569 8.52926C7.63522 8.55294 7.60279 8.61689 7.58561 8.61813C7.54621 8.61835 7.51638 8.57874 7.50065 8.53708C7.49573 8.52421 7.5202 8.49228 7.51823 8.48141C7.51323 8.46093 7.4915 8.47091 7.48796 8.44821C7.48692 8.4404 7.52295 8.38776 7.52116 8.38083C7.511 8.34359 7.48094 8.3444 7.46354 8.3193C7.37777 8.1955 7.27311 8.10971 7.16764 8.01755C7.13277 7.98714 7.11228 7.9103 7.05924 7.90915C7.05306 7.90939 7.02997 7.9566 7.02604 7.96188C6.97781 8.0145 7.03641 7.92091 7.03483 7.90231C7.02672 7.83058 6.98794 7.80306 6.94206 7.80173C6.92239 7.80203 6.88411 7.90477 6.89909 7.84274C6.90146 7.83663 6.93217 7.78999 6.93131 7.78219C6.92886 7.76476 6.90622 7.76383 6.90104 7.75583C6.89163 7.73996 6.88938 7.73836 6.87663 7.73044C6.85929 7.71905 6.85156 7.6822 6.82585 7.68258C6.82022 7.68288 6.79549 7.73793 6.78385 7.74313C6.77226 7.74803 6.75742 7.73429 6.75846 7.71872C6.75951 7.70307 6.78534 7.66346 6.78971 7.65329C6.82527 7.57034 6.74687 7.66406 6.73991 7.66891C6.6663 7.68871 6.66044 7.60311 6.61589 7.57809C6.58203 7.5594 6.53421 7.55972 6.50358 7.53903C6.46722 7.51384 6.44986 7.46723 6.40983 7.45114C6.40384 7.45447 6.37574 7.51265 6.37077 7.51071C6.31576 7.48916 6.26925 7.45389 6.24186 7.38376C6.24008 7.37579 6.27568 7.32683 6.27507 7.31637C6.26891 7.25436 6.2795 7.11978 6.12858 7.34469C6.11267 7.32365 6.09257 7.30003 6.10026 7.24216C6.10528 7.20472 6.14989 7.15217 6.12077 7.16891C6.1141 7.17308 6.08927 7.22684 6.08171 7.22848C6.04998 7.23513 6.03565 7.20492 5.99967 7.21969C5.99209 7.2235 5.96763 7.26931 5.96159 7.27731C5.91341 7.33906 5.95976 7.21817 5.96061 7.20798C5.96629 7.13213 5.93231 7.14394 5.9069 7.1279C5.90101 7.1241 5.87281 7.18987 5.86589 7.18844C5.83057 7.18018 5.80204 7.15743 5.78776 7.11325C5.78466 7.10323 5.82092 7.05336 5.82096 7.04587C5.82053 7.01418 5.76088 7.11158 5.75944 7.08298C5.75911 7.07704 5.78582 7.03356 5.78874 7.02731C5.82463 6.94462 5.75508 7.05142 5.75163 7.0527C5.70731 7.0704 5.75483 6.94611 5.72038 6.94821C5.71547 6.95082 5.69096 7.00923 5.68132 7.0068C5.61564 6.99069 5.56428 6.94167 5.53385 6.86423C5.52908 6.85225 5.55974 6.81223 5.56217 6.80661C5.59943 6.71953 5.53173 6.82564 5.52604 6.82907C5.4866 6.84657 5.51817 6.74232 5.42839 6.86618C5.359 6.76664 5.2227 6.787 5.19499 6.6152C5.19635 6.61046 5.2272 6.55938 5.22624 6.55563C5.21458 6.50929 5.17189 6.59722 5.0944 6.6904C5.07493 6.71375 5.13152 6.58025 5.13542 6.57028C5.14978 6.53371 5.19961 6.45483 5.20182 6.44723C5.21772 6.38856 5.07036 6.6563 5.05143 6.64938C5.05114 6.64863 5.08078 6.60131 5.08268 6.59469C5.08677 6.57673 5.071 6.59326 5.07585 6.57419C5.08777 6.5289 5.15781 6.39559 5.09928 6.46286C5.09173 6.47163 5.00842 6.62639 4.99674 6.61032C4.99198 6.60376 4.96281 6.59036 4.96061 6.57614C4.95887 6.56175 4.99143 6.51709 4.99284 6.51364C5.00853 6.43672 5.03112 6.41382 5.07487 6.31149C5.11839 6.20958 4.99295 6.44067 4.97428 6.46383C4.95569 6.48686 4.97048 6.42409 4.97721 6.40329C4.98401 6.38262 5.00566 6.3543 5.00846 6.34176C5.02509 6.26015 4.93468 6.45015 4.9069 6.48239C4.84168 6.55799 4.92311 6.38095 4.91667 6.35544C4.91481 6.34894 4.89718 6.38881 4.89128 6.39059C4.86841 6.39592 4.88892 6.33797 4.8444 6.37692C4.83633 6.38439 4.76652 6.47691 4.79948 6.39743C4.8044 6.38584 4.83117 6.34648 4.83073 6.33298C4.82913 6.31334 4.81679 6.29436 4.7985 6.3027C4.78505 6.30887 4.75427 6.38231 4.75651 6.35641C4.75769 6.34434 4.78844 6.30734 4.78874 6.28805C4.78889 6.26896 4.76795 6.25974 4.75944 6.2568C4.75086 6.25404 4.72593 6.30926 4.72331 6.31247C4.70865 6.32999 4.68078 6.34602 4.67741 6.34665C4.60755 6.31586 4.59636 6.19229 4.5153 6.18551C4.50898 6.18491 4.48045 6.24265 4.47917 6.24313C4.4499 6.2554 4.54641 6.11577 4.56217 6.05954C4.50022 6.17378 4.50422 6.14968 4.48503 6.15524C4.47552 6.1592 4.45484 6.20385 4.45182 6.20798C4.40584 6.26935 4.4474 6.17956 4.45573 6.1611C4.48627 6.09332 4.4376 6.16597 4.45768 6.12106C4.47791 6.0759 4.52258 6.01745 4.51042 6.01169C4.48425 6.05076 4.43319 6.16069 4.41471 6.17282C4.34503 6.21838 4.32928 6.10131 4.30729 6.07712C4.28524 6.05336 4.27176 6.05566 4.26432 6.03219C4.25086 5.99023 4.21713 6.0745 4.17936 6.10055C4.14242 6.1254 4.25915 5.93739 4.27995 5.8945C4.30061 5.85195 4.27412 5.89267 4.28385 5.86813C4.29369 5.84367 4.31655 5.81921 4.31413 5.80661C4.31131 5.79448 4.25025 5.85749 4.22331 5.89938C4.16609 5.9884 4.1199 6.08964 4.11979 6.04489C4.11993 6.04214 4.15137 5.9949 4.15104 5.9863C4.13947 5.92828 4.10557 5.90593 4.09147 5.85251C4.08963 5.84527 4.12349 5.7935 4.12467 5.7861C4.11706 5.73422 4.07354 5.83433 3.9987 5.93161C4.08094 5.79338 4.12127 5.70291 4.10124 5.68942C4.08878 5.68169 4.05578 5.7444 4.02311 5.78317C4.01363 5.79408 4.02818 5.74761 4.01042 5.77536C3.95194 5.86673 3.90049 5.97717 3.90202 5.9238C3.90219 5.92125 3.93482 5.87021 3.93327 5.8652C3.92305 5.83402 3.86554 5.92976 3.83561 5.92966C3.81227 5.92885 3.81341 5.85103 3.7985 5.82907C3.88812 5.67076 3.84741 5.69589 3.77799 5.80075C3.76713 5.78891 3.74937 5.78661 3.74479 5.76462C3.74323 5.75701 3.77145 5.71286 3.77409 5.707C3.80848 5.62608 3.74649 5.72295 3.73893 5.72946C3.68472 5.75232 3.70385 5.65778 3.62956 5.71969C3.62524 5.72487 3.56455 5.82977 3.60124 5.74606C3.60481 5.73921 3.64131 5.6952 3.62956 5.68356C3.61796 5.67101 3.62382 5.59889 3.57585 5.63864C3.5635 5.64933 3.50247 5.7299 3.5319 5.65524C3.536 5.64498 3.55513 5.61426 3.56315 5.59567C3.58867 5.53632 3.52285 5.64536 3.56901 5.54684C3.61506 5.4485 3.64004 5.36973 3.58366 5.4238C3.58123 5.42652 3.52752 5.51068 3.52214 5.50583C3.51375 5.49785 3.50997 5.47242 3.49967 5.46676C3.49463 5.46433 3.46775 5.51911 3.46549 5.52145C3.4149 5.5334 3.41799 5.47094 3.39421 5.42966C3.38924 5.4229 3.32983 5.48567 3.35026 5.41989C3.37292 5.34717 3.53737 5.08672 3.4694 5.13278C3.44056 5.15394 3.23431 5.48189 3.31022 5.29294C3.24089 5.31113 3.24977 5.19817 3.1696 5.23532C3.16339 5.24123 3.10615 5.32806 3.10221 5.32419C3.09689 5.31739 3.1173 5.27131 3.11393 5.26559C3.10015 5.24078 3.05966 5.2673 3.04264 5.24997C3.03694 5.24274 3.06475 5.19927 3.05729 5.19137C3.04951 5.18368 3.00976 5.24049 3.01335 5.20505C3.01644 5.17746 3.07616 5.04813 3.07194 5.02633C3.00273 5.14825 2.99505 5.14039 2.96159 5.16403C2.95509 5.16874 2.93462 5.21338 2.93034 5.21774C2.91242 5.23635 2.9266 5.19801 2.90788 5.21872C2.90334 5.22371 2.8797 5.26599 2.87467 5.27243C2.8318 5.32753 2.86857 5.22801 2.87565 5.20895C2.90062 5.14152 2.86581 5.19221 2.87174 5.16403C2.87793 5.13534 2.90641 5.11059 2.90592 5.09079C2.90473 5.05014 2.87748 5.04355 2.86003 5.03122C2.85259 5.02782 2.8266 5.08529 2.82487 5.08591C2.80196 5.09087 2.81936 5.02405 2.7487 5.12985C2.89944 4.83698 2.72367 5.15176 2.73405 5.082C2.73681 5.07309 2.80891 4.94054 2.82682 4.9238C2.84464 4.90763 2.83141 4.95553 2.85807 4.92966C2.86555 4.92178 2.94672 4.8051 2.95378 4.79684C3.00055 4.74462 2.89082 4.94419 2.88346 4.95895C2.82387 5.08362 2.91612 4.95541 2.92546 4.94821C2.96809 4.91532 2.96798 4.95281 3.00065 4.93063C3.02175 4.91642 3.09631 4.78622 3.10319 4.79196C3.12186 4.82015 3.02718 5.01095 3.14225 4.86423C3.16694 4.83262 3.24291 4.68525 3.19792 4.80954ZM8.02409 7.79977C8.02294 7.80246 8.03016 7.80973 8.0319 7.80758C8.07121 7.74795 8.0569 7.73324 8.02409 7.79977ZM5.26335 6.59079C5.33016 6.495 5.29826 6.46302 5.24674 6.57419C5.2441 6.57995 5.25987 6.59552 5.26335 6.59079ZM4.97038 6.25973C4.9689 6.26274 4.97295 6.26846 4.9821 6.25192C5.01151 6.19868 4.99527 6.20924 4.97038 6.25973ZM4.43034 5.9902C4.42909 5.9929 4.43651 6.00047 4.43815 5.99801C4.4774 5.93855 4.46311 5.92394 4.43034 5.9902ZM2.72526 4.9404C2.75318 4.97084 2.64577 5.21003 2.62272 5.16403C2.61857 5.15554 2.67833 5.09871 2.68132 5.07321C2.68641 5.02733 2.59587 5.16437 2.62272 5.07907C2.62768 5.06351 2.72153 4.94044 2.72526 4.93942V4.9404ZM3.38151 4.99118C3.40954 4.91939 3.31895 5.06232 3.30827 5.09079C3.2731 5.18442 3.35336 5.06308 3.38151 4.99118ZM3.00163 5.02243C3.01783 4.98229 2.97987 5.0175 2.95964 5.06735C2.94339 5.10758 2.98142 5.07246 3.00163 5.02243Z" fill="#555961"/>
<path d="M13.8418 11.2705C13.8474 11.2812 13.8402 11.3356 13.8457 11.3457C13.8595 11.367 13.8745 11.3719 13.8887 11.3613C13.8947 11.3567 13.8857 11.2889 13.8936 11.2881C13.9469 11.2814 13.9998 11.2699 14.0537 11.3574C14.0574 11.3641 14.0605 11.5009 14.0684 11.4746C14.069 11.4365 14.0691 11.3913 14.0693 11.3506C14.1469 11.3289 14.2239 11.3764 14.3018 11.3838C14.3047 11.3815 14.2994 11.3113 14.3057 11.3115C14.3425 11.3126 14.3784 11.2929 14.416 11.3652C14.4196 11.3754 14.4178 11.4996 14.4287 11.4805C14.431 11.4766 14.4468 11.4598 14.4512 11.4326C14.4518 11.4285 14.4489 11.3689 14.4541 11.3662C14.4851 11.3572 14.5179 11.371 14.5488 11.4072C14.5538 11.4132 14.5492 11.4776 14.5527 11.4824C14.5779 11.5155 14.6048 11.468 14.6289 11.5254C14.6451 11.5643 14.6398 11.6749 14.6484 11.7832C14.6498 11.798 14.6596 11.8011 14.6602 11.8633C14.6615 12.0217 14.6562 12.1954 14.6582 12.3643C14.6586 12.4006 14.6719 12.3619 14.6641 12.4492C14.6635 12.4551 14.6538 12.4848 14.6514 12.5147C14.6497 12.5354 14.6528 12.5996 14.6494 12.626C14.646 12.6518 14.6423 12.599 14.6367 12.6299C14.6312 12.6615 14.6333 12.7336 14.6221 12.7422C14.5959 12.7617 14.5622 12.7406 14.5361 12.7119C14.5282 12.7031 14.5315 12.6652 14.5264 12.6563C14.5154 12.6409 14.505 12.6596 14.4941 12.6416C14.4906 12.6354 14.4946 12.5749 14.4912 12.5674C14.4705 12.5396 14.4506 12.5552 14.4297 12.542C14.3262 12.476 14.2239 12.4525 14.1191 12.4238C14.0848 12.4142 14.0433 12.3575 14.0078 12.3818C14.0037 12.3848 14.0055 12.4381 14.0049 12.4443C13.9925 12.5141 13.9964 12.4025 13.9883 12.3877C13.9562 12.3295 13.9206 12.3245 13.8896 12.3457C13.8765 12.3549 13.8892 12.4645 13.876 12.4033C13.8751 12.3992 13.8786 12.3404 13.875 12.334C13.8668 12.32 13.8512 12.3306 13.8447 12.3262C13.8326 12.317 13.8306 12.3171 13.8193 12.3164C13.8036 12.315 13.7845 12.2861 13.7676 12.2988C13.764 12.3018 13.7682 12.3609 13.7627 12.3721C13.7569 12.3823 13.7415 12.3775 13.7363 12.3633C13.7312 12.3489 13.7333 12.3018 13.7324 12.291C13.725 12.2015 13.7079 12.3214 13.7051 12.3291C13.6635 12.3825 13.6279 12.3104 13.5889 12.3106C13.5592 12.3109 13.5272 12.3353 13.499 12.332C13.4655 12.3278 13.4368 12.2952 13.4043 12.3008C13.4014 12.3049 13.4053 12.3709 13.4014 12.3731C13.3567 12.3813 13.3121 12.373 13.2676 12.3252C13.2633 12.3196 13.2689 12.2592 13.2646 12.25C13.2374 12.199 13.1939 12.0762 13.1777 12.3467C13.1592 12.3361 13.1367 12.325 13.1201 12.2705C13.1095 12.2354 13.1195 12.1684 13.1064 12.1973C13.1039 12.2057 13.1076 12.2614 13.1035 12.2676C13.0849 12.2893 13.0643 12.2702 13.0459 12.3008C13.0421 12.3072 13.0431 12.3606 13.042 12.3701C13.0331 12.4468 13.0179 12.3189 13.0146 12.3096C12.9901 12.2408 12.9721 12.2682 12.9492 12.2666C12.944 12.2662 12.9498 12.3335 12.9453 12.3389C12.9187 12.3491 12.8903 12.3432 12.8643 12.3115C12.8588 12.3034 12.8639 12.2446 12.8613 12.2373C12.8491 12.2092 12.8467 12.3235 12.835 12.2988C12.8325 12.2938 12.8334 12.2431 12.833 12.2363C12.826 12.1467 12.8202 12.2734 12.8184 12.2764C12.7954 12.3147 12.781 12.1826 12.7588 12.2012C12.7561 12.2036 12.7614 12.2688 12.7539 12.2715C12.7043 12.2895 12.6517 12.2713 12.6025 12.2188C12.5953 12.2098 12.6001 12.1613 12.5996 12.1553C12.5919 12.0618 12.5875 12.1843 12.585 12.1924C12.5653 12.227 12.5466 12.1205 12.5332 12.2725C12.4499 12.2198 12.3668 12.3048 12.2842 12.169C12.2832 12.1674 12.2851 12.1068 12.2832 12.1016C12.258 12.0663 12.2628 12.1638 12.2461 12.2832C12.2419 12.3131 12.2287 12.1688 12.2275 12.1582C12.2235 12.1194 12.2279 12.0272 12.2266 12.0186C12.2151 11.9593 12.2166 12.2685 12.2012 12.2686C12.2007 12.2675 12.2034 12.2107 12.2021 12.2051C12.1981 12.1876 12.1934 12.21 12.1895 12.1904C12.1805 12.1449 12.1777 11.9957 12.1641 12.082C12.1623 12.0933 12.1649 12.2673 12.1514 12.2607C12.1459 12.2573 12.1211 12.2604 12.1143 12.249C12.1076 12.2374 12.1128 12.1814 12.1123 12.1787C12.094 12.1041 12.1 12.0732 12.0908 11.9629C12.0816 11.8527 12.0848 12.1152 12.0811 12.1445C12.0773 12.1735 12.0639 12.1124 12.0605 12.0908C12.0573 12.0696 12.0613 12.034 12.0586 12.0215C12.0391 11.9422 12.0494 12.1516 12.043 12.1934C12.0279 12.2917 12.0167 12.0983 12.0029 12.0781C11.9993 12.0731 12.0019 12.1149 11.999 12.1211C11.9859 12.1369 11.9778 12.077 11.9629 12.1318C11.9604 12.1409 11.9483 12.2582 11.9404 12.1729C11.9393 12.1605 11.9422 12.1115 11.9365 12.1006C11.9281 12.0843 11.9124 12.0736 11.9033 12.0899C11.8967 12.1021 11.9048 12.1817 11.8965 12.1572C11.8928 12.1461 11.8996 12.099 11.8926 12.082C11.8857 12.0655 11.8683 12.0677 11.8613 12.0693C11.8546 12.071 11.858 12.1317 11.8574 12.1357C11.8541 12.1591 11.841 12.1885 11.8398 12.1885C11.7819 12.1958 11.7283 12.0931 11.6719 12.127C11.6677 12.1299 11.6703 12.189 11.6699 12.1943C11.6548 12.2212 11.6668 12.0511 11.6563 11.9941C11.6578 12.1241 11.6513 12.101 11.6406 12.1152C11.6357 12.123 11.6382 12.1726 11.6377 12.1777C11.6301 12.2535 11.6254 12.1549 11.624 12.1348C11.619 12.0607 11.6128 12.1483 11.6094 12.0986C11.606 12.0494 11.6137 11.9766 11.6035 11.9775C11.6007 12.0242 11.6083 12.1453 11.6006 12.165C11.5713 12.2393 11.5169 12.1452 11.4932 12.1348C11.4696 12.1249 11.462 12.133 11.4482 12.1162C11.4235 12.0858 11.4324 12.1765 11.417 12.2178C11.4018 12.2569 11.4094 12.0374 11.4072 11.9893C11.4051 11.9416 11.4021 11.9901 11.3994 11.9639C11.3968 11.9377 11.4028 11.9053 11.3965 11.8955C11.3901 11.8866 11.3724 11.9709 11.3701 12.0205C11.3654 12.1262 11.3733 12.2372 11.3564 12.1982C11.3555 12.1954 11.3589 12.1389 11.3555 12.1318C11.3261 12.0869 11.295 12.0837 11.2656 12.044C11.2619 12.0366 11.265 11.9736 11.2627 11.9697C11.2384 11.9289 11.2477 12.0379 11.2344 12.1592C11.2374 11.9974 11.2295 11.8984 11.2109 11.8975C11.1999 11.8973 11.2015 11.9679 11.1943 12.0176C11.1921 12.0318 11.184 11.9845 11.1826 12.0176C11.178 12.1258 11.1859 12.2466 11.167 12.1992C11.1662 12.197 11.1686 12.1398 11.166 12.1338C11.1472 12.1102 11.1443 12.2236 11.124 12.2373C11.1081 12.2476 11.0796 12.1792 11.0615 12.168C11.0619 11.9863 11.045 12.0272 11.0381 12.1524C11.0265 12.1475 11.0141 12.1544 11.0029 12.1377C10.9991 12.1318 11.0014 12.0796 11.001 12.0732C10.9935 11.9851 10.9879 12.1028 10.9854 12.1104C10.9579 12.1569 10.9354 12.0649 10.9092 12.1553C10.9082 12.1621 10.9073 12.2833 10.9004 12.1924C10.8999 12.186 10.9078 12.1285 10.8955 12.124C10.8831 12.1187 10.8598 12.0523 10.8428 12.1104C10.8386 12.1244 10.8287 12.2267 10.8203 12.1475C10.8192 12.1366 10.8199 12.1003 10.8184 12.0801C10.8131 12.0159 10.8108 12.1428 10.8047 12.0352C10.7985 11.9267 10.7849 11.8451 10.7676 11.9199C10.7669 11.9253 10.7632 12.0231 10.7578 12.0215C10.7491 12.0187 10.7366 11.9974 10.7275 11.9981C10.7236 11.9997 10.7261 12.0573 10.7256 12.0625C10.6964 12.0977 10.6758 12.0419 10.6445 12.0176C10.6388 12.013 10.6224 12.0987 10.6113 12.0313C10.5992 11.9571 10.611 11.6482 10.583 11.7217C10.5717 11.7513 10.5584 12.1423 10.5381 11.9395C10.4988 11.9897 10.4622 11.8868 10.4229 11.958C10.4211 11.9612 10.4153 12.0682 10.4111 12.0693C10.4049 12.0669 10.4009 12.0161 10.3965 12.0127C10.3781 11.9975 10.3615 12.0404 10.3438 12.0342C10.337 12.0317 10.3391 11.9786 10.3311 11.9756C10.323 11.9727 10.3176 12.0419 10.3066 12.0088C10.2984 11.9832 10.2903 11.8409 10.2793 11.8242C10.2789 11.9644 10.2712 11.962 10.2578 11.999C10.2554 12.0074 10.258 12.0547 10.2568 12.0606C10.2519 12.0856 10.2469 12.0454 10.2422 12.0723C10.2411 12.0788 10.2411 12.1258 10.2402 12.1348C10.2323 12.2053 10.2191 12.0979 10.2168 12.0791C10.2082 12.008 10.2039 12.07 10.1973 12.042C10.1908 12.014 10.2011 11.9789 10.1934 11.9619C10.1774 11.927 10.1568 11.9347 10.1406 11.9326C10.1342 11.9321 10.1384 11.9937 10.1377 11.9971C10.1243 12.0133 10.11 11.9455 10.1025 12.0723C10.0933 11.7446 10.0952 12.1028 10.0762 12.0391C10.0747 12.0337 10.0723 11.8774 10.0781 11.8545C10.0839 11.8325 10.0926 11.8802 10.1006 11.8447C10.1027 11.8337 10.1138 11.6904 10.1152 11.6816C10.1268 11.6139 10.1283 11.8457 10.1289 11.8584C10.1359 11.996 10.1488 11.8394 10.1523 11.8281C10.1684 11.7784 10.1828 11.8109 10.1963 11.7754C10.205 11.7513 10.206 11.6008 10.2129 11.6055C10.2355 11.6233 10.2432 11.8315 10.2646 11.6484C10.2692 11.6088 10.2656 11.4435 10.2822 11.5742C10.2836 11.5857 10.2957 11.7006 10.3027 11.626C10.3036 11.6161 10.3035 11.5675 10.3047 11.5635C10.3125 11.5381 10.3176 11.576 10.3262 11.5576C10.3348 11.5391 10.3447 11.5119 10.3545 11.5283C10.3604 11.5382 10.3683 11.6282 10.3711 11.6504C10.3791 11.7141 10.3876 11.61 10.3926 11.6865C10.3976 11.7641 10.3882 11.8825 10.4014 11.9326C10.4019 11.8065 10.4025 11.6766 10.4033 11.5498C10.432 11.5542 10.4605 11.595 10.4893 11.5899C10.4928 11.589 10.4895 11.5222 10.4932 11.5186C10.5093 11.5079 10.5234 11.5554 10.54 11.5371C10.553 11.522 10.5675 11.4497 10.5811 11.4316C10.5893 11.5746 10.6094 11.5281 10.624 11.54C10.6291 11.5446 10.6293 11.5828 10.6328 11.5957C10.6465 11.642 10.6399 11.5159 10.6436 11.4951C10.6597 11.4095 10.6616 11.6976 10.6807 11.6904C10.6822 11.6824 10.6935 11.5391 10.6953 11.5274C10.7061 11.4653 10.6976 11.5791 10.7041 11.5918C10.7165 11.6126 10.7257 11.6496 10.7402 11.6045C10.7445 11.5907 10.7545 11.4954 10.7627 11.5693C10.7638 11.5789 10.7628 11.6288 10.7637 11.6328C10.7794 11.6825 10.7801 11.5229 10.7891 11.4688C10.7981 11.4147 10.8116 11.5248 10.8145 11.5566C10.8218 11.6378 10.8093 11.593 10.8086 11.5996C10.8039 11.6948 10.8136 11.6799 10.8213 11.6875C10.8224 11.8442 10.834 11.8348 10.8301 11.6953C10.8296 11.6801 10.8228 11.6947 10.8213 11.6875C10.8281 11.5338 10.8404 11.5146 10.8535 11.6582C10.8596 11.7254 10.8534 11.8031 10.8721 11.7744C10.8804 11.7611 10.8775 11.655 10.8848 11.625C10.9019 11.558 10.9248 11.6582 10.9424 11.6426C10.9488 11.6368 10.942 11.5776 10.9463 11.5713C10.9579 11.5553 10.9688 11.5999 10.9805 11.5772C10.9815 11.5746 10.9789 11.5143 10.9824 11.5127C11.0099 11.5055 11.0338 11.5448 11.0625 11.5459C11.0764 11.5463 11.1009 11.5128 11.1152 11.5195C11.1401 11.5311 11.1711 11.6205 11.1924 11.5986C11.2061 11.5845 11.2031 11.5225 11.209 11.4805C11.2205 11.3995 11.2404 11.5457 11.2432 11.5684C11.2417 11.5711 11.2324 11.586 11.2383 11.6152C11.2419 11.679 11.2429 11.5751 11.2432 11.5684C11.2452 11.5828 11.2685 11.5963 11.2734 11.585C11.276 11.5785 11.275 11.5198 11.2764 11.5176C11.3081 11.4653 11.3398 11.4505 11.3721 11.4775C11.3726 11.4787 11.3728 11.5407 11.374 11.5459C11.3927 11.575 11.4045 11.4949 11.4199 11.4473C11.4353 11.4003 11.447 11.4165 11.4561 11.5283C11.4677 11.5142 11.4845 11.5646 11.4941 11.5947C11.5037 11.6238 11.505 11.4967 11.5059 11.4941C11.5322 11.4138 11.5479 11.4865 11.5752 11.4981C11.5881 11.5036 11.6138 11.4856 11.6279 11.4717C11.6391 11.4605 11.646 11.4898 11.6563 11.4707C11.6576 11.4676 11.6568 11.4114 11.6572 11.4092C11.6686 11.3417 11.6627 11.4799 11.665 11.5049C11.6736 11.595 11.6787 11.643 11.6934 11.6006C11.6967 11.5905 11.7067 11.3953 11.7129 11.3799C11.7209 11.3651 11.7182 11.4363 11.7266 11.419C11.7273 11.4173 11.7273 11.3731 11.7324 11.375C11.7564 11.3835 11.7827 11.4097 11.8076 11.4053C11.8109 11.404 11.8066 11.3348 11.8115 11.333C11.8346 11.3247 11.8603 11.3266 11.8828 11.3594C11.8884 11.3677 11.8846 11.417 11.8857 11.4316C11.893 11.518 11.9032 11.3971 11.9053 11.3897C11.9466 11.3281 11.9784 11.4438 12.0205 11.3887C12.0228 11.3854 12.04 11.2483 12.0479 11.3652C12.0484 11.3731 12.0566 11.4937 12.0635 11.4121C12.0639 11.407 12.059 11.3446 12.0674 11.3506C12.0758 11.3569 12.089 11.3158 12.1006 11.3838C12.1043 11.4053 12.113 11.5255 12.124 11.4297C12.1247 11.423 12.1424 11.2066 12.1484 11.3555C12.1494 11.38 12.1481 11.538 12.1611 11.458C12.1636 11.4423 12.1595 11.4068 12.166 11.3848C12.1761 11.3508 12.1897 11.3928 12.2021 11.3223C12.2044 11.3089 12.2133 11.2031 12.2207 11.2842C12.2218 11.2972 12.2197 11.3496 12.2236 11.3555C12.2422 11.3836 12.2615 11.3487 12.2803 11.3848C12.2869 11.3976 12.2841 11.4827 12.291 11.5059C12.298 11.5287 12.312 11.5507 12.3193 11.5117C12.3265 11.4722 12.3183 11.3375 12.3291 11.3262C12.3765 11.279 12.4234 11.3581 12.4707 11.3701C12.4777 11.3719 12.4724 11.324 12.4824 11.3223C12.5206 11.3186 12.5869 11.2735 12.6201 11.377C12.6465 11.4597 12.6135 11.523 12.6338 11.5566C12.6435 11.5699 12.6539 11.4145 12.6563 11.4092C12.6793 11.3588 12.6951 11.4279 12.7158 11.4072C12.72 11.4029 12.7166 11.3424 12.7197 11.3359C12.7322 11.3248 12.7459 11.3529 12.7578 11.3477C12.7628 11.344 12.7621 11.2982 12.7666 11.2998C12.7784 11.3083 12.7893 11.3291 12.8008 11.375C12.8018 11.3793 12.795 11.4401 12.8037 11.4424C12.8178 11.4466 12.8355 11.4907 12.8516 11.4443C12.8563 11.4294 12.8559 11.3191 12.8662 11.3955C12.8684 11.4117 12.8659 11.5458 12.8779 11.4297C12.8802 11.4085 12.9003 11.2552 12.9102 11.3555C12.9128 11.3826 12.92 11.4918 12.9258 11.4746C12.9266 11.4719 12.9229 11.4111 12.9277 11.4053C12.9445 11.3861 12.9623 11.3924 12.9795 11.374C12.9841 11.3689 12.9777 11.3071 12.9844 11.3008C13.0034 11.2851 13.0273 11.3008 13.0459 11.3203C13.0526 11.328 13.0483 11.3792 13.0488 11.3848C13.0568 11.4749 13.0608 11.355 13.0635 11.3457C13.08 11.3027 13.0931 11.36 13.1084 11.3447C13.1122 11.3389 13.1096 11.2839 13.1104 11.2774C13.119 11.2264 13.1128 11.3304 13.1182 11.3428C13.1336 11.3756 13.1504 11.3708 13.166 11.3633C13.1717 11.3604 13.1658 11.2928 13.1709 11.291C13.2013 11.2793 13.233 11.2858 13.2627 11.3232C13.2682 11.3305 13.2646 11.3819 13.2656 11.3945C13.2736 11.4782 13.2854 11.3647 13.2881 11.3535C13.3004 11.3039 13.3056 11.3502 13.3164 11.3418C13.3695 11.2987 13.4352 11.3287 13.4854 11.3477C13.5507 11.3721 13.6017 11.4221 13.6641 11.4092C13.6673 11.4044 13.6642 11.3434 13.667 11.3379C13.7111 11.3211 13.7547 11.3482 13.7988 11.3281C13.8024 11.3266 13.7975 11.263 13.8027 11.2559C13.8147 11.2458 13.8297 11.2494 13.8418 11.2705ZM10.0273 11.9346C10.0505 11.9928 10.0608 12.19 10.0322 12.1641C10.0263 12.1586 10.0447 12.0803 10.0371 12.0566C10.0233 12.014 10.0141 12.1782 10 12.0899C9.99776 12.0723 10.0143 11.9239 10.0166 11.919L10.0273 11.9346ZM12.3213 12.1133C12.3298 11.9972 12.2964 11.9852 12.3037 12.1074C12.3044 12.1137 12.3208 12.1191 12.3213 12.1133ZM11.543 11.999C11.5437 12.0018 11.5506 12.0038 11.5508 12.001C11.5546 11.9302 11.5399 11.9251 11.543 11.999ZM12.002 11.9688C12.0022 11.972 12.0079 11.9746 12.0078 11.9561C12.0075 11.8952 11.9996 11.9125 12.002 11.9688ZM10.2314 11.8555C10.2272 11.8126 10.2146 11.8617 10.2197 11.915C10.224 11.958 10.2367 11.9089 10.2314 11.8555ZM14.6084 11.8135C14.6085 11.8165 14.6151 11.8194 14.6152 11.8164C14.6191 11.7453 14.6053 11.7395 14.6084 11.8135ZM10.4717 11.6416C10.4635 11.5654 10.4574 11.7347 10.4609 11.7647C10.4726 11.8634 10.4799 11.718 10.4717 11.6416Z" fill="#555961"/>
<path d="M11.5361 9.73145C11.5814 9.7334 11.5714 9.67616 11.6328 9.69629C11.6742 9.71033 11.7464 9.79331 11.8301 9.8623C11.8419 9.87206 11.8526 9.8652 11.8975 9.90918C12.0107 10.0201 12.1298 10.1469 12.251 10.2646C12.277 10.2899 12.2602 10.2515 12.3154 10.3203C12.3191 10.3249 12.3316 10.3538 12.3506 10.377C12.3637 10.3929 12.4119 10.4354 12.4277 10.457C12.4434 10.4785 12.4022 10.4444 12.4189 10.4707C12.4363 10.4977 12.4909 10.5477 12.4873 10.5635C12.4785 10.5995 12.4341 10.6141 12.3916 10.6162C12.3783 10.6169 12.3532 10.5848 12.3428 10.584C12.3229 10.5828 12.3276 10.605 12.3057 10.6016C12.2981 10.6002 12.2569 10.5522 12.25 10.5518C12.2128 10.55 12.2071 10.5774 12.1797 10.5859C12.0443 10.628 11.9401 10.6991 11.8301 10.7686C11.7937 10.7912 11.7181 10.7871 11.7051 10.835C11.7036 10.8406 11.7445 10.8779 11.7471 10.8818C11.7854 10.9413 11.7113 10.8598 11.6934 10.8555C11.6246 10.8417 11.5897 10.8687 11.5781 10.9102C11.5734 10.928 11.6622 10.9949 11.6074 10.9629C11.6037 10.9607 11.5654 10.9168 11.5576 10.915C11.5409 10.9122 11.5349 10.9318 11.5264 10.9346C11.5093 10.9385 11.5075 10.9407 11.4971 10.9502C11.4825 10.9628 11.4456 10.9585 11.4404 10.9824C11.44 10.988 11.4856 11.0258 11.4883 11.0381C11.4905 11.0502 11.4743 11.06 11.46 11.0547C11.4456 11.0491 11.414 11.0141 11.4053 11.0068C11.3341 10.9486 11.4089 11.0534 11.4092 11.0576C11.411 11.1305 11.3292 11.1101 11.2959 11.1436C11.2708 11.1691 11.2607 11.2135 11.2344 11.2354C11.2028 11.2612 11.1549 11.2623 11.1309 11.2939C11.1283 11.2973 11.1818 11.3445 11.1787 11.3486C11.1463 11.3926 11.1028 11.4252 11.0313 11.4297C11.024 11.4301 10.9845 11.3811 10.9746 11.3789C10.9151 11.3662 10.7915 11.3164 10.9688 11.5215C10.9455 11.5299 10.9188 11.5408 10.8662 11.5166C10.8323 11.5009 10.7926 11.4449 10.8018 11.4766C10.8045 11.4841 10.8495 11.5218 10.8496 11.5293C10.849 11.5605 10.8177 11.5645 10.8232 11.6016C10.8245 11.6093 10.8633 11.6466 10.8691 11.6543C10.9153 11.7156 10.8146 11.6398 10.8037 11.6348C10.7335 11.6069 10.7367 11.6416 10.7158 11.6602C10.7111 11.6645 10.7665 11.7099 10.7637 11.7158C10.748 11.7457 10.7203 11.7647 10.6758 11.7646C10.6657 11.7645 10.6271 11.7171 10.6201 11.7148C10.5904 11.7059 10.668 11.7879 10.6416 11.7812C10.6359 11.7798 10.6005 11.7423 10.5957 11.7383C10.5274 11.6819 10.6083 11.773 10.6113 11.7793C10.6187 11.826 10.512 11.7456 10.5059 11.7773C10.5053 11.7813 10.5566 11.8224 10.5527 11.8311C10.523 11.8865 10.4651 11.9189 10.3857 11.9238C10.3734 11.9245 10.3436 11.8847 10.3389 11.8809C10.2648 11.8203 10.3503 11.9154 10.3516 11.9209C10.3577 11.9552 10.2969 11.9182 10.332 11.9746C10.3374 11.9717 10.3399 11.9691 10.3408 11.9717C10.3431 11.9788 10.3655 11.9978 10.3633 12.0117C10.363 12.013 10.3602 12.0131 10.3594 12.0146C10.3609 12.0166 10.3626 12.0194 10.3643 12.0215C10.3571 12.0237 10.3511 12.0283 10.3447 12.0312C10.3314 12.045 10.3175 12.0619 10.3164 12.0635C10.2793 12.132 10.251 12.1483 10.1807 12.2344C10.1114 12.3193 10.294 12.1323 10.3184 12.1143C10.3423 12.0968 10.3102 12.1519 10.2979 12.1699C10.2856 12.1878 10.2573 12.2096 10.251 12.2207C10.2116 12.2934 10.3507 12.1363 10.3857 12.1123C10.4683 12.0556 10.3405 12.2032 10.3389 12.2285C10.3392 12.2342 10.3673 12.2012 10.373 12.2012C10.3951 12.2016 10.3595 12.2507 10.4111 12.2246C10.4197 12.2203 10.5129 12.1474 10.459 12.2148C10.4512 12.2246 10.414 12.257 10.4111 12.2695C10.407 12.2881 10.4127 12.3082 10.4316 12.3047C10.4459 12.3019 10.4957 12.2389 10.4854 12.2637C10.4801 12.2749 10.4416 12.3015 10.4355 12.3193C10.4295 12.3373 10.4471 12.3518 10.4541 12.3564C10.4621 12.3592 10.5001 12.3155 10.5039 12.3125C10.5224 12.2994 10.552 12.29 10.5557 12.29C10.6104 12.3344 10.5846 12.4518 10.6563 12.4766C10.6618 12.4785 10.7036 12.4321 10.7061 12.4307C10.738 12.4247 10.6074 12.5356 10.5762 12.585C10.6664 12.4921 10.6559 12.5135 10.6748 12.5127C10.6841 12.5122 10.7176 12.4739 10.7217 12.4707C10.7817 12.4236 10.7178 12.4966 10.7041 12.5127C10.6559 12.5696 10.7226 12.5127 10.6904 12.5508C10.6585 12.5886 10.5999 12.6335 10.6094 12.6416C10.6447 12.6112 10.7245 12.518 10.7451 12.5107C10.8223 12.4839 10.8024 12.5976 10.8154 12.625C10.8286 12.6522 10.841 12.6531 10.8408 12.6768C10.8408 12.7189 10.8972 12.6478 10.9395 12.6318C10.9806 12.6168 10.8179 12.7662 10.7861 12.8018C10.7546 12.837 10.7907 12.8053 10.7754 12.8252C10.7592 12.846 10.731 12.8646 10.7295 12.877C10.7288 12.8887 10.8028 12.8437 10.8398 12.8105C10.9186 12.7399 10.9907 12.6553 10.9775 12.6973C10.9756 12.7006 10.9333 12.7374 10.9316 12.7451C10.9251 12.8021 10.9492 12.8305 10.9463 12.8838C10.9453 12.8914 10.8968 12.9333 10.8955 12.9385C10.8871 12.9888 10.9574 12.9045 11.0547 12.8301C10.9381 12.9416 10.8746 13.0175 10.8896 13.0342C10.8988 13.0442 10.9469 12.9929 10.9883 12.9639C11.0008 12.9551 10.9733 12.9959 10.998 12.9736C11.0789 12.9009 11.1584 12.8087 11.1406 12.8594C11.1394 12.8619 11.0974 12.9 11.0957 12.9062C11.0951 12.9389 11.1768 12.8608 11.2041 12.8682C11.2254 12.8742 11.2005 12.9482 11.208 12.9717C11.0795 13.0995 11.1233 13.0845 11.2178 13.002C11.2242 13.0157 11.2408 13.022 11.2383 13.0439C11.2365 13.052 11.198 13.0863 11.1943 13.0908C11.1382 13.1598 11.2264 13.0797 11.2334 13.0771C11.2898 13.0678 11.244 13.1525 11.3301 13.1113C11.3332 13.1098 11.4235 13.0215 11.3643 13.0928C11.3585 13.0987 11.313 13.1311 11.3203 13.1445C11.3273 13.1588 11.2997 13.2258 11.3555 13.1992C11.369 13.1928 11.4508 13.1295 11.4014 13.1934C11.3946 13.202 11.3674 13.2265 11.3545 13.2422C11.314 13.2916 11.4063 13.2043 11.335 13.2861C11.2636 13.3681 11.2174 13.4365 11.2852 13.3984C11.289 13.3957 11.359 13.3323 11.3652 13.335C11.3708 13.3442 11.3669 13.3695 11.375 13.377C11.379 13.3804 11.4214 13.3342 11.4229 13.334C11.4724 13.3343 11.4504 13.3917 11.46 13.4355C11.4633 13.4423 11.536 13.3974 11.498 13.4541C11.4561 13.5169 11.2277 13.7236 11.3027 13.6963C11.3332 13.6852 11.6231 13.4212 11.4971 13.582C11.5658 13.5806 11.524 13.6849 11.6084 13.668C11.6122 13.6671 11.6898 13.598 11.6963 13.5986C11.6999 13.6057 11.6666 13.6452 11.668 13.6514C11.6731 13.6779 11.719 13.6616 11.7295 13.6816C11.7334 13.6893 11.6944 13.7244 11.6992 13.7334C11.7042 13.7422 11.7575 13.6983 11.7432 13.7314C11.7316 13.7571 11.6397 13.8631 11.6367 13.8848C11.736 13.7862 11.7407 13.7949 11.7783 13.7803C11.7857 13.7771 11.8161 13.7417 11.8223 13.7373C11.8443 13.7238 11.8204 13.7565 11.8438 13.7412C11.8494 13.7375 11.8831 13.7031 11.8896 13.6982C11.9458 13.6557 11.8818 13.7421 11.8701 13.7578C11.8272 13.8156 11.8745 13.7753 11.8604 13.8008C11.8462 13.8262 11.813 13.8427 11.8076 13.8613C11.7965 13.8998 11.8197 13.9123 11.832 13.9277C11.838 13.9322 11.8773 13.8851 11.8799 13.8838C11.9028 13.8838 11.8667 13.9438 11.9629 13.8604C11.7383 14.1009 11.993 13.8452 11.9629 13.9082C11.9587 13.915 11.851 14.025 11.8301 14.0361C11.8098 14.0464 11.8356 14.0053 11.8037 14.0234C11.7935 14.0301 11.6862 14.1193 11.6768 14.126C11.6179 14.1648 11.7806 13.9988 11.7891 13.9893C11.8804 13.8859 11.7578 13.9856 11.7471 13.9902C11.6987 14.0113 11.7098 13.9772 11.6738 13.9902C11.6501 13.9989 11.5407 14.1059 11.5381 14.0967C11.531 14.0649 11.6725 13.9103 11.5244 14.0215C11.4925 14.0455 11.3788 14.1663 11.457 14.0596C11.4628 14.0518 11.5354 13.9582 11.4766 14.0049C11.469 14.0109 11.4346 14.046 11.4307 14.0479C11.4056 14.0594 11.4276 14.0275 11.4072 14.0332C11.3868 14.0389 11.3591 14.0492 11.3623 14.0293C11.3649 14.0166 11.4214 13.9467 11.4346 13.9287C11.4725 13.8771 11.3916 13.9431 11.4414 13.8848C11.4919 13.8257 11.584 13.7508 11.6084 13.7041C11.5189 13.7927 11.4262 13.8828 11.3359 13.9717C11.3146 13.9438 11.3186 13.8909 11.29 13.8701C11.2849 13.8697 11.2414 13.9194 11.2363 13.918C11.2152 13.9115 11.2369 13.865 11.209 13.8643C11.1869 13.8642 11.1239 13.9022 11.0996 13.9033C11.1941 13.7946 11.1432 13.8115 11.1396 13.79C11.1385 13.7824 11.1661 13.7552 11.1719 13.7432C11.1929 13.6986 11.1085 13.7933 11.0908 13.8047C11.0164 13.8513 11.2194 13.6463 11.1982 13.6348C11.1972 13.6341 11.0776 13.733 11.0693 13.7383C11.016 13.7731 11.1052 13.6984 11.1074 13.6846C11.1116 13.6593 11.1301 13.6261 11.0859 13.6455C11.0723 13.6518 10.9972 13.7101 11.042 13.6514C11.0479 13.6436 11.0846 13.6073 11.0859 13.6045C11.1067 13.557 10.9942 13.6686 10.9482 13.6992C10.9023 13.7298 10.9682 13.6401 10.9883 13.6152C11.0401 13.5508 11.0184 13.5952 11.0244 13.5898C11.0961 13.5262 11.0761 13.529 11.0752 13.5166C11.1847 13.4052 11.1683 13.4021 11.0732 13.5039C11.063 13.5149 11.0784 13.5106 11.0752 13.5166C10.9608 13.6194 10.9363 13.6234 11.0264 13.5107C11.0687 13.4579 11.1291 13.4069 11.0928 13.4111C11.0762 13.4133 11.0027 13.4925 10.9756 13.5068C10.9138 13.5393 10.9657 13.4492 10.9395 13.4453C10.93 13.4439 10.8942 13.4897 10.8857 13.4912C10.8645 13.4926 10.8864 13.4529 10.8604 13.459C10.8557 13.4623 10.8185 13.5033 10.8135 13.5029C10.7849 13.4845 10.7923 13.4355 10.7686 13.4102C10.757 13.3979 10.7116 13.4009 10.7041 13.3838C10.6909 13.3543 10.728 13.2646 10.6943 13.2617C10.6726 13.2597 10.6316 13.3064 10.5967 13.3311C10.5291 13.3789 10.6152 13.2576 10.6289 13.2393C10.6315 13.2387 10.651 13.2372 10.667 13.2109C10.7088 13.1631 10.6341 13.2344 10.6289 13.2393C10.6373 13.2272 10.6266 13.1969 10.6143 13.2012C10.6072 13.2039 10.5672 13.2466 10.5645 13.2471C10.5005 13.2567 10.4626 13.24 10.4541 13.1934C10.4544 13.192 10.5009 13.1468 10.502 13.1436C10.5065 13.1069 10.4395 13.1534 10.3926 13.1738C10.3458 13.1942 10.3464 13.1721 10.418 13.085C10.3984 13.0846 10.4196 13.0353 10.4326 13.0059C10.4451 12.9772 10.356 13.0635 10.3516 13.0664C10.2721 13.1008 10.31 13.0365 10.2949 13.0049C10.2877 12.9898 10.2524 12.9807 10.2305 12.9785C10.213 12.9769 10.2283 12.9494 10.2061 12.9541C10.2031 12.9547 10.164 12.9969 10.1621 12.998C10.1049 13.0358 10.2071 12.9425 10.2227 12.9229C10.2791 12.8518 10.3082 12.8136 10.2656 12.8311C10.2524 12.8383 10.1061 12.9678 10.0928 12.9707C10.0759 12.974 10.1283 12.9259 10.1094 12.9307C10.1078 12.9311 10.0763 12.9629 10.0732 12.957C10.0587 12.9304 10.0548 12.8894 10.0303 12.8711C10.0268 12.8688 9.98106 12.9219 9.97559 12.9189C9.9499 12.905 9.92972 12.8814 9.93359 12.8389C9.93535 12.828 9.97226 12.7964 9.98145 12.7852C10.0374 12.7165 9.93778 12.7986 9.93457 12.7988C9.85633 12.8065 9.91087 12.6982 9.83594 12.7012C9.83113 12.7019 9.71994 12.7828 9.7959 12.6934C9.80098 12.6874 9.87959 12.5951 9.81543 12.6475C9.81145 12.6507 9.77196 12.6981 9.76856 12.6875C9.76576 12.6758 9.72544 12.6929 9.76367 12.6348C9.77601 12.6161 9.85237 12.5238 9.77539 12.582C9.7683 12.5876 9.60325 12.7245 9.70313 12.6143C9.71969 12.596 9.83228 12.4851 9.76367 12.5312C9.75039 12.5404 9.72912 12.5692 9.70801 12.5791C9.67588 12.5939 9.69386 12.5529 9.63379 12.5918C9.62311 12.5988 9.53953 12.6665 9.59082 12.6025C9.5996 12.592 9.63785 12.5572 9.63867 12.5498C9.64266 12.5141 9.60096 12.5221 9.61035 12.4805C9.6137 12.4657 9.67729 12.4079 9.6875 12.3857C9.69769 12.3636 9.70081 12.3361 9.66699 12.3574C9.63311 12.3791 9.54508 12.4809 9.52734 12.4805C9.52516 12.4803 9.52254 12.4799 9.52051 12.4795C9.32795 12.148 9.18904 11.7131 9.52051 11.5205C9.5327 11.4538 9.62542 11.4679 9.67285 11.4365C9.67987 11.4316 9.6405 11.4022 9.64844 11.3926C9.67862 11.3573 9.70326 11.269 9.80469 11.3135C9.88591 11.3492 9.90229 11.422 9.94336 11.4287C9.96282 11.4316 9.86396 11.3147 9.85938 11.3057C9.84346 11.2503 9.90613 11.2854 9.90918 11.2529C9.90971 11.2461 9.86038 11.2036 9.86133 11.1982C9.86453 11.1802 9.89586 11.1886 9.90234 11.1748C9.90397 11.1677 9.87017 11.1353 9.87695 11.1338C9.89305 11.1298 9.91685 11.1347 9.95898 11.1572C9.96344 11.1602 9.9998 11.2089 10.0088 11.2031C10.0235 11.1936 10.0699 11.21 10.0508 11.1631C10.0441 11.1483 9.96707 11.0705 10.0293 11.1152C10.0426 11.1248 10.1353 11.2224 10.0635 11.1299C10.0503 11.1128 9.95908 10.9877 10.0381 11.0498C10.0591 11.0663 10.1427 11.138 10.1357 11.1211C10.1345 11.1185 10.089 11.0787 10.0889 11.0703C10.0895 11.0419 10.1097 11.0311 10.1113 11.0029C10.1113 10.9951 10.0616 10.9572 10.0635 10.9473C10.0687 10.9199 10.1002 10.9104 10.1299 10.9082C10.1409 10.9075 10.1733 10.9486 10.1777 10.9521C10.249 11.0097 10.1659 10.9185 10.1631 10.9111C10.147 10.8668 10.1984 10.8962 10.2012 10.873C10.2019 10.8668 10.1605 10.8295 10.1553 10.8232C10.1267 10.7798 10.1946 10.858 10.208 10.8623C10.2445 10.8723 10.2556 10.8546 10.2637 10.8359C10.2665 10.8291 10.2155 10.788 10.2168 10.7812C10.2346 10.7469 10.2664 10.7235 10.3184 10.7246C10.3285 10.7257 10.3612 10.7644 10.3711 10.7725C10.4368 10.8245 10.3674 10.7355 10.3613 10.7246C10.3367 10.6789 10.3737 10.7069 10.377 10.6914C10.3922 10.6157 10.4701 10.5813 10.5264 10.5518C10.5996 10.513 10.6784 10.5048 10.7227 10.4424C10.7254 10.4386 10.6759 10.3948 10.6748 10.3887C10.7007 10.339 10.7566 10.3205 10.7803 10.2686C10.7823 10.2644 10.732 10.2223 10.7334 10.2139C10.7365 10.1965 10.7521 10.1858 10.7773 10.1904C10.7897 10.1931 10.8224 10.2395 10.834 10.2412C10.8609 10.2444 10.8772 10.2345 10.8818 10.2148C10.8822 10.2057 10.8279 10.1664 10.834 10.1592C10.875 10.1087 10.9124 10.0556 11.0205 10.0713C11.0305 10.075 11.127 10.1666 11.1152 10.1416C11.0888 10.1142 11.0569 10.0827 11.0283 10.0537C11.0794 9.97155 11.1799 9.93856 11.252 9.87695C11.252 9.87223 11.1987 9.82744 11.2041 9.82227C11.2362 9.79148 11.2529 9.74684 11.3359 9.76562C11.3441 9.76742 11.4326 9.85956 11.4287 9.83691C11.4279 9.83276 11.4299 9.80651 11.4141 9.7832C11.4116 9.7798 11.3686 9.74133 11.3701 9.73438C11.3903 9.70133 11.4281 9.68239 11.4805 9.68164C11.4893 9.68206 11.5297 9.73108 11.5361 9.73145ZM12.0889 13.8564C12.0896 13.8655 12.0181 13.9046 12.0078 13.9277C11.9892 13.97 12.1134 13.8616 12.0635 13.9355C12.0545 13.9487 11.937 14.0392 11.9287 14.043C11.9114 14.0087 12.0818 13.8074 12.0889 13.8564ZM11.752 13.8711C11.7784 13.8373 11.7325 13.862 11.6992 13.9043C11.6729 13.938 11.7187 13.9134 11.752 13.8711ZM11.4385 13.7715C11.4985 13.6916 11.3888 13.7876 11.3418 13.8486C11.2949 13.9096 11.4203 13.7958 11.4385 13.7715ZM10.6719 12.6699C10.6183 12.7169 10.627 12.7337 10.6768 12.6787C10.6787 12.6765 10.6741 12.668 10.6719 12.6699ZM10.248 12.3105C10.2055 12.3537 10.224 12.3474 10.2617 12.3057C10.2635 12.303 10.2608 12.2976 10.248 12.3105ZM10.1045 12.0781C10.0912 12.0995 10.1201 12.0741 10.1602 12.0381V12.0205C10.134 12.0464 10.108 12.0733 10.1045 12.0781ZM10.0908 11.9307C10.0015 12.0054 10.0216 12.0426 10.1016 11.9502C10.1057 11.9454 10.0954 11.927 10.0908 11.9307ZM10.1152 11.9717C10.1136 11.9959 10.1295 11.9865 10.1602 11.9629V11.9238C10.1538 11.9312 10.1155 11.9682 10.1152 11.9717ZM11.8184 9.91797C11.8206 9.91996 11.8281 9.9163 11.8262 9.91406C11.7792 9.86053 11.7634 9.86826 11.8184 9.91797Z" fill="#555961"/>
</svg>
