<svg width="16" height="16" viewBox="0 0 16 16" fill="none" xmlns="http://www.w3.org/2000/svg">
<path d="M8 1.74805C8.4676 1.74775 8.9422 1.79081 9.37793 1.96875C9.38605 1.97276 9.35798 2.03071 9.375 2.03711C9.57946 2.11672 9.55918 2.01312 9.73145 1.93262C9.77575 1.91365 9.8463 2.0818 9.85254 2.09473C9.8759 2.142 9.81481 2.22195 9.82422 2.23242C9.90089 2.31568 9.9732 2.01457 10.1035 2.05469C10.1074 2.05646 10.0739 2.10544 10.083 2.11426C10.1109 2.14157 10.1513 2.13164 10.1777 2.16113C10.2379 2.22978 10.2136 2.37913 10.3535 2.33789C10.3716 2.33076 10.4115 2.15971 10.5215 2.21094C10.5657 2.23107 10.7643 2.31155 10.8145 2.34766C10.8631 2.38188 10.8068 2.41549 10.8066 2.4209C10.9198 2.55561 10.8509 2.55893 10.873 2.69238C10.8935 2.82477 10.9918 2.57988 11.0342 2.56836C11.0768 2.55733 11.1515 2.66553 11.166 2.69824C11.1807 2.73066 11.1322 2.74589 11.1484 2.76856C11.2542 2.91745 11.2759 2.69153 11.3447 2.68164C11.5096 2.66255 11.4984 2.88404 11.5859 2.96387C11.6099 2.98569 11.6126 2.93436 11.6387 2.94629C11.7432 2.99664 11.765 3.08484 11.9023 3.11621C11.9254 3.12072 12.0809 3.09289 12.082 3.20313C12.0818 3.2188 12.0308 3.23993 12.0615 3.27832C12.1082 3.33589 12.2017 3.42767 12.2705 3.4668C12.3215 3.49576 12.3252 3.39199 12.3633 3.45899C12.38 3.48894 12.3043 3.48399 12.3379 3.53711C12.3716 3.58969 12.483 3.69273 12.5254 3.7334C12.5677 3.7734 12.5885 3.70858 12.5947 3.70899C12.6316 3.71269 12.73 3.77278 12.7383 3.78125C13.0939 4.14969 13.2845 4.58961 13.543 5.00293C13.5633 5.03504 13.6077 4.9836 13.6113 4.98828C13.6957 5.094 13.4976 5.07949 13.4873 5.18555C13.5976 5.11603 13.6014 5.17411 13.6533 5.25195C13.6782 5.28888 13.7131 5.24693 13.7197 5.24805C13.8174 5.27771 13.7454 5.36136 13.7314 5.37988C13.6809 5.44891 13.78 5.45946 13.7451 5.50586C13.7102 5.55136 13.6182 5.516 13.6504 5.5957C13.7027 5.60165 13.7921 5.49656 13.835 5.55274C14.0033 5.76707 14.0375 6.26476 14.0576 6.4668C14.0826 6.66985 14.0971 6.73599 14.0928 6.85547C14.081 7.07196 14.1644 6.98769 14.2129 7.1211C14.2585 7.25612 14.0342 7.1953 13.9873 7.21582C13.9403 7.23526 13.9898 7.25503 13.9639 7.27832C13.9379 7.30084 13.9049 7.25277 13.8955 7.30567C13.8942 7.31315 13.8945 7.32251 13.8965 7.33301C13.9098 7.39443 13.972 7.50542 14.0127 7.52637C14.1139 7.57666 14.2334 7.51751 14.1768 7.66699C14.1724 7.67439 14.1185 7.6401 14.1084 7.67188C14.0292 7.92507 13.9467 8.18302 13.8008 8.39551C13.7806 8.4236 13.7359 8.36811 13.7236 8.38379C13.5931 8.54672 13.7242 8.53118 13.7676 8.69727C13.6425 8.59022 13.5282 8.59473 13.4404 8.71582C13.3861 8.78861 13.4514 8.81821 13.4522 8.89746C13.452 8.92168 13.3716 8.94199 13.3887 8.97266C13.443 9.07438 13.5804 9.10744 13.4258 9.20215C13.419 9.20596 13.3926 9.14811 13.3721 9.16309C13.2855 9.22984 13.2808 9.29155 13.252 9.36524C13.2365 9.40433 13.2134 9.44673 13.166 9.49121C13.0593 9.59395 12.807 9.68184 12.6602 9.74707C12.5743 9.58737 12.4686 9.69087 12.4648 9.83008C12.3685 9.86982 12.2665 9.91909 12.166 9.93653C12.1315 9.94248 12.1349 9.88476 12.1289 9.88086C12.0397 9.8193 12.0357 9.94505 12.0156 9.95801C11.7949 10.0735 11.5851 10.0212 11.3672 10.1357C11.3598 10.1408 11.3579 10.2669 11.2871 10.1807C11.2833 10.1743 11.3534 10.1113 11.2451 10.1152C11.1844 10.1171 11.0932 10.0999 11 10.0908C10.928 10.0837 10.8533 10.0845 10.7891 10.1104C10.7538 10.1248 10.6649 10.2271 10.5938 10.1475C10.5843 10.1366 10.5945 10.1003 10.5811 10.0801C10.5367 10.0159 10.512 10.1432 10.46 10.0352C10.4078 9.92668 10.2998 9.84515 10.1533 9.91992C10.1487 9.9221 10.1135 10.0231 10.0674 10.0215C9.99383 10.0188 9.88921 9.99739 9.8125 9.99805C9.77623 9.9988 9.79934 10.0614 9.79297 10.0625C9.62346 10.0866 9.48717 10.0679 9.33301 10.0459C9.2644 10.0348 9.19063 10.0281 9.1084 10.0332C9.05674 10.0357 8.95075 10.1469 8.84473 10.1172C8.7229 10.0901 8.69962 9.74913 8.47949 9.95313C8.44336 9.98988 8.44117 10.0866 8.43848 10.1768C8.43279 10.299 8.43226 10.4016 8.2793 10.3975C8.1531 10.5859 8.02405 10.759 7.95899 10.9727C7.92514 11.0852 7.91209 11.2069 7.93652 11.3272C7.93949 11.3437 8.0498 11.3887 8.05078 11.4209C8.05181 11.4701 8.00442 11.5044 8.00684 11.542C8.01385 11.6545 8.06317 11.752 8.11231 11.8438C8.1317 11.88 8.15179 11.9157 8.16992 11.9531C8.19517 12.0031 8.13893 12.0135 8.17383 12.0742C8.21091 12.1349 8.29228 12.1288 8.32715 12.2188C8.3533 12.2858 8.30815 12.4425 8.38281 12.5225C8.47287 12.4144 8.52224 12.46 8.63965 12.4863C8.66207 12.491 8.66704 12.4376 8.67871 12.4375C8.68643 12.4372 8.69307 12.4383 8.69922 12.4404C8.70222 12.4419 8.71033 12.448 8.71289 12.4502C8.74404 12.4715 8.75074 12.5124 8.79102 12.5244C8.80279 12.528 8.83923 12.4985 8.85156 12.5C8.96052 12.518 8.93718 12.6919 8.92578 12.7158C8.89538 12.8165 8.96369 12.8261 8.9541 12.8926C8.94158 12.955 8.88671 12.8833 8.88574 12.9492C8.88549 12.9562 8.88592 12.9636 8.88574 12.9707C8.88414 13.0984 8.88275 13.2485 8.84473 13.3643C8.82961 13.4112 8.89716 13.4 8.89942 13.4063C8.89426 13.4353 8.88273 13.4632 8.86914 13.4883C8.82932 13.562 8.77977 13.6118 8.82422 13.709C8.51799 13.5614 8.81062 13.7901 8.62695 13.8584C8.61179 13.863 8.51043 13.744 8.52832 13.7012C8.54483 13.6595 8.62492 13.6506 8.63379 13.583C8.63885 13.5647 8.55719 13.4255 8.55078 13.417C8.53377 13.3657 8.59796 13.3809 8.66016 13.3955C8.70201 13.406 8.74164 13.4185 8.74707 13.4189C8.89711 13.4209 8.77473 13.2702 8.76465 13.252C8.73726 13.1537 8.75092 13.0771 8.71875 13.0049C8.71386 12.9943 8.70752 12.9842 8.7002 12.9746C8.66253 12.9258 8.51717 12.9752 8.50977 12.9453C8.49419 12.8878 8.5337 12.8001 8.51563 12.748C8.48345 12.7431 8.445 12.7423 8.39649 12.7471C8.33534 12.7522 8.27555 12.9207 8.20508 12.7012C8.19833 12.6861 8.17906 12.5125 8.07422 12.5098C8.06041 12.5098 8.02564 12.5421 8.01367 12.5352C7.93373 12.4866 7.92509 12.4157 7.85449 12.3477C7.7839 12.2793 7.6986 12.1883 7.66699 12.0781C7.66333 12.0655 7.6623 12.0505 7.66309 12.0352C7.66606 11.9699 7.70527 11.893 7.71485 11.8643C7.74882 11.7659 7.62718 11.7015 7.69336 11.6338C7.76154 11.5718 7.89111 11.6401 7.92285 11.5156C7.79745 11.5279 7.66784 11.5334 7.54102 11.5391C7.51811 11.3149 7.55549 11.0913 7.62207 10.8828C7.65219 10.7883 7.68752 10.6956 7.72754 10.6045C7.74371 10.568 7.66487 10.5761 7.68164 10.5352C7.75609 10.3613 7.88788 10.254 8.00293 10.1025C8.06193 10.0253 8.11626 9.92954 8.18555 9.84278C8.222 9.79702 8.26271 9.75408 8.30762 9.71875C8.46607 9.78678 8.64351 9.64378 8.8125 9.61133C8.87015 9.59982 8.87688 9.63784 8.91895 9.64063C9.07524 9.65474 8.98355 9.54561 9.02246 9.51758C9.16671 9.42704 9.22709 9.60063 9.33887 9.66699C9.35552 9.68265 9.38109 9.69174 9.41211 9.69043C9.42064 9.69015 9.52468 9.53846 9.54004 9.52735C9.63179 9.46488 9.55586 9.58043 9.61328 9.5918C9.7178 9.61256 9.79048 9.64926 9.91309 9.60449C9.94896 9.59115 10.0358 9.49517 10.1055 9.56934C10.1143 9.57922 10.1094 9.62843 10.1162 9.63281C10.2497 9.68245 10.2538 9.52286 10.3301 9.46875C10.4063 9.41488 10.5237 9.52474 10.5479 9.55664C10.6105 9.6387 10.4999 9.59179 10.4961 9.59961C10.4562 9.69565 10.5427 9.67939 10.6084 9.6875C10.6179 9.84411 10.7099 9.83467 10.6768 9.69531C10.673 9.68012 10.6218 9.69451 10.6084 9.6875C10.666 9.53385 10.7665 9.51459 10.8779 9.6582C10.9251 9.71913 10.8896 9.78886 11 9.78028C11.0108 9.77938 11.0231 9.7773 11.0371 9.77442C11.1038 9.76019 11.0758 9.65366 11.1309 9.62207C11.2542 9.55026 11.4289 9.63111 11.5596 9.58985C11.6057 9.57504 11.5493 9.52611 11.5791 9.51367C11.6593 9.48102 11.7444 9.50607 11.8213 9.45996C11.8278 9.45539 11.7926 9.40176 11.8174 9.39356C12.004 9.3294 12.1796 9.30026 12.3633 9.20117C12.4528 9.1539 12.5826 9.02784 12.666 8.9707C12.7126 8.93967 12.7668 8.91146 12.8213 8.88086C12.9387 8.81552 13.0603 8.73871 13.1152 8.64746C13.167 8.56068 13.1041 8.54002 13.0947 8.48242C13.0745 8.3744 13.2676 8.33771 13.2979 8.3291C13.2992 8.32891 13.2682 8.40893 13.3184 8.38672C13.3891 8.39716 13.2977 8.32983 13.2979 8.3291C13.3181 8.32651 13.409 8.18182 13.4102 8.14551C13.4109 8.12645 13.3539 8.11183 13.3555 8.10254C13.3941 7.88158 13.4293 7.68048 13.4727 7.46973C13.4741 7.46605 13.5387 7.47653 13.542 7.46777C13.5569 7.41814 13.5528 7.37327 13.5391 7.33301C13.5179 7.26286 13.4754 7.20225 13.4434 7.13379C13.3904 7.02055 13.3979 6.93129 13.502 6.84961C13.4783 6.76275 13.5085 6.63015 13.5244 6.55078C13.5403 6.47189 13.4146 6.48581 13.4092 6.48047C13.2894 6.30272 13.3315 6.17652 13.2773 5.97363C13.2523 5.87753 13.164 5.69993 13.1074 5.6084C13.0634 5.53616 13.0682 5.47741 13.0166 5.41602C13.0092 5.40877 12.9661 5.44064 12.9609 5.44043C12.8619 5.39477 13.0037 5.36819 13.0176 5.34082C13.0673 5.24163 13.0898 5.18001 12.9961 5.10156C12.9741 5.08271 12.7633 5.1198 12.7295 5.08789C12.6858 5.04535 12.7578 5.02615 12.709 4.98242C12.7044 4.97913 12.6691 5.003 12.6494 4.9707C12.5574 4.81664 12.4584 4.64211 12.332 4.50098C12.3149 4.48255 12.283 4.55197 12.2578 4.52539C12.1391 4.40017 12.0097 4.26332 11.9082 4.12402C11.8835 4.08976 11.9356 4.07148 11.9395 4.05469C11.9573 3.95119 11.8116 3.99221 11.7998 3.98633C11.5251 3.83043 11.3999 3.59355 11.0957 3.46875C11.0777 3.46157 10.895 3.51176 10.9014 3.38086C10.9022 3.3697 10.9075 3.23834 10.8223 3.28516C10.8171 3.28898 10.8195 3.35932 10.7666 3.32422C10.7128 3.28838 10.6026 3.27857 10.5518 3.17969C10.5362 3.14856 10.5241 3.01006 10.4072 3.06348C10.398 3.06645 10.1976 3.21667 10.2109 3.06152C10.2134 3.0357 10.278 2.89158 10.1533 2.93067C10.1302 2.9389 10.1494 2.98335 10.0947 2.98633C10.0113 2.99117 9.92695 2.91757 9.81543 2.95606C9.79481 2.96359 9.69921 3.04423 9.66895 2.95117C9.66409 2.93656 9.69414 2.89126 9.66797 2.87695C9.53887 2.81034 9.38433 2.80827 9.25098 2.74317C9.20348 2.7201 9.24646 2.64143 9.19727 2.6084C9.14779 2.5752 9.04237 2.53464 8.97949 2.56445C8.91713 2.59436 8.95731 2.73778 8.87305 2.73633C8.57919 2.73254 8.29533 2.66747 8 2.64258C7.93113 2.63669 7.86217 2.63338 7.79297 2.63379C7.73958 2.63431 7.7849 2.68064 7.70703 2.68555C7.41714 2.69991 6.94104 2.82241 6.67383 2.78906C6.45655 2.76066 6.68879 2.6342 6.52735 2.64258C6.44825 2.64825 6.41457 2.82304 6.39942 2.83301C6.24701 2.93355 6.10912 2.90971 5.96875 2.98926C5.94046 3.00585 5.99407 3.0531 5.96973 3.06641C5.8871 3.11235 5.78448 3.12637 5.70508 3.16992C5.67035 3.18973 5.69771 3.23044 5.66309 3.24317C5.58021 3.27448 5.50173 3.29205 5.40332 3.29395C5.3942 3.29421 5.41231 3.21466 5.35254 3.24512C5.25655 3.29438 5.11593 3.32524 5.03613 3.43262C5.01257 3.46485 5.07318 3.55914 4.96485 3.53906C4.9423 3.53498 4.88292 3.41198 4.87305 3.56055C4.86992 3.58645 4.83935 3.80058 4.71973 3.7666C4.68743 3.75718 4.57982 3.70338 4.55567 3.74512C4.55281 3.75108 4.60876 3.78287 4.58399 3.81055C4.49645 3.90709 4.39064 3.99125 4.30762 4.0957C4.28569 4.12361 4.36623 4.13309 4.33301 4.17285C4.30991 4.20046 4.28421 4.22889 4.25684 4.25684C4.17525 4.33997 4.08004 4.42287 4 4.49219C3.96064 4.52612 3.94514 4.46579 3.93848 4.46485C3.82925 4.45153 3.89955 4.5593 3.89258 4.5791C3.84619 4.70222 3.74287 4.74147 3.68653 4.84375C3.67115 4.87169 3.7302 4.88825 3.73145 4.89649C3.73498 4.97896 3.67814 4.87825 3.64453 4.90527C3.55013 4.98119 3.48194 5.09358 3.42676 5.19824C3.40661 5.23674 3.48918 5.23079 3.4707 5.26465C3.36297 5.46541 3.24991 5.67093 3.12598 5.86035C3.10254 5.89605 3.06431 5.85118 3.04981 5.85449C2.94875 5.87827 3.01951 6.00588 3.02246 6.02832C3.03464 6.13275 2.97935 6.14992 2.95996 6.23047C2.86508 6.62133 2.73134 7.09444 2.67774 7.47168C2.64989 7.65862 2.6291 7.83131 2.61719 8C2.59845 8.27258 2.60183 8.5361 2.6543 8.82617C2.66005 8.85533 2.72364 8.8151 2.72949 8.83985C2.79834 9.16459 2.85294 9.49041 2.98438 9.79785C2.99504 9.82293 3.04429 9.76381 3.06348 9.80274C3.10321 9.88265 3.14102 9.98822 3.15723 10.0791C3.1648 10.1229 3.09021 10.0913 3.09961 10.1357C3.1217 10.2398 3.16542 10.3438 3.22363 10.4346C3.24855 10.473 3.27713 10.3818 3.30469 10.4336C3.4954 10.7858 3.71957 11.1007 3.91602 11.4678C3.92945 11.4928 3.84202 11.6014 3.90235 11.6299C3.93382 11.608 3.96736 11.5782 3.99903 11.5527C4.0723 11.6293 4.14601 11.7047 4.2207 11.7793C4.55977 12.1178 4.92289 12.4378 5.34375 12.6836C5.36523 12.6961 5.36407 12.6118 5.40528 12.6348C5.64703 12.7709 5.89619 12.8645 6.1377 13.0313C6.16185 13.0476 6.10425 13.1636 6.19141 13.1738C6.20702 13.1759 6.33435 13.1997 6.37402 13.1826C6.37881 13.1766 6.37629 13.1172 6.41406 13.127C6.6418 13.1881 6.87775 13.2579 7.10547 13.333C7.14214 13.3453 7.0918 13.4019 7.11817 13.4111C7.30719 13.4763 7.52399 13.4503 7.70801 13.5176C7.83233 13.5624 7.78142 13.6699 7.84766 13.7803C7.85719 13.796 7.93953 13.8003 7.94336 13.8633C7.95339 14.0219 7.9095 14.1951 7.92481 14.3643C7.92853 14.4005 8.04886 14.3622 7.97754 14.4492C7.97254 14.4552 7.88353 14.4836 7.86035 14.5127C7.8445 14.533 7.87109 14.5983 7.83887 14.624C7.80623 14.6496 7.77251 14.5945 7.71875 14.623C7.66465 14.6519 7.68436 14.727 7.57715 14.7295C7.32689 14.7346 7.00178 14.6725 6.76465 14.5977C6.69078 14.5745 6.73657 14.5425 6.68652 14.5244C6.58818 14.4888 6.48941 14.4868 6.39453 14.4443C6.36326 14.43 6.41861 14.3788 6.38574 14.3652C6.20655 14.291 6.02798 14.2542 5.84863 14.1777C4.96841 13.8005 4.17576 13.2815 3.51367 12.5967C3.49592 12.5783 3.47769 12.5597 3.45996 12.54C3.2591 12.3191 3.07034 12.029 2.87695 11.8057C2.85226 11.7781 2.82137 11.8282 2.81348 11.8252C2.69041 11.7747 2.80212 11.7398 2.77246 11.6719C2.65278 11.4007 2.49373 11.1251 2.34863 10.8867C2.28724 10.7861 2.24215 10.9406 2.24414 10.8057C2.24523 10.7966 2.31025 10.7973 2.30176 10.7656C2.2819 10.6936 2.21529 10.5717 2.19727 10.5176C2.1626 10.4134 2.1546 10.3972 2.11719 10.3008C2.06674 10.1684 2.03852 10.0007 1.98145 9.86035C1.96906 9.83029 1.92436 9.88863 1.89942 9.8418C1.87424 9.79484 1.84156 9.66105 1.84375 9.61231C1.84577 9.56413 1.89626 9.57082 1.90528 9.56055C1.97698 9.47412 1.81867 9.35041 1.81153 9.33008C1.68165 8.97549 1.71358 8.64441 1.69629 8.29883C1.69153 8.20102 1.68564 8.1007 1.68164 8C1.67479 7.82943 1.67385 7.65796 1.68848 7.5C1.71708 7.20028 1.78668 6.95367 1.8418 6.66895C1.84756 6.63903 1.77097 6.65913 1.77832 6.62207C1.85716 6.22768 1.98913 5.84462 2.19043 5.49805C2.21067 5.46347 2.24694 5.53453 2.27051 5.50195C2.41269 5.29689 2.69346 5.03204 2.53613 4.77149C2.62906 4.63405 2.74849 4.47089 2.87793 4.38281C2.96121 4.32652 2.96271 4.43983 3.00684 4.33008C3.0169 4.30544 2.94959 4.29725 2.96875 4.2627C3.05001 4.1168 3.17856 3.98789 3.26367 3.84473C3.28001 3.81593 3.23615 3.78802 3.23438 3.77442C3.23023 3.66195 3.41565 3.65031 3.44238 3.63672C3.48665 3.61244 3.5257 3.58711 3.56153 3.56152C3.68921 3.47067 3.77441 3.3692 3.89551 3.26563C3.9316 3.23501 3.84253 3.21716 3.87598 3.18555C4.05046 3.02239 4.25327 2.87651 4.46387 2.77246C4.51045 2.75004 4.50533 2.82658 4.5293 2.81836C4.63388 2.7823 4.59223 2.67299 4.69434 2.63867C4.71538 2.63171 4.73168 2.68043 4.73828 2.68457C4.83762 2.7288 4.81915 2.59281 4.83203 2.58203C4.99024 2.4462 5.16743 2.50261 5.33301 2.40235C5.35311 2.39018 5.27731 2.35291 5.33594 2.32227C5.72665 2.11789 6.18093 1.98165 6.61426 1.9375C6.68161 1.93059 6.64583 1.98915 6.65137 1.99414C6.73809 2.07223 6.7545 1.93884 6.77539 1.92969C6.93895 1.86151 7.11197 1.9431 7.20899 1.77832C7.47386 1.76372 7.73676 1.74808 8 1.74805ZM8.13477 13.9209C8.34436 13.9143 8.6359 14.0638 8.30664 14.1426C8.25134 14.1508 8.40461 14.0296 8.3291 14.0254C8.207 14.0141 8.12848 14.1879 7.99414 14.0898C7.97844 14.0736 8.12784 13.923 8.13477 13.9199V13.9209ZM7.58106 13.8018C7.61723 13.7331 7.50178 13.7183 7.52051 13.7939C7.52533 13.7972 7.57682 13.804 7.58106 13.8018ZM8.76856 12.7676C8.79126 12.7161 8.69593 12.665 8.67481 12.7285C8.6565 12.7752 8.73874 12.8255 8.76856 12.7676ZM8.01367 12.0781C8.02299 11.9322 7.72462 12.044 7.85547 12.1543C7.86325 12.1607 8.01263 12.0874 8.01367 12.0781ZM7.70508 10.8027C7.66163 10.8291 7.66446 10.8687 7.68555 10.8994C7.71276 10.9394 7.76994 10.9653 7.79102 10.9502C7.79876 10.9447 7.80558 10.9391 7.81152 10.9336C7.89929 10.8555 7.79964 10.7497 7.70508 10.8027ZM13.8174 6.0166C13.7403 6.00507 13.7666 6.12148 13.8311 6.07813C13.8335 6.07595 13.8212 6.0206 13.8174 6.0166ZM11.4854 3.04395C11.4551 3.09661 11.5148 3.11496 11.5293 3.05762C11.5302 3.05415 11.4948 3.02754 11.4854 3.04395ZM9.05567 1.9668C8.96562 2.06989 9.24315 2.12854 9.20313 1.99805C9.19794 1.99055 9.06393 1.96224 9.05567 1.9668Z" fill="#555961"/>
<path d="M5.73438 5.81571C5.75863 5.73585 5.77991 5.88462 5.78027 5.9075C5.77891 5.9091 5.76167 5.92218 5.76758 5.9534C5.76627 6.01745 5.77924 5.91367 5.78027 5.9075C5.78206 5.92216 5.8139 5.93947 5.82227 5.92899C5.82689 5.92182 5.83361 5.86547 5.83594 5.86356C5.89242 5.81892 5.94986 5.81615 5.99219 5.85672C5.99142 5.86205 5.97326 5.92077 5.97461 5.92313C5.99319 5.95836 6.03407 5.88711 6.07422 5.85086C6.11389 5.81482 6.12949 5.83845 6.09961 5.94754C6.12182 5.9413 6.1257 5.99744 6.125 6.03055C6.12446 6.06299 6.18216 5.95015 6.18457 5.94852C6.25864 5.89536 6.24746 5.97271 6.27734 6.00418C6.29179 6.01938 6.33564 6.02546 6.36231 6.02762C6.38358 6.02908 6.37479 6.06009 6.39942 6.05496C6.4032 6.05361 6.43563 6.00743 6.4375 6.00614C6.49444 5.96513 6.40108 6.06838 6.38867 6.09012C6.34317 6.16904 6.31793 6.21037 6.36133 6.19168C6.37088 6.18691 6.51315 6.04695 6.53027 6.0452C6.55059 6.04364 6.49847 6.09323 6.52051 6.09012C6.52234 6.08992 6.55189 6.05807 6.55762 6.06473C6.56354 6.07321 6.56925 6.08325 6.57422 6.09305C6.58967 6.12348 6.60184 6.1569 6.625 6.17899C6.62914 6.18316 6.67749 6.1324 6.68457 6.13797C6.71768 6.16415 6.74445 6.20292 6.74024 6.25418C6.73897 6.26693 6.69442 6.29011 6.68359 6.30008C6.61978 6.3577 6.72847 6.30492 6.73731 6.30399C6.82905 6.33306 6.75439 6.43653 6.83301 6.47684C6.83722 6.47808 6.97685 6.45511 6.87305 6.51297C6.86565 6.51753 6.7592 6.57293 6.83984 6.55399C6.84555 6.55255 6.89925 6.52294 6.89942 6.53836C6.89864 6.55417 6.94619 6.56523 6.8877 6.60574C6.86941 6.61904 6.75857 6.66643 6.85547 6.65653C6.86788 6.65372 7.07644 6.62822 6.93652 6.67606C6.91216 6.68416 6.76038 6.72075 6.84375 6.72196C6.86002 6.72225 6.89214 6.70735 6.91602 6.71317C6.95316 6.72311 6.91701 6.75381 6.99024 6.76297C7.00457 6.76411 7.11099 6.76397 7.0332 6.79031C7.02084 6.79433 6.96868 6.79921 6.96387 6.80692C6.9407 6.84282 6.979 6.87285 6.94531 6.90848C6.93331 6.9208 6.84759 6.92069 6.8252 6.93289C6.80304 6.94529 6.7821 6.96734 6.82129 6.97781C6.86086 6.98858 6.99535 6.9732 7.00684 6.99246C7.00825 6.99499 7.00956 6.99774 7.01074 7.00028C7.04937 7.08567 6.96617 7.16473 6.94043 7.23953C6.9379 7.2508 6.98614 7.25049 6.9834 7.26883C6.97515 7.3357 6.98036 7.4705 6.86133 7.48563C6.76795 7.49482 6.73076 7.4208 6.6875 7.4368C6.66815 7.44325 6.80022 7.52125 6.80664 7.52957C6.83546 7.58736 6.7608 7.58095 6.7627 7.62137C6.76498 7.63037 6.82182 7.65534 6.82129 7.66239C6.81943 7.68729 6.78328 7.69279 6.77637 7.71317C6.77376 7.72258 6.81476 7.74771 6.80664 7.75321C6.78764 7.76642 6.75959 7.77079 6.71094 7.76004C6.70624 7.7585 6.66488 7.71438 6.6543 7.72391C6.63744 7.74102 6.58477 7.73468 6.60352 7.78446C6.60935 7.79935 6.69397 7.87303 6.62402 7.83621C6.60929 7.82852 6.51185 7.73592 6.58496 7.82742C6.59804 7.84187 6.68736 7.97606 6.60254 7.91922C6.5913 7.91148 6.56272 7.88951 6.53906 7.87235C6.51616 7.85579 6.49732 7.84358 6.5 7.85281C6.50227 7.85671 6.54595 7.8945 6.54492 7.90457C6.53784 7.93881 6.51084 7.9548 6.5 7.98856C6.49716 7.99781 6.54704 8.0376 6.54102 8.05008C6.52413 8.08473 6.47817 8.09959 6.43945 8.10281C6.4252 8.10339 6.40364 8.05672 6.39942 8.05203C6.33645 7.98469 6.39874 8.09105 6.39844 8.09988C6.39705 8.15204 6.34738 8.11569 6.33203 8.14188C6.32767 8.14902 6.3598 8.19564 6.36231 8.20242C6.3736 8.25493 6.33169 8.15786 6.31738 8.15262C6.27749 8.13757 6.25392 8.15544 6.23242 8.1741C6.22591 8.18215 6.2636 8.23605 6.25684 8.24246C6.21109 8.27725 6.15172 8.29441 6.08887 8.27567C6.07715 8.27204 6.06724 8.22077 6.06152 8.20926C6.02327 8.13393 6.0382 8.24751 6.03613 8.26004C6.0288 8.3137 6.00755 8.27188 5.99121 8.28446C5.90884 8.35053 5.78047 8.33679 5.69238 8.31863C5.68374 8.31699 5.67531 8.31483 5.66699 8.31278C5.56296 8.28649 5.4885 8.23577 5.3916 8.22684C5.38489 8.22763 5.37631 8.29601 5.37012 8.29617C5.28849 8.29465 5.22277 8.24399 5.14258 8.23172C5.1359 8.23053 5.11841 8.29525 5.10645 8.2952C5.0818 8.29533 5.05681 8.28003 5.0459 8.25125C5.04064 8.23727 5.07862 8.19289 5.07324 8.17996C5.06094 8.1501 5.04131 8.13355 5.01465 8.13016C5.00303 8.1288 4.98261 8.19633 4.96973 8.18973C4.88193 8.14633 4.79083 8.09204 4.7793 7.96219C4.7784 7.95317 4.86786 7.84906 4.84082 7.85965C4.81373 7.88649 4.78247 7.91947 4.75391 7.94852C4.74705 7.94375 4.74082 7.93815 4.73438 7.93289C4.63276 7.8495 4.5886 7.7189 4.53613 7.60574C4.53369 7.60054 4.47442 7.64293 4.46875 7.63309C4.43875 7.57414 4.39244 7.51825 4.43848 7.43094C4.44506 7.42192 4.56468 7.38349 4.54102 7.37332C4.53644 7.37139 4.51189 7.35187 4.4834 7.35281C4.47717 7.35387 4.42319 7.3748 4.41895 7.36649C4.39487 7.31691 4.39598 7.25616 4.42383 7.19852C4.42906 7.18951 4.4909 7.18813 4.49609 7.18192C4.52339 7.1381 4.47062 7.09806 4.52637 7.05692C4.56414 7.03052 4.67523 7.03546 4.7832 7.02176C4.79819 7.01983 4.80078 7.00815 4.86328 7.00711C5.02169 7.00475 5.19541 7.00648 5.36426 7.00321C5.40057 7.00258 5.36188 6.99779 5.44922 7.00028C5.4551 7.0005 5.48481 7.00346 5.51465 7.00321C5.5353 7.00303 5.59958 7.00159 5.62598 7.00125C5.62732 7.00119 5.6287 7.00131 5.62988 7.00125C5.64082 7.00087 5.65654 6.99906 5.67285 6.99832C5.66534 6.99973 5.6591 7.00167 5.65625 7.00223C5.64114 7.00549 5.65948 7.00172 5.6416 7.00614C5.63317 7.0083 5.57413 7.02211 5.56934 7.02371C5.54371 7.03313 5.55949 7.03219 5.54785 7.03934C5.49109 7.07779 5.48501 7.11984 5.48633 7.16336C5.48653 7.16822 5.48356 7.17736 5.48047 7.1868C5.47405 7.20563 5.46957 7.228 5.48731 7.22098C5.49163 7.21796 5.52433 7.17544 5.52734 7.17215C5.57294 7.12068 5.50264 7.20733 5.49609 7.22098C5.47025 7.2745 5.48381 7.28956 5.50586 7.27762C5.51535 7.27235 5.56516 7.17474 5.53906 7.23074C5.5368 7.23554 5.50748 7.28511 5.50586 7.29129C5.50241 7.30531 5.51322 7.29957 5.51367 7.30496C5.5146 7.31554 5.51596 7.31583 5.52051 7.31864C5.52641 7.32292 5.52434 7.35323 5.53711 7.34403C5.53978 7.34181 5.5587 7.28445 5.56445 7.27567C5.57013 7.26692 5.57366 7.27424 5.57129 7.28836C5.56862 7.30301 5.5537 7.34737 5.55078 7.3577C5.52734 7.44532 5.57426 7.32752 5.5752 7.32449C5.60576 7.27813 5.60388 7.34983 5.62402 7.35281C5.63841 7.35424 5.65471 7.33246 5.66699 7.33524C5.68163 7.33947 5.69817 7.3702 5.71387 7.36258C5.71445 7.35677 5.70454 7.29225 5.70606 7.29129C5.7226 7.28087 5.73784 7.28556 5.77149 7.32449C5.77501 7.32845 5.79192 7.3884 5.79688 7.39578C5.82425 7.44105 5.90731 7.53932 5.80078 7.29031C5.81258 7.29648 5.8262 7.30193 5.86035 7.345C5.88267 7.37262 5.91147 7.43434 5.9043 7.40555C5.90261 7.39908 5.87067 7.34872 5.87012 7.34305C5.86751 7.31985 5.88671 7.32952 5.87695 7.2991C5.87399 7.29189 5.84468 7.25135 5.83887 7.24246C5.79626 7.17777 5.87621 7.27757 5.88379 7.28348C5.93572 7.33051 5.92775 7.30185 5.9375 7.2952C5.93795 7.29205 5.89244 7.24634 5.88965 7.24051C5.89024 7.23507 5.89199 7.23112 5.89551 7.22879C5.90202 7.22455 5.91393 7.22541 5.93457 7.2327C5.94187 7.23529 5.98624 7.27741 5.99219 7.28055C6.01811 7.29282 5.93148 7.21838 5.9541 7.22977C5.9598 7.23286 5.99817 7.26532 6.00293 7.26883C6.07598 7.32105 5.97848 7.23872 5.97656 7.2366C5.95378 7.20603 6.0658 7.27512 6.05859 7.25223C6.05744 7.24966 6.00119 7.21748 6 7.21219C5.99877 7.18015 6.0252 7.16756 6.08496 7.15848C6.09417 7.157 6.13973 7.17802 6.14551 7.17996C6.23441 7.207 6.1227 7.16185 6.11426 7.1575C6.08528 7.13584 6.19112 7.15336 6.04688 7.10477C6.09772 7.07872 6.05733 7.0366 6.10742 7.00028C6.1198 6.99055 6.13794 6.97977 6.16406 6.96707C6.16972 6.96613 6.22781 6.96292 6.23047 6.96121C6.26405 6.93932 6.16729 6.95063 6.04785 6.95535C6.01792 6.9574 6.15967 6.93093 6.16992 6.92801C6.20809 6.91954 6.30128 6.90962 6.30859 6.9075C6.36449 6.88865 6.06426 6.93634 6.05859 6.92996C6.05905 6.92958 6.11566 6.92001 6.12109 6.91824C6.13734 6.91274 6.11531 6.91456 6.13379 6.90848C6.17725 6.89462 6.32315 6.8592 6.23535 6.86746C6.22147 6.86949 6.0553 6.91014 6.06055 6.90164C6.06321 6.89784 6.0567 6.88514 6.06641 6.87821C6.07673 6.87129 6.12842 6.85816 6.13281 6.85672C6.20036 6.82241 6.23162 6.81747 6.33399 6.77469C6.43489 6.73056 6.18883 6.81766 6.15918 6.82547C6.13094 6.83293 6.18496 6.80378 6.2041 6.79324C6.22316 6.78308 6.25814 6.77261 6.26856 6.7659C6.335 6.72098 6.14505 6.80777 6.10449 6.81961C6.0101 6.84986 6.18634 6.76589 6.19824 6.74637C6.2004 6.74226 6.16197 6.7624 6.15723 6.76199C6.13965 6.76042 6.18994 6.72788 6.13574 6.74442C6.12566 6.7471 6.0216 6.79713 6.09277 6.75028C6.10307 6.74331 6.14612 6.72043 6.15332 6.71121C6.16414 6.69747 6.16687 6.68187 6.14942 6.68485C6.13617 6.68759 6.07336 6.73554 6.09082 6.71707C6.09907 6.70852 6.14041 6.68696 6.15137 6.67313C6.16224 6.65913 6.15201 6.64816 6.14746 6.64481C6.14276 6.64178 6.0986 6.6779 6.09277 6.68192C6.07255 6.69385 6.04347 6.70583 6.04297 6.70535C6.02781 6.69237 6.03601 6.65998 6.03613 6.63016C6.03653 6.60425 6.03086 6.5802 6.00586 6.58035C6.00091 6.5819 5.96627 6.62839 5.96289 6.63211C5.93856 6.64704 6.05025 6.51859 6.07813 6.46805C5.99947 6.5715 6.01006 6.55027 5.99512 6.55692C5.98772 6.56086 5.96119 6.60055 5.95703 6.60574C5.9081 6.66462 5.96305 6.58296 5.97363 6.56571C6.01321 6.50279 5.95938 6.57194 5.98535 6.52957C6.01004 6.48817 6.0555 6.43374 6.04981 6.42703C6.02218 6.46439 5.95903 6.56739 5.94336 6.58133C5.8878 6.6335 5.90714 6.53501 5.89356 6.51785C5.88229 6.50177 5.87315 6.5079 5.87012 6.48856C5.86379 6.45382 5.838 6.53957 5.81543 6.57547C5.79356 6.61148 5.86785 6.40407 5.88184 6.3577C5.89502 6.31183 5.87803 6.35702 5.88379 6.33133C5.88938 6.30589 5.90425 6.27738 5.90137 6.2659C5.8976 6.25432 5.85659 6.3305 5.8418 6.37821C5.80975 6.47855 5.78528 6.58627 5.78516 6.54715C5.7851 6.54474 5.80186 6.4881 5.80078 6.48172C5.79098 6.43319 5.76847 6.42535 5.75 6.38309C5.74735 6.37713 5.75845 6.31308 5.75684 6.30887C5.73896 6.26509 5.73378 6.37451 5.71289 6.49442C5.73015 6.33433 5.73253 6.23466 5.71289 6.23172C5.70135 6.23044 5.69968 6.30137 5.69141 6.35086C5.6891 6.36579 5.68275 6.31766 5.68067 6.35086C5.6746 6.45906 5.67828 6.57997 5.66699 6.5325V6.47391C5.66686 6.47054 5.66634 6.468 5.66602 6.46707C5.65191 6.44363 5.65297 6.55702 5.64258 6.57156C5.63484 6.58269 5.61119 6.51596 5.59668 6.50614C5.57219 6.32598 5.56094 6.36928 5.57813 6.49344C5.56927 6.49006 5.5622 6.4985 5.55078 6.48367C5.54676 6.47853 5.53677 6.42673 5.53516 6.42117C5.50913 6.3364 5.53208 6.45319 5.53223 6.46024C5.52552 6.5098 5.48147 6.42704 5.49317 6.51883C5.49426 6.52431 5.53578 6.64012 5.5 6.55594C5.49735 6.55022 5.48358 6.49635 5.47363 6.49344C5.46446 6.4921 5.41962 6.43708 5.43164 6.49539C5.43424 6.50973 5.47337 6.60463 5.43262 6.53543C5.4268 6.52555 5.41145 6.49304 5.40137 6.47586C5.36869 6.42156 5.42496 6.53513 5.37012 6.44168C5.31536 6.34812 5.26276 6.28445 5.28516 6.3577C5.28568 6.35992 5.33375 6.4495 5.3291 6.45047C5.32138 6.45175 5.30182 6.44039 5.29492 6.44461C5.29193 6.44705 5.32792 6.49654 5.3291 6.4993C5.32991 6.54139 5.28426 6.50575 5.24707 6.50516C5.23973 6.50536 5.28651 6.57782 5.23438 6.53446C5.17576 6.48783 4.97359 6.25424 4.99902 6.33231C5.01042 6.36865 5.28304 6.64087 5.12207 6.51883C5.13605 6.57825 5.03111 6.54558 5.06934 6.61844C5.07096 6.62171 5.1583 6.68223 5.1582 6.68582C5.15362 6.68868 5.10898 6.66495 5.10352 6.66629C5.08197 6.67286 5.11217 6.70652 5.10059 6.71707C5.09582 6.72114 5.04891 6.69689 5.04297 6.70242C5.03955 6.70913 5.09733 6.7405 5.06348 6.73563C5.03627 6.73119 4.90291 6.68471 4.88281 6.69071C5.01273 6.74259 5.0077 6.74875 5.03809 6.77274C5.04406 6.77733 5.09147 6.79124 5.09668 6.79422C5.11873 6.80627 5.07926 6.79751 5.10352 6.80985C5.10945 6.81283 5.15564 6.82813 5.16309 6.83133C5.22692 6.85802 5.12404 6.83364 5.10449 6.83035C5.03441 6.81686 5.0923 6.83745 5.06445 6.83524C5.03589 6.83346 5.00365 6.81612 4.98535 6.81864C4.94802 6.8245 4.95026 6.8465 4.94531 6.8616C4.94355 6.8678 5.00759 6.87606 5.00879 6.87723C5.02113 6.89102 4.95419 6.89451 5.07813 6.91824C4.75129 6.88232 5.1087 6.92889 5.04199 6.93582C5.03658 6.93635 4.88144 6.92309 4.85938 6.91434C4.83768 6.9054 4.8866 6.90225 4.85254 6.88895C4.84401 6.88618 4.70166 6.85178 4.69336 6.84793C4.62962 6.82146 4.8544 6.85832 4.87012 6.86063C5.00704 6.87785 4.85529 6.83552 4.8457 6.8284C4.80135 6.8001 4.83639 6.79198 4.80664 6.76785C4.78721 6.75191 4.64122 6.70883 4.64844 6.70047C4.67338 6.67127 4.87637 6.73337 4.71289 6.64383C4.67798 6.62429 4.52074 6.57077 4.65137 6.595C4.65982 6.59603 4.77681 6.62667 4.71094 6.58817C4.70266 6.58326 4.65928 6.5644 4.65527 6.56082C4.63593 6.5394 4.67417 6.5477 4.66309 6.5286C4.65176 6.50926 4.63395 6.48191 4.65527 6.47586C4.66826 6.47206 4.75276 6.50535 4.77442 6.51297C4.83515 6.53445 4.75099 6.47284 4.82031 6.50516C4.89029 6.53929 4.98721 6.60816 5.03711 6.62235C4.92921 6.55711 4.81885 6.48876 4.71094 6.42215C4.73752 6.38712 4.7946 6.37608 4.81543 6.34012C4.81614 6.33459 4.76177 6.29872 4.7627 6.29227C4.76998 6.26556 4.82099 6.27982 4.82324 6.24832C4.82466 6.22365 4.78764 6.15818 4.79102 6.12918C4.79906 6.13579 4.80667 6.14159 4.81348 6.14676C4.90073 6.21337 4.892 6.16546 4.91602 6.16043C4.92528 6.15975 4.9499 6.18873 4.96192 6.19461C5.00643 6.21636 4.91675 6.12577 4.9082 6.10672C4.87386 6.02451 5.05608 6.24293 5.07227 6.22586C5.07264 6.22518 4.99539 6.09384 4.99121 6.08231C4.96791 6.02198 5.02537 6.12381 5.04004 6.12723C5.06687 6.13358 5.09617 6.15732 5.08887 6.10867C5.08623 6.09447 5.04955 6.00427 5.09863 6.06082C5.10493 6.06819 5.12959 6.11138 5.13281 6.11453C5.17657 6.14622 5.09653 6.0079 5.08301 5.9534C5.0703 5.89938 5.14235 5.98513 5.16016 6.01199C5.20717 6.08031 5.1687 6.04748 5.17188 6.05496C5.21074 6.1429 5.21574 6.1216 5.22852 6.1243C5.30006 6.26343 5.30605 6.25027 5.24121 6.12723C5.23405 6.11389 5.23342 6.12942 5.22852 6.1243C5.16722 5.98308 5.17847 5.95576 5.25391 6.07938C5.28888 6.13752 5.31305 6.21214 5.32227 6.17703C5.32672 6.16116 5.28249 6.06272 5.28125 6.03153C5.2801 5.96036 5.34406 6.0433 5.36133 6.02176C5.36808 6.01368 5.34274 5.96051 5.34668 5.95242C5.35872 5.93202 5.38591 5.97076 5.39649 5.94461C5.39733 5.94179 5.37855 5.88529 5.38281 5.88114C5.42297 5.86366 5.46734 5.89479 5.50977 5.88992C5.53017 5.8874 5.56489 5.84934 5.58789 5.85477C5.61332 5.86053 5.64295 5.89953 5.66699 5.92117C5.6803 5.93298 5.69209 5.9399 5.70313 5.93289C5.72356 5.91969 5.72268 5.85727 5.73438 5.81571ZM4.81836 7.05789C4.74707 7.05806 4.74289 7.0763 4.81641 7.06668C4.81921 7.06582 4.82121 7.05789 4.81836 7.05789ZM4.91895 6.98367C4.93188 6.95069 5.19288 6.95852 5.16504 6.97781C5.15948 6.98202 5.08173 6.96466 5.05762 6.96903C5.01392 6.97958 5.17827 6.98985 5.08984 6.9993C5.07278 7.00186 4.92427 6.98683 4.91895 6.98367ZM5.71192 6.99149C5.74025 6.98779 5.76148 6.99135 5.74219 6.99539C5.73651 6.99649 5.70369 6.99693 5.67285 6.99832C5.68725 6.99562 5.70616 6.9922 5.71192 6.99149ZM6.22559 6.97781C6.21934 6.9785 6.21395 6.99022 6.21973 6.99051C6.33625 6.99636 6.34761 6.96624 6.22559 6.97781ZM4.89453 6.75125C4.85202 6.74273 4.89535 6.77049 4.94824 6.78055C4.99047 6.78924 4.94701 6.76263 4.89453 6.75125ZM6.29688 6.69852C6.29396 6.70007 6.29304 6.70626 6.30957 6.69852C6.36438 6.67245 6.34624 6.67234 6.29688 6.69852ZM4.8418 6.39188C4.7731 6.35643 4.90546 6.46231 4.93262 6.47586C5.0203 6.52275 4.90957 6.42886 4.8418 6.39188ZM5.99121 6.41531C5.98993 6.41799 5.99354 6.42365 5.99512 6.42117C6.03339 6.36146 6.02427 6.34973 5.99121 6.41531Z" fill="#555961"/>
<path d="M8.40104 3.81571C8.4253 3.73585 8.44657 3.88462 8.44694 3.9075C8.44558 3.9091 8.42834 3.92218 8.43424 3.9534C8.43293 4.01745 8.4459 3.91367 8.44694 3.9075C8.44872 3.92216 8.48056 3.93947 8.48893 3.92899C8.49356 3.92182 8.50027 3.86547 8.5026 3.86356C8.55909 3.81892 8.61653 3.81615 8.65885 3.85672C8.65809 3.86205 8.63992 3.92077 8.64127 3.92313C8.65985 3.95836 8.70074 3.88711 8.74088 3.85086C8.78055 3.81482 8.79615 3.83845 8.76627 3.94754C8.78849 3.9413 8.79236 3.99744 8.79167 4.03055C8.79112 4.06299 8.84882 3.95015 8.85124 3.94852C8.92531 3.89536 8.91412 3.97271 8.94401 4.00418C8.95845 4.01938 9.00231 4.02546 9.02897 4.02762C9.05025 4.02908 9.04145 4.06009 9.06608 4.05496C9.06986 4.05361 9.10229 4.00743 9.10417 4.00614C9.1611 3.96513 9.06775 4.06838 9.05534 4.09012C9.00984 4.16904 8.98459 4.21037 9.02799 4.19168C9.03754 4.18691 9.17982 4.04695 9.19694 4.0452C9.21725 4.04364 9.16514 4.09323 9.18717 4.09012C9.189 4.08992 9.21856 4.05807 9.22428 4.06473C9.2302 4.07321 9.23591 4.08325 9.24088 4.09305C9.25633 4.12348 9.26851 4.1569 9.29167 4.17899C9.2958 4.18316 9.34416 4.1324 9.35124 4.13797C9.38434 4.16415 9.41111 4.20292 9.4069 4.25418C9.40563 4.26693 9.36108 4.29011 9.35026 4.30008C9.28644 4.3577 9.39513 4.30492 9.40397 4.30399C9.49572 4.33306 9.42105 4.43653 9.49967 4.47684C9.50388 4.47808 9.64351 4.45511 9.53971 4.51297C9.53231 4.51753 9.42586 4.57293 9.50651 4.55399C9.51221 4.55255 9.56591 4.52294 9.56608 4.53836C9.56531 4.55417 9.61286 4.56523 9.55436 4.60574C9.53608 4.61904 9.42524 4.66643 9.52213 4.65653C9.53455 4.65372 9.7431 4.62822 9.60319 4.67606C9.57883 4.68416 9.42704 4.72075 9.51042 4.72196C9.52668 4.72225 9.55881 4.70735 9.58268 4.71317C9.61982 4.72311 9.58368 4.75381 9.6569 4.76297C9.67123 4.76411 9.77765 4.76397 9.69987 4.79031C9.68751 4.79433 9.63535 4.79921 9.63053 4.80692C9.60736 4.84282 9.64566 4.87285 9.61198 4.90848C9.59998 4.9208 9.51425 4.92069 9.49186 4.93289C9.4697 4.94529 9.44877 4.96734 9.48795 4.97781C9.52753 4.98858 9.66202 4.9732 9.6735 4.99246C9.67491 4.99499 9.67623 4.99774 9.67741 5.00028C9.71604 5.08567 9.63283 5.16473 9.60709 5.23953C9.60456 5.2508 9.6528 5.25049 9.65006 5.26883C9.64181 5.3357 9.64702 5.4705 9.52799 5.48563C9.43461 5.49482 9.39743 5.4208 9.35417 5.4368C9.33481 5.44325 9.46689 5.52125 9.47331 5.52957C9.50213 5.58736 9.42747 5.58095 9.42936 5.62137C9.43165 5.63037 9.48849 5.65534 9.48795 5.66239C9.4861 5.68729 9.44994 5.69279 9.44303 5.71317C9.44043 5.72258 9.48142 5.74771 9.47331 5.75321C9.4543 5.76642 9.42625 5.77079 9.3776 5.76004C9.3729 5.7585 9.33155 5.71438 9.32096 5.72391C9.3041 5.74102 9.25143 5.73468 9.27018 5.78446C9.27601 5.79935 9.36064 5.87303 9.29069 5.83621C9.27595 5.82852 9.17852 5.73592 9.25163 5.82742C9.26471 5.84187 9.35402 5.97606 9.2692 5.91922C9.25796 5.91148 9.22938 5.88951 9.20573 5.87235C9.18282 5.85579 9.16399 5.84358 9.16667 5.85281C9.16893 5.85671 9.21261 5.8945 9.21159 5.90457C9.2045 5.93881 9.1775 5.9548 9.16667 5.98856C9.16382 5.99781 9.21371 6.0376 9.20768 6.05008C9.1908 6.08473 9.14483 6.09959 9.10612 6.10281C9.09186 6.10339 9.07031 6.05672 9.06608 6.05203C9.00311 5.98469 9.0654 6.09105 9.0651 6.09988C9.06371 6.15204 9.01404 6.11569 8.9987 6.14188C8.99433 6.14902 9.02646 6.19564 9.02897 6.20242C9.04027 6.25493 8.99836 6.15786 8.98405 6.15262C8.94415 6.13757 8.92058 6.15544 8.89909 6.1741C8.89257 6.18215 8.93027 6.23605 8.9235 6.24246C8.87776 6.27725 8.81838 6.29441 8.75553 6.27567C8.74382 6.27204 8.73391 6.22077 8.72819 6.20926C8.68994 6.13393 8.70487 6.24751 8.7028 6.26004C8.69546 6.3137 8.67421 6.27188 8.65788 6.28446C8.57551 6.35053 8.44713 6.33679 8.35905 6.31863C8.35041 6.31699 8.34197 6.31483 8.33366 6.31278C8.22963 6.28649 8.15517 6.23577 8.05827 6.22684C8.05155 6.22763 8.04297 6.29601 8.03678 6.29617C7.95516 6.29465 7.88943 6.24399 7.80924 6.23172C7.80256 6.23053 7.78508 6.29525 7.77311 6.2952C7.74847 6.29533 7.72348 6.28003 7.71256 6.25125C7.7073 6.23727 7.74528 6.19289 7.73991 6.17996C7.72761 6.1501 7.70797 6.13355 7.68131 6.13016C7.66969 6.1288 7.64927 6.19633 7.63639 6.18973C7.54859 6.14633 7.45749 6.09204 7.44596 5.96219C7.44507 5.95317 7.53453 5.84906 7.50749 5.85965C7.48039 5.88649 7.44914 5.91947 7.42057 5.94852C7.41372 5.94375 7.40748 5.93815 7.40104 5.93289C7.29942 5.8495 7.25527 5.7189 7.2028 5.60574C7.20035 5.60054 7.14108 5.64293 7.13542 5.63309C7.10541 5.57414 7.0591 5.51825 7.10514 5.43094C7.11172 5.42192 7.23134 5.38349 7.20768 5.37332C7.20311 5.37139 7.17856 5.35187 7.15006 5.35281C7.14383 5.35387 7.08985 5.3748 7.08561 5.36649C7.06154 5.31691 7.06264 5.25616 7.09049 5.19852C7.09572 5.18951 7.15756 5.18813 7.16276 5.18192C7.19005 5.1381 7.13729 5.09806 7.19303 5.05692C7.23081 5.03052 7.3419 5.03546 7.44987 5.02176C7.46486 5.01983 7.46745 5.00815 7.52995 5.00711C7.68836 5.00475 7.86207 5.00648 8.03092 5.00321C8.06724 5.00258 8.02854 4.99779 8.11588 5.00028C8.12177 5.0005 8.15147 5.00346 8.18131 5.00321C8.20197 5.00303 8.26625 5.00159 8.29264 5.00125C8.29399 5.00119 8.29537 5.00131 8.29655 5.00125C8.30748 5.00087 8.3232 4.99906 8.33952 4.99832C8.33201 4.99973 8.32576 5.00167 8.32292 5.00223C8.3078 5.00549 8.32614 5.00172 8.30827 5.00614C8.29983 5.0083 8.2408 5.02211 8.236 5.02371C8.21037 5.03313 8.22616 5.03219 8.21452 5.03934C8.15775 5.07779 8.15167 5.11984 8.15299 5.16336C8.15319 5.16822 8.15023 5.17736 8.14713 5.1868C8.14071 5.20563 8.13624 5.228 8.15397 5.22098C8.15829 5.21796 8.19099 5.17544 8.19401 5.17215C8.2396 5.12068 8.1693 5.20733 8.16276 5.22098C8.13692 5.2745 8.15047 5.28956 8.17252 5.27762C8.18202 5.27235 8.23182 5.17474 8.20573 5.23074C8.20347 5.23554 8.17415 5.28511 8.17252 5.29129C8.16908 5.30531 8.17989 5.29957 8.18034 5.30496C8.18127 5.31554 8.18263 5.31583 8.18717 5.31864C8.19307 5.32292 8.191 5.35323 8.20377 5.34403C8.20645 5.34181 8.22536 5.28445 8.23112 5.27567C8.2368 5.26692 8.24033 5.27424 8.23795 5.28836C8.23528 5.30301 8.22037 5.34737 8.21745 5.3577C8.194 5.44532 8.24093 5.32752 8.24186 5.32449C8.27243 5.27813 8.27054 5.34983 8.29069 5.35281C8.30507 5.35424 8.32138 5.33246 8.33366 5.33524C8.34829 5.33947 8.36484 5.3702 8.38053 5.36258C8.38111 5.35677 8.3712 5.29225 8.37272 5.29129C8.38927 5.28087 8.4045 5.28556 8.43815 5.32449C8.44167 5.32845 8.45858 5.3884 8.46354 5.39578C8.49092 5.44105 8.57398 5.53932 8.46745 5.29031C8.47924 5.29648 8.49286 5.30193 8.52702 5.345C8.54933 5.37262 8.57813 5.43434 8.57096 5.40555C8.56927 5.39908 8.53733 5.34872 8.53678 5.34305C8.53418 5.31985 8.55338 5.32952 8.54362 5.2991C8.54066 5.29189 8.51134 5.25135 8.50553 5.24246C8.46293 5.17777 8.54287 5.27757 8.55045 5.28348C8.60239 5.33051 8.59441 5.30185 8.60417 5.2952C8.60462 5.29205 8.5591 5.24634 8.55631 5.24051C8.5569 5.23507 8.55865 5.23112 8.56217 5.22879C8.56868 5.22455 8.5806 5.22541 8.60124 5.2327C8.60853 5.23529 8.6529 5.27741 8.65885 5.28055C8.68477 5.29282 8.59815 5.21838 8.62077 5.22977C8.62647 5.23286 8.66483 5.26532 8.66959 5.26883C8.74265 5.32105 8.64514 5.23872 8.64323 5.2366C8.62044 5.20603 8.73247 5.27512 8.72526 5.25223C8.72411 5.24966 8.66785 5.21748 8.66667 5.21219C8.66543 5.18015 8.69187 5.16756 8.75163 5.15848C8.76084 5.157 8.80639 5.17802 8.81217 5.17996C8.90107 5.207 8.78937 5.16185 8.78092 5.1575C8.75195 5.13584 8.85779 5.15336 8.71354 5.10477C8.76438 5.07872 8.724 5.0366 8.77409 5.00028C8.78646 4.99055 8.8046 4.97977 8.83073 4.96707C8.83639 4.96613 8.89447 4.96292 8.89713 4.96121C8.93071 4.93932 8.83395 4.95063 8.71452 4.95535C8.68458 4.9574 8.82634 4.93093 8.83659 4.92801C8.87476 4.91954 8.96795 4.90962 8.97526 4.9075C9.03116 4.88865 8.73092 4.93634 8.72526 4.92996C8.72571 4.92958 8.78233 4.92001 8.78776 4.91824C8.80401 4.91274 8.78198 4.91456 8.80045 4.90848C8.84391 4.89462 8.98982 4.8592 8.90202 4.86746C8.88813 4.86949 8.72196 4.91014 8.72721 4.90164C8.72988 4.89784 8.72336 4.88514 8.73307 4.87821C8.74339 4.87129 8.79509 4.85816 8.79948 4.85672C8.86703 4.82241 8.89828 4.81747 9.00065 4.77469C9.10156 4.73056 8.85549 4.81766 8.82584 4.82547C8.7976 4.83293 8.85163 4.80378 8.87077 4.79324C8.88983 4.78308 8.9248 4.77261 8.93522 4.7659C9.00167 4.72098 8.81171 4.80777 8.77116 4.81961C8.67676 4.84986 8.853 4.76589 8.86491 4.74637C8.86707 4.74226 8.82863 4.7624 8.82389 4.76199C8.80631 4.76042 8.85661 4.72788 8.80241 4.74442C8.79233 4.7471 8.68827 4.79713 8.75944 4.75028C8.76973 4.74331 8.81278 4.72043 8.81999 4.71121C8.83081 4.69747 8.83353 4.68187 8.81608 4.68485C8.80283 4.68759 8.74003 4.73554 8.75749 4.71707C8.76573 4.70852 8.80708 4.68696 8.81803 4.67313C8.82891 4.65913 8.81867 4.64816 8.81413 4.64481C8.80942 4.64178 8.76527 4.6779 8.75944 4.68192C8.73921 4.69385 8.71013 4.70583 8.70963 4.70535C8.69447 4.69237 8.70267 4.65998 8.7028 4.63016C8.70319 4.60425 8.69753 4.5802 8.67252 4.58035C8.66757 4.5819 8.63294 4.62839 8.62956 4.63211C8.60522 4.64704 8.71692 4.51859 8.74479 4.46805C8.66614 4.5715 8.67673 4.55027 8.66178 4.55692C8.65438 4.56086 8.62785 4.60055 8.6237 4.60574C8.57476 4.66462 8.62971 4.58296 8.6403 4.56571C8.67987 4.50279 8.62605 4.57194 8.65202 4.52957C8.6767 4.48817 8.72217 4.43374 8.71647 4.42703C8.68885 4.46439 8.6257 4.56739 8.61002 4.58133C8.55447 4.6335 8.57381 4.53501 8.56022 4.51785C8.54896 4.50177 8.53982 4.5079 8.53678 4.48856C8.53045 4.45382 8.50466 4.53957 8.48209 4.57547C8.46022 4.61148 8.53452 4.40407 8.5485 4.3577C8.56168 4.31183 8.5447 4.35702 8.55045 4.33133C8.55604 4.30589 8.57092 4.27738 8.56803 4.2659C8.56426 4.25432 8.52326 4.3305 8.50846 4.37821C8.47642 4.47855 8.45194 4.58627 8.45182 4.54715C8.45176 4.54474 8.46852 4.4881 8.46745 4.48172C8.45764 4.43319 8.43514 4.42535 8.41667 4.38309C8.41401 4.37713 8.42511 4.31308 8.4235 4.30887C8.40563 4.26509 8.40044 4.37451 8.37956 4.49442C8.39681 4.33433 8.3992 4.23466 8.37956 4.23172C8.36802 4.23044 8.36635 4.30137 8.35807 4.35086C8.35577 4.36579 8.34942 4.31766 8.34733 4.35086C8.34127 4.45906 8.34494 4.57997 8.33366 4.5325V4.47391C8.33352 4.47054 8.333 4.468 8.33268 4.46707C8.31857 4.44363 8.31963 4.55702 8.30924 4.57156C8.3015 4.58269 8.27786 4.51596 8.26334 4.50614C8.23886 4.32598 8.2276 4.36928 8.24479 4.49344C8.23593 4.49006 8.22887 4.4985 8.21745 4.48367C8.21343 4.47853 8.20343 4.42673 8.20182 4.42117C8.17579 4.3364 8.19874 4.45319 8.19889 4.46024C8.19219 4.5098 8.14813 4.42704 8.15983 4.51883C8.16092 4.52431 8.20244 4.64012 8.16667 4.55594C8.16401 4.55022 8.15024 4.49635 8.1403 4.49344C8.13113 4.4921 8.08628 4.43708 8.09831 4.49539C8.1009 4.50973 8.14003 4.60463 8.09928 4.53543C8.09347 4.52555 8.07811 4.49304 8.06803 4.47586C8.03536 4.42156 8.09162 4.53513 8.03678 4.44168C7.98202 4.34812 7.92942 4.28445 7.95182 4.3577C7.95235 4.35992 8.00041 4.4495 7.99577 4.45047C7.98804 4.45175 7.96848 4.44039 7.96159 4.44461C7.95859 4.44705 7.99458 4.49654 7.99577 4.4993C7.99657 4.54139 7.95092 4.50575 7.91374 4.50516C7.9064 4.50536 7.95318 4.57782 7.90104 4.53446C7.84243 4.48783 7.64026 4.25424 7.66569 4.33231C7.67708 4.36865 7.9497 4.64087 7.78874 4.51883C7.80272 4.57825 7.69777 4.54558 7.736 4.61844C7.73762 4.62171 7.82496 4.68223 7.82487 4.68582C7.82029 4.68868 7.77564 4.66495 7.77018 4.66629C7.74863 4.67286 7.77883 4.70652 7.76725 4.71707C7.76248 4.72114 7.71557 4.69689 7.70963 4.70242C7.70622 4.70913 7.76399 4.7405 7.73014 4.73563C7.70294 4.73119 7.56957 4.68471 7.54948 4.69071C7.67939 4.74259 7.67436 4.74875 7.70475 4.77274C7.71073 4.77733 7.75813 4.79124 7.76334 4.79422C7.78539 4.80627 7.74592 4.79751 7.77018 4.80985C7.77611 4.81283 7.8223 4.82813 7.82975 4.83133C7.89359 4.85802 7.7907 4.83364 7.77116 4.83035C7.70108 4.81686 7.75896 4.83745 7.73112 4.83524C7.70255 4.83346 7.67031 4.81612 7.65202 4.81864C7.61468 4.8245 7.61692 4.8465 7.61198 4.8616C7.61021 4.8678 7.67425 4.87606 7.67545 4.87723C7.68779 4.89102 7.62085 4.89451 7.74479 4.91824C7.41795 4.88232 7.77537 4.92889 7.70866 4.93582C7.70325 4.93635 7.54811 4.92309 7.52604 4.91434C7.50434 4.9054 7.55326 4.90225 7.5192 4.88895C7.51067 4.88618 7.36833 4.85178 7.36002 4.84793C7.29628 4.82146 7.52106 4.85832 7.53678 4.86063C7.6737 4.87785 7.52196 4.83552 7.51237 4.8284C7.46801 4.8001 7.50305 4.79198 7.47331 4.76785C7.45387 4.75191 7.30788 4.70883 7.3151 4.70047C7.34004 4.67127 7.54304 4.73337 7.37956 4.64383C7.34464 4.62429 7.1874 4.57077 7.31803 4.595C7.32649 4.59603 7.44347 4.62667 7.3776 4.58817C7.36932 4.58326 7.32594 4.5644 7.32194 4.56082C7.30259 4.5394 7.34083 4.5477 7.32975 4.5286C7.31842 4.50926 7.30061 4.48191 7.32194 4.47586C7.33493 4.47206 7.41942 4.50535 7.44108 4.51297C7.50182 4.53445 7.41766 4.47284 7.48698 4.50516C7.55695 4.53929 7.65387 4.60816 7.70377 4.62235C7.59587 4.55711 7.48552 4.48876 7.3776 4.42215C7.40419 4.38712 7.46126 4.37608 7.48209 4.34012C7.4828 4.33459 7.42844 4.29872 7.42936 4.29227C7.43664 4.26556 7.48765 4.27982 7.48991 4.24832C7.49132 4.22365 7.45431 4.15818 7.45768 4.12918C7.46573 4.13579 7.47334 4.14159 7.48014 4.14676C7.56739 4.21337 7.55866 4.16546 7.58268 4.16043C7.59195 4.15975 7.61656 4.18873 7.62858 4.19461C7.6731 4.21636 7.58341 4.12577 7.57487 4.10672C7.54052 4.02451 7.72274 4.24293 7.73893 4.22586C7.7393 4.22518 7.66206 4.09384 7.65788 4.08231C7.63457 4.02198 7.69204 4.12381 7.7067 4.12723C7.73353 4.13358 7.76283 4.15732 7.75553 4.10867C7.75289 4.09447 7.71621 4.00427 7.7653 4.06082C7.77159 4.06819 7.79625 4.11138 7.79948 4.11453C7.84324 4.14622 7.76319 4.0079 7.74967 3.9534C7.73697 3.89938 7.80901 3.98513 7.82682 4.01199C7.87383 4.08031 7.83536 4.04748 7.83854 4.05496C7.87741 4.1429 7.88241 4.1216 7.89518 4.1243C7.96672 4.26343 7.97271 4.25027 7.90788 4.12723C7.90071 4.11389 7.90008 4.12942 7.89518 4.1243C7.83389 3.98308 7.84514 3.95576 7.92057 4.07938C7.95554 4.13752 7.97971 4.21214 7.98893 4.17703C7.99338 4.16116 7.94915 4.06272 7.94792 4.03153C7.94677 3.96036 8.01072 4.0433 8.02799 4.02176C8.03474 4.01368 8.0094 3.96051 8.01334 3.95242C8.02538 3.93202 8.05257 3.97076 8.06315 3.94461C8.06399 3.94179 8.04522 3.88529 8.04948 3.88114C8.08963 3.86366 8.134 3.89479 8.17643 3.88992C8.19684 3.8874 8.23155 3.84934 8.25456 3.85477C8.27998 3.86053 8.30961 3.89953 8.33366 3.92117C8.34697 3.93298 8.35876 3.9399 8.36979 3.93289C8.39022 3.91969 8.38935 3.85727 8.40104 3.81571ZM7.48502 5.05789C7.41374 5.05806 7.40955 5.0763 7.48307 5.06668C7.48588 5.06582 7.48788 5.05789 7.48502 5.05789ZM7.58561 4.98367C7.59854 4.95069 7.85954 4.95852 7.8317 4.97781C7.82615 4.98202 7.7484 4.96466 7.72428 4.96903C7.68058 4.97958 7.84493 4.98985 7.75651 4.9993C7.73945 5.00186 7.59093 4.98683 7.58561 4.98367ZM8.37858 4.99149C8.40692 4.98779 8.42814 4.99135 8.40885 4.99539C8.40317 4.99649 8.37035 4.99693 8.33952 4.99832C8.35392 4.99562 8.37283 4.9922 8.37858 4.99149ZM8.89225 4.97781C8.88601 4.9785 8.88061 4.99022 8.88639 4.99051C9.00292 4.99636 9.01428 4.96624 8.89225 4.97781ZM7.5612 4.75125C7.51869 4.74273 7.56201 4.77049 7.61491 4.78055C7.65713 4.78924 7.61367 4.76263 7.5612 4.75125ZM8.96354 4.69852C8.96062 4.70007 8.9597 4.70626 8.97624 4.69852C9.03104 4.67245 9.01291 4.67234 8.96354 4.69852ZM7.50846 4.39188C7.43977 4.35643 7.57212 4.46231 7.59928 4.47586C7.68696 4.52275 7.57623 4.42886 7.50846 4.39188ZM8.65788 4.41531C8.65659 4.41799 8.6602 4.42365 8.66178 4.42117C8.70005 4.36146 8.69094 4.34973 8.65788 4.41531Z" fill="#555961"/>
<path d="M11.0677 5.81571C11.092 5.73585 11.1132 5.88462 11.1136 5.9075C11.1122 5.9091 11.095 5.92218 11.1009 5.9534C11.0996 6.01745 11.1126 5.91367 11.1136 5.9075C11.1154 5.92216 11.1472 5.93947 11.1556 5.92899C11.1602 5.92182 11.1669 5.86547 11.1693 5.86356C11.2258 5.81892 11.2832 5.81615 11.3255 5.85672C11.3248 5.86205 11.3066 5.92077 11.3079 5.92313C11.3265 5.95836 11.3674 5.88711 11.4076 5.85086C11.4472 5.81482 11.4628 5.83845 11.4329 5.94754C11.4552 5.9413 11.459 5.99744 11.4583 6.03055C11.4578 6.06299 11.5155 5.95015 11.5179 5.94852C11.592 5.89536 11.5808 5.97271 11.6107 6.00418C11.6251 6.01937 11.669 6.02546 11.6956 6.02762C11.7169 6.02908 11.7081 6.06009 11.7327 6.05496C11.7365 6.05361 11.769 6.00743 11.7708 6.00614C11.8278 5.96513 11.7344 6.06838 11.722 6.09012C11.6765 6.16904 11.6513 6.21037 11.6947 6.19168C11.7042 6.18691 11.8465 6.04695 11.8636 6.0452C11.8839 6.04364 11.8318 6.09323 11.8538 6.09012C11.8557 6.08992 11.8852 6.05807 11.891 6.06473C11.8969 6.07321 11.9026 6.08325 11.9076 6.09305C11.923 6.12348 11.9352 6.1569 11.9583 6.17899C11.9625 6.18316 12.0108 6.1324 12.0179 6.13797C12.051 6.16415 12.0778 6.20292 12.0736 6.25418C12.0723 6.26685 12.0291 6.29001 12.0179 6.30008C11.9534 6.35818 12.0618 6.30492 12.0706 6.30399C12.1624 6.33306 12.0877 6.43653 12.1663 6.47684C12.1706 6.47808 12.3102 6.45511 12.2064 6.51297C12.199 6.51753 12.0925 6.57293 12.1732 6.55399C12.1789 6.55255 12.2326 6.52294 12.2327 6.53836C12.232 6.55417 12.2795 6.56523 12.221 6.60574C12.2027 6.61904 12.0919 6.66643 12.1888 6.65653C12.2012 6.65372 12.4098 6.62822 12.2699 6.67606C12.2455 6.68416 12.0937 6.72075 12.1771 6.72196C12.1933 6.72225 12.2255 6.70735 12.2493 6.71317C12.2865 6.72311 12.2503 6.75381 12.3236 6.76297C12.3379 6.76411 12.4443 6.76397 12.3665 6.79031C12.3542 6.79433 12.302 6.79921 12.2972 6.80692C12.274 6.84282 12.3123 6.87285 12.2786 6.90848C12.2666 6.9208 12.1809 6.92069 12.1585 6.93289C12.1364 6.94529 12.1154 6.96734 12.1546 6.97781C12.1942 6.98858 12.3287 6.9732 12.3402 6.99246C12.3416 6.99499 12.3429 6.99774 12.3441 7.00028C12.3827 7.08567 12.2995 7.16473 12.2738 7.23953C12.2712 7.2508 12.3195 7.25049 12.3167 7.26883C12.3085 7.3357 12.3137 7.4705 12.1947 7.48563C12.1013 7.49482 12.0641 7.4208 12.0208 7.4368C12.0015 7.44326 12.1336 7.52125 12.14 7.52957C12.1688 7.58736 12.0941 7.58095 12.096 7.62137C12.0983 7.63037 12.1552 7.65534 12.1546 7.66239C12.1528 7.68729 12.1166 7.69279 12.1097 7.71317C12.1071 7.72258 12.1481 7.74771 12.14 7.75321C12.121 7.76642 12.0929 7.77079 12.0443 7.76004C12.0396 7.7585 11.9982 7.71438 11.9876 7.72391C11.9708 7.74102 11.9181 7.73468 11.9368 7.78446C11.9427 7.79935 12.0273 7.87303 11.9574 7.83621C11.9426 7.82852 11.8452 7.73592 11.9183 7.82742C11.9314 7.84187 12.0207 7.97606 11.9359 7.91922C11.9246 7.91148 11.896 7.88951 11.8724 7.87235C11.8495 7.85579 11.8307 7.84358 11.8333 7.85281C11.8356 7.85671 11.8793 7.8945 11.8783 7.90457C11.8712 7.93881 11.8442 7.9548 11.8333 7.98856C11.8305 7.99781 11.8804 8.0376 11.8743 8.05008C11.8575 8.08473 11.8115 8.09959 11.7728 8.10281C11.7585 8.1034 11.737 8.05671 11.7327 8.05203C11.6698 7.98469 11.7321 8.09105 11.7318 8.09988C11.7304 8.15204 11.6807 8.1157 11.6654 8.14188C11.661 8.14902 11.6931 8.19564 11.6956 8.20242C11.7069 8.25493 11.665 8.15786 11.6507 8.15262C11.6108 8.13757 11.5873 8.15544 11.5658 8.1741C11.5592 8.18214 11.5969 8.23605 11.5902 8.24246C11.5444 8.27725 11.485 8.29441 11.4222 8.27567C11.4105 8.27204 11.4006 8.22077 11.3949 8.20926C11.3566 8.13393 11.3715 8.24751 11.3695 8.26004C11.3621 8.3137 11.3409 8.27188 11.3245 8.28446C11.2422 8.35053 11.1138 8.33679 11.0257 8.31863C11.0171 8.31699 11.0086 8.31483 11.0003 8.31278C10.8963 8.28649 10.8218 8.23577 10.7249 8.22684C10.7182 8.22763 10.7096 8.29601 10.7035 8.29617C10.6218 8.29465 10.5561 8.24399 10.4759 8.23172C10.4692 8.23053 10.4517 8.29525 10.4398 8.2952C10.4151 8.29533 10.3901 8.28003 10.3792 8.25125C10.374 8.23727 10.412 8.19289 10.4066 8.17996C10.3943 8.1501 10.3746 8.13355 10.348 8.13016C10.3364 8.1288 10.3159 8.19633 10.3031 8.18973C10.2153 8.14633 10.1242 8.09204 10.1126 7.96219C10.1117 7.95317 10.2012 7.84906 10.1742 7.85965C10.1471 7.88649 10.1158 7.91947 10.0872 7.94852C10.0804 7.94375 10.0742 7.93815 10.0677 7.93289C9.96609 7.8495 9.92193 7.7189 9.86947 7.60574C9.86702 7.60054 9.80775 7.64293 9.80208 7.63309C9.77208 7.57414 9.72577 7.51825 9.77181 7.43094C9.77839 7.42192 9.89801 7.38349 9.87435 7.37332C9.86978 7.37139 9.84522 7.35187 9.81673 7.35281C9.8105 7.35387 9.75652 7.3748 9.75228 7.36649C9.72821 7.31691 9.72931 7.25616 9.75716 7.19852C9.76239 7.18951 9.82423 7.18813 9.82943 7.18192C9.85672 7.1381 9.80395 7.09806 9.8597 7.05692C9.89747 7.03052 10.0086 7.03546 10.1165 7.02176C10.1315 7.01983 10.1341 7.00815 10.1966 7.00711C10.355 7.00475 10.5287 7.00648 10.6976 7.00321C10.7339 7.00258 10.6952 6.99779 10.7826 7.00028C10.7884 7.0005 10.8181 7.00346 10.848 7.00321C10.8686 7.00303 10.9329 7.00159 10.9593 7.00125C10.9607 7.00119 10.962 7.00131 10.9632 7.00125C10.9741 7.00087 10.9899 6.99906 11.0062 6.99832C10.9987 6.99973 10.9924 7.00167 10.9896 7.00223C10.9745 7.00549 10.9928 7.00172 10.9749 7.00614C10.9665 7.0083 10.9075 7.02211 10.9027 7.02371C10.877 7.03313 10.8928 7.03219 10.8812 7.03934C10.8244 7.07779 10.8183 7.11984 10.8197 7.16336C10.8199 7.16822 10.8169 7.17736 10.8138 7.1868C10.8074 7.20563 10.8029 7.228 10.8206 7.22098C10.825 7.21796 10.8577 7.17544 10.8607 7.17215C10.9063 7.12068 10.836 7.20733 10.8294 7.22098C10.8036 7.2745 10.8171 7.28956 10.8392 7.27762C10.8487 7.27235 10.8985 7.17474 10.8724 7.23074C10.8701 7.23554 10.8408 7.28511 10.8392 7.29129C10.8357 7.30531 10.8466 7.29957 10.847 7.30496C10.8479 7.31554 10.8493 7.31583 10.8538 7.31864C10.8597 7.32292 10.8577 7.35323 10.8704 7.34403C10.8731 7.34181 10.892 7.28445 10.8978 7.27567C10.9035 7.26692 10.907 7.27424 10.9046 7.28836C10.9019 7.30301 10.887 7.34737 10.8841 7.3577C10.8607 7.44532 10.9076 7.32752 10.9085 7.32449C10.9391 7.27813 10.9372 7.34983 10.9574 7.35281C10.9717 7.35424 10.988 7.33246 11.0003 7.33524C11.015 7.33947 11.0315 7.3702 11.0472 7.36258C11.0478 7.35677 11.0379 7.29225 11.0394 7.29129C11.0559 7.28087 11.0712 7.28556 11.1048 7.32449C11.1083 7.32845 11.1252 7.3884 11.1302 7.39578C11.1576 7.44105 11.2406 7.53932 11.1341 7.29031C11.1459 7.29648 11.1595 7.30193 11.1937 7.345C11.216 7.37262 11.2448 7.43434 11.2376 7.40555C11.2359 7.39908 11.204 7.34872 11.2035 7.34305C11.2008 7.31985 11.22 7.32952 11.2103 7.2991C11.2073 7.29189 11.178 7.25135 11.1722 7.24246C11.1296 7.17777 11.2095 7.27757 11.2171 7.28348C11.2691 7.33051 11.2611 7.30185 11.2708 7.2952C11.2713 7.29205 11.2258 7.24634 11.223 7.24051C11.2236 7.23507 11.2253 7.23112 11.2288 7.22879C11.2354 7.22455 11.2473 7.22541 11.2679 7.2327C11.2752 7.23529 11.3196 7.27741 11.3255 7.28055C11.3514 7.29282 11.2648 7.21838 11.2874 7.22977C11.2931 7.23286 11.3315 7.26532 11.3363 7.26883C11.4093 7.32105 11.3118 7.23872 11.3099 7.2366C11.2871 7.20603 11.3991 7.27512 11.3919 7.25223C11.3908 7.24966 11.3345 7.21748 11.3333 7.21219C11.3321 7.18015 11.3585 7.16756 11.4183 7.15848C11.4275 7.157 11.4731 7.17802 11.4788 7.17996C11.5677 7.207 11.456 7.16185 11.4476 7.1575C11.4186 7.13584 11.5245 7.15336 11.3802 7.10477C11.4311 7.07872 11.3907 7.0366 11.4408 7.00028C11.4531 6.99055 11.4713 6.97977 11.4974 6.96707C11.5031 6.96613 11.5611 6.96292 11.5638 6.96121C11.5974 6.93932 11.5006 6.95063 11.3812 6.95535C11.3512 6.9574 11.493 6.93093 11.5033 6.92801C11.5414 6.91954 11.6346 6.90962 11.6419 6.9075C11.6978 6.88865 11.3976 6.93634 11.3919 6.92996C11.3924 6.92958 11.449 6.92001 11.4544 6.91824C11.4707 6.91274 11.4486 6.91456 11.4671 6.90848C11.5106 6.89462 11.6565 6.8592 11.5687 6.86746C11.5548 6.86949 11.3886 6.91014 11.3939 6.90164C11.3965 6.89784 11.39 6.88514 11.3997 6.87821C11.4101 6.87129 11.4618 6.85816 11.4661 6.85672C11.5337 6.82241 11.5649 6.81747 11.6673 6.77469C11.7682 6.73056 11.5222 6.81766 11.4925 6.82547C11.4643 6.83293 11.5183 6.80378 11.5374 6.79324C11.5565 6.78308 11.5915 6.77261 11.6019 6.7659C11.6683 6.72098 11.4784 6.80777 11.4378 6.81961C11.3434 6.84986 11.5197 6.76589 11.5316 6.74637C11.5337 6.74226 11.4953 6.7624 11.4906 6.76199C11.473 6.76042 11.5233 6.72788 11.4691 6.74442C11.459 6.7471 11.3549 6.79713 11.4261 6.75028C11.4364 6.74331 11.4795 6.72043 11.4867 6.71121C11.4975 6.69747 11.5002 6.68187 11.4827 6.68485C11.4695 6.68759 11.4067 6.73554 11.4242 6.71707C11.4324 6.70852 11.4737 6.68696 11.4847 6.67313C11.4956 6.65913 11.4853 6.64816 11.4808 6.64481C11.4761 6.64178 11.4319 6.67791 11.4261 6.68192C11.4059 6.69385 11.3768 6.70583 11.3763 6.70535C11.3611 6.69237 11.3693 6.65998 11.3695 6.63016C11.3699 6.60425 11.3642 6.5802 11.3392 6.58035C11.3342 6.5819 11.2996 6.62839 11.2962 6.63211C11.2719 6.64704 11.3836 6.51859 11.4115 6.46805C11.3328 6.5715 11.3434 6.55027 11.3285 6.55692C11.3211 6.56087 11.2945 6.60055 11.2904 6.60574C11.2414 6.66462 11.2964 6.58296 11.307 6.56571C11.3465 6.50279 11.2927 6.57194 11.3187 6.52957C11.3434 6.48817 11.3888 6.43374 11.3831 6.42703C11.3555 6.46439 11.2924 6.56739 11.2767 6.58133C11.2211 6.6335 11.2405 6.53501 11.2269 6.51785C11.2156 6.50177 11.2065 6.5079 11.2035 6.48856C11.1971 6.45382 11.1713 6.53957 11.1488 6.57547C11.1269 6.61148 11.2012 6.40407 11.2152 6.3577C11.2284 6.31183 11.2114 6.35702 11.2171 6.33133C11.2227 6.30589 11.2376 6.27738 11.2347 6.2659C11.2309 6.25432 11.1899 6.3305 11.1751 6.37821C11.1431 6.47855 11.1186 6.58627 11.1185 6.54715C11.1184 6.54474 11.1352 6.4881 11.1341 6.48172C11.1243 6.43319 11.1018 6.42535 11.0833 6.38309C11.0807 6.37713 11.0918 6.31308 11.0902 6.30887C11.0723 6.26509 11.0671 6.37451 11.0462 6.49442C11.0635 6.33433 11.0659 6.23466 11.0462 6.23172C11.0347 6.23044 11.033 6.30137 11.0247 6.35086C11.0224 6.36579 11.0161 6.31766 11.014 6.35086C11.0079 6.45906 11.0116 6.57997 11.0003 6.5325V6.47391C11.0002 6.47054 10.9997 6.468 10.9993 6.46707C10.9852 6.44363 10.9863 6.55702 10.9759 6.57156C10.9682 6.58269 10.9445 6.51596 10.93 6.50614C10.9055 6.32598 10.8943 6.36928 10.9115 6.49344C10.9026 6.49006 10.8955 6.4985 10.8841 6.48367C10.8801 6.47853 10.8701 6.42673 10.8685 6.42117C10.8425 6.3364 10.8654 6.45319 10.8656 6.46024C10.8589 6.5098 10.8148 6.42704 10.8265 6.51883C10.8276 6.52431 10.8691 6.64012 10.8333 6.55594C10.8307 6.55022 10.8169 6.49635 10.807 6.49344C10.7978 6.4921 10.7529 6.43708 10.765 6.49539C10.7676 6.50973 10.8067 6.60463 10.766 6.53543C10.7601 6.52555 10.7448 6.49304 10.7347 6.47586C10.702 6.42156 10.7583 6.53513 10.7035 6.44168C10.6487 6.34812 10.5961 6.28445 10.6185 6.3577C10.619 6.35992 10.6671 6.4495 10.6624 6.45047C10.6547 6.45175 10.6351 6.44039 10.6283 6.44461C10.6253 6.44705 10.6613 6.49654 10.6624 6.4993C10.6632 6.54139 10.6176 6.50575 10.5804 6.50516C10.5731 6.50536 10.6198 6.57782 10.5677 6.53446C10.5091 6.48783 10.3069 6.25424 10.3324 6.33231C10.3437 6.36865 10.6164 6.64087 10.4554 6.51883C10.4694 6.57825 10.3644 6.54558 10.4027 6.61844C10.4043 6.62171 10.4916 6.68223 10.4915 6.68582C10.487 6.68868 10.4423 6.66495 10.4368 6.66629C10.4153 6.67286 10.4455 6.70652 10.4339 6.71707C10.4292 6.72114 10.3822 6.69689 10.3763 6.70242C10.3729 6.70913 10.4307 6.7405 10.3968 6.73563C10.3696 6.73119 10.2362 6.68471 10.2161 6.69071C10.3461 6.74259 10.341 6.74875 10.3714 6.77274C10.3774 6.77733 10.4248 6.79124 10.43 6.79422C10.4521 6.80627 10.4126 6.79751 10.4368 6.80985C10.4428 6.81283 10.489 6.82813 10.4964 6.83133C10.5603 6.85802 10.4574 6.83364 10.4378 6.83035C10.3677 6.81686 10.4256 6.83745 10.3978 6.83524C10.3692 6.83346 10.337 6.81612 10.3187 6.81864C10.2813 6.8245 10.2836 6.8465 10.2786 6.8616C10.2769 6.8678 10.3409 6.87606 10.3421 6.87723C10.3545 6.89102 10.2875 6.89451 10.4115 6.91824C10.0846 6.88232 10.442 6.92889 10.3753 6.93582C10.3699 6.93635 10.2148 6.92309 10.1927 6.91434C10.171 6.9054 10.2199 6.90225 10.1859 6.88895C10.1773 6.88618 10.035 6.85178 10.0267 6.84793C9.96295 6.82146 10.1877 6.85832 10.2035 6.86063C10.3404 6.87785 10.1886 6.83552 10.179 6.8284C10.1347 6.8001 10.1697 6.79198 10.14 6.76785C10.1205 6.75191 9.97455 6.70883 9.98177 6.70047C10.0067 6.67127 10.2097 6.73337 10.0462 6.64383C10.0113 6.62429 9.85407 6.57077 9.9847 6.595C9.99316 6.59603 10.1101 6.62667 10.0443 6.58817C10.036 6.58326 9.99261 6.5644 9.98861 6.56082C9.96926 6.5394 10.0075 6.5477 9.99642 6.5286C9.98509 6.50926 9.96728 6.48191 9.98861 6.47586C10.0016 6.47206 10.0861 6.50535 10.1077 6.51297C10.1685 6.53445 10.0843 6.47284 10.1536 6.50516C10.2236 6.53929 10.3205 6.60816 10.3704 6.62235C10.2625 6.55711 10.1522 6.48876 10.0443 6.42215C10.0709 6.38712 10.1279 6.37608 10.1488 6.34012C10.1495 6.33459 10.0951 6.29872 10.096 6.29227C10.1033 6.26556 10.1543 6.27982 10.1566 6.24832C10.158 6.22365 10.121 6.15818 10.1243 6.12918C10.1324 6.13579 10.14 6.14159 10.1468 6.14676C10.2341 6.21337 10.2253 6.16546 10.2493 6.16043C10.2586 6.15975 10.2832 6.18873 10.2952 6.19461C10.3398 6.21636 10.2501 6.12577 10.2415 6.10672C10.2072 6.02451 10.3894 6.24293 10.4056 6.22586C10.406 6.22518 10.3287 6.09384 10.3245 6.08231C10.3012 6.02198 10.3587 6.12381 10.3734 6.12723C10.4002 6.13358 10.4295 6.15732 10.4222 6.10867C10.4196 6.09447 10.3829 6.00427 10.432 6.06082C10.4383 6.06819 10.4629 6.11138 10.4661 6.11453C10.5099 6.14622 10.4299 6.0079 10.4163 5.9534C10.4036 5.89938 10.4757 5.98513 10.4935 6.01199C10.5405 6.08031 10.502 6.04748 10.5052 6.05496C10.5441 6.1429 10.5491 6.1216 10.5618 6.1243C10.6334 6.26343 10.6394 6.25027 10.5745 6.12723C10.5674 6.11389 10.5668 6.12942 10.5618 6.1243C10.5006 5.98308 10.5118 5.95576 10.5872 6.07938C10.6222 6.13752 10.6464 6.21214 10.6556 6.17703C10.66 6.16116 10.6158 6.06272 10.6146 6.03153C10.6134 5.96036 10.6774 6.0433 10.6947 6.02176C10.7014 6.01368 10.6761 5.96051 10.68 5.95242C10.6921 5.93202 10.7192 5.97076 10.7298 5.94461C10.7307 5.94179 10.7119 5.88529 10.7161 5.88114C10.7563 5.86366 10.8007 5.89479 10.8431 5.88992C10.8635 5.8874 10.8982 5.84934 10.9212 5.85477C10.9467 5.86053 10.9763 5.89953 11.0003 5.92117C11.0136 5.93298 11.0254 5.9399 11.0365 5.93289C11.0569 5.91969 11.056 5.85727 11.0677 5.81571ZM10.1517 7.05789C10.0804 7.05806 10.0762 7.0763 10.1497 7.06668C10.1525 7.06582 10.1545 7.05789 10.1517 7.05789ZM10.2523 6.98367C10.2652 6.95069 10.5262 6.95852 10.4984 6.97781C10.4928 6.98202 10.4151 6.96466 10.391 6.96903C10.3473 6.97958 10.5116 6.98985 10.4232 6.9993C10.4061 7.00186 10.2576 6.98683 10.2523 6.98367ZM11.0452 6.99149C11.0736 6.98779 11.0948 6.99135 11.0755 6.99539C11.0698 6.99649 11.037 6.99693 11.0062 6.99832C11.0206 6.99562 11.0395 6.9922 11.0452 6.99149ZM11.5589 6.97781C11.5527 6.9785 11.5473 6.99022 11.5531 6.99051C11.6696 6.99636 11.6809 6.96624 11.5589 6.97781ZM10.2279 6.75125C10.1854 6.74273 10.2287 6.77049 10.2816 6.78055C10.3238 6.78924 10.2803 6.76263 10.2279 6.75125ZM11.6302 6.69852C11.6273 6.70007 11.6264 6.70626 11.6429 6.69852C11.6977 6.67245 11.6796 6.67234 11.6302 6.69852ZM10.1751 6.39188C10.1064 6.35643 10.2388 6.46231 10.266 6.47586C10.3536 6.52275 10.2429 6.42886 10.1751 6.39188ZM11.3245 6.41531C11.3233 6.41799 11.3269 6.42365 11.3285 6.42117C11.3667 6.36146 11.3576 6.34973 11.3245 6.41531Z" fill="#555961"/>
</svg>
