<svg width="16" height="16" viewBox="0 0 16 16" fill="none" xmlns="http://www.w3.org/2000/svg">
<path d="M5.29269 7.57611C5.36594 7.62177 5.42943 7.71438 5.46847 7.79389C5.48077 7.81876 5.44367 7.83795 5.45089 7.85639C5.46507 7.89213 5.5015 7.90197 5.51339 7.9394C5.51715 7.95205 5.4627 7.98665 5.46749 7.99897C5.49501 8.06579 5.5512 8.09901 5.58956 8.15619C5.7785 8.43853 5.9934 8.68742 6.21164 8.94623C6.28355 9.03151 6.33843 9.16783 6.43722 9.23139C6.44881 9.23877 6.48298 9.19374 6.488 9.19232C6.56512 9.17154 6.47729 9.24049 6.48507 9.26947C6.51701 9.3842 6.59473 9.46984 6.68039 9.52533C6.71693 9.54867 6.76501 9.44082 6.75167 9.51459C6.7508 9.51965 6.70099 9.55369 6.7048 9.56635C6.7136 9.59493 6.75711 9.62283 6.76828 9.64057C6.78949 9.67478 6.79423 9.67926 6.82003 9.706C6.85508 9.74305 6.87744 9.80658 6.9255 9.83588C6.93589 9.84201 6.96759 9.78893 6.988 9.79486C7.0083 9.8009 7.03967 9.83849 7.04171 9.86029C7.04344 9.88209 7.00433 9.91109 6.99874 9.92084C6.95217 10.0013 7.07853 9.95423 7.08859 9.956C7.22099 10.0129 7.25156 10.1456 7.34054 10.2343C7.40817 10.3014 7.4975 10.3564 7.55929 10.4228C7.63274 10.5021 7.67449 10.5898 7.75265 10.6601C7.76085 10.6676 7.80109 10.6092 7.81124 10.6181C7.9187 10.7139 8.01426 10.8201 8.08175 10.955C8.08844 10.9685 8.0324 10.9993 8.03585 11.0156C8.05282 11.0796 8.06386 11.1804 8.13253 11.2001C8.21467 11.2674 8.19974 11.3836 8.13253 11.4658C8.12214 11.5024 8.13481 11.5557 8.1882 11.6347C8.13867 11.6693 8.07977 11.7128 8.00363 11.7119C7.95482 11.7109 7.93098 11.6404 7.9216 11.6904C7.91942 11.7016 7.97002 11.7352 7.96359 11.749C7.93649 11.8065 7.87666 11.8391 7.85617 11.9023C7.85215 11.9153 7.8915 11.9505 7.89621 11.9599C7.93062 12.035 7.80568 11.9786 7.79171 11.9794C7.68672 11.9867 7.66457 12.0474 7.61105 12.0986C7.60042 12.1107 7.66278 12.1458 7.65402 12.1591C7.60058 12.227 7.53267 12.2862 7.45089 12.3232C7.43264 12.3302 7.40235 12.2763 7.39132 12.2773C7.34357 12.2852 7.41798 12.3726 7.37374 12.3818C7.36402 12.3827 7.33089 12.3437 7.32589 12.3408C7.2477 12.2943 7.32071 12.3954 7.32003 12.4033C7.29674 12.4767 7.18627 12.4304 7.14035 12.4736C7.13865 12.4751 7.1356 12.4802 7.13253 12.4853C7.12817 12.4937 7.18867 12.524 7.17257 12.5449C7.06004 12.6847 6.89708 12.7948 6.72335 12.8456C6.69659 12.8532 6.68518 12.8009 6.68039 12.7968C6.60693 12.7322 6.66115 12.8485 6.65597 12.8574C6.61459 12.9237 6.50805 12.861 6.53781 13.0165C6.4679 13.0392 6.40128 13.066 6.33468 13.0927C6.12858 13.1759 5.90883 13.2624 5.67746 13.1923C5.67371 13.191 5.67102 13.1288 5.66378 13.1259C5.57512 13.1026 5.60511 13.1972 5.55734 13.3222C5.54441 13.3537 5.48708 13.2135 5.48312 13.2031C5.46643 13.1651 5.47459 13.0706 5.46945 13.0634C5.42938 13.0074 5.453 13.3151 5.39718 13.3183C5.39547 13.3178 5.39998 13.2603 5.39523 13.2548C5.38068 13.2379 5.36733 13.2604 5.35324 13.2412C5.34268 13.2264 5.33482 13.2 5.32687 13.1747C5.31055 13.1233 5.29651 13.0754 5.26535 13.1328C5.25921 13.1439 5.26492 13.3203 5.21554 13.3105C5.19531 13.3068 5.11002 13.3045 5.08664 13.291C5.06352 13.2776 5.08527 13.2223 5.08371 13.2197C5.02803 13.1394 5.0548 13.111 5.03781 12.998C5.02258 12.8856 4.99775 13.1446 4.98117 13.1738C4.96447 13.2011 4.92798 13.1345 4.92062 13.1113C4.91319 13.0884 4.93206 13.0545 4.92453 13.041C4.87616 12.9532 4.87441 13.1646 4.84542 13.2021C4.77413 13.2894 4.77286 13.0895 4.7341 13.0605C4.72333 13.0528 4.72239 13.0978 4.71066 13.0996C4.66294 13.1039 4.65386 13.0391 4.58956 13.0781C4.57959 13.0846 4.50277 13.1832 4.50363 13.0927C4.50419 13.0796 4.52971 13.0367 4.51535 13.0205C4.4938 12.9961 4.45054 12.9698 4.41671 12.9736C4.39148 12.9766 4.38546 13.0601 4.36789 13.0263C4.36096 13.0111 4.39975 12.9764 4.38449 12.9521L4.38253 12.9501C4.36526 12.9269 4.31304 12.9062 4.29269 12.8984C4.27187 12.8914 4.25792 12.9511 4.2546 12.954C4.23497 12.9704 4.18282 12.9771 4.17746 12.9755C3.99075 12.8907 3.89403 12.7044 3.72726 12.6113C3.71389 12.6044 3.68086 12.6598 3.67843 12.6591C3.62111 12.6458 3.76109 12.5422 3.77218 12.4765C3.6917 12.5778 3.69109 12.5465 3.65499 12.5331C3.6378 12.5268 3.61161 12.5688 3.60617 12.5732C3.53493 12.6118 3.58767 12.5264 3.59835 12.5087C3.63697 12.4431 3.56338 12.4939 3.58956 12.4501C3.61601 12.407 3.68479 12.3728 3.66085 12.3505C3.62233 12.3764 3.55767 12.4756 3.52414 12.4765H3.52121C3.39417 12.4571 3.34114 12.246 3.30441 12.1767C3.26518 12.1066 3.24363 12.0898 3.23214 12.0419C3.21287 11.9552 3.15292 12.029 3.08956 12.0038C3.02752 11.9773 3.23275 11.8895 3.27023 11.8593C3.30778 11.8299 3.26159 11.8473 3.27999 11.8271C3.29876 11.8069 3.33658 11.807 3.33566 11.7851C3.33459 11.7639 3.23412 11.756 3.18624 11.7714C3.08505 11.8051 2.99758 11.8785 3.00656 11.8085C3.00794 11.8044 3.06342 11.7891 3.06417 11.7753C3.06271 11.7208 3.05313 11.6695 3.04464 11.6191C3.03615 11.5686 3.02863 11.5178 3.03195 11.4658C3.03371 11.4516 3.09896 11.4419 3.10031 11.4335C3.11545 11.3473 3.01998 11.4077 2.89035 11.3984C3.04852 11.3623 3.13606 11.3116 3.12277 11.2568C3.11475 11.2236 3.04767 11.2466 2.99386 11.2353C2.97797 11.2316 3.01935 11.1956 2.98605 11.1982C2.87671 11.2059 2.76234 11.2561 2.7966 11.1806C2.79936 11.1774 2.85827 11.1752 2.86007 11.165C2.87167 11.0984 2.75884 11.1098 2.73507 11.04C2.71652 10.9849 2.77505 10.8794 2.7839 10.8173C2.96547 10.8089 2.92215 10.7574 2.7966 10.7353C2.79882 10.7152 2.79835 10.6944 2.79953 10.6738C2.80073 10.6531 2.80392 10.6323 2.8132 10.6132C2.81955 10.6001 2.87191 10.6108 2.87765 10.6093C2.96648 10.5882 2.84856 10.5659 2.84249 10.5566C2.80164 10.4595 2.90093 10.3959 2.82589 10.2949C2.82317 10.2914 2.6995 10.2646 2.79464 10.2558C2.80218 10.2565 2.8525 10.2938 2.86398 10.2538C2.87588 10.2126 2.95761 10.1522 2.91574 10.0829C2.90536 10.0665 2.81575 10.0042 2.90011 9.99799C2.91161 9.99735 2.94564 10.0112 2.96652 10.0117C3.03292 10.0134 2.91379 9.96688 3.02316 9.97943C3.13291 9.99195 3.22147 9.98253 3.16964 9.90717C3.16815 9.90494 3.07819 9.85799 3.08566 9.84174C3.09735 9.81802 3.12732 9.79078 3.14035 9.76557C3.14128 9.76374 3.14254 9.76153 3.14328 9.75971C3.14709 9.74682 3.0877 9.73015 3.08761 9.72748C3.09457 9.62463 3.17597 9.58591 3.24679 9.51068C3.25954 9.49743 3.21458 9.40577 3.29171 9.41107C3.37571 9.41873 3.61224 9.61777 3.59542 9.51166C3.58686 9.47101 3.30034 9.2007 3.50167 9.2724C3.53448 9.16141 3.6541 9.13329 3.71066 9.04486C3.72105 9.02875 3.72853 9.01117 3.7341 8.99115C3.73508 8.98391 3.67205 8.89524 3.68234 8.88666C3.69814 8.87428 3.74216 8.90216 3.7546 8.89447C3.80737 8.86309 3.81567 8.79354 3.86105 8.75775C3.8783 8.74528 3.91008 8.78729 3.93039 8.77143C3.95084 8.75508 3.91393 8.69351 3.96261 8.69232C3.99953 8.69177 4.11782 8.77218 4.15499 8.75971C4.05709 8.65985 4.07642 8.64441 4.08078 8.58783C4.08155 8.57708 4.04244 8.54947 4.03976 8.54193C4.03328 8.51293 4.07157 8.53068 4.0632 8.50092C4.06116 8.49366 4.02771 8.45896 4.02414 8.45111C3.99287 8.38357 4.09855 8.4303 4.11691 8.43842C4.18645 8.46877 4.15237 8.41512 4.18722 8.41986C4.22172 8.42494 4.22412 8.47227 4.25363 8.46674C4.31493 8.45514 4.35666 8.40258 4.39523 8.36713C4.40933 8.35258 4.35505 8.31748 4.35617 8.3144C4.37559 8.27293 4.45341 8.28915 4.38058 8.18256C4.63408 8.39377 4.37757 8.14241 4.46652 8.14447C4.47058 8.14466 4.50868 8.17921 4.54171 8.21381C4.54578 8.20768 4.55158 8.20264 4.55539 8.19623C4.56342 8.18267 4.54241 8.15793 4.58566 8.11225C4.58878 8.10895 4.59227 8.10577 4.59542 8.10248C4.50655 8.07947 4.40917 7.99542 4.47726 7.95697C4.49456 7.94726 4.50778 8.0453 4.54171 8.04486C4.6033 8.04369 4.50801 7.90628 4.60226 7.93647C4.61243 7.93978 4.63973 7.99417 4.66085 8.03803C4.75284 7.9487 4.85327 7.8585 4.94308 7.76166C4.96784 7.73499 4.90999 7.73144 4.98996 7.68744C4.99538 7.68455 5.0386 7.68645 5.06515 7.67084C5.0835 7.66007 5.12175 7.60769 5.14816 7.59662C5.17456 7.58571 5.14561 7.63208 5.18039 7.62299C5.21534 7.61335 5.26106 7.55686 5.29269 7.57611ZM5.79171 13.1162C5.79585 12.9974 5.68799 13.0053 5.73214 13.121C5.73451 13.1272 5.79109 13.1224 5.79171 13.1162ZM4.77706 12.9462C4.78986 12.8868 4.76476 12.8978 4.75851 12.954C4.75815 12.9574 4.77291 12.9641 4.77706 12.9462ZM4.4382 8.4765C4.4334 8.54147 4.38407 8.55091 4.37863 8.60443C4.37484 8.64068 4.48065 8.75022 4.46164 8.76264C4.39847 8.80376 4.23071 8.67274 4.31124 8.8515C4.32848 8.88985 4.45712 8.99699 4.32687 8.94232C4.31867 8.93887 4.20609 8.88282 4.24289 8.95209C4.24753 8.96075 4.28076 8.9946 4.28195 9.00092C4.28258 9.03758 4.24355 9.02289 4.23703 9.05561C4.23054 9.08827 4.22601 9.13082 4.1921 9.14154C4.17146 9.14788 4.09016 9.10189 4.06808 9.09272C4.00524 9.06627 4.05918 9.15888 3.99386 9.11615C3.92758 9.07267 3.86586 8.96645 3.8005 8.96088C3.88856 9.05115 3.97824 9.1458 4.06613 9.23725C4.03768 9.26309 4.00431 9.28365 3.9714 9.30463C3.92672 9.33143 3.88678 9.35512 3.8591 9.39057C3.85337 9.39817 3.91059 9.43713 3.90597 9.44623C3.88673 9.48388 3.82616 9.48097 3.81417 9.52729C3.80519 9.56327 3.84115 9.63443 3.83761 9.67182C3.70726 9.60631 3.71766 9.67914 3.68722 9.70404C3.67639 9.71295 3.64343 9.69236 3.62765 9.69428C3.56969 9.7027 3.6884 9.75212 3.70089 9.77045C3.75466 9.84653 3.50106 9.71065 3.48214 9.76264C3.48268 9.76724 3.60226 9.86391 3.61007 9.87201C3.65424 9.92386 3.56111 9.85347 3.54269 9.8642C3.51822 9.8798 3.48794 9.88744 3.48507 9.91303C3.48414 9.9216 3.4862 9.93196 3.49289 9.94525C3.50066 9.96129 3.5798 10.0208 3.50363 10.0146C3.49354 10.0138 3.44572 9.9939 3.4421 9.99506C3.38134 10.0186 3.53069 10.0741 3.57492 10.1122C3.61919 10.15 3.50413 10.1496 3.4714 10.1484C3.388 10.1439 3.44156 10.1236 3.43527 10.1201C3.34728 10.0795 3.35426 10.1113 3.34054 10.1298C3.18933 10.0896 3.18956 10.1237 3.32687 10.1494C3.3418 10.1522 3.33264 10.1322 3.34054 10.1298C3.48279 10.1909 3.49496 10.2213 3.34738 10.2226C3.27805 10.2236 3.20407 10.1904 3.22042 10.2499C3.22863 10.2766 3.33623 10.2889 3.36105 10.3144C3.41816 10.3713 3.30987 10.4137 3.32003 10.4648C3.32382 10.4827 3.38374 10.4731 3.38839 10.4853C3.40065 10.5169 3.35526 10.5398 3.3757 10.5722C3.37766 10.5751 3.43993 10.5727 3.44015 10.582C3.44154 10.6156 3.43341 10.6468 3.42453 10.6787C3.41484 10.7134 3.40365 10.7491 3.40499 10.788C3.40612 10.8244 3.44607 10.8849 3.44406 10.9218C3.4399 10.9852 3.36555 11.0821 3.40011 11.1337C3.42222 11.1666 3.48066 11.1441 3.52511 11.1484C3.61036 11.1548 3.48556 11.2414 3.46554 11.2568C3.46487 11.2573 3.44133 11.2315 3.41574 11.2568C3.35575 11.2853 3.4652 11.2566 3.46554 11.2568C3.45265 11.2654 3.45875 11.3298 3.47433 11.3378C3.48269 11.3421 3.53648 11.3197 3.53976 11.3222C3.56725 11.3435 3.59096 11.3654 3.61007 11.3886C3.64403 11.4299 3.66453 11.4753 3.67257 11.5292C3.67218 11.5311 3.61316 11.5594 3.613 11.5634C3.60976 11.6204 3.69554 11.6101 3.75558 11.6181C3.81586 11.6264 3.81736 11.6573 3.73703 11.7392C3.76507 11.7561 3.74857 11.8195 3.73996 11.8583C3.73137 11.8972 3.83538 11.8231 3.83859 11.8232C3.94252 11.8256 3.90969 11.8984 3.94894 11.958C3.95807 11.9719 3.97727 11.9884 3.99874 12.0019C4.02031 12.0155 4.0446 12.0263 4.06222 12.0331C4.0897 12.0437 4.08258 12.0773 4.11398 12.08C4.11813 12.0803 4.1509 12.0377 4.15499 12.0341C4.21978 12.0002 4.12072 12.0971 4.1091 12.1201C4.06785 12.2031 4.04998 12.2504 4.10714 12.2412C4.12213 12.2378 4.26001 12.0973 4.27902 12.0947C4.30295 12.0938 4.25596 12.1473 4.28195 12.1455C4.28419 12.1453 4.31015 12.1086 4.31906 12.1171C4.3606 12.1564 4.40076 12.212 4.45578 12.2372C4.46349 12.2389 4.48801 12.1738 4.49874 12.1777C4.54967 12.196 4.59969 12.2236 4.63546 12.2744C4.64423 12.2871 4.61797 12.3291 4.61496 12.3437C4.61055 12.366 4.61221 12.3758 4.61691 12.3779C4.63112 12.3835 4.67063 12.3237 4.67453 12.3222C4.78551 12.2988 4.82425 12.4317 4.93722 12.4003C4.94431 12.3986 5.0098 12.2717 5.00656 12.3906C5.00599 12.3999 5.00439 12.5196 5.0339 12.4413C5.03554 12.4354 5.03508 12.3736 5.05343 12.3828C5.07253 12.3916 5.10768 12.3555 5.12765 12.4257C5.13349 12.4481 5.1451 12.5693 5.17941 12.4765C5.18311 12.4701 5.2338 12.2561 5.24093 12.4052C5.24213 12.4298 5.23414 12.5881 5.26925 12.5078C5.27529 12.492 5.26529 12.4571 5.28097 12.4355C5.29273 12.4193 5.30612 12.4201 5.32003 12.4179C5.33497 12.4155 5.35143 12.409 5.36496 12.372C5.37016 12.3575 5.38436 12.2528 5.40499 12.332C5.40841 12.3446 5.40721 12.3979 5.41671 12.4033C5.46245 12.4283 5.50457 12.3891 5.55343 12.4189C5.57069 12.4305 5.57558 12.5144 5.5964 12.5341C5.6173 12.5541 5.65689 12.5693 5.66769 12.5273C5.67761 12.4851 5.63299 12.3571 5.65499 12.3408C5.74967 12.2724 5.87335 12.3169 5.98312 12.2831C5.98437 12.2828 5.98534 12.282 5.98605 12.2812C5.99344 12.2715 5.96953 12.238 5.98898 12.2285C6.07027 12.1898 6.1722 12.0796 6.29367 12.1191C6.39407 12.1497 6.3637 12.2486 6.4255 12.246C6.45553 12.2426 6.38253 12.1007 6.38351 12.0937C6.396 12.0207 6.46928 12.0498 6.49289 11.9999C6.4975 11.9897 6.44671 11.9484 6.45089 11.9404C6.46463 11.9131 6.50633 11.9122 6.52218 11.8886C6.52594 11.8817 6.513 11.8661 6.50558 11.8544C6.50735 11.8529 6.51169 11.848 6.51339 11.8466C6.50982 11.8394 6.5084 11.8331 6.51339 11.83C6.5462 11.8092 6.58471 11.8003 6.64328 11.8066C6.6492 11.8089 6.67587 11.8656 6.69699 11.8476C6.73167 11.8181 6.80345 11.8101 6.80734 11.7402C6.80797 11.7191 6.72999 11.6403 6.80734 11.6708C6.8237 11.6773 6.91279 11.7785 6.85812 11.6689C6.84863 11.6494 6.78501 11.4944 6.87863 11.5429C6.90351 11.5558 6.99676 11.6181 6.99777 11.5927C6.99761 11.589 6.94802 11.5531 6.9548 11.538C6.9795 11.4859 7.02434 11.4501 7.0505 11.3974C7.05699 11.3832 6.99779 11.3546 7.00949 11.3349C7.01441 11.3266 7.02076 11.3192 7.02706 11.3115C6.97965 11.2557 6.93462 11.2002 6.89523 11.1503C6.76385 10.9844 6.68372 10.8338 6.53292 10.7011C6.52337 10.6926 6.48222 10.7508 6.47335 10.7441C6.36124 10.6556 6.28144 10.5374 6.16671 10.4511C6.15691 10.4455 6.12254 10.5029 6.10617 10.4931C6.07196 10.4731 6.04065 10.4358 6.02804 10.3935C6.02188 10.3731 6.07898 10.3508 6.07296 10.331C6.05661 10.2846 6.02575 10.2474 5.98605 10.2226C5.9691 10.2122 5.94194 10.2801 5.92355 10.2636C5.79728 10.1468 5.67006 10.0352 5.6091 9.85053C5.60494 9.83788 5.69386 9.73403 5.65792 9.73432C5.62963 9.75992 5.59746 9.79107 5.56808 9.81928C5.37574 9.65788 5.23438 9.44912 5.06222 9.26654C5.05495 9.25885 5.01602 9.32316 5.00167 9.30854C4.91873 9.22412 4.82345 9.15697 4.78878 9.02045C4.78529 9.00698 4.87933 8.92093 4.84152 8.90912C4.83459 8.9072 4.78403 8.88164 4.7546 8.89154C4.7487 8.89577 4.71488 8.94122 4.70187 8.93061C4.62483 8.86633 4.56007 8.7828 4.51535 8.68647C4.50865 8.67099 4.5642 8.63881 4.56124 8.6269C4.53526 8.56401 4.47237 8.5316 4.4382 8.4765ZM3.51339 12.2216C3.51148 12.224 3.52446 12.2437 3.52706 12.2421C3.58842 12.2046 3.56343 12.1668 3.51339 12.2216ZM3.78683 9.21283C3.69152 9.16893 3.78182 9.28574 3.85324 9.32123C3.92294 9.3576 3.81549 9.22729 3.78683 9.21283ZM4.22531 8.56049C4.18549 8.54002 4.19245 8.60294 4.24191 8.62885C4.28202 8.64962 4.2752 8.5863 4.22531 8.56049ZM4.42746 8.37006C4.41057 8.3669 4.41053 8.38087 4.41574 8.40033C4.41735 8.39026 4.42215 8.38041 4.42746 8.37006ZM4.65304 8.24604C4.59406 8.28766 4.62232 8.32392 4.66769 8.26459C4.66889 8.26167 4.65547 8.24437 4.65304 8.24604Z" fill="#555961"/>
<path d="M10.4434 2.67743C10.4565 2.64774 10.5118 2.78419 10.5166 2.79658C10.5332 2.83424 10.5253 2.92802 10.5303 2.93622C10.5706 2.99304 10.5473 2.68464 10.6035 2.68232C10.6047 2.68679 10.6001 2.73866 10.6045 2.74482C10.619 2.76203 10.6324 2.73947 10.6465 2.75849C10.6572 2.77332 10.6658 2.80034 10.6738 2.82587C10.6901 2.87728 10.7041 2.92473 10.7353 2.86689C10.7414 2.85506 10.7349 2.67938 10.7842 2.68915C10.8039 2.69288 10.8909 2.69494 10.9141 2.70868C10.937 2.72222 10.9154 2.77739 10.917 2.77997C10.9725 2.86009 10.946 2.88887 10.9629 3.00165C10.9781 3.11416 11.002 2.85458 11.0186 2.82587C11.0353 2.79844 11.072 2.86639 11.0791 2.88935C11.0863 2.91223 11.0678 2.9452 11.0752 2.95868C11.1237 3.04726 11.1252 2.83494 11.1543 2.79755C11.2254 2.71045 11.2271 2.90952 11.2656 2.93915C11.2764 2.94702 11.2775 2.90243 11.2891 2.90009C11.3368 2.89572 11.3468 2.96158 11.4111 2.92255C11.4215 2.91547 11.4969 2.81687 11.4961 2.90693C11.4957 2.9199 11.4709 2.96283 11.4853 2.97919C11.507 3.00358 11.5502 3.0301 11.584 3.02607C11.609 3.02251 11.6143 2.93974 11.6318 2.97333C11.6395 2.98839 11.6008 3.02302 11.6162 3.04755L11.6172 3.05048C11.6345 3.07366 11.6867 3.09346 11.707 3.10126C11.728 3.10898 11.7428 3.04954 11.7461 3.04658C11.7657 3.03036 11.8165 3.02358 11.8223 3.02509C12.0089 3.1099 12.1057 3.29522 12.2725 3.38837C12.2855 3.39584 12.318 3.34157 12.3213 3.34052C12.3789 3.35379 12.2383 3.45842 12.2275 3.52411C12.3084 3.42229 12.3094 3.45311 12.3457 3.4665C12.3633 3.4722 12.3899 3.42921 12.3945 3.42646C12.4653 3.38829 12.4121 3.47312 12.4014 3.49091C12.3628 3.55648 12.4362 3.50589 12.4102 3.54951C12.3837 3.5926 12.3149 3.6278 12.3389 3.65009C12.3775 3.62441 12.4431 3.52415 12.4766 3.52411H12.4785C12.6056 3.54338 12.6595 3.7536 12.6963 3.82294C12.7354 3.89285 12.7561 3.91012 12.7676 3.95771C12.7868 4.04442 12.8468 3.97069 12.9102 3.99579C12.9733 4.02216 12.767 4.11005 12.7295 4.14033C12.692 4.16969 12.7381 4.15236 12.7197 4.17255C12.701 4.19266 12.6643 4.19281 12.665 4.21454C12.6658 4.23583 12.7655 4.24456 12.8135 4.22919C12.9148 4.19558 13.0021 4.12121 12.9932 4.19111C12.9925 4.1951 12.9354 4.21137 12.9355 4.22529C12.937 4.27968 12.9466 4.33027 12.9551 4.38056C12.9636 4.43118 12.9711 4.48174 12.9678 4.53388C12.9667 4.54809 12.9025 4.55774 12.9004 4.56611C12.885 4.65271 12.9797 4.59207 13.1094 4.60126C12.9515 4.63727 12.8639 4.6881 12.877 4.74286C12.8848 4.77631 12.952 4.75403 13.0059 4.76533C13.022 4.76892 12.9806 4.80393 13.0137 4.80146C13.123 4.79377 13.2374 4.74357 13.2031 4.81904C13.2006 4.82224 13.1423 4.82456 13.1396 4.83466C13.1281 4.90128 13.2419 4.88982 13.2656 4.95966C13.2843 5.01483 13.2245 5.12127 13.2158 5.18329C13.0344 5.19167 13.0778 5.24219 13.2031 5.26435C13.2009 5.28455 13.2014 5.30606 13.2002 5.32685C13.199 5.34728 13.1965 5.36761 13.1875 5.38642C13.1812 5.39935 13.1299 5.39014 13.123 5.3913C13.0334 5.41255 13.1529 5.43378 13.1582 5.44306C13.1991 5.54027 13.0984 5.6046 13.1738 5.70576C13.1767 5.70923 13.3004 5.73504 13.2061 5.74384C13.1995 5.74411 13.1474 5.70541 13.1357 5.74579C13.124 5.78707 13.0429 5.84727 13.085 5.91669C13.0953 5.93314 13.1845 5.99656 13.0996 6.00263C13.0881 6.00327 13.0541 5.98843 13.0332 5.98798C12.9671 5.98629 13.0862 6.03283 12.9766 6.02021C12.8668 6.00771 12.7791 6.01702 12.8311 6.09247C12.8338 6.09534 12.9229 6.14284 12.915 6.15888C12.9033 6.18252 12.8724 6.20896 12.8594 6.23408C12.8584 6.23591 12.8572 6.23811 12.8564 6.23993C12.8521 6.25278 12.9123 6.26935 12.9131 6.27216C12.9062 6.37514 12.8238 6.41369 12.7529 6.48896C12.7402 6.50219 12.7856 6.59353 12.709 6.58857C12.6253 6.58132 12.3878 6.38222 12.4043 6.48798C12.4123 6.52819 12.6996 6.79999 12.498 6.72822C12.4651 6.83883 12.3466 6.86661 12.29 6.95478C12.2796 6.97094 12.2712 6.9884 12.2656 7.00849C12.2638 7.01478 12.3279 7.10452 12.3174 7.11298C12.3016 7.12537 12.2576 7.09748 12.2451 7.10517C12.1924 7.13656 12.1849 7.20611 12.1396 7.24189C12.1225 7.25558 12.0898 7.21287 12.0693 7.22919C12.0497 7.24597 12.0855 7.30711 12.0371 7.30829C11.9998 7.30843 11.8816 7.22719 11.8447 7.23993C11.9427 7.33982 11.9233 7.35541 11.9189 7.41181C11.9182 7.42275 11.9595 7.45173 11.9609 7.45868C11.9669 7.48711 11.9279 7.46978 11.9365 7.4997C11.9394 7.50757 11.972 7.54074 11.9756 7.54853C12.007 7.61595 11.9035 7.57088 11.8838 7.5622C11.8139 7.53158 11.848 7.58425 11.8135 7.57978C11.7786 7.57501 11.7757 7.52735 11.7461 7.5329C11.685 7.54457 11.6439 7.5971 11.6055 7.63251C11.5903 7.64685 11.6455 7.68205 11.6445 7.68525C11.6254 7.72726 11.5461 7.71013 11.6191 7.81708C11.3654 7.60564 11.623 7.85779 11.5332 7.85517C11.5291 7.85498 11.4902 7.8207 11.457 7.78583C11.453 7.79191 11.4481 7.79805 11.4443 7.80439C11.437 7.81804 11.4568 7.84221 11.4141 7.8874C11.4108 7.89085 11.4066 7.89371 11.4033 7.89716C11.4926 7.91971 11.5911 8.00407 11.5225 8.04267C11.5052 8.05238 11.4919 7.95434 11.458 7.95478C11.3969 7.95636 11.4918 8.09353 11.3975 8.06318C11.387 8.05928 11.359 8.00453 11.3379 7.96064C11.2458 8.0501 11.1465 8.14196 11.0566 8.23896C11.0321 8.26556 11.0898 8.26819 11.0098 8.3122C11.0043 8.3151 10.9611 8.31316 10.9346 8.3288C10.9162 8.33963 10.878 8.39208 10.8516 8.40302C10.8253 8.41389 10.8545 8.36799 10.8203 8.37665C10.7853 8.38603 10.7388 8.44306 10.707 8.42353C10.6338 8.37776 10.5702 8.28527 10.5312 8.20576C10.5189 8.18088 10.557 8.16169 10.5498 8.14326C10.5356 8.10741 10.4981 8.09795 10.4863 8.06025C10.4826 8.04758 10.5372 8.01294 10.5322 8.00068C10.5046 7.93397 10.4485 7.90067 10.4102 7.84345C10.2212 7.56116 10.0063 7.31219 9.78808 7.05341C9.71632 6.96815 9.6611 6.83274 9.5625 6.76923C9.55125 6.76207 9.51916 6.80353 9.51269 6.80732C9.43508 6.82834 9.52264 6.75913 9.51465 6.73017C9.48267 6.61559 9.40491 6.53074 9.31933 6.47529C9.28278 6.45179 9.23568 6.55886 9.24902 6.48505C9.2521 6.47883 9.29744 6.44693 9.29492 6.43427C9.2862 6.40564 9.2436 6.37684 9.23242 6.35908C9.21114 6.32474 9.20556 6.32047 9.17968 6.29365C9.14475 6.25654 9.12222 6.19299 9.07422 6.16376C9.06355 6.1587 9.03195 6.21163 9.01172 6.20576C8.99135 6.19963 8.96083 6.16109 8.95898 6.13935C8.95726 6.11755 8.99539 6.08855 9.00097 6.0788C9.04795 5.9975 8.91852 6.04661 8.91113 6.04365C8.77875 5.98675 8.74816 5.85499 8.65918 5.7663C8.59154 5.69912 8.50325 5.64329 8.4414 5.57685C8.36796 5.49758 8.32609 5.40981 8.24804 5.33954C8.23989 5.33212 8.19892 5.39063 8.18847 5.38251C8.08094 5.28662 7.98547 5.17967 7.91797 5.04462C7.9114 5.03101 7.96795 5.00026 7.96386 4.98408C7.94689 4.91996 7.93607 4.81906 7.86719 4.79951C7.78503 4.73227 7.79995 4.61604 7.86719 4.53388C7.87758 4.49722 7.86508 4.44412 7.81152 4.36493C7.86106 4.33033 7.91992 4.28689 7.99609 4.28779C8.04511 4.28842 8.0697 4.35947 8.0791 4.30927C8.08027 4.29771 8.03092 4.2653 8.03711 4.25165C8.06422 4.19387 8.12415 4.16096 8.14453 4.09736C8.14854 4.08441 8.10932 4.04924 8.10449 4.03974C8.07008 3.96463 8.19404 4.02102 8.20801 4.02021C8.31316 4.01302 8.33518 3.95319 8.38867 3.90204C8.40112 3.89019 8.3365 3.85374 8.34668 3.84052C8.40007 3.77272 8.46715 3.71442 8.54883 3.67743C8.56689 3.66943 8.59707 3.72251 8.6084 3.72236C8.65615 3.71443 8.58174 3.62703 8.62597 3.61786C8.63538 3.61624 8.66875 3.65584 8.67383 3.65888C8.7533 3.70622 8.67754 3.6025 8.67968 3.59638C8.70303 3.52308 8.81346 3.56918 8.85937 3.52607C8.86107 3.5245 8.86412 3.51948 8.86718 3.51435C8.87072 3.50567 8.81104 3.47548 8.82715 3.45478C8.93964 3.31499 9.10272 3.20587 9.27636 3.15497C9.3033 3.14701 9.31452 3.19869 9.31933 3.20283C9.39204 3.26692 9.34049 3.15537 9.34375 3.14326C9.3851 3.0767 9.49189 3.13916 9.46191 2.9831C9.53181 2.96048 9.59846 2.93364 9.66504 2.90693C9.87105 2.82382 10.091 2.7374 10.3223 2.80732C10.3261 2.80835 10.3295 2.87191 10.3369 2.87372C10.4252 2.89675 10.3956 2.80235 10.4434 2.67743ZM11.332 7.73505C11.3303 7.73739 11.3434 7.75473 11.3467 7.75458C11.4058 7.71293 11.3774 7.67569 11.332 7.73505ZM11.583 7.59736C11.5816 7.6078 11.5777 7.61787 11.5723 7.62861C11.5904 7.63234 11.5889 7.61817 11.583 7.59736ZM10.4043 3.46552C10.3834 3.44556 10.3428 3.43036 10.332 3.47236C10.3219 3.51444 10.3672 3.64408 10.3447 3.65986C10.25 3.72794 10.1263 3.68271 10.0166 3.7165C10.0152 3.71694 10.0144 3.71847 10.0137 3.71943C10.0068 3.72939 10.03 3.76176 10.0107 3.77118C9.92946 3.8099 9.82748 3.92109 9.70605 3.88154C9.60584 3.85099 9.63651 3.75142 9.57519 3.75361C9.54431 3.75603 9.61788 3.89838 9.61718 3.90595C9.60484 3.97945 9.53037 3.95047 9.50683 4.00068C9.50386 4.01164 9.55295 4.05137 9.54883 4.05927C9.53515 4.08664 9.49341 4.08742 9.47754 4.11103C9.47361 4.11794 9.48668 4.13352 9.49414 4.14521C9.49236 4.14677 9.48802 4.15164 9.48633 4.15302C9.49 4.16042 9.49139 4.16651 9.48633 4.16962C9.45361 4.19034 9.41571 4.19927 9.35742 4.19306C9.35208 4.19249 9.32419 4.13379 9.30273 4.15204C9.26806 4.18152 9.19634 4.18969 9.19238 4.25947C9.19136 4.28038 9.27049 4.35981 9.19238 4.3288C9.17602 4.32233 9.08702 4.22129 9.1416 4.33076C9.15063 4.34902 9.21514 4.5055 9.12109 4.45673C9.09583 4.4435 9.0047 4.38255 9.00293 4.40693C9.00309 4.41067 9.05268 4.44654 9.0459 4.46161C9.0213 4.51385 8.97646 4.54957 8.95019 4.60224C8.94328 4.61642 9.0026 4.64498 8.99121 4.66474C8.98614 4.67332 8.97823 4.68019 8.97168 4.68818C9.01931 4.74413 9.06494 4.79923 9.10449 4.84931C9.23606 5.01541 9.31669 5.16674 9.46777 5.29951C9.47795 5.30628 9.5176 5.24896 9.52636 5.25556C9.63864 5.34406 9.71818 5.46218 9.83301 5.54853C9.84234 5.5557 9.877 5.49757 9.89355 5.50751C9.92781 5.52759 9.96012 5.56475 9.97265 5.60712C9.97775 5.62757 9.92072 5.64988 9.92773 5.66962C9.94407 5.71573 9.97423 5.75234 10.0137 5.77704C10.0307 5.78748 10.0578 5.71985 10.0762 5.73701C10.2024 5.85378 10.3306 5.9645 10.3916 6.14911C10.3958 6.16179 10.3062 6.26703 10.3428 6.2663C10.3711 6.24071 10.4023 6.20856 10.4316 6.18036C10.624 6.34171 10.7654 6.5505 10.9375 6.7331C10.9448 6.74077 10.9836 6.67687 10.998 6.69111C11.0811 6.77571 11.1773 6.84322 11.2119 6.98017C11.214 6.9946 11.1207 7.0802 11.1592 7.0915C11.1676 7.0943 11.2163 7.11877 11.2451 7.10908C11.2494 7.10744 11.2844 7.05834 11.2978 7.06904C11.3749 7.13329 11.4396 7.21683 11.4844 7.31318C11.4915 7.32882 11.4348 7.36219 11.4395 7.37372C11.4653 7.43583 11.5262 7.46808 11.5605 7.52216C11.5659 7.45814 11.6158 7.44863 11.6211 7.39521C11.6249 7.35896 11.5191 7.24942 11.5381 7.23701C11.6012 7.19572 11.7694 7.32748 11.6885 7.14814C11.6712 7.10979 11.5434 7.00255 11.6738 7.05732C11.6846 7.0621 11.7937 7.11641 11.7568 7.04755C11.7521 7.03876 11.718 7.00429 11.7178 6.99872C11.7172 6.96226 11.756 6.97726 11.7627 6.94501C11.7692 6.91232 11.7736 6.86889 11.8076 6.8581C11.828 6.85157 11.9094 6.89765 11.9316 6.90693C11.995 6.93377 11.9409 6.84116 12.0068 6.88447C12.0729 6.92814 12.134 7.03321 12.1992 7.03876C12.1113 6.94862 12.0223 6.8547 11.9346 6.76337C11.963 6.73753 11.9954 6.716 12.0283 6.69501C12.0731 6.66818 12.1129 6.64457 12.1406 6.60908C12.1463 6.60153 12.091 6.56383 12.0947 6.55439C12.1139 6.5166 12.1746 6.5188 12.1865 6.47236C12.1952 6.43615 12.1593 6.365 12.1631 6.32783C12.2931 6.39305 12.2821 6.32049 12.3125 6.2956C12.3233 6.28664 12.3563 6.30728 12.3721 6.30536C12.4302 6.2971 12.3138 6.24884 12.2998 6.23017C12.2449 6.15328 12.4986 6.28907 12.5176 6.23701C12.5123 6.22886 12.399 6.13784 12.3896 6.12861C12.3453 6.07658 12.44 6.14776 12.458 6.13642C12.4825 6.12081 12.5128 6.11222 12.5156 6.08661C12.5165 6.07806 12.5135 6.06762 12.5068 6.05439C12.4987 6.03814 12.4205 5.97959 12.4971 5.98603C12.5079 5.98723 12.554 6.00573 12.5576 6.00458C12.6188 5.98107 12.4689 5.92562 12.4248 5.8874C12.3809 5.84976 12.4956 5.85098 12.5283 5.85224C12.6128 5.85673 12.5581 5.87629 12.5654 5.87958C12.6531 5.91994 12.6455 5.88836 12.6592 5.86982C12.8106 5.91017 12.8105 5.87595 12.6728 5.85029C12.6579 5.84752 12.6673 5.86759 12.6592 5.86982C12.517 5.80875 12.5054 5.77829 12.6533 5.77704C12.7224 5.77614 12.7953 5.80972 12.7793 5.75068C12.7717 5.72384 12.6636 5.71086 12.6387 5.68525C12.5822 5.62844 12.6908 5.58585 12.6807 5.53486C12.6766 5.51719 12.6166 5.52717 12.6113 5.51533C12.5987 5.48355 12.6447 5.45996 12.624 5.42743C12.6192 5.42491 12.5608 5.42672 12.5605 5.41767C12.5592 5.38428 12.5673 5.35362 12.5762 5.32197C12.5859 5.28722 12.5961 5.25057 12.5947 5.21161C12.5934 5.17515 12.5545 5.11467 12.5566 5.07783C12.5609 5.01442 12.6341 4.91746 12.5996 4.86591C12.5773 4.83354 12.5189 4.85648 12.4746 4.85224C12.3893 4.84567 12.5161 4.75759 12.5352 4.74286C12.5371 4.7439 12.5593 4.76789 12.584 4.74384C12.6427 4.71602 12.5414 4.74146 12.5352 4.74286C12.5477 4.73343 12.5409 4.66965 12.5254 4.66181C12.516 4.65825 12.4633 4.68085 12.46 4.67841C12.4326 4.65724 12.4097 4.63505 12.3906 4.61201C12.3564 4.57059 12.3352 4.52459 12.3271 4.4704C12.3275 4.46858 12.3866 4.44022 12.3867 4.43622C12.3897 4.3795 12.3041 4.39048 12.2441 4.38251C12.184 4.37424 12.1824 4.34231 12.2627 4.26044C12.2351 4.2432 12.2512 4.17995 12.2598 4.1413C12.2682 4.1026 12.1643 4.17752 12.1611 4.17743C12.0576 4.17494 12.0908 4.1012 12.0518 4.04169C12.0427 4.02786 12.0233 4.01217 12.002 3.99872C11.9804 3.98512 11.9562 3.97339 11.9385 3.9665C11.9106 3.956 11.9176 3.92211 11.8857 3.91962C11.8815 3.91931 11.8469 3.96552 11.8447 3.9665C11.7802 4.00023 11.8792 3.90238 11.8906 3.87958C11.9319 3.79661 11.9497 3.74925 11.8926 3.75849C11.8765 3.76299 11.7386 3.90463 11.7207 3.90595C11.6969 3.90667 11.7445 3.85289 11.7178 3.85517C11.7155 3.85533 11.6905 3.89109 11.6816 3.88251C11.6401 3.84337 11.5998 3.78875 11.5449 3.76337C11.5376 3.75987 11.513 3.82414 11.502 3.82197C11.451 3.80363 11.4001 3.77607 11.3643 3.72529C11.3561 3.7122 11.3818 3.67038 11.3848 3.65595C11.389 3.63415 11.3883 3.6241 11.3838 3.62177C11.3697 3.61541 11.3286 3.67679 11.3252 3.67743C11.2143 3.70065 11.1754 3.56888 11.0625 3.60029C11.0534 3.60645 10.991 3.72574 10.9941 3.60908C10.9947 3.59761 10.995 3.48094 10.9658 3.55829C10.9641 3.56324 10.9656 3.62556 10.9473 3.61689C10.9282 3.60762 10.8921 3.64448 10.8721 3.57392C10.8662 3.55072 10.8546 3.43101 10.8203 3.52411C10.8156 3.53498 10.7668 3.74236 10.7598 3.59443C10.7586 3.56981 10.7665 3.4117 10.7314 3.49189C10.725 3.50742 10.7345 3.54235 10.7187 3.56415C10.7069 3.58037 10.6937 3.57953 10.6797 3.58173C10.6648 3.5841 10.6492 3.59072 10.6357 3.62763C10.6307 3.64028 10.6156 3.74803 10.5947 3.66767C10.5914 3.65501 10.5929 3.60411 10.584 3.59736C10.5382 3.57196 10.4961 3.61119 10.4473 3.58173C10.4297 3.57136 10.4251 3.48581 10.4043 3.46552ZM11.7578 7.37079C11.7178 7.35005 11.7247 7.41329 11.7744 7.43915C11.8145 7.45991 11.8076 7.39663 11.7578 7.37079ZM12.1465 6.67939C12.0765 6.64281 12.1855 6.77289 12.2139 6.78681C12.3088 6.8304 12.2178 6.71485 12.1465 6.67939ZM12.4736 3.75849C12.412 3.79607 12.4371 3.83323 12.4873 3.77802C12.4883 3.77488 12.4767 3.7583 12.4736 3.75849ZM11.2227 3.05439C11.21 3.11363 11.235 3.10187 11.2412 3.0456C11.241 3.04218 11.2266 3.03623 11.2227 3.05439ZM10.209 2.88349C10.2046 3.00263 10.3119 2.99461 10.2676 2.87861C10.2637 2.87284 10.2096 2.87736 10.209 2.88349Z" fill="#555961"/>
<path d="M3.48535 12.3236C3.43837 12.2709 3.51911 12.3424 3.5332 12.3548C3.58664 12.4021 3.54421 12.3569 3.5664 12.3744C3.58833 12.3917 3.6093 12.4196 3.62402 12.4291C3.65453 12.4482 3.65675 12.4353 3.66406 12.431C3.66374 12.4267 3.61978 12.3854 3.61914 12.3841C3.61359 12.3691 3.66468 12.4105 3.57812 12.3187C3.81419 12.5481 3.55886 12.2936 3.6123 12.3334C3.61894 12.3389 3.72728 12.4462 3.74121 12.4642C3.75501 12.4822 3.718 12.4509 3.74023 12.4789C3.74544 12.4854 3.84401 12.5913 3.85058 12.599C3.8951 12.6518 3.7309 12.4896 3.7207 12.4798C3.62154 12.3856 3.7254 12.4985 3.7334 12.5091C3.76275 12.5499 3.73491 12.5323 3.75488 12.5619C3.76792 12.5812 3.87496 12.6888 3.87011 12.6888C3.85103 12.6861 3.69808 12.5385 3.82031 12.6761C3.84644 12.7056 3.96563 12.8223 3.86718 12.7357C3.86098 12.7302 3.7724 12.6495 3.82324 12.7054C3.82961 12.7124 3.86319 12.7465 3.86621 12.7503C3.88203 12.7718 3.85326 12.7469 3.86328 12.763C3.8732 12.779 3.88822 12.8016 3.87402 12.7943C3.86495 12.7895 3.79799 12.728 3.78125 12.7132C3.73329 12.671 3.80442 12.7475 3.74804 12.6947C3.69152 12.6417 3.61152 12.5557 3.57129 12.5248C3.66017 12.614 3.75154 12.7054 3.84082 12.7953C3.82746 12.8024 3.78887 12.7843 3.78222 12.7982C3.78152 12.8001 3.83057 12.8467 3.83105 12.85C3.83285 12.8633 3.79333 12.8344 3.80078 12.8539C3.80684 12.8692 3.85227 12.925 3.86035 12.9427C3.75559 12.8439 3.7831 12.8853 3.76855 12.8812C3.7632 12.8794 3.73682 12.8528 3.72656 12.8451C3.68879 12.8171 3.781 12.9046 3.79394 12.9203C3.84871 12.9866 3.64435 12.7834 3.64258 12.7953C3.64792 12.8017 3.74693 12.9092 3.75293 12.9164C3.7923 12.9633 3.71586 12.8806 3.7041 12.8734C3.685 12.8631 3.65593 12.8403 3.68261 12.8773C3.69131 12.8891 3.75348 12.959 3.69922 12.9105C3.69196 12.904 3.65573 12.8674 3.65332 12.8656C3.61299 12.8365 3.72567 12.9491 3.76074 12.9906C3.79569 13.0319 3.71317 12.9595 3.68945 12.9378C3.62866 12.8823 3.66669 12.9105 3.66113 12.9046C3.59496 12.8351 3.60225 12.851 3.59375 12.848C3.7 12.9591 3.70977 12.9771 3.60351 12.8802C3.55376 12.8348 3.50103 12.7771 3.51465 12.8041C3.521 12.8164 3.59812 12.892 3.61621 12.9154C3.65685 12.9682 3.5781 12.9057 3.583 12.9232C3.58598 12.9304 3.62921 12.9693 3.63183 12.975C3.63799 12.9893 3.60348 12.9628 3.61523 12.9828C3.61659 12.9848 3.65703 13.0235 3.66015 13.0287C3.65544 13.0435 3.61968 13.0245 3.6084 13.0336C3.60311 13.0381 3.61816 13.0711 3.6084 13.0716C3.59136 13.0724 3.51657 13.0203 3.52441 13.0433C3.52979 13.0584 3.57405 13.1005 3.60156 13.1322C3.6548 13.1936 3.54655 13.0995 3.52832 13.0834C3.51751 13.0738 3.49912 13.0719 3.50488 13.0814C3.50846 13.0868 3.54922 13.1268 3.55175 13.1302C3.57742 13.1787 3.57678 13.2005 3.5459 13.1927C3.54425 13.1915 3.50081 13.1478 3.49707 13.1449C3.46983 13.131 3.52163 13.1916 3.5498 13.2308C3.57792 13.27 3.56228 13.2631 3.47949 13.1869C3.48534 13.201 3.44469 13.1716 3.41992 13.1537C3.39534 13.1359 3.48485 13.2268 3.48632 13.2289C3.53385 13.2952 3.47678 13.2496 3.45898 13.2513C3.45043 13.252 3.4542 13.2735 3.45898 13.2884C3.46295 13.3004 3.43937 13.282 3.44922 13.2992C3.4506 13.3015 3.49036 13.341 3.49218 13.3431C3.53613 13.3953 3.44025 13.2944 3.42187 13.2777C3.35557 13.2175 3.31973 13.1857 3.34375 13.2201C3.34941 13.2281 3.48807 13.3737 3.49414 13.3841C3.50071 13.3962 3.45209 13.346 3.46093 13.3607C3.46166 13.3619 3.49186 13.3921 3.49023 13.3939C3.47568 13.3965 3.44824 13.3878 3.44238 13.3998C3.44513 13.4045 3.49169 13.4496 3.49121 13.4525C3.48869 13.4664 3.47813 13.4733 3.44726 13.4584C3.43946 13.4545 3.40644 13.4187 3.3955 13.4086C3.33058 13.3489 3.41665 13.4431 3.41797 13.4457C3.44676 13.5039 3.35392 13.4336 3.37793 13.4877C3.3837 13.4956 3.46766 13.5914 3.38379 13.513C3.37712 13.5068 3.29022 13.4263 3.3457 13.4867C3.35015 13.4913 3.39351 13.5308 3.38769 13.5306C3.38021 13.5292 3.40392 13.5639 3.35156 13.5199C3.33498 13.5059 3.24771 13.4238 3.31152 13.4955C3.31901 13.5037 3.46119 13.6584 3.35449 13.556C3.33589 13.5381 3.22619 13.4272 3.27832 13.4886C3.28854 13.5006 3.3149 13.5244 3.32812 13.5423C3.3485 13.5699 3.31398 13.5447 3.35937 13.599C3.36759 13.6088 3.44008 13.6871 3.37988 13.6322C3.37007 13.6232 3.33365 13.5861 3.32812 13.5834C3.3015 13.57 3.31967 13.6015 3.28711 13.5824C3.27555 13.5756 3.21591 13.514 3.19726 13.5003C3.17874 13.4868 3.15897 13.4764 3.18359 13.5062C3.20859 13.5364 3.30772 13.6303 3.31152 13.6419C3.3277 13.692 3.25465 13.6528 3.22949 13.6615C3.22589 13.6629 3.26183 13.6952 3.25879 13.6996C3.24813 13.7163 3.25587 13.7708 3.17187 13.7103C3.10377 13.6612 3.07114 13.6039 3.04004 13.5873C3.02537 13.5795 3.13101 13.693 3.13574 13.6996C3.16327 13.7436 3.10843 13.7004 3.11621 13.723C3.12017 13.7296 3.16418 13.7714 3.16504 13.7748C3.16834 13.787 3.14313 13.7717 3.14257 13.7796C3.1433 13.7839 3.1761 13.8159 3.17382 13.8168C3.16363 13.815 3.14487 13.804 3.1084 13.7757C3.10506 13.7732 3.06428 13.7274 3.05957 13.7289C3.05161 13.7309 3.0141 13.7061 3.04101 13.7445C3.04923 13.7561 3.12843 13.8353 3.07031 13.7845C3.05812 13.7739 2.96417 13.6776 3.04199 13.764C3.05508 13.7786 3.15789 13.8963 3.083 13.8285C3.06306 13.8104 2.98492 13.737 2.99316 13.7494C2.99482 13.7516 3.03803 13.7929 3.04101 13.7992C3.0488 13.819 3.03808 13.821 3.04492 13.8402C3.0469 13.8455 3.09415 13.8874 3.0957 13.8939C3.09983 13.9116 3.07991 13.9088 3.05957 13.9017C3.05188 13.8989 3.01683 13.8606 3.01269 13.8568C2.94684 13.7966 3.02922 13.8822 3.03515 13.89C3.05964 13.9263 3.01416 13.8903 3.01953 13.9066C3.02095 13.911 3.06398 13.9514 3.06738 13.9554C3.10001 13.9942 3.02774 13.9177 3.01757 13.9115C2.98885 13.8938 2.98561 13.9035 2.98535 13.9144C2.98654 13.9194 3.03573 13.9641 3.03515 13.9671C3.03254 13.9862 3.01658 13.9928 2.97949 13.9769C2.9715 13.9726 2.93645 13.935 2.92773 13.9271C2.8665 13.8716 2.9425 13.9565 2.94922 13.9652C2.97982 14.0046 2.94601 13.9737 2.94824 13.9837C2.95935 14.0328 2.91405 14.0349 2.88281 14.0394C2.84232 14.0454 2.78865 14.0279 2.77539 14.0589C2.77451 14.0609 2.82532 14.1094 2.82519 14.1117C2.82121 14.1391 2.78672 14.1355 2.78515 14.1654C2.78494 14.1678 2.83373 14.2127 2.83496 14.2181C2.83779 14.2295 2.82973 14.2326 2.81054 14.222C2.80133 14.217 2.76481 14.1742 2.75586 14.1693C2.73589 14.1592 2.72706 14.1616 2.72949 14.1742C2.73256 14.181 2.77966 14.2223 2.77929 14.2269C2.76497 14.2507 2.75404 14.2783 2.67285 14.2357C2.66595 14.2314 2.57019 14.1373 2.58496 14.1576C2.61172 14.1848 2.64411 14.2165 2.67285 14.2455C2.66066 14.2886 2.59954 14.2827 2.5664 14.305C2.56504 14.306 2.61678 14.3541 2.61621 14.3578C2.60232 14.3701 2.60332 14.3971 2.53906 14.3597C2.53272 14.3561 2.44238 14.2649 2.45215 14.2826C2.45411 14.2863 2.46079 14.3038 2.47851 14.3246C2.4818 14.3282 2.52411 14.3693 2.52343 14.3724C2.5186 14.3896 2.4975 14.3919 2.46093 14.3773C2.45499 14.3749 2.413 14.329 2.40722 14.3255C2.37429 14.3107 2.39814 14.3549 2.34863 14.3226C2.31528 14.3008 2.23977 14.2203 2.16015 14.1468C2.14902 14.1366 2.14317 14.1383 2.09863 14.0941C1.98615 13.9826 1.8652 13.8583 1.74511 13.7396C1.71923 13.714 1.74197 13.746 1.68261 13.681C1.67831 13.6761 1.66139 13.6527 1.6416 13.6312C1.62761 13.616 1.58093 13.571 1.56347 13.5511C1.54662 13.5319 1.58526 13.5681 1.56543 13.5443C1.54529 13.5202 1.49385 13.4699 1.49121 13.4593C1.48673 13.4362 1.51341 13.4386 1.54297 13.4496C1.55217 13.4529 1.57929 13.4821 1.58691 13.4857C1.60153 13.4925 1.59155 13.4756 1.6084 13.4847C1.61465 13.4885 1.65714 13.5342 1.66211 13.5365C1.68872 13.5484 1.68467 13.5309 1.70117 13.5326C1.78484 13.5423 1.83877 13.5224 1.89648 13.5052C1.91589 13.5001 1.97071 13.5247 1.96582 13.4945C1.96519 13.4909 1.92564 13.4538 1.92187 13.4496C1.877 13.3958 1.95439 13.4762 1.96777 13.4837C2.02064 13.5136 2.03721 13.504 2.0332 13.4779C2.03088 13.4663 1.9489 13.3943 1.99707 13.433C2.00034 13.4356 2.04115 13.4777 2.04687 13.4808C2.05967 13.4877 2.05793 13.4749 2.06347 13.4759C2.07405 13.478 2.07466 13.4775 2.0791 13.474C2.08576 13.4693 2.11271 13.4826 2.10937 13.4671C2.10653 13.4621 2.06461 13.4225 2.05957 13.4134C2.05469 13.4044 2.06349 13.4025 2.07519 13.4105C2.08705 13.4187 2.11987 13.4529 2.12793 13.4603C2.19531 13.5223 2.11175 13.4262 2.11035 13.4232C2.08792 13.3712 2.15128 13.4089 2.16504 13.3949C2.17521 13.384 2.17029 13.3567 2.18261 13.349C2.19753 13.3399 2.23059 13.3519 2.23828 13.3363C2.23587 13.3318 2.18825 13.2871 2.18847 13.2845C2.1986 13.2628 2.21997 13.2521 2.26953 13.2699C2.27455 13.2717 2.31657 13.3182 2.32422 13.3226C2.37011 13.349 2.47214 13.4196 2.28711 13.223C2.30106 13.2238 2.31734 13.2239 2.36132 13.2562C2.38986 13.2772 2.43324 13.3285 2.41797 13.3041C2.41447 13.2985 2.37121 13.2575 2.36914 13.2523C2.36051 13.2304 2.38126 13.2366 2.36621 13.2084C2.36264 13.2022 2.3247 13.1656 2.31836 13.1586C2.26696 13.1008 2.36336 13.1854 2.37109 13.1908C2.42817 13.2304 2.41601 13.2059 2.4248 13.1986C2.42701 13.197 2.37469 13.1482 2.375 13.1449C2.37745 13.1285 2.39164 13.1233 2.42285 13.1361C2.43002 13.1391 2.47191 13.1842 2.47754 13.1878C2.50045 13.2022 2.42176 13.1209 2.44336 13.1341C2.44855 13.1377 2.48413 13.1743 2.48828 13.1781C2.55264 13.2375 2.46947 13.1509 2.46484 13.1449C2.44594 13.1096 2.54539 13.1973 2.54004 13.1761C2.53809 13.1725 2.49294 13.1317 2.49121 13.1253C2.49611 13.0948 2.52738 13.0882 2.58203 13.1078C2.59032 13.1107 2.62247 13.1464 2.62793 13.1517C2.69735 13.2156 2.6116 13.1264 2.60742 13.1205C2.58999 13.089 2.67202 13.1575 2.56933 13.0453C2.63634 13.0528 2.60596 12.9632 2.73144 13.0296C2.73292 13.0304 2.77582 13.0755 2.77929 13.0775C2.81326 13.0934 2.74255 13.0253 2.66406 12.9349C2.64583 12.9137 2.74966 13.0087 2.75879 13.0169C2.78775 13.043 2.85236 13.1105 2.8584 13.1156C2.90395 13.153 2.68905 12.9394 2.69043 12.93C2.69096 12.9302 2.73089 12.9714 2.73535 12.975C2.74875 12.9855 2.73487 12.9685 2.75 12.9808C2.78538 13.0098 2.892 13.114 2.83593 13.0482C2.82855 13.0396 2.70375 12.917 2.71386 12.9173C2.71826 12.9178 2.72488 12.9069 2.73535 12.9125C2.74582 12.9181 2.78423 12.9597 2.78613 12.9613C2.84541 13.0075 2.86486 13.0319 2.94629 13.1068C3.0275 13.1815 2.8407 12.9961 2.82129 12.974C2.80256 12.9525 2.85091 12.9913 2.86718 13.0052C2.88352 13.0193 2.90742 13.0456 2.91699 13.0531C2.97997 13.1022 2.82701 12.9579 2.7998 12.9261C2.7361 12.8517 2.87806 12.985 2.89648 12.9935C2.89993 12.9945 2.86937 12.9657 2.86718 12.9613C2.86069 12.9454 2.90614 12.9856 2.87207 12.9408C2.86624 12.9332 2.78805 12.8467 2.85156 12.9046C2.86086 12.9132 2.89462 12.9478 2.90429 12.9535C2.91877 12.9619 2.93107 12.9642 2.92285 12.9496C2.91619 12.9383 2.85773 12.8855 2.87793 12.8998C2.88711 12.9063 2.91812 12.942 2.93261 12.9515C2.94642 12.9605 2.95164 12.9532 2.95312 12.9496C2.95437 12.946 2.90992 12.9038 2.90722 12.9007C2.89302 12.8843 2.87865 12.8613 2.87695 12.8578C2.89241 12.8318 2.98329 12.8843 2.97949 12.8402C2.97643 12.8345 2.93532 12.7954 2.93261 12.7923C2.91906 12.768 3.03502 12.8925 3.0791 12.9291C2.98674 12.8378 3.00524 12.8521 2.99902 12.8382C2.99596 12.8315 2.96018 12.7977 2.95605 12.7933C2.9049 12.7367 2.97613 12.8036 2.99121 12.8177C3.04554 12.8684 2.98612 12.8044 3.02246 12.8382C3.05851 12.8719 3.10736 12.9265 3.11035 12.9222C3.07864 12.8885 2.99036 12.8057 2.97851 12.7884C2.9366 12.7257 3.02176 12.7726 3.03808 12.7718C3.05347 12.7704 3.05065 12.761 3.06738 12.7679C3.09771 12.7806 3.03055 12.7206 3.00683 12.6859C2.98316 12.6512 3.13735 12.8112 3.17187 12.8441C3.20606 12.8767 3.17291 12.8412 3.19238 12.8587C3.21149 12.876 3.2318 12.9004 3.24121 12.9056C3.25042 12.9103 3.19755 12.8441 3.16308 12.808C3.09006 12.7315 3.00843 12.6565 3.04199 12.6781C3.04543 12.681 3.08446 12.7212 3.08984 12.724C3.13203 12.7452 3.14504 12.7367 3.18359 12.7543C3.18993 12.7579 3.23371 12.8041 3.2373 12.806C3.27453 12.826 3.1942 12.752 3.11328 12.6615C3.22661 12.777 3.29933 12.8442 3.30664 12.8382C3.31049 12.8342 3.26001 12.785 3.22754 12.7474C3.21854 12.7368 3.25515 12.7673 3.23242 12.7435C3.15729 12.665 3.06829 12.5823 3.10937 12.6097C3.11301 12.6129 3.15275 12.6541 3.15625 12.6556C3.1783 12.6645 3.10012 12.5836 3.09765 12.5668C3.09647 12.5542 3.1546 12.5926 3.16894 12.5941C3.29741 12.7228 3.2737 12.6872 3.1875 12.5961C3.19532 12.5955 3.1956 12.5859 3.21191 12.5941C3.21829 12.5979 3.25367 12.6352 3.25781 12.639C3.32341 12.6992 3.2388 12.6111 3.23632 12.6068C3.21371 12.5646 3.28685 12.6213 3.23242 12.5482C3.22907 12.5442 3.14182 12.4567 3.20898 12.5189C3.2136 12.5232 3.25079 12.5663 3.25879 12.5658C3.26634 12.5645 3.32239 12.6035 3.28711 12.556C3.27754 12.5434 3.21115 12.4694 3.26953 12.5218C3.27762 12.5291 3.30352 12.556 3.31836 12.5697C3.36473 12.6123 3.2762 12.5221 3.35449 12.5961C3.43337 12.6705 3.49586 12.7234 3.44922 12.6644C3.44793 12.6627 3.38368 12.5957 3.38086 12.5892C3.38588 12.588 3.40544 12.5978 3.4082 12.5941C3.40749 12.5907 3.36623 12.5515 3.36328 12.5482C3.3488 12.5129 3.39546 12.545 3.42382 12.5511C3.42911 12.5523 3.37487 12.4857 3.42675 12.5296C3.48379 12.5781 3.69639 12.7996 3.65527 12.7386C3.63851 12.7138 3.3669 12.4315 3.51758 12.5677C3.49608 12.5181 3.58158 12.5789 3.54492 12.514C3.542 12.5098 3.46934 12.4326 3.4707 12.431C3.47462 12.4305 3.51264 12.4654 3.5166 12.4662C3.53357 12.47 3.50938 12.4336 3.5205 12.432C3.52599 12.4331 3.55964 12.4686 3.56543 12.4691C3.57036 12.4683 3.52348 12.4174 3.55078 12.4369C3.57183 12.452 3.67577 12.5492 3.6914 12.557C3.59248 12.4578 3.59657 12.4571 3.57519 12.4261C3.56996 12.4192 3.5359 12.3867 3.53222 12.3822C3.51629 12.3627 3.54598 12.3895 3.52832 12.3685C3.52317 12.3626 3.49063 12.3295 3.48535 12.3236ZM2.14843 14.1117C2.1972 14.1631 2.20571 14.1619 2.15234 14.1107C2.15008 14.109 2.14651 14.1096 2.14843 14.1117ZM2.75781 13.0814C2.83696 13.1667 2.85729 13.164 2.76855 13.0804C2.76396 13.0761 2.754 13.0771 2.75781 13.0814ZM2.98047 13.0814C3.02362 13.1243 3.01422 13.1096 2.97363 13.0707C2.97122 13.0684 2.96744 13.0684 2.98047 13.0814ZM3.1123 12.8861C3.16111 12.9376 3.16961 12.9363 3.11621 12.8851C3.11394 12.8835 3.11039 12.8841 3.1123 12.8861ZM3.66894 12.6644C3.59482 12.5986 3.69499 12.7041 3.75195 12.7552C3.80818 12.8056 3.69194 12.6849 3.66894 12.6644ZM3.64746 12.472C3.61563 12.4432 3.64686 12.482 3.68652 12.5179C3.71847 12.5468 3.6872 12.508 3.64746 12.472ZM3.61328 12.307C3.64795 12.3318 3.53531 12.2127 3.60254 12.2699C3.61489 12.2804 3.71904 12.3968 3.71777 12.3968C3.69755 12.398 3.5065 12.2196 3.53906 12.2289C3.54511 12.2307 3.59386 12.293 3.61328 12.307Z" fill="#555961"/>
<path d="M13.8187 1.99022C13.7717 1.93754 13.8524 2.00899 13.8665 2.02147C13.92 2.06874 13.8775 2.02353 13.8997 2.041C13.9217 2.05833 13.9426 2.0862 13.9574 2.09568C13.9879 2.11479 13.9901 2.10193 13.9974 2.09764C13.9971 2.0933 13.9531 2.05204 13.9525 2.05076C13.9469 2.03572 13.998 2.07716 13.9115 1.98533C14.1475 2.21476 13.8922 1.96024 13.9456 1.99998C13.9523 2.00554 14.0606 2.11282 14.0745 2.13084C14.0883 2.14879 14.0513 2.11752 14.0736 2.14549C14.0788 2.15205 14.1773 2.25791 14.1839 2.26561C14.2284 2.31843 14.0642 2.15622 14.054 2.14647C13.9549 2.05226 14.0587 2.16516 14.0667 2.17576C14.0961 2.21656 14.0682 2.19896 14.0882 2.2285C14.1013 2.24779 14.2083 2.35542 14.2034 2.35545C14.1844 2.35275 14.0314 2.2051 14.1536 2.34275C14.1798 2.3722 14.299 2.48891 14.2005 2.40232C14.1943 2.39686 14.1057 2.31612 14.1566 2.37205C14.163 2.37906 14.1965 2.41313 14.1995 2.41697C14.2154 2.43845 14.1866 2.4135 14.1966 2.42967C14.2065 2.44564 14.2216 2.46822 14.2074 2.46092C14.1983 2.45608 14.1313 2.39458 14.1146 2.37986C14.0666 2.33763 14.1378 2.41414 14.0814 2.36131C14.0249 2.30834 13.9449 2.22235 13.9046 2.19139C13.9935 2.28062 14.0849 2.37206 14.1742 2.46189C14.1608 2.469 14.1222 2.45095 14.1156 2.46482C14.1149 2.46668 14.1639 2.51336 14.1644 2.51658C14.1662 2.52992 14.1267 2.50107 14.1341 2.52049C14.1402 2.53581 14.1856 2.59158 14.1937 2.60936C14.0889 2.51053 14.1164 2.55192 14.1019 2.54783C14.0965 2.54602 14.0702 2.51943 14.0599 2.5117C14.0221 2.48376 14.1143 2.57127 14.1273 2.58689C14.182 2.65323 13.9777 2.45003 13.9759 2.46189C13.9813 2.46837 14.0803 2.57581 14.0863 2.58299C14.1256 2.62995 14.0492 2.54724 14.0374 2.54002C14.0183 2.52975 13.9893 2.50688 14.0159 2.54393C14.0246 2.55568 14.0868 2.62558 14.0326 2.57713C14.0253 2.57065 13.9891 2.534 13.9867 2.53221C13.9463 2.50308 14.059 2.61573 14.0941 2.65721C14.129 2.69857 14.0465 2.62614 14.0228 2.60447C13.962 2.54897 14 2.57712 13.9945 2.57127C13.9283 2.50174 13.9356 2.5176 13.9271 2.51463C14.0333 2.62574 14.0431 2.64372 13.9368 2.54686C13.8871 2.50147 13.8344 2.44373 13.848 2.47068C13.8543 2.48306 13.9315 2.55858 13.9495 2.58201C13.9902 2.63486 13.9114 2.57236 13.9163 2.58982C13.9193 2.59704 13.9625 2.63589 13.9652 2.64158C13.9713 2.65591 13.9368 2.62942 13.9486 2.64939C13.9499 2.65146 13.9904 2.69008 13.9935 2.69529C13.9888 2.71009 13.953 2.69114 13.9417 2.70018C13.9364 2.70476 13.9515 2.73775 13.9417 2.73826C13.9247 2.73901 13.8499 2.68691 13.8577 2.70994C13.8631 2.72498 13.9074 2.76713 13.9349 2.79881C13.9881 2.86018 13.8799 2.76609 13.8617 2.74998C13.8508 2.74044 13.8325 2.73851 13.8382 2.74803C13.8418 2.75341 13.8826 2.79345 13.8851 2.79686C13.9108 2.84529 13.9101 2.86715 13.8792 2.85936C13.8776 2.85808 13.8341 2.81439 13.8304 2.8115C13.8032 2.79762 13.855 2.85827 13.8831 2.89744C13.9113 2.93659 13.8956 2.92976 13.8128 2.8535C13.8187 2.86767 13.778 2.83819 13.7533 2.82029C13.7287 2.80257 13.8182 2.89341 13.8197 2.89549C13.8672 2.96184 13.8101 2.91621 13.7923 2.91795C13.7838 2.91864 13.7875 2.94017 13.7923 2.95506C13.7963 2.96698 13.7727 2.94862 13.7826 2.9658C13.7839 2.96817 13.8237 3.00764 13.8255 3.00975C13.8695 3.06188 13.7736 2.961 13.7552 2.94432C13.6889 2.88409 13.6531 2.85234 13.6771 2.8867C13.6827 2.89478 13.8214 3.04029 13.8275 3.05076C13.834 3.06287 13.7854 3.0126 13.7943 3.02732C13.795 3.02856 13.8252 3.05871 13.8236 3.06053C13.809 3.06313 13.7816 3.05443 13.7757 3.06639C13.7785 3.0711 13.825 3.11621 13.8245 3.11912C13.822 3.13299 13.8115 3.13991 13.7806 3.12498C13.7728 3.12112 13.7398 3.0853 13.7288 3.07518C13.6639 3.01553 13.75 3.10972 13.7513 3.11229C13.7801 3.17057 13.6873 3.10021 13.7113 3.15428C13.717 3.16219 13.801 3.25807 13.7171 3.17967C13.7105 3.17345 13.6236 3.09293 13.679 3.1533C13.6835 3.15796 13.7268 3.19745 13.721 3.19725C13.7135 3.19581 13.7373 3.23056 13.6849 3.1865C13.6683 3.17256 13.581 3.09044 13.6449 3.16209C13.6523 3.17034 13.7945 3.32506 13.6878 3.22264C13.6692 3.20473 13.5595 3.09383 13.6117 3.15525C13.6219 3.16727 13.6482 3.19102 13.6615 3.20897C13.6818 3.23657 13.6473 3.21134 13.6927 3.26561C13.7009 3.27538 13.7734 3.35373 13.7132 3.29881C13.7034 3.28978 13.667 3.25274 13.6615 3.24998C13.6348 3.23663 13.653 3.26809 13.6204 3.249C13.6089 3.2422 13.5492 3.18065 13.5306 3.16697C13.5121 3.15346 13.4923 3.14304 13.5169 3.17283C13.5419 3.20304 13.6411 3.29697 13.6449 3.30857C13.661 3.35863 13.588 3.31944 13.5628 3.32811C13.5592 3.32949 13.5952 3.36184 13.5921 3.36619C13.5815 3.38291 13.5892 3.43742 13.5052 3.37693C13.4371 3.32782 13.4045 3.27048 13.3734 3.25389C13.3587 3.24615 13.4643 3.35967 13.4691 3.36619C13.4966 3.41023 13.4418 3.36699 13.4495 3.38963C13.4535 3.39625 13.4975 3.43799 13.4984 3.44139C13.5017 3.4536 13.4765 3.43832 13.4759 3.44627C13.4766 3.45055 13.5094 3.48249 13.5072 3.48338C13.497 3.48159 13.4782 3.47064 13.4417 3.44236C13.4384 3.43978 13.3976 3.39398 13.3929 3.39549C13.3849 3.39755 13.3474 3.37271 13.3743 3.41111C13.3826 3.42277 13.4618 3.50189 13.4036 3.45115C13.3915 3.44051 13.2975 3.34421 13.3753 3.43064C13.3884 3.44521 13.4912 3.56288 13.4163 3.4951C13.3964 3.47703 13.3183 3.40367 13.3265 3.416C13.3282 3.41821 13.3714 3.45949 13.3743 3.4658C13.3821 3.4856 13.3714 3.48763 13.3783 3.50682C13.3802 3.51212 13.4275 3.55404 13.429 3.56053C13.4332 3.57822 13.4132 3.57544 13.3929 3.56834C13.3852 3.56551 13.3502 3.5272 13.346 3.52342C13.2802 3.46321 13.3626 3.54878 13.3685 3.55662C13.393 3.59294 13.3475 3.55694 13.3529 3.57322C13.3543 3.57765 13.3973 3.61805 13.4007 3.62205C13.4333 3.66085 13.3611 3.58435 13.3509 3.57811C13.3222 3.5604 13.319 3.57017 13.3187 3.58104C13.3199 3.58606 13.3691 3.63072 13.3685 3.63377C13.3659 3.65287 13.3499 3.65944 13.3128 3.64354C13.3048 3.63923 13.2698 3.60163 13.2611 3.59373C13.1998 3.53823 13.2758 3.62317 13.2826 3.63182C13.3132 3.6712 13.2793 3.64038 13.2816 3.65037C13.2927 3.69938 13.2474 3.70155 13.2161 3.70604C13.1757 3.71205 13.122 3.6945 13.1087 3.72557C13.1078 3.72752 13.1587 3.77599 13.1585 3.7783C13.1545 3.80574 13.1201 3.8021 13.1185 3.83201C13.1183 3.83439 13.1671 3.87936 13.1683 3.88475C13.1711 3.89609 13.1631 3.89923 13.1439 3.88865C13.1347 3.88361 13.0981 3.84084 13.0892 3.83592C13.0692 3.8258 13.0604 3.82824 13.0628 3.8408C13.0659 3.84759 13.113 3.88893 13.1126 3.89354C13.0983 3.91735 13.0874 3.94497 13.0062 3.90232C12.9993 3.89804 12.9035 3.80391 12.9183 3.8242C12.9451 3.85138 12.9774 3.88317 13.0062 3.91209C12.994 3.95521 12.9329 3.94935 12.8997 3.97166C12.8984 3.97261 12.9501 4.02077 12.9495 4.02439C12.9357 4.03676 12.9367 4.06376 12.8724 4.02635C12.8661 4.02268 12.7757 3.93157 12.7855 3.9492C12.7874 3.95297 12.7941 3.97047 12.8118 3.99119C12.8151 3.99486 12.8574 4.03592 12.8568 4.03904C12.8519 4.05624 12.8308 4.05851 12.7943 4.04393C12.7883 4.0415 12.7463 3.99563 12.7406 3.99217C12.7076 3.9773 12.7315 4.02149 12.682 3.98924C12.6486 3.96741 12.5731 3.88694 12.4935 3.81346C12.4824 3.80325 12.4765 3.8049 12.432 3.76072C12.3195 3.64919 12.1985 3.5249 12.0784 3.40623C12.0526 3.38065 12.0753 3.41266 12.0159 3.34764C12.0116 3.34274 11.9947 3.31935 11.9749 3.29783C11.9609 3.28265 11.9143 3.23764 11.8968 3.21775C11.88 3.19848 11.9186 3.23476 11.8988 3.21092C11.8786 3.1868 11.8272 3.13648 11.8245 3.12596C11.8201 3.10282 11.8467 3.10524 11.8763 3.11619C11.8855 3.11956 11.9126 3.14873 11.9202 3.15232C11.9349 3.15911 11.9249 3.14225 11.9417 3.15135C11.948 3.15513 11.9905 3.20083 11.9954 3.20311C12.0221 3.21506 12.018 3.19755 12.0345 3.1992C12.1182 3.20893 12.1721 3.18899 12.2298 3.17186C12.2492 3.1667 12.304 3.19129 12.2992 3.16111C12.2985 3.15755 12.259 3.12047 12.2552 3.11619C12.2103 3.06244 12.2877 3.14279 12.3011 3.15037C12.354 3.18023 12.3705 3.17066 12.3665 3.14451C12.3642 3.13292 12.2822 3.06088 12.3304 3.09959C12.3337 3.10221 12.3745 3.14431 12.3802 3.14744C12.393 3.15437 12.3913 3.14154 12.3968 3.14256C12.4074 3.14465 12.408 3.14415 12.4124 3.14061C12.4191 3.13596 12.446 3.14924 12.4427 3.13377C12.4399 3.12868 12.398 3.08914 12.3929 3.08006C12.388 3.071 12.3968 3.06914 12.4085 3.07713C12.4204 3.08531 12.4532 3.11952 12.4613 3.12693C12.5286 3.18895 12.4451 3.09285 12.4437 3.08982C12.4213 3.0378 12.4846 3.07555 12.4984 3.0615C12.5085 3.0506 12.5036 3.02333 12.5159 3.01561C12.5309 3.00654 12.5639 3.01852 12.5716 3.00291C12.5692 2.99847 12.5216 2.95374 12.5218 2.95115C12.5319 2.9294 12.5533 2.91869 12.6029 2.9365C12.6079 2.93834 12.6499 2.98478 12.6576 2.98924C12.7034 3.01564 12.8055 3.08624 12.6204 2.88963C12.6344 2.89046 12.6507 2.89054 12.6947 2.92283C12.7232 2.94387 12.7666 2.99515 12.7513 2.97068C12.7478 2.96508 12.7045 2.92416 12.7025 2.91893C12.6938 2.89699 12.7146 2.9032 12.6995 2.87498C12.696 2.86879 12.658 2.83227 12.6517 2.82518C12.6003 2.76739 12.6967 2.85199 12.7044 2.8574C12.7615 2.89706 12.7493 2.87257 12.7581 2.86522C12.7603 2.86361 12.708 2.81486 12.7083 2.8115C12.7108 2.79514 12.725 2.78993 12.7562 2.80272C12.7634 2.80574 12.8052 2.85083 12.8109 2.85447C12.8338 2.86878 12.7551 2.7875 12.7767 2.80076C12.7819 2.80428 12.8175 2.84088 12.8216 2.84471C12.886 2.90413 12.8028 2.81753 12.7982 2.8115C12.7793 2.7762 12.8787 2.86396 12.8734 2.84275C12.8714 2.83915 12.8263 2.79834 12.8245 2.79197C12.8294 2.76142 12.8607 2.75485 12.9154 2.77439C12.9237 2.77733 12.9558 2.81307 12.9613 2.81834C13.0307 2.88222 12.9449 2.79308 12.9408 2.78709C12.9233 2.7556 13.0054 2.82413 12.9027 2.71189C12.9697 2.71942 12.9393 2.62978 13.0648 2.69627C13.0663 2.697 13.1092 2.74209 13.1126 2.74412C13.1466 2.76005 13.0759 2.69197 12.9974 2.60154C12.9792 2.58028 13.083 2.67536 13.0921 2.68357C13.1211 2.7096 13.1857 2.77714 13.1917 2.78221C13.2373 2.81967 13.0224 2.60598 13.0238 2.59666C13.0243 2.59685 13.0642 2.63804 13.0687 2.64158C13.0821 2.65213 13.0682 2.6351 13.0833 2.64744C13.1187 2.67643 13.2253 2.78065 13.1693 2.71482C13.1619 2.7062 13.0371 2.58361 13.0472 2.58397C13.0516 2.58445 13.0582 2.57348 13.0687 2.57908C13.0792 2.58471 13.1176 2.62635 13.1195 2.62791C13.1787 2.67414 13.1982 2.69854 13.2796 2.77342C13.3608 2.84808 13.174 2.66269 13.1546 2.64061C13.1359 2.61916 13.1843 2.65794 13.2005 2.67186C13.2169 2.68591 13.2408 2.71222 13.2503 2.71971C13.3133 2.76879 13.1603 2.62455 13.1331 2.59275C13.0694 2.51828 13.2114 2.65159 13.2298 2.66014C13.2333 2.66117 13.2027 2.63234 13.2005 2.62791C13.194 2.61198 13.2395 2.65221 13.2054 2.6074C13.1996 2.59979 13.1214 2.51337 13.1849 2.57127C13.1942 2.57979 13.228 2.61443 13.2376 2.6201C13.2521 2.62856 13.2644 2.63084 13.2562 2.61619C13.2495 2.60491 13.1911 2.55211 13.2113 2.56639C13.2204 2.57291 13.2515 2.60866 13.2659 2.61814C13.2798 2.62709 13.285 2.61988 13.2865 2.61619C13.2877 2.6126 13.2433 2.57045 13.2406 2.56736C13.2264 2.55091 13.212 2.52791 13.2103 2.52439C13.2257 2.49846 13.3166 2.55092 13.3128 2.50682C13.3098 2.50112 13.2687 2.462 13.2659 2.45897C13.2524 2.43458 13.3684 2.55917 13.4124 2.59568C13.3201 2.50442 13.3386 2.5187 13.3324 2.50486C13.3293 2.49817 13.2935 2.46436 13.2894 2.45994C13.2382 2.40336 13.3095 2.47027 13.3245 2.48436C13.3789 2.53508 13.3195 2.47098 13.3558 2.50486C13.3918 2.5385 13.4407 2.59316 13.4437 2.58885C13.412 2.5551 13.3237 2.47233 13.3118 2.45506C13.2699 2.39234 13.3551 2.43918 13.3714 2.43846C13.3868 2.43705 13.384 2.4276 13.4007 2.43455C13.431 2.44719 13.3639 2.38721 13.3402 2.35252C13.3165 2.31782 13.4707 2.47778 13.5052 2.51072C13.5394 2.54336 13.5062 2.50784 13.5257 2.52537C13.5448 2.54264 13.5651 2.56701 13.5745 2.57225C13.5838 2.57693 13.5309 2.51068 13.4964 2.47459C13.4234 2.39817 13.3418 2.32316 13.3753 2.34471C13.3788 2.34759 13.4178 2.38782 13.4232 2.39061C13.4654 2.41181 13.4784 2.40329 13.5169 2.42088C13.5233 2.42452 13.567 2.4707 13.5706 2.47264C13.6079 2.49259 13.5275 2.41858 13.4466 2.32811C13.5599 2.44359 13.6327 2.51082 13.64 2.50486C13.6438 2.50088 13.5933 2.45165 13.5609 2.41404C13.5519 2.40344 13.5885 2.43388 13.5658 2.41014C13.4906 2.33163 13.4016 2.24895 13.4427 2.27635C13.4463 2.27951 13.4861 2.32077 13.4896 2.32225C13.5116 2.33111 13.4335 2.25026 13.431 2.23338C13.4298 2.2208 13.4879 2.25923 13.5023 2.26072C13.6307 2.38946 13.607 2.35384 13.5208 2.26268C13.5287 2.26211 13.5289 2.25252 13.5452 2.26072C13.5516 2.26449 13.587 2.30185 13.5911 2.30564C13.6567 2.36585 13.5721 2.2777 13.5697 2.27342C13.547 2.23122 13.6202 2.28795 13.5658 2.21482C13.5624 2.21081 13.4752 2.12334 13.5423 2.18553C13.5469 2.18983 13.5841 2.23289 13.5921 2.2324C13.5997 2.23115 13.6557 2.27016 13.6204 2.22264C13.6109 2.21005 13.5445 2.13602 13.6029 2.18846C13.611 2.19575 13.6369 2.22263 13.6517 2.23631C13.6981 2.27897 13.6095 2.18876 13.6878 2.26268C13.7667 2.33717 13.8292 2.39002 13.7826 2.33104C13.7813 2.32937 13.717 2.2623 13.7142 2.25584C13.7192 2.25467 13.7388 2.26441 13.7415 2.26072C13.7408 2.25729 13.6996 2.21815 13.6966 2.21482C13.6821 2.17955 13.7288 2.21165 13.7572 2.21775C13.7624 2.21895 13.7082 2.15231 13.7601 2.19627C13.8171 2.24468 14.0297 2.46622 13.9886 2.40525C13.9718 2.38043 13.7002 2.09817 13.8509 2.23436C13.8294 2.18477 13.9149 2.24548 13.8783 2.18064C13.8753 2.17643 13.8027 2.09922 13.804 2.09764C13.808 2.09714 13.846 2.13199 13.8499 2.13279C13.8669 2.13662 13.8427 2.10018 13.8538 2.09861C13.8593 2.09976 13.893 2.13523 13.8988 2.13572C13.9037 2.13489 13.8568 2.08399 13.8841 2.1035C13.9052 2.11864 14.0091 2.21582 14.0247 2.22361C13.9258 2.12439 13.9299 2.1237 13.9085 2.09275C13.9033 2.08586 13.8692 2.05334 13.8656 2.04881C13.8496 2.02933 13.8793 2.05616 13.8617 2.03514C13.8565 2.02921 13.824 1.99616 13.8187 1.99022ZM12.4818 3.7783C12.5305 3.82975 12.539 3.82851 12.4857 3.77732C12.4834 3.77561 12.4798 3.77626 12.4818 3.7783ZM13.0911 2.74803C13.1703 2.83335 13.1906 2.83062 13.1019 2.74705C13.0973 2.74274 13.0873 2.74375 13.0911 2.74803ZM13.3138 2.74803C13.357 2.79094 13.3476 2.77621 13.307 2.73729C13.3046 2.73507 13.3008 2.73504 13.3138 2.74803ZM13.4456 2.55272C13.4944 2.60425 13.5029 2.60297 13.4495 2.55174C13.4473 2.55008 13.4437 2.55069 13.4456 2.55272ZM14.0023 2.33104C13.9282 2.26523 14.0283 2.37076 14.0853 2.42186C14.1415 2.47225 14.0253 2.35156 14.0023 2.33104ZM13.9808 2.13865C13.949 2.10986 13.9802 2.14864 14.0199 2.18455C14.0518 2.21347 14.0205 2.17461 13.9808 2.13865ZM13.9466 1.97361C13.9813 1.99846 13.8686 1.87932 13.9359 1.9365C13.9482 1.94704 14.0524 2.06346 14.0511 2.06346C14.0309 2.06459 13.8398 1.88625 13.8724 1.89549C13.8784 1.89736 13.9272 1.95958 13.9466 1.97361Z" fill="#555961"/>
<path d="M5.2806 8.60477C5.29766 8.60464 5.48865 8.78532 5.45833 8.77371C5.45203 8.77049 5.40283 8.71004 5.38411 8.69559C5.35041 8.66975 5.46313 8.78904 5.39681 8.73075C5.38495 8.72031 5.28472 8.6103 5.2806 8.60477ZM6.0765 6.9495C6.08776 6.93975 6.08417 6.91519 6.14583 6.95536C6.15185 6.95926 6.24049 7.04929 6.23177 7.03446C6.22982 7.0314 6.22189 7.01433 6.20345 6.99344C6.20013 6.98982 6.15823 6.94833 6.15853 6.94559C6.16128 6.93079 6.17997 6.93083 6.21419 6.94754C6.21981 6.95033 6.26266 6.99596 6.2679 6.9993C6.29903 7.01598 6.27285 6.97411 6.32064 7.00809C6.35282 7.03105 6.42911 7.11073 6.50814 7.18485C6.51914 7.19511 6.52349 7.19466 6.56771 7.23856C6.68014 7.35023 6.80219 7.47418 6.9222 7.59305C6.94802 7.61863 6.92413 7.58755 6.98372 7.65164C6.98771 7.65595 7.0054 7.67974 7.02571 7.70145C7.03976 7.71645 7.08598 7.76078 7.10384 7.78055C7.12152 7.80018 7.08254 7.76384 7.10286 7.78739C7.12354 7.81126 7.17615 7.86207 7.17903 7.87137C7.18489 7.89211 7.16061 7.88701 7.13314 7.8743C7.12451 7.87034 7.09738 7.84119 7.09017 7.83719C7.07609 7.82941 7.08677 7.84612 7.07064 7.83621C7.06467 7.83223 7.02162 7.78701 7.01692 7.78446C6.99168 7.77101 6.99717 7.7879 6.98177 7.78446C6.90564 7.7674 6.86005 7.7797 6.80989 7.78934C6.79344 7.79255 6.74139 7.76397 6.74837 7.79129C6.74928 7.79459 6.78932 7.83374 6.79232 7.83719C6.83735 7.88926 6.76016 7.8092 6.74739 7.80106C6.69683 7.7689 6.68257 7.77615 6.6888 7.80008C6.69253 7.81111 6.77298 7.88356 6.72591 7.84403C6.72259 7.84122 6.68301 7.79914 6.67708 7.7952C6.66492 7.78767 6.6673 7.79928 6.66243 7.79813C6.65238 7.79508 6.65157 7.79627 6.64778 7.79911C6.64169 7.80196 6.61694 7.78801 6.62142 7.80203C6.62471 7.80709 6.66676 7.84612 6.6722 7.85477C6.67771 7.86361 6.66903 7.86428 6.65755 7.85575C6.64576 7.84679 6.61373 7.81337 6.60579 7.80594C6.53894 7.74339 6.62376 7.83823 6.62532 7.8411C6.65073 7.89009 6.58989 7.84995 6.57845 7.86063C6.5702 7.86931 6.57807 7.8959 6.56771 7.90164C6.55512 7.90818 6.52423 7.89329 6.51888 7.90653C6.52054 7.9099 6.56784 7.95526 6.56868 7.95828C6.56175 7.97683 6.54365 7.98406 6.49739 7.96317C6.49269 7.96101 6.45003 7.91521 6.44271 7.91043C6.39876 7.88208 6.3002 7.80848 6.48665 8.00418C6.4739 8.002 6.45961 7.99992 6.41634 7.9661C6.38852 7.94431 6.34331 7.89445 6.3597 7.91825C6.36339 7.92361 6.40675 7.9638 6.4095 7.96903C6.41951 7.9897 6.39996 7.98214 6.41634 8.00907C6.42008 8.01491 6.45776 8.05184 6.46419 8.05887C6.5162 8.11599 6.42091 8.03034 6.41341 8.02469C6.35837 7.98352 6.37152 8.00611 6.36458 8.012C6.36281 8.01319 6.41166 8.05948 6.41439 8.06473C6.414 8.07953 6.40204 8.08342 6.37239 8.06864C6.3657 8.06523 6.32477 8.02148 6.31868 8.01688C6.29527 8.00046 6.3757 8.08184 6.35482 8.06766C6.35036 8.0646 6.31405 8.02761 6.30989 8.02371C6.24467 7.96252 6.33284 8.05442 6.33431 8.05692C6.35411 8.08978 6.2561 8.00122 6.26302 8.02078C6.26484 8.02397 6.31011 8.06602 6.31185 8.07157C6.31049 8.09861 6.28305 8.10059 6.23177 8.07743C6.2234 8.07322 6.19027 8.03761 6.18587 8.03348C6.11669 7.96877 6.20565 8.06062 6.20833 8.06473C6.22609 8.09366 6.14655 8.02464 6.24935 8.13504C6.1886 8.12185 6.22453 8.20564 6.10482 8.13309C6.10077 8.12952 6.05951 8.0876 6.05696 8.08621C6.02516 8.06875 6.09562 8.13588 6.17513 8.22489C6.19513 8.2473 6.08918 8.14903 6.08138 8.14188C6.05256 8.11537 5.98874 8.04847 5.98275 8.04325C5.93759 8.00463 6.15603 8.22334 6.15169 8.22782C6.15004 8.2264 6.11279 8.18726 6.10775 8.18289C6.09414 8.17157 6.10847 8.18822 6.09407 8.17606C6.05945 8.14658 5.9522 8.04097 6.01009 8.10672C6.01864 8.11624 6.14191 8.23852 6.13216 8.23661C6.12819 8.23611 6.1234 8.24453 6.1136 8.23856C6.1036 8.23243 6.06469 8.19132 6.06282 8.18973C6.00486 8.14221 5.98537 8.11778 5.90462 8.04227C5.82436 7.96724 6.00877 8.15115 6.02962 8.17411C6.04924 8.19587 6.00177 8.15609 5.98567 8.14188C5.96957 8.1276 5.94523 8.10075 5.93587 8.09305C5.87567 8.04383 6.02602 8.1874 6.05403 8.21903C6.11957 8.2932 5.97775 8.15925 5.96028 8.14969C5.96144 8.15223 5.98875 8.17837 5.99056 8.18192C5.99678 8.19554 5.95287 8.15624 5.98763 8.1995C5.99374 8.20704 6.07224 8.29232 6.01009 8.23465C6.001 8.2262 5.96666 8.19093 5.95735 8.18485C5.94361 8.17587 5.93237 8.17228 5.94075 8.18582C5.94733 8.19621 6.00638 8.25059 5.98665 8.23563C5.97773 8.22884 5.94596 8.19386 5.93196 8.18387C5.91821 8.17416 5.9142 8.18081 5.91341 8.18387C5.91366 8.18773 5.95495 8.22717 5.95931 8.23172C5.97381 8.24798 5.98966 8.27039 5.99153 8.27371C5.98023 8.29548 5.89315 8.23884 5.90071 8.2786C5.90127 8.28168 5.94801 8.32649 5.94857 8.32743C5.9617 8.349 5.84516 8.2268 5.80208 8.18973C5.8944 8.28118 5.87611 8.26645 5.88314 8.27957C5.88723 8.28649 5.92361 8.32076 5.92708 8.3245C5.97809 8.37983 5.90785 8.31229 5.8929 8.29813C5.83893 8.24705 5.89872 8.31077 5.86263 8.27664C5.82682 8.24277 5.77797 8.18908 5.77571 8.19266C5.80796 8.22652 5.89587 8.31033 5.90755 8.32645C5.95134 8.38702 5.86854 8.3355 5.85482 8.33524C5.84128 8.33501 5.84498 8.34303 5.82942 8.33524C5.80086 8.32083 5.86711 8.38172 5.89192 8.41532C5.91663 8.44881 5.76283 8.29085 5.72786 8.25711C5.69369 8.22418 5.72702 8.25864 5.70833 8.24149C5.68903 8.22373 5.6673 8.19878 5.65853 8.19364C5.65048 8.18926 5.70513 8.2536 5.73958 8.28934C5.81294 8.36542 5.89303 8.44198 5.86067 8.41922C5.85709 8.41607 5.81918 8.37571 5.8138 8.37235C5.77364 8.34898 5.76239 8.35592 5.72591 8.33621C5.71992 8.33233 5.67816 8.28828 5.67317 8.28446C5.63682 8.26209 5.71603 8.33723 5.79817 8.42703C5.68462 8.31176 5.61275 8.24369 5.60677 8.24832C5.60489 8.25248 5.65422 8.30054 5.68685 8.33719C5.69684 8.34843 5.66083 8.31719 5.68392 8.3411C5.75929 8.41913 5.8466 8.50262 5.80696 8.47391C5.8033 8.47061 5.76545 8.4309 5.76107 8.42801C5.73913 8.41675 5.81804 8.49696 5.82259 8.51297C5.82568 8.52515 5.76835 8.48452 5.75521 8.48172C5.62685 8.35315 5.65115 8.38736 5.73763 8.47782C5.73113 8.47787 5.73195 8.48632 5.71712 8.47782C5.71196 8.47483 5.67686 8.43834 5.67122 8.43289C5.60712 8.37303 5.68725 8.45624 5.69271 8.46317C5.71773 8.5039 5.64606 8.44547 5.70247 8.51688C5.70598 8.52092 5.7935 8.60785 5.72689 8.5452C5.72227 8.54084 5.68389 8.49815 5.67708 8.49832C5.6704 8.4987 5.61616 8.45788 5.65267 8.50418C5.66257 8.5165 5.7297 8.59012 5.67122 8.53641C5.66309 8.5289 5.63803 8.50329 5.62337 8.48953C5.57644 8.44559 5.66572 8.53618 5.58724 8.46121C5.50889 8.38639 5.44848 8.3331 5.49642 8.3909C5.50201 8.39692 5.56215 8.45967 5.56478 8.46512C5.55998 8.46513 5.54314 8.45508 5.54036 8.45731C5.53937 8.4588 5.58469 8.50316 5.58528 8.50418C5.60128 8.53674 5.55564 8.50363 5.52962 8.49539C5.53094 8.50042 5.57785 8.5562 5.52962 8.51395C5.47346 8.46469 5.25997 8.24405 5.30306 8.30301C5.32061 8.32701 5.59313 8.60788 5.44466 8.47098C5.46815 8.51681 5.38544 8.45478 5.42415 8.5159C5.42584 8.51857 5.49679 8.59302 5.49935 8.59793C5.49454 8.59652 5.45896 8.56289 5.4554 8.5618C5.43928 8.55624 5.46517 8.59166 5.4554 8.59207C5.45172 8.59227 5.41488 8.55474 5.41048 8.55496C5.40967 8.5585 5.45274 8.60488 5.42708 8.58524C5.40662 8.5695 5.30326 8.47077 5.28841 8.46219C5.38728 8.5613 5.38336 8.5622 5.4056 8.59207C5.40994 8.59789 5.44571 8.63149 5.44954 8.63602C5.4658 8.6551 5.43582 8.62841 5.45345 8.64871C5.45777 8.65369 5.49195 8.68766 5.49739 8.69364C5.54493 8.74572 5.46545 8.6731 5.4515 8.66043C5.39867 8.61255 5.44099 8.65786 5.41927 8.63993C5.39763 8.62198 5.37584 8.59405 5.36165 8.58426C5.33242 8.56416 5.33169 8.5753 5.32552 8.5784C5.32329 8.57982 5.36825 8.62266 5.37044 8.62528C5.37807 8.64057 5.32649 8.59661 5.41439 8.68875C5.17898 8.45866 5.43423 8.71326 5.38216 8.67215C5.37551 8.66636 5.26758 8.55889 5.25325 8.54129C5.23903 8.52376 5.27503 8.55594 5.25228 8.5286C5.24691 8.52214 5.14677 8.41515 5.14095 8.40848C5.09691 8.35785 5.25968 8.51976 5.26985 8.52957C5.36935 8.62506 5.26188 8.50994 5.25521 8.50125C5.2251 8.46203 5.25157 8.48084 5.23079 8.45243C5.21722 8.43389 5.11176 8.32746 5.11458 8.32645C5.13204 8.33079 5.28462 8.47857 5.16048 8.34207C5.13348 8.31247 5.01571 8.197 5.11263 8.28446C5.11876 8.28999 5.20699 8.37117 5.1556 8.31571C5.14918 8.30879 5.11496 8.27572 5.11165 8.27176C5.09532 8.25093 5.12391 8.27621 5.1136 8.26102C5.10297 8.24546 5.08646 8.22289 5.10091 8.23172C5.10974 8.23717 5.17627 8.29894 5.19271 8.31375C5.23916 8.35564 5.16811 8.28027 5.22396 8.33328C5.28027 8.38674 5.36152 8.47249 5.40071 8.50418C5.31171 8.4149 5.21964 8.32355 5.13021 8.23368C5.14157 8.22859 5.17862 8.24879 5.18294 8.23661C5.18126 8.2331 5.13485 8.18773 5.13411 8.18485C5.13194 8.17356 5.1689 8.20273 5.16048 8.18485C5.1535 8.17047 5.10713 8.1158 5.09798 8.09891C5.20215 8.19833 5.17335 8.15823 5.18685 8.16336C5.19192 8.1656 5.219 8.1927 5.22884 8.20047C5.2647 8.22857 5.17355 8.14049 5.16048 8.12528C5.10457 8.06011 5.3085 8.2637 5.30892 8.25321C5.30334 8.24672 5.2037 8.14014 5.19759 8.13309C5.15705 8.08643 5.23646 8.17094 5.24642 8.17703C5.2646 8.18823 5.29216 8.21145 5.26497 8.17606C5.25674 8.16541 5.19163 8.09471 5.24642 8.14481C5.25383 8.15162 5.28997 8.18691 5.29232 8.18875C5.33145 8.21893 5.21863 8.10653 5.18294 8.06571C5.14735 8.02498 5.22876 8.09852 5.25228 8.12039C5.31254 8.17643 5.27598 8.1468 5.28157 8.15262C5.34809 8.22183 5.33905 8.20769 5.347 8.21121C5.24026 8.10059 5.22996 8.08313 5.33528 8.18094C5.3846 8.22676 5.43812 8.28371 5.42317 8.25809C5.41598 8.24613 5.33949 8.17179 5.32064 8.14871C5.27845 8.09684 5.35462 8.15953 5.34993 8.14481C5.3477 8.13893 5.30433 8.09872 5.3011 8.09305C5.29309 8.0784 5.32749 8.10657 5.31478 8.08719C5.31337 8.0852 5.26951 8.04387 5.26888 8.04129C5.27164 8.02845 5.30652 8.04929 5.31575 8.04227C5.32004 8.03869 5.30328 8.00775 5.31185 8.00809C5.3271 8.00912 5.39934 8.06378 5.38997 8.04227C5.384 8.02843 5.33992 7.9858 5.31185 7.95438C5.25739 7.89337 5.36634 7.9909 5.38314 8.00614C5.394 8.01589 5.41062 8.01874 5.40364 8.00907C5.39953 8.00355 5.35964 7.96477 5.35677 7.96121C5.32887 7.91513 5.32737 7.89556 5.35579 7.90555C5.35677 7.90621 5.40078 7.95025 5.40462 7.9534C5.43057 7.96865 5.37722 7.90845 5.34798 7.87039C5.31904 7.83266 5.3344 7.84053 5.41634 7.91727C5.40969 7.90401 5.44885 7.93381 5.47298 7.95243C5.49633 7.97045 5.41309 7.88619 5.40657 7.87918C5.35752 7.81519 5.41162 7.86054 5.42806 7.86161C5.43574 7.86186 5.43095 7.84131 5.42513 7.82743C5.42038 7.81633 5.44235 7.83584 5.43196 7.81961C5.43057 7.81744 5.39123 7.77812 5.389 7.77567C5.34423 7.72436 5.4411 7.82424 5.45931 7.8411C5.52532 7.90223 5.56027 7.9348 5.5345 7.90067C5.52857 7.89281 5.39216 7.75013 5.38411 7.73856C5.37592 7.72578 5.42524 7.77667 5.41536 7.762C5.41186 7.75815 5.38483 7.73114 5.38607 7.72977C5.39882 7.72889 5.42472 7.73963 5.42903 7.72977C5.4297 7.72849 5.37908 7.67971 5.37923 7.67703C5.38004 7.66468 5.38887 7.65945 5.41829 7.67606C5.4257 7.68032 5.4592 7.71567 5.47005 7.72586C5.534 7.78563 5.44822 7.69435 5.44564 7.69071C5.41389 7.63537 5.50488 7.70759 5.47786 7.65653C5.47174 7.64869 5.38679 7.5542 5.47005 7.63309C5.4767 7.63938 5.56247 7.72062 5.50716 7.66141C5.50364 7.65764 5.45828 7.61443 5.46517 7.61649C5.47159 7.61806 5.44718 7.58557 5.49837 7.63016C5.51465 7.64433 5.60155 7.72691 5.53743 7.65653C5.53291 7.65159 5.3845 7.49339 5.49153 7.59696C5.50921 7.61407 5.6211 7.72619 5.56771 7.66532C5.55731 7.65349 5.53063 7.63005 5.51692 7.61258C5.49586 7.58576 5.52938 7.61161 5.48372 7.55887C5.47553 7.54944 5.40197 7.4706 5.46126 7.52567C5.47062 7.53436 5.50772 7.57241 5.51302 7.57547C5.53835 7.59018 5.5189 7.55991 5.55013 7.58036C5.56131 7.58775 5.62086 7.6492 5.639 7.66336C5.65702 7.67738 5.67586 7.68874 5.65071 7.65946C5.62519 7.62977 5.52639 7.53551 5.52181 7.52469C5.50205 7.4778 5.57227 7.52022 5.59407 7.51493C5.59323 7.51101 5.56162 7.48123 5.5638 7.47782C5.57172 7.46384 5.5593 7.41401 5.64095 7.47684C5.70715 7.52786 5.74215 7.58282 5.77181 7.60086C5.78587 7.60933 5.677 7.49373 5.67415 7.48953C5.64562 7.44786 5.69901 7.49206 5.68978 7.47098C5.68548 7.46456 5.64206 7.42236 5.64095 7.41922C5.63703 7.40821 5.66077 7.42434 5.66048 7.41727C5.65943 7.41328 5.6252 7.37989 5.62923 7.38114C5.63865 7.38391 5.65641 7.39528 5.69173 7.42411C5.69488 7.42667 5.73331 7.46895 5.73958 7.47098C5.74608 7.46942 5.78348 7.4968 5.75521 7.45926C5.74664 7.44794 5.66755 7.36872 5.72493 7.4202C5.73697 7.431 5.83096 7.52726 5.75228 7.44168C5.73906 7.42729 5.63512 7.31068 5.70931 7.37918C5.72927 7.39764 5.80772 7.47308 5.7972 7.45926C5.79423 7.45592 5.75208 7.41489 5.74935 7.40946C5.74067 7.39119 5.74982 7.39048 5.74153 7.37235C5.73857 7.3669 5.69501 7.32652 5.69173 7.31961C5.68604 7.30306 5.70389 7.30725 5.72298 7.31571C5.73025 7.31916 5.7643 7.35629 5.76888 7.36063C5.83506 7.42227 5.75218 7.33569 5.74642 7.3284C5.72083 7.29339 5.76423 7.33048 5.75814 7.31571C5.7565 7.31171 5.71618 7.27218 5.71126 7.26688C5.67757 7.22822 5.7503 7.30418 5.76009 7.31082C5.78763 7.32956 5.78926 7.32155 5.78841 7.3118C5.7872 7.30747 5.73741 7.26176 5.73763 7.25907C5.73816 7.24229 5.75259 7.23818 5.78743 7.25614C5.79502 7.26078 5.8295 7.29788 5.83821 7.30594C5.89975 7.36289 5.82268 7.27828 5.81575 7.26981C5.78424 7.23127 5.81778 7.26243 5.81478 7.25321C5.79986 7.20797 5.84082 7.21115 5.86849 7.21024C5.90431 7.20896 5.95341 7.22898 5.96224 7.20243C5.96282 7.20079 5.91465 7.15462 5.91243 7.15067C5.91314 7.12618 5.9453 7.13262 5.94368 7.10575C5.94311 7.10319 5.89565 7.05985 5.8929 7.05399C5.8892 7.04347 5.89699 7.04153 5.91536 7.05301C5.92501 7.0596 5.96207 7.1011 5.97005 7.10575C5.98874 7.1166 5.99593 7.11526 5.99251 7.10379C5.98938 7.09757 5.94161 7.05423 5.94271 7.05106C5.95322 7.03106 5.96009 7.00749 6.03743 7.05399C6.04356 7.05802 6.13964 7.15281 6.12435 7.13309C6.09754 7.10595 6.06521 7.0741 6.03646 7.0452C6.0431 7.00766 6.09867 7.0189 6.1263 7.00223C6.12744 7.0015 6.07484 6.95143 6.0765 6.9495ZM5.2972 8.49832C5.26555 8.4691 5.2969 8.50788 5.33626 8.54422C5.36783 8.57336 5.33649 8.53461 5.2972 8.49832ZM5.77278 8.22489C5.77483 8.22683 5.77906 8.22672 5.77767 8.22489C5.72846 8.17347 5.7197 8.17352 5.77278 8.22489ZM6.06771 8.08426C6.07232 8.08843 6.08033 8.08845 6.0765 8.08426C5.99662 7.99944 5.97909 7.99985 6.06771 8.08426ZM5.88314 8.07254C5.88554 8.0748 5.88855 8.07497 5.87532 8.0618C5.83256 8.01926 5.84281 8.03355 5.88314 8.07254ZM6.5179 7.21805C6.51998 7.22006 6.52442 7.22 6.52278 7.21805C6.47356 7.16664 6.46485 7.16672 6.5179 7.21805Z" fill="#555961"/>
<path d="M7.2806 10.6048C7.29766 10.6046 7.48865 10.7853 7.45833 10.7737C7.45203 10.7705 7.40283 10.71 7.38411 10.6956C7.35041 10.6697 7.46313 10.789 7.39681 10.7307C7.38495 10.7203 7.28472 10.6103 7.2806 10.6048ZM8.0765 8.9495C8.08776 8.93975 8.08417 8.91519 8.14583 8.95536C8.15185 8.95926 8.24049 9.04929 8.23177 9.03446C8.22982 9.0314 8.22189 9.01433 8.20345 8.99344C8.20013 8.98982 8.15823 8.94833 8.15853 8.94559C8.16128 8.93079 8.17997 8.93083 8.21419 8.94754C8.21981 8.95033 8.26266 8.99596 8.2679 8.9993C8.29903 9.01598 8.27285 8.97411 8.32064 9.00809C8.35282 9.03105 8.42911 9.11073 8.50814 9.18485C8.51914 9.19511 8.52349 9.19466 8.56771 9.23856C8.68014 9.35023 8.80219 9.47418 8.9222 9.59305C8.94802 9.61863 8.92413 9.58755 8.98372 9.65164C8.98771 9.65595 9.0054 9.67974 9.02571 9.70145C9.03976 9.71645 9.08598 9.76078 9.10384 9.78055C9.12152 9.80018 9.08254 9.76384 9.10286 9.78739C9.12354 9.81126 9.17615 9.86207 9.17903 9.87137C9.18489 9.89211 9.16061 9.88701 9.13314 9.8743C9.12451 9.87034 9.09738 9.84119 9.09017 9.83719C9.07609 9.82941 9.08677 9.84612 9.07064 9.83621C9.06467 9.83223 9.02162 9.78701 9.01692 9.78446C8.99168 9.77101 8.99717 9.7879 8.98177 9.78446C8.90564 9.7674 8.86005 9.7797 8.80989 9.78934C8.79344 9.79255 8.74139 9.76397 8.74837 9.79129C8.74928 9.79459 8.78932 9.83374 8.79232 9.83719C8.83735 9.88926 8.76016 9.8092 8.74739 9.80106C8.69683 9.7689 8.68257 9.77615 8.6888 9.80008C8.69253 9.81111 8.77298 9.88356 8.72591 9.84403C8.72259 9.84122 8.68301 9.79914 8.67708 9.7952C8.66492 9.78767 8.6673 9.79928 8.66243 9.79813C8.65238 9.79508 8.65157 9.79627 8.64778 9.79911C8.64169 9.80196 8.61694 9.78801 8.62142 9.80203C8.62471 9.80709 8.66676 9.84612 8.6722 9.85477C8.67771 9.86361 8.66903 9.86428 8.65755 9.85575C8.64576 9.84679 8.61373 9.81337 8.60579 9.80594C8.53894 9.74339 8.62376 9.83823 8.62532 9.8411C8.65073 9.89009 8.58989 9.84995 8.57845 9.86063C8.5702 9.86931 8.57807 9.8959 8.56771 9.90164C8.55512 9.90818 8.52423 9.89329 8.51888 9.90653C8.52054 9.9099 8.56784 9.95526 8.56868 9.95828C8.56175 9.97683 8.54365 9.98406 8.49739 9.96317C8.49269 9.96101 8.45003 9.91521 8.44271 9.91043C8.39876 9.88208 8.3002 9.80848 8.48665 10.0042C8.4739 10.002 8.45961 9.99992 8.41634 9.9661C8.38852 9.94431 8.34331 9.89445 8.3597 9.91825C8.36339 9.92361 8.40675 9.9638 8.4095 9.96903C8.41951 9.9897 8.39996 9.98214 8.41634 10.0091C8.42008 10.0149 8.45776 10.0518 8.46419 10.0589C8.5162 10.116 8.42091 10.0303 8.41341 10.0247C8.35837 9.98352 8.37152 10.0061 8.36458 10.012C8.36281 10.0132 8.41166 10.0595 8.41439 10.0647C8.414 10.0795 8.40204 10.0834 8.37239 10.0686C8.3657 10.0652 8.32477 10.0215 8.31868 10.0169C8.29527 10.0005 8.3757 10.0818 8.35482 10.0677C8.35036 10.0646 8.31405 10.0276 8.30989 10.0237C8.24467 9.96252 8.33284 10.0544 8.33431 10.0569C8.35411 10.0898 8.2561 10.0012 8.26302 10.0208C8.26484 10.024 8.31011 10.066 8.31185 10.0716C8.31049 10.0986 8.28305 10.1006 8.23177 10.0774C8.2234 10.0732 8.19027 10.0376 8.18587 10.0335C8.11669 9.96877 8.20565 10.0606 8.20833 10.0647C8.22609 10.0937 8.14655 10.0246 8.24935 10.135C8.1886 10.1219 8.22453 10.2056 8.10482 10.1331C8.10077 10.1295 8.05951 10.0876 8.05696 10.0862C8.02516 10.0688 8.09562 10.1359 8.17513 10.2249C8.19513 10.2473 8.08918 10.149 8.08138 10.1419C8.05256 10.1154 7.98874 10.0485 7.98275 10.0432C7.93759 10.0046 8.15603 10.2233 8.15169 10.2278C8.15004 10.2264 8.11279 10.1873 8.10775 10.1829C8.09414 10.1716 8.10847 10.1882 8.09407 10.1761C8.05945 10.1466 7.9522 10.041 8.01009 10.1067C8.01864 10.1162 8.14191 10.2385 8.13216 10.2366C8.12819 10.2361 8.1234 10.2445 8.1136 10.2386C8.1036 10.2324 8.06469 10.1913 8.06282 10.1897C8.00486 10.1422 7.98537 10.1178 7.90462 10.0423C7.82436 9.96724 8.00877 10.1511 8.02962 10.1741C8.04924 10.1959 8.00177 10.1561 7.98567 10.1419C7.96957 10.1276 7.94523 10.1007 7.93587 10.0931C7.87567 10.0438 8.02602 10.1874 8.05403 10.219C8.11957 10.2932 7.97775 10.1592 7.96028 10.1497C7.96144 10.1522 7.98875 10.1784 7.99056 10.1819C7.99678 10.1955 7.95287 10.1562 7.98763 10.1995C7.99374 10.207 8.07224 10.2923 8.01009 10.2347C8.001 10.2262 7.96666 10.1909 7.95735 10.1848C7.94361 10.1759 7.93237 10.1723 7.94075 10.1858C7.94733 10.1962 8.00638 10.2506 7.98665 10.2356C7.97773 10.2288 7.94596 10.1939 7.93196 10.1839C7.91821 10.1742 7.9142 10.1808 7.91341 10.1839C7.91366 10.1877 7.95495 10.2272 7.95931 10.2317C7.97381 10.248 7.98966 10.2704 7.99153 10.2737C7.98023 10.2955 7.89315 10.2388 7.90071 10.2786C7.90127 10.2817 7.94801 10.3265 7.94857 10.3274C7.9617 10.349 7.84516 10.2268 7.80208 10.1897C7.8944 10.2812 7.87611 10.2664 7.88314 10.2796C7.88723 10.2865 7.92361 10.3208 7.92708 10.3245C7.97809 10.3798 7.90785 10.3123 7.8929 10.2981C7.83893 10.247 7.89872 10.3108 7.86263 10.2766C7.82682 10.2428 7.77797 10.1891 7.77571 10.1927C7.80796 10.2265 7.89587 10.3103 7.90755 10.3264C7.95134 10.387 7.86854 10.3355 7.85482 10.3352C7.84128 10.335 7.84498 10.343 7.82942 10.3352C7.80086 10.3208 7.86711 10.3817 7.89192 10.4153C7.91663 10.4488 7.76283 10.2908 7.72786 10.2571C7.69369 10.2242 7.72702 10.2586 7.70833 10.2415C7.68903 10.2237 7.6673 10.1988 7.65853 10.1936C7.65048 10.1893 7.70513 10.2536 7.73958 10.2893C7.81294 10.3654 7.89303 10.442 7.86067 10.4192C7.85709 10.4161 7.81918 10.3757 7.8138 10.3723C7.77364 10.349 7.76239 10.3559 7.72591 10.3362C7.71992 10.3323 7.67816 10.2883 7.67317 10.2845C7.63682 10.2621 7.71603 10.3372 7.79817 10.427C7.68462 10.3118 7.61275 10.2437 7.60677 10.2483C7.60489 10.2525 7.65422 10.3005 7.68685 10.3372C7.69684 10.3484 7.66083 10.3172 7.68392 10.3411C7.75929 10.4191 7.8466 10.5026 7.80696 10.4739C7.8033 10.4706 7.76545 10.4309 7.76107 10.428C7.73913 10.4168 7.81804 10.497 7.82259 10.513C7.82568 10.5252 7.76835 10.4845 7.75521 10.4817C7.62685 10.3531 7.65115 10.3874 7.73763 10.4778C7.73113 10.4779 7.73195 10.4863 7.71712 10.4778C7.71196 10.4748 7.67686 10.4383 7.67122 10.4329C7.60712 10.373 7.68725 10.4562 7.69271 10.4632C7.71773 10.5039 7.64606 10.4455 7.70247 10.5169C7.70598 10.5209 7.7935 10.6078 7.72689 10.5452C7.72227 10.5408 7.68389 10.4982 7.67708 10.4983C7.6704 10.4987 7.61616 10.4579 7.65267 10.5042C7.66257 10.5165 7.7297 10.5901 7.67122 10.5364C7.66309 10.5289 7.63803 10.5033 7.62337 10.4895C7.57644 10.4456 7.66572 10.5362 7.58724 10.4612C7.50889 10.3864 7.44848 10.3331 7.49642 10.3909C7.50201 10.3969 7.56215 10.4597 7.56478 10.4651C7.55998 10.4651 7.54314 10.4551 7.54036 10.4573C7.53937 10.4588 7.58469 10.5032 7.58528 10.5042C7.60128 10.5367 7.55564 10.5036 7.52962 10.4954C7.53094 10.5004 7.57785 10.5562 7.52962 10.5139C7.47346 10.4647 7.25997 10.2441 7.30306 10.303C7.32061 10.327 7.59313 10.6079 7.44466 10.471C7.46815 10.5168 7.38544 10.4548 7.42415 10.5159C7.42584 10.5186 7.49679 10.593 7.49935 10.5979C7.49454 10.5965 7.45896 10.5629 7.4554 10.5618C7.43928 10.5562 7.46517 10.5917 7.4554 10.5921C7.45172 10.5923 7.41488 10.5547 7.41048 10.555C7.40967 10.5585 7.45274 10.6049 7.42708 10.5852C7.40662 10.5695 7.30326 10.4708 7.28841 10.4622C7.38728 10.5613 7.38336 10.5622 7.4056 10.5921C7.40994 10.5979 7.44571 10.6315 7.44954 10.636C7.4658 10.6551 7.43582 10.6284 7.45345 10.6487C7.45777 10.6537 7.49195 10.6877 7.49739 10.6936C7.54493 10.7457 7.46545 10.6731 7.4515 10.6604C7.39867 10.6125 7.44099 10.6579 7.41927 10.6399C7.39763 10.622 7.37584 10.5941 7.36165 10.5843C7.33242 10.5642 7.33169 10.5753 7.32552 10.5784C7.32329 10.5798 7.36825 10.6227 7.37044 10.6253C7.37807 10.6406 7.32649 10.5966 7.41439 10.6888C7.17898 10.4587 7.43423 10.7133 7.38216 10.6722C7.37551 10.6664 7.26758 10.5589 7.25325 10.5413C7.23903 10.5238 7.27503 10.5559 7.25228 10.5286C7.24691 10.5221 7.14677 10.4152 7.14095 10.4085C7.09691 10.3578 7.25968 10.5198 7.26985 10.5296C7.36935 10.6251 7.26188 10.5099 7.25521 10.5013C7.2251 10.462 7.25157 10.4808 7.23079 10.4524C7.21722 10.4339 7.11176 10.3275 7.11458 10.3264C7.13204 10.3308 7.28462 10.4786 7.16048 10.3421C7.13348 10.3125 7.01571 10.197 7.11263 10.2845C7.11876 10.29 7.20699 10.3712 7.1556 10.3157C7.14918 10.3088 7.11496 10.2757 7.11165 10.2718C7.09532 10.2509 7.12391 10.2762 7.1136 10.261C7.10297 10.2455 7.08646 10.2229 7.10091 10.2317C7.10974 10.2372 7.17627 10.2989 7.19271 10.3138C7.23916 10.3556 7.16811 10.2803 7.22396 10.3333C7.28027 10.3867 7.36152 10.4725 7.40071 10.5042C7.31171 10.4149 7.21964 10.3236 7.13021 10.2337C7.14157 10.2286 7.17862 10.2488 7.18294 10.2366C7.18126 10.2331 7.13485 10.1877 7.13411 10.1848C7.13194 10.1736 7.1689 10.2027 7.16048 10.1848C7.1535 10.1705 7.10713 10.1158 7.09798 10.0989C7.20215 10.1983 7.17335 10.1582 7.18685 10.1634C7.19192 10.1656 7.219 10.1927 7.22884 10.2005C7.2647 10.2286 7.17355 10.1405 7.16048 10.1253C7.10457 10.0601 7.3085 10.2637 7.30892 10.2532C7.30334 10.2467 7.2037 10.1401 7.19759 10.1331C7.15705 10.0864 7.23646 10.1709 7.24642 10.177C7.2646 10.1882 7.29216 10.2114 7.26497 10.1761C7.25674 10.1654 7.19163 10.0947 7.24642 10.1448C7.25383 10.1516 7.28997 10.1869 7.29232 10.1888C7.33145 10.2189 7.21863 10.1065 7.18294 10.0657C7.14735 10.025 7.22876 10.0985 7.25228 10.1204C7.31254 10.1764 7.27598 10.1468 7.28157 10.1526C7.34809 10.2218 7.33905 10.2077 7.347 10.2112C7.24026 10.1006 7.22996 10.0831 7.33528 10.1809C7.3846 10.2268 7.43812 10.2837 7.42317 10.2581C7.41598 10.2461 7.33949 10.1718 7.32064 10.1487C7.27845 10.0968 7.35462 10.1595 7.34993 10.1448C7.3477 10.1389 7.30433 10.0987 7.3011 10.0931C7.29309 10.0784 7.32749 10.1066 7.31478 10.0872C7.31337 10.0852 7.26951 10.0439 7.26888 10.0413C7.27164 10.0284 7.30652 10.0493 7.31575 10.0423C7.32004 10.0387 7.30328 10.0077 7.31185 10.0081C7.3271 10.0091 7.39934 10.0638 7.38997 10.0423C7.384 10.0284 7.33992 9.9858 7.31185 9.95438C7.25739 9.89337 7.36634 9.9909 7.38314 10.0061C7.394 10.0159 7.41062 10.0187 7.40364 10.0091C7.39953 10.0035 7.35964 9.96477 7.35677 9.96121C7.32887 9.91513 7.32737 9.89556 7.35579 9.90555C7.35677 9.90621 7.40078 9.95025 7.40462 9.9534C7.43057 9.96865 7.37722 9.90845 7.34798 9.87039C7.31904 9.83266 7.3344 9.84053 7.41634 9.91727C7.40969 9.90401 7.44885 9.93381 7.47298 9.95243C7.49633 9.97045 7.41309 9.88619 7.40657 9.87918C7.35752 9.81519 7.41162 9.86054 7.42806 9.86161C7.43574 9.86186 7.43095 9.84131 7.42513 9.82743C7.42038 9.81633 7.44235 9.83584 7.43196 9.81961C7.43057 9.81744 7.39123 9.77812 7.389 9.77567C7.34423 9.72436 7.4411 9.82424 7.45931 9.8411C7.52532 9.90223 7.56027 9.9348 7.5345 9.90067C7.52857 9.89281 7.39216 9.75013 7.38411 9.73856C7.37592 9.72578 7.42524 9.77667 7.41536 9.762C7.41186 9.75815 7.38483 9.73114 7.38607 9.72977C7.39882 9.72889 7.42472 9.73963 7.42903 9.72977C7.4297 9.72849 7.37908 9.67971 7.37923 9.67703C7.38004 9.66468 7.38887 9.65945 7.41829 9.67606C7.4257 9.68032 7.4592 9.71567 7.47005 9.72586C7.534 9.78563 7.44822 9.69435 7.44564 9.69071C7.41389 9.63537 7.50488 9.70759 7.47786 9.65653C7.47174 9.64869 7.38679 9.5542 7.47005 9.63309C7.4767 9.63938 7.56247 9.72062 7.50716 9.66141C7.50364 9.65764 7.45828 9.61443 7.46517 9.61649C7.47159 9.61806 7.44718 9.58557 7.49837 9.63016C7.51465 9.64433 7.60155 9.72691 7.53743 9.65653C7.53291 9.65159 7.3845 9.49339 7.49153 9.59696C7.50921 9.61407 7.6211 9.72619 7.56771 9.66532C7.55731 9.65349 7.53063 9.63005 7.51692 9.61258C7.49586 9.58576 7.52938 9.61161 7.48372 9.55887C7.47553 9.54944 7.40197 9.4706 7.46126 9.52567C7.47062 9.53436 7.50772 9.57241 7.51302 9.57547C7.53835 9.59018 7.5189 9.55991 7.55013 9.58036C7.56131 9.58775 7.62086 9.6492 7.639 9.66336C7.65702 9.67738 7.67586 9.68874 7.65071 9.65946C7.62519 9.62977 7.52639 9.53551 7.52181 9.52469C7.50205 9.4778 7.57227 9.52022 7.59407 9.51493C7.59323 9.51101 7.56162 9.48123 7.5638 9.47782C7.57172 9.46384 7.5593 9.41401 7.64095 9.47684C7.70715 9.52786 7.74215 9.58282 7.77181 9.60086C7.78587 9.60933 7.677 9.49373 7.67415 9.48953C7.64562 9.44786 7.69901 9.49206 7.68978 9.47098C7.68548 9.46456 7.64206 9.42236 7.64095 9.41922C7.63703 9.40821 7.66077 9.42434 7.66048 9.41727C7.65943 9.41328 7.6252 9.37989 7.62923 9.38114C7.63865 9.38391 7.65641 9.39528 7.69173 9.42411C7.69488 9.42667 7.73331 9.46895 7.73958 9.47098C7.74608 9.46942 7.78348 9.4968 7.75521 9.45926C7.74664 9.44794 7.66755 9.36872 7.72493 9.4202C7.73697 9.431 7.83096 9.52726 7.75228 9.44168C7.73906 9.42729 7.63512 9.31068 7.70931 9.37918C7.72927 9.39764 7.80772 9.47308 7.7972 9.45926C7.79423 9.45592 7.75208 9.41489 7.74935 9.40946C7.74067 9.39119 7.74982 9.39048 7.74153 9.37235C7.73857 9.3669 7.69501 9.32652 7.69173 9.31961C7.68604 9.30306 7.70389 9.30725 7.72298 9.31571C7.73025 9.31916 7.7643 9.35629 7.76888 9.36063C7.83506 9.42227 7.75218 9.33569 7.74642 9.3284C7.72083 9.29339 7.76423 9.33048 7.75814 9.31571C7.7565 9.31171 7.71618 9.27218 7.71126 9.26688C7.67757 9.22822 7.7503 9.30418 7.76009 9.31082C7.78763 9.32956 7.78926 9.32155 7.78841 9.3118C7.7872 9.30747 7.73741 9.26176 7.73763 9.25907C7.73816 9.24229 7.75259 9.23818 7.78743 9.25614C7.79502 9.26078 7.8295 9.29788 7.83821 9.30594C7.89975 9.36289 7.82268 9.27828 7.81575 9.26981C7.78424 9.23127 7.81778 9.26243 7.81478 9.25321C7.79986 9.20797 7.84082 9.21115 7.86849 9.21024C7.90431 9.20896 7.95341 9.22898 7.96224 9.20243C7.96282 9.20079 7.91465 9.15462 7.91243 9.15067C7.91314 9.12618 7.9453 9.13262 7.94368 9.10575C7.94311 9.10319 7.89565 9.05985 7.8929 9.05399C7.8892 9.04347 7.89699 9.04153 7.91536 9.05301C7.92501 9.0596 7.96207 9.1011 7.97005 9.10575C7.98874 9.1166 7.99593 9.11526 7.99251 9.10379C7.98938 9.09757 7.94161 9.05423 7.94271 9.05106C7.95322 9.03106 7.96009 9.00749 8.03743 9.05399C8.04356 9.05802 8.13964 9.15281 8.12435 9.13309C8.09754 9.10595 8.06521 9.0741 8.03646 9.0452C8.0431 9.00766 8.09867 9.0189 8.1263 9.00223C8.12744 9.0015 8.07484 8.95143 8.0765 8.9495ZM7.2972 10.4983C7.26555 10.4691 7.2969 10.5079 7.33626 10.5442C7.36783 10.5734 7.33649 10.5346 7.2972 10.4983ZM7.77278 10.2249C7.77483 10.2268 7.77906 10.2267 7.77767 10.2249C7.72846 10.1735 7.7197 10.1735 7.77278 10.2249ZM8.06771 10.0843C8.07232 10.0884 8.08033 10.0884 8.0765 10.0843C7.99662 9.99944 7.97909 9.99985 8.06771 10.0843ZM7.88314 10.0725C7.88554 10.0748 7.88855 10.075 7.87532 10.0618C7.83256 10.0193 7.84281 10.0336 7.88314 10.0725ZM8.5179 9.21805C8.51998 9.22006 8.52442 9.22 8.52278 9.21805C8.47356 9.16664 8.46485 9.16672 8.5179 9.21805Z" fill="#555961"/>
</svg>
