<svg width="16" height="16" viewBox="0 0 16 16" fill="none" xmlns="http://www.w3.org/2000/svg">
<path d="M7.02876 3.62009C7.05918 3.61427 7.03536 3.66551 7.07759 3.66403C7.12016 3.66204 7.16257 3.60202 7.20942 3.63669C7.31805 3.71775 7.42821 3.85693 7.50239 3.97165C7.52482 4.00693 7.4826 4.02028 7.49653 4.04587C7.52556 4.09674 7.57744 4.12039 7.60396 4.17282C7.6126 4.19037 7.55188 4.21892 7.56196 4.2363C7.61746 4.33101 7.69939 4.39105 7.76607 4.47654C8.09472 4.89857 8.44743 5.28432 8.80708 5.68454C8.92572 5.81648 9.03794 6.0093 9.18501 6.12107C9.20187 6.13381 9.23083 6.08812 9.23774 6.08591C9.33196 6.08169 9.23881 6.14558 9.25728 6.18552C9.33272 6.34375 9.45982 6.47781 9.58735 6.57517C9.6414 6.61543 9.67063 6.49092 9.67524 6.582C9.67565 6.58829 9.62261 6.61817 9.6313 6.63571C9.65129 6.67536 9.7151 6.72468 9.73482 6.75095C9.77236 6.80145 9.78044 6.80833 9.82173 6.85056C9.87813 6.90898 9.92558 6.99849 9.99653 7.05075C10.0118 7.06178 10.0376 7.00185 10.0659 7.0156C10.0942 7.02966 10.1461 7.0885 10.1547 7.11716C10.1633 7.14589 10.122 7.17162 10.1176 7.18259C10.0804 7.27441 10.2341 7.24881 10.2446 7.25486C10.433 7.36783 10.5113 7.54808 10.6528 7.68943C10.7605 7.79666 10.8927 7.89542 10.9926 7.99997C11.1113 8.12459 11.1917 8.25094 11.3139 8.36521C11.3269 8.37631 11.3616 8.31328 11.3774 8.32712C11.5452 8.4833 11.701 8.64967 11.8286 8.8447C11.8413 8.86431 11.7765 8.88791 11.7866 8.91013C11.8494 9.04519 11.9196 9.28832 12.1694 9.15622C12.1906 9.18277 12.214 9.21117 12.2358 9.24118C12.3769 9.36583 12.3602 9.57056 12.2358 9.71189C12.1817 9.75116 12.1223 9.7869 12.059 9.80075C11.9956 9.8146 11.9845 9.7294 11.9575 9.79685C11.9513 9.81211 12.007 9.8406 11.9946 9.86032C11.9423 9.94309 11.8553 10.0035 11.81 10.0918C11.801 10.1097 11.8417 10.1434 11.8452 10.1543C11.8675 10.2414 11.7229 10.2057 11.7045 10.2109C11.5659 10.2514 11.5197 10.3357 11.435 10.4179C11.4154 10.437 11.4882 10.4642 11.4711 10.4843C11.3817 10.5882 11.2776 10.6845 11.1606 10.7568C11.1345 10.7725 11.1108 10.7104 11.0961 10.7158C11.0321 10.7403 11.1033 10.8314 11.0434 10.8564C11.0311 10.8617 11.0001 10.821 10.9936 10.8174C10.9046 10.7796 10.9718 10.8918 10.9672 10.9004C10.9304 10.9726 10.8543 10.9799 10.7875 11.0029C10.7544 11.014 10.7206 11.0319 10.6958 11.0654C10.6879 11.0772 10.7569 11.1015 10.7299 11.1318C10.5474 11.3356 10.3043 11.5051 10.0512 11.6045C10.0132 11.6193 10.0105 11.5649 10.0053 11.5586C9.91937 11.5004 9.96386 11.6224 9.95454 11.6338C9.88059 11.7191 9.74346 11.6721 9.74946 11.8398C9.65633 11.8753 9.56528 11.9131 9.47407 11.9502C9.14699 12.0836 8.80199 12.2117 8.44087 12.1582C8.43515 12.1575 8.4353 12.0951 8.42427 12.0927C8.2879 12.0763 8.32739 12.1692 8.24849 12.2978C8.22774 12.3302 8.14529 12.1919 8.13911 12.1816C8.11472 12.1444 8.13005 12.0507 8.12251 12.0429C8.06028 11.9879 8.08922 12.2949 8.00435 12.2998C8.00171 12.2994 8.00963 12.2417 8.00239 12.2363C7.98021 12.22 7.95954 12.2425 7.93794 12.2236C7.91366 12.2018 7.89636 12.155 7.87739 12.123C7.85765 12.0899 7.83617 12.0731 7.79927 12.1172C7.79003 12.1291 7.80239 12.3039 7.727 12.2939C7.69694 12.2902 7.56408 12.2871 7.52778 12.2724C7.49239 12.2585 7.52021 12.2057 7.519 12.2011C7.42777 12.1184 7.46771 12.0903 7.43208 11.9756C7.3982 11.861 7.38124 12.1236 7.35786 12.1504C7.33437 12.1766 7.27244 12.1073 7.25825 12.083C7.24434 12.0592 7.2705 12.0259 7.25728 12.0117C7.17123 11.9185 7.19246 12.1343 7.15181 12.1699C7.05348 12.2526 7.02724 12.0489 6.96235 12.0146C6.9444 12.0052 6.95019 12.0517 6.93208 12.0517C6.85995 12.051 6.83492 11.9824 6.7436 12.0146C6.72825 12.0212 6.63238 12.113 6.61763 12.0185C6.61585 12.0049 6.64621 11.9637 6.62153 11.9443C6.58437 11.9154 6.51334 11.8795 6.46333 11.8779C6.42636 11.8769 6.43556 11.9659 6.40278 11.9277C6.3883 11.9103 6.43831 11.8795 6.4106 11.8506C6.39816 11.8377 6.37387 11.8239 6.3481 11.8115C6.31627 11.7962 6.28158 11.7825 6.26314 11.7754C6.23009 11.7627 6.22246 11.8255 6.21821 11.8281C6.19271 11.8424 6.11822 11.8407 6.11177 11.8379C5.82375 11.7099 5.63556 11.4728 5.3813 11.3183C5.36123 11.3061 5.33398 11.3656 5.33052 11.3642C5.25059 11.3345 5.4057 11.2406 5.39888 11.1621C5.32321 11.268 5.31239 11.2296 5.26021 11.2041C5.23508 11.1922 5.21365 11.2398 5.20845 11.2422C5.12747 11.2733 5.17091 11.1799 5.17915 11.1601C5.20855 11.0872 5.1285 11.1322 5.1479 11.084C5.16823 11.0356 5.24738 11.0095 5.20845 10.9746C5.16582 10.9988 5.1123 11.1142 5.0688 11.1006C5.03258 11.0889 4.99674 11.0657 4.96333 11.0361C4.84288 10.9305 4.75708 10.7382 4.70357 10.6572C4.63425 10.5534 4.60395 10.5255 4.57564 10.457C4.52636 10.3323 4.47909 10.422 4.39888 10.375C4.31908 10.3264 4.52836 10.2433 4.56294 10.208C4.59753 10.1734 4.54977 10.1886 4.56489 10.1631C4.58026 10.138 4.62277 10.1454 4.6147 10.1133C4.60586 10.0818 4.49024 10.0493 4.44087 10.0625C4.33658 10.0922 4.25854 10.1824 4.24946 10.084C4.25102 10.0782 4.30873 10.0655 4.30513 10.0459C4.27616 9.90942 4.22434 9.78195 4.19868 9.64841C4.19459 9.6271 4.19145 9.60551 4.18892 9.58396C4.18654 9.56263 4.25187 9.55633 4.25239 9.54392C4.24742 9.41294 4.16128 9.49316 4.0229 9.46579C4.18113 9.42801 4.26119 9.3596 4.23482 9.27146C4.21906 9.21831 4.15423 9.24752 4.09614 9.22556C4.07895 9.21853 4.11434 9.16736 4.08052 9.16892C3.96955 9.17319 3.86167 9.24188 3.88325 9.12986C3.88442 9.12495 3.94591 9.12421 3.94575 9.10837C3.94568 9.00675 3.83178 9.01938 3.79732 8.91306C3.77031 8.8292 3.81666 8.66695 3.8188 8.57028C3.99918 8.55305 3.94989 8.47188 3.82271 8.44333C3.82338 8.38079 3.81275 8.31353 3.82857 8.2529C3.83403 8.23202 3.88739 8.24393 3.89302 8.24118C3.98089 8.20066 3.86051 8.17588 3.85493 8.16208C3.85061 8.14861 3.84722 8.13514 3.84517 8.12204C3.82549 7.99287 3.89954 7.88987 3.83052 7.75681C3.82779 7.75175 3.70332 7.72975 3.79927 7.70212C3.80729 7.70244 3.85785 7.75152 3.86958 7.68845C3.88152 7.62317 3.96553 7.51385 3.92524 7.41501C3.91532 7.39144 3.82631 7.31499 3.9145 7.28806C3.92653 7.28474 3.96042 7.29876 3.98189 7.29489C4.05023 7.28272 3.92954 7.23812 4.04243 7.23239C4.15547 7.22657 4.24861 7.18834 4.20161 7.08493C4.20028 7.08179 4.10902 7.03239 4.1186 7.00583C4.13436 6.96375 4.17493 6.91004 4.18989 6.86618C4.19607 6.84596 4.13648 6.83807 4.13325 6.83396C4.14432 6.74024 4.18401 6.67286 4.23286 6.60544C4.26489 6.56132 4.30101 6.51679 4.33735 6.46384C4.35385 6.43987 4.31662 6.32358 4.40376 6.30466C4.49908 6.28557 4.73823 6.48822 4.74067 6.33689C4.74062 6.27845 4.44869 6.00583 4.67622 6.03025C4.7477 5.83515 4.94315 5.75597 5.02388 5.56247C5.02709 5.55343 4.96746 5.45896 4.98286 5.44333C5.007 5.42152 5.05635 5.44441 5.07466 5.43064C5.1025 5.41027 5.12465 5.38527 5.14497 5.35935C5.18008 5.31253 5.20883 5.26105 5.25337 5.22263C5.27969 5.19979 5.30791 5.24488 5.33931 5.21775C5.37063 5.19052 5.34164 5.12253 5.40474 5.10642C5.45284 5.09451 5.58367 5.1648 5.63521 5.13669C5.53759 5.03604 5.56686 5.0103 5.58931 4.93552C5.59267 4.92117 5.54975 4.89736 5.54927 4.88864C5.54948 4.85287 5.59451 4.86454 5.59224 4.8281C5.59155 4.81921 5.55873 4.78564 5.5561 4.77634C5.53515 4.69766 5.65855 4.7263 5.68013 4.73142C5.76181 4.75045 5.73295 4.69167 5.77681 4.68747C5.82018 4.68369 5.80916 4.74342 5.84907 4.72751C5.93205 4.69431 6.00141 4.61405 6.06196 4.55661C6.08525 4.53353 6.02444 4.50432 6.02681 4.49997C6.06413 4.44007 6.16104 4.43909 6.0981 4.32224C6.36444 4.52113 6.10547 4.27027 6.22114 4.24704C6.22969 4.24546 6.32793 4.33421 6.33931 4.37693C6.36573 4.33215 6.40993 4.28482 6.43696 4.22068C6.44144 4.20875 6.42243 4.18352 6.43306 4.15134C6.31398 4.16606 6.18018 4.07722 6.29048 3.99997C6.31579 3.98225 6.30396 4.10631 6.3481 4.09568C6.42832 4.07589 6.34516 3.92627 6.45845 3.93747C6.47191 3.93889 6.49525 4.01261 6.50923 4.0654C6.60641 3.97044 6.71839 3.87804 6.81196 3.77243C6.83524 3.74537 6.76006 3.72454 6.85005 3.69138C6.85619 3.68924 6.91195 3.70346 6.94185 3.69138C6.96248 3.68284 6.99775 3.62642 7.02876 3.62009ZM8.62251 12.0703C8.64299 11.9481 8.4729 11.968 8.53071 12.081C8.53385 12.0871 8.62089 12.0768 8.62251 12.0703ZM7.01314 11.9004C7.02428 11.8409 6.98592 11.8499 6.98482 11.9072C6.98475 11.9106 7.00959 11.919 7.01314 11.9004ZM6.32075 4.41306C6.29946 4.42708 6.2708 4.43898 6.26802 4.47458C6.26703 4.48723 6.32803 4.62663 6.33052 4.64157C6.33699 4.73226 6.16853 4.57661 6.15571 4.56833C6.03283 4.49623 6.09535 4.65533 6.09028 4.67575C6.06719 4.76904 5.99492 4.79554 5.97114 4.86911C5.95553 4.9171 6.05923 5.02761 6.03169 5.04978C5.93757 5.1221 5.75827 5.00139 5.81001 5.20993C5.82098 5.25455 5.95506 5.35554 5.8022 5.32321C5.78954 5.3202 5.66352 5.28295 5.69087 5.3613C5.69484 5.37155 5.72884 5.40464 5.72798 5.41208C5.71793 5.45943 5.67095 5.45171 5.65278 5.49607C5.63471 5.54028 5.61677 5.59701 5.56978 5.62107C5.54131 5.63562 5.44924 5.59908 5.42329 5.59372C5.4046 5.58976 5.39369 5.59428 5.38618 5.60153C5.36084 5.62528 5.37174 5.67387 5.3188 5.64548C5.24699 5.60766 5.19745 5.49019 5.11567 5.50193C5.20415 5.5918 5.29372 5.68648 5.38228 5.77732C5.28864 5.86744 5.17198 5.93909 5.09517 6.04782C5.08718 6.06141 5.15003 6.08926 5.14204 6.10446C5.10685 6.16848 5.02986 6.19247 5.00337 6.26657C4.98327 6.32397 5.00986 6.41553 4.99556 6.47556C4.85254 6.43341 4.8486 6.53863 4.80708 6.59079C4.79249 6.60915 4.75953 6.59071 4.74067 6.59958C4.67094 6.63558 4.79777 6.66548 4.80903 6.68943C4.85298 6.78528 4.61884 6.68673 4.56782 6.74997C4.56502 6.75346 4.56253 6.75717 4.56099 6.76169C4.55904 6.76667 4.67718 6.87725 4.68501 6.88864C4.725 6.95695 4.63273 6.87667 4.61079 6.90134C4.57104 6.94637 4.5224 6.97191 4.54341 7.04978C4.54961 7.07295 4.62632 7.14527 4.54536 7.15915C4.53464 7.16105 4.4859 7.14346 4.48189 7.14646C4.41361 7.20286 4.56696 7.24962 4.60884 7.30173C4.65072 7.35336 4.52946 7.38645 4.49556 7.39255C4.40942 7.40687 4.46629 7.35987 4.4604 7.35544C4.37215 7.31172 4.37649 7.36155 4.36079 7.39548C4.20706 7.36694 4.20518 7.42087 4.34517 7.43064C4.36035 7.43169 4.35255 7.40151 4.36079 7.39548C4.5039 7.46033 4.51284 7.5126 4.36079 7.54782C4.28986 7.56449 4.2167 7.52471 4.23091 7.61814C4.23776 7.66058 4.34709 7.66083 4.37153 7.69919C4.42714 7.78522 4.31734 7.87673 4.32857 7.96091C4.33304 7.99042 4.39291 7.96517 4.3979 7.98532C4.41035 8.0352 4.37133 8.07846 4.38423 8.1279C4.38511 8.13119 4.38676 8.13434 4.38814 8.13767C4.39022 8.14241 4.45064 8.1319 4.45259 8.14743C4.45951 8.27008 4.42508 8.37988 4.43696 8.50974C4.4425 8.57267 4.49186 8.67881 4.49653 8.74314C4.50362 8.85404 4.44842 9.01129 4.49653 9.10056C4.52744 9.15799 4.58246 9.12757 4.63032 9.1406C4.72254 9.16432 4.61266 9.29493 4.59614 9.3154C4.59391 9.31367 4.56325 9.27006 4.54341 9.30661C4.48841 9.34354 4.58949 9.31677 4.59614 9.3154C4.58521 9.32915 4.61093 9.43565 4.63032 9.45114C4.64163 9.45863 4.69242 9.43181 4.69673 9.4365C4.69855 9.43851 4.70078 9.44034 4.70259 9.44236C4.80202 9.55335 4.87285 9.66982 4.91841 9.80564C4.91506 9.80986 4.86142 9.83612 4.86079 9.84275C4.87757 9.9313 4.9757 9.93695 5.0522 9.96775C5.12903 9.99876 5.14478 10.0502 5.07759 10.1494C5.11934 10.1835 5.12597 10.2726 5.13032 10.3261C5.13459 10.3787 5.23282 10.3063 5.24067 10.3047C5.37724 10.3426 5.36679 10.4392 5.44478 10.5351C5.4475 10.5385 5.45122 10.5423 5.45454 10.5459C5.49621 10.5908 5.58316 10.6488 5.63521 10.6767C5.67939 10.7005 5.6829 10.7427 5.72993 10.7568C5.73603 10.7586 5.76502 10.7152 5.76997 10.7109C5.85112 10.689 5.74595 10.7826 5.73872 10.8086C5.71294 10.9024 5.70458 10.9567 5.78364 10.9629C5.80246 10.9647 5.95488 10.8281 5.98286 10.833C6.01954 10.8403 5.96877 10.8921 6.00825 10.8984C6.01165 10.899 6.03568 10.8621 6.05317 10.8759C6.13466 10.9398 6.22028 11.0199 6.3188 11.0664C6.33205 11.072 6.34828 11.0017 6.36763 11.0097C6.45343 11.0454 6.543 11.0891 6.61763 11.1494C6.62203 11.153 6.627 11.1564 6.6313 11.1601C6.65019 11.1766 6.61849 11.2168 6.61763 11.2324C6.6158 11.3259 6.70375 11.2253 6.71235 11.2236C6.89802 11.2256 6.99789 11.3746 7.18989 11.3584C7.20125 11.3575 7.29873 11.2361 7.31196 11.3574C7.31265 11.3664 7.32791 11.4892 7.36958 11.4131C7.37206 11.4082 7.36109 11.3431 7.39595 11.3545C7.43133 11.3656 7.4925 11.332 7.5356 11.4043C7.54877 11.4271 7.57843 11.5506 7.63325 11.458C7.63851 11.4509 7.7187 11.2397 7.73872 11.3886C7.74201 11.4133 7.73377 11.5717 7.79341 11.4922C7.80455 11.4766 7.78542 11.4407 7.81392 11.4189C7.83099 11.4058 7.85047 11.4047 7.87056 11.4033C7.90198 11.401 7.9368 11.3987 7.96724 11.3545C7.97661 11.3407 8.008 11.2336 8.04341 11.3125C8.04897 11.3253 8.044 11.378 8.06099 11.3828C8.14275 11.4054 8.22197 11.3612 8.30708 11.3857C8.33745 11.3943 8.33531 11.4812 8.36958 11.499C8.40382 11.5169 8.47099 11.5272 8.49556 11.4824C8.51956 11.4377 8.45918 11.3111 8.50239 11.291C8.68702 11.2037 8.89786 11.2217 9.09224 11.1533C9.11644 11.1447 9.09004 11.1175 9.10591 11.0986C9.10864 11.0954 9.11296 11.0925 9.1186 11.0898C9.2685 11.0232 9.48401 10.8505 9.65767 10.8545C9.80006 10.8572 9.71499 10.9929 9.80903 10.9687C9.85526 10.9559 9.79994 10.801 9.80415 10.79C9.85324 10.6898 9.95073 10.7003 10.0053 10.624C10.0163 10.6083 9.96055 10.5722 9.97017 10.5595C10.0023 10.5164 10.0624 10.4993 10.0952 10.4599C10.1096 10.4422 10.0729 10.4106 10.0893 10.3984C10.1042 10.3878 10.1204 10.3786 10.1372 10.3711C10.1393 10.3691 10.144 10.3631 10.1459 10.3613C10.1802 10.3442 10.2189 10.333 10.2661 10.3271C10.2729 10.3271 10.2906 10.3941 10.3237 10.3642C10.3774 10.3157 10.4727 10.2841 10.4985 10.1924C10.5057 10.1648 10.4279 10.0854 10.52 10.1025C10.5397 10.1069 10.6236 10.2103 10.5854 10.0849C10.5789 10.0629 10.5427 9.87979 10.6499 9.91501C10.6784 9.92447 10.7798 9.97747 10.7885 9.94431C10.7868 9.93838 10.7368 9.90868 10.7495 9.88767C10.797 9.81242 10.8657 9.75212 10.9155 9.67575C10.9281 9.65537 10.8594 9.63638 10.8803 9.60739C10.9218 9.54991 10.9847 9.49639 11.0463 9.45017C10.9891 9.43504 10.9968 9.39345 10.9555 9.36325C10.7325 9.20095 10.5165 8.94132 10.3481 8.74607C10.1282 8.49167 9.97889 8.27261 9.7436 8.05564C9.72865 8.04213 9.69358 8.10597 9.68013 8.0947C9.50831 7.94664 9.37025 7.76903 9.19575 7.62302C9.18141 7.61234 9.15356 7.67681 9.12935 7.65915C9.07901 7.62297 9.0273 7.56542 8.99849 7.50681C8.98438 7.47837 9.05196 7.46712 9.03755 7.43943C9.00254 7.37434 8.95192 7.31732 8.89302 7.27341C8.86794 7.25495 8.85347 7.33476 8.82466 7.30759C8.62622 7.11864 8.42723 6.93634 8.29341 6.67868C8.28493 6.66044 8.36971 6.55182 8.32271 6.54196C8.29359 6.56679 8.26165 6.59904 8.23189 6.62693C7.93445 6.36051 7.68908 6.04767 7.41157 5.75974C7.39986 5.74786 7.36904 5.81944 7.34614 5.79685C7.21332 5.6625 7.0693 5.5462 6.98384 5.35837C6.97668 5.33911 7.07231 5.25653 7.019 5.23044C7.00882 5.22545 6.93684 5.17753 6.90181 5.18161C6.89589 5.1843 6.86541 5.23557 6.84517 5.21775C6.72609 5.1115 6.61736 4.98397 6.53071 4.84568C6.51684 4.82332 6.58092 4.79758 6.57173 4.78122C6.50399 4.66573 6.3706 4.59989 6.32368 4.47165C6.31619 4.45092 6.31569 4.43145 6.32075 4.41306ZM4.97505 10.7676C4.97344 10.7703 4.99668 10.7992 4.99946 10.7978C5.06444 10.7637 5.01943 10.7066 4.97505 10.7676ZM5.04439 5.832C4.93195 5.81283 5.02125 5.93328 5.10493 5.95114C5.18775 5.9701 5.07812 5.83846 5.04439 5.832ZM5.78462 4.85837C5.73881 4.84337 5.72963 4.92267 5.78657 4.94138C5.83242 4.95641 5.84165 4.87704 5.78462 4.85837ZM6.57857 4.31443C6.51428 4.3509 6.56271 4.40723 6.60396 4.34372C6.60442 4.34013 6.58163 4.31364 6.57857 4.31443Z" fill="#555961"/>
<path d="M4.89714 11C5.13454 11.2281 4.87904 10.9737 4.93522 11.0107C4.94371 11.0177 5.0494 11.1222 5.06315 11.1416C5.0764 11.1606 5.03808 11.1309 5.05925 11.1601C5.0656 11.1685 5.16218 11.2753 5.16764 11.2822C5.21011 11.3362 5.04757 11.1761 5.03581 11.165C4.93482 11.071 5.03868 11.1888 5.0446 11.1982C5.07168 11.2413 5.04186 11.225 5.06022 11.2568C5.07188 11.2771 5.17682 11.3824 5.1735 11.3857C5.15113 11.3863 4.99647 11.2398 5.11589 11.3808C5.14134 11.4109 5.26126 11.5262 5.16081 11.4423C5.15445 11.437 5.06294 11.3588 5.11296 11.416C5.11951 11.4234 5.15364 11.4574 5.15593 11.4609C5.17035 11.4832 5.14139 11.4583 5.15007 11.4756C5.15885 11.493 5.17249 11.5174 5.15593 11.5107C5.14452 11.5052 5.07803 11.4466 5.0612 11.4326C5.01272 11.3921 5.08185 11.4698 5.02507 11.4179C4.96769 11.3656 4.88936 11.2769 4.84733 11.248C4.93613 11.3373 5.02673 11.4296 5.11589 11.5195C5.0983 11.5306 5.05605 11.5168 5.04557 11.5351C5.04779 11.5402 5.09172 11.5818 5.09343 11.5869C5.09295 11.6026 5.05213 11.5757 5.05729 11.5976C5.06151 11.6148 5.105 11.6728 5.111 11.6923C5.00485 11.5945 5.02902 11.6397 5.01237 11.6377C5.0061 11.6362 4.98017 11.6098 4.9694 11.6025C4.92995 11.5767 5.0214 11.6617 5.03483 11.6787C5.0867 11.7466 4.8874 11.5489 4.87858 11.5586C4.87827 11.5593 4.98106 11.675 4.98698 11.6826C5.02492 11.7312 4.94759 11.6452 4.9362 11.6406C4.91535 11.6321 4.88538 11.6105 4.90983 11.6494C4.91715 11.6609 4.97995 11.7337 4.9235 11.6855C4.91612 11.6792 4.88037 11.6435 4.87761 11.6416C4.83463 11.6143 4.94736 11.7277 4.98112 11.7705C5.01451 11.8129 4.92978 11.7417 4.90593 11.7207C4.84484 11.6669 4.88331 11.6928 4.87858 11.6875C4.81325 11.6174 4.81969 11.6335 4.81022 11.6318C4.699 11.5217 4.70017 11.5335 4.80046 11.6298C4.81145 11.6404 4.80438 11.6275 4.81022 11.6318C4.91545 11.7438 4.92321 11.7639 4.81511 11.6689C4.76443 11.6244 4.71235 11.566 4.72331 11.5957C4.72931 11.6099 4.806 11.6836 4.82292 11.708C4.86152 11.7636 4.78071 11.7048 4.7819 11.7236C4.78277 11.7309 4.82772 11.7699 4.82975 11.7763C4.83521 11.7934 4.79904 11.7672 4.80925 11.789C4.81117 11.7919 4.85443 11.8336 4.85319 11.8359C4.8444 11.8545 4.8048 11.839 4.78971 11.8525C4.78281 11.8595 4.79383 11.8951 4.7819 11.8974C4.76086 11.9012 4.68259 11.8541 4.68718 11.8798C4.69012 11.8966 4.73555 11.9389 4.76237 11.9716C4.81437 12.0351 4.70065 11.9414 4.68327 11.9267C4.6719 11.9177 4.651 11.9201 4.6569 11.9306C4.66121 11.9374 4.70189 11.9772 4.7028 11.9795C4.72383 12.0323 4.71861 12.0587 4.68327 12.0556C4.68219 12.0551 4.63945 12.0117 4.63444 12.0078C4.60448 11.9965 4.65441 12.0592 4.68034 12.1006C4.70624 12.1419 4.68924 12.1364 4.60514 12.0615C4.60933 12.0773 4.56587 12.0507 4.53971 12.0341C4.51414 12.018 4.59916 12.1045 4.60417 12.1103C4.64804 12.1806 4.58878 12.1369 4.56706 12.1425C4.55676 12.1453 4.55742 12.1716 4.56022 12.1884C4.56186 12.2009 4.53777 12.1843 4.54557 12.2021C4.54668 12.2046 4.58819 12.2443 4.58952 12.2461C4.63164 12.2996 4.53596 12.1989 4.51725 12.1826C4.44949 12.1234 4.41297 12.0921 4.43522 12.1289C4.44038 12.1374 4.57635 12.2824 4.58268 12.2949C4.58916 12.3094 4.53945 12.2579 4.54753 12.2744C4.5493 12.2768 4.57782 12.3049 4.57585 12.3076C4.55794 12.3136 4.52682 12.3089 4.51725 12.3242C4.51585 12.3262 4.56729 12.3742 4.56608 12.3779C4.56031 12.3951 4.54565 12.4054 4.51139 12.3935C4.50241 12.3899 4.46947 12.3543 4.45866 12.3447C4.39292 12.2863 4.47831 12.3821 4.47917 12.3847C4.50171 12.4485 4.40467 12.3825 4.42253 12.4423C4.42367 12.4458 4.51163 12.5519 4.42448 12.4726C4.41867 12.4674 4.32997 12.3859 4.38444 12.4472C4.38786 12.4511 4.43388 12.4932 4.42546 12.4931C4.41677 12.4929 4.43919 12.5284 4.38542 12.4863C4.36839 12.4729 4.27919 12.3925 4.34147 12.4658C4.3504 12.476 4.4884 12.6302 4.38151 12.5293C4.36329 12.512 4.25269 12.4 4.30339 12.4638C4.31325 12.4762 4.33993 12.4996 4.35221 12.5185C4.37084 12.5472 4.33507 12.5241 4.37858 12.58C4.38706 12.5908 4.45712 12.6698 4.39616 12.6162C4.38661 12.6077 4.35137 12.5707 4.3444 12.5673C4.31507 12.5566 4.3298 12.5915 4.2946 12.5752C4.28217 12.5694 4.22344 12.5068 4.20378 12.4941C4.18416 12.4815 4.16135 12.4737 4.18522 12.5048C4.20933 12.5362 4.30994 12.6284 4.31218 12.6416C4.32131 12.6981 4.24153 12.6652 4.20964 12.6806C4.20489 12.6829 4.24249 12.7148 4.23796 12.7207C4.22144 12.7424 4.22022 12.8075 4.13054 12.7509C4.05872 12.7056 4.03073 12.6445 3.99675 12.6308C3.98087 12.6247 4.08718 12.7414 4.08952 12.7461C4.11362 12.7932 4.0564 12.7517 4.0612 12.7773C4.06243 12.7828 4.10967 12.826 4.11003 12.83C4.11137 12.8437 4.08527 12.8306 4.08268 12.8398C4.08184 12.8439 4.11187 12.8739 4.11198 12.8779C4.10009 12.8778 4.07988 12.8685 4.04167 12.8418C4.03723 12.8381 3.99929 12.7941 3.99284 12.7959C3.98331 12.8005 3.9425 12.7771 3.96745 12.8183C3.97513 12.8308 4.0536 12.9098 3.99382 12.8603C3.98049 12.8491 3.88832 12.7546 3.96354 12.8418C3.97618 12.8564 4.07703 12.9775 4.00065 12.9111C3.98052 12.8936 3.90063 12.82 3.90886 12.834C3.9104 12.8363 3.95426 12.8767 3.95671 12.8838C3.96211 12.906 3.94829 12.9107 3.9528 12.9326C3.9541 12.9385 4.00068 12.978 4.00261 12.9863C4.00421 13.0069 3.98076 13.0083 3.95768 13.0039C3.94903 13.002 3.91502 12.9627 3.91081 12.959C3.8427 12.8988 3.9266 12.9887 3.93034 12.9951C3.95231 13.0336 3.90567 12.9991 3.90886 13.0175C3.91097 13.0235 3.95188 13.0618 3.95573 13.0664C3.98734 13.1066 3.91764 13.0298 3.90593 13.0234C3.87494 13.0078 3.86936 13.0201 3.86686 13.0332C3.8666 13.0385 3.91701 13.0831 3.91569 13.0869C3.9087 13.1102 3.88858 13.121 3.84733 13.1093C3.83945 13.1071 3.80365 13.0684 3.7946 13.0605C3.73191 13.0059 3.80682 13.0925 3.81315 13.1015C3.8418 13.1424 3.80662 13.1125 3.80729 13.124C3.811 13.1807 3.75686 13.1915 3.71843 13.2031C3.66858 13.2185 3.60774 13.209 3.58561 13.249C3.58419 13.2515 3.6343 13.2975 3.63542 13.3017C3.62526 13.3357 3.5837 13.3386 3.57585 13.375C3.57683 13.3791 3.62264 13.4204 3.62468 13.4277C3.62581 13.4407 3.61612 13.4462 3.59538 13.4375C3.58537 13.4333 3.54962 13.3901 3.53971 13.3857C3.518 13.3776 3.50731 13.3813 3.50749 13.3955C3.50776 13.4018 3.55968 13.4457 3.55632 13.4502C3.53442 13.4816 3.51613 13.5163 3.42741 13.4814C3.42132 13.479 3.32334 13.3832 3.33757 13.4052C3.36418 13.4324 3.39583 13.4642 3.42448 13.4931C3.40114 13.5475 3.32902 13.5531 3.28483 13.5869C3.28745 13.5919 3.33684 13.6367 3.33366 13.6396C3.31466 13.6573 3.31066 13.6894 3.24089 13.6572C3.23302 13.653 3.14486 13.5629 3.153 13.582C3.15464 13.5865 3.15877 13.606 3.17546 13.6269C3.17806 13.6301 3.2194 13.669 3.22038 13.6748C3.21127 13.6967 3.18555 13.7037 3.14421 13.6933C3.13725 13.6911 3.09738 13.6464 3.0905 13.6425C3.05399 13.6313 3.07388 13.6789 3.02116 13.6504C2.98555 13.6309 2.91066 13.5498 2.82975 13.4775C2.81834 13.4673 2.81111 13.471 2.76628 13.4267C2.65353 13.3153 2.53323 13.1897 2.41276 13.0713C2.38714 13.0461 2.40832 13.0796 2.35026 13.0136C2.34624 13.0089 2.32998 12.984 2.31022 12.9619C2.2964 12.9464 2.25002 12.9021 2.23307 12.8818C2.21639 12.8617 2.256 12.8977 2.23698 12.873C2.21759 12.848 2.16421 12.7978 2.16374 12.7861C2.16303 12.7593 2.19495 12.7574 2.22819 12.7646C2.23856 12.7668 2.26468 12.797 2.27311 12.7998C2.2895 12.8052 2.28127 12.7856 2.29948 12.7929C2.30564 12.7955 2.34659 12.8416 2.35319 12.8447C2.38319 12.854 2.38216 12.8331 2.40202 12.832C2.50047 12.8269 2.5686 12.7928 2.64128 12.7607C2.66538 12.7503 2.72607 12.7688 2.72624 12.7334C2.72472 12.7281 2.68765 12.6934 2.68327 12.6884C2.64047 12.6333 2.71582 12.7123 2.73112 12.7197C2.78862 12.745 2.81078 12.7307 2.8112 12.7002C2.81091 12.6868 2.72691 12.6164 2.77702 12.6533C2.78156 12.6571 2.82069 12.6986 2.82682 12.7011C2.84055 12.7066 2.84092 12.6922 2.84733 12.6923C2.85991 12.6928 2.86061 12.6908 2.86686 12.6855C2.87599 12.6789 2.90585 12.6896 2.90495 12.6718C2.90306 12.6667 2.85973 12.6283 2.85514 12.6181C2.85082 12.608 2.86208 12.6039 2.87468 12.6113C2.8871 12.6186 2.91869 12.6522 2.92741 12.6601C2.99587 12.7211 2.91579 12.6225 2.91471 12.6191C2.89809 12.561 2.96667 12.5938 2.986 12.5742C3.00027 12.5591 2.99911 12.5264 3.0153 12.5146C3.03501 12.5007 3.07229 12.5095 3.08464 12.4892C3.08111 12.4831 3.03434 12.439 3.03581 12.4365C3.05234 12.4085 3.08056 12.3918 3.13639 12.4033C3.14256 12.4052 3.18246 12.4507 3.19108 12.455C3.24082 12.4775 3.34882 12.5431 3.16569 12.3437C3.1824 12.3419 3.20188 12.3388 3.2487 12.3691C3.27882 12.3888 3.32111 12.4409 3.30729 12.414C3.30348 12.4074 3.2611 12.3683 3.25944 12.3623C3.25344 12.3377 3.27655 12.3412 3.26432 12.3105C3.26171 12.3042 3.22389 12.2672 3.21745 12.2597C3.16778 12.2012 3.26288 12.2813 3.27311 12.2881C3.33451 12.3248 3.32486 12.2964 3.33757 12.2861C3.33766 12.2816 3.28674 12.2364 3.28776 12.2324C3.29393 12.212 3.31206 12.2026 3.34733 12.2119C3.35533 12.2141 3.396 12.2594 3.40202 12.2627C3.4276 12.2761 3.34839 12.1944 3.37175 12.206C3.37777 12.2098 3.4125 12.2462 3.41667 12.25C3.48308 12.3093 3.39626 12.2167 3.39518 12.2138C3.37962 12.1753 3.48109 12.2613 3.47917 12.2373C3.47882 12.2343 3.43083 12.1927 3.43034 12.1855C3.44234 12.1478 3.48185 12.1339 3.54362 12.1465C3.55317 12.1484 3.58595 12.1863 3.5905 12.1904C3.65989 12.2521 3.57671 12.1635 3.57194 12.1562C3.55732 12.1219 3.64147 12.1883 3.54069 12.0742C3.61965 12.0698 3.60134 11.9675 3.73893 12.0224C3.74118 12.0237 3.78373 12.0693 3.78679 12.0703C3.82417 12.0825 3.75249 12.0156 3.67643 11.9228C3.65785 11.9 3.76603 11.995 3.77409 12.0019C3.8037 12.0274 3.86767 12.0959 3.8737 12.1006C3.92078 12.1362 3.702 11.9189 3.70964 11.9111C3.7127 11.9139 3.74888 11.9525 3.75358 11.956C3.7681 11.9665 3.75464 11.9483 3.77018 11.9599C3.80674 11.9875 3.91494 12.0921 3.86003 12.0234C3.85288 12.0145 3.72745 11.8919 3.73991 11.8906C3.74504 11.8903 3.755 11.8767 3.76628 11.8808C3.77771 11.8855 3.81606 11.9282 3.81804 11.9297C3.87978 11.9732 3.89845 11.9987 3.98112 12.0722C4.06329 12.1452 3.87596 11.961 3.8571 11.9384C3.83843 11.916 3.8891 11.9523 3.90593 11.9658C3.92274 11.9793 3.94568 12.0075 3.95573 12.0146C4.02132 12.0608 3.86776 11.9174 3.84147 11.8847C3.77991 11.8082 3.9214 11.9383 3.94304 11.9463C3.94856 11.948 3.91598 11.9177 3.91471 11.9131C3.91076 11.896 3.95705 11.9342 3.92546 11.8877C3.92026 11.88 3.84353 11.7911 3.90788 11.8476C3.91721 11.8558 3.9501 11.8925 3.96061 11.8974C3.97624 11.9047 3.9908 11.9044 3.98405 11.8886C3.97889 11.8768 3.9193 11.8235 3.94108 11.8369C3.95102 11.8433 3.98039 11.8792 3.99577 11.8877C4.01124 11.8962 4.01891 11.8863 4.02116 11.8818C4.02327 11.8772 3.97788 11.8361 3.97526 11.833C3.96095 11.8155 3.94743 11.7895 3.94694 11.7871C3.97068 11.7529 4.06964 11.7982 4.07389 11.7461C4.07359 11.7415 4.02742 11.6983 4.02702 11.6972C4.01604 11.6712 4.13092 11.7971 4.17643 11.832C4.08414 11.7412 4.10284 11.7544 4.09831 11.7392C4.09595 11.7317 4.05875 11.6972 4.05534 11.6933C4.00548 11.6359 4.07751 11.7032 4.09245 11.7168C4.14749 11.7667 4.08883 11.7019 4.12565 11.7353C4.16205 11.7684 4.2098 11.8237 4.21452 11.8183C4.18306 11.784 4.09273 11.7014 4.08268 11.6836C4.04478 11.6163 4.14006 11.6561 4.15886 11.6513C4.17718 11.6465 4.1754 11.6366 4.19401 11.6416C4.22739 11.6504 4.15882 11.5915 4.13737 11.5547C4.11703 11.5191 4.26937 11.6781 4.30436 11.7109C4.33917 11.7435 4.30596 11.7084 4.32585 11.7256C4.34559 11.7427 4.36559 11.7687 4.37565 11.7724C4.38461 11.7749 4.3343 11.707 4.30046 11.6709C4.22824 11.5939 4.14584 11.5193 4.18132 11.5381C4.18343 11.5392 4.22315 11.5826 4.22917 11.5849C4.27555 11.602 4.29299 11.5882 4.33561 11.6015C4.34147 11.6034 4.38422 11.6503 4.38932 11.6533C4.43092 11.6704 4.34945 11.5966 4.27018 11.5039C4.38241 11.6191 4.45581 11.6854 4.46647 11.6777C4.4725 11.6726 4.42191 11.6238 4.3903 11.5849C4.38104 11.5735 4.41888 11.6032 4.39616 11.5791C4.32182 11.5 4.23253 11.4179 4.27604 11.4423C4.27809 11.4436 4.31892 11.4872 4.32292 11.4882C4.34853 11.4952 4.2704 11.4148 4.27018 11.3945C4.2705 11.379 4.33293 11.4129 4.35026 11.4121C4.4787 11.5409 4.45794 11.5033 4.37272 11.4111C4.38223 11.4089 4.38408 11.3977 4.40202 11.4043C4.40913 11.4079 4.44289 11.4436 4.44792 11.4482C4.51482 11.5076 4.43148 11.4187 4.42936 11.414C4.4106 11.3678 4.48593 11.4216 4.43522 11.3447C4.42906 11.3376 4.34748 11.254 4.41374 11.3134C4.41846 11.3177 4.45521 11.3633 4.46452 11.3603C4.47415 11.3576 4.53282 11.3929 4.50065 11.3437C4.49277 11.3317 4.4255 11.2535 4.486 11.3056C4.49426 11.3128 4.51976 11.3391 4.53483 11.3525C4.5827 11.3951 4.4933 11.3044 4.57292 11.3779C4.65271 11.4515 4.71682 11.502 4.67253 11.4404C4.66799 11.4351 4.60237 11.3648 4.60612 11.3632C4.6128 11.3613 4.63336 11.37 4.63737 11.3652C4.63929 11.3628 4.59289 11.3195 4.59245 11.3183C4.58217 11.2789 4.63289 11.308 4.66569 11.3095C4.6685 11.3062 4.6208 11.2422 4.67253 11.2832C4.73107 11.3295 4.94295 11.5542 4.90495 11.4882C4.8891 11.4611 4.62073 11.1784 4.77409 11.3115C4.75823 11.2563 4.84881 11.3114 4.81804 11.2412C4.81667 11.238 4.74263 11.1572 4.74577 11.1562C4.75098 11.1555 4.78689 11.1879 4.79264 11.1894C4.81278 11.191 4.79063 11.1516 4.80436 11.1474C4.80986 11.1463 4.84612 11.1845 4.85221 11.1826C4.85546 11.1781 4.81206 11.1297 4.8405 11.1474C4.86275 11.1614 4.96783 11.2574 4.98503 11.2636C4.8861 11.1643 4.89121 11.1627 4.87175 11.1298C4.86753 11.1232 4.83298 11.0912 4.82878 11.0859C4.81357 11.0658 4.84408 11.0912 4.8278 11.0703C4.82372 11.0651 4.7891 11.0306 4.78386 11.0244C4.73863 10.9712 4.82126 11.0406 4.83561 11.0527C4.89005 11.0985 4.84863 11.0528 4.87175 11.0693C4.89467 11.0859 4.91455 11.1149 4.93034 11.123C4.96285 11.1397 4.96775 11.1248 4.97721 11.1181C4.98087 11.1153 4.9338 11.0717 4.93327 11.0703C4.92944 11.0531 4.98277 11.093 4.89714 11ZM2.82194 13.4375C2.8704 13.4898 2.88171 13.4864 2.8278 13.4355C2.82556 13.4337 2.82008 13.4354 2.82194 13.4375ZM3.75944 12.08C3.83736 12.1666 3.86228 12.1589 3.77214 12.0761C3.76746 12.0719 3.7556 12.0757 3.75944 12.08ZM4.02702 12.0351C4.0702 12.078 4.06202 12.0619 4.02116 12.0234C4.01873 12.0211 4.01361 12.0218 4.02702 12.0351ZM4.22331 11.7744C4.27173 11.8267 4.28307 11.8233 4.22917 11.7724C4.22689 11.7707 4.22162 11.7723 4.22331 11.7744ZM4.9362 11.3965C4.8607 11.3326 4.95912 11.4393 5.01725 11.4892C5.07533 11.5391 4.95918 11.4159 4.9362 11.3965ZM4.94987 11.1699C4.91732 11.1416 4.94651 11.1825 4.98698 11.2177C5.01935 11.2459 4.99025 11.205 4.94987 11.1699ZM4.86784 10.9004C4.87493 10.9018 4.9206 10.9654 4.94108 10.9785C4.97851 11.0021 4.86664 10.881 4.9362 10.9365C4.94916 10.9471 5.04729 11.0609 5.04948 11.0654C5.02598 11.072 4.8305 10.8958 4.86784 10.9004Z" fill="#555961"/>
<path d="M7.61783 4.93422C7.64197 4.92839 7.83576 5.10481 7.7985 5.10023C7.79089 5.09791 7.74553 5.03395 7.72526 5.02113C7.68864 4.99828 7.79953 5.11845 7.73014 5.06312C7.71559 5.05065 7.61633 4.93446 7.61783 4.93422ZM9.52213 2.30629C9.52888 2.30803 9.57162 2.35641 9.57682 2.35804C9.61299 2.36898 9.59332 2.32052 9.64615 2.34925C9.68178 2.36883 9.75594 2.44998 9.83658 2.52211C9.848 2.53231 9.85523 2.52955 9.90006 2.57386C10.0127 2.68521 10.1332 2.80997 10.2536 2.92836C10.2795 2.95388 10.2588 2.91981 10.3171 2.98597C10.3212 2.99098 10.3367 3.01586 10.3561 3.03773C10.3699 3.05315 10.4173 3.09744 10.4342 3.11781C10.4507 3.13761 10.4113 3.10194 10.4303 3.1266C10.4496 3.15145 10.5013 3.20126 10.5026 3.21351C10.5033 3.2404 10.4714 3.24322 10.4381 3.23597C10.4277 3.23369 10.4016 3.2036 10.3932 3.20082C10.3769 3.1955 10.3853 3.21424 10.3669 3.20668C10.36 3.20327 10.3186 3.15666 10.3131 3.15492C10.2831 3.14565 10.2843 3.16755 10.2643 3.16859C10.166 3.17369 10.0986 3.20782 10.026 3.23988C10.0021 3.2505 9.94032 3.2308 9.9401 3.26625C9.94012 3.2704 9.97965 3.308 9.98307 3.31214C10.0262 3.36768 9.94976 3.28634 9.93522 3.27992C9.87792 3.25474 9.85664 3.26904 9.85611 3.29945C9.85605 3.31258 9.93953 3.38424 9.88932 3.3473C9.88539 3.34422 9.84699 3.30147 9.84049 3.29847C9.82643 3.29262 9.82547 3.30835 9.81901 3.30824C9.80672 3.30786 9.80567 3.30883 9.79947 3.3141C9.79028 3.32065 9.76053 3.31006 9.76139 3.32777C9.76171 3.33171 9.80685 3.37232 9.81119 3.38246C9.81517 3.39236 9.80415 3.39569 9.79166 3.38832C9.77884 3.38047 9.74706 3.34674 9.73893 3.33949C9.67047 3.27855 9.75152 3.37715 9.7526 3.3805C9.7693 3.43858 9.70093 3.40622 9.68131 3.42543C9.66673 3.44044 9.66739 3.47319 9.65104 3.485C9.63133 3.49887 9.59405 3.49011 9.5817 3.51039C9.58249 3.51425 9.63205 3.56052 9.63053 3.56312C9.61404 3.59111 9.58657 3.60768 9.53092 3.59632C9.52526 3.59512 9.48354 3.54839 9.47526 3.54457C9.42543 3.52203 9.31804 3.45709 9.50065 3.65589C9.48398 3.65766 9.46514 3.66148 9.41861 3.63148C9.38855 3.61205 9.3455 3.55909 9.35904 3.58558C9.36209 3.59156 9.40571 3.63093 9.40787 3.63734C9.41389 3.66201 9.38959 3.6592 9.40201 3.69007C9.40534 3.69701 9.44272 3.73364 9.44889 3.74086C9.49891 3.79982 9.40142 3.71651 9.39322 3.71156C9.33223 3.67511 9.3421 3.70306 9.32975 3.71351C9.32678 3.71588 9.37962 3.76313 9.37858 3.76722C9.37247 3.78775 9.35441 3.79706 9.31901 3.78773C9.31029 3.78435 9.27191 3.74104 9.26529 3.73695C9.23927 3.72315 9.31894 3.80524 9.29557 3.79359C9.29087 3.7913 9.25637 3.75599 9.25065 3.75062C9.18513 3.69201 9.26666 3.77933 9.27115 3.78578C9.28669 3.82416 9.18705 3.73926 9.18815 3.76234C9.1885 3.76535 9.23784 3.80946 9.236 3.81507C9.22395 3.85269 9.18448 3.86577 9.12272 3.85316C9.11301 3.85063 9.08225 3.81537 9.07682 3.81019C9.0065 3.74762 9.09107 3.83656 9.09537 3.84339C9.10998 3.87767 9.02521 3.81163 9.12565 3.92543C9.04682 3.92985 9.06557 4.03181 8.92838 3.97718C8.92674 3.97659 8.88263 3.93129 8.87955 3.93031C8.84243 3.91827 8.91399 3.98425 8.9899 4.07679C9.00901 4.10011 8.90029 4.0046 8.89225 3.99769C8.86249 3.97198 8.79864 3.90466 8.79264 3.90004C8.74582 3.86447 8.95871 4.07485 8.95768 4.08851C8.95708 4.08839 8.91805 4.04864 8.91276 4.04457C8.89818 4.03402 8.91197 4.05157 8.89615 4.03968C8.85942 4.01192 8.75244 3.90762 8.80729 3.97621C8.81531 3.98593 8.93912 4.108 8.92643 4.10902C8.92117 4.10975 8.91132 4.12334 8.90006 4.11879C8.88908 4.11434 8.85377 4.07532 8.84928 4.07093C8.78729 4.02727 8.76897 4.00098 8.68619 3.92738C8.60367 3.85403 8.79036 4.03953 8.80924 4.06214C8.82729 4.08399 8.77838 4.04744 8.76139 4.03382C8.74458 4.02032 8.72066 3.9931 8.71061 3.98597C8.64493 3.93972 8.79819 4.08186 8.82486 4.11488C8.8869 4.19197 8.74468 4.06195 8.7233 4.05433C8.71781 4.05257 8.75004 4.08172 8.75162 4.08656C8.75623 4.10437 8.70996 4.06503 8.74186 4.11195C8.74706 4.11961 8.82321 4.20888 8.75846 4.15199C8.74898 4.14358 8.71619 4.10802 8.70572 4.10316C8.69004 4.0959 8.67535 4.09601 8.68229 4.11195C8.68815 4.12423 8.74758 4.1758 8.72623 4.16273C8.71659 4.15679 8.68714 4.12079 8.67154 4.11195C8.65607 4.10345 8.6484 4.11425 8.64615 4.11879C8.64664 4.12511 8.68681 4.16203 8.69108 4.16664C8.70599 4.18486 8.72002 4.21299 8.7194 4.21351C8.69521 4.24694 8.59696 4.20196 8.59244 4.25355C8.59206 4.25747 8.63653 4.29912 8.63932 4.30238C8.65071 4.32893 8.53647 4.20261 8.49088 4.16761C8.58353 4.25873 8.56329 4.24595 8.56803 4.26136C8.57117 4.26934 8.60701 4.3019 8.611 4.30629C8.66107 4.36396 8.58915 4.2977 8.57389 4.28382C8.51901 4.23398 8.57779 4.29796 8.54166 4.26527C8.5051 4.23214 8.45725 4.17648 8.45279 4.18226C8.48426 4.21653 8.57282 4.29767 8.58365 4.31605C8.6215 4.38309 8.52789 4.34394 8.50846 4.34828C8.48979 4.35302 8.49171 4.36288 8.4733 4.35804C8.43944 4.34894 8.50743 4.40807 8.52897 4.44496C8.55044 4.48186 8.39682 4.32133 8.36197 4.28871C8.32767 4.25656 8.36071 4.29159 8.34147 4.27504C8.32159 4.25785 8.30082 4.23194 8.29069 4.22816C8.28249 4.22654 8.33322 4.29387 8.36686 4.32972C8.4391 4.40667 8.52091 4.48067 8.48502 4.46156C8.48139 4.4587 8.44306 4.41793 8.43717 4.41566C8.39077 4.39865 8.37347 4.41148 8.33072 4.39808C8.32418 4.39531 8.28224 4.35045 8.27701 4.3473C8.23542 4.33018 8.31689 4.40306 8.39615 4.49574C8.28371 4.3803 8.21031 4.31394 8.19986 4.32191C8.19385 4.32704 8.24441 4.3759 8.27604 4.41468C8.28556 4.42638 8.24748 4.39641 8.27018 4.42054C8.34463 4.49972 8.43411 4.58193 8.39029 4.55726C8.38641 4.55403 8.34731 4.51243 8.34342 4.51136C8.31888 4.50526 8.39754 4.58635 8.39713 4.60609C8.39582 4.62075 8.33296 4.58646 8.31608 4.58754C8.1878 4.45888 8.20863 4.49657 8.29361 4.58851C8.2843 4.59082 8.28282 4.6026 8.26529 4.59632C8.25916 4.5941 8.22269 4.55518 8.21842 4.5514C8.15175 4.49229 8.23584 4.58093 8.23795 4.58558C8.25679 4.63186 8.18039 4.578 8.23111 4.65492C8.23383 4.65857 8.32098 4.74757 8.2526 4.68617C8.24794 4.68195 8.21268 4.63851 8.20279 4.64027C8.19347 4.64329 8.13383 4.6069 8.16666 4.65687C8.17562 4.67006 8.24061 4.74593 8.18033 4.69398C8.17197 4.68671 8.14749 4.66052 8.13248 4.64711C8.08447 4.60433 8.17282 4.69596 8.09342 4.62269C8.01366 4.54908 7.94962 4.49776 7.99381 4.55922C7.99506 4.56101 8.06355 4.63337 8.06119 4.63636C8.05499 4.63883 8.03401 4.63039 8.02994 4.63539C8.03188 4.64078 8.07098 4.67787 8.07389 4.68129C8.08419 4.72069 8.03444 4.69176 8.00162 4.69007C7.99552 4.6897 8.04727 4.75882 7.99381 4.71644C7.93503 4.66973 7.72418 4.44636 7.76139 4.51136C7.77653 4.53778 8.04605 4.82166 7.89322 4.6891C7.90846 4.74354 7.81736 4.68913 7.8483 4.75941C7.85188 4.76485 7.92366 4.84238 7.92057 4.84339C7.91435 4.84308 7.87817 4.81036 7.87369 4.81019C7.85368 4.80868 7.87569 4.84806 7.86197 4.85218C7.85582 4.85226 7.82167 4.81598 7.8151 4.81703C7.80901 4.81902 7.85496 4.87134 7.82584 4.85316C7.80369 4.83925 7.70011 4.74288 7.68229 4.73597C7.78091 4.83502 7.77529 4.83712 7.79459 4.86976C7.79838 4.87613 7.83399 4.90989 7.83756 4.91468C7.85272 4.9348 7.82253 4.90862 7.83951 4.93031C7.84453 4.93641 7.87732 4.96915 7.88248 4.97523C7.92836 5.02907 7.84511 4.96002 7.83072 4.94789C7.77634 4.9021 7.81801 4.94716 7.79557 4.93129C7.77243 4.91476 7.75189 4.88477 7.736 4.8766C7.70341 4.86 7.69878 4.8759 7.68912 4.88246C7.68914 4.88789 7.73157 4.92706 7.73307 4.92933C7.73777 4.94744 7.68331 4.90631 7.7692 4.99964C7.53275 4.77247 7.78691 5.02565 7.73209 4.98988C7.72757 4.98687 7.61644 4.8771 7.60319 4.85804C7.59021 4.83928 7.62807 4.86946 7.60709 4.84047C7.60215 4.83362 7.50561 4.72489 7.49967 4.71742C7.45683 4.66295 7.6201 4.82578 7.63053 4.83558C7.73067 4.92878 7.62923 4.81352 7.62174 4.80238C7.5947 4.75933 7.62407 4.77513 7.60611 4.74379C7.59479 4.72405 7.49636 4.62357 7.49381 4.61488C7.5168 4.61505 7.66965 4.75956 7.55045 4.61879C7.52445 4.58822 7.40598 4.4733 7.50651 4.55726C7.51286 4.56257 7.60321 4.64157 7.55338 4.58461C7.54715 4.57749 7.51341 4.54383 7.51041 4.53968C7.49573 4.5171 7.52595 4.54136 7.51725 4.52406C7.50846 4.50666 7.49385 4.48218 7.51041 4.4889C7.52054 4.49311 7.58802 4.55275 7.60514 4.56703C7.65411 4.60801 7.58498 4.53036 7.64127 4.58168C7.69866 4.63405 7.77796 4.7227 7.81998 4.7516C7.73108 4.66221 7.63971 4.57016 7.55045 4.48011C7.56794 4.4689 7.61112 4.48365 7.62174 4.46547C7.62295 4.4631 7.57285 4.4165 7.57291 4.41273C7.57364 4.39733 7.61424 4.42392 7.60904 4.40199C7.60432 4.38434 7.56128 4.32671 7.55533 4.30726C7.66151 4.40514 7.63732 4.36093 7.65397 4.36293C7.65997 4.3639 7.68726 4.39106 7.69791 4.39808C7.73662 4.42321 7.64383 4.33701 7.63151 4.32093C7.57905 4.25228 7.78423 4.45564 7.78873 4.44105C7.78884 4.44014 7.68814 4.32771 7.68033 4.318C7.64187 4.2688 7.71781 4.35317 7.73014 4.35902C7.75101 4.36753 7.78111 4.38935 7.75651 4.35023C7.74838 4.33782 7.68771 4.26615 7.74381 4.3141C7.75154 4.32077 7.78621 4.35736 7.78873 4.35902C7.83157 4.38614 7.71904 4.27291 7.68522 4.23011C7.65154 4.18746 7.7363 4.2577 7.76041 4.27894C7.82226 4.33339 7.78225 4.30721 7.78776 4.31312C7.85219 4.38217 7.84716 4.36654 7.85611 4.36781C7.96745 4.47802 7.96646 4.46642 7.86588 4.36976C7.85493 4.35927 7.86195 4.37209 7.85611 4.36781C7.75118 4.25608 7.74322 4.2368 7.85123 4.33168C7.9016 4.37595 7.95422 4.43345 7.94401 4.40492C7.93908 4.39151 7.86047 4.31618 7.84342 4.29164C7.80519 4.23634 7.88668 4.29584 7.88444 4.27601C7.88357 4.26874 7.83862 4.22968 7.83658 4.22328C7.8318 4.20701 7.8682 4.23227 7.85807 4.21058C7.85671 4.20821 7.8119 4.16607 7.81315 4.16371C7.82201 4.14544 7.86134 4.1611 7.87662 4.14808C7.88391 4.14151 7.87241 4.10452 7.88444 4.10218C7.90511 4.09798 7.98396 4.14581 7.97916 4.11976C7.97577 4.10276 7.93063 4.06054 7.90397 4.02797C7.85245 3.96497 7.96571 4.05826 7.98307 4.07289C7.99416 4.08207 8.01542 4.0802 8.01041 4.06996C8.00721 4.06425 7.96635 4.02512 7.96354 4.02113C7.94241 3.96813 7.94851 3.94078 7.98404 3.94398C7.98667 3.94609 8.03085 3.9921 8.03287 3.99281C8.06206 4.00344 8.01189 3.94125 7.986 3.90004C7.96012 3.85874 7.97738 3.86344 8.06119 3.93812C8.05767 3.92303 8.1006 3.94903 8.12662 3.96547C8.15276 3.98199 8.06353 3.8915 8.06217 3.88929C8.01843 3.81921 8.07753 3.86264 8.09928 3.85707C8.10972 3.85454 8.10987 3.82906 8.10709 3.81214C8.10472 3.79863 8.12915 3.81614 8.12076 3.7975C8.11939 3.79477 8.07935 3.75552 8.07779 3.75355C8.03564 3.69998 8.12988 3.80012 8.14908 3.81703C8.21712 3.87649 8.25377 3.90806 8.23111 3.87074C8.2253 3.86154 8.09097 3.71722 8.08463 3.70472C8.07818 3.69029 8.12632 3.74197 8.11881 3.72621C8.11818 3.72488 8.08822 3.69457 8.09049 3.69203C8.1085 3.68599 8.1407 3.69105 8.15006 3.67543C8.15014 3.67239 8.1011 3.62795 8.10026 3.62269C8.10594 3.60527 8.12059 3.59426 8.15494 3.60609C8.16354 3.60917 8.1966 3.64499 8.20768 3.65492C8.27295 3.71288 8.18996 3.62056 8.18717 3.61586C8.16427 3.55167 8.26279 3.61734 8.24479 3.55726C8.24343 3.55358 8.15538 3.44839 8.24186 3.52699C8.24767 3.53226 8.33673 3.61409 8.2819 3.55238C8.27758 3.54777 8.23437 3.50868 8.24088 3.50746C8.24957 3.50769 8.22787 3.47092 8.2819 3.51332C8.29901 3.52675 8.38757 3.60749 8.32584 3.5348C8.32147 3.52972 8.17651 3.36809 8.28483 3.47035C8.30271 3.48725 8.4145 3.59943 8.36393 3.53578C8.35407 3.52342 8.32643 3.50093 8.31412 3.48207C8.29516 3.45299 8.33236 3.47562 8.28873 3.41957C8.2807 3.40934 8.20949 3.33012 8.27018 3.38343C8.27978 3.39188 8.31678 3.43004 8.32291 3.43226C8.35206 3.44286 8.33662 3.40914 8.37174 3.42543C8.38413 3.43115 8.44271 3.49254 8.46256 3.5055C8.48219 3.51818 8.50489 3.52681 8.48111 3.49574C8.45731 3.46469 8.35861 3.37311 8.35514 3.35902C8.34546 3.30191 8.42463 3.33427 8.4567 3.31898C8.46143 3.31671 8.42517 3.28593 8.42936 3.27992C8.44589 3.25826 8.44631 3.19237 8.5358 3.24867C8.6077 3.29399 8.63559 3.35607 8.66959 3.36976C8.6856 3.3761 8.58173 3.26198 8.57682 3.25453C8.55259 3.20719 8.60994 3.24791 8.60514 3.2223C8.60198 3.21544 8.55827 3.17573 8.55631 3.17054C8.55469 3.15644 8.58237 3.16947 8.58463 3.1598C8.58466 3.15469 8.55026 3.12151 8.55533 3.12172C8.56722 3.12191 8.58679 3.13137 8.62467 3.15785C8.62815 3.16028 8.66851 3.2065 8.67447 3.20375C8.68482 3.20011 8.72439 3.22179 8.69986 3.18129C8.69233 3.16894 8.61292 3.09003 8.67252 3.13929C8.68503 3.14963 8.77889 3.24601 8.70279 3.15785C8.68993 3.14291 8.58991 3.02268 8.66569 3.08851C8.68579 3.10599 8.76681 3.18078 8.75748 3.16566C8.75466 3.16219 8.71263 3.12253 8.71061 3.11586C8.70519 3.09352 8.71816 3.08904 8.71354 3.06703C8.71135 3.0605 8.66592 3.02113 8.66471 3.01332C8.6631 2.99273 8.68563 2.99228 8.70865 2.99672C8.71717 2.99843 8.75085 3.03639 8.75553 3.04066C8.82331 3.10051 8.74141 3.0136 8.736 3.0055C8.71399 2.96701 8.76016 3.00089 8.75748 2.98304C8.75671 2.97806 8.71389 2.93736 8.71061 2.93324C8.67927 2.89329 8.75044 2.97075 8.76139 2.97621C8.79225 2.99166 8.79698 2.97953 8.79947 2.96644C8.79752 2.95973 8.75225 2.91953 8.75065 2.91371C8.75755 2.89027 8.77787 2.87876 8.81901 2.89027C8.82688 2.89256 8.86265 2.93116 8.87174 2.9391C8.93402 2.99347 8.86243 2.91027 8.85416 2.89906C8.82552 2.85824 8.8589 2.88706 8.85904 2.8766C8.85517 2.81976 8.90944 2.80814 8.94791 2.79652C8.99781 2.78111 9.05865 2.79079 9.08072 2.75062C9.08217 2.7481 9.03128 2.70069 9.0319 2.69789C9.04206 2.66417 9.08241 2.66151 9.09049 2.62562C9.09122 2.62273 9.04206 2.57813 9.04166 2.57191C9.04054 2.55886 9.05099 2.55424 9.07194 2.56312C9.08267 2.56845 9.11835 2.61147 9.1276 2.61488C9.14918 2.62278 9.16016 2.61851 9.15983 2.60414C9.15956 2.59801 9.10968 2.55682 9.11002 2.55043C9.13197 2.51899 9.15008 2.48428 9.23893 2.51918C9.24501 2.52157 9.34374 2.61618 9.32975 2.59437C9.30307 2.5671 9.27056 2.53544 9.24186 2.50648C9.26514 2.45221 9.33729 2.44726 9.38151 2.41371C9.38336 2.41227 9.32935 2.36304 9.33268 2.36C9.35169 2.34231 9.35567 2.31116 9.42545 2.34339C9.43345 2.34777 9.52148 2.43766 9.51334 2.41859C9.51181 2.41507 9.50837 2.39447 9.49088 2.37269C9.48762 2.36891 9.44465 2.3288 9.44596 2.32484C9.45505 2.30293 9.48094 2.29605 9.52213 2.30629ZM7.68033 4.78187C7.6479 4.75367 7.67623 4.79461 7.71647 4.82972C7.74899 4.858 7.72075 4.81705 7.68033 4.78187ZM7.64908 4.51039C7.59165 4.46112 7.70663 4.58312 7.73014 4.60316C7.80592 4.6673 7.70722 4.56031 7.64908 4.51039ZM8.43717 4.22718C8.43923 4.22908 8.44414 4.22818 8.44303 4.22621C8.39465 4.17396 8.38344 4.17645 8.43717 4.22718ZM8.64518 3.97621C8.6476 3.97849 8.65252 3.97861 8.63932 3.96547C8.59625 3.92275 8.60461 3.9379 8.64518 3.97621ZM8.90787 3.91957C8.82985 3.83289 8.80401 3.84162 8.8942 3.92445C8.89898 3.9285 8.91168 3.92391 8.90787 3.91957ZM9.83854 2.5641C9.8407 2.56614 9.8464 2.56432 9.8444 2.56214C9.79623 2.51022 9.78494 2.51352 9.83854 2.5641Z" fill="#555961"/>
<path d="M10.9512 8.26759C10.9753 8.26176 11.1691 8.43819 11.1318 8.4336C11.1242 8.43128 11.0789 8.36732 11.0586 8.3545C11.022 8.33165 11.1329 8.45183 11.0635 8.3965C11.0489 8.38403 10.9497 8.26783 10.9512 8.26759ZM12.8555 5.63966C12.8622 5.64141 12.905 5.68978 12.9102 5.69142C12.9463 5.70236 12.9267 5.6539 12.9795 5.68263C13.0151 5.7022 13.0893 5.78336 13.1699 5.85548C13.1813 5.86568 13.1886 5.86292 13.2334 5.90724C13.3461 6.01858 13.4666 6.14335 13.5869 6.26173C13.6129 6.28725 13.5922 6.25319 13.6504 6.31935C13.6546 6.32435 13.67 6.34924 13.6895 6.3711C13.7032 6.38652 13.7506 6.43081 13.7676 6.45118C13.784 6.47099 13.7446 6.43532 13.7637 6.45997C13.783 6.48482 13.8346 6.53464 13.8359 6.54689C13.8367 6.57378 13.8048 6.5766 13.7715 6.56935C13.7611 6.56706 13.735 6.53698 13.7266 6.53419C13.7103 6.52888 13.7186 6.54761 13.7002 6.54005C13.6934 6.53664 13.652 6.49003 13.6465 6.48829C13.6165 6.47902 13.6176 6.50092 13.5977 6.50196C13.4994 6.50706 13.432 6.54119 13.3594 6.57325C13.3355 6.58387 13.2737 6.56417 13.2734 6.59962C13.2735 6.60377 13.313 6.64137 13.3164 6.64552C13.3595 6.70105 13.2831 6.61972 13.2686 6.61329C13.2113 6.58811 13.19 6.60242 13.1895 6.63282C13.1894 6.64595 13.2729 6.71761 13.2227 6.68068C13.2187 6.67759 13.1803 6.63485 13.1738 6.63185C13.1598 6.62599 13.1588 6.64172 13.1523 6.64161C13.1401 6.64123 13.139 6.64221 13.1328 6.64747C13.1236 6.65403 13.0939 6.64344 13.0947 6.66114C13.095 6.66509 13.1402 6.7057 13.1445 6.71583C13.1485 6.72573 13.1375 6.72906 13.125 6.72169C13.1122 6.71385 13.0804 6.68011 13.0723 6.67286C13.0038 6.61192 13.0849 6.71052 13.0859 6.71388C13.1026 6.77195 13.0343 6.73959 13.0147 6.7588C13.0001 6.77382 13.0007 6.80656 12.9844 6.81837C12.9647 6.83224 12.9274 6.82348 12.915 6.84376C12.9158 6.84763 12.9654 6.8939 12.9639 6.8965C12.9474 6.92449 12.9199 6.94105 12.8643 6.9297C12.8586 6.9285 12.8169 6.88177 12.8086 6.87794C12.7588 6.85541 12.6514 6.79046 12.834 6.98927C12.8173 6.99104 12.7985 6.99485 12.752 6.96485C12.7219 6.94542 12.6788 6.89246 12.6924 6.91896C12.6954 6.92493 12.7391 6.9643 12.7412 6.97071C12.7472 6.99538 12.7229 6.99257 12.7354 7.02345C12.7387 7.03039 12.7761 7.06701 12.7822 7.07423C12.8323 7.1332 12.7348 7.04988 12.7266 7.04493C12.6656 7.00849 12.6754 7.03643 12.6631 7.04689C12.6601 7.04926 12.713 7.0965 12.7119 7.1006C12.7058 7.12113 12.6878 7.13043 12.6523 7.1211C12.6436 7.11772 12.6053 7.07442 12.5986 7.07032C12.5726 7.05653 12.6523 7.13861 12.6289 7.12696C12.6242 7.12467 12.5897 7.08937 12.584 7.084C12.5185 7.02538 12.6 7.1127 12.6045 7.11915C12.62 7.15753 12.5204 7.07263 12.5215 7.09571C12.5218 7.09872 12.5712 7.14283 12.5693 7.14845C12.5573 7.18607 12.5178 7.19914 12.4561 7.18653C12.4464 7.184 12.4156 7.14874 12.4102 7.14357C12.3398 7.08099 12.4244 7.16993 12.4287 7.17677C12.4433 7.21104 12.3586 7.145 12.459 7.2588C12.3802 7.26322 12.3989 7.36518 12.2617 7.31056C12.2601 7.30997 12.216 7.26467 12.2129 7.26368C12.1758 7.25165 12.2473 7.31763 12.3232 7.41017C12.3424 7.43348 12.2336 7.33797 12.2256 7.33107C12.1958 7.30536 12.132 7.23803 12.126 7.23341C12.0792 7.19785 12.2921 7.40822 12.291 7.42189C12.2904 7.42176 12.2514 7.38202 12.2461 7.37794C12.2315 7.36739 12.2453 7.38494 12.2295 7.37306C12.1928 7.34529 12.0858 7.241 12.1406 7.30958C12.1487 7.31931 12.2725 7.44137 12.2598 7.44239C12.2545 7.44313 12.2447 7.45671 12.2334 7.45216C12.2224 7.44772 12.1871 7.4087 12.1826 7.40431C12.1206 7.36064 12.1023 7.33435 12.0195 7.26075C11.937 7.18741 12.1237 7.3729 12.1426 7.39552C12.1606 7.41737 12.1117 7.38082 12.0947 7.3672C12.0779 7.35369 12.054 7.32647 12.044 7.31935C11.9783 7.27309 12.1315 7.41524 12.1582 7.44825C12.2202 7.52534 12.078 7.39532 12.0566 7.38771C12.0512 7.38594 12.0834 7.4151 12.085 7.41993C12.0896 7.43775 12.0433 7.3984 12.0752 7.44532C12.0804 7.45298 12.1566 7.54226 12.0918 7.48536C12.0823 7.47696 12.0495 7.4414 12.0391 7.43653C12.0234 7.42928 12.0087 7.42939 12.0156 7.44532C12.0215 7.45761 12.0809 7.50917 12.0596 7.4961C12.0499 7.49017 12.0205 7.45417 12.0049 7.44532C11.9894 7.43683 11.9817 7.44762 11.9795 7.45216C11.98 7.45848 12.0202 7.49541 12.0244 7.50001C12.0393 7.51824 12.0534 7.54636 12.0527 7.54689C12.0286 7.58031 11.9303 7.53533 11.9258 7.58693C11.9254 7.59085 11.9699 7.6325 11.9727 7.63575C11.9841 7.6623 11.8698 7.53599 11.8242 7.50099C11.9169 7.59211 11.8966 7.57932 11.9014 7.59474C11.9045 7.60272 11.9404 7.63528 11.9443 7.63966C11.9944 7.69734 11.9225 7.63107 11.9072 7.6172C11.8523 7.56735 11.9111 7.63133 11.875 7.59864C11.8384 7.56552 11.7906 7.50985 11.7861 7.51564C11.8176 7.54991 11.9062 7.63104 11.917 7.64943C11.9548 7.71646 11.8612 7.67731 11.8418 7.68165C11.8231 7.6864 11.8251 7.69625 11.8066 7.69142C11.7728 7.68232 11.8408 7.74144 11.8623 7.77833C11.8838 7.81523 11.7302 7.6547 11.6953 7.62208C11.661 7.58994 11.6941 7.62497 11.6748 7.60841C11.6549 7.59123 11.6342 7.56532 11.624 7.56153C11.6158 7.55991 11.6666 7.62724 11.7002 7.6631C11.7724 7.74004 11.8543 7.81405 11.8184 7.79493C11.8147 7.79208 11.7764 7.7513 11.7705 7.74903C11.7241 7.73202 11.7068 7.74486 11.6641 7.73146C11.6575 7.72869 11.6156 7.68382 11.6104 7.68068C11.5688 7.66356 11.6502 7.73643 11.7295 7.82911C11.6171 7.71367 11.5436 7.64732 11.5332 7.65528C11.5272 7.66041 11.5778 7.70927 11.6094 7.74806C11.6189 7.75975 11.5808 7.72978 11.6035 7.75392C11.678 7.83309 11.7675 7.9153 11.7236 7.89064C11.7198 7.8874 11.6807 7.8458 11.6768 7.84474C11.6522 7.83864 11.7309 7.91972 11.7305 7.93946C11.7292 7.95412 11.6663 7.91983 11.6494 7.92091C11.5211 7.79226 11.542 7.82995 11.627 7.92189C11.6176 7.9242 11.6162 7.93598 11.5986 7.9297C11.5925 7.92747 11.556 7.88855 11.5518 7.88478C11.4851 7.82566 11.5692 7.91431 11.5713 7.91896C11.5901 7.96524 11.5137 7.91137 11.5645 7.98829C11.5672 7.99194 11.6543 8.08095 11.5859 8.01954C11.5813 8.01533 11.546 7.97189 11.5361 7.97364C11.5268 7.97666 11.4672 7.94027 11.5 7.99025C11.509 8.00343 11.574 8.0793 11.5137 8.02735C11.5053 8.02008 11.4808 7.99389 11.4658 7.98048C11.4178 7.9377 11.5062 8.02933 11.4268 7.95607C11.347 7.88245 11.283 7.83113 11.3272 7.89259C11.3284 7.89438 11.3969 7.96674 11.3945 7.96974C11.3883 7.97221 11.3673 7.96377 11.3633 7.96876C11.3652 7.97416 11.4043 8.01124 11.4072 8.01466C11.4175 8.05407 11.3678 8.02514 11.335 8.02345C11.3289 8.02307 11.3806 8.09219 11.3272 8.04982C11.2684 8.00311 11.0575 7.77973 11.0947 7.84474C11.1099 7.87115 11.3794 8.15504 11.2266 8.02247C11.2418 8.07692 11.1507 8.02251 11.1816 8.09278C11.1852 8.09823 11.257 8.17575 11.2539 8.17677C11.2477 8.17646 11.2115 8.14373 11.207 8.14357C11.187 8.14205 11.209 8.18144 11.1953 8.18556C11.1892 8.18563 11.155 8.14936 11.1484 8.1504C11.1424 8.15239 11.1883 8.20472 11.1592 8.18653C11.137 8.17263 11.0335 8.07626 11.0156 8.06935C11.1143 8.16839 11.1086 8.1705 11.1279 8.20314C11.1317 8.2095 11.1673 8.24327 11.1709 8.24806C11.1861 8.26817 11.1559 8.242 11.1729 8.26368C11.1779 8.26979 11.2107 8.30253 11.2158 8.3086C11.2617 8.36244 11.1785 8.29339 11.1641 8.28126C11.1097 8.23547 11.1514 8.28053 11.1289 8.26466C11.1058 8.24814 11.0852 8.21814 11.0693 8.20997C11.0368 8.19338 11.0321 8.20928 11.0225 8.21583C11.0225 8.22127 11.0649 8.26044 11.0664 8.26271C11.0711 8.28081 11.0167 8.23968 11.1025 8.33302C10.8661 8.10585 11.1203 8.35902 11.0654 8.32325C11.0609 8.32024 10.9498 8.21048 10.9365 8.19142C10.9236 8.17265 10.9614 8.20284 10.9404 8.17384C10.9355 8.16699 10.839 8.05827 10.833 8.05079C10.7902 7.99633 10.9534 8.15915 10.9639 8.16896C11.064 8.26216 10.9626 8.14689 10.9551 8.13575C10.928 8.0927 10.9574 8.1085 10.9395 8.07716C10.9281 8.05742 10.8297 7.95694 10.8272 7.94825C10.8501 7.94842 11.003 8.09293 10.8838 7.95216C10.8578 7.9216 10.7393 7.80667 10.8398 7.89064C10.8462 7.89595 10.9366 7.97494 10.8867 7.91798C10.8805 7.91086 10.8468 7.8772 10.8438 7.87306C10.8291 7.85048 10.8593 7.87474 10.8506 7.85743C10.8418 7.84003 10.8272 7.81556 10.8438 7.82228C10.8539 7.82649 10.9214 7.88612 10.9385 7.9004C10.9875 7.94138 10.9183 7.86373 10.9746 7.91505C11.032 7.96743 11.1113 8.05608 11.1533 8.08497C11.0644 7.99558 10.9731 7.90353 10.8838 7.81349C10.9013 7.80227 10.9445 7.81702 10.9551 7.79884C10.9563 7.79647 10.9062 7.74988 10.9063 7.7461C10.907 7.7307 10.9476 7.7573 10.9424 7.73536C10.9377 7.71772 10.8946 7.66008 10.8887 7.64064C10.9949 7.73851 10.9707 7.6943 10.9873 7.6963C10.9933 7.69727 11.0206 7.72443 11.0313 7.73146C11.07 7.75658 10.9772 7.67039 10.9648 7.65431C10.9124 7.58566 11.1176 7.78901 11.1221 7.77443C11.1222 7.77351 11.0215 7.66108 11.0137 7.65138C10.9752 7.60218 11.0512 7.68655 11.0635 7.69239C11.0844 7.7009 11.1145 7.72272 11.0898 7.6836C11.0817 7.67119 11.0211 7.59952 11.0772 7.64747C11.0849 7.65415 11.1196 7.69073 11.1221 7.69239C11.1649 7.71951 11.0524 7.60629 11.0186 7.56349C10.9849 7.52083 11.0696 7.59107 11.0938 7.61232C11.1556 7.66676 11.1156 7.64059 11.1211 7.6465C11.1855 7.71555 11.1805 7.69992 11.1895 7.70118C11.3008 7.8114 11.2998 7.7998 11.1992 7.70314C11.1883 7.69265 11.1953 7.70546 11.1895 7.70118C11.0845 7.58945 11.0766 7.57017 11.1846 7.66505C11.2349 7.70932 11.2876 7.76682 11.2773 7.73829C11.2724 7.72488 11.1938 7.64955 11.1768 7.62501C11.1385 7.56971 11.22 7.62921 11.2178 7.60939C11.2169 7.60212 11.172 7.56306 11.1699 7.55665C11.1651 7.54038 11.2015 7.56565 11.1914 7.54396C11.1901 7.54158 11.1452 7.49944 11.1465 7.49708C11.1554 7.47881 11.1947 7.49447 11.21 7.48146C11.2173 7.47488 11.2058 7.43789 11.2178 7.43556C11.2385 7.43135 11.3173 7.47918 11.3125 7.45314C11.3091 7.43614 11.264 7.39392 11.2373 7.36134C11.1858 7.29835 11.2991 7.39163 11.3164 7.40626C11.3275 7.41545 11.3488 7.41357 11.3438 7.40333C11.3406 7.39762 11.2997 7.3585 11.2969 7.3545C11.2758 7.3015 11.2819 7.27416 11.3174 7.27735C11.32 7.27947 11.3642 7.32548 11.3662 7.32618C11.3954 7.33682 11.3452 7.27463 11.3193 7.23341C11.2935 7.19211 11.3107 7.19681 11.3945 7.2715C11.391 7.2564 11.4339 7.2824 11.46 7.29884C11.4861 7.31537 11.3969 7.22487 11.3955 7.22267C11.3518 7.15258 11.4109 7.19602 11.4326 7.19044C11.4431 7.18792 11.4432 7.16243 11.4404 7.14552C11.4381 7.13201 11.4625 7.14951 11.4541 7.13087C11.4527 7.12814 11.4127 7.08889 11.4111 7.08693C11.369 7.03336 11.4632 7.1335 11.4824 7.1504C11.5505 7.20987 11.5871 7.24144 11.5645 7.20411C11.5586 7.19491 11.4243 7.0506 11.418 7.0381C11.4115 7.02367 11.4597 7.07534 11.4522 7.05958C11.4515 7.05825 11.4216 7.02795 11.4238 7.0254C11.4418 7.01936 11.474 7.02443 11.4834 7.0088C11.4835 7.00577 11.4344 6.96133 11.4336 6.95607C11.4393 6.93865 11.4539 6.92763 11.4883 6.93946C11.4969 6.94254 11.5299 6.97836 11.541 6.98829C11.6063 7.04626 11.5233 6.95394 11.5205 6.94923C11.4976 6.88505 11.5961 6.95072 11.5781 6.89064C11.5768 6.88695 11.4887 6.78176 11.5752 6.86036C11.581 6.86564 11.6701 6.94747 11.6152 6.88575C11.6109 6.88114 11.5677 6.84206 11.5742 6.84083C11.5829 6.84106 11.5612 6.8043 11.6152 6.84669C11.6324 6.86012 11.7209 6.94086 11.6592 6.86818C11.6548 6.86309 11.5099 6.70147 11.6182 6.80372C11.6361 6.82062 11.7478 6.93281 11.6973 6.86915C11.6874 6.8568 11.6598 6.83431 11.6475 6.81544C11.6285 6.78637 11.6657 6.809 11.6221 6.75294C11.614 6.74271 11.5428 6.6635 11.6035 6.71681C11.6131 6.72526 11.6501 6.76341 11.6563 6.76564C11.6854 6.77624 11.67 6.74251 11.7051 6.7588C11.7175 6.76452 11.7761 6.82592 11.7959 6.83888C11.8155 6.85155 11.8382 6.86019 11.8145 6.82911C11.7907 6.79806 11.692 6.70648 11.6885 6.69239C11.6788 6.63528 11.758 6.66765 11.79 6.65235C11.7948 6.65008 11.7585 6.61931 11.7627 6.61329C11.7792 6.59164 11.7796 6.52575 11.8691 6.58204C11.941 6.62736 11.9689 6.68944 12.0029 6.70314C12.0189 6.70947 11.9151 6.59536 11.9102 6.5879C11.8859 6.54056 11.9433 6.58128 11.9385 6.55568C11.9353 6.54881 11.8916 6.50911 11.8897 6.50392C11.888 6.48981 11.9157 6.50284 11.918 6.49318C11.918 6.48807 11.8836 6.45488 11.8887 6.45509C11.9006 6.45528 11.9201 6.46475 11.958 6.49122C11.9615 6.49366 12.0019 6.53988 12.0078 6.53712C12.0182 6.53348 12.0577 6.55516 12.0332 6.51466C12.0257 6.50231 11.9463 6.4234 12.0059 6.47267C12.0184 6.483 12.1122 6.57938 12.0361 6.49122C12.0233 6.47628 11.9232 6.35605 11.999 6.42189C12.0191 6.43937 12.1002 6.51416 12.0908 6.49903C12.088 6.49556 12.046 6.4559 12.044 6.44923C12.0385 6.42689 12.0515 6.42241 12.0469 6.4004C12.0447 6.39387 11.9993 6.35451 11.9981 6.34669C11.9964 6.3261 12.019 6.32565 12.042 6.33009C12.0505 6.33181 12.0842 6.36976 12.0889 6.37403C12.1567 6.43388 12.0748 6.34697 12.0693 6.33888C12.0473 6.30038 12.0935 6.33426 12.0908 6.31642C12.0901 6.31143 12.0472 6.27073 12.044 6.26661C12.0126 6.22666 12.0838 6.30413 12.0947 6.30958C12.1256 6.32503 12.1303 6.3129 12.1328 6.29982C12.1309 6.29311 12.0856 6.2529 12.084 6.24708C12.0909 6.22364 12.1112 6.21214 12.1523 6.22364C12.1602 6.22593 12.196 6.26454 12.2051 6.27247C12.2674 6.32685 12.1958 6.24365 12.1875 6.23243C12.1589 6.19161 12.1922 6.22044 12.1924 6.20997C12.1885 6.15314 12.2428 6.14152 12.2813 6.12989C12.3311 6.11449 12.392 6.12416 12.4141 6.084C12.4155 6.08148 12.3646 6.03406 12.3652 6.03126C12.3754 5.99754 12.4158 5.99489 12.4238 5.959C12.4246 5.9561 12.3754 5.9115 12.375 5.90528C12.3739 5.89223 12.3843 5.88761 12.4053 5.8965C12.416 5.90182 12.4517 5.94485 12.4609 5.94825C12.4825 5.95616 12.4935 5.95189 12.4932 5.93751C12.4929 5.93138 12.443 5.89019 12.4434 5.8838C12.4653 5.85236 12.4834 5.81765 12.5723 5.85255C12.5784 5.85495 12.6771 5.94955 12.6631 5.92775C12.6364 5.90048 12.6039 5.86881 12.5752 5.83985C12.5985 5.78558 12.6706 5.78064 12.7148 5.74708C12.7167 5.74565 12.6627 5.69641 12.666 5.69337C12.685 5.67568 12.689 5.64453 12.7588 5.67677C12.7668 5.68114 12.8548 5.77103 12.8467 5.75196C12.8452 5.74844 12.8417 5.72784 12.8242 5.70607C12.821 5.70228 12.778 5.66218 12.7793 5.65821C12.7884 5.6363 12.8143 5.62942 12.8555 5.63966ZM11.0137 8.11525C10.9812 8.08704 11.0096 8.12799 11.0498 8.1631C11.0823 8.19137 11.0541 8.15042 11.0137 8.11525ZM10.9824 7.84376C10.925 7.79449 11.04 7.91649 11.0635 7.93653C11.1393 8.00068 11.0406 7.89369 10.9824 7.84376ZM11.7705 7.56056C11.7726 7.56245 11.7775 7.56155 11.7764 7.55958C11.728 7.50734 11.7168 7.50982 11.7705 7.56056ZM11.9785 7.30958C11.9809 7.31187 11.9859 7.31198 11.9727 7.29884C11.9296 7.25612 11.9379 7.27127 11.9785 7.30958ZM12.2412 7.25294C12.1632 7.16627 12.1374 7.17499 12.2275 7.25782C12.2323 7.26188 12.245 7.25728 12.2412 7.25294ZM13.1719 5.89747C13.174 5.89952 13.1797 5.89769 13.1777 5.89552C13.1296 5.8436 13.1183 5.8469 13.1719 5.89747Z" fill="#555961"/>
</svg>
