<svg width="16" height="16" viewBox="0 0 16 16" fill="none" xmlns="http://www.w3.org/2000/svg">
<path d="M3.29916 11.2527C3.35059 11.2182 3.5632 11.3782 3.49545 11.404C3.48321 11.4086 3.45453 11.3264 3.42709 11.32C3.37693 11.3093 3.47964 11.4389 3.39779 11.3972C3.38307 11.3896 3.30025 11.2607 3.29916 11.2527ZM3.9222 4.20481C3.97328 4.22841 4.00685 4.29288 4.02377 4.35031C4.02891 4.36824 3.99496 4.3904 3.9974 4.40402C4.00223 4.43054 4.03079 4.43147 4.03353 4.45969C4.03423 4.46914 3.98562 4.5065 3.98568 4.51633C3.99564 4.56564 4.03446 4.58329 4.05502 4.62277C4.15615 4.81719 4.28508 4.97928 4.41439 5.14914C4.45698 5.20519 4.47669 5.30534 4.54525 5.33859C4.55337 5.34231 4.58876 5.29967 4.5931 5.29758C4.65998 5.26612 4.57586 5.33876 4.5765 5.36106C4.58112 5.44842 4.6285 5.50372 4.68783 5.53293C4.71316 5.54522 4.77165 5.44863 4.7474 5.51047C4.74579 5.51469 4.70068 5.55124 4.70052 5.56125C4.70227 5.58278 4.73156 5.59776 4.73763 5.61008C4.74859 5.63413 4.75183 5.637 4.76791 5.65402C4.7895 5.67763 4.79587 5.72502 4.82943 5.73996C4.83674 5.74301 4.8725 5.6941 4.88802 5.69504C4.90353 5.69608 4.92193 5.72158 4.91927 5.73899C4.9162 5.75645 4.87969 5.78671 4.87338 5.79563C4.82067 5.86959 4.93166 5.80794 4.93978 5.80734C5.03693 5.82898 5.03721 5.93143 5.0931 5.98703C5.13557 6.02895 5.19777 6.05695 5.23568 6.09934C5.28069 6.15018 5.29851 6.21392 5.34896 6.25656C5.35425 6.26111 5.39807 6.20619 5.40463 6.21164C5.47421 6.26959 5.53205 6.33809 5.56185 6.43527C5.56476 6.44497 5.5139 6.48009 5.51302 6.49289C5.51591 6.56797 5.49108 6.71657 5.70541 6.54856C5.72433 6.58239 5.74855 6.62224 5.73373 6.6843C5.72418 6.72421 5.6622 6.75706 5.70052 6.75559C5.70929 6.75526 5.74621 6.70799 5.75619 6.71066C5.79816 6.72198 5.81366 6.76455 5.86166 6.76926C5.87147 6.76999 5.90655 6.73225 5.91537 6.72629C5.98289 6.6843 5.91438 6.79613 5.91244 6.80734C5.89868 6.89166 5.94327 6.89828 5.97494 6.93234C5.98231 6.94007 6.02348 6.88117 6.03256 6.88645C6.07776 6.91722 6.11331 6.96077 6.12826 7.02024C6.13142 7.03351 6.08194 7.06887 6.08041 7.07785C6.07797 7.11508 6.16154 7.03875 6.16146 7.07199C6.1614 7.07908 6.1232 7.11391 6.11947 7.11887C6.06645 7.19195 6.16368 7.11233 6.16927 7.11203C6.22918 7.11774 6.15654 7.23228 6.2015 7.2507C6.20695 7.2528 6.24446 7.19856 6.25717 7.20676C6.34102 7.26492 6.40379 7.35316 6.43685 7.46066C6.44121 7.47735 6.39943 7.50454 6.39584 7.50949C6.34014 7.58749 6.43598 7.50516 6.44369 7.50461C6.49625 7.50826 6.44708 7.61049 6.57357 7.52219C6.6392 7.64754 6.76719 7.71017 6.8265 7.84055C6.92988 7.91569 6.90158 8.05638 6.8265 8.15988C6.79447 8.17445 6.75836 8.18486 6.71615 8.18918C6.71353 8.18957 6.67137 8.14232 6.66635 8.14328C6.60546 8.15443 6.68194 8.21664 6.74252 8.32492C6.75746 8.35188 6.63805 8.26877 6.62826 8.26242C6.59482 8.24077 6.53401 8.1691 6.5267 8.16574C6.46981 8.1412 6.68833 8.35423 6.6683 8.37766C6.66541 8.37573 6.63053 8.33551 6.62435 8.33274C6.60605 8.32592 6.61551 8.3478 6.59603 8.33957C6.55082 8.3199 6.44072 8.21931 6.48275 8.30051C6.48832 8.31103 6.61559 8.43058 6.59115 8.44504C6.58096 8.4504 6.54847 8.48671 6.5306 8.48899C6.51332 8.49063 6.48079 8.44635 6.47689 8.44309C6.39787 8.41643 6.38563 8.38418 6.29427 8.31906C6.20354 8.25451 6.39314 8.43654 6.40853 8.46262C6.42381 8.48858 6.3612 8.46431 6.34115 8.45383C6.32127 8.44338 6.30119 8.41232 6.28842 8.40793C6.2051 8.38 6.36868 8.51286 6.389 8.55149C6.43675 8.64236 6.28259 8.52179 6.24935 8.52805C6.24081 8.52996 6.27637 8.55644 6.27474 8.56418C6.26709 8.59426 6.21185 8.56285 6.22982 8.62375C6.23318 8.6343 6.29828 8.73331 6.22689 8.6843C6.21663 8.67719 6.18708 8.63881 6.17123 8.6384C6.14767 8.63886 6.11797 8.65307 6.11654 8.67746C6.11583 8.69557 6.18306 8.7406 6.15365 8.73508C6.14047 8.73256 6.11706 8.69017 6.09506 8.6882C6.07319 8.68622 6.049 8.71245 6.04037 8.72336C6.03186 8.73421 6.08025 8.77242 6.08236 8.77609C6.09357 8.79641 6.09631 8.83282 6.09506 8.83762C6.01751 8.92565 5.8685 8.93032 5.81185 9.03488C5.80819 9.04346 5.85699 9.08397 5.85677 9.08566C5.85391 9.12593 5.75004 8.98874 5.69467 8.96359C5.78874 9.05329 5.76332 9.04568 5.75814 9.07102C5.75622 9.08318 5.79386 9.1136 5.79818 9.11887C5.8413 9.18379 5.76465 9.12146 5.74838 9.1091C5.6887 9.06385 5.74223 9.13415 5.70248 9.10422C5.66292 9.07443 5.62289 9.01165 5.60873 9.02609C5.63755 9.0631 5.73384 9.13876 5.73666 9.16379C5.74701 9.25804 5.60152 9.26897 5.56088 9.29563C5.52075 9.32201 5.51576 9.33868 5.4847 9.34641C5.42783 9.36031 5.50383 9.41146 5.51107 9.46262C5.51822 9.51385 5.37219 9.34572 5.33529 9.31516C5.29914 9.28519 5.32992 9.32261 5.30795 9.30832C5.28556 9.29365 5.27026 9.26226 5.25424 9.26438C5.23893 9.26749 5.27414 9.3521 5.30599 9.39035C5.37389 9.47174 5.46297 9.53842 5.41146 9.53488C5.4065 9.53187 5.37203 9.48941 5.36263 9.48996C5.28889 9.5002 5.24319 9.5425 5.17318 9.55637C5.16352 9.5582 5.12291 9.50732 5.11654 9.50754C5.05222 9.51315 5.14251 9.57818 5.20931 9.68332C5.09921 9.56461 5.01778 9.50512 4.99056 9.53098C4.97494 9.54672 5.02731 9.59407 5.05209 9.63938C5.05914 9.6527 5.0146 9.62994 5.03549 9.655C5.10544 9.73842 5.2019 9.81393 5.14095 9.80734C5.13816 9.80692 5.10043 9.76191 5.0931 9.76242C5.04966 9.77256 5.12683 9.85648 5.10775 9.89524C5.09271 9.9255 5.00312 9.91659 4.96908 9.9343C4.84119 9.80537 4.84639 9.85918 4.92513 9.95774C4.90472 9.97089 4.89112 9.99478 4.86263 9.99875C4.85292 9.9999 4.82028 9.96015 4.81478 9.95578C4.74131 9.90377 4.81896 9.99563 4.81967 10.0036C4.81328 10.0758 4.71608 10.0429 4.74252 10.1443C4.74762 10.152 4.82791 10.2376 4.75521 10.1843C4.75007 10.1804 4.7213 10.1268 4.70052 10.1413C4.67959 10.1556 4.59914 10.1415 4.61556 10.2068C4.6196 10.2226 4.6771 10.3107 4.60873 10.2663C4.59943 10.2602 4.5755 10.2324 4.55892 10.2204C4.50615 10.1826 4.59246 10.2765 4.50717 10.2087C4.42173 10.1408 4.34534 10.1021 4.37338 10.1794C4.37413 10.1817 4.43989 10.2597 4.43099 10.2663C4.41653 10.2766 4.38478 10.2795 4.3724 10.2927C4.36645 10.2991 4.41465 10.3396 4.41439 10.3415C4.39759 10.4078 4.32862 10.3983 4.26693 10.4255C4.25553 10.4304 4.29218 10.5138 4.22885 10.4821C4.159 10.4471 3.95804 10.2115 3.97006 10.3034C3.9759 10.3415 4.2306 10.6371 4.05892 10.5232C4.0381 10.6145 3.91341 10.5933 3.90756 10.6999C3.90727 10.7047 3.97609 10.7907 3.96908 10.7956C3.95811 10.8021 3.91715 10.7712 3.90853 10.7751C3.87167 10.7909 3.87819 10.8463 3.84799 10.8669C3.83636 10.8741 3.80301 10.8344 3.78939 10.8435C3.77581 10.853 3.81684 10.909 3.77767 10.9011C3.74776 10.8948 3.63515 10.8063 3.60775 10.8103C3.70629 10.91 3.6935 10.9193 3.70052 10.9646C3.70289 10.9738 3.73992 11.0035 3.74252 11.0095C3.75322 11.0344 3.71817 11.0127 3.7308 11.0388C3.73455 11.0457 3.7672 11.0785 3.77181 11.0857C3.81002 11.1465 3.71701 11.0904 3.69955 11.0798C3.63701 11.0419 3.67472 11.0908 3.64584 11.0808C3.61656 11.0704 3.60543 11.032 3.58236 11.031C3.53474 11.0291 3.51043 11.063 3.48568 11.0847C3.47626 11.0936 3.52801 11.1332 3.52767 11.1355C3.51953 11.1655 3.4525 11.1378 3.53158 11.238C3.28579 11.0188 3.54232 11.2713 3.46908 11.2527C3.46315 11.251 3.35 11.1433 3.34213 11.1189C3.33485 11.095 3.38114 11.1163 3.36752 11.0798C3.36329 11.0698 3.27688 10.9524 3.27279 10.9441C3.24116 10.8794 3.40507 11.0381 3.41732 11.0486C3.52425 11.1356 3.43358 11.0077 3.43002 10.9939C3.41784 10.9359 3.46001 10.9391 3.45443 10.8952C3.45077 10.8665 3.34491 10.7575 3.35775 10.7507C3.40144 10.7288 3.56264 10.867 3.46322 10.7058C3.44115 10.6708 3.31914 10.5611 3.4349 10.6296C3.44461 10.6355 3.54314 10.7003 3.50033 10.6374C3.49487 10.6294 3.46107 10.5956 3.45931 10.5905C3.45197 10.5606 3.48744 10.5798 3.48666 10.5544C3.48585 10.529 3.48156 10.4953 3.50717 10.4929C3.52352 10.4924 3.59671 10.5437 3.61654 10.5554C3.67306 10.589 3.61165 10.5032 3.67318 10.5505C3.7352 10.5982 3.80452 10.6959 3.85873 10.7126C3.77026 10.6228 3.68068 10.529 3.59213 10.4382C3.63639 10.4005 3.70531 10.3885 3.74252 10.3435C3.74554 10.3369 3.69401 10.2951 3.6976 10.2878C3.7132 10.2574 3.76706 10.2711 3.77767 10.2341C3.78552 10.2048 3.7555 10.1335 3.76205 10.1013C3.87592 10.1914 3.87047 10.1275 3.90072 10.1159C3.91143 10.1127 3.93747 10.1393 3.9515 10.1433C4.00405 10.1565 3.90463 10.0759 3.89584 10.0564C3.85859 9.9729 4.06502 10.1746 4.08724 10.1423C4.0869 10.1386 3.99817 10.0165 3.99252 10.0056C3.9638 9.94596 4.0334 10.0404 4.05111 10.0388C4.08343 10.0359 4.1218 10.0493 4.11068 9.9968C4.10717 9.98118 4.05365 9.89972 4.11752 9.94016C4.12578 9.94538 4.15999 9.98102 4.16439 9.98313C4.22198 9.99573 4.10972 9.8819 4.08431 9.83078C4.05908 9.77984 4.15742 9.83775 4.18392 9.85617C4.25172 9.90316 4.20125 9.88936 4.20541 9.89524C4.26659 9.96987 4.26966 9.94353 4.28646 9.9382C4.39884 10.0474 4.40729 10.0254 4.30306 9.93234C4.29193 9.92265 4.29357 9.94079 4.28646 9.9382C4.18757 9.81989 4.19056 9.78904 4.31088 9.8718C4.36726 9.91061 4.41385 9.97446 4.42025 9.92746C4.42278 9.90599 4.34253 9.83489 4.33236 9.80344C4.30935 9.73156 4.41213 9.77051 4.42611 9.7341C4.43063 9.72077 4.38112 9.68788 4.38314 9.67746C4.38882 9.65021 4.4343 9.66603 4.4349 9.63352C4.43264 9.62887 4.38936 9.59236 4.39193 9.58566C4.42601 9.54147 4.48786 9.53472 4.52963 9.49484C4.54979 9.47539 4.56188 9.41579 4.58724 9.40012C4.63104 9.37283 4.73834 9.39217 4.75326 9.34641C4.76301 9.31675 4.71498 9.27718 4.69369 9.23899C4.65243 9.16504 4.78366 9.23932 4.80404 9.25168C4.80413 9.25423 4.79956 9.27989 4.82943 9.2927C4.88124 9.33397 4.80476 9.25282 4.80404 9.25168C4.81683 9.25939 4.86042 9.23557 4.8597 9.22043C4.85881 9.21219 4.81544 9.17219 4.81576 9.16867C4.82428 9.08618 4.85964 9.03044 4.92513 9.00363C4.93016 9.00743 4.97178 9.05101 4.97494 9.05051C5.02207 9.04426 4.98263 8.97041 4.97103 8.91477C4.95945 8.85909 4.98786 8.85321 5.08041 8.91965C5.08701 8.8931 5.14588 8.90424 5.18099 8.91184C5.21606 8.91944 5.12786 8.82694 5.12728 8.82395C5.10805 8.72947 5.18172 8.75916 5.22885 8.72824C5.25139 8.71364 5.2752 8.66352 5.28549 8.63352C5.29345 8.60966 5.32438 8.62067 5.32552 8.5925C5.32356 8.58708 5.28347 8.55065 5.28256 8.54856C5.25138 8.48501 5.34003 8.58901 5.36166 8.60422C5.43766 8.65572 5.47909 8.68251 5.47006 8.63156C5.46723 8.61899 5.34158 8.46401 5.34213 8.44699C5.3437 8.42625 5.38928 8.47988 5.389 8.45578C5.38735 8.45226 5.35801 8.42257 5.36654 8.41672C5.40678 8.38858 5.46201 8.36934 5.49447 8.33078C5.49903 8.32561 5.44411 8.28261 5.44955 8.27414C5.47672 8.23523 5.51431 8.20017 5.56967 8.19113C5.58346 8.18907 5.6133 8.22942 5.62533 8.23801C5.69804 8.28959 5.62263 8.18361 5.62338 8.17941C5.63896 8.07715 5.76638 8.11346 5.78744 8.01438C5.78663 8.00911 5.76436 7.96967 5.76205 7.94895C5.72698 7.9336 5.73807 7.88392 5.70052 7.8718C5.69142 7.86888 5.65337 7.91854 5.64486 7.9177C5.61916 7.90772 5.61971 7.86854 5.59896 7.8552C5.58909 7.8504 5.5564 7.88529 5.55209 7.8757C5.54129 7.85288 5.54094 7.82295 5.55697 7.77414C5.55954 7.76913 5.61111 7.73735 5.60092 7.72336C5.58327 7.70078 5.59033 7.64352 5.53451 7.65305C5.51768 7.65611 5.43799 7.73521 5.47787 7.66574C5.48623 7.65119 5.58485 7.55998 5.48568 7.62473C5.46913 7.63548 5.32985 7.71718 5.38705 7.63156C5.40264 7.6084 5.46942 7.52264 5.44955 7.52609C5.44648 7.52692 5.40782 7.57373 5.39681 7.57102C5.35905 7.56061 5.33813 7.53073 5.30013 7.51926C5.28966 7.51689 5.25537 7.57001 5.24154 7.56418C5.20352 7.54795 5.18105 7.5028 5.1683 7.46262C5.16417 7.44759 5.20705 7.41845 5.21029 7.41379C5.26311 7.33813 5.16997 7.41779 5.16049 7.41965C5.10642 7.42639 5.12867 7.36716 5.09603 7.35617C5.0865 7.35437 5.05009 7.39863 5.04525 7.40109C4.99687 7.4247 5.08103 7.35955 5.08138 7.34348C5.0826 7.29831 5.05422 7.27742 5.0267 7.26047C5.01658 7.25434 4.97807 7.31048 4.96908 7.30539C4.9173 7.2702 4.87658 7.22007 4.86068 7.15109C4.85778 7.13802 4.89978 7.10556 4.90658 7.09543C4.954 7.02505 4.85661 7.08868 4.84506 7.0925C4.79262 7.10991 4.8184 7.07087 4.7972 7.06125C4.69081 7.01579 4.61816 6.90024 4.5599 6.81516C4.48399 6.70472 4.44686 6.59711 4.34896 6.51731C4.34277 6.51218 4.2983 6.56699 4.29232 6.5632C4.21765 6.51208 4.17523 6.43037 4.09799 6.38156C4.09159 6.37773 4.05197 6.43246 4.04037 6.42746C4.01631 6.41752 3.99784 6.39305 3.99545 6.36106C3.99423 6.34545 4.04533 6.31637 4.0433 6.30149C4.03864 6.26685 4.02108 6.24201 3.99349 6.22922C3.98161 6.22391 3.94673 6.28442 3.9349 6.27414C3.85387 6.2026 3.77038 6.13581 3.75521 5.9968C3.75615 5.98543 3.84629 5.88596 3.81674 5.89328C3.78895 5.91938 3.75702 5.9508 3.72787 5.97922C3.60148 5.8837 3.52534 5.74022 3.41927 5.62375C3.41484 5.6189 3.37226 5.67721 3.36263 5.66965C3.31082 5.61632 3.24525 5.57915 3.24252 5.47434C3.24218 5.46399 3.33543 5.37579 3.30599 5.37375C3.30046 5.37337 3.26523 5.36241 3.23959 5.3757C3.2358 5.37783 3.19781 5.42378 3.18881 5.4177C3.13801 5.37974 3.10083 5.32376 3.08236 5.25363C3.07946 5.24223 3.13189 5.20453 3.13021 5.19602C3.11781 5.13627 3.04476 5.13067 3.05111 5.05539C3.05591 5.00484 3.14222 4.93595 3.20638 4.84738C3.21545 4.83485 3.20275 4.81837 3.24642 4.77316C3.35661 4.65917 3.48623 4.54295 3.60287 4.42063C3.62787 4.39438 3.58136 4.40296 3.65463 4.35227C3.65958 4.3489 3.69456 4.34256 3.71908 4.32492C3.73601 4.31275 3.77658 4.26269 3.80013 4.24875C3.82365 4.23496 3.79162 4.27825 3.82162 4.26438C3.8519 4.24997 3.9001 4.19486 3.9222 4.20481ZM3.56185 10.9011C3.52537 10.8767 3.54287 10.9284 3.58822 10.9587C3.62459 10.983 3.60688 10.9314 3.56185 10.9011ZM3.75424 10.406C3.68888 10.364 3.79755 10.4913 3.82455 10.5085C3.91107 10.5618 3.81999 10.4484 3.75424 10.406ZM5.54916 9.11984C5.50433 9.06396 5.47975 9.08058 5.53646 9.12863C5.539 9.13007 5.55005 9.12241 5.54916 9.11984ZM6.72982 8.09836C6.65984 8.00367 6.60258 8.04289 6.69955 8.11887C6.70447 8.12269 6.73183 8.10374 6.72982 8.09836ZM5.79525 7.9509C5.79946 7.95373 5.80571 7.95477 5.81088 7.95871C5.81303 7.96034 5.82641 7.96889 5.84017 7.97824C5.84515 7.97173 5.85123 7.9668 5.85677 7.96164C5.84677 7.95317 5.83136 7.9399 5.8265 7.93039C5.81374 7.93897 5.80247 7.94632 5.79525 7.9509ZM5.92416 7.88449C5.92284 7.87649 5.90759 7.88159 5.88802 7.89231C5.89128 7.8936 5.89504 7.8944 5.89877 7.89621C5.90272 7.89813 5.91022 7.90193 5.9183 7.90695C5.92212 7.90051 5.92502 7.89335 5.92416 7.88449ZM6.18783 7.66281C6.21083 7.68226 6.23977 7.70747 6.25619 7.71164C6.28232 7.71786 6.31829 7.71352 6.30111 7.67551C6.28543 7.64111 6.19914 7.5677 6.18783 7.53684V7.66281ZM3.2767 4.86887C3.22086 4.91375 3.23753 4.93923 3.28549 4.88254C3.28733 4.88036 3.27939 4.86825 3.2767 4.86887Z" fill="#555961"/>
<path d="M8.70475 10.5912C8.72716 10.5717 8.75664 10.5928 8.77897 10.6215C8.78551 10.6308 8.78243 10.6682 8.78678 10.6771C8.79622 10.6926 8.80577 10.6734 8.8151 10.6918C8.81813 10.6979 8.81418 10.7585 8.81705 10.766C8.83478 10.7938 8.85183 10.7782 8.86979 10.7914C8.95841 10.8574 9.04571 10.8809 9.13541 10.9096C9.16502 10.919 9.20151 10.9765 9.23209 10.9516C9.23542 10.9474 9.23348 10.8952 9.23404 10.8891C9.2447 10.8193 9.24076 10.9309 9.24772 10.9457C9.27528 11.004 9.30615 11.0089 9.33268 10.9877C9.34397 10.9785 9.33307 10.8689 9.3444 10.9301C9.34519 10.9342 9.34227 10.9931 9.34537 10.9994C9.35224 11.0131 9.36509 11.0033 9.37076 11.0072C9.38126 11.0165 9.38329 11.0163 9.39322 11.017C9.4067 11.0184 9.42268 11.0472 9.43717 11.0346C9.44023 11.0316 9.43646 10.9729 9.44108 10.9613C9.44604 10.9511 9.45911 10.9559 9.46354 10.9701C9.46796 10.9843 9.46666 11.0315 9.46744 11.0424C9.47376 11.1318 9.48845 11.0121 9.49088 11.0043C9.52649 10.9509 9.55707 11.023 9.59049 11.0228C9.61588 11.0225 9.64348 10.9981 9.66764 11.0014C9.69628 11.0057 9.72084 11.0382 9.74869 11.0326C9.75124 11.0285 9.74811 10.9611 9.75162 10.9603C9.78985 10.9522 9.82781 10.9605 9.86588 11.0082C9.86952 11.014 9.86504 11.0748 9.86881 11.0834C9.8922 11.1344 9.92914 11.2572 9.94303 10.9867C9.95886 10.9973 9.97769 11.0084 9.99186 11.0629C10.001 11.098 9.99236 11.165 10.0036 11.1361C10.0058 11.1281 10.0029 11.0719 10.0065 11.0658C10.0225 11.0441 10.0405 11.0632 10.0563 11.0326C10.0594 11.0256 10.0583 10.9728 10.0592 10.9633C10.0669 10.8866 10.0799 11.0145 10.0827 11.0238C10.1036 11.0922 10.1189 11.0656 10.1383 11.0668C10.1428 11.0672 10.1383 10.9993 10.1422 10.9945C10.1651 10.9843 10.1892 10.9902 10.2116 11.0219C10.2163 11.03 10.2122 11.0894 10.2145 11.0961C10.225 11.1242 10.2269 11.0098 10.237 11.0346C10.239 11.04 10.2376 11.0903 10.238 11.0971C10.244 11.1862 10.2491 11.0612 10.2506 11.057C10.2703 11.0187 10.2834 11.151 10.3024 11.1322C10.3042 11.1263 10.3001 11.0645 10.3063 11.0619C10.3488 11.044 10.3941 11.0621 10.4362 11.1146C10.4423 11.1239 10.4377 11.1721 10.4381 11.1781C10.4448 11.2716 10.4487 11.1492 10.4508 11.141C10.4677 11.1064 10.4843 11.2129 10.4958 11.0609C10.5671 11.1134 10.6379 11.0288 10.7087 11.1644C10.7095 11.166 10.708 11.2267 10.7096 11.2318C10.7313 11.2671 10.7275 11.1696 10.7419 11.0502C10.7455 11.0206 10.7565 11.1646 10.7575 11.1752C10.761 11.214 10.7573 11.3064 10.7585 11.3148C10.7683 11.3741 10.7667 11.0649 10.7799 11.0648C10.7803 11.0657 10.7779 11.1227 10.779 11.1283C10.7824 11.1458 10.7863 11.1234 10.7897 11.143C10.7974 11.1884 10.8004 11.3379 10.8122 11.2514C10.8137 11.24 10.8111 11.0644 10.8229 11.0726C10.8278 11.076 10.8484 11.0731 10.8542 11.0844C10.86 11.0957 10.8557 11.1522 10.8561 11.1547C10.8718 11.2293 10.8659 11.2603 10.8737 11.3705C10.8816 11.4807 10.8802 11.2182 10.8835 11.1889C10.8867 11.16 10.8982 11.221 10.901 11.2426C10.9038 11.2638 10.8997 11.2994 10.902 11.3119C10.9187 11.3912 10.9102 11.1818 10.9157 11.14C10.9286 11.0417 10.938 11.2353 10.9499 11.2553C10.953 11.2603 10.9511 11.2176 10.9538 11.2123C10.9651 11.1965 10.9722 11.2568 10.985 11.2016C10.9871 11.1925 10.9968 11.0751 11.0036 11.1605C11.0045 11.1729 11.0017 11.2218 11.0065 11.2328C11.0137 11.2491 11.0271 11.2596 11.0348 11.2435C11.0405 11.2315 11.0345 11.1513 11.0417 11.1762C11.0448 11.1874 11.0386 11.2344 11.0446 11.2514C11.0506 11.268 11.0661 11.2657 11.0719 11.2641C11.0772 11.2596 11.0744 11.2016 11.0749 11.1976C11.0777 11.1744 11.0884 11.1453 11.0895 11.1449C11.1391 11.1375 11.1848 11.2396 11.2331 11.2064C11.2367 11.204 11.2347 11.1445 11.235 11.1391C11.248 11.1122 11.2377 11.2823 11.2467 11.3392C11.2454 11.2093 11.2513 11.2324 11.2604 11.2182C11.2646 11.2104 11.262 11.1608 11.2624 11.1557C11.2689 11.0798 11.2739 11.1785 11.2751 11.1986C11.2794 11.2726 11.2838 11.1851 11.2868 11.2348C11.2897 11.2834 11.2834 11.3548 11.2917 11.3558C11.2941 11.3093 11.288 11.1883 11.2946 11.1683C11.3197 11.0938 11.3671 11.1887 11.3874 11.1986C11.4074 11.2083 11.4137 11.2004 11.4255 11.2172C11.4466 11.2474 11.4386 11.1569 11.4518 11.1156C11.4649 11.0761 11.4587 11.296 11.4606 11.3441C11.4625 11.3918 11.4641 11.3433 11.4665 11.3695C11.4687 11.3957 11.464 11.4281 11.4694 11.4379C11.4749 11.4475 11.4899 11.3627 11.4919 11.3129C11.4959 11.2073 11.4892 11.0964 11.5036 11.1351C11.5044 11.1374 11.5016 11.1941 11.5046 11.2016C11.5298 11.2465 11.5565 11.2497 11.5817 11.2894C11.5849 11.2964 11.5817 11.3591 11.5837 11.3637C11.6046 11.4052 11.5976 11.2958 11.609 11.1742C11.6065 11.3358 11.6127 11.4348 11.6286 11.4359C11.6381 11.4366 11.637 11.3656 11.6432 11.3158C11.6451 11.3017 11.6518 11.3488 11.653 11.3158C11.657 11.2075 11.6504 11.0866 11.6667 11.1342C11.6674 11.1364 11.6653 11.1946 11.6676 11.1996C11.6837 11.2231 11.6855 11.1104 11.7028 11.0961C11.7164 11.0853 11.741 11.1539 11.7565 11.1654C11.7562 11.3471 11.7711 11.3061 11.777 11.181C11.7869 11.1857 11.7977 11.1789 11.8073 11.1957C11.8106 11.2016 11.8088 11.254 11.8092 11.2601C11.8156 11.3481 11.8197 11.2311 11.8219 11.223C11.8455 11.1765 11.8649 11.2685 11.8874 11.1781C11.8882 11.1714 11.8893 11.0501 11.8952 11.141C11.8955 11.1475 11.8885 11.2049 11.8991 11.2094C11.9097 11.2147 11.9294 11.2809 11.944 11.223C11.9476 11.209 11.9563 11.1067 11.9635 11.1859C11.9645 11.1968 11.9641 11.2331 11.9655 11.2533C11.97 11.3175 11.972 11.1906 11.9772 11.2982C11.9825 11.4067 11.9936 11.4883 12.0085 11.4135C12.009 11.4086 12.0127 11.3103 12.0172 11.3119C12.0246 11.3149 12.035 11.3357 12.0426 11.3353C12.0462 11.335 12.0442 11.2763 12.0446 11.2709C12.0695 11.2357 12.0872 11.2914 12.1139 11.3158C12.1188 11.3204 12.1337 11.2345 12.1432 11.3021C12.1537 11.3763 12.1427 11.6848 12.1667 11.6117C12.1763 11.5823 12.1883 11.1911 12.2057 11.3939C12.2394 11.3437 12.2706 11.4468 12.3044 11.3754C12.3059 11.3723 12.3106 11.2661 12.3141 11.2641C12.3194 11.2665 12.3231 11.317 12.3268 11.3207C12.3425 11.3359 12.3566 11.2936 12.3717 11.2992C12.3775 11.3016 12.3759 11.3534 12.3825 11.3578C12.3894 11.3607 12.3946 11.2914 12.404 11.3246C12.4111 11.3502 12.418 11.4926 12.4274 11.5092C12.4278 11.369 12.4345 11.3714 12.446 11.3344C12.448 11.3258 12.4459 11.2786 12.4469 11.2728C12.4512 11.248 12.4546 11.2878 12.4587 11.2611C12.4596 11.2546 12.4598 11.2076 12.4606 11.1986C12.4674 11.1281 12.4792 11.2355 12.4811 11.2543C12.4885 11.3253 12.4911 11.2634 12.4967 11.2914C12.5024 11.3194 12.494 11.3545 12.5006 11.3715C12.5144 11.4067 12.5326 11.3986 12.5465 11.4008C12.5516 11.3992 12.5479 11.3397 12.5485 11.3363C12.56 11.3201 12.5724 11.3879 12.5788 11.2611C12.5867 11.5892 12.5858 11.2296 12.6022 11.2943C12.6035 11.2997 12.6043 11.456 12.5993 11.4789C12.5943 11.5006 12.5876 11.4533 12.5807 11.4887C12.579 11.4995 12.5693 11.643 12.568 11.6517C12.5581 11.7196 12.5568 11.4877 12.5563 11.475C12.5503 11.3372 12.5388 11.4944 12.5358 11.5053C12.522 11.5549 12.5102 11.5225 12.4987 11.558C12.4912 11.5818 12.4899 11.7326 12.484 11.7279C12.4647 11.7095 12.4575 11.5021 12.4391 11.685C12.4352 11.7248 12.4397 11.8898 12.4255 11.7592C12.4243 11.7482 12.4139 11.6326 12.4079 11.7074C12.4071 11.7171 12.4069 11.7658 12.4059 11.7699C12.3992 11.7955 12.3947 11.7574 12.3874 11.7758C12.38 11.7943 12.3704 11.8215 12.362 11.8051C12.3569 11.7934 12.3507 11.7049 12.3483 11.683C12.3414 11.6193 12.334 11.7235 12.3297 11.6469C12.3255 11.5693 12.3342 11.4509 12.3229 11.4008C12.3225 11.5269 12.3216 11.6568 12.321 11.7836C12.2963 11.7791 12.2715 11.738 12.2467 11.7435C12.2439 11.7464 12.247 11.8122 12.2438 11.8148C12.23 11.8255 12.2181 11.7779 12.2038 11.7963C12.1926 11.8114 12.1803 11.8837 12.1686 11.9017C12.1615 11.7583 12.144 11.8058 12.1315 11.7933C12.1272 11.7888 12.1277 11.7507 12.1247 11.7377C12.1129 11.6913 12.1181 11.8176 12.1149 11.8383C12.1011 11.9234 12.0997 11.6395 12.0837 11.643C12.0824 11.6503 12.0715 11.7951 12.07 11.806C12.0608 11.8681 12.0687 11.7543 12.0631 11.7416C12.0526 11.7208 12.0453 11.684 12.0329 11.7289C12.0292 11.7422 12.0204 11.8381 12.0133 11.7641C12.0124 11.7545 12.0131 11.7049 12.0124 11.7006C11.9989 11.651 11.9986 11.8104 11.9909 11.8646C11.9832 11.9187 11.9708 11.8086 11.9684 11.7767C11.9622 11.6957 11.9727 11.7402 11.9733 11.7338C11.9773 11.6381 11.9692 11.6538 11.9626 11.6459C11.9616 11.4892 11.9524 11.4986 11.9557 11.6381C11.9561 11.6533 11.9612 11.6387 11.9626 11.6459C11.9567 11.7996 11.9465 11.8188 11.9352 11.6752C11.93 11.608 11.9346 11.5303 11.9186 11.559C11.9116 11.5735 11.9141 11.6787 11.9079 11.7084C11.8933 11.7753 11.8741 11.6757 11.859 11.6908C11.8536 11.6966 11.8589 11.7561 11.8551 11.7621C11.8453 11.7776 11.8367 11.7341 11.8268 11.7562C11.8259 11.7583 11.8275 11.8161 11.8249 11.8207C11.8013 11.8279 11.7801 11.7886 11.7555 11.7875C11.7436 11.7878 11.7228 11.8206 11.7106 11.8139C11.6894 11.8021 11.6634 11.7137 11.6452 11.7348C11.6333 11.7487 11.6356 11.8108 11.6305 11.8529C11.6207 11.9339 11.6036 11.7876 11.6012 11.765C11.5995 11.7505 11.579 11.7369 11.5749 11.7484C11.5727 11.7548 11.574 11.8125 11.5729 11.8158C11.5456 11.8682 11.5176 11.8832 11.4899 11.8558C11.4894 11.8547 11.4899 11.793 11.4889 11.7875C11.4729 11.7584 11.4631 11.8385 11.4499 11.8861C11.4367 11.9332 11.4264 11.917 11.4186 11.8051C11.4086 11.8192 11.3937 11.7688 11.3854 11.7387C11.3773 11.7103 11.3764 11.8367 11.3756 11.8392C11.3531 11.9196 11.3395 11.8467 11.3161 11.8353C11.3049 11.8301 11.2832 11.8479 11.2712 11.8617C11.2616 11.8729 11.2555 11.8436 11.2467 11.8627C11.2456 11.8667 11.2471 11.9221 11.2467 11.9242C11.237 11.9919 11.2419 11.8536 11.2399 11.8285C11.2326 11.7383 11.2271 11.6904 11.2145 11.7328C11.2116 11.745 11.2032 11.9396 11.1979 11.9535C11.1911 11.9683 11.1943 11.8977 11.1872 11.9144C11.1866 11.9158 11.1864 11.9581 11.1823 11.9584C11.1618 11.95 11.1391 11.9241 11.1178 11.9281C11.1149 11.9285 11.118 11.9975 11.1139 12.0004C11.0942 12.0087 11.0727 12.0065 11.0534 11.974C11.0486 11.9657 11.0515 11.9164 11.0505 11.9017C11.0443 11.8156 11.0356 11.9357 11.0338 11.9437C10.9985 12.0052 10.9712 11.8901 10.9352 11.9447C10.9333 11.948 10.9176 12.0852 10.9108 11.9682C10.9103 11.9603 10.904 11.8398 10.8981 11.9213C10.8977 11.9264 10.9015 11.9891 10.8942 11.9828C10.8869 11.9774 10.8758 12.0171 10.8659 11.9496C10.8627 11.9281 10.8548 11.8079 10.8454 11.9037C10.8447 11.9111 10.831 12.1265 10.8258 11.9779C10.825 11.9534 10.8253 11.7953 10.8141 11.8754C10.812 11.891 10.8158 11.9266 10.8102 11.9486C10.8015 11.9826 10.7906 11.9406 10.7799 12.0111C10.7781 12.0239 10.7697 12.1306 10.7633 12.0492C10.7624 12.0362 10.7637 11.9838 10.7604 11.9779C10.7446 11.95 10.7286 11.9843 10.7126 11.9486C10.7069 11.9359 10.7096 11.8511 10.7038 11.8275C10.6978 11.8047 10.6856 11.7826 10.6794 11.8217C10.6732 11.8609 10.6797 11.9949 10.6706 12.0072C10.6298 12.0545 10.5892 11.975 10.5485 11.9633C10.5425 11.9615 10.5475 12.0099 10.5387 12.0111C10.506 12.0147 10.449 12.0599 10.4206 11.9564C10.398 11.8738 10.4272 11.8104 10.4098 11.7767C10.4015 11.7612 10.3924 11.9172 10.3903 11.9242C10.3705 11.9747 10.3563 11.9049 10.3385 11.9262C10.335 11.9305 10.3382 11.9907 10.3356 11.9975C10.325 12.0085 10.3135 11.9811 10.3034 11.9857C10.2988 11.9882 10.2988 12.0374 10.2946 12.0336C10.2846 12.025 10.2761 12.004 10.2663 11.9584C10.2654 11.9543 10.2712 11.8952 10.2643 11.891C10.2522 11.8875 10.2372 11.8423 10.2233 11.8891C10.2192 11.9031 10.2185 12.0148 10.2096 11.9379C10.2078 11.9217 10.2102 11.7876 10.1999 11.9037C10.1979 11.9249 10.181 12.0781 10.1725 11.9779C10.1703 11.9509 10.1638 11.8417 10.1588 11.8588C10.1582 11.8615 10.161 11.9223 10.1569 11.9281C10.1426 11.9471 10.1276 11.9412 10.113 11.9594C10.109 11.9644 10.1145 12.0252 10.109 12.0326C10.0928 12.0483 10.0722 12.0325 10.0563 12.0131C10.0504 12.0058 10.0538 11.9542 10.0534 11.9486C10.0466 11.8583 10.043 11.9788 10.0407 11.9877C10.0265 12.0307 10.0157 11.9734 10.0026 11.9887C9.99921 11.9938 10.0013 12.0494 10.0006 12.056C9.99322 12.107 9.99844 12.0029 9.99381 11.9906C9.98059 11.9577 9.96617 11.9626 9.95279 11.9701C9.94812 11.974 9.9532 12.0403 9.94889 12.0424C9.9228 12.0541 9.89525 12.0477 9.86979 12.0101C9.86516 12.0026 9.86873 11.9515 9.86783 11.9389C9.86095 11.8552 9.85064 11.9688 9.8483 11.9799C9.83775 12.0296 9.83321 11.983 9.82389 11.9916C9.77841 12.0346 9.72233 12.0047 9.67936 11.9857C9.62332 11.9613 9.57947 11.9113 9.52604 11.9242C9.52317 11.9291 9.52594 11.994 9.52311 11.9955C9.48546 12.0122 9.44852 11.9855 9.4108 12.0053C9.40774 12.0068 9.41151 12.071 9.4069 12.0775C9.39666 12.0876 9.38404 12.084 9.37369 12.0629C9.36894 12.052 9.37468 11.9971 9.36979 11.9877C9.35799 11.9665 9.34577 11.9616 9.33365 11.9721C9.32856 11.9766 9.33595 12.0426 9.32975 12.0453C9.28398 12.052 9.23831 12.0635 9.19205 11.976C9.18888 11.9697 9.18609 11.8324 9.17936 11.8588C9.17885 11.8969 9.17958 11.942 9.17936 11.9828C9.11272 12.0048 9.04598 11.957 8.97916 11.9496C8.97691 11.9537 8.98138 12.0213 8.97623 12.0219C8.94466 12.0208 8.9138 12.0405 8.8815 11.9682C8.87847 11.958 8.88008 11.8338 8.87076 11.8529C8.86886 11.8567 8.85494 11.8735 8.85123 11.9008C8.85073 11.905 8.85288 11.9654 8.8483 11.9672C8.82182 11.976 8.79368 11.9624 8.76725 11.9262C8.76296 11.9202 8.76737 11.8558 8.76432 11.851C8.74271 11.8179 8.71952 11.8656 8.69889 11.808C8.68502 11.7691 8.68965 11.6585 8.68229 11.5502C8.68109 11.5354 8.67298 11.5323 8.67252 11.4701C8.67138 11.3117 8.6752 11.138 8.6735 10.9691C8.67314 10.9328 8.66188 10.9715 8.66861 10.8842C8.66909 10.8783 8.6773 10.8486 8.67936 10.8187C8.68078 10.7981 8.67839 10.7338 8.68131 10.7074C8.68422 10.6816 8.68723 10.7344 8.69205 10.7035C8.69678 10.672 8.69525 10.6002 8.70475 10.5912ZM12.2721 11.5687C12.2622 11.4699 12.2553 11.6154 12.2624 11.6918C12.2694 11.768 12.2752 11.5987 12.2721 11.5687ZM8.71061 11.517C8.70734 11.5881 8.71908 11.5939 8.71647 11.5199C8.71636 11.5169 8.71075 11.514 8.71061 11.517ZM12.4782 11.4183C12.4745 11.3754 12.4639 11.4245 12.4684 11.4779C12.4721 11.5208 12.4826 11.4717 12.4782 11.4183ZM10.946 11.3773C10.9463 11.4382 10.9528 11.4209 10.9508 11.3646C10.9506 11.3614 10.9459 11.3588 10.946 11.3773ZM12.6393 11.1693C12.6439 11.176 12.628 11.2533 12.6344 11.2767C12.6463 11.3198 12.6546 11.1552 12.6667 11.2435C12.6686 11.2614 12.6535 11.4153 12.652 11.4144L12.6354 11.3666C12.6215 11.289 12.6183 11.1471 12.6393 11.1693ZM11.3376 11.3324C11.3343 11.4032 11.347 11.4083 11.3444 11.3344C11.3438 11.3315 11.3377 11.3296 11.3376 11.3324ZM10.6774 11.2201C10.6701 11.3362 10.6984 11.3482 10.6921 11.226C10.6915 11.2197 10.6779 11.2143 10.6774 11.2201Z" fill="#555961"/>
</svg>
