<svg width="16" height="16" viewBox="0 0 16 16" fill="none" xmlns="http://www.w3.org/2000/svg">
<path d="M3.99966 2.12761C4.88036 2.19126 5.74736 2.21461 6.63931 2.24284C6.93813 2.25226 7.30135 2.30979 7.61001 2.28484C7.64562 2.2819 7.62537 2.22801 7.63149 2.22234C7.73905 2.15259 7.70385 2.26415 7.77407 2.27898C8.05266 2.33742 8.36245 2.34229 8.63052 2.32097C8.74445 2.31172 8.63045 2.20213 8.74478 2.26335C8.75276 2.26752 8.72423 2.32643 8.75552 2.33269C8.82652 2.34674 8.96129 2.33585 9.01626 2.3405C9.12208 2.34974 9.1397 2.3496 9.23989 2.35027C9.37694 2.3517 9.54013 2.38114 9.68716 2.36784C9.71822 2.36463 9.67723 2.30482 9.7272 2.2946C9.77736 2.28447 9.90881 2.28931 9.95376 2.30339C9.99846 2.31758 9.98003 2.36482 9.98794 2.37566C10.0531 2.46688 10.2065 2.3407 10.2262 2.33757C10.5858 2.28424 10.8945 2.35633 11.2321 2.35613C11.4861 2.3558 11.7575 2.33186 11.9997 2.33464C12.0022 2.33466 12.005 2.3346 12.0075 2.33464C12.3724 2.34422 12.6638 2.47673 12.9479 2.66863C12.978 2.68971 12.9843 2.60754 13.0221 2.63445C13.088 2.6821 13.1509 2.73446 13.2086 2.79167C13.5035 3.08094 13.6728 3.49444 13.6559 3.89714C13.6537 3.94493 13.5882 3.88815 13.5817 3.93425C13.5788 3.95527 13.5753 3.97733 13.5709 3.99968C13.5162 4.23525 13.4301 4.56525 13.6803 4.69499C13.6698 4.8549 13.6586 5.04903 13.6042 5.19206C13.5691 5.28431 13.5011 5.19494 13.5299 5.30827C13.5366 5.33341 13.596 5.30042 13.6012 5.33855C13.6229 5.49983 13.6039 5.67604 13.6344 5.83562C13.6408 5.86793 13.6928 5.85985 13.7028 5.86882C13.7802 5.94615 13.6525 6.07513 13.6432 6.1032C13.574 6.3167 13.6009 6.47265 13.5993 6.67156C13.5988 6.71772 13.6703 6.66343 13.6725 6.70769C13.6827 6.93824 13.6768 7.17725 13.6452 7.403C13.6379 7.45314 13.5765 7.40733 13.57 7.43132C13.5423 7.53674 13.6572 7.56046 13.6325 7.66179C13.6273 7.68313 13.5747 7.67058 13.569 7.67448C13.48 7.73517 13.6058 7.78831 13.61 7.80437C13.6483 8.00308 13.5151 8.13096 13.5338 8.32292C13.537 8.34483 13.6024 8.29409 13.6051 8.35808C13.6233 8.78808 13.605 9.24298 13.5524 9.66863C13.5443 9.73459 13.4953 9.68826 13.4889 9.69206C13.3943 9.75955 13.5198 9.80316 13.526 9.82488C13.5606 9.99503 13.4536 10.1545 13.6051 10.2702C13.5628 10.8487 13.6095 11.4251 13.5592 11.9997C13.547 12.165 13.5018 12.3267 13.4264 12.4694C13.4218 12.4784 13.3685 12.4427 13.359 12.4596C13.2421 12.6657 13.3482 12.6565 13.3629 12.8688C13.363 12.9255 13.169 12.9455 13.1549 12.944C13.1 12.949 13.0537 12.8579 13.0397 12.863C12.9672 12.8879 13.0502 12.9814 13.0778 13.0778C13.0913 13.125 13.0913 13.1737 13.0514 13.2087C13.0474 13.2115 13.0249 13.1555 13.0114 13.1598C12.9699 13.1727 12.953 13.2146 12.9098 13.2223C12.8084 13.2391 12.711 13.1269 12.6432 13.2614C12.633 13.2781 12.7391 13.4267 12.6032 13.4762C12.5511 13.4995 12.3091 13.5703 12.237 13.5641C12.1665 13.5625 12.2064 13.5003 12.2008 13.4987C12.0168 13.4431 12.0813 13.4034 11.9997 13.2956C11.9205 13.1861 11.9422 13.4489 11.9098 13.4782C11.8768 13.5066 11.7615 13.4449 11.7331 13.4235C11.7047 13.4021 11.7399 13.3663 11.7145 13.3542C11.5465 13.2752 11.6409 13.4852 11.5856 13.527C11.4549 13.6257 11.3527 13.4312 11.2331 13.4118C11.2007 13.4066 11.2268 13.4506 11.1979 13.4548C11.0838 13.4706 11.0151 13.41 10.8854 13.4655C10.8641 13.4746 10.7591 13.5915 10.6911 13.5055C10.6814 13.4932 10.7082 13.4452 10.6598 13.4342C10.5871 13.4179 10.4558 13.4073 10.3776 13.4235C10.32 13.4356 10.3858 13.5157 10.3131 13.4909C10.2811 13.4797 10.3405 13.4326 10.2799 13.4157C10.2194 13.3988 10.0651 13.4004 10.0065 13.402C9.94837 13.4039 9.97997 13.4643 9.97524 13.4684C9.94686 13.4916 9.83693 13.5206 9.82485 13.5212C9.3235 13.5286 8.86083 13.4268 8.37271 13.4606C8.33505 13.4631 8.35887 13.5249 8.35415 13.528C8.22299 13.5548 8.32566 13.3848 8.23403 13.3278C8.24723 13.4576 8.19355 13.4337 8.10122 13.4479C8.05722 13.4548 8.08018 13.5043 8.07681 13.5104C8.01079 13.5868 7.96463 13.4886 7.95278 13.4684C7.90906 13.3942 7.86145 13.4819 7.83169 13.4323C7.80195 13.383 7.87049 13.3093 7.78189 13.3102C7.75704 13.3567 7.82279 13.479 7.75552 13.4987C7.50163 13.5731 7.02789 13.4774 6.82388 13.4675C6.62052 13.4576 6.55463 13.4666 6.43618 13.4499C6.2218 13.4195 6.29977 13.5092 6.16665 13.5505C6.03343 13.5914 6.09794 13.3696 6.07876 13.3219C6.05997 13.275 6.03962 13.3237 6.01626 13.2975C5.99299 13.2714 6.04328 13.2391 5.98892 13.2292C5.93395 13.2193 5.78379 13.3043 5.76431 13.3542C5.72321 13.4598 5.79018 13.5706 5.64517 13.5319C5.6368 13.5296 5.66352 13.4704 5.6315 13.4645C5.37722 13.4197 5.11299 13.4173 4.85903 13.3776C4.8241 13.3721 4.85495 13.3074 4.83462 13.3034C4.62313 13.262 4.69869 13.3713 4.58267 13.4928C4.60873 13.331 4.54417 13.2321 4.38345 13.2311C4.2876 13.2307 4.3037 13.3006 4.24185 13.3503C4.22314 13.3652 4.15487 13.3175 4.14224 13.3503C4.1014 13.4589 4.16511 13.5802 3.99966 13.5319V13.4743C3.99765 13.4706 3.99483 13.4672 3.98989 13.4665C3.81485 13.4362 3.77935 13.5487 3.5729 13.5114C3.40855 13.4816 3.18064 13.2899 3.05728 13.1676C3.14074 13.0651 3.0905 13.0068 3.0065 12.9938C2.97497 12.989 2.93733 12.9903 2.90005 12.9997C2.82777 12.9132 2.75082 12.8162 2.71353 12.7126C2.70095 12.6773 2.75786 12.6734 2.76138 12.6667C2.80874 12.5662 2.68209 12.5772 2.66763 12.5553C2.55345 12.3747 2.5714 12.1849 2.54653 11.9997C2.54048 11.9567 2.52928 11.9128 2.51138 11.8678C2.50511 11.8598 2.38353 11.8466 2.47427 11.7868C2.48063 11.7829 2.53817 11.8574 2.54263 11.7507C2.54708 11.6439 2.6146 11.4428 2.5563 11.2946C2.54221 11.2587 2.43917 11.1672 2.51919 11.0944C2.53003 11.0847 2.56636 11.0954 2.58657 11.0817C2.65074 11.0365 2.52384 11.0117 2.6315 10.9587C2.73997 10.9055 2.82151 10.7947 2.74673 10.6452C2.74456 10.6404 2.64422 10.6051 2.64517 10.5583C2.64781 10.4832 2.66926 10.3759 2.6686 10.2975C2.66795 10.2611 2.60763 10.2832 2.60415 10.278C2.56894 10.0258 2.62474 9.84602 2.64907 9.57585C2.65365 9.52632 2.56777 9.38369 2.6354 9.28777C2.70958 9.18244 3.01844 9.29056 2.94497 9.04851C2.91556 8.95085 2.52435 8.82751 2.7272 8.65202C2.67693 8.31167 2.78041 7.99625 2.70864 7.65495C2.7041 7.63927 2.59584 7.59119 2.59732 7.55534C2.59973 7.50185 2.65047 7.47242 2.65396 7.43425C2.66934 7.27398 2.62568 7.12686 2.63247 6.97234C2.63511 6.91416 2.68795 6.93432 2.69107 6.86491C2.69397 6.79498 2.62428 6.74777 2.65786 6.653C2.68358 6.58147 2.82588 6.50966 2.84243 6.41472C2.70224 6.4111 2.70464 6.34611 2.66763 6.23015C2.66019 6.20825 2.61201 6.23186 2.6061 6.22136C2.58104 6.17858 2.62124 6.13892 2.59439 6.09831C2.58789 6.08853 2.54085 6.08757 2.53189 6.07976C2.46139 6.01086 2.56878 5.89713 2.58755 5.87761C2.65876 5.80288 2.59662 5.76793 2.62466 5.71062C2.65264 5.65358 2.68769 5.73861 2.70474 5.67253C2.73993 5.53397 2.73183 5.35525 2.73403 5.21452C2.73444 5.15934 2.67235 5.19604 2.66958 5.18913C2.65339 5.07316 2.72109 4.95571 2.59439 4.89128C2.92296 4.81088 2.56185 4.82078 2.62759 4.65495C2.63292 4.64188 2.78931 4.62527 2.81216 4.67546C2.83487 4.72565 2.78633 4.80217 2.82192 4.87175C2.83229 4.88925 2.97539 4.98153 2.98501 4.9948C3.05406 5.09575 2.82103 5.11055 2.80825 5.11589C2.67085 5.1763 2.82692 5.29118 2.83853 5.32195C2.88828 5.46101 2.85575 5.57966 2.89126 5.69597C2.91441 5.77161 3.06505 5.77929 3.06118 5.83855C3.04577 6.03709 2.83405 6.10657 3.01821 6.29363C3.05752 6.33375 3.22338 6.29439 3.09243 6.43816C3.08224 6.44888 2.9656 6.55479 3.04067 6.61589C3.05081 6.62343 3.09913 6.62334 3.10317 6.63347C3.12925 6.70171 3.09055 6.74751 3.10903 6.82195C3.12754 6.89643 3.1547 6.98592 3.13833 7.07097C3.12852 7.12212 3.03875 7.18783 3.01626 7.21257C2.95251 7.2819 3.05721 7.3571 2.98013 7.40007C2.90251 7.4434 2.78418 7.35872 2.73403 7.47234C2.86013 7.47654 2.99004 7.48608 3.11685 7.49284C3.11238 7.74162 3.07128 7.9864 3.07681 8.23601C3.07762 8.26698 3.14547 8.23601 3.1481 8.26921C3.15874 8.40909 3.11036 8.53135 3.12954 8.67644C3.1447 8.78889 3.21693 8.91237 3.23501 9.02995C3.09072 9.10178 3.1398 9.27625 3.12661 9.403C3.12204 9.44736 3.08352 9.44468 3.07095 9.47624C3.02464 9.59513 3.15143 9.53936 3.17153 9.57195C3.25717 9.71206 2.96909 9.72414 2.97622 9.88933C2.9789 9.89947 3.12744 10.0032 3.13931 10.0192C3.20166 10.1127 3.0866 10.0355 3.07485 10.0934C3.05408 10.2004 3.0171 10.2755 3.06216 10.401C3.07608 10.4379 3.1712 10.5256 3.09732 10.5964C3.08729 10.6055 3.0368 10.6006 3.03384 10.6081C2.98451 10.744 3.14383 10.7481 3.1979 10.8259C3.25138 10.9035 3.14204 11.0227 3.11001 11.0475C3.02921 11.1104 3.07314 11.0028 3.06704 10.9958C2.97117 10.9551 2.98717 11.0421 2.97915 11.1091C2.82249 11.1188 2.83187 11.2123 2.97134 11.1784C2.98642 11.1743 2.97201 11.1225 2.97915 11.1091C3.13285 11.1679 3.15208 11.2717 3.00845 11.3854C2.94125 11.438 2.86362 11.3882 2.89224 11.5495C2.9052 11.6229 3.01224 11.5951 3.04165 11.6598C3.08759 11.7614 3.05488 11.8836 3.03482 11.9997C3.02567 12.0379 3.02203 12.0769 3.03091 12.111C3.04159 12.1501 3.09459 12.1048 3.10415 12.1296C3.12963 12.193 3.1022 12.2638 3.1481 12.3219C3.15256 12.3265 3.20403 12.292 3.21255 12.3092C3.26208 12.418 3.30184 12.5232 3.3815 12.6188C3.40151 12.6426 3.42435 12.6654 3.44985 12.6862C3.51146 12.7391 3.65012 12.777 3.72232 12.8063C3.80236 12.8423 3.89845 12.9002 3.99966 12.9216C4.07976 12.9335 4.15585 12.94 4.22134 12.9323C4.34134 12.9183 4.31543 12.8563 4.36685 12.8141C4.46565 12.7332 4.6398 12.8774 4.6647 12.901C4.65969 12.9026 4.56434 12.9181 4.61782 12.9489C4.64957 13.0137 4.66344 12.9022 4.6647 12.901C4.68017 12.9156 4.88533 12.9302 4.92739 12.9186C4.94939 12.9122 4.93796 12.8548 4.94888 12.8512C5.22465 12.7988 5.50121 12.7838 5.78091 12.8112C5.78583 12.8124 5.77909 12.8776 5.79067 12.8796C5.95228 12.9084 6.05578 12.8285 6.18911 12.7809C6.32267 12.7334 6.42939 12.7495 6.50845 12.862C6.60919 12.848 6.7535 12.8973 6.83657 12.9274C6.91976 12.9576 6.93179 12.8303 6.93911 12.8278C7.16717 12.7473 7.29907 12.8204 7.53579 12.8317C7.64841 12.8373 7.87187 12.8183 7.9938 12.8044C8.0901 12.7932 8.14821 12.8235 8.23696 12.8044C8.24898 12.8018 8.2372 12.745 8.24087 12.7428C8.33975 12.6752 8.29171 12.8138 8.31216 12.8385C8.38629 12.9287 8.43244 12.9766 8.55923 12.9342C8.5885 12.9245 8.67384 12.7243 8.7272 12.7126C8.79652 12.6978 8.77078 12.77 8.84341 12.7526C8.84939 12.7503 8.84889 12.7067 8.89321 12.7087C9.10107 12.7171 9.32762 12.7423 9.5436 12.738C9.57314 12.7375 9.53608 12.6675 9.57876 12.6657C9.77884 12.6574 9.9981 12.6603 10.193 12.693C10.241 12.7013 10.2109 12.7507 10.2213 12.7653C10.2853 12.8534 10.3763 12.7248 10.3913 12.7223C10.7485 12.6608 11.0223 12.7766 11.3864 12.7214C11.4079 12.7163 11.559 12.582 11.6266 12.6989C11.6313 12.7067 11.6989 12.8272 11.7584 12.7448C11.7607 12.7379 11.721 12.6782 11.7926 12.6842C11.8458 12.6888 11.923 12.6677 11.9997 12.6823C12.0144 12.6878 12.0297 12.698 12.0456 12.7155C12.0608 12.7362 12.1257 12.8513 12.1627 12.7458C12.1718 12.7375 12.176 12.5124 12.2487 12.6423C12.2608 12.6635 12.3178 12.8139 12.3473 12.7106C12.3512 12.691 12.3162 12.669 12.3336 12.6354C12.3575 12.5852 12.4345 12.5843 12.4303 12.4948C12.4297 12.4847 12.4117 12.4374 12.4167 12.4167C12.4197 12.405 12.4309 12.4012 12.4596 12.4128C12.4726 12.4183 12.5054 12.46 12.5211 12.4509C12.5987 12.4041 12.6138 12.3096 12.6764 12.2419C12.699 12.217 12.7745 12.2595 12.8073 12.2301C12.8404 12.2011 12.8775 12.1229 12.8415 12.0788C12.8051 12.0377 12.6678 12.0657 12.6588 12.0182C12.6576 12.0122 12.6571 12.0057 12.6559 11.9997C12.6172 11.6011 12.6924 11.2055 12.7038 10.8073C12.7053 10.7471 12.6569 10.7971 12.6559 10.7077C12.6523 10.3771 12.6063 9.80636 12.7096 9.51921C12.7925 9.28926 12.8556 9.57775 12.8893 9.40202C12.9047 9.31775 12.7492 9.22675 12.7428 9.20573C12.6922 9.00577 12.7624 8.86619 12.7409 8.6862C12.7361 8.64958 12.6717 8.68552 12.6686 8.65398C12.6576 8.54615 12.6864 8.43281 12.6813 8.32976C12.6788 8.28344 12.6297 8.29132 12.6334 8.2487C12.6419 8.14688 12.6628 8.05696 12.7086 7.95769C12.7128 7.94864 12.7736 8.00934 12.776 7.93425C12.7795 7.81225 12.8245 7.66057 12.778 7.52019C12.7639 7.47854 12.6522 7.47676 12.7292 7.38738C12.7453 7.36858 12.8795 7.39214 12.7633 7.28777C12.7438 7.26997 12.5874 7.09447 12.6881 7.00847C12.7147 6.98577 12.8255 6.92774 12.8083 6.87761C12.8049 6.87123 12.7449 6.89814 12.7389 6.8571C12.7193 6.71077 12.7255 6.55724 12.7067 6.40691C12.7016 6.36682 12.6393 6.42614 12.6334 6.36687C12.6177 6.20232 12.6345 5.99656 12.654 5.83562C12.6613 5.77627 12.7128 5.81747 12.7184 5.81316C12.8091 5.74405 12.6875 5.70246 12.6793 5.67937C12.6363 5.53603 12.6937 5.42672 12.6784 5.2946C12.6743 5.25816 12.6153 5.28424 12.61 5.27702C12.5589 5.20175 12.6648 5.25729 12.6764 5.20964C12.7093 5.07624 12.7044 4.92754 12.6969 4.79265C12.6941 4.74319 12.6267 4.79847 12.6247 4.75456C12.6135 4.50479 12.6184 4.24501 12.651 3.99968C12.6528 3.99324 12.6542 3.98665 12.6559 3.98015C12.6623 3.95609 12.7155 3.96831 12.7272 3.96257C12.8089 3.91698 12.687 3.87252 12.6735 3.86589C12.6137 3.82403 12.6521 3.79353 12.6266 3.75066C12.5801 3.67666 12.5266 3.60362 12.4616 3.53874C12.3523 3.42745 12.204 3.34602 12.0651 3.32195C12.0433 3.31798 12.0213 3.31431 11.9997 3.31218C11.4941 3.28651 11.0817 3.24553 10.5836 3.25749C10.5495 3.25835 10.5839 3.32723 10.5543 3.32878C10.1728 3.34559 9.79699 3.3184 9.4147 3.33855C9.3838 3.34038 9.42853 3.40601 9.37857 3.41081C9.27528 3.42087 9.14413 3.41728 9.0397 3.39616C8.98929 3.38584 9.0567 3.33003 9.00552 3.32097C8.88637 3.29978 8.75876 3.29479 8.63638 3.30534C8.58419 3.31 8.66221 3.37781 8.59439 3.37859C8.13248 3.3853 7.67836 3.3968 7.21157 3.30925C7.17974 3.30213 7.1514 3.16582 7.08364 3.19206C7.07853 3.23019 7.07904 3.27534 7.07681 3.31609C6.40425 3.33805 5.73855 3.29025 5.06411 3.28288C5.03573 3.28259 5.08449 3.35507 5.02993 3.35515C4.71133 3.35407 4.40172 3.37377 4.07583 3.30144C4.04827 3.29541 4.05566 3.20187 3.99966 3.1862C3.99377 3.1836 3.98658 3.18316 3.97817 3.1862C3.96716 3.189 3.88233 3.21367 3.86685 3.24577C3.86506 3.25036 3.88858 3.30637 3.86587 3.31316C3.73433 3.34785 3.60435 3.40146 3.47915 3.47917C3.47436 3.48215 3.46927 3.48493 3.4645 3.48796C3.44347 3.50145 3.4152 3.43897 3.39907 3.4489C3.27976 3.52891 3.25231 3.68178 3.16665 3.79363C3.1091 3.87399 3.00826 3.82105 2.89224 3.86589C2.87538 3.87269 2.86695 3.9451 2.80435 3.94695C2.64533 3.95281 2.47407 3.89787 2.30435 3.90788C2.26697 3.91109 2.30386 4.06144 2.21743 3.97136C2.21083 3.96521 2.18657 3.85011 2.16079 3.81804C2.14209 3.7961 2.07497 3.82636 2.05337 3.78093C2.03238 3.73433 2.09167 3.69529 2.07485 3.6198C2.05949 3.54312 1.97804 3.55824 2.0104 3.40984C2.07719 3.10616 2.29602 2.75672 2.54653 2.54655C2.58088 2.51675 2.615 2.48884 2.64907 2.46355C2.73718 2.39992 2.7209 2.46565 2.78286 2.42644C2.9042 2.35232 3.00781 2.26607 3.14224 2.22136C3.18599 2.20785 3.16209 2.28827 3.20669 2.27312C3.44909 2.19297 3.68149 2.12156 3.93911 2.12566C3.95929 2.12606 3.97955 2.12658 3.99966 2.12761ZM7.31997 13.3346C7.35342 13.2635 7.22957 13.2578 7.25552 13.3317C7.25703 13.3346 7.31666 13.3374 7.31997 13.3346ZM11.2741 13.2897C11.2711 13.2291 11.2095 13.2456 11.2292 13.3014C11.2304 13.3048 11.2744 13.3082 11.2741 13.2897ZM2.94692 13.0534C2.98197 13.0913 3.01984 13.1268 3.05825 13.1618C2.98986 13.1672 2.93077 13.1415 2.90689 13.0925C2.8946 13.0671 2.8921 13.0353 2.90103 12.9997C2.91563 13.0179 2.93097 13.0361 2.94692 13.0534ZM13.442 12.1159C13.3362 12.0336 13.2862 12.3173 13.4137 12.278C13.4227 12.2748 13.4494 12.1216 13.442 12.1159ZM2.902 7.98503C2.80306 8.08574 2.94864 8.15471 3.02505 8.08366C3.10132 8.01264 2.93201 7.95436 2.902 7.98503ZM2.82974 6.94109C2.75234 7.05857 3.06978 7.07683 3.00552 6.95085C3.00024 6.94354 2.83424 6.93424 2.82974 6.94109ZM2.75161 5.90495C2.70864 5.94165 2.75776 6.04682 2.81118 6.00163C2.85422 5.96489 2.80513 5.85924 2.75161 5.90495ZM2.57681 4.00261C2.59285 3.98072 2.74595 4.12582 2.74771 4.14323L2.73208 4.23503C2.67425 4.43576 2.47675 4.52581 2.50259 4.278C2.50795 4.22668 2.58632 4.38824 2.61001 4.32292C2.65294 4.20353 2.48859 4.12446 2.57681 4.00261ZM2.91275 3.62663C2.97073 3.67458 3.01022 3.58214 2.93423 3.57488C2.93009 3.57686 2.91015 3.62441 2.91275 3.62663Z" fill="#555961"/>
<path d="M7.91863 7.97522C7.93156 7.9312 8.19334 7.90474 8.16375 7.95276C8.15713 7.96075 8.0798 7.93396 8.05632 7.94495C8.01422 7.96514 8.17802 7.97902 8.0905 7.99964C8.07432 8.00339 7.91773 7.97782 7.91863 7.97522ZM8.44988 2.67054C8.45623 2.67166 8.48494 2.68557 8.51433 2.68909C8.53494 2.69154 8.59921 2.68704 8.62566 2.69202C8.65204 2.69702 8.59854 2.70229 8.62957 2.71058C8.66103 2.71882 8.73422 2.71554 8.74285 2.73206C8.76212 2.77041 8.74115 2.82085 8.71257 2.85901C8.70379 2.87085 8.66455 2.86487 8.65593 2.87269C8.64048 2.88888 8.6597 2.90453 8.64129 2.92054C8.63447 2.92562 8.57333 2.91922 8.56707 2.92444C8.53924 2.95492 8.55506 2.98439 8.54168 3.01526C8.47575 3.16719 8.45218 3.31655 8.42351 3.47034C8.4141 3.52109 8.35653 3.58297 8.38152 3.63538C8.38469 3.64145 8.44045 3.63813 8.445 3.63929C8.51334 3.65728 8.40438 3.65116 8.38836 3.66272C8.32992 3.70996 8.32419 3.76275 8.34539 3.80823C8.35462 3.82761 8.46463 3.80826 8.403 3.82776C8.39839 3.82906 8.3399 3.82443 8.33367 3.82972C8.32003 3.84173 8.33024 3.86425 8.32586 3.87366C8.31661 3.89163 8.31675 3.8948 8.31609 3.91175C8.31466 3.93502 8.28619 3.96295 8.29949 3.98792C8.30472 3.99265 8.3627 3.98643 8.37273 3.99476C8.38264 4.00341 8.37704 4.02531 8.36297 4.03284C8.34846 4.04025 8.30147 4.03737 8.2907 4.0387C8.19997 4.04978 8.32663 4.07637 8.32976 4.07972C8.38238 4.14048 8.31133 4.19259 8.31121 4.24964C8.3114 4.27688 8.32062 4.30602 8.32683 4.33362C8.33052 4.36615 8.33054 4.399 8.32488 4.42933C8.30545 4.52745 8.2452 4.59176 8.20281 4.67054C8.19808 4.67894 8.26263 4.70674 8.25847 4.71839C8.23417 4.761 8.20275 4.80056 8.16668 4.83362C8.10073 4.89434 8.01547 4.93464 7.92644 4.93909C7.91285 4.93957 7.90247 4.87607 7.88836 4.87269C7.79349 4.85566 7.71512 4.74383 7.67254 5.01331C7.67061 5.01296 7.66863 5.0127 7.66668 5.01233C7.64914 5.00205 7.62831 4.9909 7.60711 4.94007C7.59257 4.90611 7.59822 4.83758 7.58562 4.8678C7.58312 4.87532 7.59259 4.93204 7.58855 4.93812C7.57137 4.96174 7.54711 4.94635 7.53386 4.98011C7.53141 4.98743 7.54273 5.03883 7.54363 5.04847C7.55153 5.12518 7.51231 5.00546 7.50554 4.99573C7.46433 4.93477 7.45047 4.9668 7.42742 4.97327C7.42191 4.97474 7.45102 5.03987 7.44695 5.04358C7.42592 5.06177 7.4005 5.06523 7.36297 5.04847C7.35446 5.04405 7.33273 4.98973 7.32683 4.98401C7.30148 4.96524 7.35175 5.06767 7.32976 5.0514C7.3246 5.04681 7.30226 5.00368 7.29851 4.99769C7.24774 4.92327 7.30325 5.03749 7.30339 5.04065C7.30274 5.08468 7.21863 4.98218 7.20672 5.01331C7.2078 5.01912 7.24869 5.06722 7.24382 5.07386C7.21948 5.10762 7.18572 5.12748 7.13836 5.13831C7.12212 5.14202 7.10415 5.14433 7.08464 5.14612C7.07275 5.14732 7.03972 5.10977 7.03484 5.10608C6.95669 5.05079 7.04841 5.14014 7.05047 5.14515C7.06251 5.18341 6.9634 5.13822 7.07683 5.23987C6.97881 5.28839 7.01847 5.3973 6.86394 5.45179C6.86213 5.45263 6.80483 5.43535 6.79851 5.43616C6.75603 5.4598 6.85156 5.47889 6.96453 5.52112C6.99295 5.53078 6.85061 5.51713 6.83855 5.51722C6.79929 5.5155 6.70763 5.49331 6.69988 5.49378C6.64017 5.50062 6.94421 5.54966 6.94207 5.56507C6.93888 5.56503 6.88523 5.55464 6.87957 5.5553C6.86164 5.55759 6.8829 5.56585 6.86297 5.568C6.81631 5.57243 6.66746 5.56265 6.75261 5.58948C6.76578 5.59269 6.93516 5.60417 6.92937 5.6178C6.92541 5.62356 6.92702 5.65048 6.9157 5.65784C6.90401 5.66515 6.84783 5.65935 6.84539 5.6598C6.83671 5.66229 6.82864 5.66475 6.82097 5.66663C6.76254 5.68148 6.727 5.67623 6.62957 5.69007C6.51975 5.70741 6.78271 5.69535 6.81218 5.69886C6.84038 5.70236 6.7804 5.72193 6.75945 5.72815C6.73836 5.73409 6.70193 5.73098 6.69011 5.73597C6.61377 5.77047 6.82175 5.73666 6.86394 5.74085C6.96236 5.74776 6.7729 5.78323 6.75554 5.80628C6.75122 5.81208 6.79471 5.80168 6.79949 5.8053C6.81696 5.819 6.75997 5.84151 6.81804 5.84925C6.82772 5.85114 6.94498 5.83758 6.86394 5.86683C6.85226 5.87122 6.80431 5.87942 6.79558 5.88929C6.78249 5.90395 6.77768 5.92632 6.79656 5.93323C6.8106 5.93809 6.88375 5.90553 6.86394 5.92249C6.85484 5.93038 6.80703 5.9358 6.79363 5.94983C6.7805 5.96387 6.79067 5.98647 6.79558 5.99476C6.80031 6.00266 6.85279 5.97806 6.85906 5.9762C6.88234 5.97196 6.91586 5.975 6.91668 5.9762C6.94832 6.03386 6.8932 6.14603 6.9655 6.18714C6.97152 6.18939 7.01861 6.14907 7.02117 6.14808C7.05346 6.1463 6.90859 6.23797 6.87273 6.2848C6.97404 6.20336 6.96123 6.22434 6.98113 6.2262C6.99102 6.22626 7.02562 6.19285 7.03093 6.18909C7.09535 6.14729 7.02455 6.21521 7.01043 6.23011C6.95855 6.28364 7.02882 6.23112 6.9948 6.26722C6.96135 6.30371 6.89984 6.34435 6.91082 6.35511C6.94779 6.32658 7.03003 6.23774 7.05144 6.23108C7.07334 6.22448 7.08728 6.22791 7.09636 6.23694C7.11935 6.26013 7.11632 6.32589 7.12957 6.34534C7.14711 6.37154 7.15984 6.37029 7.16472 6.39417C7.17455 6.43746 7.21563 6.35605 7.25261 6.33069C7.28817 6.3057 7.16682 6.48923 7.14422 6.53187C7.12243 6.57441 7.15017 6.53459 7.14031 6.55921C7.13057 6.58381 7.10619 6.60712 7.11004 6.62073C7.11442 6.63478 7.17998 6.57379 7.20574 6.53089C7.26097 6.44071 7.30372 6.33837 7.30339 6.38147C7.30342 6.38408 7.27354 6.43464 7.27507 6.44202C7.28888 6.49927 7.326 6.51818 7.35125 6.56897C7.35474 6.57596 7.32982 6.63342 7.33074 6.64026C7.35284 6.69146 7.37509 6.58366 7.42644 6.4723C7.37606 6.62603 7.35871 6.7242 7.38836 6.73304C7.40569 6.73769 7.41945 6.66855 7.44109 6.62269C7.44733 6.60947 7.44853 6.65846 7.45769 6.62659C7.48694 6.52184 7.50311 6.402 7.51531 6.45374C7.51488 6.45976 7.50174 6.51411 7.50457 6.51819C7.52408 6.54377 7.5456 6.43521 7.56902 6.42347C7.5872 6.41507 7.61372 6.48668 7.6364 6.49866C7.62847 6.68007 7.65724 6.63945 7.6657 6.51429H7.66668C7.69077 6.51843 7.71772 6.51478 7.73797 6.5348C7.74487 6.54173 7.73261 6.59055 7.73211 6.59827C7.72921 6.68823 7.76004 6.5703 7.76726 6.56702C7.83606 6.53716 7.83741 6.63642 7.92742 6.58655C7.93271 6.58091 8.00206 6.48318 7.9655 6.56702C7.96221 6.57249 7.9157 6.61057 7.93328 6.62855C7.94639 6.64177 7.94566 6.68595 7.96355 6.70276C7.97113 6.7097 7.98261 6.71239 8.00164 6.70862C8.0165 6.70391 8.11337 6.66079 8.05925 6.72327C8.05165 6.73143 8.02036 6.75031 8.00554 6.76429C7.95771 6.80705 8.06762 6.74294 7.98113 6.80921C7.89468 6.87594 7.82582 6.91764 7.90105 6.90491C7.90313 6.90427 8.00001 6.87215 8.00164 6.88147C8.00385 6.89536 7.98803 6.91872 7.99089 6.93128C7.99252 6.93741 8.05399 6.9216 8.05535 6.92249C8.08022 6.94704 8.07337 6.97504 8.0573 6.99964C8.04485 7.01604 8.02783 7.03341 8.01726 7.05335C8.01393 7.06192 8.09824 7.086 8.03093 7.10218C7.95653 7.11998 7.64868 7.10227 7.72136 7.14319C7.75076 7.15977 8.14266 7.18079 7.94011 7.21058C7.98968 7.26819 7.88643 7.32174 7.95769 7.37952C7.96083 7.3821 8.06787 7.39002 8.06902 7.39612C8.06663 7.4051 8.01693 7.41026 8.01238 7.41663C7.997 7.44384 8.04066 7.4695 8.03386 7.49573C8.03016 7.50516 7.97874 7.50183 7.97527 7.51331C7.97237 7.52518 8.04206 7.53335 8.00847 7.54944C7.98268 7.56158 7.84054 7.57338 7.8239 7.58948C7.9641 7.5901 7.9617 7.60202 7.99871 7.62171C8.00652 7.62525 8.05327 7.6211 8.06023 7.62269C8.08538 7.62997 8.04555 7.63725 8.07293 7.64417C8.08084 7.64577 8.1275 7.64575 8.13543 7.6471C8.20526 7.6588 8.09751 7.67797 8.07879 7.68128C8.00853 7.69386 8.06966 7.69997 8.04265 7.7096C8.01461 7.71932 7.97861 7.70509 7.9616 7.71644C7.92703 7.73987 7.93445 7.76983 7.9323 7.79358C7.93174 7.80282 7.99172 7.7976 7.99675 7.79847C8.01291 7.81817 7.94566 7.83734 8.07293 7.84827C7.74409 7.86193 8.10374 7.86022 8.03875 7.88831C8.03344 7.89052 7.87897 7.89378 7.85515 7.88538C7.83239 7.87689 7.88038 7.86397 7.84539 7.85218C7.83709 7.8494 7.69295 7.83306 7.6823 7.83069C7.61366 7.81365 7.84282 7.81111 7.85808 7.81019C7.99596 7.7999 7.83867 7.78019 7.82781 7.77503C7.77903 7.75163 7.81066 7.73212 7.77605 7.71253C7.75338 7.69977 7.60424 7.69793 7.60515 7.68812C7.62055 7.65443 7.83256 7.64267 7.6491 7.61097C7.60979 7.60415 7.44295 7.60998 7.5739 7.58558C7.58351 7.58384 7.70095 7.56668 7.62566 7.55628C7.61551 7.55504 7.56985 7.55495 7.56414 7.55335C7.53776 7.54173 7.57582 7.53378 7.5573 7.52112C7.53878 7.50848 7.51159 7.49257 7.528 7.47815C7.53857 7.46951 7.6274 7.45892 7.65007 7.45472C7.71385 7.44294 7.60996 7.42979 7.68718 7.42249C7.76466 7.41522 7.88207 7.42988 7.9323 7.41077C7.80637 7.41006 7.67712 7.40801 7.55047 7.40687C7.55499 7.36469 7.59499 7.3232 7.58953 7.28089C7.58871 7.27563 7.52086 7.28067 7.51824 7.27503C7.50796 7.25136 7.55596 7.23026 7.53679 7.20569C7.52132 7.18675 7.45072 7.16592 7.4323 7.14612C7.45968 7.1438 7.47963 7.13879 7.4948 7.13538C7.44188 7.11562 7.39578 7.02074 7.35027 7.03187C7.31932 7.03889 7.30994 7.09973 7.28679 7.13733C7.24012 7.20981 7.23625 7.05588 7.23894 7.03284C7.24037 7.03187 7.26752 7.02501 7.26433 6.99183C7.27624 6.92846 7.24147 7.02658 7.23894 7.03284C7.23859 7.01778 7.19731 6.98933 7.18425 6.99671C7.17702 7.00095 7.15943 7.05711 7.15593 7.05823C7.07287 7.08348 6.99766 7.06579 6.94695 7.00745C6.94912 7.00139 6.97874 6.94887 6.97722 6.94593C6.95633 6.90217 6.895 6.95881 6.83953 6.98011C6.78439 7.00154 6.76733 6.97068 6.81609 6.8678C6.78743 6.86431 6.7881 6.80294 6.79168 6.76722C6.79527 6.7321 6.71527 6.82502 6.70964 6.82874C6.61673 6.85177 6.63087 6.77964 6.6032 6.73011C6.60193 6.72785 6.60076 6.72545 6.59929 6.72327C6.58303 6.69921 6.53073 6.66942 6.49968 6.65394C6.47527 6.6418 6.48861 6.61231 6.45964 6.60608C6.45585 6.60521 6.41571 6.63926 6.41082 6.64222C6.34045 6.66221 6.45874 6.58816 6.47527 6.56897C6.53543 6.49988 6.56855 6.46493 6.51726 6.46448C6.50576 6.46496 6.32818 6.55866 6.30925 6.55237C6.28648 6.54436 6.34995 6.5119 6.32586 6.50452C6.32378 6.50385 6.28578 6.52687 6.28093 6.51526C6.25816 6.46185 6.25174 6.39598 6.22332 6.34534C6.21951 6.33822 6.1597 6.377 6.153 6.36683C6.12176 6.31915 6.10057 6.25881 6.11394 6.1969C6.11751 6.18159 6.16745 6.17398 6.18035 6.16663C6.25866 6.12318 6.12937 6.13925 6.12566 6.13538C6.03807 6.05617 6.13521 5.95783 6.06804 5.86976C6.06272 5.86573 5.92353 5.83608 6.03875 5.80628C6.04936 5.80319 6.16331 5.77723 6.08172 5.76722C6.07652 5.76644 6.01538 5.78207 6.02019 5.76136C6.02528 5.74102 5.98255 5.70796 6.05047 5.67933C6.05771 5.67631 6.07673 5.67192 6.09441 5.66663C6.1288 5.65612 6.15972 5.64274 6.09734 5.62464C6.09053 5.62439 5.87568 5.57293 6.02605 5.56605C6.05223 5.56519 6.20699 5.57734 6.12957 5.54261C6.11438 5.53558 6.07795 5.54336 6.0573 5.52601C6.02559 5.49856 6.07111 5.47181 6.00554 5.43226C5.99358 5.4257 5.89167 5.38604 5.97429 5.3805C5.98736 5.3798 6.03913 5.39368 6.04656 5.38538C6.08191 5.34666 6.05735 5.29317 6.10418 5.25843C6.12068 5.24645 6.20112 5.27594 6.22722 5.26722C6.25334 5.25834 6.28284 5.23661 6.25066 5.2096C6.21848 5.18207 6.08355 5.15733 6.08172 5.12855C6.0754 5.0004 6.1984 4.92398 6.26531 4.8346C6.27536 4.82103 6.22641 4.80804 6.23894 4.78577C6.28221 4.70446 6.35214 4.54083 6.48406 4.55433C6.58651 4.56701 6.57953 4.66518 6.63445 4.65687C6.64106 4.65595 6.63996 4.64735 6.63445 4.6344C6.61826 4.59718 6.56825 4.52497 6.56707 4.51722C6.57214 4.44277 6.64776 4.46957 6.67156 4.42347C6.67667 4.41368 6.62843 4.36891 6.63347 4.36097C6.65075 4.33324 6.6941 4.33683 6.71453 4.31604C6.72292 4.30623 6.69426 4.26863 6.70574 4.26429C6.73478 4.25469 6.76863 4.25716 6.81609 4.28187C6.82029 4.2844 6.83804 4.34428 6.85613 4.33655C6.88599 4.32242 6.94171 4.34275 6.95281 4.28479C6.95592 4.2674 6.90616 4.16683 6.96257 4.22522C6.97446 4.23743 7.02656 4.3611 7.00164 4.24476C6.99626 4.22578 6.97961 4.06125 7.04168 4.14515C7.05801 4.1673 7.11232 4.26342 7.11785 4.2428C7.11709 4.23722 7.09138 4.18777 7.09832 4.17737C7.12854 4.14486 7.17053 4.13674 7.20476 4.10706C7.214 4.09901 7.18075 4.04456 7.195 4.03382C7.23241 4.00808 7.28757 4.00746 7.33367 4.01526C7.33468 3.99091 7.33535 3.96658 7.32781 3.94202C7.32628 3.93669 7.26022 3.94374 7.25554 3.93519C7.24554 3.91766 7.24911 3.89527 7.27019 3.87757C7.28102 3.86931 7.33736 3.88034 7.34636 3.87171C7.3673 3.85155 7.37155 3.8299 7.36101 3.80921C7.35509 3.80094 7.28986 3.81361 7.28875 3.80237C7.28205 3.72407 7.27004 3.64712 7.35711 3.568C7.36312 3.56256 7.50065 3.55709 7.47429 3.54554C7.43635 3.54468 7.39179 3.54494 7.35125 3.54456C7.32928 3.43036 7.37611 3.31728 7.38347 3.20276C7.37992 3.19876 7.31101 3.20599 7.31121 3.1969C7.31225 3.14284 7.29259 3.0901 7.36492 3.03479C7.3733 3.02946 7.49891 3.03207 7.48113 3.01624C7.4776 3.01339 7.46004 2.98938 7.4323 2.98304C7.42811 2.98218 7.36861 2.98601 7.36687 2.97815C7.35786 2.93257 7.3714 2.88498 7.40789 2.83948C7.41423 2.83225 7.47718 2.83979 7.48211 2.8346C7.51589 2.79747 7.46742 2.7568 7.52507 2.72132C7.564 2.69756 7.67454 2.7066 7.78289 2.69397C7.79803 2.69211 7.80112 2.67715 7.86394 2.6764C8.02234 2.67446 8.19612 2.68225 8.36492 2.67933C8.40068 2.67858 8.36223 2.65891 8.44988 2.67054ZM7.85515 7.65979C7.81232 7.66605 7.86222 7.68416 7.9157 7.6764C7.95829 7.67013 7.90856 7.65206 7.85515 7.65979ZM7.64129 7.30628C7.56585 7.31829 7.73388 7.32801 7.76433 7.32288C7.86327 7.30578 7.7177 7.29422 7.64129 7.30628ZM7.62957 7.15003C7.64132 7.15801 7.65657 7.1421 7.66668 7.1305C7.65644 7.12751 7.64595 7.1256 7.63543 7.12366C7.63202 7.13709 7.62862 7.14934 7.62957 7.15003ZM7.49089 7.09046C7.44762 7.12429 7.54846 7.07984 7.57488 7.06116C7.5766 7.06008 7.57817 7.05826 7.57976 7.05726C7.57205 7.05686 7.56331 7.05541 7.55437 7.0553C7.52951 7.0682 7.50487 7.08025 7.49089 7.09046ZM7.52703 7.0094C7.46625 7.02118 7.58094 7.00602 7.59246 7.00745C7.61375 7.01018 7.64901 7.00196 7.60613 7.01624C7.60133 7.01741 7.58896 7.0221 7.57683 7.02698C7.58598 7.02593 7.59514 7.02419 7.60418 7.02308C7.61876 7.01758 7.63389 7.01284 7.63543 7.01233C7.65346 7.00531 7.64128 7.00972 7.61785 7.02112C7.62353 7.02037 7.62912 7.01997 7.63445 7.01917C7.64729 7.01104 7.65618 7.00481 7.66277 7.00062C7.61788 7.00208 7.53385 7.00669 7.52703 7.0094ZM7.66668 7.00062C7.66212 7.0062 7.65779 7.01145 7.65398 7.01624C7.67712 7.01184 7.69183 7.00638 7.69011 6.99964C7.68761 6.99926 7.67888 7.00025 7.66668 7.00062ZM7.68035 6.98597C7.70062 6.96621 7.72079 6.94735 7.73308 6.93421C7.74614 6.92024 7.74951 6.91181 7.73797 6.91858C7.7308 6.9232 7.70495 6.95636 7.68035 6.98597ZM6.98308 6.39417C6.92989 6.44193 6.94234 6.4617 6.98894 6.40394C6.9907 6.40163 6.98537 6.39271 6.98308 6.39417ZM6.63347 5.818C6.57367 5.8273 6.59233 5.83609 6.64714 5.82386C6.65041 5.82313 6.65214 5.81512 6.63347 5.818ZM6.8239 5.39222C6.71699 5.34393 6.69068 5.38719 6.81121 5.41175C6.81739 5.41273 6.82905 5.39471 6.8239 5.39222ZM7.38152 4.13733C7.35812 4.17866 7.35181 4.23007 7.35515 4.26819C7.35645 4.29193 7.36189 4.31418 7.3698 4.33362C7.39346 4.26805 7.41943 4.20873 7.40984 4.14026C7.40952 4.13778 7.39629 4.13732 7.38152 4.13733ZM7.66668 3.95569C7.61882 3.94605 7.5649 3.96601 7.53875 4.01526C7.53795 4.01711 7.53994 4.01939 7.5407 4.02308C7.57621 4.04255 7.61089 4.03799 7.64422 4.03089C7.65791 4.02791 7.64177 3.96061 7.65398 3.95765C7.65809 3.95699 7.66254 3.95622 7.66668 3.95569ZM7.81609 2.74183C7.74536 2.73631 7.73967 2.75696 7.81316 2.75257C7.81614 2.75239 7.81904 2.74208 7.81609 2.74183Z" fill="#555961"/>
<path d="M7.93458 13.2929C7.99296 13.259 8.18996 13.2441 8.16407 13.2861C8.15845 13.2947 8.0803 13.2672 8.05665 13.2783C8.01355 13.2986 8.17825 13.3123 8.08985 13.333C8.0721 13.3363 7.91806 13.3111 7.91895 13.3086L7.93458 13.2929ZM8.44923 8.00386C8.45511 8.00468 8.48482 8.0189 8.51466 8.02242C8.53536 8.02485 8.59961 8.02036 8.62599 8.02535C8.65179 8.03033 8.59896 8.03564 8.62989 8.0439C8.66152 8.05205 8.7336 8.04892 8.7422 8.06539C8.76171 8.1038 8.74059 8.15408 8.71192 8.19234C8.70286 8.20379 8.66517 8.19848 8.65626 8.20601C8.64082 8.22218 8.65989 8.23789 8.64161 8.25386C8.63544 8.25906 8.57471 8.2528 8.56739 8.25777C8.53956 8.28824 8.55539 8.31772 8.542 8.34859C8.47604 8.50054 8.45251 8.64985 8.42384 8.80367C8.41443 8.85442 8.35685 8.91629 8.38184 8.96871C8.38272 8.97006 8.38663 8.96818 8.39161 8.96871C8.3794 8.9751 8.33793 8.99746 8.33302 8.99996C8.333 9.00123 8.33291 9.00256 8.33302 9.00386C8.35928 9.01319 8.3855 9.02286 8.41212 9.02437C8.46856 9.02724 8.53313 9.01153 8.58692 9.02535C8.65094 9.04221 8.69479 9.08883 8.75489 9.10347C8.76124 9.10512 8.77685 9.03697 8.78516 9.03707C8.8727 9.05877 8.95521 9.10605 9.00587 9.19136C9.00908 9.20112 8.97026 9.24718 8.97266 9.25875C8.99304 9.32994 8.97236 9.46609 9.16309 9.27242C9.18534 9.30307 9.21272 9.3412 9.19825 9.4023C9.18854 9.44136 9.12851 9.47757 9.16505 9.47261C9.1738 9.47066 9.20937 9.42374 9.21876 9.42574C9.22446 9.42699 9.22958 9.42919 9.23438 9.4316C9.26311 9.44633 9.27816 9.4769 9.31739 9.48238C9.32737 9.48269 9.3649 9.44853 9.37403 9.44332C9.44529 9.40735 9.36542 9.51246 9.36134 9.52242C9.33599 9.60152 9.37619 9.61114 9.39845 9.64839C9.40345 9.65699 9.45607 9.60971 9.46388 9.61617C9.50061 9.65488 9.52247 9.70748 9.51563 9.76656C9.51252 9.77963 9.45485 9.79631 9.45118 9.80367C9.43516 9.835 9.54082 9.79323 9.52833 9.8232C9.52556 9.8294 9.4782 9.84702 9.47169 9.85054C9.39388 9.89672 9.5155 9.85872 9.51954 9.86129C9.57028 9.88883 9.45583 9.95767 9.48341 9.98824C9.48704 9.99214 9.54681 9.96336 9.55372 9.97554C9.59756 10.0594 9.59707 10.1657 9.54981 10.2568C9.54255 10.2709 9.49236 10.2643 9.48634 10.2656C9.39281 10.2837 9.52042 10.2863 9.5254 10.291C9.54025 10.3052 9.52905 10.3197 9.52345 10.333C9.51602 10.3509 9.51868 10.3662 9.6045 10.3837C9.54728 10.5293 9.59125 10.7097 9.40724 10.7939C9.40511 10.7949 9.3496 10.768 9.34474 10.7695C9.29599 10.7925 9.38891 10.8244 9.48243 10.9052C9.50371 10.9255 9.36777 10.8813 9.35645 10.8769C9.31883 10.8647 9.23916 10.814 9.23145 10.8125C9.1733 10.7996 9.4418 10.944 9.4297 10.9707C9.42639 10.9694 9.3809 10.9402 9.37501 10.9394C9.35666 10.9368 9.37181 10.9533 9.35157 10.9492C9.30388 10.9392 9.17588 10.8634 9.23731 10.9287C9.2452 10.9374 9.39448 11.03 9.37306 11.0468C9.36443 11.054 9.34082 11.0905 9.32423 11.0937C9.30774 11.0966 9.26863 11.0559 9.26563 11.0546C9.18757 11.0331 9.17041 11.0047 9.07618 10.9453C8.98373 10.8847 9.18559 11.0494 9.20509 11.0742C9.22317 11.0982 9.16183 11.0752 9.14259 11.0644C9.12321 11.0538 9.10084 11.0243 9.08888 11.0195C9.01218 10.9874 9.17636 11.1187 9.19923 11.1552C9.22128 11.1916 9.20595 11.1921 9.1797 11.1796C9.14326 11.1626 9.08604 11.1206 9.06934 11.1211C9.06195 11.1216 9.09495 11.1505 9.09376 11.1572C9.08789 11.1837 9.03969 11.1467 9.05665 11.205C9.06121 11.2165 9.115 11.3182 9.05177 11.2597C9.04259 11.2508 9.01673 11.21 9.00294 11.207C8.98232 11.2025 8.95699 11.2073 8.95411 11.2285C8.95206 11.2445 9.00823 11.3035 8.98243 11.291C8.97108 11.285 8.95426 11.2402 8.93556 11.2324C8.91696 11.2245 8.89413 11.2412 8.88575 11.248C8.87778 11.2551 8.91366 11.3046 8.91505 11.3086C8.92242 11.3315 8.91792 11.3682 8.91602 11.3691C8.82805 11.4264 8.70747 11.3648 8.62989 11.4209C8.62349 11.4253 8.64437 11.486 8.64356 11.4873C8.62484 11.5186 8.60151 11.3503 8.57227 11.2988C8.60578 11.424 8.59001 11.4041 8.57618 11.4218C8.57032 11.4316 8.58446 11.4779 8.58497 11.4834C8.58788 11.5605 8.55877 11.4674 8.55274 11.4472C8.53051 11.3759 8.53787 11.4629 8.52345 11.415C8.5099 11.3673 8.50847 11.2934 8.49415 11.2968C8.49731 11.3435 8.53024 11.4618 8.52052 11.4834C8.4806 11.5662 8.37348 11.4788 8.33692 11.4677C8.33574 11.4674 8.33415 11.467 8.33302 11.4668C8.31337 11.4587 8.30797 11.4669 8.29298 11.4531C8.26258 11.4286 8.29093 11.515 8.29591 11.5566C8.30348 11.5976 8.22796 11.3898 8.20899 11.3457C8.18836 11.3025 8.20247 11.3496 8.18849 11.3271C8.17383 11.3049 8.17125 11.2708 8.15626 11.2666C8.1395 11.2631 8.15044 11.3526 8.17481 11.3964C8.22401 11.4902 8.28669 11.5823 8.25782 11.5546C8.25588 11.5531 8.22571 11.503 8.21974 11.5C8.19735 11.4893 8.17767 11.4899 8.15919 11.4931C8.1389 11.4968 8.11949 11.5039 8.09181 11.5087C8.08429 11.5101 8.03165 11.4708 8.02638 11.4716C7.97085 11.4844 8.07182 11.5297 8.17579 11.5927C8.03145 11.5201 7.93588 11.4869 7.92188 11.5224C7.91437 11.5427 7.98315 11.5608 8.02833 11.5839C8.0421 11.5903 7.9924 11.5902 8.02442 11.5996C8.12954 11.6277 8.24958 11.6452 8.2002 11.6474C8.19728 11.6476 8.14137 11.6381 8.13575 11.6396C8.1153 11.6512 8.18336 11.6616 8.21876 11.6669C8.22753 11.6712 8.23452 11.6757 8.23731 11.6816C8.24811 11.705 8.17925 11.7468 8.16798 11.7734C8.16645 11.7734 8.16459 11.7734 8.16309 11.7734C8.23435 11.7848 8.24266 11.7985 8.15333 11.8076H8.15235C8.14725 11.8247 8.15467 11.8437 8.1377 11.8603C8.13183 11.866 8.07952 11.8626 8.07325 11.8632C7.98493 11.8742 8.10318 11.8819 8.11036 11.8857C8.15686 11.9261 8.0649 11.9585 8.15528 11.997C8.16033 11.9984 8.28396 12.0015 8.19239 12.0117C8.18571 12.0123 8.12846 11.9995 8.12403 12.0175C8.1192 12.0357 8.05229 12.0696 8.11036 12.0947C8.12443 12.1008 8.22683 12.1165 8.14747 12.1289C8.13665 12.1305 8.10032 12.1285 8.08009 12.1308C8.01592 12.1385 8.14287 12.1433 8.03516 12.1523C7.92666 12.1613 7.84507 12.1796 7.91993 12.205C7.92449 12.206 8.02131 12.2119 8.02149 12.2197C8.01888 12.2323 7.99784 12.2504 7.99806 12.2636C7.9984 12.2698 8.05738 12.2668 8.06251 12.2675C8.09773 12.3104 8.04191 12.3408 8.01759 12.3867C8.01356 12.3952 8.09855 12.4193 8.03126 12.4355C7.95707 12.4534 7.64817 12.4354 7.72169 12.4765C7.7514 12.4931 8.14222 12.5141 7.93946 12.5439C7.98973 12.6017 7.88625 12.6549 7.95802 12.7128C7.96124 12.7154 8.06868 12.7233 8.06934 12.7294C8.06698 12.7383 8.01797 12.7437 8.0127 12.75C7.99732 12.7772 8.04098 12.8028 8.03419 12.8291C8.0308 12.8386 7.97931 12.8352 7.97559 12.8466C7.9727 12.8585 8.04193 12.8667 8.0088 12.8828C7.98329 12.8949 7.84163 12.9068 7.82423 12.9228C7.96442 12.9234 7.96202 12.9353 7.99903 12.955C8.0077 12.9584 8.05476 12.9543 8.06056 12.956C8.08561 12.9633 8.04529 12.9706 8.07227 12.9775C8.07877 12.9792 8.12587 12.9791 8.13477 12.9804C8.20528 12.9921 8.09786 13.0113 8.07911 13.0146C8.00802 13.0273 8.07003 13.0332 8.042 13.0429C8.01399 13.0525 7.9789 13.0384 7.96192 13.0498C7.92712 13.0732 7.93477 13.1031 7.93263 13.1269C7.93204 13.1364 7.99568 13.1304 7.99708 13.1318C8.01271 13.1514 7.94595 13.1707 8.07227 13.1816C7.74457 13.1952 8.10274 13.1937 8.03907 13.2216C8.03374 13.2239 7.87735 13.2272 7.8545 13.2187C7.83237 13.2102 7.8802 13.1973 7.84474 13.1855C7.83392 13.1825 7.6904 13.1662 7.68165 13.164C7.61397 13.147 7.84566 13.1444 7.85841 13.1435C7.99614 13.1332 7.83899 13.1135 7.82813 13.1084C7.77874 13.0848 7.81085 13.0656 7.7754 13.0459C7.75264 13.0331 7.60388 13.0313 7.60548 13.0214C7.62089 12.9877 7.83274 12.9761 7.64845 12.9443C7.60885 12.9375 7.44346 12.9433 7.57423 12.9189C7.58581 12.9169 7.70053 12.8999 7.62599 12.8896C7.61632 12.8883 7.56756 12.8884 7.56349 12.8867C7.53753 12.8751 7.57591 12.867 7.55763 12.8544C7.53911 12.8418 7.51187 12.8259 7.52833 12.8115C7.5398 12.8028 7.62837 12.7922 7.6504 12.788C7.71409 12.7763 7.6099 12.7631 7.68653 12.7558C7.76415 12.7485 7.88248 12.7634 7.93263 12.7441C7.80653 12.7434 7.67662 12.7413 7.54981 12.7402C7.5543 12.698 7.59528 12.6565 7.58985 12.6142C7.58904 12.609 7.52119 12.614 7.51856 12.6084C7.50807 12.5846 7.55632 12.5636 7.53712 12.539C7.52184 12.5199 7.44971 12.4994 7.43165 12.4794C7.5756 12.4673 7.52718 12.4375 7.54005 12.416C7.54458 12.4085 7.58295 12.4086 7.59571 12.4033C7.64204 12.3831 7.5159 12.3931 7.49513 12.3877C7.40949 12.3639 7.69757 12.361 7.69044 12.333C7.68147 12.3306 7.53888 12.3141 7.52735 12.3115C7.4652 12.2957 7.57945 12.3084 7.59181 12.2988C7.61255 12.2806 7.64927 12.2683 7.6045 12.247C7.59116 12.2408 7.49542 12.2259 7.56934 12.2138C7.57887 12.2123 7.62813 12.213 7.63282 12.2119C7.68242 12.1888 7.52298 12.1879 7.46876 12.1748C7.41468 12.1615 7.52481 12.1408 7.55665 12.1367C7.63778 12.126 7.59309 12.1444 7.59962 12.1455C7.69565 12.1524 7.67939 12.1373 7.68751 12.1259C7.84415 12.1243 7.83476 12.1085 7.69532 12.1142C7.68015 12.1149 7.69446 12.1236 7.68751 12.1259C7.53383 12.1159 7.51459 12.0984 7.65821 12.0791C7.72542 12.0701 7.80307 12.0791 7.77442 12.0517C7.76096 12.0395 7.65494 12.0439 7.62501 12.0332C7.55803 12.0081 7.65802 11.9751 7.64259 11.9492C7.63683 11.9398 7.57727 11.9488 7.5713 11.9423C7.55583 11.9254 7.59943 11.9105 7.57716 11.8935C7.57509 11.892 7.51697 11.8952 7.5127 11.8906C7.50553 11.8502 7.54481 11.8146 7.54591 11.7724C7.54629 11.752 7.5127 11.7154 7.51954 11.6943C7.52245 11.6855 7.52984 11.6764 7.53907 11.6669C7.56804 11.5947 7.62503 11.5347 7.62208 11.4814C7.62013 11.4348 7.55948 11.4257 7.52638 11.3916C7.46399 11.3202 7.63054 11.3071 7.65431 11.3134C7.6544 11.3176 7.65288 11.355 7.68849 11.3505C7.75186 11.3696 7.65632 11.3155 7.65431 11.3134C7.66952 11.3138 7.7215 11.2541 7.72169 11.2353C7.72125 11.2247 7.67148 11.1948 7.67188 11.1894C7.68118 11.1426 7.69944 11.0982 7.72559 11.0595C7.76829 10.9964 7.83233 10.9477 7.90626 10.9248C7.90867 10.9247 7.93934 10.983 7.94434 10.9824C8.01344 10.9768 8.01591 10.889 8.05958 10.8242C8.10241 10.7602 8.16321 10.7646 8.21192 10.8711C8.24681 10.853 8.30141 10.887 8.33302 10.9169C8.33408 10.9207 8.33499 10.9243 8.33595 10.9277C8.345 10.9578 8.34429 10.8296 8.34474 10.8271C8.36043 10.7473 8.37238 10.8175 8.39454 10.8271C8.40485 10.8316 8.42122 10.8105 8.42774 10.7949C8.43283 10.7826 8.44379 10.8102 8.4463 10.79C8.44589 10.7849 8.4319 10.7326 8.43165 10.7304C8.42141 10.6632 8.45309 10.7987 8.46095 10.8222C8.48979 10.9076 8.50953 10.9515 8.50977 10.9072C8.50937 10.8931 8.45645 10.7041 8.45509 10.6923C8.45481 10.6785 8.47634 10.745 8.47559 10.7275C8.47553 10.726 8.46057 10.6846 8.46388 10.6855C8.47892 10.6892 8.5031 10.7057 8.51466 10.6953C8.51622 10.694 8.48301 10.6325 8.48438 10.6298C8.4908 10.6172 8.50157 10.6136 8.52931 10.6347C8.5363 10.6401 8.56177 10.6825 8.57032 10.6943C8.62308 10.7648 8.55683 10.6545 8.55567 10.6523C8.53733 10.5912 8.62413 10.6687 8.60548 10.6103C8.60509 10.6094 8.59778 10.5997 8.58888 10.5888C8.56732 10.5619 8.53773 10.528 8.60059 10.583C8.60638 10.5886 8.69778 10.6659 8.63966 10.6074C8.63366 10.602 8.59057 10.566 8.59571 10.5654C8.60365 10.5659 8.57595 10.5355 8.63282 10.5732C8.65044 10.5856 8.74987 10.6534 8.67774 10.5898C8.67042 10.5818 8.50331 10.4533 8.62599 10.5361C8.64695 10.5502 8.7757 10.6389 8.71485 10.5869C8.70266 10.5769 8.67166 10.5591 8.65528 10.5439C8.62968 10.521 8.66991 10.5361 8.61231 10.4951C8.60232 10.4874 8.51028 10.4328 8.58302 10.4697C8.59512 10.4757 8.64039 10.5009 8.64649 10.5019C8.67601 10.506 8.64915 10.4818 8.68653 10.4873C8.70036 10.4892 8.77781 10.5242 8.80079 10.5283C8.82374 10.5324 8.84799 10.5294 8.81349 10.5107C8.77847 10.4924 8.65031 10.4514 8.64063 10.4423C8.60288 10.4076 8.68434 10.4081 8.7002 10.3818C8.7024 10.3783 8.65411 10.375 8.65333 10.3701C8.65253 10.3598 8.63955 10.3453 8.64356 10.333C8.64718 10.3226 8.66271 10.312 8.70802 10.2998C8.78894 10.2756 8.85472 10.292 8.88673 10.2734C8.8998 10.2631 8.74331 10.2754 8.73829 10.2753C8.68678 10.2699 8.75343 10.2495 8.7295 10.2412C8.72271 10.2404 8.66256 10.2559 8.65919 10.2548C8.64862 10.2515 8.67199 10.2392 8.667 10.2343C8.66412 10.2326 8.6253 10.2441 8.62013 10.2441C8.62664 10.2366 8.64464 10.2258 8.68556 10.2041C8.6897 10.2018 8.74789 10.1847 8.74806 10.1787C8.74842 10.1694 8.78485 10.1405 8.73829 10.1494C8.72407 10.1521 8.62241 10.1994 8.68946 10.1611C8.70352 10.1531 8.82487 10.0954 8.71778 10.1396C8.69929 10.1458 8.55653 10.211 8.64259 10.1582C8.66555 10.144 8.75808 10.0859 8.74122 10.0908C8.73864 10.0918 8.68915 10.1236 8.68165 10.125C8.65991 10.1266 8.65927 10.1145 8.63868 10.1171C8.63308 10.1181 8.5836 10.1574 8.57716 10.1582C8.56008 10.1604 8.56645 10.1433 8.5752 10.124C8.57859 10.1167 8.61894 10.0839 8.62306 10.08C8.68778 10.0167 8.59566 10.0956 8.58888 10.1005C8.56339 10.1163 8.5732 10.1009 8.57618 10.0908C8.57746 10.0864 8.57723 10.0832 8.57227 10.0849C8.56646 10.0882 8.52824 10.1293 8.52442 10.1328C8.48722 10.167 8.56032 10.0943 8.56739 10.083C8.5839 10.0538 8.57346 10.0501 8.56251 10.0507C8.5584 10.0511 8.51754 10.1055 8.51466 10.1054C8.49727 10.1063 8.49182 10.0949 8.49903 10.0556C8.50074 10.0477 8.52863 10.0037 8.53419 9.99312C8.57202 9.91849 8.50877 10.0142 8.50294 10.0234C8.47439 10.0634 8.49373 10.0232 8.48536 10.0273C8.4435 10.0545 8.42874 10.0174 8.40626 9.99312C8.38445 9.96819 8.36242 9.92906 8.33302 9.92281C8.28802 9.92137 8.24189 9.91779 8.19434 9.91304C8.17863 9.91245 8.18373 9.98323 8.16895 9.98238C7.9722 9.96597 7.8052 9.8545 7.6504 9.73824C7.63726 9.72997 7.60985 9.79362 7.58692 9.77828C7.58092 9.77427 7.57527 9.76937 7.56934 9.76461C7.5281 9.73166 7.4908 9.68054 7.47657 9.62984C7.46884 9.60192 7.53476 9.59757 7.52735 9.57125C7.50995 9.50996 7.48404 9.45412 7.44923 9.40328C7.43425 9.38149 7.38933 9.44554 7.37403 9.41402C7.31405 9.28526 7.27882 9.14172 7.292 8.99996C7.30146 8.96724 7.3208 8.93456 7.35743 8.90132C7.36344 8.89589 7.50097 8.89042 7.47462 8.87886C7.43648 8.87799 7.39135 8.87827 7.35059 8.87789C7.32868 8.76372 7.37643 8.65058 7.3838 8.53609C7.38287 8.53152 7.31133 8.5395 7.31153 8.53023C7.31258 8.47617 7.29292 8.42342 7.36524 8.36812C7.37554 8.36293 7.49958 8.36552 7.48048 8.34957C7.47674 8.34636 7.45992 8.32275 7.43263 8.31636C7.42843 8.31551 7.36796 8.31933 7.36622 8.31148C7.35727 8.26602 7.37093 8.21819 7.40724 8.17281C7.41325 8.16546 7.4776 8.17316 7.48243 8.16793C7.51597 8.13082 7.46766 8.09009 7.5254 8.05464C7.56444 8.03098 7.67498 8.03991 7.78321 8.0273C7.79806 8.02527 7.80109 8.0105 7.86329 8.00972C8.02172 8.00777 8.19539 8.01556 8.36427 8.01265C8.4006 8.01204 8.36183 7.99232 8.44923 8.00386ZM7.85548 12.9931C7.81254 12.9993 7.86167 13.0173 7.91505 13.0097C7.95802 13.0035 7.90891 12.9854 7.85548 12.9931ZM7.64161 12.6396C7.56528 12.6517 7.73466 12.6614 7.76466 12.6562C7.86332 12.6391 7.71799 12.6276 7.64161 12.6396ZM8.40919 11.3291C8.40971 11.332 8.42072 11.3339 8.42091 11.331C8.41998 11.2596 8.39943 11.2555 8.40919 11.3291ZM8.99415 11.041C8.99656 11.0433 9.00411 11.0408 8.99122 11.0273C8.94906 10.9836 8.95373 11.0021 8.99415 11.041ZM9.37891 10.7168C9.27421 10.6649 9.24525 10.7062 9.36231 10.7412C9.36848 10.743 9.38415 10.7196 9.37891 10.7168ZM8.31446 9.03804C8.27892 9.12045 8.33225 9.01103 8.33204 9.00386V9.00191C8.32471 9.0168 8.31711 9.03264 8.31446 9.03804ZM8.32716 9.00484C8.3202 9.01052 8.3203 9.01067 8.32032 9.01168C8.31992 9.01234 8.31944 9.0141 8.31837 9.01558C8.31334 9.02194 8.3062 9.03477 8.31349 9.02828C8.31444 9.02716 8.32287 9.01431 8.33204 9.00093C8.32274 9.00615 8.33075 9.00238 8.32716 9.00484ZM8.44434 8.97261C8.51409 8.99087 8.40253 8.98413 8.3877 8.99605C8.38626 8.99722 8.38518 8.99878 8.3838 8.99996C8.32893 8.9936 8.32611 9.00596 8.34474 8.99507C8.34867 8.99271 8.37298 8.97786 8.39161 8.96871C8.40806 8.97045 8.4399 8.97184 8.44434 8.97261ZM8.34669 8.97359C8.3441 8.97822 8.34051 8.98685 8.33595 8.99605C8.34438 8.98368 8.35314 8.97187 8.35548 8.96773C8.36032 8.95863 8.35358 8.96113 8.34669 8.97359ZM7.81641 8.07515C7.74527 8.06954 7.73954 8.09038 7.81349 8.08589C7.81646 8.08571 7.81937 8.07541 7.81641 8.07515Z" fill="#555961"/>
<path d="M10.6201 5.97434C10.6208 5.98736 10.6062 6.03889 10.6143 6.0466C10.653 6.08204 10.7064 6.05754 10.7412 6.10422C10.7532 6.12067 10.7238 6.20111 10.7324 6.22727C10.7413 6.25337 10.7631 6.28276 10.79 6.25071C10.8175 6.21872 10.8424 6.08423 10.8711 6.08176C10.9992 6.07537 11.0757 6.19839 11.165 6.26535C11.1786 6.2755 11.1917 6.22684 11.2139 6.23899C11.2952 6.28225 11.4588 6.35216 11.4453 6.4841C11.4326 6.58648 11.3345 6.57963 11.3428 6.6345C11.3437 6.64106 11.3525 6.63991 11.3652 6.6345C11.4031 6.61802 11.4778 6.56661 11.4834 6.56711C11.5577 6.57235 11.5306 6.64803 11.5772 6.6716C11.5872 6.67605 11.6305 6.62905 11.6387 6.63352C11.6665 6.65076 11.6628 6.69412 11.6836 6.71457C11.6931 6.72346 11.7308 6.69454 11.7354 6.70578C11.745 6.73482 11.7425 6.76868 11.7178 6.81614C11.7142 6.82054 11.6557 6.83829 11.6631 6.85618C11.6772 6.88608 11.6576 6.94187 11.7158 6.95285C11.7342 6.95519 11.8327 6.90713 11.7754 6.96262C11.7632 6.97451 11.6392 7.02669 11.7559 7.00168C11.7768 6.99617 11.9378 6.98012 11.8545 7.04172C11.832 7.05822 11.7366 7.11227 11.7568 7.11789C11.7601 7.11861 11.8135 7.09022 11.8233 7.09836C11.8557 7.12854 11.863 7.17061 11.8926 7.20481C11.9006 7.21401 11.9548 7.18119 11.9658 7.19504C11.9916 7.23252 11.9913 7.28757 11.9834 7.33371C12.0083 7.33482 12.0335 7.33566 12.0586 7.32785C12.0636 7.32529 12.0563 7.26099 12.0645 7.25559C12.082 7.24553 12.1043 7.24913 12.1221 7.27024C12.1306 7.28066 12.1193 7.33736 12.1279 7.34641C12.1481 7.36748 12.1697 7.37162 12.1904 7.36106C12.1992 7.35645 12.1866 7.29133 12.1973 7.28879C12.2757 7.28209 12.3534 7.26974 12.4326 7.35715C12.4381 7.36317 12.4426 7.5007 12.4541 7.47434C12.455 7.43639 12.4547 7.39183 12.4551 7.35129C12.5692 7.32935 12.6825 7.3761 12.7969 7.38352C12.8017 7.38381 12.7937 7.31195 12.8027 7.31125C12.8568 7.31233 12.9095 7.2926 12.9649 7.36496C12.9703 7.37199 12.9676 7.49812 12.9834 7.48118C12.9863 7.47764 13.0113 7.46016 13.0176 7.43235C13.0184 7.42803 13.0139 7.36951 13.0215 7.36692C13.0671 7.35785 13.1146 7.37148 13.1602 7.40793C13.1674 7.41388 13.1601 7.47616 13.165 7.48215C13.2021 7.51591 13.2429 7.46769 13.2783 7.52512C13.3021 7.56405 13.293 7.67458 13.3057 7.78293C13.3075 7.79812 13.3225 7.80111 13.3233 7.86399C13.3252 8.02238 13.3184 8.19616 13.3213 8.36496C13.322 8.40071 13.3417 8.36228 13.3301 8.44993C13.3291 8.45606 13.3141 8.48481 13.3106 8.51438C13.3081 8.535 13.3126 8.59929 13.3076 8.62571C13.3026 8.65209 13.2974 8.59859 13.2891 8.62961C13.2809 8.66112 13.2841 8.73428 13.2676 8.74289C13.2292 8.76196 13.1787 8.74116 13.1406 8.71262C13.1289 8.7036 13.135 8.66424 13.127 8.65598C13.1108 8.64052 13.0951 8.65975 13.0791 8.64133C13.0742 8.63376 13.0807 8.57235 13.0752 8.56711C13.0448 8.53934 13.0162 8.55496 12.9854 8.54172C12.8333 8.47568 12.6832 8.45225 12.5293 8.42356C12.4788 8.414 12.4174 8.3572 12.3652 8.38157C12.3591 8.38454 12.3625 8.44049 12.3613 8.44504C12.3432 8.51395 12.3487 8.40386 12.3369 8.3884C12.2896 8.32986 12.237 8.3241 12.1914 8.34543C12.1721 8.35474 12.1914 8.46465 12.1719 8.40305C12.1707 8.39791 12.1752 8.33992 12.1699 8.33371C12.1578 8.32022 12.1352 8.33051 12.126 8.3259C12.108 8.31667 12.1049 8.3168 12.0879 8.31614C12.0647 8.31452 12.0366 8.28628 12.0117 8.29953C12.0073 8.3057 12.014 8.36264 12.0059 8.37278C11.9974 8.383 11.9744 8.3772 11.9668 8.36301C11.9595 8.34836 11.9623 8.30149 11.9609 8.29075C11.9499 8.20009 11.9242 8.32668 11.9209 8.32981C11.8599 8.38314 11.8073 8.3111 11.75 8.31125C11.7229 8.31145 11.6945 8.32067 11.667 8.32688C11.6345 8.33059 11.6016 8.33052 11.5713 8.32493C11.473 8.30551 11.408 8.24528 11.3291 8.20285C11.3206 8.19832 11.2927 8.26376 11.2813 8.25852C11.2386 8.23422 11.1991 8.20279 11.166 8.16672C11.1054 8.10081 11.066 8.01544 11.0615 7.92649C11.0611 7.9129 11.1236 7.90251 11.127 7.8884C11.1439 7.79351 11.2559 7.71517 10.9863 7.67258C10.9867 7.67067 10.9869 7.66865 10.9873 7.66672C10.9976 7.64916 11.0095 7.62839 11.0606 7.60715C11.0945 7.59286 11.162 7.59802 11.1328 7.58567C11.1261 7.58291 11.0672 7.59283 11.0615 7.5886C11.0381 7.57142 11.0532 7.54713 11.0195 7.53391C11.0112 7.53182 10.9606 7.54281 10.9512 7.54368C10.8756 7.5514 10.9928 7.51275 11.0039 7.50559C11.0647 7.46448 11.0339 7.45041 11.0274 7.42746C11.0259 7.42209 10.9634 7.44948 10.957 7.447C10.9388 7.42594 10.9344 7.40061 10.9512 7.36301C10.9551 7.35449 11.0121 7.33248 11.0166 7.32688C11.035 7.30178 10.932 7.35177 10.9483 7.32981C10.9521 7.32487 10.9982 7.3017 11.0029 7.29856C11.0749 7.24942 10.969 7.30033 10.96 7.30344C10.9155 7.30306 11.0179 7.21898 10.9873 7.20676C10.9837 7.20569 10.9339 7.24841 10.9268 7.24387C10.8928 7.2195 10.8722 7.18597 10.8613 7.1384C10.8576 7.12216 10.8553 7.10421 10.8535 7.08469C10.8523 7.07288 10.8894 7.04015 10.8936 7.03489C10.948 6.95797 10.863 7.04567 10.8555 7.05051C10.8169 7.06298 10.8622 6.96375 10.7608 7.07688C10.7123 6.9785 10.6024 7.01877 10.5479 6.86399C10.547 6.86217 10.5644 6.80461 10.5635 6.79856C10.5399 6.7561 10.5217 6.8517 10.4795 6.96457C10.4698 6.993 10.4825 6.85064 10.4824 6.8386C10.4841 6.79933 10.5063 6.70767 10.5059 6.69993C10.4991 6.64074 10.4513 6.94053 10.4356 6.94211C10.4356 6.93884 10.445 6.88527 10.4443 6.87961C10.4421 6.86176 10.4348 6.88293 10.4326 6.86301C10.4282 6.81643 10.438 6.66747 10.4111 6.75266C10.408 6.76463 10.3956 6.93746 10.3818 6.92942C10.3761 6.92546 10.3492 6.92707 10.3418 6.91575C10.3346 6.90375 10.3403 6.84787 10.3399 6.84543C10.3374 6.83679 10.3349 6.82866 10.333 6.82102C10.3182 6.76265 10.3244 6.72694 10.3106 6.62961C10.2932 6.5198 10.3043 6.78276 10.3008 6.81223C10.2973 6.84035 10.2777 6.78039 10.2715 6.7595C10.2656 6.73844 10.2696 6.70203 10.2647 6.69016C10.23 6.61333 10.263 6.82176 10.2588 6.86399C10.2519 6.96265 10.2164 6.77194 10.1934 6.75559C10.1876 6.75127 10.198 6.79476 10.1943 6.79953C10.1806 6.8165 10.1591 6.76034 10.1514 6.81809C10.1495 6.82777 10.1621 6.94523 10.1328 6.86399C10.1285 6.85244 10.121 6.80513 10.1113 6.79563C10.0967 6.7825 10.0733 6.77759 10.0664 6.7966C10.0615 6.81068 10.0944 6.88434 10.0772 6.86399C10.0692 6.85486 10.0639 6.80694 10.0498 6.79368C10.0356 6.7805 10.013 6.79077 10.0049 6.79563C9.99692 6.8004 10.023 6.85365 10.0244 6.8591C10.0287 6.88252 10.0246 6.91627 10.0234 6.91672C9.96576 6.94813 9.85458 6.89345 9.81348 6.96555C9.81054 6.97087 9.84974 7.0177 9.85157 7.02121C9.85334 7.0535 9.76266 6.90866 9.71583 6.87278C9.79726 6.97408 9.77628 6.96128 9.77442 6.98118C9.77435 6.99097 9.80631 7.02519 9.81056 7.03098C9.85242 7.0955 9.78429 7.02443 9.76954 7.01047C9.71613 6.95873 9.76865 7.02902 9.73243 6.99485C9.69596 6.96137 9.65529 6.89989 9.64454 6.91086C9.6729 6.94771 9.76167 7.0299 9.76856 7.05149C9.77517 7.07339 9.77174 7.08732 9.7627 7.09641C9.73937 7.11922 9.67371 7.1164 9.65431 7.12961C9.62834 7.14708 9.62929 7.1599 9.60548 7.16477C9.56288 7.17472 9.64463 7.21577 9.66993 7.25266C9.69369 7.28727 9.50984 7.16647 9.46778 7.14426C9.4254 7.12256 9.46554 7.14994 9.44141 7.14035C9.41669 7.13071 9.39259 7.10622 9.37891 7.11008C9.36592 7.1152 9.42615 7.18009 9.46876 7.20578C9.55907 7.2611 9.66177 7.3039 9.61817 7.30344C9.61355 7.30217 9.56484 7.27363 9.55763 7.27512C9.50059 7.28899 9.48143 7.32609 9.43067 7.35129C9.42261 7.35422 9.36458 7.329 9.35938 7.33078C9.30822 7.35287 9.41609 7.37522 9.52735 7.42649C9.37379 7.37618 9.27544 7.35877 9.26661 7.3884C9.2622 7.40569 9.33117 7.41955 9.37696 7.44114C9.39088 7.44746 9.34103 7.44853 9.37306 7.45774C9.47777 7.48702 9.59829 7.50314 9.54688 7.51535C9.54443 7.51594 9.48666 7.50168 9.48243 7.50461C9.45516 7.52428 9.56602 7.54542 9.57716 7.56907C9.58554 7.58721 9.51413 7.61379 9.50196 7.63645C9.32015 7.62848 9.36082 7.65731 9.48634 7.66575L9.48536 7.66672C9.48122 7.69084 9.48496 7.71777 9.46485 7.73801C9.4575 7.74484 9.40781 7.73224 9.40138 7.73215C9.31141 7.72925 9.42934 7.76009 9.43263 7.76731C9.46266 7.83622 9.3632 7.83741 9.41309 7.92746C9.41633 7.93111 9.51805 8.00286 9.43263 7.96555C9.42714 7.96225 9.38903 7.91543 9.3711 7.93332C9.35778 7.94643 9.31356 7.94556 9.29688 7.9636C9.28995 7.97117 9.28727 7.9827 9.29102 8.00168C9.29572 8.01649 9.33888 8.11343 9.27638 8.0593C9.26812 8.05142 9.24924 8.0203 9.23536 8.00559C9.19288 7.95816 9.25663 8.06757 9.19044 7.98118C9.1238 7.89482 9.08204 7.82599 9.09473 7.9011C9.09537 7.90318 9.12749 8.00006 9.11817 8.00168C9.10414 8.00364 9.08077 7.98778 9.06837 7.99094C9.06225 7.99256 9.07896 8.05383 9.07813 8.05539C9.05345 8.08063 9.02474 8.07357 9.00001 8.05735C8.98361 8.04489 8.96623 8.02787 8.9463 8.01731C8.93753 8.01555 8.9135 8.09767 8.89747 8.03098C8.87972 7.95655 8.89814 7.64982 8.85743 7.72141C8.84086 7.75081 8.81983 8.1425 8.79005 7.94016C8.7324 7.9903 8.67889 7.88697 8.6211 7.95774C8.6185 7.96092 8.60965 8.07055 8.60352 8.06907C8.59452 8.06618 8.58947 8.01585 8.58302 8.01243C8.55587 7.99708 8.53106 8.04045 8.50489 8.03391C8.49493 8.03144 8.49822 7.97827 8.48634 7.97532C8.4745 7.97272 8.46626 8.04203 8.4502 8.00852C8.43808 7.98239 8.42625 7.84047 8.41016 7.82395C8.40955 7.96411 8.39859 7.96177 8.37891 7.99875C8.37517 8.00586 8.37861 8.05351 8.37696 8.06028C8.36968 8.08543 8.36337 8.0456 8.35645 8.07297C8.35483 8.0805 8.35488 8.1275 8.35352 8.13547C8.34182 8.20552 8.32167 8.09756 8.31837 8.07883C8.30578 8.00858 8.2997 8.06996 8.29005 8.0427C8.28033 8.01466 8.29554 7.97866 8.28419 7.96164C8.26068 7.92667 8.22991 7.93454 8.20606 7.93235C8.19715 7.93259 8.20293 7.99115 8.20216 7.9968C8.18244 8.01301 8.16231 7.94567 8.15138 8.07297C8.13771 7.74394 8.13948 8.10434 8.11134 8.03879C8.10913 8.03349 8.10591 7.87934 8.11427 7.8552C8.12278 7.8324 8.13664 7.8808 8.14845 7.84543C8.15122 7.83715 8.16654 7.69353 8.16895 7.68235C8.18599 7.61373 8.18854 7.84269 8.18946 7.85813C8.19974 7.996 8.21946 7.83871 8.22462 7.82785C8.2481 7.77876 8.26844 7.81118 8.28809 7.7761C8.30101 7.75315 8.30237 7.60053 8.31251 7.6052C8.34599 7.6216 8.35802 7.83231 8.38966 7.64914C8.39647 7.60984 8.38966 7.443 8.41407 7.57395C8.41574 7.58314 8.43392 7.70115 8.44434 7.62571C8.44559 7.61528 8.44562 7.569 8.44727 7.56418C8.4589 7.53781 8.46684 7.57587 8.4795 7.55735C8.4921 7.53884 8.50715 7.51172 8.52149 7.52805C8.53017 7.53788 8.5417 7.62752 8.54591 7.65012C8.55768 7.71389 8.56986 7.61 8.57716 7.68723C8.58444 7.76482 8.57062 7.88223 8.58985 7.93235C8.59057 7.80641 8.59163 7.67716 8.59278 7.55051C8.63506 7.55495 8.67732 7.59514 8.71973 7.58957C8.72417 7.58466 8.71917 7.52082 8.72462 7.51828C8.7484 7.50752 8.76929 7.55608 8.79395 7.53684C8.81289 7.52175 8.83371 7.45108 8.85352 7.43235C8.85579 7.45901 8.85999 7.47883 8.86329 7.49387C8.88342 7.44111 8.979 7.39573 8.96778 7.35032C8.96075 7.31934 8.8999 7.31003 8.86231 7.28684C8.79018 7.24026 8.94378 7.2363 8.96681 7.23899C8.96755 7.23939 8.97425 7.26742 9.00782 7.26438C9.0732 7.27666 8.96696 7.23946 8.96681 7.23899C8.9818 7.23925 9.01047 7.19739 9.00294 7.1843C8.99831 7.17702 8.94254 7.15947 8.94141 7.15598C8.91622 7.07298 8.93393 6.99768 8.9922 6.947C8.99636 6.948 9.05071 6.97882 9.05372 6.97727C9.09798 6.95649 9.04087 6.89517 9.01954 6.83957C8.99814 6.78444 9.02972 6.7672 9.13282 6.81614C9.13643 6.78745 9.19777 6.78812 9.23341 6.79172C9.26731 6.79486 9.17811 6.71737 9.17188 6.70969C9.14884 6.61674 9.22098 6.63096 9.27052 6.60325C9.27254 6.60209 9.27441 6.60065 9.27638 6.59934C9.30044 6.58308 9.33023 6.53078 9.34571 6.49973C9.35781 6.47513 9.38832 6.48874 9.39454 6.45969C9.39491 6.45536 9.3597 6.415 9.35743 6.41086C9.33744 6.3405 9.41149 6.45879 9.43067 6.47532C9.49989 6.53558 9.53569 6.56865 9.53614 6.51731C9.53566 6.50578 9.44153 6.3276 9.44825 6.3093C9.45633 6.28671 9.48884 6.35046 9.4961 6.3259C9.49677 6.32382 9.47278 6.28583 9.48438 6.28098C9.538 6.25804 9.60449 6.25205 9.65528 6.22336C9.66217 6.21931 9.62267 6.15973 9.63282 6.15305C9.68062 6.12166 9.74158 6.10043 9.80372 6.11399C9.81889 6.11799 9.82668 6.16756 9.83399 6.18039C9.87712 6.2579 9.86053 6.13011 9.86427 6.12571C9.94347 6.03794 10.0418 6.13514 10.1299 6.06809C10.1337 6.0642 10.1634 5.92296 10.1934 6.03879C10.1963 6.04884 10.2224 6.16352 10.2324 6.08176C10.2332 6.07659 10.2181 6.01611 10.2383 6.02024C10.2586 6.02533 10.2917 5.98276 10.3203 6.05051C10.3233 6.05775 10.3277 6.07678 10.333 6.09446C10.3435 6.12887 10.3569 6.15971 10.375 6.09739C10.3753 6.09058 10.4277 5.87572 10.4346 6.0261C10.4354 6.05233 10.4224 6.20674 10.457 6.12961C10.4641 6.11447 10.4565 6.07802 10.4736 6.05735C10.5011 6.02565 10.5279 6.07104 10.5674 6.00559C10.5739 5.99389 10.6146 5.8915 10.6201 5.97434ZM8.02442 7.91868C8.0686 7.93065 8.095 8.19344 8.04688 8.16379C8.03956 8.15603 8.06559 8.07964 8.0547 8.05637C8.03453 8.01471 8.02062 8.17814 8.00001 8.09055C7.99626 8.07438 8.02179 7.91805 8.02442 7.91868ZM8.33985 7.8552C8.33359 7.81245 8.31549 7.86229 8.32325 7.91575C8.32952 7.95842 8.34759 7.90862 8.33985 7.8552ZM13.2588 7.81614C13.2643 7.74546 13.2427 7.73976 13.2471 7.81321C13.2473 7.81619 13.2585 7.81909 13.2588 7.81614ZM8.69337 7.64133C8.68136 7.56606 8.67166 7.73379 8.67677 7.76438C8.69386 7.86332 8.70543 7.71774 8.69337 7.64133ZM9.06641 7.73313C9.08017 7.74593 9.08778 7.74946 9.08106 7.73801C9.07635 7.73096 9.04577 7.70783 9.01759 7.6843C9.03605 7.70317 9.0541 7.72161 9.06641 7.73313ZM8.98341 7.655C8.98777 7.67765 8.99336 7.69283 9.00001 7.69114V7.69016C9.00039 7.68779 8.99839 7.67949 8.99806 7.6677C8.99269 7.66332 8.98804 7.65869 8.98341 7.655ZM8.85059 7.62961C8.84257 7.64143 8.85851 7.65661 8.87013 7.66672C8.87308 7.6566 8.87308 7.64589 8.87501 7.63547C8.86319 7.63249 8.85282 7.62931 8.85059 7.62961ZM11.9766 7.54075C11.9572 7.57623 11.9626 7.61096 11.9697 7.64426C11.9729 7.6578 12.0388 7.64199 12.042 7.65403C12.0427 7.65813 12.0434 7.66259 12.044 7.66672C12.0536 7.61895 12.0344 7.56501 11.9854 7.53879C11.9835 7.53783 11.9806 7.53989 11.9766 7.54075ZM8.99122 7.52707C8.9794 7.46602 8.99363 7.58098 8.9922 7.5925C8.98948 7.61381 8.99866 7.64903 8.98438 7.60618C8.98333 7.60173 8.97828 7.59046 8.97364 7.57883C8.9747 7.58796 8.97545 7.59719 8.97657 7.60618C8.98187 7.62021 8.9878 7.63399 8.98829 7.63547C8.99519 7.65322 8.98993 7.64132 8.97852 7.61789C8.97932 7.62392 8.97962 7.62985 8.98048 7.63547C8.98791 7.64722 8.99399 7.65546 8.99806 7.66184C8.99655 7.61672 8.99391 7.53385 8.99122 7.52707ZM8.90919 7.49094C8.87543 7.44775 8.91975 7.54827 8.93848 7.57493C8.93954 7.57659 8.94141 7.57826 8.94239 7.57981C8.9428 7.57182 8.94326 7.56272 8.94337 7.55344C8.93063 7.52895 8.91923 7.50465 8.90919 7.49094ZM11.667 7.36985C11.7326 7.39352 11.7918 7.41957 11.8604 7.40989C11.8627 7.40888 11.8614 7.39591 11.8613 7.38157C11.8203 7.35869 11.7702 7.35196 11.7324 7.3552C11.7087 7.35646 11.6864 7.36198 11.667 7.36985ZM9.60548 6.98313C9.55777 6.93 9.53818 6.94251 9.59571 6.98899C9.59807 6.99078 9.6074 6.98532 9.60548 6.98313ZM10.6084 6.82395C10.6565 6.71722 10.6124 6.69081 10.5879 6.81125C10.587 6.81746 10.606 6.82916 10.6084 6.82395ZM10.1758 6.64719C10.1765 6.65045 10.1845 6.65219 10.1816 6.63352C10.1724 6.57381 10.1636 6.59245 10.1758 6.64719Z" fill="#555961"/>
<path d="M6.99969 7.29203C7.0325 7.30151 7.06597 7.32064 7.0993 7.35746C7.10472 7.3639 7.10925 7.50096 7.12078 7.47465C7.12165 7.43651 7.12138 7.39138 7.12176 7.35062C7.23588 7.32868 7.34912 7.37641 7.46356 7.38383C7.46835 7.38412 7.46038 7.31238 7.46942 7.31156C7.52352 7.31264 7.57619 7.29289 7.63153 7.36527C7.63681 7.3745 7.6341 7.4994 7.65008 7.48051C7.65293 7.47698 7.67786 7.4603 7.68426 7.43265C7.68512 7.42846 7.68032 7.36802 7.68817 7.36625C7.73365 7.3572 7.78142 7.371 7.82684 7.40726C7.83418 7.41327 7.82653 7.47747 7.83172 7.48246C7.86887 7.51626 7.90951 7.46763 7.945 7.52543C7.96876 7.56436 7.95972 7.67489 7.97235 7.78324C7.97435 7.79813 7.98914 7.80106 7.98992 7.86332C7.99188 8.02175 7.98506 8.19541 7.98797 8.3643C7.98859 8.40062 8.00828 8.36197 7.99676 8.44926C7.99595 8.45514 7.98075 8.48485 7.97723 8.51469C7.97481 8.53543 7.97929 8.59966 7.9743 8.62601C7.96932 8.65167 7.964 8.59902 7.95575 8.62992C7.94763 8.66159 7.95072 8.73364 7.93426 8.74222C7.89588 8.76151 7.84548 8.74056 7.80731 8.71195C7.79606 8.70255 7.80133 8.66483 7.79364 8.65629C7.77744 8.64083 7.76179 8.66005 7.74578 8.64164C7.74065 8.63506 7.74706 8.5739 7.74188 8.56742C7.71151 8.53968 7.68279 8.55518 7.65203 8.54203C7.49998 8.47598 7.34989 8.45256 7.19598 8.42387C7.1454 8.41433 7.08416 8.35735 7.03192 8.38187C7.03047 8.38258 7.03149 8.38645 7.03094 8.39164C7.02447 8.37927 7.00218 8.33794 6.99969 8.33305C7.02822 8.34183 7.01245 8.33152 6.99578 8.33305C6.98646 8.3593 6.97679 8.38553 6.97528 8.41215C6.97241 8.46859 6.98812 8.53317 6.9743 8.58695C6.95743 8.65087 6.91183 8.69492 6.89715 8.75492C6.89551 8.76127 6.9627 8.77688 6.96258 8.78519C6.94087 8.87273 6.89457 8.95524 6.80926 9.0059C6.80065 9.01077 6.75248 8.96994 6.7409 8.97269C6.66966 8.99296 6.53387 8.97266 6.72723 9.16312C6.69667 9.1853 6.6591 9.2125 6.59832 9.19828C6.5592 9.18871 6.52304 9.12848 6.52801 9.16508C6.53045 9.17408 6.5759 9.20945 6.57391 9.21879C6.57265 9.22452 6.57048 9.22959 6.56805 9.23441C6.55332 9.26314 6.52275 9.27818 6.51727 9.31742C6.51698 9.32752 6.55266 9.36544 6.55731 9.37406C6.5932 9.44516 6.48857 9.36578 6.47821 9.36137C6.39855 9.33567 6.38871 9.3762 6.35125 9.39847C6.34296 9.40379 6.39075 9.45673 6.38348 9.4639C6.34481 9.50058 6.29306 9.52243 6.23407 9.51566C6.22092 9.51395 6.20344 9.45492 6.19598 9.45121C6.16505 9.43586 6.20686 9.54157 6.17645 9.52836C6.1702 9.52557 6.15245 9.47767 6.1491 9.47172C6.10293 9.3939 6.14093 9.51553 6.13836 9.51957C6.11071 9.57006 6.04186 9.45528 6.01141 9.48344C6.00749 9.48709 6.03668 9.54725 6.0241 9.55375C5.94016 9.59757 5.83398 9.5972 5.74285 9.54984C5.72875 9.54253 5.73536 9.49239 5.73407 9.48637C5.716 9.39295 5.71431 9.52045 5.70965 9.52543C5.69525 9.54082 5.68009 9.5291 5.66668 9.52347C5.6488 9.51612 5.63338 9.51892 5.6159 9.60453C5.4704 9.54747 5.28992 9.59126 5.20575 9.40726C5.20501 9.40462 5.23214 9.34873 5.23016 9.34476C5.20719 9.29607 5.17619 9.38895 5.09539 9.48246C5.07443 9.5053 5.11813 9.36859 5.12274 9.35648C5.13497 9.31886 5.18561 9.23919 5.18719 9.23148C5.20019 9.17285 5.05498 9.44382 5.02899 9.42972C5.0285 9.42885 5.06038 9.3811 5.06121 9.37504C5.06373 9.35683 5.04633 9.37181 5.05047 9.3516C5.06041 9.30396 5.13626 9.17588 5.07098 9.23734C5.06137 9.24683 4.97051 9.39435 4.95379 9.37308C4.94729 9.36472 4.90908 9.34106 4.90594 9.32426C4.90306 9.30796 4.94283 9.26945 4.945 9.26566C4.96655 9.18764 4.995 9.17031 5.05438 9.07621C5.1151 8.98349 4.94955 9.1866 4.92547 9.20512C4.90147 9.22319 4.92545 9.16186 4.93621 9.14262C4.9469 9.1233 4.97535 9.10081 4.98016 9.0889C5.01238 9.01194 4.88195 9.17633 4.84539 9.19926C4.80866 9.22167 4.80751 9.20601 4.82 9.17972C4.83707 9.14329 4.87907 9.08607 4.8786 9.06937C4.87795 9.06211 4.84919 9.09497 4.84246 9.09379C4.81661 9.08761 4.85342 9.03996 4.79559 9.05668C4.78644 9.05995 4.68074 9.11582 4.73992 9.0518C4.7486 9.04274 4.79058 9.01683 4.79364 9.00297C4.79808 8.98228 4.79252 8.9568 4.77117 8.95414C4.75517 8.95209 4.6962 9.00823 4.70867 8.98246C4.71438 8.97113 4.75928 8.95431 4.76727 8.93558C4.7751 8.91699 4.75849 8.89416 4.75164 8.88578C4.74427 8.87861 4.69818 8.91197 4.69207 8.91508C4.66999 8.92226 4.63485 8.91808 4.63153 8.91605C4.57407 8.82802 4.63508 8.70752 4.57879 8.62992C4.5745 8.62379 4.51873 8.64284 4.51336 8.64359C4.48068 8.6248 4.6505 8.6017 4.70184 8.5723C4.57632 8.60592 4.5965 8.59005 4.57879 8.57621C4.57005 8.56958 4.52148 8.58463 4.51629 8.585C4.43919 8.58785 4.53399 8.55855 4.5534 8.55277C4.62428 8.53063 4.53683 8.53788 4.58465 8.52347C4.6323 8.50985 4.70622 8.50853 4.70282 8.49418C4.65619 8.49734 4.53787 8.53028 4.51629 8.52055C4.43391 8.48057 4.52077 8.37356 4.53192 8.33695C4.53221 8.33577 4.53263 8.33418 4.53289 8.33305C4.54099 8.31338 4.53294 8.3079 4.54657 8.29301C4.57106 8.26258 4.48463 8.29101 4.44305 8.29594C4.40277 8.30327 4.6093 8.22816 4.65399 8.20902C4.69713 8.18839 4.65099 8.2025 4.67352 8.18851C4.69574 8.17412 4.72989 8.17118 4.73407 8.15629C4.73707 8.13966 4.6469 8.15043 4.60321 8.17484C4.50948 8.22405 4.41828 8.28677 4.44598 8.25785C4.45053 8.25417 4.49607 8.22583 4.49969 8.21976C4.51031 8.19737 4.51073 8.1777 4.5075 8.15922C4.50379 8.13891 4.49675 8.11951 4.49188 8.09183C4.4905 8.08432 4.52986 8.03168 4.52899 8.0264C4.51624 7.97057 4.47002 8.07176 4.40692 8.17582C4.47951 8.03148 4.51279 7.93591 4.47723 7.92191C4.4571 7.91515 4.43873 7.98339 4.41571 8.02836C4.40939 8.0419 4.40942 7.99248 4.40008 8.02445C4.37197 8.12955 4.3544 8.2496 4.35223 8.20023C4.35208 8.19709 4.36233 8.14214 4.36102 8.13578C4.34946 8.11535 4.33904 8.18336 4.33368 8.21879C4.32943 8.22763 4.32401 8.23459 4.31805 8.23734C4.29482 8.24773 4.25379 8.17995 4.22723 8.16801C4.22779 7.9863 4.20229 8.02729 4.19207 8.15238C4.17486 8.14728 4.15598 8.1549 4.13934 8.13773C4.13362 8.13185 4.13709 8.07938 4.13641 8.07328C4.12531 7.98401 4.11767 8.10561 4.11395 8.11039C4.07358 8.15681 4.04115 8.06495 4.00262 8.15531C4.00125 8.16156 3.99912 8.28351 3.98895 8.19242C3.98829 8.18604 4.00024 8.12851 3.98211 8.12406C3.96387 8.11857 3.92992 8.05244 3.90496 8.11039C3.89888 8.12446 3.88314 8.22695 3.87078 8.1475C3.86915 8.13668 3.87115 8.10035 3.86883 8.08012C3.86116 8.01596 3.85733 8.14281 3.84832 8.03519C3.83929 7.92669 3.82 7.8451 3.79461 7.91996C3.79365 7.92528 3.78782 8.0231 3.77996 8.02152C3.76726 8.01877 3.74927 7.99753 3.73602 7.99808C3.72985 7.99843 3.73288 8.05779 3.73211 8.06254C3.68931 8.09764 3.65884 8.04192 3.61297 8.01762C3.60426 8.01546 3.58021 8.09801 3.56414 8.03129C3.54628 7.95718 3.56504 7.6491 3.5241 7.72172C3.50752 7.75112 3.48652 8.14234 3.45672 7.93949C3.39902 7.98968 3.34562 7.88689 3.28778 7.95805C3.28517 7.96122 3.27632 8.07086 3.2702 8.06937C3.26122 8.06681 3.25609 8.01693 3.24969 8.01273C3.22257 7.9974 3.1977 8.04065 3.17157 8.03422C3.16161 8.03175 3.16489 7.97857 3.15301 7.97562C3.14115 7.97274 3.13294 8.04225 3.11688 8.00883C3.10473 7.98324 3.09296 7.84094 3.07684 7.82426C3.07622 7.96445 3.06528 7.96205 3.04559 7.99906C3.04202 8.00707 3.04541 8.05474 3.04364 8.06058C3.03639 8.08541 3.03001 8.04566 3.02313 8.0723C3.02147 8.07878 3.02152 8.12567 3.0202 8.1348C3.0085 8.20531 2.98835 8.09789 2.98504 8.07914C2.97237 8.00814 2.96645 8.07006 2.95672 8.04203C2.94721 8.01405 2.96214 7.97892 2.95086 7.96195C2.92734 7.92676 2.89663 7.93485 2.87274 7.93265C2.86366 7.93294 2.86989 7.99359 2.86883 7.99711C2.84914 8.0133 2.82899 7.94555 2.81805 8.0723C2.80443 7.74442 2.80602 8.10333 2.77801 8.0391C2.77579 8.03377 2.77242 7.87738 2.78094 7.85453C2.78946 7.83214 2.80333 7.88029 2.81512 7.84476C2.81824 7.83276 2.83347 7.69039 2.83563 7.68168C2.85269 7.61374 2.85523 7.84568 2.85614 7.85844C2.86642 7.99621 2.88613 7.83902 2.89129 7.82816C2.91488 7.77859 2.93504 7.81091 2.95477 7.77543C2.96754 7.75152 2.96908 7.60086 2.97918 7.60551C3.01259 7.6224 3.02469 7.83204 3.05633 7.64847C3.06307 7.60868 3.05639 7.44361 3.08075 7.57426C3.08273 7.58553 3.1007 7.70068 3.11102 7.62601C3.11232 7.61616 3.11222 7.56757 3.11395 7.56351C3.12546 7.53801 3.13358 7.57607 3.14617 7.55765C3.1588 7.53914 3.17377 7.51196 3.18817 7.52836C3.19685 7.53916 3.20844 7.62843 3.21258 7.65043C3.22434 7.71403 3.23653 7.61 3.24383 7.68656C3.25119 7.76418 3.23724 7.88251 3.25653 7.93265C3.25724 7.80656 3.25831 7.67665 3.25946 7.54984C3.30173 7.55428 3.34399 7.59545 3.38641 7.58988C3.39107 7.58624 3.38594 7.52191 3.39129 7.51859C3.41503 7.50784 3.43602 7.55612 3.46063 7.53715C3.47968 7.52202 3.50027 7.44995 3.5202 7.43168C3.53232 7.57509 3.56219 7.52771 3.58367 7.54008C3.59115 7.5446 3.59114 7.58287 3.59637 7.59574C3.61657 7.64219 3.60747 7.51543 3.61297 7.49515C3.63676 7.40952 3.63864 7.6976 3.66668 7.69047C3.66898 7.68228 3.6866 7.5378 3.68914 7.52738C3.70489 7.46548 3.69142 7.57871 3.70086 7.59183C3.71902 7.61261 3.73229 7.64959 3.7536 7.60453C3.75983 7.59096 3.77475 7.49537 3.7868 7.56937C3.78838 7.57904 3.7875 7.6294 3.78875 7.63285C3.81188 7.68249 3.81265 7.5229 3.82586 7.46879C3.83907 7.4148 3.8588 7.52479 3.86297 7.55668C3.87372 7.638 3.85517 7.59285 3.85418 7.59965C3.84727 7.69564 3.86234 7.67945 3.87371 7.68754C3.87536 7.84419 3.89119 7.8348 3.88543 7.69535C3.88478 7.68012 3.876 7.69469 3.87371 7.68754C3.8837 7.53384 3.90128 7.51461 3.92059 7.65824C3.92953 7.72546 3.92151 7.8031 3.94891 7.77445C3.96083 7.75963 3.9567 7.65445 3.96746 7.62504C3.99247 7.55826 4.02463 7.65729 4.05047 7.64262C4.05987 7.63686 4.05088 7.57729 4.05731 7.57133C4.07435 7.55537 4.08999 7.59987 4.10711 7.57719C4.10853 7.57373 4.10478 7.51351 4.11004 7.51273C4.15026 7.50574 4.18525 7.54471 4.22723 7.54594C4.2476 7.54644 4.28426 7.51271 4.30535 7.51957C4.31426 7.52242 4.3241 7.52974 4.33368 7.5391C4.40582 7.56812 4.46506 7.62505 4.51825 7.62211C4.56506 7.62043 4.57395 7.55961 4.60809 7.5264C4.67941 7.46393 4.69345 7.62997 4.68719 7.65433C4.68698 7.65468 4.66277 7.65239 4.65301 7.66703L4.64715 7.71C4.65456 7.70985 4.68654 7.65425 4.68719 7.65433C4.68684 7.66947 4.74525 7.72101 4.76434 7.72172C4.77473 7.72137 4.804 7.67341 4.81024 7.67191C4.85724 7.68124 4.90236 7.69934 4.9411 7.72562C5.0042 7.7683 5.05194 7.83243 5.07489 7.90629C5.07491 7.9087 5.01667 7.93937 5.01727 7.94437C5.02282 8.01343 5.11064 8.01606 5.17547 8.05961C5.23953 8.10244 5.23503 8.16323 5.1286 8.21195C5.14674 8.24672 5.11362 8.30135 5.08367 8.33305C5.07987 8.33412 5.07537 8.335 5.07196 8.33597C5.04285 8.34494 5.17003 8.34432 5.17254 8.34476C5.25298 8.36051 5.18199 8.37231 5.17254 8.39457C5.16809 8.40484 5.18912 8.42121 5.20477 8.42777C5.21727 8.43283 5.18952 8.44379 5.20965 8.44633C5.21231 8.44663 5.26517 8.43245 5.26922 8.43168C5.33645 8.42142 5.2027 8.45297 5.1784 8.46097C5.09279 8.48988 5.04806 8.50955 5.09246 8.5098C5.1038 8.51026 5.29544 8.45649 5.30731 8.45512C5.32244 8.4545 5.25567 8.47609 5.27215 8.47562C5.27364 8.47556 5.31598 8.4606 5.31512 8.4639C5.31153 8.47887 5.2942 8.50303 5.30438 8.51469C5.30561 8.5162 5.36368 8.48517 5.36981 8.48441C5.38241 8.49083 5.38604 8.50157 5.36492 8.52933C5.35922 8.53648 5.31711 8.56184 5.30535 8.57035C5.23526 8.62283 5.34516 8.55685 5.34735 8.5557C5.40897 8.53698 5.33174 8.62424 5.39032 8.60551C5.39265 8.60387 5.40193 8.59698 5.4118 8.5889C5.43866 8.56736 5.47152 8.5379 5.41668 8.60062C5.40988 8.60779 5.33427 8.69732 5.39227 8.63969C5.39709 8.63437 5.43348 8.59082 5.43426 8.59574C5.43372 8.60366 5.46485 8.57638 5.42742 8.63285C5.41506 8.65047 5.34624 8.7499 5.40985 8.67777C5.41549 8.67364 5.54802 8.50233 5.46453 8.62601C5.45083 8.64642 5.36094 8.77669 5.41375 8.71488C5.4237 8.70273 5.44055 8.67173 5.45575 8.65531C5.47859 8.62974 5.46368 8.66971 5.50457 8.61234C5.51222 8.60235 5.56781 8.51031 5.53094 8.58305C5.52515 8.59475 5.49875 8.64038 5.49774 8.64652C5.49363 8.67597 5.51782 8.6492 5.51239 8.68656C5.51042 8.70051 5.47549 8.77786 5.47137 8.80082C5.46722 8.82375 5.47025 8.84799 5.48895 8.81351C5.50728 8.7785 5.54956 8.64909 5.55828 8.64066C5.59273 8.60345 5.59186 8.68405 5.61785 8.70023C5.62133 8.7024 5.62477 8.65544 5.62957 8.65336C5.63983 8.65256 5.65434 8.63958 5.66668 8.64359C5.67713 8.64701 5.6875 8.66237 5.69989 8.70805C5.72408 8.78897 5.70765 8.85475 5.72625 8.88676C5.73681 8.90113 5.72426 8.74335 5.7243 8.73832C5.72971 8.68675 5.75111 8.75346 5.75946 8.72953C5.76012 8.72241 5.74374 8.66258 5.74481 8.65922C5.74815 8.64822 5.76166 8.67322 5.76629 8.66703C5.76823 8.66384 5.75336 8.61718 5.75653 8.62015C5.76405 8.6269 5.77511 8.64524 5.79657 8.68558C5.79925 8.69145 5.81485 8.74643 5.82098 8.74808C5.83021 8.74839 5.86011 8.78473 5.85125 8.73832C5.84852 8.72411 5.80039 8.62272 5.83856 8.68949C5.84652 8.70355 5.90438 8.8251 5.86004 8.71781C5.85386 8.69932 5.78862 8.55656 5.84149 8.64262C5.85552 8.66535 5.91388 8.75837 5.90887 8.74125C5.90742 8.73798 5.87727 8.68951 5.87567 8.68168C5.87404 8.65993 5.88521 8.65934 5.8825 8.63871C5.8815 8.6331 5.84323 8.58363 5.84246 8.57719C5.84018 8.55992 5.85723 8.56641 5.87664 8.57523C5.8843 8.57933 5.91566 8.61879 5.91961 8.62308C5.98236 8.68721 5.90681 8.59778 5.90008 8.5889C5.88412 8.56304 5.89971 8.57341 5.90985 8.57621C5.91417 8.57745 5.91741 8.5772 5.91571 8.5723C5.91364 8.56747 5.87036 8.52833 5.86688 8.52445C5.8327 8.4873 5.90734 8.56147 5.91766 8.56742C5.94663 8.58378 5.94952 8.57347 5.94891 8.56254C5.94857 8.55843 5.89417 8.51757 5.89422 8.51469C5.89333 8.49734 5.90491 8.49189 5.94403 8.49906C5.95154 8.50044 5.9957 8.52848 6.00653 8.53422C6.08141 8.5722 5.98549 8.5088 5.97625 8.50297C5.93643 8.47448 5.977 8.4941 5.97235 8.48539C5.94513 8.44353 5.98321 8.42877 6.0075 8.40629C6.03245 8.38458 6.0716 8.3623 6.07782 8.33305C6.07926 8.28806 6.08186 8.24191 6.0866 8.19437C6.08724 8.17865 6.01642 8.18377 6.01727 8.16898C6.03367 7.97222 6.14514 7.80524 6.26141 7.65043C6.27027 7.63735 6.20694 7.60997 6.22235 7.58695C6.22637 7.58094 6.23124 7.57531 6.23602 7.56937C6.2689 7.52821 6.31921 7.49089 6.36981 7.4766C6.39782 7.46884 6.40284 7.53526 6.42938 7.52738C6.49046 7.50999 6.54567 7.48395 6.59637 7.44926C6.61844 7.43426 6.55418 7.3892 6.5866 7.37406C6.71522 7.31417 6.85809 7.27893 6.99969 7.29203ZM5.28289 9.37894C5.33477 9.2742 5.29347 9.24517 5.25848 9.36234C5.25668 9.36845 5.27968 9.38376 5.28289 9.37894ZM4.95867 8.99418C4.95635 8.9966 4.95972 9.00437 4.97332 8.99125C5.01688 8.94921 4.99756 8.95366 4.95867 8.99418ZM7.00555 8.34476C7.00826 8.3495 7.02199 8.37342 7.03094 8.39164C7.02922 8.40797 7.02874 8.43954 7.02801 8.44437C7.00975 8.51412 7.01552 8.40256 7.0036 8.38773C7.00243 8.38629 7.00087 8.38521 6.99969 8.38383C7.00605 8.32896 6.99466 8.32614 7.00555 8.34476ZM4.66864 8.42094C4.74002 8.42001 4.74411 8.39945 4.67059 8.40922C4.6679 8.41022 4.66624 8.42017 4.66864 8.42094ZM7.03289 8.35551C7.04153 8.35997 7.0393 8.3535 7.02703 8.34672C7.0221 8.34393 7.0122 8.33924 7.00164 8.33402C7.01493 8.34311 7.02858 8.3531 7.03289 8.35551ZM6.99969 8.33207C6.99429 8.32242 6.99812 8.33056 6.99578 8.32719C6.99063 8.32086 6.98973 8.32028 6.98895 8.32035C6.98855 8.32029 6.98689 8.31974 6.98504 8.3184C6.97868 8.3133 6.96524 8.30574 6.97235 8.31351C6.97411 8.31491 6.98656 8.32307 6.99969 8.33207ZM2.70672 7.93461C2.7407 7.99281 2.7556 8.19001 2.71356 8.1641C2.70567 8.1573 2.73234 8.08012 2.72137 8.05668C2.70112 8.01403 2.68737 8.17819 2.66668 8.08988C2.66337 8.07186 2.68852 7.91809 2.6911 7.91898L2.70672 7.93461ZM3.00653 7.85551C3.0003 7.81258 2.98232 7.86172 2.98992 7.91508C2.99616 7.95807 3.01422 7.90896 3.00653 7.85551ZM7.92547 7.81644C7.93107 7.74535 7.90928 7.73961 7.91375 7.81351C7.91393 7.81649 7.92522 7.8194 7.92547 7.81644ZM3.36004 7.64164C3.34798 7.56539 3.33823 7.7347 3.34344 7.76469C3.36053 7.86347 3.3721 7.71803 3.36004 7.64164Z" fill="#555961"/>
</svg>
