<svg width="16" height="16" viewBox="0 0 16 16" fill="none" xmlns="http://www.w3.org/2000/svg">
<path d="M11.8776 1.49415C11.9024 1.49179 11.9023 1.52142 11.8932 1.55274C11.89 1.56274 11.8603 1.58874 11.8571 1.59669C11.8511 1.612 11.8689 1.60299 11.861 1.62013C11.8581 1.62613 11.8113 1.66954 11.8093 1.67481C11.7988 1.7029 11.8185 1.70039 11.818 1.71876C11.8158 1.80968 11.8423 1.87043 11.8669 1.93556C11.8747 1.95715 11.8533 2.01447 11.8854 2.01271C11.8893 2.01239 11.9278 1.97164 11.9313 1.96876C11.9856 1.92511 11.9051 2.00267 11.8981 2.01661C11.8708 2.07152 11.8826 2.09064 11.9108 2.08888C11.923 2.088 11.9946 2.00446 11.9567 2.05372C11.953 2.05814 11.9117 2.09764 11.9089 2.10353C11.9027 2.11672 11.9163 2.11611 11.9157 2.12208C11.9144 2.13368 11.9161 2.13425 11.9206 2.13966C11.9261 2.14769 11.9138 2.17594 11.9304 2.17384C11.9347 2.17237 11.9743 2.12894 11.9841 2.12403C11.9938 2.11929 11.9967 2.12938 11.9889 2.14161C11.9811 2.15386 11.9464 2.18629 11.9391 2.19435C11.8781 2.26187 11.9745 2.18043 11.9782 2.17872C12.0338 2.15878 11.9984 2.22562 12.0153 2.2422C12.0283 2.25448 12.0582 2.25146 12.068 2.26564C12.0795 2.28287 12.069 2.31795 12.0866 2.32814C12.0884 2.32924 12.137 2.27806 12.1393 2.27931C12.1641 2.29264 12.1773 2.31664 12.1628 2.36915C12.1613 2.37442 12.1162 2.41513 12.111 2.42384C12.0866 2.47163 12.0183 2.57688 12.2165 2.39259C12.2169 2.40798 12.2186 2.42605 12.1872 2.47169C12.1668 2.50106 12.1154 2.54405 12.1413 2.52931C12.1478 2.52518 12.1876 2.48221 12.193 2.48048C12.2159 2.47354 12.2115 2.49609 12.2409 2.48243C12.2471 2.47943 12.2833 2.4411 12.2907 2.43458C12.3493 2.38365 12.2656 2.4813 12.2604 2.48927C12.2223 2.54841 12.2488 2.53696 12.2575 2.54786C12.2595 2.55045 12.3075 2.49738 12.3112 2.49806C12.3297 2.5023 12.337 2.51839 12.3259 2.55177C12.3232 2.55935 12.2785 2.60063 12.2751 2.60646C12.2608 2.63118 12.3422 2.55171 12.3298 2.57423C12.3259 2.58008 12.2896 2.61501 12.2858 2.61915C12.226 2.68504 12.3182 2.59789 12.321 2.59669C12.3574 2.57982 12.2716 2.6781 12.2927 2.67579C12.2955 2.67525 12.3403 2.62663 12.3454 2.62794C12.3792 2.63658 12.3888 2.67152 12.3727 2.7295C12.3703 2.73842 12.3335 2.77041 12.3288 2.7754C12.2648 2.8461 12.3575 2.7582 12.362 2.75587C12.3943 2.74035 12.3272 2.82318 12.4401 2.72169C12.4385 2.79465 12.5339 2.76996 12.4733 2.90138C12.4727 2.90294 12.4276 2.94727 12.4264 2.95021C12.4128 2.98531 12.4796 2.91402 12.571 2.83692C12.5935 2.81807 12.4979 2.92566 12.4909 2.9336C12.4651 2.96293 12.397 3.02729 12.3923 3.03321C12.3562 3.07905 12.5716 2.86133 12.5798 2.86622C12.5796 2.86679 12.5383 2.90658 12.5348 2.91114C12.524 2.92538 12.5419 2.91148 12.53 2.92677C12.5018 2.96268 12.3968 3.07056 12.4645 3.01466C12.4733 3.00739 12.5959 2.88233 12.5964 2.89356C12.5963 2.89836 12.6083 2.90702 12.6032 2.91798C12.5976 2.92926 12.5559 2.96684 12.5544 2.96876C12.5096 3.02913 12.4847 3.04818 12.4108 3.12989C12.3368 3.21177 12.5213 3.02501 12.5436 3.00587C12.5657 2.98698 12.5281 3.03612 12.5143 3.05274C12.5008 3.06909 12.4742 3.09248 12.4665 3.10255C12.4188 3.16695 12.5622 3.01407 12.5944 2.98731C12.6704 2.92431 12.5375 3.0675 12.53 3.08692C12.5299 3.08978 12.5589 3.05909 12.5632 3.05763C12.5789 3.05298 12.5403 3.09797 12.5856 3.06544C12.5931 3.06007 12.6812 2.98269 12.6237 3.04689C12.6151 3.0564 12.5807 3.08828 12.5749 3.09864C12.567 3.11376 12.5655 3.12761 12.5807 3.12013C12.5921 3.11449 12.6455 3.055 12.6315 3.07618C12.625 3.08577 12.5897 3.11593 12.5807 3.13087C12.5718 3.14573 12.5806 3.15151 12.5847 3.15333C12.5887 3.15507 12.6304 3.11107 12.6335 3.10841C12.6505 3.09411 12.6745 3.07919 12.6774 3.07814C12.7075 3.09773 12.6586 3.19314 12.7067 3.19337C12.7114 3.19228 12.7545 3.14694 12.7555 3.14649C12.78 3.13482 12.6558 3.24902 12.6198 3.29396C12.7107 3.20175 12.697 3.22133 12.7116 3.21583C12.7186 3.21314 12.7515 3.17761 12.7565 3.17286C12.8138 3.12209 12.7468 3.19413 12.7331 3.20899C12.6829 3.26354 12.7469 3.204 12.7136 3.24024C12.6803 3.27646 12.6249 3.32515 12.6296 3.32911C12.6637 3.29745 12.7471 3.20787 12.7643 3.19728C12.8289 3.1577 12.7864 3.24657 12.7888 3.26466C12.7918 3.2817 12.8005 3.2793 12.7946 3.29689C12.7838 3.32894 12.8438 3.26199 12.8796 3.23927C12.9154 3.21669 12.7551 3.3706 12.7223 3.40528C12.6902 3.43933 12.725 3.40617 12.7077 3.42579C12.6903 3.44535 12.665 3.46598 12.6608 3.4756C12.6586 3.48341 12.7247 3.43227 12.7604 3.39845C12.8371 3.32588 12.9123 3.24398 12.8923 3.27833C12.891 3.28038 12.848 3.32043 12.8454 3.32618C12.8264 3.37032 12.8373 3.38541 12.822 3.42579C12.8198 3.43145 12.772 3.47667 12.7702 3.48048C12.7522 3.51906 12.8255 3.43822 12.9167 3.35841C12.8011 3.47144 12.7346 3.54509 12.7419 3.55372C12.747 3.55794 12.7957 3.50744 12.8337 3.4756C12.845 3.46617 12.8145 3.50331 12.8386 3.48048C12.9172 3.40581 13.0001 3.31726 12.9743 3.35939C12.973 3.36137 12.9297 3.40247 12.9284 3.40626C12.9202 3.43044 13.0005 3.35208 13.0192 3.3506C13.0337 3.34978 12.997 3.41104 12.9968 3.42677C12.8682 3.55503 12.9051 3.53295 12.9968 3.44728C12.9984 3.45561 13.008 3.45675 13.0007 3.47364C12.9967 3.48062 12.9595 3.5154 12.9557 3.51954C12.8966 3.58511 12.9838 3.50201 12.9889 3.49903C13.0336 3.47794 12.9784 3.55355 13.0534 3.50099C13.0561 3.49908 13.1459 3.41028 13.0837 3.47853C13.0786 3.48383 13.035 3.51983 13.0368 3.52833C13.0389 3.53677 13.0017 3.59462 13.0505 3.56056C13.0629 3.55171 13.1384 3.48501 13.0856 3.54493C13.0781 3.55339 13.0522 3.578 13.0388 3.59278C12.9957 3.64034 13.0873 3.55164 13.0134 3.63087C12.9984 3.64692 12.9848 3.66282 12.9723 3.67677C12.975 3.67811 12.9789 3.67877 12.9821 3.68067C12.9851 3.68246 12.9874 3.68589 12.9909 3.68849C13.008 3.67287 13.0236 3.65857 13.0241 3.66017C13.0255 3.66614 13.0159 3.68611 13.0202 3.68946C13.0226 3.69073 13.0659 3.64503 13.0671 3.64454C13.104 3.63244 13.074 3.6804 13.07 3.71095C13.0692 3.71664 13.1363 3.66344 13.0934 3.71583C13.0862 3.72472 13.0732 3.73621 13.0593 3.75099C13.0669 3.75835 13.0754 3.7655 13.0837 3.77345L13.0856 3.7754C13.1038 3.79296 13.1243 3.81043 13.1442 3.82911C13.1673 3.80809 13.2012 3.77761 13.2057 3.7754C13.2049 3.78129 13.172 3.81714 13.1716 3.8213C13.1688 3.83994 13.2068 3.81667 13.2097 3.82911C13.2097 3.83282 13.1929 3.8507 13.1823 3.86329C13.1837 3.8642 13.1846 3.86605 13.1862 3.8672C13.1877 3.86613 13.1895 3.8654 13.1911 3.86427C13.1976 3.84096 13.2123 3.82823 13.238 3.83595C13.2469 3.83868 13.2372 3.86009 13.2282 3.8838C13.24 3.87247 13.2623 3.85089 13.2663 3.84767C13.2862 3.83201 13.2596 3.86208 13.2809 3.84474C13.2865 3.84017 13.3194 3.80745 13.3259 3.80177C13.3787 3.75571 13.3097 3.8354 13.2966 3.8506C13.2499 3.90465 13.295 3.86308 13.278 3.88575C13.2692 3.89744 13.2575 3.90883 13.2468 3.91896C13.251 3.92316 13.2552 3.92741 13.2595 3.93165C13.2823 3.90189 13.3053 3.85202 13.3327 3.91017C13.335 3.90807 13.3381 3.90659 13.3405 3.90431C13.1117 4.14104 13.3662 3.88563 13.3278 3.94044C13.3275 3.94086 13.3257 3.9405 13.3249 3.94142C13.3224 3.95285 13.321 3.96658 13.3171 3.98048C13.3679 3.92038 13.4397 3.84754 13.4352 3.87013C13.4332 3.87695 13.3705 3.92449 13.3571 3.94435C13.3339 3.9793 13.4534 3.86829 13.3972 3.93653C13.3915 3.94323 13.357 3.97156 13.3259 3.99903C13.411 4.08481 13.4996 4.17495 13.5876 4.26173C13.6132 4.2869 13.5915 4.25393 13.6501 4.31935C13.6541 4.32396 13.6711 4.34814 13.6911 4.37013C13.705 4.38547 13.751 4.4301 13.7682 4.45021C13.7852 4.47006 13.7459 4.43381 13.7653 4.45802C13.7851 4.48264 13.8382 4.53301 13.8395 4.54396C13.8421 4.56898 13.8124 4.56869 13.7809 4.55958C13.7712 4.55672 13.7454 4.52829 13.737 4.52442C13.7213 4.51822 13.7303 4.53571 13.7126 4.52735C13.7056 4.52324 13.6643 4.47889 13.6589 4.47657C13.6303 4.4658 13.6333 4.48479 13.6149 4.48439C13.5239 4.48204 13.4633 4.50958 13.3981 4.53419C13.3765 4.5421 13.3186 4.5199 13.321 4.55274C13.3225 4.55753 13.3595 4.59272 13.3639 4.59767C13.4077 4.65204 13.3316 4.57314 13.3171 4.56544C13.2621 4.53797 13.2432 4.54906 13.2448 4.57716C13.2457 4.58931 13.3285 4.66132 13.28 4.62403C13.2766 4.62148 13.2361 4.57808 13.2302 4.57521C13.2169 4.56895 13.2175 4.58244 13.2116 4.58204C13.1999 4.58076 13.1993 4.58255 13.194 4.58692C13.1863 4.59269 13.1579 4.58026 13.1598 4.59669C13.1604 4.60035 13.2044 4.64034 13.2097 4.6504C13.2144 4.66008 13.2043 4.66301 13.1921 4.65528C13.18 4.64758 13.148 4.61443 13.1393 4.60646C13.0714 4.54498 13.1527 4.64233 13.154 4.64552C13.1735 4.70045 13.1084 4.66528 13.0915 4.68165C13.079 4.69455 13.0824 4.72555 13.068 4.73536C13.0507 4.74684 13.0146 4.73597 13.0046 4.75392C13.0062 4.758 13.0528 4.80109 13.0544 4.80567C13.041 4.83064 13.0164 4.8448 12.9636 4.83009C12.9577 4.82788 12.9168 4.78147 12.9089 4.77735C12.861 4.75284 12.7567 4.68551 12.9401 4.88282C12.9248 4.88329 12.9073 4.88572 12.862 4.8545C12.8326 4.83426 12.7896 4.7816 12.8044 4.80763C12.8081 4.81382 12.8502 4.85365 12.8522 4.85939C12.8596 4.88269 12.8376 4.87779 12.8513 4.90724C12.8541 4.91334 12.8917 4.95069 12.8981 4.95802C12.9491 5.01661 12.8524 4.93196 12.8444 4.92677C12.7858 4.88903 12.7961 4.91483 12.7858 4.92384C12.7833 4.92581 12.8352 4.97297 12.8356 4.97755C12.8314 4.9962 12.8145 5.0034 12.7809 4.9922C12.7721 4.98779 12.7329 4.94478 12.7272 4.94142C12.7022 4.92684 12.782 5.0086 12.7595 4.9961C12.7539 4.99252 12.7196 4.95784 12.7145 4.95314C12.6482 4.89285 12.7355 4.98427 12.737 4.98731C12.7543 5.02426 12.6541 4.93718 12.6579 4.95997C12.661 4.96493 12.707 5.00679 12.7057 5.01173C12.6973 5.04576 12.6623 5.05507 12.6042 5.03907C12.5952 5.03663 12.5618 4.99923 12.5573 4.99513C12.4885 4.93292 12.5717 5.02106 12.5768 5.02833C12.5928 5.06118 12.5099 4.99383 12.611 5.10646C12.5386 5.10529 12.5627 5.20136 12.4313 5.14064C12.4294 5.13961 12.3864 5.09391 12.3835 5.09278C12.348 5.07886 12.4187 5.14598 12.4958 5.23731C12.5152 5.26033 12.408 5.16423 12.4001 5.15724C12.3708 5.13146 12.3064 5.06335 12.3005 5.0586C12.2543 5.02219 12.473 5.23943 12.4665 5.2461C12.4635 5.24334 12.4271 5.20474 12.4225 5.20118C12.4083 5.19039 12.4221 5.20816 12.4069 5.1963C12.371 5.16812 12.2632 5.06325 12.319 5.13087C12.3262 5.13954 12.4486 5.25985 12.4401 5.26271C12.4353 5.26262 12.4267 5.27466 12.4157 5.26954C12.4049 5.26429 12.3686 5.22515 12.3649 5.22169C12.3042 5.1767 12.285 5.15146 12.2028 5.07716C12.1218 5.00396 12.3058 5.18578 12.3268 5.20997C12.3459 5.23222 12.2976 5.19449 12.2809 5.18067C12.2644 5.16693 12.24 5.14015 12.2302 5.13282C12.1664 5.08562 12.3179 5.22789 12.3454 5.26075C12.4087 5.337 12.2665 5.20513 12.2468 5.19728C12.2415 5.19523 12.2745 5.22514 12.2761 5.2295C12.2812 5.24584 12.2354 5.20725 12.2682 5.25294C12.2758 5.26287 12.3495 5.34713 12.2868 5.29103C12.2776 5.28273 12.2442 5.2465 12.2341 5.24122C12.219 5.23343 12.205 5.23281 12.2126 5.24806C12.2186 5.25963 12.2774 5.31183 12.2575 5.29884C12.2481 5.29261 12.2179 5.2562 12.2028 5.24708C12.188 5.23817 12.1812 5.24688 12.1794 5.25099C12.1776 5.25506 12.2226 5.29669 12.2253 5.29981C12.2404 5.3178 12.2551 5.3443 12.2546 5.34474C12.2346 5.37417 12.1398 5.32542 12.1393 5.37306C12.1393 5.37662 12.1824 5.4177 12.1862 5.42189C12.1987 5.44735 12.0836 5.3219 12.0388 5.28614C12.1309 5.37702 12.1126 5.36356 12.1179 5.37794C12.1206 5.38508 12.1574 5.42 12.1608 5.42384C12.2112 5.48074 12.1395 5.4131 12.1247 5.39942C12.0701 5.34918 12.1297 5.41316 12.0934 5.37989C12.0571 5.34652 12.0083 5.29183 12.0046 5.29689C12.0363 5.33105 12.1258 5.41342 12.1364 5.43067C12.1764 5.49585 12.0852 5.45199 12.068 5.45509C12.0512 5.45821 12.0535 5.46791 12.0358 5.46192C12.0044 5.45144 12.0717 5.51018 12.0944 5.54591C12.117 5.58166 11.9633 5.42272 11.9284 5.38966C11.8938 5.35693 11.9274 5.39217 11.9079 5.37501C11.8883 5.35772 11.8678 5.33255 11.8581 5.32814C11.8484 5.32392 11.9009 5.39048 11.9352 5.42677C12.0077 5.50334 12.0894 5.57842 12.0554 5.5586C12.0533 5.55741 12.0145 5.5168 12.0075 5.51271C11.9631 5.49354 11.9476 5.5038 11.9069 5.48829C11.8999 5.48448 11.8569 5.43927 11.8532 5.43751C11.8134 5.41865 11.8951 5.49228 11.9753 5.58399C11.8629 5.46906 11.7894 5.40195 11.78 5.40821C11.7747 5.41254 11.825 5.46176 11.8571 5.50001C11.8668 5.51152 11.8298 5.48117 11.8522 5.50489C11.9269 5.58361 12.0163 5.66628 11.9743 5.64064C11.9723 5.63937 11.9314 5.59629 11.9274 5.59474C11.9029 5.58618 11.9808 5.66629 11.9831 5.68556C11.9839 5.70001 11.9226 5.6633 11.9069 5.6631C11.7787 5.53453 11.8007 5.57148 11.8864 5.6631C11.8778 5.6645 11.8771 5.67531 11.86 5.66798C11.8543 5.66551 11.8193 5.62786 11.8141 5.62306C11.7478 5.56317 11.8314 5.65179 11.8337 5.65626C11.8545 5.70056 11.7803 5.6449 11.8327 5.71974C11.8346 5.72244 11.9234 5.81224 11.8552 5.75001C11.8499 5.745 11.8142 5.70302 11.8054 5.70411C11.7969 5.70625 11.7391 5.66806 11.7731 5.71681C11.7818 5.72904 11.8484 5.8054 11.7888 5.75294C11.7807 5.7458 11.7559 5.71974 11.7409 5.70606C11.6932 5.66288 11.7821 5.75367 11.7028 5.6797C11.6235 5.60561 11.5606 5.55393 11.6061 5.61427C11.6106 5.61934 11.6759 5.68837 11.6735 5.69044C11.668 5.69225 11.6482 5.68277 11.6442 5.68653C11.6426 5.68864 11.6887 5.73227 11.6891 5.73341C11.7015 5.77078 11.6523 5.74015 11.6218 5.73634C11.6184 5.73812 11.6685 5.8021 11.6169 5.75978C11.5587 5.71187 11.3465 5.48988 11.3864 5.55372C11.4035 5.58051 11.6726 5.86163 11.5212 5.72755C11.5393 5.7793 11.4514 5.72177 11.485 5.78907C11.4865 5.79208 11.5611 5.87232 11.5583 5.87306C11.5537 5.87364 11.518 5.84088 11.5124 5.83888C11.4936 5.83594 11.517 5.87406 11.5046 5.87696C11.4999 5.87812 11.4632 5.83945 11.4577 5.84083C11.4536 5.8435 11.4985 5.89381 11.4704 5.87501C11.4484 5.86013 11.3452 5.76286 11.3288 5.75587C11.4277 5.85518 11.4226 5.85677 11.443 5.88868C11.4476 5.89527 11.4818 5.92748 11.486 5.93263C11.5017 5.95254 11.4716 5.9259 11.4889 5.94728C11.4934 5.95268 11.5262 5.98567 11.5319 5.9922C11.5784 6.04547 11.4963 5.97519 11.4821 5.9629C11.4284 5.91657 11.4703 5.96204 11.4479 5.94532C11.4253 5.92837 11.4047 5.89943 11.3893 5.89064C11.3576 5.87261 11.3539 5.8862 11.3454 5.89161C11.3422 5.894 11.3897 5.93808 11.3903 5.93946C11.3951 5.95568 11.3428 5.9149 11.4284 6.00685C11.1926 5.77905 11.4474 6.03291 11.3932 5.99513C11.3889 5.99202 11.2789 5.88374 11.2643 5.86427C11.2507 5.84572 11.2884 5.87564 11.2673 5.84767C11.2622 5.84094 11.1635 5.73248 11.1579 5.7256C11.1144 5.67211 11.2795 5.83597 11.2888 5.84474C11.3884 5.93838 11.2841 5.8236 11.277 5.81349C11.2488 5.77151 11.2776 5.78842 11.2585 5.75782C11.246 5.73783 11.1389 5.62955 11.1452 5.62989C11.1662 5.63128 11.3198 5.7771 11.1989 5.63771C11.1731 5.60792 11.0533 5.49266 11.153 5.57814C11.1613 5.58528 11.248 5.66154 11.1989 5.60646C11.1925 5.59932 11.1573 5.56492 11.155 5.56153C11.1399 5.53972 11.1694 5.56366 11.1608 5.54786C11.1514 5.53107 11.1362 5.50626 11.152 5.51368C11.1618 5.51833 11.2289 5.57935 11.2458 5.59376C11.2937 5.63479 11.2236 5.5582 11.28 5.61036C11.337 5.6631 11.4166 5.75045 11.4577 5.78028C11.3687 5.69091 11.2775 5.5988 11.1882 5.5088C11.2036 5.49961 11.2452 5.51632 11.2536 5.50001C11.2534 5.49696 11.2066 5.45306 11.2048 5.44825C11.2041 5.4337 11.2444 5.46124 11.238 5.44044C11.2324 5.42386 11.1876 5.36839 11.1804 5.34962C11.2859 5.44808 11.2605 5.40419 11.2761 5.40724C11.2816 5.40842 11.3086 5.43607 11.319 5.44337C11.3571 5.46979 11.2663 5.38391 11.2526 5.3672C11.199 5.2997 11.4028 5.50249 11.4059 5.48927C11.3993 5.48112 11.3037 5.37482 11.2975 5.3672C11.2581 5.3185 11.3351 5.40468 11.3464 5.41017C11.3663 5.41955 11.3963 5.44132 11.3708 5.40333C11.3632 5.39209 11.2993 5.32036 11.3552 5.36915C11.3624 5.37551 11.3981 5.4109 11.4011 5.4131C11.4429 5.44145 11.33 5.32826 11.2956 5.28614C11.2615 5.24432 11.3452 5.31666 11.3688 5.3379C11.4196 5.38343 11.4016 5.37191 11.3972 5.37013C11.463 5.43998 11.4555 5.42439 11.4645 5.42677C11.5758 5.53706 11.5736 5.52566 11.4733 5.42872C11.4626 5.41848 11.4702 5.43114 11.4645 5.42677C11.3588 5.31524 11.3496 5.29672 11.4567 5.39259C11.5069 5.43749 11.5606 5.49484 11.5485 5.46681C11.543 5.45401 11.4646 5.37952 11.447 5.35548C11.4068 5.3007 11.4877 5.36155 11.4841 5.34278C11.481 5.33481 11.4385 5.29699 11.4362 5.29103C11.4302 5.27522 11.465 5.30138 11.4548 5.28126C11.4537 5.27936 11.4114 5.2387 11.4098 5.23439C11.4165 5.21758 11.4543 5.23497 11.4675 5.22364C11.4738 5.21806 11.4604 5.18296 11.4714 5.18165C11.4902 5.17915 11.5666 5.22963 11.5602 5.20509C11.5559 5.18906 11.5112 5.14642 11.4841 5.11427C11.4321 5.05246 11.544 5.14627 11.5612 5.16114C11.5723 5.17072 11.592 5.17055 11.5856 5.16017C11.5812 5.15378 11.544 5.11749 11.5397 5.11231C11.5163 5.06159 11.5192 5.03649 11.5524 5.042C11.5535 5.04259 11.5993 5.09002 11.6013 5.09083C11.6296 5.10317 11.5784 5.04119 11.5514 5.00099C11.5244 4.96074 11.5412 4.96639 11.6247 5.042C11.6202 5.02759 11.6619 5.05516 11.6872 5.07228C11.7121 5.08913 11.6267 5.00276 11.6218 4.99708C11.576 4.92871 11.6342 4.97344 11.654 4.96974C11.663 4.96748 11.6606 4.94437 11.6569 4.92872C11.6537 4.916 11.6777 4.93394 11.6686 4.91603C11.6664 4.91265 11.627 4.87378 11.6257 4.87208C11.5828 4.8194 11.6784 4.92003 11.697 4.93653C11.7641 4.99635 11.8003 5.02792 11.777 4.9922C11.7716 4.98389 11.6346 4.83841 11.6286 4.82716C11.6216 4.81339 11.6701 4.86386 11.6628 4.84962C11.6621 4.84833 11.6309 4.81709 11.6335 4.81544C11.6498 4.81112 11.6796 4.81848 11.6872 4.8047C11.6883 4.80295 11.6377 4.75626 11.6374 4.75196C11.6414 4.73621 11.6545 4.72686 11.6872 4.74024C11.6954 4.74373 11.7291 4.78026 11.7399 4.79005C11.8034 4.84734 11.7237 4.75906 11.7184 4.75196C11.6927 4.69091 11.7875 4.75833 11.7673 4.70216C11.766 4.69889 11.6758 4.59401 11.7624 4.67384C11.7682 4.67915 11.8568 4.76045 11.8014 4.69923C11.7962 4.69379 11.7525 4.65446 11.7604 4.65528C11.768 4.65563 11.7457 4.62115 11.7985 4.66407C11.8161 4.67849 11.9029 4.75829 11.8405 4.68653C11.8361 4.6815 11.6902 4.5209 11.7985 4.62403C11.8167 4.64136 11.9273 4.7533 11.8757 4.69044C11.8656 4.67824 11.8386 4.65514 11.8259 4.63673C11.8063 4.60852 11.842 4.63227 11.7975 4.57716C11.7889 4.56657 11.7186 4.48789 11.779 4.542C11.7887 4.5507 11.8249 4.58931 11.8307 4.59181C11.8583 4.60348 11.8421 4.57039 11.8757 4.5879C11.8875 4.59408 11.946 4.65525 11.9655 4.66896C11.9847 4.68214 12.0066 4.69186 11.9821 4.66114C11.9577 4.63049 11.859 4.53844 11.8552 4.5254C11.8421 4.47178 11.9181 4.50781 11.947 4.4961C11.9512 4.49432 11.9148 4.46214 11.9186 4.45704C11.9277 4.44453 11.929 4.41665 11.9538 4.41407C11.9308 4.41042 11.9076 4.40866 11.8845 4.41017C11.8742 4.41165 11.8847 4.47818 11.8737 4.48146C11.8258 4.49222 11.7837 4.44372 11.7341 4.4629C11.6956 4.47806 11.6532 4.55029 11.613 4.56837C11.5885 4.42454 11.5293 4.47272 11.486 4.45997C11.4709 4.45543 11.4713 4.41705 11.4606 4.40431C11.4199 4.35781 11.4386 4.48483 11.4274 4.50489C11.3796 4.59025 11.3755 4.30245 11.319 4.30958C11.3144 4.31795 11.2805 4.46082 11.2751 4.47267C11.2432 4.53483 11.2692 4.42054 11.2497 4.40821C11.2131 4.38744 11.1871 4.35046 11.1442 4.39552C11.1316 4.40931 11.102 4.50442 11.0778 4.43067C11.0747 4.42113 11.0763 4.37171 11.0739 4.3672C11.0274 4.31763 11.0262 4.47693 10.9997 4.53126C10.9731 4.58528 10.932 4.47533 10.9235 4.44337C10.9019 4.36208 10.9391 4.40715 10.9411 4.4004C10.955 4.30437 10.9249 4.32062 10.902 4.31251C10.8987 4.15585 10.867 4.16523 10.8786 4.3047C10.8799 4.31992 10.8974 4.30541 10.902 4.31251C10.8819 4.4662 10.8472 4.48544 10.8083 4.34181C10.7902 4.27456 10.8069 4.19693 10.7516 4.2256C10.7267 4.2388 10.7356 4.34558 10.7136 4.37501C10.663 4.44201 10.5977 4.34193 10.5456 4.35743C10.5266 4.36319 10.5449 4.42275 10.5319 4.42872C10.4977 4.44449 10.4676 4.40068 10.4333 4.42286C10.4302 4.42499 10.4372 4.48653 10.4264 4.48731C10.3452 4.49442 10.274 4.45521 10.1891 4.45411C10.1481 4.45388 10.0752 4.48726 10.0329 4.48048C9.95924 4.46897 9.86827 4.37954 9.80535 4.40138C9.76456 4.4155 9.7731 4.47749 9.75555 4.51954C9.72158 4.60029 9.66206 4.45426 9.65399 4.43165C9.65681 4.42966 9.68755 4.41498 9.66961 4.38478C9.65902 4.32114 9.65464 4.42495 9.65399 4.43165C9.648 4.41715 9.57835 4.40348 9.56414 4.41505C9.55653 4.42151 9.5603 4.48017 9.55633 4.48243C9.46209 4.53472 9.36773 4.54983 9.27215 4.52247C9.27051 4.52132 9.27273 4.45937 9.26922 4.45411C9.21383 4.42498 9.17818 4.50516 9.1325 4.55274C9.087 4.59993 9.05108 4.58364 9.0241 4.47169C8.98964 4.48585 8.93927 4.43546 8.91082 4.40528C8.88277 4.37684 8.87913 4.5033 8.87664 4.50587C8.79869 4.58643 8.75329 4.51351 8.67254 4.50196C8.63403 4.49634 8.55701 4.51438 8.51531 4.52833C8.4824 4.5395 8.46265 4.51021 8.43231 4.52931C8.42834 4.53257 8.43257 4.58861 8.43133 4.59083C8.39751 4.65862 8.4138 4.52034 8.40692 4.49513C8.38155 4.40497 8.36535 4.35701 8.32195 4.39942C8.31182 4.41081 8.2825 4.60849 8.26434 4.62013C8.24073 4.63478 8.24991 4.56413 8.22528 4.58106C8.22315 4.58248 8.22303 4.62696 8.2077 4.62501C8.13663 4.6165 8.05888 4.59031 7.98504 4.59474C7.97544 4.5964 7.98779 4.66524 7.97332 4.667C7.90496 4.67527 7.82996 4.67334 7.76336 4.64064C7.74696 4.63235 7.75712 4.58301 7.7536 4.56837C7.73218 4.48209 7.70207 4.60279 7.69598 4.61036C7.57382 4.67194 7.47967 4.55613 7.35516 4.61134C7.34792 4.61604 7.29631 4.75116 7.27313 4.63478C7.27154 4.62695 7.24854 4.50632 7.2282 4.5879C7.22694 4.59304 7.24119 4.65528 7.21649 4.64942C7.19147 4.64312 7.15128 4.68415 7.11688 4.61622C7.10598 4.59475 7.08004 4.47458 7.04754 4.57032C7.04542 4.57701 6.99518 4.79338 6.97723 4.64454C6.97433 4.61996 6.97683 4.46151 6.93817 4.542C6.93075 4.55773 6.94402 4.59321 6.92449 4.61524C6.89459 4.64906 6.85577 4.60739 6.81903 4.67774C6.81261 4.69022 6.78526 4.79734 6.76336 4.71583C6.75997 4.703 6.76604 4.6506 6.75457 4.64454C6.69957 4.61618 6.64148 4.65179 6.58563 4.61524C6.56605 4.60206 6.57592 4.51698 6.55535 4.49415C6.53472 4.47128 6.49392 4.44927 6.47235 4.48829C6.45099 4.52739 6.47381 4.66205 6.44207 4.67384C6.3015 4.72114 6.16154 4.64157 6.02117 4.62989C6.00087 4.62869 6.01751 4.67682 5.98699 4.67774C5.87384 4.68144 5.67881 4.72646 5.58074 4.62306C5.50243 4.54026 5.60075 4.47707 5.5407 4.44337C5.5118 4.42869 5.48029 4.58587 5.47332 4.59083C5.40518 4.64107 5.35787 4.57174 5.29656 4.59278C5.28385 4.59725 5.29566 4.66098 5.28485 4.66407C5.24792 4.67512 5.2088 4.64712 5.17352 4.65235C5.15821 4.65574 5.1606 4.70395 5.14617 4.70021C5.1114 4.69169 5.08048 4.67081 5.04656 4.62501C5.04371 4.62029 5.06443 4.55988 5.03875 4.55763C4.99699 4.55412 4.94519 4.50891 4.89715 4.55567C4.88294 4.56991 4.88185 4.68165 4.85125 4.6045C4.84482 4.58835 4.85374 4.45417 4.81805 4.57032C4.81148 4.59103 4.75161 4.74496 4.72235 4.64454C4.71453 4.61748 4.69451 4.50817 4.67742 4.5254C4.67514 4.52833 4.68477 4.58888 4.67059 4.59474C4.66934 4.59522 4.66793 4.59526 4.66668 4.59571C4.6325 4.6136 4.59635 4.60897 4.56317 4.62989C4.55453 4.63618 4.57308 4.69741 4.56024 4.70411C4.52529 4.72258 4.47934 4.71199 4.44012 4.69923C4.42563 4.69438 4.4254 4.64209 4.42352 4.63673C4.39113 4.55142 4.4029 4.66945 4.40008 4.68067C4.37703 4.72925 4.34015 4.6793 4.31414 4.70216C4.30732 4.7085 4.32788 4.76279 4.32781 4.76856C4.3258 4.82223 4.30925 4.7172 4.29559 4.70899C4.25707 4.68611 4.22466 4.70195 4.19793 4.71974C4.18814 4.72638 4.22321 4.78592 4.21453 4.79103C4.16415 4.8223 4.10853 4.8405 4.03973 4.83497C4.02667 4.83368 4.00744 4.78382 3.99969 4.77442C3.94522 4.71033 3.97817 4.81976 3.98016 4.83302C3.98454 4.88818 3.95294 4.85394 3.93914 4.87306C3.88467 4.95058 3.79674 5.00129 3.72039 5.05372C3.70579 5.06366 3.69159 5.07329 3.6784 5.08302C3.57317 5.16152 3.46898 5.22287 3.41863 5.34474C3.41805 5.35284 3.48157 5.3771 3.48016 5.3838C3.45537 5.46798 3.39766 5.53795 3.39227 5.62794C3.39177 5.63513 3.45815 5.64453 3.45965 5.65626C3.46297 5.68011 3.45255 5.70525 3.42742 5.72267C3.41508 5.73138 3.36263 5.70443 3.35125 5.71388C3.32461 5.7362 3.31477 5.76609 3.32098 5.79591C3.32552 5.80776 3.39269 5.80065 3.39129 5.81544C3.38646 5.87761 3.38858 5.93814 3.37274 6.00001C3.36259 6.06139 3.34343 6.12324 3.30926 6.18556C3.30245 6.19646 3.1658 6.2063 3.19207 6.2295C3.2302 6.23125 3.27535 6.23069 3.3161 6.23146C3.33806 6.46147 3.29026 6.68927 3.28289 6.91993C3.2826 6.92965 3.35529 6.91286 3.35516 6.93165C3.35408 7.04062 3.37383 7.14635 3.30145 7.25782C3.29371 7.26876 3.16689 7.26341 3.18621 7.29591C3.18985 7.30203 3.2066 7.35041 3.23406 7.36329C3.23826 7.36501 3.29873 7.35626 3.30047 7.37208C3.30954 7.46398 3.29598 7.56062 3.25945 7.65235C3.25317 7.66697 3.18908 7.6516 3.18426 7.66212C3.1509 7.73681 3.19898 7.81832 3.14129 7.88966C3.10222 7.93727 2.99168 7.91993 2.88348 7.94532C2.86869 7.94949 2.86548 7.97793 2.8034 7.9795C2.64496 7.98343 2.47131 7.96973 2.30242 7.9756C2.26608 7.97684 2.30498 8.01551 2.21746 7.9922C2.21158 7.99056 2.18187 7.96218 2.15203 7.95509C2.13135 7.95018 2.06709 7.95929 2.0407 7.94923C2.01462 7.93917 2.06777 7.92781 2.0368 7.91114C2.00518 7.89472 1.93309 7.90136 1.92449 7.86817C1.90506 7.79083 1.92612 7.68932 1.95477 7.61231C1.96391 7.58877 2.00233 7.60029 2.01043 7.58399C2.02589 7.55138 2.00667 7.52052 2.02508 7.48829C2.03203 7.47816 2.09278 7.49083 2.0993 7.48048C2.12708 7.4192 2.11142 7.3609 2.12469 7.29884C2.19073 6.99258 2.21416 6.69088 2.24285 6.38087C2.25235 6.27871 2.30981 6.15431 2.28485 6.04884C2.2811 6.03717 2.22862 6.04393 2.22235 6.042C2.16054 6.00941 2.24073 6.01496 2.2702 6.00001C2.27378 5.99777 2.27734 5.99532 2.27899 5.9922C2.33771 5.87877 2.35216 5.75923 2.34735 5.64942C2.34479 5.60324 2.23002 5.6309 2.29754 5.59474C2.30217 5.59229 2.35821 5.61349 2.36688 5.60255C2.3854 5.57709 2.38581 5.5224 2.3952 5.50196C2.41333 5.46306 2.41408 5.45609 2.42449 5.41798C2.43953 5.36547 2.48569 5.31253 2.49188 5.25392C2.49308 5.24121 2.43052 5.23731 2.42742 5.21485C2.42435 5.1923 2.44852 5.14348 2.46844 5.13185C2.48829 5.1203 2.52948 5.14539 2.5407 5.14649C2.6344 5.15768 2.54172 5.0533 2.54266 5.04396C2.55422 4.88986 2.67944 4.81396 2.75262 4.70509C2.80863 4.62135 2.85713 4.52082 2.92449 4.45021C2.95739 4.41579 2.9925 4.38741 3.02801 4.36134C3.07907 4.32389 3.13072 4.29095 3.1784 4.2461C3.18702 4.23809 3.13053 4.19271 3.14129 4.18263C3.25582 4.07562 3.39302 3.99161 3.55047 3.95997C3.56598 3.95756 3.57846 4.02018 3.59539 4.02149C3.70254 4.02062 3.86832 4.08165 3.82293 3.81056C3.88632 3.79722 3.96423 3.78248 4.03289 3.81935C4.07677 3.84325 4.06222 3.91758 4.09539 3.87892C4.10301 3.87026 4.07615 3.81695 4.08856 3.80763C4.14396 3.77054 4.215 3.77417 4.27117 3.73341C4.28265 3.72496 4.27009 3.67315 4.27215 3.6631C4.29112 3.58146 4.36227 3.70054 4.37371 3.70899C4.46536 3.76748 4.52139 3.73627 4.5993 3.73536C4.61699 3.73502 4.59404 3.66458 4.61102 3.66114C4.62925 3.65868 4.64813 3.65791 4.66668 3.65724C4.73054 3.65454 4.79524 3.66312 4.85711 3.68849C4.87427 3.69569 4.85872 3.75607 4.86688 3.76271C4.90306 3.79087 4.91128 3.67639 4.94598 3.70118C4.95287 3.70711 4.94873 3.75682 4.94988 3.76368C4.97077 3.85335 4.98943 3.72645 4.99481 3.72364C5.06264 3.68571 5.10598 3.8176 5.17156 3.79884C5.17918 3.79595 5.16227 3.73118 5.18426 3.72853C5.33122 3.71044 5.48705 3.72867 5.6325 3.78126C5.65439 3.78991 5.6389 3.83869 5.64031 3.84474C5.6632 3.93829 5.67776 3.81545 5.68524 3.80763C5.74346 3.77304 5.79802 3.87952 5.83758 3.72755C6.08401 3.78025 6.32951 3.69528 6.57391 3.83106C6.57697 3.83262 6.57209 3.89371 6.57781 3.89845C6.65251 3.93373 6.63874 3.83625 6.68817 3.71681C6.70069 3.68752 6.73853 3.83126 6.74188 3.84181C6.75383 3.88049 6.74111 3.97223 6.74481 3.98146C6.77862 4.04066 6.77347 3.73192 6.81903 3.73146C6.82045 3.73197 6.81422 3.78927 6.81805 3.79493C6.82994 3.81265 6.84254 3.79 6.85418 3.80958C6.88065 3.85521 6.88991 4.00427 6.93035 3.91798C6.9355 3.90664 6.92783 3.73136 6.96844 3.73927C6.98468 3.74272 7.05666 3.73963 7.07684 3.75099C7.09696 3.76234 7.08322 3.81885 7.08465 3.8213C7.13876 3.89588 7.11821 3.92691 7.1452 4.03712C7.17236 4.14734 7.16537 3.88482 7.17645 3.85548C7.18761 3.82667 7.22716 3.8877 7.23699 3.90919C7.24667 3.93043 7.23464 3.96606 7.24285 3.97853C7.30043 4.05781 7.2688 3.84837 7.28778 3.80665C7.33246 3.7083 7.36697 3.90279 7.40789 3.92189C7.41885 3.92695 7.41018 3.88375 7.41961 3.87892C7.45865 3.86307 7.48265 3.92371 7.52703 3.86817C7.5343 3.85909 7.57017 3.74159 7.59344 3.82716C7.59673 3.83956 7.58753 3.88854 7.60418 3.89942C7.629 3.91558 7.6732 3.92604 7.69988 3.91017C7.71963 3.89815 7.69749 3.81792 7.72235 3.84278C7.73336 3.85391 7.71332 3.90103 7.73406 3.91798C7.75491 3.93451 7.80673 3.93228 7.82684 3.93067C7.84688 3.92902 7.83596 3.86836 7.83758 3.86427C7.84742 3.84103 7.88549 3.81187 7.88934 3.81153C8.06081 3.80412 8.21945 3.90693 8.38641 3.87306C8.39854 3.86955 8.39106 3.81087 8.39227 3.80567C8.43712 3.77885 8.40195 3.94888 8.43328 4.00587C8.42875 3.87593 8.44759 3.89903 8.47918 3.88478C8.4938 3.87703 8.48562 3.82738 8.48699 3.82228C8.50953 3.74637 8.52494 3.84508 8.52899 3.86524C8.54394 3.93941 8.56081 3.85174 8.57098 3.90138C8.58103 3.95048 8.5578 4.02288 8.58758 4.02247C8.59602 3.97587 8.57436 3.85466 8.59735 3.83497C8.6842 3.76077 8.84597 3.85535 8.9157 3.86524C8.98527 3.87512 9.00795 3.867 9.04852 3.8838C9.12156 3.91393 9.09484 3.82348 9.14031 3.78224C9.18555 3.74211 9.16414 3.96268 9.17059 4.01075C9.17703 4.05843 9.18406 4.00993 9.19207 4.03614C9.19976 4.06218 9.18251 4.09457 9.20086 4.1045C9.21965 4.11433 9.27131 4.02939 9.27801 3.9795C9.2921 3.87383 9.26929 3.7628 9.31903 3.80177C9.32159 3.80511 9.31264 3.86128 9.32293 3.86817C9.40993 3.91309 9.50069 3.91634 9.58758 3.95606C9.5992 3.96193 9.58892 4.02505 9.59539 4.03028C9.66782 4.0718 9.64261 3.96241 9.68231 3.84083C9.67342 4.00228 9.69496 4.10123 9.74969 4.10255C9.78273 4.10318 9.77715 4.03224 9.79852 3.98243C9.80499 3.96773 9.82847 4.01559 9.8327 3.98243C9.84654 3.87395 9.82501 3.75257 9.88153 3.80079C9.884 3.80308 9.87613 3.86194 9.88445 3.86622C9.93992 3.88977 9.9467 3.77669 10.0065 3.76271C10.0536 3.75191 10.1375 3.82076 10.1911 3.83204C10.19 4.01378 10.2408 3.97281 10.2614 3.84767C10.296 3.85267 10.3335 3.84518 10.3669 3.86231C10.3784 3.86821 10.3713 3.9209 10.3727 3.92677C10.3951 4.01604 10.4102 3.89444 10.4177 3.88966C10.4989 3.84326 10.5647 3.93501 10.6423 3.84474C10.645 3.84148 10.6498 3.71536 10.6706 3.80763C10.6718 3.81415 10.6468 3.87155 10.6833 3.87599C10.7199 3.88096 10.7881 3.94755 10.8386 3.88966C10.8508 3.87559 10.882 3.77327 10.9069 3.85255C10.9102 3.86338 10.9071 3.89971 10.9118 3.91993C10.9273 3.9841 10.9356 3.85717 10.9538 3.96485C10.972 4.07335 11.0101 4.15495 11.0612 4.08009C11.0632 4.07445 11.0748 3.97781 11.0905 3.97853C11.1161 3.98116 11.1526 4.00248 11.1794 4.00196C11.1917 4.00162 11.1848 3.94292 11.1862 3.93751C11.2725 3.9023 11.3341 3.95809 11.4264 3.98243C11.4434 3.98701 11.4923 3.90121 11.5251 3.96876C11.5611 4.04295 11.5243 4.35185 11.6071 4.27833C11.6405 4.24854 11.6829 3.85782 11.7429 4.06056C11.8592 4.01037 11.967 4.11376 12.0837 4.042C12.0891 4.03699 12.1056 3.9292 12.1179 3.93067C12.1359 3.93361 12.146 3.98351 12.1589 3.98731C12.2137 4.0027 12.2642 3.95903 12.3171 3.96583C12.3368 3.9687 12.3304 4.02148 12.3542 4.02442C12.3779 4.02644 12.3942 3.95784 12.4264 3.99122C12.4332 3.99842 12.4361 4.01619 12.443 4.03614C12.462 4.03329 12.4781 4.02854 12.486 4.01271C12.4872 4.01049 12.4366 3.96314 12.4362 3.95997C12.4432 3.92918 12.4813 3.92968 12.486 3.89649C12.4857 3.8938 12.4559 3.86493 12.443 3.8506C12.4192 3.87012 12.4233 3.86183 12.4362 3.84376L12.4421 3.83204C12.4429 3.83181 12.4439 3.83207 12.445 3.83204C12.4626 3.80906 12.4878 3.78061 12.4948 3.77247C12.5044 3.76136 12.5042 3.74173 12.4938 3.74806C12.4874 3.75244 12.4471 3.79295 12.445 3.79396C12.3944 3.81727 12.3703 3.81432 12.3757 3.78126C12.3762 3.78022 12.4196 3.73729 12.4235 3.73243C12.4361 3.70384 12.3749 3.75519 12.3347 3.78224C12.2944 3.80925 12.3001 3.79244 12.3757 3.70899C12.3608 3.71389 12.3887 3.67193 12.4059 3.64649C12.4228 3.62161 12.3366 3.70676 12.3307 3.71192C12.2624 3.75768 12.3071 3.69946 12.3034 3.6797C12.3017 3.67022 12.2773 3.67198 12.2614 3.67579C12.2491 3.67868 12.2668 3.65561 12.2497 3.66407C12.2473 3.66528 12.2075 3.70665 12.2057 3.70802C12.1533 3.75069 12.2517 3.65616 12.2692 3.63673C12.3293 3.5693 12.3612 3.53295 12.3249 3.55665C12.3142 3.56433 12.1727 3.6984 12.1608 3.70509C12.1469 3.71214 12.1982 3.66224 12.1823 3.67091C12.18 3.67268 12.1499 3.70276 12.1491 3.69923C12.1449 3.68306 12.1516 3.65441 12.1384 3.64649C12.1367 3.64538 12.0919 3.69258 12.0856 3.69532C12.0698 3.69128 12.0604 3.67839 12.0739 3.64552C12.0783 3.63667 12.1141 3.60442 12.1237 3.59376C12.1826 3.5285 12.0871 3.61426 12.0847 3.61524C12.0239 3.64072 12.0918 3.54544 12.0348 3.56642C12.0296 3.56946 11.9284 3.65612 12.0075 3.57032C12.0157 3.56144 12.0929 3.47805 12.0329 3.53224C12.0275 3.53745 11.9878 3.58026 11.988 3.57325C11.9888 3.56517 11.9537 3.58816 11.9968 3.53517C12.0104 3.5184 12.0917 3.43011 12.0192 3.49317C12.0091 3.50221 11.8561 3.64088 11.9567 3.53517C11.9737 3.51734 12.0861 3.4053 12.0231 3.45704C12.0109 3.46714 11.9878 3.49412 11.9694 3.50685C11.9415 3.52614 11.9654 3.49117 11.9108 3.53517C11.9011 3.54306 11.8212 3.61551 11.8757 3.5547C11.8842 3.54516 11.9213 3.50935 11.9245 3.50294C11.9366 3.47492 11.9038 3.49097 11.9216 3.45704C11.9291 3.44405 11.9896 3.38612 12.0026 3.3672C12.0157 3.34809 12.0254 3.3272 11.9948 3.35157C11.9643 3.37584 11.8728 3.47376 11.8591 3.47853C11.8053 3.49161 11.8409 3.41434 11.8288 3.38575C11.8251 3.38431 11.7946 3.41871 11.7897 3.41505C11.7704 3.40155 11.7112 3.40472 11.7692 3.31837C11.8163 3.24855 11.876 3.21801 11.8913 3.18556C11.8985 3.16998 11.7816 3.2768 11.777 3.27931C11.7315 3.30508 11.7738 3.2486 11.7497 3.25489C11.7439 3.25736 11.7034 3.30097 11.6979 3.30372C11.6847 3.30623 11.6989 3.28072 11.6901 3.27931C11.6856 3.27976 11.6568 3.30907 11.653 3.30958C11.654 3.29853 11.6636 3.27861 11.6911 3.24122C11.6951 3.23658 11.7401 3.19763 11.738 3.19239C11.7352 3.18318 11.7579 3.14515 11.7184 3.17091C11.7062 3.1791 11.6279 3.25759 11.6774 3.19923C11.6879 3.18688 11.7843 3.09297 11.697 3.16993C11.6815 3.18349 11.5637 3.2843 11.6305 3.20899C11.6483 3.18898 11.7224 3.10844 11.7077 3.11817C11.7032 3.12221 11.6639 3.16302 11.6579 3.16505C11.637 3.17146 11.6336 3.16019 11.613 3.16603C11.606 3.16955 11.568 3.21345 11.5602 3.21583C11.5411 3.21878 11.5418 3.19741 11.5475 3.17579C11.5497 3.16785 11.5865 3.13414 11.5915 3.12892C11.6526 3.06096 11.5635 3.14549 11.5573 3.14942C11.5198 3.17269 11.5551 3.12659 11.5378 3.13087C11.532 3.1333 11.4934 3.1739 11.4889 3.17774C11.449 3.21019 11.527 3.13852 11.5329 3.12794C11.5492 3.09845 11.538 3.09416 11.5261 3.09278C11.5203 3.0942 11.4779 3.14192 11.4733 3.14259C11.452 3.13784 11.4429 3.11936 11.4567 3.08009C11.4599 3.07227 11.4973 3.03753 11.5055 3.02833C11.5613 2.96565 11.4753 3.04133 11.4665 3.04786C11.4272 3.07685 11.4562 3.04367 11.447 3.04396C11.3937 3.05164 11.3867 3.00172 11.3786 2.96681C11.368 2.9216 11.3811 2.86516 11.3454 2.84767C11.3409 2.84932 11.2993 2.89303 11.2936 2.89649C11.2629 2.8895 11.2631 2.85253 11.2302 2.84767C11.2276 2.84721 11.1848 2.89353 11.1774 2.89649C11.1652 2.89849 11.1608 2.88925 11.1706 2.86915C11.176 2.85909 11.2176 2.8239 11.2223 2.81446C11.2314 2.79368 11.2288 2.78393 11.2155 2.78517C11.2098 2.78586 11.1675 2.83519 11.1618 2.83497C11.1342 2.81683 11.1035 2.80185 11.1423 2.71681C11.1481 2.70786 11.2398 2.61322 11.2184 2.62794C11.1913 2.6546 11.1594 2.68619 11.1305 2.71485C11.0817 2.69704 11.0826 2.63041 11.0544 2.59181C11.0529 2.59055 11.0067 2.64132 11.0016 2.64161C10.9866 2.62507 10.9568 2.62398 10.9919 2.55665C10.9954 2.54993 11.086 2.46021 11.068 2.46876C11.0647 2.47043 11.0456 2.47632 11.0241 2.49415C11.0195 2.4984 10.9797 2.54011 10.9763 2.53907C10.9566 2.53219 10.9522 2.50852 10.9645 2.46974C10.9666 2.46334 11.0144 2.42 11.0163 2.41505C11.0291 2.38057 10.983 2.40258 11.0134 2.35157C11.034 2.31711 11.1152 2.24144 11.1882 2.16114C11.1979 2.15013 11.1962 2.14374 11.2399 2.09962C11.3514 1.98705 11.4759 1.86633 11.5944 1.7461C11.62 1.72019 11.5864 1.74141 11.652 1.68263C11.6565 1.67864 11.6817 1.6626 11.7038 1.64259C11.7192 1.62864 11.7628 1.58165 11.7829 1.56446C11.8029 1.54739 11.7673 1.58689 11.7917 1.56739C11.8165 1.54732 11.8668 1.49542 11.8776 1.49415ZM2.85027 7.84962C2.92134 7.86087 2.92714 7.81812 2.8532 7.82716C2.85023 7.82752 2.84732 7.84911 2.85027 7.84962ZM11.3249 5.96095C11.3864 6.00853 11.4886 6.1068 11.4636 6.10255C11.4572 6.1013 11.4094 6.03801 11.3893 6.02442C11.3529 5.99983 11.4657 6.11996 11.3972 6.06349C11.3843 6.05267 11.284 5.93843 11.2829 5.93556L11.3249 5.96095ZM11.3298 5.79884C11.2977 5.77042 11.3278 5.8102 11.3679 5.84571C11.4001 5.87432 11.3699 5.83441 11.3298 5.79884ZM11.2819 5.54396C11.2256 5.49461 11.3404 5.61508 11.3639 5.63575C11.4389 5.70073 11.3395 5.59447 11.2819 5.54396ZM11.9938 5.3379C11.996 5.33965 12.0003 5.33891 11.9987 5.33692C11.95 5.28491 11.9401 5.28681 11.9938 5.3379ZM12.1696 5.12013C12.172 5.122 12.1754 5.12095 12.1628 5.10841C12.1196 5.06553 12.1289 5.08137 12.1696 5.12013ZM12.4089 5.08595C12.3302 4.9999 12.3065 5.00553 12.3962 5.08888C12.4007 5.09306 12.4119 5.0901 12.4089 5.08595ZM12.0153 4.43653C12.0852 4.48369 12.1156 4.5424 12.1481 4.55763C12.1637 4.5648 12.0569 4.44791 12.0544 4.44337C12.052 4.43922 12.0516 4.43543 12.0505 4.43263C12.0272 4.4272 12.0034 4.42378 11.9802 4.41896C11.9897 4.42295 12.0018 4.42741 12.0153 4.43653ZM12.1393 4.40333L12.1403 4.40431C12.1488 4.40073 12.1889 4.42481 12.1628 4.38478C12.1601 4.38088 12.1502 4.37112 12.1403 4.36036C12.14 4.3747 12.1396 4.38903 12.1393 4.40333ZM12.1403 4.34962C12.1637 4.37196 12.2331 4.44198 12.1638 4.36329C12.1603 4.35935 12.1517 4.3484 12.1413 4.33595C12.1412 4.34051 12.1404 4.34506 12.1403 4.34962ZM11.9704 4.23536C11.936 4.13661 11.9129 4.28202 11.9372 4.35841C11.9615 4.4344 11.9809 4.26534 11.9704 4.23536ZM12.1413 4.31153C12.1714 4.33892 12.2225 4.38603 12.2155 4.37501C12.2145 4.37356 12.1969 4.3557 12.1833 4.34181C12.1825 4.3414 12.1821 4.34063 12.1813 4.33985C12.1745 4.33279 12.1685 4.32736 12.1677 4.32521C12.1611 4.30416 12.1734 4.30084 12.1677 4.28028C12.1668 4.27743 12.1545 4.26494 12.1423 4.25294C12.1419 4.27247 12.1417 4.29201 12.1413 4.31153ZM12.1432 4.21192C12.1479 4.21256 12.1529 4.21256 12.1579 4.21388C12.1601 4.21447 12.1628 4.21924 12.1677 4.22364C12.1681 4.20493 12.1667 4.18606 12.1667 4.16798C12.1608 4.16224 12.1562 4.1577 12.155 4.15626C12.1381 4.13555 12.1495 4.14605 12.1657 4.16212C12.1653 4.12373 12.163 4.08913 12.1462 4.06739C12.1456 4.11516 12.1442 4.16352 12.1432 4.21192ZM12.3073 4.16114C12.3061 4.16399 12.3044 4.16707 12.3034 4.17091L12.3054 4.17286C12.3162 4.18253 12.3233 4.18726 12.3268 4.18946V4.18653C12.3231 4.18072 12.3153 4.17085 12.3073 4.16114ZM7.39324 4.04396C7.39428 4.10481 7.41578 4.08749 7.40887 4.03126C7.40792 4.028 7.39296 4.02546 7.39324 4.04396ZM8.74578 3.99903C8.73459 4.06982 8.77719 4.07491 8.76824 4.00099C8.76667 3.99811 8.74628 3.99617 8.74578 3.99903ZM6.46551 3.88673C6.44028 4.00275 6.53998 4.01477 6.51824 3.89259C6.51687 3.88628 6.46711 3.88092 6.46551 3.88673ZM12.4616 3.83595L12.4636 3.83692C12.4733 3.84159 12.5103 3.88578 12.5192 3.88966C12.5401 3.8987 12.5499 3.89535 12.5485 3.88185C12.5483 3.87969 12.5407 3.87279 12.5319 3.86427C12.5235 3.86523 12.5162 3.86701 12.5153 3.86231C12.5149 3.85931 12.5174 3.85501 12.5192 3.84962C12.5082 3.83891 12.4977 3.83001 12.4987 3.82814C12.509 3.81245 12.5183 3.79639 12.5397 3.792C12.5446 3.77888 12.5476 3.77032 12.5388 3.77247C12.5252 3.77586 12.4912 3.80924 12.4616 3.83595ZM12.6706 3.8545C12.6728 3.85657 12.6752 3.85838 12.6774 3.86036C12.6779 3.8591 12.6771 3.85757 12.6774 3.85646C12.6758 3.85483 12.6742 3.85321 12.6725 3.85157C12.6717 3.8522 12.6715 3.85369 12.6706 3.8545ZM12.6696 3.33497C12.618 3.38337 12.6206 3.39341 12.6716 3.33985C12.6734 3.33761 12.6717 3.33301 12.6696 3.33497ZM12.4421 3.17091C12.3992 3.21407 12.4141 3.20477 12.4528 3.16407C12.4551 3.16165 12.4554 3.15751 12.4421 3.17091ZM12.4186 2.92481C12.3328 3.00333 12.3383 3.02614 12.4216 2.93653C12.4259 2.93189 12.423 2.92093 12.4186 2.92481ZM11.2253 2.15138C11.1734 2.20001 11.1755 2.21054 11.2263 2.15724C11.2283 2.15509 11.2274 2.14942 11.2253 2.15138Z" fill="#555961"/>
<path d="M13.7829 8.00777C13.7888 8.00941 13.8185 8.03779 13.8483 8.04488C13.8692 8.0496 13.9321 8.04099 13.9587 8.05074C13.985 8.06079 13.9318 8.07217 13.9626 8.08883C13.994 8.10551 14.0672 8.09848 14.0758 8.1318C14.0952 8.20913 14.0742 8.31068 14.0456 8.38765C14.0365 8.41144 13.9968 8.39936 13.9889 8.41598C13.9735 8.44857 13.9927 8.47947 13.9743 8.51168C13.9663 8.52135 13.9056 8.50875 13.9001 8.51949C13.8723 8.58081 13.888 8.63902 13.8747 8.70113C13.8086 9.00739 13.7852 9.30909 13.7565 9.6191C13.747 9.72125 13.6905 9.84568 13.7155 9.95113C13.7196 9.96285 13.7732 9.95571 13.778 9.95797C13.8401 9.9907 13.7583 9.98477 13.7292 9.99996C13.7257 10.0021 13.723 10.0047 13.7214 10.0078C13.6626 10.1212 13.6482 10.2407 13.653 10.3505C13.6556 10.3968 13.7702 10.3688 13.7018 10.4052C13.6964 10.4072 13.6425 10.3869 13.6335 10.3974C13.6149 10.4229 13.6145 10.4776 13.6051 10.498C13.5869 10.5371 13.5853 10.5437 13.5749 10.582C13.5598 10.6345 13.5136 10.6874 13.5075 10.7461C13.5063 10.7587 13.5687 10.7627 13.5719 10.7851C13.575 10.8076 13.5518 10.8562 13.5319 10.8681C13.5122 10.8796 13.4712 10.8549 13.4596 10.8535C13.3658 10.8422 13.4586 10.9467 13.4577 10.956C13.4461 11.1101 13.3209 11.186 13.2477 11.2949C13.1917 11.3786 13.1432 11.4791 13.0758 11.5498C13.0429 11.5842 13.0069 11.6125 12.9714 11.6386C12.9205 11.6759 12.8695 11.7092 12.8219 11.7539C12.8133 11.7618 12.8694 11.8071 12.859 11.8173C12.7445 11.9244 12.6073 12.0083 12.4499 12.04C12.4341 12.043 12.4212 11.9789 12.404 11.9785C12.2968 11.9793 12.132 11.9185 12.1774 12.1894C12.1141 12.2027 12.0361 12.2173 11.9674 12.1806C11.9235 12.1567 11.9374 12.0819 11.904 12.1211C11.8967 12.13 11.9236 12.1826 11.9118 12.1923C11.8564 12.2294 11.7853 12.226 11.7292 12.2666C11.7177 12.275 11.7293 12.3268 11.7272 12.3369C11.7082 12.4184 11.6369 12.299 11.6256 12.291C11.5343 12.2329 11.4787 12.2636 11.401 12.2646C11.383 12.2647 11.406 12.3362 11.3883 12.3388C11.3703 12.3413 11.352 12.3421 11.3337 12.3427C11.2699 12.3454 11.205 12.3368 11.1432 12.3115C11.1262 12.3043 11.1412 12.2447 11.1335 12.2373C11.0973 12.2091 11.0891 12.3236 11.0544 12.2988C11.0472 12.2936 11.0507 12.2428 11.0495 12.2363C11.0286 12.1468 11.0109 12.273 11.0055 12.2763C10.9377 12.3146 10.8943 12.1827 10.8288 12.2011C10.8209 12.2035 10.8382 12.2688 10.8161 12.2714C10.669 12.2896 10.5134 12.2713 10.3678 12.2187C10.3455 12.2104 10.3614 12.1613 10.36 12.1552C10.3368 12.0603 10.3215 12.1875 10.3141 12.1923C10.256 12.2267 10.2023 12.1206 10.1628 12.2724C9.91617 12.2197 9.67 12.3051 9.42545 12.1689C9.42239 12.167 9.42773 12.1044 9.42155 12.1015C9.34711 12.0666 9.36154 12.1638 9.31217 12.2832C9.2997 12.313 9.26181 12.1687 9.25846 12.1582C9.24634 12.1191 9.25862 12.0261 9.25455 12.0185C9.22082 11.9595 9.22652 12.2666 9.18131 12.2685C9.17988 12.268 9.18514 12.2107 9.18131 12.205C9.16949 12.1879 9.15773 12.2099 9.14616 12.1904C9.1196 12.1449 9.10959 11.9951 9.06901 12.082C9.06387 12.0933 9.07215 12.2676 9.0319 12.2607C9.01573 12.2573 8.94401 12.2602 8.9235 12.249C8.9035 12.2377 8.91693 12.1818 8.91569 12.1787C8.86151 12.104 8.88121 12.0732 8.85416 11.9629C8.827 11.8526 8.83497 12.1151 8.82389 12.1445C8.81281 12.1735 8.77328 12.1124 8.76334 12.0908C8.75359 12.0694 8.76513 12.0336 8.75651 12.0214C8.69893 11.9422 8.73154 12.1516 8.71256 12.1933C8.66794 12.2918 8.63328 12.0979 8.59244 12.0781C8.58157 12.073 8.58974 12.1156 8.58073 12.1211C8.54172 12.1369 8.51761 12.0765 8.4733 12.1318C8.46604 12.1409 8.43016 12.2582 8.4069 12.1728C8.4036 12.1604 8.41281 12.1114 8.39616 12.1005C8.37127 12.0842 8.3262 12.0736 8.29948 12.0898C8.27998 12.102 8.30256 12.1815 8.27799 12.1572C8.26695 12.1461 8.28702 12.0989 8.26627 12.082C8.24548 12.0652 8.19254 12.0677 8.17252 12.0693C8.15309 12.0718 8.16339 12.1316 8.16178 12.1357C8.15197 12.1585 8.11596 12.1871 8.111 12.1884C7.93952 12.1958 7.78088 12.093 7.61393 12.1269C7.60143 12.1295 7.60921 12.1887 7.60807 12.1943C7.56322 12.2211 7.59839 12.0511 7.56705 11.9941C7.57158 12.124 7.55275 12.1009 7.52116 12.1152C7.50618 12.1225 7.51473 12.1726 7.51334 12.1777C7.4908 12.2538 7.47442 12.1549 7.47037 12.1347C7.45543 12.0608 7.43953 12.1482 7.42936 12.0986C7.41923 12.0493 7.44207 11.9766 7.41178 11.9775C7.4034 12.0242 7.42596 12.1453 7.40299 12.165C7.31627 12.2394 7.15454 12.1448 7.08463 12.1347C7.01501 12.1248 6.99237 12.1329 6.95182 12.1162C6.87851 12.0858 6.90555 12.1765 6.86002 12.2177C6.81456 12.2586 6.83619 12.0374 6.82975 11.9892C6.82331 11.9415 6.81628 11.99 6.80827 11.9638C6.80049 11.9377 6.81722 11.9053 6.7985 11.8955C6.77948 11.8867 6.72902 11.9708 6.72233 12.0205C6.70825 12.1261 6.73097 12.237 6.68131 12.1982C6.67845 12.1959 6.68738 12.1377 6.67643 12.1318C6.58953 12.087 6.49955 12.0835 6.41276 12.0439C6.40081 12.0384 6.41092 11.9737 6.40397 11.9697C6.33184 11.9285 6.35764 12.0377 6.31803 12.1591C6.32693 11.9974 6.30463 11.8984 6.24967 11.8974C6.21701 11.8973 6.22214 11.9679 6.20084 12.0175C6.19422 12.0314 6.17184 11.9846 6.16764 12.0175C6.1538 12.1259 6.1751 12.247 6.11881 12.1992C6.11637 12.1969 6.1238 12.1391 6.11588 12.1337C6.06035 12.1102 6.05286 12.2235 5.99284 12.2373C5.94581 12.2476 5.86268 12.1794 5.80924 12.1679C5.81037 11.9862 5.7595 12.0272 5.73893 12.1523C5.70435 12.1472 5.66692 12.1547 5.63346 12.1377C5.62197 12.1318 5.62894 12.0794 5.6276 12.0732C5.60543 11.9847 5.59025 12.1036 5.58268 12.1103C5.50134 12.1568 5.43472 12.0648 5.35709 12.1552C5.35432 12.1624 5.35014 12.283 5.32975 12.1923C5.32841 12.186 5.35357 12.1284 5.31705 12.124C5.28049 12.1194 5.21143 12.0518 5.1608 12.1103C5.1485 12.1247 5.11729 12.2269 5.09244 12.1474C5.08915 12.1366 5.0932 12.1003 5.08854 12.08C5.07308 12.0159 5.06469 12.1427 5.04655 12.0351C5.02835 11.9266 4.99026 11.845 4.93912 11.9199C4.93728 11.9243 4.92475 12.023 4.90885 12.0214C4.88321 12.0186 4.84663 11.9974 4.81998 11.998C4.80764 11.9995 4.81536 12.0613 4.81315 12.0625C4.72697 12.0975 4.66528 12.0418 4.57291 12.0175C4.55556 12.0147 4.50775 12.0979 4.47526 12.0312C4.43925 11.9571 4.47586 11.6485 4.39323 11.7216C4.35983 11.751 4.3175 12.1423 4.25748 11.9394C4.1411 11.9897 4.03337 11.8862 3.91666 11.958C3.91142 11.9611 3.89482 12.0708 3.88248 12.0693C3.8644 12.0669 3.8543 12.0172 3.84147 12.0127C3.78668 11.9973 3.73609 12.0409 3.68327 12.0341C3.6632 12.0317 3.67008 11.9785 3.64616 11.9755C3.62231 11.9729 3.60622 12.0422 3.57389 12.0087C3.5669 12.0014 3.56251 11.9835 3.55534 11.9629C3.53708 11.9658 3.52205 11.9719 3.51432 11.9873C3.51318 11.9894 3.56125 12.0355 3.56315 12.04C3.55613 12.0708 3.51901 12.0703 3.51432 12.1035C3.51525 12.1066 3.54317 12.134 3.55631 12.1484C3.58009 12.1289 3.57517 12.1371 3.56217 12.1552L3.56315 12.1562C3.56444 12.1641 3.56137 12.1675 3.55338 12.167C3.53591 12.1898 3.51272 12.2192 3.50553 12.2275C3.49596 12.2386 3.49612 12.2582 3.50651 12.2519C3.51337 12.247 3.54986 12.2096 3.55436 12.206C3.60499 12.1827 3.63005 12.1857 3.62467 12.2187C3.62409 12.2198 3.57774 12.2646 3.57584 12.2675C3.56327 12.2962 3.62542 12.2448 3.66569 12.2177C3.70579 12.1908 3.7001 12.2077 3.62467 12.291C3.63882 12.2868 3.61149 12.3282 3.5944 12.3535C3.57736 12.3787 3.66573 12.2912 3.66959 12.288C3.73796 12.2423 3.69324 12.3005 3.69694 12.3203C3.69871 12.3296 3.72212 12.3279 3.73795 12.3242C3.75063 12.321 3.73303 12.3448 3.75065 12.3359C3.75305 12.3347 3.79287 12.2933 3.79459 12.292C3.84685 12.2494 3.74679 12.3446 3.73014 12.3632C3.67017 12.4305 3.6385 12.4668 3.67448 12.4433C3.68279 12.4379 3.82861 12.3005 3.83952 12.2949C3.85304 12.2881 3.8024 12.3367 3.81705 12.3291C3.81837 12.3284 3.85039 12.2971 3.85123 12.3007C3.85537 12.317 3.84846 12.3458 3.86198 12.3535C3.86372 12.3546 3.91 12.3055 3.91471 12.3046C3.93051 12.3087 3.93997 12.3216 3.92643 12.3545C3.92231 12.3631 3.88633 12.3955 3.87662 12.4062C3.81858 12.4705 3.90887 12.3888 3.91471 12.3847C3.9758 12.3589 3.90816 12.454 3.96452 12.4336C3.96779 12.4322 4.07277 12.343 3.99284 12.4296C3.9855 12.4376 3.90709 12.5223 3.96744 12.4677C3.97342 12.4618 4.01161 12.4197 4.01139 12.4267C4.01055 12.4348 4.04582 12.4116 4.0026 12.4648C3.98861 12.482 3.90789 12.5697 3.98014 12.5068C3.98584 12.5018 4.14543 12.3568 4.04264 12.4648C4.02568 12.4826 3.91393 12.5941 3.97623 12.5429C3.98838 12.5329 4.01157 12.5059 4.02994 12.4931C4.05828 12.4735 4.0345 12.5092 4.08952 12.4648C4.09926 12.4569 4.17898 12.3846 4.12467 12.4453C4.11614 12.4548 4.07737 12.4912 4.07487 12.497C4.06284 12.525 4.09652 12.509 4.07877 12.5429C4.07158 12.5556 4.01079 12.6138 3.99772 12.6328C3.98456 12.6519 3.97486 12.6728 4.00553 12.6484C4.03641 12.6237 4.12857 12.5249 4.14127 12.5214C4.19508 12.5084 4.1585 12.5856 4.17057 12.6142C4.17295 12.6175 4.2043 12.5817 4.20963 12.5849C4.22856 12.5987 4.28888 12.5944 4.23014 12.6816C4.18311 12.7513 4.12447 12.782 4.10905 12.8144C4.10187 12.83 4.21877 12.7232 4.2233 12.7207C4.26826 12.6954 4.22633 12.7507 4.24967 12.7451C4.25467 12.7438 4.29865 12.6969 4.30241 12.6962C4.31533 12.6939 4.30128 12.7185 4.30924 12.7207C4.31314 12.7212 4.34525 12.6888 4.34733 12.6904C4.34638 12.7014 4.33678 12.7214 4.30924 12.7587C4.30613 12.7627 4.26025 12.8023 4.26237 12.8076C4.26499 12.8169 4.24254 12.8547 4.2819 12.8291C4.29486 12.8201 4.3719 12.743 4.32291 12.8007C4.31243 12.8131 4.21608 12.907 4.30338 12.83C4.31954 12.8159 4.43615 12.7162 4.36979 12.791C4.35216 12.8108 4.27742 12.8911 4.29166 12.8818C4.29391 12.8802 4.33429 12.8383 4.34147 12.8349C4.36255 12.8283 4.36576 12.8397 4.38639 12.8339C4.392 12.8323 4.43287 12.7856 4.4401 12.7841C4.45925 12.7812 4.45849 12.8026 4.4528 12.8242C4.45057 12.8323 4.41163 12.8669 4.40787 12.8711C4.34801 12.9377 4.43302 12.8573 4.44205 12.8505C4.47934 12.8274 4.44494 12.8728 4.46159 12.8691C4.46613 12.8681 4.5044 12.8277 4.51041 12.8222C4.55032 12.7898 4.4733 12.8615 4.46744 12.872C4.45114 12.9014 4.46147 12.9058 4.4733 12.9072C4.47777 12.9076 4.52356 12.8564 4.52702 12.8574C4.5483 12.8622 4.55741 12.8807 4.54362 12.9199C4.54069 12.9275 4.50175 12.9627 4.49381 12.9716C4.4385 13.0338 4.52337 12.9592 4.53287 12.9521C4.57305 12.9224 4.54318 12.957 4.55338 12.956C4.60663 12.9483 4.61366 12.9982 4.62174 13.0332C4.63221 13.0782 4.61878 13.1346 4.65397 13.1523C4.65615 13.1534 4.70223 13.1054 4.7067 13.1035C4.73748 13.1105 4.737 13.1476 4.77018 13.1523C4.77414 13.1511 4.81658 13.1051 4.82291 13.1035C4.83514 13.1015 4.83951 13.1107 4.82975 13.1308C4.82461 13.1408 4.78118 13.1764 4.77702 13.1855C4.76789 13.2065 4.77126 13.2162 4.78483 13.2148C4.79066 13.2141 4.83384 13.1633 4.83854 13.165C4.86617 13.1831 4.89686 13.1981 4.85807 13.2832C4.85319 13.2912 4.76016 13.3871 4.7819 13.372C4.80909 13.3453 4.84089 13.3138 4.86979 13.2851C4.9183 13.3031 4.91782 13.3696 4.94596 13.4082C4.94859 13.4081 4.99571 13.3561 4.99869 13.3584C5.01371 13.3749 5.0434 13.3761 5.00846 13.4433C5.00506 13.4499 4.91387 13.5402 4.93229 13.5312C4.93603 13.5295 4.95505 13.5234 4.97623 13.5058C4.98159 13.5008 5.02067 13.4599 5.02409 13.4609C5.04348 13.4679 5.04717 13.4915 5.03483 13.5302C5.03272 13.5366 4.98594 13.58 4.98405 13.5849C4.97105 13.6196 5.01651 13.5972 4.986 13.6484C4.96524 13.6829 4.88498 13.7587 4.81217 13.8388C4.80225 13.8499 4.80417 13.8561 4.76041 13.9004C4.64889 14.013 4.52357 14.1335 4.40494 14.2539C4.37947 14.2797 4.41288 14.2586 4.34733 14.3173C4.34199 14.3218 4.31804 14.3379 4.29655 14.3574C4.28125 14.3713 4.2366 14.4183 4.21647 14.4355C4.19732 14.4518 4.23283 14.4132 4.20866 14.4326C4.18397 14.4525 4.1337 14.5044 4.12272 14.5058C4.09769 14.5084 4.09798 14.4787 4.10709 14.4472C4.11049 14.4372 4.13897 14.4113 4.14225 14.4033C4.14843 14.3877 4.13124 14.3972 4.13932 14.3798C4.14223 14.3738 4.18807 14.3304 4.1901 14.3252C4.20069 14.2968 4.18183 14.2996 4.18229 14.2812C4.18457 14.1903 4.15707 14.1295 4.13248 14.0644C4.12487 14.0425 4.14663 13.9849 4.11393 13.9873C4.10939 13.9884 4.07254 14.0283 4.06901 14.0312C4.01436 14.0752 4.09423 13.9973 4.10123 13.9834C4.12866 13.9285 4.11759 13.9095 4.08952 13.9111C4.07734 13.912 4.005 13.9952 4.04264 13.9462C4.04519 13.9429 4.08859 13.9024 4.09147 13.8964C4.09745 13.8834 4.08407 13.8838 4.08463 13.8779C4.08589 13.8663 4.08421 13.8657 4.07975 13.8603C4.07402 13.8525 4.08634 13.8243 4.06998 13.8261C4.06634 13.8267 4.02654 13.8704 4.01627 13.8759C4.00656 13.8807 4.00357 13.8706 4.01139 13.8584C4.01929 13.8461 4.05257 13.814 4.06022 13.8056C4.12169 13.7377 4.02435 13.82 4.02116 13.8212C3.96634 13.8406 4.00177 13.7744 3.98502 13.7578C3.97211 13.7453 3.94108 13.7487 3.93131 13.7343C3.92 13.717 3.93065 13.6818 3.91276 13.6718C3.9076 13.6748 3.86612 13.7184 3.861 13.7207C3.8361 13.7074 3.82207 13.6834 3.83659 13.6308C3.83809 13.6255 3.88456 13.5845 3.88932 13.5761C3.91372 13.5283 3.98198 13.4231 3.78385 13.6074C3.7834 13.592 3.78071 13.5739 3.81217 13.5283C3.83244 13.4989 3.88499 13.4559 3.85905 13.4707C3.85323 13.4739 3.81284 13.5177 3.80729 13.5195C3.78417 13.5267 3.78869 13.504 3.75944 13.5175C3.75333 13.5204 3.71587 13.5591 3.70866 13.5654C3.65061 13.6158 3.73473 13.5187 3.73991 13.5107C3.77766 13.452 3.75168 13.4627 3.74284 13.4521C3.74087 13.4496 3.69387 13.5013 3.68912 13.5019C3.67048 13.4977 3.66329 13.4817 3.67448 13.4482C3.67709 13.4406 3.72181 13.3993 3.72526 13.3935C3.73915 13.3692 3.65811 13.4482 3.67057 13.4257C3.67495 13.4195 3.70963 13.3851 3.71354 13.3808C3.77331 13.3151 3.68386 13.4004 3.67936 13.4033C3.64241 13.4205 3.72949 13.3204 3.7067 13.3242C3.70253 13.3264 3.65994 13.3733 3.65494 13.372C3.62091 13.3635 3.6115 13.3287 3.6276 13.2705C3.63005 13.2615 3.66744 13.2291 3.67155 13.2246C3.73539 13.154 3.64304 13.2415 3.63834 13.2441C3.60546 13.2601 3.67329 13.1767 3.56022 13.2783C3.56179 13.2054 3.46565 13.2297 3.52604 13.0986C3.5267 13.097 3.57276 13.0527 3.57389 13.0498C3.58737 13.0149 3.52061 13.086 3.42936 13.163C3.40635 13.1825 3.50245 13.0743 3.50944 13.0664C3.53533 13.037 3.60334 12.9727 3.60807 12.9668C3.64336 12.9218 3.43102 13.1361 3.42057 13.1337C3.42073 13.1332 3.46205 13.0934 3.46549 13.0888C3.47608 13.0748 3.45825 13.0887 3.47037 13.0732C3.49854 13.0373 3.6031 12.9298 3.5358 12.9853C3.52705 12.9926 3.40455 13.1175 3.40397 13.1064C3.40406 13.1016 3.39202 13.0929 3.39713 13.082C3.40301 13.0706 3.44314 13.0334 3.44498 13.0312C3.48993 12.9706 3.51537 12.9521 3.58952 12.8701C3.66339 12.7883 3.47956 12.9744 3.4567 12.9941C3.43441 13.0132 3.47226 12.9638 3.486 12.9472C3.49965 12.9308 3.52627 12.9074 3.53385 12.8974C3.58157 12.833 3.4382 12.9859 3.40592 13.0127C3.32958 13.076 3.46182 12.9325 3.4694 12.913C3.4657 12.9149 3.44107 12.941 3.43717 12.9423C3.42059 12.9476 3.45951 12.9016 3.41373 12.9345C3.40456 12.9414 3.31892 13.0165 3.37565 12.9531C3.38389 12.9439 3.41983 12.9116 3.42545 12.9013C3.4334 12.8862 3.43397 12.8722 3.41862 12.8798C3.40648 12.8866 3.35441 12.9442 3.36784 12.9238C3.37409 12.9143 3.41061 12.8841 3.41959 12.8691C3.42823 12.8546 3.41988 12.8486 3.41569 12.8466C3.41165 12.8449 3.37061 12.8882 3.36686 12.8916C3.34894 12.9066 3.32259 12.9222 3.32194 12.9218C3.2919 12.9023 3.3414 12.8071 3.29362 12.8066C3.28992 12.8065 3.2463 12.8525 3.24479 12.8535C3.21935 12.8659 3.3446 12.751 3.38053 12.706C3.29002 12.7978 3.30294 12.779 3.28873 12.7841C3.2816 12.7869 3.24668 12.8237 3.24284 12.8271C3.18564 12.8778 3.25356 12.8058 3.26725 12.791C3.31727 12.7366 3.25319 12.7963 3.28678 12.7597C3.32015 12.7234 3.37484 12.6746 3.36979 12.6709C3.33572 12.7025 3.25344 12.7919 3.236 12.8027C3.17129 12.8425 3.21388 12.7535 3.21159 12.7353C3.20852 12.7183 3.19898 12.7205 3.20475 12.7031C3.21558 12.6711 3.1566 12.7378 3.12077 12.7607C3.08497 12.7833 3.24423 12.6294 3.27702 12.5947C3.30973 12.5601 3.2743 12.5939 3.29166 12.5742C3.30904 12.5545 3.33431 12.534 3.33854 12.5244C3.3419 12.5155 3.27602 12.5674 3.23991 12.6015C3.16316 12.6742 3.08776 12.7564 3.10807 12.7216C3.10928 12.7196 3.15086 12.68 3.15397 12.6738C3.17309 12.6295 3.163 12.6147 3.17838 12.5742C3.18058 12.5685 3.22737 12.5233 3.22916 12.5195C3.24757 12.4803 3.17419 12.5615 3.08268 12.6416C3.19838 12.5284 3.26574 12.4549 3.25846 12.4462C3.25412 12.441 3.20496 12.4922 3.16666 12.5244C3.15512 12.5341 3.18589 12.4966 3.16178 12.5195C3.08297 12.5943 3.00002 12.683 3.02604 12.6406C3.02773 12.6382 3.07064 12.5975 3.07194 12.5937C3.07986 12.57 3.00039 12.647 2.98112 12.6494C2.96667 12.6502 3.00337 12.5889 3.00358 12.5732C3.1319 12.4452 3.09507 12.4671 3.00358 12.5527C3.00199 12.5443 2.99139 12.5433 2.99869 12.5263C3.00181 12.52 3.03961 12.4848 3.04362 12.4804C3.1035 12.4141 3.01488 12.4986 3.01041 12.5009C2.9666 12.5213 3.02141 12.4469 2.94694 12.499C2.94424 12.5009 2.85443 12.5897 2.91666 12.5214C2.92243 12.5156 2.96466 12.4799 2.96256 12.4716C2.96058 12.463 2.99852 12.4054 2.94987 12.4394C2.93812 12.4476 2.86073 12.5153 2.91373 12.455C2.9209 12.4469 2.94697 12.4222 2.96061 12.4072C3.0038 12.3595 2.91289 12.4485 2.98698 12.3691C3.002 12.353 3.01457 12.3362 3.02702 12.3222C3.02462 12.321 3.02105 12.321 3.01823 12.3193C3.01497 12.3173 3.01241 12.3135 3.00846 12.3105C2.99132 12.3262 2.97679 12.3414 2.97623 12.3398C2.97471 12.334 2.98419 12.3141 2.98014 12.3105C2.97805 12.3089 2.93518 12.3541 2.93327 12.3554C2.896 12.3678 2.92635 12.3196 2.93034 12.289C2.93112 12.2833 2.86375 12.3368 2.9069 12.2841C2.91421 12.2752 2.92605 12.2629 2.9401 12.248C2.93211 12.2403 2.92328 12.2329 2.91471 12.2246C2.90091 12.2352 2.89993 12.239 2.91276 12.2226C2.89486 12.2053 2.8747 12.1882 2.85514 12.1699C2.83057 12.1923 2.79412 12.2265 2.79362 12.2246C2.79416 12.2189 2.82732 12.1829 2.8278 12.1787C2.83074 12.1599 2.79256 12.1833 2.78971 12.1709C2.78968 12.1671 2.80548 12.1483 2.81608 12.1357C2.81484 12.1349 2.81364 12.1338 2.81217 12.1328C2.81102 12.1336 2.80945 12.1339 2.80827 12.1347C2.8018 12.1586 2.78752 12.172 2.76139 12.164C2.75291 12.1609 2.76221 12.1389 2.77116 12.1152C2.75954 12.1263 2.73853 12.1485 2.73405 12.1523C2.71416 12.1679 2.74066 12.138 2.7194 12.1552C2.71435 12.1593 2.68141 12.192 2.67448 12.1982C2.62146 12.2444 2.691 12.1642 2.70377 12.1494C2.75043 12.0953 2.70436 12.1369 2.72135 12.1142C2.73026 12.1024 2.74176 12.0903 2.7526 12.08C2.74837 12.0758 2.74416 12.0716 2.73991 12.0673C2.71694 12.0971 2.69517 12.1481 2.66764 12.0898V12.0888C2.66521 12.0911 2.66247 12.0932 2.65983 12.0957C2.8884 11.8591 2.63318 12.1143 2.67155 12.0595C2.67189 12.0591 2.6727 12.0575 2.67448 12.0556C2.67698 12.0446 2.67858 12.0316 2.68229 12.0185C2.63148 12.0786 2.55973 12.1523 2.56412 12.1298C2.56538 12.1235 2.62873 12.0756 2.64225 12.0556C2.66633 12.0197 2.54681 12.1319 2.60319 12.0634C2.60922 12.0564 2.64257 12.0272 2.6735 12C2.58863 11.9144 2.5005 11.8247 2.41276 11.7382C2.38691 11.7128 2.40803 11.7462 2.34928 11.6806C2.34481 11.6753 2.32872 11.6513 2.30924 11.6298C2.29537 11.6145 2.24833 11.5699 2.23112 11.5498C2.21487 11.5306 2.25342 11.5661 2.23405 11.542C2.21412 11.5173 2.16221 11.467 2.1608 11.456C2.1582 11.431 2.18796 11.4313 2.2194 11.4404C2.22944 11.4438 2.25535 11.4723 2.26334 11.4755C2.27893 11.4817 2.26942 11.4645 2.28678 11.4726C2.29278 11.4755 2.3362 11.5214 2.34147 11.5234C2.36978 11.534 2.36699 11.5151 2.38541 11.5156C2.47633 11.5179 2.53708 11.4904 2.60221 11.4658C2.62407 11.4582 2.68172 11.4799 2.67936 11.4472C2.67823 11.4427 2.63828 11.4058 2.63541 11.4023C2.59142 11.3477 2.6693 11.4275 2.68327 11.4345C2.73817 11.462 2.75713 11.4509 2.75553 11.4228C2.75465 11.4106 2.6714 11.3383 2.72037 11.3759C2.72371 11.3785 2.7642 11.4219 2.77018 11.4248C2.78324 11.4307 2.78278 11.4174 2.78873 11.4179C2.8003 11.4192 2.80091 11.4175 2.80631 11.413C2.8141 11.4073 2.84234 11.4196 2.84049 11.4033C2.83992 11.3996 2.79625 11.3598 2.79069 11.3496C2.78594 11.3399 2.79602 11.3369 2.80827 11.3447C2.8205 11.3526 2.85262 11.3859 2.861 11.3935C2.92892 11.455 2.84661 11.3576 2.84537 11.3545C2.82603 11.2996 2.89227 11.3351 2.90885 11.3183C2.92133 11.3054 2.9179 11.2744 2.93229 11.2646C2.94965 11.2533 2.9848 11.2639 2.99479 11.2461C2.99187 11.2409 2.94821 11.1994 2.94596 11.1943C2.95925 11.1694 2.98327 11.1554 3.0358 11.1699C3.04111 11.1714 3.08208 11.2179 3.09049 11.2226C3.13828 11.247 3.24348 11.3153 3.05924 11.1171C3.07463 11.1167 3.09271 11.114 3.13834 11.1455C3.16771 11.1657 3.2107 11.2183 3.19596 11.1923C3.19268 11.1865 3.14889 11.1461 3.14713 11.1406C3.13994 11.1175 3.16258 11.122 3.14909 11.0927C3.14619 11.0866 3.10754 11.0492 3.10123 11.042C3.05086 10.9839 3.14797 11.068 3.15592 11.0732C3.2146 11.111 3.20389 11.085 3.21452 11.0761C3.21707 11.0742 3.16535 11.0272 3.16471 11.0224C3.1689 11.0038 3.18488 10.9966 3.21842 11.0078C3.22601 11.0104 3.26729 11.0551 3.27311 11.0586C3.29738 11.0724 3.21841 10.9914 3.24088 11.0039C3.24713 11.0082 3.28153 11.0429 3.2858 11.0468C3.35157 11.1066 3.26623 11.0172 3.26334 11.0127C3.24608 10.9757 3.34622 11.0628 3.34244 11.04C3.34025 11.0358 3.29331 10.9932 3.29459 10.9882C3.30311 10.9542 3.33795 10.9448 3.39616 10.9609C3.40516 10.9633 3.43754 11.0007 3.44205 11.0048C3.51262 11.0687 3.42507 10.9763 3.42252 10.9716C3.4065 10.9388 3.48996 11.0066 3.38834 10.8935C3.46126 10.8951 3.43689 10.799 3.56803 10.8593C3.5696 10.86 3.61393 10.9061 3.61686 10.9072C3.6517 10.9207 3.58058 10.8539 3.50358 10.7627C3.48417 10.7396 3.5923 10.8357 3.60026 10.8427C3.62965 10.8686 3.69395 10.9366 3.69987 10.9414C3.74478 10.9767 3.53053 10.7643 3.53287 10.7539C3.53345 10.754 3.57324 10.7953 3.5778 10.7988C3.59182 10.8094 3.57794 10.7915 3.59342 10.8037C3.6293 10.8318 3.73685 10.9364 3.68131 10.8691C3.67405 10.8603 3.54909 10.7379 3.56022 10.7373C3.56501 10.7374 3.57368 10.7253 3.58463 10.7304C3.59602 10.7363 3.6332 10.7764 3.63541 10.7783C3.69606 10.8232 3.71456 10.8487 3.79655 10.9228C3.87828 10.9967 3.6922 10.8129 3.67252 10.79C3.65344 10.7677 3.70283 10.8056 3.7194 10.8193C3.73583 10.8329 3.75923 10.8596 3.7692 10.8671C3.83359 10.9149 3.68075 10.7715 3.65397 10.7392C3.59059 10.6629 3.73414 10.7951 3.75358 10.8027C3.75175 10.799 3.72563 10.7744 3.72428 10.7705C3.71898 10.7539 3.76502 10.7928 3.73209 10.747C3.72519 10.7379 3.65015 10.6522 3.71354 10.7089C3.72273 10.7172 3.75497 10.7531 3.7653 10.7587C3.78045 10.7667 3.79439 10.7673 3.78678 10.7519C3.78 10.7398 3.72239 10.6877 3.74284 10.7011C3.75229 10.7074 3.78253 10.7439 3.79752 10.7529C3.81199 10.7615 3.81802 10.7532 3.81998 10.749C3.8217 10.7449 3.77841 10.7039 3.77506 10.7002C3.75997 10.6822 3.74438 10.6559 3.74479 10.6552C3.76436 10.6252 3.85952 10.6747 3.86002 10.6269C3.8601 10.6232 3.81412 10.5796 3.81315 10.5781C3.80069 10.5526 3.91566 10.6779 3.96061 10.7138C3.8688 10.6233 3.88764 10.6362 3.88248 10.622C3.87976 10.6149 3.84296 10.58 3.83952 10.5761C3.78886 10.5189 3.86079 10.5869 3.87565 10.6005C3.93 10.6506 3.87036 10.5865 3.9069 10.6201C3.94322 10.6534 3.99204 10.7081 3.99577 10.7031C3.96415 10.669 3.87475 10.5867 3.86393 10.5693C3.82415 10.5046 3.91312 10.5472 3.93131 10.5449C3.94829 10.5418 3.94616 10.5323 3.96354 10.538C3.99552 10.5489 3.92878 10.4899 3.90592 10.4541C3.88335 10.4183 4.03725 10.5775 4.07194 10.6103C4.10652 10.643 4.07276 10.6076 4.09244 10.625C4.11211 10.6423 4.13258 10.6676 4.14225 10.6718C4.15112 10.6752 4.09921 10.6093 4.0651 10.5732C3.99243 10.4965 3.91027 10.4211 3.94498 10.4414C3.94702 10.4426 3.98665 10.4842 3.99284 10.4873C4.03712 10.5064 4.05194 10.4963 4.09244 10.5117C4.0981 10.5139 4.14332 10.5607 4.14713 10.5625C4.18634 10.5809 4.1051 10.5075 4.02506 10.416C4.13818 10.5317 4.21174 10.599 4.22037 10.5918C4.22559 10.5874 4.17437 10.5383 4.14225 10.5C4.13256 10.4884 4.17002 10.5192 4.14713 10.4951C4.07236 10.4163 3.98361 10.3333 4.02604 10.3593C4.02841 10.361 4.06914 10.4039 4.07291 10.4052C4.09664 10.4132 4.0196 10.3337 4.01725 10.3144C4.01643 10.3 4.07769 10.3367 4.09342 10.3369C4.22144 10.4652 4.19948 10.4284 4.11393 10.3369C4.12232 10.3353 4.12336 10.3247 4.1403 10.332C4.14662 10.3351 4.18179 10.3729 4.18619 10.3769C4.25256 10.4368 4.16798 10.3482 4.16569 10.3437C4.1453 10.2999 4.21974 10.3547 4.16764 10.2802C4.16574 10.2775 4.07693 10.1877 4.14518 10.25C4.15103 10.2557 4.18672 10.298 4.19498 10.2959C4.20359 10.2939 4.26121 10.3318 4.22721 10.2832C4.21902 10.2714 4.15137 10.194 4.21159 10.247C4.21971 10.2542 4.24445 10.2803 4.25944 10.2939C4.30712 10.3371 4.21816 10.2462 4.29752 10.3203C4.37683 10.3943 4.43971 10.446 4.3942 10.3857C4.39124 10.3822 4.3234 10.3107 4.32682 10.3095C4.33266 10.308 4.35252 10.3175 4.35612 10.3134C4.35771 10.3113 4.31253 10.2685 4.31119 10.2666C4.29883 10.2293 4.347 10.2596 4.3776 10.2636C4.3833 10.2644 4.32983 10.197 4.38248 10.2402C4.44016 10.2874 4.65295 10.5102 4.61295 10.4462C4.59411 10.4178 4.32794 10.1385 4.47916 10.2724C4.46088 10.2205 4.54873 10.278 4.5153 10.2109C4.51381 10.2079 4.43922 10.1276 4.44205 10.1269C4.44769 10.1275 4.48377 10.1606 4.48795 10.1611C4.50677 10.164 4.48331 10.1259 4.49577 10.123C4.5011 10.123 4.53502 10.1588 4.54166 10.1591C4.54716 10.1577 4.50117 10.1065 4.52897 10.125C4.55061 10.1395 4.65513 10.2371 4.67155 10.2441C4.57259 10.1448 4.57771 10.1432 4.55729 10.1113C4.55326 10.1051 4.51909 10.073 4.51432 10.0673C4.49868 10.0475 4.52862 10.074 4.51139 10.0527C4.5073 10.0476 4.47459 10.0147 4.46842 10.0078C4.4222 9.95475 4.50246 10.0243 4.51725 10.0371C4.57131 10.0837 4.52974 10.0377 4.55241 10.0546C4.57503 10.0716 4.59568 10.1006 4.611 10.1093C4.64209 10.1269 4.64576 10.114 4.65397 10.1084C4.65716 10.106 4.61062 10.0619 4.61002 10.0605C4.60498 10.044 4.65715 10.0857 4.57096 9.99312C4.80751 10.2217 4.55229 9.96648 4.60709 10.0048C4.61233 10.0088 4.72193 10.1167 4.736 10.1357C4.74962 10.1543 4.71171 10.1241 4.73307 10.1523C4.73816 10.159 4.83684 10.2675 4.84244 10.2744C4.88549 10.3274 4.72087 10.164 4.71159 10.1552C4.61258 10.0622 4.71362 10.1746 4.72233 10.1865C4.75047 10.2283 4.72215 10.212 4.74088 10.2421C4.75296 10.2615 4.85464 10.3641 4.85514 10.3701C4.83441 10.369 4.68038 10.2227 4.80143 10.3623C4.82748 10.3923 4.94689 10.5072 4.84733 10.4218C4.84029 10.4158 4.75167 10.3377 4.80143 10.3935C4.80765 10.4005 4.84062 10.4337 4.8444 10.4384C4.85954 10.4603 4.83074 10.436 4.83952 10.4521C4.84888 10.4688 4.86384 10.4934 4.8483 10.4863C4.8388 10.4819 4.77142 10.4206 4.75455 10.4062C4.70627 10.3648 4.77608 10.442 4.7194 10.3896C4.66246 10.3369 4.58371 10.2496 4.54264 10.2197C4.63155 10.309 4.72288 10.4012 4.81217 10.4912C4.7967 10.5004 4.75518 10.4836 4.74674 10.5C4.74712 10.5032 4.7945 10.5475 4.79557 10.5517C4.79625 10.5663 4.75595 10.5387 4.76237 10.5595C4.76803 10.5762 4.81154 10.6314 4.81901 10.6504C4.71442 10.5529 4.73933 10.5953 4.72428 10.5927C4.71887 10.5917 4.6918 10.564 4.68131 10.5566C4.6427 10.5297 4.73452 10.6164 4.74772 10.6328C4.80133 10.7003 4.59656 10.4975 4.59342 10.5107C4.59729 10.5158 4.69688 10.6254 4.7028 10.6328C4.74212 10.6813 4.66392 10.5949 4.65299 10.5898C4.63302 10.5803 4.6041 10.5588 4.62955 10.5966C4.63744 10.6082 4.70003 10.6796 4.6442 10.6308C4.63647 10.6239 4.60325 10.5902 4.59928 10.5869C4.55743 10.5585 4.67034 10.6717 4.70475 10.7138C4.73851 10.7553 4.65518 10.6833 4.63151 10.6621C4.57142 10.6082 4.60692 10.6343 4.60319 10.6298C4.53812 10.5608 4.54436 10.5752 4.5358 10.5732C4.42455 10.4629 4.42671 10.4743 4.52702 10.5712C4.53744 10.5812 4.53014 10.5689 4.5358 10.5732C4.64137 10.6846 4.64977 10.7032 4.54264 10.6074C4.4925 10.5625 4.43955 10.5049 4.45182 10.5332C4.45732 10.5459 4.53434 10.6201 4.55241 10.6445C4.59252 10.6993 4.51262 10.6384 4.51627 10.6572C4.51967 10.6654 4.56184 10.703 4.56412 10.7089C4.56992 10.7246 4.53512 10.6984 4.54557 10.7187C4.5466 10.7206 4.5896 10.7619 4.59049 10.7656C4.58384 10.7823 4.54622 10.7653 4.53287 10.7763C4.52663 10.7819 4.53944 10.8164 4.52897 10.8183C4.51016 10.8208 4.4328 10.7703 4.43912 10.7949C4.44322 10.8108 4.48812 10.8534 4.5153 10.8857C4.56774 10.9479 4.45698 10.8542 4.43912 10.8388C4.42801 10.8293 4.40838 10.8294 4.41471 10.8398C4.41965 10.8467 4.45704 10.8832 4.46061 10.8877C4.48396 10.9383 4.48095 10.9633 4.44791 10.958C4.44685 10.9574 4.40206 10.911 4.39909 10.9091C4.37046 10.8966 4.42186 10.9587 4.44889 10.999C4.47578 11.0391 4.4589 11.0334 4.37565 10.958C4.37986 10.9721 4.33842 10.9448 4.31315 10.9277C4.28795 10.9107 4.37543 10.999 4.37858 11.0029C4.42433 11.0713 4.36612 11.0265 4.34635 11.0302C4.33703 11.032 4.33871 11.0554 4.34244 11.0712C4.34561 11.0839 4.32186 11.0663 4.33073 11.0839C4.33194 11.0863 4.37331 11.1262 4.37467 11.1279C4.41719 11.1801 4.32204 11.0801 4.30338 11.0634C4.23607 11.0035 4.19985 10.9718 4.2233 11.0078C4.22872 11.0161 4.36612 11.1619 4.37174 11.1728C4.3785 11.1863 4.32988 11.1357 4.33756 11.1504C4.33826 11.1517 4.36948 11.1837 4.36588 11.1845C4.3496 11.1887 4.32084 11.1818 4.31315 11.1953C4.31201 11.197 4.36117 11.2433 4.36198 11.248C4.35793 11.2638 4.34504 11.2733 4.31217 11.2597C4.30351 11.2556 4.27114 11.2196 4.26041 11.2099C4.19615 11.1519 4.27779 11.2422 4.2819 11.248C4.30768 11.3091 4.21266 11.2415 4.23307 11.2978C4.23438 11.3011 4.32365 11.4061 4.23698 11.3261C4.22902 11.3188 4.14435 11.2404 4.19889 11.3007C4.20478 11.3067 4.24694 11.3449 4.23991 11.3447C4.23182 11.3439 4.25501 11.3791 4.20182 11.3359C4.18466 11.3219 4.09696 11.2412 4.15983 11.3134C4.16485 11.3191 4.30979 11.4787 4.20182 11.3759C4.18402 11.359 4.07257 11.2472 4.12369 11.3095C4.1337 11.3217 4.16069 11.3449 4.1735 11.3632C4.19317 11.3916 4.15746 11.3678 4.20182 11.4228C4.20971 11.4326 4.28201 11.5123 4.22135 11.458C4.21183 11.4494 4.17545 11.4107 4.16959 11.4082C4.14164 11.3961 4.15761 11.4298 4.12369 11.4121C4.11099 11.4049 4.05284 11.3441 4.03385 11.331C4.01471 11.3179 3.99379 11.3082 4.01823 11.3388C4.04294 11.3697 4.14173 11.4619 4.14518 11.4746C4.15827 11.5284 4.08099 11.4918 4.05241 11.5039C4.04909 11.5062 4.08494 11.5376 4.0817 11.5429C4.07253 11.5555 4.07097 11.5828 4.04557 11.5849C4.06864 11.5886 4.09165 11.5913 4.11491 11.5898C4.1255 11.589 4.11527 11.5211 4.12662 11.5185C4.17448 11.5079 4.21664 11.5563 4.26627 11.5371C4.3046 11.5218 4.34632 11.4498 4.38639 11.4316C4.41093 11.5758 4.47098 11.5269 4.51432 11.54C4.52951 11.5446 4.52891 11.5831 4.53971 11.5957C4.58031 11.642 4.56099 11.5157 4.57194 11.4951C4.61978 11.4096 4.62409 11.6966 4.68034 11.6904C4.68331 11.6901 4.71987 11.5385 4.72526 11.5273C4.75725 11.4649 4.7307 11.5802 4.75065 11.5918C4.78718 11.6125 4.81233 11.6492 4.85514 11.6045C4.86766 11.5911 4.89822 11.4952 4.92252 11.5693C4.9257 11.579 4.92391 11.6293 4.92643 11.6328C4.97298 11.6824 4.97408 11.5229 5.00065 11.4687C5.02726 11.4146 5.06842 11.5247 5.07682 11.5566C5.09835 11.6375 5.06162 11.5934 5.05924 11.5996C5.04531 11.6956 5.07539 11.6793 5.0983 11.6875C5.10162 11.8441 5.13334 11.8347 5.12174 11.6953C5.12043 11.6802 5.10309 11.6942 5.0983 11.6875C5.11842 11.5338 5.15316 11.5145 5.19205 11.6582C5.21009 11.7254 5.19349 11.803 5.24869 11.7744C5.27324 11.7606 5.2641 11.6547 5.2858 11.625C5.33642 11.5579 5.40257 11.6584 5.45475 11.6425C5.47357 11.6367 5.4555 11.5772 5.46842 11.5712C5.50257 11.5558 5.53274 11.5996 5.56705 11.5771C5.57013 11.575 5.56294 11.5154 5.57291 11.5127C5.65418 11.5055 5.72539 11.5447 5.81022 11.5459C5.85124 11.5464 5.92495 11.5126 5.96744 11.5195C6.04091 11.5311 6.13117 11.6199 6.19401 11.5986C6.23505 11.5846 6.22623 11.5225 6.24381 11.4804C6.27776 11.3992 6.33827 11.5457 6.34635 11.5683C6.34498 11.5697 6.31136 11.5842 6.32975 11.6152C6.34037 11.6792 6.34571 11.5747 6.34635 11.5683C6.35267 11.5828 6.4223 11.5966 6.43619 11.5849C6.44361 11.5783 6.43935 11.5213 6.44303 11.5175C6.53736 11.4651 6.63252 11.4501 6.72819 11.4775C6.72975 11.4801 6.72734 11.5429 6.73112 11.5459C6.7865 11.575 6.82216 11.4948 6.86784 11.4472C6.91328 11.4002 6.94929 11.4164 6.97623 11.5283C7.01069 11.5141 7.06009 11.5645 7.08854 11.5947C7.11689 11.6244 7.1212 11.4966 7.12369 11.4941C7.20165 11.4137 7.2469 11.4866 7.3278 11.498C7.36615 11.5036 7.44224 11.4856 7.48405 11.4716C7.517 11.4604 7.53767 11.4898 7.56803 11.4707C7.57174 11.4661 7.56778 11.4113 7.56901 11.4091C7.60277 11.3416 7.58648 11.4799 7.59342 11.5048C7.61879 11.595 7.63498 11.643 7.67838 11.6005C7.68856 11.5877 7.71691 11.3941 7.73502 11.3798C7.75875 11.365 7.75022 11.4363 7.77506 11.4189C7.77712 11.4169 7.77674 11.3736 7.79166 11.375C7.86272 11.3834 7.94047 11.4096 8.01432 11.4052C8.02432 11.4048 8.01211 11.336 8.02604 11.333C8.09452 11.3247 8.17025 11.3265 8.23698 11.3593C8.25327 11.3678 8.24318 11.4171 8.24674 11.4316C8.26834 11.5186 8.29864 11.3952 8.30436 11.3896C8.4264 11.3281 8.51988 11.4434 8.6442 11.3886C8.65097 11.3854 8.7039 11.248 8.72721 11.3652C8.7288 11.373 8.75179 11.4938 8.77213 11.4121C8.7734 11.4069 8.75881 11.3442 8.78385 11.3505C8.80889 11.3568 8.84907 11.3157 8.88346 11.3837C8.89436 11.4052 8.92029 11.5255 8.9528 11.4296C8.9551 11.4222 9.0052 11.2068 9.02311 11.3554C9.02601 11.38 9.02266 11.5379 9.06119 11.458C9.06858 11.4423 9.05566 11.4068 9.07487 11.3847C9.10479 11.3508 9.14453 11.3927 9.18131 11.3222C9.1878 11.3094 9.21512 11.2028 9.23698 11.2841C9.24033 11.2971 9.23424 11.3495 9.24577 11.3554C9.30061 11.3836 9.35804 11.3485 9.41373 11.3847C9.43343 11.3975 9.42376 11.4825 9.44401 11.5058C9.46463 11.5287 9.50641 11.5507 9.52799 11.5117C9.54928 11.4723 9.52613 11.3372 9.55827 11.3261C9.69873 11.2789 9.83793 11.3583 9.97819 11.3701C9.99892 11.3718 9.98219 11.3235 10.0124 11.3222C10.1255 11.3186 10.3214 11.2734 10.4196 11.3769C10.4976 11.4596 10.399 11.5229 10.4587 11.5566C10.4874 11.5725 10.5187 11.4168 10.526 11.4091C10.5944 11.3586 10.6423 11.4286 10.7038 11.4072C10.7163 11.4028 10.7047 11.341 10.7145 11.3359C10.7514 11.3248 10.7906 11.3527 10.8258 11.3476C10.8415 11.3451 10.839 11.2969 10.8532 11.2998C10.888 11.3082 10.9189 11.3292 10.9528 11.375C10.9559 11.3791 10.9358 11.4401 10.9616 11.4423C11.0033 11.4461 11.0553 11.4909 11.1032 11.4443C11.1172 11.4294 11.1177 11.319 11.1481 11.3955C11.1545 11.4116 11.1466 11.5458 11.1823 11.4296C11.189 11.4086 11.2488 11.2552 11.278 11.3554C11.2858 11.3825 11.3049 11.4902 11.3219 11.4746C11.3243 11.4718 11.3155 11.4111 11.3298 11.4052C11.3309 11.4048 11.3325 11.4047 11.3337 11.4043C11.3676 11.3866 11.4032 11.3907 11.4362 11.3701C11.4451 11.3642 11.4272 11.3026 11.4401 11.2959C11.4751 11.2775 11.521 11.288 11.5602 11.3007C11.5747 11.3056 11.5749 11.3579 11.5768 11.3632C11.6092 11.4486 11.5974 11.33 11.6003 11.3193C11.6233 11.2707 11.6602 11.3207 11.6862 11.2978C11.6925 11.2907 11.6715 11.2372 11.6715 11.2314C11.6736 11.1779 11.6901 11.2821 11.7038 11.291C11.7425 11.3141 11.7756 11.2981 11.8024 11.2802C11.8116 11.2731 11.7768 11.2147 11.7848 11.2089C11.8353 11.1776 11.8917 11.1595 11.9606 11.165C11.9737 11.167 11.992 11.2162 11.9997 11.2255C12.0547 11.2905 12.021 11.1798 12.0192 11.167C12.0148 11.1118 12.0464 11.146 12.0602 11.1269C12.1147 11.0492 12.2035 10.9988 12.2799 10.9462C12.2945 10.9363 12.3088 10.9267 12.3219 10.917C12.4271 10.8385 12.5304 10.7771 12.5807 10.6552C12.5816 10.6472 12.5184 10.6228 12.5202 10.6162C12.545 10.532 12.6027 10.462 12.6081 10.372C12.6086 10.3648 12.5422 10.3554 12.5407 10.3437C12.5373 10.3198 12.5476 10.2947 12.5729 10.2773C12.5853 10.2686 12.6377 10.2955 12.6491 10.2861C12.6756 10.2638 12.6856 10.2338 12.6794 10.2041C12.6752 10.1921 12.6067 10.1994 12.6081 10.1845C12.6129 10.1223 12.6117 10.0619 12.6276 9.99996C12.6377 9.93858 12.6569 9.87672 12.6911 9.81441C12.699 9.80357 12.8344 9.79357 12.8083 9.77047C12.7701 9.76871 12.725 9.76928 12.6842 9.76851C12.6623 9.5385 12.7101 9.3107 12.7174 9.08004C12.7177 9.07033 12.645 9.0871 12.6452 9.06832C12.6463 8.95942 12.6257 8.85354 12.6979 8.74215C12.705 8.73109 12.8333 8.73659 12.8141 8.70406C12.8106 8.69831 12.7931 8.64937 12.7653 8.63668C12.7595 8.6353 12.7016 8.64346 12.6999 8.62789C12.6908 8.53598 12.7044 8.43936 12.7409 8.34762C12.7474 8.33319 12.8103 8.34834 12.8151 8.33785C12.8487 8.2631 12.8013 8.18173 12.859 8.11031C12.8982 8.06291 13.0078 8.07999 13.1159 8.05465C13.1312 8.05105 13.1339 8.022 13.1969 8.02047C13.3554 8.01654 13.529 8.03026 13.6979 8.02437C13.7342 8.02309 13.695 7.9843 13.7829 8.00777ZM4.77311 13.8427C4.7712 13.8447 4.77223 13.8496 4.77409 13.8486C4.8261 13.7999 4.82415 13.7891 4.77311 13.8427ZM3.58073 13.0752C3.66678 12.9965 3.66115 12.9738 3.5778 13.0634C3.57401 13.0682 3.57659 13.0784 3.58073 13.0752ZM3.54655 12.8359C3.54448 12.8383 3.54539 12.842 3.55827 12.8291C3.60095 12.7861 3.58526 12.7952 3.54655 12.8359ZM3.32877 12.6601C3.32676 12.6623 3.3276 12.667 3.32975 12.665C3.38174 12.6163 3.37985 12.6064 3.32877 12.6601ZM3.45182 12.1181C3.45208 12.1202 3.45907 12.1266 3.46744 12.1347C3.47611 12.1337 3.48415 12.1328 3.48502 12.1377C3.48539 12.1404 3.48158 12.1437 3.48014 12.1484C3.49157 12.1594 3.50239 12.1697 3.50162 12.1718C3.4911 12.1879 3.48115 12.2031 3.45866 12.207C3.4536 12.2204 3.45244 12.2299 3.46159 12.2275C3.47527 12.224 3.5082 12.1897 3.53776 12.163H3.5358C3.52583 12.1579 3.49021 12.1145 3.48112 12.1103C3.46016 12.1012 3.4504 12.1046 3.45182 12.1181ZM3.32096 12.1416C3.32274 12.1434 3.32405 12.1456 3.32584 12.1474C3.32682 12.1467 3.32756 12.1455 3.32877 12.1445C3.32617 12.1421 3.32346 12.1399 3.32096 12.1377C3.32049 12.1388 3.32133 12.1405 3.32096 12.1416ZM9.53385 12.1132C9.55918 11.9971 9.46035 11.9852 9.48209 12.1074C9.48375 12.1137 9.53226 12.119 9.53385 12.1132ZM7.25455 12.0009C7.26572 11.9302 7.22315 11.9251 7.23209 11.999C7.23414 12.0018 7.25407 12.0038 7.25455 12.0009ZM8.60612 11.956C8.60508 11.8952 8.58456 11.9125 8.59147 11.9687C8.59273 11.9719 8.6064 11.9743 8.60612 11.956ZM3.8317 11.7754C3.83128 11.7944 3.83263 11.8136 3.83268 11.832C3.83831 11.8375 3.8428 11.842 3.8444 11.8437C3.86169 11.865 3.84956 11.8536 3.83268 11.8369C3.83307 11.8757 3.83718 11.9107 3.85416 11.9326C3.85471 11.8845 3.85518 11.8358 3.85612 11.7871C3.85182 11.7864 3.84701 11.7873 3.84244 11.7861C3.84016 11.7855 3.83691 11.7802 3.8317 11.7754ZM3.67252 11.8115C3.67556 11.8168 3.68327 11.8282 3.69205 11.8388C3.69338 11.8357 3.69485 11.8323 3.69596 11.8281L3.69498 11.8271C3.68297 11.8164 3.67579 11.8113 3.67252 11.8095V11.8115ZM4.06315 11.6416C4.03886 11.5653 4.01945 11.7346 4.02994 11.7646C4.06435 11.8632 4.08743 11.7179 4.06315 11.6416ZM3.8151 11.6572L3.81608 11.6582C3.82372 11.666 3.8305 11.6722 3.8317 11.6748C3.83831 11.6958 3.82691 11.6991 3.83268 11.7197C3.8335 11.7225 3.84512 11.7343 3.85709 11.7461C3.85749 11.7265 3.85766 11.707 3.85807 11.6875C3.8277 11.6599 3.77735 11.6135 3.78483 11.625C3.78582 11.6264 3.8017 11.6436 3.8151 11.6572ZM3.83659 11.6367C3.84006 11.6406 3.84813 11.6511 3.85807 11.663C3.85816 11.6585 3.85895 11.6539 3.85905 11.6494C3.83488 11.6262 3.76802 11.5589 3.83659 11.6367ZM3.85905 11.5957C3.84968 11.5983 3.81189 11.5758 3.83756 11.6152C3.84025 11.6191 3.84959 11.6283 3.85905 11.6386C3.85933 11.6246 3.85975 11.6106 3.86002 11.5966L3.85905 11.5957ZM3.94596 11.5566C3.94796 11.5602 3.94783 11.5638 3.94889 11.5664C3.97214 11.5718 3.99594 11.5752 4.0192 11.58C4.00989 11.576 3.99803 11.5722 3.98502 11.5634C3.9153 11.5164 3.88462 11.4578 3.85221 11.4423C3.83663 11.4352 3.94345 11.5521 3.94596 11.5566ZM3.59147 10.914C3.67011 11.0001 3.69285 10.9945 3.60319 10.9111C3.59843 10.9073 3.58819 10.9099 3.59147 10.914ZM3.83756 10.8916C3.88057 10.9343 3.87143 10.9186 3.83073 10.8798C3.82828 10.8778 3.8246 10.8787 3.83756 10.8916ZM4.00162 10.663C4.0503 10.715 4.06018 10.7131 4.00651 10.6621C4.00433 10.6601 3.99962 10.6609 4.00162 10.663ZM4.63541 10.3642C4.56047 10.2992 4.65989 10.4055 4.71744 10.456C4.77492 10.5065 4.65819 10.384 4.63541 10.3642ZM4.63248 10.1543C4.60031 10.1257 4.62963 10.1656 4.66959 10.2011C4.70177 10.2297 4.67244 10.1898 4.63248 10.1543ZM4.611 9.97555C4.64689 9.99963 4.53474 9.8801 4.60319 9.93648C4.61686 9.94826 4.7171 10.0624 4.71744 10.0644H4.71647C4.69367 10.0672 4.50211 9.89065 4.53678 9.89742C4.54312 9.89867 4.59101 9.96203 4.611 9.97555ZM13.1501 8.15035C13.0788 8.13901 13.0731 8.18189 13.1471 8.17281C13.15 8.17126 13.1528 8.1512 13.1501 8.15035Z" fill="#555961"/>
</svg>
