<svg width="16" height="16" viewBox="0 0 16 16" fill="none" xmlns="http://www.w3.org/2000/svg">
<path d="M4.38445 2.59119C4.6106 2.57166 4.90712 2.59281 5.13249 2.62147C5.20308 2.63036 5.16787 2.66916 5.21648 2.67713C5.31178 2.69258 5.40063 2.67344 5.4948 2.69178C5.52603 2.69808 5.48744 2.76084 5.52019 2.766C5.69966 2.79382 5.86963 2.778 6.05144 2.79139C6.94692 2.85742 7.82762 2.88086 8.73405 2.90955C9.03287 2.919 9.39618 2.97653 9.70476 2.95155C9.74054 2.9484 9.7194 2.89359 9.72624 2.88905C9.83369 2.81939 9.79775 2.93079 9.86784 2.94569C10.1466 3.00422 10.457 3.00901 10.7253 2.98768C10.8387 2.97821 10.7248 2.86856 10.8395 2.93006C10.8475 2.9342 10.8187 2.99265 10.8493 2.9994C10.9201 3.01345 11.0548 3.00264 11.11 3.00721C11.216 3.01647 11.2344 3.01631 11.3346 3.01698C11.4715 3.01846 11.6341 3.04775 11.7809 3.03455C11.8123 3.03155 11.7714 2.97175 11.821 2.96131C11.8582 2.95371 11.9413 2.95453 11.9997 2.96131C12.0253 2.96364 12.0478 2.96693 12.0622 2.97108C12.1179 2.98785 12.0911 3.03403 12.1003 3.0453C12.1698 3.13748 12.3654 3.04691 12.3952 3.05213C12.7208 3.09298 12.9793 3.27753 13.1716 3.49549C13.2473 3.5811 13.315 3.67316 13.3786 3.77088C13.5513 4.03097 13.6698 4.36177 13.6647 4.66639C13.6647 4.66824 13.6647 4.6704 13.6647 4.67225C13.6606 4.96273 13.6289 5.20941 13.6344 5.49159C13.635 5.5213 13.7046 5.48693 13.7057 5.52284C13.714 5.90928 13.7066 6.29333 13.6589 6.67811C13.654 6.71654 13.5927 6.66785 13.5837 6.70545C13.5326 6.94157 13.4099 7.31521 13.6803 7.45545C13.6698 7.61539 13.6587 7.81041 13.6042 7.9535C13.5691 8.04511 13.5013 7.95606 13.53 8.06873C13.5364 8.09429 13.5961 8.06165 13.6012 8.09998C13.6229 8.26128 13.6038 8.4375 13.6344 8.59705C13.6409 8.62944 13.6933 8.62106 13.7028 8.63026C13.7799 8.70732 13.6533 8.835 13.6432 8.86366C13.5739 9.07735 13.601 9.23392 13.5993 9.43299C13.5991 9.47886 13.6704 9.42473 13.6725 9.46912C13.6827 9.69959 13.6768 9.93878 13.6452 10.1644C13.6377 10.2139 13.5767 10.1681 13.57 10.1918C13.5418 10.2976 13.6573 10.3218 13.6325 10.4232C13.6269 10.4441 13.5747 10.432 13.569 10.4359C13.4798 10.4969 13.6072 10.5501 13.61 10.5658C13.6483 10.7644 13.5152 10.8915 13.5339 11.0834C13.5362 11.1063 13.6025 11.055 13.6051 11.1195C13.6233 11.5495 13.605 12.0044 13.5524 12.4301C13.5444 12.495 13.4961 12.4498 13.4889 12.4525C13.3938 12.5204 13.5211 12.5647 13.526 12.5863C13.5315 12.6133 13.5329 12.6401 13.5329 12.6664C13.5322 12.8306 13.4538 12.9559 13.5456 13.1C13.4556 13.3593 13.3124 13.5966 13.1208 13.7875C12.8288 14.0822 12.4097 14.2584 11.9997 14.226C11.8583 14.2136 11.717 14.1952 11.5759 14.1683C11.5668 14.1668 11.583 14.1042 11.5651 14.101C11.3467 14.0657 11.3883 14.1641 11.2438 14.2836C11.2072 14.3129 11.0964 14.1691 11.0866 14.1586C11.051 14.1196 11.0878 14.0255 11.0759 14.018C10.9775 13.9601 10.9932 14.2688 10.86 14.2689C10.8559 14.2684 10.8732 14.2111 10.862 14.2055C10.8272 14.1878 10.7925 14.2104 10.7585 14.1908C10.6807 14.1453 10.6528 13.995 10.5339 14.0824C10.519 14.0944 10.5414 14.2694 10.4225 14.2611C10.3744 14.2577 10.1649 14.2607 10.1061 14.2494C10.0485 14.2383 10.0861 14.1836 10.0837 14.1791C9.92508 14.1044 9.98538 14.0729 9.90593 13.9623C9.82649 13.8521 9.84847 14.1156 9.81609 14.1449C9.78353 14.174 9.6669 14.1116 9.63835 14.0902C9.61045 14.0687 9.64508 14.033 9.6198 14.0209C9.45208 13.9422 9.54632 14.152 9.49089 14.1937C9.36016 14.2923 9.25805 14.0976 9.13835 14.0785C9.106 14.0734 9.13203 14.1173 9.1032 14.1215C8.98921 14.1371 8.92048 14.0766 8.7907 14.1322C8.76943 14.1413 8.66438 14.2583 8.59636 14.1722C8.58713 14.1596 8.61357 14.1118 8.56511 14.101C8.49234 14.0846 8.36104 14.074 8.28288 14.0902C8.22601 14.1025 8.2912 14.1819 8.21941 14.1576C8.18716 14.1465 8.24644 14.0994 8.1862 14.0824C8.12593 14.0655 7.97166 14.0671 7.91277 14.0687C7.85549 14.0703 7.88456 14.1287 7.88152 14.1351C7.85285 14.1586 7.74009 14.1879 7.73015 14.1879C7.22873 14.1953 6.7662 14.0934 6.278 14.1273C6.23992 14.1301 6.26528 14.1937 6.25945 14.1947C6.12846 14.2215 6.23157 14.0516 6.1403 13.9945C6.15348 14.1243 6.09886 14.1004 6.00652 14.1146C5.96243 14.1218 5.98615 14.172 5.9821 14.1771C5.91639 14.2531 5.87114 14.1559 5.85905 14.1351C5.81541 14.061 5.76773 14.1481 5.73796 14.099C5.70827 14.0498 5.77616 13.9762 5.68816 13.9769C5.66334 14.0234 5.72861 14.1455 5.66179 14.1654C5.40814 14.2399 4.93447 14.1442 4.73015 14.1342C4.52647 14.1243 4.46016 14.1334 4.34148 14.1166C4.12732 14.0862 4.20557 14.1758 4.07292 14.2172C4.0347 14.229 4.01201 14.2197 3.99968 14.1986C3.96542 14.1458 3.99912 14.0228 3.98503 13.9887C3.96747 13.9414 3.94611 13.989 3.92448 13.9623C3.90399 13.9348 3.95244 13.9054 3.903 13.892C3.85548 13.8808 3.70189 13.9379 3.66765 13.9789C3.59939 14.069 3.64188 14.2003 3.49382 14.1117C3.4858 14.1064 3.53291 14.0617 3.50163 14.0443C3.31548 13.9413 3.14053 13.817 3.00945 13.6576C2.96711 13.6062 2.92893 13.5517 2.89812 13.4945C2.88117 13.4623 2.9527 13.4487 2.94402 13.4301C2.86457 13.2361 2.8157 13.3582 2.64812 13.2982C2.80695 13.2527 2.8615 13.1547 2.81999 13.016C2.79675 12.9304 2.73288 12.9619 2.67155 12.9096C2.65307 12.8927 2.69069 12.8184 2.65691 12.8099C2.54639 12.7785 2.42471 12.8595 2.46745 12.6664H2.52605C2.52967 12.6646 2.53214 12.662 2.53288 12.6576C2.55644 12.4953 2.44322 12.4755 2.42937 12.3002C2.41857 12.1626 2.4874 11.9178 2.4987 11.7611C2.68049 11.7644 2.63955 11.6161 2.51433 11.556C2.51944 11.4544 2.51165 11.3447 2.52898 11.2465C2.53484 11.213 2.58698 11.2346 2.59343 11.2308C2.6827 11.1654 2.5611 11.121 2.55632 11.099C2.50985 10.8612 2.60165 10.6677 2.5114 10.4408C2.50814 10.4327 2.38203 10.4194 2.47429 10.3588C2.48065 10.3548 2.5382 10.4294 2.54265 10.3226C2.54723 10.2158 2.61479 10.0147 2.55632 9.86658C2.54225 9.83076 2.43975 9.74014 2.51921 9.66737C2.53008 9.65768 2.56641 9.66761 2.58659 9.65369C2.65079 9.60846 2.52359 9.58376 2.63152 9.53065C2.74002 9.47743 2.82161 9.36669 2.74675 9.21717C2.74207 9.21168 2.64371 9.17663 2.64519 9.13026C2.64783 9.05529 2.66923 8.94884 2.66862 8.87049C2.66827 8.83296 2.60532 8.8565 2.60417 8.84998C2.56898 8.59773 2.62478 8.4181 2.64909 8.14783C2.65352 8.09817 2.56771 7.9556 2.63542 7.85975C2.70979 7.75466 3.01848 7.86249 2.94499 7.62049C2.91488 7.52288 2.52458 7.39932 2.72722 7.22401C2.67697 6.88374 2.78033 6.56911 2.70866 6.22791C2.70548 6.21257 2.59585 6.16341 2.59734 6.12733C2.59998 6.074 2.65062 6.04439 2.65398 6.00623C2.66929 5.84614 2.62576 5.69965 2.63249 5.5453C2.63496 5.48663 2.68813 5.50687 2.69109 5.4369C2.69398 5.36707 2.62464 5.32045 2.65788 5.22596C2.68346 5.15444 2.82571 5.08257 2.84245 4.98768C2.70226 4.98406 2.70466 4.9181 2.66765 4.80213C2.65982 4.78082 2.61199 4.8038 2.60612 4.79334C2.58134 4.75058 2.62154 4.71091 2.59441 4.6703C2.59352 4.66895 2.59173 4.66743 2.58952 4.66639C2.57561 4.65952 2.53959 4.65825 2.53191 4.65076C2.46081 4.57069 2.58366 4.45184 2.60612 4.43787C2.6893 4.37359 2.63771 4.32629 2.68132 4.27576C2.72489 4.22922 2.73334 4.32043 2.76921 4.26307C2.84284 4.14646 2.91436 3.99529 2.99968 3.891C3.03256 3.85039 2.96381 3.83832 2.96452 3.83143C2.98962 3.78956 3.02811 3.75774 3.0612 3.72791C3.10794 3.68567 3.14359 3.64571 3.12859 3.56287C3.39244 3.77725 3.16343 3.49027 3.3532 3.45741C3.36957 3.45791 3.4506 3.5861 3.42351 3.62733C3.39656 3.66801 3.31231 3.66444 3.28386 3.73084C3.2748 3.7474 3.30881 3.90858 3.31023 3.92127C3.30829 3.94223 3.30091 3.95258 3.28874 3.95545C3.24192 3.96562 3.1251 3.87261 3.11491 3.86854C2.97322 3.81942 3.02893 4.00444 3.028 4.03065C3.00503 4.15703 2.93589 4.23508 2.94011 4.34022C2.94399 4.40839 3.09062 4.44853 3.07878 4.48768C3.05608 4.56153 2.98327 4.60798 2.95476 4.66639C2.93276 4.72417 2.93712 4.78423 3.01823 4.86659C3.05794 4.90633 3.22316 4.86664 3.09245 5.01014C3.08367 5.01963 2.96511 5.12636 3.0407 5.18787C3.05042 5.19556 3.09913 5.19526 3.1032 5.20545C3.12949 5.27379 3.09071 5.31954 3.10905 5.39393C3.12757 5.4685 3.15481 5.55879 3.13835 5.64393C3.12815 5.69518 3.03837 5.76103 3.01628 5.78553C2.95276 5.85478 3.05689 5.92909 2.98015 5.97205C2.90253 6.01538 2.7842 5.9307 2.73405 6.04432C2.86015 6.04853 2.99006 6.05806 3.11687 6.06483C3.11243 6.31382 3.07126 6.55915 3.07683 6.80897C3.07806 6.83945 3.1455 6.8081 3.14812 6.84119C3.15887 6.98111 3.11049 7.10337 3.12956 7.24842C3.14471 7.36079 3.21689 7.48443 3.23503 7.60194C3.09087 7.6737 3.1397 7.84826 3.12663 7.97498C3.12209 8.0193 3.08361 8.01684 3.07097 8.04823C3.02461 8.16698 3.1509 8.11191 3.17155 8.14393C3.25715 8.28398 2.96938 8.29633 2.97624 8.46131C2.97652 8.47006 3.12975 8.57744 3.13933 8.59217C3.2018 8.68579 3.08624 8.6078 3.07487 8.66639C3.0541 8.77324 3.01715 8.84761 3.06218 8.97303C3.07564 9.00967 3.17134 9.09734 3.09734 9.16834C3.08766 9.17766 3.03713 9.17264 3.03386 9.18006C2.98422 9.31628 3.14381 9.32 3.19792 9.39783C3.25195 9.47569 3.14181 9.59602 3.11003 9.62049C3.02857 9.68387 3.07418 9.57295 3.06706 9.56776C2.97103 9.52703 2.98729 9.61501 2.97917 9.68201C2.82254 9.69172 2.83194 9.78526 2.97136 9.75135C2.98652 9.74751 2.97226 9.69578 2.97917 9.68201C3.13279 9.74084 3.15207 9.84368 3.00847 9.95741C2.94122 10.0102 2.86359 9.96096 2.89226 10.1224C2.90564 10.1951 3.01225 10.1674 3.04167 10.2318C3.10877 10.3798 3.00824 10.5724 3.02409 10.725C3.03001 10.7799 3.08942 10.7263 3.09538 10.764C3.11135 10.8644 3.06684 10.9533 3.08952 11.0541C3.09253 11.0626 3.15273 11.0411 3.15398 11.0717C3.16115 11.3094 3.12188 11.5168 3.12077 11.765C3.12027 11.885 3.15399 12.0997 3.14714 12.224C3.13971 12.3625 3.10043 12.5216 3.07878 12.6664C3.06675 12.7217 3.06548 12.7768 3.08073 12.8207C3.11 12.9006 3.16804 12.8682 3.21648 12.8881C3.30732 12.9189 3.21699 13.0681 3.20866 13.098C3.20786 13.0994 3.16255 13.0422 3.15105 13.0902C3.10287 13.141 3.20832 13.0979 3.20866 13.098C3.19807 13.1148 3.26571 13.2428 3.29558 13.2553C3.31055 13.2623 3.34957 13.2188 3.35612 13.223C3.37428 13.2346 3.39286 13.2455 3.41081 13.2562C3.54595 13.3362 3.67143 13.3965 3.8112 13.4555C3.8139 13.4573 3.79445 13.5202 3.80144 13.5238C3.87578 13.563 3.94313 13.5278 3.99968 13.4867C4.03044 13.4731 4.06229 13.4594 4.09538 13.4476C4.2288 13.4002 4.33474 13.4163 4.41374 13.5287C4.51437 13.5146 4.65864 13.5639 4.74187 13.5941C4.82506 13.6243 4.83709 13.497 4.84441 13.4945C5.07256 13.4139 5.20447 13.487 5.44109 13.4984C5.55362 13.504 5.7771 13.485 5.89909 13.4711C5.99532 13.4599 6.05368 13.49 6.14226 13.4711C6.15413 13.4686 6.14289 13.4129 6.14616 13.4096C6.24526 13.3416 6.19797 13.4805 6.21843 13.5053C6.29236 13.5951 6.33813 13.643 6.46452 13.601C6.49373 13.5913 6.57911 13.3917 6.63249 13.3793C6.70184 13.3645 6.67617 13.4366 6.7487 13.4193C6.75492 13.4179 6.75368 13.3734 6.79851 13.3754C7.00659 13.3838 7.23364 13.4091 7.44987 13.4047C7.47904 13.4039 7.44147 13.3342 7.48405 13.3324C7.68431 13.3241 7.9042 13.3269 8.09929 13.3597C8.1468 13.3682 8.11721 13.4175 8.12761 13.432C8.19114 13.5189 8.28064 13.3932 8.29655 13.389C8.65378 13.3275 8.92758 13.4433 9.29167 13.3881C9.31168 13.3846 9.46384 13.2483 9.53191 13.3656C9.53657 13.3734 9.6042 13.4939 9.66374 13.4115C9.66646 13.4052 9.62645 13.3447 9.6989 13.351C9.7721 13.3571 9.88942 13.3162 9.98991 13.3842C10.0218 13.4056 10.098 13.5259 10.193 13.4301C10.1997 13.4227 10.3458 13.2066 10.3981 13.3558C10.4066 13.3806 10.398 13.5385 10.5114 13.4574C10.5323 13.4416 10.4937 13.4061 10.5505 13.3842C10.6378 13.3503 10.7536 13.3927 10.861 13.3226C10.8798 13.3102 10.96 13.203 11.0241 13.2846C11.0335 13.2978 11.0154 13.3497 11.0485 13.3558C11.2094 13.3842 11.3784 13.3486 11.5417 13.3851C11.5991 13.3981 11.5699 13.4832 11.6296 13.5062C11.6898 13.5291 11.8115 13.551 11.8747 13.5121C11.9378 13.4731 11.8692 13.3375 11.9635 13.3265C11.9756 13.3252 11.9877 13.3238 11.9997 13.3226C12.1657 13.2888 12.3431 13.276 12.4928 13.1596C12.5128 13.1438 12.5314 13.1259 12.5485 13.1068C12.5691 13.0828 12.5159 13.0738 12.5407 13.0375C12.601 12.949 12.6366 12.7978 12.6481 12.6664C12.6559 12.5176 12.6732 12.3809 12.7096 12.2797C12.7925 12.0499 12.8556 12.3392 12.8893 12.1635C12.9054 12.0787 12.7478 11.9867 12.7428 11.9662C12.6924 11.7664 12.7624 11.6275 12.7409 11.4476C12.7364 11.4105 12.6718 11.4469 12.6686 11.4154C12.6575 11.3074 12.6866 11.1935 12.6813 11.0902C12.6787 11.0442 12.6298 11.0526 12.6335 11.0101C12.642 10.9082 12.6628 10.8176 12.7087 10.7181C12.7145 10.7113 12.7738 10.769 12.776 10.6947C12.7796 10.5727 12.8247 10.421 12.778 10.2806C12.7637 10.2391 12.6519 10.2373 12.7292 10.1478C12.7458 10.1293 12.879 10.1532 12.7634 10.0492C12.7441 10.0317 12.5877 9.85603 12.6882 9.76991C12.7147 9.74723 12.8253 9.68914 12.8083 9.63905C12.8055 9.63225 12.7448 9.6591 12.7389 9.61756C12.7194 9.47128 12.7255 9.31763 12.7067 9.16737C12.7012 9.12799 12.6391 9.18699 12.6335 9.12733C12.6178 8.96276 12.6345 8.75696 12.654 8.59608C12.6615 8.53733 12.7128 8.57792 12.7184 8.57362C12.809 8.50434 12.6865 8.46284 12.6794 8.43983C12.6366 8.29676 12.6935 8.18791 12.6784 8.05604C12.6743 8.01958 12.6153 8.04474 12.61 8.03748C12.5595 7.96284 12.6647 8.01844 12.6764 7.97108C12.7093 7.83773 12.7044 7.68896 12.6969 7.55408C12.6941 7.5045 12.6264 7.55952 12.6247 7.51502C12.613 7.25175 12.6194 6.97801 12.6569 6.72108C12.6642 6.67283 12.7162 6.70284 12.7282 6.69276C12.8114 6.62348 12.6987 6.52232 12.6872 6.49842C12.6375 6.39185 12.6831 6.35033 12.6745 6.25623C12.6314 5.79638 12.6623 5.2284 12.6813 4.79432C12.6832 4.75108 12.6851 4.70825 12.6872 4.66639C12.7055 4.47372 12.6555 4.28548 12.5251 4.14198C12.4801 4.093 12.4255 4.04992 12.362 4.01795C12.3452 4.00958 12.3281 4.07816 12.3141 4.07362C12.2134 4.03116 12.1084 4.00066 11.9997 3.99842C11.8368 3.99683 11.6737 3.9966 11.5094 4.00526C11.4781 4.00679 11.5227 4.07284 11.4723 4.07752C11.3691 4.08753 11.2387 4.08394 11.1344 4.06287C11.0835 4.0527 11.1515 3.99676 11.1003 3.98768C10.9809 3.96641 10.8528 3.96146 10.7301 3.97205C10.6785 3.9769 10.7568 4.04451 10.6891 4.0453C10.2271 4.052 9.77323 4.06353 9.30632 3.97596C9.27435 3.96979 9.24633 3.83261 9.17839 3.85877C9.17327 3.89691 9.17379 3.94203 9.17155 3.9828C8.49895 4.00476 7.83238 3.95696 7.15788 3.94959C7.13043 3.95008 7.17846 4.02206 7.1237 4.02186C6.80515 4.02079 6.49546 4.04051 6.1696 3.96815C6.13784 3.9601 6.15381 3.83396 6.05925 3.85291C6.04244 3.85645 5.89812 3.87295 5.86101 3.90076C5.85617 3.90526 5.88235 3.96521 5.83659 3.96717C5.5678 3.97625 5.28559 3.96269 5.01726 3.92616C4.97445 3.92002 5.01994 3.85626 4.98991 3.85096C4.77121 3.81717 4.53291 3.86569 4.3239 3.80799C4.18395 3.76906 4.23518 3.65853 4.16081 3.55018C4.14893 3.5353 4.06383 3.53235 4.05925 3.4701C4.04775 3.31167 4.09007 3.138 4.07292 2.96912C4.06928 2.93274 3.95356 2.97201 4.02214 2.88416C4.02694 2.87828 4.11079 2.84857 4.13152 2.81873C4.14579 2.798 4.1197 2.73377 4.14909 2.70741C4.17851 2.68111 4.21069 2.73443 4.25945 2.7035C4.3082 2.67211 4.28721 2.5999 4.38445 2.59119ZM11.8932 14.1137C11.9675 13.9974 11.6773 13.9855 11.7409 14.1078C11.7462 14.1141 11.8886 14.1194 11.8932 14.1137ZM5.22624 14.0014C5.25933 13.9304 5.13507 13.9247 5.16081 13.9984C5.16235 14.0014 5.22476 14.0043 5.22624 14.0014ZM9.18034 13.9564C9.17732 13.8957 9.1156 13.9122 9.13542 13.9681C9.13663 13.9715 9.18067 13.9749 9.18034 13.9564ZM2.90202 6.55701C2.80308 6.65772 2.94866 6.72669 3.02507 6.65565C3.10071 6.58485 2.93251 6.5268 2.90202 6.55701ZM2.82976 5.51307C2.75175 5.63077 3.06984 5.6489 3.00554 5.52284C2.99754 5.51555 2.83443 5.50631 2.82976 5.51307ZM2.76335 4.48963C2.71534 4.51909 2.75812 4.62285 2.81413 4.58436C2.85816 4.55586 2.82217 4.45709 2.76335 4.48963ZM4.44109 3.51698C4.40807 3.58813 4.53207 3.59394 4.50554 3.51991C4.5015 3.51701 4.44254 3.5141 4.44109 3.51698ZM3.69011 3.20155C3.74533 3.19442 3.59227 3.31028 3.66667 3.31678C3.79145 3.331 3.8604 3.15702 3.99773 3.24354C4.01595 3.2594 3.87472 3.41782 3.86491 3.4203C3.63593 3.43672 3.37188 3.26094 3.69011 3.20155Z" fill="#555961"/>
<path d="M6.44139 10.068C6.46891 10.0632 6.47947 10.0955 6.48143 10.1305C6.48185 10.1416 6.45844 10.1732 6.45799 10.1822C6.4572 10.1999 6.47379 10.1878 6.47166 10.2076C6.47081 10.2144 6.4357 10.2649 6.43456 10.2721C6.43423 10.3046 6.45625 10.2998 6.46385 10.3199C6.50172 10.42 6.56376 10.4821 6.62694 10.5475C6.64776 10.569 6.65346 10.6365 6.69139 10.6276C6.69573 10.6264 6.71735 10.5775 6.72069 10.5719C6.76052 10.5137 6.70841 10.6122 6.70799 10.6285C6.70631 10.6928 6.73229 10.7104 6.76463 10.7018C6.77848 10.698 6.81447 10.5943 6.79881 10.6549C6.79676 10.6608 6.77109 10.7094 6.77049 10.7174C6.77095 10.7331 6.78804 10.7295 6.791 10.736C6.79651 10.7483 6.79807 10.749 6.80663 10.7535C6.81798 10.7604 6.8216 10.7931 6.83983 10.7867C6.84381 10.7852 6.86359 10.7282 6.87206 10.7203C6.88044 10.7128 6.89012 10.7222 6.88866 10.7369C6.88715 10.7517 6.8677 10.795 6.86424 10.8053C6.83524 10.8921 6.89759 10.7802 6.90038 10.7779C6.95174 10.7425 6.95276 10.82 6.98338 10.8317C7.00694 10.8402 7.04045 10.8267 7.06151 10.8375C7.08608 10.8508 7.09847 10.8879 7.12596 10.8912C7.12886 10.8916 7.14783 10.8235 7.15135 10.8238C7.1886 10.8272 7.22066 10.8451 7.24315 10.901C7.24502 10.9074 7.22358 10.9645 7.22459 10.9742C7.23234 11.0295 7.2395 11.1582 7.31932 10.9C7.33138 10.914 7.34678 10.9287 7.34764 10.985C7.34823 11.0212 7.32422 11.0847 7.34178 11.0592C7.34572 11.0534 7.35651 10.995 7.36131 10.9908C7.38121 10.9737 7.39365 10.9958 7.41502 10.9693C7.41935 10.9639 7.42957 10.9132 7.4326 10.9029C7.4556 10.8292 7.44164 10.9542 7.44237 10.9654C7.44854 11.0373 7.46884 11.0142 7.48729 11.0192C7.49155 11.0204 7.49931 10.9511 7.50389 10.9479C7.52726 10.9418 7.5482 10.9522 7.56444 10.9869C7.56747 10.996 7.55478 11.0523 7.55565 11.0602C7.56152 11.0895 7.58105 10.978 7.5869 11.0026C7.58815 11.0078 7.57968 11.0588 7.57909 11.0651C7.57165 11.1546 7.59583 11.0295 7.59764 11.027C7.62148 10.9932 7.61549 11.1239 7.6367 11.109C7.63919 11.107 7.64313 11.0441 7.6494 11.0397C7.69293 11.0269 7.73407 11.0492 7.77147 11.1051C7.77688 11.1146 7.76864 11.1625 7.76854 11.1686C7.76779 11.2631 7.7816 11.1388 7.78416 11.1324C7.80326 11.0992 7.81232 11.2069 7.83299 11.0563C7.8868 11.1019 7.94439 11.0568 7.99999 11.107C8.01386 11.1194 8.02744 11.138 8.04198 11.1647C8.04282 11.169 8.04305 11.2293 8.04491 11.232C8.06753 11.2656 8.06149 11.1685 8.07225 11.0494C8.07479 11.0194 8.09031 11.1629 8.09178 11.1735C8.09662 11.212 8.09621 11.3046 8.09764 11.3131C8.11016 11.3719 8.09767 11.0637 8.11034 11.0631C8.11076 11.0685 8.11104 11.1198 8.11229 11.1256C8.11646 11.1432 8.11882 11.1208 8.12303 11.1402C8.13261 11.1855 8.1434 11.3345 8.15135 11.2467C8.15212 11.2334 8.1409 11.0628 8.15233 11.068C8.15707 11.0712 8.17688 11.0673 8.18358 11.0777C8.19 11.0886 8.18987 11.1448 8.19041 11.1481C8.21143 11.2215 8.20816 11.2532 8.22459 11.3629C8.24129 11.4713 8.21873 11.2098 8.21971 11.1803C8.2207 11.151 8.23739 11.2119 8.24217 11.233C8.24677 11.254 8.24645 11.2893 8.24999 11.3014C8.27449 11.3789 8.24613 11.1706 8.24803 11.1285C8.25192 11.0305 8.2803 11.2204 8.29491 11.2399C8.29872 11.2446 8.2916 11.2019 8.29393 11.1969C8.30377 11.1799 8.31722 11.2392 8.3242 11.1822C8.32535 11.1705 8.32228 11.0571 8.33885 11.1402C8.3413 11.1524 8.34434 11.2012 8.35057 11.2115C8.35992 11.2268 8.37495 11.2354 8.38084 11.2184C8.38515 11.2057 8.36838 11.1273 8.37889 11.151C8.3835 11.1617 8.38346 11.2078 8.39159 11.2242C8.4 11.2402 8.41605 11.2365 8.42186 11.234C8.42765 11.2315 8.41609 11.1717 8.416 11.1676C8.41561 11.1455 8.42129 11.1174 8.42284 11.1139C8.47035 11.0992 8.53442 11.1912 8.57713 11.1481C8.58036 11.1447 8.56541 11.0842 8.56541 11.0817C8.57292 11.0528 8.59728 11.2221 8.61815 11.276C8.59093 11.1502 8.60011 11.1699 8.60643 11.1549C8.60937 11.1473 8.59786 11.1004 8.59666 11.0934C8.58732 11.0179 8.61142 11.1109 8.61717 11.1315C8.63721 11.2031 8.62412 11.1168 8.63768 11.1647C8.65126 11.2121 8.65991 11.2848 8.66893 11.2818C8.66137 11.2359 8.62857 11.1192 8.63084 11.0983C8.63922 11.0202 8.70641 11.1018 8.72948 11.1061C8.75185 11.1105 8.75643 11.1008 8.77245 11.1139C8.80117 11.1368 8.76983 11.0526 8.77147 11.0094C8.77309 10.9661 8.82708 11.1817 8.84178 11.2272C8.8563 11.2716 8.84517 11.2247 8.85448 11.2486C8.86399 11.2731 8.86756 11.3062 8.87596 11.3141C8.88452 11.3219 8.87727 11.2356 8.86522 11.1871C8.83984 11.0845 8.80233 10.98 8.82713 11.0133C8.82879 11.0162 8.84179 11.071 8.84666 11.0768C8.88426 11.1125 8.91195 11.1075 8.9492 11.1373C8.95474 11.1438 8.97139 11.2036 8.97459 11.2067C9.0088 11.239 8.96717 11.1373 8.94041 11.0182C8.98843 11.1726 9.02595 11.2649 9.04295 11.2604C9.05312 11.2576 9.02839 11.1915 9.01854 11.1422C9.01555 11.1274 9.03847 11.1702 9.02928 11.1393C8.99787 11.0352 8.95185 10.9222 8.98338 10.9625C8.98564 10.9673 9.00234 11.0216 9.00584 11.024C9.02876 11.0395 8.99335 10.9324 9.00487 10.9137C9.01406 10.8997 9.06009 10.9551 9.07909 10.9606C9.1432 11.1308 9.14406 11.0856 9.10448 10.9664C9.11582 10.9673 9.12407 10.957 9.13963 10.9693C9.14509 10.974 9.16144 11.0234 9.16405 11.0289C9.20339 11.1093 9.16283 10.9941 9.16307 10.9889C9.16808 10.937 9.2216 11.0145 9.20799 10.9225C9.20751 10.9191 9.15977 10.8024 9.20116 10.8844C9.20403 10.8901 9.21964 10.9457 9.23143 10.9459C9.24306 10.9458 9.28975 10.9995 9.28026 10.9401C9.27803 10.9256 9.24472 10.8279 9.28416 10.8981C9.2895 10.9076 9.30293 10.9407 9.31249 10.9586C9.34314 11.0153 9.29311 10.8983 9.34276 10.9947C9.39242 11.0913 9.43751 11.1601 9.42088 11.0856C9.42046 11.0834 9.38158 10.9895 9.3867 10.9889C9.39486 10.9881 9.41334 11.002 9.42088 10.9986C9.42434 10.9966 9.39536 10.9404 9.39549 10.9391C9.40423 10.8963 9.44494 10.9388 9.48143 10.9479C9.48829 10.9496 9.46347 10.8665 9.50291 10.9225C9.54653 10.9841 9.67472 11.2633 9.666 11.1861C9.66287 11.1547 9.49419 10.8012 9.60448 10.9723C9.61298 10.911 9.69298 10.9856 9.69041 10.9049C9.68854 10.8979 9.64159 10.8039 9.64549 10.8033C9.65206 10.8044 9.6774 10.843 9.68358 10.8463C9.70589 10.8514 9.69836 10.8065 9.71581 10.8043C9.72265 10.8042 9.74699 10.8494 9.75487 10.8483C9.76216 10.846 9.73244 10.7845 9.7578 10.8082C9.77721 10.8265 9.8555 10.9458 9.87303 10.9547C9.80181 10.8341 9.80917 10.8325 9.80077 10.7945C9.7991 10.7872 9.77161 10.7465 9.76952 10.7408C9.76057 10.7173 9.7846 10.7494 9.7744 10.7242C9.77191 10.7181 9.74798 10.6775 9.74413 10.6695C9.71359 10.6056 9.77941 10.6918 9.791 10.7067C9.83452 10.7629 9.80542 10.7084 9.82518 10.7291C9.84489 10.7498 9.85614 10.7838 9.87108 10.7945C9.90199 10.8165 9.91393 10.7997 9.92772 10.7936C9.93304 10.7909 9.89655 10.7409 9.89549 10.7379C9.89714 10.7177 9.94476 10.7677 9.88182 10.6568C10.0667 10.9293 9.87071 10.6264 9.92088 10.6725C9.92588 10.6777 10.0104 10.8052 10.0185 10.8277C10.0263 10.8498 9.99345 10.814 10.0058 10.8473C10.0089 10.8553 10.0786 10.9845 10.082 10.9928C10.109 11.0564 9.98536 10.8641 9.97655 10.8512C9.89727 10.7382 9.97078 10.8773 9.97362 10.8883C9.98715 10.9385 9.95904 10.9178 9.96678 10.9547C9.97186 10.9789 10.0501 11.1091 10.042 11.109C10.0143 11.1079 9.89795 10.9293 9.97459 11.0983C9.99091 11.1344 10.0803 11.2745 9.99901 11.1705C9.99251 11.1622 9.92295 11.0682 9.95506 11.1363C9.95934 11.1453 9.98332 11.1869 9.98436 11.191C9.9908 11.2176 9.96691 11.1873 9.96874 11.2076C9.97057 11.2278 9.97532 11.2563 9.95897 11.2477C9.94883 11.2421 9.89714 11.1669 9.88377 11.149C9.8457 11.098 9.88936 11.1924 9.84764 11.1285C9.80542 11.0634 9.75497 10.9565 9.71971 10.9186C9.78106 11.0286 9.84392 11.1417 9.90526 11.2526C9.87769 11.263 9.83343 11.2412 9.81053 11.2594C9.80778 11.2618 9.84201 11.3184 9.84081 11.3238C9.83129 11.3412 9.79606 11.3058 9.79002 11.3307C9.78577 11.3506 9.80511 11.4205 9.80077 11.443C9.72719 11.3186 9.73121 11.3709 9.7119 11.3658C9.70499 11.3631 9.68844 11.3294 9.67967 11.3199C9.64676 11.2849 9.70937 11.396 9.71483 11.4156C9.73773 11.4999 9.60826 11.2419 9.59471 11.2565C9.59565 11.2611 9.64842 11.3969 9.65233 11.4098C9.66944 11.4707 9.62836 11.3628 9.61717 11.3551C9.59691 11.3418 9.57307 11.313 9.57909 11.36C9.58149 11.3751 9.61174 11.4642 9.57323 11.401C9.56814 11.3926 9.54717 11.3472 9.54491 11.3443C9.50993 11.3059 9.57675 11.4502 9.59081 11.5035C9.60463 11.5567 9.54581 11.4621 9.53026 11.4342C9.49109 11.3646 9.51969 11.3983 9.51854 11.3932C9.48332 11.3037 9.48002 11.3223 9.46971 11.318C9.40486 11.1759 9.39991 11.1884 9.45995 11.3141C9.4664 11.3275 9.4657 11.3132 9.46971 11.318C9.52644 11.461 9.52283 11.4843 9.45311 11.358C9.42056 11.2988 9.39482 11.2249 9.38963 11.2584C9.38723 11.2736 9.43256 11.3707 9.43749 11.401C9.44785 11.4692 9.38855 11.3868 9.37791 11.4068C9.37417 11.4146 9.40188 11.4666 9.40038 11.4742C9.39546 11.4936 9.36973 11.4568 9.36717 11.482C9.36697 11.4844 9.39085 11.5387 9.38866 11.5426C9.36501 11.5598 9.32762 11.5324 9.29979 11.5416C9.28649 11.5461 9.27408 11.5874 9.2578 11.5865C9.22936 11.5847 9.16949 11.5101 9.15624 11.5377C9.14781 11.5559 9.17018 11.6133 9.17772 11.6549C9.19199 11.7354 9.12613 11.6052 9.1162 11.5836C9.1159 11.5829 9.1234 11.5647 9.10741 11.5367C9.08321 11.4751 9.11626 11.5833 9.1162 11.5836C9.10985 11.5703 9.08207 11.5641 9.08104 11.5768C9.0806 11.5837 9.09903 11.6356 9.09959 11.6412C9.08386 11.701 9.05485 11.726 9.01463 11.7096C9.01373 11.7086 8.99601 11.6447 8.99413 11.6432C8.96768 11.6212 8.97788 11.7014 8.97459 11.7516C8.97138 11.8018 8.953 11.7903 8.91502 11.6842C8.90645 11.6996 8.8771 11.6571 8.86034 11.6305C8.84343 11.6036 8.87331 11.7274 8.87303 11.7301C8.86519 11.8145 8.83211 11.7489 8.80174 11.7438C8.78707 11.7414 8.76377 11.7651 8.75194 11.7818C8.74262 11.7949 8.7295 11.7678 8.72264 11.7887C8.72242 11.7938 8.73342 11.8423 8.73436 11.8483C8.73569 11.9173 8.71442 11.7803 8.70702 11.7565C8.68025 11.6701 8.66587 11.6243 8.65916 11.6686C8.65774 11.6787 8.6853 11.8775 8.68065 11.8902C8.67472 11.9055 8.66493 11.8355 8.65916 11.8541C8.6593 11.8586 8.66587 11.8989 8.66014 11.8981C8.63259 11.8944 8.60036 11.8738 8.5742 11.8824C8.57058 11.8835 8.58618 11.9521 8.58104 11.9547C8.55695 11.9669 8.52818 11.9681 8.49901 11.9391C8.492 11.9311 8.48953 11.8833 8.48631 11.8688C8.46661 11.7825 8.4724 11.911 8.47069 11.9137C8.43292 11.9805 8.38485 11.8691 8.34471 11.9283C8.34275 11.9318 8.3355 12.0703 8.31639 11.9537C8.31492 11.9454 8.29649 11.8273 8.29588 11.9098C8.29619 11.9168 8.30562 11.9758 8.29588 11.9703C8.28612 11.9657 8.2744 12.0066 8.25682 11.9401C8.25106 11.9185 8.23316 11.8004 8.22752 11.8961C8.22751 11.9028 8.2215 12.1202 8.20604 11.9713C8.20349 11.9457 8.19615 11.7898 8.18651 11.8707C8.1846 11.8866 8.19068 11.9216 8.18456 11.944C8.17503 11.9784 8.15844 11.937 8.14745 12.0074C8.14563 12.02 8.13922 12.1279 8.12791 12.0475C8.12617 12.0348 8.12661 11.981 8.12206 11.9752C8.10072 11.9485 8.08002 11.9836 8.05858 11.9479C8.05101 11.9352 8.05361 11.8497 8.04588 11.8268C8.03812 11.8041 8.02321 11.7822 8.01561 11.8209C8.00792 11.86 8.01708 11.9965 8.00487 12.0074C8.0033 12.0088 8.00155 12.0102 7.99999 12.0113C7.94789 12.0498 7.89755 11.9733 7.84764 11.9596C7.83992 11.9575 7.84369 12.007 7.83202 12.0074C7.78941 12.0094 7.71034 12.0493 7.6826 11.943C7.66105 11.8578 7.70304 11.7979 7.68456 11.7623C7.67585 11.7469 7.64966 11.9022 7.64647 11.9068C7.61608 11.9545 7.60591 11.8832 7.58104 11.902C7.57589 11.9065 7.57272 11.9697 7.56834 11.9723C7.55317 11.9816 7.54204 11.9512 7.52831 11.9547C7.52212 11.9566 7.5167 12.0051 7.5117 12.0006C7.49988 11.9903 7.49137 11.9682 7.48534 11.9215C7.48514 11.9162 7.50014 11.8577 7.4912 11.8541C7.47665 11.8477 7.46465 11.8023 7.44041 11.8453C7.43298 11.8605 7.41595 11.9675 7.41698 11.8902C7.41723 11.8737 7.44167 11.7423 7.41014 11.8541C7.4051 11.8728 7.35604 12.0236 7.36229 11.9225C7.36396 11.8958 7.37626 11.7864 7.36717 11.8024C7.36561 11.8076 7.35848 11.8622 7.35252 11.8688C7.33081 11.8848 7.31232 11.8754 7.29002 11.8902C7.28421 11.8959 7.27982 11.9553 7.27147 11.9606C7.2475 11.9719 7.224 11.9508 7.20799 11.9274C7.20276 11.9177 7.21811 11.8694 7.21874 11.8639C7.22955 11.7733 7.19882 11.8927 7.19432 11.899C7.16719 11.9367 7.16596 11.8777 7.14647 11.8883C7.14104 11.8912 7.13005 11.9486 7.12791 11.9537C7.10685 12.0009 7.13736 11.9024 7.13475 11.8883C7.12589 11.8525 7.10718 11.852 7.08885 11.8551C7.08217 11.8563 7.07237 11.9223 7.06639 11.9244C7.03071 11.9275 6.99786 11.9118 6.97655 11.8668C6.97267 11.8582 6.9899 11.8099 6.99217 11.7975C7.00662 11.7145 6.96301 11.8211 6.95702 11.8307C6.93059 11.8738 6.93842 11.8289 6.92479 11.8336C6.85657 11.8584 6.79581 11.8068 6.75096 11.7711C6.69164 11.7247 6.65905 11.6584 6.59276 11.6461C6.58831 11.6464 6.56643 11.7124 6.56249 11.7125C6.51237 11.7103 6.47978 11.6673 6.4287 11.6666C6.42454 11.6665 6.40345 11.7277 6.39549 11.7311C6.37954 11.735 6.36573 11.7252 6.36229 11.7008C6.36063 11.6889 6.39151 11.6406 6.38963 11.6295C6.38492 11.6043 6.37234 11.5932 6.35448 11.5963C6.34684 11.5978 6.32755 11.6612 6.31932 11.6608C6.26441 11.6428 6.20692 11.628 6.1953 11.524C6.19557 11.5149 6.25327 11.3931 6.23436 11.4127C6.21651 11.4464 6.19647 11.4869 6.17772 11.5231C6.09414 11.5051 6.04494 11.424 5.9785 11.3776C5.9749 11.3777 5.94557 11.4399 5.93944 11.4381C5.90629 11.4179 5.86267 11.416 5.8662 11.3336C5.86782 11.3237 5.93438 11.2174 5.91502 11.2281C5.91112 11.2302 5.88817 11.2363 5.8701 11.2574C5.86699 11.2615 5.83858 11.3135 5.83299 11.3121C5.80084 11.303 5.77961 11.273 5.77245 11.2252C5.77136 11.2175 5.80934 11.1675 5.80956 11.1608C5.80621 11.1186 5.7565 11.1437 5.76756 11.0826C5.77545 11.0412 5.84164 10.952 5.89452 10.857C5.90176 10.8438 5.89537 10.8362 5.92967 10.7838C6.0164 10.6513 6.11601 10.5093 6.20799 10.3678C6.22783 10.3373 6.19666 10.3629 6.25096 10.2936C6.25461 10.289 6.27778 10.2694 6.29588 10.2457C6.30836 10.2294 6.34142 10.1746 6.35838 10.1539C6.37513 10.1336 6.34891 10.1793 6.36913 10.1568C6.39019 10.1331 6.42928 10.0704 6.44139 10.068ZM8.30272 11.3619C8.30906 11.4224 8.31447 11.4049 8.30663 11.3492C8.30616 11.3459 8.30084 11.3434 8.30272 11.3619ZM8.01073 11.2193C8.00323 11.3358 8.03416 11.3482 8.02635 11.2262C8.02594 11.22 8.0115 11.2139 8.01073 11.2193ZM8.71092 11.2477C8.72382 11.3178 8.73873 11.32 8.71874 11.2486C8.71788 11.2458 8.7104 11.2448 8.71092 11.2477ZM9.75194 11.0924C9.69483 11.0109 9.75727 11.1423 9.80077 11.2057C9.84432 11.2686 9.76957 11.1175 9.75194 11.0924ZM9.87401 10.8473C9.8483 10.8127 9.86456 10.8608 9.89647 10.9039C9.92226 10.9386 9.90615 10.8904 9.87401 10.8473ZM5.93846 10.8463C5.89662 10.9037 5.90542 10.9157 5.94334 10.8522C5.94446 10.8495 5.94015 10.844 5.93846 10.8463ZM9.88475 10.5455C9.89215 10.5471 9.92174 10.6222 9.94041 10.6383C9.97424 10.6667 9.89078 10.525 9.95018 10.5914C9.96118 10.6036 10.0332 10.7408 10.0322 10.7428L10.0156 10.735C9.96594 10.6987 9.85036 10.5388 9.88475 10.5455Z" fill="#555961"/>
<path d="M5.65854 1.98832C5.72551 1.97856 5.50598 2.03462 5.48959 2.0391C5.35691 2.07652 5.51063 2.0466 5.52182 2.04594C5.57238 2.04306 5.54306 2.05859 5.57944 2.05766C5.60321 2.05671 5.73716 2.02408 5.74643 2.02543C5.73443 2.04234 5.53052 2.09876 5.71225 2.06645C5.75133 2.05947 5.91128 2.01666 5.78744 2.05766C5.77958 2.06026 5.66506 2.09638 5.73959 2.08207C5.74964 2.08009 5.79606 2.06871 5.80014 2.0684C5.82635 2.06662 5.79005 2.07866 5.80893 2.07914C5.82797 2.07957 5.85587 2.07857 5.84213 2.08793C5.8335 2.09366 5.74781 2.11977 5.72592 2.12699C5.66532 2.147 5.76706 2.12712 5.69369 2.14848C5.61923 2.17013 5.5033 2.19328 5.45639 2.21293C5.57871 2.18265 5.70443 2.15142 5.82748 2.12113C5.82729 2.13866 5.79159 2.16556 5.80112 2.1807C5.80366 2.18207 5.86419 2.16465 5.87045 2.16508C5.88318 2.1717 5.83905 2.19134 5.85971 2.19633C5.87616 2.20005 5.94708 2.19119 5.96713 2.19438C5.82941 2.23383 5.87859 2.23376 5.8685 2.24516C5.86482 2.24918 5.82755 2.25857 5.81576 2.26371C5.77262 2.28286 5.89537 2.24787 5.91537 2.24516C5.99943 2.23386 5.72737 2.30314 5.7308 2.31352C5.73846 2.31253 5.88264 2.28456 5.89194 2.28324C5.95326 2.27442 5.83948 2.29714 5.82944 2.30375C5.811 2.31579 5.77733 2.32977 5.8226 2.32719C5.83615 2.32637 5.93049 2.30841 5.85971 2.33109C5.84992 2.33418 5.80093 2.34649 5.79819 2.3477C5.75367 2.36829 5.90742 2.33035 5.96127 2.32231C6.01489 2.31435 5.91098 2.349 5.88022 2.35844C5.80213 2.38242 5.84426 2.36388 5.83725 2.36527C5.74472 2.38559 5.76027 2.38741 5.75424 2.39359C5.60247 2.43222 5.61277 2.43647 5.74741 2.40043C5.76212 2.39648 5.74752 2.39622 5.75424 2.39359C5.9039 2.36031 5.92453 2.3621 5.78744 2.40434C5.7232 2.42412 5.64629 2.4406 5.67612 2.44438C5.68984 2.44607 5.79341 2.41816 5.82358 2.41508C5.89067 2.40862 5.79846 2.44462 5.81479 2.45121C5.82125 2.45346 5.87718 2.43671 5.88412 2.43754C5.90133 2.44029 5.86044 2.45689 5.88412 2.45805C5.88972 2.45714 5.94538 2.44158 5.94662 2.4434C5.95723 2.45738 5.92309 2.48049 5.92612 2.49711C5.92811 2.50498 5.96307 2.51092 5.95932 2.52055C5.95171 2.53755 5.86889 2.57712 5.89291 2.58402C5.90845 2.58856 5.96839 2.57229 6.0101 2.56547C6.09036 2.55236 5.9518 2.59839 5.93002 2.60551C5.91609 2.61008 5.90616 2.62715 5.9183 2.62699C5.92603 2.62655 5.98138 2.61213 5.98373 2.61234C6.03884 2.61782 6.0579 2.63238 6.03647 2.65727C6.03543 2.65786 5.97534 2.67282 5.97006 2.67484C5.94453 2.69257 6.02322 2.68053 6.07162 2.67777C6.11997 2.67506 6.10619 2.68531 5.99838 2.71781C6.01375 2.72103 5.96868 2.74308 5.94076 2.7559C5.91287 2.76871 6.03683 2.73845 6.0394 2.73832C6.12073 2.73394 6.05255 2.75999 6.04526 2.77836C6.0417 2.78706 6.06296 2.79706 6.07846 2.8018C6.09095 2.80544 6.06335 2.81717 6.08334 2.8184C6.08595 2.81857 6.13842 2.80467 6.14291 2.80375C6.21046 2.79382 6.07483 2.82373 6.05112 2.83109C5.9653 2.85773 5.91975 2.87293 5.96225 2.87113C5.97213 2.87071 6.167 2.82768 6.18002 2.82817C6.19556 2.82915 6.12585 2.84515 6.14389 2.84574C6.14683 2.8454 6.1846 2.8358 6.18686 2.83793C6.18208 2.85373 6.16141 2.8755 6.16928 2.88871C6.17535 2.8888 6.23661 2.87104 6.23959 2.87309C6.25096 2.8843 6.25161 2.89912 6.22299 2.91996C6.21558 2.92516 6.16759 2.93528 6.15366 2.93949C6.07163 2.96439 6.18979 2.94117 6.1976 2.94047C6.26321 2.94912 6.15578 2.99522 6.21518 3.0059C6.21865 3.00642 6.35434 2.98366 6.24155 3.01664C6.23403 3.01885 6.11813 3.05211 6.19858 3.03617C6.2036 3.03517 6.26212 3.0175 6.25815 3.02348C6.25323 3.02984 6.29528 3.02764 6.2308 3.05082C6.20972 3.05834 6.09611 3.09202 6.18979 3.07524C6.19638 3.07402 6.40918 3.03161 6.26498 3.07133C6.24066 3.078 6.08811 3.11567 6.1683 3.10356C6.18386 3.10118 6.21727 3.08958 6.23959 3.08793C6.27395 3.08547 6.23516 3.10371 6.30502 3.09379C6.31744 3.092 6.42308 3.07174 6.34506 3.09574C6.33247 3.09957 6.28087 3.11065 6.27573 3.1143C6.25154 3.13159 6.28783 3.13478 6.25522 3.15434C6.2421 3.16146 6.16125 3.18006 6.13998 3.18949C6.11879 3.19902 6.09913 3.21237 6.13803 3.20707C6.17668 3.20179 6.30579 3.1641 6.31967 3.16703C6.37235 3.18271 6.30176 3.22987 6.29721 3.25981C6.29908 3.26294 6.34047 3.2497 6.34506 3.25395C6.35402 3.27488 6.40788 3.30181 6.31283 3.34574C6.23622 3.38103 6.1698 3.37772 6.13998 3.3975C6.12666 3.40677 6.28131 3.3749 6.28647 3.37504C6.33774 3.37612 6.27334 3.40146 6.29623 3.40824C6.30118 3.40962 6.36303 3.39226 6.36655 3.39359C6.37889 3.39807 6.35296 3.41247 6.35971 3.41801C6.36288 3.42045 6.40983 3.40768 6.40756 3.41117C6.40103 3.41995 6.38292 3.43161 6.34018 3.44926C6.33627 3.45087 6.2757 3.4613 6.27475 3.46684C6.27292 3.47584 6.23222 3.49623 6.27963 3.49418C6.29403 3.4935 6.40214 3.46683 6.32944 3.49125C6.31408 3.49641 6.18283 3.52717 6.29721 3.5059C6.31623 3.50238 6.47091 3.4767 6.37436 3.50688C6.34834 3.51499 6.24358 3.54486 6.26108 3.54399C6.2639 3.54376 6.32209 3.52802 6.32846 3.52934C6.34943 3.53429 6.34605 3.54548 6.36655 3.55082C6.37214 3.55221 6.43021 3.53412 6.43783 3.53617C6.45572 3.54319 6.44418 3.55994 6.42807 3.57524C6.42197 3.58093 6.37094 3.59117 6.36557 3.59281C6.27969 3.61909 6.39575 3.59267 6.40561 3.59184C6.44941 3.59088 6.3964 3.61205 6.41244 3.61723C6.41697 3.61864 6.47311 3.60256 6.47885 3.6016C6.5293 3.59423 6.42827 3.61593 6.41635 3.62211C6.3867 3.63887 6.39321 3.64823 6.40268 3.65531C6.40618 3.65785 6.46913 3.63811 6.47397 3.63969C6.48965 3.65419 6.48828 3.67427 6.45639 3.70024C6.45022 3.70517 6.39858 3.71618 6.38705 3.71977C6.3076 3.74447 6.41749 3.72411 6.43002 3.7227C6.47964 3.71772 6.43655 3.73116 6.44565 3.73539C6.4949 3.75526 6.47448 3.79981 6.46323 3.83305C6.44888 3.87633 6.40855 3.91775 6.43002 3.95024C6.43547 3.95089 6.49841 3.93309 6.50033 3.93461C6.52283 3.95573 6.50283 3.98751 6.52866 4.00785C6.53443 4.00818 6.59295 3.99045 6.59897 3.99223C6.61043 3.99661 6.60894 4.00658 6.59018 4.01859C6.58055 4.02443 6.52484 4.03355 6.51694 4.0391C6.49853 4.05202 6.49609 4.0619 6.50815 4.06742C6.51353 4.06974 6.57854 4.04848 6.58041 4.05277C6.59452 4.08147 6.61227 4.10844 6.53549 4.1602C6.53004 4.1638 6.39756 4.19919 6.42416 4.19731C6.4612 4.18841 6.50473 4.17774 6.54428 4.16801C6.57652 4.20707 6.54132 4.26236 6.54526 4.30863C6.54544 4.31056 6.61401 4.29002 6.61655 4.29301C6.62076 4.3143 6.64509 4.33016 6.58041 4.36918C6.57408 4.37303 6.44969 4.40274 6.47006 4.40434C6.47419 4.40474 6.49285 4.41045 6.51987 4.40629C6.524 4.40561 6.58142 4.38918 6.58432 4.39164C6.59757 4.40719 6.58897 4.42951 6.55795 4.45609C6.55226 4.46047 6.48984 4.47243 6.48569 4.47563C6.45689 4.49814 6.50765 4.50262 6.45541 4.53031C6.41997 4.54899 6.31219 4.57239 6.20834 4.60356C6.19369 4.60796 6.19228 4.61434 6.13119 4.62992C5.97769 4.6691 5.80839 4.70795 5.64487 4.75004C5.61003 4.75903 5.64961 4.75777 5.56381 4.77445C5.55802 4.77556 5.52767 4.77738 5.49838 4.78324C5.47794 4.78738 5.41719 4.80408 5.39096 4.80863C5.36489 4.81309 5.41592 4.79752 5.3851 4.8018C5.35409 4.80616 5.2847 4.82523 5.27377 4.82133C5.25108 4.81113 5.26628 4.78653 5.29037 4.76469C5.29799 4.75788 5.33722 4.75029 5.34408 4.74516C5.35676 4.73539 5.33709 4.73414 5.35287 4.72367C5.35847 4.72008 5.42067 4.70756 5.42514 4.70414C5.44904 4.68564 5.43113 4.67822 5.44076 4.66313C5.48998 4.58807 5.49824 4.5238 5.51108 4.45707C5.51526 4.4351 5.56441 4.39726 5.53549 4.38285C5.53201 4.38119 5.4785 4.39587 5.47397 4.39652C5.40484 4.40628 5.51349 4.38131 5.5267 4.37309C5.57853 4.3407 5.57872 4.31925 5.55405 4.30668C5.5432 4.30138 5.43854 4.33507 5.49643 4.31254C5.50289 4.31051 5.55742 4.29845 5.56283 4.29496C5.57504 4.28697 5.56349 4.28114 5.56674 4.27641C5.57397 4.26716 5.57263 4.26561 5.57162 4.25883C5.57121 4.24939 5.59636 4.23209 5.58139 4.22563C5.57795 4.22428 5.51988 4.2411 5.50912 4.24027C5.49884 4.23923 5.50212 4.22999 5.51498 4.22367C5.5283 4.21727 5.57399 4.2063 5.58432 4.20317C5.66993 4.17727 5.55081 4.19711 5.5433 4.19731C5.48556 4.1865 5.55005 4.14827 5.54428 4.12602C5.53959 4.10926 5.51193 4.09696 5.51108 4.08012C5.51028 4.05993 5.53778 4.03588 5.52768 4.01859C5.52221 4.01826 5.45934 4.03612 5.45737 4.03422C5.443 4.01069 5.44473 3.98333 5.48471 3.94633C5.48939 3.94255 5.54886 3.93047 5.55698 3.92582C5.6026 3.89785 5.71522 3.84312 5.45053 3.89945C5.4581 3.88636 5.46662 3.87125 5.51694 3.84867C5.54958 3.83417 5.61593 3.82377 5.58627 3.82328C5.57961 3.82315 5.52258 3.83921 5.51694 3.83793C5.49343 3.83252 5.50892 3.81668 5.4769 3.81352C5.47025 3.81292 5.41963 3.82625 5.40951 3.82817C5.33344 3.84178 5.45373 3.80229 5.46323 3.79789C5.52665 3.76712 5.49835 3.76342 5.49643 3.75004C5.49608 3.74689 5.42796 3.7671 5.42514 3.76469C5.41167 3.75203 5.41335 3.73524 5.43979 3.71293C5.44596 3.70787 5.50609 3.6956 5.51205 3.69242C5.53742 3.67867 5.42621 3.70513 5.44858 3.69242C5.45412 3.68961 5.50371 3.67745 5.50912 3.67582C5.59361 3.65047 5.4741 3.67743 5.46811 3.67777C5.42764 3.67395 5.55395 3.63316 5.53256 3.62504C5.52916 3.62435 5.46686 3.64328 5.46323 3.63969C5.4386 3.61569 5.44853 3.58092 5.49252 3.54008C5.49971 3.53375 5.54823 3.52522 5.55405 3.52348C5.64408 3.49627 5.52378 3.52306 5.51596 3.52348C5.47959 3.52062 5.58034 3.48449 5.431 3.51371C5.47026 3.4533 5.37615 3.42697 5.49643 3.34672C5.49956 3.34537 5.55628 3.33143 5.56088 3.32914C5.59151 3.30616 5.4975 3.33315 5.37924 3.35258C5.3509 3.35708 5.48833 3.31476 5.49838 3.31156C5.53537 3.29988 5.62424 3.27938 5.63315 3.27641C5.68898 3.25551 5.38935 3.33207 5.38705 3.32328C5.38748 3.32288 5.44327 3.30977 5.44858 3.30766C5.46516 3.30108 5.44302 3.30484 5.46127 3.29789C5.50391 3.28177 5.64897 3.24367 5.56283 3.25688C5.55158 3.25863 5.38098 3.30191 5.38705 3.29203C5.38938 3.28789 5.38396 3.27516 5.39389 3.26859C5.40405 3.26211 5.45655 3.25136 5.46127 3.25004C5.53113 3.22145 5.56237 3.21764 5.6683 3.18559C5.77372 3.15367 5.52036 3.21848 5.49057 3.22367C5.46179 3.2286 5.51881 3.20646 5.5394 3.19926C5.5596 3.19222 5.5952 3.18629 5.60678 3.18168C5.68086 3.15135 5.47944 3.20836 5.43783 3.21488C5.34014 3.23016 5.52574 3.17589 5.5433 3.16313C5.53809 3.16327 5.50643 3.17223 5.50131 3.17192C5.48407 3.16822 5.54139 3.14852 5.48569 3.15336C5.47653 3.15416 5.36103 3.17563 5.44272 3.15043C5.45453 3.14681 5.50197 3.13677 5.51205 3.1309C5.5267 3.12213 5.53496 3.11064 5.51791 3.10942C5.50498 3.10869 5.42978 3.1325 5.45151 3.12211C5.46171 3.1173 5.50817 3.10969 5.52377 3.1016C5.53904 3.0936 5.53511 3.0837 5.53256 3.08012C5.52999 3.07665 5.47118 3.09311 5.46713 3.09379C5.44393 3.09757 5.41351 3.09739 5.41342 3.09672C5.39875 3.06534 5.48936 3.01031 5.44858 2.98637C5.44292 2.98544 5.38724 3.00027 5.38315 3.00102C5.35496 2.99886 5.5217 2.96523 5.57553 2.94535C5.45043 2.97755 5.47123 2.96856 5.45639 2.96586C5.44889 2.96461 5.39993 2.97758 5.39487 2.97856C5.3208 2.99249 5.41339 2.96698 5.43393 2.96098C5.50516 2.94011 5.41994 2.95729 5.46713 2.9434C5.51404 2.9296 5.58542 2.91688 5.58432 2.91117C5.53869 2.92085 5.42191 2.95478 5.4017 2.95512C5.32542 2.95637 5.41011 2.90166 5.41635 2.88578C5.42254 2.87 5.41288 2.86735 5.42709 2.85551C5.45304 2.83398 5.3668 2.86112 5.32455 2.86234C5.28409 2.86321 5.49944 2.81459 5.54526 2.8018C5.59086 2.78908 5.54331 2.79879 5.56772 2.79106C5.59276 2.78316 5.62548 2.77852 5.63412 2.7725C5.6413 2.76678 5.55747 2.7774 5.50912 2.78813C5.40594 2.81103 5.2999 2.84234 5.3353 2.82328C5.34061 2.82155 5.39151 2.81042 5.39877 2.80668C5.43803 2.77907 5.437 2.7607 5.47104 2.73442C5.47583 2.73077 5.53941 2.71726 5.5433 2.71488C5.58009 2.69083 5.4747 2.72236 5.35483 2.74418C5.51223 2.70666 5.60753 2.67788 5.6058 2.66703C5.60377 2.66094 5.53562 2.67867 5.48666 2.68656C5.47313 2.68858 5.51781 2.67353 5.48569 2.6807C5.37968 2.70435 5.26281 2.73754 5.30698 2.71488C5.30909 2.71385 5.36737 2.70082 5.37045 2.69828C5.38961 2.68227 5.28135 2.70795 5.26401 2.70024C5.25126 2.69377 5.31425 2.66058 5.3226 2.6475C5.3236 2.64725 5.32454 2.64677 5.32553 2.64652C5.25641 2.6591 5.24777 2.65604 5.33334 2.6309C5.33663 2.62298 5.32822 2.61708 5.34311 2.60649C5.34828 2.60282 5.40016 2.59155 5.40561 2.58988C5.49085 2.56399 5.37155 2.59017 5.36655 2.58988C5.31802 2.58536 5.40412 2.55074 5.31283 2.55766C5.3091 2.55803 5.18707 2.58674 5.27475 2.56059C5.28085 2.55879 5.33861 2.55016 5.34116 2.54203C5.34404 2.53382 5.40542 2.50459 5.34701 2.50883C5.33275 2.50988 5.2314 2.5282 5.30795 2.50395C5.31856 2.50063 5.35415 2.49313 5.37338 2.48734C5.43416 2.46899 5.31044 2.49753 5.4144 2.46781C5.51878 2.43798 5.59593 2.41071 5.52084 2.41899C5.51865 2.4192 5.4208 2.44165 5.42026 2.43852C5.42154 2.43307 5.4396 2.42131 5.43881 2.41606C5.43788 2.41375 5.38131 2.42878 5.37631 2.42973C5.33797 2.42161 5.38941 2.39586 5.40854 2.37211C5.40707 2.36873 5.32872 2.37857 5.39096 2.35649C5.46207 2.33142 5.76085 2.26402 5.68686 2.26567C5.65674 2.26635 5.27513 2.35356 5.46811 2.29301C5.41428 2.28263 5.50907 2.23661 5.43393 2.23149C5.42615 2.23229 5.32594 2.25411 5.32455 2.25199C5.32602 2.24787 5.37563 2.23287 5.37826 2.22953C5.38992 2.21544 5.34592 2.21594 5.34994 2.20414C5.3541 2.19946 5.40196 2.18888 5.40463 2.18363C5.40628 2.17834 5.33856 2.19185 5.3685 2.17777C5.39195 2.16693 5.52685 2.12792 5.5433 2.11723C5.40767 2.15087 5.40921 2.14521 5.37143 2.14652C5.36386 2.14688 5.31677 2.16044 5.31088 2.16117C5.28662 2.16425 5.32429 2.15236 5.29721 2.15629C5.28949 2.15756 5.24474 2.1685 5.23666 2.16996C5.16737 2.18247 5.26905 2.1496 5.28744 2.14359C5.3553 2.12139 5.29439 2.13367 5.32065 2.12309C5.34684 2.11254 5.38235 2.1101 5.3978 2.1016C5.42965 2.08392 5.41947 2.07334 5.41928 2.06352C5.41735 2.06031 5.35813 2.07809 5.3558 2.07817C5.33817 2.07443 5.40201 2.04965 5.27768 2.07621C5.59535 1.99115 5.2458 2.07971 5.30698 2.05277C5.31582 2.04965 5.46301 2.012 5.48569 2.00981C5.50784 2.00779 5.46286 2.02359 5.49838 2.01957C5.5101 2.01792 5.64987 1.9896 5.65854 1.98832ZM6.17221 4.58793C6.16965 4.58884 6.16815 4.59279 6.17026 4.59281C6.23992 4.57773 6.24363 4.56821 6.17221 4.58793ZM5.55795 3.34184C5.55201 3.34378 5.54936 3.35465 5.55502 3.35356C5.66881 3.33029 5.67544 3.308 5.55795 3.34184ZM5.64975 3.13676C5.64665 3.13772 5.64485 3.14118 5.66244 3.13676C5.72144 3.1218 5.70396 3.12179 5.64975 3.13676ZM5.55502 2.8809C5.55231 2.88168 5.55074 2.88687 5.55307 2.88676C5.6227 2.8717 5.62643 2.86121 5.55502 2.8809ZM5.74838 2.18266C5.82125 2.15946 5.65588 2.19679 5.62729 2.20609C5.53336 2.23664 5.67547 2.20587 5.74838 2.18266ZM5.44662 2.10551C5.40586 2.11829 5.4561 2.11269 5.50717 2.09672C5.54741 2.08405 5.49759 2.08957 5.44662 2.10551ZM5.37045 2.01274C5.29744 2.04083 5.16107 2.07801 5.17905 2.05863C5.1834 2.05395 5.26149 2.04523 5.28354 2.0352C5.32335 2.01688 5.16297 2.05165 5.24545 2.0225C5.26079 2.01712 5.41502 1.98905 5.4144 1.99027L5.37045 2.01274Z" fill="#555961"/>
<path d="M10.7959 2.08011C10.8172 2.08897 10.7693 2.08153 10.8027 2.09476C10.8106 2.09788 10.9506 2.13962 10.959 2.14261C11.0231 2.16563 10.8032 2.11233 10.7861 2.10843C10.6514 2.079 10.8015 2.1243 10.8115 2.12894C10.8575 2.15018 10.824 2.14978 10.8564 2.16605C10.8767 2.17626 11.0146 2.2118 11.0195 2.21683C11.0013 2.22621 10.794 2.17931 10.9697 2.23636C11.0072 2.24854 11.1691 2.28688 11.04 2.26468C11.0319 2.26328 10.9138 2.24126 10.9863 2.26371C10.9955 2.26653 11.0399 2.27718 11.0459 2.27933C11.0703 2.29022 11.0324 2.28468 11.0488 2.29398C11.0654 2.30333 11.0909 2.31565 11.0742 2.31742C11.0639 2.31842 10.9756 2.30078 10.9531 2.29691C10.8901 2.28602 10.9897 2.31671 10.9141 2.30082C10.838 2.28484 10.7253 2.25079 10.6748 2.24613C10.7969 2.27695 10.9222 2.30872 11.0449 2.33988C11.0362 2.35495 10.9944 2.36146 10.9951 2.37894C10.9954 2.38118 11.0611 2.39559 11.0635 2.39847C11.0716 2.41034 11.0228 2.40667 11.0391 2.42093C11.052 2.43204 11.119 2.45759 11.1348 2.46976C10.9937 2.43953 11.0383 2.46361 11.0234 2.46879C11.0181 2.47053 10.9804 2.46096 10.9678 2.46C10.9218 2.45676 11.0448 2.48314 11.0644 2.49027C11.145 2.5202 10.8667 2.4518 10.8691 2.4639C10.8693 2.46455 11.0173 2.50943 11.0264 2.51273C11.0843 2.5337 10.9743 2.50007 10.9619 2.50101C10.94 2.50303 10.9032 2.49955 10.9443 2.51859C10.9567 2.52424 11.0486 2.55333 10.9756 2.54008C10.9663 2.53839 10.9195 2.52633 10.9141 2.52543C10.8636 2.52238 11.0181 2.56185 11.0693 2.58011C11.1203 2.59831 11.0119 2.57939 10.9805 2.57328C10.8996 2.55756 10.9472 2.56082 10.9394 2.55863C10.8476 2.53284 10.8611 2.54242 10.8525 2.54496C10.7004 2.50761 10.7079 2.51631 10.8437 2.54789C10.8586 2.55133 10.8454 2.54411 10.8525 2.54496C11.0006 2.58611 11.0181 2.59765 10.8769 2.57035C10.8108 2.55754 10.7356 2.53516 10.7607 2.55277C10.7721 2.56075 10.8766 2.58528 10.9043 2.59672C10.9666 2.62264 10.8671 2.61141 10.8789 2.62504C10.8835 2.63006 10.9416 2.64057 10.9473 2.64457C10.9611 2.65507 10.9165 2.65105 10.9365 2.66312C10.9384 2.66421 10.9957 2.67695 10.999 2.67972C11.002 2.69706 10.9607 2.70095 10.9551 2.71683C10.9526 2.72463 10.9823 2.7474 10.9736 2.75394C10.9588 2.7653 10.8681 2.76105 10.8857 2.77836C10.8973 2.78967 10.958 2.80283 10.998 2.81644C11.075 2.84263 10.9309 2.81946 10.9082 2.81547C10.8937 2.81294 10.8769 2.82357 10.8877 2.82914C10.8954 2.83251 10.9502 2.84543 10.9521 2.84672C10.9984 2.8776 11.0086 2.89932 10.9775 2.91117C10.9763 2.91121 10.9122 2.89428 10.9101 2.89457C10.8801 2.89836 10.9562 2.92506 11 2.94535C11.0435 2.96556 11.0261 2.96833 10.916 2.94633C10.9281 2.95642 10.8773 2.95401 10.8467 2.95218C10.8163 2.95042 10.94 2.98234 10.9424 2.98343C11.0158 3.01766 10.9443 3.00902 10.9287 3.02152C10.9214 3.0276 10.9357 3.04719 10.9473 3.05863C10.9563 3.06761 10.9263 3.06477 10.9433 3.07523C10.9465 3.07681 10.999 3.0887 11.0029 3.08988C11.0671 3.11288 10.9337 3.07604 10.9092 3.07133C10.8205 3.05436 10.7734 3.04582 10.8125 3.06449C10.8246 3.06963 11.014 3.12264 11.0244 3.12894C11.0372 3.13696 10.9682 3.11911 10.9834 3.12797C10.9847 3.12872 11.028 3.13915 11.0254 3.14164C11.0138 3.15318 10.9851 3.16172 10.9853 3.17679C10.9853 3.17885 11.0546 3.19405 11.0557 3.1973C11.0602 3.21239 11.0533 3.2266 11.0185 3.23148C11.0089 3.23225 10.9624 3.21867 10.9482 3.21586C10.8621 3.19882 10.9852 3.23576 10.9873 3.23734C11.04 3.27549 10.9243 3.26544 10.9717 3.30277C10.979 3.30629 11.1025 3.34789 10.9892 3.32425C10.9802 3.32237 10.8647 3.29777 10.9424 3.32133C10.9473 3.32282 11.0083 3.3356 11.001 3.3389C10.9945 3.34243 11.0311 3.35945 10.9639 3.34965C10.9413 3.34627 10.8259 3.32343 10.916 3.35258C10.9224 3.35461 11.1303 3.41663 10.9844 3.38383C10.9593 3.37815 10.8084 3.33953 10.8838 3.36625C10.8986 3.37146 10.9336 3.37772 10.9541 3.38675C10.9856 3.40077 10.9431 3.39869 11.0098 3.42289C11.0231 3.4276 11.1233 3.45782 11.0439 3.44242C11.0314 3.43996 10.9822 3.42649 10.9746 3.42679C10.9444 3.43054 10.9755 3.45024 10.9375 3.45218C10.9241 3.45289 10.8415 3.43032 10.8183 3.42875C10.7952 3.4272 10.772 3.42983 10.8086 3.4434C10.845 3.45687 10.9755 3.48493 10.9873 3.49418C11.0262 3.53262 10.9434 3.54048 10.9248 3.56449C10.9221 3.56808 10.9701 3.5769 10.9697 3.58304C10.9678 3.60575 11.0022 3.65451 10.8975 3.64847C10.8132 3.64356 10.7563 3.60892 10.7207 3.61234C10.7049 3.6143 10.8552 3.65843 10.8603 3.66117C10.9061 3.68665 10.8356 3.67922 10.8535 3.69633C10.8576 3.69991 10.9204 3.71303 10.9228 3.71586C10.9311 3.72546 10.9019 3.72639 10.9053 3.73441C10.9082 3.73824 10.9545 3.74914 10.9502 3.75101C10.9402 3.75558 10.9187 3.7565 10.873 3.75199C10.8689 3.75158 10.8126 3.73367 10.8076 3.73734C10.8022 3.74456 10.7558 3.74309 10.7988 3.76371C10.813 3.77012 10.9191 3.79684 10.8437 3.78422C10.8278 3.78154 10.6976 3.74818 10.8086 3.78324C10.8284 3.78954 10.9749 3.83785 10.8769 3.81937C10.8508 3.81443 10.7428 3.79136 10.7588 3.79886C10.7622 3.80017 10.8202 3.81329 10.8252 3.81742C10.8414 3.83169 10.833 3.84014 10.8486 3.85453C10.853 3.85843 10.9144 3.8697 10.9189 3.87504C10.9314 3.8897 10.9121 3.89941 10.8906 3.90531C10.8815 3.9069 10.8338 3.89277 10.8281 3.89164C10.7385 3.8741 10.8577 3.90595 10.8642 3.90922C10.9032 3.929 10.8458 3.92219 10.8584 3.93461C10.8617 3.938 10.9189 3.95141 10.9238 3.95316C10.9715 3.97033 10.8704 3.94112 10.8584 3.94144C10.8245 3.94232 10.827 3.95319 10.832 3.9639C10.8369 3.96807 10.8968 3.97974 10.9014 3.98343C10.9084 4.00361 10.8978 4.02046 10.8574 4.02836C10.8496 4.02981 10.7989 4.01497 10.7871 4.01273C10.7048 3.99704 10.814 4.03198 10.8242 4.03617C10.8703 4.05514 10.8252 4.04642 10.832 4.05472C10.866 4.09548 10.8263 4.12541 10.8008 4.14945C10.7679 4.18071 10.7126 4.19796 10.7158 4.23636C10.716 4.23871 10.7792 4.25275 10.7851 4.2559C10.7952 4.28517 10.7631 4.30389 10.7764 4.33402C10.7801 4.33685 10.8409 4.34907 10.8457 4.35355C10.8537 4.36278 10.8482 4.37029 10.8262 4.37211C10.8155 4.373 10.7622 4.35563 10.7519 4.35648C10.7294 4.35919 10.7224 4.3664 10.7305 4.37699C10.7341 4.38155 10.8008 4.39281 10.8008 4.3975C10.7997 4.42963 10.8035 4.46211 10.7109 4.47172C10.7046 4.47237 10.5719 4.44176 10.5947 4.45218C10.6315 4.46175 10.6754 4.47244 10.7148 4.48246C10.725 4.53221 10.6677 4.5647 10.6494 4.60746C10.649 4.60928 10.718 4.62307 10.7197 4.62699C10.7134 4.64774 10.7276 4.67374 10.6523 4.67777C10.6449 4.67819 10.5209 4.64529 10.5381 4.65629C10.5413 4.6583 10.555 4.67251 10.581 4.68168C10.585 4.68303 10.6436 4.69578 10.6445 4.69925C10.6488 4.71911 10.6314 4.73435 10.5918 4.7432C10.5852 4.7446 10.5237 4.72573 10.5185 4.7266C10.4823 4.73288 10.5253 4.76099 10.4658 4.76078C10.4258 4.76058 10.32 4.73038 10.2139 4.70902C10.1989 4.70601 10.1946 4.71119 10.1338 4.69633C9.9798 4.65864 9.81166 4.61312 9.64745 4.57328C9.61237 4.56478 9.64795 4.58231 9.56444 4.55668C9.55881 4.55493 9.53152 4.54184 9.50292 4.53324C9.48315 4.52729 9.42065 4.51327 9.3955 4.50492C9.37039 4.49658 9.42284 4.50785 9.39354 4.49711C9.36385 4.48627 9.29289 4.4695 9.28612 4.46097C9.27126 4.44147 9.29589 4.42691 9.32714 4.41898C9.33687 4.41649 9.37496 4.42889 9.38378 4.42777C9.40033 4.42522 9.38303 4.41392 9.40233 4.41215C9.40881 4.41162 9.46681 4.42883 9.4746 4.42875C9.50445 4.42366 9.49209 4.40823 9.5078 4.39945C9.58666 4.35632 9.62418 4.30392 9.66698 4.25101C9.68109 4.23357 9.74276 4.22374 9.72362 4.1973C9.72045 4.19407 9.66734 4.18224 9.66308 4.1807C9.59735 4.15673 9.70516 4.18565 9.72069 4.18461C9.78187 4.18036 9.79163 4.16157 9.77538 4.13871C9.76727 4.1289 9.66075 4.10997 9.72167 4.11722C9.72584 4.11771 9.78242 4.13338 9.78905 4.13285C9.80388 4.13158 9.79633 4.1207 9.80175 4.1182C9.81222 4.11354 9.81216 4.11191 9.81444 4.1055C9.81845 4.09693 9.84828 4.09296 9.83788 4.08011C9.83236 4.07688 9.7764 4.06522 9.76757 4.05961C9.75882 4.05384 9.76591 4.04644 9.78026 4.04691C9.7946 4.0474 9.83927 4.06022 9.85058 4.06254C9.94042 4.08043 9.82009 4.03921 9.81737 4.03715C9.77225 4.00076 9.84678 3.99775 9.85253 3.97562C9.85646 3.95862 9.83752 3.9343 9.84472 3.91898C9.85352 3.90099 9.88888 3.89273 9.88866 3.87308C9.88865 3.87106 9.82361 3.85679 9.81933 3.85355C9.81772 3.82608 9.83135 3.80197 9.88378 3.78812C9.88912 3.78675 9.94905 3.80519 9.958 3.80472C10.0115 3.80153 10.1358 3.80628 9.87597 3.73148C9.88883 3.72349 9.90297 3.71409 9.958 3.71781C9.99345 3.72022 10.0577 3.7418 10.0322 3.72758C10.0264 3.72433 9.96824 3.71183 9.96386 3.70804C9.94558 3.69216 9.96648 3.68596 9.93944 3.668C9.9336 3.66428 9.88214 3.65139 9.87304 3.64847C9.79994 3.62477 9.92606 3.6471 9.93554 3.6475C10.0055 3.65015 9.98289 3.63382 9.98729 3.62113C9.98846 3.61819 9.91879 3.60414 9.91698 3.60062C9.91087 3.58293 9.92069 3.5688 9.95507 3.56156C9.96289 3.55999 10.0216 3.57718 10.0283 3.57718C10.0557 3.57672 9.94624 3.54763 9.97167 3.54691C9.97695 3.54673 10.0276 3.56043 10.0332 3.56156C10.1207 3.57915 9.99854 3.54472 9.99608 3.543C9.96276 3.52078 10.093 3.54453 10.0781 3.52738C10.0762 3.52529 10.0113 3.51276 10.0098 3.50785C9.99936 3.47517 10.0243 3.44995 10.082 3.43461C10.091 3.4322 10.1385 3.44708 10.1445 3.44828C10.2377 3.46682 10.1149 3.43335 10.1103 3.4307C10.0796 3.41108 10.186 3.42625 10.041 3.38187C10.1039 3.34703 10.033 3.27889 10.1767 3.26468C10.1784 3.26447 10.2385 3.28063 10.2422 3.28031C10.28 3.27445 10.1847 3.25335 10.0713 3.21488C10.0432 3.20533 10.1807 3.23187 10.1943 3.23441C10.2327 3.2415 10.3235 3.26657 10.331 3.26761C10.3882 3.2751 10.0976 3.20379 10.0918 3.1934C10.0944 3.19383 10.1477 3.20742 10.1533 3.20804C10.1705 3.20991 10.1495 3.20263 10.1689 3.20511C10.2142 3.21096 10.3602 3.2459 10.2773 3.21683C10.2658 3.2129 10.0965 3.1719 10.1064 3.16605C10.1105 3.16361 10.1111 3.14863 10.123 3.1475C10.135 3.14651 10.1871 3.16224 10.1914 3.16312C10.2665 3.17077 10.2957 3.18256 10.4043 3.20414C10.5122 3.22555 10.2588 3.1639 10.2295 3.15433C10.2017 3.14513 10.2627 3.15198 10.2842 3.15531C10.3054 3.15862 10.3403 3.16967 10.3525 3.17093C10.4309 3.17883 10.2279 3.13504 10.1875 3.12113C10.0939 3.08858 10.2837 3.12818 10.3047 3.12504C10.3002 3.12271 10.2673 3.11496 10.2637 3.11234C10.2502 3.10095 10.3098 3.11102 10.2578 3.0889C10.2473 3.08467 10.1389 3.05048 10.2217 3.06644C10.2337 3.06879 10.28 3.08234 10.292 3.08207C10.3089 3.08123 10.3216 3.07544 10.3076 3.06644C10.2969 3.05972 10.2181 3.04475 10.2432 3.04593C10.2544 3.04649 10.2989 3.06141 10.3164 3.06156C10.3335 3.06168 10.3345 3.05133 10.334 3.04691C10.3333 3.04264 10.2734 3.02966 10.2695 3.02836C10.2487 3.02121 10.2244 3.008 10.2217 3.0059C10.2228 2.97104 10.329 2.96513 10.3047 2.92484C10.3028 2.92174 10.2423 2.90834 10.2392 2.90726C10.2154 2.8921 10.3786 2.93948 10.4355 2.9473C10.3094 2.9167 10.3326 2.91877 10.3203 2.90922C10.3125 2.90444 10.2659 2.89416 10.2607 2.89261C10.1879 2.8698 10.2834 2.89035 10.3037 2.89457C10.3764 2.90968 10.2925 2.88555 10.3408 2.89554C10.3891 2.90553 10.4594 2.92799 10.46 2.92191C10.4152 2.90899 10.2953 2.88426 10.2773 2.87504C10.2096 2.84029 10.3103 2.83141 10.3232 2.82035C10.3357 2.80952 10.329 2.80359 10.3467 2.79984C10.3797 2.79305 10.2908 2.77568 10.2529 2.75687C10.2173 2.73876 10.4302 2.79642 10.4766 2.80668C10.5225 2.81686 10.4762 2.80407 10.501 2.80863C10.5268 2.81344 10.5579 2.82452 10.5683 2.82328C10.5787 2.82202 10.4992 2.79178 10.4512 2.77836C10.3496 2.75008 10.2409 2.72784 10.2803 2.72758C10.2826 2.72758 10.3394 2.74291 10.3457 2.74222C10.3931 2.73628 10.4007 2.72005 10.4433 2.71293C10.4513 2.71268 10.5115 2.7299 10.5156 2.72953C10.5593 2.7256 10.4518 2.70413 10.3359 2.66703C10.4922 2.70792 10.589 2.72715 10.5928 2.71683C10.595 2.71062 10.5268 2.69491 10.4795 2.67875C10.4653 2.67389 10.5128 2.68064 10.4814 2.67191C10.377 2.64294 10.2579 2.61754 10.3066 2.6182C10.3089 2.61828 10.3634 2.63367 10.3701 2.63383C10.3957 2.62882 10.2858 2.59993 10.2754 2.585C10.2677 2.57341 10.3391 2.57403 10.3525 2.56644C10.5287 2.6107 10.4907 2.59103 10.3701 2.55668C10.3768 2.55121 10.3722 2.54138 10.3906 2.5391C10.3986 2.53895 10.4476 2.55267 10.4531 2.55375C10.5389 2.57069 10.4265 2.53963 10.4189 2.53617C10.3778 2.50923 10.4698 2.51913 10.3867 2.48246C10.3837 2.48114 10.261 2.44944 10.3516 2.46781C10.3585 2.46937 10.4119 2.48741 10.418 2.48148C10.4241 2.47553 10.4931 2.47892 10.4394 2.45511C10.4264 2.44933 10.3283 2.41803 10.4072 2.43265C10.4182 2.43475 10.453 2.44434 10.4726 2.44828C10.5352 2.46075 10.4125 2.42843 10.5185 2.45121C10.6245 2.47395 10.7048 2.48604 10.6348 2.45804C10.6306 2.45663 10.5356 2.43064 10.5371 2.42777C10.5409 2.42345 10.5638 2.42139 10.5644 2.41605C10.5631 2.41323 10.5029 2.40015 10.5019 2.39945C10.472 2.37425 10.5296 2.37625 10.5576 2.36429C10.5623 2.36198 10.4823 2.33191 10.5488 2.34183C10.6224 2.35284 10.919 2.4346 10.8535 2.4014C10.8266 2.38782 10.4487 2.28469 10.6484 2.3223C10.6053 2.28763 10.7105 2.29194 10.6465 2.25199C10.6404 2.24933 10.539 2.2198 10.541 2.21781C10.5454 2.21535 10.5917 2.22474 10.5976 2.22367C10.6151 2.21684 10.5762 2.19713 10.585 2.18851C10.5883 2.18524 10.6395 2.19925 10.6435 2.19535C10.6465 2.19126 10.581 2.17114 10.6142 2.17289C10.6401 2.17436 10.7777 2.20399 10.7969 2.20218C10.6613 2.16803 10.6648 2.16412 10.6308 2.1475C10.6231 2.14412 10.5768 2.13397 10.5713 2.13187C10.5478 2.12299 10.5874 2.13045 10.5615 2.12113C10.5551 2.11885 10.5087 2.10702 10.501 2.10453C10.4346 2.08314 10.5392 2.10112 10.5586 2.10453C10.6289 2.11687 10.5695 2.09956 10.5976 2.10258C10.6257 2.10562 10.6582 2.11943 10.6758 2.11918C10.712 2.11857 10.7076 2.10548 10.7119 2.09672C10.7134 2.09315 10.6506 2.08001 10.6494 2.07914C10.6368 2.0679 10.7026 2.07593 10.581 2.04105C10.9015 2.11552 10.552 2.02931 10.6182 2.03422C10.6235 2.03464 10.7736 2.07107 10.7959 2.08011ZM10.1855 4.68168C10.2539 4.70108 10.2614 4.6949 10.1894 4.67875C10.1865 4.67809 10.1827 4.68086 10.1855 4.68168ZM10.2334 3.29008C10.2273 3.28895 10.2194 3.29707 10.2246 3.29886C10.3363 3.33205 10.3531 3.31554 10.2334 3.29008ZM10.4228 3.15824C10.4815 3.17267 10.4659 3.16368 10.4111 3.1514C10.4079 3.15072 10.4046 3.15375 10.4228 3.15824ZM10.4433 2.88578C10.5119 2.90526 10.5196 2.89811 10.4473 2.88187C10.4445 2.88159 10.4412 2.88485 10.4433 2.88578ZM10.8291 2.32035C10.7317 2.30306 10.872 2.34265 10.9473 2.35648C11.0217 2.37012 10.8587 2.32559 10.8291 2.32035ZM10.7168 2.14652C10.6751 2.1387 10.7219 2.1571 10.7744 2.16703C10.8161 2.17486 10.7693 2.15645 10.7168 2.14652ZM10.5791 1.97855C10.5952 1.98102 10.7443 2.02854 10.7432 2.02933C10.7272 2.04362 10.4695 1.99008 10.5029 1.97855C10.51 1.97698 10.5826 2.00643 10.6064 2.00785C10.6497 2.0103 10.4915 1.9652 10.5791 1.97855Z" fill="#555961"/>
<path d="M6.14552 7.34403C6.16749 7.34486 6.11985 7.34679 6.15529 7.34794C6.16668 7.34823 6.30964 7.34968 6.31837 7.34989C6.3862 7.35155 6.15437 7.35175 6.14162 7.35184C6.00384 7.35284 6.16103 7.35427 6.17189 7.35477C6.22153 7.35707 6.18913 7.35969 6.22462 7.36161C6.24735 7.36279 6.38474 7.36271 6.39455 7.36356C6.37607 7.36678 6.1688 7.36831 6.35158 7.37137C6.39134 7.37203 6.55647 7.37096 6.4258 7.37333C6.4146 7.37352 6.29934 7.37525 6.37404 7.37626C6.38381 7.37638 6.43247 7.37706 6.43654 7.37723C6.46201 7.37835 6.42399 7.37894 6.4424 7.38016C6.46092 7.38139 6.48813 7.38267 6.47169 7.38407C6.46045 7.38491 6.37162 7.38562 6.34962 7.38602C6.28595 7.38717 6.39006 7.38824 6.31349 7.38895C6.23588 7.38967 6.11755 7.38903 6.0674 7.3909C6.19349 7.39097 6.3234 7.39079 6.45021 7.3909C6.44577 7.39502 6.4046 7.39948 6.41017 7.4036C6.41241 7.40408 6.47887 7.40306 6.48146 7.4036C6.49219 7.4059 6.44423 7.40805 6.46291 7.41044C6.47806 7.41229 6.55029 7.41435 6.56837 7.4163C6.42558 7.41747 6.47178 7.42007 6.45998 7.42215C6.45546 7.42288 6.41721 7.4236 6.40431 7.42411C6.35793 7.42607 6.48435 7.42455 6.5049 7.42508C6.59054 7.4274 6.30245 7.42822 6.30959 7.43094C6.31797 7.43117 6.46141 7.43264 6.47267 7.4329C6.53476 7.43443 6.42078 7.43294 6.40822 7.43387C6.38745 7.43564 6.35052 7.43669 6.39552 7.43876C6.40887 7.43936 6.50473 7.44149 6.43068 7.44266C6.42108 7.44282 6.37121 7.44254 6.3672 7.44266C6.31758 7.44491 6.47709 7.44431 6.53127 7.44559C6.58534 7.44688 6.47521 7.44909 6.44337 7.4495C6.36217 7.45054 6.40705 7.44862 6.40041 7.44852C6.3045 7.44785 6.32056 7.44937 6.31252 7.45048C6.46621 7.45145 6.48544 7.45348 6.34181 7.45536C6.27459 7.45623 6.19695 7.45562 6.2256 7.45829C6.24038 7.45945 6.34536 7.45823 6.37502 7.45926C6.44173 7.46169 6.34301 7.46554 6.35744 7.46805C6.36319 7.46897 6.42276 7.46743 6.42873 7.46805C6.44426 7.4697 6.40044 7.47128 6.42287 7.47294C6.42492 7.47308 6.48261 7.47347 6.48732 7.47391C6.49433 7.47774 6.45694 7.48069 6.45412 7.48465C6.45361 7.48664 6.48734 7.49042 6.48048 7.49247C6.46774 7.49601 6.37974 7.5002 6.40138 7.50321C6.41538 7.50519 6.47743 7.50529 6.51955 7.50614C6.60051 7.50778 6.45427 7.51063 6.43166 7.51102C6.41719 7.51132 6.40351 7.51424 6.41505 7.51493C6.42151 7.5153 6.48018 7.51571 6.48244 7.5159C6.53477 7.52045 6.54974 7.52496 6.52248 7.52958C6.52133 7.52966 6.46013 7.52941 6.45412 7.52958C6.42499 7.53225 6.50516 7.53421 6.55275 7.53641C6.59969 7.53861 6.58356 7.54 6.47169 7.5413C6.48505 7.54296 6.43529 7.54579 6.40529 7.54715C6.37682 7.54851 6.50337 7.54801 6.50587 7.54813C6.58578 7.55188 6.51383 7.55402 6.50197 7.5579C6.49641 7.55974 6.51444 7.56368 6.52834 7.56571C6.53957 7.5673 6.5102 7.56815 6.52931 7.56962C6.53279 7.56981 6.58867 7.56956 6.59084 7.56962C6.65851 7.57125 6.52008 7.57123 6.49513 7.57157C6.40497 7.57279 6.35702 7.57338 6.39943 7.57548C6.41063 7.57596 6.60479 7.57753 6.62013 7.5784C6.60932 7.5789 6.56742 7.57941 6.58107 7.58036C6.58244 7.58046 6.62389 7.57969 6.62502 7.58036C6.61683 7.58368 6.59236 7.58764 6.59474 7.5911C6.59516 7.59157 6.66135 7.59147 6.66701 7.59208C6.67528 7.59537 6.67307 7.59863 6.64064 7.60184C6.63235 7.60263 6.58303 7.60265 6.56837 7.60282C6.48204 7.60385 6.60294 7.60546 6.61037 7.60575C6.6719 7.61164 6.55644 7.61635 6.61134 7.62235C6.61458 7.62268 6.75177 7.62513 6.63478 7.62626C6.62696 7.62633 6.50639 7.62723 6.58791 7.62821C6.59261 7.62827 6.64509 7.62739 6.64943 7.62821C6.64312 7.62942 6.68434 7.63143 6.61623 7.63309C6.59475 7.63362 6.47449 7.63543 6.57033 7.637C6.57721 7.6371 6.79332 7.63906 6.64455 7.63993C6.61998 7.64007 6.462 7.64002 6.54201 7.64188C6.55767 7.64224 6.59319 7.64193 6.61525 7.64286C6.64921 7.6443 6.60726 7.64597 6.67775 7.64774C6.69081 7.64806 6.79708 7.64962 6.71584 7.65067C6.70288 7.65083 6.65085 7.65013 6.64455 7.65067C6.61627 7.65332 6.65129 7.65677 6.61525 7.65946C6.60248 7.66041 6.51758 7.65946 6.49416 7.66044C6.47128 7.66143 6.44927 7.6633 6.4883 7.66434C6.52772 7.66537 6.66244 7.66476 6.67384 7.6663C6.72073 7.67302 6.64263 7.67911 6.6299 7.68583C6.62816 7.68683 6.67627 7.68633 6.67775 7.68778C6.68137 7.69324 6.72655 7.70257 6.62306 7.70731C6.54035 7.71108 6.47706 7.70637 6.44337 7.70926C6.42972 7.71066 6.58589 7.71283 6.59084 7.71317C6.64129 7.71647 6.57161 7.71802 6.59279 7.72098C6.59712 7.72158 6.65762 7.72152 6.66408 7.72196C6.67518 7.72374 6.64725 7.72514 6.65236 7.72684C6.65481 7.72759 6.7021 7.72813 6.70021 7.7288C6.69173 7.73048 6.67091 7.73204 6.62502 7.73368C6.62086 7.73383 6.56069 7.73247 6.55763 7.73368C6.55414 7.73569 6.50891 7.73819 6.55568 7.74051C6.57013 7.7412 6.68121 7.741 6.60451 7.74247C6.58836 7.74278 6.45418 7.7427 6.57033 7.74442C6.59153 7.74475 6.74476 7.74789 6.64455 7.7493C6.61752 7.74968 6.50894 7.75043 6.52541 7.75126C6.52816 7.75137 6.58888 7.75057 6.59474 7.75126C6.61377 7.75364 6.6077 7.75662 6.62599 7.75907C6.63111 7.75973 6.69289 7.75909 6.69923 7.76005C6.71496 7.76276 6.69918 7.76618 6.6797 7.76883C6.67183 7.76978 6.62082 7.76876 6.61525 7.76883C6.52482 7.76997 6.6457 7.77041 6.65431 7.77079C6.69731 7.77315 6.63998 7.77544 6.65529 7.77762C6.6617 7.77815 6.71614 7.77752 6.72267 7.77762C6.77351 7.77886 6.66994 7.77784 6.65724 7.7786C6.62433 7.7808 6.62923 7.78321 6.63673 7.78544C6.64286 7.78614 6.70728 7.7857 6.709 7.78641C6.72068 7.79075 6.71419 7.79487 6.67677 7.79911C6.66965 7.7999 6.61813 7.79993 6.60548 7.80008C6.52171 7.80123 6.63561 7.80263 6.6465 7.80301C6.69561 7.80475 6.65092 7.8054 6.65822 7.80692C6.70104 7.81447 6.67135 7.82419 6.65236 7.83133C6.62794 7.84067 6.57788 7.84782 6.59084 7.85673C6.59551 7.85718 6.65583 7.85635 6.66212 7.85673C6.67885 7.86299 6.65231 7.86998 6.67189 7.87626C6.67338 7.87676 6.73649 7.87553 6.74416 7.87626C6.75421 7.87796 6.75062 7.88039 6.72951 7.88212C6.71827 7.88288 6.66407 7.8823 6.65431 7.88309C6.63304 7.88506 6.62809 7.88693 6.63869 7.88895C6.64401 7.88978 6.71115 7.88881 6.71193 7.88993C6.71866 7.89743 6.72866 7.9048 6.64259 7.91239C6.63658 7.91292 6.49905 7.91322 6.52541 7.91434C6.56354 7.91443 6.60867 7.91431 6.64943 7.91434C6.67092 7.92535 6.62409 7.93651 6.61623 7.94755L6.68849 7.94852C6.68778 7.95374 6.70654 7.95881 6.63478 7.96415C6.62457 7.96465 6.50044 7.96455 6.51955 7.9661C6.52353 7.96645 6.54036 7.96842 6.5674 7.96903C6.57159 7.96911 6.63206 7.96924 6.6338 7.97001C6.64203 7.97436 6.62843 7.97836 6.59279 7.9827C6.58678 7.98342 6.52243 7.98317 6.51759 7.98368C6.48432 7.98728 6.53229 7.99098 6.47462 7.99442C6.43568 7.99673 6.32515 7.99612 6.21681 7.99735C6.20197 7.99755 6.19892 7.99923 6.13673 7.9993C5.9783 7.99949 5.80464 7.99804 5.63576 7.99833C5.59943 7.99839 5.63815 8.00043 5.5508 7.9993C5.54491 7.99922 5.5152 7.99769 5.48537 7.99735H5.3672C5.36234 7.99692 5.39641 7.99608 5.37013 7.9954C5.33864 7.99461 5.26709 7.99501 5.25783 7.99344C5.23829 7.98971 5.25942 7.98545 5.2881 7.98173C5.29749 7.98064 5.33496 7.9805 5.34377 7.97977C5.35917 7.9782 5.3403 7.97644 5.35841 7.97489C5.36457 7.97439 5.42515 7.97537 5.43263 7.97489C5.46032 7.97194 5.445 7.96908 5.45802 7.9661C5.5237 7.9514 5.54771 7.93703 5.57619 7.92215C5.58559 7.91722 5.64317 7.91065 5.61818 7.90555C5.61491 7.90498 5.56196 7.90565 5.55568 7.90555C5.48594 7.90378 5.59749 7.90378 5.61232 7.90262C5.67057 7.89803 5.67561 7.89337 5.65431 7.88895C5.64495 7.88708 5.53564 7.88888 5.59669 7.887C5.60085 7.88687 5.65957 7.88751 5.66603 7.887C5.67975 7.88586 5.67004 7.88306 5.67384 7.88212C5.68253 7.88047 5.68309 7.88059 5.68361 7.87919C5.68503 7.87694 5.71394 7.87379 5.70119 7.87137C5.69821 7.87086 5.63925 7.87118 5.62794 7.8704C5.61772 7.86957 5.62255 7.86821 5.63673 7.86747C5.65109 7.86674 5.69819 7.86662 5.709 7.86649C5.79836 7.86544 5.67901 7.86299 5.67091 7.86258C5.61756 7.85665 5.68954 7.85155 5.68947 7.84598C5.68916 7.84182 5.66557 7.83727 5.66798 7.83329C5.67211 7.82849 5.70484 7.82428 5.69923 7.81962C5.69558 7.81918 5.62773 7.8202 5.62697 7.81962C5.61874 7.81323 5.62706 7.80644 5.67482 7.80008C5.68117 7.7995 5.74114 7.8007 5.75002 7.80008C5.80106 7.79619 5.92378 7.7897 5.65334 7.78739C5.6639 7.78475 5.67499 7.78096 5.72951 7.7786C5.76465 7.77709 5.83157 7.77851 5.80275 7.77665C5.79438 7.77628 5.73809 7.77725 5.73244 7.77665C5.71074 7.77398 5.72985 7.77147 5.69923 7.76883C5.69277 7.7683 5.63945 7.76801 5.6299 7.76786C5.55322 7.76658 5.68116 7.76441 5.69044 7.76395C5.75942 7.76043 5.73172 7.75747 5.73341 7.75419C5.7272 7.75364 5.66647 7.75478 5.66115 7.75419C5.65093 7.75038 5.65684 7.74619 5.68849 7.74247C5.69606 7.74166 5.75512 7.74283 5.76271 7.74247C5.79087 7.74072 5.67639 7.74024 5.70119 7.73856C5.70645 7.73822 5.75693 7.73764 5.76369 7.73758C5.85336 7.73658 5.72645 7.73589 5.72365 7.73563C5.68568 7.73236 5.81761 7.73099 5.79884 7.72782C5.79294 7.72753 5.73265 7.72781 5.72853 7.72684C5.71036 7.71974 5.72862 7.71239 5.78127 7.70536C5.79014 7.70432 5.83871 7.70445 5.84474 7.70438C5.93858 7.70327 5.8151 7.70279 5.80763 7.70243C5.77304 7.69962 5.87952 7.6975 5.72755 7.69559C5.78025 7.6837 5.69537 7.67126 5.83107 7.65946C5.83262 7.65931 5.89335 7.65973 5.89845 7.65946C5.93374 7.65585 5.83626 7.65696 5.71681 7.65458C5.68702 7.65397 5.83125 7.65181 5.84181 7.65165C5.88056 7.65107 5.97271 7.65183 5.98146 7.65165C6.0407 7.65001 5.73156 7.64994 5.73146 7.64774C5.73198 7.64767 5.78928 7.64793 5.79494 7.64774C5.81224 7.64717 5.79009 7.64635 5.80959 7.64579C5.85503 7.64451 6.00436 7.64481 5.91798 7.64286C5.90723 7.64262 5.74877 7.64254 5.73927 7.6409C5.74261 7.64009 5.73971 7.63601 5.75099 7.63505C5.76255 7.63408 5.81886 7.63511 5.8213 7.63505C5.89589 7.63243 5.92689 7.63342 6.03712 7.63212C6.14734 7.6308 5.88483 7.6307 5.85548 7.63016C5.82654 7.62963 5.8876 7.62771 5.90919 7.62723C5.93043 7.62677 5.96606 7.62763 5.97853 7.62723C6.05781 7.62445 5.84838 7.6262 5.80666 7.62528C5.70802 7.62312 5.90244 7.62139 5.92189 7.61942C5.92693 7.6189 5.88471 7.61887 5.87892 7.61844C5.8631 7.61656 5.92322 7.6157 5.86818 7.61356C5.8591 7.61321 5.74173 7.61175 5.82716 7.61063C5.83957 7.61047 5.88855 7.61046 5.89943 7.60965C5.91567 7.60845 5.92625 7.60606 5.91017 7.60477C5.89816 7.60382 5.81804 7.60499 5.84279 7.6038C5.85389 7.60326 5.90103 7.6048 5.91798 7.6038C5.93468 7.60279 5.93229 7.59988 5.93068 7.59891C5.92543 7.59807 5.86823 7.59899 5.86427 7.59891C5.84089 7.59843 5.81148 7.59615 5.81154 7.59598C5.80636 7.58781 5.90606 7.58051 5.87306 7.57255C5.87059 7.57194 5.811 7.57163 5.80568 7.57157C5.77885 7.5694 5.94889 7.57113 6.00587 7.56962C5.87593 7.56983 5.89903 7.56919 5.88478 7.56766C5.87688 7.56696 5.82737 7.56773 5.82228 7.56766C5.74647 7.56658 5.84509 7.5659 5.86525 7.56571C5.93926 7.56499 5.85177 7.56327 5.90138 7.56278C5.94869 7.56231 6.01786 7.56399 6.02248 7.56278C5.9759 7.56237 5.85492 7.5629 5.83498 7.5618C5.76103 7.55764 5.85412 7.54959 5.86525 7.54618C5.87515 7.54282 5.86699 7.54228 5.8838 7.54032C5.91415 7.53678 5.82352 7.53763 5.78224 7.53544C5.74323 7.53327 5.96268 7.53477 6.01076 7.53446C6.05844 7.53415 6.00994 7.53387 6.03615 7.53348C6.0623 7.53311 6.09471 7.53341 6.10451 7.53251C6.09722 7.53144 6.02431 7.52889 5.97951 7.5286C5.87386 7.52792 5.76289 7.52905 5.80177 7.52665C5.80406 7.52651 5.86132 7.52715 5.86818 7.52665C5.9131 7.52245 5.91634 7.51815 5.95607 7.51395C5.96313 7.51341 6.02638 7.51428 6.03029 7.51395C6.07175 7.51046 5.96236 7.51196 5.84084 7.51005C6.00258 7.51048 6.1016 7.50879 6.10255 7.50614C6.10108 7.50462 6.03149 7.5052 5.98244 7.50419C5.96807 7.50387 6.01552 7.50244 5.98244 7.50223C5.87416 7.50157 5.7533 7.50299 5.8008 7.50028C5.80305 7.50016 5.86062 7.50066 5.86623 7.50028C5.8898 7.4976 5.77647 7.49634 5.76271 7.49344C5.75216 7.49119 5.81998 7.48724 5.83205 7.48465C5.83324 7.48466 5.83478 7.48368 5.83595 7.48368C5.76566 7.48257 5.75777 7.48261 5.84669 7.48173H5.84767C5.8521 7.48009 5.84581 7.47842 5.86232 7.47684C5.86819 7.47629 5.92053 7.47593 5.92677 7.47587C6.01468 7.4748 5.89784 7.47428 5.88966 7.47391C5.84316 7.46999 5.93513 7.46692 5.84474 7.46317C5.83818 7.46304 5.71667 7.46318 5.80763 7.46219C5.81415 7.46213 5.87155 7.46298 5.87599 7.46122C5.88124 7.45945 5.94763 7.45584 5.88966 7.4534C5.87559 7.45281 5.77325 7.45168 5.85255 7.45048C5.86337 7.45032 5.8997 7.4507 5.91994 7.45048C5.9841 7.44973 5.85722 7.4494 5.96486 7.44852C6.07336 7.44764 6.15495 7.44513 6.08009 7.44266C6.07533 7.44257 5.98242 7.44242 5.97853 7.44169C5.98131 7.44045 6.00262 7.43809 6.00197 7.4368C6.00138 7.43621 5.9428 7.43687 5.93752 7.4368C5.90229 7.43264 5.95812 7.42955 5.98244 7.42508C5.97978 7.42418 5.90418 7.42172 5.96877 7.4202C6.0429 7.41846 6.35133 7.42028 6.27834 7.4163C6.24893 7.41468 5.85772 7.41333 6.06056 7.41044C6.01033 7.40482 6.1135 7.39947 6.04201 7.39383C6.03884 7.39358 5.93037 7.39248 5.93068 7.39188C5.93302 7.39102 5.98131 7.39053 5.98732 7.38993C6.00249 7.38732 5.96049 7.38463 5.96584 7.38212C5.9683 7.38115 6.02148 7.38132 6.02443 7.38016C6.02041 7.37911 5.95991 7.37871 5.99123 7.37723C6.01682 7.37605 6.15923 7.3749 6.1758 7.37333C6.0356 7.37327 6.038 7.37231 6.00099 7.3704C5.99254 7.37006 5.94528 7.37057 5.93947 7.3704C5.9145 7.36969 5.95452 7.36814 5.92775 7.36747C5.92126 7.36731 5.87424 7.3676 5.86525 7.36747C5.79474 7.36633 5.90216 7.36486 5.92091 7.36454C5.99203 7.3633 5.92999 7.36255 5.95802 7.36161C5.98603 7.36068 6.02112 7.36173 6.0381 7.36063C6.07107 7.35848 6.06624 7.35604 6.0674 7.3538C6.06797 7.35288 6.00556 7.35294 6.00294 7.35282C5.98675 7.3509 6.05451 7.349 5.92775 7.34794C6.25561 7.34661 5.89677 7.34675 5.96095 7.34403C5.96628 7.34381 6.12267 7.3432 6.14552 7.34403ZM6.18361 7.99247C6.25473 7.99301 6.26047 7.99106 6.18654 7.99149C6.18356 7.99151 6.18066 7.99244 6.18361 7.99247ZM5.88673 7.66532C6.00281 7.66654 6.0148 7.66134 5.89259 7.66239C5.88633 7.66248 5.88096 7.66524 5.88673 7.66532ZM5.99904 7.55497C6.06981 7.55551 6.07492 7.55356 6.00099 7.55399C5.9982 7.5541 5.99624 7.55494 5.99904 7.55497ZM5.94337 7.33817C5.91984 7.33924 5.84224 7.33738 5.83595 7.33817L5.92482 7.33622C5.94453 7.33688 5.96042 7.33738 5.94337 7.33817ZM6.08107 7.33524L5.92482 7.33622C5.8951 7.33522 5.85706 7.3345 5.91017 7.33329C5.9275 7.33297 6.07483 7.3349 6.08107 7.33524Z" fill="#555961"/>
<path d="M10.1455 7.34403C10.1675 7.34486 10.1199 7.34679 10.1553 7.34794C10.1667 7.34823 10.3096 7.34968 10.3184 7.34989C10.3862 7.35155 10.1544 7.35175 10.1416 7.35184C10.0038 7.35284 10.161 7.35427 10.1719 7.35477C10.2215 7.35707 10.1891 7.35969 10.2246 7.36161C10.2474 7.36279 10.3847 7.36271 10.3945 7.36356C10.3761 7.36678 10.1688 7.36831 10.3516 7.37137C10.3913 7.37203 10.5565 7.37096 10.4258 7.37333C10.4146 7.37352 10.2993 7.37525 10.374 7.37626C10.3838 7.37638 10.4325 7.37706 10.4365 7.37723C10.462 7.37835 10.424 7.37894 10.4424 7.38016C10.4609 7.38139 10.4881 7.38267 10.4717 7.38407C10.4604 7.38491 10.3716 7.38562 10.3496 7.38602C10.2859 7.38717 10.3901 7.38824 10.3135 7.38895C10.2359 7.38967 10.1175 7.38903 10.0674 7.3909C10.1935 7.39097 10.3234 7.39079 10.4502 7.3909C10.4458 7.39502 10.4046 7.39948 10.4102 7.4036C10.4124 7.40408 10.4789 7.40306 10.4815 7.4036C10.4922 7.4059 10.4442 7.40805 10.4629 7.41044C10.4781 7.41229 10.5503 7.41435 10.5684 7.4163C10.4256 7.41747 10.4718 7.42007 10.46 7.42215C10.4555 7.42288 10.4172 7.4236 10.4043 7.42411C10.3579 7.42607 10.4844 7.42455 10.5049 7.42508C10.5905 7.4274 10.3025 7.42822 10.3096 7.43094C10.318 7.43117 10.4614 7.43264 10.4727 7.4329C10.5348 7.43443 10.4208 7.43294 10.4082 7.43387C10.3875 7.43564 10.3505 7.43669 10.3955 7.43876C10.4089 7.43936 10.5047 7.44149 10.4307 7.44266C10.4211 7.44282 10.3712 7.44254 10.3672 7.44266C10.3176 7.44491 10.4771 7.44431 10.5313 7.44559C10.5853 7.44688 10.4752 7.44909 10.4434 7.4495C10.3622 7.45054 10.407 7.44862 10.4004 7.44852C10.3045 7.44785 10.3206 7.44937 10.3125 7.45048C10.4662 7.45145 10.4854 7.45348 10.3418 7.45536C10.2746 7.45623 10.197 7.45562 10.2256 7.45829C10.2404 7.45945 10.3454 7.45823 10.375 7.45926C10.4417 7.46169 10.343 7.46554 10.3574 7.46805C10.3632 7.46897 10.4228 7.46743 10.4287 7.46805C10.4443 7.4697 10.4004 7.47128 10.4229 7.47294C10.4249 7.47308 10.4826 7.47347 10.4873 7.47391C10.4943 7.47774 10.4569 7.48069 10.4541 7.48465C10.4536 7.48664 10.4873 7.49042 10.4805 7.49247C10.4677 7.49601 10.3797 7.5002 10.4014 7.50321C10.4154 7.50519 10.4774 7.50529 10.5195 7.50614C10.6005 7.50778 10.4543 7.51063 10.4317 7.51102C10.4172 7.51132 10.4035 7.51424 10.4151 7.51493C10.4215 7.5153 10.4802 7.51571 10.4824 7.5159C10.5348 7.52045 10.5497 7.52496 10.5225 7.52958C10.5213 7.52966 10.4601 7.52941 10.4541 7.52958C10.425 7.53225 10.5052 7.53421 10.5527 7.53641C10.5997 7.53861 10.5836 7.54 10.4717 7.5413C10.485 7.54296 10.4353 7.54579 10.4053 7.54715C10.3768 7.54851 10.5034 7.54801 10.5059 7.54813C10.5858 7.55188 10.5138 7.55402 10.502 7.5579C10.4964 7.55974 10.5144 7.56368 10.5283 7.56571C10.5396 7.5673 10.5102 7.56815 10.5293 7.56962C10.5328 7.56981 10.5887 7.56956 10.5908 7.56962C10.6585 7.57125 10.5201 7.57123 10.4951 7.57157C10.405 7.57279 10.357 7.57338 10.3994 7.57548C10.4106 7.57596 10.6048 7.57753 10.6201 7.5784C10.6093 7.5789 10.5674 7.57941 10.5811 7.58036C10.5824 7.58046 10.6239 7.57969 10.625 7.58036C10.6168 7.58368 10.5924 7.58764 10.5947 7.5911C10.5952 7.59157 10.6614 7.59147 10.667 7.59208C10.6753 7.59537 10.6731 7.59863 10.6406 7.60184C10.6324 7.60263 10.583 7.60265 10.5684 7.60282C10.482 7.60385 10.6029 7.60546 10.6104 7.60575C10.6719 7.61164 10.5564 7.61635 10.6113 7.62235C10.6146 7.62268 10.7518 7.62513 10.6348 7.62626C10.627 7.62633 10.5064 7.62723 10.5879 7.62821C10.5926 7.62827 10.6451 7.62739 10.6494 7.62821C10.6431 7.62942 10.6843 7.63143 10.6162 7.63309C10.5947 7.63362 10.4745 7.63543 10.5703 7.637C10.5772 7.6371 10.7933 7.63906 10.6445 7.63993C10.62 7.64007 10.462 7.64002 10.542 7.64188C10.5577 7.64224 10.5932 7.64193 10.6152 7.64286C10.6492 7.6443 10.6073 7.64597 10.6777 7.64774C10.6908 7.64806 10.7971 7.64962 10.7158 7.65067C10.7029 7.65083 10.6509 7.65013 10.6445 7.65067C10.6163 7.65332 10.6513 7.65677 10.6152 7.65946C10.6025 7.66041 10.5176 7.65946 10.4942 7.66044C10.4713 7.66143 10.4493 7.6633 10.4883 7.66434C10.5277 7.66537 10.6624 7.66476 10.6738 7.6663C10.7207 7.67302 10.6426 7.67911 10.6299 7.68583C10.6282 7.68683 10.6763 7.68633 10.6777 7.68778C10.6814 7.69324 10.7265 7.70257 10.6231 7.70731C10.5403 7.71108 10.4771 7.70637 10.4434 7.70926C10.4297 7.71066 10.5859 7.71283 10.5908 7.71317C10.6413 7.71647 10.5716 7.71802 10.5928 7.72098C10.5971 7.72158 10.6576 7.72152 10.6641 7.72196C10.6752 7.72374 10.6472 7.72514 10.6524 7.72684C10.6548 7.72759 10.7021 7.72813 10.7002 7.7288C10.6917 7.73048 10.6709 7.73204 10.625 7.73368C10.6209 7.73383 10.5607 7.73247 10.5576 7.73368C10.5541 7.73569 10.5089 7.73819 10.5557 7.74051C10.5701 7.7412 10.6812 7.741 10.6045 7.74247C10.5884 7.74278 10.4542 7.7427 10.5703 7.74442C10.5915 7.74475 10.7448 7.74789 10.6445 7.7493C10.6175 7.74968 10.5089 7.75043 10.5254 7.75126C10.5282 7.75137 10.5889 7.75057 10.5947 7.75126C10.6138 7.75364 10.6077 7.75662 10.626 7.75907C10.6311 7.75973 10.6929 7.75909 10.6992 7.76005C10.715 7.76276 10.6992 7.76618 10.6797 7.76883C10.6718 7.76978 10.6208 7.76876 10.6152 7.76883C10.5248 7.76997 10.6457 7.77041 10.6543 7.77079C10.6973 7.77315 10.64 7.77544 10.6553 7.77762C10.6617 7.77815 10.7161 7.77752 10.7227 7.77762C10.7735 7.77886 10.6699 7.77784 10.6572 7.7786C10.6243 7.7808 10.6292 7.78321 10.6367 7.78544C10.6429 7.78614 10.7073 7.7857 10.709 7.78641C10.7207 7.79075 10.7142 7.79487 10.6768 7.79911C10.6697 7.7999 10.6181 7.79993 10.6055 7.80008C10.5217 7.80123 10.6356 7.80263 10.6465 7.80301C10.6956 7.80475 10.6509 7.8054 10.6582 7.80692C10.701 7.81447 10.6714 7.82419 10.6524 7.83133C10.6279 7.84067 10.5779 7.84782 10.5908 7.85673C10.5955 7.85718 10.6558 7.85635 10.6621 7.85673C10.6789 7.86299 10.6523 7.86998 10.6719 7.87626C10.6734 7.87676 10.7365 7.87553 10.7442 7.87626C10.7542 7.87796 10.7506 7.88039 10.7295 7.88212C10.7183 7.88288 10.6641 7.8823 10.6543 7.88309C10.633 7.88506 10.6281 7.88693 10.6387 7.88895C10.644 7.88978 10.7112 7.88881 10.7119 7.88993C10.7187 7.89743 10.7287 7.9048 10.6426 7.91239C10.6366 7.91292 10.499 7.91322 10.5254 7.91434C10.5635 7.91443 10.6087 7.91431 10.6494 7.91434C10.6709 7.92535 10.6241 7.93651 10.6162 7.94755L10.6885 7.94852C10.6878 7.95374 10.7065 7.95881 10.6348 7.96415C10.6246 7.96465 10.5004 7.96455 10.5195 7.9661C10.5235 7.96645 10.5404 7.96842 10.5674 7.96903C10.5716 7.96911 10.6321 7.96924 10.6338 7.97001C10.642 7.97436 10.6284 7.97836 10.5928 7.9827C10.5868 7.98342 10.5224 7.98317 10.5176 7.98368C10.4843 7.98728 10.5323 7.99098 10.4746 7.99442C10.4357 7.99673 10.3251 7.99612 10.2168 7.99735C10.202 7.99755 10.1989 7.99923 10.1367 7.9993C9.9783 7.99949 9.80464 7.99804 9.63576 7.99833C9.59943 7.99839 9.63815 8.00043 9.5508 7.9993C9.54491 7.99922 9.5152 7.99769 9.48537 7.99735H9.3672C9.36234 7.99692 9.39641 7.99608 9.37013 7.9954C9.33864 7.99461 9.26709 7.99501 9.25783 7.99344C9.23829 7.98971 9.25942 7.98545 9.2881 7.98173C9.29749 7.98064 9.33496 7.9805 9.34377 7.97977C9.35917 7.9782 9.3403 7.97644 9.35841 7.97489C9.36457 7.97439 9.42515 7.97537 9.43263 7.97489C9.46032 7.97194 9.445 7.96908 9.45802 7.9661C9.5237 7.9514 9.54771 7.93703 9.57619 7.92215C9.58559 7.91722 9.64317 7.91065 9.61818 7.90555C9.61491 7.90498 9.56196 7.90565 9.55568 7.90555C9.48594 7.90378 9.59749 7.90378 9.61232 7.90262C9.67057 7.89803 9.67561 7.89337 9.65431 7.88895C9.64495 7.88708 9.53564 7.88888 9.59669 7.887C9.60085 7.88687 9.65957 7.88751 9.66603 7.887C9.67975 7.88586 9.67004 7.88306 9.67384 7.88212C9.68253 7.88047 9.68309 7.88059 9.68361 7.87919C9.68503 7.87694 9.71394 7.87379 9.70119 7.87137C9.69821 7.87086 9.63925 7.87118 9.62794 7.8704C9.61772 7.86957 9.62255 7.86821 9.63673 7.86747C9.65109 7.86674 9.69819 7.86662 9.709 7.86649C9.79836 7.86544 9.67901 7.86299 9.67091 7.86258C9.61756 7.85665 9.68954 7.85155 9.68947 7.84598C9.68916 7.84182 9.66557 7.83727 9.66798 7.83329C9.67211 7.82849 9.70484 7.82428 9.69923 7.81962C9.69558 7.81918 9.62773 7.8202 9.62697 7.81962C9.61874 7.81323 9.62706 7.80644 9.67482 7.80008C9.68117 7.7995 9.74114 7.8007 9.75002 7.80008C9.80106 7.79619 9.92378 7.7897 9.65334 7.78739C9.6639 7.78475 9.67499 7.78096 9.72951 7.7786C9.76465 7.77709 9.83157 7.77851 9.80275 7.77665C9.79438 7.77628 9.73809 7.77725 9.73244 7.77665C9.71074 7.77398 9.72985 7.77147 9.69923 7.76883C9.69277 7.7683 9.63945 7.76801 9.6299 7.76786C9.55322 7.76658 9.68116 7.76441 9.69044 7.76395C9.75942 7.76043 9.73172 7.75747 9.73341 7.75419C9.7272 7.75364 9.66647 7.75478 9.66115 7.75419C9.65093 7.75038 9.65684 7.74619 9.68849 7.74247C9.69606 7.74166 9.75512 7.74283 9.76271 7.74247C9.79087 7.74072 9.67639 7.74024 9.70119 7.73856C9.70645 7.73822 9.75693 7.73764 9.76369 7.73758C9.85336 7.73658 9.72645 7.73589 9.72365 7.73563C9.68568 7.73236 9.81761 7.73099 9.79884 7.72782C9.79294 7.72753 9.73265 7.72781 9.72853 7.72684C9.71036 7.71974 9.72862 7.71239 9.78127 7.70536C9.79014 7.70432 9.83871 7.70445 9.84474 7.70438C9.93858 7.70327 9.8151 7.70279 9.80763 7.70243C9.77304 7.69962 9.87952 7.6975 9.72755 7.69559C9.78025 7.6837 9.69537 7.67126 9.83107 7.65946C9.83262 7.65931 9.89335 7.65973 9.89845 7.65946C9.93374 7.65585 9.83626 7.65696 9.71681 7.65458C9.68702 7.65397 9.83125 7.65181 9.84181 7.65165C9.88056 7.65107 9.97271 7.65183 9.98146 7.65165C10.0407 7.65001 9.73156 7.64994 9.73146 7.64774C9.73198 7.64767 9.78928 7.64793 9.79494 7.64774C9.81224 7.64717 9.79009 7.64635 9.80959 7.64579C9.85503 7.64451 10.0044 7.64481 9.91798 7.64286C9.90723 7.64262 9.74877 7.64254 9.73927 7.6409C9.74261 7.64009 9.73971 7.63601 9.75099 7.63505C9.76255 7.63408 9.81886 7.63511 9.8213 7.63505C9.89589 7.63243 9.92689 7.63342 10.0371 7.63212C10.1473 7.6308 9.88483 7.6307 9.85548 7.63016C9.82654 7.62963 9.8876 7.62771 9.90919 7.62723C9.93043 7.62677 9.96606 7.62763 9.97853 7.62723C10.0578 7.62445 9.84838 7.6262 9.80666 7.62528C9.70802 7.62312 9.90244 7.62139 9.92189 7.61942C9.92693 7.6189 9.88471 7.61887 9.87892 7.61844C9.8631 7.61656 9.92322 7.6157 9.86818 7.61356C9.8591 7.61321 9.74173 7.61175 9.82716 7.61063C9.83957 7.61047 9.88855 7.61046 9.89943 7.60965C9.91567 7.60845 9.92625 7.60606 9.91017 7.60477C9.89816 7.60382 9.81804 7.60499 9.84279 7.6038C9.85389 7.60326 9.90103 7.6048 9.91798 7.6038C9.93468 7.60279 9.93229 7.59988 9.93068 7.59891C9.92543 7.59807 9.86823 7.59899 9.86427 7.59891C9.84089 7.59843 9.81148 7.59615 9.81154 7.59598C9.80636 7.58781 9.90606 7.58051 9.87306 7.57255C9.87059 7.57194 9.811 7.57163 9.80568 7.57157C9.77885 7.5694 9.94889 7.57113 10.0059 7.56962C9.87593 7.56983 9.89903 7.56919 9.88478 7.56766C9.87688 7.56696 9.82737 7.56773 9.82228 7.56766C9.74647 7.56658 9.84509 7.5659 9.86525 7.56571C9.93926 7.56499 9.85177 7.56327 9.90138 7.56278C9.94869 7.56231 10.0179 7.56399 10.0225 7.56278C9.9759 7.56237 9.85492 7.5629 9.83498 7.5618C9.76103 7.55764 9.85412 7.54959 9.86525 7.54618C9.87515 7.54282 9.86699 7.54228 9.8838 7.54032C9.91415 7.53678 9.82352 7.53763 9.78224 7.53544C9.74323 7.53327 9.96268 7.53477 10.0108 7.53446C10.0584 7.53415 10.0099 7.53387 10.0361 7.53348C10.0623 7.53311 10.0947 7.53341 10.1045 7.53251C10.0972 7.53144 10.0243 7.52889 9.97951 7.5286C9.87386 7.52792 9.76289 7.52905 9.80177 7.52665C9.80406 7.52651 9.86132 7.52715 9.86818 7.52665C9.9131 7.52245 9.91634 7.51815 9.95607 7.51395C9.96313 7.51341 10.0264 7.51428 10.0303 7.51395C10.0717 7.51046 9.96236 7.51196 9.84084 7.51005C10.0026 7.51048 10.1016 7.50879 10.1026 7.50614C10.1011 7.50462 10.0315 7.5052 9.98244 7.50419C9.96807 7.50387 10.0155 7.50244 9.98244 7.50223C9.87416 7.50157 9.7533 7.50299 9.8008 7.50028C9.80305 7.50016 9.86062 7.50066 9.86623 7.50028C9.8898 7.4976 9.77647 7.49634 9.76271 7.49344C9.75216 7.49119 9.81998 7.48724 9.83205 7.48465C9.83324 7.48466 9.83478 7.48368 9.83595 7.48368C9.76566 7.48257 9.75777 7.48261 9.84669 7.48173H9.84767C9.8521 7.48009 9.84581 7.47842 9.86232 7.47684C9.86819 7.47629 9.92053 7.47593 9.92677 7.47587C10.0147 7.4748 9.89784 7.47428 9.88966 7.47391C9.84316 7.46999 9.93513 7.46692 9.84474 7.46317C9.83818 7.46304 9.71667 7.46318 9.80763 7.46219C9.81415 7.46213 9.87155 7.46298 9.87599 7.46122C9.88124 7.45945 9.94763 7.45584 9.88966 7.4534C9.87559 7.45281 9.77325 7.45168 9.85255 7.45048C9.86337 7.45032 9.8997 7.4507 9.91994 7.45048C9.9841 7.44973 9.85722 7.4494 9.96486 7.44852C10.0734 7.44764 10.155 7.44513 10.0801 7.44266C10.0753 7.44257 9.98242 7.44242 9.97853 7.44169C9.98131 7.44045 10.0026 7.43809 10.002 7.4368C10.0014 7.43621 9.9428 7.43687 9.93752 7.4368C9.90229 7.43264 9.95812 7.42955 9.98244 7.42508C9.97978 7.42418 9.90418 7.42172 9.96877 7.4202C10.0429 7.41846 10.3513 7.42028 10.2783 7.4163C10.2489 7.41468 9.85772 7.41333 10.0606 7.41044C10.0103 7.40482 10.1135 7.39947 10.042 7.39383C10.0388 7.39358 9.93037 7.39248 9.93068 7.39188C9.93302 7.39102 9.98131 7.39053 9.98732 7.38993C10.0025 7.38732 9.96049 7.38463 9.96584 7.38212C9.9683 7.38115 10.0215 7.38132 10.0244 7.38016C10.0204 7.37911 9.95991 7.37871 9.99123 7.37723C10.0168 7.37605 10.1592 7.3749 10.1758 7.37333C10.0356 7.37327 10.038 7.37231 10.001 7.3704C9.99254 7.37006 9.94528 7.37057 9.93947 7.3704C9.9145 7.36969 9.95452 7.36814 9.92775 7.36747C9.92126 7.36731 9.87424 7.3676 9.86525 7.36747C9.79474 7.36633 9.90216 7.36486 9.92091 7.36454C9.99203 7.3633 9.92999 7.36255 9.95802 7.36161C9.98603 7.36068 10.0211 7.36173 10.0381 7.36063C10.0711 7.35848 10.0662 7.35604 10.0674 7.3538C10.068 7.35288 10.0056 7.35294 10.0029 7.35282C9.98675 7.3509 10.0545 7.349 9.92775 7.34794C10.2556 7.34661 9.89677 7.34675 9.96095 7.34403C9.96628 7.34381 10.1227 7.3432 10.1455 7.34403ZM10.1836 7.99247C10.2547 7.99301 10.2605 7.99106 10.1865 7.99149C10.1836 7.99151 10.1807 7.99244 10.1836 7.99247ZM9.88673 7.66532C10.0028 7.66654 10.0148 7.66134 9.89259 7.66239C9.88633 7.66248 9.88096 7.66524 9.88673 7.66532ZM9.99904 7.55497C10.0698 7.55551 10.0749 7.55356 10.001 7.55399C9.9982 7.5541 9.99624 7.55494 9.99904 7.55497ZM9.94337 7.33817C9.91984 7.33924 9.84224 7.33738 9.83595 7.33817L9.92482 7.33622C9.94453 7.33688 9.96042 7.33738 9.94337 7.33817ZM10.0811 7.33524L9.92482 7.33622C9.8951 7.33522 9.85706 7.3345 9.91017 7.33329C9.9275 7.33297 10.0748 7.3349 10.0811 7.33524Z" fill="#555961"/>
</svg>
