<svg width="16" height="16" viewBox="0 0 16 16" fill="none" xmlns="http://www.w3.org/2000/svg">
<path d="M7.89432 1.88082C7.95093 1.82524 8.04316 1.83145 8.10525 1.88082C8.10866 1.88068 8.11256 1.88063 8.116 1.88179C8.29663 1.94427 8.49368 2.22495 8.60525 2.31832C8.71422 2.41122 8.75738 2.43083 8.81619 2.49214C8.92388 2.60268 8.92935 2.49703 9.02908 2.51363C9.12933 2.52977 8.97141 2.69177 8.95682 2.73921C8.94242 2.78646 8.98092 2.75351 8.98123 2.78414C8.98137 2.81524 8.93365 2.82295 8.9617 2.8525C8.99023 2.88248 9.1273 2.86777 9.16482 2.83199C9.24445 2.75668 9.2609 2.63762 9.32791 2.72261C9.33179 2.72759 9.28612 2.76857 9.30252 2.78511C9.43421 2.91491 9.59734 3.00682 9.741 3.123C9.76078 3.13909 9.71214 3.18717 9.72342 3.19722C9.84164 3.30153 9.84096 3.17926 9.96658 3.10445C9.881 3.24275 9.87996 3.35338 9.98611 3.4023C10.0498 3.4314 10.068 3.36181 10.1287 3.33394C10.1469 3.32549 10.173 3.38846 10.1941 3.36128C10.2628 3.27236 10.268 3.14383 10.3562 3.23238C10.3601 3.23641 10.3232 3.28455 10.3377 3.29488C10.4352 3.35952 10.4895 3.25934 10.6082 3.28902C10.7009 3.31224 10.8393 3.43283 10.9412 3.47652C10.8837 3.64913 10.9982 3.64149 11.074 3.53316C11.1411 3.55838 11.2178 3.57192 11.2801 3.6064C11.3015 3.61824 11.2728 3.66556 11.2742 3.67183C11.2966 3.7699 11.3578 3.66004 11.3738 3.65914C11.5468 3.65463 11.6612 3.77329 11.8357 3.7148C11.842 3.71266 11.8744 3.59105 11.8992 3.68941C11.8989 3.6973 11.8398 3.74316 11.9119 3.7607C11.9847 3.7786 12.1153 3.86803 12.2273 3.82417C12.2547 3.81374 12.3309 3.72106 12.3719 3.8066C12.3768 3.81864 12.3655 3.85306 12.3728 3.87398C12.3975 3.94157 12.429 3.81676 12.4549 3.92867C12.4807 4.0405 12.5545 4.12953 12.6687 4.06343C12.6738 4.05673 12.7059 3.96359 12.7381 3.96675C12.7912 3.97322 12.8665 3.999 12.9226 4.00093C12.9495 4.00181 12.9355 3.93839 12.9402 3.93746C13.1202 3.91006 13.2455 3.96777 13.4392 3.98921C13.4752 3.99329 13.5734 3.9052 13.6443 3.96968C13.6535 3.97804 13.6608 3.98987 13.6668 4.00386C13.5713 4.06887 13.3379 4.0938 13.4392 4.21773C13.4849 4.27313 13.8874 4.26305 13.7195 4.43355C13.8241 4.65906 13.7638 4.89752 13.8689 5.12593C13.8736 5.13617 13.987 5.15637 13.989 5.18257C13.9914 5.22109 13.9441 5.24885 13.9441 5.27632C13.943 5.39185 13.9965 5.49203 13.9988 5.60347C13.9996 5.64557 13.9463 5.63555 13.9471 5.6855C13.9481 5.73502 14.0188 5.76434 13.989 5.83394C13.9661 5.88664 13.8273 5.94327 13.8123 6.00972C13.9519 6.00789 13.9509 6.05458 13.989 6.13667C13.9965 6.15254 14.0455 6.13504 14.0515 6.14253C14.0768 6.17316 14.0368 6.20219 14.0642 6.2314C14.0711 6.23846 14.1187 6.2392 14.1267 6.24507C14.1969 6.29556 14.0882 6.3772 14.0691 6.39058C13.9973 6.44305 14.0593 6.47018 14.0301 6.5107C14.0007 6.55064 13.9676 6.48834 13.949 6.53511C13.9105 6.63245 13.9111 6.75878 13.9012 6.85835C13.8976 6.89793 13.9627 6.876 13.9637 6.88179C13.9732 6.96622 13.8982 7.04226 14.0193 7.10152C13.6867 7.12356 14.0457 7.15525 13.9666 7.26656C13.9601 7.27533 13.8042 7.26724 13.7859 7.22945C13.7676 7.19178 13.8219 7.14433 13.7918 7.09175C13.7848 7.07904 13.6465 6.99857 13.6385 6.98921C13.5772 6.91501 13.8041 6.92438 13.8211 6.92183C13.9619 6.89063 13.8127 6.79701 13.8025 6.77535C13.7593 6.67517 13.7953 6.59405 13.7625 6.51167C13.7404 6.45844 13.5894 6.44929 13.5945 6.40914C13.6122 6.27561 13.8249 6.22453 13.6385 6.09859C13.5984 6.07187 13.4336 6.1037 13.5613 6.00289C13.5694 5.99685 13.6861 5.91856 13.6082 5.87984C13.5984 5.87511 13.5509 5.87749 13.5457 5.87105C13.517 5.82638 13.5535 5.79307 13.532 5.7441C13.5101 5.69495 13.4778 5.63661 13.489 5.57808C13.496 5.54298 13.5809 5.48987 13.6013 5.47066C13.6599 5.41647 13.5506 5.37708 13.6238 5.33882C13.6973 5.29991 13.8213 5.34464 13.8611 5.25874C13.7357 5.27161 13.6065 5.28128 13.4803 5.29292C13.4633 5.12605 13.4765 4.95554 13.4383 4.78999C13.4334 4.76955 13.3711 4.80347 13.364 4.78218C13.335 4.6922 13.3645 4.60084 13.323 4.50972C13.2971 4.45349 13.2356 4.40174 13.1922 4.34761C13.1651 4.39264 13.1195 4.47284 13.1111 4.47945C13.0389 4.53979 13.1002 4.42559 13.0564 4.41304C12.9765 4.38982 12.9233 4.35085 12.8269 4.39058C12.799 4.40245 12.7258 4.49396 12.6775 4.41597C12.6713 4.40565 12.679 4.3549 12.6736 4.35152C12.5763 4.29458 12.5602 4.45352 12.4959 4.50191C12.4312 4.55 12.351 4.43015 12.3367 4.39644C12.2992 4.31136 12.3738 4.36315 12.3806 4.35835C12.4214 4.26619 12.3549 4.27478 12.3064 4.2607C12.3178 4.10482 12.2486 4.10575 12.2556 4.24703C12.2566 4.26241 12.297 4.25274 12.3064 4.2607C12.245 4.40805 12.1629 4.41781 12.0994 4.26363C12.0699 4.19113 12.1178 4.11899 11.9959 4.12886C11.9406 4.13305 11.9439 4.24346 11.8914 4.2646C11.7699 4.31209 11.6461 4.18541 11.532 4.17671C11.4903 4.17351 11.5172 4.23948 11.4881 4.23921C11.4104 4.23849 11.3552 4.18069 11.2762 4.18453C11.2694 4.18718 11.2704 4.24833 11.2478 4.2441C11.0706 4.20707 10.9293 4.12573 10.7508 4.06832C10.6644 4.04093 10.4992 4.02128 10.4129 3.98238C10.2624 3.91588 10.1111 3.75841 9.97635 3.72359C9.88802 3.70051 9.88083 3.76541 9.82791 3.78804C9.72492 3.83113 9.6645 3.6412 9.65897 3.61324C9.65919 3.61252 9.73554 3.63219 9.7117 3.58589C9.71821 3.51648 9.65994 3.61338 9.65897 3.61324C9.65368 3.59491 9.52157 3.51446 9.48904 3.5107C9.47122 3.50888 9.45301 3.56514 9.44412 3.56343C9.23381 3.51494 9.03992 3.42331 8.87186 3.28902C8.872 3.28303 8.90723 3.23454 8.90213 3.2275C8.813 3.13888 8.70441 3.164 8.59256 3.14742C8.48106 3.13084 8.42169 3.07071 8.43729 2.94429C8.36654 2.91202 8.30705 2.80763 8.27518 2.74605C8.24348 2.68488 8.15998 2.77953 8.15311 2.77925C8.02747 2.75124 7.97004 2.68772 7.90701 2.61128C7.86591 2.60861 7.83456 2.62308 7.80545 2.67671C7.79428 2.69756 7.86312 2.89635 7.8367 2.93062C7.80258 2.97422 7.77655 2.90537 7.74197 2.95113C7.73894 2.95507 7.76537 2.99104 7.73611 3.00972C7.60065 3.09684 7.44153 3.17286 7.3035 3.26558C7.28461 3.27808 7.34634 3.3215 7.3201 3.34078C7.19323 3.43069 7.04414 3.516 6.89627 3.5605C6.85992 3.57104 6.85662 3.51662 6.84256 3.50777C6.75761 3.4545 6.75716 3.59926 6.74783 3.60738C6.53175 3.79138 6.29119 3.77831 6.05643 3.93843C6.0438 3.94918 5.98585 4.11969 5.89334 4.03023C5.88667 4.02419 5.79578 3.93129 5.78299 4.02437C5.78428 4.03172 5.83313 4.07671 5.77908 4.09078C5.72418 4.10511 5.6524 4.1751 5.55643 4.13667C5.52579 4.12469 5.43296 4.0303 5.39432 4.14351C5.39276 4.15124 5.3502 4.39294 5.26639 4.26265C5.2527 4.24106 5.21228 4.088 5.15311 4.19039C5.14169 4.21021 5.18118 4.23582 5.14529 4.26949C5.08998 4.32133 4.99271 4.30504 4.93045 4.39449C4.91977 4.41081 4.8856 4.52954 4.81717 4.46285C4.80664 4.45205 4.80776 4.39781 4.78104 4.39839C4.65405 4.40086 4.53487 4.46376 4.40408 4.45308C4.35783 4.44924 4.36263 4.36129 4.31326 4.34761C4.26376 4.33406 4.17022 4.32863 4.12967 4.37496C4.08876 4.42146 4.16312 4.54661 4.09256 4.56929C3.78397 4.66731 3.45815 4.62239 3.14236 4.62691C3.09588 4.62771 3.13654 4.67368 3.06717 4.67769C2.98469 4.68282 2.88229 4.68903 2.7742 4.69332C2.75676 4.73732 2.73996 4.7814 2.73904 4.83394C2.73914 4.85857 2.80594 4.84745 2.80545 4.86812C2.80296 4.93966 2.76243 5.00822 2.75662 5.07613C2.75423 5.1066 2.80266 5.10884 2.79471 5.1357C2.77616 5.20012 2.74783 5.25537 2.69412 5.31441C2.6892 5.31989 2.63342 5.27268 2.62479 5.32222C2.61093 5.40202 2.5554 5.4982 2.59354 5.59566C2.60513 5.62471 2.71617 5.63465 2.63455 5.68746C2.61756 5.69851 2.48469 5.67332 2.59549 5.75093C2.61372 5.76468 2.76296 5.88793 2.65994 5.93941C2.63237 5.95307 2.52208 5.98732 2.53787 6.02144C2.54049 6.02603 2.6012 6.01034 2.60623 6.03804C2.62291 6.1354 2.61562 6.23682 2.63553 6.33589C2.64114 6.36205 2.70258 6.32227 2.70877 6.36128C2.72587 6.46845 2.71467 6.60243 2.70193 6.70894C2.69717 6.74768 2.64606 6.72607 2.63943 6.72847C2.55135 6.78046 2.67608 6.7991 2.68436 6.81343C2.73409 6.90342 2.68345 6.97971 2.70779 7.06441C2.71449 7.08778 2.7714 7.06514 2.77713 7.06929C2.78889 7.0783 2.7931 7.08462 2.79275 7.08882C2.78993 7.10381 2.72273 7.0948 2.71658 7.12007C2.69424 7.21096 2.71203 7.30798 2.73318 7.39449C2.74107 7.42625 2.80294 7.37991 2.80936 7.40816C2.84802 7.57598 2.87582 7.75134 2.87771 7.92378C2.87797 7.95608 2.82298 7.94905 2.81229 7.95796C2.74136 8.02244 2.86925 8.06133 2.88357 8.0732C2.94885 8.12853 2.91049 8.16713 2.93533 8.22457C3.05638 8.50382 3.15118 8.86247 3.24686 9.13277C3.34866 9.42193 3.42873 9.66417 3.56131 9.91011C3.58975 9.96258 3.62073 10.0155 3.65506 10.0683C3.66776 10.0864 3.71506 10.0321 3.72635 10.0478C3.86985 10.253 3.98606 10.4724 4.15311 10.6611C4.16668 10.6766 4.20191 10.6134 4.22537 10.6367C4.27376 10.6841 4.32217 10.7533 4.34842 10.8193C4.36138 10.8515 4.28939 10.8529 4.3035 10.8847C4.3364 10.9589 4.38717 11.027 4.44803 11.081C4.47399 11.1038 4.4917 11.0204 4.52127 11.0527C4.72529 11.2756 4.93884 11.4756 5.10916 11.7451C5.12078 11.7635 5.04377 11.8793 5.09549 11.8896C5.12314 11.8631 5.15256 11.8286 5.18045 11.7988C5.30034 11.8932 5.41728 11.99 5.53494 12.0859C5.75863 12.2682 5.98631 12.4489 6.23514 12.6025C6.25106 12.6121 6.25993 12.5342 6.2908 12.5527C6.47036 12.6598 6.65649 12.7364 6.81814 12.8945C6.83431 12.91 6.7696 13.0205 6.83572 13.0302C6.84815 13.0322 6.94166 13.0564 6.97537 13.041C6.98015 13.0372 6.98912 12.9775 7.01736 12.9882C7.18296 13.052 7.34957 13.133 7.50467 13.2275C7.52948 13.2429 7.4791 13.2932 7.49686 13.3046C7.62404 13.3858 7.79056 13.3881 7.90897 13.4824C7.9889 13.5458 7.9253 13.6424 7.94607 13.7607C7.94909 13.7774 8.00694 13.7957 7.99393 13.8574C7.96143 14.0126 7.88758 14.1725 7.85623 14.3388C7.84944 14.3748 7.94302 14.3587 7.87088 14.4306C7.8659 14.4355 7.79732 14.4481 7.7742 14.4726C7.75819 14.4897 7.76005 14.5567 7.73123 14.5761C7.7025 14.5949 7.69269 14.5371 7.64822 14.5566C7.60347 14.5765 7.59875 14.6509 7.52322 14.6377C7.34791 14.6064 7.13357 14.513 6.97928 14.4248C6.93083 14.3972 6.9706 14.3693 6.93826 14.3486C6.8749 14.308 6.80352 14.3012 6.74295 14.2568C6.72301 14.2418 6.77402 14.1949 6.75272 14.1806C6.63624 14.1026 6.51086 14.0651 6.39041 13.9941C5.85477 13.6773 5.34977 13.3407 4.87576 12.9453C4.82644 12.9041 4.77781 12.8618 4.72928 12.8193C4.55872 12.6706 4.39142 12.4487 4.20779 12.3066C4.18654 12.2906 4.16037 12.3398 4.15311 12.3408C4.04612 12.3343 4.14299 12.273 4.116 12.2255C4.00812 12.0371 3.85519 11.866 3.70779 11.7285C3.64518 11.6703 3.61755 11.8068 3.60818 11.7011C3.60752 11.6939 3.66639 11.6722 3.65604 11.6503C3.63242 11.6011 3.56005 11.531 3.53787 11.496C3.49554 11.4288 3.48748 11.4185 3.44217 11.3593C3.38053 11.2778 3.33177 11.163 3.2576 11.082C3.2416 11.0648 3.21048 11.1249 3.18045 11.1005C3.15033 11.076 3.09772 10.9919 3.09061 10.956C3.08358 10.9204 3.13083 10.9054 3.1365 10.8945C3.18521 10.8039 3.01737 10.7787 3.00662 10.7675C2.88764 10.6444 2.82141 10.5039 2.76053 10.3632C2.72413 10.2791 2.68988 10.1944 2.64627 10.1113C2.55753 9.94282 2.44767 9.76867 2.37771 9.60054C2.29472 9.40014 2.2577 9.21782 2.1824 9.02242C2.17433 9.00208 2.11702 9.04961 2.10721 9.02437C2.00374 8.75398 1.92894 8.47363 1.90896 8.18355C1.90707 8.15463 1.97589 8.17553 1.9783 8.14644C1.98653 7.9634 2.05671 7.67799 1.7742 7.6191C1.76494 7.49962 1.75499 7.35387 1.79666 7.24214C1.81229 7.20013 1.84479 7.20294 1.86111 7.19625C1.87247 7.19145 1.87557 7.1819 1.86014 7.14937C1.85171 7.1314 1.79604 7.16137 1.78787 7.13375C1.75361 7.01713 1.76121 6.88565 1.72342 6.76949C1.71553 6.74587 1.66306 6.75528 1.65311 6.74898C1.57315 6.69545 1.69508 6.59366 1.70486 6.57222C1.76841 6.41125 1.7396 6.297 1.74295 6.14937C1.74385 6.11516 1.67234 6.15421 1.67068 6.12105C1.66322 5.94901 1.67771 5.77023 1.72244 5.60542C1.73268 5.56898 1.79067 5.60792 1.79861 5.59078C1.83299 5.51572 1.72055 5.48776 1.75271 5.41499C1.75981 5.40009 1.81025 5.41435 1.81619 5.41207C1.90894 5.3771 1.78909 5.32507 1.78592 5.31246C1.76504 5.161 1.91027 5.08555 1.91385 4.94429C1.91403 4.92739 1.84268 4.95428 1.84744 4.90718C1.88112 4.59003 1.97432 4.26164 2.11209 3.97554C2.13345 3.93125 2.17179 3.97877 2.1785 3.97749C2.19464 3.97425 2.20568 3.96981 2.21268 3.9648C2.22534 3.9117 2.28405 3.8745 2.33865 3.87398C2.37308 3.90397 2.40092 3.81579 2.41385 3.8105C2.53284 3.78033 2.64422 3.88809 2.72439 3.73628C3.22758 3.78703 3.7115 3.65279 4.22537 3.68941C4.23171 3.69142 4.23293 3.75355 4.24588 3.75386C4.40409 3.75741 4.35558 3.6675 4.42654 3.52925C4.44398 3.49459 4.55274 3.61747 4.56229 3.62593C4.59535 3.65798 4.59255 3.75346 4.60232 3.75972C4.68546 3.80008 4.5995 3.50292 4.68826 3.47945C4.69116 3.48108 4.69407 3.53756 4.70291 3.54097C4.73084 3.55172 4.74819 3.52374 4.77615 3.53609C4.84041 3.56526 4.90132 3.70449 4.95779 3.59664C4.96469 3.58267 4.90011 3.41945 4.98123 3.40328C5.01448 3.39692 5.15093 3.34947 5.19314 3.34664C5.23546 3.34419 5.22772 3.40677 5.23123 3.40816C5.36044 3.44236 5.33119 3.48534 5.42166 3.57027C5.51318 3.65437 5.40854 3.41324 5.41971 3.37789C5.43095 3.34278 5.52869 3.37124 5.55545 3.38375C5.58206 3.3964 5.57135 3.43949 5.59256 3.44429C5.73376 3.47395 5.59337 3.30309 5.61404 3.24996C5.66104 3.12489 5.80127 3.27739 5.88748 3.2607C5.91044 3.25619 5.87611 3.22309 5.89236 3.21089C5.95923 3.16376 6.02968 3.19815 6.08865 3.10835C6.09862 3.09222 6.11313 2.95738 6.19314 3.01265C6.20473 3.0207 6.20944 3.07281 6.2449 3.06734C6.29818 3.05899 6.38641 3.02485 6.42752 2.98433C6.45671 2.95442 6.37888 2.90658 6.43533 2.90425C6.46027 2.90347 6.44583 2.9641 6.491 2.95894C6.53679 2.95349 6.6316 2.89738 6.66678 2.87496C6.70189 2.85265 6.65223 2.81182 6.65311 2.8066C6.65917 2.77613 6.71167 2.71152 6.71756 2.70796C7.0125 2.5221 7.33932 2.41973 7.58963 2.17867C7.60901 2.16002 7.55583 2.12112 7.5574 2.11714C7.61221 2.03893 7.66223 2.21724 7.74881 2.22066C7.65957 2.12571 7.70481 2.12004 7.74588 2.06734C7.76555 2.04184 7.71963 2.01356 7.71854 2.00777C7.70503 1.92021 7.79251 1.97443 7.81229 1.98433C7.88397 2.02056 7.85222 1.93291 7.90018 1.95601C7.94857 1.97911 7.96041 2.06612 8.0076 2.02339C7.99123 1.98024 7.89095 1.92536 7.89432 1.88082ZM7.74881 13.7392C7.79134 13.6778 7.71127 13.6469 7.70682 13.7226C7.70664 13.7256 7.7452 13.7409 7.74881 13.7392ZM13.8191 7.54878C13.8995 7.41729 14.1046 7.37992 14.0515 7.55562C14.0403 7.59102 13.9818 7.46389 13.951 7.50582C13.895 7.58343 14.0473 7.66875 13.9441 7.74019C13.9253 7.75212 13.792 7.62098 13.7937 7.61031L13.8191 7.54878ZM13.8465 6.29976C13.8036 6.32521 13.8522 6.4002 13.906 6.3691C13.9495 6.34353 13.9001 6.2677 13.8465 6.29976ZM13.6414 4.92769C13.7266 4.84114 13.5749 4.82002 13.5086 4.88179C13.4423 4.94267 13.6148 4.95334 13.6414 4.92769ZM2.77908 4.32808C2.75241 4.3059 2.73328 4.27901 2.70096 4.33296C2.69321 4.34621 2.69662 4.36272 2.70584 4.37984L2.77908 4.32808ZM4.12186 3.77144C4.11471 3.7666 4.01765 3.77812 4.01541 3.78414C3.98235 3.908 4.18881 3.88387 4.12186 3.77144ZM5.93338 3.35933C5.92929 3.35772 5.90162 3.36753 5.90897 3.38375C5.93525 3.43871 5.96943 3.40491 5.93338 3.35933ZM8.2449 2.20601C8.18138 2.24588 8.24721 2.30712 8.27908 2.23824C8.28006 2.23526 8.24757 2.20443 8.2449 2.20601Z" fill="#555961"/>
<path d="M12.1436 9.48536C12.1884 9.40591 12.2457 9.55744 12.251 9.58106C12.248 9.58255 12.212 9.59399 12.2285 9.62598C12.2337 9.69192 12.2499 9.58452 12.251 9.58106C12.2555 9.59594 12.3308 9.61948 12.3477 9.61036C12.3567 9.60527 12.3606 9.54838 12.3652 9.54493C12.4783 9.50871 12.5923 9.51777 12.6904 9.57422C12.6907 9.57908 12.6719 9.63603 12.6748 9.64063C12.7255 9.68553 12.7863 9.62194 12.8525 9.59473C12.9185 9.56765 12.9552 9.59931 12.9404 9.71485C12.9819 9.71673 13.0125 9.78473 13.0273 9.8252C13.0423 9.86518 13.1027 9.75294 13.1064 9.75196C13.2228 9.71999 13.2367 9.81026 13.3086 9.86719C13.3432 9.89451 13.4257 9.92736 13.4727 9.94434C13.5098 9.9576 13.5107 9.99487 13.5498 10.001C13.5561 9.99959 13.5845 9.95567 13.5879 9.95313C13.6613 9.92446 13.5612 10.0213 13.5518 10.0459C13.5182 10.1345 13.5 10.1813 13.5635 10.1797C13.5802 10.1765 13.7344 10.0501 13.7588 10.0566C13.7894 10.0649 13.7335 10.111 13.7666 10.1182C13.7706 10.1172 13.7987 10.0869 13.8105 10.0996C13.824 10.1153 13.837 10.1329 13.8496 10.1504C13.8891 10.2049 13.9262 10.2645 13.9717 10.3125C13.9807 10.3192 14.0225 10.2642 14.0352 10.2764C14.0952 10.3343 14.1502 10.4095 14.1689 10.4941C14.1727 10.5147 14.1264 10.5323 14.1162 10.544C14.0577 10.6144 14.1838 10.5728 14.1895 10.5772C14.3212 10.6685 14.273 10.8226 14.3828 10.9316C14.3888 10.9366 14.5407 10.9418 14.4424 11.0127C14.436 11.0178 14.334 11.0865 14.4189 11.0791C14.4243 11.0788 14.4766 11.0409 14.4814 11.0713C14.486 11.1013 14.5414 11.1349 14.4893 11.1953C14.4727 11.215 14.3676 11.2771 14.4697 11.2861C14.4826 11.2853 14.6999 11.2894 14.5625 11.3477C14.5395 11.3573 14.3854 11.3919 14.4746 11.416C14.4918 11.4208 14.5222 11.3978 14.5488 11.415C14.59 11.4427 14.5586 11.4972 14.6357 11.5283C14.6499 11.5334 14.7608 11.5493 14.6846 11.5889C14.6725 11.5949 14.619 11.5957 14.6152 11.6104C14.5972 11.6792 14.6399 11.7441 14.6084 11.8135C14.5972 11.8378 14.5107 11.8317 14.4893 11.8565C14.468 11.8813 14.4484 11.9276 14.4873 11.9512C14.5266 11.9751 14.6616 11.946 14.6738 11.9844C14.6753 11.9894 14.6766 11.995 14.6777 12C14.7165 12.1682 14.6259 12.3293 14.585 12.4854C14.5788 12.5094 14.6304 12.4984 14.624 12.5352C14.6032 12.6695 14.5733 12.9183 14.4307 12.9883C14.3188 13.0417 14.3043 12.9119 14.2471 12.9609C14.22 12.9835 14.3488 13.0817 14.3496 13.0918C14.3606 13.1868 14.2723 13.2055 14.2559 13.2783C14.2523 13.2935 14.3146 13.3123 14.3115 13.3252C14.2988 13.3697 14.2501 13.3953 14.2314 13.4336C14.2232 13.451 14.2659 13.4754 14.2529 13.4883C14.2223 13.5192 14.183 13.5391 14.1221 13.5449C14.1157 13.5434 14.0817 13.4901 14.0625 13.5127C14.0306 13.5501 13.9588 13.5685 13.959 13.6406C13.9592 13.6621 14.0439 13.7357 13.9619 13.7129C13.9446 13.7081 13.8504 13.6121 13.9092 13.7197C13.9199 13.737 13.9845 13.8981 13.8867 13.8535C13.8738 13.8475 13.8426 13.8291 13.8154 13.8154C13.789 13.8022 13.7656 13.7938 13.7646 13.8066C13.7653 13.8109 13.8141 13.8455 13.8066 13.8613C13.7778 13.9167 13.7271 13.954 13.6924 14.0078C13.6831 14.0224 13.7421 14.0548 13.7266 14.0752C13.6834 14.1315 13.604 14.1721 13.5381 14.1943C13.5139 14.2018 13.4989 14.1502 13.4941 14.1465C13.4193 14.0874 13.475 14.1985 13.4707 14.21C13.4446 14.2787 13.3748 14.2536 13.3359 14.294C13.3252 14.3048 13.3617 14.3489 13.3633 14.3565C13.361 14.4167 13.3295 14.3138 13.3066 14.3135C13.2426 14.312 13.1913 14.3442 13.1445 14.375C13.1285 14.3869 13.1777 14.4375 13.1621 14.4473C13.067 14.5056 12.9544 14.5431 12.8408 14.541C12.8198 14.5398 12.8152 14.4866 12.8076 14.4766C12.7557 14.406 12.751 14.5268 12.7441 14.54C12.7156 14.5997 12.6856 14.5592 12.6504 14.5772C12.4757 14.6672 12.2308 14.6684 12.0527 14.6514C12.0349 14.6499 12.0173 14.6476 12 14.6455C11.7911 14.6187 11.6314 14.5594 11.4336 14.5283C11.42 14.526 11.4183 14.5962 11.4062 14.5957C11.2475 14.5765 11.1072 14.5023 10.9541 14.459C10.9414 14.4552 10.9327 14.5237 10.9111 14.5195C10.8666 14.5114 10.8164 14.484 10.7861 14.4453C10.7721 14.4265 10.8225 14.3887 10.8076 14.3711C10.7731 14.33 10.7295 14.3011 10.6807 14.2852C10.6601 14.2793 10.6545 14.3525 10.6299 14.3398C10.4594 14.248 10.2908 14.1379 10.208 13.9424C10.2026 13.9285 10.2881 13.8205 10.251 13.8213C10.2231 13.8474 10.192 13.8804 10.1631 13.9092C10.1499 13.8984 10.1367 13.8874 10.124 13.876C9.92977 13.7 9.80793 13.4634 9.69336 13.2344C9.68739 13.225 9.63357 13.2761 9.62305 13.2559C9.56222 13.1385 9.49011 13.0241 9.51367 12.8731C9.51601 12.8582 9.63945 12.822 9.60937 12.793C9.60382 12.7879 9.56982 12.7399 9.53906 12.7334C9.53346 12.7332 9.4806 12.7597 9.47363 12.7422C9.4338 12.6392 9.42138 12.5217 9.44043 12.4092C9.44365 12.391 9.50883 12.3985 9.51172 12.3857C9.53173 12.2973 9.47509 12.2093 9.52832 12.125C9.56476 12.0697 9.67578 12.0847 9.7832 12.0557C9.79832 12.0517 9.80047 12.0216 9.86328 12.0195C10.0216 12.0148 10.1955 12.0254 10.3643 12.0186C10.4005 12.0172 10.3619 11.9883 10.4492 12.0049C10.4551 12.0061 10.4848 12.0262 10.5146 12.0303C10.5353 12.0331 10.5994 12.0265 10.626 12.0322C10.6525 12.0378 10.5994 12.0463 10.6309 12.0557C10.6627 12.0645 10.734 12.0571 10.7441 12.0752C10.7661 12.118 10.7525 12.1759 10.7324 12.2256C10.7262 12.2411 10.6856 12.2415 10.6797 12.2529C10.6683 12.2756 10.6911 12.29 10.6777 12.3135C10.6718 12.3213 10.6097 12.3278 10.6064 12.3359C10.5891 12.3816 10.6151 12.4151 10.6152 12.458C10.6168 12.6727 10.7045 12.8767 10.832 13.0596C10.8459 13.0795 10.8583 13.1037 10.8711 13.1289C10.8968 13.18 10.9275 13.2349 10.9785 13.2549C10.9874 13.2583 11.0182 13.2126 11.0225 13.21C11.0858 13.1719 11.0107 13.2522 11.0146 13.2754C11.0342 13.3647 11.1015 13.4159 11.1719 13.4316C11.2019 13.4382 11.2309 13.3288 11.2256 13.3965C11.2252 13.4013 11.1905 13.4485 11.1943 13.458C11.2036 13.4793 11.2392 13.4867 11.25 13.4971C11.2706 13.5176 11.2755 13.5188 11.2988 13.5303C11.3306 13.5464 11.3599 13.5905 11.4014 13.5918C11.4101 13.5898 11.4213 13.5315 11.4365 13.5264C11.452 13.5216 11.4809 13.5379 11.4873 13.5547C11.4935 13.5718 11.475 13.6151 11.4736 13.626C11.4628 13.7185 11.54 13.6094 11.5449 13.6074C11.6474 13.581 11.7089 13.6658 11.7988 13.6768C11.8655 13.6845 11.9375 13.6653 12 13.668H12.002C12.0768 13.672 12.1441 13.7005 12.2178 13.6856C12.225 13.6835 12.2081 13.6179 12.2158 13.6133C12.3119 13.592 12.4058 13.5781 12.5156 13.5928C12.5268 13.5943 12.5333 13.6581 12.5459 13.6631C12.62 13.6936 12.7756 13.7617 12.6953 13.5C12.7373 13.4923 12.7866 13.4792 12.8467 13.5078C12.8855 13.5262 12.8981 13.5971 12.9111 13.5566C12.914 13.5476 12.8764 13.5015 12.8818 13.4912C12.9078 13.4508 12.9582 13.4409 12.9756 13.3916C12.979 13.3815 12.946 13.3392 12.9424 13.3301C12.913 13.2563 13.0152 13.3395 13.0273 13.3418C13.1145 13.362 13.1307 13.3128 13.1709 13.2783C13.1802 13.2703 13.123 13.2286 13.1289 13.2188C13.1418 13.2019 13.1553 13.1853 13.1709 13.1709C13.1996 13.1444 13.2337 13.123 13.2744 13.1074C13.2885 13.1021 13.3267 13.151 13.3359 13.1504C13.3762 13.1461 13.2923 13.0685 13.3281 13.0635C13.3357 13.0626 13.3729 13.096 13.3789 13.0996C13.4599 13.1419 13.3691 13.0516 13.3691 13.0469C13.3702 12.9828 13.4981 13.0308 13.5127 12.9746C13.5141 12.968 13.4509 12.9438 13.458 12.9277C13.5048 12.8205 13.574 12.7235 13.665 12.6318C13.679 12.6179 13.7196 12.6466 13.7266 12.6484C13.8228 12.663 13.7077 12.6065 13.7051 12.5996C13.6884 12.5449 13.8035 12.5305 13.666 12.459C13.7484 12.3174 13.7235 12.1554 13.7734 12C13.7858 11.9609 13.803 11.9209 13.8271 11.8789C13.8292 11.8762 13.892 11.8766 13.8945 11.8711C13.9242 11.8045 13.8276 11.8238 13.7051 11.7988C13.6743 11.7934 13.8133 11.7442 13.8232 11.7393C13.8603 11.7235 13.9536 11.7204 13.9609 11.7158C14.0149 11.6764 13.7102 11.7289 13.7041 11.6943C13.7044 11.6931 13.7616 11.6876 13.7666 11.6836C13.7821 11.6709 13.7582 11.6654 13.7754 11.6523C13.8156 11.6227 13.9609 11.5823 13.8682 11.5664C13.8561 11.5648 13.6861 11.61 13.6865 11.5772C13.6867 11.5632 13.6699 11.5097 13.6758 11.4912C13.6825 11.4728 13.7392 11.4666 13.7412 11.4648C13.7988 11.3994 13.8336 11.406 13.9307 11.3477C14.026 11.2881 13.7797 11.3808 13.749 11.3818C13.7193 11.3825 13.7655 11.3304 13.7822 11.3145C13.799 11.2989 13.8359 11.2956 13.8447 11.2842C13.8991 11.2064 13.7158 11.3112 13.6709 11.3125C13.5661 11.3177 13.7331 11.2138 13.7344 11.1719C13.7341 11.1619 13.6994 11.1865 13.6914 11.1816C13.6628 11.159 13.7069 11.1126 13.6396 11.1055C13.6284 11.1038 13.5128 11.1364 13.5771 11.0772C13.5864 11.0685 13.6327 11.0502 13.6348 11.0322C13.6379 11.0055 13.6257 10.9667 13.5996 10.9561C13.5802 10.9484 13.5243 11.0082 13.5332 10.9775C13.5372 10.9636 13.5855 10.952 13.5898 10.9277C13.5939 10.9032 13.5656 10.8657 13.5537 10.8525C13.5418 10.8395 13.4983 10.8835 13.4941 10.8848C13.471 10.8916 13.4305 10.8851 13.4268 10.8828C13.3774 10.8263 13.3497 10.7547 13.3125 10.6875C13.2801 10.6289 13.2404 10.5736 13.1787 10.544C13.1685 10.539 13.1345 10.5929 13.1318 10.5938C13.0862 10.5917 13.2156 10.4763 13.2285 10.4141C13.1521 10.5191 13.1533 10.4911 13.123 10.4863C13.1084 10.4842 13.0841 10.5288 13.0801 10.5322C13.0204 10.5826 13.0676 10.4952 13.0762 10.4766C13.1082 10.4086 13.0466 10.4725 13.0674 10.4268C13.0875 10.3809 13.1466 10.3321 13.123 10.3174C13.0912 10.3518 13.0398 10.4633 13.0127 10.4697C12.9138 10.492 12.8462 10.346 12.7939 10.3115C12.7444 10.2776 12.7231 10.2785 12.6973 10.25C12.6495 10.1989 12.6383 10.2909 12.5898 10.3174C12.5419 10.3444 12.6293 10.1414 12.6396 10.0938C12.6491 10.0466 12.6268 10.0907 12.6279 10.0635C12.6289 10.0364 12.6544 10.011 12.6406 9.9961C12.626 9.98094 12.5548 10.048 12.5361 10.0947C12.4958 10.1932 12.4851 10.3049 12.4561 10.2568C12.4548 10.2531 12.4768 10.1998 12.4697 10.1914C12.4089 10.1292 12.3315 10.1111 12.2607 10.0615C12.2509 10.0546 12.2685 9.99214 12.2627 9.98731C12.2012 9.93793 12.2119 10.0493 12.167 10.167C12.1897 10.0072 12.1788 9.90617 12.126 9.90137C12.0944 9.89896 12.0955 9.9696 12.0742 10.0186C12.068 10.0333 12.0486 9.98445 12.0439 10.0176C12.0294 10.1259 12.0456 10.2474 12 10.1992V10.1406C11.9995 10.1369 11.9984 10.1345 11.9971 10.1338C11.9493 10.1107 11.9462 10.2241 11.8994 10.2402C11.8631 10.2528 11.7888 10.19 11.7422 10.1856C11.7184 10.0054 11.6776 10.0541 11.6826 10.1807C11.6528 10.1806 11.6233 10.1933 11.5918 10.1826C11.581 10.1791 11.5757 10.1271 11.5732 10.1211C11.5337 10.0385 11.5487 10.1609 11.5439 10.167C11.4894 10.2284 11.4067 10.1572 11.374 10.2647C11.3728 10.2686 11.4122 10.3882 11.3643 10.3076C11.361 10.3007 11.3611 10.2407 11.3311 10.2471C11.3011 10.2535 11.2177 10.2151 11.2021 10.2871C11.1981 10.305 11.2199 10.4075 11.166 10.3457C11.1587 10.3373 11.1456 10.3034 11.1328 10.2871C11.0913 10.2362 11.1429 10.3522 11.0781 10.2637C11.0137 10.1755 10.9408 10.1231 10.9365 10.2119C10.9362 10.2146 10.9774 10.3055 10.9658 10.3135C10.9448 10.3232 10.9047 10.3236 10.8848 10.3379C10.8765 10.3455 10.9166 10.392 10.916 10.3945C10.8736 10.4661 10.7979 10.4528 10.7178 10.4883C10.7036 10.4968 10.7271 10.5861 10.6611 10.5566C10.5866 10.525 10.4001 10.2764 10.3896 10.3897C10.3867 10.4403 10.6411 10.7308 10.4561 10.6357C10.4235 10.7482 10.2792 10.7679 10.2793 10.9004C10.2804 10.9072 10.3631 10.9765 10.3574 10.9854C10.347 10.9977 10.298 10.9788 10.2891 10.9873C10.2505 11.0225 10.267 11.0832 10.2402 11.1221C10.2301 11.137 10.1864 11.1091 10.1738 11.127C10.1616 11.1459 10.2182 11.1882 10.1758 11.2012C10.1435 11.2106 10.0049 11.1775 9.97656 11.2012C10.1062 11.2538 10.0958 11.2726 10.1182 11.3193C10.123 11.3281 10.169 11.3377 10.1748 11.3428C10.1941 11.3633 10.1528 11.3613 10.1748 11.3818C10.181 11.3869 10.224 11.4023 10.2314 11.4072C10.2921 11.4479 10.1799 11.4455 10.1602 11.4463C10.0861 11.4477 10.1427 11.4762 10.1113 11.4854C10.0797 11.495 10.0522 11.4597 10.0303 11.4756C9.98499 11.5092 9.97924 11.5675 9.96875 11.6113C9.96482 11.629 10.0304 11.629 10.0312 11.6318C10.0402 11.6695 9.96821 11.6964 10.0908 11.7334C9.76195 11.714 10.1195 11.7596 10.0488 11.8008C10.041 11.8038 9.88705 11.7944 9.86621 11.7754C9.84544 11.7561 9.89659 11.7365 9.86523 11.709C9.85762 11.703 9.71975 11.6497 9.70996 11.6426C9.64762 11.5949 9.87783 11.6292 9.89062 11.6299C10.0287 11.6347 9.88388 11.5705 9.87402 11.5566C9.83508 11.4999 9.87644 11.4675 9.85254 11.4199C9.83734 11.3889 9.69318 11.3446 9.70215 11.3242C9.73893 11.2556 9.94671 11.3045 9.79687 11.1787C9.76523 11.1515 9.60446 11.105 9.74609 11.1016C9.7552 11.1008 9.88029 11.1105 9.82031 11.0606C9.81267 11.0541 9.76782 11.0345 9.76562 11.0293C9.75212 10.995 9.79372 10.995 9.78906 10.9619C9.78428 10.9286 9.77529 10.885 9.80469 10.8633C9.82262 10.85 9.91484 10.8711 9.93848 10.874C10.0054 10.8825 9.92836 10.8079 10.0029 10.833C10.0773 10.8594 10.1646 10.9422 10.2266 10.9365C10.1193 10.8706 10.0103 10.8011 9.90332 10.7334C9.95655 10.654 10.0421 10.6005 10.0947 10.5234C10.1002 10.5136 10.0421 10.4827 10.0459 10.4707C10.0711 10.4212 10.1389 10.4153 10.1611 10.3613C10.1779 10.3194 10.1586 10.2358 10.1787 10.1895C10.1876 10.1953 10.1964 10.1998 10.2041 10.2041C10.3029 10.2589 10.3172 10.1883 10.3594 10.167C10.375 10.1591 10.3998 10.1885 10.417 10.1904C10.4809 10.1966 10.3823 10.1134 10.3789 10.0898C10.367 9.98909 10.5534 10.209 10.5947 10.168C10.5963 10.1657 10.5358 10.0196 10.5352 10.0078C10.5276 9.93625 10.5711 10.047 10.5957 10.044C10.6406 10.0374 10.6828 10.0524 10.6973 9.98926C10.7009 9.97072 10.6794 9.8717 10.7412 9.9209C10.7491 9.92736 10.7723 9.96892 10.7773 9.97266C10.8454 9.98985 10.767 9.85151 10.7676 9.78907C10.7687 9.72666 10.8626 9.80175 10.8848 9.82618C10.9434 9.88832 10.8842 9.86618 10.8867 9.87403C10.918 9.96535 10.9388 9.93626 10.9639 9.93262C11.0372 10.0709 11.0614 10.0487 10.9902 9.92872C10.9823 9.91562 10.9714 9.93685 10.9639 9.93262C10.9135 9.78591 10.944 9.74931 11.041 9.86329C11.086 9.91693 11.1016 9.99511 11.1416 9.94727C11.1601 9.92557 11.1099 9.82918 11.1211 9.79297C11.1482 9.71 11.2503 9.77981 11.2979 9.74903C11.3156 9.73751 11.2792 9.68666 11.291 9.67676C11.323 9.65031 11.3676 9.68458 11.3984 9.65333C11.4013 9.65043 11.378 9.59379 11.3887 9.58887C11.4767 9.55936 11.5638 9.58258 11.6572 9.57032C11.7023 9.56397 11.7805 9.52161 11.8291 9.5254C11.8833 9.52903 11.9458 9.56618 12 9.5879C12.0301 9.59987 12.0583 9.60752 12.083 9.60059C12.128 9.5883 12.1215 9.52633 12.1436 9.48536ZM9.82129 12.1494C9.74974 12.1429 9.74728 12.187 9.82031 12.1719C9.82323 12.1713 9.82424 12.1497 9.82129 12.1494ZM9.9209 11.9531C9.93674 11.8666 10.2002 11.8429 10.166 11.9209C10.1594 11.9351 10.0843 11.8849 10.0596 11.9023C10.0147 11.9377 10.1783 11.9643 10.0898 11.999C10.0734 12.0058 9.93125 11.9617 9.9209 11.9531ZM13.8916 11.9238C13.8855 11.9251 13.8803 11.9666 13.8857 11.9688C14.0027 11.9901 14.0129 11.8993 13.8916 11.9238ZM9.95801 11.3428C9.91399 11.3419 9.95066 11.3904 10.0059 11.3916C10.0503 11.393 10.0135 11.3451 9.95801 11.3428ZM13.833 11.124C13.8302 11.1258 13.8336 11.1401 13.8506 11.1318C13.9051 11.1052 13.8808 11.0939 13.833 11.124ZM10.1016 10.6006C10.0248 10.5774 10.1498 10.6927 10.1807 10.7012C10.2808 10.7313 10.1782 10.6257 10.1016 10.6006ZM12.9873 10.2627C13.0319 10.2061 12.9993 10.1811 12.9707 10.25C12.9701 10.2529 12.985 10.2643 12.9873 10.2627Z" fill="#555961"/>
<path d="M14.0028 12.953C14.0233 12.9459 14.0174 12.97 14.0038 12.997C13.999 13.0057 13.9712 13.0317 13.9667 13.039C13.9586 13.0527 13.9748 13.0418 13.9647 13.0575C13.9612 13.0629 13.9156 13.1066 13.913 13.1112C13.8988 13.136 13.9149 13.1298 13.911 13.1444C13.891 13.2175 13.9004 13.2605 13.9071 13.3075C13.9093 13.3231 13.8793 13.3746 13.9061 13.3661C13.9093 13.3651 13.9476 13.3252 13.951 13.3222C14.0035 13.2761 13.9243 13.3545 13.9159 13.3671C13.8828 13.4168 13.8879 13.4289 13.911 13.4218C13.9215 13.4179 13.9946 13.3383 13.9549 13.3847C13.9522 13.3879 13.9096 13.4291 13.9061 13.4345C13.8987 13.4461 13.9097 13.4433 13.9081 13.4482C13.9049 13.4572 13.9057 13.4577 13.9081 13.4609C13.9111 13.4659 13.8957 13.4909 13.909 13.4862C13.9121 13.485 13.954 13.4412 13.9628 13.4355C13.9712 13.4301 13.9714 13.4379 13.9628 13.4491C13.9539 13.4606 13.9207 13.4927 13.913 13.5009C13.8502 13.5675 13.9443 13.483 13.9471 13.4814C13.9955 13.4543 13.9536 13.5144 13.9637 13.5243C13.9718 13.5314 13.9969 13.5227 14.0018 13.5321C14.0075 13.5437 13.9914 13.5746 14.0038 13.579C14.0054 13.5791 14.0531 13.5286 14.0555 13.5282C14.0728 13.5339 14.0788 13.5514 14.0565 13.5966C14.0532 13.602 14.009 13.6429 14.0038 13.6503C13.9747 13.6934 13.8992 13.7914 14.0946 13.6044C14.0919 13.6166 14.0898 13.63 14.0555 13.6728C14.0335 13.7003 13.983 13.7454 14.0067 13.7284C14.0119 13.7247 14.0512 13.6839 14.0575 13.6796C14.0776 13.6691 14.0702 13.6877 14.0965 13.6708C14.103 13.6662 14.1394 13.6293 14.1464 13.623C14.2028 13.5711 14.116 13.6654 14.1102 13.6728C14.068 13.7277 14.0918 13.7135 14.0965 13.7206C14.099 13.7207 14.1465 13.67 14.1493 13.6698C14.1633 13.6695 14.1659 13.6808 14.1503 13.7099C14.1461 13.7169 14.1024 13.7583 14.0985 13.7636C14.0824 13.7859 14.1635 13.7062 14.1493 13.7265C14.1463 13.7307 14.1095 13.767 14.1053 13.7714C14.0437 13.8366 14.1351 13.7485 14.1376 13.747C14.1705 13.7258 14.0805 13.8229 14.0995 13.8153C14.1032 13.8128 14.1452 13.7681 14.1503 13.7665C14.1759 13.7664 14.1768 13.7928 14.1522 13.8427C14.1481 13.8507 14.1124 13.8842 14.1083 13.8886C14.043 13.9578 14.1345 13.8689 14.1385 13.8661C14.1678 13.847 14.0972 13.927 14.2079 13.8232C14.1923 13.8815 14.273 13.8425 14.1981 13.9599C14.1964 13.9621 14.1542 14.0038 14.1512 14.0077C14.1328 14.0392 14.2002 13.9687 14.2889 13.8886C14.3112 13.8685 14.2131 13.9746 14.2059 13.9823C14.1796 14.0107 14.1135 14.0741 14.1073 14.081C14.0691 14.1249 14.2776 13.916 14.2899 13.911C14.2861 13.9149 14.2509 13.9495 14.246 13.955C14.2344 13.9686 14.251 13.9538 14.2382 13.9687C14.2084 14.003 14.1035 14.11 14.1688 14.0517C14.1791 14.0422 14.2908 13.9294 14.2977 13.9286C14.2967 13.9325 14.305 13.9374 14.2987 13.9472C14.2917 13.9575 14.2522 13.9945 14.2499 13.997C14.2018 14.0545 14.1781 14.0748 14.1024 14.1552C14.027 14.2354 14.2111 14.0495 14.2333 14.0292C14.2549 14.0095 14.2153 14.0571 14.201 14.0732C14.1867 14.0892 14.16 14.1136 14.1522 14.123C14.102 14.1832 14.2471 14.0326 14.2782 14.0048C14.3519 13.9389 14.2168 14.0795 14.2069 14.0966C14.2045 14.1008 14.2327 14.0713 14.2382 14.0673C14.2528 14.0595 14.2124 14.1038 14.2557 14.0683C14.2643 14.0611 14.348 13.9837 14.2899 14.0458C14.2815 14.0548 14.2465 14.0883 14.2401 14.0976C14.2307 14.1113 14.2273 14.1224 14.2411 14.1132C14.2522 14.1053 14.3051 14.0488 14.2899 14.0683C14.2824 14.0775 14.2482 14.1084 14.2382 14.122C14.2281 14.1357 14.2343 14.139 14.2372 14.1396C14.2414 14.1386 14.2814 14.097 14.285 14.0937C14.3024 14.0779 14.3268 14.0601 14.327 14.0605C14.3463 14.0708 14.2887 14.1568 14.327 14.1474C14.3313 14.1452 14.3739 14.1002 14.3749 14.0995C14.3977 14.0845 14.2749 14.2019 14.2372 14.245C14.328 14.1534 14.3136 14.171 14.326 14.164C14.3323 14.1604 14.3672 14.1236 14.371 14.12C14.4269 14.068 14.3585 14.1396 14.3446 14.1542C14.2937 14.2077 14.3563 14.1466 14.3221 14.1825C14.2882 14.2182 14.2351 14.2683 14.2382 14.2704C14.2717 14.2383 14.3559 14.1507 14.3719 14.1386C14.4317 14.0938 14.3796 14.1733 14.3778 14.1874C14.3769 14.2004 14.3849 14.1969 14.3768 14.2118C14.3617 14.2397 14.4228 14.1736 14.4559 14.1484C14.4885 14.1237 14.3299 14.2782 14.2967 14.3124C14.2636 14.3467 14.299 14.3127 14.2811 14.3319C14.2633 14.3512 14.2396 14.3732 14.2342 14.3817C14.2418 14.378 14.297 14.3307 14.329 14.2997C14.4049 14.2263 14.4811 14.1458 14.4579 14.1776C14.4565 14.1795 14.4142 14.2204 14.411 14.2255C14.3871 14.2645 14.3923 14.2741 14.3719 14.3095C14.3691 14.3144 14.3224 14.3598 14.3202 14.3632C14.2973 14.3986 14.3726 14.3196 14.4618 14.2372C14.3468 14.3507 14.279 14.4222 14.2831 14.4276C14.2874 14.4287 14.3357 14.3802 14.3719 14.3476C14.3831 14.3375 14.351 14.3736 14.3749 14.3505C14.4529 14.2749 14.537 14.1873 14.5077 14.2265C14.5055 14.229 14.4655 14.2674 14.4618 14.2724C14.4499 14.2939 14.5308 14.2144 14.5458 14.2099C14.5562 14.2075 14.5173 14.2603 14.5126 14.2743C14.5614 14.2294 14.568 14.2285 14.5077 14.2919C14.5073 14.2983 14.5149 14.2965 14.5057 14.3114C14.5026 14.3166 14.465 14.3529 14.4608 14.3573C14.4004 14.4216 14.4851 14.3395 14.4911 14.3349C14.531 14.3091 14.4722 14.3803 14.5428 14.3232C14.5485 14.318 14.6334 14.2339 14.5712 14.2997C14.5654 14.3055 14.5245 14.3422 14.5243 14.3485C14.5243 14.3549 14.4824 14.409 14.5282 14.372C14.5393 14.363 14.6138 14.2928 14.5594 14.3515C14.552 14.3595 14.5264 14.3856 14.5126 14.4003C14.469 14.4466 14.5593 14.3573 14.4842 14.4355C14.4093 14.5135 14.3553 14.5741 14.412 14.5263C14.4137 14.5249 14.4869 14.4544 14.4872 14.4569C14.4869 14.4616 14.4763 14.478 14.4784 14.4804C14.4797 14.4812 14.5223 14.4371 14.5243 14.4355C14.5566 14.4181 14.5228 14.4629 14.5135 14.4882C14.5118 14.4929 14.5762 14.4365 14.5311 14.4872C14.4818 14.5428 14.2612 14.7584 14.3202 14.7138C14.3439 14.6959 14.6244 14.4226 14.4862 14.5712C14.5316 14.546 14.4677 14.628 14.5282 14.5878C14.5309 14.586 14.6102 14.5105 14.6102 14.5126C14.6086 14.5172 14.5756 14.5509 14.5731 14.5556C14.567 14.5712 14.6026 14.5452 14.6024 14.5546C14.6019 14.5584 14.566 14.5931 14.5643 14.5985C14.5643 14.6027 14.6146 14.5554 14.5936 14.5819C14.5771 14.6027 14.4794 14.7052 14.4706 14.7196C14.5698 14.6206 14.5699 14.6242 14.5995 14.6015C14.6053 14.597 14.6389 14.5614 14.6434 14.5575C14.6621 14.5414 14.6356 14.5707 14.6561 14.5526C14.6623 14.547 14.6935 14.5158 14.7001 14.5097C14.7517 14.4621 14.68 14.5402 14.6669 14.5546C14.6187 14.6072 14.6635 14.5643 14.6454 14.5859C14.6273 14.6074 14.5998 14.6295 14.5897 14.6435C14.5689 14.6725 14.5803 14.6729 14.5829 14.6786C14.5857 14.6789 14.6285 14.6344 14.6298 14.6337C14.644 14.6263 14.6 14.6763 14.6913 14.5888C14.4611 14.8237 14.7163 14.5685 14.6747 14.62C14.6707 14.6247 14.5616 14.7341 14.5438 14.7489C14.5262 14.7636 14.5581 14.7271 14.5311 14.7499C14.5247 14.7553 14.4186 14.8564 14.412 14.8622C14.361 14.9073 14.5242 14.7425 14.5331 14.7333C14.6286 14.6342 14.5143 14.7422 14.5057 14.7489C14.4666 14.7798 14.4864 14.7537 14.4579 14.7753C14.4399 14.7889 14.3377 14.89 14.3329 14.8915C14.3379 14.8747 14.4857 14.7225 14.3505 14.8466C14.3215 14.8732 14.2045 14.9923 14.2928 14.8954C14.2992 14.8884 14.3792 14.802 14.3241 14.8534C14.3167 14.8603 14.2846 14.8925 14.2801 14.8964C14.2596 14.9129 14.285 14.8852 14.2704 14.8954C14.2551 14.9063 14.2329 14.9233 14.2421 14.9091C14.2485 14.8997 14.3093 14.8345 14.3241 14.8183C14.3669 14.7714 14.2913 14.8429 14.3446 14.787C14.3982 14.7309 14.4834 14.6501 14.5155 14.6112C14.4263 14.7002 14.3347 14.7914 14.245 14.8808C14.241 14.8701 14.2618 14.8347 14.2508 14.831C14.2493 14.8306 14.2019 14.8789 14.1991 14.8798C14.1878 14.8828 14.2179 14.8461 14.2001 14.8554C14.1857 14.8631 14.1313 14.9096 14.1151 14.9189C14.215 14.8147 14.176 14.8441 14.1815 14.831C14.1844 14.8256 14.2108 14.7996 14.2186 14.79C14.2478 14.7537 14.1601 14.8445 14.1444 14.8583C14.0801 14.9144 14.2807 14.7122 14.2733 14.7099C14.2728 14.7098 14.1604 14.8158 14.1532 14.8222C14.1067 14.8632 14.1902 14.7847 14.1971 14.7743C14.2086 14.7565 14.2321 14.7282 14.1971 14.7558C14.1866 14.7641 14.1159 14.8295 14.1659 14.7753C14.1725 14.7682 14.2089 14.7317 14.2108 14.7294C14.241 14.6912 14.1282 14.8039 14.0878 14.8398C14.0479 14.875 14.1217 14.7936 14.1434 14.7704C14.1986 14.7115 14.1712 14.7461 14.1757 14.7421C14.2439 14.6763 14.231 14.6839 14.2342 14.6767C14.1241 14.7833 14.107 14.794 14.2049 14.6894C14.251 14.6402 14.3081 14.586 14.2831 14.6015C14.2717 14.6085 14.1964 14.6861 14.1737 14.705C14.1224 14.7476 14.1868 14.6716 14.1717 14.6776C14.166 14.6801 14.1253 14.7234 14.12 14.7265C14.1063 14.7342 14.134 14.7008 14.1151 14.7138C14.1108 14.7176 14.0706 14.7591 14.0692 14.7587C14.0572 14.7566 14.0787 14.7229 14.0721 14.7148C14.0688 14.7109 14.0388 14.7282 14.0399 14.7196C14.0423 14.7045 14.0968 14.6336 14.076 14.6435C14.0625 14.6499 14.0194 14.6944 13.9882 14.7226C13.9276 14.7772 14.0266 14.669 14.0419 14.6523C14.0515 14.6415 14.0551 14.6259 14.0458 14.6327C14.0405 14.6366 13.9989 14.6783 13.9969 14.6796C13.9521 14.7082 13.9335 14.7107 13.9442 14.6835C13.9449 14.6825 13.991 14.6373 13.993 14.6347C14.0088 14.6093 13.9486 14.6626 13.911 14.6923C13.8736 14.7218 13.8819 14.7075 13.9589 14.6259C13.9461 14.6327 13.9771 14.593 13.996 14.5692C14.0138 14.5465 13.9252 14.6336 13.9217 14.6366C13.8579 14.6869 13.9061 14.6312 13.9071 14.6161C13.907 14.6095 13.8871 14.6159 13.8739 14.622C13.8635 14.6267 13.8821 14.6043 13.8661 14.6151C13.8617 14.6189 13.8266 14.6548 13.8231 14.6581C13.7722 14.7032 13.8715 14.607 13.8885 14.5888C13.95 14.5229 13.9826 14.4876 13.9491 14.5136C13.9414 14.5196 13.7968 14.6583 13.787 14.665C13.7753 14.6726 13.8257 14.6237 13.8114 14.6337C13.8082 14.6366 13.7791 14.6656 13.7792 14.663C13.779 14.6508 13.7906 14.6263 13.7811 14.623C13.778 14.6246 13.7342 14.6701 13.7294 14.6728C13.7175 14.6727 13.7129 14.6647 13.7303 14.6357C13.7348 14.6284 13.7701 14.5945 13.7801 14.5839C13.8396 14.5207 13.7501 14.6042 13.745 14.6083C13.6908 14.6412 13.7646 14.5518 13.7147 14.58C13.7087 14.5845 13.6117 14.6723 13.6913 14.5888C13.6967 14.5831 13.7796 14.4961 13.7196 14.5526C13.7138 14.5584 13.6759 14.5981 13.6757 14.5946C13.6779 14.588 13.6455 14.6131 13.6903 14.5624C13.7045 14.5463 13.7873 14.4584 13.7167 14.5234C13.7105 14.5291 13.5554 14.6769 13.659 14.5702C13.6762 14.5526 13.7881 14.441 13.7274 14.495C13.7156 14.5056 13.6918 14.531 13.6747 14.5448C13.6481 14.5663 13.674 14.5333 13.621 14.58C13.6101 14.5897 13.5348 14.6611 13.5897 14.6025C13.5984 14.5931 13.6363 14.5559 13.6395 14.5507C13.6546 14.5261 13.6249 14.5457 13.6454 14.5155C13.6527 14.5047 13.714 14.4446 13.7284 14.4267C13.7427 14.4088 13.7545 14.3896 13.7255 14.415C13.6964 14.4403 13.6046 14.5361 13.5917 14.5439C13.546 14.5651 13.5897 14.4969 13.5858 14.4765C13.5837 14.4754 13.5519 14.5097 13.5487 14.5077C13.536 14.5007 13.4874 14.5147 13.5516 14.4335C13.6032 14.3683 13.6568 14.3326 13.6757 14.3036C13.6843 14.29 13.5742 14.3947 13.5663 14.4013C13.5246 14.4311 13.5693 14.3778 13.5487 14.3876C13.543 14.3913 13.5 14.4362 13.4969 14.4374C13.4868 14.4412 13.5026 14.4182 13.496 14.4189C13.4912 14.4212 13.4588 14.4535 13.4598 14.4501C13.4628 14.4411 13.4752 14.424 13.5048 14.3886C13.5075 14.3853 13.5523 14.3436 13.5516 14.3398C13.5515 14.3327 13.577 14.2981 13.5409 14.3261C13.5297 14.3348 13.4507 14.4138 13.5018 14.3573C13.5127 14.3454 13.6085 14.251 13.5233 14.33C13.5075 14.3446 13.3945 14.4473 13.4628 14.3739C13.4815 14.3538 13.5563 14.2755 13.5428 14.286C13.5407 14.2878 13.5008 14.3294 13.494 14.3339C13.4758 14.3434 13.4755 14.3349 13.4579 14.3437C13.4532 14.346 13.4126 14.3892 13.4051 14.3935C13.3891 14.3997 13.3942 14.3827 13.4032 14.3642C13.4072 14.3568 13.4443 14.3223 13.4481 14.3183C13.5105 14.2518 13.4216 14.3373 13.4159 14.3417C13.3815 14.3676 13.4189 14.3241 13.4042 14.331C13.3988 14.3344 13.3592 14.3744 13.3553 14.3778C13.3171 14.4116 13.3935 14.3386 13.4003 14.329C13.4193 14.3021 13.4115 14.3014 13.4022 14.3026C13.397 14.3054 13.356 14.349 13.3505 14.3525C13.3344 14.3529 13.3307 14.3406 13.3495 14.3066C13.3531 14.3 13.3911 14.2636 13.3993 14.2548C13.456 14.194 13.3731 14.2707 13.3641 14.2782C13.3262 14.3099 13.3564 14.2767 13.3485 14.2792C13.3044 14.296 13.3089 14.2577 13.3094 14.2314C13.3099 14.1975 13.3318 14.1499 13.3075 14.1425C13.3059 14.142 13.2567 14.1921 13.2548 14.1923C13.2321 14.1925 13.2398 14.1623 13.2147 14.165C13.2127 14.1651 13.1668 14.2139 13.162 14.2157C13.1521 14.2195 13.1513 14.213 13.163 14.1952C13.1686 14.1865 13.2106 14.1486 13.2157 14.1405C13.2272 14.1219 13.2259 14.1142 13.2147 14.1181C13.2088 14.1212 13.1645 14.1703 13.162 14.1689C13.1436 14.1599 13.1222 14.1542 13.1698 14.079C13.1731 14.0738 13.2696 13.9755 13.2489 13.9921C13.2218 14.0189 13.1899 14.0503 13.161 14.079C13.126 14.0742 13.1397 14.0212 13.1249 13.996C13.1234 13.996 13.0772 14.0456 13.0731 14.0468C13.0644 14.0366 13.0405 14.0411 13.0819 13.9804C13.0859 13.9744 13.177 13.885 13.161 13.8954C13.158 13.8974 13.1417 13.9053 13.121 13.9237C13.1178 13.9266 13.0757 13.9698 13.0731 13.9696C13.0589 13.968 13.0602 13.9496 13.078 13.9159C13.081 13.9104 13.1272 13.8666 13.1298 13.8622C13.1471 13.8319 13.1063 13.859 13.1405 13.8124C13.1639 13.7807 13.2438 13.7037 13.3182 13.6249C13.3284 13.614 13.3281 13.6095 13.3719 13.5653C13.4837 13.4529 13.6075 13.3308 13.7264 13.2109C13.752 13.1851 13.721 13.2093 13.785 13.1493C13.7893 13.1453 13.8131 13.1268 13.8348 13.1064C13.8502 13.0918 13.8946 13.0459 13.9139 13.0282C13.9325 13.0114 13.8966 13.0495 13.9198 13.0292C13.9434 13.0084 13.9934 12.9567 14.0028 12.953ZM14.6971 14.6171C14.6705 14.6508 14.7887 14.5369 14.7303 14.6025C14.7199 14.6141 14.6125 14.7139 14.6053 14.7196L14.6952 14.6142C14.7387 14.5685 14.7799 14.528 14.7743 14.5419C14.772 14.5472 14.7119 14.5984 14.6971 14.6171ZM14.2694 14.2675C14.2181 14.3168 14.2178 14.3246 14.2694 14.2714C14.2715 14.2693 14.2715 14.2655 14.2694 14.2675ZM14.119 14.1816C14.0763 14.2245 14.0906 14.214 14.1298 14.1737C14.1319 14.1714 14.1319 14.1687 14.119 14.1816ZM14.1503 13.9892C14.0657 14.0692 14.0658 14.0871 14.1503 13.9989C14.1546 13.9944 14.1543 13.9856 14.1503 13.9892ZM13.3505 13.6093C13.2991 13.6587 13.2979 13.6664 13.3495 13.6132C13.3514 13.6112 13.3522 13.6081 13.3505 13.6093Z" fill="#555961"/>
</svg>
